<?xml version="1.0" encoding="UTF-8" standalone="no"?>
<!DOCTYPE svg PUBLIC "-//W3C//DTD SVG 1.1//EN"
 "http://www.w3.org/Graphics/SVG/1.1/DTD/svg11.dtd">
<!-- Generated by graphviz version 8.1.0 (20230707.0739)
 -->
<!-- Title: Antenna.cpp Pages: 1 -->
<svg width="1150pt" height="260pt"
 viewBox="0.00 0.00 1150.01 259.50" xmlns="http://www.w3.org/2000/svg" xmlns:xlink="http://www.w3.org/1999/xlink">
<g id="graph0" class="graph" transform="scale(1 1) rotate(0) translate(4 255.5)">
<title>Antenna.cpp</title>
<!-- Node1 -->
<g id="Node000001" class="node">
<title>Node1</title>
<g id="a_Node000001"><a xlink:title="Antenna class.">
<polygon fill="#999999" stroke="#666666" points="936.76,-251.5 866.01,-251.5 866.01,-232.25 936.76,-232.25 936.76,-251.5"/>
<text text-anchor="middle" x="901.38" y="-238" font-family="Helvetica,sans-Serif" font-size="10.00">Antenna.cpp</text>
</a>
</g>
</g>
<!-- Node2 -->
<g id="Node000002" class="node">
<title>Node2</title>
<g id="a_Node000002"><a xlink:href="_antenna_8h.html" target="_top" xlink:title="Antenna class.">
<polygon fill="white" stroke="#666666" points="396.51,-196.25 336.26,-196.25 336.26,-177 396.51,-177 396.51,-196.25"/>
<text text-anchor="middle" x="366.38" y="-182.75" font-family="Helvetica,sans-Serif" font-size="10.00">Antenna.h</text>
</a>
</g>
</g>
<!-- Node1&#45;&gt;Node2 -->
<g id="edge1_Node000001_Node000002" class="edge">
<title>Node1&#45;&gt;Node2</title>
<g id="a_edge1_Node000001_Node000002"><a xlink:title=" ">
<path fill="none" stroke="#63b8ff" d="M865.86,-237.34C770.49,-227.85 509.14,-201.83 407.54,-191.72"/>
<polygon fill="#63b8ff" stroke="#63b8ff" points="408.1,-188.16 397.81,-190.65 407.41,-195.13 408.1,-188.16"/>
</a>
</g>
</g>
<!-- Node9 -->
<g id="Node000009" class="node">
<title>Node9</title>
<g id="a_Node000009"><a xlink:title=" ">
<polygon fill="#e0e0e0" stroke="#999999" points="1016.88,-19.25 955.88,-19.25 955.88,0 1016.88,0 1016.88,-19.25"/>
<text text-anchor="middle" x="986.38" y="-5.75" font-family="Helvetica,sans-Serif" font-size="10.00">filesystem</text>
</a>
</g>
</g>
<!-- Node1&#45;&gt;Node9 -->
<g id="edge14_Node000001_Node000009" class="edge">
<title>Node1&#45;&gt;Node9</title>
<g id="a_edge14_Node000001_Node000009"><a xlink:title=" ">
<path fill="none" stroke="#63b8ff" d="M936.96,-240.25C969.3,-237.55 1015.38,-227.93 1038.38,-196.25 1076.66,-143.52 1026.64,-63.63 1000.49,-28.39"/>
<polygon fill="#63b8ff" stroke="#63b8ff" points="1002.69,-26.51 993.83,-20.69 997.13,-30.76 1002.69,-26.51"/>
</a>
</g>
</g>
<!-- Node10 -->
<g id="Node000010" class="node">
<title>Node10</title>
<g id="a_Node000010"><a xlink:title=" ">
<polygon fill="#e0e0e0" stroke="#999999" points="755.13,-19.25 701.63,-19.25 701.63,0 755.13,0 755.13,-19.25"/>
<text text-anchor="middle" x="728.38" y="-5.75" font-family="Helvetica,sans-Serif" font-size="10.00">iostream</text>
</a>
</g>
</g>
<!-- Node1&#45;&gt;Node10 -->
<g id="edge15_Node000001_Node000010" class="edge">
<title>Node1&#45;&gt;Node10</title>
<g id="a_edge15_Node000001_Node000010"><a xlink:title=" ">
<path fill="none" stroke="#63b8ff" d="M912.99,-231.97C937.78,-211.85 991.69,-161.5 966.38,-121.75 922.04,-52.12 821.4,-25.4 766.25,-15.72"/>
<polygon fill="#63b8ff" stroke="#63b8ff" points="766.97,-12.12 756.54,-13.95 765.84,-19.03 766.97,-12.12"/>
</a>
</g>
</g>
<!-- Node12 -->
<g id="Node000012" class="node">
<title>Node12</title>
<g id="a_Node000012"><a xlink:title=" ">
<polygon fill="#e0e0e0" stroke="#999999" points="1142.01,-196.25 1090.76,-196.25 1090.76,-177 1142.01,-177 1142.01,-196.25"/>
<text text-anchor="middle" x="1116.38" y="-182.75" font-family="Helvetica,sans-Serif" font-size="10.00">sstream</text>
</a>
</g>
</g>
<!-- Node1&#45;&gt;Node12 -->
<g id="edge16_Node000001_Node000012" class="edge">
<title>Node1&#45;&gt;Node12</title>
<g id="a_edge16_Node000001_Node000012"><a xlink:title=" ">
<path fill="none" stroke="#63b8ff" d="M936.88,-232.08C976.35,-222.31 1039.77,-206.6 1079.71,-196.71"/>
<polygon fill="#63b8ff" stroke="#63b8ff" points="1080.44,-199.88 1089.31,-194.08 1078.76,-193.09 1080.44,-199.88"/>
</a>
</g>
</g>
<!-- Node13 -->
<g id="Node000013" class="node">
<title>Node13</title>
<g id="a_Node000013"><a xlink:href="_file_8h.html" target="_top" xlink:title="File access utils.">
<polygon fill="white" stroke="#666666" points="788.76,-196.25 718.01,-196.25 718.01,-177 788.76,-177 788.76,-196.25"/>
<text text-anchor="middle" x="753.38" y="-182.75" font-family="Helvetica,sans-Serif" font-size="10.00">../core/File.h</text>
</a>
</g>
</g>
<!-- Node1&#45;&gt;Node13 -->
<g id="edge17_Node000001_Node000013" class="edge">
<title>Node1&#45;&gt;Node13</title>
<g id="a_edge17_Node000001_Node000013"><a xlink:title=" ">
<path fill="none" stroke="#63b8ff" d="M876.28,-231.84C852.25,-223.2 815.78,-210.07 788.8,-200.37"/>
<polygon fill="#63b8ff" stroke="#63b8ff" points="790.21,-196.79 779.61,-196.7 787.84,-203.38 790.21,-196.79"/>
</a>
</g>
</g>
<!-- Node14 -->
<g id="Node000014" class="node">
<title>Node14</title>
<g id="a_Node000014"><a xlink:href="_math_utils_8h.html" target="_top" xlink:title=" ">
<polygon fill="white" stroke="#666666" points="533.88,-141 400.88,-141 400.88,-121.75 533.88,-121.75 533.88,-141"/>
<text text-anchor="middle" x="467.38" y="-127.5" font-family="Helvetica,sans-Serif" font-size="10.00">lupnt/numerics/MathUtils.h</text>
</a>
</g>
</g>
<!-- Node1&#45;&gt;Node14 -->
<g id="edge30_Node000001_Node000014" class="edge">
<title>Node1&#45;&gt;Node14</title>
<g id="a_edge30_Node000001_Node000014"><a xlink:title=" ">
<path fill="none" stroke="#63b8ff" d="M865.57,-232.88C826.94,-224.19 763.69,-209.72 709.38,-196.25 639.79,-178.98 559.36,-157.43 510.98,-144.3"/>
<polygon fill="#63b8ff" stroke="#63b8ff" points="512.14,-140.72 501.57,-141.47 510.31,-147.47 512.14,-140.72"/>
</a>
</g>
</g>
<!-- Node3 -->
<g id="Node000003" class="node">
<title>Node3</title>
<g id="a_Node000003"><a xlink:title=" ">
<polygon fill="#e0e0e0" stroke="#999999" points="426.88,-80.12 305.88,-80.12 305.88,-60.88 426.88,-60.88 426.88,-80.12"/>
<text text-anchor="middle" x="366.38" y="-66.62" font-family="Helvetica,sans-Serif" font-size="10.00">autodiff/forward/real.hpp</text>
</a>
</g>
</g>
<!-- Node2&#45;&gt;Node3 -->
<g id="edge2_Node000002_Node000003" class="edge">
<title>Node2&#45;&gt;Node3</title>
<g id="a_edge2_Node000002_Node000003"><a xlink:title=" ">
<path fill="none" stroke="#63b8ff" d="M366.38,-176.67C366.38,-158.34 366.38,-116.15 366.38,-91.13"/>
<polygon fill="#63b8ff" stroke="#63b8ff" points="369.88,-91.41 366.38,-81.41 362.88,-91.41 369.88,-91.41"/>
</a>
</g>
</g>
<!-- Node4 -->
<g id="Node000004" class="node">
<title>Node4</title>
<g id="a_Node000004"><a xlink:title=" ">
<polygon fill="#e0e0e0" stroke="#999999" points="613.51,-85.75 511.26,-85.75 511.26,-55.25 613.51,-55.25 613.51,-85.75"/>
<text text-anchor="start" x="519.26" y="-72.25" font-family="Helvetica,sans-Serif" font-size="10.00">autodiff/forward/real</text>
<text text-anchor="middle" x="562.38" y="-61" font-family="Helvetica,sans-Serif" font-size="10.00">/eigen.hpp</text>
</a>
</g>
</g>
<!-- Node2&#45;&gt;Node4 -->
<g id="edge3_Node000002_Node000004" class="edge">
<title>Node2&#45;&gt;Node4</title>
<g id="a_edge3_Node000002_Node000004"><a xlink:title=" ">
<path fill="none" stroke="#63b8ff" d="M396.86,-186.57C435.84,-186.06 502.98,-179.16 542.38,-141 554.24,-129.51 559.19,-111.49 561.21,-96.68"/>
<polygon fill="#63b8ff" stroke="#63b8ff" points="564.75,-97.43 562.24,-87.14 557.78,-96.75 564.75,-97.43"/>
</a>
</g>
</g>
<!-- Node5 -->
<g id="Node000005" class="node">
<title>Node5</title>
<g id="a_Node000005"><a xlink:title=" ">
<polygon fill="#e0e0e0" stroke="#999999" points="201.38,-19.25 161.38,-19.25 161.38,0 201.38,0 201.38,-19.25"/>
<text text-anchor="middle" x="181.38" y="-5.75" font-family="Helvetica,sans-Serif" font-size="10.00">string</text>
</a>
</g>
</g>
<!-- Node2&#45;&gt;Node5 -->
<g id="edge4_Node000002_Node000005" class="edge">
<title>Node2&#45;&gt;Node5</title>
<g id="a_edge4_Node000002_Node000005"><a xlink:title=" ">
<path fill="none" stroke="#63b8ff" d="M336.01,-181.95C256.72,-171.67 46.83,-139.76 7.38,-85.75 -30.54,-33.83 90.81,-17.4 150.38,-12.53"/>
<polygon fill="#63b8ff" stroke="#63b8ff" points="150.36,-15.97 160.07,-11.73 149.83,-8.99 150.36,-15.97"/>
</a>
</g>
</g>
<!-- Node6 -->
<g id="Node000006" class="node">
<title>Node6</title>
<g id="a_Node000006"><a xlink:href="_constants_8h.html" target="_top" xlink:title="List of constants.">
<polygon fill="white" stroke="#666666" points="304.88,-141 189.88,-141 189.88,-121.75 304.88,-121.75 304.88,-141"/>
<text text-anchor="middle" x="247.38" y="-127.5" font-family="Helvetica,sans-Serif" font-size="10.00">lupnt/core/Constants.h</text>
</a>
</g>
</g>
<!-- Node2&#45;&gt;Node6 -->
<g id="edge5_Node000002_Node000006" class="edge">
<title>Node2&#45;&gt;Node6</title>
<g id="a_edge5_Node000002_Node000006"><a xlink:title=" ">
<path fill="none" stroke="#63b8ff" d="M346.2,-176.59C327.39,-168.18 299.1,-155.52 277.6,-145.9"/>
<polygon fill="#63b8ff" stroke="#63b8ff" points="279.22,-142.34 268.67,-141.45 276.37,-148.73 279.22,-142.34"/>
</a>
</g>
</g>
<!-- Node6&#45;&gt;Node3 -->
<g id="edge7_Node000006_Node000003" class="edge">
<title>Node6&#45;&gt;Node3</title>
<g id="a_edge7_Node000006_Node000003"><a xlink:title=" ">
<path fill="none" stroke="#63b8ff" d="M265.71,-121.3C285.16,-111.68 316.12,-96.37 338.58,-85.26"/>
<polygon fill="#63b8ff" stroke="#63b8ff" points="339.81,-88.06 347.22,-80.48 336.71,-81.78 339.81,-88.06"/>
</a>
</g>
</g>
<!-- Node6&#45;&gt;Node5 -->
<g id="edge8_Node000006_Node000005" class="edge">
<title>Node6&#45;&gt;Node5</title>
<g id="a_edge8_Node000006_Node000005"><a xlink:title=" ">
<path fill="none" stroke="#63b8ff" d="M233.27,-121.52C221.8,-113.57 206.14,-100.84 197.38,-85.75 187.46,-68.66 183.66,-46.17 182.23,-30.27"/>
<polygon fill="#63b8ff" stroke="#63b8ff" points="185.67,-30.34 181.52,-20.59 178.69,-30.8 185.67,-30.34"/>
</a>
</g>
</g>
<!-- Node7 -->
<g id="Node000007" class="node">
<title>Node7</title>
<g id="a_Node000007"><a xlink:title=" ">
<polygon fill="#e0e0e0" stroke="#999999" points="150.26,-80.12 16.51,-80.12 16.51,-60.88 150.26,-60.88 150.26,-80.12"/>
<text text-anchor="middle" x="83.38" y="-66.62" font-family="Helvetica,sans-Serif" font-size="10.00">autodiff/common/eigen.hpp</text>
</a>
</g>
</g>
<!-- Node6&#45;&gt;Node7 -->
<g id="edge6_Node000006_Node000007" class="edge">
<title>Node6&#45;&gt;Node7</title>
<g id="a_edge6_Node000006_Node000007"><a xlink:title=" ">
<path fill="none" stroke="#63b8ff" d="M222.12,-121.3C194.43,-111.36 149.81,-95.35 118.67,-84.17"/>
<polygon fill="#63b8ff" stroke="#63b8ff" points="120.27,-80.67 109.68,-80.58 117.91,-87.25 120.27,-80.67"/>
</a>
</g>
</g>
<!-- Node8 -->
<g id="Node000008" class="node">
<title>Node8</title>
<g id="a_Node000008"><a xlink:href="_user_file_path_8h.html" target="_top" xlink:title="File access utils.">
<polygon fill="white" stroke="#666666" points="288.01,-80.12 206.76,-80.12 206.76,-60.88 288.01,-60.88 288.01,-80.12"/>
<text text-anchor="middle" x="247.38" y="-66.62" font-family="Helvetica,sans-Serif" font-size="10.00">UserFilePath.h</text>
</a>
</g>
</g>
<!-- Node6&#45;&gt;Node8 -->
<g id="edge9_Node000006_Node000008" class="edge">
<title>Node6&#45;&gt;Node8</title>
<g id="a_edge9_Node000006_Node000008"><a xlink:title=" ">
<path fill="none" stroke="#63b8ff" d="M247.38,-121.43C247.38,-113.48 247.38,-101.56 247.38,-91.37"/>
<polygon fill="#63b8ff" stroke="#63b8ff" points="250.88,-91.53 247.38,-81.53 243.88,-91.53 250.88,-91.53"/>
</a>
</g>
</g>
<!-- Node8&#45;&gt;Node5 -->
<g id="edge13_Node000008_Node000005" class="edge">
<title>Node8&#45;&gt;Node5</title>
<g id="a_edge13_Node000008_Node000005"><a xlink:title=" ">
<path fill="none" stroke="#63b8ff" d="M237.36,-60.56C227.38,-51.65 211.83,-37.78 199.65,-26.92"/>
<polygon fill="#63b8ff" stroke="#63b8ff" points="202.29,-24.7 192.5,-20.65 197.63,-29.92 202.29,-24.7"/>
</a>
</g>
</g>
<!-- Node8&#45;&gt;Node9 -->
<g id="edge10_Node000008_Node000009" class="edge">
<title>Node8&#45;&gt;Node9</title>
<g id="a_edge10_Node000008_Node000009"><a xlink:title=" ">
<path fill="none" stroke="#63b8ff" d="M274.6,-60.44C281.63,-58.42 289.23,-56.51 296.38,-55.25 422.18,-33.16 815.61,-16.96 944.81,-12.12"/>
<polygon fill="#63b8ff" stroke="#63b8ff" points="944.56,-15.6 954.42,-11.73 944.3,-8.6 944.56,-15.6"/>
</a>
</g>
</g>
<!-- Node8&#45;&gt;Node10 -->
<g id="edge11_Node000008_Node000010" class="edge">
<title>Node8&#45;&gt;Node10</title>
<g id="a_edge11_Node000008_Node000010"><a xlink:title=" ">
<path fill="none" stroke="#63b8ff" d="M275.41,-60.41C282.22,-58.46 289.51,-56.59 296.38,-55.25 440.32,-27.12 614.93,-15.98 690.5,-12.24"/>
<polygon fill="#63b8ff" stroke="#63b8ff" points="690.52,-15.7 700.34,-11.73 690.18,-8.71 690.52,-15.7"/>
</a>
</g>
</g>
<!-- Node11 -->
<g id="Node000011" class="node">
<title>Node11</title>
<g id="a_Node000011"><a xlink:title=" ">
<polygon fill="#e0e0e0" stroke="#999999" points="272.26,-19.25 222.51,-19.25 222.51,0 272.26,0 272.26,-19.25"/>
<text text-anchor="middle" x="247.38" y="-5.75" font-family="Helvetica,sans-Serif" font-size="10.00">optional</text>
</a>
</g>
</g>
<!-- Node8&#45;&gt;Node11 -->
<g id="edge12_Node000008_Node000011" class="edge">
<title>Node8&#45;&gt;Node11</title>
<g id="a_edge12_Node000008_Node000011"><a xlink:title=" ">
<path fill="none" stroke="#63b8ff" d="M247.38,-60.56C247.38,-52.6 247.38,-40.69 247.38,-30.49"/>
<polygon fill="#63b8ff" stroke="#63b8ff" points="250.88,-30.65 247.38,-20.65 243.88,-30.65 250.88,-30.65"/>
</a>
</g>
</g>
<!-- Node13&#45;&gt;Node4 -->
<g id="edge23_Node000013_Node000004" class="edge">
<title>Node13&#45;&gt;Node4</title>
<g id="a_edge23_Node000013_Node000004"><a xlink:title=" ">
<path fill="none" stroke="#63b8ff" d="M717.78,-178.48C690.57,-171.84 652.98,-160.05 624.38,-141 605.99,-128.75 589.57,-109.78 578.26,-94.75"/>
<polygon fill="#63b8ff" stroke="#63b8ff" points="580.61,-93.03 571.9,-86.99 574.94,-97.14 580.61,-93.03"/>
</a>
</g>
</g>
<!-- Node13&#45;&gt;Node5 -->
<g id="edge28_Node000013_Node000005" class="edge">
<title>Node13&#45;&gt;Node5</title>
<g id="a_edge28_Node000013_Node000005"><a xlink:title=" ">
<path fill="none" stroke="#63b8ff" d="M718.95,-176.56C698.75,-169.7 674,-158.43 657.38,-141 628.98,-111.21 655.51,-79.68 622.38,-55.25 548.96,-1.09 303.22,-35.18 213.38,-19.25 213.02,-19.19 212.66,-19.12 212.29,-19.05"/>
<polygon fill="#63b8ff" stroke="#63b8ff" points="213.1,-15.42 202.57,-16.64 211.56,-22.25 213.1,-15.42"/>
</a>
</g>
</g>
<!-- Node13&#45;&gt;Node9 -->
<g id="edge24_Node000013_Node000009" class="edge">
<title>Node13&#45;&gt;Node9</title>
<g id="a_edge24_Node000013_Node000009"><a xlink:title=" ">
<path fill="none" stroke="#63b8ff" d="M789.22,-182.97C843.44,-178.18 942.54,-166.17 966.38,-141 994.77,-111.03 993.09,-58.63 989.62,-30.24"/>
<polygon fill="#63b8ff" stroke="#63b8ff" points="992.99,-30.08 988.1,-20.68 986.06,-31.08 992.99,-30.08"/>
</a>
</g>
</g>
<!-- Node13&#45;&gt;Node10 -->
<g id="edge26_Node000013_Node000010" class="edge">
<title>Node13&#45;&gt;Node10</title>
<g id="a_edge26_Node000013_Node000010"><a xlink:title=" ">
<path fill="none" stroke="#63b8ff" d="M752.11,-176.71C748.25,-149.68 736.61,-68.24 731.2,-30.37"/>
<polygon fill="#63b8ff" stroke="#63b8ff" points="734.56,-30.14 729.68,-20.74 727.63,-31.13 734.56,-30.14"/>
</a>
</g>
</g>
<!-- Node13&#45;&gt;Node14 -->
<g id="edge18_Node000013_Node000014" class="edge">
<title>Node13&#45;&gt;Node14</title>
<g id="a_edge18_Node000013_Node000014"><a xlink:title=" ">
<path fill="none" stroke="#63b8ff" d="M717.74,-178.99C669.98,-170.1 584.57,-154.19 526.95,-143.47"/>
<polygon fill="#63b8ff" stroke="#63b8ff" points="527.65,-139.85 517.18,-141.46 526.37,-146.73 527.65,-139.85"/>
</a>
</g>
</g>
<!-- Node16 -->
<g id="Node000016" class="node">
<title>Node16</title>
<g id="a_Node000016"><a xlink:title=" ">
<polygon fill="#e0e0e0" stroke="#999999" points="890.51,-141 818.26,-141 818.26,-121.75 890.51,-121.75 890.51,-141"/>
<text text-anchor="middle" x="854.38" y="-127.5" font-family="Helvetica,sans-Serif" font-size="10.00">Eigen/Dense</text>
</a>
</g>
</g>
<!-- Node13&#45;&gt;Node16 -->
<g id="edge22_Node000013_Node000016" class="edge">
<title>Node13&#45;&gt;Node16</title>
<g id="a_edge22_Node000013_Node000016"><a xlink:title=" ">
<path fill="none" stroke="#63b8ff" d="M770.52,-176.59C786.11,-168.37 809.4,-156.09 827.48,-146.56"/>
<polygon fill="#63b8ff" stroke="#63b8ff" points="828.95,-149.21 836.16,-141.45 825.69,-143.02 828.95,-149.21"/>
</a>
</g>
</g>
<!-- Node17 -->
<g id="Node000017" class="node">
<title>Node17</title>
<g id="a_Node000017"><a xlink:title=" ">
<polygon fill="#e0e0e0" stroke="#999999" points="957.88,-141 908.88,-141 908.88,-121.75 957.88,-121.75 957.88,-141"/>
<text text-anchor="middle" x="933.38" y="-127.5" font-family="Helvetica,sans-Serif" font-size="10.00">fstream</text>
</a>
</g>
</g>
<!-- Node13&#45;&gt;Node17 -->
<g id="edge25_Node000013_Node000017" class="edge">
<title>Node13&#45;&gt;Node17</title>
<g id="a_edge25_Node000013_Node000017"><a xlink:title=" ">
<path fill="none" stroke="#63b8ff" d="M783.92,-176.59C815.59,-167.22 865.06,-152.59 898.32,-142.75"/>
<polygon fill="#63b8ff" stroke="#63b8ff" points="898.91,-145.93 907.5,-139.73 896.92,-139.22 898.91,-145.93"/>
</a>
</g>
</g>
<!-- Node18 -->
<g id="Node000018" class="node">
<title>Node18</title>
<g id="a_Node000018"><a xlink:title=" ">
<polygon fill="#e0e0e0" stroke="#999999" points="700.76,-141 666.01,-141 666.01,-121.75 700.76,-121.75 700.76,-141"/>
<text text-anchor="middle" x="683.38" y="-127.5" font-family="Helvetica,sans-Serif" font-size="10.00">map</text>
</a>
</g>
</g>
<!-- Node13&#45;&gt;Node18 -->
<g id="edge27_Node000013_Node000018" class="edge">
<title>Node13&#45;&gt;Node18</title>
<g id="a_edge27_Node000013_Node000018"><a xlink:title=" ">
<path fill="none" stroke="#63b8ff" d="M741.51,-176.59C731.19,-168.74 716.01,-157.2 703.76,-147.87"/>
<polygon fill="#63b8ff" stroke="#63b8ff" points="706.16,-144.54 696.08,-141.27 701.92,-150.11 706.16,-144.54"/>
</a>
</g>
</g>
<!-- Node19 -->
<g id="Node000019" class="node">
<title>Node19</title>
<g id="a_Node000019"><a xlink:title=" ">
<polygon fill="#e0e0e0" stroke="#999999" points="799.88,-141 756.88,-141 756.88,-121.75 799.88,-121.75 799.88,-141"/>
<text text-anchor="middle" x="778.38" y="-127.5" font-family="Helvetica,sans-Serif" font-size="10.00">vector</text>
</a>
</g>
</g>
<!-- Node13&#45;&gt;Node19 -->
<g id="edge29_Node000013_Node000019" class="edge">
<title>Node13&#45;&gt;Node19</title>
<g id="a_edge29_Node000013_Node000019"><a xlink:title=" ">
<path fill="none" stroke="#63b8ff" d="M757.51,-176.83C760.78,-169.86 765.47,-159.87 769.58,-151.12"/>
<polygon fill="#63b8ff" stroke="#63b8ff" points="773.08,-152.9 774.16,-142.36 766.75,-149.92 773.08,-152.9"/>
</a>
</g>
</g>
<!-- Node14&#45;&gt;Node3 -->
<g id="edge19_Node000014_Node000003" class="edge">
<title>Node14&#45;&gt;Node3</title>
<g id="a_edge19_Node000014_Node000003"><a xlink:title=" ">
<path fill="none" stroke="#63b8ff" d="M452.04,-121.43C435.88,-112.01 410.17,-97.02 391.13,-85.93"/>
<polygon fill="#63b8ff" stroke="#63b8ff" points="393.27,-82.54 382.87,-80.53 389.74,-88.59 393.27,-82.54"/>
</a>
</g>
</g>
<!-- Node14&#45;&gt;Node4 -->
<g id="edge20_Node000014_Node000004" class="edge">
<title>Node14&#45;&gt;Node4</title>
<g id="a_edge20_Node000014_Node000004"><a xlink:title=" ">
<path fill="none" stroke="#63b8ff" d="M481.81,-121.43C494.48,-113.58 513.38,-101.87 529.69,-91.76"/>
<polygon fill="#63b8ff" stroke="#63b8ff" points="531.28,-94.27 537.93,-86.03 527.59,-88.32 531.28,-94.27"/>
</a>
</g>
</g>
<!-- Node15 -->
<g id="Node000015" class="node">
<title>Node15</title>
<g id="a_Node000015"><a xlink:title=" ">
<polygon fill="#e0e0e0" stroke="#999999" points="493.51,-80.12 445.26,-80.12 445.26,-60.88 493.51,-60.88 493.51,-80.12"/>
<text text-anchor="middle" x="469.38" y="-66.62" font-family="Helvetica,sans-Serif" font-size="10.00">random</text>
</a>
</g>
</g>
<!-- Node14&#45;&gt;Node15 -->
<g id="edge21_Node000014_Node000015" class="edge">
<title>Node14&#45;&gt;Node15</title>
<g id="a_edge21_Node000014_Node000015"><a xlink:title=" ">
<path fill="none" stroke="#63b8ff" d="M467.69,-121.43C467.96,-113.48 468.36,-101.56 468.71,-91.37"/>
<polygon fill="#63b8ff" stroke="#63b8ff" points="472.23,-91.64 469.08,-81.53 465.24,-91.4 472.23,-91.64"/>
</a>
</g>
</g>
</g>
</svg>
