<?xml version="1.0" encoding="UTF-8" standalone="no"?>
<!DOCTYPE svg PUBLIC "-//W3C//DTD SVG 1.1//EN"
 "http://www.w3.org/Graphics/SVG/1.1/DTD/svg11.dtd">
<!-- Generated by graphviz version 8.1.0 (20230707.0739)
 -->
<!-- Title: Application.h Pages: 1 -->
<svg width="560pt" height="138pt"
 viewBox="0.00 0.00 560.00 137.75" xmlns="http://www.w3.org/2000/svg" xmlns:xlink="http://www.w3.org/1999/xlink">
<g id="graph0" class="graph" transform="scale(1 1) rotate(0) translate(4 133.75)">
<title>Application.h</title>
<!-- Node1 -->
<g id="Node000001" class="node">
<title>Node1</title>
<g id="a_Node000001"><a xlink:title="Base class for Application.">
<polygon fill="#999999" stroke="#666666" points="385.25,-129.75 313,-129.75 313,-110.5 385.25,-110.5 385.25,-129.75"/>
<text text-anchor="middle" x="349.12" y="-116.25" font-family="Helvetica,sans-Serif" font-size="10.00">Application.h</text>
</a>
</g>
</g>
<!-- Node2 -->
<g id="Node000002" class="node">
<title>Node2</title>
<g id="a_Node000002"><a xlink:href="_g_n_s_s_state_estimation_app_8h.html" target="_top" xlink:title="State Estimation Application Using GNSS Measurement.">
<polygon fill="white" stroke="#666666" points="293,-74.5 153.25,-74.5 153.25,-55.25 293,-55.25 293,-74.5"/>
<text text-anchor="middle" x="223.12" y="-61" font-family="Helvetica,sans-Serif" font-size="10.00">GNSSStateEstimationApp.h</text>
</a>
</g>
</g>
<!-- Node1&#45;&gt;Node2 -->
<g id="edge1_Node000001_Node000002" class="edge">
<title>Node1&#45;&gt;Node2</title>
<g id="a_edge1_Node000001_Node000002"><a xlink:title=" ">
<path fill="none" stroke="#63b8ff" d="M317.86,-105.91C295.05,-96.27 264.73,-83.46 244.6,-74.95"/>
<polygon fill="#63b8ff" stroke="#63b8ff" points="316.18,-109.42 326.75,-110.09 318.9,-102.98 316.18,-109.42"/>
</a>
</g>
</g>
<!-- Node5 -->
<g id="Node000005" class="node">
<title>Node5</title>
<g id="a_Node000005"><a xlink:href="_scheduler_8h.html" target="_top" xlink:title="Event scheduler class.">
<polygon fill="white" stroke="#666666" points="382.62,-74.5 315.62,-74.5 315.62,-55.25 382.62,-55.25 382.62,-74.5"/>
<text text-anchor="middle" x="349.12" y="-61" font-family="Helvetica,sans-Serif" font-size="10.00">Scheduler.h</text>
</a>
</g>
</g>
<!-- Node1&#45;&gt;Node5 -->
<g id="edge4_Node000001_Node000005" class="edge">
<title>Node1&#45;&gt;Node5</title>
<g id="a_edge4_Node000001_Node000005"><a xlink:title=" ">
<path fill="none" stroke="#63b8ff" d="M349.12,-99.46C349.12,-91.02 349.12,-81.58 349.12,-74.86"/>
<polygon fill="#63b8ff" stroke="#63b8ff" points="345.63,-99.33 349.12,-109.33 352.63,-99.33 345.63,-99.33"/>
</a>
</g>
</g>
<!-- Node7 -->
<g id="Node000007" class="node">
<title>Node7</title>
<g id="a_Node000007"><a xlink:href="_state_estimation_app_8h.html" target="_top" xlink:title="Base class for State Estimation Application.">
<polygon fill="white" stroke="#666666" points="528.75,-74.5 417.5,-74.5 417.5,-55.25 528.75,-55.25 528.75,-74.5"/>
<text text-anchor="middle" x="473.12" y="-61" font-family="Helvetica,sans-Serif" font-size="10.00">StateEstimationApp.h</text>
</a>
</g>
</g>
<!-- Node1&#45;&gt;Node7 -->
<g id="edge7_Node000001_Node000007" class="edge">
<title>Node1&#45;&gt;Node7</title>
<g id="a_edge7_Node000001_Node000007"><a xlink:title=" ">
<path fill="none" stroke="#63b8ff" d="M380.19,-105.78C402.61,-96.16 432.27,-83.42 451.99,-74.95"/>
<polygon fill="#63b8ff" stroke="#63b8ff" points="378.97,-102.93 371.16,-110.09 381.73,-109.36 378.97,-102.93"/>
</a>
</g>
</g>
<!-- Node3 -->
<g id="Node000003" class="node">
<title>Node3</title>
<g id="a_Node000003"><a xlink:href="_example_e_k_f_app_8cpp.html" target="_top" xlink:title="Example of EKF application.">
<polygon fill="white" stroke="#666666" points="278,-19.25 168.25,-19.25 168.25,0 278,0 278,-19.25"/>
<text text-anchor="middle" x="223.12" y="-5.75" font-family="Helvetica,sans-Serif" font-size="10.00">ExampleEKFApp.cpp</text>
</a>
</g>
</g>
<!-- Node2&#45;&gt;Node3 -->
<g id="edge2_Node000002_Node000003" class="edge">
<title>Node2&#45;&gt;Node3</title>
<g id="a_edge2_Node000002_Node000003"><a xlink:title=" ">
<path fill="none" stroke="#63b8ff" d="M223.12,-44.21C223.12,-35.77 223.12,-26.33 223.12,-19.61"/>
<polygon fill="#63b8ff" stroke="#63b8ff" points="219.63,-44.08 223.12,-54.08 226.63,-44.08 219.63,-44.08"/>
</a>
</g>
</g>
<!-- Node4 -->
<g id="Node000004" class="node">
<title>Node4</title>
<g id="a_Node000004"><a xlink:href="_g_n_s_s_state_estimation_app_8cpp.html" target="_top" xlink:title="State Estimation Application Using GNSS Measurement.">
<polygon fill="white" stroke="#666666" points="150.25,-19.25 0,-19.25 0,0 150.25,0 150.25,-19.25"/>
<text text-anchor="middle" x="75.12" y="-5.75" font-family="Helvetica,sans-Serif" font-size="10.00">GNSSStateEstimationApp.cpp</text>
</a>
</g>
</g>
<!-- Node2&#45;&gt;Node4 -->
<g id="edge3_Node000002_Node000004" class="edge">
<title>Node2&#45;&gt;Node4</title>
<g id="a_edge3_Node000002_Node000004"><a xlink:title=" ">
<path fill="none" stroke="#63b8ff" d="M187.84,-51.18C160.9,-41.49 124.42,-28.36 100.35,-19.7"/>
<polygon fill="#63b8ff" stroke="#63b8ff" points="186.42,-54.75 197.02,-54.84 188.79,-48.16 186.42,-54.75"/>
</a>
</g>
</g>
<!-- Node5&#45;&gt;Node3 -->
<g id="edge5_Node000005_Node000003" class="edge">
<title>Node5&#45;&gt;Node3</title>
<g id="a_edge5_Node000005_Node000003"><a xlink:title=" ">
<path fill="none" stroke="#63b8ff" d="M317.86,-50.66C295.05,-41.02 264.73,-28.21 244.6,-19.7"/>
<polygon fill="#63b8ff" stroke="#63b8ff" points="316.18,-54.17 326.75,-54.84 318.9,-47.73 316.18,-54.17"/>
</a>
</g>
</g>
<!-- Node6 -->
<g id="Node000006" class="node">
<title>Node6</title>
<g id="a_Node000006"><a xlink:href="_example_scheduler_8cpp.html" target="_top" xlink:title="Example of using the Scheduler class.">
<polygon fill="white" stroke="#666666" points="412,-19.25 296.25,-19.25 296.25,0 412,0 412,-19.25"/>
<text text-anchor="middle" x="354.12" y="-5.75" font-family="Helvetica,sans-Serif" font-size="10.00">ExampleScheduler.cpp</text>
</a>
</g>
</g>
<!-- Node5&#45;&gt;Node6 -->
<g id="edge6_Node000005_Node000006" class="edge">
<title>Node5&#45;&gt;Node6</title>
<g id="a_edge6_Node000005_Node000006"><a xlink:title=" ">
<path fill="none" stroke="#63b8ff" d="M350.97,-44.21C351.76,-35.77 352.65,-26.33 353.28,-19.61"/>
<polygon fill="#63b8ff" stroke="#63b8ff" points="347.4,-43.8 349.95,-54.08 354.37,-44.45 347.4,-43.8"/>
</a>
</g>
</g>
<!-- Node8 -->
<g id="Node000008" class="node">
<title>Node8</title>
<g id="a_Node000008"><a xlink:href="_state_estimation_app_8cpp.html" target="_top" xlink:title="Base class for State Estimation Application.">
<polygon fill="white" stroke="#666666" points="552,-19.25 430.25,-19.25 430.25,0 552,0 552,-19.25"/>
<text text-anchor="middle" x="491.12" y="-5.75" font-family="Helvetica,sans-Serif" font-size="10.00">StateEstimationApp.cpp</text>
</a>
</g>
</g>
<!-- Node7&#45;&gt;Node8 -->
<g id="edge8_Node000007_Node000008" class="edge">
<title>Node7&#45;&gt;Node8</title>
<g id="a_edge8_Node000007_Node000008"><a xlink:title=" ">
<path fill="none" stroke="#63b8ff" d="M479.58,-44.79C482.48,-36.21 485.76,-26.48 488.09,-19.61"/>
<polygon fill="#63b8ff" stroke="#63b8ff" points="475.98,-43.49 476.1,-54.08 482.62,-45.73 475.98,-43.49"/>
</a>
</g>
</g>
</g>
</svg>
