<?xml version="1.0" encoding="UTF-8" standalone="no"?>
<!DOCTYPE svg PUBLIC "-//W3C//DTD SVG 1.1//EN"
 "http://www.w3.org/Graphics/SVG/1.1/DTD/svg11.dtd">
<!-- Generated by graphviz version 8.1.0 (20230707.0739)
 -->
<!-- Title: Constants.h Pages: 1 -->
<svg width="548pt" height="138pt"
 viewBox="0.00 0.00 547.75 137.75" xmlns="http://www.w3.org/2000/svg" xmlns:xlink="http://www.w3.org/1999/xlink">
<g id="graph0" class="graph" transform="scale(1 1) rotate(0) translate(4 133.75)">
<title>Constants.h</title>
<!-- Node1 -->
<g id="Node000001" class="node">
<title>Node1</title>
<g id="a_Node000001"><a xlink:title="List of constants.">
<polygon fill="#999999" stroke="#666666" points="290.5,-129.75 221.25,-129.75 221.25,-110.5 290.5,-110.5 290.5,-129.75"/>
<text text-anchor="middle" x="255.88" y="-116.25" font-family="Helvetica,sans-Serif" font-size="10.00">Constants.h</text>
</a>
</g>
</g>
<!-- Node2 -->
<g id="Node000002" class="node">
<title>Node2</title>
<g id="a_Node000002"><a xlink:title=" ">
<polygon fill="#e0e0e0" stroke="#999999" points="133.75,-74.5 0,-74.5 0,-55.25 133.75,-55.25 133.75,-74.5"/>
<text text-anchor="middle" x="66.88" y="-61" font-family="Helvetica,sans-Serif" font-size="10.00">autodiff/common/eigen.hpp</text>
</a>
</g>
</g>
<!-- Node1&#45;&gt;Node2 -->
<g id="edge1_Node000001_Node000002" class="edge">
<title>Node1&#45;&gt;Node2</title>
<g id="a_edge1_Node000001_Node000002"><a xlink:title=" ">
<path fill="none" stroke="#63b8ff" d="M223.81,-110.09C192.32,-101.22 144.07,-87.62 109.39,-77.85"/>
<polygon fill="#63b8ff" stroke="#63b8ff" points="110.67,-74.3 100.09,-74.95 108.77,-81.03 110.67,-74.3"/>
</a>
</g>
</g>
<!-- Node3 -->
<g id="Node000003" class="node">
<title>Node3</title>
<g id="a_Node000003"><a xlink:title=" ">
<polygon fill="#e0e0e0" stroke="#999999" points="272.38,-74.5 151.38,-74.5 151.38,-55.25 272.38,-55.25 272.38,-74.5"/>
<text text-anchor="middle" x="211.88" y="-61" font-family="Helvetica,sans-Serif" font-size="10.00">autodiff/forward/real.hpp</text>
</a>
</g>
</g>
<!-- Node1&#45;&gt;Node3 -->
<g id="edge2_Node000001_Node000003" class="edge">
<title>Node1&#45;&gt;Node3</title>
<g id="a_edge2_Node000001_Node000003"><a xlink:title=" ">
<path fill="none" stroke="#63b8ff" d="M248.61,-110.33C242.53,-102.98 233.68,-92.26 226.18,-83.19"/>
<polygon fill="#63b8ff" stroke="#63b8ff" points="228.37,-81.34 219.3,-75.86 222.97,-85.8 228.37,-81.34"/>
</a>
</g>
</g>
<!-- Node4 -->
<g id="Node000004" class="node">
<title>Node4</title>
<g id="a_Node000004"><a xlink:title=" ">
<polygon fill="#e0e0e0" stroke="#999999" points="320.88,-19.25 280.88,-19.25 280.88,0 320.88,0 320.88,-19.25"/>
<text text-anchor="middle" x="300.88" y="-5.75" font-family="Helvetica,sans-Serif" font-size="10.00">string</text>
</a>
</g>
</g>
<!-- Node1&#45;&gt;Node4 -->
<g id="edge3_Node000001_Node000004" class="edge">
<title>Node1&#45;&gt;Node4</title>
<g id="a_edge3_Node000001_Node000004"><a xlink:title=" ">
<path fill="none" stroke="#63b8ff" d="M261.62,-110.18C267.1,-101.36 275.32,-87.38 280.88,-74.5 287.14,-59.96 292.41,-42.8 295.96,-29.93"/>
<polygon fill="#63b8ff" stroke="#63b8ff" points="299.54,-31.07 298.72,-20.51 292.77,-29.28 299.54,-31.07"/>
</a>
</g>
</g>
<!-- Node5 -->
<g id="Node000005" class="node">
<title>Node5</title>
<g id="a_Node000005"><a xlink:href="_user_file_path_8h.html" target="_top" xlink:title="File access utils.">
<polygon fill="white" stroke="#666666" points="410.5,-74.5 329.25,-74.5 329.25,-55.25 410.5,-55.25 410.5,-74.5"/>
<text text-anchor="middle" x="369.88" y="-61" font-family="Helvetica,sans-Serif" font-size="10.00">UserFilePath.h</text>
</a>
</g>
</g>
<!-- Node1&#45;&gt;Node5 -->
<g id="edge4_Node000001_Node000005" class="edge">
<title>Node1&#45;&gt;Node5</title>
<g id="a_edge4_Node000001_Node000005"><a xlink:title=" ">
<path fill="none" stroke="#63b8ff" d="M275.21,-110.09C293.15,-101.72 320.08,-89.13 340.64,-79.53"/>
<polygon fill="#63b8ff" stroke="#63b8ff" points="341.86,-82.36 349.44,-74.95 338.9,-76.01 341.86,-82.36"/>
</a>
</g>
</g>
<!-- Node5&#45;&gt;Node4 -->
<g id="edge8_Node000005_Node000004" class="edge">
<title>Node5&#45;&gt;Node4</title>
<g id="a_edge8_Node000005_Node000004"><a xlink:title=" ">
<path fill="none" stroke="#63b8ff" d="M358.17,-54.84C348,-46.99 333.04,-35.45 320.96,-26.12"/>
<polygon fill="#63b8ff" stroke="#63b8ff" points="323.46,-22.86 313.41,-19.52 319.19,-28.41 323.46,-22.86"/>
</a>
</g>
</g>
<!-- Node6 -->
<g id="Node000006" class="node">
<title>Node6</title>
<g id="a_Node000006"><a xlink:title=" ">
<polygon fill="#e0e0e0" stroke="#999999" points="400.38,-19.25 339.38,-19.25 339.38,0 400.38,0 400.38,-19.25"/>
<text text-anchor="middle" x="369.88" y="-5.75" font-family="Helvetica,sans-Serif" font-size="10.00">filesystem</text>
</a>
</g>
</g>
<!-- Node5&#45;&gt;Node6 -->
<g id="edge5_Node000005_Node000006" class="edge">
<title>Node5&#45;&gt;Node6</title>
<g id="a_edge5_Node000005_Node000006"><a xlink:title=" ">
<path fill="none" stroke="#63b8ff" d="M369.88,-55.08C369.88,-48.42 369.88,-38.99 369.88,-30.53"/>
<polygon fill="#63b8ff" stroke="#63b8ff" points="373.38,-30.61 369.88,-20.61 366.38,-30.61 373.38,-30.61"/>
</a>
</g>
</g>
<!-- Node7 -->
<g id="Node000007" class="node">
<title>Node7</title>
<g id="a_Node000007"><a xlink:title=" ">
<polygon fill="#e0e0e0" stroke="#999999" points="471.62,-19.25 418.12,-19.25 418.12,0 471.62,0 471.62,-19.25"/>
<text text-anchor="middle" x="444.88" y="-5.75" font-family="Helvetica,sans-Serif" font-size="10.00">iostream</text>
</a>
</g>
</g>
<!-- Node5&#45;&gt;Node7 -->
<g id="edge6_Node000005_Node000007" class="edge">
<title>Node5&#45;&gt;Node7</title>
<g id="a_edge6_Node000005_Node000007"><a xlink:title=" ">
<path fill="none" stroke="#63b8ff" d="M382.6,-54.84C393.7,-46.96 410.03,-35.36 423.19,-26.02"/>
<polygon fill="#63b8ff" stroke="#63b8ff" points="424.96,-28.35 431.09,-19.7 420.91,-22.64 424.96,-28.35"/>
</a>
</g>
</g>
<!-- Node8 -->
<g id="Node000008" class="node">
<title>Node8</title>
<g id="a_Node000008"><a xlink:title=" ">
<polygon fill="#e0e0e0" stroke="#999999" points="539.75,-19.25 490,-19.25 490,0 539.75,0 539.75,-19.25"/>
<text text-anchor="middle" x="514.88" y="-5.75" font-family="Helvetica,sans-Serif" font-size="10.00">optional</text>
</a>
</g>
</g>
<!-- Node5&#45;&gt;Node8 -->
<g id="edge7_Node000005_Node000008" class="edge">
<title>Node5&#45;&gt;Node8</title>
<g id="a_edge7_Node000005_Node000008"><a xlink:title=" ">
<path fill="none" stroke="#63b8ff" d="M394.47,-54.84C418.01,-46.2 453.74,-33.07 480.17,-23.37"/>
<polygon fill="#63b8ff" stroke="#63b8ff" points="480.98,-26.44 489.16,-19.7 478.56,-19.86 480.98,-26.44"/>
</a>
</g>
</g>
</g>
</svg>
