<?xml version="1.0" encoding="UTF-8" standalone="no"?>
<!DOCTYPE svg PUBLIC "-//W3C//DTD SVG 1.1//EN"
 "http://www.w3.org/Graphics/SVG/1.1/DTD/svg11.dtd">
<!-- Generated by graphviz version 8.1.0 (20230707.0739)
 -->
<!-- Title: DynamicsNumerical.cpp Pages: 1 -->
<svg width="1733pt" height="260pt"
 viewBox="0.00 0.00 1732.62 259.50" xmlns="http://www.w3.org/2000/svg" xmlns:xlink="http://www.w3.org/1999/xlink">
<g id="graph0" class="graph" transform="scale(1 1) rotate(0) translate(4 255.5)">
<title>DynamicsNumerical.cpp</title>
<!-- Node1 -->
<g id="Node000001" class="node">
<title>Node1</title>
<g id="a_Node000001"><a xlink:title="List of Numerical Dynamics.">
<polygon fill="#999999" stroke="#666666" points="696.38,-251.5 573.12,-251.5 573.12,-232.25 696.38,-232.25 696.38,-251.5"/>
<text text-anchor="middle" x="634.75" y="-238" font-family="Helvetica,sans-Serif" font-size="10.00">DynamicsNumerical.cpp</text>
</a>
</g>
</g>
<!-- Node2 -->
<g id="Node000002" class="node">
<title>Node2</title>
<g id="a_Node000002"><a xlink:href="_dynamics_8h.html" target="_top" xlink:title="Interface for Dynamics.">
<polygon fill="white" stroke="#666666" points="638,-196.25 569.5,-196.25 569.5,-177 638,-177 638,-196.25"/>
<text text-anchor="middle" x="603.75" y="-182.75" font-family="Helvetica,sans-Serif" font-size="10.00">Dynamics.h</text>
</a>
</g>
</g>
<!-- Node1&#45;&gt;Node2 -->
<g id="edge1_Node000001_Node000002" class="edge">
<title>Node1&#45;&gt;Node2</title>
<g id="a_edge1_Node000001_Node000002"><a xlink:title=" ">
<path fill="none" stroke="#63b8ff" d="M629.63,-232.08C625.53,-225.03 619.63,-214.9 614.5,-206.08"/>
<polygon fill="#63b8ff" stroke="#63b8ff" points="617.04,-204.49 608.98,-197.61 610.99,-208.01 617.04,-204.49"/>
</a>
</g>
</g>
<!-- Node25 -->
<g id="Node000025" class="node">
<title>Node25</title>
<g id="a_Node000025"><a xlink:href="_constants_8h.html" target="_top" xlink:title="List of constants.">
<polygon fill="white" stroke="#666666" points="1528.25,-141 1413.25,-141 1413.25,-121.75 1528.25,-121.75 1528.25,-141"/>
<text text-anchor="middle" x="1470.75" y="-127.5" font-family="Helvetica,sans-Serif" font-size="10.00">lupnt/core/Constants.h</text>
</a>
</g>
</g>
<!-- Node1&#45;&gt;Node25 -->
<g id="edge41_Node000001_Node000025" class="edge">
<title>Node1&#45;&gt;Node25</title>
<g id="a_edge41_Node000001_Node000025"><a xlink:title=" ">
<path fill="none" stroke="#63b8ff" d="M696.56,-232.85C849.16,-213.05 1242.91,-161.95 1402.27,-141.26"/>
<polygon fill="#63b8ff" stroke="#63b8ff" points="1402.42,-144.64 1411.88,-139.89 1401.51,-137.7 1402.42,-144.64"/>
</a>
</g>
</g>
<!-- Node3 -->
<g id="Node000003" class="node">
<title>Node3</title>
<g id="a_Node000003"><a xlink:title=" ">
<polygon fill="#e0e0e0" stroke="#999999" points="770.25,-24.88 649.25,-24.88 649.25,-5.63 770.25,-5.63 770.25,-24.88"/>
<text text-anchor="middle" x="709.75" y="-11.38" font-family="Helvetica,sans-Serif" font-size="10.00">autodiff/forward/real.hpp</text>
</a>
</g>
</g>
<!-- Node2&#45;&gt;Node3 -->
<g id="edge2_Node000002_Node000003" class="edge">
<title>Node2&#45;&gt;Node3</title>
<g id="a_edge2_Node000002_Node000003"><a xlink:title=" ">
<path fill="none" stroke="#63b8ff" d="M602.73,-176.61C600.8,-155.37 598.77,-101.35 622.75,-66.5 634.4,-49.56 653.77,-37.57 671.27,-29.56"/>
<polygon fill="#63b8ff" stroke="#63b8ff" points="672.46,-32.43 680.29,-25.29 669.72,-25.99 672.46,-32.43"/>
</a>
</g>
</g>
<!-- Node4 -->
<g id="Node000004" class="node">
<title>Node4</title>
<g id="a_Node000004"><a xlink:href="_gravity_field_8h.html" target="_top" xlink:title="Gravity field model and acceleration calculation.">
<polygon fill="white" stroke="#666666" points="1164.62,-141 1018.88,-141 1018.88,-121.75 1164.62,-121.75 1164.62,-141"/>
<text text-anchor="middle" x="1091.75" y="-127.5" font-family="Helvetica,sans-Serif" font-size="10.00">lupnt/dynamics/GravityField.h</text>
</a>
</g>
</g>
<!-- Node2&#45;&gt;Node4 -->
<g id="edge3_Node000002_Node000004" class="edge">
<title>Node2&#45;&gt;Node4</title>
<g id="a_edge3_Node000002_Node000004"><a xlink:title=" ">
<path fill="none" stroke="#63b8ff" d="M638.45,-181.84C714.77,-173.51 899,-153.41 1007.65,-141.55"/>
<polygon fill="#63b8ff" stroke="#63b8ff" points="1008,-144.92 1017.57,-140.36 1007.25,-137.97 1008,-144.92"/>
</a>
</g>
</g>
<!-- Node17 -->
<g id="Node000017" class="node">
<title>Node17</title>
<g id="a_Node000017"><a xlink:href="_propagator_8h.html" target="_top" xlink:title="Numerical Propagator.">
<polygon fill="white" stroke="#666666" points="814.62,-141 674.88,-141 674.88,-121.75 814.62,-121.75 814.62,-141"/>
<text text-anchor="middle" x="744.75" y="-127.5" font-family="Helvetica,sans-Serif" font-size="10.00">lupnt/dynamics/Propagator.h</text>
</a>
</g>
</g>
<!-- Node2&#45;&gt;Node17 -->
<g id="edge21_Node000002_Node000017" class="edge">
<title>Node2&#45;&gt;Node17</title>
<g id="a_edge21_Node000002_Node000017"><a xlink:title=" ">
<path fill="none" stroke="#63b8ff" d="M627.67,-176.59C650.46,-167.99 685,-154.94 710.66,-145.25"/>
<polygon fill="#63b8ff" stroke="#63b8ff" points="711.6,-148.26 719.71,-141.45 709.12,-141.71 711.6,-148.26"/>
</a>
</g>
</g>
<!-- Node19 -->
<g id="Node000019" class="node">
<title>Node19</title>
<g id="a_Node000019"><a xlink:href="_integrator_8h.html" target="_top" xlink:title="Integrator interfaces.">
<polygon fill="white" stroke="#666666" points="575.5,-85.75 444,-85.75 444,-66.5 575.5,-66.5 575.5,-85.75"/>
<text text-anchor="middle" x="509.75" y="-72.25" font-family="Helvetica,sans-Serif" font-size="10.00">lupnt/numerics/Integrator.h</text>
</a>
</g>
</g>
<!-- Node2&#45;&gt;Node19 -->
<g id="edge29_Node000002_Node000019" class="edge">
<title>Node2&#45;&gt;Node19</title>
<g id="a_edge29_Node000002_Node000019"><a xlink:title=" ">
<path fill="none" stroke="#63b8ff" d="M596.06,-176.75C580.5,-158.78 545.04,-117.86 524.75,-94.44"/>
<polygon fill="#63b8ff" stroke="#63b8ff" points="526.74,-92.39 517.55,-87.13 521.45,-96.98 526.74,-92.39"/>
</a>
</g>
</g>
<!-- Node20 -->
<g id="Node000020" class="node">
<title>Node20</title>
<g id="a_Node000020"><a xlink:href="_orbit_state_8h.html" target="_top" xlink:title="Orbit states.">
<polygon fill="white" stroke="#666666" points="385.38,-141 256.12,-141 256.12,-121.75 385.38,-121.75 385.38,-141"/>
<text text-anchor="middle" x="320.75" y="-127.5" font-family="Helvetica,sans-Serif" font-size="10.00">lupnt/physics/OrbitState.h</text>
</a>
</g>
</g>
<!-- Node2&#45;&gt;Node20 -->
<g id="edge30_Node000002_Node000020" class="edge">
<title>Node2&#45;&gt;Node20</title>
<g id="a_edge30_Node000002_Node000020"><a xlink:title=" ">
<path fill="none" stroke="#63b8ff" d="M569.05,-179.1C521.9,-170.22 436.95,-154.24 379.7,-143.47"/>
<polygon fill="#63b8ff" stroke="#63b8ff" points="380.47,-139.86 370,-141.45 379.18,-146.74 380.47,-139.86"/>
</a>
</g>
</g>
<!-- Node24 -->
<g id="Node000024" class="node">
<title>Node24</title>
<g id="a_Node000024"><a xlink:href="_state_8h.html" target="_top" xlink:title="SPICE Interface functions.">
<polygon fill="white" stroke="#666666" points="47.5,-85.75 0,-85.75 0,-66.5 47.5,-66.5 47.5,-85.75"/>
<text text-anchor="middle" x="23.75" y="-72.25" font-family="Helvetica,sans-Serif" font-size="10.00">State.h</text>
</a>
</g>
</g>
<!-- Node2&#45;&gt;Node24 -->
<g id="edge40_Node000002_Node000024" class="edge">
<title>Node2&#45;&gt;Node24</title>
<g id="a_edge40_Node000002_Node000024"><a xlink:title=" ">
<path fill="none" stroke="#63b8ff" d="M569.25,-183.1C505.2,-178.01 363.79,-164.93 246.75,-141 178.91,-127.13 101.61,-103.08 58.16,-88.78"/>
<polygon fill="#63b8ff" stroke="#63b8ff" points="59.46,-85.19 48.86,-85.37 57.25,-91.84 59.46,-85.19"/>
</a>
</g>
</g>
<!-- Node4&#45;&gt;Node3 -->
<g id="edge10_Node000004_Node000003" class="edge">
<title>Node4&#45;&gt;Node3</title>
<g id="a_edge10_Node000004_Node000003"><a xlink:title=" ">
<path fill="none" stroke="#63b8ff" d="M1076.19,-121.4C1051.74,-107.66 1002.48,-81.44 957.75,-66.5 899.81,-47.15 831.65,-33.99 781.46,-26.01"/>
<polygon fill="#63b8ff" stroke="#63b8ff" points="782.13,-22.42 771.71,-24.34 781.06,-29.34 782.13,-22.42"/>
</a>
</g>
</g>
<!-- Node5 -->
<g id="Node000005" class="node">
<title>Node5</title>
<g id="a_Node000005"><a xlink:title=" ">
<polygon fill="#e0e0e0" stroke="#999999" points="1245.62,-85.75 1189.88,-85.75 1189.88,-66.5 1245.62,-66.5 1245.62,-85.75"/>
<text text-anchor="middle" x="1217.75" y="-72.25" font-family="Helvetica,sans-Serif" font-size="10.00">algorithm</text>
</a>
</g>
</g>
<!-- Node4&#45;&gt;Node5 -->
<g id="edge4_Node000004_Node000005" class="edge">
<title>Node4&#45;&gt;Node5</title>
<g id="a_edge4_Node000004_Node000005"><a xlink:title=" ">
<path fill="none" stroke="#63b8ff" d="M1113.12,-121.34C1133.22,-112.85 1163.53,-100.04 1186.37,-90.39"/>
<polygon fill="#63b8ff" stroke="#63b8ff" points="1187.42,-93.32 1195.27,-86.2 1184.7,-86.87 1187.42,-93.32"/>
</a>
</g>
</g>
<!-- Node6 -->
<g id="Node000006" class="node">
<title>Node6</title>
<g id="a_Node000006"><a xlink:title=" ">
<polygon fill="#e0e0e0" stroke="#999999" points="1312.25,-85.75 1263.25,-85.75 1263.25,-66.5 1312.25,-66.5 1312.25,-85.75"/>
<text text-anchor="middle" x="1287.75" y="-72.25" font-family="Helvetica,sans-Serif" font-size="10.00">fstream</text>
</a>
</g>
</g>
<!-- Node4&#45;&gt;Node6 -->
<g id="edge5_Node000004_Node000006" class="edge">
<title>Node4&#45;&gt;Node6</title>
<g id="a_edge5_Node000004_Node000006"><a xlink:title=" ">
<path fill="none" stroke="#63b8ff" d="M1125,-121.34C1160.33,-111.74 1216,-96.62 1252.19,-86.79"/>
<polygon fill="#63b8ff" stroke="#63b8ff" points="1253.02,-89.92 1261.75,-83.92 1251.19,-83.16 1253.02,-89.92"/>
</a>
</g>
</g>
<!-- Node7 -->
<g id="Node000007" class="node">
<title>Node7</title>
<g id="a_Node000007"><a xlink:title=" ">
<polygon fill="#e0e0e0" stroke="#999999" points="1118.5,-24.88 1065,-24.88 1065,-5.63 1118.5,-5.63 1118.5,-24.88"/>
<text text-anchor="middle" x="1091.75" y="-11.38" font-family="Helvetica,sans-Serif" font-size="10.00">iostream</text>
</a>
</g>
</g>
<!-- Node4&#45;&gt;Node7 -->
<g id="edge6_Node000004_Node000007" class="edge">
<title>Node4&#45;&gt;Node7</title>
<g id="a_edge6_Node000004_Node000007"><a xlink:title=" ">
<path fill="none" stroke="#63b8ff" d="M1091.75,-121.42C1091.75,-103.09 1091.75,-60.9 1091.75,-35.88"/>
<polygon fill="#63b8ff" stroke="#63b8ff" points="1095.25,-36.16 1091.75,-26.16 1088.25,-36.16 1095.25,-36.16"/>
</a>
</g>
</g>
<!-- Node8 -->
<g id="Node000008" class="node">
<title>Node8</title>
<g id="a_Node000008"><a xlink:title=" ">
<polygon fill="#e0e0e0" stroke="#999999" points="1171.38,-85.75 1120.12,-85.75 1120.12,-66.5 1171.38,-66.5 1171.38,-85.75"/>
<text text-anchor="middle" x="1145.75" y="-72.25" font-family="Helvetica,sans-Serif" font-size="10.00">sstream</text>
</a>
</g>
</g>
<!-- Node4&#45;&gt;Node8 -->
<g id="edge7_Node000004_Node000008" class="edge">
<title>Node4&#45;&gt;Node8</title>
<g id="a_edge7_Node000004_Node000008"><a xlink:title=" ">
<path fill="none" stroke="#63b8ff" d="M1100.67,-121.58C1108.36,-114 1119.68,-102.84 1129.05,-93.6"/>
<polygon fill="#63b8ff" stroke="#63b8ff" points="1130.98,-96.62 1135.64,-87.11 1126.06,-91.64 1130.98,-96.62"/>
</a>
</g>
</g>
<!-- Node9 -->
<g id="Node000009" class="node">
<title>Node9</title>
<g id="a_Node000009"><a xlink:title=" ">
<polygon fill="#e0e0e0" stroke="#999999" points="1375.75,-24.88 1335.75,-24.88 1335.75,-5.63 1375.75,-5.63 1375.75,-24.88"/>
<text text-anchor="middle" x="1355.75" y="-11.38" font-family="Helvetica,sans-Serif" font-size="10.00">string</text>
</a>
</g>
</g>
<!-- Node4&#45;&gt;Node9 -->
<g id="edge8_Node000004_Node000009" class="edge">
<title>Node4&#45;&gt;Node9</title>
<g id="a_edge8_Node000004_Node000009"><a xlink:title=" ">
<path fill="none" stroke="#63b8ff" d="M1164.94,-123.3C1222.73,-116.43 1297.53,-104.3 1321.75,-85.75 1337.88,-73.39 1346.82,-51.37 1351.43,-35.42"/>
<polygon fill="#63b8ff" stroke="#63b8ff" points="1354.99,-36.66 1354.07,-26.11 1348.2,-34.93 1354.99,-36.66"/>
</a>
</g>
</g>
<!-- Node10 -->
<g id="Node000010" class="node">
<title>Node10</title>
<g id="a_Node000010"><a xlink:title=" ">
<polygon fill="#e0e0e0" stroke="#999999" points="243.25,-24.88 200.25,-24.88 200.25,-5.63 243.25,-5.63 243.25,-24.88"/>
<text text-anchor="middle" x="221.75" y="-11.38" font-family="Helvetica,sans-Serif" font-size="10.00">vector</text>
</a>
</g>
</g>
<!-- Node4&#45;&gt;Node10 -->
<g id="edge9_Node000004_Node000010" class="edge">
<title>Node4&#45;&gt;Node10</title>
<g id="a_edge9_Node000004_Node000010"><a xlink:title=" ">
<path fill="none" stroke="#63b8ff" d="M1018.65,-130.09C943.38,-127.83 823.58,-118.68 725.75,-85.75 709.66,-80.33 708.88,-71.8 692.75,-66.5 610.89,-39.63 347.49,-23.08 254.57,-17.96"/>
<polygon fill="#63b8ff" stroke="#63b8ff" points="254.79,-14.41 244.61,-17.37 254.41,-21.4 254.79,-14.41"/>
</a>
</g>
</g>
<!-- Node11 -->
<g id="Node000011" class="node">
<title>Node11</title>
<g id="a_Node000011"><a xlink:title=" ">
<polygon fill="#e0e0e0" stroke="#999999" points="560.88,-30.5 458.62,-30.5 458.62,0 560.88,0 560.88,-30.5"/>
<text text-anchor="start" x="466.62" y="-17" font-family="Helvetica,sans-Serif" font-size="10.00">autodiff/forward/real</text>
<text text-anchor="middle" x="509.75" y="-5.75" font-family="Helvetica,sans-Serif" font-size="10.00">/eigen.hpp</text>
</a>
</g>
</g>
<!-- Node4&#45;&gt;Node11 -->
<g id="edge11_Node000004_Node000011" class="edge">
<title>Node4&#45;&gt;Node11</title>
<g id="a_edge11_Node000004_Node000011"><a xlink:title=" ">
<path fill="none" stroke="#63b8ff" d="M1023.83,-121.26C965.92,-113.13 880.58,-100.28 806.75,-85.75 770.44,-78.6 761.77,-74.97 725.75,-66.5 673.92,-54.31 615.06,-40.63 571.89,-30.62"/>
<polygon fill="#63b8ff" stroke="#63b8ff" points="572.8,-27.01 562.26,-28.16 571.22,-33.83 572.8,-27.01"/>
</a>
</g>
</g>
<!-- Node12 -->
<g id="Node000012" class="node">
<title>Node12</title>
<g id="a_Node000012"><a xlink:href="_user_file_path_8h.html" target="_top" xlink:title="File access utils.">
<polygon fill="white" stroke="#666666" points="1534.25,-85.75 1407.25,-85.75 1407.25,-66.5 1534.25,-66.5 1534.25,-85.75"/>
<text text-anchor="middle" x="1470.75" y="-72.25" font-family="Helvetica,sans-Serif" font-size="10.00">lupnt/core/UserFilePath.h</text>
</a>
</g>
</g>
<!-- Node4&#45;&gt;Node12 -->
<g id="edge12_Node000004_Node000012" class="edge">
<title>Node4&#45;&gt;Node12</title>
<g id="a_edge12_Node000004_Node000012"><a xlink:title=" ">
<path fill="none" stroke="#63b8ff" d="M1156.47,-121.28C1223.03,-111.93 1326.57,-97.38 1396.44,-87.57"/>
<polygon fill="#63b8ff" stroke="#63b8ff" points="1396.51,-90.95 1405.93,-86.09 1395.54,-84.02 1396.51,-90.95"/>
</a>
</g>
</g>
<!-- Node15 -->
<g id="Node000015" class="node">
<title>Node15</title>
<g id="a_Node000015"><a xlink:href="_math_utils_8h.html" target="_top" xlink:title=" ">
<polygon fill="white" stroke="#666666" points="949.25,-85.75 816.25,-85.75 816.25,-66.5 949.25,-66.5 949.25,-85.75"/>
<text text-anchor="middle" x="882.75" y="-72.25" font-family="Helvetica,sans-Serif" font-size="10.00">lupnt/numerics/MathUtils.h</text>
</a>
</g>
</g>
<!-- Node4&#45;&gt;Node15 -->
<g id="edge17_Node000004_Node000015" class="edge">
<title>Node4&#45;&gt;Node15</title>
<g id="a_edge17_Node000004_Node000015"><a xlink:title=" ">
<path fill="none" stroke="#63b8ff" d="M1056.3,-121.34C1021.17,-112.39 967.19,-98.64 928.77,-88.85"/>
<polygon fill="#63b8ff" stroke="#63b8ff" points="929.93,-85.28 919.38,-86.2 928.2,-92.06 929.93,-85.28"/>
</a>
</g>
</g>
<!-- Node12&#45;&gt;Node7 -->
<g id="edge14_Node000012_Node000007" class="edge">
<title>Node12&#45;&gt;Node7</title>
<g id="a_edge14_Node000012_Node000007"><a xlink:title=" ">
<path fill="none" stroke="#63b8ff" d="M1412.36,-66.05C1333.65,-53.83 1195.75,-32.41 1129.45,-22.11"/>
<polygon fill="#63b8ff" stroke="#63b8ff" points="1130.1,-18.51 1119.68,-20.43 1129.03,-25.43 1130.1,-18.51"/>
</a>
</g>
</g>
<!-- Node12&#45;&gt;Node9 -->
<g id="edge16_Node000012_Node000009" class="edge">
<title>Node12&#45;&gt;Node9</title>
<g id="a_edge16_Node000012_Node000009"><a xlink:title=" ">
<path fill="none" stroke="#63b8ff" d="M1453.28,-66.18C1434.62,-56.63 1404.8,-41.36 1383.04,-30.22"/>
<polygon fill="#63b8ff" stroke="#63b8ff" points="1384.88,-26.72 1374.38,-25.28 1381.69,-32.95 1384.88,-26.72"/>
</a>
</g>
</g>
<!-- Node13 -->
<g id="Node000013" class="node">
<title>Node13</title>
<g id="a_Node000013"><a xlink:title=" ">
<polygon fill="#e0e0e0" stroke="#999999" points="1485.25,-24.88 1424.25,-24.88 1424.25,-5.63 1485.25,-5.63 1485.25,-24.88"/>
<text text-anchor="middle" x="1454.75" y="-11.38" font-family="Helvetica,sans-Serif" font-size="10.00">filesystem</text>
</a>
</g>
</g>
<!-- Node12&#45;&gt;Node13 -->
<g id="edge13_Node000012_Node000013" class="edge">
<title>Node12&#45;&gt;Node13</title>
<g id="a_edge13_Node000012_Node000013"><a xlink:title=" ">
<path fill="none" stroke="#63b8ff" d="M1468.32,-66.18C1466.13,-58.14 1462.85,-46.05 1460.06,-35.78"/>
<polygon fill="#63b8ff" stroke="#63b8ff" points="1463.2,-35.01 1457.2,-26.28 1456.45,-36.84 1463.2,-35.01"/>
</a>
</g>
</g>
<!-- Node14 -->
<g id="Node000014" class="node">
<title>Node14</title>
<g id="a_Node000014"><a xlink:title=" ">
<polygon fill="#e0e0e0" stroke="#999999" points="1552.62,-24.88 1502.88,-24.88 1502.88,-5.63 1552.62,-5.63 1552.62,-24.88"/>
<text text-anchor="middle" x="1527.75" y="-11.38" font-family="Helvetica,sans-Serif" font-size="10.00">optional</text>
</a>
</g>
</g>
<!-- Node12&#45;&gt;Node14 -->
<g id="edge15_Node000012_Node000014" class="edge">
<title>Node12&#45;&gt;Node14</title>
<g id="a_edge15_Node000012_Node000014"><a xlink:title=" ">
<path fill="none" stroke="#63b8ff" d="M1479.41,-66.18C1487.86,-57.45 1500.94,-43.94 1511.36,-33.18"/>
<polygon fill="#63b8ff" stroke="#63b8ff" points="1513.57,-35.9 1518.01,-26.28 1508.54,-31.03 1513.57,-35.9"/>
</a>
</g>
</g>
<!-- Node15&#45;&gt;Node3 -->
<g id="edge18_Node000015_Node000003" class="edge">
<title>Node15&#45;&gt;Node3</title>
<g id="a_edge18_Node000015_Node000003"><a xlink:title=" ">
<path fill="none" stroke="#63b8ff" d="M856.1,-66.05C826.76,-56.07 779.42,-39.96 746.55,-28.77"/>
<polygon fill="#63b8ff" stroke="#63b8ff" points="748.03,-25.24 737.43,-25.33 745.77,-31.87 748.03,-25.24"/>
</a>
</g>
</g>
<!-- Node15&#45;&gt;Node11 -->
<g id="edge19_Node000015_Node000011" class="edge">
<title>Node15&#45;&gt;Node11</title>
<g id="a_edge19_Node000015_Node000011"><a xlink:title=" ">
<path fill="none" stroke="#63b8ff" d="M825.29,-66.05C756.67,-55.22 642.35,-37.18 571.78,-26.04"/>
<polygon fill="#63b8ff" stroke="#63b8ff" points="572.69,-22.48 562.27,-24.38 571.6,-29.4 572.69,-22.48"/>
</a>
</g>
</g>
<!-- Node16 -->
<g id="Node000016" class="node">
<title>Node16</title>
<g id="a_Node000016"><a xlink:title=" ">
<polygon fill="#e0e0e0" stroke="#999999" points="906.88,-24.88 858.62,-24.88 858.62,-5.63 906.88,-5.63 906.88,-24.88"/>
<text text-anchor="middle" x="882.75" y="-11.38" font-family="Helvetica,sans-Serif" font-size="10.00">random</text>
</a>
</g>
</g>
<!-- Node15&#45;&gt;Node16 -->
<g id="edge20_Node000015_Node000016" class="edge">
<title>Node15&#45;&gt;Node16</title>
<g id="a_edge20_Node000015_Node000016"><a xlink:title=" ">
<path fill="none" stroke="#63b8ff" d="M882.75,-66.18C882.75,-58.23 882.75,-46.31 882.75,-36.12"/>
<polygon fill="#63b8ff" stroke="#63b8ff" points="886.25,-36.28 882.75,-26.28 879.25,-36.28 886.25,-36.28"/>
</a>
</g>
</g>
<!-- Node17&#45;&gt;Node3 -->
<g id="edge22_Node000017_Node000003" class="edge">
<title>Node17&#45;&gt;Node3</title>
<g id="a_edge22_Node000017_Node000003"><a xlink:title=" ">
<path fill="none" stroke="#63b8ff" d="M742,-121.42C736.36,-103 723.33,-60.52 715.67,-35.54"/>
<polygon fill="#63b8ff" stroke="#63b8ff" points="718.76,-34.7 712.48,-26.16 712.07,-36.75 718.76,-34.7"/>
</a>
</g>
</g>
<!-- Node17&#45;&gt;Node7 -->
<g id="edge23_Node000017_Node000007" class="edge">
<title>Node17&#45;&gt;Node7</title>
<g id="a_edge23_Node000017_Node000007"><a xlink:title=" ">
<path fill="none" stroke="#63b8ff" d="M810.8,-121.29C853.52,-114.27 909.88,-102.82 957.75,-85.75 998.46,-71.23 1042.34,-46.58 1068.4,-30.87"/>
<polygon fill="#63b8ff" stroke="#63b8ff" points="1069.76,-33.53 1076.47,-25.33 1066.11,-27.55 1069.76,-33.53"/>
</a>
</g>
</g>
<!-- Node17&#45;&gt;Node9 -->
<g id="edge25_Node000017_Node000009" class="edge">
<title>Node17&#45;&gt;Node9</title>
<g id="a_edge25_Node000017_Node000009"><a xlink:title=" ">
<path fill="none" stroke="#63b8ff" d="M796.08,-121.31C846.25,-112.41 924.79,-98.37 992.75,-85.75 1115.69,-62.92 1261.8,-34.58 1324.57,-22.34"/>
<polygon fill="#63b8ff" stroke="#63b8ff" points="1325.15,-25.6 1334.3,-20.25 1323.81,-18.73 1325.15,-25.6"/>
</a>
</g>
</g>
<!-- Node18 -->
<g id="Node000018" class="node">
<title>Node18</title>
<g id="a_Node000018"><a xlink:title=" ">
<polygon fill="#e0e0e0" stroke="#999999" points="683.38,-85.75 632.12,-85.75 632.12,-66.5 683.38,-66.5 683.38,-85.75"/>
<text text-anchor="middle" x="657.75" y="-72.25" font-family="Helvetica,sans-Serif" font-size="10.00">memory</text>
</a>
</g>
</g>
<!-- Node17&#45;&gt;Node18 -->
<g id="edge24_Node000017_Node000018" class="edge">
<title>Node17&#45;&gt;Node18</title>
<g id="a_edge24_Node000017_Node000018"><a xlink:title=" ">
<path fill="none" stroke="#63b8ff" d="M729.99,-121.34C716.74,-113.23 697.06,-101.18 681.58,-91.71"/>
<polygon fill="#63b8ff" stroke="#63b8ff" points="683.94,-88.44 673.58,-86.2 680.28,-94.41 683.94,-88.44"/>
</a>
</g>
</g>
<!-- Node17&#45;&gt;Node19 -->
<g id="edge26_Node000017_Node000019" class="edge">
<title>Node17&#45;&gt;Node19</title>
<g id="a_edge26_Node000017_Node000019"><a xlink:title=" ">
<path fill="none" stroke="#63b8ff" d="M704.62,-121.28C664.74,-112.24 603.45,-98.36 560.28,-88.57"/>
<polygon fill="#63b8ff" stroke="#63b8ff" points="561.24,-84.98 550.72,-86.18 559.69,-91.8 561.24,-84.98"/>
</a>
</g>
</g>
<!-- Node19&#45;&gt;Node3 -->
<g id="edge27_Node000019_Node000003" class="edge">
<title>Node19&#45;&gt;Node3</title>
<g id="a_edge27_Node000019_Node000003"><a xlink:title=" ">
<path fill="none" stroke="#63b8ff" d="M540.56,-66.05C574.92,-55.94 630.64,-39.54 668.68,-28.34"/>
<polygon fill="#63b8ff" stroke="#63b8ff" points="669.3,-31.51 677.9,-25.33 667.32,-24.8 669.3,-31.51"/>
</a>
</g>
</g>
<!-- Node19&#45;&gt;Node11 -->
<g id="edge28_Node000019_Node000011" class="edge">
<title>Node19&#45;&gt;Node11</title>
<g id="a_edge28_Node000019_Node000011"><a xlink:title=" ">
<path fill="none" stroke="#63b8ff" d="M509.75,-66.18C509.75,-59.65 509.75,-50.45 509.75,-41.72"/>
<polygon fill="#63b8ff" stroke="#63b8ff" points="513.25,-41.78 509.75,-31.78 506.25,-41.78 513.25,-41.78"/>
</a>
</g>
</g>
<!-- Node20&#45;&gt;Node3 -->
<g id="edge32_Node000020_Node000003" class="edge">
<title>Node20&#45;&gt;Node3</title>
<g id="a_edge32_Node000020_Node000003"><a xlink:title=" ">
<path fill="none" stroke="#63b8ff" d="M337.57,-121.26C354,-112.33 379.68,-98.26 401.75,-85.75 416.52,-77.37 418.83,-72.39 434.75,-66.5 501.35,-41.86 581.66,-28.97 638.24,-22.45"/>
<polygon fill="#63b8ff" stroke="#63b8ff" points="638.33,-25.85 647.88,-21.26 637.55,-18.89 638.33,-25.85"/>
</a>
</g>
</g>
<!-- Node20&#45;&gt;Node11 -->
<g id="edge33_Node000020_Node000011" class="edge">
<title>Node20&#45;&gt;Node11</title>
<g id="a_edge33_Node000020_Node000011"><a xlink:title=" ">
<path fill="none" stroke="#63b8ff" d="M330.67,-121.3C345.4,-108.11 374.3,-83.39 401.75,-66.5 420.95,-54.69 443.38,-43.82 462.81,-35.24"/>
<polygon fill="#63b8ff" stroke="#63b8ff" points="463.88,-38.16 471.66,-30.97 461.09,-31.74 463.88,-38.16"/>
</a>
</g>
</g>
<!-- Node21 -->
<g id="Node000021" class="node">
<title>Node21</title>
<g id="a_Node000021"><a xlink:title=" ">
<polygon fill="#e0e0e0" stroke="#999999" points="137.88,-85.75 65.62,-85.75 65.62,-66.5 137.88,-66.5 137.88,-85.75"/>
<text text-anchor="middle" x="101.75" y="-72.25" font-family="Helvetica,sans-Serif" font-size="10.00">Eigen/Dense</text>
</a>
</g>
</g>
<!-- Node20&#45;&gt;Node21 -->
<g id="edge31_Node000020_Node000021" class="edge">
<title>Node20&#45;&gt;Node21</title>
<g id="a_edge31_Node000020_Node000021"><a xlink:title=" ">
<path fill="none" stroke="#63b8ff" d="M283.6,-121.34C246.49,-112.32 189.3,-98.41 148.99,-88.61"/>
<polygon fill="#63b8ff" stroke="#63b8ff" points="149.9,-84.99 139.35,-86.02 148.24,-91.79 149.9,-84.99"/>
</a>
</g>
</g>
<!-- Node22 -->
<g id="Node000022" class="node">
<title>Node22</title>
<g id="a_Node000022"><a xlink:title=" ">
<polygon fill="#e0e0e0" stroke="#999999" points="273.38,-85.75 156.12,-85.75 156.12,-66.5 273.38,-66.5 273.38,-85.75"/>
<text text-anchor="middle" x="214.75" y="-72.25" font-family="Helvetica,sans-Serif" font-size="10.00">boost/preprocessor.hpp</text>
</a>
</g>
</g>
<!-- Node20&#45;&gt;Node22 -->
<g id="edge34_Node000020_Node000022" class="edge">
<title>Node20&#45;&gt;Node22</title>
<g id="a_edge34_Node000020_Node000022"><a xlink:title=" ">
<path fill="none" stroke="#63b8ff" d="M302.77,-121.34C286.25,-113.04 261.5,-100.61 242.46,-91.04"/>
<polygon fill="#63b8ff" stroke="#63b8ff" points="244.33,-87.56 233.82,-86.2 241.18,-93.82 244.33,-87.56"/>
</a>
</g>
</g>
<!-- Node23 -->
<g id="Node000023" class="node">
<title>Node23</title>
<g id="a_Node000023"><a xlink:title=" ">
<polygon fill="#e0e0e0" stroke="#999999" points="350.12,-85.75 291.38,-85.75 291.38,-66.5 350.12,-66.5 350.12,-85.75"/>
<text text-anchor="middle" x="320.75" y="-72.25" font-family="Helvetica,sans-Serif" font-size="10.00">stdexcept</text>
</a>
</g>
</g>
<!-- Node20&#45;&gt;Node23 -->
<g id="edge35_Node000020_Node000023" class="edge">
<title>Node20&#45;&gt;Node23</title>
<g id="a_edge35_Node000020_Node000023"><a xlink:title=" ">
<path fill="none" stroke="#63b8ff" d="M320.75,-121.58C320.75,-114.92 320.75,-105.49 320.75,-97.03"/>
<polygon fill="#63b8ff" stroke="#63b8ff" points="324.25,-97.11 320.75,-87.11 317.25,-97.11 324.25,-97.11"/>
</a>
</g>
</g>
<!-- Node20&#45;&gt;Node24 -->
<g id="edge36_Node000020_Node000024" class="edge">
<title>Node20&#45;&gt;Node24</title>
<g id="a_edge36_Node000020_Node000024"><a xlink:title=" ">
<path fill="none" stroke="#63b8ff" d="M257.51,-121.29C206.25,-113.56 131.96,-101.53 58.24,-85.91"/>
<polygon fill="#63b8ff" stroke="#63b8ff" points="59.35,-82.36 48.84,-83.68 57.89,-89.2 59.35,-82.36"/>
</a>
</g>
</g>
<!-- Node24&#45;&gt;Node3 -->
<g id="edge37_Node000024_Node000003" class="edge">
<title>Node24&#45;&gt;Node3</title>
<g id="a_edge37_Node000024_Node000003"><a xlink:title=" ">
<path fill="none" stroke="#63b8ff" d="M47.79,-68.29C50.79,-67.6 53.83,-66.98 56.75,-66.5 282.29,-29.44 342.03,-50.07 569.75,-30.5 591.93,-28.59 616.05,-26.24 637.93,-24"/>
<polygon fill="#63b8ff" stroke="#63b8ff" points="638.21,-27.38 647.8,-22.87 637.5,-20.42 638.21,-27.38"/>
</a>
</g>
</g>
<!-- Node24&#45;&gt;Node10 -->
<g id="edge39_Node000024_Node000010" class="edge">
<title>Node24&#45;&gt;Node10</title>
<g id="a_edge39_Node000024_Node000010"><a xlink:title=" ">
<path fill="none" stroke="#63b8ff" d="M47.63,-68.02C83.08,-57.48 149.68,-37.68 189.45,-25.85"/>
<polygon fill="#63b8ff" stroke="#63b8ff" points="190.32,-28.95 198.91,-22.75 188.32,-22.24 190.32,-28.95"/>
</a>
</g>
</g>
<!-- Node24&#45;&gt;Node11 -->
<g id="edge38_Node000024_Node000011" class="edge">
<title>Node24&#45;&gt;Node11</title>
<g id="a_edge38_Node000024_Node000011"><a xlink:title=" ">
<path fill="none" stroke="#63b8ff" d="M47.81,-68.41C50.81,-67.7 53.84,-67.04 56.75,-66.5 195.16,-40.88 359.95,-26.6 447.63,-20.27"/>
<polygon fill="#63b8ff" stroke="#63b8ff" points="447.72,-23.7 457.44,-19.5 447.22,-16.72 447.72,-23.7"/>
</a>
</g>
</g>
<!-- Node25&#45;&gt;Node3 -->
<g id="edge43_Node000025_Node000003" class="edge">
<title>Node25&#45;&gt;Node3</title>
<g id="a_edge43_Node000025_Node000003"><a xlink:title=" ">
<path fill="none" stroke="#63b8ff" d="M1454.83,-121.46C1428.21,-107.04 1372.59,-78.97 1321.75,-66.5 1117.42,-16.38 1059.31,-49.15 849.75,-30.5 827.58,-28.53 803.46,-26.15 781.58,-23.91"/>
<polygon fill="#63b8ff" stroke="#63b8ff" points="782.01,-20.34 771.71,-22.79 781.29,-27.3 782.01,-20.34"/>
</a>
</g>
</g>
<!-- Node25&#45;&gt;Node9 -->
<g id="edge44_Node000025_Node000009" class="edge">
<title>Node25&#45;&gt;Node9</title>
<g id="a_edge44_Node000025_Node000009"><a xlink:title=" ">
<path fill="none" stroke="#63b8ff" d="M1495.83,-121.28C1523.27,-109.92 1561.18,-89.21 1543.75,-66.5 1541.31,-63.32 1438.95,-37.18 1386.32,-23.92"/>
<polygon fill="#63b8ff" stroke="#63b8ff" points="1387.45,-20.34 1376.9,-21.29 1385.74,-27.13 1387.45,-20.34"/>
</a>
</g>
</g>
<!-- Node25&#45;&gt;Node12 -->
<g id="edge45_Node000025_Node000012" class="edge">
<title>Node25&#45;&gt;Node12</title>
<g id="a_edge45_Node000025_Node000012"><a xlink:title=" ">
<path fill="none" stroke="#63b8ff" d="M1470.75,-121.58C1470.75,-114.92 1470.75,-105.49 1470.75,-97.03"/>
<polygon fill="#63b8ff" stroke="#63b8ff" points="1474.25,-97.11 1470.75,-87.11 1467.25,-97.11 1474.25,-97.11"/>
</a>
</g>
</g>
<!-- Node26 -->
<g id="Node000026" class="node">
<title>Node26</title>
<g id="a_Node000026"><a xlink:title=" ">
<polygon fill="#e0e0e0" stroke="#999999" points="1724.62,-85.75 1590.88,-85.75 1590.88,-66.5 1724.62,-66.5 1724.62,-85.75"/>
<text text-anchor="middle" x="1657.75" y="-72.25" font-family="Helvetica,sans-Serif" font-size="10.00">autodiff/common/eigen.hpp</text>
</a>
</g>
</g>
<!-- Node25&#45;&gt;Node26 -->
<g id="edge42_Node000025_Node000026" class="edge">
<title>Node25&#45;&gt;Node26</title>
<g id="a_edge42_Node000025_Node000026"><a xlink:title=" ">
<path fill="none" stroke="#63b8ff" d="M1502.47,-121.34C1533.64,-112.47 1581.37,-98.87 1615.69,-89.1"/>
<polygon fill="#63b8ff" stroke="#63b8ff" points="1616.21,-92.31 1624.87,-86.2 1614.3,-85.58 1616.21,-92.31"/>
</a>
</g>
</g>
</g>
</svg>
