<?xml version="1.0" encoding="UTF-8" standalone="no"?>
<!DOCTYPE svg PUBLIC "-//W3C//DTD SVG 1.1//EN"
 "http://www.w3.org/Graphics/SVG/1.1/DTD/svg11.dtd">
<!-- Generated by graphviz version 8.1.0 (20230707.0739)
 -->
<!-- Title: ExamplePerformance.cpp Pages: 1 -->
<!--zoomable 260 -->

<svg id="main" version="1.1" xmlns="http://www.w3.org/2000/svg" xmlns:xlink="http://www.w3.org/1999/xlink" xml:space="preserve" onload="init(evt)">
<style type="text/css"><![CDATA[
.node, .edge {opacity: 0.7;}
.node.selected, .edge.selected {opacity: 1;}
.edge:hover path { stroke: red; }
.edge:hover polygon { stroke: red; fill: red; }
]]></style>

<defs>
  <circle id="rim" cx="0" cy="0" r="7"/>
  <circle id="rim2" cx="0" cy="0" r="3.5"/>
  <g id="zoomPlus">
    <use xlink:href="#rim" fill="#404040"><set attributeName="fill" to="#808080" begin="zoomplus.mouseover" end="zoomplus.mouseout"/></use>
    <path d="M-4,0h8M0,-4v8" fill="none" stroke="white" stroke-width="1.5" pointer-events="none"/>
  </g>
  <g id="zoomMin">
    <use xlink:href="#rim" fill="#404040"><set attributeName="fill" to="#808080" begin="zoomminus.mouseover" end="zoomminus.mouseout"/></use>
    <path d="M-4,0h8" fill="none" stroke="white" stroke-width="1.5" pointer-events="none"/>
  </g>
  <g id="arrowUp" transform="translate(30 24)">
    <use xlink:href="#rim"/>
    <path pointer-events="none" fill="none" stroke="white" stroke-width="1.5" d="M0,-3.0v7 M-2.5,-0.5L0,-3.0L2.5,-0.5"/>
  </g>
  <g id="arrowRight" transform="rotate(90) translate(36 -43)">
    <use xlink:href="#rim"/>
    <path pointer-events="none" fill="none" stroke="white" stroke-width="1.5" d="M0,-3.0v7 M-2.5,-0.5L0,-3.0L2.5,-0.5"/>
  </g>
  <g id="arrowDown" transform="rotate(180) translate(-30 -48)">
    <use xlink:href="#rim"/>
    <path pointer-events="none" fill="none" stroke="white" stroke-width="1.5" d="M0,-3.0v7 M-2.5,-0.5L0,-3.0L2.5,-0.5"/>
  </g>
  <g id="arrowLeft" transform="rotate(270) translate(-36 17)">
    <use xlink:href="#rim"/>
    <path pointer-events="none" fill="none" stroke="white" stroke-width="1.5" d="M0,-3.0v7 M-2.5,-0.5L0,-3.0L2.5,-0.5"/>
  </g>
  <g id="resetDef">
    <use xlink:href="#rim2" fill="#404040"><set attributeName="fill" to="#808080" begin="reset.mouseover" end="reset.mouseout"/></use>
  </g>
</defs>
<script type="application/ecmascript">
var viewWidth = 2372;
var viewHeight = 260;
var sectionId = 'dynsection-0';
</script>
<script type="application/ecmascript" xlink:href="svg.min.js"/>
<svg id="graph" class="graph">
<g id="viewport">
<title>ExamplePerformance.cpp</title>
<!-- Node1 -->
<g id="Node000001" class="node">
<title>Node1</title>
<g id="a_Node000001"><a xlink:title="Example for performance testing of spherical harmonics computation.">
<polygon fill="#999999" stroke="#666666" points="1214.14,-251.5 1085.64,-251.5 1085.64,-232.25 1214.14,-232.25 1214.14,-251.5"/>
<text text-anchor="middle" x="1149.89" y="-238" font-family="Helvetica,sans-Serif" font-size="10.00">ExamplePerformance.cpp</text>
</a>
</g>
</g>
<!-- Node2 -->
<g id="Node000002" class="node">
<title>Node2</title>
<g id="a_Node000002"><a xlink:href="_file_8h.html" target="_top" xlink:title="File access utils.">
<polygon fill="white" stroke="#666666" points="288.77,-141 203.02,-141 203.02,-121.75 288.77,-121.75 288.77,-141"/>
<text text-anchor="middle" x="245.89" y="-127.5" font-family="Helvetica,sans-Serif" font-size="10.00">lupnt/core/File.h</text>
</a>
</g>
</g>
<!-- Node1&#45;&gt;Node2 -->
<g id="edge1_Node000001_Node000002" class="edge">
<title>Node1&#45;&gt;Node2</title>
<g id="a_edge1_Node000001_Node000002"><a xlink:title=" ">
<path fill="none" stroke="#63b8ff" d="M1085.44,-239.86C902.39,-236.63 388.1,-225.08 317.89,-196.25 293.86,-186.38 272.46,-164.94 259.36,-149.62"/>
<polygon fill="#63b8ff" stroke="#63b8ff" points="261.7,-147.95 252.65,-142.44 256.29,-152.39 261.7,-147.95"/>
</a>
</g>
</g>
<!-- Node3 -->
<g id="Node000003" class="node">
<title>Node3</title>
<g id="a_Node000003"><a xlink:href="_math_utils_8h.html" target="_top" xlink:title=" ">
<polygon fill="white" stroke="#666666" points="1026.39,-85.75 893.39,-85.75 893.39,-66.5 1026.39,-66.5 1026.39,-85.75"/>
<text text-anchor="middle" x="959.89" y="-72.25" font-family="Helvetica,sans-Serif" font-size="10.00">lupnt/numerics/MathUtils.h</text>
</a>
</g>
</g>
<!-- Node1&#45;&gt;Node3 -->
<g id="edge52_Node000001_Node000003" class="edge">
<title>Node1&#45;&gt;Node3</title>
<g id="a_edge52_Node000001_Node000003"><a xlink:title=" ">
<path fill="none" stroke="#63b8ff" d="M1139.41,-231.84C1108.45,-205.16 1017.19,-126.5 978.05,-92.77"/>
<polygon fill="#63b8ff" stroke="#63b8ff" points="980.98,-89.81 971.12,-85.93 976.41,-95.11 980.98,-89.81"/>
</a>
</g>
</g>
<!-- Node4 -->
<g id="Node000004" class="node">
<title>Node4</title>
<g id="a_Node000004"><a xlink:title=" ">
<polygon fill="#e0e0e0" stroke="#999999" points="1716.39,-24.88 1595.39,-24.88 1595.39,-5.63 1716.39,-5.63 1716.39,-24.88"/>
<text text-anchor="middle" x="1655.89" y="-11.38" font-family="Helvetica,sans-Serif" font-size="10.00">autodiff/forward/real.hpp</text>
</a>
</g>
</g>
<!-- Node1&#45;&gt;Node4 -->
<g id="edge63_Node000001_Node000004" class="edge">
<title>Node1&#45;&gt;Node4</title>
<g id="a_edge63_Node000001_Node000004"><a xlink:title=" ">
<path fill="none" stroke="#63b8ff" d="M1214.39,-239.87C1423.52,-236.34 2071.43,-223.28 2106.89,-196.25 2153.89,-160.43 2129.97,-94.42 2077.89,-66.5 2018.94,-34.89 1831.77,-22.85 1727.61,-18.51"/>
<polygon fill="#63b8ff" stroke="#63b8ff" points="1728,-14.99 1717.87,-18.08 1727.72,-21.98 1728,-14.99"/>
</a>
</g>
</g>
<!-- Node5 -->
<g id="Node000005" class="node">
<title>Node5</title>
<g id="a_Node000005"><a xlink:title=" ">
<polygon fill="#e0e0e0" stroke="#999999" points="1283.02,-30.5 1180.77,-30.5 1180.77,0 1283.02,0 1283.02,-30.5"/>
<text text-anchor="start" x="1188.77" y="-17" font-family="Helvetica,sans-Serif" font-size="10.00">autodiff/forward/real</text>
<text text-anchor="middle" x="1231.89" y="-5.75" font-family="Helvetica,sans-Serif" font-size="10.00">/eigen.hpp</text>
</a>
</g>
</g>
<!-- Node1&#45;&gt;Node5 -->
<g id="edge64_Node000001_Node000005" class="edge">
<title>Node1&#45;&gt;Node5</title>
<g id="a_edge64_Node000001_Node000005"><a xlink:title=" ">
<path fill="none" stroke="#63b8ff" d="M1147,-231.77C1138.92,-204.55 1118.68,-122.23 1149.89,-66.5 1157.18,-53.49 1169.37,-43.44 1182.14,-35.87"/>
<polygon fill="#63b8ff" stroke="#63b8ff" points="1183.38,-38.64 1190.49,-30.79 1180.03,-32.49 1183.38,-38.64"/>
</a>
</g>
</g>
<!-- Node7 -->
<g id="Node000007" class="node">
<title>Node7</title>
<g id="a_Node000007"><a xlink:title=" ">
<polygon fill="#e0e0e0" stroke="#999999" points="357.02,-85.75 284.77,-85.75 284.77,-66.5 357.02,-66.5 357.02,-85.75"/>
<text text-anchor="middle" x="320.89" y="-72.25" font-family="Helvetica,sans-Serif" font-size="10.00">Eigen/Dense</text>
</a>
</g>
</g>
<!-- Node1&#45;&gt;Node7 -->
<g id="edge65_Node000001_Node000007" class="edge">
<title>Node1&#45;&gt;Node7</title>
<g id="a_edge65_Node000001_Node000007"><a xlink:title=" ">
<path fill="none" stroke="#63b8ff" d="M1085.28,-234.8C1015.33,-227.7 900.66,-214.55 802.89,-196.25 638.29,-165.43 445.93,-112.78 362.74,-89.19"/>
<polygon fill="#63b8ff" stroke="#63b8ff" points="363.78,-85.56 353.2,-86.19 361.86,-92.29 363.78,-85.56"/>
</a>
</g>
</g>
<!-- Node9 -->
<g id="Node000009" class="node">
<title>Node9</title>
<g id="a_Node000009"><a xlink:title=" ">
<polygon fill="#e0e0e0" stroke="#999999" points="62.39,-85.75 13.39,-85.75 13.39,-66.5 62.39,-66.5 62.39,-85.75"/>
<text text-anchor="middle" x="37.89" y="-72.25" font-family="Helvetica,sans-Serif" font-size="10.00">fstream</text>
</a>
</g>
</g>
<!-- Node1&#45;&gt;Node9 -->
<g id="edge68_Node000001_Node000009" class="edge">
<title>Node1&#45;&gt;Node9</title>
<g id="a_edge68_Node000001_Node000009"><a xlink:title=" ">
<path fill="none" stroke="#63b8ff" d="M1085.19,-240.82C911.32,-240.17 436.99,-234.78 285.89,-196.25 197.63,-173.74 103.24,-118.66 60.84,-92.03"/>
<polygon fill="#63b8ff" stroke="#63b8ff" points="62.99,-88.61 52.67,-86.2 59.23,-94.52 62.99,-88.61"/>
</a>
</g>
</g>
<!-- Node10 -->
<g id="Node000010" class="node">
<title>Node10</title>
<g id="a_Node000010"><a xlink:title=" ">
<polygon fill="#e0e0e0" stroke="#999999" points="357.64,-24.88 304.14,-24.88 304.14,-5.63 357.64,-5.63 357.64,-24.88"/>
<text text-anchor="middle" x="330.89" y="-11.38" font-family="Helvetica,sans-Serif" font-size="10.00">iostream</text>
</a>
</g>
</g>
<!-- Node1&#45;&gt;Node10 -->
<g id="edge70_Node000001_Node000010" class="edge">
<title>Node1&#45;&gt;Node10</title>
<g id="a_edge70_Node000001_Node000010"><a xlink:title=" ">
<path fill="none" stroke="#63b8ff" d="M1085.34,-241.05C903.36,-241.04 388.95,-237.26 225.89,-196.25 119.01,-169.37 61.05,-179.99 3.89,-85.75 -0.54,-78.43 -1.68,-72.99 3.89,-66.5 40.79,-23.5 215.04,-16.93 293.02,-16.18"/>
<polygon fill="#63b8ff" stroke="#63b8ff" points="292.82,-19.68 302.8,-16.11 292.77,-12.68 292.82,-19.68"/>
</a>
</g>
</g>
<!-- Node12 -->
<g id="Node000012" class="node">
<title>Node12</title>
<g id="a_Node000012"><a xlink:title=" ">
<polygon fill="#e0e0e0" stroke="#999999" points="846.89,-24.88 806.89,-24.88 806.89,-5.63 846.89,-5.63 846.89,-24.88"/>
<text text-anchor="middle" x="826.89" y="-11.38" font-family="Helvetica,sans-Serif" font-size="10.00">string</text>
</a>
</g>
</g>
<!-- Node1&#45;&gt;Node12 -->
<g id="edge72_Node000001_Node000012" class="edge">
<title>Node1&#45;&gt;Node12</title>
<g id="a_edge72_Node000001_Node000012"><a xlink:title=" ">
<path fill="none" stroke="#63b8ff" d="M1128.96,-231.81C1081.85,-210.78 965.26,-155.11 883.89,-85.75 865.97,-70.47 849.37,-49.05 838.76,-34.04"/>
<polygon fill="#63b8ff" stroke="#63b8ff" points="841.25,-32.49 832.7,-26.23 835.48,-36.45 841.25,-32.49"/>
</a>
</g>
</g>
<!-- Node14 -->
<g id="Node000014" class="node">
<title>Node14</title>
<g id="a_Node000014"><a xlink:href="_dynamics_8h.html" target="_top" xlink:title="Interface for Dynamics.">
<polygon fill="white" stroke="#666666" points="1433.64,-196.25 1296.14,-196.25 1296.14,-177 1433.64,-177 1433.64,-196.25"/>
<text text-anchor="middle" x="1364.89" y="-182.75" font-family="Helvetica,sans-Serif" font-size="10.00">lupnt/dynamics/Dynamics.h</text>
</a>
</g>
</g>
<!-- Node1&#45;&gt;Node14 -->
<g id="edge14_Node000001_Node000014" class="edge">
<title>Node1&#45;&gt;Node14</title>
<g id="a_edge14_Node000001_Node000014"><a xlink:title=" ">
<path fill="none" stroke="#63b8ff" d="M1186.37,-231.84C1222.58,-222.87 1278.26,-209.08 1317.8,-199.29"/>
<polygon fill="#63b8ff" stroke="#63b8ff" points="1318.38,-202.5 1327.24,-196.7 1316.7,-195.71 1318.38,-202.5"/>
</a>
</g>
</g>
<!-- Node15 -->
<g id="Node000015" class="node">
<title>Node15</title>
<g id="a_Node000015"><a xlink:href="_gravity_field_8h.html" target="_top" xlink:title="Gravity field model and acceleration calculation.">
<polygon fill="white" stroke="#666666" points="803.77,-141 658.02,-141 658.02,-121.75 803.77,-121.75 803.77,-141"/>
<text text-anchor="middle" x="730.89" y="-127.5" font-family="Helvetica,sans-Serif" font-size="10.00">lupnt/dynamics/GravityField.h</text>
</a>
</g>
</g>
<!-- Node1&#45;&gt;Node15 -->
<g id="edge51_Node000001_Node000015" class="edge">
<title>Node1&#45;&gt;Node15</title>
<g id="a_edge51_Node000001_Node000015"><a xlink:title=" ">
<path fill="none" stroke="#63b8ff" d="M1085.15,-237.58C1023.57,-232.97 929.02,-222.02 850.89,-196.25 814.81,-184.35 776.65,-162.15 753.3,-147.32"/>
<polygon fill="#63b8ff" stroke="#63b8ff" points="755.54,-143.95 745.25,-141.46 751.74,-149.83 755.54,-143.95"/>
</a>
</g>
</g>
<!-- Node21 -->
<g id="Node000021" class="node">
<title>Node21</title>
<g id="a_Node000021"><a xlink:title=" ">
<polygon fill="#e0e0e0" stroke="#999999" points="1210.52,-85.75 1159.27,-85.75 1159.27,-66.5 1210.52,-66.5 1210.52,-85.75"/>
<text text-anchor="middle" x="1184.89" y="-72.25" font-family="Helvetica,sans-Serif" font-size="10.00">memory</text>
</a>
</g>
</g>
<!-- Node1&#45;&gt;Node21 -->
<g id="edge71_Node000001_Node000021" class="edge">
<title>Node1&#45;&gt;Node21</title>
<g id="a_edge71_Node000001_Node000021"><a xlink:title=" ">
<path fill="none" stroke="#63b8ff" d="M1151.78,-232.07C1157.24,-206.53 1173.18,-131.95 1180.77,-96.4"/>
<polygon fill="#63b8ff" stroke="#63b8ff" points="1184.34,-97.48 1183,-86.97 1177.49,-96.02 1184.34,-97.48"/>
</a>
</g>
</g>
<!-- Node23 -->
<g id="Node000023" class="node">
<title>Node23</title>
<g id="a_Node000023"><a xlink:href="_orbit_state_8h.html" target="_top" xlink:title="Orbit states.">
<polygon fill="white" stroke="#666666" points="1578.52,-141 1449.27,-141 1449.27,-121.75 1578.52,-121.75 1578.52,-141"/>
<text text-anchor="middle" x="1513.89" y="-127.5" font-family="Helvetica,sans-Serif" font-size="10.00">lupnt/physics/OrbitState.h</text>
</a>
</g>
</g>
<!-- Node1&#45;&gt;Node23 -->
<g id="edge53_Node000001_Node000023" class="edge">
<title>Node1&#45;&gt;Node23</title>
<g id="a_edge53_Node000001_Node000023"><a xlink:title=" ">
<path fill="none" stroke="#63b8ff" d="M1214.47,-235.39C1288.15,-228.38 1403.53,-214.87 1442.89,-196.25 1465.98,-185.33 1486.99,-164.43 1500.06,-149.51"/>
<polygon fill="#63b8ff" stroke="#63b8ff" points="1503.35,-152.03 1507.13,-142.13 1498,-147.52 1503.35,-152.03"/>
</a>
</g>
</g>
<!-- Node27 -->
<g id="Node000027" class="node">
<title>Node27</title>
<g id="a_Node000027"><a xlink:href="_spice_interface_8h.html" target="_top" xlink:title="SPICE Interface functions.">
<polygon fill="white" stroke="#666666" points="2097.89,-196.25 1949.89,-196.25 1949.89,-177 2097.89,-177 2097.89,-196.25"/>
<text text-anchor="middle" x="2023.89" y="-182.75" font-family="Helvetica,sans-Serif" font-size="10.00">lupnt/physics/SpiceInterface.h</text>
</a>
</g>
</g>
<!-- Node1&#45;&gt;Node27 -->
<g id="edge54_Node000001_Node000027" class="edge">
<title>Node1&#45;&gt;Node27</title>
<g id="a_edge54_Node000001_Node000027"><a xlink:title=" ">
<path fill="none" stroke="#63b8ff" d="M1214.52,-236.94C1369.84,-227.47 1764.16,-203.45 1938.62,-192.82"/>
<polygon fill="#63b8ff" stroke="#63b8ff" points="1938.77,-196.26 1948.54,-192.16 1938.35,-189.27 1938.77,-196.26"/>
</a>
</g>
</g>
<!-- Node31 -->
<g id="Node000031" class="node">
<title>Node31</title>
<g id="a_Node000031"><a xlink:title=" ">
<polygon fill="#e0e0e0" stroke="#999999" points="2232.27,-196.25 2173.52,-196.25 2173.52,-177 2232.27,-177 2232.27,-196.25"/>
<text text-anchor="middle" x="2202.89" y="-182.75" font-family="Helvetica,sans-Serif" font-size="10.00">Eigen/QR</text>
</a>
</g>
</g>
<!-- Node1&#45;&gt;Node31 -->
<g id="edge66_Node000001_Node000031" class="edge">
<title>Node1&#45;&gt;Node31</title>
<g id="a_edge66_Node000001_Node000031"><a xlink:title=" ">
<path fill="none" stroke="#63b8ff" d="M1214.58,-241.45C1375.19,-242.15 1804.89,-239.44 2159.89,-196.25 2160.85,-196.13 2161.82,-196.01 2162.8,-195.87"/>
<polygon fill="#63b8ff" stroke="#63b8ff" points="2163.07,-199.21 2172.38,-194.17 2161.95,-192.3 2163.07,-199.21"/>
</a>
</g>
</g>
<!-- Node32 -->
<g id="Node000032" class="node">
<title>Node32</title>
<g id="a_Node000032"><a xlink:title=" ">
<polygon fill="#e0e0e0" stroke="#999999" points="2295.52,-196.25 2250.27,-196.25 2250.27,-177 2295.52,-177 2295.52,-196.25"/>
<text text-anchor="middle" x="2272.89" y="-182.75" font-family="Helvetica,sans-Serif" font-size="10.00">chrono</text>
</a>
</g>
</g>
<!-- Node1&#45;&gt;Node32 -->
<g id="edge67_Node000001_Node000032" class="edge">
<title>Node1&#45;&gt;Node32</title>
<g id="a_edge67_Node000001_Node000032"><a xlink:title=" ">
<path fill="none" stroke="#63b8ff" d="M1214.29,-240.12C1413.75,-237.49 2020.5,-227.22 2239.21,-196.06"/>
<polygon fill="#63b8ff" stroke="#63b8ff" points="2239.58,-199.4 2248.95,-194.46 2238.55,-192.47 2239.58,-199.4"/>
</a>
</g>
</g>
<!-- Node33 -->
<g id="Node000033" class="node">
<title>Node33</title>
<g id="a_Node000033"><a xlink:title=" ">
<polygon fill="#e0e0e0" stroke="#999999" points="2363.77,-196.25 2314.02,-196.25 2314.02,-177 2363.77,-177 2363.77,-196.25"/>
<text text-anchor="middle" x="2338.89" y="-182.75" font-family="Helvetica,sans-Serif" font-size="10.00">iomanip</text>
</a>
</g>
</g>
<!-- Node1&#45;&gt;Node33 -->
<g id="edge69_Node000001_Node000033" class="edge">
<title>Node1&#45;&gt;Node33</title>
<g id="a_edge69_Node000001_Node000033"><a xlink:title=" ">
<path fill="none" stroke="#63b8ff" d="M1214.32,-240.16C1421.66,-237.6 2071.16,-227.36 2303.04,-196.13"/>
<polygon fill="#63b8ff" stroke="#63b8ff" points="2303.34,-199.48 2312.76,-194.63 2302.37,-192.55 2303.34,-199.48"/>
</a>
</g>
</g>
<!-- Node2&#45;&gt;Node3 -->
<g id="edge2_Node000002_Node000003" class="edge">
<title>Node2&#45;&gt;Node3</title>
<g id="a_edge2_Node000002_Node000003"><a xlink:title=" ">
<path fill="none" stroke="#63b8ff" d="M289.22,-127.14C406.61,-118.39 732.04,-94.12 882.17,-82.92"/>
<polygon fill="#63b8ff" stroke="#63b8ff" points="882.4,-86.34 892.11,-82.11 881.88,-79.36 882.4,-86.34"/>
</a>
</g>
</g>
<!-- Node2&#45;&gt;Node5 -->
<g id="edge7_Node000002_Node000005" class="edge">
<title>Node2&#45;&gt;Node5</title>
<g id="a_edge7_Node000002_Node000005"><a xlink:title=" ">
<path fill="none" stroke="#63b8ff" d="M289.07,-127.87C378.71,-122.42 591.46,-108.13 768.89,-85.75 820.31,-79.26 832.69,-74.48 883.89,-66.5 983.8,-50.93 1100.11,-34.47 1169.77,-24.79"/>
<polygon fill="#63b8ff" stroke="#63b8ff" points="1170.12,-28.14 1179.54,-23.3 1169.16,-21.21 1170.12,-28.14"/>
</a>
</g>
</g>
<!-- Node2&#45;&gt;Node7 -->
<g id="edge6_Node000002_Node000007" class="edge">
<title>Node2&#45;&gt;Node7</title>
<g id="a_edge6_Node000002_Node000007"><a xlink:title=" ">
<path fill="none" stroke="#63b8ff" d="M258.62,-121.34C269.72,-113.46 286.05,-101.86 299.21,-92.52"/>
<polygon fill="#63b8ff" stroke="#63b8ff" points="300.98,-94.85 307.11,-86.2 296.93,-89.14 300.98,-94.85"/>
</a>
</g>
</g>
<!-- Node8 -->
<g id="Node000008" class="node">
<title>Node8</title>
<g id="a_Node000008"><a xlink:title=" ">
<polygon fill="#e0e0e0" stroke="#999999" points="436.39,-24.88 375.39,-24.88 375.39,-5.63 436.39,-5.63 436.39,-24.88"/>
<text text-anchor="middle" x="405.89" y="-11.38" font-family="Helvetica,sans-Serif" font-size="10.00">filesystem</text>
</a>
</g>
</g>
<!-- Node2&#45;&gt;Node8 -->
<g id="edge8_Node000002_Node000008" class="edge">
<title>Node2&#45;&gt;Node8</title>
<g id="a_edge8_Node000002_Node000008"><a xlink:title=" ">
<path fill="none" stroke="#63b8ff" d="M232.71,-121.29C215.77,-108.53 190.22,-84.8 204.89,-66.5 251.05,-8.97 296.1,-51.2 366.89,-30.5 368.65,-29.99 370.45,-29.43 372.26,-28.85"/>
<polygon fill="#63b8ff" stroke="#63b8ff" points="373.21,-31.88 381.55,-25.35 370.96,-25.26 373.21,-31.88"/>
</a>
</g>
</g>
<!-- Node2&#45;&gt;Node9 -->
<g id="edge9_Node000002_Node000009" class="edge">
<title>Node2&#45;&gt;Node9</title>
<g id="a_edge9_Node000002_Node000009"><a xlink:title=" ">
<path fill="none" stroke="#63b8ff" d="M210.61,-121.34C172.26,-111.52 111.34,-95.93 73.04,-86.12"/>
<polygon fill="#63b8ff" stroke="#63b8ff" points="74.43,-82.61 63.88,-83.52 72.7,-89.39 74.43,-82.61"/>
</a>
</g>
</g>
<!-- Node2&#45;&gt;Node10 -->
<g id="edge10_Node000002_Node000010" class="edge">
<title>Node2&#45;&gt;Node10</title>
<g id="a_edge10_Node000002_Node000010"><a xlink:title=" ">
<path fill="none" stroke="#63b8ff" d="M202.54,-125.58C152.92,-118.35 81.91,-101.57 109.89,-66.5 132.39,-38.32 235.95,-24.73 292.97,-19.29"/>
<polygon fill="#63b8ff" stroke="#63b8ff" points="293.08,-22.7 302.72,-18.31 292.44,-15.73 293.08,-22.7"/>
</a>
</g>
</g>
<!-- Node11 -->
<g id="Node000011" class="node">
<title>Node11</title>
<g id="a_Node000011"><a xlink:title=" ">
<polygon fill="#e0e0e0" stroke="#999999" points="153.27,-85.75 118.52,-85.75 118.52,-66.5 153.27,-66.5 153.27,-85.75"/>
<text text-anchor="middle" x="135.89" y="-72.25" font-family="Helvetica,sans-Serif" font-size="10.00">map</text>
</a>
</g>
</g>
<!-- Node2&#45;&gt;Node11 -->
<g id="edge11_Node000002_Node000011" class="edge">
<title>Node2&#45;&gt;Node11</title>
<g id="a_edge11_Node000002_Node000011"><a xlink:title=" ">
<path fill="none" stroke="#63b8ff" d="M227.23,-121.34C209.7,-112.85 183.23,-100.04 163.3,-90.39"/>
<polygon fill="#63b8ff" stroke="#63b8ff" points="165.08,-86.88 154.55,-85.67 162.03,-93.18 165.08,-86.88"/>
</a>
</g>
</g>
<!-- Node2&#45;&gt;Node12 -->
<g id="edge12_Node000002_Node000012" class="edge">
<title>Node2&#45;&gt;Node12</title>
<g id="a_edge12_Node000002_Node000012"><a xlink:title=" ">
<path fill="none" stroke="#63b8ff" d="M247.19,-121.57C249.81,-107.31 257.16,-79.47 275.89,-66.5 359.3,-8.78 630.12,-41.95 730.89,-30.5 752.76,-28.01 777.31,-24.36 796.11,-21.37"/>
<polygon fill="#63b8ff" stroke="#63b8ff" points="796.41,-24.7 805.72,-19.65 795.29,-17.79 796.41,-24.7"/>
</a>
</g>
</g>
<!-- Node13 -->
<g id="Node000013" class="node">
<title>Node13</title>
<g id="a_Node000013"><a xlink:title=" ">
<polygon fill="#e0e0e0" stroke="#999999" points="497.39,-24.88 454.39,-24.88 454.39,-5.63 497.39,-5.63 497.39,-24.88"/>
<text text-anchor="middle" x="475.89" y="-11.38" font-family="Helvetica,sans-Serif" font-size="10.00">vector</text>
</a>
</g>
</g>
<!-- Node2&#45;&gt;Node13 -->
<g id="edge13_Node000002_Node000013" class="edge">
<title>Node2&#45;&gt;Node13</title>
<g id="a_edge13_Node000002_Node000013"><a xlink:title=" ">
<path fill="none" stroke="#63b8ff" d="M242.04,-121.33C236.91,-107.74 229.92,-81.99 242.89,-66.5 301.45,3.41 357.87,-57.76 444.89,-30.5 446,-30.15 447.11,-29.78 448.23,-29.38"/>
<polygon fill="#63b8ff" stroke="#63b8ff" points="449.23,-32.35 457.17,-25.33 446.59,-25.86 449.23,-32.35"/>
</a>
</g>
</g>
<!-- Node3&#45;&gt;Node4 -->
<g id="edge3_Node000003_Node000004" class="edge">
<title>Node3&#45;&gt;Node4</title>
<g id="a_edge3_Node000003_Node000004"><a xlink:title=" ">
<path fill="none" stroke="#63b8ff" d="M1026.63,-69.48C1158.14,-58.35 1449.73,-33.69 1584.74,-22.27"/>
<polygon fill="#63b8ff" stroke="#63b8ff" points="1584.69,-25.7 1594.36,-21.37 1584.1,-18.73 1584.69,-25.7"/>
</a>
</g>
</g>
<!-- Node3&#45;&gt;Node5 -->
<g id="edge4_Node000003_Node000005" class="edge">
<title>Node3&#45;&gt;Node5</title>
<g id="a_edge4_Node000003_Node000005"><a xlink:title=" ">
<path fill="none" stroke="#63b8ff" d="M1001.8,-66.05C1046.74,-56.33 1118.56,-40.78 1170.01,-29.65"/>
<polygon fill="#63b8ff" stroke="#63b8ff" points="1170.62,-32.88 1179.66,-27.34 1169.14,-26.04 1170.62,-32.88"/>
</a>
</g>
</g>
<!-- Node6 -->
<g id="Node000006" class="node">
<title>Node6</title>
<g id="a_Node000006"><a xlink:title=" ">
<polygon fill="#e0e0e0" stroke="#999999" points="984.02,-24.88 935.77,-24.88 935.77,-5.63 984.02,-5.63 984.02,-24.88"/>
<text text-anchor="middle" x="959.89" y="-11.38" font-family="Helvetica,sans-Serif" font-size="10.00">random</text>
</a>
</g>
</g>
<!-- Node3&#45;&gt;Node6 -->
<g id="edge5_Node000003_Node000006" class="edge">
<title>Node3&#45;&gt;Node6</title>
<g id="a_edge5_Node000003_Node000006"><a xlink:title=" ">
<path fill="none" stroke="#63b8ff" d="M959.89,-66.18C959.89,-58.23 959.89,-46.31 959.89,-36.12"/>
<polygon fill="#63b8ff" stroke="#63b8ff" points="963.39,-36.28 959.89,-26.28 956.39,-36.28 963.39,-36.28"/>
</a>
</g>
</g>
<!-- Node14&#45;&gt;Node4 -->
<g id="edge15_Node000014_Node000004" class="edge">
<title>Node14&#45;&gt;Node4</title>
<g id="a_edge15_Node000014_Node000004"><a xlink:title=" ">
<path fill="none" stroke="#63b8ff" d="M1433.99,-179.34C1540.56,-168.03 1737.04,-140.17 1777.89,-85.75 1799.23,-57.32 1756.69,-38.73 1716.11,-28"/>
<polygon fill="#63b8ff" stroke="#63b8ff" points="1717.15,-24.4 1706.6,-25.37 1715.45,-31.19 1717.15,-24.4"/>
</a>
</g>
</g>
<!-- Node14&#45;&gt;Node15 -->
<g id="edge16_Node000014_Node000015" class="edge">
<title>Node14&#45;&gt;Node15</title>
<g id="a_edge16_Node000014_Node000015"><a xlink:title=" ">
<path fill="none" stroke="#63b8ff" d="M1295.84,-179.82C1178.74,-169.99 941.64,-150.08 815.03,-139.44"/>
<polygon fill="#63b8ff" stroke="#63b8ff" points="815.51,-135.89 805.25,-138.54 814.92,-142.86 815.51,-135.89"/>
</a>
</g>
</g>
<!-- Node20 -->
<g id="Node000020" class="node">
<title>Node20</title>
<g id="a_Node000020"><a xlink:href="_propagator_8h.html" target="_top" xlink:title="Numerical Propagator.">
<polygon fill="white" stroke="#666666" points="1336.77,-141 1197.02,-141 1197.02,-121.75 1336.77,-121.75 1336.77,-141"/>
<text text-anchor="middle" x="1266.89" y="-127.5" font-family="Helvetica,sans-Serif" font-size="10.00">lupnt/dynamics/Propagator.h</text>
</a>
</g>
</g>
<!-- Node14&#45;&gt;Node20 -->
<g id="edge31_Node000014_Node000020" class="edge">
<title>Node14&#45;&gt;Node20</title>
<g id="a_edge31_Node000014_Node000020"><a xlink:title=" ">
<path fill="none" stroke="#63b8ff" d="M1348.27,-176.59C1333.21,-168.41 1310.75,-156.21 1293.24,-146.69"/>
<polygon fill="#63b8ff" stroke="#63b8ff" points="1295.06,-143.15 1284.6,-141.45 1291.72,-149.3 1295.06,-143.15"/>
</a>
</g>
</g>
<!-- Node22 -->
<g id="Node000022" class="node">
<title>Node22</title>
<g id="a_Node000022"><a xlink:href="_integrator_8h.html" target="_top" xlink:title="Integrator interfaces.">
<polygon fill="white" stroke="#666666" points="1398.64,-85.75 1267.14,-85.75 1267.14,-66.5 1398.64,-66.5 1398.64,-85.75"/>
<text text-anchor="middle" x="1332.89" y="-72.25" font-family="Helvetica,sans-Serif" font-size="10.00">lupnt/numerics/Integrator.h</text>
</a>
</g>
</g>
<!-- Node14&#45;&gt;Node22 -->
<g id="edge39_Node000014_Node000022" class="edge">
<title>Node14&#45;&gt;Node22</title>
<g id="a_edge39_Node000014_Node000022"><a xlink:title=" ">
<path fill="none" stroke="#63b8ff" d="M1362.28,-176.75C1357.14,-159.34 1345.65,-120.37 1338.66,-96.66"/>
<polygon fill="#63b8ff" stroke="#63b8ff" points="1341.74,-95.73 1335.55,-87.13 1335.02,-97.71 1341.74,-95.73"/>
</a>
</g>
</g>
<!-- Node14&#45;&gt;Node23 -->
<g id="edge40_Node000014_Node000023" class="edge">
<title>Node14&#45;&gt;Node23</title>
<g id="a_edge40_Node000014_Node000023"><a xlink:title=" ">
<path fill="none" stroke="#63b8ff" d="M1390.17,-176.59C1414.36,-167.95 1451.08,-154.82 1478.24,-145.12"/>
<polygon fill="#63b8ff" stroke="#63b8ff" points="1479.26,-148.11 1487.49,-141.45 1476.9,-141.52 1479.26,-148.11"/>
</a>
</g>
</g>
<!-- Node26 -->
<g id="Node000026" class="node">
<title>Node26</title>
<g id="a_Node000026"><a xlink:href="_state_8h.html" target="_top" xlink:title="SPICE Interface functions.">
<polygon fill="white" stroke="#666666" points="1464.64,-85.75 1417.14,-85.75 1417.14,-66.5 1464.64,-66.5 1464.64,-85.75"/>
<text text-anchor="middle" x="1440.89" y="-72.25" font-family="Helvetica,sans-Serif" font-size="10.00">State.h</text>
</a>
</g>
</g>
<!-- Node14&#45;&gt;Node26 -->
<g id="edge50_Node000014_Node000026" class="edge">
<title>Node14&#45;&gt;Node26</title>
<g id="a_edge50_Node000014_Node000026"><a xlink:title=" ">
<path fill="none" stroke="#63b8ff" d="M1371.11,-176.75C1383.58,-158.94 1411.86,-118.58 1428.33,-95.06"/>
<polygon fill="#63b8ff" stroke="#63b8ff" points="1431.72,-97.33 1434.59,-87.13 1425.99,-93.31 1431.72,-97.33"/>
</a>
</g>
</g>
<!-- Node15&#45;&gt;Node3 -->
<g id="edge30_Node000015_Node000003" class="edge">
<title>Node15&#45;&gt;Node3</title>
<g id="a_edge30_Node000015_Node000003"><a xlink:title=" ">
<path fill="none" stroke="#63b8ff" d="M770,-121.28C808.78,-112.26 868.33,-98.42 910.39,-88.64"/>
<polygon fill="#63b8ff" stroke="#63b8ff" points="911,-91.86 919.95,-86.18 909.42,-85.04 911,-91.86"/>
</a>
</g>
</g>
<!-- Node15&#45;&gt;Node4 -->
<g id="edge23_Node000015_Node000004" class="edge">
<title>Node15&#45;&gt;Node4</title>
<g id="a_edge23_Node000015_Node000004"><a xlink:title=" ">
<path fill="none" stroke="#63b8ff" d="M804.21,-123.08C873.32,-115.65 979.6,-102.81 1070.89,-85.75 1106.42,-79.11 1114.27,-72.58 1149.89,-66.5 1303.6,-40.27 1486.08,-26.32 1584.46,-20.18"/>
<polygon fill="#63b8ff" stroke="#63b8ff" points="1584.4,-23.63 1594.16,-19.53 1583.97,-16.65 1584.4,-23.63"/>
</a>
</g>
</g>
<!-- Node15&#45;&gt;Node5 -->
<g id="edge24_Node000015_Node000005" class="edge">
<title>Node15&#45;&gt;Node5</title>
<g id="a_edge24_Node000015_Node000005"><a xlink:title=" ">
<path fill="none" stroke="#63b8ff" d="M804.22,-125.12C866.52,-119.36 957.85,-107.83 1034.89,-85.75 1055.41,-79.87 1058.95,-74.12 1078.89,-66.5 1109.6,-54.77 1144.37,-43.22 1173,-34.15"/>
<polygon fill="#63b8ff" stroke="#63b8ff" points="1173.76,-37.27 1182.25,-30.93 1171.66,-30.59 1173.76,-37.27"/>
</a>
</g>
</g>
<!-- Node15&#45;&gt;Node9 -->
<g id="edge18_Node000015_Node000009" class="edge">
<title>Node15&#45;&gt;Node9</title>
<g id="a_edge18_Node000015_Node000009"><a xlink:title=" ">
<path fill="none" stroke="#63b8ff" d="M657.67,-126.24C541.43,-119.43 307.61,-104.69 109.89,-85.75 98.02,-84.61 85.08,-83.14 73.48,-81.73"/>
<polygon fill="#63b8ff" stroke="#63b8ff" points="74.21,-78.17 63.85,-80.41 73.35,-85.11 74.21,-78.17"/>
</a>
</g>
</g>
<!-- Node15&#45;&gt;Node10 -->
<g id="edge19_Node000015_Node000010" class="edge">
<title>Node15&#45;&gt;Node10</title>
<g id="a_edge19_Node000015_Node000010"><a xlink:title=" ">
<path fill="none" stroke="#63b8ff" d="M657.82,-128.5C596.01,-124.81 506.08,-114.42 432.89,-85.75 400.51,-73.06 368.19,-48.53 348.87,-32.27"/>
<polygon fill="#63b8ff" stroke="#63b8ff" points="351.58,-29.12 341.72,-25.25 347.01,-34.42 351.58,-29.12"/>
</a>
</g>
</g>
<!-- Node15&#45;&gt;Node12 -->
<g id="edge21_Node000015_Node000012" class="edge">
<title>Node15&#45;&gt;Node12</title>
<g id="a_edge21_Node000015_Node000012"><a xlink:title=" ">
<path fill="none" stroke="#63b8ff" d="M738.49,-121.51C746.18,-112.52 758.4,-98.2 768.89,-85.75 783.85,-68.01 800.85,-47.61 812.56,-33.52"/>
<polygon fill="#63b8ff" stroke="#63b8ff" points="815.72,-36.2 819.42,-26.27 810.33,-31.73 815.72,-36.2"/>
</a>
</g>
</g>
<!-- Node15&#45;&gt;Node13 -->
<g id="edge22_Node000015_Node000013" class="edge">
<title>Node15&#45;&gt;Node13</title>
<g id="a_edge22_Node000015_Node000013"><a xlink:title=" ">
<path fill="none" stroke="#63b8ff" d="M657.64,-129.52C581.33,-126.89 469.16,-117.55 441.89,-85.75 428.32,-69.92 443.71,-47.73 457.93,-32.71"/>
<polygon fill="#63b8ff" stroke="#63b8ff" points="459.88,-35.72 464.52,-26.2 454.95,-30.75 459.88,-35.72"/>
</a>
</g>
</g>
<!-- Node16 -->
<g id="Node000016" class="node">
<title>Node16</title>
<g id="a_Node000016"><a xlink:title=" ">
<polygon fill="#e0e0e0" stroke="#999999" points="506.77,-85.75 451.02,-85.75 451.02,-66.5 506.77,-66.5 506.77,-85.75"/>
<text text-anchor="middle" x="478.89" y="-72.25" font-family="Helvetica,sans-Serif" font-size="10.00">algorithm</text>
</a>
</g>
</g>
<!-- Node15&#45;&gt;Node16 -->
<g id="edge17_Node000015_Node000016" class="edge">
<title>Node15&#45;&gt;Node16</title>
<g id="a_edge17_Node000015_Node000016"><a xlink:title=" ">
<path fill="none" stroke="#63b8ff" d="M685.53,-121.29C644.26,-112.96 581.41,-100.07 517.79,-86.13"/>
<polygon fill="#63b8ff" stroke="#63b8ff" points="518.68,-82.52 508.16,-83.79 517.17,-89.36 518.68,-82.52"/>
</a>
</g>
</g>
<!-- Node17 -->
<g id="Node000017" class="node">
<title>Node17</title>
<g id="a_Node000017"><a xlink:title=" ">
<polygon fill="#e0e0e0" stroke="#999999" points="576.52,-85.75 525.27,-85.75 525.27,-66.5 576.52,-66.5 576.52,-85.75"/>
<text text-anchor="middle" x="550.89" y="-72.25" font-family="Helvetica,sans-Serif" font-size="10.00">sstream</text>
</a>
</g>
</g>
<!-- Node15&#45;&gt;Node17 -->
<g id="edge20_Node000015_Node000017" class="edge">
<title>Node15&#45;&gt;Node17</title>
<g id="a_edge20_Node000015_Node000017"><a xlink:title=" ">
<path fill="none" stroke="#63b8ff" d="M700.36,-121.34C669.04,-112.08 620.34,-97.67 587.1,-87.84"/>
<polygon fill="#63b8ff" stroke="#63b8ff" points="588.48,-84.3 577.9,-84.82 586.49,-91.01 588.48,-84.3"/>
</a>
</g>
</g>
<!-- Node18 -->
<g id="Node000018" class="node">
<title>Node18</title>
<g id="a_Node000018"><a xlink:href="_user_file_path_8h.html" target="_top" xlink:title="File access utils.">
<polygon fill="white" stroke="#666666" points="760.39,-85.75 633.39,-85.75 633.39,-66.5 760.39,-66.5 760.39,-85.75"/>
<text text-anchor="middle" x="696.89" y="-72.25" font-family="Helvetica,sans-Serif" font-size="10.00">lupnt/core/UserFilePath.h</text>
</a>
</g>
</g>
<!-- Node15&#45;&gt;Node18 -->
<g id="edge25_Node000015_Node000018" class="edge">
<title>Node15&#45;&gt;Node18</title>
<g id="a_edge25_Node000015_Node000018"><a xlink:title=" ">
<path fill="none" stroke="#63b8ff" d="M725.28,-121.58C720.73,-114.46 714.17,-104.18 708.5,-95.3"/>
<polygon fill="#63b8ff" stroke="#63b8ff" points="710.96,-93.65 702.63,-87.11 705.06,-97.42 710.96,-93.65"/>
</a>
</g>
</g>
<!-- Node18&#45;&gt;Node8 -->
<g id="edge26_Node000018_Node000008" class="edge">
<title>Node18&#45;&gt;Node8</title>
<g id="a_edge26_Node000018_Node000008"><a xlink:title=" ">
<path fill="none" stroke="#63b8ff" d="M633.05,-66.97C581.69,-59.66 507.97,-47.47 444.89,-30.5 442.99,-29.99 441.05,-29.42 439.11,-28.82"/>
<polygon fill="#63b8ff" stroke="#63b8ff" points="440.37,-25.22 429.78,-25.37 438.15,-31.86 440.37,-25.22"/>
</a>
</g>
</g>
<!-- Node18&#45;&gt;Node10 -->
<g id="edge27_Node000018_Node000010" class="edge">
<title>Node18&#45;&gt;Node10</title>
<g id="a_edge27_Node000018_Node000010"><a xlink:title=" ">
<path fill="none" stroke="#63b8ff" d="M632.99,-67.39C544.08,-56.5 391.07,-37.21 365.89,-30.5 364.15,-30.04 362.38,-29.51 360.6,-28.93"/>
<polygon fill="#63b8ff" stroke="#63b8ff" points="362.18,-25.42 351.59,-25.28 359.78,-31.99 362.18,-25.42"/>
</a>
</g>
</g>
<!-- Node18&#45;&gt;Node12 -->
<g id="edge29_Node000018_Node000012" class="edge">
<title>Node18&#45;&gt;Node12</title>
<g id="a_edge29_Node000018_Node000012"><a xlink:title=" ">
<path fill="none" stroke="#63b8ff" d="M716.92,-66.05C738.36,-56.35 772.6,-40.84 797.18,-29.71"/>
<polygon fill="#63b8ff" stroke="#63b8ff" points="798.39,-32.55 806.06,-25.23 795.5,-26.17 798.39,-32.55"/>
</a>
</g>
</g>
<!-- Node19 -->
<g id="Node000019" class="node">
<title>Node19</title>
<g id="a_Node000019"><a xlink:title=" ">
<polygon fill="#e0e0e0" stroke="#999999" points="721.77,-24.88 672.02,-24.88 672.02,-5.63 721.77,-5.63 721.77,-24.88"/>
<text text-anchor="middle" x="696.89" y="-11.38" font-family="Helvetica,sans-Serif" font-size="10.00">optional</text>
</a>
</g>
</g>
<!-- Node18&#45;&gt;Node19 -->
<g id="edge28_Node000018_Node000019" class="edge">
<title>Node18&#45;&gt;Node19</title>
<g id="a_edge28_Node000018_Node000019"><a xlink:title=" ">
<path fill="none" stroke="#63b8ff" d="M696.89,-66.18C696.89,-58.23 696.89,-46.31 696.89,-36.12"/>
<polygon fill="#63b8ff" stroke="#63b8ff" points="700.39,-36.28 696.89,-26.28 693.39,-36.28 700.39,-36.28"/>
</a>
</g>
</g>
<!-- Node20&#45;&gt;Node4 -->
<g id="edge32_Node000020_Node000004" class="edge">
<title>Node20&#45;&gt;Node4</title>
<g id="a_edge32_Node000020_Node000004"><a xlink:title=" ">
<path fill="none" stroke="#63b8ff" d="M1319.77,-121.28C1361.94,-113.48 1422.26,-101.08 1473.89,-85.75 1528.34,-69.59 1589.67,-44.72 1625.42,-29.53"/>
<polygon fill="#63b8ff" stroke="#63b8ff" points="1626.42,-32.48 1634.23,-25.33 1623.66,-26.05 1626.42,-32.48"/>
</a>
</g>
</g>
<!-- Node20&#45;&gt;Node10 -->
<g id="edge33_Node000020_Node000010" class="edge">
<title>Node20&#45;&gt;Node10</title>
<g id="a_edge33_Node000020_Node000010"><a xlink:title=" ">
<path fill="none" stroke="#63b8ff" d="M1196.56,-129.01C1052.82,-125.66 730.02,-115.02 623.89,-85.75 605.64,-80.72 603.89,-72.38 585.89,-66.5 491.71,-35.75 461.27,-57.35 365.89,-30.5 364.36,-30.07 362.79,-29.59 361.22,-29.07"/>
<polygon fill="#63b8ff" stroke="#63b8ff" points="362.58,-25.48 351.98,-25.33 360.17,-32.05 362.58,-25.48"/>
</a>
</g>
</g>
<!-- Node20&#45;&gt;Node12 -->
<g id="edge35_Node000020_Node000012" class="edge">
<title>Node20&#45;&gt;Node12</title>
<g id="a_edge35_Node000020_Node000012"><a xlink:title=" ">
<path fill="none" stroke="#63b8ff" d="M1263.23,-121.56C1256.79,-107.29 1242,-79.43 1219.89,-66.5 1163.27,-33.37 991.93,-39.13 926.89,-30.5 903.79,-27.43 877.72,-23.71 857.99,-20.84"/>
<polygon fill="#63b8ff" stroke="#63b8ff" points="858.58,-17.24 848.18,-19.26 857.57,-24.17 858.58,-17.24"/>
</a>
</g>
</g>
<!-- Node20&#45;&gt;Node21 -->
<g id="edge34_Node000020_Node000021" class="edge">
<title>Node20&#45;&gt;Node21</title>
<g id="a_edge34_Node000020_Node000021"><a xlink:title=" ">
<path fill="none" stroke="#63b8ff" d="M1252.98,-121.34C1240.62,-113.31 1222.29,-101.41 1207.77,-91.98"/>
<polygon fill="#63b8ff" stroke="#63b8ff" points="1210.17,-88.71 1199.87,-86.2 1206.35,-94.58 1210.17,-88.71"/>
</a>
</g>
</g>
<!-- Node20&#45;&gt;Node22 -->
<g id="edge36_Node000020_Node000022" class="edge">
<title>Node20&#45;&gt;Node22</title>
<g id="a_edge36_Node000020_Node000022"><a xlink:title=" ">
<path fill="none" stroke="#63b8ff" d="M1278.09,-121.34C1287.73,-113.57 1301.85,-102.17 1313.34,-92.9"/>
<polygon fill="#63b8ff" stroke="#63b8ff" points="1315.28,-95.03 1320.86,-86.02 1310.88,-89.58 1315.28,-95.03"/>
</a>
</g>
</g>
<!-- Node22&#45;&gt;Node4 -->
<g id="edge37_Node000022_Node000004" class="edge">
<title>Node22&#45;&gt;Node4</title>
<g id="a_edge37_Node000022_Node000004"><a xlink:title=" ">
<path fill="none" stroke="#63b8ff" d="M1382.66,-66.05C1439.92,-55.62 1533.93,-38.48 1595.38,-27.28"/>
<polygon fill="#63b8ff" stroke="#63b8ff" points="1595.87,-30.57 1605.08,-25.33 1594.61,-23.68 1595.87,-30.57"/>
</a>
</g>
</g>
<!-- Node22&#45;&gt;Node5 -->
<g id="edge38_Node000022_Node000005" class="edge">
<title>Node22&#45;&gt;Node5</title>
<g id="a_edge38_Node000022_Node000005"><a xlink:title=" ">
<path fill="none" stroke="#63b8ff" d="M1317.56,-66.18C1303.96,-58.26 1283.61,-46.4 1266.16,-36.22"/>
<polygon fill="#63b8ff" stroke="#63b8ff" points="1268.23,-32.79 1257.82,-30.78 1264.7,-38.84 1268.23,-32.79"/>
</a>
</g>
</g>
<!-- Node23&#45;&gt;Node4 -->
<g id="edge42_Node000023_Node000004" class="edge">
<title>Node23&#45;&gt;Node4</title>
<g id="a_edge42_Node000023_Node000004"><a xlink:title=" ">
<path fill="none" stroke="#63b8ff" d="M1578.95,-127.83C1644.45,-123.75 1738.99,-113.14 1761.89,-85.75 1783.51,-59.9 1741.35,-40.11 1703.98,-28.38"/>
<polygon fill="#63b8ff" stroke="#63b8ff" points="1705.2,-24.8 1694.62,-25.29 1703.2,-31.5 1705.2,-24.8"/>
</a>
</g>
</g>
<!-- Node23&#45;&gt;Node5 -->
<g id="edge43_Node000023_Node000005" class="edge">
<title>Node23&#45;&gt;Node5</title>
<g id="a_edge43_Node000023_Node000005"><a xlink:title=" ">
<path fill="none" stroke="#63b8ff" d="M1510.87,-121.32C1505.67,-107.23 1493.66,-80.25 1473.89,-66.5 1445.36,-46.64 1356.01,-31.79 1294.25,-23.57"/>
<polygon fill="#63b8ff" stroke="#63b8ff" points="1294.82,-19.98 1284.45,-22.16 1293.91,-26.92 1294.82,-19.98"/>
</a>
</g>
</g>
<!-- Node23&#45;&gt;Node7 -->
<g id="edge41_Node000023_Node000007" class="edge">
<title>Node23&#45;&gt;Node7</title>
<g id="a_edge41_Node000023_Node000007"><a xlink:title=" ">
<path fill="none" stroke="#63b8ff" d="M1448.88,-126.86C1417.73,-125.22 1379.88,-123.3 1345.89,-121.75 944.22,-103.44 843.37,-108.05 441.89,-85.75 417.61,-84.4 390.61,-82.51 368.29,-80.85"/>
<polygon fill="#63b8ff" stroke="#63b8ff" points="368.65,-77.29 358.41,-80.03 368.12,-84.27 368.65,-77.29"/>
</a>
</g>
</g>
<!-- Node24 -->
<g id="Node000024" class="node">
<title>Node24</title>
<g id="a_Node000024"><a xlink:title=" ">
<polygon fill="#e0e0e0" stroke="#999999" points="1752.52,-85.75 1635.27,-85.75 1635.27,-66.5 1752.52,-66.5 1752.52,-85.75"/>
<text text-anchor="middle" x="1693.89" y="-72.25" font-family="Helvetica,sans-Serif" font-size="10.00">boost/preprocessor.hpp</text>
</a>
</g>
</g>
<!-- Node23&#45;&gt;Node24 -->
<g id="edge44_Node000023_Node000024" class="edge">
<title>Node23&#45;&gt;Node24</title>
<g id="a_edge44_Node000023_Node000024"><a xlink:title=" ">
<path fill="none" stroke="#63b8ff" d="M1544.43,-121.34C1574.3,-112.51 1619.98,-98.99 1652.98,-89.23"/>
<polygon fill="#63b8ff" stroke="#63b8ff" points="1653.61,-92.4 1662.21,-86.2 1651.63,-85.68 1653.61,-92.4"/>
</a>
</g>
</g>
<!-- Node25 -->
<g id="Node000025" class="node">
<title>Node25</title>
<g id="a_Node000025"><a xlink:title=" ">
<polygon fill="#e0e0e0" stroke="#999999" points="1617.27,-85.75 1558.52,-85.75 1558.52,-66.5 1617.27,-66.5 1617.27,-85.75"/>
<text text-anchor="middle" x="1587.89" y="-72.25" font-family="Helvetica,sans-Serif" font-size="10.00">stdexcept</text>
</a>
</g>
</g>
<!-- Node23&#45;&gt;Node25 -->
<g id="edge45_Node000023_Node000025" class="edge">
<title>Node23&#45;&gt;Node25</title>
<g id="a_edge45_Node000023_Node000025"><a xlink:title=" ">
<path fill="none" stroke="#63b8ff" d="M1526.45,-121.34C1537.46,-113.41 1553.71,-101.72 1566.74,-92.35"/>
<polygon fill="#63b8ff" stroke="#63b8ff" points="1568.45,-94.71 1574.53,-86.02 1564.37,-89.02 1568.45,-94.71"/>
</a>
</g>
</g>
<!-- Node23&#45;&gt;Node26 -->
<g id="edge46_Node000023_Node000026" class="edge">
<title>Node23&#45;&gt;Node26</title>
<g id="a_edge46_Node000023_Node000026"><a xlink:title=" ">
<path fill="none" stroke="#63b8ff" d="M1501.51,-121.34C1490.64,-113.41 1474.61,-101.72 1461.77,-92.35"/>
<polygon fill="#63b8ff" stroke="#63b8ff" points="1464.24,-89.09 1454.1,-86.02 1460.11,-94.75 1464.24,-89.09"/>
</a>
</g>
</g>
<!-- Node26&#45;&gt;Node4 -->
<g id="edge47_Node000026_Node000004" class="edge">
<title>Node26&#45;&gt;Node4</title>
<g id="a_edge47_Node000026_Node000004"><a xlink:title=" ">
<path fill="none" stroke="#63b8ff" d="M1465.14,-68.49C1500.75,-58.73 1567.77,-40.38 1612.13,-28.24"/>
<polygon fill="#63b8ff" stroke="#63b8ff" points="1612.89,-31.38 1621.61,-25.37 1611.04,-24.63 1612.89,-31.38"/>
</a>
</g>
</g>
<!-- Node26&#45;&gt;Node5 -->
<g id="edge48_Node000026_Node000005" class="edge">
<title>Node26&#45;&gt;Node5</title>
<g id="a_edge48_Node000026_Node000005"><a xlink:title=" ">
<path fill="none" stroke="#63b8ff" d="M1416.92,-68.37C1387.13,-59.98 1335.19,-45.35 1293.91,-33.72"/>
<polygon fill="#63b8ff" stroke="#63b8ff" points="1294.97,-30.1 1284.4,-30.76 1293.07,-36.84 1294.97,-30.1"/>
</a>
</g>
</g>
<!-- Node26&#45;&gt;Node13 -->
<g id="edge49_Node000026_Node000013" class="edge">
<title>Node26&#45;&gt;Node13</title>
<g id="a_edge49_Node000026_Node000013"><a xlink:title=" ">
<path fill="none" stroke="#63b8ff" d="M1416.86,-68.23C1413.86,-67.55 1410.82,-66.95 1407.89,-66.5 1080.22,-16.32 993.75,-51.1 662.89,-30.5 608.71,-27.13 545.77,-22.1 508.47,-19.01"/>
<polygon fill="#63b8ff" stroke="#63b8ff" points="509.02,-15.46 498.76,-18.11 508.44,-22.43 509.02,-15.46"/>
</a>
</g>
</g>
<!-- Node27&#45;&gt;Node4 -->
<g id="edge56_Node000027_Node000004" class="edge">
<title>Node27&#45;&gt;Node4</title>
<g id="a_edge56_Node000027_Node000004"><a xlink:title=" ">
<path fill="none" stroke="#63b8ff" d="M2059.42,-176.53C2077.6,-169.89 2098.12,-158.83 2108.89,-141 2135.13,-97.6 2066.97,-76.71 2043.89,-66.5 1988.8,-42.12 1823.72,-27.4 1727.56,-20.66"/>
<polygon fill="#63b8ff" stroke="#63b8ff" points="1727.98,-17.11 1717.76,-19.91 1727.5,-24.09 1727.98,-17.11"/>
</a>
</g>
</g>
<!-- Node27&#45;&gt;Node5 -->
<g id="edge57_Node000027_Node000005" class="edge">
<title>Node27&#45;&gt;Node5</title>
<g id="a_edge57_Node000027_Node000005"><a xlink:title=" ">
<path fill="none" stroke="#63b8ff" d="M2027.9,-176.69C2037.09,-154.65 2056.79,-97.28 2027.89,-66.5 2015.36,-53.15 1479.95,-27.55 1294.41,-19.06"/>
<polygon fill="#63b8ff" stroke="#63b8ff" points="1294.64,-15.52 1284.49,-18.56 1294.32,-22.51 1294.64,-15.52"/>
</a>
</g>
</g>
<!-- Node28 -->
<g id="Node000028" class="node">
<title>Node28</title>
<g id="a_Node000028"><a xlink:title=" ">
<polygon fill="#e0e0e0" stroke="#999999" points="2100.02,-141 2051.77,-141 2051.77,-121.75 2100.02,-121.75 2100.02,-141"/>
<text text-anchor="middle" x="2075.89" y="-127.5" font-family="Helvetica,sans-Serif" font-size="10.00">string.h</text>
</a>
</g>
</g>
<!-- Node27&#45;&gt;Node28 -->
<g id="edge55_Node000027_Node000028" class="edge">
<title>Node27&#45;&gt;Node28</title>
<g id="a_edge55_Node000027_Node000028"><a xlink:title=" ">
<path fill="none" stroke="#63b8ff" d="M2032.48,-176.83C2039.81,-169.32 2050.57,-158.31 2059.54,-149.13"/>
<polygon fill="#63b8ff" stroke="#63b8ff" points="2061.64,-151.96 2066.12,-142.36 2056.63,-147.07 2061.64,-151.96"/>
</a>
</g>
</g>
<!-- Node29 -->
<g id="Node000029" class="node">
<title>Node29</title>
<g id="a_Node000029"><a xlink:href="_constants_8h.html" target="_top" xlink:title="List of constants.">
<polygon fill="white" stroke="#666666" points="1995.39,-141 1880.39,-141 1880.39,-121.75 1995.39,-121.75 1995.39,-141"/>
<text text-anchor="middle" x="1937.89" y="-127.5" font-family="Helvetica,sans-Serif" font-size="10.00">lupnt/core/Constants.h</text>
</a>
</g>
</g>
<!-- Node27&#45;&gt;Node29 -->
<g id="edge58_Node000027_Node000029" class="edge">
<title>Node27&#45;&gt;Node29</title>
<g id="a_edge58_Node000027_Node000029"><a xlink:title=" ">
<path fill="none" stroke="#63b8ff" d="M2009.31,-176.59C1996.33,-168.56 1977.12,-156.66 1961.88,-147.23"/>
<polygon fill="#63b8ff" stroke="#63b8ff" points="1963.9,-143.74 1953.56,-141.45 1960.21,-149.69 1963.9,-143.74"/>
</a>
</g>
</g>
<!-- Node29&#45;&gt;Node4 -->
<g id="edge60_Node000029_Node000004" class="edge">
<title>Node29&#45;&gt;Node4</title>
<g id="a_edge60_Node000029_Node000004"><a xlink:title=" ">
<path fill="none" stroke="#63b8ff" d="M1970.6,-121.32C2004.24,-110.43 2048.95,-90.59 2027.89,-66.5 2008.47,-44.28 1830.27,-28.34 1727.72,-20.93"/>
<polygon fill="#63b8ff" stroke="#63b8ff" points="1728.05,-17.37 1717.83,-20.15 1727.55,-24.35 1728.05,-17.37"/>
</a>
</g>
</g>
<!-- Node29&#45;&gt;Node12 -->
<g id="edge61_Node000029_Node000012" class="edge">
<title>Node29&#45;&gt;Node12</title>
<g id="a_edge61_Node000029_Node000012"><a xlink:title=" ">
<path fill="none" stroke="#63b8ff" d="M1918.92,-121.3C1887.24,-106.65 1821.2,-78.25 1761.89,-66.5 1397.52,5.7 1296.77,-64.74 926.89,-30.5 903.69,-28.35 877.62,-24.59 857.92,-21.47"/>
<polygon fill="#63b8ff" stroke="#63b8ff" points="858.56,-17.87 848.13,-19.73 857.44,-24.78 858.56,-17.87"/>
</a>
</g>
</g>
<!-- Node29&#45;&gt;Node18 -->
<g id="edge62_Node000029_Node000018" class="edge">
<title>Node29&#45;&gt;Node18</title>
<g id="a_edge62_Node000029_Node000018"><a xlink:title=" ">
<path fill="none" stroke="#63b8ff" d="M1879.91,-128C1720.77,-121.45 1263.79,-102.55 883.89,-85.75 846.83,-84.11 805.64,-82.22 771.38,-80.62"/>
<polygon fill="#63b8ff" stroke="#63b8ff" points="771.66,-77.09 761.51,-80.12 771.33,-84.08 771.66,-77.09"/>
</a>
</g>
</g>
<!-- Node30 -->
<g id="Node000030" class="node">
<title>Node30</title>
<g id="a_Node000030"><a xlink:title=" ">
<polygon fill="#e0e0e0" stroke="#999999" points="2018.77,-85.75 1885.02,-85.75 1885.02,-66.5 2018.77,-66.5 2018.77,-85.75"/>
<text text-anchor="middle" x="1951.89" y="-72.25" font-family="Helvetica,sans-Serif" font-size="10.00">autodiff/common/eigen.hpp</text>
</a>
</g>
</g>
<!-- Node29&#45;&gt;Node30 -->
<g id="edge59_Node000029_Node000030" class="edge">
<title>Node29&#45;&gt;Node30</title>
<g id="a_edge59_Node000029_Node000030"><a xlink:title=" ">
<path fill="none" stroke="#63b8ff" d="M1940.21,-121.58C1941.98,-114.84 1944.49,-105.27 1946.74,-96.74"/>
<polygon fill="#63b8ff" stroke="#63b8ff" points="1950.37,-97.67 1949.53,-87.11 1943.61,-95.89 1950.37,-97.67"/>
</a>
</g>
</g>
</g>
</svg>

<g id="navigator" transform="translate(0 0)" fill="#404254">
  <rect fill="#f2f5e9" fill-opacity="0.5" stroke="#606060" stroke-width=".5" x="0" y="0" width="60" height="60"/>
  <use id="zoomplus" xlink:href="#zoomPlus" x="17" y="9" onmousedown="handleZoom(evt,'in')"/>
  <use id="zoomminus" xlink:href="#zoomMin" x="42" y="9" onmousedown="handleZoom(evt,'out')"/>
  <use id="reset" xlink:href="#resetDef" x="30" y="36" onmousedown="handleReset()"/>
   <use id="arrowup" xlink:href="#arrowUp" x="0" y="0" onmousedown="handlePan(0,-1)"/>
  <use id="arrowright" xlink:href="#arrowRight" x="0" y="0" onmousedown="handlePan(1,0)"/>
  <use id="arrowdown" xlink:href="#arrowDown" x="0" y="0" onmousedown="handlePan(0,1)"/>
  <use id="arrowleft" xlink:href="#arrowLeft" x="0" y="0" onmousedown="handlePan(-1,0)"/>
</g>
<svg viewBox="0 0 15 15" width="100%" height="30px" preserveAspectRatio="xMaxYMin meet">
 <g id="arrow_out" transform="scale(0.3 0.3)">
  <a xlink:href="_example_performance_8cpp__incl_org.svg" target="_base">
   <rect id="button" ry="5" rx="5" y="6" x="6" height="38" width="38"
        fill="#f2f5e9" fill-opacity="0.5" stroke="#606060" stroke-width="1.0"/>
   <path id="arrow"
     d="M 11.500037,31.436501 C 11.940474,20.09759 22.043105,11.32322 32.158766,21.979434 L 37.068811,17.246167 C 37.068811,17.246167 37.088388,32 37.088388,32 L 22.160133,31.978069 C 22.160133,31.978069 26.997745,27.140456 26.997745,27.140456 C 18.528582,18.264221 13.291696,25.230495 11.500037,31.436501 z"
     style="fill:#404040;"/>
  </a>
 </g>
</svg>

<style type='text/css'>
<![CDATA[
[data-mouse-over-selected='false'] { opacity: 0.7; }
[data-mouse-over-selected='true']  { opacity: 1.0; }
]]>
</style>
<script type="application/ecmascript"><![CDATA[
document.addEventListener('DOMContentLoaded', (event) => {
  highlightEdges();
  highlightAdjacentNodes();
});
]]></script>
</svg>
