<?xml version="1.0" encoding="UTF-8" standalone="no"?>
<!DOCTYPE svg PUBLIC "-//W3C//DTD SVG 1.1//EN"
 "http://www.w3.org/Graphics/SVG/1.1/DTD/svg11.dtd">
<!-- Generated by graphviz version 8.1.0 (20230707.0739)
 -->
<!-- Title: ExampleScheduler.cpp Pages: 1 -->
<svg width="526pt" height="193pt"
 viewBox="0.00 0.00 526.12 193.00" xmlns="http://www.w3.org/2000/svg" xmlns:xlink="http://www.w3.org/1999/xlink">
<g id="graph0" class="graph" transform="scale(1 1) rotate(0) translate(4 189)">
<title>ExampleScheduler.cpp</title>
<!-- Node1 -->
<g id="Node000001" class="node">
<title>Node1</title>
<g id="a_Node000001"><a xlink:title="Example of using the Scheduler class.">
<polygon fill="#999999" stroke="#666666" points="305.88,-185 190.12,-185 190.12,-165.75 305.88,-165.75 305.88,-185"/>
<text text-anchor="middle" x="248" y="-171.5" font-family="Helvetica,sans-Serif" font-size="10.00">ExampleScheduler.cpp</text>
</a>
</g>
</g>
<!-- Node2 -->
<g id="Node000002" class="node">
<title>Node2</title>
<g id="a_Node000002"><a xlink:href="_event_8h.html" target="_top" xlink:title="Event class.">
<polygon fill="white" stroke="#666666" points="112.75,-74.5 17.25,-74.5 17.25,-55.25 112.75,-55.25 112.75,-74.5"/>
<text text-anchor="middle" x="65" y="-61" font-family="Helvetica,sans-Serif" font-size="10.00">lupnt/core/Event.h</text>
</a>
</g>
</g>
<!-- Node1&#45;&gt;Node2 -->
<g id="edge1_Node000001_Node000002" class="edge">
<title>Node1&#45;&gt;Node2</title>
<g id="a_edge1_Node000001_Node000002"><a xlink:title=" ">
<path fill="none" stroke="#63b8ff" d="M232.71,-165.31C201.09,-146.56 128.25,-103.37 89.8,-80.58"/>
<polygon fill="#63b8ff" stroke="#63b8ff" points="91.76,-77.08 81.37,-74.99 88.19,-83.1 91.76,-77.08"/>
</a>
</g>
</g>
<!-- Node3 -->
<g id="Node000003" class="node">
<title>Node3</title>
<g id="a_Node000003"><a xlink:title=" ">
<polygon fill="#e0e0e0" stroke="#999999" points="58,-19.25 0,-19.25 0,0 58,0 58,-19.25"/>
<text text-anchor="middle" x="29" y="-5.75" font-family="Helvetica,sans-Serif" font-size="10.00">functional</text>
</a>
</g>
</g>
<!-- Node1&#45;&gt;Node3 -->
<g id="edge14_Node000001_Node000003" class="edge">
<title>Node1&#45;&gt;Node3</title>
<g id="a_edge14_Node000001_Node000003"><a xlink:title=" ">
<path fill="none" stroke="#63b8ff" d="M189.77,-168.25C132.59,-158.79 48.26,-134.85 8,-74.5 -1.38,-60.43 6.58,-41.84 15.25,-28.34"/>
<polygon fill="#63b8ff" stroke="#63b8ff" points="18.55,-30.74 21.46,-20.55 12.84,-26.7 18.55,-30.74"/>
</a>
</g>
</g>
<!-- Node6 -->
<g id="Node000006" class="node">
<title>Node6</title>
<g id="a_Node000006"><a xlink:href="_scheduler_8h.html" target="_top" xlink:title="Event scheduler class.">
<polygon fill="white" stroke="#666666" points="304.38,-129.75 191.62,-129.75 191.62,-110.5 304.38,-110.5 304.38,-129.75"/>
<text text-anchor="middle" x="248" y="-116.25" font-family="Helvetica,sans-Serif" font-size="10.00">lupnt/core/Scheduler.h</text>
</a>
</g>
</g>
<!-- Node1&#45;&gt;Node6 -->
<g id="edge5_Node000001_Node000006" class="edge">
<title>Node1&#45;&gt;Node6</title>
<g id="a_edge5_Node000001_Node000006"><a xlink:title=" ">
<path fill="none" stroke="#63b8ff" d="M248,-165.58C248,-158.92 248,-149.49 248,-141.03"/>
<polygon fill="#63b8ff" stroke="#63b8ff" points="251.5,-141.11 248,-131.11 244.5,-141.11 251.5,-141.11"/>
</a>
</g>
</g>
<!-- Node8 -->
<g id="Node000008" class="node">
<title>Node8</title>
<g id="a_Node000008"><a xlink:title=" ">
<polygon fill="#e0e0e0" stroke="#999999" points="518.12,-74.5 475.88,-74.5 475.88,-55.25 518.12,-55.25 518.12,-74.5"/>
<text text-anchor="middle" x="497" y="-61" font-family="Helvetica,sans-Serif" font-size="10.00">queue</text>
</a>
</g>
</g>
<!-- Node1&#45;&gt;Node8 -->
<g id="edge16_Node000001_Node000008" class="edge">
<title>Node1&#45;&gt;Node8</title>
<g id="a_edge16_Node000001_Node000008"><a xlink:title=" ">
<path fill="none" stroke="#63b8ff" d="M260.1,-165.41C278.78,-151.93 316.13,-126.32 351,-110.5 361.51,-105.73 425.27,-86.81 464.98,-75.19"/>
<polygon fill="#63b8ff" stroke="#63b8ff" points="465.86,-78.28 474.48,-72.12 463.9,-71.56 465.86,-78.28"/>
</a>
</g>
</g>
<!-- Node11 -->
<g id="Node000011" class="node">
<title>Node11</title>
<g id="a_Node000011"><a xlink:title=" ">
<polygon fill="#e0e0e0" stroke="#999999" points="413.75,-129.75 360.25,-129.75 360.25,-110.5 413.75,-110.5 413.75,-129.75"/>
<text text-anchor="middle" x="387" y="-116.25" font-family="Helvetica,sans-Serif" font-size="10.00">iostream</text>
</a>
</g>
</g>
<!-- Node1&#45;&gt;Node11 -->
<g id="edge15_Node000001_Node000011" class="edge">
<title>Node1&#45;&gt;Node11</title>
<g id="a_edge15_Node000001_Node000011"><a xlink:title=" ">
<path fill="none" stroke="#63b8ff" d="M271.58,-165.34C293.94,-156.77 327.79,-143.81 353.06,-134.13"/>
<polygon fill="#63b8ff" stroke="#63b8ff" points="354.22,-137.05 362.3,-130.2 351.71,-130.51 354.22,-137.05"/>
</a>
</g>
</g>
<!-- Node2&#45;&gt;Node3 -->
<g id="edge2_Node000002_Node000003" class="edge">
<title>Node2&#45;&gt;Node3</title>
<g id="a_edge2_Node000002_Node000003"><a xlink:title=" ">
<path fill="none" stroke="#63b8ff" d="M59.06,-55.08C54.19,-47.88 47.14,-37.46 41.09,-28.51"/>
<polygon fill="#63b8ff" stroke="#63b8ff" points="43.57,-26.93 35.07,-20.61 37.78,-30.85 43.57,-26.93"/>
</a>
</g>
</g>
<!-- Node4 -->
<g id="Node000004" class="node">
<title>Node4</title>
<g id="a_Node000004"><a xlink:title=" ">
<polygon fill="#e0e0e0" stroke="#999999" points="119.62,-19.25 80.38,-19.25 80.38,0 119.62,0 119.62,-19.25"/>
<text text-anchor="middle" x="100" y="-5.75" font-family="Helvetica,sans-Serif" font-size="10.00">limits</text>
</a>
</g>
</g>
<!-- Node2&#45;&gt;Node4 -->
<g id="edge3_Node000002_Node000004" class="edge">
<title>Node2&#45;&gt;Node4</title>
<g id="a_edge3_Node000002_Node000004"><a xlink:title=" ">
<path fill="none" stroke="#63b8ff" d="M70.78,-55.08C75.46,-47.96 82.22,-37.68 88.06,-28.8"/>
<polygon fill="#63b8ff" stroke="#63b8ff" points="91.53,-30.89 94.09,-20.61 85.68,-27.04 91.53,-30.89"/>
</a>
</g>
</g>
<!-- Node5 -->
<g id="Node000005" class="node">
<title>Node5</title>
<g id="a_Node000005"><a xlink:title=" ">
<polygon fill="#e0e0e0" stroke="#999999" points="319.62,-19.25 268.38,-19.25 268.38,0 319.62,0 319.62,-19.25"/>
<text text-anchor="middle" x="294" y="-5.75" font-family="Helvetica,sans-Serif" font-size="10.00">memory</text>
</a>
</g>
</g>
<!-- Node2&#45;&gt;Node5 -->
<g id="edge4_Node000002_Node000005" class="edge">
<title>Node2&#45;&gt;Node5</title>
<g id="a_edge4_Node000002_Node000005"><a xlink:title=" ">
<path fill="none" stroke="#63b8ff" d="M104.11,-54.78C147.03,-44.8 215.39,-28.91 257.32,-19.15"/>
<polygon fill="#63b8ff" stroke="#63b8ff" points="257.94,-22.37 266.89,-16.7 256.36,-15.55 257.94,-22.37"/>
</a>
</g>
</g>
<!-- Node6&#45;&gt;Node2 -->
<g id="edge13_Node000006_Node000002" class="edge">
<title>Node6&#45;&gt;Node2</title>
<g id="a_edge13_Node000006_Node000002"><a xlink:title=" ">
<path fill="none" stroke="#63b8ff" d="M216.96,-110.09C186.59,-101.26 140.15,-87.74 106.6,-77.98"/>
<polygon fill="#63b8ff" stroke="#63b8ff" points="107.78,-74.39 97.2,-74.95 105.82,-81.11 107.78,-74.39"/>
</a>
</g>
</g>
<!-- Node6&#45;&gt;Node4 -->
<g id="edge7_Node000006_Node000004" class="edge">
<title>Node6&#45;&gt;Node4</title>
<g id="a_edge7_Node000006_Node000004"><a xlink:title=" ">
<path fill="none" stroke="#63b8ff" d="M240.12,-110.07C228.36,-96.92 205.13,-72.25 182,-55.25 165.67,-43.25 145.73,-32.32 129.6,-24.29"/>
<polygon fill="#63b8ff" stroke="#63b8ff" points="131.64,-20.9 121.11,-19.67 128.58,-27.2 131.64,-20.9"/>
</a>
</g>
</g>
<!-- Node6&#45;&gt;Node5 -->
<g id="edge8_Node000006_Node000005" class="edge">
<title>Node6&#45;&gt;Node5</title>
<g id="a_edge8_Node000006_Node000005"><a xlink:title=" ">
<path fill="none" stroke="#63b8ff" d="M304.62,-112.09C327.95,-106.09 352.8,-94.99 367,-74.5 381.31,-53.85 354.15,-35.57 328.99,-23.92"/>
<polygon fill="#63b8ff" stroke="#63b8ff" points="330.74,-20.43 320.18,-19.64 327.94,-26.85 330.74,-20.43"/>
</a>
</g>
</g>
<!-- Node7 -->
<g id="Node000007" class="node">
<title>Node7</title>
<g id="a_Node000007"><a xlink:title=" ">
<polygon fill="#e0e0e0" stroke="#999999" points="457.5,-74.5 414.5,-74.5 414.5,-55.25 457.5,-55.25 457.5,-74.5"/>
<text text-anchor="middle" x="436" y="-61" font-family="Helvetica,sans-Serif" font-size="10.00">cmath</text>
</a>
</g>
</g>
<!-- Node6&#45;&gt;Node7 -->
<g id="edge6_Node000006_Node000007" class="edge">
<title>Node6&#45;&gt;Node7</title>
<g id="a_edge6_Node000006_Node000007"><a xlink:title=" ">
<path fill="none" stroke="#63b8ff" d="M279.89,-110.09C314.39,-100.32 369.11,-84.82 403.75,-75.01"/>
<polygon fill="#63b8ff" stroke="#63b8ff" points="404.57,-78.13 413.24,-72.04 402.66,-71.4 404.57,-78.13"/>
</a>
</g>
</g>
<!-- Node6&#45;&gt;Node8 -->
<g id="edge9_Node000006_Node000008" class="edge">
<title>Node6&#45;&gt;Node8</title>
<g id="a_edge9_Node000006_Node000008"><a xlink:title=" ">
<path fill="none" stroke="#63b8ff" d="M298.26,-110.05C340.47,-102.17 402.55,-89.97 465,-74.85"/>
<polygon fill="#63b8ff" stroke="#63b8ff" points="465.54,-78.07 474.42,-72.3 463.88,-71.28 465.54,-78.07"/>
</a>
</g>
</g>
<!-- Node9 -->
<g id="Node000009" class="node">
<title>Node9</title>
<g id="a_Node000009"><a xlink:title=" ">
<polygon fill="#e0e0e0" stroke="#999999" points="173.5,-74.5 130.5,-74.5 130.5,-55.25 173.5,-55.25 173.5,-74.5"/>
<text text-anchor="middle" x="152" y="-61" font-family="Helvetica,sans-Serif" font-size="10.00">vector</text>
</a>
</g>
</g>
<!-- Node6&#45;&gt;Node9 -->
<g id="edge10_Node000006_Node000009" class="edge">
<title>Node6&#45;&gt;Node9</title>
<g id="a_edge10_Node000006_Node000009"><a xlink:title=" ">
<path fill="none" stroke="#63b8ff" d="M231.71,-110.09C216.96,-101.91 194.96,-89.71 177.81,-80.19"/>
<polygon fill="#63b8ff" stroke="#63b8ff" points="179.81,-76.74 169.36,-74.95 176.41,-82.86 179.81,-76.74"/>
</a>
</g>
</g>
<!-- Node10 -->
<g id="Node000010" class="node">
<title>Node10</title>
<g id="a_Node000010"><a xlink:href="_application_8h.html" target="_top" xlink:title="Base class for Application.">
<polygon fill="white" stroke="#666666" points="358.25,-74.5 229.75,-74.5 229.75,-55.25 358.25,-55.25 358.25,-74.5"/>
<text text-anchor="middle" x="294" y="-61" font-family="Helvetica,sans-Serif" font-size="10.00">lupnt/agents/Application.h</text>
</a>
</g>
</g>
<!-- Node6&#45;&gt;Node10 -->
<g id="edge11_Node000006_Node000010" class="edge">
<title>Node6&#45;&gt;Node10</title>
<g id="a_edge11_Node000006_Node000010"><a xlink:title=" ">
<path fill="none" stroke="#63b8ff" d="M255.6,-110.33C262.02,-102.9 271.4,-92.04 279.28,-82.91"/>
<polygon fill="#63b8ff" stroke="#63b8ff" points="282.35,-85.71 286.24,-75.86 277.05,-81.14 282.35,-85.71"/>
</a>
</g>
</g>
<!-- Node10&#45;&gt;Node5 -->
<g id="edge12_Node000010_Node000005" class="edge">
<title>Node10&#45;&gt;Node5</title>
<g id="a_edge12_Node000010_Node000005"><a xlink:title=" ">
<path fill="none" stroke="#63b8ff" d="M294,-55.08C294,-48.42 294,-38.99 294,-30.53"/>
<polygon fill="#63b8ff" stroke="#63b8ff" points="297.5,-30.61 294,-20.61 290.5,-30.61 297.5,-30.61"/>
</a>
</g>
</g>
</g>
</svg>
