<?xml version="1.0" encoding="UTF-8" standalone="no"?>
<!DOCTYPE svg PUBLIC "-//W3C//DTD SVG 1.1//EN"
 "http://www.w3.org/Graphics/SVG/1.1/DTD/svg11.dtd">
<!-- Generated by graphviz version 8.1.0 (20230707.0739)
 -->
<!-- Title: ExampleOccultation.cpp Pages: 1 -->
<svg width="611pt" height="271pt"
 viewBox="0.00 0.00 610.50 270.75" xmlns="http://www.w3.org/2000/svg" xmlns:xlink="http://www.w3.org/1999/xlink">
<g id="graph0" class="graph" transform="scale(1 1) rotate(0) translate(4 266.75)">
<title>ExampleOccultation.cpp</title>
<!-- Node1 -->
<g id="Node000001" class="node">
<title>Node1</title>
<g id="a_Node000001"><a xlink:title="Example of occultation computation.">
<polygon fill="#999999" stroke="#666666" points="528.12,-262.75 405.62,-262.75 405.62,-243.5 528.12,-243.5 528.12,-262.75"/>
<text text-anchor="middle" x="466.88" y="-249.25" font-family="Helvetica,sans-Serif" font-size="10.00">ExampleOccultation.cpp</text>
</a>
</g>
</g>
<!-- Node2 -->
<g id="Node000002" class="node">
<title>Node2</title>
<g id="a_Node000002"><a xlink:href="_occultation_8h.html" target="_top" xlink:title="Signal blockage model.">
<polygon fill="white" stroke="#666666" points="368.12,-207.5 263.62,-207.5 263.62,-177 368.12,-177 368.12,-207.5"/>
<text text-anchor="start" x="271.62" y="-194" font-family="Helvetica,sans-Serif" font-size="10.00">lupnt/measurements</text>
<text text-anchor="middle" x="315.88" y="-182.75" font-family="Helvetica,sans-Serif" font-size="10.00">/Occultation.h</text>
</a>
</g>
</g>
<!-- Node1&#45;&gt;Node2 -->
<g id="edge1_Node000001_Node000002" class="edge">
<title>Node1&#45;&gt;Node2</title>
<g id="a_edge1_Node000001_Node000002"><a xlink:title=" ">
<path fill="none" stroke="#63b8ff" d="M443.61,-243.05C422.34,-234.76 390.21,-222.23 363.5,-211.82"/>
<polygon fill="#63b8ff" stroke="#63b8ff" points="365.15,-208.32 354.56,-207.94 362.61,-214.84 365.15,-208.32"/>
</a>
</g>
</g>
<!-- Node14 -->
<g id="Node000014" class="node">
<title>Node14</title>
<g id="a_Node000014"><a xlink:href="_math_utils_8h.html" target="_top" xlink:title=" ">
<polygon fill="white" stroke="#666666" points="533.38,-201.88 400.38,-201.88 400.38,-182.62 533.38,-182.62 533.38,-201.88"/>
<text text-anchor="middle" x="466.88" y="-188.38" font-family="Helvetica,sans-Serif" font-size="10.00">lupnt/numerics/MathUtils.h</text>
</a>
</g>
</g>
<!-- Node1&#45;&gt;Node14 -->
<g id="edge14_Node000001_Node000014" class="edge">
<title>Node1&#45;&gt;Node14</title>
<g id="a_edge14_Node000001_Node000014"><a xlink:title=" ">
<path fill="none" stroke="#63b8ff" d="M466.88,-243.18C466.88,-235.23 466.88,-223.31 466.88,-213.12"/>
<polygon fill="#63b8ff" stroke="#63b8ff" points="470.38,-213.28 466.88,-203.28 463.38,-213.28 470.38,-213.28"/>
</a>
</g>
</g>
<!-- Node16 -->
<g id="Node000016" class="node">
<title>Node16</title>
<g id="a_Node000016"><a xlink:title=" ">
<polygon fill="#e0e0e0" stroke="#999999" points="602.5,-201.88 551.25,-201.88 551.25,-182.62 602.5,-182.62 602.5,-201.88"/>
<text text-anchor="middle" x="576.88" y="-188.38" font-family="Helvetica,sans-Serif" font-size="10.00">memory</text>
</a>
</g>
</g>
<!-- Node1&#45;&gt;Node16 -->
<g id="edge18_Node000001_Node000016" class="edge">
<title>Node1&#45;&gt;Node16</title>
<g id="a_edge18_Node000001_Node000016"><a xlink:title=" ">
<path fill="none" stroke="#63b8ff" d="M483.58,-243.18C501.35,-233.67 529.7,-218.5 550.49,-207.37"/>
<polygon fill="#63b8ff" stroke="#63b8ff" points="551.85,-210.08 559.01,-202.28 548.54,-203.91 551.85,-210.08"/>
</a>
</g>
</g>
<!-- Node3 -->
<g id="Node000003" class="node">
<title>Node3</title>
<g id="a_Node000003"><a xlink:href="_constants_8h.html" target="_top" xlink:title="List of constants.">
<polygon fill="white" stroke="#666666" points="219.38,-135.38 104.38,-135.38 104.38,-116.12 219.38,-116.12 219.38,-135.38"/>
<text text-anchor="middle" x="161.88" y="-121.88" font-family="Helvetica,sans-Serif" font-size="10.00">lupnt/core/Constants.h</text>
</a>
</g>
</g>
<!-- Node2&#45;&gt;Node3 -->
<g id="edge2_Node000002_Node000003" class="edge">
<title>Node2&#45;&gt;Node3</title>
<g id="a_edge2_Node000002_Node000003"><a xlink:title=" ">
<path fill="none" stroke="#63b8ff" d="M280.93,-176.61C254.57,-165.57 218.72,-150.56 193.26,-139.9"/>
<polygon fill="#63b8ff" stroke="#63b8ff" points="194.96,-136.39 184.39,-135.76 192.26,-142.85 194.96,-136.39"/>
</a>
</g>
</g>
<!-- Node11 -->
<g id="Node000011" class="node">
<title>Node11</title>
<g id="a_Node000011"><a xlink:title=" ">
<polygon fill="#e0e0e0" stroke="#999999" points="454,-141 351.75,-141 351.75,-110.5 454,-110.5 454,-141"/>
<text text-anchor="start" x="359.75" y="-127.5" font-family="Helvetica,sans-Serif" font-size="10.00">autodiff/forward/real</text>
<text text-anchor="middle" x="402.88" y="-116.25" font-family="Helvetica,sans-Serif" font-size="10.00">/eigen.hpp</text>
</a>
</g>
</g>
<!-- Node2&#45;&gt;Node11 -->
<g id="edge11_Node000002_Node000011" class="edge">
<title>Node2&#45;&gt;Node11</title>
<g id="a_edge11_Node000002_Node000011"><a xlink:title=" ">
<path fill="none" stroke="#63b8ff" d="M335.62,-176.61C347.07,-168.12 361.7,-157.27 374.39,-147.87"/>
<polygon fill="#63b8ff" stroke="#63b8ff" points="376.26,-150.1 382.21,-141.33 372.09,-144.47 376.26,-150.1"/>
</a>
</g>
</g>
<!-- Node12 -->
<g id="Node000012" class="node">
<title>Node12</title>
<g id="a_Node000012"><a xlink:title=" ">
<polygon fill="#e0e0e0" stroke="#999999" points="280.38,-135.38 237.38,-135.38 237.38,-116.12 280.38,-116.12 280.38,-135.38"/>
<text text-anchor="middle" x="258.88" y="-121.88" font-family="Helvetica,sans-Serif" font-size="10.00">cmath</text>
</a>
</g>
</g>
<!-- Node2&#45;&gt;Node12 -->
<g id="edge12_Node000002_Node000012" class="edge">
<title>Node2&#45;&gt;Node12</title>
<g id="a_edge12_Node000002_Node000012"><a xlink:title=" ">
<path fill="none" stroke="#63b8ff" d="M302.94,-176.61C294.3,-166.84 282.91,-153.95 273.88,-143.73"/>
<polygon fill="#63b8ff" stroke="#63b8ff" points="276.92,-141.75 267.67,-136.57 271.67,-146.38 276.92,-141.75"/>
</a>
</g>
</g>
<!-- Node13 -->
<g id="Node000013" class="node">
<title>Node13</title>
<g id="a_Node000013"><a xlink:title=" ">
<polygon fill="#e0e0e0" stroke="#999999" points="333.25,-135.38 298.5,-135.38 298.5,-116.12 333.25,-116.12 333.25,-135.38"/>
<text text-anchor="middle" x="315.88" y="-121.88" font-family="Helvetica,sans-Serif" font-size="10.00">map</text>
</a>
</g>
</g>
<!-- Node2&#45;&gt;Node13 -->
<g id="edge13_Node000002_Node000013" class="edge">
<title>Node2&#45;&gt;Node13</title>
<g id="a_edge13_Node000002_Node000013"><a xlink:title=" ">
<path fill="none" stroke="#63b8ff" d="M315.88,-176.61C315.88,-167.63 315.88,-156.01 315.88,-146.26"/>
<polygon fill="#63b8ff" stroke="#63b8ff" points="319.38,-146.57 315.88,-136.57 312.38,-146.57 319.38,-146.57"/>
</a>
</g>
</g>
<!-- Node4 -->
<g id="Node000004" class="node">
<title>Node4</title>
<g id="a_Node000004"><a xlink:title=" ">
<polygon fill="#e0e0e0" stroke="#999999" points="133.75,-74.5 0,-74.5 0,-55.25 133.75,-55.25 133.75,-74.5"/>
<text text-anchor="middle" x="66.88" y="-61" font-family="Helvetica,sans-Serif" font-size="10.00">autodiff/common/eigen.hpp</text>
</a>
</g>
</g>
<!-- Node3&#45;&gt;Node4 -->
<g id="edge3_Node000003_Node000004" class="edge">
<title>Node3&#45;&gt;Node4</title>
<g id="a_edge3_Node000003_Node000004"><a xlink:title=" ">
<path fill="none" stroke="#63b8ff" d="M147.45,-115.81C132.38,-106.47 108.5,-91.67 90.65,-80.61"/>
<polygon fill="#63b8ff" stroke="#63b8ff" points="92.78,-77.19 82.44,-74.9 89.1,-83.14 92.78,-77.19"/>
</a>
</g>
</g>
<!-- Node5 -->
<g id="Node000005" class="node">
<title>Node5</title>
<g id="a_Node000005"><a xlink:title=" ">
<polygon fill="#e0e0e0" stroke="#999999" points="476.38,-74.5 355.38,-74.5 355.38,-55.25 476.38,-55.25 476.38,-74.5"/>
<text text-anchor="middle" x="415.88" y="-61" font-family="Helvetica,sans-Serif" font-size="10.00">autodiff/forward/real.hpp</text>
</a>
</g>
</g>
<!-- Node3&#45;&gt;Node5 -->
<g id="edge4_Node000003_Node000005" class="edge">
<title>Node3&#45;&gt;Node5</title>
<g id="a_edge4_Node000003_Node000005"><a xlink:title=" ">
<path fill="none" stroke="#63b8ff" d="M201.01,-115.68C245.38,-105.39 317.83,-88.6 366.17,-77.4"/>
<polygon fill="#63b8ff" stroke="#63b8ff" points="366.75,-80.62 375.7,-74.96 365.17,-73.8 366.75,-80.62"/>
</a>
</g>
</g>
<!-- Node6 -->
<g id="Node000006" class="node">
<title>Node6</title>
<g id="a_Node000006"><a xlink:title=" ">
<polygon fill="#e0e0e0" stroke="#999999" points="181.88,-19.25 141.88,-19.25 141.88,0 181.88,0 181.88,-19.25"/>
<text text-anchor="middle" x="161.88" y="-5.75" font-family="Helvetica,sans-Serif" font-size="10.00">string</text>
</a>
</g>
</g>
<!-- Node3&#45;&gt;Node6 -->
<g id="edge5_Node000003_Node000006" class="edge">
<title>Node3&#45;&gt;Node6</title>
<g id="a_edge5_Node000003_Node000006"><a xlink:title=" ">
<path fill="none" stroke="#63b8ff" d="M161.88,-115.79C161.88,-97.46 161.88,-55.28 161.88,-30.26"/>
<polygon fill="#63b8ff" stroke="#63b8ff" points="165.38,-30.54 161.88,-20.54 158.38,-30.54 165.38,-30.54"/>
</a>
</g>
</g>
<!-- Node7 -->
<g id="Node000007" class="node">
<title>Node7</title>
<g id="a_Node000007"><a xlink:href="_user_file_path_8h.html" target="_top" xlink:title="File access utils.">
<polygon fill="white" stroke="#666666" points="271.5,-74.5 190.25,-74.5 190.25,-55.25 271.5,-55.25 271.5,-74.5"/>
<text text-anchor="middle" x="230.88" y="-61" font-family="Helvetica,sans-Serif" font-size="10.00">UserFilePath.h</text>
</a>
</g>
</g>
<!-- Node3&#45;&gt;Node7 -->
<g id="edge6_Node000003_Node000007" class="edge">
<title>Node3&#45;&gt;Node7</title>
<g id="a_edge6_Node000003_Node000007"><a xlink:title=" ">
<path fill="none" stroke="#63b8ff" d="M172.35,-115.81C182.89,-106.82 199.36,-92.76 212.15,-81.85"/>
<polygon fill="#63b8ff" stroke="#63b8ff" points="213.96,-84.05 219.3,-74.9 209.42,-78.73 213.96,-84.05"/>
</a>
</g>
</g>
<!-- Node7&#45;&gt;Node6 -->
<g id="edge10_Node000007_Node000006" class="edge">
<title>Node7&#45;&gt;Node6</title>
<g id="a_edge10_Node000007_Node000006"><a xlink:title=" ">
<path fill="none" stroke="#63b8ff" d="M219.17,-54.84C209,-46.99 194.04,-35.45 181.96,-26.12"/>
<polygon fill="#63b8ff" stroke="#63b8ff" points="184.46,-22.86 174.41,-19.52 180.19,-28.41 184.46,-22.86"/>
</a>
</g>
</g>
<!-- Node8 -->
<g id="Node000008" class="node">
<title>Node8</title>
<g id="a_Node000008"><a xlink:title=" ">
<polygon fill="#e0e0e0" stroke="#999999" points="261.38,-19.25 200.38,-19.25 200.38,0 261.38,0 261.38,-19.25"/>
<text text-anchor="middle" x="230.88" y="-5.75" font-family="Helvetica,sans-Serif" font-size="10.00">filesystem</text>
</a>
</g>
</g>
<!-- Node7&#45;&gt;Node8 -->
<g id="edge7_Node000007_Node000008" class="edge">
<title>Node7&#45;&gt;Node8</title>
<g id="a_edge7_Node000007_Node000008"><a xlink:title=" ">
<path fill="none" stroke="#63b8ff" d="M230.88,-55.08C230.88,-48.42 230.88,-38.99 230.88,-30.53"/>
<polygon fill="#63b8ff" stroke="#63b8ff" points="234.38,-30.61 230.88,-20.61 227.38,-30.61 234.38,-30.61"/>
</a>
</g>
</g>
<!-- Node9 -->
<g id="Node000009" class="node">
<title>Node9</title>
<g id="a_Node000009"><a xlink:title=" ">
<polygon fill="#e0e0e0" stroke="#999999" points="332.62,-19.25 279.12,-19.25 279.12,0 332.62,0 332.62,-19.25"/>
<text text-anchor="middle" x="305.88" y="-5.75" font-family="Helvetica,sans-Serif" font-size="10.00">iostream</text>
</a>
</g>
</g>
<!-- Node7&#45;&gt;Node9 -->
<g id="edge8_Node000007_Node000009" class="edge">
<title>Node7&#45;&gt;Node9</title>
<g id="a_edge8_Node000007_Node000009"><a xlink:title=" ">
<path fill="none" stroke="#63b8ff" d="M243.6,-54.84C254.7,-46.96 271.03,-35.36 284.19,-26.02"/>
<polygon fill="#63b8ff" stroke="#63b8ff" points="285.96,-28.35 292.09,-19.7 281.91,-22.64 285.96,-28.35"/>
</a>
</g>
</g>
<!-- Node10 -->
<g id="Node000010" class="node">
<title>Node10</title>
<g id="a_Node000010"><a xlink:title=" ">
<polygon fill="#e0e0e0" stroke="#999999" points="400.75,-19.25 351,-19.25 351,0 400.75,0 400.75,-19.25"/>
<text text-anchor="middle" x="375.88" y="-5.75" font-family="Helvetica,sans-Serif" font-size="10.00">optional</text>
</a>
</g>
</g>
<!-- Node7&#45;&gt;Node10 -->
<g id="edge9_Node000007_Node000010" class="edge">
<title>Node7&#45;&gt;Node10</title>
<g id="a_edge9_Node000007_Node000010"><a xlink:title=" ">
<path fill="none" stroke="#63b8ff" d="M255.47,-54.84C279.01,-46.2 314.74,-33.07 341.17,-23.37"/>
<polygon fill="#63b8ff" stroke="#63b8ff" points="341.98,-26.44 350.16,-19.7 339.56,-19.86 341.98,-26.44"/>
</a>
</g>
</g>
<!-- Node14&#45;&gt;Node5 -->
<g id="edge15_Node000014_Node000005" class="edge">
<title>Node14&#45;&gt;Node5</title>
<g id="a_edge15_Node000014_Node000005"><a xlink:title=" ">
<path fill="none" stroke="#63b8ff" d="M468.51,-182.26C470.88,-166.79 473.89,-134.48 462.88,-110.5 457.61,-99.03 447.94,-89.05 438.73,-81.45"/>
<polygon fill="#63b8ff" stroke="#63b8ff" points="441.27,-78.22 431.2,-74.92 437.02,-83.78 441.27,-78.22"/>
</a>
</g>
</g>
<!-- Node14&#45;&gt;Node11 -->
<g id="edge16_Node000014_Node000011" class="edge">
<title>Node14&#45;&gt;Node11</title>
<g id="a_edge16_Node000014_Node000011"><a xlink:title=" ">
<path fill="none" stroke="#63b8ff" d="M457.98,-182.28C449.38,-173.62 436.02,-160.16 424.61,-148.66"/>
<polygon fill="#63b8ff" stroke="#63b8ff" points="427.64,-146.73 418.11,-142.09 422.67,-151.66 427.64,-146.73"/>
</a>
</g>
</g>
<!-- Node15 -->
<g id="Node000015" class="node">
<title>Node15</title>
<g id="a_Node000015"><a xlink:title=" ">
<polygon fill="#e0e0e0" stroke="#999999" points="558,-135.38 509.75,-135.38 509.75,-116.12 558,-116.12 558,-135.38"/>
<text text-anchor="middle" x="533.88" y="-121.88" font-family="Helvetica,sans-Serif" font-size="10.00">random</text>
</a>
</g>
</g>
<!-- Node14&#45;&gt;Node15 -->
<g id="edge17_Node000014_Node000015" class="edge">
<title>Node14&#45;&gt;Node15</title>
<g id="a_edge17_Node000014_Node000015"><a xlink:title=" ">
<path fill="none" stroke="#63b8ff" d="M476.19,-182.28C486.69,-172.17 503.98,-155.53 516.9,-143.1"/>
<polygon fill="#63b8ff" stroke="#63b8ff" points="518.86,-146.1 523.64,-136.64 514.01,-141.06 518.86,-146.1"/>
</a>
</g>
</g>
</g>
</svg>
