<?xml version="1.0" encoding="UTF-8" standalone="no"?>
<!DOCTYPE svg PUBLIC "-//W3C//DTD SVG 1.1//EN"
 "http://www.w3.org/Graphics/SVG/1.1/DTD/svg11.dtd">
<!-- Generated by graphviz version 8.1.0 (20230707.0739)
 -->
<!-- Title: Filters.h Pages: 1 -->
<svg width="635pt" height="138pt"
 viewBox="0.00 0.00 634.50 137.75" xmlns="http://www.w3.org/2000/svg" xmlns:xlink="http://www.w3.org/1999/xlink">
<g id="graph0" class="graph" transform="scale(1 1) rotate(0) translate(4 133.75)">
<title>Filters.h</title>
<!-- Node1 -->
<g id="Node000001" class="node">
<title>Node1</title>
<g id="a_Node000001"><a xlink:title="List of Filters.">
<polygon fill="#999999" stroke="#666666" points="318.25,-129.75 267,-129.75 267,-110.5 318.25,-110.5 318.25,-129.75"/>
<text text-anchor="middle" x="292.62" y="-116.25" font-family="Helvetica,sans-Serif" font-size="10.00">Filters.h</text>
</a>
</g>
</g>
<!-- Node2 -->
<g id="Node000002" class="node">
<title>Node2</title>
<g id="a_Node000002"><a xlink:href="_example_constellations_8cpp.html" target="_top" xlink:title="Setup GNSS Constellation.">
<polygon fill="white" stroke="#666666" points="135.25,-74.5 0,-74.5 0,-55.25 135.25,-55.25 135.25,-74.5"/>
<text text-anchor="middle" x="67.62" y="-61" font-family="Helvetica,sans-Serif" font-size="10.00">ExampleConstellations.cpp</text>
</a>
</g>
</g>
<!-- Node1&#45;&gt;Node2 -->
<g id="edge1_Node000001_Node000002" class="edge">
<title>Node1&#45;&gt;Node2</title>
<g id="a_edge1_Node000001_Node000002"><a xlink:title=" ">
<path fill="none" stroke="#63b8ff" d="M256.14,-110.49C214.85,-100.72 147.87,-84.87 105.86,-74.93"/>
<polygon fill="#63b8ff" stroke="#63b8ff" points="255.28,-114.12 265.81,-113.02 256.89,-107.31 255.28,-114.12"/>
</a>
</g>
</g>
<!-- Node3 -->
<g id="Node000003" class="node">
<title>Node3</title>
<g id="a_Node000003"><a xlink:href="_example_e_k_f_8cpp.html" target="_top" xlink:title="Example of Extended Kalman Filter for orbit determination.">
<polygon fill="white" stroke="#666666" points="244.12,-74.5 153.12,-74.5 153.12,-55.25 244.12,-55.25 244.12,-74.5"/>
<text text-anchor="middle" x="198.62" y="-61" font-family="Helvetica,sans-Serif" font-size="10.00">ExampleEKF.cpp</text>
</a>
</g>
</g>
<!-- Node1&#45;&gt;Node3 -->
<g id="edge2_Node000001_Node000003" class="edge">
<title>Node1&#45;&gt;Node3</title>
<g id="a_edge2_Node000001_Node000003"><a xlink:title=" ">
<path fill="none" stroke="#63b8ff" d="M267.44,-104.86C250.67,-95.36 229.12,-83.15 214.65,-74.95"/>
<polygon fill="#63b8ff" stroke="#63b8ff" points="265.25,-108.21 275.68,-110.09 268.7,-102.12 265.25,-108.21"/>
</a>
</g>
</g>
<!-- Node4 -->
<g id="Node000004" class="node">
<title>Node4</title>
<g id="a_Node000004"><a xlink:href="_filters_8cpp.html" target="_top" xlink:title="Implementation of Filters.">
<polygon fill="white" stroke="#666666" points="323.5,-74.5 261.75,-74.5 261.75,-55.25 323.5,-55.25 323.5,-74.5"/>
<text text-anchor="middle" x="292.62" y="-61" font-family="Helvetica,sans-Serif" font-size="10.00">Filters.cpp</text>
</a>
</g>
</g>
<!-- Node1&#45;&gt;Node4 -->
<g id="edge3_Node000001_Node000004" class="edge">
<title>Node1&#45;&gt;Node4</title>
<g id="a_edge3_Node000001_Node000004"><a xlink:title=" ">
<path fill="none" stroke="#63b8ff" d="M292.62,-99.46C292.62,-91.02 292.62,-81.58 292.62,-74.86"/>
<polygon fill="#63b8ff" stroke="#63b8ff" points="289.13,-99.33 292.62,-109.33 296.13,-99.33 289.13,-99.33"/>
</a>
</g>
</g>
<!-- Node5 -->
<g id="Node000005" class="node">
<title>Node5</title>
<g id="a_Node000005"><a xlink:href="_g_n_s_s_state_estimation_app_8h.html" target="_top" xlink:title="State Estimation Application Using GNSS Measurement.">
<polygon fill="white" stroke="#666666" points="481.5,-74.5 341.75,-74.5 341.75,-55.25 481.5,-55.25 481.5,-74.5"/>
<text text-anchor="middle" x="411.62" y="-61" font-family="Helvetica,sans-Serif" font-size="10.00">GNSSStateEstimationApp.h</text>
</a>
</g>
</g>
<!-- Node1&#45;&gt;Node5 -->
<g id="edge4_Node000001_Node000005" class="edge">
<title>Node1&#45;&gt;Node5</title>
<g id="a_edge4_Node000001_Node000005"><a xlink:title=" ">
<path fill="none" stroke="#63b8ff" d="M322.73,-105.65C344.21,-96.04 372.5,-83.38 391.34,-74.95"/>
<polygon fill="#63b8ff" stroke="#63b8ff" points="321.51,-102.81 313.81,-110.09 324.37,-109.2 321.51,-102.81"/>
</a>
</g>
</g>
<!-- Node8 -->
<g id="Node000008" class="node">
<title>Node8</title>
<g id="a_Node000008"><a xlink:href="_state_estimation_app_8h.html" target="_top" xlink:title="Base class for State Estimation Application.">
<polygon fill="white" stroke="#666666" points="616.25,-74.5 505,-74.5 505,-55.25 616.25,-55.25 616.25,-74.5"/>
<text text-anchor="middle" x="560.62" y="-61" font-family="Helvetica,sans-Serif" font-size="10.00">StateEstimationApp.h</text>
</a>
</g>
</g>
<!-- Node1&#45;&gt;Node8 -->
<g id="edge7_Node000001_Node000008" class="edge">
<title>Node1&#45;&gt;Node8</title>
<g id="a_edge7_Node000001_Node000008"><a xlink:title=" ">
<path fill="none" stroke="#63b8ff" d="M328.89,-111.92C377.14,-102.33 462.46,-85.38 515.02,-74.94"/>
<polygon fill="#63b8ff" stroke="#63b8ff" points="328.45,-108.64 319.32,-114.02 329.81,-115.5 328.45,-108.64"/>
</a>
</g>
</g>
<!-- Node6 -->
<g id="Node000006" class="node">
<title>Node6</title>
<g id="a_Node000006"><a xlink:href="_example_e_k_f_app_8cpp.html" target="_top" xlink:title="Example of EKF application.">
<polygon fill="white" stroke="#666666" points="318.5,-19.25 208.75,-19.25 208.75,0 318.5,0 318.5,-19.25"/>
<text text-anchor="middle" x="263.62" y="-5.75" font-family="Helvetica,sans-Serif" font-size="10.00">ExampleEKFApp.cpp</text>
</a>
</g>
</g>
<!-- Node5&#45;&gt;Node6 -->
<g id="edge5_Node000005_Node000006" class="edge">
<title>Node5&#45;&gt;Node6</title>
<g id="a_edge5_Node000005_Node000006"><a xlink:title=" ">
<path fill="none" stroke="#63b8ff" d="M376.34,-51.18C349.4,-41.49 312.92,-28.36 288.85,-19.7"/>
<polygon fill="#63b8ff" stroke="#63b8ff" points="374.92,-54.75 385.52,-54.84 377.29,-48.16 374.92,-54.75"/>
</a>
</g>
</g>
<!-- Node7 -->
<g id="Node000007" class="node">
<title>Node7</title>
<g id="a_Node000007"><a xlink:href="_g_n_s_s_state_estimation_app_8cpp.html" target="_top" xlink:title="State Estimation Application Using GNSS Measurement.">
<polygon fill="white" stroke="#666666" points="486.75,-19.25 336.5,-19.25 336.5,0 486.75,0 486.75,-19.25"/>
<text text-anchor="middle" x="411.62" y="-5.75" font-family="Helvetica,sans-Serif" font-size="10.00">GNSSStateEstimationApp.cpp</text>
</a>
</g>
</g>
<!-- Node5&#45;&gt;Node7 -->
<g id="edge6_Node000005_Node000007" class="edge">
<title>Node5&#45;&gt;Node7</title>
<g id="a_edge6_Node000005_Node000007"><a xlink:title=" ">
<path fill="none" stroke="#63b8ff" d="M411.62,-44.21C411.62,-35.77 411.62,-26.33 411.62,-19.61"/>
<polygon fill="#63b8ff" stroke="#63b8ff" points="408.13,-44.08 411.62,-54.08 415.13,-44.08 408.13,-44.08"/>
</a>
</g>
</g>
<!-- Node9 -->
<g id="Node000009" class="node">
<title>Node9</title>
<g id="a_Node000009"><a xlink:href="_state_estimation_app_8cpp.html" target="_top" xlink:title="Base class for State Estimation Application.">
<polygon fill="white" stroke="#666666" points="626.5,-19.25 504.75,-19.25 504.75,0 626.5,0 626.5,-19.25"/>
<text text-anchor="middle" x="565.62" y="-5.75" font-family="Helvetica,sans-Serif" font-size="10.00">StateEstimationApp.cpp</text>
</a>
</g>
</g>
<!-- Node8&#45;&gt;Node9 -->
<g id="edge8_Node000008_Node000009" class="edge">
<title>Node8&#45;&gt;Node9</title>
<g id="a_edge8_Node000008_Node000009"><a xlink:title=" ">
<path fill="none" stroke="#63b8ff" d="M562.47,-44.21C563.26,-35.77 564.15,-26.33 564.78,-19.61"/>
<polygon fill="#63b8ff" stroke="#63b8ff" points="558.9,-43.8 561.45,-54.08 565.87,-44.45 558.9,-43.8"/>
</a>
</g>
</g>
</g>
</svg>
