<?xml version="1.0" encoding="UTF-8" standalone="no"?>
<!DOCTYPE svg PUBLIC "-//W3C//DTD SVG 1.1//EN"
 "http://www.w3.org/Graphics/SVG/1.1/DTD/svg11.dtd">
<!-- Generated by graphviz version 8.1.0 (20230707.0739)
 -->
<!-- Title: File.h Pages: 1 -->
<svg width="755pt" height="149pt"
 viewBox="0.00 0.00 755.00 149.00" xmlns="http://www.w3.org/2000/svg" xmlns:xlink="http://www.w3.org/1999/xlink">
<g id="graph0" class="graph" transform="scale(1 1) rotate(0) translate(4 145)">
<title>File.h</title>
<!-- Node1 -->
<g id="Node000001" class="node">
<title>Node1</title>
<g id="a_Node000001"><a xlink:title="File access utils.">
<polygon fill="#999999" stroke="#666666" points="499.5,-141 459.5,-141 459.5,-121.75 499.5,-121.75 499.5,-141"/>
<text text-anchor="middle" x="479.5" y="-127.5" font-family="Helvetica,sans-Serif" font-size="10.00">File.h</text>
</a>
</g>
</g>
<!-- Node2 -->
<g id="Node000002" class="node">
<title>Node2</title>
<g id="a_Node000002"><a xlink:href="_math_utils_8h.html" target="_top" xlink:title=" ">
<polygon fill="white" stroke="#666666" points="229,-85.75 96,-85.75 96,-66.5 229,-66.5 229,-85.75"/>
<text text-anchor="middle" x="162.5" y="-72.25" font-family="Helvetica,sans-Serif" font-size="10.00">lupnt/numerics/MathUtils.h</text>
</a>
</g>
</g>
<!-- Node1&#45;&gt;Node2 -->
<g id="edge1_Node000001_Node000002" class="edge">
<title>Node1&#45;&gt;Node2</title>
<g id="a_edge1_Node000001_Node000002"><a xlink:title=" ">
<path fill="none" stroke="#63b8ff" d="M459.19,-126.96C413.31,-119.26 300.01,-100.22 227.45,-88.04"/>
<polygon fill="#63b8ff" stroke="#63b8ff" points="228.05,-84.42 217.61,-86.21 226.89,-91.32 228.05,-84.42"/>
</a>
</g>
</g>
<!-- Node4 -->
<g id="Node000004" class="node">
<title>Node4</title>
<g id="a_Node000004"><a xlink:title=" ">
<polygon fill="#e0e0e0" stroke="#999999" points="308.62,-30.5 206.38,-30.5 206.38,0 308.62,0 308.62,-30.5"/>
<text text-anchor="start" x="214.38" y="-17" font-family="Helvetica,sans-Serif" font-size="10.00">autodiff/forward/real</text>
<text text-anchor="middle" x="257.5" y="-5.75" font-family="Helvetica,sans-Serif" font-size="10.00">/eigen.hpp</text>
</a>
</g>
</g>
<!-- Node1&#45;&gt;Node4 -->
<g id="edge6_Node000001_Node000004" class="edge">
<title>Node1&#45;&gt;Node4</title>
<g id="a_edge6_Node000001_Node000004"><a xlink:title=" ">
<path fill="none" stroke="#63b8ff" d="M459.06,-128.54C412.94,-124 302.78,-110.74 276.5,-85.75 264.58,-74.42 259.89,-56.39 258.15,-41.54"/>
<polygon fill="#63b8ff" stroke="#63b8ff" points="261.59,-41.66 257.33,-31.96 254.62,-42.2 261.59,-41.66"/>
</a>
</g>
</g>
<!-- Node6 -->
<g id="Node000006" class="node">
<title>Node6</title>
<g id="a_Node000006"><a xlink:title=" ">
<polygon fill="#e0e0e0" stroke="#999999" points="357.62,-85.75 285.38,-85.75 285.38,-66.5 357.62,-66.5 357.62,-85.75"/>
<text text-anchor="middle" x="321.5" y="-72.25" font-family="Helvetica,sans-Serif" font-size="10.00">Eigen/Dense</text>
</a>
</g>
</g>
<!-- Node1&#45;&gt;Node6 -->
<g id="edge5_Node000001_Node000006" class="edge">
<title>Node1&#45;&gt;Node6</title>
<g id="a_edge5_Node000001_Node000006"><a xlink:title=" ">
<path fill="none" stroke="#63b8ff" d="M459.17,-123.52C433.78,-114.97 389.88,-100.17 358.48,-89.59"/>
<polygon fill="#63b8ff" stroke="#63b8ff" points="359.95,-86.05 349.35,-86.18 357.71,-92.69 359.95,-86.05"/>
</a>
</g>
</g>
<!-- Node7 -->
<g id="Node000007" class="node">
<title>Node7</title>
<g id="a_Node000007"><a xlink:title=" ">
<polygon fill="#e0e0e0" stroke="#999999" points="437,-85.75 376,-85.75 376,-66.5 437,-66.5 437,-85.75"/>
<text text-anchor="middle" x="406.5" y="-72.25" font-family="Helvetica,sans-Serif" font-size="10.00">filesystem</text>
</a>
</g>
</g>
<!-- Node1&#45;&gt;Node7 -->
<g id="edge7_Node000001_Node000007" class="edge">
<title>Node1&#45;&gt;Node7</title>
<g id="a_edge7_Node000001_Node000007"><a xlink:title=" ">
<path fill="none" stroke="#63b8ff" d="M467.12,-121.34C456.25,-113.41 440.22,-101.72 427.37,-92.35"/>
<polygon fill="#63b8ff" stroke="#63b8ff" points="429.84,-89.09 419.7,-86.02 425.72,-94.75 429.84,-89.09"/>
</a>
</g>
</g>
<!-- Node8 -->
<g id="Node000008" class="node">
<title>Node8</title>
<g id="a_Node000008"><a xlink:title=" ">
<polygon fill="#e0e0e0" stroke="#999999" points="504,-85.75 455,-85.75 455,-66.5 504,-66.5 504,-85.75"/>
<text text-anchor="middle" x="479.5" y="-72.25" font-family="Helvetica,sans-Serif" font-size="10.00">fstream</text>
</a>
</g>
</g>
<!-- Node1&#45;&gt;Node8 -->
<g id="edge8_Node000001_Node000008" class="edge">
<title>Node1&#45;&gt;Node8</title>
<g id="a_edge8_Node000001_Node000008"><a xlink:title=" ">
<path fill="none" stroke="#63b8ff" d="M479.5,-121.58C479.5,-114.92 479.5,-105.49 479.5,-97.03"/>
<polygon fill="#63b8ff" stroke="#63b8ff" points="483,-97.11 479.5,-87.11 476,-97.11 483,-97.11"/>
</a>
</g>
</g>
<!-- Node9 -->
<g id="Node000009" class="node">
<title>Node9</title>
<g id="a_Node000009"><a xlink:title=" ">
<polygon fill="#e0e0e0" stroke="#999999" points="575.25,-85.75 521.75,-85.75 521.75,-66.5 575.25,-66.5 575.25,-85.75"/>
<text text-anchor="middle" x="548.5" y="-72.25" font-family="Helvetica,sans-Serif" font-size="10.00">iostream</text>
</a>
</g>
</g>
<!-- Node1&#45;&gt;Node9 -->
<g id="edge9_Node000001_Node000009" class="edge">
<title>Node1&#45;&gt;Node9</title>
<g id="a_edge9_Node000001_Node000009"><a xlink:title=" ">
<path fill="none" stroke="#63b8ff" d="M491.2,-121.34C501.38,-113.49 516.33,-101.95 528.42,-92.62"/>
<polygon fill="#63b8ff" stroke="#63b8ff" points="530.19,-94.91 535.97,-86.02 525.91,-89.36 530.19,-94.91"/>
</a>
</g>
</g>
<!-- Node10 -->
<g id="Node000010" class="node">
<title>Node10</title>
<g id="a_Node000010"><a xlink:title=" ">
<polygon fill="#e0e0e0" stroke="#999999" points="627.88,-85.75 593.12,-85.75 593.12,-66.5 627.88,-66.5 627.88,-85.75"/>
<text text-anchor="middle" x="610.5" y="-72.25" font-family="Helvetica,sans-Serif" font-size="10.00">map</text>
</a>
</g>
</g>
<!-- Node1&#45;&gt;Node10 -->
<g id="edge10_Node000001_Node000010" class="edge">
<title>Node1&#45;&gt;Node10</title>
<g id="a_edge10_Node000001_Node000010"><a xlink:title=" ">
<path fill="none" stroke="#63b8ff" d="M499.97,-122.05C522.26,-112.99 558.03,-98.45 582.82,-88.38"/>
<polygon fill="#63b8ff" stroke="#63b8ff" points="583.75,-91.37 591.7,-84.36 581.11,-84.89 583.75,-91.37"/>
</a>
</g>
</g>
<!-- Node11 -->
<g id="Node000011" class="node">
<title>Node11</title>
<g id="a_Node000011"><a xlink:title=" ">
<polygon fill="#e0e0e0" stroke="#999999" points="685.5,-85.75 645.5,-85.75 645.5,-66.5 685.5,-66.5 685.5,-85.75"/>
<text text-anchor="middle" x="665.5" y="-72.25" font-family="Helvetica,sans-Serif" font-size="10.00">string</text>
</a>
</g>
</g>
<!-- Node1&#45;&gt;Node11 -->
<g id="edge11_Node000001_Node000011" class="edge">
<title>Node1&#45;&gt;Node11</title>
<g id="a_edge11_Node000001_Node000011"><a xlink:title=" ">
<path fill="none" stroke="#63b8ff" d="M499.85,-124.68C527.99,-116.78 580.64,-101.94 634.75,-86.23"/>
<polygon fill="#63b8ff" stroke="#63b8ff" points="635.6,-89.34 644.23,-83.19 633.65,-82.62 635.6,-89.34"/>
</a>
</g>
</g>
<!-- Node12 -->
<g id="Node000012" class="node">
<title>Node12</title>
<g id="a_Node000012"><a xlink:title=" ">
<polygon fill="#e0e0e0" stroke="#999999" points="747,-85.75 704,-85.75 704,-66.5 747,-66.5 747,-85.75"/>
<text text-anchor="middle" x="725.5" y="-72.25" font-family="Helvetica,sans-Serif" font-size="10.00">vector</text>
</a>
</g>
</g>
<!-- Node1&#45;&gt;Node12 -->
<g id="edge12_Node000001_Node000012" class="edge">
<title>Node1&#45;&gt;Node12</title>
<g id="a_edge12_Node000001_Node000012"><a xlink:title=" ">
<path fill="none" stroke="#63b8ff" d="M499.76,-126.64C536.35,-119.79 616.12,-104.41 693.17,-85.94"/>
<polygon fill="#63b8ff" stroke="#63b8ff" points="693.64,-89.19 702.53,-83.43 691.99,-82.38 693.64,-89.19"/>
</a>
</g>
</g>
<!-- Node3 -->
<g id="Node000003" class="node">
<title>Node3</title>
<g id="a_Node000003"><a xlink:title=" ">
<polygon fill="#e0e0e0" stroke="#999999" points="121,-24.88 0,-24.88 0,-5.63 121,-5.63 121,-24.88"/>
<text text-anchor="middle" x="60.5" y="-11.38" font-family="Helvetica,sans-Serif" font-size="10.00">autodiff/forward/real.hpp</text>
</a>
</g>
</g>
<!-- Node2&#45;&gt;Node3 -->
<g id="edge2_Node000002_Node000003" class="edge">
<title>Node2&#45;&gt;Node3</title>
<g id="a_edge2_Node000002_Node000003"><a xlink:title=" ">
<path fill="none" stroke="#63b8ff" d="M147.01,-66.18C130.68,-56.76 104.72,-41.77 85.49,-30.68"/>
<polygon fill="#63b8ff" stroke="#63b8ff" points="87.55,-27.24 77.14,-25.28 84.05,-33.31 87.55,-27.24"/>
</a>
</g>
</g>
<!-- Node2&#45;&gt;Node4 -->
<g id="edge3_Node000002_Node000004" class="edge">
<title>Node2&#45;&gt;Node4</title>
<g id="a_edge3_Node000002_Node000004"><a xlink:title=" ">
<path fill="none" stroke="#63b8ff" d="M176.93,-66.18C189.6,-58.33 208.5,-46.62 224.81,-36.51"/>
<polygon fill="#63b8ff" stroke="#63b8ff" points="226.39,-39.02 233.05,-30.78 222.71,-33.07 226.39,-39.02"/>
</a>
</g>
</g>
<!-- Node5 -->
<g id="Node000005" class="node">
<title>Node5</title>
<g id="a_Node000005"><a xlink:title=" ">
<polygon fill="#e0e0e0" stroke="#999999" points="187.62,-24.88 139.38,-24.88 139.38,-5.63 187.62,-5.63 187.62,-24.88"/>
<text text-anchor="middle" x="163.5" y="-11.38" font-family="Helvetica,sans-Serif" font-size="10.00">random</text>
</a>
</g>
</g>
<!-- Node2&#45;&gt;Node5 -->
<g id="edge4_Node000002_Node000005" class="edge">
<title>Node2&#45;&gt;Node5</title>
<g id="a_edge4_Node000002_Node000005"><a xlink:title=" ">
<path fill="none" stroke="#63b8ff" d="M162.65,-66.18C162.79,-58.23 162.99,-46.31 163.16,-36.12"/>
<polygon fill="#63b8ff" stroke="#63b8ff" points="166.68,-36.33 163.35,-26.28 159.68,-36.22 166.68,-36.33"/>
</a>
</g>
</g>
</g>
</svg>
