<?xml version="1.0" encoding="UTF-8" standalone="no"?>
<!DOCTYPE svg PUBLIC "-//W3C//DTD SVG 1.1//EN"
 "http://www.w3.org/Graphics/SVG/1.1/DTD/svg11.dtd">
<!-- Generated by graphviz version 8.1.0 (20230707.0739)
 -->
<!-- Title: Filters.cpp Pages: 1 -->
<svg width="417pt" height="149pt"
 viewBox="0.00 0.00 416.88 149.00" xmlns="http://www.w3.org/2000/svg" xmlns:xlink="http://www.w3.org/1999/xlink">
<g id="graph0" class="graph" transform="scale(1 1) rotate(0) translate(4 145)">
<title>Filters.cpp</title>
<!-- Node1 -->
<g id="Node000001" class="node">
<title>Node1</title>
<g id="a_Node000001"><a xlink:title="Implementation of Filters.">
<polygon fill="#999999" stroke="#666666" points="273.38,-141 211.62,-141 211.62,-121.75 273.38,-121.75 273.38,-141"/>
<text text-anchor="middle" x="242.5" y="-127.5" font-family="Helvetica,sans-Serif" font-size="10.00">Filters.cpp</text>
</a>
</g>
</g>
<!-- Node2 -->
<g id="Node000002" class="node">
<title>Node2</title>
<g id="a_Node000002"><a xlink:href="_filters_8h.html" target="_top" xlink:title="List of Filters.">
<polygon fill="white" stroke="#666666" points="268.12,-85.75 216.88,-85.75 216.88,-66.5 268.12,-66.5 268.12,-85.75"/>
<text text-anchor="middle" x="242.5" y="-72.25" font-family="Helvetica,sans-Serif" font-size="10.00">Filters.h</text>
</a>
</g>
</g>
<!-- Node1&#45;&gt;Node2 -->
<g id="edge1_Node000001_Node000002" class="edge">
<title>Node1&#45;&gt;Node2</title>
<g id="a_edge1_Node000001_Node000002"><a xlink:title=" ">
<path fill="none" stroke="#63b8ff" d="M242.5,-121.58C242.5,-114.92 242.5,-105.49 242.5,-97.03"/>
<polygon fill="#63b8ff" stroke="#63b8ff" points="246,-97.11 242.5,-87.11 239,-97.11 246,-97.11"/>
</a>
</g>
</g>
<!-- Node3 -->
<g id="Node000003" class="node">
<title>Node3</title>
<g id="a_Node000003"><a xlink:title=" ">
<polygon fill="#e0e0e0" stroke="#999999" points="121,-24.88 0,-24.88 0,-5.63 121,-5.63 121,-24.88"/>
<text text-anchor="middle" x="60.5" y="-11.38" font-family="Helvetica,sans-Serif" font-size="10.00">autodiff/forward/real.hpp</text>
</a>
</g>
</g>
<!-- Node2&#45;&gt;Node3 -->
<g id="edge2_Node000002_Node000003" class="edge">
<title>Node2&#45;&gt;Node3</title>
<g id="a_edge2_Node000002_Node000003"><a xlink:title=" ">
<path fill="none" stroke="#63b8ff" d="M216.42,-66.69C185.69,-56.75 134.35,-40.14 99.03,-28.71"/>
<polygon fill="#63b8ff" stroke="#63b8ff" points="100.21,-25.09 89.62,-25.35 98.06,-31.75 100.21,-25.09"/>
</a>
</g>
</g>
<!-- Node4 -->
<g id="Node000004" class="node">
<title>Node4</title>
<g id="a_Node000004"><a xlink:title=" ">
<polygon fill="#e0e0e0" stroke="#999999" points="241.62,-30.5 139.38,-30.5 139.38,0 241.62,0 241.62,-30.5"/>
<text text-anchor="start" x="147.38" y="-17" font-family="Helvetica,sans-Serif" font-size="10.00">autodiff/forward/real</text>
<text text-anchor="middle" x="190.5" y="-5.75" font-family="Helvetica,sans-Serif" font-size="10.00">/eigen.hpp</text>
</a>
</g>
</g>
<!-- Node2&#45;&gt;Node4 -->
<g id="edge3_Node000002_Node000004" class="edge">
<title>Node2&#45;&gt;Node4</title>
<g id="a_edge3_Node000002_Node000004"><a xlink:title=" ">
<path fill="none" stroke="#63b8ff" d="M234.6,-66.18C228.19,-58.92 218.85,-48.35 210.42,-38.8"/>
<polygon fill="#63b8ff" stroke="#63b8ff" points="213.58,-36.96 204.34,-31.78 208.33,-41.59 213.58,-36.96"/>
</a>
</g>
</g>
<!-- Node5 -->
<g id="Node000005" class="node">
<title>Node5</title>
<g id="a_Node000005"><a xlink:title=" ">
<polygon fill="#e0e0e0" stroke="#999999" points="331.62,-24.88 259.38,-24.88 259.38,-5.63 331.62,-5.63 331.62,-24.88"/>
<text text-anchor="middle" x="295.5" y="-11.38" font-family="Helvetica,sans-Serif" font-size="10.00">Eigen/Dense</text>
</a>
</g>
</g>
<!-- Node2&#45;&gt;Node5 -->
<g id="edge4_Node000002_Node000005" class="edge">
<title>Node2&#45;&gt;Node5</title>
<g id="a_edge4_Node000002_Node000005"><a xlink:title=" ">
<path fill="none" stroke="#63b8ff" d="M250.55,-66.18C258.41,-57.45 270.57,-43.94 280.26,-33.18"/>
<polygon fill="#63b8ff" stroke="#63b8ff" points="282.29,-36.05 286.37,-26.28 277.08,-31.37 282.29,-36.05"/>
</a>
</g>
</g>
<!-- Node6 -->
<g id="Node000006" class="node">
<title>Node6</title>
<g id="a_Node000006"><a xlink:title=" ">
<polygon fill="#e0e0e0" stroke="#999999" points="408.88,-24.88 350.12,-24.88 350.12,-5.63 408.88,-5.63 408.88,-24.88"/>
<text text-anchor="middle" x="379.5" y="-11.38" font-family="Helvetica,sans-Serif" font-size="10.00">Eigen/QR</text>
</a>
</g>
</g>
<!-- Node2&#45;&gt;Node6 -->
<g id="edge5_Node000002_Node000006" class="edge">
<title>Node2&#45;&gt;Node6</title>
<g id="a_edge5_Node000002_Node000006"><a xlink:title=" ">
<path fill="none" stroke="#63b8ff" d="M263.61,-66.05C286.3,-56.3 322.6,-40.7 348.53,-29.56"/>
<polygon fill="#63b8ff" stroke="#63b8ff" points="349.79,-32.4 357.59,-25.23 347.03,-25.97 349.79,-32.4"/>
</a>
</g>
</g>
</g>
</svg>
