<?xml version="1.0" encoding="UTF-8" standalone="no"?>
<!DOCTYPE svg PUBLIC "-//W3C//DTD SVG 1.1//EN"
 "http://www.w3.org/Graphics/SVG/1.1/DTD/svg11.dtd">
<!-- Generated by graphviz version 8.1.0 (20230707.0739)
 -->
<!-- Title: GNSSTransmitter.h Pages: 1 -->
<svg width="1354pt" height="337pt"
 viewBox="0.00 0.00 1354.38 337.25" xmlns="http://www.w3.org/2000/svg" xmlns:xlink="http://www.w3.org/1999/xlink">
<g id="graph0" class="graph" transform="scale(1 1) rotate(0) translate(4 333.25)">
<title>GNSSTransmitter.h</title>
<!-- Node1 -->
<g id="Node000001" class="node">
<title>Node1</title>
<g id="a_Node000001"><a xlink:title="Handles GNSS transmit.">
<polygon fill="#999999" stroke="#666666" points="988.25,-329.25 886.75,-329.25 886.75,-310 988.25,-310 988.25,-329.25"/>
<text text-anchor="middle" x="937.5" y="-315.75" font-family="Helvetica,sans-Serif" font-size="10.00">GNSSTransmitter.h</text>
</a>
</g>
</g>
<!-- Node2 -->
<g id="Node000002" class="node">
<title>Node2</title>
<g id="a_Node000002"><a xlink:href="_comm_device_8h.html" target="_top" xlink:title="Communication devices.">
<polygon fill="white" stroke="#666666" points="775.75,-274 635.25,-274 635.25,-254.75 775.75,-254.75 775.75,-274"/>
<text text-anchor="middle" x="705.5" y="-260.5" font-family="Helvetica,sans-Serif" font-size="10.00">lupnt/agents/CommDevice.h</text>
</a>
</g>
</g>
<!-- Node1&#45;&gt;Node2 -->
<g id="edge1_Node000001_Node000002" class="edge">
<title>Node1&#45;&gt;Node2</title>
<g id="a_edge1_Node000001_Node000002"><a xlink:title=" ">
<path fill="none" stroke="#63b8ff" d="M897.88,-309.53C858.59,-300.51 798.26,-286.67 755.65,-276.89"/>
<polygon fill="#63b8ff" stroke="#63b8ff" points="756.48,-273.26 745.96,-274.43 754.92,-280.08 756.48,-273.26"/>
</a>
</g>
</g>
<!-- Node7 -->
<g id="Node000007" class="node">
<title>Node7</title>
<g id="a_Node000007"><a xlink:href="_antenna_8h.html" target="_top" xlink:title="Antenna class.">
<polygon fill="white" stroke="#666666" points="890.75,-218.75 786.25,-218.75 786.25,-188.25 890.75,-188.25 890.75,-218.75"/>
<text text-anchor="start" x="794.25" y="-205.25" font-family="Helvetica,sans-Serif" font-size="10.00">lupnt/measurements</text>
<text text-anchor="middle" x="838.5" y="-194" font-family="Helvetica,sans-Serif" font-size="10.00">/Antenna.h</text>
</a>
</g>
</g>
<!-- Node1&#45;&gt;Node7 -->
<g id="edge41_Node000001_Node000007" class="edge">
<title>Node1&#45;&gt;Node7</title>
<g id="a_edge41_Node000001_Node000007"><a xlink:title=" ">
<path fill="none" stroke="#63b8ff" d="M929.73,-309.67C914.48,-292.09 880.21,-252.58 858.28,-227.31"/>
<polygon fill="#63b8ff" stroke="#63b8ff" points="860.29,-225.28 851.09,-220.02 855,-229.87 860.29,-225.28"/>
</a>
</g>
</g>
<!-- Node8 -->
<g id="Node000008" class="node">
<title>Node8</title>
<g id="a_Node000008"><a xlink:title=" ">
<polygon fill="#e0e0e0" stroke="#999999" points="1006.5,-19.25 966.5,-19.25 966.5,0 1006.5,0 1006.5,-19.25"/>
<text text-anchor="middle" x="986.5" y="-5.75" font-family="Helvetica,sans-Serif" font-size="10.00">string</text>
</a>
</g>
</g>
<!-- Node1&#45;&gt;Node8 -->
<g id="edge39_Node000001_Node000008" class="edge">
<title>Node1&#45;&gt;Node8</title>
<g id="a_edge39_Node000001_Node000008"><a xlink:title=" ">
<path fill="none" stroke="#63b8ff" d="M988.56,-316.82C1060.36,-311.25 1182.5,-289.31 1182.5,-204.5 1182.5,-204.5 1182.5,-204.5 1182.5,-136 1182.5,-98.43 1184.66,-81.21 1157.5,-55.25 1119.51,-18.93 1055.81,-11.24 1017.81,-10.12"/>
<polygon fill="#63b8ff" stroke="#63b8ff" points="1017.94,-6.61 1007.89,-9.96 1017.84,-13.61 1017.94,-6.61"/>
</a>
</g>
</g>
<!-- Node15 -->
<g id="Node000015" class="node">
<title>Node15</title>
<g id="a_Node000015"><a xlink:href="_transmission_8h.html" target="_top" xlink:title="Signal transmission data.">
<polygon fill="white" stroke="#666666" points="837.75,-152.25 733.25,-152.25 733.25,-121.75 837.75,-121.75 837.75,-152.25"/>
<text text-anchor="start" x="741.25" y="-138.75" font-family="Helvetica,sans-Serif" font-size="10.00">lupnt/measurements</text>
<text text-anchor="middle" x="785.5" y="-127.5" font-family="Helvetica,sans-Serif" font-size="10.00">/Transmission.h</text>
</a>
</g>
</g>
<!-- Node1&#45;&gt;Node15 -->
<g id="edge38_Node000001_Node000015" class="edge">
<title>Node1&#45;&gt;Node15</title>
<g id="a_edge38_Node000001_Node000015"><a xlink:title=" ">
<path fill="none" stroke="#63b8ff" d="M937.38,-309.83C936.61,-286.94 931.51,-224.78 899.5,-188.25 890.72,-178.23 864.01,-166.23 838.64,-156.46"/>
<polygon fill="#63b8ff" stroke="#63b8ff" points="840.25,-152.95 829.66,-152.7 837.79,-159.5 840.25,-152.95"/>
</a>
</g>
</g>
<!-- Node24 -->
<g id="Node000024" class="node">
<title>Node24</title>
<g id="a_Node000024"><a xlink:title=" ">
<polygon fill="#e0e0e0" stroke="#999999" points="1022,-274 985,-274 985,-254.75 1022,-254.75 1022,-274"/>
<text text-anchor="middle" x="1003.5" y="-260.5" font-family="Helvetica,sans-Serif" font-size="10.00">tuple</text>
</a>
</g>
</g>
<!-- Node1&#45;&gt;Node24 -->
<g id="edge40_Node000001_Node000024" class="edge">
<title>Node1&#45;&gt;Node24</title>
<g id="a_edge40_Node000001_Node000024"><a xlink:title=" ">
<path fill="none" stroke="#63b8ff" d="M948.7,-309.59C958.33,-301.82 972.45,-290.42 983.95,-281.15"/>
<polygon fill="#63b8ff" stroke="#63b8ff" points="985.88,-283.28 991.47,-274.27 981.49,-277.83 985.88,-283.28"/>
</a>
</g>
</g>
<!-- Node25 -->
<g id="Node000025" class="node">
<title>Node25</title>
<g id="a_Node000025"><a xlink:href="_g_n_s_s_measurement_8h.html" target="_top" xlink:title="Class that constructs GPS measurement data from channel observables.">
<polygon fill="white" stroke="#666666" points="1058.5,-213.12 946.5,-213.12 946.5,-193.88 1058.5,-193.88 1058.5,-213.12"/>
<text text-anchor="middle" x="1002.5" y="-199.62" font-family="Helvetica,sans-Serif" font-size="10.00">GNSSMeasurement.h</text>
</a>
</g>
</g>
<!-- Node1&#45;&gt;Node25 -->
<g id="edge42_Node000001_Node000025" class="edge">
<title>Node1&#45;&gt;Node25</title>
<g id="a_edge42_Node000001_Node000025"><a xlink:title=" ">
<path fill="none" stroke="#63b8ff" d="M942.6,-309.67C953.23,-291 977.95,-247.61 992.08,-222.79"/>
<polygon fill="#63b8ff" stroke="#63b8ff" points="995.52,-224.84 997.42,-214.41 989.43,-221.37 995.52,-224.84"/>
</a>
</g>
</g>
<!-- Node3 -->
<g id="Node000003" class="node">
<title>Node3</title>
<g id="a_Node000003"><a xlink:title=" ">
<polygon fill="#e0e0e0" stroke="#999999" points="729,-80.12 608,-80.12 608,-60.88 729,-60.88 729,-80.12"/>
<text text-anchor="middle" x="668.5" y="-66.62" font-family="Helvetica,sans-Serif" font-size="10.00">autodiff/forward/real.hpp</text>
</a>
</g>
</g>
<!-- Node2&#45;&gt;Node3 -->
<g id="edge2_Node000002_Node000003" class="edge">
<title>Node2&#45;&gt;Node3</title>
<g id="a_edge2_Node000002_Node000003"><a xlink:title=" ">
<path fill="none" stroke="#63b8ff" d="M703.77,-254.38C698.11,-225.04 680.11,-131.7 672.24,-90.9"/>
<polygon fill="#63b8ff" stroke="#63b8ff" points="675.52,-90.41 670.19,-81.26 668.65,-91.74 675.52,-90.41"/>
</a>
</g>
</g>
<!-- Node4 -->
<g id="Node000004" class="node">
<title>Node4</title>
<g id="a_Node000004"><a xlink:title=" ">
<polygon fill="#e0e0e0" stroke="#999999" points="335.62,-85.75 233.38,-85.75 233.38,-55.25 335.62,-55.25 335.62,-85.75"/>
<text text-anchor="start" x="241.38" y="-72.25" font-family="Helvetica,sans-Serif" font-size="10.00">autodiff/forward/real</text>
<text text-anchor="middle" x="284.5" y="-61" font-family="Helvetica,sans-Serif" font-size="10.00">/eigen.hpp</text>
</a>
</g>
</g>
<!-- Node2&#45;&gt;Node4 -->
<g id="edge3_Node000002_Node000004" class="edge">
<title>Node2&#45;&gt;Node4</title>
<g id="a_edge3_Node000002_Node000004"><a xlink:title=" ">
<path fill="none" stroke="#63b8ff" d="M634.85,-259.68C504.19,-251.15 233.24,-224.92 180.5,-152.25 172.54,-141.28 173.3,-133.23 180.5,-121.75 190.3,-106.13 206.48,-95.25 223.19,-87.72"/>
<polygon fill="#63b8ff" stroke="#63b8ff" points="224.13,-90.7 232.04,-83.66 221.46,-84.23 224.13,-90.7"/>
</a>
</g>
</g>
<!-- Node5 -->
<g id="Node000005" class="node">
<title>Node5</title>
<g id="a_Node000005"><a xlink:title=" ">
<polygon fill="#e0e0e0" stroke="#999999" points="767.88,-213.12 733.12,-213.12 733.12,-193.88 767.88,-193.88 767.88,-213.12"/>
<text text-anchor="middle" x="750.5" y="-199.62" font-family="Helvetica,sans-Serif" font-size="10.00">map</text>
</a>
</g>
</g>
<!-- Node2&#45;&gt;Node5 -->
<g id="edge4_Node000002_Node000005" class="edge">
<title>Node2&#45;&gt;Node5</title>
<g id="a_edge4_Node000002_Node000005"><a xlink:title=" ">
<path fill="none" stroke="#63b8ff" d="M712.33,-254.43C718.88,-245.87 728.93,-232.73 737.07,-222.07"/>
<polygon fill="#63b8ff" stroke="#63b8ff" points="740.31,-224.6 743.6,-214.53 734.75,-220.35 740.31,-224.6"/>
</a>
</g>
</g>
<!-- Node6 -->
<g id="Node000006" class="node">
<title>Node6</title>
<g id="a_Node000006"><a xlink:title=" ">
<polygon fill="#e0e0e0" stroke="#999999" points="1154.12,-146.62 1102.88,-146.62 1102.88,-127.38 1154.12,-127.38 1154.12,-146.62"/>
<text text-anchor="middle" x="1128.5" y="-133.12" font-family="Helvetica,sans-Serif" font-size="10.00">memory</text>
</a>
</g>
</g>
<!-- Node2&#45;&gt;Node6 -->
<g id="edge5_Node000002_Node000006" class="edge">
<title>Node2&#45;&gt;Node6</title>
<g id="a_edge5_Node000002_Node000006"><a xlink:title=" ">
<path fill="none" stroke="#63b8ff" d="M776.1,-261.15C867.1,-257.18 1019.37,-246.52 1067.5,-218.75 1092.3,-204.45 1110.24,-175.64 1120.01,-156.59"/>
<polygon fill="#63b8ff" stroke="#63b8ff" points="1123.48,-158.44 1124.69,-147.92 1117.18,-155.39 1123.48,-158.44"/>
</a>
</g>
</g>
<!-- Node2&#45;&gt;Node7 -->
<g id="edge6_Node000002_Node000007" class="edge">
<title>Node2&#45;&gt;Node7</title>
<g id="a_edge6_Node000002_Node000007"><a xlink:title=" ">
<path fill="none" stroke="#63b8ff" d="M725.99,-254.3C744.4,-246.16 772.03,-233.92 795.3,-223.62"/>
<polygon fill="#63b8ff" stroke="#63b8ff" points="796.58,-226.44 804.3,-219.19 793.74,-220.04 796.58,-226.44"/>
</a>
</g>
</g>
<!-- Node2&#45;&gt;Node15 -->
<g id="edge19_Node000002_Node000015" class="edge">
<title>Node2&#45;&gt;Node15</title>
<g id="a_edge19_Node000002_Node000015"><a xlink:title=" ">
<path fill="none" stroke="#63b8ff" d="M705.98,-254.34C707.15,-239.47 711.11,-209.39 724.5,-188.25 731.6,-177.04 742.04,-167.14 752.28,-159.14"/>
<polygon fill="#63b8ff" stroke="#63b8ff" points="754.16,-161.37 760.14,-152.63 750.01,-155.73 754.16,-161.37"/>
</a>
</g>
</g>
<!-- Node17 -->
<g id="Node000017" class="node">
<title>Node17</title>
<g id="a_Node000017"><a xlink:href="_math_utils_8h.html" target="_top" xlink:title=" ">
<polygon fill="white" stroke="#666666" points="133,-146.62 0,-146.62 0,-127.38 133,-127.38 133,-146.62"/>
<text text-anchor="middle" x="66.5" y="-133.12" font-family="Helvetica,sans-Serif" font-size="10.00">lupnt/numerics/MathUtils.h</text>
</a>
</g>
</g>
<!-- Node2&#45;&gt;Node17 -->
<g id="edge24_Node000002_Node000017" class="edge">
<title>Node2&#45;&gt;Node17</title>
<g id="a_edge24_Node000002_Node000017"><a xlink:title=" ">
<path fill="none" stroke="#63b8ff" d="M634.96,-263.73C504.8,-263.4 232.4,-257.87 147.5,-218.75 117.71,-205.02 92.63,-175.38 78.6,-156.09"/>
<polygon fill="#63b8ff" stroke="#63b8ff" points="80.9,-154.27 72.3,-148.08 75.16,-158.28 80.9,-154.27"/>
</a>
</g>
</g>
<!-- Node19 -->
<g id="Node000019" class="node">
<title>Node19</title>
<g id="a_Node000019"><a xlink:href="_orbit_state_8h.html" target="_top" xlink:title="Orbit states.">
<polygon fill="white" stroke="#666666" points="523.12,-213.12 393.88,-213.12 393.88,-193.88 523.12,-193.88 523.12,-213.12"/>
<text text-anchor="middle" x="458.5" y="-199.62" font-family="Helvetica,sans-Serif" font-size="10.00">lupnt/physics/OrbitState.h</text>
</a>
</g>
</g>
<!-- Node2&#45;&gt;Node19 -->
<g id="edge28_Node000002_Node000019" class="edge">
<title>Node2&#45;&gt;Node19</title>
<g id="a_edge28_Node000002_Node000019"><a xlink:title=" ">
<path fill="none" stroke="#63b8ff" d="M667.45,-254.3C624.39,-244.04 554.14,-227.3 507.13,-216.09"/>
<polygon fill="#63b8ff" stroke="#63b8ff" points="508.13,-212.49 497.6,-213.58 506.51,-219.3 508.13,-212.49"/>
</a>
</g>
</g>
<!-- Node7&#45;&gt;Node3 -->
<g id="edge7_Node000007_Node000003" class="edge">
<title>Node7&#45;&gt;Node3</title>
<g id="a_edge7_Node000007_Node000003"><a xlink:title=" ">
<path fill="none" stroke="#63b8ff" d="M789.74,-187.75C768.21,-179.62 743.52,-167.94 724.5,-152.25 703.59,-135 687.06,-108.05 677.53,-90.09"/>
<polygon fill="#63b8ff" stroke="#63b8ff" points="680.29,-88.79 672.64,-81.46 674.05,-91.96 680.29,-88.79"/>
</a>
</g>
</g>
<!-- Node7&#45;&gt;Node4 -->
<g id="edge8_Node000007_Node000004" class="edge">
<title>Node7&#45;&gt;Node4</title>
<g id="a_edge8_Node000007_Node000004"><a xlink:title=" ">
<path fill="none" stroke="#63b8ff" d="M785.79,-190.1C782.65,-189.45 779.54,-188.83 776.5,-188.25 671.84,-168.3 638.29,-192.15 539.5,-152.25 517.77,-143.48 517.85,-131.41 496.5,-121.75 448.53,-100.05 390.04,-87.09 346.66,-79.78"/>
<polygon fill="#63b8ff" stroke="#63b8ff" points="347.41,-76.2 336.97,-78.04 346.28,-83.1 347.41,-76.2"/>
</a>
</g>
</g>
<!-- Node7&#45;&gt;Node8 -->
<g id="edge9_Node000007_Node000008" class="edge">
<title>Node7&#45;&gt;Node8</title>
<g id="a_edge9_Node000007_Node000008"><a xlink:title=" ">
<path fill="none" stroke="#63b8ff" d="M849.87,-187.76C876.82,-152.81 944.51,-65.06 973.26,-27.79"/>
<polygon fill="#63b8ff" stroke="#63b8ff" points="976.34,-30.53 979.68,-20.47 970.8,-26.25 976.34,-30.53"/>
</a>
</g>
</g>
<!-- Node9 -->
<g id="Node000009" class="node">
<title>Node9</title>
<g id="a_Node000009"><a xlink:href="_constants_8h.html" target="_top" xlink:title="List of constants.">
<polygon fill="white" stroke="#666666" points="1085,-146.62 970,-146.62 970,-127.38 1085,-127.38 1085,-146.62"/>
<text text-anchor="middle" x="1027.5" y="-133.12" font-family="Helvetica,sans-Serif" font-size="10.00">lupnt/core/Constants.h</text>
</a>
</g>
</g>
<!-- Node7&#45;&gt;Node9 -->
<g id="edge10_Node000007_Node000009" class="edge">
<title>Node7&#45;&gt;Node9</title>
<g id="a_edge10_Node000007_Node000009"><a xlink:title=" ">
<path fill="none" stroke="#63b8ff" d="M881.39,-187.86C914.36,-176.61 959.43,-161.23 990.76,-150.54"/>
<polygon fill="#63b8ff" stroke="#63b8ff" points="991.49,-153.65 999.82,-147.1 989.23,-147.02 991.49,-153.65"/>
</a>
</g>
</g>
<!-- Node9&#45;&gt;Node3 -->
<g id="edge12_Node000009_Node000003" class="edge">
<title>Node9&#45;&gt;Node3</title>
<g id="a_edge12_Node000009_Node000003"><a xlink:title=" ">
<path fill="none" stroke="#63b8ff" d="M973.48,-126.91C915.74,-117.1 821.56,-100.87 740.5,-85.75 735.23,-84.77 729.75,-83.72 724.27,-82.66"/>
<polygon fill="#63b8ff" stroke="#63b8ff" points="725.28,-79.1 714.79,-80.62 723.94,-85.97 725.28,-79.1"/>
</a>
</g>
</g>
<!-- Node9&#45;&gt;Node8 -->
<g id="edge13_Node000009_Node000008" class="edge">
<title>Node9&#45;&gt;Node8</title>
<g id="a_edge13_Node000009_Node000008"><a xlink:title=" ">
<path fill="none" stroke="#63b8ff" d="M1022.98,-126.92C1018.17,-116.99 1010.56,-100.52 1005.5,-85.75 999.17,-67.27 993.91,-45.59 990.54,-30.28"/>
<polygon fill="#63b8ff" stroke="#63b8ff" points="993.76,-29.61 988.26,-20.55 986.91,-31.06 993.76,-29.61"/>
</a>
</g>
</g>
<!-- Node10 -->
<g id="Node000010" class="node">
<title>Node10</title>
<g id="a_Node000010"><a xlink:title=" ">
<polygon fill="#e0e0e0" stroke="#999999" points="1148.38,-80.12 1014.62,-80.12 1014.62,-60.88 1148.38,-60.88 1148.38,-80.12"/>
<text text-anchor="middle" x="1081.5" y="-66.62" font-family="Helvetica,sans-Serif" font-size="10.00">autodiff/common/eigen.hpp</text>
</a>
</g>
</g>
<!-- Node9&#45;&gt;Node10 -->
<g id="edge11_Node000009_Node000010" class="edge">
<title>Node9&#45;&gt;Node10</title>
<g id="a_edge11_Node000009_Node000010"><a xlink:title=" ">
<path fill="none" stroke="#63b8ff" d="M1035.01,-127.03C1043.31,-117.12 1056.88,-100.91 1067.22,-88.56"/>
<polygon fill="#63b8ff" stroke="#63b8ff" points="1070.32,-91.31 1074.06,-81.39 1064.95,-86.81 1070.32,-91.31"/>
</a>
</g>
</g>
<!-- Node11 -->
<g id="Node000011" class="node">
<title>Node11</title>
<g id="a_Node000011"><a xlink:href="_user_file_path_8h.html" target="_top" xlink:title="File access utils.">
<polygon fill="white" stroke="#666666" points="1292.12,-80.12 1210.88,-80.12 1210.88,-60.88 1292.12,-60.88 1292.12,-80.12"/>
<text text-anchor="middle" x="1251.5" y="-66.62" font-family="Helvetica,sans-Serif" font-size="10.00">UserFilePath.h</text>
</a>
</g>
</g>
<!-- Node9&#45;&gt;Node11 -->
<g id="edge14_Node000009_Node000011" class="edge">
<title>Node9&#45;&gt;Node11</title>
<g id="a_edge14_Node000009_Node000011"><a xlink:title=" ">
<path fill="none" stroke="#63b8ff" d="M1059.12,-126.9C1098.47,-115.56 1165.82,-96.17 1209.48,-83.6"/>
<polygon fill="#63b8ff" stroke="#63b8ff" points="1210.4,-86.69 1219.04,-80.56 1208.46,-79.96 1210.4,-86.69"/>
</a>
</g>
</g>
<!-- Node11&#45;&gt;Node8 -->
<g id="edge18_Node000011_Node000008" class="edge">
<title>Node11&#45;&gt;Node8</title>
<g id="a_edge18_Node000011_Node000008"><a xlink:title=" ">
<path fill="none" stroke="#63b8ff" d="M1217.52,-60.45C1210.58,-58.67 1203.32,-56.86 1196.5,-55.25 1133.16,-40.32 1058.55,-25 1017.49,-16.77"/>
<polygon fill="#63b8ff" stroke="#63b8ff" points="1018.33,-13.16 1007.84,-14.64 1016.96,-20.03 1018.33,-13.16"/>
</a>
</g>
</g>
<!-- Node12 -->
<g id="Node000012" class="node">
<title>Node12</title>
<g id="a_Node000012"><a xlink:title=" ">
<polygon fill="#e0e0e0" stroke="#999999" points="1207,-19.25 1146,-19.25 1146,0 1207,0 1207,-19.25"/>
<text text-anchor="middle" x="1176.5" y="-5.75" font-family="Helvetica,sans-Serif" font-size="10.00">filesystem</text>
</a>
</g>
</g>
<!-- Node11&#45;&gt;Node12 -->
<g id="edge15_Node000011_Node000012" class="edge">
<title>Node11&#45;&gt;Node12</title>
<g id="a_edge15_Node000011_Node000012"><a xlink:title=" ">
<path fill="none" stroke="#63b8ff" d="M1240.11,-60.56C1228.55,-51.48 1210.41,-37.24 1196.45,-26.29"/>
<polygon fill="#63b8ff" stroke="#63b8ff" points="1199.03,-23.07 1189,-19.65 1194.7,-28.58 1199.03,-23.07"/>
</a>
</g>
</g>
<!-- Node13 -->
<g id="Node000013" class="node">
<title>Node13</title>
<g id="a_Node000013"><a xlink:title=" ">
<polygon fill="#e0e0e0" stroke="#999999" points="1278.25,-19.25 1224.75,-19.25 1224.75,0 1278.25,0 1278.25,-19.25"/>
<text text-anchor="middle" x="1251.5" y="-5.75" font-family="Helvetica,sans-Serif" font-size="10.00">iostream</text>
</a>
</g>
</g>
<!-- Node11&#45;&gt;Node13 -->
<g id="edge16_Node000011_Node000013" class="edge">
<title>Node11&#45;&gt;Node13</title>
<g id="a_edge16_Node000011_Node000013"><a xlink:title=" ">
<path fill="none" stroke="#63b8ff" d="M1251.5,-60.56C1251.5,-52.6 1251.5,-40.69 1251.5,-30.49"/>
<polygon fill="#63b8ff" stroke="#63b8ff" points="1255,-30.65 1251.5,-20.65 1248,-30.65 1255,-30.65"/>
</a>
</g>
</g>
<!-- Node14 -->
<g id="Node000014" class="node">
<title>Node14</title>
<g id="a_Node000014"><a xlink:title=" ">
<polygon fill="#e0e0e0" stroke="#999999" points="1346.38,-19.25 1296.62,-19.25 1296.62,0 1346.38,0 1346.38,-19.25"/>
<text text-anchor="middle" x="1321.5" y="-5.75" font-family="Helvetica,sans-Serif" font-size="10.00">optional</text>
</a>
</g>
</g>
<!-- Node11&#45;&gt;Node14 -->
<g id="edge17_Node000011_Node000014" class="edge">
<title>Node11&#45;&gt;Node14</title>
<g id="a_edge17_Node000011_Node000014"><a xlink:title=" ">
<path fill="none" stroke="#63b8ff" d="M1262.13,-60.56C1272.82,-51.57 1289.53,-37.51 1302.5,-26.6"/>
<polygon fill="#63b8ff" stroke="#63b8ff" points="1304.37,-28.77 1309.77,-19.65 1299.86,-23.41 1304.37,-28.77"/>
</a>
</g>
</g>
<!-- Node15&#45;&gt;Node3 -->
<g id="edge21_Node000015_Node000003" class="edge">
<title>Node15&#45;&gt;Node3</title>
<g id="a_edge21_Node000015_Node000003"><a xlink:title=" ">
<path fill="none" stroke="#63b8ff" d="M758.95,-121.36C739.63,-110.71 713.61,-96.37 694.44,-85.8"/>
<polygon fill="#63b8ff" stroke="#63b8ff" points="696.29,-82.27 685.84,-80.51 692.91,-88.4 696.29,-82.27"/>
</a>
</g>
</g>
<!-- Node15&#45;&gt;Node4 -->
<g id="edge22_Node000015_Node000004" class="edge">
<title>Node15&#45;&gt;Node4</title>
<g id="a_edge22_Node000015_Node000004"><a xlink:title=" ">
<path fill="none" stroke="#63b8ff" d="M732.83,-129.22C639.72,-117.23 446.5,-92.36 346.89,-79.53"/>
<polygon fill="#63b8ff" stroke="#63b8ff" points="347.45,-75.95 337.09,-78.14 346.56,-82.89 347.45,-75.95"/>
</a>
</g>
</g>
<!-- Node15&#45;&gt;Node8 -->
<g id="edge23_Node000015_Node000008" class="edge">
<title>Node15&#45;&gt;Node8</title>
<g id="a_edge23_Node000015_Node000008"><a xlink:title=" ">
<path fill="none" stroke="#63b8ff" d="M808.95,-121.37C847.61,-97.26 924.3,-49.42 963,-25.28"/>
<polygon fill="#63b8ff" stroke="#63b8ff" points="964.34,-27.95 970.97,-19.69 960.64,-22.01 964.34,-27.95"/>
</a>
</g>
</g>
<!-- Node16 -->
<g id="Node000016" class="node">
<title>Node16</title>
<g id="a_Node000016"><a xlink:title=" ">
<polygon fill="#e0e0e0" stroke="#999999" points="821.62,-80.12 749.38,-80.12 749.38,-60.88 821.62,-60.88 821.62,-80.12"/>
<text text-anchor="middle" x="785.5" y="-66.62" font-family="Helvetica,sans-Serif" font-size="10.00">Eigen/Dense</text>
</a>
</g>
</g>
<!-- Node15&#45;&gt;Node16 -->
<g id="edge20_Node000015_Node000016" class="edge">
<title>Node15&#45;&gt;Node16</title>
<g id="a_edge20_Node000015_Node000016"><a xlink:title=" ">
<path fill="none" stroke="#63b8ff" d="M785.5,-121.36C785.5,-112.38 785.5,-100.76 785.5,-91.01"/>
<polygon fill="#63b8ff" stroke="#63b8ff" points="789,-91.32 785.5,-81.32 782,-91.32 789,-91.32"/>
</a>
</g>
</g>
<!-- Node17&#45;&gt;Node3 -->
<g id="edge25_Node000017_Node000003" class="edge">
<title>Node17&#45;&gt;Node3</title>
<g id="a_edge25_Node000017_Node000003"><a xlink:title=" ">
<path fill="none" stroke="#63b8ff" d="M133.38,-127.39C148.85,-125.47 165.24,-123.49 180.5,-121.75 328.24,-104.91 501.44,-87.67 596.65,-78.4"/>
<polygon fill="#63b8ff" stroke="#63b8ff" points="596.98,-81.79 606.59,-77.34 596.3,-74.83 596.98,-81.79"/>
</a>
</g>
</g>
<!-- Node17&#45;&gt;Node4 -->
<g id="edge26_Node000017_Node000004" class="edge">
<title>Node17&#45;&gt;Node4</title>
<g id="a_edge26_Node000017_Node000004"><a xlink:title=" ">
<path fill="none" stroke="#63b8ff" d="M97.27,-126.9C130.2,-117.15 183.27,-101.45 224.51,-89.25"/>
<polygon fill="#63b8ff" stroke="#63b8ff" points="225.39,-92.34 233.99,-86.15 223.41,-85.63 225.39,-92.34"/>
</a>
</g>
</g>
<!-- Node18 -->
<g id="Node000018" class="node">
<title>Node18</title>
<g id="a_Node000018"><a xlink:title=" ">
<polygon fill="#e0e0e0" stroke="#999999" points="90.62,-80.12 42.38,-80.12 42.38,-60.88 90.62,-60.88 90.62,-80.12"/>
<text text-anchor="middle" x="66.5" y="-66.62" font-family="Helvetica,sans-Serif" font-size="10.00">random</text>
</a>
</g>
</g>
<!-- Node17&#45;&gt;Node18 -->
<g id="edge27_Node000017_Node000018" class="edge">
<title>Node17&#45;&gt;Node18</title>
<g id="a_edge27_Node000017_Node000018"><a xlink:title=" ">
<path fill="none" stroke="#63b8ff" d="M66.5,-127.03C66.5,-117.79 66.5,-103.08 66.5,-91.13"/>
<polygon fill="#63b8ff" stroke="#63b8ff" points="70,-91.39 66.5,-81.39 63,-91.39 70,-91.39"/>
</a>
</g>
</g>
<!-- Node19&#45;&gt;Node3 -->
<g id="edge30_Node000019_Node000003" class="edge">
<title>Node19&#45;&gt;Node3</title>
<g id="a_edge30_Node000019_Node000003"><a xlink:title=" ">
<path fill="none" stroke="#63b8ff" d="M472.93,-193.5C508.53,-171.29 600.77,-113.75 644.64,-86.38"/>
<polygon fill="#63b8ff" stroke="#63b8ff" points="646.33,-88.83 652.96,-80.57 642.63,-82.89 646.33,-88.83"/>
</a>
</g>
</g>
<!-- Node19&#45;&gt;Node4 -->
<g id="edge31_Node000019_Node000004" class="edge">
<title>Node19&#45;&gt;Node4</title>
<g id="a_edge31_Node000019_Node000004"><a xlink:title=" ">
<path fill="none" stroke="#63b8ff" d="M400.55,-193.4C355.59,-185.02 298.63,-171.03 284.5,-152.25 272.68,-136.53 273.81,-113.8 277.25,-96.45"/>
<polygon fill="#63b8ff" stroke="#63b8ff" points="280.84,-97.5 279.73,-86.96 274.03,-95.88 280.84,-97.5"/>
</a>
</g>
</g>
<!-- Node19&#45;&gt;Node16 -->
<g id="edge29_Node000019_Node000016" class="edge">
<title>Node19&#45;&gt;Node16</title>
<g id="a_edge29_Node000019_Node000016"><a xlink:title=" ">
<path fill="none" stroke="#63b8ff" d="M481.23,-193.39C538.15,-170.59 686.94,-110.98 753.04,-84.5"/>
<polygon fill="#63b8ff" stroke="#63b8ff" points="753.93,-87.52 761.92,-80.55 751.33,-81.02 753.93,-87.52"/>
</a>
</g>
</g>
<!-- Node20 -->
<g id="Node000020" class="node">
<title>Node20</title>
<g id="a_Node000020"><a xlink:title=" ">
<polygon fill="#e0e0e0" stroke="#999999" points="411.12,-146.62 293.88,-146.62 293.88,-127.38 411.12,-127.38 411.12,-146.62"/>
<text text-anchor="middle" x="352.5" y="-133.12" font-family="Helvetica,sans-Serif" font-size="10.00">boost/preprocessor.hpp</text>
</a>
</g>
</g>
<!-- Node19&#45;&gt;Node20 -->
<g id="edge32_Node000019_Node000020" class="edge">
<title>Node19&#45;&gt;Node20</title>
<g id="a_edge32_Node000019_Node000020"><a xlink:title=" ">
<path fill="none" stroke="#63b8ff" d="M443.76,-193.53C426.46,-183 397.5,-165.38 376.84,-152.81"/>
<polygon fill="#63b8ff" stroke="#63b8ff" points="378.82,-149.31 368.46,-147.1 375.18,-155.29 378.82,-149.31"/>
</a>
</g>
</g>
<!-- Node21 -->
<g id="Node000021" class="node">
<title>Node21</title>
<g id="a_Node000021"><a xlink:title=" ">
<polygon fill="#e0e0e0" stroke="#999999" points="487.88,-146.62 429.12,-146.62 429.12,-127.38 487.88,-127.38 487.88,-146.62"/>
<text text-anchor="middle" x="458.5" y="-133.12" font-family="Helvetica,sans-Serif" font-size="10.00">stdexcept</text>
</a>
</g>
</g>
<!-- Node19&#45;&gt;Node21 -->
<g id="edge33_Node000019_Node000021" class="edge">
<title>Node19&#45;&gt;Node21</title>
<g id="a_edge33_Node000019_Node000021"><a xlink:title=" ">
<path fill="none" stroke="#63b8ff" d="M458.5,-193.53C458.5,-184.29 458.5,-169.58 458.5,-157.63"/>
<polygon fill="#63b8ff" stroke="#63b8ff" points="462,-157.89 458.5,-147.89 455,-157.89 462,-157.89"/>
</a>
</g>
</g>
<!-- Node22 -->
<g id="Node000022" class="node">
<title>Node22</title>
<g id="a_Node000022"><a xlink:href="_state_8h.html" target="_top" xlink:title="SPICE Interface functions.">
<polygon fill="white" stroke="#666666" points="237.25,-146.62 189.75,-146.62 189.75,-127.38 237.25,-127.38 237.25,-146.62"/>
<text text-anchor="middle" x="213.5" y="-133.12" font-family="Helvetica,sans-Serif" font-size="10.00">State.h</text>
</a>
</g>
</g>
<!-- Node19&#45;&gt;Node22 -->
<g id="edge34_Node000019_Node000022" class="edge">
<title>Node19&#45;&gt;Node22</title>
<g id="a_edge34_Node000019_Node000022"><a xlink:title=" ">
<path fill="none" stroke="#63b8ff" d="M414.47,-193.43C372.28,-184.35 306.99,-169.32 251.5,-152.25 249.79,-151.72 248.04,-151.16 246.28,-150.57"/>
<polygon fill="#63b8ff" stroke="#63b8ff" points="247.85,-147.06 237.25,-147.04 245.52,-153.67 247.85,-147.06"/>
</a>
</g>
</g>
<!-- Node22&#45;&gt;Node3 -->
<g id="edge35_Node000022_Node000003" class="edge">
<title>Node22&#45;&gt;Node3</title>
<g id="a_edge35_Node000022_Node000003"><a xlink:title=" ">
<path fill="none" stroke="#63b8ff" d="M237.74,-130.71C251.43,-127.83 268.87,-124.34 284.5,-121.75 393.15,-103.76 519.97,-88.22 597.22,-79.36"/>
<polygon fill="#63b8ff" stroke="#63b8ff" points="597.25,-82.76 606.79,-78.15 596.46,-75.81 597.25,-82.76"/>
</a>
</g>
</g>
<!-- Node22&#45;&gt;Node4 -->
<g id="edge36_Node000022_Node000004" class="edge">
<title>Node22&#45;&gt;Node4</title>
<g id="a_edge36_Node000022_Node000004"><a xlink:title=" ">
<path fill="none" stroke="#63b8ff" d="M223.37,-127.03C232.94,-118.34 247.82,-104.83 260.5,-93.3"/>
<polygon fill="#63b8ff" stroke="#63b8ff" points="262.39,-96.41 267.44,-87.09 257.68,-91.22 262.39,-96.41"/>
</a>
</g>
</g>
<!-- Node23 -->
<g id="Node000023" class="node">
<title>Node23</title>
<g id="a_Node000023"><a xlink:title=" ">
<polygon fill="#e0e0e0" stroke="#999999" points="215,-80.12 172,-80.12 172,-60.88 215,-60.88 215,-80.12"/>
<text text-anchor="middle" x="193.5" y="-66.62" font-family="Helvetica,sans-Serif" font-size="10.00">vector</text>
</a>
</g>
</g>
<!-- Node22&#45;&gt;Node23 -->
<g id="edge37_Node000022_Node000023" class="edge">
<title>Node22&#45;&gt;Node23</title>
<g id="a_edge37_Node000022_Node000023"><a xlink:title=" ">
<path fill="none" stroke="#63b8ff" d="M210.72,-127.03C207.82,-117.69 203.2,-102.78 199.47,-90.76"/>
<polygon fill="#63b8ff" stroke="#63b8ff" points="202.56,-89.91 196.26,-81.39 195.88,-91.98 202.56,-89.91"/>
</a>
</g>
</g>
<!-- Node25&#45;&gt;Node3 -->
<g id="edge46_Node000025_Node000003" class="edge">
<title>Node25&#45;&gt;Node3</title>
<g id="a_edge46_Node000025_Node000003"><a xlink:title=" ">
<path fill="none" stroke="#63b8ff" d="M971.97,-193.43C946.15,-184.98 908.78,-170.89 879.5,-152.25 862.65,-141.52 863.92,-131.51 846.5,-121.75 824.76,-109.57 763.96,-93.69 719.44,-83.07"/>
<polygon fill="#63b8ff" stroke="#63b8ff" points="720.33,-79.45 709.8,-80.56 718.73,-86.26 720.33,-79.45"/>
</a>
</g>
</g>
<!-- Node25&#45;&gt;Node4 -->
<g id="edge47_Node000025_Node000004" class="edge">
<title>Node25&#45;&gt;Node4</title>
<g id="a_edge47_Node000025_Node000004"><a xlink:title=" ">
<path fill="none" stroke="#63b8ff" d="M952.02,-193.42C896.31,-183.38 804,-166.73 724.5,-152.25 589.81,-127.72 431.99,-98.68 346.76,-82.98"/>
<polygon fill="#63b8ff" stroke="#63b8ff" points="347.44,-79.36 336.97,-80.99 346.17,-86.25 347.44,-79.36"/>
</a>
</g>
</g>
<!-- Node25&#45;&gt;Node6 -->
<g id="edge48_Node000025_Node000006" class="edge">
<title>Node25&#45;&gt;Node6</title>
<g id="a_edge48_Node000025_Node000006"><a xlink:title=" ">
<path fill="none" stroke="#63b8ff" d="M1020.29,-193.4C1041.3,-182.64 1076.49,-164.62 1101.02,-152.07"/>
<polygon fill="#63b8ff" stroke="#63b8ff" points="1102.5,-154.73 1109.8,-147.06 1099.31,-148.5 1102.5,-154.73"/>
</a>
</g>
</g>
<!-- Node25&#45;&gt;Node9 -->
<g id="edge43_Node000025_Node000009" class="edge">
<title>Node25&#45;&gt;Node9</title>
<g id="a_edge43_Node000025_Node000009"><a xlink:title=" ">
<path fill="none" stroke="#63b8ff" d="M1005.98,-193.53C1009.63,-184.1 1015.5,-168.97 1020.18,-156.88"/>
<polygon fill="#63b8ff" stroke="#63b8ff" points="1023.7,-158.48 1024.05,-147.89 1017.18,-155.95 1023.7,-158.48"/>
</a>
</g>
</g>
<!-- Node25&#45;&gt;Node15 -->
<g id="edge44_Node000025_Node000015" class="edge">
<title>Node25&#45;&gt;Node15</title>
<g id="a_edge44_Node000025_Node000015"><a xlink:title=" ">
<path fill="none" stroke="#63b8ff" d="M971.87,-193.4C939.09,-183.65 886.27,-167.95 845.22,-155.75"/>
<polygon fill="#63b8ff" stroke="#63b8ff" points="846.37,-152.14 835.78,-152.65 844.37,-158.85 846.37,-152.14"/>
</a>
</g>
</g>
<!-- Node25&#45;&gt;Node16 -->
<g id="edge45_Node000025_Node000016" class="edge">
<title>Node25&#45;&gt;Node16</title>
<g id="a_edge45_Node000025_Node000016"><a xlink:title=" ">
<path fill="none" stroke="#63b8ff" d="M989.46,-193.38C967.27,-177.99 920.57,-146.14 879.5,-121.75 857.62,-108.75 832.12,-95.22 813.2,-85.47"/>
<polygon fill="#63b8ff" stroke="#63b8ff" points="814.93,-81.92 804.44,-80.48 811.74,-88.15 814.93,-81.92"/>
</a>
</g>
</g>
</g>
</svg>
