<?xml version="1.0" encoding="UTF-8" standalone="no"?>
<!DOCTYPE svg PUBLIC "-//W3C//DTD SVG 1.1//EN"
 "http://www.w3.org/Graphics/SVG/1.1/DTD/svg11.dtd">
<!-- Generated by graphviz version 8.1.0 (20230707.0739)
 -->
<!-- Title: GNSSReceiver.h Pages: 1 -->
<svg width="970pt" height="138pt"
 viewBox="0.00 0.00 969.50 137.75" xmlns="http://www.w3.org/2000/svg" xmlns:xlink="http://www.w3.org/1999/xlink">
<g id="graph0" class="graph" transform="scale(1 1) rotate(0) translate(4 133.75)">
<title>GNSSReceiver.h</title>
<!-- Node1 -->
<g id="Node000001" class="node">
<title>Node1</title>
<g id="a_Node000001"><a xlink:title="GNSS receiver class.">
<polygon fill="#999999" stroke="#666666" points="473.12,-129.75 382.12,-129.75 382.12,-110.5 473.12,-110.5 473.12,-129.75"/>
<text text-anchor="middle" x="427.62" y="-116.25" font-family="Helvetica,sans-Serif" font-size="10.00">GNSSReceiver.h</text>
</a>
</g>
</g>
<!-- Node2 -->
<g id="Node000002" class="node">
<title>Node2</title>
<g id="a_Node000002"><a xlink:href="_example_constellations_8cpp.html" target="_top" xlink:title="Setup GNSS Constellation.">
<polygon fill="white" stroke="#666666" points="135.25,-74.5 0,-74.5 0,-55.25 135.25,-55.25 135.25,-74.5"/>
<text text-anchor="middle" x="67.62" y="-61" font-family="Helvetica,sans-Serif" font-size="10.00">ExampleConstellations.cpp</text>
</a>
</g>
</g>
<!-- Node1&#45;&gt;Node2 -->
<g id="edge1_Node000001_Node000002" class="edge">
<title>Node1&#45;&gt;Node2</title>
<g id="a_edge1_Node000001_Node000002"><a xlink:title=" ">
<path fill="none" stroke="#63b8ff" d="M371.09,-110.76C305.33,-101.04 197.13,-85.03 129.27,-74.99"/>
<polygon fill="#63b8ff" stroke="#63b8ff" points="370.26,-114.33 380.67,-112.33 371.28,-107.4 370.26,-114.33"/>
</a>
</g>
</g>
<!-- Node3 -->
<g id="Node000003" class="node">
<title>Node3</title>
<g id="a_Node000003"><a xlink:href="_example_e_k_f_8cpp.html" target="_top" xlink:title="Example of Extended Kalman Filter for orbit determination.">
<polygon fill="white" stroke="#666666" points="244.12,-74.5 153.12,-74.5 153.12,-55.25 244.12,-55.25 244.12,-74.5"/>
<text text-anchor="middle" x="198.62" y="-61" font-family="Helvetica,sans-Serif" font-size="10.00">ExampleEKF.cpp</text>
</a>
</g>
</g>
<!-- Node1&#45;&gt;Node3 -->
<g id="edge2_Node000001_Node000003" class="edge">
<title>Node1&#45;&gt;Node3</title>
<g id="a_edge2_Node000001_Node000003"><a xlink:title=" ">
<path fill="none" stroke="#63b8ff" d="M377.94,-107.57C335.84,-97.78 276.29,-83.94 237.57,-74.93"/>
<polygon fill="#63b8ff" stroke="#63b8ff" points="376.99,-111.18 387.52,-110.03 378.57,-104.36 376.99,-111.18"/>
</a>
</g>
</g>
<!-- Node4 -->
<g id="Node000004" class="node">
<title>Node4</title>
<g id="a_Node000004"><a xlink:href="_example_e_k_f_app_8cpp.html" target="_top" xlink:title="Example of EKF application.">
<polygon fill="white" stroke="#666666" points="494.5,-19.25 384.75,-19.25 384.75,0 494.5,0 494.5,-19.25"/>
<text text-anchor="middle" x="439.62" y="-5.75" font-family="Helvetica,sans-Serif" font-size="10.00">ExampleEKFApp.cpp</text>
</a>
</g>
</g>
<!-- Node1&#45;&gt;Node4 -->
<g id="edge3_Node000001_Node000004" class="edge">
<title>Node1&#45;&gt;Node4</title>
<g id="a_edge3_Node000001_Node000004"><a xlink:title=" ">
<path fill="none" stroke="#63b8ff" d="M371.07,-112.55C323.64,-104.63 267.26,-88.05 291.62,-55.25 312.83,-26.71 351.73,-15.76 384.33,-11.83"/>
<polygon fill="#63b8ff" stroke="#63b8ff" points="370.21,-116.12 380.63,-114.21 371.3,-109.2 370.21,-116.12"/>
</a>
</g>
</g>
<!-- Node5 -->
<g id="Node000005" class="node">
<title>Node5</title>
<g id="a_Node000005"><a xlink:href="_example_propagation_8cpp.html" target="_top" xlink:title="Example propagating both GPS constellation and Lunar Satellite.">
<polygon fill="white" stroke="#666666" points="425,-74.5 300.25,-74.5 300.25,-55.25 425,-55.25 425,-74.5"/>
<text text-anchor="middle" x="362.62" y="-61" font-family="Helvetica,sans-Serif" font-size="10.00">ExamplePropagation.cpp</text>
</a>
</g>
</g>
<!-- Node1&#45;&gt;Node5 -->
<g id="edge4_Node000001_Node000005" class="edge">
<title>Node1&#45;&gt;Node5</title>
<g id="a_edge4_Node000001_Node000005"><a xlink:title=" ">
<path fill="none" stroke="#63b8ff" d="M408.18,-103.19C396.82,-93.89 382.93,-82.51 373.49,-74.77"/>
<polygon fill="#63b8ff" stroke="#63b8ff" points="405.64,-106.46 415.6,-110.09 410.08,-101.05 405.64,-106.46"/>
</a>
</g>
</g>
<!-- Node6 -->
<g id="Node000006" class="node">
<title>Node6</title>
<g id="a_Node000006"><a xlink:href="_g_n_s_s_channel_8cpp.html" target="_top" xlink:title="GNSS Channel.">
<polygon fill="white" stroke="#666666" points="542.25,-74.5 443,-74.5 443,-55.25 542.25,-55.25 542.25,-74.5"/>
<text text-anchor="middle" x="492.62" y="-61" font-family="Helvetica,sans-Serif" font-size="10.00">GNSSChannel.cpp</text>
</a>
</g>
</g>
<!-- Node1&#45;&gt;Node6 -->
<g id="edge5_Node000001_Node000006" class="edge">
<title>Node1&#45;&gt;Node6</title>
<g id="a_edge5_Node000001_Node000006"><a xlink:title=" ">
<path fill="none" stroke="#63b8ff" d="M447.07,-103.19C458.43,-93.89 472.32,-82.51 481.76,-74.77"/>
<polygon fill="#63b8ff" stroke="#63b8ff" points="445.17,-101.05 439.65,-110.09 449.61,-106.46 445.17,-101.05"/>
</a>
</g>
</g>
<!-- Node7 -->
<g id="Node000007" class="node">
<title>Node7</title>
<g id="a_Node000007"><a xlink:href="_g_n_s_s_receiver_8cpp.html" target="_top" xlink:title="GNSS Receiver class.">
<polygon fill="white" stroke="#666666" points="661.38,-74.5 559.88,-74.5 559.88,-55.25 661.38,-55.25 661.38,-74.5"/>
<text text-anchor="middle" x="610.62" y="-61" font-family="Helvetica,sans-Serif" font-size="10.00">GNSSReceiver.cpp</text>
</a>
</g>
</g>
<!-- Node1&#45;&gt;Node7 -->
<g id="edge6_Node000001_Node000007" class="edge">
<title>Node1&#45;&gt;Node7</title>
<g id="a_edge6_Node000001_Node000007"><a xlink:title=" ">
<path fill="none" stroke="#63b8ff" d="M469.06,-107.07C502.56,-97.32 549.01,-83.8 579.43,-74.95"/>
<polygon fill="#63b8ff" stroke="#63b8ff" points="468.29,-103.94 459.67,-110.09 470.25,-110.66 468.29,-103.94"/>
</a>
</g>
</g>
<!-- Node8 -->
<g id="Node000008" class="node">
<title>Node8</title>
<g id="a_Node000008"><a xlink:href="_g_n_s_s_state_estimation_app_8h.html" target="_top" xlink:title="State Estimation Application Using GNSS Measurement.">
<polygon fill="white" stroke="#666666" points="819.5,-74.5 679.75,-74.5 679.75,-55.25 819.5,-55.25 819.5,-74.5"/>
<text text-anchor="middle" x="749.62" y="-61" font-family="Helvetica,sans-Serif" font-size="10.00">GNSSStateEstimationApp.h</text>
</a>
</g>
</g>
<!-- Node1&#45;&gt;Node8 -->
<g id="edge7_Node000001_Node000008" class="edge">
<title>Node1&#45;&gt;Node8</title>
<g id="a_edge7_Node000001_Node000008"><a xlink:title=" ">
<path fill="none" stroke="#63b8ff" d="M484.08,-109.79C543.32,-99.99 635.83,-84.69 694.55,-74.98"/>
<polygon fill="#63b8ff" stroke="#63b8ff" points="483.71,-106.47 474.42,-111.55 484.85,-113.37 483.71,-106.47"/>
</a>
</g>
</g>
<!-- Node10 -->
<g id="Node000010" class="node">
<title>Node10</title>
<g id="a_Node000010"><a xlink:href="_state_estimation_app_8h.html" target="_top" xlink:title="Base class for State Estimation Application.">
<polygon fill="white" stroke="#666666" points="954.25,-74.5 843,-74.5 843,-55.25 954.25,-55.25 954.25,-74.5"/>
<text text-anchor="middle" x="898.62" y="-61" font-family="Helvetica,sans-Serif" font-size="10.00">StateEstimationApp.h</text>
</a>
</g>
</g>
<!-- Node1&#45;&gt;Node10 -->
<g id="edge10_Node000001_Node000010" class="edge">
<title>Node1&#45;&gt;Node10</title>
<g id="a_edge10_Node000001_Node000010"><a xlink:title=" ">
<path fill="none" stroke="#63b8ff" d="M483.85,-113.08C561.44,-104.69 705.7,-88.91 828.62,-74.5 833.25,-73.96 838.04,-73.39 842.85,-72.81"/>
<polygon fill="#63b8ff" stroke="#63b8ff" points="483.92,-109.66 474.35,-114.21 484.67,-116.62 483.92,-109.66"/>
</a>
</g>
</g>
<!-- Node8&#45;&gt;Node4 -->
<g id="edge8_Node000008_Node000004" class="edge">
<title>Node8&#45;&gt;Node4</title>
<g id="a_edge8_Node000008_Node000004"><a xlink:title=" ">
<path fill="none" stroke="#63b8ff" d="M685.99,-52.94C628.92,-43.14 546.15,-28.92 492.6,-19.73"/>
<polygon fill="#63b8ff" stroke="#63b8ff" points="685.24,-56.54 695.69,-54.78 686.42,-49.64 685.24,-56.54"/>
</a>
</g>
</g>
<!-- Node9 -->
<g id="Node000009" class="node">
<title>Node9</title>
<g id="a_Node000009"><a xlink:href="_g_n_s_s_state_estimation_app_8cpp.html" target="_top" xlink:title="State Estimation Application Using GNSS Measurement.">
<polygon fill="white" stroke="#666666" points="821.75,-19.25 671.5,-19.25 671.5,0 821.75,0 821.75,-19.25"/>
<text text-anchor="middle" x="746.62" y="-5.75" font-family="Helvetica,sans-Serif" font-size="10.00">GNSSStateEstimationApp.cpp</text>
</a>
</g>
</g>
<!-- Node8&#45;&gt;Node9 -->
<g id="edge9_Node000008_Node000009" class="edge">
<title>Node8&#45;&gt;Node9</title>
<g id="a_edge9_Node000008_Node000009"><a xlink:title=" ">
<path fill="none" stroke="#63b8ff" d="M748.52,-44.21C748.04,-35.77 747.51,-26.33 747.13,-19.61"/>
<polygon fill="#63b8ff" stroke="#63b8ff" points="745.07,-44.29 749.13,-54.08 752.06,-43.9 745.07,-44.29"/>
</a>
</g>
</g>
<!-- Node11 -->
<g id="Node000011" class="node">
<title>Node11</title>
<g id="a_Node000011"><a xlink:href="_state_estimation_app_8cpp.html" target="_top" xlink:title="Base class for State Estimation Application.">
<polygon fill="white" stroke="#666666" points="961.5,-19.25 839.75,-19.25 839.75,0 961.5,0 961.5,-19.25"/>
<text text-anchor="middle" x="900.62" y="-5.75" font-family="Helvetica,sans-Serif" font-size="10.00">StateEstimationApp.cpp</text>
</a>
</g>
</g>
<!-- Node10&#45;&gt;Node11 -->
<g id="edge11_Node000010_Node000011" class="edge">
<title>Node10&#45;&gt;Node11</title>
<g id="a_edge11_Node000010_Node000011"><a xlink:title=" ">
<path fill="none" stroke="#63b8ff" d="M899.36,-44.21C899.68,-35.77 900.04,-26.33 900.29,-19.61"/>
<polygon fill="#63b8ff" stroke="#63b8ff" points="895.83,-43.96 898.96,-54.08 902.83,-44.22 895.83,-43.96"/>
</a>
</g>
</g>
</g>
</svg>
