<?xml version="1.0" encoding="UTF-8" standalone="no"?>
<!DOCTYPE svg PUBLIC "-//W3C//DTD SVG 1.1//EN"
 "http://www.w3.org/Graphics/SVG/1.1/DTD/svg11.dtd">
<!-- Generated by graphviz version 8.1.0 (20230707.0739)
 -->
<!-- Title: GNSSChannel.h Pages: 1 -->
<svg width="629pt" height="337pt"
 viewBox="0.00 0.00 629.38 337.25" xmlns="http://www.w3.org/2000/svg" xmlns:xlink="http://www.w3.org/1999/xlink">
<g id="graph0" class="graph" transform="scale(1 1) rotate(0) translate(4 333.25)">
<title>GNSSChannel.h</title>
<!-- Node1 -->
<g id="Node000001" class="node">
<title>Node1</title>
<g id="a_Node000001"><a xlink:title="GNSS Channel class.">
<polygon fill="#999999" stroke="#666666" points="552.25,-329.25 463.5,-329.25 463.5,-310 552.25,-310 552.25,-329.25"/>
<text text-anchor="middle" x="507.88" y="-315.75" font-family="Helvetica,sans-Serif" font-size="10.00">GNSSChannel.h</text>
</a>
</g>
</g>
<!-- Node2 -->
<g id="Node000002" class="node">
<title>Node2</title>
<g id="a_Node000002"><a xlink:href="_occultation_8h.html" target="_top" xlink:title="Signal blockage model.">
<polygon fill="white" stroke="#666666" points="480.12,-207.5 375.62,-207.5 375.62,-177 480.12,-177 480.12,-207.5"/>
<text text-anchor="start" x="383.62" y="-194" font-family="Helvetica,sans-Serif" font-size="10.00">lupnt/measurements</text>
<text text-anchor="middle" x="427.88" y="-182.75" font-family="Helvetica,sans-Serif" font-size="10.00">/Occultation.h</text>
</a>
</g>
</g>
<!-- Node1&#45;&gt;Node2 -->
<g id="edge1_Node000001_Node000002" class="edge">
<title>Node1&#45;&gt;Node2</title>
<g id="a_edge1_Node000001_Node000002"><a xlink:title=" ">
<path fill="none" stroke="#63b8ff" d="M489.06,-309.52C475.31,-301.9 457.31,-289.75 446.88,-274 435.95,-257.51 431.28,-235.48 429.3,-218.6"/>
<polygon fill="#63b8ff" stroke="#63b8ff" points="432.71,-218.5 428.31,-208.86 425.74,-219.14 432.71,-218.5"/>
</a>
</g>
</g>
<!-- Node14 -->
<g id="Node000014" class="node">
<title>Node14</title>
<g id="a_Node000014"><a xlink:href="_space_channel_8h.html" target="_top" xlink:title="Base spacechannel class (Under devlopment )">
<polygon fill="white" stroke="#666666" points="560.12,-274 455.62,-274 455.62,-243.5 560.12,-243.5 560.12,-274"/>
<text text-anchor="start" x="463.62" y="-260.5" font-family="Helvetica,sans-Serif" font-size="10.00">lupnt/measurements</text>
<text text-anchor="middle" x="507.88" y="-249.25" font-family="Helvetica,sans-Serif" font-size="10.00">/SpaceChannel.h</text>
</a>
</g>
</g>
<!-- Node1&#45;&gt;Node14 -->
<g id="edge14_Node000001_Node000014" class="edge">
<title>Node1&#45;&gt;Node14</title>
<g id="a_edge14_Node000001_Node000014"><a xlink:title=" ">
<path fill="none" stroke="#63b8ff" d="M507.88,-309.68C507.88,-303.15 507.88,-293.95 507.88,-285.22"/>
<polygon fill="#63b8ff" stroke="#63b8ff" points="511.38,-285.28 507.88,-275.28 504.38,-285.28 511.38,-285.28"/>
</a>
</g>
</g>
<!-- Node16 -->
<g id="Node000016" class="node">
<title>Node16</title>
<g id="a_Node000016"><a xlink:title=" ">
<polygon fill="#e0e0e0" stroke="#999999" points="621.38,-268.38 578.38,-268.38 578.38,-249.12 621.38,-249.12 621.38,-268.38"/>
<text text-anchor="middle" x="599.88" y="-254.88" font-family="Helvetica,sans-Serif" font-size="10.00">vector</text>
</a>
</g>
</g>
<!-- Node1&#45;&gt;Node16 -->
<g id="edge17_Node000001_Node000016" class="edge">
<title>Node1&#45;&gt;Node16</title>
<g id="a_edge17_Node000001_Node000016"><a xlink:title=" ">
<path fill="none" stroke="#63b8ff" d="M521.85,-309.68C536.44,-300.35 559.56,-285.55 576.85,-274.48"/>
<polygon fill="#63b8ff" stroke="#63b8ff" points="578.23,-277.11 584.77,-268.78 574.46,-271.22 578.23,-277.11"/>
</a>
</g>
</g>
<!-- Node3 -->
<g id="Node000003" class="node">
<title>Node3</title>
<g id="a_Node000003"><a xlink:href="_constants_8h.html" target="_top" xlink:title="List of constants.">
<polygon fill="white" stroke="#666666" points="313.38,-135.38 198.38,-135.38 198.38,-116.12 313.38,-116.12 313.38,-135.38"/>
<text text-anchor="middle" x="255.88" y="-121.88" font-family="Helvetica,sans-Serif" font-size="10.00">lupnt/core/Constants.h</text>
</a>
</g>
</g>
<!-- Node2&#45;&gt;Node3 -->
<g id="edge2_Node000002_Node000003" class="edge">
<title>Node2&#45;&gt;Node3</title>
<g id="a_edge2_Node000002_Node000003"><a xlink:title=" ">
<path fill="none" stroke="#63b8ff" d="M388.85,-176.61C359.14,-165.47 318.65,-150.29 290.18,-139.61"/>
<polygon fill="#63b8ff" stroke="#63b8ff" points="291.49,-135.99 280.9,-135.76 289.04,-142.55 291.49,-135.99"/>
</a>
</g>
</g>
<!-- Node11 -->
<g id="Node000011" class="node">
<title>Node11</title>
<g id="a_Node000011"><a xlink:title=" ">
<polygon fill="#e0e0e0" stroke="#999999" points="434,-141 331.75,-141 331.75,-110.5 434,-110.5 434,-141"/>
<text text-anchor="start" x="339.75" y="-127.5" font-family="Helvetica,sans-Serif" font-size="10.00">autodiff/forward/real</text>
<text text-anchor="middle" x="382.88" y="-116.25" font-family="Helvetica,sans-Serif" font-size="10.00">/eigen.hpp</text>
</a>
</g>
</g>
<!-- Node2&#45;&gt;Node11 -->
<g id="edge11_Node000002_Node000011" class="edge">
<title>Node2&#45;&gt;Node11</title>
<g id="a_edge11_Node000002_Node000011"><a xlink:title=" ">
<path fill="none" stroke="#63b8ff" d="M417.66,-176.61C412.2,-168.78 405.34,-158.94 399.15,-150.08"/>
<polygon fill="#63b8ff" stroke="#63b8ff" points="401.64,-148.53 393.05,-142.33 395.9,-152.53 401.64,-148.53"/>
</a>
</g>
</g>
<!-- Node12 -->
<g id="Node000012" class="node">
<title>Node12</title>
<g id="a_Node000012"><a xlink:title=" ">
<polygon fill="#e0e0e0" stroke="#999999" points="495.38,-135.38 452.38,-135.38 452.38,-116.12 495.38,-116.12 495.38,-135.38"/>
<text text-anchor="middle" x="473.88" y="-121.88" font-family="Helvetica,sans-Serif" font-size="10.00">cmath</text>
</a>
</g>
</g>
<!-- Node2&#45;&gt;Node12 -->
<g id="edge12_Node000002_Node000012" class="edge">
<title>Node2&#45;&gt;Node12</title>
<g id="a_edge12_Node000002_Node000012"><a xlink:title=" ">
<path fill="none" stroke="#63b8ff" d="M438.31,-176.61C445.14,-167.04 454.1,-154.47 461.32,-144.35"/>
<polygon fill="#63b8ff" stroke="#63b8ff" points="464.63,-146.75 467.58,-136.57 458.93,-142.68 464.63,-146.75"/>
</a>
</g>
</g>
<!-- Node13 -->
<g id="Node000013" class="node">
<title>Node13</title>
<g id="a_Node000013"><a xlink:title=" ">
<polygon fill="#e0e0e0" stroke="#999999" points="548.25,-135.38 513.5,-135.38 513.5,-116.12 548.25,-116.12 548.25,-135.38"/>
<text text-anchor="middle" x="530.88" y="-121.88" font-family="Helvetica,sans-Serif" font-size="10.00">map</text>
</a>
</g>
</g>
<!-- Node2&#45;&gt;Node13 -->
<g id="edge13_Node000002_Node000013" class="edge">
<title>Node2&#45;&gt;Node13</title>
<g id="a_edge13_Node000002_Node000013"><a xlink:title=" ">
<path fill="none" stroke="#63b8ff" d="M451.25,-176.61C468.02,-166.11 490.53,-152.02 507.34,-141.49"/>
<polygon fill="#63b8ff" stroke="#63b8ff" points="508.87,-144.03 515.49,-135.76 505.15,-138.1 508.87,-144.03"/>
</a>
</g>
</g>
<!-- Node4 -->
<g id="Node000004" class="node">
<title>Node4</title>
<g id="a_Node000004"><a xlink:title=" ">
<polygon fill="#e0e0e0" stroke="#999999" points="133.75,-74.5 0,-74.5 0,-55.25 133.75,-55.25 133.75,-74.5"/>
<text text-anchor="middle" x="66.88" y="-61" font-family="Helvetica,sans-Serif" font-size="10.00">autodiff/common/eigen.hpp</text>
</a>
</g>
</g>
<!-- Node3&#45;&gt;Node4 -->
<g id="edge3_Node000003_Node000004" class="edge">
<title>Node3&#45;&gt;Node4</title>
<g id="a_edge3_Node000003_Node000004"><a xlink:title=" ">
<path fill="none" stroke="#63b8ff" d="M226.76,-115.68C194.43,-105.61 142.09,-89.3 106.15,-78.11"/>
<polygon fill="#63b8ff" stroke="#63b8ff" points="107.61,-74.59 97.03,-74.96 105.53,-81.27 107.61,-74.59"/>
</a>
</g>
</g>
<!-- Node5 -->
<g id="Node000005" class="node">
<title>Node5</title>
<g id="a_Node000005"><a xlink:title=" ">
<polygon fill="#e0e0e0" stroke="#999999" points="272.38,-74.5 151.38,-74.5 151.38,-55.25 272.38,-55.25 272.38,-74.5"/>
<text text-anchor="middle" x="211.88" y="-61" font-family="Helvetica,sans-Serif" font-size="10.00">autodiff/forward/real.hpp</text>
</a>
</g>
</g>
<!-- Node3&#45;&gt;Node5 -->
<g id="edge4_Node000003_Node000005" class="edge">
<title>Node3&#45;&gt;Node5</title>
<g id="a_edge4_Node000003_Node000005"><a xlink:title=" ">
<path fill="none" stroke="#63b8ff" d="M249.19,-115.81C242.8,-107.25 232.97,-94.1 225.01,-83.45"/>
<polygon fill="#63b8ff" stroke="#63b8ff" points="227.41,-81.82 218.62,-75.9 221.8,-86.01 227.41,-81.82"/>
</a>
</g>
</g>
<!-- Node6 -->
<g id="Node000006" class="node">
<title>Node6</title>
<g id="a_Node000006"><a xlink:title=" ">
<polygon fill="#e0e0e0" stroke="#999999" points="320.88,-19.25 280.88,-19.25 280.88,0 320.88,0 320.88,-19.25"/>
<text text-anchor="middle" x="300.88" y="-5.75" font-family="Helvetica,sans-Serif" font-size="10.00">string</text>
</a>
</g>
</g>
<!-- Node3&#45;&gt;Node6 -->
<g id="edge5_Node000003_Node000006" class="edge">
<title>Node3&#45;&gt;Node6</title>
<g id="a_edge5_Node000003_Node000006"><a xlink:title=" ">
<path fill="none" stroke="#63b8ff" d="M260.93,-115.69C266.33,-105.78 274.91,-89.33 280.88,-74.5 286.79,-59.81 292.07,-42.66 295.72,-29.83"/>
<polygon fill="#63b8ff" stroke="#63b8ff" points="299.3,-31.03 298.59,-20.46 292.55,-29.16 299.3,-31.03"/>
</a>
</g>
</g>
<!-- Node7 -->
<g id="Node000007" class="node">
<title>Node7</title>
<g id="a_Node000007"><a xlink:href="_user_file_path_8h.html" target="_top" xlink:title="File access utils.">
<polygon fill="white" stroke="#666666" points="410.5,-74.5 329.25,-74.5 329.25,-55.25 410.5,-55.25 410.5,-74.5"/>
<text text-anchor="middle" x="369.88" y="-61" font-family="Helvetica,sans-Serif" font-size="10.00">UserFilePath.h</text>
</a>
</g>
</g>
<!-- Node3&#45;&gt;Node7 -->
<g id="edge6_Node000003_Node000007" class="edge">
<title>Node3&#45;&gt;Node7</title>
<g id="a_edge6_Node000003_Node000007"><a xlink:title=" ">
<path fill="none" stroke="#63b8ff" d="M273.19,-115.81C291.69,-106.26 321.25,-90.99 342.83,-79.84"/>
<polygon fill="#63b8ff" stroke="#63b8ff" points="344.12,-82.6 351.4,-74.9 340.91,-76.38 344.12,-82.6"/>
</a>
</g>
</g>
<!-- Node7&#45;&gt;Node6 -->
<g id="edge10_Node000007_Node000006" class="edge">
<title>Node7&#45;&gt;Node6</title>
<g id="a_edge10_Node000007_Node000006"><a xlink:title=" ">
<path fill="none" stroke="#63b8ff" d="M358.17,-54.84C348,-46.99 333.04,-35.45 320.96,-26.12"/>
<polygon fill="#63b8ff" stroke="#63b8ff" points="323.46,-22.86 313.41,-19.52 319.19,-28.41 323.46,-22.86"/>
</a>
</g>
</g>
<!-- Node8 -->
<g id="Node000008" class="node">
<title>Node8</title>
<g id="a_Node000008"><a xlink:title=" ">
<polygon fill="#e0e0e0" stroke="#999999" points="400.38,-19.25 339.38,-19.25 339.38,0 400.38,0 400.38,-19.25"/>
<text text-anchor="middle" x="369.88" y="-5.75" font-family="Helvetica,sans-Serif" font-size="10.00">filesystem</text>
</a>
</g>
</g>
<!-- Node7&#45;&gt;Node8 -->
<g id="edge7_Node000007_Node000008" class="edge">
<title>Node7&#45;&gt;Node8</title>
<g id="a_edge7_Node000007_Node000008"><a xlink:title=" ">
<path fill="none" stroke="#63b8ff" d="M369.88,-55.08C369.88,-48.42 369.88,-38.99 369.88,-30.53"/>
<polygon fill="#63b8ff" stroke="#63b8ff" points="373.38,-30.61 369.88,-20.61 366.38,-30.61 373.38,-30.61"/>
</a>
</g>
</g>
<!-- Node9 -->
<g id="Node000009" class="node">
<title>Node9</title>
<g id="a_Node000009"><a xlink:title=" ">
<polygon fill="#e0e0e0" stroke="#999999" points="471.62,-19.25 418.12,-19.25 418.12,0 471.62,0 471.62,-19.25"/>
<text text-anchor="middle" x="444.88" y="-5.75" font-family="Helvetica,sans-Serif" font-size="10.00">iostream</text>
</a>
</g>
</g>
<!-- Node7&#45;&gt;Node9 -->
<g id="edge8_Node000007_Node000009" class="edge">
<title>Node7&#45;&gt;Node9</title>
<g id="a_edge8_Node000007_Node000009"><a xlink:title=" ">
<path fill="none" stroke="#63b8ff" d="M382.6,-54.84C393.7,-46.96 410.03,-35.36 423.19,-26.02"/>
<polygon fill="#63b8ff" stroke="#63b8ff" points="424.96,-28.35 431.09,-19.7 420.91,-22.64 424.96,-28.35"/>
</a>
</g>
</g>
<!-- Node10 -->
<g id="Node000010" class="node">
<title>Node10</title>
<g id="a_Node000010"><a xlink:title=" ">
<polygon fill="#e0e0e0" stroke="#999999" points="539.75,-19.25 490,-19.25 490,0 539.75,0 539.75,-19.25"/>
<text text-anchor="middle" x="514.88" y="-5.75" font-family="Helvetica,sans-Serif" font-size="10.00">optional</text>
</a>
</g>
</g>
<!-- Node7&#45;&gt;Node10 -->
<g id="edge9_Node000007_Node000010" class="edge">
<title>Node7&#45;&gt;Node10</title>
<g id="a_edge9_Node000007_Node000010"><a xlink:title=" ">
<path fill="none" stroke="#63b8ff" d="M394.47,-54.84C418.01,-46.2 453.74,-33.07 480.17,-23.37"/>
<polygon fill="#63b8ff" stroke="#63b8ff" points="480.98,-26.44 489.16,-19.7 478.56,-19.86 480.98,-26.44"/>
</a>
</g>
</g>
<!-- Node14&#45;&gt;Node2 -->
<g id="edge15_Node000014_Node000002" class="edge">
<title>Node14&#45;&gt;Node2</title>
<g id="a_edge15_Node000014_Node000002"><a xlink:title=" ">
<path fill="none" stroke="#63b8ff" d="M489.72,-243.11C479.29,-234.7 466,-223.98 454.41,-214.64"/>
<polygon fill="#63b8ff" stroke="#63b8ff" points="456.94,-211.38 446.96,-207.83 452.54,-216.83 456.94,-211.38"/>
</a>
</g>
</g>
<!-- Node15 -->
<g id="Node000015" class="node">
<title>Node15</title>
<g id="a_Node000015"><a xlink:title=" ">
<polygon fill="#e0e0e0" stroke="#999999" points="549.5,-201.88 498.25,-201.88 498.25,-182.62 549.5,-182.62 549.5,-201.88"/>
<text text-anchor="middle" x="523.88" y="-188.38" font-family="Helvetica,sans-Serif" font-size="10.00">memory</text>
</a>
</g>
</g>
<!-- Node14&#45;&gt;Node15 -->
<g id="edge16_Node000014_Node000015" class="edge">
<title>Node14&#45;&gt;Node15</title>
<g id="a_edge16_Node000014_Node000015"><a xlink:title=" ">
<path fill="none" stroke="#63b8ff" d="M511.51,-243.11C513.76,-234.03 516.68,-222.26 519.12,-212.43"/>
<polygon fill="#63b8ff" stroke="#63b8ff" points="522.68,-213.62 521.69,-203.07 515.88,-211.94 522.68,-213.62"/>
</a>
</g>
</g>
</g>
</svg>
