<?xml version="1.0" encoding="UTF-8" standalone="no"?>
<!DOCTYPE svg PUBLIC "-//W3C//DTD SVG 1.1//EN"
 "http://www.w3.org/Graphics/SVG/1.1/DTD/svg11.dtd">
<!-- Generated by graphviz version 8.1.0 (20230707.0739)
 -->
<!-- Title: GNSSMeasurement.h Pages: 1 -->
<svg width="995pt" height="193pt"
 viewBox="0.00 0.00 994.52 193.00" xmlns="http://www.w3.org/2000/svg" xmlns:xlink="http://www.w3.org/1999/xlink">
<g id="graph0" class="graph" transform="scale(1 1) rotate(0) translate(4 189)">
<title>GNSSMeasurement.h</title>
<!-- Node1 -->
<g id="Node000001" class="node">
<title>Node1</title>
<g id="a_Node000001"><a xlink:title="Class that constructs GPS measurement data from channel observables.">
<polygon fill="#999999" stroke="#666666" points="320.64,-185 208.64,-185 208.64,-165.75 320.64,-165.75 320.64,-185"/>
<text text-anchor="middle" x="264.64" y="-171.5" font-family="Helvetica,sans-Serif" font-size="10.00">GNSSMeasurement.h</text>
</a>
</g>
</g>
<!-- Node2 -->
<g id="Node000002" class="node">
<title>Node2</title>
<g id="a_Node000002"><a xlink:href="_example_constellations_8cpp.html" target="_top" xlink:title="Setup GNSS Constellation.">
<polygon fill="white" stroke="#666666" points="387.27,-19.25 252.02,-19.25 252.02,0 387.27,0 387.27,-19.25"/>
<text text-anchor="middle" x="319.64" y="-5.75" font-family="Helvetica,sans-Serif" font-size="10.00">ExampleConstellations.cpp</text>
</a>
</g>
</g>
<!-- Node1&#45;&gt;Node2 -->
<g id="edge1_Node000001_Node000002" class="edge">
<title>Node1&#45;&gt;Node2</title>
<g id="a_edge1_Node000001_Node000002"><a xlink:title=" ">
<path fill="none" stroke="#63b8ff" d="M237.66,-159.65C219.78,-147.76 201.07,-129.87 209.64,-110.5 228.86,-67.1 277.28,-34.49 302.99,-19.58"/>
<polygon fill="#63b8ff" stroke="#63b8ff" points="235.44,-163.01 245.78,-165.29 239.12,-157.06 235.44,-163.01"/>
</a>
</g>
</g>
<!-- Node3 -->
<g id="Node000003" class="node">
<title>Node3</title>
<g id="a_Node000003"><a xlink:href="_example_e_k_f_8cpp.html" target="_top" xlink:title="Example of Extended Kalman Filter for orbit determination.">
<polygon fill="white" stroke="#666666" points="91.14,-19.25 0.14,-19.25 0.14,0 91.14,0 91.14,-19.25"/>
<text text-anchor="middle" x="45.64" y="-5.75" font-family="Helvetica,sans-Serif" font-size="10.00">ExampleEKF.cpp</text>
</a>
</g>
</g>
<!-- Node1&#45;&gt;Node3 -->
<g id="edge2_Node000001_Node000003" class="edge">
<title>Node1&#45;&gt;Node3</title>
<g id="a_edge2_Node000001_Node000003"><a xlink:title=" ">
<path fill="none" stroke="#63b8ff" d="M197.64,-174.15C150.48,-171.01 87.78,-160.58 41.64,-129.75 10.9,-109.21 -8.78,-89.7 4.64,-55.25 10.37,-40.55 23.46,-27.75 33.32,-19.68"/>
<polygon fill="#63b8ff" stroke="#63b8ff" points="197.18,-177.68 207.36,-174.75 197.58,-170.69 197.18,-177.68"/>
</a>
</g>
</g>
<!-- Node4 -->
<g id="Node000004" class="node">
<title>Node4</title>
<g id="a_Node000004"><a xlink:href="_example_propagation_8cpp.html" target="_top" xlink:title="Example propagating both GPS constellation and Lunar Satellite.">
<polygon fill="white" stroke="#666666" points="234.02,-19.25 109.27,-19.25 109.27,0 234.02,0 234.02,-19.25"/>
<text text-anchor="middle" x="171.64" y="-5.75" font-family="Helvetica,sans-Serif" font-size="10.00">ExamplePropagation.cpp</text>
</a>
</g>
</g>
<!-- Node1&#45;&gt;Node4 -->
<g id="edge3_Node000001_Node000004" class="edge">
<title>Node1&#45;&gt;Node4</title>
<g id="a_edge3_Node000001_Node000004"><a xlink:title=" ">
<path fill="none" stroke="#63b8ff" d="M197.53,-169.89C136.06,-161.67 49.11,-138.64 11.64,-74.5 7.33,-67.11 6.47,-62.06 11.64,-55.25 23.94,-39.06 71.23,-27.16 111.23,-19.75"/>
<polygon fill="#63b8ff" stroke="#63b8ff" points="196.96,-173.47 207.31,-171.21 197.82,-166.52 196.96,-173.47"/>
</a>
</g>
</g>
<!-- Node5 -->
<g id="Node000005" class="node">
<title>Node5</title>
<g id="a_Node000005"><a xlink:href="_g_n_s_s_measurement_8cpp.html" target="_top" xlink:title="Class that constructs GPS measurement data from channel observables.">
<polygon fill="white" stroke="#666666" points="645.89,-129.75 523.39,-129.75 523.39,-110.5 645.89,-110.5 645.89,-129.75"/>
<text text-anchor="middle" x="584.64" y="-116.25" font-family="Helvetica,sans-Serif" font-size="10.00">GNSSMeasurement.cpp</text>
</a>
</g>
</g>
<!-- Node1&#45;&gt;Node5 -->
<g id="edge4_Node000001_Node000005" class="edge">
<title>Node1&#45;&gt;Node5</title>
<g id="a_edge4_Node000001_Node000005"><a xlink:title=" ">
<path fill="none" stroke="#63b8ff" d="M329.97,-163.5C388.89,-153.7 474.57,-139.44 529.95,-130.23"/>
<polygon fill="#63b8ff" stroke="#63b8ff" points="329.58,-160.19 320.29,-165.28 330.73,-167.09 329.58,-160.19"/>
</a>
</g>
</g>
<!-- Node6 -->
<g id="Node000006" class="node">
<title>Node6</title>
<g id="a_Node000006"><a xlink:href="_g_n_s_s_receiver_8cpp.html" target="_top" xlink:title="GNSS Receiver class.">
<polygon fill="white" stroke="#666666" points="122.39,-74.5 20.89,-74.5 20.89,-55.25 122.39,-55.25 122.39,-74.5"/>
<text text-anchor="middle" x="71.64" y="-61" font-family="Helvetica,sans-Serif" font-size="10.00">GNSSReceiver.cpp</text>
</a>
</g>
</g>
<!-- Node1&#45;&gt;Node6 -->
<g id="edge5_Node000001_Node000006" class="edge">
<title>Node1&#45;&gt;Node6</title>
<g id="a_edge5_Node000001_Node000006"><a xlink:title=" ">
<path fill="none" stroke="#63b8ff" d="M214.01,-162.32C189.5,-155.12 160.32,-144.47 136.64,-129.75 112.19,-114.55 89.65,-88.68 78.66,-74.99"/>
<polygon fill="#63b8ff" stroke="#63b8ff" points="212.98,-165.94 223.55,-165.29 214.88,-159.21 212.98,-165.94"/>
</a>
</g>
</g>
<!-- Node7 -->
<g id="Node000007" class="node">
<title>Node7</title>
<g id="a_Node000007"><a xlink:href="_g_n_s_s_receiver_8h.html" target="_top" xlink:title="GNSS receiver class.">
<polygon fill="white" stroke="#666666" points="310.14,-129.75 219.14,-129.75 219.14,-110.5 310.14,-110.5 310.14,-129.75"/>
<text text-anchor="middle" x="264.64" y="-116.25" font-family="Helvetica,sans-Serif" font-size="10.00">GNSSReceiver.h</text>
</a>
</g>
</g>
<!-- Node1&#45;&gt;Node7 -->
<g id="edge6_Node000001_Node000007" class="edge">
<title>Node1&#45;&gt;Node7</title>
<g id="a_edge6_Node000001_Node000007"><a xlink:title=" ">
<path fill="none" stroke="#63b8ff" d="M264.64,-154.71C264.64,-146.27 264.64,-136.83 264.64,-130.11"/>
<polygon fill="#63b8ff" stroke="#63b8ff" points="261.14,-154.58 264.64,-164.58 268.14,-154.58 261.14,-154.58"/>
</a>
</g>
</g>
<!-- Node10 -->
<g id="Node000010" class="node">
<title>Node10</title>
<g id="a_Node000010"><a xlink:href="_g_n_s_s_state_estimation_app_8h.html" target="_top" xlink:title="State Estimation Application Using GNSS Measurement.">
<polygon fill="white" stroke="#666666" points="846.52,-74.5 706.77,-74.5 706.77,-55.25 846.52,-55.25 846.52,-74.5"/>
<text text-anchor="middle" x="776.64" y="-61" font-family="Helvetica,sans-Serif" font-size="10.00">GNSSStateEstimationApp.h</text>
</a>
</g>
</g>
<!-- Node1&#45;&gt;Node10 -->
<g id="edge18_Node000001_Node000010" class="edge">
<title>Node1&#45;&gt;Node10</title>
<g id="a_edge18_Node000001_Node000010"><a xlink:title=" ">
<path fill="none" stroke="#63b8ff" d="M318.9,-162.96C353.59,-155.05 399.29,-143.49 438.64,-129.75 458.41,-122.85 461.55,-116.4 481.64,-110.5 522.58,-98.48 633.01,-83.45 706.52,-74.26"/>
<polygon fill="#63b8ff" stroke="#63b8ff" points="318.5,-159.69 309.51,-165.29 320.04,-166.52 318.5,-159.69"/>
</a>
</g>
</g>
<!-- Node12 -->
<g id="Node000012" class="node">
<title>Node12</title>
<g id="a_Node000012"><a xlink:href="_state_estimation_app_8h.html" target="_top" xlink:title="Base class for State Estimation Application.">
<polygon fill="white" stroke="#666666" points="976.27,-74.5 865.02,-74.5 865.02,-55.25 976.27,-55.25 976.27,-74.5"/>
<text text-anchor="middle" x="920.64" y="-61" font-family="Helvetica,sans-Serif" font-size="10.00">StateEstimationApp.h</text>
</a>
</g>
</g>
<!-- Node1&#45;&gt;Node12 -->
<g id="edge28_Node000001_Node000012" class="edge">
<title>Node1&#45;&gt;Node12</title>
<g id="a_edge28_Node000001_Node000012"><a xlink:title=" ">
<path fill="none" stroke="#63b8ff" d="M331.5,-164.37C373.32,-157.09 427.92,-145.7 474.64,-129.75 493.31,-123.38 495.66,-115.89 514.64,-110.5 661.24,-68.84 704.31,-92.52 855.64,-74.5 858.58,-74.15 861.59,-73.78 864.63,-73.4"/>
<polygon fill="#63b8ff" stroke="#63b8ff" points="331.16,-161.05 321.89,-166.18 332.34,-167.95 331.16,-161.05"/>
</a>
</g>
</g>
<!-- Node14 -->
<g id="Node000014" class="node">
<title>Node14</title>
<g id="a_Node000014"><a xlink:href="_g_n_s_s_transmitter_8h.html" target="_top" xlink:title="Handles GNSS transmit.">
<polygon fill="white" stroke="#666666" points="429.39,-129.75 327.89,-129.75 327.89,-110.5 429.39,-110.5 429.39,-129.75"/>
<text text-anchor="middle" x="378.64" y="-116.25" font-family="Helvetica,sans-Serif" font-size="10.00">GNSSTransmitter.h</text>
</a>
</g>
</g>
<!-- Node1&#45;&gt;Node14 -->
<g id="edge19_Node000001_Node000014" class="edge">
<title>Node1&#45;&gt;Node14</title>
<g id="a_edge19_Node000001_Node000014"><a xlink:title=" ">
<path fill="none" stroke="#63b8ff" d="M293.77,-160.77C314.3,-151.18 341.24,-138.59 359.21,-130.2"/>
<polygon fill="#63b8ff" stroke="#63b8ff" points="292.56,-157.94 284.98,-165.34 295.52,-164.28 292.56,-157.94"/>
</a>
</g>
</g>
<!-- Node7&#45;&gt;Node2 -->
<g id="edge7_Node000007_Node000002" class="edge">
<title>Node7&#45;&gt;Node2</title>
<g id="a_edge7_Node000007_Node000002"><a xlink:title=" ">
<path fill="none" stroke="#63b8ff" d="M268.41,-99.44C271.4,-86.41 276.31,-69.21 283.64,-55.25 290.87,-41.5 302.65,-27.94 310.76,-19.44"/>
<polygon fill="#63b8ff" stroke="#63b8ff" points="264.81,-98.52 266.19,-109.03 271.67,-99.96 264.81,-98.52"/>
</a>
</g>
</g>
<!-- Node7&#45;&gt;Node3 -->
<g id="edge8_Node000007_Node000003" class="edge">
<title>Node7&#45;&gt;Node3</title>
<g id="a_edge8_Node000007_Node000003"><a xlink:title=" ">
<path fill="none" stroke="#63b8ff" d="M236.54,-105.2C191.01,-82.64 102.37,-38.73 64.04,-19.74"/>
<polygon fill="#63b8ff" stroke="#63b8ff" points="234.83,-108.76 245.35,-110.06 237.94,-102.49 234.83,-108.76"/>
</a>
</g>
</g>
<!-- Node7&#45;&gt;Node4 -->
<g id="edge10_Node000007_Node000004" class="edge">
<title>Node7&#45;&gt;Node4</title>
<g id="a_edge10_Node000007_Node000004"><a xlink:title=" ">
<path fill="none" stroke="#63b8ff" d="M249.94,-101.97C229.93,-78.63 194.84,-37.69 179.36,-19.63"/>
<polygon fill="#63b8ff" stroke="#63b8ff" points="247.87,-103.93 257.03,-109.25 253.18,-99.38 247.87,-103.93"/>
</a>
</g>
</g>
<!-- Node7&#45;&gt;Node6 -->
<g id="edge12_Node000007_Node000006" class="edge">
<title>Node7&#45;&gt;Node6</title>
<g id="a_edge12_Node000007_Node000006"><a xlink:title=" ">
<path fill="none" stroke="#63b8ff" d="M221.41,-107.2C186.03,-97.44 136.76,-83.84 104.54,-74.95"/>
<polygon fill="#63b8ff" stroke="#63b8ff" points="220.33,-110.81 230.9,-110.09 222.19,-104.06 220.33,-110.81"/>
</a>
</g>
</g>
<!-- Node8 -->
<g id="Node000008" class="node">
<title>Node8</title>
<g id="a_Node000008"><a xlink:href="_example_e_k_f_app_8cpp.html" target="_top" xlink:title="Example of EKF application.">
<polygon fill="white" stroke="#666666" points="653.52,-19.25 543.77,-19.25 543.77,0 653.52,0 653.52,-19.25"/>
<text text-anchor="middle" x="598.64" y="-5.75" font-family="Helvetica,sans-Serif" font-size="10.00">ExampleEKFApp.cpp</text>
</a>
</g>
</g>
<!-- Node7&#45;&gt;Node8 -->
<g id="edge9_Node000007_Node000008" class="edge">
<title>Node7&#45;&gt;Node8</title>
<g id="a_edge9_Node000007_Node000008"><a xlink:title=" ">
<path fill="none" stroke="#63b8ff" d="M320.77,-110.08C397.15,-97.72 524.96,-76.8 529.64,-74.5 556.89,-61.11 580.97,-33.46 592.1,-19.34"/>
<polygon fill="#63b8ff" stroke="#63b8ff" points="320.67,-106.72 311.35,-111.77 321.79,-113.63 320.67,-106.72"/>
</a>
</g>
</g>
<!-- Node9 -->
<g id="Node000009" class="node">
<title>Node9</title>
<g id="a_Node000009"><a xlink:href="_g_n_s_s_channel_8cpp.html" target="_top" xlink:title="GNSS Channel.">
<polygon fill="white" stroke="#666666" points="392.27,-74.5 293.02,-74.5 293.02,-55.25 392.27,-55.25 392.27,-74.5"/>
<text text-anchor="middle" x="342.64" y="-61" font-family="Helvetica,sans-Serif" font-size="10.00">GNSSChannel.cpp</text>
</a>
</g>
</g>
<!-- Node7&#45;&gt;Node9 -->
<g id="edge11_Node000007_Node000009" class="edge">
<title>Node7&#45;&gt;Node9</title>
<g id="a_edge11_Node000007_Node000009"><a xlink:title=" ">
<path fill="none" stroke="#63b8ff" d="M286.72,-104.05C300.46,-94.67 317.67,-82.92 329.35,-74.95"/>
<polygon fill="#63b8ff" stroke="#63b8ff" points="285.16,-101.56 278.87,-110.09 289.11,-107.34 285.16,-101.56"/>
</a>
</g>
</g>
<!-- Node7&#45;&gt;Node10 -->
<g id="edge13_Node000007_Node000010" class="edge">
<title>Node7&#45;&gt;Node10</title>
<g id="a_edge13_Node000007_Node000010"><a xlink:title=" ">
<path fill="none" stroke="#63b8ff" d="M321.23,-110.24C488.3,-89.24 532.77,-91.33 697.64,-74.5 700.52,-74.21 703.47,-73.9 706.44,-73.59"/>
<polygon fill="#63b8ff" stroke="#63b8ff" points="321.05,-106.86 311.57,-111.59 321.93,-113.8 321.05,-106.86"/>
</a>
</g>
</g>
<!-- Node7&#45;&gt;Node12 -->
<g id="edge16_Node000007_Node000012" class="edge">
<title>Node7&#45;&gt;Node12</title>
<g id="a_edge16_Node000007_Node000012"><a xlink:title=" ">
<path fill="none" stroke="#63b8ff" d="M321.24,-110.3C558.16,-84.03 621.11,-97.9 855.64,-74.5 858.59,-74.21 861.6,-73.88 864.65,-73.54"/>
<polygon fill="#63b8ff" stroke="#63b8ff" points="321.11,-106.9 311.56,-111.5 321.89,-113.86 321.11,-106.9"/>
</a>
</g>
</g>
<!-- Node10&#45;&gt;Node8 -->
<g id="edge14_Node000010_Node000008" class="edge">
<title>Node10&#45;&gt;Node8</title>
<g id="a_edge14_Node000010_Node000008"><a xlink:title=" ">
<path fill="none" stroke="#63b8ff" d="M735.92,-51.69C703.36,-41.95 658.44,-28.52 628.99,-19.7"/>
<polygon fill="#63b8ff" stroke="#63b8ff" points="734.86,-55.33 745.45,-54.84 736.87,-48.62 734.86,-55.33"/>
</a>
</g>
</g>
<!-- Node11 -->
<g id="Node000011" class="node">
<title>Node11</title>
<g id="a_Node000011"><a xlink:href="_g_n_s_s_state_estimation_app_8cpp.html" target="_top" xlink:title="State Estimation Application Using GNSS Measurement.">
<polygon fill="white" stroke="#666666" points="846.77,-19.25 696.52,-19.25 696.52,0 846.77,0 846.77,-19.25"/>
<text text-anchor="middle" x="771.64" y="-5.75" font-family="Helvetica,sans-Serif" font-size="10.00">GNSSStateEstimationApp.cpp</text>
</a>
</g>
</g>
<!-- Node10&#45;&gt;Node11 -->
<g id="edge15_Node000010_Node000011" class="edge">
<title>Node10&#45;&gt;Node11</title>
<g id="a_edge15_Node000010_Node000011"><a xlink:title=" ">
<path fill="none" stroke="#63b8ff" d="M774.8,-44.21C774,-35.77 773.12,-26.33 772.49,-19.61"/>
<polygon fill="#63b8ff" stroke="#63b8ff" points="771.4,-44.45 775.82,-54.08 778.37,-43.8 771.4,-44.45"/>
</a>
</g>
</g>
<!-- Node13 -->
<g id="Node000013" class="node">
<title>Node13</title>
<g id="a_Node000013"><a xlink:href="_state_estimation_app_8cpp.html" target="_top" xlink:title="Base class for State Estimation Application.">
<polygon fill="white" stroke="#666666" points="986.52,-19.25 864.77,-19.25 864.77,0 986.52,0 986.52,-19.25"/>
<text text-anchor="middle" x="925.64" y="-5.75" font-family="Helvetica,sans-Serif" font-size="10.00">StateEstimationApp.cpp</text>
</a>
</g>
</g>
<!-- Node12&#45;&gt;Node13 -->
<g id="edge17_Node000012_Node000013" class="edge">
<title>Node12&#45;&gt;Node13</title>
<g id="a_edge17_Node000012_Node000013"><a xlink:title=" ">
<path fill="none" stroke="#63b8ff" d="M922.49,-44.21C923.28,-35.77 924.17,-26.33 924.8,-19.61"/>
<polygon fill="#63b8ff" stroke="#63b8ff" points="918.92,-43.8 921.47,-54.08 925.89,-44.45 918.92,-43.8"/>
</a>
</g>
</g>
<!-- Node14&#45;&gt;Node9 -->
<g id="edge20_Node000014_Node000009" class="edge">
<title>Node14&#45;&gt;Node9</title>
<g id="a_edge20_Node000014_Node000009"><a xlink:title=" ">
<path fill="none" stroke="#63b8ff" d="M366.71,-101.47C360.68,-92.56 353.62,-82.12 348.72,-74.86"/>
<polygon fill="#63b8ff" stroke="#63b8ff" points="364.2,-103.01 372.7,-109.33 370,-99.09 364.2,-103.01"/>
</a>
</g>
</g>
<!-- Node15 -->
<g id="Node000015" class="node">
<title>Node15</title>
<g id="a_Node000015"><a xlink:href="_g_n_s_s_constellation_8h.html" target="_top" xlink:title=" ">
<polygon fill="white" stroke="#666666" points="520.52,-74.5 410.77,-74.5 410.77,-55.25 520.52,-55.25 520.52,-74.5"/>
<text text-anchor="middle" x="465.64" y="-61" font-family="Helvetica,sans-Serif" font-size="10.00">GNSSConstellation.h</text>
</a>
</g>
</g>
<!-- Node14&#45;&gt;Node15 -->
<g id="edge21_Node000014_Node000015" class="edge">
<title>Node14&#45;&gt;Node15</title>
<g id="a_edge21_Node000014_Node000015"><a xlink:title=" ">
<path fill="none" stroke="#63b8ff" d="M402.39,-104.59C417.85,-95.13 437.54,-83.08 450.81,-74.95"/>
<polygon fill="#63b8ff" stroke="#63b8ff" points="401.1,-101.89 394.4,-110.09 404.76,-107.86 401.1,-101.89"/>
</a>
</g>
</g>
<!-- Node17 -->
<g id="Node000017" class="node">
<title>Node17</title>
<g id="a_Node000017"><a xlink:href="_g_n_s_s_transmitter_8cpp.html" target="_top" xlink:title="Handles GNSS transmit.">
<polygon fill="white" stroke="#666666" points="688.64,-74.5 576.64,-74.5 576.64,-55.25 688.64,-55.25 688.64,-74.5"/>
<text text-anchor="middle" x="632.64" y="-61" font-family="Helvetica,sans-Serif" font-size="10.00">GNSSTransmitter.cpp</text>
</a>
</g>
</g>
<!-- Node14&#45;&gt;Node17 -->
<g id="edge27_Node000014_Node000017" class="edge">
<title>Node14&#45;&gt;Node17</title>
<g id="a_edge27_Node000014_Node000017"><a xlink:title=" ">
<path fill="none" stroke="#63b8ff" d="M432.56,-107.82C479.33,-98.02 546.13,-84.01 589.45,-74.93"/>
<polygon fill="#63b8ff" stroke="#63b8ff" points="432.09,-104.55 423.02,-110.03 433.52,-111.41 432.09,-104.55"/>
</a>
</g>
</g>
<!-- Node15&#45;&gt;Node2 -->
<g id="edge22_Node000015_Node000002" class="edge">
<title>Node15&#45;&gt;Node2</title>
<g id="a_edge22_Node000015_Node000002"><a xlink:title=" ">
<path fill="none" stroke="#63b8ff" d="M430.84,-51.18C404.26,-41.49 368.27,-28.36 344.53,-19.7"/>
<polygon fill="#63b8ff" stroke="#63b8ff" points="429.28,-54.7 439.87,-54.84 431.68,-48.13 429.28,-54.7"/>
</a>
</g>
</g>
<!-- Node15&#45;&gt;Node3 -->
<g id="edge23_Node000015_Node000003" class="edge">
<title>Node15&#45;&gt;Node3</title>
<g id="a_edge23_Node000015_Node000003"><a xlink:title=" ">
<path fill="none" stroke="#63b8ff" d="M399.84,-55.04C266.2,-38.21 230.72,-37.22 100.64,-19.25 97.67,-18.84 94.62,-18.4 91.54,-17.95"/>
<polygon fill="#63b8ff" stroke="#63b8ff" points="399.13,-58.61 409.49,-56.39 400.01,-51.66 399.13,-58.61"/>
</a>
</g>
</g>
<!-- Node15&#45;&gt;Node4 -->
<g id="edge25_Node000015_Node000004" class="edge">
<title>Node15&#45;&gt;Node4</title>
<g id="a_edge25_Node000015_Node000004"><a xlink:title=" ">
<path fill="none" stroke="#63b8ff" d="M404.93,-52.88C350.73,-43.06 272.3,-28.86 221.64,-19.68"/>
<polygon fill="#63b8ff" stroke="#63b8ff" points="403.97,-56.44 414.44,-54.78 405.22,-49.56 403.97,-56.44"/>
</a>
</g>
</g>
<!-- Node15&#45;&gt;Node8 -->
<g id="edge24_Node000015_Node000008" class="edge">
<title>Node15&#45;&gt;Node8</title>
<g id="a_edge24_Node000015_Node000008"><a xlink:title=" ">
<path fill="none" stroke="#63b8ff" d="M498.32,-50.79C522.43,-41.14 554.63,-28.25 575.97,-19.7"/>
<polygon fill="#63b8ff" stroke="#63b8ff" points="497.19,-47.88 489.2,-54.84 499.79,-54.37 497.19,-47.88"/>
</a>
</g>
</g>
<!-- Node16 -->
<g id="Node000016" class="node">
<title>Node16</title>
<g id="a_Node000016"><a xlink:href="_g_n_s_s_constellation_8cpp.html" target="_top" xlink:title="GNSS Constellation.">
<polygon fill="white" stroke="#666666" points="525.77,-19.25 405.52,-19.25 405.52,0 525.77,0 525.77,-19.25"/>
<text text-anchor="middle" x="465.64" y="-5.75" font-family="Helvetica,sans-Serif" font-size="10.00">GNSSConstellation.cpp</text>
</a>
</g>
</g>
<!-- Node15&#45;&gt;Node16 -->
<g id="edge26_Node000015_Node000016" class="edge">
<title>Node15&#45;&gt;Node16</title>
<g id="a_edge26_Node000015_Node000016"><a xlink:title=" ">
<path fill="none" stroke="#63b8ff" d="M465.64,-44.21C465.64,-35.77 465.64,-26.33 465.64,-19.61"/>
<polygon fill="#63b8ff" stroke="#63b8ff" points="462.14,-44.08 465.64,-54.08 469.14,-44.08 462.14,-44.08"/>
</a>
</g>
</g>
</g>
</svg>
