<?xml version="1.0" encoding="UTF-8" standalone="no"?>
<!DOCTYPE svg PUBLIC "-//W3C//DTD SVG 1.1//EN"
 "http://www.w3.org/Graphics/SVG/1.1/DTD/svg11.dtd">
<!-- Generated by graphviz version 8.1.0 (20230707.0739)
 -->
<!-- Title: GNSSTransmitter.h Pages: 1 -->
<svg width="661pt" height="138pt"
 viewBox="0.00 0.00 660.75 137.75" xmlns="http://www.w3.org/2000/svg" xmlns:xlink="http://www.w3.org/1999/xlink">
<g id="graph0" class="graph" transform="scale(1 1) rotate(0) translate(4 133.75)">
<title>GNSSTransmitter.h</title>
<!-- Node1 -->
<g id="Node000001" class="node">
<title>Node1</title>
<g id="a_Node000001"><a xlink:title="Handles GNSS transmit.">
<polygon fill="#999999" stroke="#666666" points="367.38,-129.75 265.88,-129.75 265.88,-110.5 367.38,-110.5 367.38,-129.75"/>
<text text-anchor="middle" x="316.62" y="-116.25" font-family="Helvetica,sans-Serif" font-size="10.00">GNSSTransmitter.h</text>
</a>
</g>
</g>
<!-- Node2 -->
<g id="Node000002" class="node">
<title>Node2</title>
<g id="a_Node000002"><a xlink:href="_g_n_s_s_channel_8cpp.html" target="_top" xlink:title="GNSS Channel.">
<polygon fill="white" stroke="#666666" points="243.25,-74.5 144,-74.5 144,-55.25 243.25,-55.25 243.25,-74.5"/>
<text text-anchor="middle" x="193.62" y="-61" font-family="Helvetica,sans-Serif" font-size="10.00">GNSSChannel.cpp</text>
</a>
</g>
</g>
<!-- Node1&#45;&gt;Node2 -->
<g id="edge1_Node000001_Node000002" class="edge">
<title>Node1&#45;&gt;Node2</title>
<g id="a_edge1_Node000001_Node000002"><a xlink:title=" ">
<path fill="none" stroke="#63b8ff" d="M285.81,-105.78C263.58,-96.16 234.15,-83.42 214.59,-74.95"/>
<polygon fill="#63b8ff" stroke="#63b8ff" points="284.19,-109.33 294.76,-110.09 286.97,-102.91 284.19,-109.33"/>
</a>
</g>
</g>
<!-- Node3 -->
<g id="Node000003" class="node">
<title>Node3</title>
<g id="a_Node000003"><a xlink:href="_g_n_s_s_constellation_8h.html" target="_top" xlink:title=" ">
<polygon fill="white" stroke="#666666" points="371.5,-74.5 261.75,-74.5 261.75,-55.25 371.5,-55.25 371.5,-74.5"/>
<text text-anchor="middle" x="316.62" y="-61" font-family="Helvetica,sans-Serif" font-size="10.00">GNSSConstellation.h</text>
</a>
</g>
</g>
<!-- Node1&#45;&gt;Node3 -->
<g id="edge2_Node000001_Node000003" class="edge">
<title>Node1&#45;&gt;Node3</title>
<g id="a_edge2_Node000001_Node000003"><a xlink:title=" ">
<path fill="none" stroke="#63b8ff" d="M316.62,-99.46C316.62,-91.02 316.62,-81.58 316.62,-74.86"/>
<polygon fill="#63b8ff" stroke="#63b8ff" points="313.13,-99.33 316.62,-109.33 320.13,-99.33 313.13,-99.33"/>
</a>
</g>
</g>
<!-- Node9 -->
<g id="Node000009" class="node">
<title>Node9</title>
<g id="a_Node000009"><a xlink:href="_g_n_s_s_transmitter_8cpp.html" target="_top" xlink:title="Handles GNSS transmit.">
<polygon fill="white" stroke="#666666" points="501.62,-74.5 389.62,-74.5 389.62,-55.25 501.62,-55.25 501.62,-74.5"/>
<text text-anchor="middle" x="445.62" y="-61" font-family="Helvetica,sans-Serif" font-size="10.00">GNSSTransmitter.cpp</text>
</a>
</g>
</g>
<!-- Node1&#45;&gt;Node9 -->
<g id="edge8_Node000001_Node000009" class="edge">
<title>Node1&#45;&gt;Node9</title>
<g id="a_edge8_Node000001_Node000009"><a xlink:title=" ">
<path fill="none" stroke="#63b8ff" d="M348.63,-105.91C371.98,-96.27 403.03,-83.46 423.63,-74.95"/>
<polygon fill="#63b8ff" stroke="#63b8ff" points="347.42,-103.04 339.51,-110.09 350.09,-109.51 347.42,-103.04"/>
</a>
</g>
</g>
<!-- Node4 -->
<g id="Node000004" class="node">
<title>Node4</title>
<g id="a_Node000004"><a xlink:href="_example_constellations_8cpp.html" target="_top" xlink:title="Setup GNSS Constellation.">
<polygon fill="white" stroke="#666666" points="135.25,-19.25 0,-19.25 0,0 135.25,0 135.25,-19.25"/>
<text text-anchor="middle" x="67.62" y="-5.75" font-family="Helvetica,sans-Serif" font-size="10.00">ExampleConstellations.cpp</text>
</a>
</g>
</g>
<!-- Node3&#45;&gt;Node4 -->
<g id="edge3_Node000003_Node000004" class="edge">
<title>Node3&#45;&gt;Node4</title>
<g id="a_edge3_Node000003_Node000004"><a xlink:title=" ">
<path fill="none" stroke="#63b8ff" d="M263.48,-52.51C217.65,-42.71 152.34,-28.74 109.97,-19.68"/>
<polygon fill="#63b8ff" stroke="#63b8ff" points="262.59,-56.11 273.1,-54.78 264.06,-49.27 262.59,-56.11"/>
</a>
</g>
</g>
<!-- Node5 -->
<g id="Node000005" class="node">
<title>Node5</title>
<g id="a_Node000005"><a xlink:href="_example_e_k_f_8cpp.html" target="_top" xlink:title="Example of Extended Kalman Filter for orbit determination.">
<polygon fill="white" stroke="#666666" points="244.12,-19.25 153.12,-19.25 153.12,0 244.12,0 244.12,-19.25"/>
<text text-anchor="middle" x="198.62" y="-5.75" font-family="Helvetica,sans-Serif" font-size="10.00">ExampleEKF.cpp</text>
</a>
</g>
</g>
<!-- Node3&#45;&gt;Node5 -->
<g id="edge4_Node000003_Node000005" class="edge">
<title>Node3&#45;&gt;Node5</title>
<g id="a_edge4_Node000003_Node000005"><a xlink:title=" ">
<path fill="none" stroke="#63b8ff" d="M286.77,-50.4C265.48,-40.79 237.42,-28.13 218.74,-19.7"/>
<polygon fill="#63b8ff" stroke="#63b8ff" points="285.05,-53.92 295.61,-54.84 287.93,-47.54 285.05,-53.92"/>
</a>
</g>
</g>
<!-- Node6 -->
<g id="Node000006" class="node">
<title>Node6</title>
<g id="a_Node000006"><a xlink:href="_example_e_k_f_app_8cpp.html" target="_top" xlink:title="Example of EKF application.">
<polygon fill="white" stroke="#666666" points="371.5,-19.25 261.75,-19.25 261.75,0 371.5,0 371.5,-19.25"/>
<text text-anchor="middle" x="316.62" y="-5.75" font-family="Helvetica,sans-Serif" font-size="10.00">ExampleEKFApp.cpp</text>
</a>
</g>
</g>
<!-- Node3&#45;&gt;Node6 -->
<g id="edge5_Node000003_Node000006" class="edge">
<title>Node3&#45;&gt;Node6</title>
<g id="a_edge5_Node000003_Node000006"><a xlink:title=" ">
<path fill="none" stroke="#63b8ff" d="M316.62,-44.21C316.62,-35.77 316.62,-26.33 316.62,-19.61"/>
<polygon fill="#63b8ff" stroke="#63b8ff" points="313.13,-44.08 316.62,-54.08 320.13,-44.08 313.13,-44.08"/>
</a>
</g>
</g>
<!-- Node7 -->
<g id="Node000007" class="node">
<title>Node7</title>
<g id="a_Node000007"><a xlink:href="_example_propagation_8cpp.html" target="_top" xlink:title="Example propagating both GPS constellation and Lunar Satellite.">
<polygon fill="white" stroke="#666666" points="514,-19.25 389.25,-19.25 389.25,0 514,0 514,-19.25"/>
<text text-anchor="middle" x="451.62" y="-5.75" font-family="Helvetica,sans-Serif" font-size="10.00">ExamplePropagation.cpp</text>
</a>
</g>
</g>
<!-- Node3&#45;&gt;Node7 -->
<g id="edge6_Node000003_Node000007" class="edge">
<title>Node3&#45;&gt;Node7</title>
<g id="a_edge6_Node000003_Node000007"><a xlink:title=" ">
<path fill="none" stroke="#63b8ff" d="M349.46,-50.92C373.97,-41.25 406.85,-28.29 428.61,-19.7"/>
<polygon fill="#63b8ff" stroke="#63b8ff" points="348.54,-47.92 340.53,-54.84 351.11,-54.43 348.54,-47.92"/>
</a>
</g>
</g>
<!-- Node8 -->
<g id="Node000008" class="node">
<title>Node8</title>
<g id="a_Node000008"><a xlink:href="_g_n_s_s_constellation_8cpp.html" target="_top" xlink:title="GNSS Constellation.">
<polygon fill="white" stroke="#666666" points="652.75,-19.25 532.5,-19.25 532.5,0 652.75,0 652.75,-19.25"/>
<text text-anchor="middle" x="592.62" y="-5.75" font-family="Helvetica,sans-Serif" font-size="10.00">GNSSConstellation.cpp</text>
</a>
</g>
</g>
<!-- Node3&#45;&gt;Node8 -->
<g id="edge7_Node000003_Node000008" class="edge">
<title>Node3&#45;&gt;Node8</title>
<g id="a_edge7_Node000003_Node000008"><a xlink:title=" ">
<path fill="none" stroke="#63b8ff" d="M374.25,-52.76C425.11,-42.94 498.32,-28.82 545.69,-19.68"/>
<polygon fill="#63b8ff" stroke="#63b8ff" points="373.91,-49.45 364.76,-54.78 375.24,-56.32 373.91,-49.45"/>
</a>
</g>
</g>
</g>
</svg>
