<?xml version="1.0" encoding="UTF-8" standalone="no"?>
<!DOCTYPE svg PUBLIC "-//W3C//DTD SVG 1.1//EN"
 "http://www.w3.org/Graphics/SVG/1.1/DTD/svg11.dtd">
<!-- Generated by graphviz version 8.1.0 (20230707.0739)
 -->
<!-- Title: GravityField.h Pages: 1 -->
<!--zoomable 248 -->

<svg id="main" version="1.1" xmlns="http://www.w3.org/2000/svg" xmlns:xlink="http://www.w3.org/1999/xlink" xml:space="preserve" onload="init(evt)">
<style type="text/css"><![CDATA[
.node, .edge {opacity: 0.7;}
.node.selected, .edge.selected {opacity: 1;}
.edge:hover path { stroke: red; }
.edge:hover polygon { stroke: red; fill: red; }
]]></style>

<defs>
  <circle id="rim" cx="0" cy="0" r="7"/>
  <circle id="rim2" cx="0" cy="0" r="3.5"/>
  <g id="zoomPlus">
    <use xlink:href="#rim" fill="#404040"><set attributeName="fill" to="#808080" begin="zoomplus.mouseover" end="zoomplus.mouseout"/></use>
    <path d="M-4,0h8M0,-4v8" fill="none" stroke="white" stroke-width="1.5" pointer-events="none"/>
  </g>
  <g id="zoomMin">
    <use xlink:href="#rim" fill="#404040"><set attributeName="fill" to="#808080" begin="zoomminus.mouseover" end="zoomminus.mouseout"/></use>
    <path d="M-4,0h8" fill="none" stroke="white" stroke-width="1.5" pointer-events="none"/>
  </g>
  <g id="arrowUp" transform="translate(30 24)">
    <use xlink:href="#rim"/>
    <path pointer-events="none" fill="none" stroke="white" stroke-width="1.5" d="M0,-3.0v7 M-2.5,-0.5L0,-3.0L2.5,-0.5"/>
  </g>
  <g id="arrowRight" transform="rotate(90) translate(36 -43)">
    <use xlink:href="#rim"/>
    <path pointer-events="none" fill="none" stroke="white" stroke-width="1.5" d="M0,-3.0v7 M-2.5,-0.5L0,-3.0L2.5,-0.5"/>
  </g>
  <g id="arrowDown" transform="rotate(180) translate(-30 -48)">
    <use xlink:href="#rim"/>
    <path pointer-events="none" fill="none" stroke="white" stroke-width="1.5" d="M0,-3.0v7 M-2.5,-0.5L0,-3.0L2.5,-0.5"/>
  </g>
  <g id="arrowLeft" transform="rotate(270) translate(-36 17)">
    <use xlink:href="#rim"/>
    <path pointer-events="none" fill="none" stroke="white" stroke-width="1.5" d="M0,-3.0v7 M-2.5,-0.5L0,-3.0L2.5,-0.5"/>
  </g>
  <g id="resetDef">
    <use xlink:href="#rim2" fill="#404040"><set attributeName="fill" to="#808080" begin="reset.mouseover" end="reset.mouseout"/></use>
  </g>
</defs>
<script type="application/ecmascript">
var viewWidth = 1607;
var viewHeight = 248;
var sectionId = 'dynsection-1';
</script>
<script type="application/ecmascript" xlink:href="svg.min.js"/>
<svg id="graph" class="graph">
<g id="viewport">
<title>GravityField.h</title>
<!-- Node1 -->
<g id="Node000001" class="node">
<title>Node1</title>
<g id="a_Node000001"><a xlink:title="Gravity field model and acceleration calculation.">
<polygon fill="#999999" stroke="#666666" points="1465.25,-240.25 1388.5,-240.25 1388.5,-221 1465.25,-221 1465.25,-240.25"/>
<text text-anchor="middle" x="1426.88" y="-226.75" font-family="Helvetica,sans-Serif" font-size="10.00">GravityField.h</text>
</a>
</g>
</g>
<!-- Node2 -->
<g id="Node000002" class="node">
<title>Node2</title>
<g id="a_Node000002"><a xlink:href="_dynamics_8h.html" target="_top" xlink:title="Interface for Dynamics.">
<polygon fill="white" stroke="#666666" points="913.12,-185 844.62,-185 844.62,-165.75 913.12,-165.75 913.12,-185"/>
<text text-anchor="middle" x="878.88" y="-171.5" font-family="Helvetica,sans-Serif" font-size="10.00">Dynamics.h</text>
</a>
</g>
</g>
<!-- Node1&#45;&gt;Node2 -->
<g id="edge1_Node000001_Node000002" class="edge">
<title>Node1&#45;&gt;Node2</title>
<g id="a_edge1_Node000001_Node000002"><a xlink:title=" ">
<path fill="none" stroke="#63b8ff" d="M1377.62,-224.84C1268.27,-214.21 1007.49,-188.87 913.44,-179.73"/>
<polygon fill="#63b8ff" stroke="#63b8ff" points="1377.05,-228.4 1387.34,-225.88 1377.73,-221.43 1377.05,-228.4"/>
</a>
</g>
</g>
<!-- Node21 -->
<g id="Node000021" class="node">
<title>Node21</title>
<g id="a_Node000021"><a xlink:href="_example_performance_8cpp.html" target="_top" xlink:title="Example for performance testing of spherical harmonics computation.">
<polygon fill="white" stroke="#666666" points="1472.12,-129.75 1343.62,-129.75 1343.62,-110.5 1472.12,-110.5 1472.12,-129.75"/>
<text text-anchor="middle" x="1407.88" y="-116.25" font-family="Helvetica,sans-Serif" font-size="10.00">ExamplePerformance.cpp</text>
</a>
</g>
</g>
<!-- Node1&#45;&gt;Node21 -->
<g id="edge32_Node000001_Node000021" class="edge">
<title>Node1&#45;&gt;Node21</title>
<g id="a_edge32_Node000001_Node000021"><a xlink:title=" ">
<path fill="none" stroke="#63b8ff" d="M1423.43,-209.93C1419.28,-186.26 1412.5,-147.55 1409.45,-130.13"/>
<polygon fill="#63b8ff" stroke="#63b8ff" points="1420.15,-210.5 1425.32,-219.75 1427.04,-209.29 1420.15,-210.5"/>
</a>
</g>
</g>
<!-- Node22 -->
<g id="Node000022" class="node">
<title>Node22</title>
<g id="a_Node000022"><a xlink:href="_n_body_dynamics_8cpp.html" target="_top" xlink:title="Multiple&#45;body dynamics.">
<polygon fill="white" stroke="#666666" points="1599.38,-129.75 1490.38,-129.75 1490.38,-110.5 1599.38,-110.5 1599.38,-129.75"/>
<text text-anchor="middle" x="1544.88" y="-116.25" font-family="Helvetica,sans-Serif" font-size="10.00">NBodyDynamics.cpp</text>
</a>
</g>
</g>
<!-- Node1&#45;&gt;Node22 -->
<g id="edge34_Node000001_Node000022" class="edge">
<title>Node1&#45;&gt;Node22</title>
<g id="a_edge34_Node000001_Node000022"><a xlink:title=" ">
<path fill="none" stroke="#63b8ff" d="M1434.74,-210.97C1441.25,-197.19 1451.59,-178.67 1464.88,-165.75 1481.29,-149.78 1504.55,-137.66 1521.76,-130.11"/>
<polygon fill="#63b8ff" stroke="#63b8ff" points="1431.23,-209.25 1430.34,-219.8 1437.62,-212.1 1431.23,-209.25"/>
</a>
</g>
</g>
<!-- Node23 -->
<g id="Node000023" class="node">
<title>Node23</title>
<g id="a_Node000023"><a xlink:href="_gravity_field_8cpp.html" target="_top" xlink:title="Gravity Field Implementations.">
<polygon fill="white" stroke="#666666" points="1561.5,-185 1474.25,-185 1474.25,-165.75 1561.5,-165.75 1561.5,-185"/>
<text text-anchor="middle" x="1517.88" y="-171.5" font-family="Helvetica,sans-Serif" font-size="10.00">GravityField.cpp</text>
</a>
</g>
</g>
<!-- Node1&#45;&gt;Node23 -->
<g id="edge33_Node000001_Node000023" class="edge">
<title>Node1&#45;&gt;Node23</title>
<g id="a_edge33_Node000001_Node000023"><a xlink:title=" ">
<path fill="none" stroke="#63b8ff" d="M1451.71,-215.09C1467.88,-205.63 1488.48,-193.58 1502.36,-185.45"/>
<polygon fill="#63b8ff" stroke="#63b8ff" points="1450.18,-212.52 1443.31,-220.59 1453.71,-218.56 1450.18,-212.52"/>
</a>
</g>
</g>
<!-- Node3 -->
<g id="Node000003" class="node">
<title>Node3</title>
<g id="a_Node000003"><a xlink:href="_agent_8h.html" target="_top" xlink:title="List of agents.">
<polygon fill="white" stroke="#666666" points="929.75,-129.75 880,-129.75 880,-110.5 929.75,-110.5 929.75,-129.75"/>
<text text-anchor="middle" x="904.88" y="-116.25" font-family="Helvetica,sans-Serif" font-size="10.00">Agent.h</text>
</a>
</g>
</g>
<!-- Node2&#45;&gt;Node3 -->
<g id="edge2_Node000002_Node000003" class="edge">
<title>Node2&#45;&gt;Node3</title>
<g id="a_edge2_Node000002_Node000003"><a xlink:title=" ">
<path fill="none" stroke="#63b8ff" d="M887.91,-155.87C892.17,-147.14 897.06,-137.14 900.49,-130.11"/>
<polygon fill="#63b8ff" stroke="#63b8ff" points="884.41,-154.06 883.17,-164.58 890.7,-157.13 884.41,-154.06"/>
</a>
</g>
</g>
<!-- Node5 -->
<g id="Node000005" class="node">
<title>Node5</title>
<g id="a_Node000005"><a xlink:href="_example_constellations_8cpp.html" target="_top" xlink:title="Setup GNSS Constellation.">
<polygon fill="white" stroke="#666666" points="792.5,-19.25 657.25,-19.25 657.25,0 792.5,0 792.5,-19.25"/>
<text text-anchor="middle" x="724.88" y="-5.75" font-family="Helvetica,sans-Serif" font-size="10.00">ExampleConstellations.cpp</text>
</a>
</g>
</g>
<!-- Node2&#45;&gt;Node5 -->
<g id="edge24_Node000002_Node000005" class="edge">
<title>Node2&#45;&gt;Node5</title>
<g id="a_edge24_Node000002_Node000005"><a xlink:title=" ">
<path fill="none" stroke="#63b8ff" d="M833.48,-168.78C744.7,-156.81 553.37,-125.56 514.88,-74.5 509.72,-67.67 509.49,-61.9 514.88,-55.25 524.3,-43.61 604.69,-28.99 663.21,-19.73"/>
<polygon fill="#63b8ff" stroke="#63b8ff" points="832.92,-172.37 843.29,-170.21 833.84,-165.43 832.92,-172.37"/>
</a>
</g>
</g>
<!-- Node6 -->
<g id="Node000006" class="node">
<title>Node6</title>
<g id="a_Node000006"><a xlink:href="_example_e_k_f_8cpp.html" target="_top" xlink:title="Example of Extended Kalman Filter for orbit determination.">
<polygon fill="white" stroke="#666666" points="1057.38,-19.25 966.38,-19.25 966.38,0 1057.38,0 1057.38,-19.25"/>
<text text-anchor="middle" x="1011.88" y="-5.75" font-family="Helvetica,sans-Serif" font-size="10.00">ExampleEKF.cpp</text>
</a>
</g>
</g>
<!-- Node2&#45;&gt;Node6 -->
<g id="edge25_Node000002_Node000006" class="edge">
<title>Node2&#45;&gt;Node6</title>
<g id="a_edge25_Node000002_Node000006"><a xlink:title=" ">
<path fill="none" stroke="#63b8ff" d="M924.33,-173.39C989.32,-169.22 1106.9,-150.88 1160.88,-74.5 1188.98,-34.74 1111.05,-19.55 1057.57,-13.87"/>
<polygon fill="#63b8ff" stroke="#63b8ff" points="924.39,-169.93 914.6,-173.97 924.77,-176.92 924.39,-169.93"/>
</a>
</g>
</g>
<!-- Node7 -->
<g id="Node000007" class="node">
<title>Node7</title>
<g id="a_Node000007"><a xlink:href="_example_e_k_f_app_8cpp.html" target="_top" xlink:title="Example of EKF application.">
<polygon fill="white" stroke="#666666" points="1427.75,-19.25 1318,-19.25 1318,0 1427.75,0 1427.75,-19.25"/>
<text text-anchor="middle" x="1372.88" y="-5.75" font-family="Helvetica,sans-Serif" font-size="10.00">ExampleEKFApp.cpp</text>
</a>
</g>
</g>
<!-- Node2&#45;&gt;Node7 -->
<g id="edge26_Node000002_Node000007" class="edge">
<title>Node2&#45;&gt;Node7</title>
<g id="a_edge26_Node000002_Node000007"><a xlink:title=" ">
<path fill="none" stroke="#63b8ff" d="M924.5,-172.42C1036.73,-166.55 1321.25,-144.88 1377.88,-74.5 1390.56,-58.73 1382.68,-33.1 1377.07,-19.6"/>
<polygon fill="#63b8ff" stroke="#63b8ff" points="924.37,-168.97 914.56,-172.97 924.72,-175.96 924.37,-168.97"/>
</a>
</g>
</g>
<!-- Node8 -->
<g id="Node000008" class="node">
<title>Node8</title>
<g id="a_Node000008"><a xlink:href="_example_propagation_8cpp.html" target="_top" xlink:title="Example propagating both GPS constellation and Lunar Satellite.">
<polygon fill="white" stroke="#666666" points="500.25,-19.25 375.5,-19.25 375.5,0 500.25,0 500.25,-19.25"/>
<text text-anchor="middle" x="437.88" y="-5.75" font-family="Helvetica,sans-Serif" font-size="10.00">ExamplePropagation.cpp</text>
</a>
</g>
</g>
<!-- Node2&#45;&gt;Node8 -->
<g id="edge29_Node000002_Node000008" class="edge">
<title>Node2&#45;&gt;Node8</title>
<g id="a_edge29_Node000002_Node000008"><a xlink:title=" ">
<path fill="none" stroke="#63b8ff" d="M833.34,-173.69C771.6,-171.46 658.73,-162.74 568.88,-129.75 525.52,-113.84 514.05,-106.63 480.88,-74.5 463.59,-57.76 449.35,-32.98 442.42,-19.74"/>
<polygon fill="#63b8ff" stroke="#63b8ff" points="833.15,-177.22 843.26,-174.03 833.37,-170.22 833.15,-177.22"/>
</a>
</g>
</g>
<!-- Node10 -->
<g id="Node000010" class="node">
<title>Node10</title>
<g id="a_Node000010"><a xlink:href="_g_n_s_s_constellation_8h.html" target="_top" xlink:title=" ">
<polygon fill="white" stroke="#666666" points="633.75,-74.5 524,-74.5 524,-55.25 633.75,-55.25 633.75,-74.5"/>
<text text-anchor="middle" x="578.88" y="-61" font-family="Helvetica,sans-Serif" font-size="10.00">GNSSConstellation.h</text>
</a>
</g>
</g>
<!-- Node2&#45;&gt;Node10 -->
<g id="edge30_Node000002_Node000010" class="edge">
<title>Node2&#45;&gt;Node10</title>
<g id="a_edge30_Node000002_Node000010"><a xlink:title=" ">
<path fill="none" stroke="#63b8ff" d="M843.47,-161.57C782.12,-139.38 657.47,-94.3 604.08,-74.99"/>
<polygon fill="#63b8ff" stroke="#63b8ff" points="842.22,-165.2 852.81,-165.31 844.6,-158.62 842.22,-165.2"/>
</a>
</g>
</g>
<!-- Node18 -->
<g id="Node000018" class="node">
<title>Node18</title>
<g id="a_Node000018"><a xlink:href="_dynamics_analytical_8cpp.html" target="_top" xlink:title="Analytical orbit dynamics implementation.">
<polygon fill="white" stroke="#666666" points="121.75,-129.75 0,-129.75 0,-110.5 121.75,-110.5 121.75,-129.75"/>
<text text-anchor="middle" x="60.88" y="-116.25" font-family="Helvetica,sans-Serif" font-size="10.00">DynamicsAnalytical.cpp</text>
</a>
</g>
</g>
<!-- Node2&#45;&gt;Node18 -->
<g id="edge22_Node000002_Node000018" class="edge">
<title>Node2&#45;&gt;Node18</title>
<g id="a_edge22_Node000002_Node000018"><a xlink:title=" ">
<path fill="none" stroke="#63b8ff" d="M833.49,-172.66C716.76,-168.05 396.63,-154.03 130.88,-129.75 127.95,-129.48 124.96,-129.19 121.93,-128.88"/>
<polygon fill="#63b8ff" stroke="#63b8ff" points="833.01,-176.19 843.14,-173.08 833.29,-169.19 833.01,-176.19"/>
</a>
</g>
</g>
<!-- Node19 -->
<g id="Node000019" class="node">
<title>Node19</title>
<g id="a_Node000019"><a xlink:href="_dynamics_numerical_8cpp.html" target="_top" xlink:title="List of Numerical Dynamics.">
<polygon fill="white" stroke="#666666" points="263.5,-129.75 140.25,-129.75 140.25,-110.5 263.5,-110.5 263.5,-129.75"/>
<text text-anchor="middle" x="201.88" y="-116.25" font-family="Helvetica,sans-Serif" font-size="10.00">DynamicsNumerical.cpp</text>
</a>
</g>
</g>
<!-- Node2&#45;&gt;Node19 -->
<g id="edge23_Node000002_Node000019" class="edge">
<title>Node2&#45;&gt;Node19</title>
<g id="a_edge23_Node000002_Node000019"><a xlink:title=" ">
<path fill="none" stroke="#63b8ff" d="M833.55,-171.81C732.56,-165.92 481.44,-150.35 271.88,-129.75 269.19,-129.49 266.46,-129.2 263.69,-128.91"/>
<polygon fill="#63b8ff" stroke="#63b8ff" points="833.08,-175.34 843.26,-172.43 833.48,-168.36 833.08,-175.34"/>
</a>
</g>
</g>
<!-- Node20 -->
<g id="Node000020" class="node">
<title>Node20</title>
<g id="a_Node000020"><a xlink:href="_example_frozen_orbits_8cpp.html" target="_top" xlink:title="Example of frozen orbits.">
<polygon fill="white" stroke="#666666" points="410.5,-129.75 281.25,-129.75 281.25,-110.5 410.5,-110.5 410.5,-129.75"/>
<text text-anchor="middle" x="345.88" y="-116.25" font-family="Helvetica,sans-Serif" font-size="10.00">ExampleFrozenOrbits.cpp</text>
</a>
</g>
</g>
<!-- Node2&#45;&gt;Node20 -->
<g id="edge27_Node000002_Node000020" class="edge">
<title>Node2&#45;&gt;Node20</title>
<g id="a_edge27_Node000002_Node000020"><a xlink:title=" ">
<path fill="none" stroke="#63b8ff" d="M833.52,-170.08C751.8,-162.31 574.41,-145.26 424.88,-129.75 420.35,-129.28 415.67,-128.79 410.97,-128.29"/>
<polygon fill="#63b8ff" stroke="#63b8ff" points="833.12,-173.65 843.41,-171.11 833.78,-166.68 833.12,-173.65"/>
</a>
</g>
</g>
<!-- Node2&#45;&gt;Node21 -->
<g id="edge28_Node000002_Node000021" class="edge">
<title>Node2&#45;&gt;Node21</title>
<g id="a_edge28_Node000002_Node000021"><a xlink:title=" ">
<path fill="none" stroke="#63b8ff" d="M924.24,-170.06C1005.56,-162.29 1181.52,-145.29 1329.88,-129.75 1334.21,-129.3 1338.68,-128.82 1343.19,-128.34"/>
<polygon fill="#63b8ff" stroke="#63b8ff" points="924.02,-166.66 914.4,-171.1 924.69,-173.63 924.02,-166.66"/>
</a>
</g>
</g>
<!-- Node2&#45;&gt;Node22 -->
<g id="edge31_Node000002_Node000022" class="edge">
<title>Node2&#45;&gt;Node22</title>
<g id="a_edge31_Node000002_Node000022"><a xlink:title=" ">
<path fill="none" stroke="#63b8ff" d="M924.52,-171.93C1025.15,-166.33 1273.62,-151.38 1480.88,-129.75 1483.89,-129.44 1486.97,-129.09 1490.09,-128.73"/>
<polygon fill="#63b8ff" stroke="#63b8ff" points="924.34,-168.49 914.55,-172.53 924.73,-175.48 924.34,-168.49"/>
</a>
</g>
</g>
<!-- Node4 -->
<g id="Node000004" class="node">
<title>Node4</title>
<g id="a_Node000004"><a xlink:href="_agent_8cpp.html" target="_top" xlink:title="Base class fo.">
<polygon fill="white" stroke="#666666" points="984,-74.5 923.75,-74.5 923.75,-55.25 984,-55.25 984,-74.5"/>
<text text-anchor="middle" x="953.88" y="-61" font-family="Helvetica,sans-Serif" font-size="10.00">Agent.cpp</text>
</a>
</g>
</g>
<!-- Node3&#45;&gt;Node4 -->
<g id="edge3_Node000003_Node000004" class="edge">
<title>Node3&#45;&gt;Node4</title>
<g id="a_edge3_Node000003_Node000004"><a xlink:title=" ">
<path fill="none" stroke="#63b8ff" d="M920.34,-102.32C928.71,-93.23 938.72,-82.35 945.61,-74.86"/>
<polygon fill="#63b8ff" stroke="#63b8ff" points="918.16,-99.6 913.97,-109.33 923.31,-104.34 918.16,-99.6"/>
</a>
</g>
</g>
<!-- Node3&#45;&gt;Node5 -->
<g id="edge4_Node000003_Node000005" class="edge">
<title>Node3&#45;&gt;Node5</title>
<g id="a_edge4_Node000003_Node000005"><a xlink:title=" ">
<path fill="none" stroke="#63b8ff" d="M869.56,-107.91C847.73,-100.18 819.64,-88.73 796.88,-74.5 771.09,-58.38 745.58,-32.89 732.98,-19.51"/>
<polygon fill="#63b8ff" stroke="#63b8ff" points="868.12,-111.46 878.72,-111.41 870.4,-104.84 868.12,-111.46"/>
</a>
</g>
</g>
<!-- Node3&#45;&gt;Node6 -->
<g id="edge5_Node000003_Node000006" class="edge">
<title>Node3&#45;&gt;Node6</title>
<g id="a_edge5_Node000003_Node000006"><a xlink:title=" ">
<path fill="none" stroke="#63b8ff" d="M940.21,-108.73C958.29,-101.74 979.3,-90.77 992.88,-74.5 1006.36,-58.33 1010.28,-32.87 1011.41,-19.5"/>
<polygon fill="#63b8ff" stroke="#63b8ff" points="939.21,-105.73 930.97,-112.39 941.57,-112.32 939.21,-105.73"/>
</a>
</g>
</g>
<!-- Node3&#45;&gt;Node7 -->
<g id="edge6_Node000003_Node000007" class="edge">
<title>Node3&#45;&gt;Node7</title>
<g id="a_edge6_Node000003_Node000007"><a xlink:title=" ">
<path fill="none" stroke="#63b8ff" d="M940.85,-117.92C1042.35,-114.21 1325.58,-101.5 1356.88,-74.5 1372.8,-60.76 1374.1,-33.77 1373.57,-19.68"/>
<polygon fill="#63b8ff" stroke="#63b8ff" points="940.82,-114.46 930.96,-118.31 941.07,-121.45 940.82,-114.46"/>
</a>
</g>
</g>
<!-- Node3&#45;&gt;Node8 -->
<g id="edge7_Node000003_Node000008" class="edge">
<title>Node3&#45;&gt;Node8</title>
<g id="a_edge7_Node000003_Node000008"><a xlink:title=" ">
<path fill="none" stroke="#63b8ff" d="M868.84,-117.62C784.83,-113.7 578.25,-101.54 514.88,-74.5 485.16,-61.82 457.98,-33.85 445.33,-19.5"/>
<polygon fill="#63b8ff" stroke="#63b8ff" points="868.48,-121.16 878.63,-118.11 868.8,-114.16 868.48,-121.16"/>
</a>
</g>
</g>
<!-- Node9 -->
<g id="Node000009" class="node">
<title>Node9</title>
<g id="a_Node000009"><a xlink:href="_g_n_s_s_channel_8cpp.html" target="_top" xlink:title="GNSS Channel.">
<polygon fill="white" stroke="#666666" points="905.5,-74.5 806.25,-74.5 806.25,-55.25 905.5,-55.25 905.5,-74.5"/>
<text text-anchor="middle" x="855.88" y="-61" font-family="Helvetica,sans-Serif" font-size="10.00">GNSSChannel.cpp</text>
</a>
</g>
</g>
<!-- Node3&#45;&gt;Node9 -->
<g id="edge8_Node000003_Node000009" class="edge">
<title>Node3&#45;&gt;Node9</title>
<g id="a_edge8_Node000003_Node000009"><a xlink:title=" ">
<path fill="none" stroke="#63b8ff" d="M889.41,-102.32C881.04,-93.23 871.03,-82.35 864.14,-74.86"/>
<polygon fill="#63b8ff" stroke="#63b8ff" points="886.44,-104.34 895.78,-109.33 891.59,-99.6 886.44,-104.34"/>
</a>
</g>
</g>
<!-- Node3&#45;&gt;Node10 -->
<g id="edge9_Node000003_Node000010" class="edge">
<title>Node3&#45;&gt;Node10</title>
<g id="a_edge9_Node000003_Node000010"><a xlink:title=" ">
<path fill="none" stroke="#63b8ff" d="M868.95,-113.26C812.13,-103.98 701.11,-85.84 634.1,-74.9"/>
<polygon fill="#63b8ff" stroke="#63b8ff" points="868.13,-116.83 878.57,-114.99 869.26,-109.92 868.13,-116.83"/>
</a>
</g>
</g>
<!-- Node12 -->
<g id="Node000012" class="node">
<title>Node12</title>
<g id="a_Node000012"><a xlink:href="_g_n_s_s_state_estimation_app_8h.html" target="_top" xlink:title="State Estimation Application Using GNSS Measurement.">
<polygon fill="white" stroke="#666666" points="1347.75,-74.5 1208,-74.5 1208,-55.25 1347.75,-55.25 1347.75,-74.5"/>
<text text-anchor="middle" x="1277.88" y="-61" font-family="Helvetica,sans-Serif" font-size="10.00">GNSSStateEstimationApp.h</text>
</a>
</g>
</g>
<!-- Node3&#45;&gt;Node12 -->
<g id="edge15_Node000003_Node000012" class="edge">
<title>Node3&#45;&gt;Node12</title>
<g id="a_edge15_Node000003_Node000012"><a xlink:title=" ">
<path fill="none" stroke="#63b8ff" d="M940.82,-113.99C1003.91,-104.99 1135.35,-86.22 1214.15,-74.97"/>
<polygon fill="#63b8ff" stroke="#63b8ff" points="940.62,-110.63 931.22,-115.51 941.61,-117.56 940.62,-110.63"/>
</a>
</g>
</g>
<!-- Node14 -->
<g id="Node000014" class="node">
<title>Node14</title>
<g id="a_Node000014"><a xlink:href="_g_n_s_s_transmitter_8cpp.html" target="_top" xlink:title="Handles GNSS transmit.">
<polygon fill="white" stroke="#666666" points="1151.88,-74.5 1039.88,-74.5 1039.88,-55.25 1151.88,-55.25 1151.88,-74.5"/>
<text text-anchor="middle" x="1095.88" y="-61" font-family="Helvetica,sans-Serif" font-size="10.00">GNSSTransmitter.cpp</text>
</a>
</g>
</g>
<!-- Node3&#45;&gt;Node14 -->
<g id="edge18_Node000003_Node000014" class="edge">
<title>Node3&#45;&gt;Node14</title>
<g id="a_edge18_Node000003_Node000014"><a xlink:title=" ">
<path fill="none" stroke="#63b8ff" d="M940.55,-109.18C975.8,-99.35 1029.26,-84.45 1063.37,-74.94"/>
<polygon fill="#63b8ff" stroke="#63b8ff" points="939.93,-106 931.24,-112.05 941.81,-112.74 939.93,-106"/>
</a>
</g>
</g>
<!-- Node15 -->
<g id="Node000015" class="node">
<title>Node15</title>
<g id="a_Node000015"><a xlink:href="_space_channel_8cpp.html" target="_top" xlink:title="Base spacechannel class (Under devlopment )">
<polygon fill="white" stroke="#666666" points="750.12,-74.5 651.62,-74.5 651.62,-55.25 750.12,-55.25 750.12,-74.5"/>
<text text-anchor="middle" x="700.88" y="-61" font-family="Helvetica,sans-Serif" font-size="10.00">SpaceChannel.cpp</text>
</a>
</g>
</g>
<!-- Node3&#45;&gt;Node15 -->
<g id="edge19_Node000003_Node000015" class="edge">
<title>Node3&#45;&gt;Node15</title>
<g id="a_edge19_Node000003_Node000015"><a xlink:title=" ">
<path fill="none" stroke="#63b8ff" d="M869.4,-109.87C831.85,-100.06 772.95,-84.69 735.65,-74.95"/>
<polygon fill="#63b8ff" stroke="#63b8ff" points="868.3,-113.46 878.86,-112.6 870.07,-106.68 868.3,-113.46"/>
</a>
</g>
</g>
<!-- Node16 -->
<g id="Node000016" class="node">
<title>Node16</title>
<g id="a_Node000016"><a xlink:href="_state_estimation_app_8h.html" target="_top" xlink:title="Base class for State Estimation Application.">
<polygon fill="white" stroke="#666666" points="1559.5,-74.5 1448.25,-74.5 1448.25,-55.25 1559.5,-55.25 1559.5,-74.5"/>
<text text-anchor="middle" x="1503.88" y="-61" font-family="Helvetica,sans-Serif" font-size="10.00">StateEstimationApp.h</text>
</a>
</g>
</g>
<!-- Node3&#45;&gt;Node16 -->
<g id="edge20_Node000003_Node000016" class="edge">
<title>Node3&#45;&gt;Node16</title>
<g id="a_edge20_Node000003_Node000016"><a xlink:title=" ">
<path fill="none" stroke="#63b8ff" d="M941.06,-115.91C1041.96,-106.94 1327,-81.6 1448.21,-70.82"/>
<polygon fill="#63b8ff" stroke="#63b8ff" points="940.88,-112.5 931.23,-116.87 941.5,-119.47 940.88,-112.5"/>
</a>
</g>
</g>
<!-- Node10&#45;&gt;Node5 -->
<g id="edge10_Node000010_Node000005" class="edge">
<title>Node10&#45;&gt;Node5</title>
<g id="a_edge10_Node000010_Node000005"><a xlink:title=" ">
<path fill="none" stroke="#63b8ff" d="M613.68,-51.18C640.26,-41.49 676.24,-28.36 699.99,-19.7"/>
<polygon fill="#63b8ff" stroke="#63b8ff" points="612.84,-48.13 604.64,-54.84 615.24,-54.7 612.84,-48.13"/>
</a>
</g>
</g>
<!-- Node10&#45;&gt;Node6 -->
<g id="edge11_Node000010_Node000006" class="edge">
<title>Node10&#45;&gt;Node6</title>
<g id="a_edge11_Node000010_Node000006"><a xlink:title=" ">
<path fill="none" stroke="#63b8ff" d="M644.69,-55.03C766.92,-39.46 898.33,-23.9 966.12,-15.96"/>
<polygon fill="#63b8ff" stroke="#63b8ff" points="644.5,-51.66 635.03,-56.39 645.39,-58.6 644.5,-51.66"/>
</a>
</g>
</g>
<!-- Node10&#45;&gt;Node7 -->
<g id="edge12_Node000010_Node000007" class="edge">
<title>Node10&#45;&gt;Node7</title>
<g id="a_edge12_Node000010_Node000007"><a xlink:title=" ">
<path fill="none" stroke="#63b8ff" d="M644.6,-55.17C939.8,-27.89 1017.21,-46.74 1308.88,-19.25 1311.78,-18.98 1314.75,-18.67 1317.75,-18.34"/>
<polygon fill="#63b8ff" stroke="#63b8ff" points="644.63,-51.75 635,-56.16 645.28,-58.72 644.63,-51.75"/>
</a>
</g>
</g>
<!-- Node10&#45;&gt;Node8 -->
<g id="edge13_Node000010_Node000008" class="edge">
<title>Node10&#45;&gt;Node8</title>
<g id="a_edge13_Node000010_Node000008"><a xlink:title=" ">
<path fill="none" stroke="#63b8ff" d="M544.92,-51.05C519.29,-41.37 484.74,-28.32 461.91,-19.7"/>
<polygon fill="#63b8ff" stroke="#63b8ff" points="543.36,-54.58 553.96,-54.84 545.84,-48.03 543.36,-54.58"/>
</a>
</g>
</g>
<!-- Node11 -->
<g id="Node000011" class="node">
<title>Node11</title>
<g id="a_Node000011"><a xlink:href="_g_n_s_s_constellation_8cpp.html" target="_top" xlink:title="GNSS Constellation.">
<polygon fill="white" stroke="#666666" points="639,-19.25 518.75,-19.25 518.75,0 639,0 639,-19.25"/>
<text text-anchor="middle" x="578.88" y="-5.75" font-family="Helvetica,sans-Serif" font-size="10.00">GNSSConstellation.cpp</text>
</a>
</g>
</g>
<!-- Node10&#45;&gt;Node11 -->
<g id="edge14_Node000010_Node000011" class="edge">
<title>Node10&#45;&gt;Node11</title>
<g id="a_edge14_Node000010_Node000011"><a xlink:title=" ">
<path fill="none" stroke="#63b8ff" d="M578.88,-44.21C578.88,-35.77 578.88,-26.33 578.88,-19.61"/>
<polygon fill="#63b8ff" stroke="#63b8ff" points="575.38,-44.08 578.88,-54.08 582.38,-44.08 575.38,-44.08"/>
</a>
</g>
</g>
<!-- Node12&#45;&gt;Node7 -->
<g id="edge16_Node000012_Node000007" class="edge">
<title>Node12&#45;&gt;Node7</title>
<g id="a_edge16_Node000012_Node000007"><a xlink:title=" ">
<path fill="none" stroke="#63b8ff" d="M1303.33,-49.61C1320.28,-40.11 1342.05,-27.9 1356.68,-19.7"/>
<polygon fill="#63b8ff" stroke="#63b8ff" points="1302,-46.9 1294.99,-54.84 1305.42,-53.01 1302,-46.9"/>
</a>
</g>
</g>
<!-- Node13 -->
<g id="Node000013" class="node">
<title>Node13</title>
<g id="a_Node000013"><a xlink:href="_g_n_s_s_state_estimation_app_8cpp.html" target="_top" xlink:title="State Estimation Application Using GNSS Measurement.">
<polygon fill="white" stroke="#666666" points="1300,-19.25 1149.75,-19.25 1149.75,0 1300,0 1300,-19.25"/>
<text text-anchor="middle" x="1224.88" y="-5.75" font-family="Helvetica,sans-Serif" font-size="10.00">GNSSStateEstimationApp.cpp</text>
</a>
</g>
</g>
<!-- Node12&#45;&gt;Node13 -->
<g id="edge17_Node000012_Node000013" class="edge">
<title>Node12&#45;&gt;Node13</title>
<g id="a_edge17_Node000012_Node000013"><a xlink:title=" ">
<path fill="none" stroke="#63b8ff" d="M1261.43,-47.35C1252.32,-38.2 1241.35,-27.18 1233.82,-19.61"/>
<polygon fill="#63b8ff" stroke="#63b8ff" points="1258.59,-49.46 1268.12,-54.08 1263.55,-44.53 1258.59,-49.46"/>
</a>
</g>
</g>
<!-- Node17 -->
<g id="Node000017" class="node">
<title>Node17</title>
<g id="a_Node000017"><a xlink:href="_state_estimation_app_8cpp.html" target="_top" xlink:title="Base class for State Estimation Application.">
<polygon fill="white" stroke="#666666" points="1567.75,-19.25 1446,-19.25 1446,0 1567.75,0 1567.75,-19.25"/>
<text text-anchor="middle" x="1506.88" y="-5.75" font-family="Helvetica,sans-Serif" font-size="10.00">StateEstimationApp.cpp</text>
</a>
</g>
</g>
<!-- Node16&#45;&gt;Node17 -->
<g id="edge21_Node000016_Node000017" class="edge">
<title>Node16&#45;&gt;Node17</title>
<g id="a_edge21_Node000016_Node000017"><a xlink:title=" ">
<path fill="none" stroke="#63b8ff" d="M1504.98,-44.21C1505.46,-35.77 1505.99,-26.33 1506.37,-19.61"/>
<polygon fill="#63b8ff" stroke="#63b8ff" points="1501.44,-43.9 1504.37,-54.08 1508.43,-44.29 1501.44,-43.9"/>
</a>
</g>
</g>
</g>
</svg>

<g id="navigator" transform="translate(0 0)" fill="#404254">
  <rect fill="#f2f5e9" fill-opacity="0.5" stroke="#606060" stroke-width=".5" x="0" y="0" width="60" height="60"/>
  <use id="zoomplus" xlink:href="#zoomPlus" x="17" y="9" onmousedown="handleZoom(evt,'in')"/>
  <use id="zoomminus" xlink:href="#zoomMin" x="42" y="9" onmousedown="handleZoom(evt,'out')"/>
  <use id="reset" xlink:href="#resetDef" x="30" y="36" onmousedown="handleReset()"/>
   <use id="arrowup" xlink:href="#arrowUp" x="0" y="0" onmousedown="handlePan(0,-1)"/>
  <use id="arrowright" xlink:href="#arrowRight" x="0" y="0" onmousedown="handlePan(1,0)"/>
  <use id="arrowdown" xlink:href="#arrowDown" x="0" y="0" onmousedown="handlePan(0,1)"/>
  <use id="arrowleft" xlink:href="#arrowLeft" x="0" y="0" onmousedown="handlePan(-1,0)"/>
</g>
<svg viewBox="0 0 15 15" width="100%" height="30px" preserveAspectRatio="xMaxYMin meet">
 <g id="arrow_out" transform="scale(0.3 0.3)">
  <a xlink:href="_gravity_field_8h__dep__incl_org.svg" target="_base">
   <rect id="button" ry="5" rx="5" y="6" x="6" height="38" width="38"
        fill="#f2f5e9" fill-opacity="0.5" stroke="#606060" stroke-width="1.0"/>
   <path id="arrow"
     d="M 11.500037,31.436501 C 11.940474,20.09759 22.043105,11.32322 32.158766,21.979434 L 37.068811,17.246167 C 37.068811,17.246167 37.088388,32 37.088388,32 L 22.160133,31.978069 C 22.160133,31.978069 26.997745,27.140456 26.997745,27.140456 C 18.528582,18.264221 13.291696,25.230495 11.500037,31.436501 z"
     style="fill:#404040;"/>
  </a>
 </g>
</svg>

<style type='text/css'>
<![CDATA[
[data-mouse-over-selected='false'] { opacity: 0.7; }
[data-mouse-over-selected='true']  { opacity: 1.0; }
]]>
</style>
<script type="application/ecmascript"><![CDATA[
document.addEventListener('DOMContentLoaded', (event) => {
  highlightEdges();
  highlightAdjacentNodes();
});
]]></script>
</svg>
