<?xml version="1.0" encoding="UTF-8" standalone="no"?>
<!DOCTYPE svg PUBLIC "-//W3C//DTD SVG 1.1//EN"
 "http://www.w3.org/Graphics/SVG/1.1/DTD/svg11.dtd">
<!-- Generated by graphviz version 8.1.0 (20230707.0739)
 -->
<!-- Title: Integrator.cpp Pages: 1 -->
<svg width="264pt" height="149pt"
 viewBox="0.00 0.00 263.62 149.00" xmlns="http://www.w3.org/2000/svg" xmlns:xlink="http://www.w3.org/1999/xlink">
<g id="graph0" class="graph" transform="scale(1 1) rotate(0) translate(4 145)">
<title>Integrator.cpp</title>
<!-- Node1 -->
<g id="Node000001" class="node">
<title>Node1</title>
<g id="a_Node000001"><a xlink:title="Integrator implementations.">
<polygon fill="#999999" stroke="#666666" points="163.12,-141 87.88,-141 87.88,-121.75 163.12,-121.75 163.12,-141"/>
<text text-anchor="middle" x="125.5" y="-127.5" font-family="Helvetica,sans-Serif" font-size="10.00">Integrator.cpp</text>
</a>
</g>
</g>
<!-- Node2 -->
<g id="Node000002" class="node">
<title>Node2</title>
<g id="a_Node000002"><a xlink:href="_integrator_8h.html" target="_top" xlink:title="Integrator interfaces.">
<polygon fill="white" stroke="#666666" points="191.25,-85.75 59.75,-85.75 59.75,-66.5 191.25,-66.5 191.25,-85.75"/>
<text text-anchor="middle" x="125.5" y="-72.25" font-family="Helvetica,sans-Serif" font-size="10.00">lupnt/numerics/Integrator.h</text>
</a>
</g>
</g>
<!-- Node1&#45;&gt;Node2 -->
<g id="edge1_Node000001_Node000002" class="edge">
<title>Node1&#45;&gt;Node2</title>
<g id="a_edge1_Node000001_Node000002"><a xlink:title=" ">
<path fill="none" stroke="#63b8ff" d="M125.5,-121.58C125.5,-114.92 125.5,-105.49 125.5,-97.03"/>
<polygon fill="#63b8ff" stroke="#63b8ff" points="129,-97.11 125.5,-87.11 122,-97.11 129,-97.11"/>
</a>
</g>
</g>
<!-- Node3 -->
<g id="Node000003" class="node">
<title>Node3</title>
<g id="a_Node000003"><a xlink:title=" ">
<polygon fill="#e0e0e0" stroke="#999999" points="121,-24.88 0,-24.88 0,-5.63 121,-5.63 121,-24.88"/>
<text text-anchor="middle" x="60.5" y="-11.38" font-family="Helvetica,sans-Serif" font-size="10.00">autodiff/forward/real.hpp</text>
</a>
</g>
</g>
<!-- Node1&#45;&gt;Node3 -->
<g id="edge4_Node000001_Node000003" class="edge">
<title>Node1&#45;&gt;Node3</title>
<g id="a_edge4_Node000001_Node000003"><a xlink:title=" ">
<path fill="none" stroke="#63b8ff" d="M96.72,-121.35C80.02,-114.46 60.39,-103.14 50.5,-85.75 41.66,-70.21 46.23,-49.67 51.75,-34.96"/>
<polygon fill="#63b8ff" stroke="#63b8ff" points="55.28,-36.6 55.94,-26.02 48.83,-33.87 55.28,-36.6"/>
</a>
</g>
</g>
<!-- Node4 -->
<g id="Node000004" class="node">
<title>Node4</title>
<g id="a_Node000004"><a xlink:title=" ">
<polygon fill="#e0e0e0" stroke="#999999" points="255.62,-30.5 153.38,-30.5 153.38,0 255.62,0 255.62,-30.5"/>
<text text-anchor="start" x="161.38" y="-17" font-family="Helvetica,sans-Serif" font-size="10.00">autodiff/forward/real</text>
<text text-anchor="middle" x="204.5" y="-5.75" font-family="Helvetica,sans-Serif" font-size="10.00">/eigen.hpp</text>
</a>
</g>
</g>
<!-- Node1&#45;&gt;Node4 -->
<g id="edge5_Node000001_Node000004" class="edge">
<title>Node1&#45;&gt;Node4</title>
<g id="a_edge5_Node000001_Node000004"><a xlink:title=" ">
<path fill="none" stroke="#63b8ff" d="M153.56,-121.3C170.2,-114.35 190.04,-102.97 200.5,-85.75 208.39,-72.76 209.49,-55.75 208.57,-41.82"/>
<polygon fill="#63b8ff" stroke="#63b8ff" points="211.96,-41.57 207.43,-31.99 205,-42.3 211.96,-41.57"/>
</a>
</g>
</g>
<!-- Node2&#45;&gt;Node3 -->
<g id="edge2_Node000002_Node000003" class="edge">
<title>Node2&#45;&gt;Node3</title>
<g id="a_edge2_Node000002_Node000003"><a xlink:title=" ">
<path fill="none" stroke="#63b8ff" d="M115.63,-66.18C105.8,-57.28 90.48,-43.41 78.49,-32.54"/>
<polygon fill="#63b8ff" stroke="#63b8ff" points="81.23,-30.4 71.47,-26.28 76.53,-35.58 81.23,-30.4"/>
</a>
</g>
</g>
<!-- Node2&#45;&gt;Node4 -->
<g id="edge3_Node000002_Node000004" class="edge">
<title>Node2&#45;&gt;Node4</title>
<g id="a_edge3_Node000002_Node000004"><a xlink:title=" ">
<path fill="none" stroke="#63b8ff" d="M137.5,-66.18C147.84,-58.48 163.17,-47.05 176.56,-37.08"/>
<polygon fill="#63b8ff" stroke="#63b8ff" points="178.07,-39.56 184,-30.78 173.89,-33.95 178.07,-39.56"/>
</a>
</g>
</g>
</g>
</svg>
