<?xml version="1.0" encoding="UTF-8" standalone="no"?>
<!DOCTYPE svg PUBLIC "-//W3C//DTD SVG 1.1//EN"
 "http://www.w3.org/Graphics/SVG/1.1/DTD/svg11.dtd">
<!-- Generated by graphviz version 8.1.0 (20230707.0739)
 -->
<!-- Title: MathUtils.cpp Pages: 1 -->
<svg width="576pt" height="149pt"
 viewBox="0.00 0.00 575.88 149.00" xmlns="http://www.w3.org/2000/svg" xmlns:xlink="http://www.w3.org/1999/xlink">
<g id="graph0" class="graph" transform="scale(1 1) rotate(0) translate(4 145)">
<title>MathUtils.cpp</title>
<!-- Node1 -->
<g id="Node000001" class="node">
<title>Node1</title>
<g id="a_Node000001"><a xlink:title="Math util functions.">
<polygon fill="#999999" stroke="#666666" points="329.88,-141 253.12,-141 253.12,-121.75 329.88,-121.75 329.88,-141"/>
<text text-anchor="middle" x="291.5" y="-127.5" font-family="Helvetica,sans-Serif" font-size="10.00">MathUtils.cpp</text>
</a>
</g>
</g>
<!-- Node2 -->
<g id="Node000002" class="node">
<title>Node2</title>
<g id="a_Node000002"><a xlink:href="_math_utils_8h.html" target="_top" xlink:title=" ">
<polygon fill="white" stroke="#666666" points="228,-85.75 95,-85.75 95,-66.5 228,-66.5 228,-85.75"/>
<text text-anchor="middle" x="161.5" y="-72.25" font-family="Helvetica,sans-Serif" font-size="10.00">lupnt/numerics/MathUtils.h</text>
</a>
</g>
</g>
<!-- Node1&#45;&gt;Node2 -->
<g id="edge1_Node000001_Node000002" class="edge">
<title>Node1&#45;&gt;Node2</title>
<g id="a_edge1_Node000001_Node000002"><a xlink:title=" ">
<path fill="none" stroke="#63b8ff" d="M269.45,-121.34C248.62,-112.81 217.16,-99.92 193.56,-90.26"/>
<polygon fill="#63b8ff" stroke="#63b8ff" points="195.24,-86.75 184.66,-86.2 192.59,-93.23 195.24,-86.75"/>
</a>
</g>
</g>
<!-- Node3 -->
<g id="Node000003" class="node">
<title>Node3</title>
<g id="a_Node000003"><a xlink:title=" ">
<polygon fill="#e0e0e0" stroke="#999999" points="121,-24.88 0,-24.88 0,-5.63 121,-5.63 121,-24.88"/>
<text text-anchor="middle" x="60.5" y="-11.38" font-family="Helvetica,sans-Serif" font-size="10.00">autodiff/forward/real.hpp</text>
</a>
</g>
</g>
<!-- Node1&#45;&gt;Node3 -->
<g id="edge8_Node000001_Node000003" class="edge">
<title>Node1&#45;&gt;Node3</title>
<g id="a_edge8_Node000001_Node000003"><a xlink:title=" ">
<path fill="none" stroke="#63b8ff" d="M252.83,-126.38C200.54,-120.25 111.01,-106.97 86.5,-85.75 71.91,-73.12 65.49,-51.47 62.68,-35.68"/>
<polygon fill="#63b8ff" stroke="#63b8ff" points="66.03,-35.41 61.15,-26 59.1,-36.39 66.03,-35.41"/>
</a>
</g>
</g>
<!-- Node4 -->
<g id="Node000004" class="node">
<title>Node4</title>
<g id="a_Node000004"><a xlink:title=" ">
<polygon fill="#e0e0e0" stroke="#999999" points="307.62,-30.5 205.38,-30.5 205.38,0 307.62,0 307.62,-30.5"/>
<text text-anchor="start" x="213.38" y="-17" font-family="Helvetica,sans-Serif" font-size="10.00">autodiff/forward/real</text>
<text text-anchor="middle" x="256.5" y="-5.75" font-family="Helvetica,sans-Serif" font-size="10.00">/eigen.hpp</text>
</a>
</g>
</g>
<!-- Node1&#45;&gt;Node4 -->
<g id="edge9_Node000001_Node000004" class="edge">
<title>Node1&#45;&gt;Node4</title>
<g id="a_edge9_Node000001_Node000004"><a xlink:title=" ">
<path fill="none" stroke="#63b8ff" d="M288.4,-121.52C285.28,-112.55 280.39,-98.23 276.5,-85.75 271.92,-71.05 267.13,-54.48 263.39,-41.21"/>
<polygon fill="#63b8ff" stroke="#63b8ff" points="266.59,-40.64 260.53,-31.95 259.85,-42.52 266.59,-40.64"/>
</a>
</g>
</g>
<!-- Node6 -->
<g id="Node000006" class="node">
<title>Node6</title>
<g id="a_Node000006"><a xlink:title=" ">
<polygon fill="#e0e0e0" stroke="#999999" points="370,-85.75 285,-85.75 285,-66.5 370,-66.5 370,-85.75"/>
<text text-anchor="middle" x="327.5" y="-72.25" font-family="Helvetica,sans-Serif" font-size="10.00">Eigen/Cholesky</text>
</a>
</g>
</g>
<!-- Node1&#45;&gt;Node6 -->
<g id="edge5_Node000001_Node000006" class="edge">
<title>Node1&#45;&gt;Node6</title>
<g id="a_edge5_Node000001_Node000006"><a xlink:title=" ">
<path fill="none" stroke="#63b8ff" d="M297.44,-121.58C302.31,-114.38 309.36,-103.96 315.41,-95.01"/>
<polygon fill="#63b8ff" stroke="#63b8ff" points="318.72,-97.35 321.43,-87.11 312.93,-93.43 318.72,-97.35"/>
</a>
</g>
</g>
<!-- Node7 -->
<g id="Node000007" class="node">
<title>Node7</title>
<g id="a_Node000007"><a xlink:title=" ">
<polygon fill="#e0e0e0" stroke="#999999" points="485,-85.75 388,-85.75 388,-66.5 485,-66.5 485,-85.75"/>
<text text-anchor="middle" x="436.5" y="-72.25" font-family="Helvetica,sans-Serif" font-size="10.00">Eigen/Eigenvalues</text>
</a>
</g>
</g>
<!-- Node1&#45;&gt;Node7 -->
<g id="edge6_Node000001_Node000007" class="edge">
<title>Node1&#45;&gt;Node7</title>
<g id="a_edge6_Node000001_Node000007"><a xlink:title=" ">
<path fill="none" stroke="#63b8ff" d="M316.1,-121.34C339.64,-112.7 375.37,-99.57 401.8,-89.87"/>
<polygon fill="#63b8ff" stroke="#63b8ff" points="402.6,-92.94 410.78,-86.2 400.19,-86.36 402.6,-92.94"/>
</a>
</g>
</g>
<!-- Node8 -->
<g id="Node000008" class="node">
<title>Node8</title>
<g id="a_Node000008"><a xlink:title=" ">
<polygon fill="#e0e0e0" stroke="#999999" points="567.88,-85.75 503.12,-85.75 503.12,-66.5 567.88,-66.5 567.88,-85.75"/>
<text text-anchor="middle" x="535.5" y="-72.25" font-family="Helvetica,sans-Serif" font-size="10.00">Eigen/SVD</text>
</a>
</g>
</g>
<!-- Node1&#45;&gt;Node8 -->
<g id="edge7_Node000001_Node000008" class="edge">
<title>Node1&#45;&gt;Node8</title>
<g id="a_edge7_Node000001_Node000008"><a xlink:title=" ">
<path fill="none" stroke="#63b8ff" d="M330.16,-121.94C374.33,-112.3 446.4,-96.57 492.35,-86.54"/>
<polygon fill="#63b8ff" stroke="#63b8ff" points="492.85,-89.8 501.87,-84.25 491.36,-82.96 492.85,-89.8"/>
</a>
</g>
</g>
<!-- Node2&#45;&gt;Node3 -->
<g id="edge2_Node000002_Node000003" class="edge">
<title>Node2&#45;&gt;Node3</title>
<g id="a_edge2_Node000002_Node000003"><a xlink:title=" ">
<path fill="none" stroke="#63b8ff" d="M146.16,-66.18C129.99,-56.76 104.29,-41.77 85.25,-30.68"/>
<polygon fill="#63b8ff" stroke="#63b8ff" points="87.39,-27.29 76.98,-25.28 83.86,-33.34 87.39,-27.29"/>
</a>
</g>
</g>
<!-- Node2&#45;&gt;Node4 -->
<g id="edge3_Node000002_Node000004" class="edge">
<title>Node2&#45;&gt;Node4</title>
<g id="a_edge3_Node000002_Node000004"><a xlink:title=" ">
<path fill="none" stroke="#63b8ff" d="M175.93,-66.18C188.6,-58.33 207.5,-46.62 223.81,-36.51"/>
<polygon fill="#63b8ff" stroke="#63b8ff" points="225.39,-39.02 232.05,-30.78 221.71,-33.07 225.39,-39.02"/>
</a>
</g>
</g>
<!-- Node5 -->
<g id="Node000005" class="node">
<title>Node5</title>
<g id="a_Node000005"><a xlink:title=" ">
<polygon fill="#e0e0e0" stroke="#999999" points="187.62,-24.88 139.38,-24.88 139.38,-5.63 187.62,-5.63 187.62,-24.88"/>
<text text-anchor="middle" x="163.5" y="-11.38" font-family="Helvetica,sans-Serif" font-size="10.00">random</text>
</a>
</g>
</g>
<!-- Node2&#45;&gt;Node5 -->
<g id="edge4_Node000002_Node000005" class="edge">
<title>Node2&#45;&gt;Node5</title>
<g id="a_edge4_Node000002_Node000005"><a xlink:title=" ">
<path fill="none" stroke="#63b8ff" d="M161.8,-66.18C162.07,-58.23 162.48,-46.31 162.83,-36.12"/>
<polygon fill="#63b8ff" stroke="#63b8ff" points="166.35,-36.39 163.19,-26.28 159.36,-36.15 166.35,-36.39"/>
</a>
</g>
</g>
</g>
</svg>
