<?xml version="1.0" encoding="UTF-8" standalone="no"?>
<!DOCTYPE svg PUBLIC "-//W3C//DTD SVG 1.1//EN"
 "http://www.w3.org/Graphics/SVG/1.1/DTD/svg11.dtd">
<!-- Generated by graphviz version 8.1.0 (20230707.0739)
 -->
<!-- Title: Matrix.hpp Pages: 1 -->
<svg width="144pt" height="83pt"
 viewBox="0.00 0.00 144.12 82.50" xmlns="http://www.w3.org/2000/svg" xmlns:xlink="http://www.w3.org/1999/xlink">
<g id="graph0" class="graph" transform="scale(1 1) rotate(0) translate(4 78.5)">
<title>Matrix.hpp</title>
<!-- Node1 -->
<g id="Node000001" class="node">
<title>Node1</title>
<g id="a_Node000001"><a xlink:title="Utility functions for converting Eigen::MatrixXd to numpy array.">
<polygon fill="#999999" stroke="#666666" points="101.25,-74.5 39.5,-74.5 39.5,-55.25 101.25,-55.25 101.25,-74.5"/>
<text text-anchor="middle" x="70.38" y="-61" font-family="Helvetica,sans-Serif" font-size="10.00">Matrix.hpp</text>
</a>
</g>
</g>
<!-- Node2 -->
<g id="Node000002" class="node">
<title>Node2</title>
<g id="a_Node000002"><a xlink:title=" ">
<polygon fill="#e0e0e0" stroke="#999999" points="64.75,-19.25 0,-19.25 0,0 64.75,0 64.75,-19.25"/>
<text text-anchor="middle" x="32.38" y="-5.75" font-family="Helvetica,sans-Serif" font-size="10.00">Eigen/Core</text>
</a>
</g>
</g>
<!-- Node1&#45;&gt;Node2 -->
<g id="edge1_Node000001_Node000002" class="edge">
<title>Node1&#45;&gt;Node2</title>
<g id="a_edge1_Node000001_Node000002"><a xlink:title=" ">
<path fill="none" stroke="#63b8ff" d="M64.1,-55.08C58.96,-47.88 51.52,-37.46 45.14,-28.51"/>
<polygon fill="#63b8ff" stroke="#63b8ff" points="47.44,-26.72 38.79,-20.61 41.75,-30.78 47.44,-26.72"/>
</a>
</g>
</g>
<!-- Node3 -->
<g id="Node000003" class="node">
<title>Node3</title>
<g id="a_Node000003"><a xlink:title=" ">
<polygon fill="#e0e0e0" stroke="#999999" points="136.12,-19.25 82.62,-19.25 82.62,0 136.12,0 136.12,-19.25"/>
<text text-anchor="middle" x="109.38" y="-5.75" font-family="Helvetica,sans-Serif" font-size="10.00">iostream</text>
</a>
</g>
</g>
<!-- Node1&#45;&gt;Node3 -->
<g id="edge2_Node000001_Node000003" class="edge">
<title>Node1&#45;&gt;Node3</title>
<g id="a_edge2_Node000001_Node000003"><a xlink:title=" ">
<path fill="none" stroke="#63b8ff" d="M76.82,-55.08C82.15,-47.8 89.89,-37.23 96.48,-28.23"/>
<polygon fill="#63b8ff" stroke="#63b8ff" points="99.71,-30.74 102.8,-20.61 94.06,-26.61 99.71,-30.74"/>
</a>
</g>
</g>
</g>
</svg>
