<?xml version="1.0" encoding="UTF-8" standalone="no"?>
<!DOCTYPE svg PUBLIC "-//W3C//DTD SVG 1.1//EN"
 "http://www.w3.org/Graphics/SVG/1.1/DTD/svg11.dtd">
<!-- Generated by graphviz version 8.1.0 (20230707.0739)
 -->
<!-- Title: OrbitState.h Pages: 1 -->
<svg width="443pt" height="149pt"
 viewBox="0.00 0.00 442.88 149.00" xmlns="http://www.w3.org/2000/svg" xmlns:xlink="http://www.w3.org/1999/xlink">

<svg id="main" version="1.1" xmlns="http://www.w3.org/2000/svg" xmlns:xlink="http://www.w3.org/1999/xlink" xml:space="preserve" onload="init(evt)">
<style type="text/css"><![CDATA[
.node, .edge {opacity: 0.7;}
.node.selected, .edge.selected {opacity: 1;}
.edge:hover path { stroke: red; }
.edge:hover polygon { stroke: red; fill: red; }
]]></style>
<script type="application/ecmascript" xlink:href="svg.min.js"/>
<svg id="graph" class="graph">
<g id="graph0" class="graph" transform="scale(1 1) rotate(0) translate(4 145)">
<title>OrbitState.h</title>
<!-- Node1 -->
<g id="Node000001" class="node">
<title>Node1</title>
<g id="a_Node000001"><a xlink:title="Orbit states.">
<polygon fill="#999999" stroke="#666666" points="220.75,-141 152.25,-141 152.25,-121.75 220.75,-121.75 220.75,-141"/>
<text text-anchor="middle" x="186.5" y="-127.5" font-family="Helvetica,sans-Serif" font-size="10.00">OrbitState.h</text>
</a>
</g>
</g>
<!-- Node2 -->
<g id="Node000002" class="node">
<title>Node2</title>
<g id="a_Node000002"><a xlink:title=" ">
<polygon fill="#e0e0e0" stroke="#999999" points="80.62,-85.75 8.38,-85.75 8.38,-66.5 80.62,-66.5 80.62,-85.75"/>
<text text-anchor="middle" x="44.5" y="-72.25" font-family="Helvetica,sans-Serif" font-size="10.00">Eigen/Dense</text>
</a>
</g>
</g>
<!-- Node1&#45;&gt;Node2 -->
<g id="edge1_Node000001_Node000002" class="edge">
<title>Node1&#45;&gt;Node2</title>
<g id="a_edge1_Node000001_Node000002"><a xlink:title=" ">
<path fill="none" stroke="#63b8ff" d="M162.41,-121.34C139.46,-112.74 104.68,-99.69 78.83,-90"/>
<polygon fill="#63b8ff" stroke="#63b8ff" points="80.3,-86.44 69.71,-86.2 77.84,-92.99 80.3,-86.44"/>
</a>
</g>
</g>
<!-- Node3 -->
<g id="Node000003" class="node">
<title>Node3</title>
<g id="a_Node000003"><a xlink:title=" ">
<polygon fill="#e0e0e0" stroke="#999999" points="121,-24.88 0,-24.88 0,-5.63 121,-5.63 121,-24.88"/>
<text text-anchor="middle" x="60.5" y="-11.38" font-family="Helvetica,sans-Serif" font-size="10.00">autodiff/forward/real.hpp</text>
</a>
</g>
</g>
<!-- Node1&#45;&gt;Node3 -->
<g id="edge2_Node000001_Node000003" class="edge">
<title>Node1&#45;&gt;Node3</title>
<g id="a_edge2_Node000001_Node000003"><a xlink:title=" ">
<path fill="none" stroke="#63b8ff" d="M173.39,-121.35C161.12,-112.71 142.49,-99.05 127.5,-85.75 108.6,-68.99 88.73,-47.87 75.59,-33.34"/>
<polygon fill="#63b8ff" stroke="#63b8ff" points="78.62,-31.36 69.34,-26.24 73.4,-36.03 78.62,-31.36"/>
</a>
</g>
</g>
<!-- Node4 -->
<g id="Node000004" class="node">
<title>Node4</title>
<g id="a_Node000004"><a xlink:title=" ">
<polygon fill="#e0e0e0" stroke="#999999" points="302.62,-30.5 200.38,-30.5 200.38,0 302.62,0 302.62,-30.5"/>
<text text-anchor="start" x="208.38" y="-17" font-family="Helvetica,sans-Serif" font-size="10.00">autodiff/forward/real</text>
<text text-anchor="middle" x="251.5" y="-5.75" font-family="Helvetica,sans-Serif" font-size="10.00">/eigen.hpp</text>
</a>
</g>
</g>
<!-- Node1&#45;&gt;Node4 -->
<g id="edge3_Node000001_Node000004" class="edge">
<title>Node1&#45;&gt;Node4</title>
<g id="a_edge3_Node000001_Node000004"><a xlink:title=" ">
<path fill="none" stroke="#63b8ff" d="M191.6,-121.42C201.48,-104.07 223.53,-65.36 237.94,-40.06"/>
<polygon fill="#63b8ff" stroke="#63b8ff" points="241.32,-42.19 243.23,-31.77 235.24,-38.73 241.32,-42.19"/>
</a>
</g>
</g>
<!-- Node5 -->
<g id="Node000005" class="node">
<title>Node5</title>
<g id="a_Node000005"><a xlink:title=" ">
<polygon fill="#e0e0e0" stroke="#999999" points="358.12,-85.75 240.88,-85.75 240.88,-66.5 358.12,-66.5 358.12,-85.75"/>
<text text-anchor="middle" x="299.5" y="-72.25" font-family="Helvetica,sans-Serif" font-size="10.00">boost/preprocessor.hpp</text>
</a>
</g>
</g>
<!-- Node1&#45;&gt;Node5 -->
<g id="edge4_Node000001_Node000005" class="edge">
<title>Node1&#45;&gt;Node5</title>
<g id="a_edge4_Node000001_Node000005"><a xlink:title=" ">
<path fill="none" stroke="#63b8ff" d="M205.67,-121.34C223.44,-112.97 250.14,-100.38 270.52,-90.78"/>
<polygon fill="#63b8ff" stroke="#63b8ff" points="271.68,-93.63 279.24,-86.2 268.7,-87.3 271.68,-93.63"/>
</a>
</g>
</g>
<!-- Node6 -->
<g id="Node000006" class="node">
<title>Node6</title>
<g id="a_Node000006"><a xlink:title=" ">
<polygon fill="#e0e0e0" stroke="#999999" points="434.88,-85.75 376.12,-85.75 376.12,-66.5 434.88,-66.5 434.88,-85.75"/>
<text text-anchor="middle" x="405.5" y="-72.25" font-family="Helvetica,sans-Serif" font-size="10.00">stdexcept</text>
</a>
</g>
</g>
<!-- Node1&#45;&gt;Node6 -->
<g id="edge5_Node000001_Node000006" class="edge">
<title>Node1&#45;&gt;Node6</title>
<g id="a_edge5_Node000001_Node000006"><a xlink:title=" ">
<path fill="none" stroke="#63b8ff" d="M221.2,-121.94C260.39,-112.41 324.08,-96.92 365.38,-86.88"/>
<polygon fill="#63b8ff" stroke="#63b8ff" points="365.99,-90.09 374.88,-84.33 364.33,-83.29 365.99,-90.09"/>
</a>
</g>
</g>
<!-- Node7 -->
<g id="Node000007" class="node">
<title>Node7</title>
<g id="a_Node000007"><a xlink:href="_state_8h.html" target="_top" xlink:title="SPICE Interface functions.">
<polygon fill="white" stroke="#666666" points="184.25,-85.75 136.75,-85.75 136.75,-66.5 184.25,-66.5 184.25,-85.75"/>
<text text-anchor="middle" x="160.5" y="-72.25" font-family="Helvetica,sans-Serif" font-size="10.00">State.h</text>
</a>
</g>
</g>
<!-- Node1&#45;&gt;Node7 -->
<g id="edge6_Node000001_Node000007" class="edge">
<title>Node1&#45;&gt;Node7</title>
<g id="a_edge6_Node000001_Node000007"><a xlink:title=" ">
<path fill="none" stroke="#63b8ff" d="M182.21,-121.58C178.8,-114.61 173.92,-104.62 169.65,-95.87"/>
<polygon fill="#63b8ff" stroke="#63b8ff" points="172.42,-94.56 164.89,-87.11 166.13,-97.63 172.42,-94.56"/>
</a>
</g>
</g>
<!-- Node7&#45;&gt;Node3 -->
<g id="edge7_Node000007_Node000003" class="edge">
<title>Node7&#45;&gt;Node3</title>
<g id="a_edge7_Node000007_Node000003"><a xlink:title=" ">
<path fill="none" stroke="#63b8ff" d="M145.31,-66.18C129.38,-56.8 104.09,-41.91 85.26,-30.83"/>
<polygon fill="#63b8ff" stroke="#63b8ff" points="87.22,-27.33 76.83,-25.28 83.67,-33.37 87.22,-27.33"/>
</a>
</g>
</g>
<!-- Node7&#45;&gt;Node4 -->
<g id="edge8_Node000007_Node000004" class="edge">
<title>Node7&#45;&gt;Node4</title>
<g id="a_edge8_Node000007_Node000004"><a xlink:title=" ">
<path fill="none" stroke="#63b8ff" d="M174.32,-66.18C186.46,-58.33 204.56,-46.62 220.19,-36.51"/>
<polygon fill="#63b8ff" stroke="#63b8ff" points="221.54,-39.15 228.04,-30.78 217.74,-33.28 221.54,-39.15"/>
</a>
</g>
</g>
<!-- Node8 -->
<g id="Node000008" class="node">
<title>Node8</title>
<g id="a_Node000008"><a xlink:title=" ">
<polygon fill="#e0e0e0" stroke="#999999" points="182,-24.88 139,-24.88 139,-5.63 182,-5.63 182,-24.88"/>
<text text-anchor="middle" x="160.5" y="-11.38" font-family="Helvetica,sans-Serif" font-size="10.00">vector</text>
</a>
</g>
</g>
<!-- Node7&#45;&gt;Node8 -->
<g id="edge9_Node000007_Node000008" class="edge">
<title>Node7&#45;&gt;Node8</title>
<g id="a_edge9_Node000007_Node000008"><a xlink:title=" ">
<path fill="none" stroke="#63b8ff" d="M160.5,-66.18C160.5,-58.23 160.5,-46.31 160.5,-36.12"/>
<polygon fill="#63b8ff" stroke="#63b8ff" points="164,-36.28 160.5,-26.28 157,-36.28 164,-36.28"/>
</a>
</g>
</g>
</g>
</svg>
</svg>

<style type='text/css'>
<![CDATA[
[data-mouse-over-selected='false'] { opacity: 0.7; }
[data-mouse-over-selected='true']  { opacity: 1.0; }
]]>
</style>
<script type="application/ecmascript"><![CDATA[
document.addEventListener('DOMContentLoaded', (event) => {
  highlightEdges();
  highlightAdjacentNodes();
});
]]></script>
</svg>
