<?xml version="1.0" encoding="UTF-8" standalone="no"?>
<!DOCTYPE svg PUBLIC "-//W3C//DTD SVG 1.1//EN"
 "http://www.w3.org/Graphics/SVG/1.1/DTD/svg11.dtd">
<!-- Generated by graphviz version 8.1.0 (20230707.0739)
 -->
<!-- Title: LPT::MeanAnomToTrueAnom Pages: 1 -->
<svg width="468pt" height="119pt"
 viewBox="0.00 0.00 467.75 119.25" xmlns="http://www.w3.org/2000/svg" xmlns:xlink="http://www.w3.org/1999/xlink">

<svg id="main" version="1.1" xmlns="http://www.w3.org/2000/svg" xmlns:xlink="http://www.w3.org/1999/xlink" xml:space="preserve" onload="init(evt)">
<style type="text/css"><![CDATA[
.node, .edge {opacity: 0.7;}
.node.selected, .edge.selected {opacity: 1;}
.edge:hover path { stroke: red; }
.edge:hover polygon { stroke: red; fill: red; }
]]></style>
<script type="application/ecmascript" xlink:href="svg.min.js"/>
<svg id="graph" class="graph">
<g id="graph0" class="graph" transform="scale(1 1) rotate(0) translate(4 115.25)">
<title>LPT::MeanAnomToTrueAnom</title>
<!-- Node1 -->
<g id="Node000001" class="node">
<title>Node1</title>
<g id="a_Node000001"><a xlink:title="Compute mean anomaly from the Eccentric anomaly.">
<polygon fill="#999999" stroke="#666666" points="143.5,-38.25 0,-38.25 0,-19 143.5,-19 143.5,-38.25"/>
<text text-anchor="middle" x="71.75" y="-24.75" font-family="Helvetica,sans-Serif" font-size="10.00">LPT::MeanAnomToTrueAnom</text>
</a>
</g>
</g>
<!-- Node1&#45;&gt;Node1 -->
<g id="edge7_Node000001_Node000001" class="edge">
<title>Node1&#45;&gt;Node1</title>
<g id="a_edge7_Node000001_Node000001"><a xlink:title=" ">
<path fill="none" stroke="#63b8ff" d="M41.95,-38.54C28.35,-47.15 38.29,-56.25 71.75,-56.25 92.67,-56.25 104.39,-52.69 106.92,-47.92"/>
<polygon fill="#63b8ff" stroke="#63b8ff" points="109.56,-46.48 101.55,-39.54 103.48,-49.96 109.56,-46.48"/>
</a>
</g>
</g>
<!-- Node2 -->
<g id="Node000002" class="node">
<title>Node2</title>
<g id="a_Node000002"><a xlink:href="_orbit_state_utils_8cpp.html#afae75b8282b83480f2664661f5478312" target="_top" xlink:title="Compute true anomaly from the eccentric anomaly.">
<polygon fill="white" stroke="#666666" points="342.5,-93.25 181.75,-93.25 181.75,-74 342.5,-74 342.5,-93.25"/>
<text text-anchor="middle" x="262.12" y="-79.75" font-family="Helvetica,sans-Serif" font-size="10.00">LPT::EccentricAnomToTrueAnom</text>
</a>
</g>
</g>
<!-- Node1&#45;&gt;Node2 -->
<g id="edge1_Node000001_Node000002" class="edge">
<title>Node1&#45;&gt;Node2</title>
<g id="a_edge1_Node000001_Node000002"><a xlink:title=" ">
<path fill="none" stroke="#63b8ff" d="M98.8,-38.61C120.25,-46.6 151.56,-57.73 179.5,-65.62 186.35,-67.56 193.57,-69.41 200.77,-71.15"/>
<polygon fill="#63b8ff" stroke="#63b8ff" points="199.72,-74.73 210.25,-73.6 201.31,-67.91 199.72,-74.73"/>
</a>
</g>
</g>
<!-- Node3 -->
<g id="Node000003" class="node">
<title>Node3</title>
<g id="a_Node000003"><a xlink:href="_orbit_state_utils_8cpp.html#a6a26bf7ebe2bbd126096fac762cd2f6a" target="_top" xlink:title="Compute mean anomaly from the Eccentric anomaly.">
<polygon fill="white" stroke="#666666" points="344.75,-38.25 179.5,-38.25 179.5,-19 344.75,-19 344.75,-38.25"/>
<text text-anchor="middle" x="262.12" y="-24.75" font-family="Helvetica,sans-Serif" font-size="10.00">LPT::MeanAnomToEccentricAnom</text>
</a>
</g>
</g>
<!-- Node1&#45;&gt;Node3 -->
<g id="edge3_Node000001_Node000003" class="edge">
<title>Node1&#45;&gt;Node3</title>
<g id="a_edge3_Node000001_Node000003"><a xlink:title=" ">
<path fill="none" stroke="#63b8ff" d="M143.97,-28.62C151.94,-28.62 160.14,-28.62 168.33,-28.62"/>
<polygon fill="#63b8ff" stroke="#63b8ff" points="168.06,-32.13 178.06,-28.62 168.06,-25.13 168.06,-32.13"/>
</a>
</g>
</g>
<!-- Node4 -->
<g id="Node000004" class="node">
<title>Node4</title>
<g id="a_Node000004"><a xlink:href="_math_utils_8cpp.html#a7d7ca6984da9a017ed7e3d34657fc87b" target="_top" xlink:title="Wrap the angle between &#45;pi and pi.">
<polygon fill="white" stroke="#666666" points="459.75,-19.25 380.75,-19.25 380.75,0 459.75,0 459.75,-19.25"/>
<text text-anchor="middle" x="420.25" y="-5.75" font-family="Helvetica,sans-Serif" font-size="10.00">LPT::wrapToPi</text>
</a>
</g>
</g>
<!-- Node1&#45;&gt;Node4 -->
<g id="edge8_Node000001_Node000004" class="edge">
<title>Node1&#45;&gt;Node4</title>
<g id="a_edge8_Node000001_Node000004"><a xlink:title=" ">
<path fill="none" stroke="#63b8ff" d="M119.28,-18.51C137.91,-14.94 159.62,-11.38 179.5,-9.62 245.08,-3.83 321.15,-5.2 369.71,-7.09"/>
<polygon fill="#63b8ff" stroke="#63b8ff" points="369.4,-10.62 379.54,-7.54 369.69,-3.63 369.4,-10.62"/>
</a>
</g>
</g>
<!-- Node2&#45;&gt;Node2 -->
<g id="edge2_Node000002_Node000002" class="edge">
<title>Node2&#45;&gt;Node2</title>
<g id="a_edge2_Node000002_Node000002"><a xlink:title=" ">
<path fill="none" stroke="#63b8ff" d="M237.37,-93.54C226.08,-102.15 234.33,-111.25 262.12,-111.25 278.63,-111.25 288.24,-108.04 290.97,-103.63"/>
<polygon fill="#63b8ff" stroke="#63b8ff" points="293.88,-102.49 286.88,-94.54 287.39,-105.12 293.88,-102.49"/>
</a>
</g>
</g>
<!-- Node3&#45;&gt;Node3 -->
<g id="edge4_Node000003_Node000003" class="edge">
<title>Node3&#45;&gt;Node3</title>
<g id="a_edge4_Node000003_Node000003"><a xlink:title=" ">
<path fill="none" stroke="#63b8ff" d="M237.37,-38.54C226.08,-47.15 234.33,-56.25 262.12,-56.25 278.63,-56.25 288.24,-53.04 290.97,-48.63"/>
<polygon fill="#63b8ff" stroke="#63b8ff" points="293.88,-47.49 286.88,-39.54 287.39,-50.12 293.88,-47.49"/>
</a>
</g>
</g>
<!-- Node3&#45;&gt;Node4 -->
<g id="edge5_Node000003_Node000004" class="edge">
<title>Node3&#45;&gt;Node4</title>
<g id="a_edge5_Node000003_Node000004"><a xlink:title=" ">
<path fill="none" stroke="#63b8ff" d="M344.85,-18.68C353.27,-17.65 361.64,-16.64 369.55,-15.67"/>
<polygon fill="#63b8ff" stroke="#63b8ff" points="369.9,-19.03 379.41,-14.35 369.06,-12.09 369.9,-19.03"/>
</a>
</g>
</g>
<!-- Node4&#45;&gt;Node4 -->
<g id="edge6_Node000004_Node000004" class="edge">
<title>Node4&#45;&gt;Node4</title>
<g id="a_edge6_Node000004_Node000004"><a xlink:title=" ">
<path fill="none" stroke="#63b8ff" d="M395.49,-19.54C384.2,-28.15 392.45,-37.25 420.25,-37.25 436.75,-37.25 446.37,-34.04 449.09,-29.63"/>
<polygon fill="#63b8ff" stroke="#63b8ff" points="452,-28.49 445.01,-20.54 445.51,-31.12 452,-28.49"/>
</a>
</g>
</g>
</g>
</svg>
</svg>

<style type='text/css'>
<![CDATA[
[data-mouse-over-selected='false'] { opacity: 0.7; }
[data-mouse-over-selected='true']  { opacity: 1.0; }
]]>
</style>
<script type="application/ecmascript"><![CDATA[
document.addEventListener('DOMContentLoaded', (event) => {
  highlightEdges();
  highlightAdjacentNodes();
});
]]></script>
</svg>
