<?xml version="1.0" encoding="UTF-8" standalone="no"?>
<!DOCTYPE svg PUBLIC "-//W3C//DTD SVG 1.1//EN"
 "http://www.w3.org/Graphics/SVG/1.1/DTD/svg11.dtd">
<!-- Generated by graphviz version 8.1.0 (20230707.0739)
 -->
<!-- Title: OrbitStateUtils.h Pages: 1 -->
<svg width="1455pt" height="193pt"
 viewBox="0.00 0.00 1455.00 193.00" xmlns="http://www.w3.org/2000/svg" xmlns:xlink="http://www.w3.org/1999/xlink">
<g id="graph0" class="graph" transform="scale(1 1) rotate(0) translate(4 189)">
<title>OrbitStateUtils.h</title>
<!-- Node1 -->
<g id="Node000001" class="node">
<title>Node1</title>
<g id="a_Node000001"><a xlink:title="Util functions for state conversions.">
<polygon fill="#999999" stroke="#666666" points="1210,-185 1121.25,-185 1121.25,-165.75 1210,-165.75 1210,-185"/>
<text text-anchor="middle" x="1165.62" y="-171.5" font-family="Helvetica,sans-Serif" font-size="10.00">OrbitStateUtils.h</text>
</a>
</g>
</g>
<!-- Node2 -->
<g id="Node000002" class="node">
<title>Node2</title>
<g id="a_Node000002"><a xlink:href="_agent_8h.html" target="_top" xlink:title="List of agents.">
<polygon fill="white" stroke="#666666" points="692.5,-129.75 642.75,-129.75 642.75,-110.5 692.5,-110.5 692.5,-129.75"/>
<text text-anchor="middle" x="667.62" y="-116.25" font-family="Helvetica,sans-Serif" font-size="10.00">Agent.h</text>
</a>
</g>
</g>
<!-- Node1&#45;&gt;Node2 -->
<g id="edge1_Node000001_Node000002" class="edge">
<title>Node1&#45;&gt;Node2</title>
<g id="a_edge1_Node000001_Node000002"><a xlink:title=" ">
<path fill="none" stroke="#63b8ff" d="M1110.06,-168.43C1002.5,-156.93 769.67,-132.04 692.81,-123.82"/>
<polygon fill="#63b8ff" stroke="#63b8ff" points="1109.68,-172.02 1119.99,-169.6 1110.42,-165.06 1109.68,-172.02"/>
</a>
</g>
</g>
<!-- Node17 -->
<g id="Node000017" class="node">
<title>Node17</title>
<g id="a_Node000017"><a xlink:href="_dynamics_analytical_8cpp.html" target="_top" xlink:title="Analytical orbit dynamics implementation.">
<polygon fill="white" stroke="#666666" points="1043.5,-129.75 921.75,-129.75 921.75,-110.5 1043.5,-110.5 1043.5,-129.75"/>
<text text-anchor="middle" x="982.62" y="-116.25" font-family="Helvetica,sans-Serif" font-size="10.00">DynamicsAnalytical.cpp</text>
</a>
</g>
</g>
<!-- Node1&#45;&gt;Node17 -->
<g id="edge21_Node000001_Node000017" class="edge">
<title>Node1&#45;&gt;Node17</title>
<g id="a_edge21_Node000001_Node000017"><a xlink:title=" ">
<path fill="none" stroke="#63b8ff" d="M1124.19,-162.32C1090.69,-152.57 1044.24,-139.05 1013.82,-130.2"/>
<polygon fill="#63b8ff" stroke="#63b8ff" points="1123,-165.91 1133.58,-165.34 1124.96,-159.19 1123,-165.91"/>
</a>
</g>
</g>
<!-- Node18 -->
<g id="Node000018" class="node">
<title>Node18</title>
<g id="a_Node000018"><a xlink:href="_lunar_mean_osc_8cpp.html" target="_top" xlink:title="Lunar Mean and Osculating Elements.">
<polygon fill="white" stroke="#666666" points="1162,-129.75 1061.25,-129.75 1061.25,-110.5 1162,-110.5 1162,-129.75"/>
<text text-anchor="middle" x="1111.62" y="-116.25" font-family="Helvetica,sans-Serif" font-size="10.00">LunarMeanOsc.cpp</text>
</a>
</g>
</g>
<!-- Node1&#45;&gt;Node18 -->
<g id="edge22_Node000001_Node000018" class="edge">
<title>Node1&#45;&gt;Node18</title>
<g id="a_edge22_Node000001_Node000018"><a xlink:title=" ">
<path fill="none" stroke="#63b8ff" d="M1149.16,-158.13C1139.82,-148.93 1128.49,-137.75 1120.74,-130.11"/>
<polygon fill="#63b8ff" stroke="#63b8ff" points="1146.13,-160.05 1155.71,-164.58 1151.05,-155.07 1146.13,-160.05"/>
</a>
</g>
</g>
<!-- Node20 -->
<g id="Node000020" class="node">
<title>Node20</title>
<g id="a_Node000020"><a xlink:href="_orbit_state_8cpp.html" target="_top" xlink:title="Orbit states.">
<polygon fill="white" stroke="#666666" points="1259.12,-129.75 1180.12,-129.75 1180.12,-110.5 1259.12,-110.5 1259.12,-129.75"/>
<text text-anchor="middle" x="1219.62" y="-116.25" font-family="Helvetica,sans-Serif" font-size="10.00">OrbitState.cpp</text>
</a>
</g>
</g>
<!-- Node1&#45;&gt;Node20 -->
<g id="edge24_Node000001_Node000020" class="edge">
<title>Node1&#45;&gt;Node20</title>
<g id="a_edge24_Node000001_Node000020"><a xlink:title=" ">
<path fill="none" stroke="#63b8ff" d="M1182.09,-158.13C1191.43,-148.93 1202.76,-137.75 1210.51,-130.11"/>
<polygon fill="#63b8ff" stroke="#63b8ff" points="1180.2,-155.07 1175.54,-164.58 1185.12,-160.05 1180.2,-155.07"/>
</a>
</g>
</g>
<!-- Node21 -->
<g id="Node000021" class="node">
<title>Node21</title>
<g id="a_Node000021"><a xlink:href="_orbit_state_utils_8cpp.html" target="_top" xlink:title="Util functions for state conversions.">
<polygon fill="white" stroke="#666666" points="1376.25,-129.75 1277,-129.75 1277,-110.5 1376.25,-110.5 1376.25,-129.75"/>
<text text-anchor="middle" x="1326.62" y="-116.25" font-family="Helvetica,sans-Serif" font-size="10.00">OrbitStateUtils.cpp</text>
</a>
</g>
</g>
<!-- Node1&#45;&gt;Node21 -->
<g id="edge25_Node000001_Node000021" class="edge">
<title>Node1&#45;&gt;Node21</title>
<g id="a_edge25_Node000001_Node000021"><a xlink:title=" ">
<path fill="none" stroke="#63b8ff" d="M1203.23,-161.94C1232.61,-152.22 1272.77,-138.94 1299.18,-130.2"/>
<polygon fill="#63b8ff" stroke="#63b8ff" points="1202.33,-158.88 1193.94,-165.34 1204.53,-165.52 1202.33,-158.88"/>
</a>
</g>
</g>
<!-- Node22 -->
<g id="Node000022" class="node">
<title>Node22</title>
<g id="a_Node000022"><a xlink:href="_t_l_e_8cpp.html" target="_top" xlink:title="Routines to process TLE files.">
<polygon fill="white" stroke="#666666" points="1447,-129.75 1394.25,-129.75 1394.25,-110.5 1447,-110.5 1447,-129.75"/>
<text text-anchor="middle" x="1420.62" y="-116.25" font-family="Helvetica,sans-Serif" font-size="10.00">TLE.cpp</text>
</a>
</g>
</g>
<!-- Node1&#45;&gt;Node22 -->
<g id="edge26_Node000001_Node000022" class="edge">
<title>Node1&#45;&gt;Node22</title>
<g id="a_edge26_Node000001_Node000022"><a xlink:title=" ">
<path fill="none" stroke="#63b8ff" d="M1221.01,-163.8C1265.58,-155.13 1329.77,-142.29 1385.62,-129.75 1388.31,-129.15 1391.11,-128.5 1393.9,-127.83"/>
<polygon fill="#63b8ff" stroke="#63b8ff" points="1220.56,-160.52 1211.4,-165.86 1221.89,-167.39 1220.56,-160.52"/>
</a>
</g>
</g>
<!-- Node3 -->
<g id="Node000003" class="node">
<title>Node3</title>
<g id="a_Node000003"><a xlink:href="_agent_8cpp.html" target="_top" xlink:title="Base class fo.">
<polygon fill="white" stroke="#666666" points="1240.75,-74.5 1180.5,-74.5 1180.5,-55.25 1240.75,-55.25 1240.75,-74.5"/>
<text text-anchor="middle" x="1210.62" y="-61" font-family="Helvetica,sans-Serif" font-size="10.00">Agent.cpp</text>
</a>
</g>
</g>
<!-- Node2&#45;&gt;Node3 -->
<g id="edge2_Node000002_Node000003" class="edge">
<title>Node2&#45;&gt;Node3</title>
<g id="a_edge2_Node000002_Node000003"><a xlink:title=" ">
<path fill="none" stroke="#63b8ff" d="M703.79,-117.53C786.85,-113.52 997.5,-101.35 1171.62,-74.5 1174.37,-74.08 1177.2,-73.58 1180.04,-73.03"/>
<polygon fill="#63b8ff" stroke="#63b8ff" points="703.76,-114.08 693.94,-118.04 704.09,-121.07 703.76,-114.08"/>
</a>
</g>
</g>
<!-- Node4 -->
<g id="Node000004" class="node">
<title>Node4</title>
<g id="a_Node000004"><a xlink:href="_example_constellations_8cpp.html" target="_top" xlink:title="Setup GNSS Constellation.">
<polygon fill="white" stroke="#666666" points="135.25,-19.25 0,-19.25 0,0 135.25,0 135.25,-19.25"/>
<text text-anchor="middle" x="67.62" y="-5.75" font-family="Helvetica,sans-Serif" font-size="10.00">ExampleConstellations.cpp</text>
</a>
</g>
</g>
<!-- Node2&#45;&gt;Node4 -->
<g id="edge3_Node000002_Node000004" class="edge">
<title>Node2&#45;&gt;Node4</title>
<g id="a_edge3_Node000002_Node000004"><a xlink:title=" ">
<path fill="none" stroke="#63b8ff" d="M631.45,-118.07C558.43,-115.33 388.49,-105.84 249.62,-74.5 189.52,-60.94 121.79,-33.87 88.45,-19.72"/>
<polygon fill="#63b8ff" stroke="#63b8ff" points="631.21,-121.6 641.32,-118.45 631.45,-114.6 631.21,-121.6"/>
</a>
</g>
</g>
<!-- Node5 -->
<g id="Node000005" class="node">
<title>Node5</title>
<g id="a_Node000005"><a xlink:href="_example_e_k_f_8cpp.html" target="_top" xlink:title="Example of Extended Kalman Filter for orbit determination.">
<polygon fill="white" stroke="#666666" points="244.12,-19.25 153.12,-19.25 153.12,0 244.12,0 244.12,-19.25"/>
<text text-anchor="middle" x="198.62" y="-5.75" font-family="Helvetica,sans-Serif" font-size="10.00">ExampleEKF.cpp</text>
</a>
</g>
</g>
<!-- Node2&#45;&gt;Node5 -->
<g id="edge4_Node000002_Node000005" class="edge">
<title>Node2&#45;&gt;Node5</title>
<g id="a_edge4_Node000002_Node000005"><a xlink:title=" ">
<path fill="none" stroke="#63b8ff" d="M631.7,-117.24C549.33,-112.54 349.13,-98.91 286.62,-74.5 253.92,-61.73 222.28,-33.8 207.43,-19.48"/>
<polygon fill="#63b8ff" stroke="#63b8ff" points="631.33,-120.78 641.51,-117.84 631.72,-113.79 631.33,-120.78"/>
</a>
</g>
</g>
<!-- Node6 -->
<g id="Node000006" class="node">
<title>Node6</title>
<g id="a_Node000006"><a xlink:href="_example_e_k_f_app_8cpp.html" target="_top" xlink:title="Example of EKF application.">
<polygon fill="white" stroke="#666666" points="653.5,-19.25 543.75,-19.25 543.75,0 653.5,0 653.5,-19.25"/>
<text text-anchor="middle" x="598.62" y="-5.75" font-family="Helvetica,sans-Serif" font-size="10.00">ExampleEKFApp.cpp</text>
</a>
</g>
</g>
<!-- Node2&#45;&gt;Node6 -->
<g id="edge5_Node000002_Node000006" class="edge">
<title>Node2&#45;&gt;Node6</title>
<g id="a_edge5_Node000002_Node000006"><a xlink:title=" ">
<path fill="none" stroke="#63b8ff" d="M631.71,-119.55C596.75,-117.8 545.26,-109 519.62,-74.5 502.01,-50.79 541.26,-30.76 570.51,-19.75"/>
<polygon fill="#63b8ff" stroke="#63b8ff" points="631.32,-123.07 641.42,-119.9 631.54,-116.08 631.32,-123.07"/>
</a>
</g>
</g>
<!-- Node7 -->
<g id="Node000007" class="node">
<title>Node7</title>
<g id="a_Node000007"><a xlink:href="_example_propagation_8cpp.html" target="_top" xlink:title="Example propagating both GPS constellation and Lunar Satellite.">
<polygon fill="white" stroke="#666666" points="526,-19.25 401.25,-19.25 401.25,0 526,0 526,-19.25"/>
<text text-anchor="middle" x="463.62" y="-5.75" font-family="Helvetica,sans-Serif" font-size="10.00">ExamplePropagation.cpp</text>
</a>
</g>
</g>
<!-- Node2&#45;&gt;Node7 -->
<g id="edge6_Node000002_Node000007" class="edge">
<title>Node2&#45;&gt;Node7</title>
<g id="a_edge6_Node000002_Node000007"><a xlink:title=" ">
<path fill="none" stroke="#63b8ff" d="M631.6,-115.45C598.05,-110.57 547.91,-99.46 511.62,-74.5 490.6,-60.04 475,-33.37 467.89,-19.51"/>
<polygon fill="#63b8ff" stroke="#63b8ff" points="630.92,-119.02 641.29,-116.87 631.84,-112.08 630.92,-119.02"/>
</a>
</g>
</g>
<!-- Node8 -->
<g id="Node000008" class="node">
<title>Node8</title>
<g id="a_Node000008"><a xlink:href="_g_n_s_s_channel_8cpp.html" target="_top" xlink:title="GNSS Channel.">
<polygon fill="white" stroke="#666666" points="786.25,-74.5 687,-74.5 687,-55.25 786.25,-55.25 786.25,-74.5"/>
<text text-anchor="middle" x="736.62" y="-61" font-family="Helvetica,sans-Serif" font-size="10.00">GNSSChannel.cpp</text>
</a>
</g>
</g>
<!-- Node2&#45;&gt;Node8 -->
<g id="edge7_Node000002_Node000008" class="edge">
<title>Node2&#45;&gt;Node8</title>
<g id="a_edge7_Node000002_Node000008"><a xlink:title=" ">
<path fill="none" stroke="#63b8ff" d="M687.91,-103.47C700.03,-94.12 714.98,-82.58 725.09,-74.77"/>
<polygon fill="#63b8ff" stroke="#63b8ff" points="686.11,-101.21 680.33,-110.09 690.38,-106.75 686.11,-101.21"/>
</a>
</g>
</g>
<!-- Node9 -->
<g id="Node000009" class="node">
<title>Node9</title>
<g id="a_Node000009"><a xlink:href="_g_n_s_s_constellation_8h.html" target="_top" xlink:title=" ">
<polygon fill="white" stroke="#666666" points="405.5,-74.5 295.75,-74.5 295.75,-55.25 405.5,-55.25 405.5,-74.5"/>
<text text-anchor="middle" x="350.62" y="-61" font-family="Helvetica,sans-Serif" font-size="10.00">GNSSConstellation.h</text>
</a>
</g>
</g>
<!-- Node2&#45;&gt;Node9 -->
<g id="edge8_Node000002_Node000009" class="edge">
<title>Node2&#45;&gt;Node9</title>
<g id="a_edge8_Node000002_Node000009"><a xlink:title=" ">
<path fill="none" stroke="#63b8ff" d="M631.8,-113.11C576.38,-103.8 469.53,-85.85 404.7,-74.96"/>
<polygon fill="#63b8ff" stroke="#63b8ff" points="631.04,-116.7 641.49,-114.9 632.2,-109.79 631.04,-116.7"/>
</a>
</g>
</g>
<!-- Node11 -->
<g id="Node000011" class="node">
<title>Node11</title>
<g id="a_Node000011"><a xlink:href="_g_n_s_s_state_estimation_app_8h.html" target="_top" xlink:title="State Estimation Application Using GNSS Measurement.">
<polygon fill="white" stroke="#666666" points="668.5,-74.5 528.75,-74.5 528.75,-55.25 668.5,-55.25 668.5,-74.5"/>
<text text-anchor="middle" x="598.62" y="-61" font-family="Helvetica,sans-Serif" font-size="10.00">GNSSStateEstimationApp.h</text>
</a>
</g>
</g>
<!-- Node2&#45;&gt;Node11 -->
<g id="edge14_Node000002_Node000011" class="edge">
<title>Node2&#45;&gt;Node11</title>
<g id="a_edge14_Node000002_Node000011"><a xlink:title=" ">
<path fill="none" stroke="#63b8ff" d="M647.34,-103.47C635.22,-94.12 620.27,-82.58 610.16,-74.77"/>
<polygon fill="#63b8ff" stroke="#63b8ff" points="644.87,-106.75 654.92,-110.09 649.14,-101.21 644.87,-106.75"/>
</a>
</g>
</g>
<!-- Node13 -->
<g id="Node000013" class="node">
<title>Node13</title>
<g id="a_Node000013"><a xlink:href="_g_n_s_s_transmitter_8cpp.html" target="_top" xlink:title="Handles GNSS transmit.">
<polygon fill="white" stroke="#666666" points="916.62,-74.5 804.62,-74.5 804.62,-55.25 916.62,-55.25 916.62,-74.5"/>
<text text-anchor="middle" x="860.62" y="-61" font-family="Helvetica,sans-Serif" font-size="10.00">GNSSTransmitter.cpp</text>
</a>
</g>
</g>
<!-- Node2&#45;&gt;Node13 -->
<g id="edge17_Node000002_Node000013" class="edge">
<title>Node2&#45;&gt;Node13</title>
<g id="a_edge17_Node000002_Node000013"><a xlink:title=" ">
<path fill="none" stroke="#63b8ff" d="M703.25,-109.3C738.82,-99.48 793.02,-84.53 827.63,-74.98"/>
<polygon fill="#63b8ff" stroke="#63b8ff" points="702.57,-106.13 693.86,-112.16 704.43,-112.88 702.57,-106.13"/>
</a>
</g>
</g>
<!-- Node14 -->
<g id="Node000014" class="node">
<title>Node14</title>
<g id="a_Node000014"><a xlink:href="_space_channel_8cpp.html" target="_top" xlink:title="Base spacechannel class (Under devlopment )">
<polygon fill="white" stroke="#666666" points="1032.88,-74.5 934.38,-74.5 934.38,-55.25 1032.88,-55.25 1032.88,-74.5"/>
<text text-anchor="middle" x="983.62" y="-61" font-family="Helvetica,sans-Serif" font-size="10.00">SpaceChannel.cpp</text>
</a>
</g>
</g>
<!-- Node2&#45;&gt;Node14 -->
<g id="edge18_Node000002_Node000014" class="edge">
<title>Node2&#45;&gt;Node14</title>
<g id="a_edge18_Node000002_Node000014"><a xlink:title=" ">
<path fill="none" stroke="#63b8ff" d="M703.51,-113.08C760.01,-103.56 869.86,-85.05 933.92,-74.25"/>
<polygon fill="#63b8ff" stroke="#63b8ff" points="703.23,-109.74 693.95,-114.86 704.39,-116.65 703.23,-109.74"/>
</a>
</g>
</g>
<!-- Node15 -->
<g id="Node000015" class="node">
<title>Node15</title>
<g id="a_Node000015"><a xlink:href="_state_estimation_app_8h.html" target="_top" xlink:title="Base class for State Estimation Application.">
<polygon fill="white" stroke="#666666" points="1162.25,-74.5 1051,-74.5 1051,-55.25 1162.25,-55.25 1162.25,-74.5"/>
<text text-anchor="middle" x="1106.62" y="-61" font-family="Helvetica,sans-Serif" font-size="10.00">StateEstimationApp.h</text>
</a>
</g>
</g>
<!-- Node2&#45;&gt;Node15 -->
<g id="edge19_Node000002_Node000015" class="edge">
<title>Node2&#45;&gt;Node15</title>
<g id="a_edge19_Node000002_Node000015"><a xlink:title=" ">
<path fill="none" stroke="#63b8ff" d="M703.3,-115.03C769.85,-107.35 917.43,-90.15 1041.62,-74.5 1044.56,-74.13 1047.57,-73.75 1050.61,-73.36"/>
<polygon fill="#63b8ff" stroke="#63b8ff" points="703.12,-111.64 693.59,-116.26 703.92,-118.59 703.12,-111.64"/>
</a>
</g>
</g>
<!-- Node9&#45;&gt;Node4 -->
<g id="edge9_Node000009_Node000004" class="edge">
<title>Node9&#45;&gt;Node4</title>
<g id="a_edge9_Node000009_Node000004"><a xlink:title=" ">
<path fill="none" stroke="#63b8ff" d="M291.54,-52.76C239.39,-42.94 164.32,-28.82 115.75,-19.68"/>
<polygon fill="#63b8ff" stroke="#63b8ff" points="290.82,-56.37 301.3,-54.78 292.12,-49.49 290.82,-56.37"/>
</a>
</g>
</g>
<!-- Node9&#45;&gt;Node5 -->
<g id="edge10_Node000009_Node000005" class="edge">
<title>Node9&#45;&gt;Node5</title>
<g id="a_edge10_Node000009_Node000005"><a xlink:title=" ">
<path fill="none" stroke="#63b8ff" d="M314.76,-51.31C287.05,-41.6 249.36,-28.4 224.54,-19.7"/>
<polygon fill="#63b8ff" stroke="#63b8ff" points="313.25,-54.84 323.84,-54.84 315.56,-48.23 313.25,-54.84"/>
</a>
</g>
</g>
<!-- Node9&#45;&gt;Node6 -->
<g id="edge11_Node000009_Node000006" class="edge">
<title>Node9&#45;&gt;Node6</title>
<g id="a_edge11_Node000009_Node000006"><a xlink:title=" ">
<path fill="none" stroke="#63b8ff" d="M403.56,-52.51C449.2,-42.71 514.25,-28.74 556.45,-19.68"/>
<polygon fill="#63b8ff" stroke="#63b8ff" points="403.02,-49.26 393.98,-54.78 404.49,-56.1 403.02,-49.26"/>
</a>
</g>
</g>
<!-- Node9&#45;&gt;Node7 -->
<g id="edge12_Node000009_Node000007" class="edge">
<title>Node9&#45;&gt;Node7</title>
<g id="a_edge12_Node000009_Node000007"><a xlink:title=" ">
<path fill="none" stroke="#63b8ff" d="M379.49,-50.27C399.85,-40.68 426.55,-28.09 444.36,-19.7"/>
<polygon fill="#63b8ff" stroke="#63b8ff" points="378.35,-47.41 370.79,-54.84 381.33,-53.75 378.35,-47.41"/>
</a>
</g>
</g>
<!-- Node10 -->
<g id="Node000010" class="node">
<title>Node10</title>
<g id="a_Node000010"><a xlink:href="_g_n_s_s_constellation_8cpp.html" target="_top" xlink:title="GNSS Constellation.">
<polygon fill="white" stroke="#666666" points="382.75,-19.25 262.5,-19.25 262.5,0 382.75,0 382.75,-19.25"/>
<text text-anchor="middle" x="322.62" y="-5.75" font-family="Helvetica,sans-Serif" font-size="10.00">GNSSConstellation.cpp</text>
</a>
</g>
</g>
<!-- Node9&#45;&gt;Node10 -->
<g id="edge13_Node000009_Node000010" class="edge">
<title>Node9&#45;&gt;Node10</title>
<g id="a_edge13_Node000009_Node000010"><a xlink:title=" ">
<path fill="none" stroke="#63b8ff" d="M340.89,-45.37C336.31,-36.64 331.04,-26.64 327.35,-19.61"/>
<polygon fill="#63b8ff" stroke="#63b8ff" points="338.25,-46.86 346,-54.08 344.45,-43.6 338.25,-46.86"/>
</a>
</g>
</g>
<!-- Node11&#45;&gt;Node6 -->
<g id="edge15_Node000011_Node000006" class="edge">
<title>Node11&#45;&gt;Node6</title>
<g id="a_edge15_Node000011_Node000006"><a xlink:title=" ">
<path fill="none" stroke="#63b8ff" d="M598.62,-44.21C598.62,-35.77 598.62,-26.33 598.62,-19.61"/>
<polygon fill="#63b8ff" stroke="#63b8ff" points="595.13,-44.08 598.62,-54.08 602.13,-44.08 595.13,-44.08"/>
</a>
</g>
</g>
<!-- Node12 -->
<g id="Node000012" class="node">
<title>Node12</title>
<g id="a_Node000012"><a xlink:href="_g_n_s_s_state_estimation_app_8cpp.html" target="_top" xlink:title="State Estimation Application Using GNSS Measurement.">
<polygon fill="white" stroke="#666666" points="821.75,-19.25 671.5,-19.25 671.5,0 821.75,0 821.75,-19.25"/>
<text text-anchor="middle" x="746.62" y="-5.75" font-family="Helvetica,sans-Serif" font-size="10.00">GNSSStateEstimationApp.cpp</text>
</a>
</g>
</g>
<!-- Node11&#45;&gt;Node12 -->
<g id="edge16_Node000011_Node000012" class="edge">
<title>Node11&#45;&gt;Node12</title>
<g id="a_edge16_Node000011_Node000012"><a xlink:title=" ">
<path fill="none" stroke="#63b8ff" d="M633.91,-51.18C660.85,-41.49 697.33,-28.36 721.4,-19.7"/>
<polygon fill="#63b8ff" stroke="#63b8ff" points="632.96,-48.16 624.73,-54.84 635.33,-54.75 632.96,-48.16"/>
</a>
</g>
</g>
<!-- Node16 -->
<g id="Node000016" class="node">
<title>Node16</title>
<g id="a_Node000016"><a xlink:href="_state_estimation_app_8cpp.html" target="_top" xlink:title="Base class for State Estimation Application.">
<polygon fill="white" stroke="#666666" points="1167.5,-19.25 1045.75,-19.25 1045.75,0 1167.5,0 1167.5,-19.25"/>
<text text-anchor="middle" x="1106.62" y="-5.75" font-family="Helvetica,sans-Serif" font-size="10.00">StateEstimationApp.cpp</text>
</a>
</g>
</g>
<!-- Node15&#45;&gt;Node16 -->
<g id="edge20_Node000015_Node000016" class="edge">
<title>Node15&#45;&gt;Node16</title>
<g id="a_edge20_Node000015_Node000016"><a xlink:title=" ">
<path fill="none" stroke="#63b8ff" d="M1106.62,-44.21C1106.62,-35.77 1106.62,-26.33 1106.62,-19.61"/>
<polygon fill="#63b8ff" stroke="#63b8ff" points="1103.13,-44.08 1106.62,-54.08 1110.13,-44.08 1103.13,-44.08"/>
</a>
</g>
</g>
<!-- Node19 -->
<g id="Node000019" class="node">
<title>Node19</title>
<g id="a_Node000019"><a xlink:href="_example_frozen_orbits_8cpp.html" target="_top" xlink:title="Example of frozen orbits.">
<polygon fill="white" stroke="#666666" points="1388.25,-74.5 1259,-74.5 1259,-55.25 1388.25,-55.25 1388.25,-74.5"/>
<text text-anchor="middle" x="1323.62" y="-61" font-family="Helvetica,sans-Serif" font-size="10.00">ExampleFrozenOrbits.cpp</text>
</a>
</g>
</g>
<!-- Node18&#45;&gt;Node19 -->
<g id="edge23_Node000018_Node000019" class="edge">
<title>Node18&#45;&gt;Node19</title>
<g id="a_edge23_Node000018_Node000019"><a xlink:title=" ">
<path fill="none" stroke="#63b8ff" d="M1158.12,-107.45C1197.04,-97.67 1251.79,-83.92 1287.49,-74.95"/>
<polygon fill="#63b8ff" stroke="#63b8ff" points="1157.43,-104.26 1148.59,-110.09 1159.14,-111.05 1157.43,-104.26"/>
</a>
</g>
</g>
</g>
</svg>
