<?xml version="1.0" encoding="UTF-8" standalone="no"?>
<!DOCTYPE svg PUBLIC "-//W3C//DTD SVG 1.1//EN"
 "http://www.w3.org/Graphics/SVG/1.1/DTD/svg11.dtd">
<!-- Generated by graphviz version 8.1.0 (20230707.0739)
 -->
<!-- Title: OrbitStateUtils.cpp Pages: 1 -->
<svg width="989pt" height="271pt"
 viewBox="0.00 0.00 989.38 270.75" xmlns="http://www.w3.org/2000/svg" xmlns:xlink="http://www.w3.org/1999/xlink">
<g id="graph0" class="graph" transform="scale(1 1) rotate(0) translate(4 266.75)">
<title>OrbitStateUtils.cpp</title>
<!-- Node1 -->
<g id="Node000001" class="node">
<title>Node1</title>
<g id="a_Node000001"><a xlink:title="Util functions for state conversions.">
<polygon fill="#999999" stroke="#666666" points="797.5,-262.75 698.25,-262.75 698.25,-243.5 797.5,-243.5 797.5,-262.75"/>
<text text-anchor="middle" x="747.88" y="-249.25" font-family="Helvetica,sans-Serif" font-size="10.00">OrbitStateUtils.cpp</text>
</a>
</g>
</g>
<!-- Node2 -->
<g id="Node000002" class="node">
<title>Node2</title>
<g id="a_Node000002"><a xlink:href="_orbit_state_utils_8h.html" target="_top" xlink:title="Util functions for state conversions.">
<polygon fill="white" stroke="#666666" points="664.38,-207.5 543.38,-207.5 543.38,-177 664.38,-177 664.38,-207.5"/>
<text text-anchor="start" x="551.38" y="-194" font-family="Helvetica,sans-Serif" font-size="10.00">lupnt/physics/OrbitState</text>
<text text-anchor="middle" x="603.88" y="-182.75" font-family="Helvetica,sans-Serif" font-size="10.00">Utils.h</text>
</a>
</g>
</g>
<!-- Node1&#45;&gt;Node2 -->
<g id="edge1_Node000001_Node000002" class="edge">
<title>Node1&#45;&gt;Node2</title>
<g id="a_edge1_Node000001_Node000002"><a xlink:title=" ">
<path fill="none" stroke="#63b8ff" d="M725.69,-243.05C705.58,-234.83 675.31,-222.45 649.97,-212.1"/>
<polygon fill="#63b8ff" stroke="#63b8ff" points="651.4,-208.49 640.82,-207.94 648.75,-214.97 651.4,-208.49"/>
</a>
</g>
</g>
<!-- Node3 -->
<g id="Node000003" class="node">
<title>Node3</title>
<g id="a_Node000003"><a xlink:href="_constants_8h.html" target="_top" xlink:title="List of constants.">
<polygon fill="white" stroke="#666666" points="309.38,-141 194.38,-141 194.38,-121.75 309.38,-121.75 309.38,-141"/>
<text text-anchor="middle" x="251.88" y="-127.5" font-family="Helvetica,sans-Serif" font-size="10.00">lupnt/core/Constants.h</text>
</a>
</g>
</g>
<!-- Node1&#45;&gt;Node3 -->
<g id="edge26_Node000001_Node000003" class="edge">
<title>Node1&#45;&gt;Node3</title>
<g id="a_edge26_Node000001_Node000003"><a xlink:title=" ">
<path fill="none" stroke="#63b8ff" d="M701.18,-243.08C657.92,-234.53 591.85,-221.02 534.88,-207.5 449.09,-187.14 349.65,-159.89 294.43,-144.42"/>
<polygon fill="#63b8ff" stroke="#63b8ff" points="295.56,-140.83 284.99,-141.49 293.67,-147.57 295.56,-140.83"/>
</a>
</g>
</g>
<!-- Node12 -->
<g id="Node000012" class="node">
<title>Node12</title>
<g id="a_Node000012"><a xlink:title=" ">
<polygon fill="#e0e0e0" stroke="#999999" points="792,-85.75 719.75,-85.75 719.75,-66.5 792,-66.5 792,-85.75"/>
<text text-anchor="middle" x="755.88" y="-72.25" font-family="Helvetica,sans-Serif" font-size="10.00">Eigen/Dense</text>
</a>
</g>
</g>
<!-- Node1&#45;&gt;Node12 -->
<g id="edge25_Node000001_Node000012" class="edge">
<title>Node1&#45;&gt;Node12</title>
<g id="a_edge25_Node000001_Node000012"><a xlink:title=" ">
<path fill="none" stroke="#63b8ff" d="M748.28,-243.21C749.52,-216.18 753.24,-134.74 754.97,-96.87"/>
<polygon fill="#63b8ff" stroke="#63b8ff" points="758.5,-97.39 755.46,-87.24 751.51,-97.07 758.5,-97.39"/>
</a>
</g>
</g>
<!-- Node18 -->
<g id="Node000018" class="node">
<title>Node18</title>
<g id="a_Node000018"><a xlink:href="_math_utils_8h.html" target="_top" xlink:title=" ">
<polygon fill="white" stroke="#666666" points="981.38,-85.75 848.38,-85.75 848.38,-66.5 981.38,-66.5 981.38,-85.75"/>
<text text-anchor="middle" x="914.88" y="-72.25" font-family="Helvetica,sans-Serif" font-size="10.00">lupnt/numerics/MathUtils.h</text>
</a>
</g>
</g>
<!-- Node1&#45;&gt;Node18 -->
<g id="edge27_Node000001_Node000018" class="edge">
<title>Node1&#45;&gt;Node18</title>
<g id="a_edge27_Node000001_Node000018"><a xlink:title=" ">
<path fill="none" stroke="#63b8ff" d="M756.39,-243.21C782.85,-215.48 863.97,-130.47 898.76,-94.01"/>
<polygon fill="#63b8ff" stroke="#63b8ff" points="900.81,-96.89 905.18,-87.24 895.74,-92.05 900.81,-96.89"/>
</a>
</g>
</g>
<!-- Node2&#45;&gt;Node3 -->
<g id="edge2_Node000002_Node000003" class="edge">
<title>Node2&#45;&gt;Node3</title>
<g id="a_edge2_Node000002_Node000003"><a xlink:title=" ">
<path fill="none" stroke="#63b8ff" d="M542.96,-181.06C479.78,-170.49 381.34,-154.03 316.73,-143.22"/>
<polygon fill="#63b8ff" stroke="#63b8ff" points="317.71,-139.67 307.27,-141.47 316.56,-146.57 317.71,-139.67"/>
</a>
</g>
</g>
<!-- Node5 -->
<g id="Node000005" class="node">
<title>Node5</title>
<g id="a_Node000005"><a xlink:title=" ">
<polygon fill="#e0e0e0" stroke="#999999" points="572.38,-24.88 451.38,-24.88 451.38,-5.63 572.38,-5.63 572.38,-24.88"/>
<text text-anchor="middle" x="511.88" y="-11.38" font-family="Helvetica,sans-Serif" font-size="10.00">autodiff/forward/real.hpp</text>
</a>
</g>
</g>
<!-- Node2&#45;&gt;Node5 -->
<g id="edge22_Node000002_Node000005" class="edge">
<title>Node2&#45;&gt;Node5</title>
<g id="a_edge22_Node000002_Node000005"><a xlink:title=" ">
<path fill="none" stroke="#63b8ff" d="M543.07,-184.14C484.19,-173.66 397.98,-148.01 356.88,-85.75 332.72,-49.16 388.9,-31.63 440.25,-23.36"/>
<polygon fill="#63b8ff" stroke="#63b8ff" points="440.73,-26.68 450.1,-21.73 439.7,-19.75 440.73,-26.68"/>
</a>
</g>
</g>
<!-- Node11 -->
<g id="Node000011" class="node">
<title>Node11</title>
<g id="a_Node000011"><a xlink:href="_orbit_state_8h.html" target="_top" xlink:title="Orbit states.">
<polygon fill="white" stroke="#666666" points="668.5,-141 539.25,-141 539.25,-121.75 668.5,-121.75 668.5,-141"/>
<text text-anchor="middle" x="603.88" y="-127.5" font-family="Helvetica,sans-Serif" font-size="10.00">lupnt/physics/OrbitState.h</text>
</a>
</g>
</g>
<!-- Node2&#45;&gt;Node11 -->
<g id="edge11_Node000002_Node000011" class="edge">
<title>Node2&#45;&gt;Node11</title>
<g id="a_edge11_Node000002_Node000011"><a xlink:title=" ">
<path fill="none" stroke="#63b8ff" d="M603.88,-176.7C603.88,-169.37 603.88,-160.37 603.88,-152.41"/>
<polygon fill="#63b8ff" stroke="#63b8ff" points="607.38,-152.45 603.88,-142.45 600.38,-152.45 607.38,-152.45"/>
</a>
</g>
</g>
<!-- Node2&#45;&gt;Node12 -->
<g id="edge21_Node000002_Node000012" class="edge">
<title>Node2&#45;&gt;Node12</title>
<g id="a_edge21_Node000002_Node000012"><a xlink:title=" ">
<path fill="none" stroke="#63b8ff" d="M626.58,-176.59C641.42,-166.83 661.08,-153.54 677.88,-141 698.74,-125.42 721.7,-106.37 737.27,-93.15"/>
<polygon fill="#63b8ff" stroke="#63b8ff" points="739.19,-95.27 744.52,-86.11 734.64,-89.94 739.19,-95.27"/>
</a>
</g>
</g>
<!-- Node13 -->
<g id="Node000013" class="node">
<title>Node13</title>
<g id="a_Node000013"><a xlink:title=" ">
<polygon fill="#e0e0e0" stroke="#999999" points="827,-30.5 724.75,-30.5 724.75,0 827,0 827,-30.5"/>
<text text-anchor="start" x="732.75" y="-17" font-family="Helvetica,sans-Serif" font-size="10.00">autodiff/forward/real</text>
<text text-anchor="middle" x="775.88" y="-5.75" font-family="Helvetica,sans-Serif" font-size="10.00">/eigen.hpp</text>
</a>
</g>
</g>
<!-- Node2&#45;&gt;Node13 -->
<g id="edge23_Node000002_Node000013" class="edge">
<title>Node2&#45;&gt;Node13</title>
<g id="a_edge23_Node000002_Node000013"><a xlink:title=" ">
<path fill="none" stroke="#63b8ff" d="M664.54,-177.12C711.1,-162.71 772.12,-135.23 800.88,-85.75 809.25,-71.34 802.67,-53.64 794.17,-39.71"/>
<polygon fill="#63b8ff" stroke="#63b8ff" points="796.63,-38.09 788.13,-31.76 790.82,-42.01 796.63,-38.09"/>
</a>
</g>
</g>
<!-- Node14 -->
<g id="Node000014" class="node">
<title>Node14</title>
<g id="a_Node000014"><a xlink:title=" ">
<polygon fill="#e0e0e0" stroke="#999999" points="483.5,-85.75 366.25,-85.75 366.25,-66.5 483.5,-66.5 483.5,-85.75"/>
<text text-anchor="middle" x="424.88" y="-72.25" font-family="Helvetica,sans-Serif" font-size="10.00">boost/preprocessor.hpp</text>
</a>
</g>
</g>
<!-- Node2&#45;&gt;Node14 -->
<g id="edge24_Node000002_Node000014" class="edge">
<title>Node2&#45;&gt;Node14</title>
<g id="a_edge24_Node000002_Node000014"><a xlink:title=" ">
<path fill="none" stroke="#63b8ff" d="M580.84,-176.56C546.49,-154.66 482.21,-113.68 447.88,-91.79"/>
<polygon fill="#63b8ff" stroke="#63b8ff" points="450.35,-88.58 440.04,-86.16 446.59,-94.48 450.35,-88.58"/>
</a>
</g>
</g>
<!-- Node4 -->
<g id="Node000004" class="node">
<title>Node4</title>
<g id="a_Node000004"><a xlink:title=" ">
<polygon fill="#e0e0e0" stroke="#999999" points="133.75,-85.75 0,-85.75 0,-66.5 133.75,-66.5 133.75,-85.75"/>
<text text-anchor="middle" x="66.88" y="-72.25" font-family="Helvetica,sans-Serif" font-size="10.00">autodiff/common/eigen.hpp</text>
</a>
</g>
</g>
<!-- Node3&#45;&gt;Node4 -->
<g id="edge3_Node000003_Node000004" class="edge">
<title>Node3&#45;&gt;Node4</title>
<g id="a_edge3_Node000003_Node000004"><a xlink:title=" ">
<path fill="none" stroke="#63b8ff" d="M220.49,-121.34C189.8,-112.51 142.84,-98.99 108.93,-89.23"/>
<polygon fill="#63b8ff" stroke="#63b8ff" points="109.99,-85.61 99.41,-86.2 108.05,-92.33 109.99,-85.61"/>
</a>
</g>
</g>
<!-- Node3&#45;&gt;Node5 -->
<g id="edge4_Node000003_Node000005" class="edge">
<title>Node3&#45;&gt;Node5</title>
<g id="a_edge4_Node000003_Node000005"><a xlink:title=" ">
<path fill="none" stroke="#63b8ff" d="M259.33,-121.52C271.45,-107.69 296.8,-81.06 323.88,-66.5 360.03,-47.06 404.21,-34.75 440.66,-27.19"/>
<polygon fill="#63b8ff" stroke="#63b8ff" points="441.09,-30.47 450.22,-25.08 439.73,-23.6 441.09,-30.47"/>
</a>
</g>
</g>
<!-- Node6 -->
<g id="Node000006" class="node">
<title>Node6</title>
<g id="a_Node000006"><a xlink:title=" ">
<polygon fill="#e0e0e0" stroke="#999999" points="281.88,-24.88 241.88,-24.88 241.88,-5.63 281.88,-5.63 281.88,-24.88"/>
<text text-anchor="middle" x="261.88" y="-11.38" font-family="Helvetica,sans-Serif" font-size="10.00">string</text>
</a>
</g>
</g>
<!-- Node3&#45;&gt;Node6 -->
<g id="edge5_Node000003_Node000006" class="edge">
<title>Node3&#45;&gt;Node6</title>
<g id="a_edge5_Node000003_Node000006"><a xlink:title=" ">
<path fill="none" stroke="#63b8ff" d="M252.66,-121.42C254.27,-103.09 257.96,-60.9 260.15,-35.88"/>
<polygon fill="#63b8ff" stroke="#63b8ff" points="263.71,-36.43 261.09,-26.16 256.73,-35.82 263.71,-36.43"/>
</a>
</g>
</g>
<!-- Node7 -->
<g id="Node000007" class="node">
<title>Node7</title>
<g id="a_Node000007"><a xlink:href="_user_file_path_8h.html" target="_top" xlink:title="File access utils.">
<polygon fill="white" stroke="#666666" points="233.5,-85.75 152.25,-85.75 152.25,-66.5 233.5,-66.5 233.5,-85.75"/>
<text text-anchor="middle" x="192.88" y="-72.25" font-family="Helvetica,sans-Serif" font-size="10.00">UserFilePath.h</text>
</a>
</g>
</g>
<!-- Node3&#45;&gt;Node7 -->
<g id="edge6_Node000003_Node000007" class="edge">
<title>Node3&#45;&gt;Node7</title>
<g id="a_edge6_Node000003_Node000007"><a xlink:title=" ">
<path fill="none" stroke="#63b8ff" d="M241.87,-121.34C233.34,-113.65 220.88,-102.4 210.66,-93.18"/>
<polygon fill="#63b8ff" stroke="#63b8ff" points="213.5,-91.13 203.74,-87.02 208.81,-96.32 213.5,-91.13"/>
</a>
</g>
</g>
<!-- Node7&#45;&gt;Node6 -->
<g id="edge10_Node000007_Node000006" class="edge">
<title>Node7&#45;&gt;Node6</title>
<g id="a_edge10_Node000007_Node000006"><a xlink:title=" ">
<path fill="none" stroke="#63b8ff" d="M203.35,-66.18C213.89,-57.19 230.36,-43.14 243.15,-32.23"/>
<polygon fill="#63b8ff" stroke="#63b8ff" points="244.96,-34.43 250.3,-25.28 240.42,-29.1 244.96,-34.43"/>
</a>
</g>
</g>
<!-- Node8 -->
<g id="Node000008" class="node">
<title>Node8</title>
<g id="a_Node000008"><a xlink:title=" ">
<polygon fill="#e0e0e0" stroke="#999999" points="84.38,-24.88 23.38,-24.88 23.38,-5.63 84.38,-5.63 84.38,-24.88"/>
<text text-anchor="middle" x="53.88" y="-11.38" font-family="Helvetica,sans-Serif" font-size="10.00">filesystem</text>
</a>
</g>
</g>
<!-- Node7&#45;&gt;Node8 -->
<g id="edge7_Node000007_Node000008" class="edge">
<title>Node7&#45;&gt;Node8</title>
<g id="a_edge7_Node000007_Node000008"><a xlink:title=" ">
<path fill="none" stroke="#63b8ff" d="M171.46,-66.05C148.33,-56.26 111.27,-40.56 84.95,-29.41"/>
<polygon fill="#63b8ff" stroke="#63b8ff" points="86.66,-25.91 76.09,-25.23 83.93,-32.36 86.66,-25.91"/>
</a>
</g>
</g>
<!-- Node9 -->
<g id="Node000009" class="node">
<title>Node9</title>
<g id="a_Node000009"><a xlink:title=" ">
<polygon fill="#e0e0e0" stroke="#999999" points="155.62,-24.88 102.12,-24.88 102.12,-5.63 155.62,-5.63 155.62,-24.88"/>
<text text-anchor="middle" x="128.88" y="-11.38" font-family="Helvetica,sans-Serif" font-size="10.00">iostream</text>
</a>
</g>
</g>
<!-- Node7&#45;&gt;Node9 -->
<g id="edge8_Node000007_Node000009" class="edge">
<title>Node7&#45;&gt;Node9</title>
<g id="a_edge8_Node000007_Node000009"><a xlink:title=" ">
<path fill="none" stroke="#63b8ff" d="M183.15,-66.18C173.48,-57.28 158.4,-43.41 146.59,-32.54"/>
<polygon fill="#63b8ff" stroke="#63b8ff" points="149.42,-30.47 139.69,-26.28 144.68,-35.62 149.42,-30.47"/>
</a>
</g>
</g>
<!-- Node10 -->
<g id="Node000010" class="node">
<title>Node10</title>
<g id="a_Node000010"><a xlink:title=" ">
<polygon fill="#e0e0e0" stroke="#999999" points="223.75,-24.88 174,-24.88 174,-5.63 223.75,-5.63 223.75,-24.88"/>
<text text-anchor="middle" x="198.88" y="-11.38" font-family="Helvetica,sans-Serif" font-size="10.00">optional</text>
</a>
</g>
</g>
<!-- Node7&#45;&gt;Node10 -->
<g id="edge9_Node000007_Node000010" class="edge">
<title>Node7&#45;&gt;Node10</title>
<g id="a_edge9_Node000007_Node000010"><a xlink:title=" ">
<path fill="none" stroke="#63b8ff" d="M193.79,-66.18C194.6,-58.23 195.81,-46.31 196.85,-36.12"/>
<polygon fill="#63b8ff" stroke="#63b8ff" points="200.42,-36.58 197.96,-26.28 193.46,-35.87 200.42,-36.58"/>
</a>
</g>
</g>
<!-- Node11&#45;&gt;Node5 -->
<g id="edge13_Node000011_Node000005" class="edge">
<title>Node11&#45;&gt;Node5</title>
<g id="a_edge13_Node000011_Node000005"><a xlink:title=" ">
<path fill="none" stroke="#63b8ff" d="M579.84,-121.27C563.73,-113.99 543.28,-102.26 530.88,-85.75 519.96,-71.23 515.32,-50.83 513.34,-35.88"/>
<polygon fill="#63b8ff" stroke="#63b8ff" points="516.76,-35.88 512.26,-26.28 509.79,-36.59 516.76,-35.88"/>
</a>
</g>
</g>
<!-- Node11&#45;&gt;Node12 -->
<g id="edge12_Node000011_Node000012" class="edge">
<title>Node11&#45;&gt;Node12</title>
<g id="a_edge12_Node000011_Node000012"><a xlink:title=" ">
<path fill="none" stroke="#63b8ff" d="M629.66,-121.34C654.44,-112.66 692.13,-99.46 719.87,-89.74"/>
<polygon fill="#63b8ff" stroke="#63b8ff" points="720.68,-92.81 728.96,-86.2 718.37,-86.21 720.68,-92.81"/>
</a>
</g>
</g>
<!-- Node11&#45;&gt;Node13 -->
<g id="edge14_Node000011_Node000013" class="edge">
<title>Node11&#45;&gt;Node13</title>
<g id="a_edge14_Node000011_Node000013"><a xlink:title=" ">
<path fill="none" stroke="#63b8ff" d="M617.94,-121.4C631.92,-112.44 653.95,-98.25 672.88,-85.75 697.54,-69.46 725.3,-50.7 745.79,-36.78"/>
<polygon fill="#63b8ff" stroke="#63b8ff" points="747.35,-39.27 753.65,-30.75 743.41,-33.48 747.35,-39.27"/>
</a>
</g>
</g>
<!-- Node11&#45;&gt;Node14 -->
<g id="edge15_Node000011_Node000014" class="edge">
<title>Node11&#45;&gt;Node14</title>
<g id="a_edge15_Node000011_Node000014"><a xlink:title=" ">
<path fill="none" stroke="#63b8ff" d="M573.51,-121.34C543.81,-112.51 498.38,-98.99 465.56,-89.23"/>
<polygon fill="#63b8ff" stroke="#63b8ff" points="466.97,-85.7 456.39,-86.2 464.98,-92.41 466.97,-85.7"/>
</a>
</g>
</g>
<!-- Node15 -->
<g id="Node000015" class="node">
<title>Node15</title>
<g id="a_Node000015"><a xlink:title=" ">
<polygon fill="#e0e0e0" stroke="#999999" points="598.25,-85.75 539.5,-85.75 539.5,-66.5 598.25,-66.5 598.25,-85.75"/>
<text text-anchor="middle" x="568.88" y="-72.25" font-family="Helvetica,sans-Serif" font-size="10.00">stdexcept</text>
</a>
</g>
</g>
<!-- Node11&#45;&gt;Node15 -->
<g id="edge16_Node000011_Node000015" class="edge">
<title>Node11&#45;&gt;Node15</title>
<g id="a_edge16_Node000011_Node000015"><a xlink:title=" ">
<path fill="none" stroke="#63b8ff" d="M598.1,-121.58C593.41,-114.46 586.66,-104.18 580.82,-95.3"/>
<polygon fill="#63b8ff" stroke="#63b8ff" points="583.2,-93.54 574.78,-87.11 577.35,-97.39 583.2,-93.54"/>
</a>
</g>
</g>
<!-- Node16 -->
<g id="Node000016" class="node">
<title>Node16</title>
<g id="a_Node000016"><a xlink:href="_state_8h.html" target="_top" xlink:title="SPICE Interface functions.">
<polygon fill="white" stroke="#666666" points="663.62,-85.75 616.12,-85.75 616.12,-66.5 663.62,-66.5 663.62,-85.75"/>
<text text-anchor="middle" x="639.88" y="-72.25" font-family="Helvetica,sans-Serif" font-size="10.00">State.h</text>
</a>
</g>
</g>
<!-- Node11&#45;&gt;Node16 -->
<g id="edge17_Node000011_Node000016" class="edge">
<title>Node11&#45;&gt;Node16</title>
<g id="a_edge17_Node000011_Node000016"><a xlink:title=" ">
<path fill="none" stroke="#63b8ff" d="M609.82,-121.58C614.69,-114.38 621.74,-103.96 627.78,-95.01"/>
<polygon fill="#63b8ff" stroke="#63b8ff" points="631.1,-97.35 633.8,-87.11 625.3,-93.43 631.1,-97.35"/>
</a>
</g>
</g>
<!-- Node16&#45;&gt;Node5 -->
<g id="edge18_Node000016_Node000005" class="edge">
<title>Node16&#45;&gt;Node5</title>
<g id="a_edge18_Node000016_Node000005"><a xlink:title=" ">
<path fill="none" stroke="#63b8ff" d="M620.16,-66.05C599.05,-56.35 565.33,-40.84 541.13,-29.71"/>
<polygon fill="#63b8ff" stroke="#63b8ff" points="542.95,-26.23 532.41,-25.23 540.03,-32.59 542.95,-26.23"/>
</a>
</g>
</g>
<!-- Node16&#45;&gt;Node13 -->
<g id="edge19_Node000016_Node000013" class="edge">
<title>Node16&#45;&gt;Node13</title>
<g id="a_edge19_Node000016_Node000013"><a xlink:title=" ">
<path fill="none" stroke="#63b8ff" d="M660.83,-66.05C679.73,-57.87 708.16,-45.56 732.02,-35.23"/>
<polygon fill="#63b8ff" stroke="#63b8ff" points="733.14,-38.13 740.93,-30.94 730.36,-31.71 733.14,-38.13"/>
</a>
</g>
</g>
<!-- Node17 -->
<g id="Node000017" class="node">
<title>Node17</title>
<g id="a_Node000017"><a xlink:title=" ">
<polygon fill="#e0e0e0" stroke="#999999" points="661.38,-24.88 618.38,-24.88 618.38,-5.63 661.38,-5.63 661.38,-24.88"/>
<text text-anchor="middle" x="639.88" y="-11.38" font-family="Helvetica,sans-Serif" font-size="10.00">vector</text>
</a>
</g>
</g>
<!-- Node16&#45;&gt;Node17 -->
<g id="edge20_Node000016_Node000017" class="edge">
<title>Node16&#45;&gt;Node17</title>
<g id="a_edge20_Node000016_Node000017"><a xlink:title=" ">
<path fill="none" stroke="#63b8ff" d="M639.88,-66.18C639.88,-58.23 639.88,-46.31 639.88,-36.12"/>
<polygon fill="#63b8ff" stroke="#63b8ff" points="643.38,-36.28 639.88,-26.28 636.38,-36.28 643.38,-36.28"/>
</a>
</g>
</g>
<!-- Node18&#45;&gt;Node5 -->
<g id="edge28_Node000018_Node000005" class="edge">
<title>Node18&#45;&gt;Node5</title>
<g id="a_edge28_Node000018_Node000005"><a xlink:title=" ">
<path fill="none" stroke="#63b8ff" d="M852.79,-66.05C780.04,-55.43 659.73,-37.85 583.21,-26.67"/>
<polygon fill="#63b8ff" stroke="#63b8ff" points="584.11,-23.12 573.71,-25.14 583.1,-30.05 584.11,-23.12"/>
</a>
</g>
</g>
<!-- Node18&#45;&gt;Node13 -->
<g id="edge29_Node000018_Node000013" class="edge">
<title>Node18&#45;&gt;Node13</title>
<g id="a_edge29_Node000018_Node000013"><a xlink:title=" ">
<path fill="none" stroke="#63b8ff" d="M893.46,-66.05C874.14,-57.87 845.09,-45.56 820.69,-35.23"/>
<polygon fill="#63b8ff" stroke="#63b8ff" points="822.14,-31.62 811.57,-30.94 819.41,-38.07 822.14,-31.62"/>
</a>
</g>
</g>
<!-- Node19 -->
<g id="Node000019" class="node">
<title>Node19</title>
<g id="a_Node000019"><a xlink:title=" ">
<polygon fill="#e0e0e0" stroke="#999999" points="939,-24.88 890.75,-24.88 890.75,-5.63 939,-5.63 939,-24.88"/>
<text text-anchor="middle" x="914.88" y="-11.38" font-family="Helvetica,sans-Serif" font-size="10.00">random</text>
</a>
</g>
</g>
<!-- Node18&#45;&gt;Node19 -->
<g id="edge30_Node000018_Node000019" class="edge">
<title>Node18&#45;&gt;Node19</title>
<g id="a_edge30_Node000018_Node000019"><a xlink:title=" ">
<path fill="none" stroke="#63b8ff" d="M914.88,-66.18C914.88,-58.23 914.88,-46.31 914.88,-36.12"/>
<polygon fill="#63b8ff" stroke="#63b8ff" points="918.38,-36.28 914.88,-26.28 911.38,-36.28 918.38,-36.28"/>
</a>
</g>
</g>
</g>
</svg>
