<?xml version="1.0" encoding="UTF-8" standalone="no"?>
<!DOCTYPE svg PUBLIC "-//W3C//DTD SVG 1.1//EN"
 "http://www.w3.org/Graphics/SVG/1.1/DTD/svg11.dtd">
<!-- Generated by graphviz version 8.1.0 (20230707.0739)
 -->
<!-- Title: OrbitStateUtils.h Pages: 1 -->
<!--zoomable 204 -->

<svg id="main" version="1.1" xmlns="http://www.w3.org/2000/svg" xmlns:xlink="http://www.w3.org/1999/xlink" xml:space="preserve" onload="init(evt)">
<style type="text/css"><![CDATA[
.node, .edge {opacity: 0.7;}
.node.selected, .edge.selected {opacity: 1;}
.edge:hover path { stroke: red; }
.edge:hover polygon { stroke: red; fill: red; }
]]></style>

<defs>
  <circle id="rim" cx="0" cy="0" r="7"/>
  <circle id="rim2" cx="0" cy="0" r="3.5"/>
  <g id="zoomPlus">
    <use xlink:href="#rim" fill="#404040"><set attributeName="fill" to="#808080" begin="zoomplus.mouseover" end="zoomplus.mouseout"/></use>
    <path d="M-4,0h8M0,-4v8" fill="none" stroke="white" stroke-width="1.5" pointer-events="none"/>
  </g>
  <g id="zoomMin">
    <use xlink:href="#rim" fill="#404040"><set attributeName="fill" to="#808080" begin="zoomminus.mouseover" end="zoomminus.mouseout"/></use>
    <path d="M-4,0h8" fill="none" stroke="white" stroke-width="1.5" pointer-events="none"/>
  </g>
  <g id="arrowUp" transform="translate(30 24)">
    <use xlink:href="#rim"/>
    <path pointer-events="none" fill="none" stroke="white" stroke-width="1.5" d="M0,-3.0v7 M-2.5,-0.5L0,-3.0L2.5,-0.5"/>
  </g>
  <g id="arrowRight" transform="rotate(90) translate(36 -43)">
    <use xlink:href="#rim"/>
    <path pointer-events="none" fill="none" stroke="white" stroke-width="1.5" d="M0,-3.0v7 M-2.5,-0.5L0,-3.0L2.5,-0.5"/>
  </g>
  <g id="arrowDown" transform="rotate(180) translate(-30 -48)">
    <use xlink:href="#rim"/>
    <path pointer-events="none" fill="none" stroke="white" stroke-width="1.5" d="M0,-3.0v7 M-2.5,-0.5L0,-3.0L2.5,-0.5"/>
  </g>
  <g id="arrowLeft" transform="rotate(270) translate(-36 17)">
    <use xlink:href="#rim"/>
    <path pointer-events="none" fill="none" stroke="white" stroke-width="1.5" d="M0,-3.0v7 M-2.5,-0.5L0,-3.0L2.5,-0.5"/>
  </g>
  <g id="resetDef">
    <use xlink:href="#rim2" fill="#404040"><set attributeName="fill" to="#808080" begin="reset.mouseover" end="reset.mouseout"/></use>
  </g>
</defs>
<script type="application/ecmascript">
var viewWidth = 944;
var viewHeight = 204;
var sectionId = 'dynsection-0';
</script>
<script type="application/ecmascript" xlink:href="svg.min.js"/>
<svg id="graph" class="graph">
<g id="viewport">
<title>OrbitStateUtils.h</title>
<!-- Node1 -->
<g id="Node000001" class="node">
<title>Node1</title>
<g id="a_Node000001"><a xlink:title="Util functions for state conversions.">
<polygon fill="#999999" stroke="#666666" points="643.25,-196.25 554.5,-196.25 554.5,-177 643.25,-177 643.25,-196.25"/>
<text text-anchor="middle" x="598.88" y="-182.75" font-family="Helvetica,sans-Serif" font-size="10.00">OrbitStateUtils.h</text>
</a>
</g>
</g>
<!-- Node2 -->
<g id="Node000002" class="node">
<title>Node2</title>
<g id="a_Node000002"><a xlink:href="_constants_8h.html" target="_top" xlink:title="List of constants.">
<polygon fill="white" stroke="#666666" points="333.38,-141 218.38,-141 218.38,-121.75 333.38,-121.75 333.38,-141"/>
<text text-anchor="middle" x="275.88" y="-127.5" font-family="Helvetica,sans-Serif" font-size="10.00">lupnt/core/Constants.h</text>
</a>
</g>
</g>
<!-- Node1&#45;&gt;Node2 -->
<g id="edge1_Node000001_Node000002" class="edge">
<title>Node1&#45;&gt;Node2</title>
<g id="a_edge1_Node000001_Node000002"><a xlink:title=" ">
<path fill="none" stroke="#63b8ff" d="M554.3,-178.28C499.25,-169.2 405.13,-153.68 341.74,-143.23"/>
<polygon fill="#63b8ff" stroke="#63b8ff" points="342.5,-139.65 332.06,-141.47 341.36,-146.55 342.5,-139.65"/>
</a>
</g>
</g>
<!-- Node4 -->
<g id="Node000004" class="node">
<title>Node4</title>
<g id="a_Node000004"><a xlink:title=" ">
<polygon fill="#e0e0e0" stroke="#999999" points="566.38,-24.88 445.38,-24.88 445.38,-5.63 566.38,-5.63 566.38,-24.88"/>
<text text-anchor="middle" x="505.88" y="-11.38" font-family="Helvetica,sans-Serif" font-size="10.00">autodiff/forward/real.hpp</text>
</a>
</g>
</g>
<!-- Node1&#45;&gt;Node4 -->
<g id="edge21_Node000001_Node000004" class="edge">
<title>Node1&#45;&gt;Node4</title>
<g id="a_edge21_Node000001_Node000004"><a xlink:title=" ">
<path fill="none" stroke="#63b8ff" d="M581.2,-176.59C554.47,-161.8 504.76,-129.61 484.88,-85.75 477.25,-68.94 485.22,-48.62 493.44,-34.3"/>
<polygon fill="#63b8ff" stroke="#63b8ff" points="496.88,-36.4 499.25,-26.08 490.96,-32.67 496.88,-36.4"/>
</a>
</g>
</g>
<!-- Node10 -->
<g id="Node000010" class="node">
<title>Node10</title>
<g id="a_Node000010"><a xlink:href="_orbit_state_8h.html" target="_top" xlink:title="Orbit states.">
<polygon fill="white" stroke="#666666" points="710.5,-141 581.25,-141 581.25,-121.75 710.5,-121.75 710.5,-141"/>
<text text-anchor="middle" x="645.88" y="-127.5" font-family="Helvetica,sans-Serif" font-size="10.00">lupnt/physics/OrbitState.h</text>
</a>
</g>
</g>
<!-- Node1&#45;&gt;Node10 -->
<g id="edge10_Node000001_Node000010" class="edge">
<title>Node1&#45;&gt;Node10</title>
<g id="a_edge10_Node000001_Node000010"><a xlink:title=" ">
<path fill="none" stroke="#63b8ff" d="M606.64,-176.83C613.2,-169.4 622.78,-158.54 630.84,-149.41"/>
<polygon fill="#63b8ff" stroke="#63b8ff" points="632.95,-152.17 636.95,-142.36 627.7,-147.54 632.95,-152.17"/>
</a>
</g>
</g>
<!-- Node11 -->
<g id="Node000011" class="node">
<title>Node11</title>
<g id="a_Node000011"><a xlink:title=" ">
<polygon fill="#e0e0e0" stroke="#999999" points="566,-85.75 493.75,-85.75 493.75,-66.5 566,-66.5 566,-85.75"/>
<text text-anchor="middle" x="529.88" y="-72.25" font-family="Helvetica,sans-Serif" font-size="10.00">Eigen/Dense</text>
</a>
</g>
</g>
<!-- Node1&#45;&gt;Node11 -->
<g id="edge20_Node000001_Node000011" class="edge">
<title>Node1&#45;&gt;Node11</title>
<g id="a_edge20_Node000001_Node000011"><a xlink:title=" ">
<path fill="none" stroke="#63b8ff" d="M593.23,-176.75C581.96,-159.02 556.47,-118.94 541.48,-95.38"/>
<polygon fill="#63b8ff" stroke="#63b8ff" points="543.92,-93.69 535.6,-87.13 538.01,-97.44 543.92,-93.69"/>
</a>
</g>
</g>
<!-- Node12 -->
<g id="Node000012" class="node">
<title>Node12</title>
<g id="a_Node000012"><a xlink:title=" ">
<polygon fill="#e0e0e0" stroke="#999999" points="825,-30.5 722.75,-30.5 722.75,0 825,0 825,-30.5"/>
<text text-anchor="start" x="730.75" y="-17" font-family="Helvetica,sans-Serif" font-size="10.00">autodiff/forward/real</text>
<text text-anchor="middle" x="773.88" y="-5.75" font-family="Helvetica,sans-Serif" font-size="10.00">/eigen.hpp</text>
</a>
</g>
</g>
<!-- Node1&#45;&gt;Node12 -->
<g id="edge22_Node000001_Node000012" class="edge">
<title>Node1&#45;&gt;Node12</title>
<g id="a_edge22_Node000001_Node000012"><a xlink:title=" ">
<path fill="none" stroke="#63b8ff" d="M643.43,-178.82C725.4,-165.29 894.85,-132.25 928.88,-85.75 956.55,-47.93 890.14,-30.28 835.79,-22.34"/>
<polygon fill="#63b8ff" stroke="#63b8ff" points="836.5,-18.76 826.12,-20.87 835.55,-25.7 836.5,-18.76"/>
</a>
</g>
</g>
<!-- Node13 -->
<g id="Node000013" class="node">
<title>Node13</title>
<g id="a_Node000013"><a xlink:title=" ">
<polygon fill="#e0e0e0" stroke="#999999" points="919.5,-85.75 802.25,-85.75 802.25,-66.5 919.5,-66.5 919.5,-85.75"/>
<text text-anchor="middle" x="860.88" y="-72.25" font-family="Helvetica,sans-Serif" font-size="10.00">boost/preprocessor.hpp</text>
</a>
</g>
</g>
<!-- Node1&#45;&gt;Node13 -->
<g id="edge23_Node000001_Node000013" class="edge">
<title>Node1&#45;&gt;Node13</title>
<g id="a_edge23_Node000001_Node000013"><a xlink:title=" ">
<path fill="none" stroke="#63b8ff" d="M625.05,-176.59C649.7,-167.93 687.56,-154.26 719.88,-141 759.29,-124.83 803.96,-104.19 832.26,-90.82"/>
<polygon fill="#63b8ff" stroke="#63b8ff" points="833.37,-93.69 840.91,-86.24 830.37,-87.37 833.37,-93.69"/>
</a>
</g>
</g>
<!-- Node3 -->
<g id="Node000003" class="node">
<title>Node3</title>
<g id="a_Node000003"><a xlink:title=" ">
<polygon fill="#e0e0e0" stroke="#999999" points="437.75,-85.75 304,-85.75 304,-66.5 437.75,-66.5 437.75,-85.75"/>
<text text-anchor="middle" x="370.88" y="-72.25" font-family="Helvetica,sans-Serif" font-size="10.00">autodiff/common/eigen.hpp</text>
</a>
</g>
</g>
<!-- Node2&#45;&gt;Node3 -->
<g id="edge2_Node000002_Node000003" class="edge">
<title>Node2&#45;&gt;Node3</title>
<g id="a_edge2_Node000002_Node000003"><a xlink:title=" ">
<path fill="none" stroke="#63b8ff" d="M291.99,-121.34C306.59,-113.16 328.36,-100.96 345.33,-91.44"/>
<polygon fill="#63b8ff" stroke="#63b8ff" points="346.67,-94.15 353.68,-86.2 343.25,-88.04 346.67,-94.15"/>
</a>
</g>
</g>
<!-- Node2&#45;&gt;Node4 -->
<g id="edge3_Node000002_Node000004" class="edge">
<title>Node2&#45;&gt;Node4</title>
<g id="a_edge3_Node000002_Node000004"><a xlink:title=" ">
<path fill="none" stroke="#63b8ff" d="M275.87,-121.53C276.36,-107.73 279.41,-81.13 294.88,-66.5 314.93,-47.52 381.25,-33.8 434.24,-25.54"/>
<polygon fill="#63b8ff" stroke="#63b8ff" points="434.63,-28.87 443.99,-23.91 433.58,-21.95 434.63,-28.87"/>
</a>
</g>
</g>
<!-- Node5 -->
<g id="Node000005" class="node">
<title>Node5</title>
<g id="a_Node000005"><a xlink:title=" ">
<polygon fill="#e0e0e0" stroke="#999999" points="257.88,-24.88 217.88,-24.88 217.88,-5.63 257.88,-5.63 257.88,-24.88"/>
<text text-anchor="middle" x="237.88" y="-11.38" font-family="Helvetica,sans-Serif" font-size="10.00">string</text>
</a>
</g>
</g>
<!-- Node2&#45;&gt;Node5 -->
<g id="edge4_Node000002_Node000005" class="edge">
<title>Node2&#45;&gt;Node5</title>
<g id="a_edge4_Node000002_Node000005"><a xlink:title=" ">
<path fill="none" stroke="#63b8ff" d="M272.89,-121.42C266.76,-103 252.61,-60.52 244.3,-35.54"/>
<polygon fill="#63b8ff" stroke="#63b8ff" points="247.32,-34.55 240.84,-26.16 240.68,-36.76 247.32,-34.55"/>
</a>
</g>
</g>
<!-- Node6 -->
<g id="Node000006" class="node">
<title>Node6</title>
<g id="a_Node000006"><a xlink:href="_user_file_path_8h.html" target="_top" xlink:title="File access utils.">
<polygon fill="white" stroke="#666666" points="209.5,-85.75 128.25,-85.75 128.25,-66.5 209.5,-66.5 209.5,-85.75"/>
<text text-anchor="middle" x="168.88" y="-72.25" font-family="Helvetica,sans-Serif" font-size="10.00">UserFilePath.h</text>
</a>
</g>
</g>
<!-- Node2&#45;&gt;Node6 -->
<g id="edge5_Node000002_Node000006" class="edge">
<title>Node2&#45;&gt;Node6</title>
<g id="a_edge5_Node000002_Node000006"><a xlink:title=" ">
<path fill="none" stroke="#63b8ff" d="M257.72,-121.34C241.05,-113.04 216.07,-100.61 196.84,-91.04"/>
<polygon fill="#63b8ff" stroke="#63b8ff" points="198.63,-87.52 188.12,-86.2 195.51,-93.79 198.63,-87.52"/>
</a>
</g>
</g>
<!-- Node6&#45;&gt;Node5 -->
<g id="edge9_Node000006_Node000005" class="edge">
<title>Node6&#45;&gt;Node5</title>
<g id="a_edge9_Node000006_Node000005"><a xlink:title=" ">
<path fill="none" stroke="#63b8ff" d="M179.35,-66.18C189.89,-57.19 206.36,-43.14 219.15,-32.23"/>
<polygon fill="#63b8ff" stroke="#63b8ff" points="220.96,-34.43 226.3,-25.28 216.42,-29.1 220.96,-34.43"/>
</a>
</g>
</g>
<!-- Node7 -->
<g id="Node000007" class="node">
<title>Node7</title>
<g id="a_Node000007"><a xlink:title=" ">
<polygon fill="#e0e0e0" stroke="#999999" points="128.38,-24.88 67.38,-24.88 67.38,-5.63 128.38,-5.63 128.38,-24.88"/>
<text text-anchor="middle" x="97.88" y="-11.38" font-family="Helvetica,sans-Serif" font-size="10.00">filesystem</text>
</a>
</g>
</g>
<!-- Node6&#45;&gt;Node7 -->
<g id="edge6_Node000006_Node000007" class="edge">
<title>Node6&#45;&gt;Node7</title>
<g id="a_edge6_Node000006_Node000007"><a xlink:title=" ">
<path fill="none" stroke="#63b8ff" d="M158.09,-66.18C147.25,-57.19 130.3,-43.14 117.14,-32.23"/>
<polygon fill="#63b8ff" stroke="#63b8ff" points="119.69,-28.96 109.76,-25.28 115.22,-34.35 119.69,-28.96"/>
</a>
</g>
</g>
<!-- Node8 -->
<g id="Node000008" class="node">
<title>Node8</title>
<g id="a_Node000008"><a xlink:title=" ">
<polygon fill="#e0e0e0" stroke="#999999" points="199.62,-24.88 146.12,-24.88 146.12,-5.63 199.62,-5.63 199.62,-24.88"/>
<text text-anchor="middle" x="172.88" y="-11.38" font-family="Helvetica,sans-Serif" font-size="10.00">iostream</text>
</a>
</g>
</g>
<!-- Node6&#45;&gt;Node8 -->
<g id="edge7_Node000006_Node000008" class="edge">
<title>Node6&#45;&gt;Node8</title>
<g id="a_edge7_Node000006_Node000008"><a xlink:title=" ">
<path fill="none" stroke="#63b8ff" d="M169.48,-66.18C170.02,-58.23 170.83,-46.31 171.53,-36.12"/>
<polygon fill="#63b8ff" stroke="#63b8ff" points="175.08,-36.49 172.26,-26.28 168.09,-36.02 175.08,-36.49"/>
</a>
</g>
</g>
<!-- Node9 -->
<g id="Node000009" class="node">
<title>Node9</title>
<g id="a_Node000009"><a xlink:title=" ">
<polygon fill="#e0e0e0" stroke="#999999" points="49.75,-24.88 0,-24.88 0,-5.63 49.75,-5.63 49.75,-24.88"/>
<text text-anchor="middle" x="24.88" y="-11.38" font-family="Helvetica,sans-Serif" font-size="10.00">optional</text>
</a>
</g>
</g>
<!-- Node6&#45;&gt;Node9 -->
<g id="edge8_Node000006_Node000009" class="edge">
<title>Node6&#45;&gt;Node9</title>
<g id="a_edge8_Node000006_Node000009"><a xlink:title=" ">
<path fill="none" stroke="#63b8ff" d="M145.85,-66.06C123.35,-57.17 88.17,-43.13 57.88,-30.5 56.99,-30.13 56.1,-29.76 55.2,-29.38"/>
<polygon fill="#63b8ff" stroke="#63b8ff" points="57.01,-25.92 46.44,-25.22 54.27,-32.36 57.01,-25.92"/>
</a>
</g>
</g>
<!-- Node10&#45;&gt;Node4 -->
<g id="edge12_Node000010_Node000004" class="edge">
<title>Node10&#45;&gt;Node4</title>
<g id="a_edge12_Node000010_Node000004"><a xlink:title=" ">
<path fill="none" stroke="#63b8ff" d="M636.5,-121.37C623.17,-108.7 597.8,-85.08 574.88,-66.5 559.63,-54.14 541.69,-41.12 527.92,-31.43"/>
<polygon fill="#63b8ff" stroke="#63b8ff" points="530.35,-28.16 520.15,-25.31 526.34,-33.9 530.35,-28.16"/>
</a>
</g>
</g>
<!-- Node10&#45;&gt;Node11 -->
<g id="edge11_Node000010_Node000011" class="edge">
<title>Node10&#45;&gt;Node11</title>
<g id="a_edge11_Node000010_Node000011"><a xlink:title=" ">
<path fill="none" stroke="#63b8ff" d="M626.2,-121.34C607.95,-112.97 580.54,-100.38 559.62,-90.78"/>
<polygon fill="#63b8ff" stroke="#63b8ff" points="561.2,-87.19 550.65,-86.2 558.28,-93.56 561.2,-87.19"/>
</a>
</g>
</g>
<!-- Node10&#45;&gt;Node12 -->
<g id="edge13_Node000010_Node000012" class="edge">
<title>Node10&#45;&gt;Node12</title>
<g id="a_edge13_Node000010_Node000012"><a xlink:title=" ">
<path fill="none" stroke="#63b8ff" d="M692.53,-121.29C714.27,-114.8 738.81,-103.89 754.88,-85.75 765.6,-73.63 770.34,-56 772.4,-41.54"/>
<polygon fill="#63b8ff" stroke="#63b8ff" points="775.97,-42.09 773.55,-31.77 769.01,-41.35 775.97,-42.09"/>
</a>
</g>
</g>
<!-- Node10&#45;&gt;Node13 -->
<g id="edge14_Node000010_Node000013" class="edge">
<title>Node10&#45;&gt;Node13</title>
<g id="a_edge14_Node000010_Node000013"><a xlink:title=" ">
<path fill="none" stroke="#63b8ff" d="M682.35,-121.34C718.56,-112.37 774.24,-98.58 813.78,-88.79"/>
<polygon fill="#63b8ff" stroke="#63b8ff" points="814.36,-92 823.22,-86.2 812.68,-85.21 814.36,-92"/>
</a>
</g>
</g>
<!-- Node14 -->
<g id="Node000014" class="node">
<title>Node14</title>
<g id="a_Node000014"><a xlink:title=" ">
<polygon fill="#e0e0e0" stroke="#999999" points="746.25,-85.75 687.5,-85.75 687.5,-66.5 746.25,-66.5 746.25,-85.75"/>
<text text-anchor="middle" x="716.88" y="-72.25" font-family="Helvetica,sans-Serif" font-size="10.00">stdexcept</text>
</a>
</g>
</g>
<!-- Node10&#45;&gt;Node14 -->
<g id="edge15_Node000010_Node000014" class="edge">
<title>Node10&#45;&gt;Node14</title>
<g id="a_edge15_Node000010_Node000014"><a xlink:title=" ">
<path fill="none" stroke="#63b8ff" d="M657.92,-121.34C668.39,-113.49 683.78,-101.95 696.21,-92.62"/>
<polygon fill="#63b8ff" stroke="#63b8ff" points="698.11,-94.82 704.01,-86.02 693.91,-89.22 698.11,-94.82"/>
</a>
</g>
</g>
<!-- Node15 -->
<g id="Node000015" class="node">
<title>Node15</title>
<g id="a_Node000015"><a xlink:href="_state_8h.html" target="_top" xlink:title="SPICE Interface functions.">
<polygon fill="white" stroke="#666666" points="669.62,-85.75 622.12,-85.75 622.12,-66.5 669.62,-66.5 669.62,-85.75"/>
<text text-anchor="middle" x="645.88" y="-72.25" font-family="Helvetica,sans-Serif" font-size="10.00">State.h</text>
</a>
</g>
</g>
<!-- Node10&#45;&gt;Node15 -->
<g id="edge16_Node000010_Node000015" class="edge">
<title>Node10&#45;&gt;Node15</title>
<g id="a_edge16_Node000010_Node000015"><a xlink:title=" ">
<path fill="none" stroke="#63b8ff" d="M645.88,-121.58C645.88,-114.92 645.88,-105.49 645.88,-97.03"/>
<polygon fill="#63b8ff" stroke="#63b8ff" points="649.38,-97.11 645.88,-87.11 642.38,-97.11 649.38,-97.11"/>
</a>
</g>
</g>
<!-- Node15&#45;&gt;Node4 -->
<g id="edge17_Node000015_Node000004" class="edge">
<title>Node15&#45;&gt;Node4</title>
<g id="a_edge17_Node000015_Node000004"><a xlink:title=" ">
<path fill="none" stroke="#63b8ff" d="M624.31,-66.05C601.01,-56.26 563.69,-40.56 537.17,-29.41"/>
<polygon fill="#63b8ff" stroke="#63b8ff" points="538.81,-25.88 528.24,-25.23 536.1,-32.34 538.81,-25.88"/>
</a>
</g>
</g>
<!-- Node15&#45;&gt;Node12 -->
<g id="edge18_Node000015_Node000012" class="edge">
<title>Node15&#45;&gt;Node12</title>
<g id="a_edge18_Node000015_Node000012"><a xlink:title=" ">
<path fill="none" stroke="#63b8ff" d="M665.59,-66.05C683.23,-57.94 709.66,-45.78 732,-35.51"/>
<polygon fill="#63b8ff" stroke="#63b8ff" points="733.3,-38.3 740.93,-30.94 730.38,-31.94 733.3,-38.3"/>
</a>
</g>
</g>
<!-- Node16 -->
<g id="Node000016" class="node">
<title>Node16</title>
<g id="a_Node000016"><a xlink:title=" ">
<polygon fill="#e0e0e0" stroke="#999999" points="667.38,-24.88 624.38,-24.88 624.38,-5.63 667.38,-5.63 667.38,-24.88"/>
<text text-anchor="middle" x="645.88" y="-11.38" font-family="Helvetica,sans-Serif" font-size="10.00">vector</text>
</a>
</g>
</g>
<!-- Node15&#45;&gt;Node16 -->
<g id="edge19_Node000015_Node000016" class="edge">
<title>Node15&#45;&gt;Node16</title>
<g id="a_edge19_Node000015_Node000016"><a xlink:title=" ">
<path fill="none" stroke="#63b8ff" d="M645.88,-66.18C645.88,-58.23 645.88,-46.31 645.88,-36.12"/>
<polygon fill="#63b8ff" stroke="#63b8ff" points="649.38,-36.28 645.88,-26.28 642.38,-36.28 649.38,-36.28"/>
</a>
</g>
</g>
</g>
</svg>

<g id="navigator" transform="translate(0 0)" fill="#404254">
  <rect fill="#f2f5e9" fill-opacity="0.5" stroke="#606060" stroke-width=".5" x="0" y="0" width="60" height="60"/>
  <use id="zoomplus" xlink:href="#zoomPlus" x="17" y="9" onmousedown="handleZoom(evt,'in')"/>
  <use id="zoomminus" xlink:href="#zoomMin" x="42" y="9" onmousedown="handleZoom(evt,'out')"/>
  <use id="reset" xlink:href="#resetDef" x="30" y="36" onmousedown="handleReset()"/>
   <use id="arrowup" xlink:href="#arrowUp" x="0" y="0" onmousedown="handlePan(0,-1)"/>
  <use id="arrowright" xlink:href="#arrowRight" x="0" y="0" onmousedown="handlePan(1,0)"/>
  <use id="arrowdown" xlink:href="#arrowDown" x="0" y="0" onmousedown="handlePan(0,1)"/>
  <use id="arrowleft" xlink:href="#arrowLeft" x="0" y="0" onmousedown="handlePan(-1,0)"/>
</g>
<svg viewBox="0 0 15 15" width="100%" height="30px" preserveAspectRatio="xMaxYMin meet">
 <g id="arrow_out" transform="scale(0.3 0.3)">
  <a xlink:href="_orbit_state_utils_8h__incl_org.svg" target="_base">
   <rect id="button" ry="5" rx="5" y="6" x="6" height="38" width="38"
        fill="#f2f5e9" fill-opacity="0.5" stroke="#606060" stroke-width="1.0"/>
   <path id="arrow"
     d="M 11.500037,31.436501 C 11.940474,20.09759 22.043105,11.32322 32.158766,21.979434 L 37.068811,17.246167 C 37.068811,17.246167 37.088388,32 37.088388,32 L 22.160133,31.978069 C 22.160133,31.978069 26.997745,27.140456 26.997745,27.140456 C 18.528582,18.264221 13.291696,25.230495 11.500037,31.436501 z"
     style="fill:#404040;"/>
  </a>
 </g>
</svg>

<style type='text/css'>
<![CDATA[
[data-mouse-over-selected='false'] { opacity: 0.7; }
[data-mouse-over-selected='true']  { opacity: 1.0; }
]]>
</style>
<script type="application/ecmascript"><![CDATA[
document.addEventListener('DOMContentLoaded', (event) => {
  highlightEdges();
  highlightAdjacentNodes();
});
]]></script>
</svg>
