<?xml version="1.0" encoding="UTF-8" standalone="no"?>
<!DOCTYPE svg PUBLIC "-//W3C//DTD SVG 1.1//EN"
 "http://www.w3.org/Graphics/SVG/1.1/DTD/svg11.dtd">
<!-- Generated by graphviz version 8.1.0 (20230707.0739)
 -->
<!-- Title: Propagator.h Pages: 1 -->
<svg width="1586pt" height="248pt"
 viewBox="0.00 0.00 1586.12 248.25" xmlns="http://www.w3.org/2000/svg" xmlns:xlink="http://www.w3.org/1999/xlink">
<g id="graph0" class="graph" transform="scale(1 1) rotate(0) translate(4 244.25)">
<title>Propagator.h</title>
<!-- Node1 -->
<g id="Node000001" class="node">
<title>Node1</title>
<g id="a_Node000001"><a xlink:title="Numerical Propagator.">
<polygon fill="#999999" stroke="#666666" points="947,-240.25 876.25,-240.25 876.25,-221 947,-221 947,-240.25"/>
<text text-anchor="middle" x="911.62" y="-226.75" font-family="Helvetica,sans-Serif" font-size="10.00">Propagator.h</text>
</a>
</g>
</g>
<!-- Node2 -->
<g id="Node000002" class="node">
<title>Node2</title>
<g id="a_Node000002"><a xlink:href="_dynamics_8h.html" target="_top" xlink:title="Interface for Dynamics.">
<polygon fill="white" stroke="#666666" points="899.88,-185 831.38,-185 831.38,-165.75 899.88,-165.75 899.88,-185"/>
<text text-anchor="middle" x="865.62" y="-171.5" font-family="Helvetica,sans-Serif" font-size="10.00">Dynamics.h</text>
</a>
</g>
</g>
<!-- Node1&#45;&gt;Node2 -->
<g id="edge1_Node000001_Node000002" class="edge">
<title>Node1&#45;&gt;Node2</title>
<g id="a_edge1_Node000001_Node000002"><a xlink:title=" ">
<path fill="none" stroke="#63b8ff" d="M896.87,-212.54C889.06,-203.5 879.79,-192.77 873.39,-185.36"/>
<polygon fill="#63b8ff" stroke="#63b8ff" points="894.84,-214.55 904.03,-219.83 900.14,-209.98 894.84,-214.55"/>
</a>
</g>
</g>
<!-- Node23 -->
<g id="Node000023" class="node">
<title>Node23</title>
<g id="a_Node000023"><a xlink:href="_propagator_8cpp.html" target="_top" xlink:title="Propagator class.">
<polygon fill="white" stroke="#666666" points="999.25,-185 918,-185 918,-165.75 999.25,-165.75 999.25,-185"/>
<text text-anchor="middle" x="958.62" y="-171.5" font-family="Helvetica,sans-Serif" font-size="10.00">Propagator.cpp</text>
</a>
</g>
</g>
<!-- Node1&#45;&gt;Node23 -->
<g id="edge32_Node000001_Node000023" class="edge">
<title>Node1&#45;&gt;Node23</title>
<g id="a_edge32_Node000001_Node000023"><a xlink:title=" ">
<path fill="none" stroke="#63b8ff" d="M926.45,-212.82C934.48,-203.73 944.08,-192.85 950.7,-185.36"/>
<polygon fill="#63b8ff" stroke="#63b8ff" points="924.38,-210.02 920.39,-219.83 929.63,-214.65 924.38,-210.02"/>
</a>
</g>
</g>
<!-- Node3 -->
<g id="Node000003" class="node">
<title>Node3</title>
<g id="a_Node000003"><a xlink:href="_agent_8h.html" target="_top" xlink:title="List of agents.">
<polygon fill="white" stroke="#666666" points="698.5,-129.75 648.75,-129.75 648.75,-110.5 698.5,-110.5 698.5,-129.75"/>
<text text-anchor="middle" x="673.62" y="-116.25" font-family="Helvetica,sans-Serif" font-size="10.00">Agent.h</text>
</a>
</g>
</g>
<!-- Node2&#45;&gt;Node3 -->
<g id="edge2_Node000002_Node000003" class="edge">
<title>Node2&#45;&gt;Node3</title>
<g id="a_edge2_Node000002_Node000003"><a xlink:title=" ">
<path fill="none" stroke="#63b8ff" d="M822.79,-162.5C784.77,-151.95 730.5,-136.9 698.98,-128.16"/>
<polygon fill="#63b8ff" stroke="#63b8ff" points="821.48,-166.04 832.05,-165.34 823.35,-159.3 821.48,-166.04"/>
</a>
</g>
</g>
<!-- Node5 -->
<g id="Node000005" class="node">
<title>Node5</title>
<g id="a_Node000005"><a xlink:href="_example_constellations_8cpp.html" target="_top" xlink:title="Setup GNSS Constellation.">
<polygon fill="white" stroke="#666666" points="135.25,-19.25 0,-19.25 0,0 135.25,0 135.25,-19.25"/>
<text text-anchor="middle" x="67.62" y="-5.75" font-family="Helvetica,sans-Serif" font-size="10.00">ExampleConstellations.cpp</text>
</a>
</g>
</g>
<!-- Node2&#45;&gt;Node5 -->
<g id="edge24_Node000002_Node000005" class="edge">
<title>Node2&#45;&gt;Node5</title>
<g id="a_edge24_Node000002_Node000005"><a xlink:title=" ">
<path fill="none" stroke="#63b8ff" d="M820.16,-173.52C695.94,-170.8 352.85,-160.64 244.62,-129.75 193.92,-115.28 183,-104.49 139.62,-74.5 114.89,-57.39 89.34,-32.76 76.35,-19.65"/>
<polygon fill="#63b8ff" stroke="#63b8ff" points="820.07,-177.04 830.14,-173.75 820.22,-170.04 820.07,-177.04"/>
</a>
</g>
</g>
<!-- Node6 -->
<g id="Node000006" class="node">
<title>Node6</title>
<g id="a_Node000006"><a xlink:href="_example_e_k_f_8cpp.html" target="_top" xlink:title="Example of Extended Kalman Filter for orbit determination.">
<polygon fill="white" stroke="#666666" points="244.12,-19.25 153.12,-19.25 153.12,0 244.12,0 244.12,-19.25"/>
<text text-anchor="middle" x="198.62" y="-5.75" font-family="Helvetica,sans-Serif" font-size="10.00">ExampleEKF.cpp</text>
</a>
</g>
</g>
<!-- Node2&#45;&gt;Node6 -->
<g id="edge25_Node000002_Node000006" class="edge">
<title>Node2&#45;&gt;Node6</title>
<g id="a_edge25_Node000002_Node000006"><a xlink:title=" ">
<path fill="none" stroke="#63b8ff" d="M820.28,-175.04C682.02,-176.01 270.24,-170.63 188.62,-74.5 175.4,-58.93 186.04,-33.21 193.29,-19.65"/>
<polygon fill="#63b8ff" stroke="#63b8ff" points="820.31,-178.53 830.28,-174.95 820.25,-171.53 820.31,-178.53"/>
</a>
</g>
</g>
<!-- Node7 -->
<g id="Node000007" class="node">
<title>Node7</title>
<g id="a_Node000007"><a xlink:href="_example_e_k_f_app_8cpp.html" target="_top" xlink:title="Example of EKF application.">
<polygon fill="white" stroke="#666666" points="910.5,-19.25 800.75,-19.25 800.75,0 910.5,0 910.5,-19.25"/>
<text text-anchor="middle" x="855.62" y="-5.75" font-family="Helvetica,sans-Serif" font-size="10.00">ExampleEKFApp.cpp</text>
</a>
</g>
</g>
<!-- Node2&#45;&gt;Node7 -->
<g id="edge26_Node000002_Node000007" class="edge">
<title>Node2&#45;&gt;Node7</title>
<g id="a_edge26_Node000002_Node000007"><a xlink:title=" ">
<path fill="none" stroke="#63b8ff" d="M866.38,-154.86C867.99,-140.61 872.49,-121.87 884.62,-110.5 938.91,-59.64 1088.72,-113.64 1042.62,-55.25 1034.17,-44.54 960.24,-29.31 907.91,-19.7"/>
<polygon fill="#63b8ff" stroke="#63b8ff" points="862.84,-154.28 865.6,-164.51 869.82,-154.79 862.84,-154.28"/>
</a>
</g>
</g>
<!-- Node8 -->
<g id="Node000008" class="node">
<title>Node8</title>
<g id="a_Node000008"><a xlink:href="_example_propagation_8cpp.html" target="_top" xlink:title="Example propagating both GPS constellation and Lunar Satellite.">
<polygon fill="white" stroke="#666666" points="774,-19.25 649.25,-19.25 649.25,0 774,0 774,-19.25"/>
<text text-anchor="middle" x="711.62" y="-5.75" font-family="Helvetica,sans-Serif" font-size="10.00">ExamplePropagation.cpp</text>
</a>
</g>
</g>
<!-- Node2&#45;&gt;Node8 -->
<g id="edge29_Node000002_Node000008" class="edge">
<title>Node2&#45;&gt;Node8</title>
<g id="a_edge29_Node000002_Node000008"><a xlink:title=" ">
<path fill="none" stroke="#63b8ff" d="M860.83,-155.06C853.54,-129.27 837.38,-83.57 808.62,-55.25 791.06,-37.95 765.57,-26.58 745.12,-19.65"/>
<polygon fill="#63b8ff" stroke="#63b8ff" points="857.62,-155.6 863.57,-164.37 864.39,-153.81 857.62,-155.6"/>
</a>
</g>
</g>
<!-- Node10 -->
<g id="Node000010" class="node">
<title>Node10</title>
<g id="a_Node000010"><a xlink:href="_g_n_s_s_constellation_8h.html" target="_top" xlink:title=" ">
<polygon fill="white" stroke="#666666" points="319.5,-74.5 209.75,-74.5 209.75,-55.25 319.5,-55.25 319.5,-74.5"/>
<text text-anchor="middle" x="264.62" y="-61" font-family="Helvetica,sans-Serif" font-size="10.00">GNSSConstellation.h</text>
</a>
</g>
</g>
<!-- Node2&#45;&gt;Node10 -->
<g id="edge30_Node000002_Node000010" class="edge">
<title>Node2&#45;&gt;Node10</title>
<g id="a_edge30_Node000002_Node000010"><a xlink:title=" ">
<path fill="none" stroke="#63b8ff" d="M820.45,-166.22C710.53,-146.38 429.77,-95.69 314.84,-74.94"/>
<polygon fill="#63b8ff" stroke="#63b8ff" points="819.69,-169.82 830.15,-168.15 820.93,-162.93 819.69,-169.82"/>
</a>
</g>
</g>
<!-- Node18 -->
<g id="Node000018" class="node">
<title>Node18</title>
<g id="a_Node000018"><a xlink:href="_dynamics_analytical_8cpp.html" target="_top" xlink:title="Analytical orbit dynamics implementation.">
<polygon fill="white" stroke="#666666" points="1015.5,-129.75 893.75,-129.75 893.75,-110.5 1015.5,-110.5 1015.5,-129.75"/>
<text text-anchor="middle" x="954.62" y="-116.25" font-family="Helvetica,sans-Serif" font-size="10.00">DynamicsAnalytical.cpp</text>
</a>
</g>
</g>
<!-- Node2&#45;&gt;Node18 -->
<g id="edge22_Node000002_Node000018" class="edge">
<title>Node2&#45;&gt;Node18</title>
<g id="a_edge22_Node000002_Node000018"><a xlink:title=" ">
<path fill="none" stroke="#63b8ff" d="M889.92,-159.84C905.73,-150.38 925.88,-138.33 939.45,-130.2"/>
<polygon fill="#63b8ff" stroke="#63b8ff" points="888.51,-157.2 881.72,-165.34 892.1,-163.21 888.51,-157.2"/>
</a>
</g>
</g>
<!-- Node19 -->
<g id="Node000019" class="node">
<title>Node19</title>
<g id="a_Node000019"><a xlink:href="_dynamics_numerical_8cpp.html" target="_top" xlink:title="List of Numerical Dynamics.">
<polygon fill="white" stroke="#666666" points="1157.25,-129.75 1034,-129.75 1034,-110.5 1157.25,-110.5 1157.25,-129.75"/>
<text text-anchor="middle" x="1095.62" y="-116.25" font-family="Helvetica,sans-Serif" font-size="10.00">DynamicsNumerical.cpp</text>
</a>
</g>
</g>
<!-- Node2&#45;&gt;Node19 -->
<g id="edge23_Node000002_Node000019" class="edge">
<title>Node2&#45;&gt;Node19</title>
<g id="a_edge23_Node000002_Node000019"><a xlink:title=" ">
<path fill="none" stroke="#63b8ff" d="M910.64,-163.95C953.03,-154.14 1015.9,-139.58 1056.33,-130.22"/>
<polygon fill="#63b8ff" stroke="#63b8ff" points="910.01,-160.74 901.06,-166.4 911.59,-167.56 910.01,-160.74"/>
</a>
</g>
</g>
<!-- Node20 -->
<g id="Node000020" class="node">
<title>Node20</title>
<g id="a_Node000020"><a xlink:href="_example_frozen_orbits_8cpp.html" target="_top" xlink:title="Example of frozen orbits.">
<polygon fill="white" stroke="#666666" points="1304.25,-129.75 1175,-129.75 1175,-110.5 1304.25,-110.5 1304.25,-129.75"/>
<text text-anchor="middle" x="1239.62" y="-116.25" font-family="Helvetica,sans-Serif" font-size="10.00">ExampleFrozenOrbits.cpp</text>
</a>
</g>
</g>
<!-- Node2&#45;&gt;Node20 -->
<g id="edge27_Node000002_Node000020" class="edge">
<title>Node2&#45;&gt;Node20</title>
<g id="a_edge27_Node000002_Node000020"><a xlink:title=" ">
<path fill="none" stroke="#63b8ff" d="M910.91,-165.48C973.5,-155.44 1098.02,-139.2 1174.81,-129.36"/>
<polygon fill="#63b8ff" stroke="#63b8ff" points="910.62,-162.14 901.32,-167.22 911.76,-169.05 910.62,-162.14"/>
</a>
</g>
</g>
<!-- Node21 -->
<g id="Node000021" class="node">
<title>Node21</title>
<g id="a_Node000021"><a xlink:href="_example_performance_8cpp.html" target="_top" xlink:title="Example for performance testing of spherical harmonics computation.">
<polygon fill="white" stroke="#666666" points="1450.88,-129.75 1322.38,-129.75 1322.38,-110.5 1450.88,-110.5 1450.88,-129.75"/>
<text text-anchor="middle" x="1386.62" y="-116.25" font-family="Helvetica,sans-Serif" font-size="10.00">ExamplePerformance.cpp</text>
</a>
</g>
</g>
<!-- Node2&#45;&gt;Node21 -->
<g id="edge28_Node000002_Node000021" class="edge">
<title>Node2&#45;&gt;Node21</title>
<g id="a_edge28_Node000002_Node000021"><a xlink:title=" ">
<path fill="none" stroke="#63b8ff" d="M911.11,-165.53C1089.35,-140.26 1137.39,-147.99 1313.62,-129.75 1316.42,-129.46 1319.27,-129.16 1322.15,-128.85"/>
<polygon fill="#63b8ff" stroke="#63b8ff" points="910.7,-162.2 901.3,-167.08 911.7,-169.13 910.7,-162.2"/>
</a>
</g>
</g>
<!-- Node22 -->
<g id="Node000022" class="node">
<title>Node22</title>
<g id="a_Node000022"><a xlink:href="_n_body_dynamics_8cpp.html" target="_top" xlink:title="Multiple&#45;body dynamics.">
<polygon fill="white" stroke="#666666" points="1578.12,-129.75 1469.12,-129.75 1469.12,-110.5 1578.12,-110.5 1578.12,-129.75"/>
<text text-anchor="middle" x="1523.62" y="-116.25" font-family="Helvetica,sans-Serif" font-size="10.00">NBodyDynamics.cpp</text>
</a>
</g>
</g>
<!-- Node2&#45;&gt;Node22 -->
<g id="edge31_Node000002_Node000022" class="edge">
<title>Node2&#45;&gt;Node22</title>
<g id="a_edge31_Node000002_Node000022"><a xlink:title=" ">
<path fill="none" stroke="#63b8ff" d="M910.87,-165.62C1153.75,-134.12 1218.89,-153.81 1459.62,-129.75 1462.64,-129.45 1465.73,-129.12 1468.84,-128.76"/>
<polygon fill="#63b8ff" stroke="#63b8ff" points="910.75,-162.24 901.29,-167.01 911.66,-169.18 910.75,-162.24"/>
</a>
</g>
</g>
<!-- Node4 -->
<g id="Node000004" class="node">
<title>Node4</title>
<g id="a_Node000004"><a xlink:href="_agent_8cpp.html" target="_top" xlink:title="Base class fo.">
<polygon fill="white" stroke="#666666" points="799.75,-74.5 739.5,-74.5 739.5,-55.25 799.75,-55.25 799.75,-74.5"/>
<text text-anchor="middle" x="769.62" y="-61" font-family="Helvetica,sans-Serif" font-size="10.00">Agent.cpp</text>
</a>
</g>
</g>
<!-- Node3&#45;&gt;Node4 -->
<g id="edge3_Node000003_Node000004" class="edge">
<title>Node3&#45;&gt;Node4</title>
<g id="a_edge3_Node000003_Node000004"><a xlink:title=" ">
<path fill="none" stroke="#63b8ff" d="M699.34,-104.86C716.48,-95.36 738.48,-83.15 753.26,-74.95"/>
<polygon fill="#63b8ff" stroke="#63b8ff" points="697.96,-102.18 690.91,-110.09 701.35,-108.3 697.96,-102.18"/>
</a>
</g>
</g>
<!-- Node3&#45;&gt;Node5 -->
<g id="edge4_Node000003_Node000005" class="edge">
<title>Node3&#45;&gt;Node5</title>
<g id="a_edge4_Node000003_Node000005"><a xlink:title=" ">
<path fill="none" stroke="#63b8ff" d="M637.78,-117.65C540.45,-113.35 272.93,-99.54 188.62,-74.5 146.27,-61.92 101.59,-33.9 80.32,-19.52"/>
<polygon fill="#63b8ff" stroke="#63b8ff" points="637.37,-121.18 647.52,-118.11 637.68,-114.18 637.37,-121.18"/>
</a>
</g>
</g>
<!-- Node3&#45;&gt;Node6 -->
<g id="edge5_Node000003_Node000006" class="edge">
<title>Node3&#45;&gt;Node6</title>
<g id="a_edge5_Node000003_Node000006"><a xlink:title=" ">
<path fill="none" stroke="#63b8ff" d="M637.77,-118.42C532.59,-115.97 230.42,-106.23 200.62,-74.5 186.65,-59.62 191.73,-33.13 195.69,-19.41"/>
<polygon fill="#63b8ff" stroke="#63b8ff" points="637.38,-121.93 647.46,-118.65 637.54,-114.93 637.38,-121.93"/>
</a>
</g>
</g>
<!-- Node3&#45;&gt;Node7 -->
<g id="edge6_Node000003_Node000007" class="edge">
<title>Node3&#45;&gt;Node7</title>
<g id="a_edge6_Node000003_Node000007"><a xlink:title=" ">
<path fill="none" stroke="#63b8ff" d="M709.34,-113.52C738.27,-107.6 778.95,-96.04 808.62,-74.5 829.13,-59.62 844.44,-33.13 851.43,-19.41"/>
<polygon fill="#63b8ff" stroke="#63b8ff" points="709.04,-110.21 699.87,-115.52 710.35,-117.08 709.04,-110.21"/>
</a>
</g>
</g>
<!-- Node3&#45;&gt;Node8 -->
<g id="edge7_Node000003_Node000008" class="edge">
<title>Node3&#45;&gt;Node8</title>
<g id="a_edge7_Node000003_Node000008"><a xlink:title=" ">
<path fill="none" stroke="#63b8ff" d="M682.3,-100.07C685.72,-92.23 689.56,-83.01 692.62,-74.5 699.61,-55.13 706.06,-31.81 709.35,-19.41"/>
<polygon fill="#63b8ff" stroke="#63b8ff" points="678.74,-98.46 677.86,-109.02 685.13,-101.31 678.74,-98.46"/>
</a>
</g>
</g>
<!-- Node9 -->
<g id="Node000009" class="node">
<title>Node9</title>
<g id="a_Node000009"><a xlink:href="_g_n_s_s_channel_8cpp.html" target="_top" xlink:title="GNSS Channel.">
<polygon fill="white" stroke="#666666" points="437.25,-74.5 338,-74.5 338,-55.25 437.25,-55.25 437.25,-74.5"/>
<text text-anchor="middle" x="387.62" y="-61" font-family="Helvetica,sans-Serif" font-size="10.00">GNSSChannel.cpp</text>
</a>
</g>
</g>
<!-- Node3&#45;&gt;Node9 -->
<g id="edge8_Node000003_Node000009" class="edge">
<title>Node3&#45;&gt;Node9</title>
<g id="a_edge8_Node000003_Node000009"><a xlink:title=" ">
<path fill="none" stroke="#63b8ff" d="M637.71,-112.44C586.82,-102.96 493.57,-85.6 436.44,-74.96"/>
<polygon fill="#63b8ff" stroke="#63b8ff" points="637.02,-116.06 647.5,-114.45 638.3,-109.17 637.02,-116.06"/>
</a>
</g>
</g>
<!-- Node3&#45;&gt;Node10 -->
<g id="edge9_Node000003_Node000010" class="edge">
<title>Node3&#45;&gt;Node10</title>
<g id="a_edge9_Node000003_Node000010"><a xlink:title=" ">
<path fill="none" stroke="#63b8ff" d="M637.64,-114.53C574.88,-106.51 441.36,-89.39 328.62,-74.5 325.74,-74.12 322.77,-73.73 319.78,-73.33"/>
<polygon fill="#63b8ff" stroke="#63b8ff" points="637.15,-118.13 647.51,-115.92 638.04,-111.18 637.15,-118.13"/>
</a>
</g>
</g>
<!-- Node12 -->
<g id="Node000012" class="node">
<title>Node12</title>
<g id="a_Node000012"><a xlink:href="_g_n_s_s_state_estimation_app_8h.html" target="_top" xlink:title="State Estimation Application Using GNSS Measurement.">
<polygon fill="white" stroke="#666666" points="1033.5,-74.5 893.75,-74.5 893.75,-55.25 1033.5,-55.25 1033.5,-74.5"/>
<text text-anchor="middle" x="963.62" y="-61" font-family="Helvetica,sans-Serif" font-size="10.00">GNSSStateEstimationApp.h</text>
</a>
</g>
</g>
<!-- Node3&#45;&gt;Node12 -->
<g id="edge15_Node000003_Node000012" class="edge">
<title>Node3&#45;&gt;Node12</title>
<g id="a_edge15_Node000003_Node000012"><a xlink:title=" ">
<path fill="none" stroke="#63b8ff" d="M709.44,-112.55C760.88,-103.1 855.86,-85.66 914.02,-74.98"/>
<polygon fill="#63b8ff" stroke="#63b8ff" points="709.06,-109.24 699.85,-114.49 710.32,-116.13 709.06,-109.24"/>
</a>
</g>
</g>
<!-- Node14 -->
<g id="Node000014" class="node">
<title>Node14</title>
<g id="a_Node000014"><a xlink:href="_g_n_s_s_transmitter_8cpp.html" target="_top" xlink:title="Handles GNSS transmit.">
<polygon fill="white" stroke="#666666" points="567.62,-74.5 455.62,-74.5 455.62,-55.25 567.62,-55.25 567.62,-74.5"/>
<text text-anchor="middle" x="511.62" y="-61" font-family="Helvetica,sans-Serif" font-size="10.00">GNSSTransmitter.cpp</text>
</a>
</g>
</g>
<!-- Node3&#45;&gt;Node14 -->
<g id="edge18_Node000003_Node000014" class="edge">
<title>Node3&#45;&gt;Node14</title>
<g id="a_edge18_Node000003_Node000014"><a xlink:title=" ">
<path fill="none" stroke="#63b8ff" d="M637.95,-107.4C608.2,-97.62 566.43,-83.89 539.2,-74.94"/>
<polygon fill="#63b8ff" stroke="#63b8ff" points="636.72,-111.01 647.31,-110.8 638.91,-104.36 636.72,-111.01"/>
</a>
</g>
</g>
<!-- Node15 -->
<g id="Node000015" class="node">
<title>Node15</title>
<g id="a_Node000015"><a xlink:href="_space_channel_8cpp.html" target="_top" xlink:title="Base spacechannel class (Under devlopment )">
<polygon fill="white" stroke="#666666" points="683.88,-74.5 585.38,-74.5 585.38,-55.25 683.88,-55.25 683.88,-74.5"/>
<text text-anchor="middle" x="634.62" y="-61" font-family="Helvetica,sans-Serif" font-size="10.00">SpaceChannel.cpp</text>
</a>
</g>
</g>
<!-- Node3&#45;&gt;Node15 -->
<g id="edge19_Node000003_Node000015" class="edge">
<title>Node3&#45;&gt;Node15</title>
<g id="a_edge19_Node000003_Node000015"><a xlink:title=" ">
<path fill="none" stroke="#63b8ff" d="M660.7,-101.47C654.17,-92.56 646.52,-82.12 641.2,-74.86"/>
<polygon fill="#63b8ff" stroke="#63b8ff" points="658.45,-103.33 667.18,-109.33 664.1,-99.2 658.45,-103.33"/>
</a>
</g>
</g>
<!-- Node16 -->
<g id="Node000016" class="node">
<title>Node16</title>
<g id="a_Node000016"><a xlink:href="_state_estimation_app_8h.html" target="_top" xlink:title="Base class for State Estimation Application.">
<polygon fill="white" stroke="#666666" points="1207.25,-74.5 1096,-74.5 1096,-55.25 1207.25,-55.25 1207.25,-74.5"/>
<text text-anchor="middle" x="1151.62" y="-61" font-family="Helvetica,sans-Serif" font-size="10.00">StateEstimationApp.h</text>
</a>
</g>
</g>
<!-- Node3&#45;&gt;Node16 -->
<g id="edge20_Node000003_Node000016" class="edge">
<title>Node3&#45;&gt;Node16</title>
<g id="a_edge20_Node000003_Node000016"><a xlink:title=" ">
<path fill="none" stroke="#63b8ff" d="M709.85,-115.09C792.69,-105.86 996.45,-83.16 1095.61,-72.12"/>
<polygon fill="#63b8ff" stroke="#63b8ff" points="709.54,-111.71 699.99,-116.3 710.31,-118.67 709.54,-111.71"/>
</a>
</g>
</g>
<!-- Node10&#45;&gt;Node5 -->
<g id="edge10_Node000010_Node000005" class="edge">
<title>Node10&#45;&gt;Node5</title>
<g id="a_edge10_Node000010_Node000005"><a xlink:title=" ">
<path fill="none" stroke="#63b8ff" d="M220.96,-52.07C184.82,-42.3 134.24,-28.63 101.21,-19.7"/>
<polygon fill="#63b8ff" stroke="#63b8ff" points="219.64,-55.61 230.21,-54.84 221.47,-48.85 219.64,-55.61"/>
</a>
</g>
</g>
<!-- Node10&#45;&gt;Node6 -->
<g id="edge11_Node000010_Node000006" class="edge">
<title>Node10&#45;&gt;Node6</title>
<g id="a_edge11_Node000010_Node000006"><a xlink:title=" ">
<path fill="none" stroke="#63b8ff" d="M244.88,-47.94C233.35,-38.64 219.24,-27.26 209.66,-19.52"/>
<polygon fill="#63b8ff" stroke="#63b8ff" points="242.45,-51.29 252.43,-54.84 246.84,-45.84 242.45,-51.29"/>
</a>
</g>
</g>
<!-- Node10&#45;&gt;Node7 -->
<g id="edge12_Node000010_Node000007" class="edge">
<title>Node10&#45;&gt;Node7</title>
<g id="a_edge12_Node000010_Node000007"><a xlink:title=" ">
<path fill="none" stroke="#63b8ff" d="M330.7,-55.09C531.74,-33.91 584.73,-38.78 782.62,-19.25 788.47,-18.67 794.57,-18.03 800.64,-17.35"/>
<polygon fill="#63b8ff" stroke="#63b8ff" points="330.33,-51.71 320.76,-56.25 331.07,-58.67 330.33,-51.71"/>
</a>
</g>
</g>
<!-- Node10&#45;&gt;Node8 -->
<g id="edge13_Node000010_Node000008" class="edge">
<title>Node10&#45;&gt;Node8</title>
<g id="a_edge13_Node000010_Node000008"><a xlink:title=" ">
<path fill="none" stroke="#63b8ff" d="M330.49,-55.04C449.04,-40.21 575.22,-25.84 648.89,-17.58"/>
<polygon fill="#63b8ff" stroke="#63b8ff" points="330.26,-51.66 320.77,-56.38 331.13,-58.61 330.26,-51.66"/>
</a>
</g>
</g>
<!-- Node11 -->
<g id="Node000011" class="node">
<title>Node11</title>
<g id="a_Node000011"><a xlink:href="_g_n_s_s_constellation_8cpp.html" target="_top" xlink:title="GNSS Constellation.">
<polygon fill="white" stroke="#666666" points="382.75,-19.25 262.5,-19.25 262.5,0 382.75,0 382.75,-19.25"/>
<text text-anchor="middle" x="322.62" y="-5.75" font-family="Helvetica,sans-Serif" font-size="10.00">GNSSConstellation.cpp</text>
</a>
</g>
</g>
<!-- Node10&#45;&gt;Node11 -->
<g id="edge14_Node000010_Node000011" class="edge">
<title>Node10&#45;&gt;Node11</title>
<g id="a_edge14_Node000010_Node000011"><a xlink:title=" ">
<path fill="none" stroke="#63b8ff" d="M282.28,-47.66C292.35,-38.42 304.59,-27.18 312.93,-19.52"/>
<polygon fill="#63b8ff" stroke="#63b8ff" points="280.46,-44.5 275.46,-53.84 285.2,-49.66 280.46,-44.5"/>
</a>
</g>
</g>
<!-- Node12&#45;&gt;Node7 -->
<g id="edge16_Node000012_Node000007" class="edge">
<title>Node12&#45;&gt;Node7</title>
<g id="a_edge16_Node000012_Node000007"><a xlink:title=" ">
<path fill="none" stroke="#63b8ff" d="M935.5,-50.01C916.11,-40.45 890.9,-28.02 874.04,-19.7"/>
<polygon fill="#63b8ff" stroke="#63b8ff" points="933.79,-53.56 944.3,-54.84 936.88,-47.28 933.79,-53.56"/>
</a>
</g>
</g>
<!-- Node13 -->
<g id="Node000013" class="node">
<title>Node13</title>
<g id="a_Node000013"><a xlink:href="_g_n_s_s_state_estimation_app_8cpp.html" target="_top" xlink:title="State Estimation Application Using GNSS Measurement.">
<polygon fill="white" stroke="#666666" points="1078.75,-19.25 928.5,-19.25 928.5,0 1078.75,0 1078.75,-19.25"/>
<text text-anchor="middle" x="1003.62" y="-5.75" font-family="Helvetica,sans-Serif" font-size="10.00">GNSSStateEstimationApp.cpp</text>
</a>
</g>
</g>
<!-- Node12&#45;&gt;Node13 -->
<g id="edge17_Node000012_Node000013" class="edge">
<title>Node12&#45;&gt;Node13</title>
<g id="a_edge17_Node000012_Node000013"><a xlink:title=" ">
<path fill="none" stroke="#63b8ff" d="M976.67,-46.51C983.42,-37.53 991.37,-26.95 996.88,-19.61"/>
<polygon fill="#63b8ff" stroke="#63b8ff" points="973.44,-43.98 970.23,-54.08 979.03,-48.19 973.44,-43.98"/>
</a>
</g>
</g>
<!-- Node17 -->
<g id="Node000017" class="node">
<title>Node17</title>
<g id="a_Node000017"><a xlink:href="_state_estimation_app_8cpp.html" target="_top" xlink:title="Base class for State Estimation Application.">
<polygon fill="white" stroke="#666666" points="1218.5,-19.25 1096.75,-19.25 1096.75,0 1218.5,0 1218.5,-19.25"/>
<text text-anchor="middle" x="1157.62" y="-5.75" font-family="Helvetica,sans-Serif" font-size="10.00">StateEstimationApp.cpp</text>
</a>
</g>
</g>
<!-- Node16&#45;&gt;Node17 -->
<g id="edge21_Node000016_Node000017" class="edge">
<title>Node16&#45;&gt;Node17</title>
<g id="a_edge21_Node000016_Node000017"><a xlink:title=" ">
<path fill="none" stroke="#63b8ff" d="M1153.84,-44.21C1154.79,-35.77 1155.86,-26.33 1156.61,-19.61"/>
<polygon fill="#63b8ff" stroke="#63b8ff" points="1150.26,-43.75 1152.62,-54.08 1157.21,-44.54 1150.26,-43.75"/>
</a>
</g>
</g>
</g>
</svg>
