<?xml version="1.0" encoding="UTF-8" standalone="no"?>
<!DOCTYPE svg PUBLIC "-//W3C//DTD SVG 1.1//EN"
 "http://www.w3.org/Graphics/SVG/1.1/DTD/svg11.dtd">
<!-- Generated by graphviz version 8.1.0 (20230707.0739)
 -->
<!-- Title: Scheduler.h Pages: 1 -->
<svg width="252pt" height="83pt"
 viewBox="0.00 0.00 251.75 82.50" xmlns="http://www.w3.org/2000/svg" xmlns:xlink="http://www.w3.org/1999/xlink">
<g id="graph0" class="graph" transform="scale(1 1) rotate(0) translate(4 78.5)">
<title>Scheduler.h</title>
<!-- Node1 -->
<g id="Node000001" class="node">
<title>Node1</title>
<g id="a_Node000001"><a xlink:title="Event scheduler class.">
<polygon fill="#999999" stroke="#666666" points="153.38,-74.5 86.38,-74.5 86.38,-55.25 153.38,-55.25 153.38,-74.5"/>
<text text-anchor="middle" x="119.88" y="-61" font-family="Helvetica,sans-Serif" font-size="10.00">Scheduler.h</text>
</a>
</g>
</g>
<!-- Node2 -->
<g id="Node000002" class="node">
<title>Node2</title>
<g id="a_Node000002"><a xlink:href="_example_e_k_f_app_8cpp.html" target="_top" xlink:title="Example of EKF application.">
<polygon fill="white" stroke="#666666" points="109.75,-19.25 0,-19.25 0,0 109.75,0 109.75,-19.25"/>
<text text-anchor="middle" x="54.88" y="-5.75" font-family="Helvetica,sans-Serif" font-size="10.00">ExampleEKFApp.cpp</text>
</a>
</g>
</g>
<!-- Node1&#45;&gt;Node2 -->
<g id="edge1_Node000001_Node000002" class="edge">
<title>Node1&#45;&gt;Node2</title>
<g id="a_edge1_Node000001_Node000002"><a xlink:title=" ">
<path fill="none" stroke="#63b8ff" d="M100.43,-47.94C89.07,-38.64 75.18,-27.26 65.74,-19.52"/>
<polygon fill="#63b8ff" stroke="#63b8ff" points="97.89,-51.21 107.85,-54.84 102.33,-45.8 97.89,-51.21"/>
</a>
</g>
</g>
<!-- Node3 -->
<g id="Node000003" class="node">
<title>Node3</title>
<g id="a_Node000003"><a xlink:href="_example_scheduler_8cpp.html" target="_top" xlink:title="Example of using the Scheduler class.">
<polygon fill="white" stroke="#666666" points="243.75,-19.25 128,-19.25 128,0 243.75,0 243.75,-19.25"/>
<text text-anchor="middle" x="185.88" y="-5.75" font-family="Helvetica,sans-Serif" font-size="10.00">ExampleScheduler.cpp</text>
</a>
</g>
</g>
<!-- Node1&#45;&gt;Node3 -->
<g id="edge2_Node000001_Node000003" class="edge">
<title>Node1&#45;&gt;Node3</title>
<g id="a_edge2_Node000001_Node000003"><a xlink:title=" ">
<path fill="none" stroke="#63b8ff" d="M139.62,-47.94C151.15,-38.64 165.26,-27.26 174.84,-19.52"/>
<polygon fill="#63b8ff" stroke="#63b8ff" points="137.66,-45.84 132.07,-54.84 142.05,-51.29 137.66,-45.84"/>
</a>
</g>
</g>
</g>
</svg>
