<?xml version="1.0" encoding="UTF-8" standalone="no"?>
<!DOCTYPE svg PUBLIC "-//W3C//DTD SVG 1.1//EN"
 "http://www.w3.org/Graphics/SVG/1.1/DTD/svg11.dtd">
<!-- Generated by graphviz version 8.1.0 (20230707.0739)
 -->
<!-- Title: LPT::SpiceInterface::TAItoStringUTC Pages: 1 -->
<svg width="385pt" height="161pt"
 viewBox="0.00 0.00 384.50 160.50" xmlns="http://www.w3.org/2000/svg" xmlns:xlink="http://www.w3.org/1999/xlink">

<svg id="main" version="1.1" xmlns="http://www.w3.org/2000/svg" xmlns:xlink="http://www.w3.org/1999/xlink" xml:space="preserve" onload="init(evt)">
<style type="text/css"><![CDATA[
.node, .edge {opacity: 0.7;}
.node.selected, .edge.selected {opacity: 1;}
.edge:hover path { stroke: red; }
.edge:hover polygon { stroke: red; fill: red; }
]]></style>
<script type="application/ecmascript" xlink:href="svg.min.js"/>
<svg id="graph" class="graph">
<g id="graph0" class="graph" transform="scale(1 1) rotate(0) translate(4 156.5)">
<title>LPT::SpiceInterface::TAItoStringUTC</title>
<!-- Node1 -->
<g id="Node000001" class="node">
<title>Node1</title>
<g id="a_Node000001"><a xlink:title="Convert TAI to string UTC.">
<polygon fill="#999999" stroke="#666666" points="101.5,-91.5 0,-91.5 0,-61 101.5,-61 101.5,-91.5"/>
<text text-anchor="start" x="8" y="-78" font-family="Helvetica,sans-Serif" font-size="10.00">LPT::SpiceInterface</text>
<text text-anchor="middle" x="50.75" y="-66.75" font-family="Helvetica,sans-Serif" font-size="10.00">::TAItoStringUTC</text>
</a>
</g>
</g>
<!-- Node1&#45;&gt;Node1 -->
<g id="edge6_Node000001_Node000001" class="edge">
<title>Node1&#45;&gt;Node1</title>
<g id="a_edge6_Node000001_Node000001"><a xlink:title=" ">
<path fill="none" stroke="#63b8ff" d="M26.38,-91.99C21.41,-101.06 29.53,-109.5 50.75,-109.5 62.68,-109.5 70.47,-106.83 74.12,-102.88"/>
<polygon fill="#63b8ff" stroke="#63b8ff" points="77.69,-103.26 75.12,-92.99 70.72,-102.63 77.69,-103.26"/>
</a>
</g>
</g>
<!-- Node2 -->
<g id="Node000002" class="node">
<title>Node2</title>
<g id="a_Node000002"><a xlink:href="_spice_interface_8cpp.html#af325f617b7e3d6a65c37b6ca4dfd52b3" target="_top" xlink:title="Convert time from one time system to another.">
<polygon fill="white" stroke="#666666" points="239,-134.5 137.5,-134.5 137.5,-104 239,-104 239,-134.5"/>
<text text-anchor="start" x="145.5" y="-121" font-family="Helvetica,sans-Serif" font-size="10.00">LPT::SpiceInterface</text>
<text text-anchor="middle" x="188.25" y="-109.75" font-family="Helvetica,sans-Serif" font-size="10.00">::ConvertTime</text>
</a>
</g>
</g>
<!-- Node1&#45;&gt;Node2 -->
<g id="edge1_Node000001_Node000002" class="edge">
<title>Node1&#45;&gt;Node2</title>
<g id="a_edge1_Node000001_Node000002"><a xlink:title=" ">
<path fill="none" stroke="#63b8ff" d="M101.05,-91.9C109.65,-94.62 118.67,-97.49 127.5,-100.29"/>
<polygon fill="#63b8ff" stroke="#63b8ff" points="126.17,-103.86 136.76,-103.54 128.28,-97.18 126.17,-103.86"/>
</a>
</g>
</g>
<!-- Node3 -->
<g id="Node000003" class="node">
<title>Node3</title>
<g id="a_Node000003"><a xlink:href="_spice_interface_8cpp.html#a37ef193d9d9c280ca90a4dcfc6c42002" target="_top" xlink:title="load the Spice kernels">
<polygon fill="white" stroke="#666666" points="376.5,-91.5 275,-91.5 275,-61 376.5,-61 376.5,-91.5"/>
<text text-anchor="start" x="283" y="-78" font-family="Helvetica,sans-Serif" font-size="10.00">LPT::SpiceInterface</text>
<text text-anchor="middle" x="325.75" y="-66.75" font-family="Helvetica,sans-Serif" font-size="10.00">::LoadSpiceKernel</text>
</a>
</g>
</g>
<!-- Node1&#45;&gt;Node3 -->
<g id="edge5_Node000001_Node000003" class="edge">
<title>Node1&#45;&gt;Node3</title>
<g id="a_edge5_Node000001_Node000003"><a xlink:title=" ">
<path fill="none" stroke="#63b8ff" d="M101.82,-76.25C147.47,-76.25 215.04,-76.25 263.81,-76.25"/>
<polygon fill="#63b8ff" stroke="#63b8ff" points="263.53,-79.75 273.53,-76.25 263.53,-72.75 263.53,-79.75"/>
</a>
</g>
</g>
<!-- Node4 -->
<g id="Node000004" class="node">
<title>Node4</title>
<g id="a_Node000004"><a xlink:href="_spice_interface_8cpp.html#ac8cf7eb28832a7be8ba1834844c74247" target="_top" xlink:title="Convert string to UTC.">
<polygon fill="white" stroke="#666666" points="239,-30.5 137.5,-30.5 137.5,0 239,0 239,-30.5"/>
<text text-anchor="start" x="145.5" y="-17" font-family="Helvetica,sans-Serif" font-size="10.00">LPT::SpiceInterface</text>
<text text-anchor="middle" x="188.25" y="-5.75" font-family="Helvetica,sans-Serif" font-size="10.00">::TDBtoStringUTC</text>
</a>
</g>
</g>
<!-- Node1&#45;&gt;Node4 -->
<g id="edge7_Node000001_Node000004" class="edge">
<title>Node1&#45;&gt;Node4</title>
<g id="a_edge7_Node000001_Node000004"><a xlink:title=" ">
<path fill="none" stroke="#63b8ff" d="M86.64,-60.54C103.71,-52.86 124.46,-43.52 142.66,-35.32"/>
<polygon fill="#63b8ff" stroke="#63b8ff" points="143.79,-38.2 151.47,-30.91 140.92,-31.82 143.79,-38.2"/>
</a>
</g>
</g>
<!-- Node2&#45;&gt;Node2 -->
<g id="edge2_Node000002_Node000002" class="edge">
<title>Node2&#45;&gt;Node2</title>
<g id="a_edge2_Node000002_Node000002"><a xlink:title=" ">
<path fill="none" stroke="#63b8ff" d="M163.88,-134.99C158.91,-144.06 167.03,-152.5 188.25,-152.5 200.18,-152.5 207.97,-149.83 211.62,-145.88"/>
<polygon fill="#63b8ff" stroke="#63b8ff" points="215.19,-146.26 212.62,-135.99 208.22,-145.63 215.19,-146.26"/>
</a>
</g>
</g>
<!-- Node2&#45;&gt;Node3 -->
<g id="edge3_Node000002_Node000003" class="edge">
<title>Node2&#45;&gt;Node3</title>
<g id="a_edge3_Node000002_Node000003"><a xlink:title=" ">
<path fill="none" stroke="#63b8ff" d="M238.55,-103.6C247.15,-100.88 256.17,-98.01 265,-95.21"/>
<polygon fill="#63b8ff" stroke="#63b8ff" points="265.78,-98.32 274.26,-91.96 263.67,-91.64 265.78,-98.32"/>
</a>
</g>
</g>
<!-- Node3&#45;&gt;Node3 -->
<g id="edge4_Node000003_Node000003" class="edge">
<title>Node3&#45;&gt;Node3</title>
<g id="a_edge4_Node000003_Node000003"><a xlink:title=" ">
<path fill="none" stroke="#63b8ff" d="M301.38,-91.99C296.41,-101.06 304.53,-109.5 325.75,-109.5 337.68,-109.5 345.47,-106.83 349.12,-102.88"/>
<polygon fill="#63b8ff" stroke="#63b8ff" points="352.69,-103.26 350.12,-92.99 345.72,-102.63 352.69,-103.26"/>
</a>
</g>
</g>
<!-- Node4&#45;&gt;Node3 -->
<g id="edge8_Node000004_Node000003" class="edge">
<title>Node4&#45;&gt;Node3</title>
<g id="a_edge8_Node000004_Node000003"><a xlink:title=" ">
<path fill="none" stroke="#63b8ff" d="M224.14,-30.96C241.21,-38.64 261.96,-47.98 280.16,-56.18"/>
<polygon fill="#63b8ff" stroke="#63b8ff" points="278.42,-59.68 288.97,-60.59 281.29,-53.3 278.42,-59.68"/>
</a>
</g>
</g>
<!-- Node4&#45;&gt;Node4 -->
<g id="edge9_Node000004_Node000004" class="edge">
<title>Node4&#45;&gt;Node4</title>
<g id="a_edge9_Node000004_Node000004"><a xlink:title=" ">
<path fill="none" stroke="#63b8ff" d="M163.88,-30.99C158.91,-40.06 167.03,-48.5 188.25,-48.5 200.18,-48.5 207.97,-45.83 211.62,-41.88"/>
<polygon fill="#63b8ff" stroke="#63b8ff" points="215.19,-42.26 212.62,-31.99 208.22,-41.63 215.19,-42.26"/>
</a>
</g>
</g>
</g>
</svg>
</svg>

<style type='text/css'>
<![CDATA[
[data-mouse-over-selected='false'] { opacity: 0.7; }
[data-mouse-over-selected='true']  { opacity: 1.0; }
]]>
</style>
<script type="application/ecmascript"><![CDATA[
document.addEventListener('DOMContentLoaded', (event) => {
  highlightEdges();
  highlightAdjacentNodes();
});
]]></script>
</svg>
