<?xml version="1.0" encoding="UTF-8" standalone="no"?>
<!DOCTYPE svg PUBLIC "-//W3C//DTD SVG 1.1//EN"
 "http://www.w3.org/Graphics/SVG/1.1/DTD/svg11.dtd">
<!-- Generated by graphviz version 8.1.0 (20230707.0739)
 -->
<!-- Title: LPT::SpiceInterface::GetFrameConversionMatrix Pages: 1 -->
<svg width="288pt" height="57pt"
 viewBox="0.00 0.00 287.50 56.50" xmlns="http://www.w3.org/2000/svg" xmlns:xlink="http://www.w3.org/1999/xlink">
<g id="graph0" class="graph" transform="scale(1 1) rotate(0) translate(4 52.5)">
<title>LPT::SpiceInterface::GetFrameConversionMatrix</title>
<!-- Node1 -->
<g id="Node000001" class="node">
<title>Node1</title>
<g id="a_Node000001"><a xlink:title="Get the Frame Conversion Matrix object.">
<polygon fill="#999999" stroke="#666666" points="142,-30.5 0,-30.5 0,0 142,0 142,-30.5"/>
<text text-anchor="start" x="8" y="-17" font-family="Helvetica,sans-Serif" font-size="10.00">LPT::SpiceInterface</text>
<text text-anchor="middle" x="71" y="-5.75" font-family="Helvetica,sans-Serif" font-size="10.00">::GetFrameConversionMatrix</text>
</a>
</g>
</g>
<!-- Node1&#45;&gt;Node1 -->
<g id="edge1_Node000001_Node000001" class="edge">
<title>Node1&#45;&gt;Node1</title>
<g id="a_edge1_Node000001_Node000001"><a xlink:title=" ">
<path fill="none" stroke="#63b8ff" d="M43.05,-30.99C37.34,-40.06 46.66,-48.5 71,-48.5 84.69,-48.5 93.63,-45.83 97.81,-41.88"/>
<polygon fill="#63b8ff" stroke="#63b8ff" points="101.39,-42.3 98.95,-31.99 94.43,-41.57 101.39,-42.3"/>
</a>
</g>
</g>
<!-- Node2 -->
<g id="Node000002" class="node">
<title>Node2</title>
<g id="a_Node000002"><a xlink:href="_spice_interface_8cpp.html#a37ef193d9d9c280ca90a4dcfc6c42002" target="_top" xlink:title="load the Spice kernels">
<polygon fill="white" stroke="#666666" points="279.5,-30.5 178,-30.5 178,0 279.5,0 279.5,-30.5"/>
<text text-anchor="start" x="186" y="-17" font-family="Helvetica,sans-Serif" font-size="10.00">LPT::SpiceInterface</text>
<text text-anchor="middle" x="228.75" y="-5.75" font-family="Helvetica,sans-Serif" font-size="10.00">::LoadSpiceKernel</text>
</a>
</g>
</g>
<!-- Node1&#45;&gt;Node2 -->
<g id="edge2_Node000001_Node000002" class="edge">
<title>Node1&#45;&gt;Node2</title>
<g id="a_edge2_Node000001_Node000002"><a xlink:title=" ">
<path fill="none" stroke="#63b8ff" d="M142.13,-15.25C150.34,-15.25 158.68,-15.25 166.75,-15.25"/>
<polygon fill="#63b8ff" stroke="#63b8ff" points="166.58,-18.75 176.58,-15.25 166.58,-11.75 166.58,-18.75"/>
</a>
</g>
</g>
<!-- Node2&#45;&gt;Node2 -->
<g id="edge3_Node000002_Node000002" class="edge">
<title>Node2&#45;&gt;Node2</title>
<g id="a_edge3_Node000002_Node000002"><a xlink:title=" ">
<path fill="none" stroke="#63b8ff" d="M200.8,-30.99C195.09,-40.06 204.41,-48.5 228.75,-48.5 242.44,-48.5 251.38,-45.83 255.56,-41.88"/>
<polygon fill="#63b8ff" stroke="#63b8ff" points="259.14,-42.3 256.7,-31.99 252.18,-41.57 259.14,-42.3"/>
</a>
</g>
</g>
</g>
</svg>
