<?xml version="1.0" encoding="UTF-8" standalone="no"?>
<!DOCTYPE svg PUBLIC "-//W3C//DTD SVG 1.1//EN"
 "http://www.w3.org/Graphics/SVG/1.1/DTD/svg11.dtd">
<!-- Generated by graphviz version 8.1.0 (20230707.0739)
 -->
<!-- Title: SpiceInterface.h Pages: 1 -->
<svg width="1738pt" height="83pt"
 viewBox="0.00 0.00 1737.88 82.50" xmlns="http://www.w3.org/2000/svg" xmlns:xlink="http://www.w3.org/1999/xlink">
<g id="graph0" class="graph" transform="scale(1 1) rotate(0) translate(4 78.5)">
<title>SpiceInterface.h</title>
<!-- Node1 -->
<g id="Node000001" class="node">
<title>Node1</title>
<g id="a_Node000001"><a xlink:title="SPICE Interface functions.">
<polygon fill="#999999" stroke="#666666" points="979.12,-74.5 891.88,-74.5 891.88,-55.25 979.12,-55.25 979.12,-74.5"/>
<text text-anchor="middle" x="935.5" y="-61" font-family="Helvetica,sans-Serif" font-size="10.00">SpiceInterface.h</text>
</a>
</g>
</g>
<!-- Node2 -->
<g id="Node000002" class="node">
<title>Node2</title>
<g id="a_Node000002"><a xlink:href="_coord_converter_8cpp.html" target="_top" xlink:title="Coordinate conversion functions.">
<polygon fill="white" stroke="#666666" points="103,-19.25 0,-19.25 0,0 103,0 103,-19.25"/>
<text text-anchor="middle" x="51.5" y="-5.75" font-family="Helvetica,sans-Serif" font-size="10.00">CoordConverter.cpp</text>
</a>
</g>
</g>
<!-- Node1&#45;&gt;Node2 -->
<g id="edge1_Node000001_Node000002" class="edge">
<title>Node1&#45;&gt;Node2</title>
<g id="a_edge1_Node000001_Node000002"><a xlink:title=" ">
<path fill="none" stroke="#63b8ff" d="M880.99,-62.59C748.78,-59.12 400.63,-47.8 111.5,-19.25 108.88,-18.99 106.2,-18.7 103.5,-18.39"/>
<polygon fill="#63b8ff" stroke="#63b8ff" points="880.54,-66.11 890.62,-62.87 880.72,-59.11 880.54,-66.11"/>
</a>
</g>
</g>
<!-- Node3 -->
<g id="Node000003" class="node">
<title>Node3</title>
<g id="a_Node000003"><a xlink:href="_example_constellations_8cpp.html" target="_top" xlink:title="Setup GNSS Constellation.">
<polygon fill="white" stroke="#666666" points="256.12,-19.25 120.88,-19.25 120.88,0 256.12,0 256.12,-19.25"/>
<text text-anchor="middle" x="188.5" y="-5.75" font-family="Helvetica,sans-Serif" font-size="10.00">ExampleConstellations.cpp</text>
</a>
</g>
</g>
<!-- Node1&#45;&gt;Node3 -->
<g id="edge2_Node000001_Node000003" class="edge">
<title>Node1&#45;&gt;Node3</title>
<g id="a_edge2_Node000001_Node000003"><a xlink:title=" ">
<path fill="none" stroke="#63b8ff" d="M880.65,-61.06C766.19,-55 493.62,-39.61 265.5,-19.25 262.55,-18.99 259.54,-18.71 256.5,-18.41"/>
<polygon fill="#63b8ff" stroke="#63b8ff" points="880.38,-64.6 890.55,-61.63 880.75,-57.61 880.38,-64.6"/>
</a>
</g>
</g>
<!-- Node4 -->
<g id="Node000004" class="node">
<title>Node4</title>
<g id="a_Node000004"><a xlink:href="_example_coord_convert_8cpp.html" target="_top" xlink:title="Example for coordinate conversion.">
<polygon fill="white" stroke="#666666" points="408.38,-19.25 274.62,-19.25 274.62,0 408.38,0 408.38,-19.25"/>
<text text-anchor="middle" x="341.5" y="-5.75" font-family="Helvetica,sans-Serif" font-size="10.00">ExampleCoordConvert.cpp</text>
</a>
</g>
</g>
<!-- Node1&#45;&gt;Node4 -->
<g id="edge3_Node000001_Node000004" class="edge">
<title>Node1&#45;&gt;Node4</title>
<g id="a_edge3_Node000001_Node000004"><a xlink:title=" ">
<path fill="none" stroke="#63b8ff" d="M880.99,-59.71C786.39,-52.36 585.72,-36.25 416.5,-19.25 413.89,-18.99 411.23,-18.71 408.55,-18.43"/>
<polygon fill="#63b8ff" stroke="#63b8ff" points="880.48,-63.25 890.72,-60.54 881.02,-56.28 880.48,-63.25"/>
</a>
</g>
</g>
<!-- Node5 -->
<g id="Node000005" class="node">
<title>Node5</title>
<g id="a_Node000005"><a xlink:href="_example_e_k_f_8cpp.html" target="_top" xlink:title="Example of Extended Kalman Filter for orbit determination.">
<polygon fill="white" stroke="#666666" points="517,-19.25 426,-19.25 426,0 517,0 517,-19.25"/>
<text text-anchor="middle" x="471.5" y="-5.75" font-family="Helvetica,sans-Serif" font-size="10.00">ExampleEKF.cpp</text>
</a>
</g>
</g>
<!-- Node1&#45;&gt;Node5 -->
<g id="edge4_Node000001_Node000005" class="edge">
<title>Node1&#45;&gt;Node5</title>
<g id="a_edge4_Node000001_Node000005"><a xlink:title=" ">
<path fill="none" stroke="#63b8ff" d="M880.8,-58.8C802.1,-51.29 652.41,-36.28 525.5,-19.25 522.87,-18.9 520.16,-18.52 517.43,-18.12"/>
<polygon fill="#63b8ff" stroke="#63b8ff" points="880.14,-62.35 890.42,-59.81 880.8,-55.38 880.14,-62.35"/>
</a>
</g>
</g>
<!-- Node6 -->
<g id="Node000006" class="node">
<title>Node6</title>
<g id="a_Node000006"><a xlink:href="_example_e_k_f_app_8cpp.html" target="_top" xlink:title="Example of EKF application.">
<polygon fill="white" stroke="#666666" points="644.38,-19.25 534.62,-19.25 534.62,0 644.38,0 644.38,-19.25"/>
<text text-anchor="middle" x="589.5" y="-5.75" font-family="Helvetica,sans-Serif" font-size="10.00">ExampleEKFApp.cpp</text>
</a>
</g>
</g>
<!-- Node1&#45;&gt;Node6 -->
<g id="edge5_Node000001_Node000006" class="edge">
<title>Node1&#45;&gt;Node6</title>
<g id="a_edge5_Node000001_Node000006"><a xlink:title=" ">
<path fill="none" stroke="#63b8ff" d="M880.91,-55.47C816.35,-45.54 709.47,-29.09 644.65,-19.11"/>
<polygon fill="#63b8ff" stroke="#63b8ff" points="880.26,-59.07 890.68,-57.13 881.33,-52.15 880.26,-59.07"/>
</a>
</g>
</g>
<!-- Node7 -->
<g id="Node000007" class="node">
<title>Node7</title>
<g id="a_Node000007"><a xlink:href="_example_performance_8cpp.html" target="_top" xlink:title="Example for performance testing of spherical harmonics computation.">
<polygon fill="white" stroke="#666666" points="790.75,-19.25 662.25,-19.25 662.25,0 790.75,0 790.75,-19.25"/>
<text text-anchor="middle" x="726.5" y="-5.75" font-family="Helvetica,sans-Serif" font-size="10.00">ExamplePerformance.cpp</text>
</a>
</g>
</g>
<!-- Node1&#45;&gt;Node7 -->
<g id="edge6_Node000001_Node000007" class="edge">
<title>Node1&#45;&gt;Node7</title>
<g id="a_edge6_Node000001_Node000007"><a xlink:title=" ">
<path fill="none" stroke="#63b8ff" d="M889.67,-52.2C851.3,-42.42 797.32,-28.67 762.13,-19.7"/>
<polygon fill="#63b8ff" stroke="#63b8ff" points="888.49,-55.76 899.05,-54.84 890.22,-48.98 888.49,-55.76"/>
</a>
</g>
</g>
<!-- Node8 -->
<g id="Node000008" class="node">
<title>Node8</title>
<g id="a_Node000008"><a xlink:href="_example_propagation_8cpp.html" target="_top" xlink:title="Example propagating both GPS constellation and Lunar Satellite.">
<polygon fill="white" stroke="#666666" points="933.88,-19.25 809.12,-19.25 809.12,0 933.88,0 933.88,-19.25"/>
<text text-anchor="middle" x="871.5" y="-5.75" font-family="Helvetica,sans-Serif" font-size="10.00">ExamplePropagation.cpp</text>
</a>
</g>
</g>
<!-- Node1&#45;&gt;Node8 -->
<g id="edge7_Node000001_Node000008" class="edge">
<title>Node1&#45;&gt;Node8</title>
<g id="a_edge7_Node000001_Node000008"><a xlink:title=" ">
<path fill="none" stroke="#63b8ff" d="M916.35,-47.94C905.17,-38.64 891.49,-27.26 882.2,-19.52"/>
<polygon fill="#63b8ff" stroke="#63b8ff" points="913.72,-51.14 923.64,-54.84 918.19,-45.76 913.72,-51.14"/>
</a>
</g>
</g>
<!-- Node9 -->
<g id="Node000009" class="node">
<title>Node9</title>
<g id="a_Node000009"><a xlink:href="_example_spice_8cpp.html" target="_top" xlink:title="Example of using the SpiceInterface class.">
<polygon fill="white" stroke="#666666" points="1049.38,-19.25 951.62,-19.25 951.62,0 1049.38,0 1049.38,-19.25"/>
<text text-anchor="middle" x="1000.5" y="-5.75" font-family="Helvetica,sans-Serif" font-size="10.00">ExampleSpice.cpp</text>
</a>
</g>
</g>
<!-- Node1&#45;&gt;Node9 -->
<g id="edge8_Node000001_Node000009" class="edge">
<title>Node1&#45;&gt;Node9</title>
<g id="a_edge8_Node000001_Node000009"><a xlink:title=" ">
<path fill="none" stroke="#63b8ff" d="M954.95,-47.94C966.3,-38.64 980.2,-27.26 989.64,-19.52"/>
<polygon fill="#63b8ff" stroke="#63b8ff" points="953.04,-45.8 947.53,-54.84 957.48,-51.21 953.04,-45.8"/>
</a>
</g>
</g>
<!-- Node10 -->
<g id="Node000010" class="node">
<title>Node10</title>
<g id="a_Node000010"><a xlink:href="_g_n_s_s_channel_8cpp.html" target="_top" xlink:title="GNSS Channel.">
<polygon fill="white" stroke="#666666" points="1167.12,-19.25 1067.88,-19.25 1067.88,0 1167.12,0 1167.12,-19.25"/>
<text text-anchor="middle" x="1117.5" y="-5.75" font-family="Helvetica,sans-Serif" font-size="10.00">GNSSChannel.cpp</text>
</a>
</g>
</g>
<!-- Node1&#45;&gt;Node10 -->
<g id="edge9_Node000001_Node000010" class="edge">
<title>Node1&#45;&gt;Node10</title>
<g id="a_edge9_Node000001_Node000010"><a xlink:title=" ">
<path fill="none" stroke="#63b8ff" d="M976.7,-51.82C1010.03,-42.07 1056.22,-28.55 1086.47,-19.7"/>
<polygon fill="#63b8ff" stroke="#63b8ff" points="975.99,-48.67 967.37,-54.84 977.95,-55.39 975.99,-48.67"/>
</a>
</g>
</g>
<!-- Node11 -->
<g id="Node000011" class="node">
<title>Node11</title>
<g id="a_Node000011"><a xlink:href="_g_n_s_s_receiver_8cpp.html" target="_top" xlink:title="GNSS Receiver class.">
<polygon fill="white" stroke="#666666" points="1286.25,-19.25 1184.75,-19.25 1184.75,0 1286.25,0 1286.25,-19.25"/>
<text text-anchor="middle" x="1235.5" y="-5.75" font-family="Helvetica,sans-Serif" font-size="10.00">GNSSReceiver.cpp</text>
</a>
</g>
</g>
<!-- Node1&#45;&gt;Node11 -->
<g id="edge10_Node000001_Node000011" class="edge">
<title>Node1&#45;&gt;Node11</title>
<g id="a_edge10_Node000001_Node000011"><a xlink:title=" ">
<path fill="none" stroke="#63b8ff" d="M990.1,-54.18C1045.43,-44.36 1130.36,-29.29 1184.4,-19.7"/>
<polygon fill="#63b8ff" stroke="#63b8ff" points="989.68,-50.88 980.44,-56.07 990.9,-57.77 989.68,-50.88"/>
</a>
</g>
</g>
<!-- Node12 -->
<g id="Node000012" class="node">
<title>Node12</title>
<g id="a_Node000012"><a xlink:href="_g_n_s_s_transmitter_8cpp.html" target="_top" xlink:title="Handles GNSS transmit.">
<polygon fill="white" stroke="#666666" points="1416.5,-19.25 1304.5,-19.25 1304.5,0 1416.5,0 1416.5,-19.25"/>
<text text-anchor="middle" x="1360.5" y="-5.75" font-family="Helvetica,sans-Serif" font-size="10.00">GNSSTransmitter.cpp</text>
</a>
</g>
</g>
<!-- Node1&#45;&gt;Node12 -->
<g id="edge11_Node000001_Node000012" class="edge">
<title>Node1&#45;&gt;Node12</title>
<g id="a_edge11_Node000001_Node000012"><a xlink:title=" ">
<path fill="none" stroke="#63b8ff" d="M990.42,-57.22C1061.03,-48.62 1187.44,-33.12 1295.5,-19.25 1298.32,-18.89 1301.21,-18.51 1304.13,-18.13"/>
<polygon fill="#63b8ff" stroke="#63b8ff" points="990.08,-53.85 980.57,-58.54 990.92,-60.8 990.08,-53.85"/>
</a>
</g>
</g>
<!-- Node13 -->
<g id="Node000013" class="node">
<title>Node13</title>
<g id="a_Node000013"><a xlink:href="_n_body_dynamics_8cpp.html" target="_top" xlink:title="Multiple&#45;body dynamics.">
<polygon fill="white" stroke="#666666" points="1544,-19.25 1435,-19.25 1435,0 1544,0 1544,-19.25"/>
<text text-anchor="middle" x="1489.5" y="-5.75" font-family="Helvetica,sans-Serif" font-size="10.00">NBodyDynamics.cpp</text>
</a>
</g>
</g>
<!-- Node1&#45;&gt;Node13 -->
<g id="edge12_Node000001_Node000013" class="edge">
<title>Node1&#45;&gt;Node13</title>
<g id="a_edge12_Node000001_Node000013"><a xlink:title=" ">
<path fill="none" stroke="#63b8ff" d="M990.32,-59.66C1080.99,-52.51 1267.83,-37.05 1425.5,-19.25 1428.51,-18.91 1431.59,-18.55 1434.71,-18.17"/>
<polygon fill="#63b8ff" stroke="#63b8ff" points="990.18,-56.24 980.49,-60.51 990.73,-63.22 990.18,-56.24"/>
</a>
</g>
</g>
<!-- Node14 -->
<g id="Node000014" class="node">
<title>Node14</title>
<g id="a_Node000014"><a xlink:href="_spice_interface_8cpp.html" target="_top" xlink:title="SPICE Interface functions.">
<polygon fill="white" stroke="#666666" points="1659.38,-19.25 1561.62,-19.25 1561.62,0 1659.38,0 1659.38,-19.25"/>
<text text-anchor="middle" x="1610.5" y="-5.75" font-family="Helvetica,sans-Serif" font-size="10.00">SpiceInterface.cpp</text>
</a>
</g>
</g>
<!-- Node1&#45;&gt;Node14 -->
<g id="edge13_Node000001_Node000014" class="edge">
<title>Node1&#45;&gt;Node14</title>
<g id="a_edge13_Node000001_Node000014"><a xlink:title=" ">
<path fill="none" stroke="#63b8ff" d="M990.38,-61.35C1098.42,-56.07 1346.22,-42.38 1553.5,-19.25 1556.09,-18.96 1558.73,-18.64 1561.41,-18.3"/>
<polygon fill="#63b8ff" stroke="#63b8ff" points="990.26,-57.9 980.44,-61.88 990.6,-64.9 990.26,-57.9"/>
</a>
</g>
</g>
<!-- Node15 -->
<g id="Node000015" class="node">
<title>Node15</title>
<g id="a_Node000015"><a xlink:href="_t_l_e_8cpp.html" target="_top" xlink:title="Routines to process TLE files.">
<polygon fill="white" stroke="#666666" points="1729.88,-19.25 1677.12,-19.25 1677.12,0 1729.88,0 1729.88,-19.25"/>
<text text-anchor="middle" x="1703.5" y="-5.75" font-family="Helvetica,sans-Serif" font-size="10.00">TLE.cpp</text>
</a>
</g>
</g>
<!-- Node1&#45;&gt;Node15 -->
<g id="edge14_Node000001_Node000015" class="edge">
<title>Node1&#45;&gt;Node15</title>
<g id="a_edge14_Node000001_Node000015"><a xlink:title=" ">
<path fill="none" stroke="#63b8ff" d="M990.52,-63.91C1113.03,-63.25 1417.33,-57.52 1668.5,-19.25 1671.22,-18.84 1674.04,-18.31 1676.85,-17.72"/>
<polygon fill="#63b8ff" stroke="#63b8ff" points="990.57,-60.41 980.58,-63.96 990.6,-67.41 990.57,-60.41"/>
</a>
</g>
</g>
</g>
</svg>
