<?xml version="1.0" encoding="UTF-8" standalone="no"?>
<!DOCTYPE svg PUBLIC "-//W3C//DTD SVG 1.1//EN"
 "http://www.w3.org/Graphics/SVG/1.1/DTD/svg11.dtd">
<!-- Generated by graphviz version 8.1.0 (20230707.0739)
 -->
<!-- Title: State.h Pages: 1 -->
<svg width="1935pt" height="304pt"
 viewBox="0.00 0.00 1934.63 303.50" xmlns="http://www.w3.org/2000/svg" xmlns:xlink="http://www.w3.org/1999/xlink">
<g id="graph0" class="graph" transform="scale(1 1) rotate(0) translate(4 299.5)">
<title>State.h</title>
<!-- Node1 -->
<g id="Node000001" class="node">
<title>Node1</title>
<g id="a_Node000001"><a xlink:title="SPICE Interface functions.">
<polygon fill="#999999" stroke="#666666" points="965.6,-295.5 918.1,-295.5 918.1,-276.25 965.6,-276.25 965.6,-295.5"/>
<text text-anchor="middle" x="941.85" y="-282" font-family="Helvetica,sans-Serif" font-size="10.00">State.h</text>
</a>
</g>
</g>
<!-- Node2 -->
<g id="Node000002" class="node">
<title>Node2</title>
<g id="a_Node000002"><a xlink:href="_clock_8h.html" target="_top" xlink:title="Clock class.">
<polygon fill="white" stroke="#666666" points="98.73,-185 48.98,-185 48.98,-165.75 98.73,-165.75 98.73,-185"/>
<text text-anchor="middle" x="73.85" y="-171.5" font-family="Helvetica,sans-Serif" font-size="10.00">Clock.h</text>
</a>
</g>
</g>
<!-- Node1&#45;&gt;Node2 -->
<g id="edge1_Node000001_Node000002" class="edge">
<title>Node1&#45;&gt;Node2</title>
<g id="a_edge1_Node000001_Node000002"><a xlink:title=" ">
<path fill="none" stroke="#63b8ff" d="M906.77,-281.89C792.16,-271.86 418.53,-237.09 112.85,-185 108.34,-184.23 103.56,-183.29 98.96,-182.31"/>
<polygon fill="#63b8ff" stroke="#63b8ff" points="906.39,-285.45 916.65,-282.83 906.99,-278.48 906.39,-285.45"/>
</a>
</g>
</g>
<!-- Node16 -->
<g id="Node000016" class="node">
<title>Node16</title>
<g id="a_Node000016"><a xlink:href="_state_estimation_app_8h.html" target="_top" xlink:title="Base class for State Estimation Application.">
<polygon fill="white" stroke="#666666" points="1854.48,-74.5 1743.23,-74.5 1743.23,-55.25 1854.48,-55.25 1854.48,-74.5"/>
<text text-anchor="middle" x="1798.85" y="-61" font-family="Helvetica,sans-Serif" font-size="10.00">StateEstimationApp.h</text>
</a>
</g>
</g>
<!-- Node1&#45;&gt;Node16 -->
<g id="edge75_Node000001_Node000016" class="edge">
<title>Node1&#45;&gt;Node16</title>
<g id="a_edge75_Node000001_Node000016"><a xlink:title=" ">
<path fill="none" stroke="#63b8ff" d="M976.75,-281.94C1076.61,-273.06 1371.58,-243.42 1609.85,-185 1682.92,-167.08 1714.22,-180.4 1769.85,-129.75 1786.42,-114.66 1794.15,-88.27 1797.19,-74.61"/>
<polygon fill="#63b8ff" stroke="#63b8ff" points="976.48,-278.54 966.83,-282.9 977.09,-285.51 976.48,-278.54"/>
</a>
</g>
</g>
<!-- Node18 -->
<g id="Node000018" class="node">
<title>Node18</title>
<g id="a_Node000018"><a xlink:href="_dynamics_8h.html" target="_top" xlink:title="Interface for Dynamics.">
<polygon fill="white" stroke="#666666" points="583.1,-185 514.6,-185 514.6,-165.75 583.1,-165.75 583.1,-185"/>
<text text-anchor="middle" x="548.85" y="-171.5" font-family="Helvetica,sans-Serif" font-size="10.00">Dynamics.h</text>
</a>
</g>
</g>
<!-- Node1&#45;&gt;Node18 -->
<g id="edge24_Node000001_Node000018" class="edge">
<title>Node1&#45;&gt;Node18</title>
<g id="a_edge24_Node000001_Node000018"><a xlink:title=" ">
<path fill="none" stroke="#63b8ff" d="M907.57,-275.41C832.65,-254.73 655.14,-205.72 581.62,-185.42"/>
<polygon fill="#63b8ff" stroke="#63b8ff" points="906.29,-278.96 916.86,-278.25 908.15,-272.22 906.29,-278.96"/>
</a>
</g>
</g>
<!-- Node24 -->
<g id="Node000024" class="node">
<title>Node24</title>
<g id="a_Node000024"><a xlink:href="_orbit_state_8h.html" target="_top" xlink:title="Orbit states.">
<polygon fill="white" stroke="#666666" points="1108.1,-240.25 1039.6,-240.25 1039.6,-221 1108.1,-221 1108.1,-240.25"/>
<text text-anchor="middle" x="1073.85" y="-226.75" font-family="Helvetica,sans-Serif" font-size="10.00">OrbitState.h</text>
</a>
</g>
</g>
<!-- Node1&#45;&gt;Node24 -->
<g id="edge36_Node000001_Node000024" class="edge">
<title>Node1&#45;&gt;Node24</title>
<g id="a_edge36_Node000001_Node000024"><a xlink:title=" ">
<path fill="none" stroke="#63b8ff" d="M974.28,-271.79C998.21,-262.14 1030.17,-249.25 1051.35,-240.7"/>
<polygon fill="#63b8ff" stroke="#63b8ff" points="973.21,-268.85 965.24,-275.84 975.83,-275.35 973.21,-268.85"/>
</a>
</g>
</g>
<!-- Node3 -->
<g id="Node000003" class="node">
<title>Node3</title>
<g id="a_Node000003"><a xlink:href="_agent_8h.html" target="_top" xlink:title="List of agents.">
<polygon fill="white" stroke="#666666" points="1106.73,-129.75 1056.98,-129.75 1056.98,-110.5 1106.73,-110.5 1106.73,-129.75"/>
<text text-anchor="middle" x="1081.85" y="-116.25" font-family="Helvetica,sans-Serif" font-size="10.00">Agent.h</text>
</a>
</g>
</g>
<!-- Node2&#45;&gt;Node3 -->
<g id="edge2_Node000002_Node000003" class="edge">
<title>Node2&#45;&gt;Node3</title>
<g id="a_edge2_Node000002_Node000003"><a xlink:title=" ">
<path fill="none" stroke="#63b8ff" d="M110.03,-173.58C235,-170.64 660.06,-159 1009.85,-129.75 1025.41,-128.45 1042.79,-126.38 1056.57,-124.6"/>
<polygon fill="#63b8ff" stroke="#63b8ff" points="110.13,-170.1 100.21,-173.83 110.29,-177.1 110.13,-170.1"/>
</a>
</g>
</g>
<!-- Node6 -->
<g id="Node000006" class="node">
<title>Node6</title>
<g id="a_Node000006"><a xlink:href="_example_e_k_f_8cpp.html" target="_top" xlink:title="Example of Extended Kalman Filter for orbit determination.">
<polygon fill="white" stroke="#666666" points="263.35,-19.25 172.35,-19.25 172.35,0 263.35,0 263.35,-19.25"/>
<text text-anchor="middle" x="217.85" y="-5.75" font-family="Helvetica,sans-Serif" font-size="10.00">ExampleEKF.cpp</text>
</a>
</g>
</g>
<!-- Node2&#45;&gt;Node6 -->
<g id="edge22_Node000002_Node000006" class="edge">
<title>Node2&#45;&gt;Node6</title>
<g id="a_edge22_Node000002_Node000006"><a xlink:title=" ">
<path fill="none" stroke="#63b8ff" d="M55.46,-157.89C48.18,-150.15 40.66,-140.32 36.85,-129.75 25.62,-98.6 16.43,-81.32 36.85,-55.25 53.37,-34.17 124.18,-21.69 172.18,-15.51"/>
<polygon fill="#63b8ff" stroke="#63b8ff" points="52.49,-159.86 62.06,-164.39 57.4,-154.88 52.49,-159.86"/>
</a>
</g>
</g>
<!-- Node7 -->
<g id="Node000007" class="node">
<title>Node7</title>
<g id="a_Node000007"><a xlink:href="_example_e_k_f_app_8cpp.html" target="_top" xlink:title="Example of EKF application.">
<polygon fill="white" stroke="#666666" points="722.73,-19.25 612.98,-19.25 612.98,0 722.73,0 722.73,-19.25"/>
<text text-anchor="middle" x="667.85" y="-5.75" font-family="Helvetica,sans-Serif" font-size="10.00">ExampleEKFApp.cpp</text>
</a>
</g>
</g>
<!-- Node2&#45;&gt;Node7 -->
<g id="edge23_Node000002_Node000007" class="edge">
<title>Node2&#45;&gt;Node7</title>
<g id="a_edge23_Node000002_Node000007"><a xlink:title=" ">
<path fill="none" stroke="#63b8ff" d="M74.01,-154.48C75.42,-127.26 82.38,-79.09 112.85,-55.25 155.94,-21.55 549.44,-24.91 603.85,-19.25 606.75,-18.95 609.72,-18.62 612.72,-18.27"/>
<polygon fill="#63b8ff" stroke="#63b8ff" points="70.49,-154.25 73.69,-164.35 77.49,-154.46 70.49,-154.25"/>
</a>
</g>
</g>
<!-- Node4 -->
<g id="Node000004" class="node">
<title>Node4</title>
<g id="a_Node000004"><a xlink:href="_agent_8cpp.html" target="_top" xlink:title="Base class fo.">
<polygon fill="white" stroke="#666666" points="854.98,-74.5 794.73,-74.5 794.73,-55.25 854.98,-55.25 854.98,-74.5"/>
<text text-anchor="middle" x="824.85" y="-61" font-family="Helvetica,sans-Serif" font-size="10.00">Agent.cpp</text>
</a>
</g>
</g>
<!-- Node3&#45;&gt;Node4 -->
<g id="edge3_Node000003_Node000004" class="edge">
<title>Node3&#45;&gt;Node4</title>
<g id="a_edge3_Node000003_Node000004"><a xlink:title=" ">
<path fill="none" stroke="#63b8ff" d="M1046.26,-111.23C1045.11,-110.98 1043.97,-110.74 1042.85,-110.5 975.97,-96.26 897.36,-80.38 855.21,-71.93"/>
<polygon fill="#63b8ff" stroke="#63b8ff" points="1045.17,-114.79 1055.69,-113.5 1046.66,-107.95 1045.17,-114.79"/>
</a>
</g>
</g>
<!-- Node5 -->
<g id="Node000005" class="node">
<title>Node5</title>
<g id="a_Node000005"><a xlink:href="_example_constellations_8cpp.html" target="_top" xlink:title="Setup GNSS Constellation.">
<polygon fill="white" stroke="#666666" points="925.48,-19.25 790.23,-19.25 790.23,0 925.48,0 925.48,-19.25"/>
<text text-anchor="middle" x="857.85" y="-5.75" font-family="Helvetica,sans-Serif" font-size="10.00">ExampleConstellations.cpp</text>
</a>
</g>
</g>
<!-- Node3&#45;&gt;Node5 -->
<g id="edge4_Node000003_Node000005" class="edge">
<title>Node3&#45;&gt;Node5</title>
<g id="a_edge4_Node000003_Node000005"><a xlink:title=" ">
<path fill="none" stroke="#63b8ff" d="M1046.05,-110.33C1008.28,-100.72 951.54,-85.27 931.85,-74.5 904.46,-59.51 878.21,-33.07 865.62,-19.38"/>
<polygon fill="#63b8ff" stroke="#63b8ff" points="1045.08,-113.95 1055.63,-112.99 1046.79,-107.16 1045.08,-113.95"/>
</a>
</g>
</g>
<!-- Node3&#45;&gt;Node6 -->
<g id="edge5_Node000003_Node000006" class="edge">
<title>Node3&#45;&gt;Node6</title>
<g id="a_edge5_Node000003_Node000006"><a xlink:title=" ">
<path fill="none" stroke="#63b8ff" d="M1045.98,-114.57C1034.45,-113.18 1021.62,-111.7 1009.85,-110.5 818.61,-91.07 768.67,-104.81 578.85,-74.5 542.31,-68.67 534.15,-62.44 497.85,-55.25 415.77,-38.98 319.23,-24.64 263.63,-16.84"/>
<polygon fill="#63b8ff" stroke="#63b8ff" points="1045.2,-118.12 1055.55,-115.87 1046.05,-111.18 1045.2,-118.12"/>
</a>
</g>
</g>
<!-- Node3&#45;&gt;Node7 -->
<g id="edge6_Node000003_Node000007" class="edge">
<title>Node3&#45;&gt;Node7</title>
<g id="a_edge6_Node000003_Node000007"><a xlink:title=" ">
<path fill="none" stroke="#63b8ff" d="M1046.27,-111.14C1045.12,-110.92 1043.98,-110.7 1042.85,-110.5 929.34,-90.03 895.42,-110.53 785.85,-74.5 744.91,-61.04 701.52,-33.68 680.6,-19.53"/>
<polygon fill="#63b8ff" stroke="#63b8ff" points="1045.24,-114.7 1055.73,-113.27 1046.63,-107.84 1045.24,-114.7"/>
</a>
</g>
</g>
<!-- Node8 -->
<g id="Node000008" class="node">
<title>Node8</title>
<g id="a_Node000008"><a xlink:href="_example_propagation_8cpp.html" target="_top" xlink:title="Example propagating both GPS constellation and Lunar Satellite.">
<polygon fill="white" stroke="#666666" points="1068.23,-19.25 943.48,-19.25 943.48,0 1068.23,0 1068.23,-19.25"/>
<text text-anchor="middle" x="1005.85" y="-5.75" font-family="Helvetica,sans-Serif" font-size="10.00">ExamplePropagation.cpp</text>
</a>
</g>
</g>
<!-- Node3&#45;&gt;Node8 -->
<g id="edge7_Node000003_Node000008" class="edge">
<title>Node3&#45;&gt;Node8</title>
<g id="a_edge7_Node000003_Node000008"><a xlink:title=" ">
<path fill="none" stroke="#63b8ff" d="M1046.36,-110.3C1006.45,-100.02 946.33,-83.33 939.85,-74.5 923.62,-52.39 959,-31.16 983.96,-19.6"/>
<polygon fill="#63b8ff" stroke="#63b8ff" points="1045.22,-113.88 1055.77,-112.95 1046.95,-107.09 1045.22,-113.88"/>
</a>
</g>
</g>
<!-- Node9 -->
<g id="Node000009" class="node">
<title>Node9</title>
<g id="a_Node000009"><a xlink:href="_g_n_s_s_channel_8cpp.html" target="_top" xlink:title="GNSS Channel.">
<polygon fill="white" stroke="#666666" points="1294.48,-74.5 1195.23,-74.5 1195.23,-55.25 1294.48,-55.25 1294.48,-74.5"/>
<text text-anchor="middle" x="1244.85" y="-61" font-family="Helvetica,sans-Serif" font-size="10.00">GNSSChannel.cpp</text>
</a>
</g>
</g>
<!-- Node3&#45;&gt;Node9 -->
<g id="edge8_Node000003_Node000009" class="edge">
<title>Node3&#45;&gt;Node9</title>
<g id="a_edge8_Node000003_Node000009"><a xlink:title=" ">
<path fill="none" stroke="#63b8ff" d="M1117.38,-107.52C1147.28,-97.75 1189.46,-83.97 1216.98,-74.98"/>
<polygon fill="#63b8ff" stroke="#63b8ff" points="1116.38,-104.49 1107.96,-110.92 1118.56,-111.14 1116.38,-104.49"/>
</a>
</g>
</g>
<!-- Node10 -->
<g id="Node000010" class="node">
<title>Node10</title>
<g id="a_Node000010"><a xlink:href="_g_n_s_s_constellation_8h.html" target="_top" xlink:title=" ">
<polygon fill="white" stroke="#666666" points="697.73,-74.5 587.98,-74.5 587.98,-55.25 697.73,-55.25 697.73,-74.5"/>
<text text-anchor="middle" x="642.85" y="-61" font-family="Helvetica,sans-Serif" font-size="10.00">GNSSConstellation.h</text>
</a>
</g>
</g>
<!-- Node3&#45;&gt;Node10 -->
<g id="edge9_Node000003_Node000010" class="edge">
<title>Node3&#45;&gt;Node10</title>
<g id="a_edge9_Node000003_Node000010"><a xlink:title=" ">
<path fill="none" stroke="#63b8ff" d="M1046.28,-111.09C1045.13,-110.88 1043.98,-110.69 1042.85,-110.5 896.83,-86.49 858.83,-91.68 711.85,-74.5 707.41,-73.98 702.82,-73.43 698.2,-72.87"/>
<polygon fill="#63b8ff" stroke="#63b8ff" points="1045.27,-114.65 1055.75,-113.15 1046.62,-107.79 1045.27,-114.65"/>
</a>
</g>
</g>
<!-- Node12 -->
<g id="Node000012" class="node">
<title>Node12</title>
<g id="a_Node000012"><a xlink:href="_g_n_s_s_state_estimation_app_8h.html" target="_top" xlink:title="State Estimation Application Using GNSS Measurement.">
<polygon fill="white" stroke="#666666" points="1452.73,-74.5 1312.98,-74.5 1312.98,-55.25 1452.73,-55.25 1452.73,-74.5"/>
<text text-anchor="middle" x="1382.85" y="-61" font-family="Helvetica,sans-Serif" font-size="10.00">GNSSStateEstimationApp.h</text>
</a>
</g>
</g>
<!-- Node3&#45;&gt;Node12 -->
<g id="edge15_Node000003_Node000012" class="edge">
<title>Node3&#45;&gt;Node12</title>
<g id="a_edge15_Node000003_Node000012"><a xlink:title=" ">
<path fill="none" stroke="#63b8ff" d="M1117.56,-110.28C1192.09,-94.84 1267.36,-82.77 1319.19,-75"/>
<polygon fill="#63b8ff" stroke="#63b8ff" points="1117.12,-107.01 1108.05,-112.49 1118.55,-113.86 1117.12,-107.01"/>
</a>
</g>
</g>
<!-- Node14 -->
<g id="Node000014" class="node">
<title>Node14</title>
<g id="a_Node000014"><a xlink:href="_g_n_s_s_transmitter_8cpp.html" target="_top" xlink:title="Handles GNSS transmit.">
<polygon fill="white" stroke="#666666" points="1060.85,-74.5 948.85,-74.5 948.85,-55.25 1060.85,-55.25 1060.85,-74.5"/>
<text text-anchor="middle" x="1004.85" y="-61" font-family="Helvetica,sans-Serif" font-size="10.00">GNSSTransmitter.cpp</text>
</a>
</g>
</g>
<!-- Node3&#45;&gt;Node14 -->
<g id="edge18_Node000003_Node000014" class="edge">
<title>Node3&#45;&gt;Node14</title>
<g id="a_edge18_Node000003_Node000014"><a xlink:title=" ">
<path fill="none" stroke="#63b8ff" d="M1060.06,-104.05C1046.5,-94.67 1029.5,-82.92 1017.98,-74.95"/>
<polygon fill="#63b8ff" stroke="#63b8ff" points="1057.57,-107.28 1067.79,-110.09 1061.56,-101.53 1057.57,-107.28"/>
</a>
</g>
</g>
<!-- Node15 -->
<g id="Node000015" class="node">
<title>Node15</title>
<g id="a_Node000015"><a xlink:href="_space_channel_8cpp.html" target="_top" xlink:title="Base spacechannel class (Under devlopment )">
<polygon fill="white" stroke="#666666" points="1177.1,-74.5 1078.6,-74.5 1078.6,-55.25 1177.1,-55.25 1177.1,-74.5"/>
<text text-anchor="middle" x="1127.85" y="-61" font-family="Helvetica,sans-Serif" font-size="10.00">SpaceChannel.cpp</text>
</a>
</g>
</g>
<!-- Node3&#45;&gt;Node15 -->
<g id="edge19_Node000003_Node000015" class="edge">
<title>Node3&#45;&gt;Node15</title>
<g id="a_edge19_Node000003_Node000015"><a xlink:title=" ">
<path fill="none" stroke="#63b8ff" d="M1096.61,-102.04C1104.42,-93 1113.69,-82.27 1120.09,-74.86"/>
<polygon fill="#63b8ff" stroke="#63b8ff" points="1093.34,-99.48 1089.45,-109.33 1098.63,-104.05 1093.34,-99.48"/>
</a>
</g>
</g>
<!-- Node3&#45;&gt;Node16 -->
<g id="edge20_Node000003_Node000016" class="edge">
<title>Node3&#45;&gt;Node16</title>
<g id="a_edge20_Node000003_Node000016"><a xlink:title=" ">
<path fill="none" stroke="#63b8ff" d="M1117.71,-110.52C1372.89,-71.19 1441.78,-93.02 1695.85,-74.5 1711.06,-73.39 1727.53,-72.07 1742.74,-70.79"/>
<polygon fill="#63b8ff" stroke="#63b8ff" points="1117.34,-107.19 1107.99,-112.19 1118.41,-114.11 1117.34,-107.19"/>
</a>
</g>
</g>
<!-- Node10&#45;&gt;Node5 -->
<g id="edge10_Node000010_Node000005" class="edge">
<title>Node10&#45;&gt;Node5</title>
<g id="a_edge10_Node000010_Node000005"><a xlink:title=" ">
<path fill="none" stroke="#63b8ff" d="M689.75,-52.26C729.23,-42.48 784.92,-28.69 821.2,-19.7"/>
<polygon fill="#63b8ff" stroke="#63b8ff" points="689.19,-49.04 680.32,-54.84 690.87,-55.84 689.19,-49.04"/>
</a>
</g>
</g>
<!-- Node10&#45;&gt;Node6 -->
<g id="edge11_Node000010_Node000006" class="edge">
<title>Node10&#45;&gt;Node6</title>
<g id="a_edge11_Node000010_Node000006"><a xlink:title=" ">
<path fill="none" stroke="#63b8ff" d="M576.94,-55.62C490.02,-44.73 339.31,-25.84 263.77,-16.38"/>
<polygon fill="#63b8ff" stroke="#63b8ff" points="576.37,-59.2 586.73,-56.97 577.24,-52.25 576.37,-59.2"/>
</a>
</g>
</g>
<!-- Node10&#45;&gt;Node7 -->
<g id="edge12_Node000010_Node000007" class="edge">
<title>Node10&#45;&gt;Node7</title>
<g id="a_edge12_Node000010_Node000007"><a xlink:title=" ">
<path fill="none" stroke="#63b8ff" d="M651.54,-45.37C655.64,-36.64 660.33,-26.64 663.63,-19.61"/>
<polygon fill="#63b8ff" stroke="#63b8ff" points="648.06,-43.54 646.98,-54.08 654.4,-46.52 648.06,-43.54"/>
</a>
</g>
</g>
<!-- Node10&#45;&gt;Node8 -->
<g id="edge13_Node000010_Node000008" class="edge">
<title>Node10&#45;&gt;Node8</title>
<g id="a_edge13_Node000010_Node000008"><a xlink:title=" ">
<path fill="none" stroke="#63b8ff" d="M708.81,-54.2C775.68,-44.39 878.37,-29.33 943.8,-19.73"/>
<polygon fill="#63b8ff" stroke="#63b8ff" points="708.37,-50.87 698.98,-55.79 709.39,-57.8 708.37,-50.87"/>
</a>
</g>
</g>
<!-- Node11 -->
<g id="Node000011" class="node">
<title>Node11</title>
<g id="a_Node000011"><a xlink:href="_g_n_s_s_constellation_8cpp.html" target="_top" xlink:title="GNSS Constellation.">
<polygon fill="white" stroke="#666666" points="594.98,-19.25 474.73,-19.25 474.73,0 594.98,0 594.98,-19.25"/>
<text text-anchor="middle" x="534.85" y="-5.75" font-family="Helvetica,sans-Serif" font-size="10.00">GNSSConstellation.cpp</text>
</a>
</g>
</g>
<!-- Node10&#45;&gt;Node11 -->
<g id="edge14_Node000010_Node000011" class="edge">
<title>Node10&#45;&gt;Node11</title>
<g id="a_edge14_Node000010_Node000011"><a xlink:title=" ">
<path fill="none" stroke="#63b8ff" d="M614.73,-50.01C595.34,-40.45 570.13,-28.02 553.26,-19.7"/>
<polygon fill="#63b8ff" stroke="#63b8ff" points="613.01,-53.56 623.53,-54.84 616.11,-47.28 613.01,-53.56"/>
</a>
</g>
</g>
<!-- Node12&#45;&gt;Node7 -->
<g id="edge16_Node000012_Node000007" class="edge">
<title>Node12&#45;&gt;Node7</title>
<g id="a_edge16_Node000012_Node000007"><a xlink:title=" ">
<path fill="none" stroke="#63b8ff" d="M1301.84,-55.1C1069.96,-34.64 1009.72,-35.86 780.85,-19.25 762.01,-17.88 741.41,-16.33 723.02,-14.92"/>
<polygon fill="#63b8ff" stroke="#63b8ff" points="1301.38,-58.67 1311.65,-56.06 1302,-51.69 1301.38,-58.67"/>
</a>
</g>
</g>
<!-- Node13 -->
<g id="Node000013" class="node">
<title>Node13</title>
<g id="a_Node000013"><a xlink:href="_g_n_s_s_state_estimation_app_8cpp.html" target="_top" xlink:title="State Estimation Application Using GNSS Measurement.">
<polygon fill="white" stroke="#666666" points="1457.98,-19.25 1307.73,-19.25 1307.73,0 1457.98,0 1457.98,-19.25"/>
<text text-anchor="middle" x="1382.85" y="-5.75" font-family="Helvetica,sans-Serif" font-size="10.00">GNSSStateEstimationApp.cpp</text>
</a>
</g>
</g>
<!-- Node12&#45;&gt;Node13 -->
<g id="edge17_Node000012_Node000013" class="edge">
<title>Node12&#45;&gt;Node13</title>
<g id="a_edge17_Node000012_Node000013"><a xlink:title=" ">
<path fill="none" stroke="#63b8ff" d="M1382.85,-44.21C1382.85,-35.77 1382.85,-26.33 1382.85,-19.61"/>
<polygon fill="#63b8ff" stroke="#63b8ff" points="1379.35,-44.08 1382.85,-54.08 1386.35,-44.08 1379.35,-44.08"/>
</a>
</g>
</g>
<!-- Node17 -->
<g id="Node000017" class="node">
<title>Node17</title>
<g id="a_Node000017"><a xlink:href="_state_estimation_app_8cpp.html" target="_top" xlink:title="Base class for State Estimation Application.">
<polygon fill="white" stroke="#666666" points="1859.73,-19.25 1737.98,-19.25 1737.98,0 1859.73,0 1859.73,-19.25"/>
<text text-anchor="middle" x="1798.85" y="-5.75" font-family="Helvetica,sans-Serif" font-size="10.00">StateEstimationApp.cpp</text>
</a>
</g>
</g>
<!-- Node16&#45;&gt;Node17 -->
<g id="edge21_Node000016_Node000017" class="edge">
<title>Node16&#45;&gt;Node17</title>
<g id="a_edge21_Node000016_Node000017"><a xlink:title=" ">
<path fill="none" stroke="#63b8ff" d="M1798.85,-44.21C1798.85,-35.77 1798.85,-26.33 1798.85,-19.61"/>
<polygon fill="#63b8ff" stroke="#63b8ff" points="1795.35,-44.08 1798.85,-54.08 1802.35,-44.08 1795.35,-44.08"/>
</a>
</g>
</g>
<!-- Node18&#45;&gt;Node3 -->
<g id="edge25_Node000018_Node000003" class="edge">
<title>Node18&#45;&gt;Node3</title>
<g id="a_edge25_Node000018_Node000003"><a xlink:title=" ">
<path fill="none" stroke="#63b8ff" d="M594.36,-170.32C677.11,-162.86 857.76,-146.22 1009.85,-129.75 1025.37,-128.07 1042.75,-125.99 1056.54,-124.3"/>
<polygon fill="#63b8ff" stroke="#63b8ff" points="594.22,-166.9 584.58,-171.29 594.85,-173.88 594.22,-166.9"/>
</a>
</g>
</g>
<!-- Node18&#45;&gt;Node5 -->
<g id="edge28_Node000018_Node000005" class="edge">
<title>Node18&#45;&gt;Node5</title>
<g id="a_edge28_Node000018_Node000005"><a xlink:title=" ">
<path fill="none" stroke="#63b8ff" d="M547.31,-154.51C546.41,-127.32 549.44,-79.18 578.85,-55.25 595.02,-42.09 712.75,-26.73 790.02,-17.89"/>
<polygon fill="#63b8ff" stroke="#63b8ff" points="543.86,-154.57 547.91,-164.36 550.85,-154.18 543.86,-154.57"/>
</a>
</g>
</g>
<!-- Node18&#45;&gt;Node6 -->
<g id="edge29_Node000018_Node000006" class="edge">
<title>Node18&#45;&gt;Node6</title>
<g id="a_edge29_Node000018_Node000006"><a xlink:title=" ">
<path fill="none" stroke="#63b8ff" d="M503.32,-172.26C408.59,-167.38 197.28,-153.89 175.85,-129.75 146.3,-96.46 190.03,-41.06 209.4,-19.55"/>
<polygon fill="#63b8ff" stroke="#63b8ff" points="503.11,-175.8 513.27,-172.81 503.46,-168.81 503.11,-175.8"/>
</a>
</g>
</g>
<!-- Node18&#45;&gt;Node7 -->
<g id="edge30_Node000018_Node000007" class="edge">
<title>Node18&#45;&gt;Node7</title>
<g id="a_edge30_Node000018_Node000007"><a xlink:title=" ">
<path fill="none" stroke="#63b8ff" d="M503.72,-170.68C451.06,-165.33 368.75,-153.36 349.85,-129.75 329.16,-103.9 328.13,-80.24 349.85,-55.25 350.93,-54.01 521.92,-30.53 612.69,-18.14"/>
<polygon fill="#63b8ff" stroke="#63b8ff" points="503.18,-174.25 513.47,-171.73 503.86,-167.28 503.18,-174.25"/>
</a>
</g>
</g>
<!-- Node18&#45;&gt;Node8 -->
<g id="edge33_Node000018_Node000008" class="edge">
<title>Node18&#45;&gt;Node8</title>
<g id="a_edge33_Node000018_Node000008"><a xlink:title=" ">
<path fill="none" stroke="#63b8ff" d="M560.53,-156.63C570.85,-142.26 587.14,-122.49 605.85,-110.5 641.08,-87.92 745.3,-65.56 785.85,-55.25 842.89,-40.75 909.18,-27.83 953.96,-19.67"/>
<polygon fill="#63b8ff" stroke="#63b8ff" points="557.17,-154.34 554.38,-164.56 562.93,-158.31 557.17,-154.34"/>
</a>
</g>
</g>
<!-- Node18&#45;&gt;Node10 -->
<g id="edge34_Node000018_Node000010" class="edge">
<title>Node18&#45;&gt;Node10</title>
<g id="a_edge34_Node000018_Node000010"><a xlink:title=" ">
<path fill="none" stroke="#63b8ff" d="M552.68,-155.07C556.14,-141.47 562.35,-123.45 572.85,-110.5 585.83,-94.49 606.15,-82.44 621.56,-74.93"/>
<polygon fill="#63b8ff" stroke="#63b8ff" points="549.08,-154.12 550.3,-164.65 555.91,-155.66 549.08,-154.12"/>
</a>
</g>
</g>
<!-- Node19 -->
<g id="Node000019" class="node">
<title>Node19</title>
<g id="a_Node000019"><a xlink:href="_dynamics_analytical_8cpp.html" target="_top" xlink:title="Analytical orbit dynamics implementation.">
<polygon fill="white" stroke="#666666" points="882.73,-129.75 760.98,-129.75 760.98,-110.5 882.73,-110.5 882.73,-129.75"/>
<text text-anchor="middle" x="821.85" y="-116.25" font-family="Helvetica,sans-Serif" font-size="10.00">DynamicsAnalytical.cpp</text>
</a>
</g>
</g>
<!-- Node18&#45;&gt;Node19 -->
<g id="edge26_Node000018_Node000019" class="edge">
<title>Node18&#45;&gt;Node19</title>
<g id="a_edge26_Node000018_Node000019"><a xlink:title=" ">
<path fill="none" stroke="#63b8ff" d="M593.94,-165.58C644.04,-155.81 724.54,-140.11 775.24,-130.22"/>
<polygon fill="#63b8ff" stroke="#63b8ff" points="593.57,-162.28 584.43,-167.63 594.91,-169.15 593.57,-162.28"/>
</a>
</g>
</g>
<!-- Node20 -->
<g id="Node000020" class="node">
<title>Node20</title>
<g id="a_Node000020"><a xlink:href="_dynamics_numerical_8cpp.html" target="_top" xlink:title="List of Numerical Dynamics.">
<polygon fill="white" stroke="#666666" points="482.48,-129.75 359.23,-129.75 359.23,-110.5 482.48,-110.5 482.48,-129.75"/>
<text text-anchor="middle" x="420.85" y="-116.25" font-family="Helvetica,sans-Serif" font-size="10.00">DynamicsNumerical.cpp</text>
</a>
</g>
</g>
<!-- Node18&#45;&gt;Node20 -->
<g id="edge27_Node000018_Node000020" class="edge">
<title>Node18&#45;&gt;Node20</title>
<g id="a_edge27_Node000018_Node000020"><a xlink:title=" ">
<path fill="none" stroke="#63b8ff" d="M517.09,-161.16C493.92,-151.52 463.12,-138.71 442.67,-130.2"/>
<polygon fill="#63b8ff" stroke="#63b8ff" points="515.56,-164.73 526.14,-165.34 518.25,-158.27 515.56,-164.73"/>
</a>
</g>
</g>
<!-- Node21 -->
<g id="Node000021" class="node">
<title>Node21</title>
<g id="a_Node000021"><a xlink:href="_example_frozen_orbits_8cpp.html" target="_top" xlink:title="Example of frozen orbits.">
<polygon fill="white" stroke="#666666" points="488.48,-74.5 359.23,-74.5 359.23,-55.25 488.48,-55.25 488.48,-74.5"/>
<text text-anchor="middle" x="423.85" y="-61" font-family="Helvetica,sans-Serif" font-size="10.00">ExampleFrozenOrbits.cpp</text>
</a>
</g>
</g>
<!-- Node18&#45;&gt;Node21 -->
<g id="edge31_Node000018_Node000021" class="edge">
<title>Node18&#45;&gt;Node21</title>
<g id="a_edge31_Node000018_Node000021"><a xlink:title=" ">
<path fill="none" stroke="#63b8ff" d="M503.62,-172.14C410.59,-167.09 204.74,-153.35 183.85,-129.75 178.18,-123.34 178.38,-117.08 183.85,-110.5 205.73,-84.18 295.52,-73.31 358.83,-68.87"/>
<polygon fill="#63b8ff" stroke="#63b8ff" points="503.21,-175.68 513.38,-172.72 503.58,-168.69 503.21,-175.68"/>
</a>
</g>
</g>
<!-- Node22 -->
<g id="Node000022" class="node">
<title>Node22</title>
<g id="a_Node000022"><a xlink:href="_example_performance_8cpp.html" target="_top" xlink:title="Example for performance testing of spherical harmonics computation.">
<polygon fill="white" stroke="#666666" points="743.1,-129.75 614.6,-129.75 614.6,-110.5 743.1,-110.5 743.1,-129.75"/>
<text text-anchor="middle" x="678.85" y="-116.25" font-family="Helvetica,sans-Serif" font-size="10.00">ExamplePerformance.cpp</text>
</a>
</g>
</g>
<!-- Node18&#45;&gt;Node22 -->
<g id="edge32_Node000018_Node000022" class="edge">
<title>Node18&#45;&gt;Node22</title>
<g id="a_edge32_Node000018_Node000022"><a xlink:title=" ">
<path fill="none" stroke="#63b8ff" d="M580.79,-161.29C604.36,-151.64 635.83,-138.75 656.69,-130.2"/>
<polygon fill="#63b8ff" stroke="#63b8ff" points="579.83,-158.31 571.9,-165.34 582.48,-164.79 579.83,-158.31"/>
</a>
</g>
</g>
<!-- Node23 -->
<g id="Node000023" class="node">
<title>Node23</title>
<g id="a_Node000023"><a xlink:href="_n_body_dynamics_8cpp.html" target="_top" xlink:title="Multiple&#45;body dynamics.">
<polygon fill="white" stroke="#666666" points="302.35,-129.75 193.35,-129.75 193.35,-110.5 302.35,-110.5 302.35,-129.75"/>
<text text-anchor="middle" x="247.85" y="-116.25" font-family="Helvetica,sans-Serif" font-size="10.00">NBodyDynamics.cpp</text>
</a>
</g>
</g>
<!-- Node18&#45;&gt;Node23 -->
<g id="edge35_Node000018_Node000023" class="edge">
<title>Node18&#45;&gt;Node23</title>
<g id="a_edge35_Node000018_Node000023"><a xlink:title=" ">
<path fill="none" stroke="#63b8ff" d="M503.55,-166.36C448.74,-156.66 356.7,-140.38 299.28,-130.22"/>
<polygon fill="#63b8ff" stroke="#63b8ff" points="502.87,-169.97 513.32,-168.27 504.09,-163.08 502.87,-169.97"/>
</a>
</g>
</g>
<!-- Node24&#45;&gt;Node3 -->
<g id="edge37_Node000024_Node000003" class="edge">
<title>Node24&#45;&gt;Node3</title>
<g id="a_edge37_Node000024_Node000003"><a xlink:title=" ">
<path fill="none" stroke="#63b8ff" d="M1075.3,-209.93C1077.05,-186.26 1079.9,-147.55 1081.19,-130.13"/>
<polygon fill="#63b8ff" stroke="#63b8ff" points="1071.75,-209.52 1074.51,-219.75 1078.73,-210.03 1071.75,-209.52"/>
</a>
</g>
</g>
<!-- Node24&#45;&gt;Node5 -->
<g id="edge57_Node000024_Node000005" class="edge">
<title>Node24&#45;&gt;Node5</title>
<g id="a_edge57_Node000024_Node000005"><a xlink:title=" ">
<path fill="none" stroke="#63b8ff" d="M1119.45,-229.64C1212.62,-228.83 1431.14,-222.68 1609.85,-185 1683.46,-169.48 1701.53,-161.24 1769.85,-129.75 1818.26,-107.43 1900.81,-93.67 1863.85,-55.25 1828.04,-18.03 986.36,-23.13 934.85,-19.25 931.9,-19.03 928.89,-18.78 925.85,-18.51"/>
<polygon fill="#63b8ff" stroke="#63b8ff" points="1119.43,-226.14 1109.46,-229.71 1119.48,-233.14 1119.43,-226.14"/>
</a>
</g>
</g>
<!-- Node24&#45;&gt;Node6 -->
<g id="edge58_Node000024_Node000006" class="edge">
<title>Node24&#45;&gt;Node6</title>
<g id="a_edge58_Node000024_Node000006"><a xlink:title=" ">
<path fill="none" stroke="#63b8ff" d="M1028.17,-229.18C833.13,-227.08 78.4,-216.91 39.85,-185 -4.95,-147.92 -13.4,-100.73 22.85,-55.25 41.14,-32.3 120.27,-20.2 171.93,-14.63"/>
<polygon fill="#63b8ff" stroke="#63b8ff" points="1028.11,-232.69 1038.14,-229.29 1028.18,-225.69 1028.11,-232.69"/>
</a>
</g>
</g>
<!-- Node24&#45;&gt;Node7 -->
<g id="edge59_Node000024_Node000007" class="edge">
<title>Node24&#45;&gt;Node7</title>
<g id="a_edge59_Node000024_Node000007"><a xlink:title=" ">
<path fill="none" stroke="#63b8ff" d="M1028.4,-228.15C853.59,-221.98 231.54,-195.54 175.85,-129.75 91.64,-30.27 466.6,-37.65 603.85,-19.25 606.74,-18.86 609.7,-18.47 612.69,-18.06"/>
<polygon fill="#63b8ff" stroke="#63b8ff" points="1028.14,-231.67 1038.26,-228.52 1028.38,-224.68 1028.14,-231.67"/>
</a>
</g>
</g>
<!-- Node24&#45;&gt;Node8 -->
<g id="edge61_Node000024_Node000008" class="edge">
<title>Node24&#45;&gt;Node8</title>
<g id="a_edge61_Node000024_Node000008"><a xlink:title=" ">
<path fill="none" stroke="#63b8ff" d="M1119.41,-228.87C1288.24,-225.85 1869.95,-213.4 1896.85,-185 1936.51,-143.13 1936.6,-97.03 1896.85,-55.25 1882.57,-40.23 1268.83,-19.12 1068.43,-12.61"/>
<polygon fill="#63b8ff" stroke="#63b8ff" points="1119.37,-225.39 1109.43,-229.06 1119.49,-232.39 1119.37,-225.39"/>
</a>
</g>
</g>
<!-- Node24&#45;&gt;Node9 -->
<g id="edge62_Node000024_Node000009" class="edge">
<title>Node24&#45;&gt;Node9</title>
<g id="a_edge62_Node000024_Node000009"><a xlink:title=" ">
<path fill="none" stroke="#63b8ff" d="M1119.05,-229.14C1239.15,-227.37 1559.25,-219.44 1590.85,-185 1620.45,-152.73 1583.04,-133.13 1540.85,-110.5 1538.15,-109.05 1378.52,-85.48 1294.84,-73.2"/>
<polygon fill="#63b8ff" stroke="#63b8ff" points="1119.35,-225.64 1109.4,-229.28 1119.45,-232.64 1119.35,-225.64"/>
</a>
</g>
</g>
<!-- Node24&#45;&gt;Node10 -->
<g id="edge63_Node000024_Node000010" class="edge">
<title>Node24&#45;&gt;Node10</title>
<g id="a_edge63_Node000024_Node000010"><a xlink:title=" ">
<path fill="none" stroke="#63b8ff" d="M1069.33,-210.02C1061.93,-182.77 1044.47,-134.15 1009.85,-110.5 997.15,-101.82 797.58,-81.11 698.2,-71.26"/>
<polygon fill="#63b8ff" stroke="#63b8ff" points="1066.15,-210.71 1071.97,-219.56 1072.94,-209.01 1066.15,-210.71"/>
</a>
</g>
</g>
<!-- Node24&#45;&gt;Node18 -->
<g id="edge56_Node000024_Node000018" class="edge">
<title>Node24&#45;&gt;Node18</title>
<g id="a_edge56_Node000024_Node000018"><a xlink:title=" ">
<path fill="none" stroke="#63b8ff" d="M1028.75,-225.05C925.82,-214.61 675.35,-189.21 583.43,-179.88"/>
<polygon fill="#63b8ff" stroke="#63b8ff" points="1028.1,-228.6 1038.4,-226.13 1028.81,-221.64 1028.1,-228.6"/>
</a>
</g>
</g>
<!-- Node24&#45;&gt;Node22 -->
<g id="edge60_Node000024_Node000022" class="edge">
<title>Node24&#45;&gt;Node22</title>
<g id="a_edge60_Node000024_Node000022"><a xlink:title=" ">
<path fill="none" stroke="#63b8ff" d="M1030.7,-217.77C951.23,-195.94 783.36,-149.83 712.03,-130.24"/>
<polygon fill="#63b8ff" stroke="#63b8ff" points="1029.28,-221.29 1039.85,-220.56 1031.14,-214.54 1029.28,-221.29"/>
</a>
</g>
</g>
<!-- Node25 -->
<g id="Node000025" class="node">
<title>Node25</title>
<g id="a_Node000025"><a xlink:href="_comm_device_8h.html" target="_top" xlink:title="Communication devices.">
<polygon fill="white" stroke="#666666" points="1581.98,-185 1497.73,-185 1497.73,-165.75 1581.98,-165.75 1581.98,-185"/>
<text text-anchor="middle" x="1539.85" y="-171.5" font-family="Helvetica,sans-Serif" font-size="10.00">CommDevice.h</text>
</a>
</g>
</g>
<!-- Node24&#45;&gt;Node25 -->
<g id="edge38_Node000024_Node000025" class="edge">
<title>Node24&#45;&gt;Node25</title>
<g id="a_edge38_Node000024_Node000025"><a xlink:title=" ">
<path fill="none" stroke="#63b8ff" d="M1119.18,-224.45C1209.25,-214.15 1409.65,-191.25 1497.36,-181.23"/>
<polygon fill="#63b8ff" stroke="#63b8ff" points="1119.03,-221.05 1109.5,-225.67 1119.83,-228.01 1119.03,-221.05"/>
</a>
</g>
</g>
<!-- Node29 -->
<g id="Node000029" class="node">
<title>Node29</title>
<g id="a_Node000029"><a xlink:href="_lunar_mean_osc_8cpp.html" target="_top" xlink:title="Lunar Mean and Osculating Elements.">
<polygon fill="white" stroke="#666666" points="1001.23,-129.75 900.48,-129.75 900.48,-110.5 1001.23,-110.5 1001.23,-129.75"/>
<text text-anchor="middle" x="950.85" y="-116.25" font-family="Helvetica,sans-Serif" font-size="10.00">LunarMeanOsc.cpp</text>
</a>
</g>
</g>
<!-- Node24&#45;&gt;Node29 -->
<g id="edge64_Node000024_Node000029" class="edge">
<title>Node24&#45;&gt;Node29</title>
<g id="a_edge64_Node000024_Node000029"><a xlink:title=" ">
<path fill="none" stroke="#63b8ff" d="M1051.96,-214.17C1040.6,-205.88 1026.66,-195.27 1014.85,-185 993.77,-166.66 971.06,-142.94 959.18,-130.19"/>
<polygon fill="#63b8ff" stroke="#63b8ff" points="1049.64,-217.53 1059.8,-220.54 1053.73,-211.85 1049.64,-217.53"/>
</a>
</g>
</g>
<!-- Node30 -->
<g id="Node000030" class="node">
<title>Node30</title>
<g id="a_Node000030"><a xlink:href="_orbit_state_8cpp.html" target="_top" xlink:title="Orbit states.">
<polygon fill="white" stroke="#666666" points="1321.35,-129.75 1242.35,-129.75 1242.35,-110.5 1321.35,-110.5 1321.35,-129.75"/>
<text text-anchor="middle" x="1281.85" y="-116.25" font-family="Helvetica,sans-Serif" font-size="10.00">OrbitState.cpp</text>
</a>
</g>
</g>
<!-- Node24&#45;&gt;Node30 -->
<g id="edge66_Node000024_Node000030" class="edge">
<title>Node24&#45;&gt;Node30</title>
<g id="a_edge66_Node000024_Node000030"><a xlink:title=" ">
<path fill="none" stroke="#63b8ff" d="M1118.68,-217.36C1143.17,-209.76 1173.57,-198.79 1198.85,-185 1227.9,-169.15 1257.6,-143.55 1272.34,-130.08"/>
<polygon fill="#63b8ff" stroke="#63b8ff" points="1117.8,-214.28 1109.24,-220.52 1119.82,-220.98 1117.8,-214.28"/>
</a>
</g>
</g>
<!-- Node31 -->
<g id="Node000031" class="node">
<title>Node31</title>
<g id="a_Node000031"><a xlink:href="_orbit_state_utils_8h.html" target="_top" xlink:title="Util functions for state conversions.">
<polygon fill="white" stroke="#666666" points="1190.23,-185 1101.48,-185 1101.48,-165.75 1190.23,-165.75 1190.23,-185"/>
<text text-anchor="middle" x="1145.85" y="-171.5" font-family="Helvetica,sans-Serif" font-size="10.00">OrbitStateUtils.h</text>
</a>
</g>
</g>
<!-- Node24&#45;&gt;Node31 -->
<g id="edge67_Node000024_Node000031" class="edge">
<title>Node24&#45;&gt;Node31</title>
<g id="a_edge67_Node000024_Node000031"><a xlink:title=" ">
<path fill="none" stroke="#63b8ff" d="M1094.65,-214.24C1107.36,-204.84 1123.16,-193.16 1133.82,-185.27"/>
<polygon fill="#63b8ff" stroke="#63b8ff" points="1093.02,-211.83 1087.07,-220.59 1097.19,-217.46 1093.02,-211.83"/>
</a>
</g>
</g>
<!-- Node33 -->
<g id="Node000033" class="node">
<title>Node33</title>
<g id="a_Node000033"><a xlink:href="_t_l_e_8cpp.html" target="_top" xlink:title="Routines to process TLE files.">
<polygon fill="white" stroke="#666666" points="1392.23,-129.75 1339.48,-129.75 1339.48,-110.5 1392.23,-110.5 1392.23,-129.75"/>
<text text-anchor="middle" x="1365.85" y="-116.25" font-family="Helvetica,sans-Serif" font-size="10.00">TLE.cpp</text>
</a>
</g>
</g>
<!-- Node24&#45;&gt;Node33 -->
<g id="edge74_Node000024_Node000033" class="edge">
<title>Node24&#45;&gt;Node33</title>
<g id="a_edge74_Node000024_Node000033"><a xlink:title=" ">
<path fill="none" stroke="#63b8ff" d="M1118.77,-218.39C1149.56,-210.24 1191.14,-198.33 1226.85,-185 1271.89,-168.19 1322.72,-143.22 1348.65,-130.03"/>
<polygon fill="#63b8ff" stroke="#63b8ff" points="1118.14,-215.2 1109.35,-221.11 1119.91,-221.97 1118.14,-215.2"/>
</a>
</g>
</g>
<!-- Node25&#45;&gt;Node3 -->
<g id="edge39_Node000025_Node000003" class="edge">
<title>Node25&#45;&gt;Node3</title>
<g id="a_edge39_Node000025_Node000003"><a xlink:title=" ">
<path fill="none" stroke="#63b8ff" d="M1486.58,-171.23C1405.89,-165.92 1248.08,-153.35 1115.85,-129.75 1112.97,-129.24 1109.98,-128.61 1107.01,-127.94"/>
<polygon fill="#63b8ff" stroke="#63b8ff" points="1486.24,-174.78 1496.44,-171.93 1486.69,-167.8 1486.24,-174.78"/>
</a>
</g>
</g>
<!-- Node25&#45;&gt;Node12 -->
<g id="edge49_Node000025_Node000012" class="edge">
<title>Node25&#45;&gt;Node12</title>
<g id="a_edge49_Node000025_Node000012"><a xlink:title=" ">
<path fill="none" stroke="#63b8ff" d="M1551.14,-156.12C1558.08,-142.3 1563.92,-123.53 1553.85,-110.5 1540.96,-93.81 1492.58,-82.17 1450.56,-74.98"/>
<polygon fill="#63b8ff" stroke="#63b8ff" points="1547.69,-154.11 1545.85,-164.55 1553.79,-157.54 1547.69,-154.11"/>
</a>
</g>
</g>
<!-- Node25&#45;&gt;Node15 -->
<g id="edge54_Node000025_Node000015" class="edge">
<title>Node25&#45;&gt;Node15</title>
<g id="a_edge54_Node000025_Node000015"><a xlink:title=" ">
<path fill="none" stroke="#63b8ff" d="M1539.47,-154.44C1538.05,-139.97 1533.63,-121.14 1520.85,-110.5 1463.31,-62.59 1260.12,-84.01 1185.85,-74.5 1183.13,-74.15 1180.33,-73.78 1177.51,-73.39"/>
<polygon fill="#63b8ff" stroke="#63b8ff" points="1536.02,-154.5 1540.07,-164.29 1543.01,-154.11 1536.02,-154.5"/>
</a>
</g>
</g>
<!-- Node25&#45;&gt;Node16 -->
<g id="edge55_Node000025_Node000016" class="edge">
<title>Node25&#45;&gt;Node16</title>
<g id="a_edge55_Node000025_Node000016"><a xlink:title=" ">
<path fill="none" stroke="#63b8ff" d="M1593.36,-172.13C1636.89,-168.2 1698.48,-157.65 1744.85,-129.75 1767.75,-115.97 1785.63,-89 1793.87,-74.92"/>
<polygon fill="#63b8ff" stroke="#63b8ff" points="1593.11,-168.72 1583.43,-173.02 1593.68,-175.7 1593.11,-168.72"/>
</a>
</g>
</g>
<!-- Node26 -->
<g id="Node000026" class="node">
<title>Node26</title>
<g id="a_Node000026"><a xlink:href="_g_n_s_s_receiver_8h.html" target="_top" xlink:title="GNSS receiver class.">
<polygon fill="white" stroke="#666666" points="1735.35,-129.75 1644.35,-129.75 1644.35,-110.5 1735.35,-110.5 1735.35,-129.75"/>
<text text-anchor="middle" x="1689.85" y="-116.25" font-family="Helvetica,sans-Serif" font-size="10.00">GNSSReceiver.h</text>
</a>
</g>
</g>
<!-- Node25&#45;&gt;Node26 -->
<g id="edge40_Node000025_Node000026" class="edge">
<title>Node25&#45;&gt;Node26</title>
<g id="a_edge40_Node000025_Node000026"><a xlink:title=" ">
<path fill="none" stroke="#63b8ff" d="M1575.61,-161.68C1602.92,-151.99 1639.89,-138.86 1664.28,-130.2"/>
<polygon fill="#63b8ff" stroke="#63b8ff" points="1574.55,-158.7 1566.3,-165.34 1576.89,-165.29 1574.55,-158.7"/>
</a>
</g>
</g>
<!-- Node28 -->
<g id="Node000028" class="node">
<title>Node28</title>
<g id="a_Node000028"><a xlink:href="_g_n_s_s_transmitter_8h.html" target="_top" xlink:title="Handles GNSS transmit.">
<polygon fill="white" stroke="#666666" points="1511.6,-129.75 1410.1,-129.75 1410.1,-110.5 1511.6,-110.5 1511.6,-129.75"/>
<text text-anchor="middle" x="1460.85" y="-116.25" font-family="Helvetica,sans-Serif" font-size="10.00">GNSSTransmitter.h</text>
</a>
</g>
</g>
<!-- Node25&#45;&gt;Node28 -->
<g id="edge50_Node000025_Node000028" class="edge">
<title>Node25&#45;&gt;Node28</title>
<g id="a_edge50_Node000025_Node000028"><a xlink:title=" ">
<path fill="none" stroke="#63b8ff" d="M1517.49,-159.3C1503.58,-149.92 1486.14,-138.17 1474.32,-130.2"/>
<polygon fill="#63b8ff" stroke="#63b8ff" points="1515.2,-162.65 1525.45,-165.34 1519.11,-156.85 1515.2,-162.65"/>
</a>
</g>
</g>
<!-- Node26&#45;&gt;Node5 -->
<g id="edge41_Node000026_Node000005" class="edge">
<title>Node26&#45;&gt;Node5</title>
<g id="a_edge41_Node000026_Node000005"><a xlink:title=" ">
<path fill="none" stroke="#63b8ff" d="M1655.53,-106.18C1632.81,-97.49 1602.42,-85.64 1575.85,-74.5 1556.54,-66.4 1553.19,-60.24 1532.85,-55.25 1274.26,8.18 1200.13,-42.08 934.85,-19.25 931.9,-19 928.89,-18.72 925.85,-18.43"/>
<polygon fill="#63b8ff" stroke="#63b8ff" points="1654.11,-109.77 1664.7,-110.05 1656.6,-103.22 1654.11,-109.77"/>
</a>
</g>
</g>
<!-- Node26&#45;&gt;Node6 -->
<g id="edge42_Node000026_Node000006" class="edge">
<title>Node26&#45;&gt;Node6</title>
<g id="a_edge42_Node000026_Node000006"><a xlink:title=" ">
<path fill="none" stroke="#63b8ff" d="M1633.36,-110.86C1593.68,-103.95 1539.87,-92.3 1494.85,-74.5 1479.06,-68.26 1478.16,-59.97 1461.85,-55.25 1458.18,-54.19 488.26,-20.11 263.83,-12.24"/>
<polygon fill="#63b8ff" stroke="#63b8ff" points="1632.71,-114.47 1643.15,-112.69 1633.88,-107.57 1632.71,-114.47"/>
</a>
</g>
</g>
<!-- Node26&#45;&gt;Node7 -->
<g id="edge43_Node000026_Node000007" class="edge">
<title>Node26&#45;&gt;Node7</title>
<g id="a_edge43_Node000026_Node000007"><a xlink:title=" ">
<path fill="none" stroke="#63b8ff" d="M1639.51,-107.44C1608.3,-99.56 1567.67,-88.12 1532.85,-74.5 1515.22,-67.6 1513.15,-60.11 1494.85,-55.25 1341.31,-14.46 939.4,-29.3 780.85,-19.25 762,-18.06 741.4,-16.54 723.01,-15.12"/>
<polygon fill="#63b8ff" stroke="#63b8ff" points="1638.58,-111.06 1649.13,-110.08 1640.27,-104.27 1638.58,-111.06"/>
</a>
</g>
</g>
<!-- Node26&#45;&gt;Node8 -->
<g id="edge44_Node000026_Node000008" class="edge">
<title>Node26&#45;&gt;Node8</title>
<g id="a_edge44_Node000026_Node000008"><a xlink:title=" ">
<path fill="none" stroke="#63b8ff" d="M1698.47,-100.21C1703.5,-86.01 1706.91,-67.05 1695.85,-55.25 1674.56,-32.53 1234.46,-17.32 1068.47,-12.38"/>
<polygon fill="#63b8ff" stroke="#63b8ff" points="1694.87,-98.78 1694.33,-109.36 1701.35,-101.42 1694.87,-98.78"/>
</a>
</g>
</g>
<!-- Node26&#45;&gt;Node9 -->
<g id="edge45_Node000026_Node000009" class="edge">
<title>Node26&#45;&gt;Node9</title>
<g id="a_edge45_Node000026_Node000009"><a xlink:title=" ">
<path fill="none" stroke="#63b8ff" d="M1633.33,-110.95C1632.16,-110.8 1631,-110.65 1629.85,-110.5 1485.24,-92.13 1448.44,-93.05 1303.85,-74.5 1300.87,-74.12 1297.81,-73.71 1294.73,-73.29"/>
<polygon fill="#63b8ff" stroke="#63b8ff" points="1632.63,-114.52 1643.01,-112.38 1633.56,-107.58 1632.63,-114.52"/>
</a>
</g>
</g>
<!-- Node26&#45;&gt;Node12 -->
<g id="edge47_Node000026_Node000012" class="edge">
<title>Node26&#45;&gt;Node12</title>
<g id="a_edge47_Node000026_Node000012"><a xlink:title=" ">
<path fill="none" stroke="#63b8ff" d="M1633.34,-109.32C1576.76,-99.51 1490.41,-84.53 1435.31,-74.97"/>
<polygon fill="#63b8ff" stroke="#63b8ff" points="1632.44,-112.89 1642.89,-111.15 1633.64,-106 1632.44,-112.89"/>
</a>
</g>
</g>
<!-- Node26&#45;&gt;Node16 -->
<g id="edge48_Node000026_Node000016" class="edge">
<title>Node26&#45;&gt;Node16</title>
<g id="a_edge48_Node000026_Node000016"><a xlink:title=" ">
<path fill="none" stroke="#63b8ff" d="M1717.97,-105.39C1737.57,-95.81 1763.17,-83.31 1780.27,-74.95"/>
<polygon fill="#63b8ff" stroke="#63b8ff" points="1716.79,-102.56 1709.34,-110.09 1719.86,-108.85 1716.79,-102.56"/>
</a>
</g>
</g>
<!-- Node27 -->
<g id="Node000027" class="node">
<title>Node27</title>
<g id="a_Node000027"><a xlink:href="_g_n_s_s_receiver_8cpp.html" target="_top" xlink:title="GNSS Receiver class.">
<polygon fill="white" stroke="#666666" points="1686.6,-74.5 1585.1,-74.5 1585.1,-55.25 1686.6,-55.25 1686.6,-74.5"/>
<text text-anchor="middle" x="1635.85" y="-61" font-family="Helvetica,sans-Serif" font-size="10.00">GNSSReceiver.cpp</text>
</a>
</g>
</g>
<!-- Node26&#45;&gt;Node27 -->
<g id="edge46_Node000026_Node000027" class="edge">
<title>Node26&#45;&gt;Node27</title>
<g id="a_edge46_Node000026_Node000027"><a xlink:title=" ">
<path fill="none" stroke="#63b8ff" d="M1673.38,-102.88C1664.04,-93.68 1652.71,-82.5 1644.96,-74.86"/>
<polygon fill="#63b8ff" stroke="#63b8ff" points="1670.36,-104.8 1679.93,-109.33 1675.27,-99.82 1670.36,-104.8"/>
</a>
</g>
</g>
<!-- Node28&#45;&gt;Node9 -->
<g id="edge51_Node000028_Node000009" class="edge">
<title>Node28&#45;&gt;Node9</title>
<g id="a_edge51_Node000028_Node000009"><a xlink:title=" ">
<path fill="none" stroke="#63b8ff" d="M1413.74,-107.51C1374.07,-97.73 1318.12,-83.94 1281.67,-74.95"/>
<polygon fill="#63b8ff" stroke="#63b8ff" points="1412.66,-111.1 1423.21,-110.09 1414.34,-104.3 1412.66,-111.1"/>
</a>
</g>
</g>
<!-- Node28&#45;&gt;Node10 -->
<g id="edge52_Node000028_Node000010" class="edge">
<title>Node28&#45;&gt;Node10</title>
<g id="a_edge52_Node000028_Node000010"><a xlink:title=" ">
<path fill="none" stroke="#63b8ff" d="M1399.21,-110.42C1126.64,-83.19 1055.7,-90.54 785.85,-74.5 756.93,-72.78 724.71,-70.84 698.2,-69.24"/>
<polygon fill="#63b8ff" stroke="#63b8ff" points="1398.52,-113.97 1408.82,-111.49 1399.22,-107.01 1398.52,-113.97"/>
</a>
</g>
</g>
<!-- Node28&#45;&gt;Node14 -->
<g id="edge53_Node000028_Node000014" class="edge">
<title>Node28&#45;&gt;Node14</title>
<g id="a_edge53_Node000028_Node000014"><a xlink:title=" ">
<path fill="none" stroke="#63b8ff" d="M1399.04,-110.31C1252.23,-91.97 1213.32,-91.82 1069.85,-74.5 1067.03,-74.16 1064.13,-73.8 1061.21,-73.44"/>
<polygon fill="#63b8ff" stroke="#63b8ff" points="1398.45,-113.89 1408.8,-111.67 1399.32,-106.95 1398.45,-113.89"/>
</a>
</g>
</g>
<!-- Node29&#45;&gt;Node21 -->
<g id="edge65_Node000029_Node000021" class="edge">
<title>Node29&#45;&gt;Node21</title>
<g id="a_edge65_Node000029_Node000021"><a xlink:title=" ">
<path fill="none" stroke="#63b8ff" d="M889.34,-110.25C717.64,-90.01 672.14,-91.57 502.85,-74.5 498.32,-74.04 493.65,-73.56 488.94,-73.07"/>
<polygon fill="#63b8ff" stroke="#63b8ff" points="888.68,-113.82 899.03,-111.52 889.51,-106.87 888.68,-113.82"/>
</a>
</g>
</g>
<!-- Node31&#45;&gt;Node3 -->
<g id="edge68_Node000031_Node000003" class="edge">
<title>Node31&#45;&gt;Node3</title>
<g id="a_edge68_Node000031_Node000003"><a xlink:title=" ">
<path fill="none" stroke="#63b8ff" d="M1126.7,-158.44C1115.52,-149.14 1101.84,-137.76 1092.55,-130.02"/>
<polygon fill="#63b8ff" stroke="#63b8ff" points="1124.07,-161.64 1133.99,-165.34 1128.55,-156.26 1124.07,-161.64"/>
</a>
</g>
</g>
<!-- Node31&#45;&gt;Node19 -->
<g id="edge69_Node000031_Node000019" class="edge">
<title>Node31&#45;&gt;Node19</title>
<g id="a_edge69_Node000031_Node000019"><a xlink:title=" ">
<path fill="none" stroke="#63b8ff" d="M1090.44,-165.27C1030.87,-155.48 936.75,-140.01 877.21,-130.22"/>
<polygon fill="#63b8ff" stroke="#63b8ff" points="1089.71,-168.86 1100.14,-167.03 1090.84,-161.95 1089.71,-168.86"/>
</a>
</g>
</g>
<!-- Node31&#45;&gt;Node29 -->
<g id="edge70_Node000031_Node000029" class="edge">
<title>Node31&#45;&gt;Node29</title>
<g id="a_edge70_Node000031_Node000029"><a xlink:title=" ">
<path fill="none" stroke="#63b8ff" d="M1102.17,-162.45C1066.43,-152.69 1016.65,-139.09 984.09,-130.2"/>
<polygon fill="#63b8ff" stroke="#63b8ff" points="1101.2,-166.08 1111.77,-165.34 1103.05,-159.33 1101.2,-166.08"/>
</a>
</g>
</g>
<!-- Node31&#45;&gt;Node30 -->
<g id="edge71_Node000031_Node000030" class="edge">
<title>Node31&#45;&gt;Node30</title>
<g id="a_edge71_Node000031_Node000030"><a xlink:title=" ">
<path fill="none" stroke="#63b8ff" d="M1178.93,-161.42C1203.62,-151.75 1236.75,-138.79 1258.67,-130.2"/>
<polygon fill="#63b8ff" stroke="#63b8ff" points="1177.96,-158.44 1169.92,-165.34 1180.51,-164.95 1177.96,-158.44"/>
</a>
</g>
</g>
<!-- Node32 -->
<g id="Node000032" class="node">
<title>Node32</title>
<g id="a_Node000032"><a xlink:href="_orbit_state_utils_8cpp.html" target="_top" xlink:title="Util functions for state conversions.">
<polygon fill="white" stroke="#666666" points="1224.48,-129.75 1125.23,-129.75 1125.23,-110.5 1224.48,-110.5 1224.48,-129.75"/>
<text text-anchor="middle" x="1174.85" y="-116.25" font-family="Helvetica,sans-Serif" font-size="10.00">OrbitStateUtils.cpp</text>
</a>
</g>
</g>
<!-- Node31&#45;&gt;Node32 -->
<g id="edge72_Node000031_Node000032" class="edge">
<title>Node31&#45;&gt;Node32</title>
<g id="a_edge72_Node000031_Node000032"><a xlink:title=" ">
<path fill="none" stroke="#63b8ff" d="M1155.78,-156.15C1160.56,-147.36 1166.09,-137.21 1169.96,-130.11"/>
<polygon fill="#63b8ff" stroke="#63b8ff" points="1152.35,-154.13 1150.64,-164.58 1158.5,-157.47 1152.35,-154.13"/>
</a>
</g>
</g>
<!-- Node31&#45;&gt;Node33 -->
<g id="edge73_Node000031_Node000033" class="edge">
<title>Node31&#45;&gt;Node33</title>
<g id="a_edge73_Node000031_Node000033"><a xlink:title=" ">
<path fill="none" stroke="#63b8ff" d="M1194.35,-162.74C1231.68,-153.78 1284.55,-141.04 1330.85,-129.75 1333.53,-129.1 1336.32,-128.41 1339.1,-127.73"/>
<polygon fill="#63b8ff" stroke="#63b8ff" points="1193.68,-159.55 1184.78,-165.28 1195.32,-166.35 1193.68,-159.55"/>
</a>
</g>
</g>
</g>
</svg>
