<?xml version="1.0" encoding="UTF-8" standalone="no"?>
<!DOCTYPE svg PUBLIC "-//W3C//DTD SVG 1.1//EN"
 "http://www.w3.org/Graphics/SVG/1.1/DTD/svg11.dtd">
<!-- Generated by graphviz version 8.1.0 (20230707.0739)
 -->
<!-- Title: TLE.cpp Pages: 1 -->
<svg width="1212pt" height="260pt"
 viewBox="0.00 0.00 1211.88 259.50" xmlns="http://www.w3.org/2000/svg" xmlns:xlink="http://www.w3.org/1999/xlink">
<g id="graph0" class="graph" transform="scale(1 1) rotate(0) translate(4 255.5)">
<title>TLE.cpp</title>
<!-- Node1 -->
<g id="Node000001" class="node">
<title>Node1</title>
<g id="a_Node000001"><a xlink:title="Routines to process TLE files.">
<polygon fill="#999999" stroke="#666666" points="460.88,-251.5 408.12,-251.5 408.12,-232.25 460.88,-232.25 460.88,-251.5"/>
<text text-anchor="middle" x="434.5" y="-238" font-family="Helvetica,sans-Serif" font-size="10.00">TLE.cpp</text>
</a>
</g>
</g>
<!-- Node2 -->
<g id="Node000002" class="node">
<title>Node2</title>
<g id="a_Node000002"><a xlink:title=" ">
<polygon fill="#e0e0e0" stroke="#999999" points="49,-196.25 0,-196.25 0,-177 49,-177 49,-196.25"/>
<text text-anchor="middle" x="24.5" y="-182.75" font-family="Helvetica,sans-Serif" font-size="10.00">fstream</text>
</a>
</g>
</g>
<!-- Node1&#45;&gt;Node2 -->
<g id="edge1_Node000001_Node000002" class="edge">
<title>Node1&#45;&gt;Node2</title>
<g id="a_edge1_Node000001_Node000002"><a xlink:title=" ">
<path fill="none" stroke="#63b8ff" d="M407.83,-238.57C346.67,-233.09 191.73,-218.09 63.5,-196.25 62.34,-196.05 61.16,-195.84 59.97,-195.62"/>
<polygon fill="#63b8ff" stroke="#63b8ff" points="60.68,-192 50.19,-193.47 59.31,-198.86 60.68,-192"/>
</a>
</g>
</g>
<!-- Node3 -->
<g id="Node000003" class="node">
<title>Node3</title>
<g id="a_Node000003"><a xlink:title=" ">
<polygon fill="#e0e0e0" stroke="#999999" points="101.25,-24.88 47.75,-24.88 47.75,-5.63 101.25,-5.63 101.25,-24.88"/>
<text text-anchor="middle" x="74.5" y="-11.38" font-family="Helvetica,sans-Serif" font-size="10.00">iostream</text>
</a>
</g>
</g>
<!-- Node1&#45;&gt;Node3 -->
<g id="edge2_Node000001_Node000003" class="edge">
<title>Node1&#45;&gt;Node3</title>
<g id="a_edge2_Node000001_Node000003"><a xlink:title=" ">
<path fill="none" stroke="#63b8ff" d="M407.89,-240.05C349.19,-236.76 207.68,-220.54 130.5,-141 101.25,-110.86 85.69,-62.8 78.86,-35.98"/>
<polygon fill="#63b8ff" stroke="#63b8ff" points="82.04,-35.22 76.32,-26.3 75.23,-36.84 82.04,-35.22"/>
</a>
</g>
</g>
<!-- Node4 -->
<g id="Node000004" class="node">
<title>Node4</title>
<g id="a_Node000004"><a xlink:title=" ">
<polygon fill="#e0e0e0" stroke="#999999" points="275.12,-196.25 223.88,-196.25 223.88,-177 275.12,-177 275.12,-196.25"/>
<text text-anchor="middle" x="249.5" y="-182.75" font-family="Helvetica,sans-Serif" font-size="10.00">memory</text>
</a>
</g>
</g>
<!-- Node1&#45;&gt;Node4 -->
<g id="edge3_Node000001_Node000004" class="edge">
<title>Node1&#45;&gt;Node4</title>
<g id="a_edge3_Node000001_Node000004"><a xlink:title=" ">
<path fill="none" stroke="#63b8ff" d="M407.99,-233.25C375.94,-224.02 321.83,-208.44 285.89,-198.1"/>
<polygon fill="#63b8ff" stroke="#63b8ff" points="286.94,-194.47 276.36,-195.07 285,-201.2 286.94,-194.47"/>
</a>
</g>
</g>
<!-- Node5 -->
<g id="Node000005" class="node">
<title>Node5</title>
<g id="a_Node000005"><a xlink:title=" ">
<polygon fill="#e0e0e0" stroke="#999999" points="952.5,-24.88 912.5,-24.88 912.5,-5.63 952.5,-5.63 952.5,-24.88"/>
<text text-anchor="middle" x="932.5" y="-11.38" font-family="Helvetica,sans-Serif" font-size="10.00">string</text>
</a>
</g>
</g>
<!-- Node1&#45;&gt;Node5 -->
<g id="edge4_Node000001_Node000005" class="edge">
<title>Node1&#45;&gt;Node5</title>
<g id="a_edge4_Node000001_Node000005"><a xlink:title=" ">
<path fill="none" stroke="#63b8ff" d="M461.31,-238.09C554.4,-228.05 862.54,-191.61 946.5,-141 980.86,-120.28 1015.18,-102.52 997.5,-66.5 989.96,-51.15 975.23,-39.15 961.69,-30.74"/>
<polygon fill="#63b8ff" stroke="#63b8ff" points="963.58,-27.21 953.17,-25.25 960.08,-33.28 963.58,-27.21"/>
</a>
</g>
</g>
<!-- Node6 -->
<g id="Node000006" class="node">
<title>Node6</title>
<g id="a_Node000006"><a xlink:href="_orbit_state_8h.html" target="_top" xlink:title="Orbit states.">
<polygon fill="white" stroke="#666666" points="719.75,-141 651.25,-141 651.25,-121.75 719.75,-121.75 719.75,-141"/>
<text text-anchor="middle" x="685.5" y="-127.5" font-family="Helvetica,sans-Serif" font-size="10.00">OrbitState.h</text>
</a>
</g>
</g>
<!-- Node1&#45;&gt;Node6 -->
<g id="edge5_Node000001_Node000006" class="edge">
<title>Node1&#45;&gt;Node6</title>
<g id="a_edge5_Node000001_Node000006"><a xlink:title=" ">
<path fill="none" stroke="#63b8ff" d="M455.47,-231.81C499.67,-212.7 602.6,-168.21 654.46,-145.79"/>
<polygon fill="#63b8ff" stroke="#63b8ff" points="655.62,-148.67 663.41,-141.49 652.85,-142.24 655.62,-148.67"/>
</a>
</g>
</g>
<!-- Node14 -->
<g id="Node000014" class="node">
<title>Node14</title>
<g id="a_Node000014"><a xlink:href="_orbit_state_utils_8h.html" target="_top" xlink:title="Util functions for state conversions.">
<polygon fill="white" stroke="#666666" points="729.88,-196.25 641.12,-196.25 641.12,-177 729.88,-177 729.88,-196.25"/>
<text text-anchor="middle" x="685.5" y="-182.75" font-family="Helvetica,sans-Serif" font-size="10.00">OrbitStateUtils.h</text>
</a>
</g>
</g>
<!-- Node1&#45;&gt;Node14 -->
<g id="edge15_Node000001_Node000014" class="edge">
<title>Node1&#45;&gt;Node14</title>
<g id="a_edge15_Node000001_Node000014"><a xlink:title=" ">
<path fill="none" stroke="#63b8ff" d="M461.36,-235.18C501.94,-226.57 579.7,-210.07 632.09,-198.96"/>
<polygon fill="#63b8ff" stroke="#63b8ff" points="632.48,-202.24 641.54,-196.74 631.03,-195.39 632.48,-202.24"/>
</a>
</g>
</g>
<!-- Node20 -->
<g id="Node000020" class="node">
<title>Node20</title>
<g id="a_Node000020"><a xlink:href="_spice_interface_8h.html" target="_top" xlink:title="SPICE Interface functions.">
<polygon fill="white" stroke="#666666" points="380.12,-196.25 292.88,-196.25 292.88,-177 380.12,-177 380.12,-196.25"/>
<text text-anchor="middle" x="336.5" y="-182.75" font-family="Helvetica,sans-Serif" font-size="10.00">SpiceInterface.h</text>
</a>
</g>
</g>
<!-- Node1&#45;&gt;Node20 -->
<g id="edge30_Node000001_Node000020" class="edge">
<title>Node1&#45;&gt;Node20</title>
<g id="a_edge30_Node000001_Node000020"><a xlink:title=" ">
<path fill="none" stroke="#63b8ff" d="M417.88,-231.84C402.81,-223.66 380.36,-211.46 362.85,-201.94"/>
<polygon fill="#63b8ff" stroke="#63b8ff" points="364.66,-198.4 354.21,-196.7 361.32,-204.55 364.66,-198.4"/>
</a>
</g>
</g>
<!-- Node22 -->
<g id="Node000022" class="node">
<title>Node22</title>
<g id="a_Node000022"><a xlink:href="_string_utils_8h.html" target="_top" xlink:title="String util functions.">
<polygon fill="white" stroke="#666666" points="1203.88,-85.75 1067.12,-85.75 1067.12,-66.5 1203.88,-66.5 1203.88,-85.75"/>
<text text-anchor="middle" x="1135.5" y="-72.25" font-family="Helvetica,sans-Serif" font-size="10.00">lupnt/numerics/StringUtils.h</text>
</a>
</g>
</g>
<!-- Node1&#45;&gt;Node22 -->
<g id="edge35_Node000001_Node000022" class="edge">
<title>Node1&#45;&gt;Node22</title>
<g id="a_edge35_Node000001_Node000022"><a xlink:title=" ">
<path fill="none" stroke="#63b8ff" d="M461.23,-240.3C573.26,-237.73 1001.55,-225.99 1053.5,-196.25 1092.95,-173.66 1117.61,-123.44 1128.67,-95.97"/>
<polygon fill="#63b8ff" stroke="#63b8ff" points="1132.17,-97.63 1132.47,-87.04 1125.63,-95.13 1132.17,-97.63"/>
</a>
</g>
</g>
<!-- Node7 -->
<g id="Node000007" class="node">
<title>Node7</title>
<g id="a_Node000007"><a xlink:title=" ">
<polygon fill="#e0e0e0" stroke="#999999" points="837.62,-85.75 765.38,-85.75 765.38,-66.5 837.62,-66.5 837.62,-85.75"/>
<text text-anchor="middle" x="801.5" y="-72.25" font-family="Helvetica,sans-Serif" font-size="10.00">Eigen/Dense</text>
</a>
</g>
</g>
<!-- Node6&#45;&gt;Node7 -->
<g id="edge6_Node000006_Node000007" class="edge">
<title>Node6&#45;&gt;Node7</title>
<g id="a_edge6_Node000006_Node000007"><a xlink:title=" ">
<path fill="none" stroke="#63b8ff" d="M705.18,-121.34C723.43,-112.97 750.83,-100.38 771.75,-90.78"/>
<polygon fill="#63b8ff" stroke="#63b8ff" points="773.1,-93.56 780.73,-86.2 770.18,-87.19 773.1,-93.56"/>
</a>
</g>
</g>
<!-- Node8 -->
<g id="Node000008" class="node">
<title>Node8</title>
<g id="a_Node000008"><a xlink:title=" ">
<polygon fill="#e0e0e0" stroke="#999999" points="542,-24.88 421,-24.88 421,-5.63 542,-5.63 542,-24.88"/>
<text text-anchor="middle" x="481.5" y="-11.38" font-family="Helvetica,sans-Serif" font-size="10.00">autodiff/forward/real.hpp</text>
</a>
</g>
</g>
<!-- Node6&#45;&gt;Node8 -->
<g id="edge7_Node000006_Node000008" class="edge">
<title>Node6&#45;&gt;Node8</title>
<g id="a_edge7_Node000006_Node000008"><a xlink:title=" ">
<path fill="none" stroke="#63b8ff" d="M658.23,-121.3C635.65,-113.3 603.09,-100.63 576.5,-85.75 548.43,-70.04 518.96,-47.38 500.43,-32.25"/>
<polygon fill="#63b8ff" stroke="#63b8ff" points="502.96,-28.98 493.03,-25.29 498.5,-34.37 502.96,-28.98"/>
</a>
</g>
</g>
<!-- Node9 -->
<g id="Node000009" class="node">
<title>Node9</title>
<g id="a_Node000009"><a xlink:title=" ">
<polygon fill="#e0e0e0" stroke="#999999" points="762.62,-30.5 660.38,-30.5 660.38,0 762.62,0 762.62,-30.5"/>
<text text-anchor="start" x="668.38" y="-17" font-family="Helvetica,sans-Serif" font-size="10.00">autodiff/forward/real</text>
<text text-anchor="middle" x="711.5" y="-5.75" font-family="Helvetica,sans-Serif" font-size="10.00">/eigen.hpp</text>
</a>
</g>
</g>
<!-- Node6&#45;&gt;Node9 -->
<g id="edge8_Node000006_Node000009" class="edge">
<title>Node6&#45;&gt;Node9</title>
<g id="a_edge8_Node000006_Node000009"><a xlink:title=" ">
<path fill="none" stroke="#63b8ff" d="M694.83,-121.48C702.86,-113.13 713.86,-99.84 718.5,-85.75 723.22,-71.44 721.71,-54.66 718.9,-41.17"/>
<polygon fill="#63b8ff" stroke="#63b8ff" points="722.13,-40.62 716.35,-31.74 715.33,-42.28 722.13,-40.62"/>
</a>
</g>
</g>
<!-- Node10 -->
<g id="Node000010" class="node">
<title>Node10</title>
<g id="a_Node000010"><a xlink:title=" ">
<polygon fill="#e0e0e0" stroke="#999999" points="973.12,-85.75 855.88,-85.75 855.88,-66.5 973.12,-66.5 973.12,-85.75"/>
<text text-anchor="middle" x="914.5" y="-72.25" font-family="Helvetica,sans-Serif" font-size="10.00">boost/preprocessor.hpp</text>
</a>
</g>
</g>
<!-- Node6&#45;&gt;Node10 -->
<g id="edge9_Node000006_Node000010" class="edge">
<title>Node6&#45;&gt;Node10</title>
<g id="a_edge9_Node000006_Node000010"><a xlink:title=" ">
<path fill="none" stroke="#63b8ff" d="M719.78,-122.4C758.2,-113.47 820.83,-98.91 864.66,-88.71"/>
<polygon fill="#63b8ff" stroke="#63b8ff" points="865.42,-91.9 874.37,-86.22 863.84,-85.08 865.42,-91.9"/>
</a>
</g>
</g>
<!-- Node11 -->
<g id="Node000011" class="node">
<title>Node11</title>
<g id="a_Node000011"><a xlink:title=" ">
<polygon fill="#e0e0e0" stroke="#999999" points="643.88,-85.75 585.12,-85.75 585.12,-66.5 643.88,-66.5 643.88,-85.75"/>
<text text-anchor="middle" x="614.5" y="-72.25" font-family="Helvetica,sans-Serif" font-size="10.00">stdexcept</text>
</a>
</g>
</g>
<!-- Node6&#45;&gt;Node11 -->
<g id="edge10_Node000006_Node000011" class="edge">
<title>Node6&#45;&gt;Node11</title>
<g id="a_edge10_Node000006_Node000011"><a xlink:title=" ">
<path fill="none" stroke="#63b8ff" d="M673.46,-121.34C662.99,-113.49 647.6,-101.95 635.17,-92.62"/>
<polygon fill="#63b8ff" stroke="#63b8ff" points="637.47,-89.22 627.37,-86.02 633.27,-94.82 637.47,-89.22"/>
</a>
</g>
</g>
<!-- Node12 -->
<g id="Node000012" class="node">
<title>Node12</title>
<g id="a_Node000012"><a xlink:href="_state_8h.html" target="_top" xlink:title="SPICE Interface functions.">
<polygon fill="white" stroke="#666666" points="709.25,-85.75 661.75,-85.75 661.75,-66.5 709.25,-66.5 709.25,-85.75"/>
<text text-anchor="middle" x="685.5" y="-72.25" font-family="Helvetica,sans-Serif" font-size="10.00">State.h</text>
</a>
</g>
</g>
<!-- Node6&#45;&gt;Node12 -->
<g id="edge11_Node000006_Node000012" class="edge">
<title>Node6&#45;&gt;Node12</title>
<g id="a_edge11_Node000006_Node000012"><a xlink:title=" ">
<path fill="none" stroke="#63b8ff" d="M685.5,-121.58C685.5,-114.92 685.5,-105.49 685.5,-97.03"/>
<polygon fill="#63b8ff" stroke="#63b8ff" points="689,-97.11 685.5,-87.11 682,-97.11 689,-97.11"/>
</a>
</g>
</g>
<!-- Node12&#45;&gt;Node8 -->
<g id="edge12_Node000012_Node000008" class="edge">
<title>Node12&#45;&gt;Node8</title>
<g id="a_edge12_Node000012_Node000008"><a xlink:title=" ">
<path fill="none" stroke="#63b8ff" d="M661.3,-68.14C627.32,-58.33 564.97,-40.34 523.37,-28.33"/>
<polygon fill="#63b8ff" stroke="#63b8ff" points="524.59,-24.76 514.02,-25.35 522.65,-31.48 524.59,-24.76"/>
</a>
</g>
</g>
<!-- Node12&#45;&gt;Node9 -->
<g id="edge13_Node000012_Node000009" class="edge">
<title>Node12&#45;&gt;Node9</title>
<g id="a_edge13_Node000012_Node000009"><a xlink:title=" ">
<path fill="none" stroke="#63b8ff" d="M689.45,-66.18C692.43,-59.43 696.67,-49.83 700.64,-40.84"/>
<polygon fill="#63b8ff" stroke="#63b8ff" points="704.24,-42.34 705.08,-31.78 697.84,-39.52 704.24,-42.34"/>
</a>
</g>
</g>
<!-- Node13 -->
<g id="Node000013" class="node">
<title>Node13</title>
<g id="a_Node000013"><a xlink:title=" ">
<polygon fill="#e0e0e0" stroke="#999999" points="1098,-24.88 1055,-24.88 1055,-5.63 1098,-5.63 1098,-24.88"/>
<text text-anchor="middle" x="1076.5" y="-11.38" font-family="Helvetica,sans-Serif" font-size="10.00">vector</text>
</a>
</g>
</g>
<!-- Node12&#45;&gt;Node13 -->
<g id="edge14_Node000012_Node000013" class="edge">
<title>Node12&#45;&gt;Node13</title>
<g id="a_edge14_Node000012_Node000013"><a xlink:title=" ">
<path fill="none" stroke="#63b8ff" d="M709.66,-71.49C777.13,-61.33 967.57,-32.65 1044.08,-21.13"/>
<polygon fill="#63b8ff" stroke="#63b8ff" points="1044.56,-24.45 1053.93,-19.5 1043.52,-17.53 1044.56,-24.45"/>
</a>
</g>
</g>
<!-- Node14&#45;&gt;Node6 -->
<g id="edge25_Node000014_Node000006" class="edge">
<title>Node14&#45;&gt;Node6</title>
<g id="a_edge25_Node000014_Node000006"><a xlink:title=" ">
<path fill="none" stroke="#63b8ff" d="M685.5,-176.83C685.5,-170.17 685.5,-160.74 685.5,-152.28"/>
<polygon fill="#63b8ff" stroke="#63b8ff" points="689,-152.36 685.5,-142.36 682,-152.36 689,-152.36"/>
</a>
</g>
</g>
<!-- Node14&#45;&gt;Node7 -->
<g id="edge26_Node000014_Node000007" class="edge">
<title>Node14&#45;&gt;Node7</title>
<g id="a_edge26_Node000014_Node000007"><a xlink:title=" ">
<path fill="none" stroke="#63b8ff" d="M694.99,-176.75C714.45,-158.55 759.12,-116.77 783.98,-93.51"/>
<polygon fill="#63b8ff" stroke="#63b8ff" points="785.96,-96.51 790.88,-87.13 781.18,-91.4 785.96,-96.51"/>
</a>
</g>
</g>
<!-- Node14&#45;&gt;Node8 -->
<g id="edge27_Node000014_Node000008" class="edge">
<title>Node14&#45;&gt;Node8</title>
<g id="a_edge27_Node000014_Node000008"><a xlink:title=" ">
<path fill="none" stroke="#63b8ff" d="M670.01,-176.53C642.77,-160.17 585.15,-123.92 542.5,-85.75 524.44,-69.59 506.47,-48.33 494.77,-33.59"/>
<polygon fill="#63b8ff" stroke="#63b8ff" points="496.95,-31.7 488.04,-25.98 491.43,-36.01 496.95,-31.7"/>
</a>
</g>
</g>
<!-- Node14&#45;&gt;Node9 -->
<g id="edge28_Node000014_Node000009" class="edge">
<title>Node14&#45;&gt;Node9</title>
<g id="a_edge28_Node000014_Node000009"><a xlink:title=" ">
<path fill="none" stroke="#63b8ff" d="M730.28,-185.6C797.94,-182.84 924.48,-166.48 982.5,-85.75 987.49,-78.8 987.97,-73.08 982.5,-66.5 956.45,-35.18 845.18,-23.29 773.57,-18.84"/>
<polygon fill="#63b8ff" stroke="#63b8ff" points="774.06,-15.31 763.87,-18.22 773.65,-22.3 774.06,-15.31"/>
</a>
</g>
</g>
<!-- Node14&#45;&gt;Node10 -->
<g id="edge29_Node000014_Node000010" class="edge">
<title>Node14&#45;&gt;Node10</title>
<g id="a_edge29_Node000014_Node000010"><a xlink:title=" ">
<path fill="none" stroke="#63b8ff" d="M704.63,-176.56C744.79,-157.53 838.08,-113.33 885.58,-90.83"/>
<polygon fill="#63b8ff" stroke="#63b8ff" points="886.72,-93.68 894.26,-86.24 883.73,-87.36 886.72,-93.68"/>
</a>
</g>
</g>
<!-- Node15 -->
<g id="Node000015" class="node">
<title>Node15</title>
<g id="a_Node000015"><a xlink:href="_constants_8h.html" target="_top" xlink:title="List of constants.">
<polygon fill="white" stroke="#666666" points="440,-141 325,-141 325,-121.75 440,-121.75 440,-141"/>
<text text-anchor="middle" x="382.5" y="-127.5" font-family="Helvetica,sans-Serif" font-size="10.00">lupnt/core/Constants.h</text>
</a>
</g>
</g>
<!-- Node14&#45;&gt;Node15 -->
<g id="edge16_Node000014_Node000015" class="edge">
<title>Node14&#45;&gt;Node15</title>
<g id="a_edge16_Node000014_Node000015"><a xlink:title=" ">
<path fill="none" stroke="#63b8ff" d="M640.79,-177.77C588.95,-168.66 503.18,-153.58 444.82,-143.33"/>
<polygon fill="#63b8ff" stroke="#63b8ff" points="445.71,-139.75 435.25,-141.47 444.49,-146.65 445.71,-139.75"/>
</a>
</g>
</g>
<!-- Node15&#45;&gt;Node5 -->
<g id="edge19_Node000015_Node000005" class="edge">
<title>Node15&#45;&gt;Node5</title>
<g id="a_edge19_Node000015_Node000005"><a xlink:title=" ">
<path fill="none" stroke="#63b8ff" d="M405.41,-121.35C441.33,-107.55 513.31,-81.24 576.5,-66.5 694.96,-38.87 839.35,-24.19 901.56,-18.75"/>
<polygon fill="#63b8ff" stroke="#63b8ff" points="901.53,-22.18 911.19,-17.84 900.93,-15.21 901.53,-22.18"/>
</a>
</g>
</g>
<!-- Node15&#45;&gt;Node8 -->
<g id="edge18_Node000015_Node000008" class="edge">
<title>Node15&#45;&gt;Node8</title>
<g id="a_edge18_Node000015_Node000008"><a xlink:title=" ">
<path fill="none" stroke="#63b8ff" d="M357.82,-121.29C330.81,-109.95 293.48,-89.24 310.5,-66.5 323.36,-49.31 372.51,-36 414.83,-27.4"/>
<polygon fill="#63b8ff" stroke="#63b8ff" points="415.28,-30.68 424.42,-25.32 413.93,-23.82 415.28,-30.68"/>
</a>
</g>
</g>
<!-- Node16 -->
<g id="Node000016" class="node">
<title>Node16</title>
<g id="a_Node000016"><a xlink:title=" ">
<polygon fill="#e0e0e0" stroke="#999999" points="453.38,-85.75 319.62,-85.75 319.62,-66.5 453.38,-66.5 453.38,-85.75"/>
<text text-anchor="middle" x="386.5" y="-72.25" font-family="Helvetica,sans-Serif" font-size="10.00">autodiff/common/eigen.hpp</text>
</a>
</g>
</g>
<!-- Node15&#45;&gt;Node16 -->
<g id="edge17_Node000015_Node000016" class="edge">
<title>Node15&#45;&gt;Node16</title>
<g id="a_edge17_Node000015_Node000016"><a xlink:title=" ">
<path fill="none" stroke="#63b8ff" d="M383.16,-121.58C383.66,-114.92 384.37,-105.49 385,-97.03"/>
<polygon fill="#63b8ff" stroke="#63b8ff" points="388.57,-97.34 385.83,-87.11 381.59,-96.82 388.57,-97.34"/>
</a>
</g>
</g>
<!-- Node17 -->
<g id="Node000017" class="node">
<title>Node17</title>
<g id="a_Node000017"><a xlink:href="_user_file_path_8h.html" target="_top" xlink:title="File access utils.">
<polygon fill="white" stroke="#666666" points="187.12,-85.75 105.88,-85.75 105.88,-66.5 187.12,-66.5 187.12,-85.75"/>
<text text-anchor="middle" x="146.5" y="-72.25" font-family="Helvetica,sans-Serif" font-size="10.00">UserFilePath.h</text>
</a>
</g>
</g>
<!-- Node15&#45;&gt;Node17 -->
<g id="edge20_Node000015_Node000017" class="edge">
<title>Node15&#45;&gt;Node17</title>
<g id="a_edge20_Node000015_Node000017"><a xlink:title=" ">
<path fill="none" stroke="#63b8ff" d="M342.2,-121.28C302.15,-112.24 240.6,-98.36 197.24,-88.57"/>
<polygon fill="#63b8ff" stroke="#63b8ff" points="198.16,-84.97 187.64,-86.18 196.62,-91.8 198.16,-84.97"/>
</a>
</g>
</g>
<!-- Node17&#45;&gt;Node3 -->
<g id="edge22_Node000017_Node000003" class="edge">
<title>Node17&#45;&gt;Node3</title>
<g id="a_edge22_Node000017_Node000003"><a xlink:title=" ">
<path fill="none" stroke="#63b8ff" d="M135.56,-66.18C124.57,-57.19 107.38,-43.14 94.04,-32.23"/>
<polygon fill="#63b8ff" stroke="#63b8ff" points="96.5,-28.9 86.54,-25.28 92.06,-34.32 96.5,-28.9"/>
</a>
</g>
</g>
<!-- Node17&#45;&gt;Node5 -->
<g id="edge24_Node000017_Node000005" class="edge">
<title>Node17&#45;&gt;Node5</title>
<g id="a_edge24_Node000017_Node000005"><a xlink:title=" ">
<path fill="none" stroke="#63b8ff" d="M187.47,-72.44C287.35,-65.85 551.37,-48.1 771.5,-30.5 816.79,-26.88 869.19,-22.14 901.59,-19.14"/>
<polygon fill="#63b8ff" stroke="#63b8ff" points="901.54,-22.57 911.18,-18.16 900.9,-15.6 901.54,-22.57"/>
</a>
</g>
</g>
<!-- Node18 -->
<g id="Node000018" class="node">
<title>Node18</title>
<g id="a_Node000018"><a xlink:title=" ">
<polygon fill="#e0e0e0" stroke="#999999" points="180,-24.88 119,-24.88 119,-5.63 180,-5.63 180,-24.88"/>
<text text-anchor="middle" x="149.5" y="-11.38" font-family="Helvetica,sans-Serif" font-size="10.00">filesystem</text>
</a>
</g>
</g>
<!-- Node17&#45;&gt;Node18 -->
<g id="edge21_Node000017_Node000018" class="edge">
<title>Node17&#45;&gt;Node18</title>
<g id="a_edge21_Node000017_Node000018"><a xlink:title=" ">
<path fill="none" stroke="#63b8ff" d="M146.96,-66.18C147.36,-58.23 147.97,-46.31 148.49,-36.12"/>
<polygon fill="#63b8ff" stroke="#63b8ff" points="152.03,-36.44 149.04,-26.28 145.04,-36.08 152.03,-36.44"/>
</a>
</g>
</g>
<!-- Node19 -->
<g id="Node000019" class="node">
<title>Node19</title>
<g id="a_Node000019"><a xlink:title=" ">
<polygon fill="#e0e0e0" stroke="#999999" points="247.38,-24.88 197.62,-24.88 197.62,-5.63 247.38,-5.63 247.38,-24.88"/>
<text text-anchor="middle" x="222.5" y="-11.38" font-family="Helvetica,sans-Serif" font-size="10.00">optional</text>
</a>
</g>
</g>
<!-- Node17&#45;&gt;Node19 -->
<g id="edge23_Node000017_Node000019" class="edge">
<title>Node17&#45;&gt;Node19</title>
<g id="a_edge23_Node000017_Node000019"><a xlink:title=" ">
<path fill="none" stroke="#63b8ff" d="M158.04,-66.18C169.76,-57.11 188.14,-42.87 202.28,-31.91"/>
<polygon fill="#63b8ff" stroke="#63b8ff" points="204.09,-34.17 209.85,-25.28 199.8,-28.63 204.09,-34.17"/>
</a>
</g>
</g>
<!-- Node20&#45;&gt;Node8 -->
<g id="edge32_Node000020_Node000008" class="edge">
<title>Node20&#45;&gt;Node8</title>
<g id="a_edge32_Node000020_Node000008"><a xlink:title=" ">
<path fill="none" stroke="#63b8ff" d="M316.36,-176.52C302.64,-169.1 285.57,-157.21 277.5,-141 264.67,-115.21 298.94,-69.56 302.5,-66.5 332.36,-40.85 374.4,-28.23 410.23,-22.05"/>
<polygon fill="#63b8ff" stroke="#63b8ff" points="410.31,-25.43 419.64,-20.41 409.22,-18.51 410.31,-25.43"/>
</a>
</g>
</g>
<!-- Node20&#45;&gt;Node9 -->
<g id="edge33_Node000020_Node000009" class="edge">
<title>Node20&#45;&gt;Node9</title>
<g id="a_edge33_Node000020_Node000009"><a xlink:title=" ">
<path fill="none" stroke="#63b8ff" d="M329.96,-176.56C315.08,-154.75 282.07,-98.72 310.5,-66.5 321.58,-53.94 539.22,-32.16 649.12,-21.9"/>
<polygon fill="#63b8ff" stroke="#63b8ff" points="649.41,-25.3 659.05,-20.89 648.76,-18.33 649.41,-25.3"/>
</a>
</g>
</g>
<!-- Node20&#45;&gt;Node15 -->
<g id="edge34_Node000020_Node000015" class="edge">
<title>Node20&#45;&gt;Node15</title>
<g id="a_edge34_Node000020_Node000015"><a xlink:title=" ">
<path fill="none" stroke="#63b8ff" d="M344.1,-176.83C350.52,-169.4 359.9,-158.54 367.78,-149.41"/>
<polygon fill="#63b8ff" stroke="#63b8ff" points="370.85,-152.21 374.74,-142.36 365.55,-147.64 370.85,-152.21"/>
</a>
</g>
</g>
<!-- Node21 -->
<g id="Node000021" class="node">
<title>Node21</title>
<g id="a_Node000021"><a xlink:title=" ">
<polygon fill="#e0e0e0" stroke="#999999" points="187.62,-141 139.38,-141 139.38,-121.75 187.62,-121.75 187.62,-141"/>
<text text-anchor="middle" x="163.5" y="-127.5" font-family="Helvetica,sans-Serif" font-size="10.00">string.h</text>
</a>
</g>
</g>
<!-- Node20&#45;&gt;Node21 -->
<g id="edge31_Node000020_Node000021" class="edge">
<title>Node20&#45;&gt;Node21</title>
<g id="a_edge31_Node000020_Node000021"><a xlink:title=" ">
<path fill="none" stroke="#63b8ff" d="M307.15,-176.59C277.01,-167.31 230.11,-152.88 198.16,-143.04"/>
<polygon fill="#63b8ff" stroke="#63b8ff" points="199.54,-139.5 188.95,-139.9 197.48,-146.19 199.54,-139.5"/>
</a>
</g>
</g>
<!-- Node22&#45;&gt;Node5 -->
<g id="edge36_Node000022_Node000005" class="edge">
<title>Node22&#45;&gt;Node5</title>
<g id="a_edge36_Node000022_Node000005"><a xlink:title=" ">
<path fill="none" stroke="#63b8ff" d="M1104.23,-66.05C1065.96,-54.96 1001.58,-36.29 963.46,-25.23"/>
<polygon fill="#63b8ff" stroke="#63b8ff" points="964.57,-21.62 953.99,-22.19 962.62,-28.34 964.57,-21.62"/>
</a>
</g>
</g>
<!-- Node22&#45;&gt;Node13 -->
<g id="edge37_Node000022_Node000013" class="edge">
<title>Node22&#45;&gt;Node13</title>
<g id="a_edge37_Node000022_Node000013"><a xlink:title=" ">
<path fill="none" stroke="#63b8ff" d="M1126.54,-66.18C1117.7,-57.37 1103.98,-43.68 1093.14,-32.86"/>
<polygon fill="#63b8ff" stroke="#63b8ff" points="1096.1,-30.86 1086.55,-26.28 1091.15,-35.82 1096.1,-30.86"/>
</a>
</g>
</g>
</g>
</svg>
