<?xml version="1.0" encoding="UTF-8" standalone="no"?>
<!DOCTYPE svg PUBLIC "-//W3C//DTD SVG 1.1//EN"
 "http://www.w3.org/Graphics/SVG/1.1/DTD/svg11.dtd">
<!-- Generated by graphviz version 8.1.0 (20230707.0739)
 -->
<!-- Title: LPT::Timestamped&lt; T &gt; Pages: 1 -->
<svg width="123pt" height="87pt"
 viewBox="0.00 0.00 123.00 87.00" xmlns="http://www.w3.org/2000/svg" xmlns:xlink="http://www.w3.org/1999/xlink">
<g id="graph0" class="graph" transform="scale(1 1) rotate(0) translate(4 83)">
<title>LPT::Timestamped&lt; T &gt;</title>
<!-- Node1 -->
<g id="Node000001" class="node">
<title>Node1</title>
<g id="a_Node000001"><a xlink:title=" ">
<polygon fill="#999999" stroke="none" points="115,-79 0,-79 0,0 115,0 115,-79"/>
<text text-anchor="start" x="4.62" y="-65.5" font-family="Helvetica,sans-Serif" font-size="10.00">LPT::Timestamped&lt; T &gt;</text>
<text text-anchor="start" x="56" y="-50.5" font-family="Helvetica,sans-Serif" font-size="10.00"> </text>
<text text-anchor="start" x="10.5" y="-35.5" font-family="Helvetica,sans-Serif" font-size="10.00">+</text>
<text text-anchor="start" x="27" y="-35.5" font-family="Helvetica,sans-Serif" font-size="10.00">Timestamped()</text>
<text text-anchor="start" x="10.5" y="-20.5" font-family="Helvetica,sans-Serif" font-size="10.00">+</text>
<text text-anchor="start" x="27" y="-20.5" font-family="Helvetica,sans-Serif" font-size="10.00">GetTimestamp()</text>
<text text-anchor="start" x="10.5" y="-5.5" font-family="Helvetica,sans-Serif" font-size="10.00">+</text>
<text text-anchor="start" x="27" y="-5.5" font-family="Helvetica,sans-Serif" font-size="10.00">GetData()</text>
<polygon fill="#666666" stroke="#666666" points="0,-62 0,-62 115,-62 115,-62 0,-62"/>
<polygon fill="#666666" stroke="#666666" points="0,-47 0,-47 115,-47 115,-47 0,-47"/>
<polygon fill="none" stroke="#666666" points="0,0 0,-79 115,-79 115,0 0,0"/>
</a>
</g>
</g>
</g>
</svg>
