<?xml version="1.0" encoding="UTF-8" standalone="no"?>
<!DOCTYPE svg PUBLIC "-//W3C//DTD SVG 1.1//EN"
 "http://www.w3.org/Graphics/SVG/1.1/DTD/svg11.dtd">
<!-- Generated by graphviz version 8.1.0 (20230707.0739)
 -->
<!-- Title: LPT::IAnalyticalDynamics Pages: 1 -->
<svg width="532pt" height="262pt"
 viewBox="0.00 0.00 531.50 262.00" xmlns="http://www.w3.org/2000/svg" xmlns:xlink="http://www.w3.org/1999/xlink">
<g id="graph0" class="graph" transform="scale(1 1) rotate(0) translate(4 258)">
<title>LPT::IAnalyticalDynamics</title>
<!-- Node1 -->
<g id="Node000001" class="node">
<title>Node1</title>
<g id="a_Node000001"><a xlink:title=" ">
<polygon fill="#999999" stroke="none" points="319,-254 197,-254 197,-145 319,-145 319,-254"/>
<text text-anchor="start" x="201.75" y="-240.5" font-family="Helvetica,sans-Serif" font-size="10.00">LPT::IAnalyticalDynamics</text>
<text text-anchor="start" x="256.5" y="-225.5" font-family="Helvetica,sans-Serif" font-size="10.00"> </text>
<text text-anchor="start" x="201.5" y="-210.5" font-family="Helvetica,sans-Serif" font-size="10.00">+</text>
<text text-anchor="start" x="212" y="-210.5" font-family="Helvetica,sans-Serif" font-size="10.00">~IAnalyticalDynamics()</text>
<text text-anchor="start" x="201.5" y="-195.5" font-family="Helvetica,sans-Serif" font-size="10.00">+</text>
<text text-anchor="start" x="212" y="-195.5" font-family="Helvetica,sans-Serif" font-size="10.00">Propagate()</text>
<text text-anchor="start" x="201.5" y="-180.5" font-family="Helvetica,sans-Serif" font-size="10.00">+</text>
<text text-anchor="start" x="212" y="-180.5" font-family="Helvetica,sans-Serif" font-size="10.00">Propagate()</text>
<text text-anchor="start" x="201.5" y="-165.5" font-family="Helvetica,sans-Serif" font-size="10.00">+</text>
<text text-anchor="start" x="212" y="-165.5" font-family="Helvetica,sans-Serif" font-size="10.00">PropagateWithSTM()</text>
<text text-anchor="start" x="201.5" y="-150.5" font-family="Helvetica,sans-Serif" font-size="10.00">+</text>
<text text-anchor="start" x="212" y="-150.5" font-family="Helvetica,sans-Serif" font-size="10.00">PropagateWithSTM()</text>
<polygon fill="#666666" stroke="#666666" points="197,-237 197,-237 319,-237 319,-237 197,-237"/>
<polygon fill="#666666" stroke="#666666" points="197,-222 197,-222 319,-222 319,-222 197,-222"/>
<polygon fill="none" stroke="#666666" points="197,-145 197,-254 319,-254 319,-145 197,-145"/>
</a>
</g>
</g>
<!-- Node2 -->
<g id="Node000002" class="node">
<title>Node2</title>
<g id="a_Node000002"><a xlink:href="class_l_p_t_1_1_clohessy_wiltshire_dynamics.html" target="_top" xlink:title=" ">
<polygon fill="white" stroke="none" points="156,-101.5 0,-101.5 0,-7.5 156,-7.5 156,-101.5"/>
<text text-anchor="start" x="4.88" y="-88" font-family="Helvetica,sans-Serif" font-size="10.00">LPT::ClohessyWiltshireDynamics</text>
<text text-anchor="start" x="76.5" y="-73" font-family="Helvetica,sans-Serif" font-size="10.00"> </text>
<text text-anchor="start" x="6" y="-58" font-family="Helvetica,sans-Serif" font-size="10.00">+</text>
<text text-anchor="start" x="18" y="-58" font-family="Helvetica,sans-Serif" font-size="10.00">ClohessyWiltshireDynamics()</text>
<text text-anchor="start" x="6" y="-43" font-family="Helvetica,sans-Serif" font-size="10.00">+</text>
<text text-anchor="start" x="18" y="-43" font-family="Helvetica,sans-Serif" font-size="10.00">Propagate()</text>
<text text-anchor="start" x="6" y="-28" font-family="Helvetica,sans-Serif" font-size="10.00">+</text>
<text text-anchor="start" x="18" y="-28" font-family="Helvetica,sans-Serif" font-size="10.00">Initialize()</text>
<text text-anchor="start" x="6" y="-13" font-family="Helvetica,sans-Serif" font-size="10.00">+</text>
<text text-anchor="start" x="18" y="-13" font-family="Helvetica,sans-Serif" font-size="10.00">ComputeMatrix()</text>
<polygon fill="#bfbfbf" stroke="#bfbfbf" points="0,-84.5 0,-84.5 156,-84.5 156,-84.5 0,-84.5"/>
<polygon fill="#bfbfbf" stroke="#bfbfbf" points="0,-69.5 0,-69.5 156,-69.5 156,-69.5 0,-69.5"/>
<polygon fill="none" stroke="#bfbfbf" points="0,-7.5 0,-101.5 156,-101.5 156,-7.5 0,-7.5"/>
</a>
</g>
</g>
<!-- Node1&#45;&gt;Node2 -->
<g id="edge1_Node000001_Node000002" class="edge">
<title>Node1&#45;&gt;Node2</title>
<g id="a_edge1_Node000001_Node000002"><a xlink:title=" ">
<path fill="none" stroke="#63b8ff" d="M188.6,-143.37C171.16,-129.51 152.64,-114.8 135.84,-101.45"/>
<polygon fill="none" stroke="#63b8ff" points="186.05,-146.61 196.06,-150.09 190.41,-141.13 186.05,-146.61"/>
</a>
</g>
</g>
<!-- Node3 -->
<g id="Node000003" class="node">
<title>Node3</title>
<g id="a_Node000003"><a xlink:href="class_l_p_t_1_1_roe_geometric_mapping_dynamics.html" target="_top" xlink:title=" ">
<polygon fill="white" stroke="none" points="342,-107 174,-107 174,-2 342,-2 342,-107"/>
<text text-anchor="start" x="196.88" y="-93.5" font-family="Helvetica,sans-Serif" font-size="10.00">LPT::RoeGeometricMapping</text>
<text text-anchor="start" x="235.88" y="-82.25" font-family="Helvetica,sans-Serif" font-size="10.00">Dynamics</text>
<text text-anchor="start" x="256.5" y="-67.5" font-family="Helvetica,sans-Serif" font-size="10.00"> </text>
<text text-anchor="start" x="178" y="-52.5" font-family="Helvetica,sans-Serif" font-size="10.00">+</text>
<text text-anchor="start" x="188" y="-52.5" font-family="Helvetica,sans-Serif" font-size="10.00">RoeGeometricMappingDynamics()</text>
<text text-anchor="start" x="178" y="-37.5" font-family="Helvetica,sans-Serif" font-size="10.00">+</text>
<text text-anchor="start" x="188" y="-37.5" font-family="Helvetica,sans-Serif" font-size="10.00">Propagate()</text>
<text text-anchor="start" x="178" y="-22.5" font-family="Helvetica,sans-Serif" font-size="10.00">+</text>
<text text-anchor="start" x="188" y="-22.5" font-family="Helvetica,sans-Serif" font-size="10.00">Initialize()</text>
<text text-anchor="start" x="178" y="-7.5" font-family="Helvetica,sans-Serif" font-size="10.00">+</text>
<text text-anchor="start" x="188" y="-7.5" font-family="Helvetica,sans-Serif" font-size="10.00">ComputeMatrix()</text>
<polygon fill="#bfbfbf" stroke="#bfbfbf" points="174,-79 174,-79 342,-79 342,-79 174,-79"/>
<polygon fill="#bfbfbf" stroke="#bfbfbf" points="174,-64 174,-64 342,-64 342,-64 174,-64"/>
<polygon fill="none" stroke="#bfbfbf" points="174,-2 174,-107 342,-107 342,-2 174,-2"/>
</a>
</g>
</g>
<!-- Node1&#45;&gt;Node3 -->
<g id="edge2_Node000001_Node000003" class="edge">
<title>Node1&#45;&gt;Node3</title>
<g id="a_edge2_Node000001_Node000003"><a xlink:title=" ">
<path fill="none" stroke="#63b8ff" d="M258,-134.51C258,-125.27 258,-115.85 258,-106.89"/>
<polygon fill="none" stroke="#63b8ff" points="254.5,-134.25 258,-144.25 261.5,-134.25 254.5,-134.25"/>
</a>
</g>
</g>
<!-- Node4 -->
<g id="Node000004" class="node">
<title>Node4</title>
<g id="a_Node000004"><a xlink:href="class_l_p_t_1_1_yamanaka_ankersen_dynamics.html" target="_top" xlink:title=" ">
<polygon fill="white" stroke="none" points="523.5,-109 360.5,-109 360.5,0 523.5,0 523.5,-109"/>
<text text-anchor="start" x="365.12" y="-95.5" font-family="Helvetica,sans-Serif" font-size="10.00">LPT::YamanakaAnkersenDynamics</text>
<text text-anchor="start" x="440.5" y="-80.5" font-family="Helvetica,sans-Serif" font-size="10.00"> </text>
<text text-anchor="start" x="366.5" y="-65.5" font-family="Helvetica,sans-Serif" font-size="10.00">+</text>
<text text-anchor="start" x="378.5" y="-65.5" font-family="Helvetica,sans-Serif" font-size="10.00">YamanakaAnkersenDynamics()</text>
<text text-anchor="start" x="366.5" y="-50.5" font-family="Helvetica,sans-Serif" font-size="10.00">+</text>
<text text-anchor="start" x="378.5" y="-50.5" font-family="Helvetica,sans-Serif" font-size="10.00">Propagate()</text>
<text text-anchor="start" x="366.5" y="-35.5" font-family="Helvetica,sans-Serif" font-size="10.00">+</text>
<text text-anchor="start" x="378.5" y="-35.5" font-family="Helvetica,sans-Serif" font-size="10.00">Initialize()</text>
<text text-anchor="start" x="366.5" y="-20.5" font-family="Helvetica,sans-Serif" font-size="10.00">+</text>
<text text-anchor="start" x="378.5" y="-20.5" font-family="Helvetica,sans-Serif" font-size="10.00">ComputeMatrix()</text>
<text text-anchor="start" x="366.5" y="-5.5" font-family="Helvetica,sans-Serif" font-size="10.00">+</text>
<text text-anchor="start" x="378.5" y="-5.5" font-family="Helvetica,sans-Serif" font-size="10.00">ComputeInverseMatrix()</text>
<polygon fill="#bfbfbf" stroke="#bfbfbf" points="360.5,-92 360.5,-92 523.5,-92 523.5,-92 360.5,-92"/>
<polygon fill="#bfbfbf" stroke="#bfbfbf" points="360.5,-77 360.5,-77 523.5,-77 523.5,-77 360.5,-77"/>
<polygon fill="none" stroke="#bfbfbf" points="360.5,0 360.5,-109 523.5,-109 523.5,0 360.5,0"/>
</a>
</g>
</g>
<!-- Node1&#45;&gt;Node4 -->
<g id="edge3_Node000001_Node000004" class="edge">
<title>Node1&#45;&gt;Node4</title>
<g id="a_edge3_Node000001_Node000004"><a xlink:title=" ">
<path fill="none" stroke="#63b8ff" d="M327.07,-144.82C342.21,-133.06 358.23,-120.6 373.35,-108.85"/>
<polygon fill="none" stroke="#63b8ff" points="325.51,-142.38 319.76,-151.28 329.8,-147.91 325.51,-142.38"/>
</a>
</g>
</g>
</g>
</svg>
