<?xml version="1.0" encoding="UTF-8" standalone="no"?>
<!DOCTYPE svg PUBLIC "-//W3C//DTD SVG 1.1//EN"
 "http://www.w3.org/Graphics/SVG/1.1/DTD/svg11.dtd">
<!-- Generated by graphviz version 8.1.0 (20230707.0739)
 -->
<!-- Title: LPT::GNSSReceiver Pages: 1 -->
<!--zoomable 467 -->

<svg id="main" version="1.1" xmlns="http://www.w3.org/2000/svg" xmlns:xlink="http://www.w3.org/1999/xlink" xml:space="preserve" onload="init(evt)">
<style type="text/css"><![CDATA[
.node, .edge {opacity: 0.7;}
.node.selected, .edge.selected {opacity: 1;}
.edge:hover path { stroke: red; }
.edge:hover polygon { stroke: red; fill: red; }
]]></style>

<defs>
  <circle id="rim" cx="0" cy="0" r="7"/>
  <circle id="rim2" cx="0" cy="0" r="3.5"/>
  <g id="zoomPlus">
    <use xlink:href="#rim" fill="#404040"><set attributeName="fill" to="#808080" begin="zoomplus.mouseover" end="zoomplus.mouseout"/></use>
    <path d="M-4,0h8M0,-4v8" fill="none" stroke="white" stroke-width="1.5" pointer-events="none"/>
  </g>
  <g id="zoomMin">
    <use xlink:href="#rim" fill="#404040"><set attributeName="fill" to="#808080" begin="zoomminus.mouseover" end="zoomminus.mouseout"/></use>
    <path d="M-4,0h8" fill="none" stroke="white" stroke-width="1.5" pointer-events="none"/>
  </g>
  <g id="arrowUp" transform="translate(30 24)">
    <use xlink:href="#rim"/>
    <path pointer-events="none" fill="none" stroke="white" stroke-width="1.5" d="M0,-3.0v7 M-2.5,-0.5L0,-3.0L2.5,-0.5"/>
  </g>
  <g id="arrowRight" transform="rotate(90) translate(36 -43)">
    <use xlink:href="#rim"/>
    <path pointer-events="none" fill="none" stroke="white" stroke-width="1.5" d="M0,-3.0v7 M-2.5,-0.5L0,-3.0L2.5,-0.5"/>
  </g>
  <g id="arrowDown" transform="rotate(180) translate(-30 -48)">
    <use xlink:href="#rim"/>
    <path pointer-events="none" fill="none" stroke="white" stroke-width="1.5" d="M0,-3.0v7 M-2.5,-0.5L0,-3.0L2.5,-0.5"/>
  </g>
  <g id="arrowLeft" transform="rotate(270) translate(-36 17)">
    <use xlink:href="#rim"/>
    <path pointer-events="none" fill="none" stroke="white" stroke-width="1.5" d="M0,-3.0v7 M-2.5,-0.5L0,-3.0L2.5,-0.5"/>
  </g>
  <g id="resetDef">
    <use xlink:href="#rim2" fill="#404040"><set attributeName="fill" to="#808080" begin="reset.mouseover" end="reset.mouseout"/></use>
  </g>
</defs>
<script type="application/ecmascript">
var viewWidth = 143;
var viewHeight = 467;
var sectionId = 'dynsection-0';
</script>
<script type="application/ecmascript" xlink:href="svg.min.js"/>
<svg id="graph" class="graph">
<g id="viewport">
<title>LPT::GNSSReceiver</title>
<!-- Node1 -->
<g id="Node000001" class="node">
<title>Node1</title>
<g id="a_Node000001"><a xlink:title=" ">
<polygon fill="#999999" stroke="none" points="135,-214 0,-214 0,0 135,0 135,-214"/>
<text text-anchor="start" x="22.5" y="-200.5" font-family="Helvetica,sans-Serif" font-size="10.00">LPT::GNSSReceiver</text>
<text text-anchor="start" x="4" y="-185.5" font-family="Helvetica,sans-Serif" font-size="10.00">+</text>
<text text-anchor="start" x="14" y="-185.5" font-family="Helvetica,sans-Serif" font-size="10.00">antenna_</text>
<text text-anchor="start" x="4" y="-170.5" font-family="Helvetica,sans-Serif" font-size="10.00">+</text>
<text text-anchor="start" x="14" y="-170.5" font-family="Helvetica,sans-Serif" font-size="10.00">receiver_name_</text>
<text text-anchor="start" x="4" y="-155.5" font-family="Helvetica,sans-Serif" font-size="10.00">+</text>
<text text-anchor="start" x="14" y="-155.5" font-family="Helvetica,sans-Serif" font-size="10.00">GNSSReceiver()</text>
<text text-anchor="start" x="4" y="-140.5" font-family="Helvetica,sans-Serif" font-size="10.00">+</text>
<text text-anchor="start" x="14" y="-140.5" font-family="Helvetica,sans-Serif" font-size="10.00">GetReceiverOrientation()</text>
<text text-anchor="start" x="4" y="-125.5" font-family="Helvetica,sans-Serif" font-size="10.00">+</text>
<text text-anchor="start" x="14" y="-125.5" font-family="Helvetica,sans-Serif" font-size="10.00">GetReceiverAntennaGain()</text>
<text text-anchor="start" x="4" y="-110.5" font-family="Helvetica,sans-Serif" font-size="10.00">+</text>
<text text-anchor="start" x="14" y="-110.5" font-family="Helvetica,sans-Serif" font-size="10.00">InitializeReceiverParams()</text>
<text text-anchor="start" x="4" y="-95.5" font-family="Helvetica,sans-Serif" font-size="10.00">+</text>
<text text-anchor="start" x="14" y="-95.5" font-family="Helvetica,sans-Serif" font-size="10.00">SetCN0Threshold()</text>
<text text-anchor="start" x="4" y="-80.5" font-family="Helvetica,sans-Serif" font-size="10.00">+</text>
<text text-anchor="start" x="14" y="-80.5" font-family="Helvetica,sans-Serif" font-size="10.00">GetMeasurement()</text>
<text text-anchor="start" x="4" y="-65.5" font-family="Helvetica,sans-Serif" font-size="10.00">+</text>
<text text-anchor="start" x="14" y="-65.5" font-family="Helvetica,sans-Serif" font-size="10.00">SetChannel()</text>
<text text-anchor="start" x="4" y="-50.5" font-family="Helvetica,sans-Serif" font-size="10.00">+</text>
<text text-anchor="start" x="14" y="-50.5" font-family="Helvetica,sans-Serif" font-size="10.00">GetAgent()</text>
<text text-anchor="start" x="4" y="-35.5" font-family="Helvetica,sans-Serif" font-size="10.00">+</text>
<text text-anchor="start" x="14" y="-35.5" font-family="Helvetica,sans-Serif" font-size="10.00">SetAgent()</text>
<text text-anchor="start" x="4" y="-20.5" font-family="Helvetica,sans-Serif" font-size="10.00">+</text>
<text text-anchor="start" x="14" y="-20.5" font-family="Helvetica,sans-Serif" font-size="10.00">GetAntennaGain()</text>
<text text-anchor="start" x="4" y="-5.5" font-family="Helvetica,sans-Serif" font-size="10.00">+</text>
<text text-anchor="start" x="14" y="-5.5" font-family="Helvetica,sans-Serif" font-size="10.00">GetAntennaGain()</text>
<polygon fill="#666666" stroke="#666666" points="0,-197 0,-197 135,-197 135,-197 0,-197"/>
<polygon fill="#666666" stroke="#666666" points="0,-167 0,-167 12,-167 12,-167 0,-167"/>
<polygon fill="#666666" stroke="#666666" points="12,-167 12,-167 135,-167 135,-167 12,-167"/>
<polygon fill="none" stroke="#666666" points="0,0 0,-214 135,-214 135,0 0,0"/>
</a>
</g>
</g>
<!-- Node2 -->
<g id="Node000002" class="node">
<title>Node2</title>
<g id="a_Node000002"><a xlink:href="class_l_p_t_1_1_receiver.html" target="_top" xlink:title=" ">
<polygon fill="white" stroke="none" points="103,-344 32,-344 32,-250 103,-250 103,-344"/>
<text text-anchor="start" x="36.75" y="-330.5" font-family="Helvetica,sans-Serif" font-size="10.00">LPT::Receiver</text>
<text text-anchor="start" x="36.5" y="-315.5" font-family="Helvetica,sans-Serif" font-size="10.00">+</text>
<text text-anchor="start" x="47" y="-315.5" font-family="Helvetica,sans-Serif" font-size="10.00">txrx</text>
<text text-anchor="start" x="36.5" y="-300.5" font-family="Helvetica,sans-Serif" font-size="10.00">+</text>
<text text-anchor="start" x="47" y="-300.5" font-family="Helvetica,sans-Serif" font-size="10.00">rx_param_</text>
<text text-anchor="start" x="36.5" y="-285.5" font-family="Helvetica,sans-Serif" font-size="10.00">+</text>
<text text-anchor="start" x="47" y="-285.5" font-family="Helvetica,sans-Serif" font-size="10.00">~Receiver()</text>
<text text-anchor="start" x="36.5" y="-270.5" font-family="Helvetica,sans-Serif" font-size="10.00">+</text>
<text text-anchor="start" x="47" y="-270.5" font-family="Helvetica,sans-Serif" font-size="10.00">GetAgent()</text>
<text text-anchor="start" x="36.5" y="-255.5" font-family="Helvetica,sans-Serif" font-size="10.00">+</text>
<text text-anchor="start" x="47" y="-255.5" font-family="Helvetica,sans-Serif" font-size="10.00">SetAgent()</text>
<polygon fill="#bfbfbf" stroke="#bfbfbf" points="32,-327 32,-327 103,-327 103,-327 32,-327"/>
<polygon fill="#bfbfbf" stroke="#bfbfbf" points="32,-297 32,-297 45,-297 45,-297 32,-297"/>
<polygon fill="#bfbfbf" stroke="#bfbfbf" points="45,-297 45,-297 103,-297 103,-297 45,-297"/>
<polygon fill="none" stroke="#bfbfbf" points="32,-250 32,-344 103,-344 103,-250 32,-250"/>
</a>
</g>
</g>
<!-- Node2&#45;&gt;Node1 -->
<g id="edge1_Node000001_Node000002" class="edge">
<title>Node2&#45;&gt;Node1</title>
<g id="a_edge1_Node000001_Node000002"><a xlink:title=" ">
<path fill="none" stroke="#63b8ff" d="M67.5,-239.18C67.5,-231.01 67.5,-222.4 67.5,-213.65"/>
<polygon fill="none" stroke="#63b8ff" points="64,-239.01 67.5,-249.01 71,-239.01 64,-239.01"/>
</a>
</g>
</g>
<!-- Node3 -->
<g id="Node000003" class="node">
<title>Node3</title>
<g id="a_Node000003"><a xlink:href="class_l_p_t_1_1_i_comm_device.html" target="_top" xlink:title=" ">
<polygon fill="white" stroke="none" points="115,-459 20,-459 20,-380 115,-380 115,-459"/>
<text text-anchor="start" x="24.75" y="-445.5" font-family="Helvetica,sans-Serif" font-size="10.00">LPT::ICommDevice</text>
<text text-anchor="start" x="24.5" y="-430.5" font-family="Helvetica,sans-Serif" font-size="10.00">+</text>
<text text-anchor="start" x="35" y="-430.5" font-family="Helvetica,sans-Serif" font-size="10.00">txrx</text>
<text text-anchor="start" x="24.5" y="-415.5" font-family="Helvetica,sans-Serif" font-size="10.00">+</text>
<text text-anchor="start" x="35" y="-415.5" font-family="Helvetica,sans-Serif" font-size="10.00">~ICommDevice()</text>
<text text-anchor="start" x="24.5" y="-400.5" font-family="Helvetica,sans-Serif" font-size="10.00">+</text>
<text text-anchor="start" x="35" y="-400.5" font-family="Helvetica,sans-Serif" font-size="10.00">GetAgent()</text>
<text text-anchor="start" x="24.5" y="-385.5" font-family="Helvetica,sans-Serif" font-size="10.00">+</text>
<text text-anchor="start" x="35" y="-385.5" font-family="Helvetica,sans-Serif" font-size="10.00">SetAgent()</text>
<polygon fill="#bfbfbf" stroke="#bfbfbf" points="20,-442 20,-442 115,-442 115,-442 20,-442"/>
<polygon fill="#bfbfbf" stroke="#bfbfbf" points="20,-427 20,-427 33,-427 33,-427 20,-427"/>
<polygon fill="#bfbfbf" stroke="#bfbfbf" points="33,-427 33,-427 115,-427 115,-427 33,-427"/>
<polygon fill="none" stroke="#bfbfbf" points="20,-380 20,-459 115,-459 115,-380 20,-380"/>
</a>
</g>
</g>
<!-- Node3&#45;&gt;Node2 -->
<g id="edge2_Node000002_Node000003" class="edge">
<title>Node3&#45;&gt;Node2</title>
<g id="a_edge2_Node000002_Node000003"><a xlink:title=" ">
<path fill="none" stroke="#63b8ff" d="M67.5,-369.18C67.5,-360.74 67.5,-352.01 67.5,-343.67"/>
<polygon fill="none" stroke="#63b8ff" points="64,-369.04 67.5,-379.04 71,-369.04 64,-369.04"/>
</a>
</g>
</g>
</g>
</svg>

<g id="navigator" transform="translate(0 0)" fill="#404254">
  <rect fill="#f2f5e9" fill-opacity="0.5" stroke="#606060" stroke-width=".5" x="0" y="0" width="60" height="60"/>
  <use id="zoomplus" xlink:href="#zoomPlus" x="17" y="9" onmousedown="handleZoom(evt,'in')"/>
  <use id="zoomminus" xlink:href="#zoomMin" x="42" y="9" onmousedown="handleZoom(evt,'out')"/>
  <use id="reset" xlink:href="#resetDef" x="30" y="36" onmousedown="handleReset()"/>
   <use id="arrowup" xlink:href="#arrowUp" x="0" y="0" onmousedown="handlePan(0,-1)"/>
  <use id="arrowright" xlink:href="#arrowRight" x="0" y="0" onmousedown="handlePan(1,0)"/>
  <use id="arrowdown" xlink:href="#arrowDown" x="0" y="0" onmousedown="handlePan(0,1)"/>
  <use id="arrowleft" xlink:href="#arrowLeft" x="0" y="0" onmousedown="handlePan(-1,0)"/>
</g>
<svg viewBox="0 0 15 15" width="100%" height="30px" preserveAspectRatio="xMaxYMin meet">
 <g id="arrow_out" transform="scale(0.3 0.3)">
  <a xlink:href="class_l_p_t_1_1_g_n_s_s_receiver__inherit__graph_org.svg" target="_base">
   <rect id="button" ry="5" rx="5" y="6" x="6" height="38" width="38"
        fill="#f2f5e9" fill-opacity="0.5" stroke="#606060" stroke-width="1.0"/>
   <path id="arrow"
     d="M 11.500037,31.436501 C 11.940474,20.09759 22.043105,11.32322 32.158766,21.979434 L 37.068811,17.246167 C 37.068811,17.246167 37.088388,32 37.088388,32 L 22.160133,31.978069 C 22.160133,31.978069 26.997745,27.140456 26.997745,27.140456 C 18.528582,18.264221 13.291696,25.230495 11.500037,31.436501 z"
     style="fill:#404040;"/>
  </a>
 </g>
</svg>

<style type='text/css'>
<![CDATA[
[data-mouse-over-selected='false'] { opacity: 0.7; }
[data-mouse-over-selected='true']  { opacity: 1.0; }
]]>
</style>
<script type="application/ecmascript"><![CDATA[
document.addEventListener('DOMContentLoaded', (event) => {
  highlightEdges();
  highlightAdjacentNodes();
});
]]></script>
</svg>
