<?xml version="1.0" encoding="UTF-8" standalone="no"?>
<!DOCTYPE svg PUBLIC "-//W3C//DTD SVG 1.1//EN"
 "http://www.w3.org/Graphics/SVG/1.1/DTD/svg11.dtd">
<!-- Generated by graphviz version 8.1.0 (20230707.0739)
 -->
<!-- Title: PyOrbitState Pages: 1 -->
<svg width="123pt" height="512pt"
 viewBox="0.00 0.00 123.00 512.00" xmlns="http://www.w3.org/2000/svg" xmlns:xlink="http://www.w3.org/1999/xlink">
<g id="graph0" class="graph" transform="scale(1 1) rotate(0) translate(4 508)">
<title>PyOrbitState</title>
<!-- Node1 -->
<g id="Node000001" class="node">
<title>Node1</title>
<g id="a_Node000001"><a xlink:title=" ">
<polygon fill="#999999" stroke="none" points="97.5,-94 17.5,-94 17.5,0 97.5,0 97.5,-94"/>
<text text-anchor="start" x="29.38" y="-80.5" font-family="Helvetica,sans-Serif" font-size="10.00">PyOrbitState</text>
<text text-anchor="start" x="56" y="-65.5" font-family="Helvetica,sans-Serif" font-size="10.00"> </text>
<text text-anchor="start" x="21.5" y="-50.5" font-family="Helvetica,sans-Serif" font-size="10.00">+</text>
<text text-anchor="start" x="31.5" y="-50.5" font-family="Helvetica,sans-Serif" font-size="10.00">PyOrbitState()</text>
<text text-anchor="start" x="21.5" y="-35.5" font-family="Helvetica,sans-Serif" font-size="10.00">+</text>
<text text-anchor="start" x="31.5" y="-35.5" font-family="Helvetica,sans-Serif" font-size="10.00">PyOrbitState()</text>
<text text-anchor="start" x="21.5" y="-20.5" font-family="Helvetica,sans-Serif" font-size="10.00">+</text>
<text text-anchor="start" x="31.5" y="-20.5" font-family="Helvetica,sans-Serif" font-size="10.00">Print()</text>
<text text-anchor="start" x="21.5" y="-5.5" font-family="Helvetica,sans-Serif" font-size="10.00">+</text>
<text text-anchor="start" x="31.5" y="-5.5" font-family="Helvetica,sans-Serif" font-size="10.00">Clone()</text>
<polygon fill="#666666" stroke="#666666" points="17.5,-77 17.5,-77 97.5,-77 97.5,-77 17.5,-77"/>
<polygon fill="#666666" stroke="#666666" points="17.5,-62 17.5,-62 97.5,-62 97.5,-62 17.5,-62"/>
<polygon fill="none" stroke="#666666" points="17.5,0 17.5,-94 97.5,-94 97.5,0 17.5,0"/>
</a>
</g>
</g>
<!-- Node2 -->
<g id="Node000002" class="node">
<title>Node2</title>
<g id="a_Node000002"><a xlink:href="class_l_p_t_1_1_orbit_state.html" target="_top" xlink:title=" ">
<polygon fill="white" stroke="none" points="115,-389 0,-389 0,-130 115,-130 115,-389"/>
<text text-anchor="start" x="24.12" y="-375.5" font-family="Helvetica,sans-Serif" font-size="10.00">LPT::OrbitState</text>
<text text-anchor="start" x="4" y="-360.5" font-family="Helvetica,sans-Serif" font-size="10.00">+</text>
<text text-anchor="start" x="14" y="-360.5" font-family="Helvetica,sans-Serif" font-size="10.00">state_size</text>
<text text-anchor="start" x="4" y="-345.5" font-family="Helvetica,sans-Serif" font-size="10.00">+</text>
<text text-anchor="start" x="14" y="-345.5" font-family="Helvetica,sans-Serif" font-size="10.00">OrbitState()</text>
<text text-anchor="start" x="4" y="-330.5" font-family="Helvetica,sans-Serif" font-size="10.00">+</text>
<text text-anchor="start" x="14" y="-330.5" font-family="Helvetica,sans-Serif" font-size="10.00">OrbitState()</text>
<text text-anchor="start" x="4" y="-315.5" font-family="Helvetica,sans-Serif" font-size="10.00">+</text>
<text text-anchor="start" x="14" y="-315.5" font-family="Helvetica,sans-Serif" font-size="10.00">~OrbitState()</text>
<text text-anchor="start" x="4" y="-300.5" font-family="Helvetica,sans-Serif" font-size="10.00">+</text>
<text text-anchor="start" x="14" y="-300.5" font-family="Helvetica,sans-Serif" font-size="10.00">GetVector()</text>
<text text-anchor="start" x="4" y="-285.5" font-family="Helvetica,sans-Serif" font-size="10.00">+</text>
<text text-anchor="start" x="14" y="-285.5" font-family="Helvetica,sans-Serif" font-size="10.00">GetStateSize()</text>
<text text-anchor="start" x="4" y="-270.5" font-family="Helvetica,sans-Serif" font-size="10.00">+</text>
<text text-anchor="start" x="14" y="-270.5" font-family="Helvetica,sans-Serif" font-size="10.00">GetValue()</text>
<text text-anchor="start" x="4" y="-255.5" font-family="Helvetica,sans-Serif" font-size="10.00">+</text>
<text text-anchor="start" x="14" y="-255.5" font-family="Helvetica,sans-Serif" font-size="10.00">GetOrbitStateRepres()</text>
<text text-anchor="start" x="4" y="-240.5" font-family="Helvetica,sans-Serif" font-size="10.00">+</text>
<text text-anchor="start" x="14" y="-240.5" font-family="Helvetica,sans-Serif" font-size="10.00">GetCoordSystem()</text>
<text text-anchor="start" x="4" y="-225.5" font-family="Helvetica,sans-Serif" font-size="10.00">+</text>
<text text-anchor="start" x="14" y="-225.5" font-family="Helvetica,sans-Serif" font-size="10.00">SetValue()</text>
<text text-anchor="start" x="4" y="-210.5" font-family="Helvetica,sans-Serif" font-size="10.00">+</text>
<text text-anchor="start" x="14" y="-210.5" font-family="Helvetica,sans-Serif" font-size="10.00">SetVector()</text>
<text text-anchor="start" x="4" y="-195.5" font-family="Helvetica,sans-Serif" font-size="10.00">+</text>
<text text-anchor="start" x="14" y="-195.5" font-family="Helvetica,sans-Serif" font-size="10.00">SetOrbitStateRepres()</text>
<text text-anchor="start" x="4" y="-180.5" font-family="Helvetica,sans-Serif" font-size="10.00">+</text>
<text text-anchor="start" x="14" y="-180.5" font-family="Helvetica,sans-Serif" font-size="10.00">SetCoordSystem()</text>
<text text-anchor="start" x="4" y="-165.5" font-family="Helvetica,sans-Serif" font-size="10.00">+</text>
<text text-anchor="start" x="14" y="-165.5" font-family="Helvetica,sans-Serif" font-size="10.00">operator()()</text>
<text text-anchor="start" x="4" y="-150.5" font-family="Helvetica,sans-Serif" font-size="10.00">+</text>
<text text-anchor="start" x="14" y="-150.5" font-family="Helvetica,sans-Serif" font-size="10.00">Print()</text>
<text text-anchor="start" x="4" y="-135.5" font-family="Helvetica,sans-Serif" font-size="10.00">+</text>
<text text-anchor="start" x="14" y="-135.5" font-family="Helvetica,sans-Serif" font-size="10.00">Clone()</text>
<polygon fill="#bfbfbf" stroke="#bfbfbf" points="0,-372 0,-372 115,-372 115,-372 0,-372"/>
<polygon fill="#bfbfbf" stroke="#bfbfbf" points="0,-357 0,-357 12,-357 12,-357 0,-357"/>
<polygon fill="#bfbfbf" stroke="#bfbfbf" points="12,-357 12,-357 115,-357 115,-357 12,-357"/>
<polygon fill="none" stroke="#bfbfbf" points="0,-130 0,-389 115,-389 115,-130 0,-130"/>
</a>
</g>
</g>
<!-- Node2&#45;&gt;Node1 -->
<g id="edge1_Node000001_Node000002" class="edge">
<title>Node2&#45;&gt;Node1</title>
<g id="a_edge1_Node000001_Node000002"><a xlink:title=" ">
<path fill="none" stroke="#63b8ff" d="M57.5,-119.56C57.5,-110.54 57.5,-101.9 57.5,-93.93"/>
<polygon fill="none" stroke="#63b8ff" points="54,-119.29 57.5,-129.29 61,-119.29 54,-119.29"/>
</a>
</g>
</g>
<!-- Node3 -->
<g id="Node000003" class="node">
<title>Node3</title>
<g id="a_Node000003"><a xlink:href="class_l_p_t_1_1_i_state.html" target="_top" xlink:title="Interface for States.">
<polygon fill="white" stroke="none" points="98.5,-504 16.5,-504 16.5,-425 98.5,-425 98.5,-504"/>
<text text-anchor="start" x="33.12" y="-490.5" font-family="Helvetica,sans-Serif" font-size="10.00">LPT::IState</text>
<text text-anchor="start" x="56" y="-475.5" font-family="Helvetica,sans-Serif" font-size="10.00"> </text>
<text text-anchor="start" x="20.5" y="-460.5" font-family="Helvetica,sans-Serif" font-size="10.00">+</text>
<text text-anchor="start" x="30.5" y="-460.5" font-family="Helvetica,sans-Serif" font-size="10.00">~IState()</text>
<text text-anchor="start" x="20.5" y="-445.5" font-family="Helvetica,sans-Serif" font-size="10.00">+</text>
<text text-anchor="start" x="30.5" y="-445.5" font-family="Helvetica,sans-Serif" font-size="10.00">GetStateSize()</text>
<text text-anchor="start" x="20.5" y="-430.5" font-family="Helvetica,sans-Serif" font-size="10.00">+</text>
<text text-anchor="start" x="30.5" y="-430.5" font-family="Helvetica,sans-Serif" font-size="10.00">GetValue()</text>
<polygon fill="#666666" stroke="#666666" points="16.5,-487 16.5,-487 98.5,-487 98.5,-487 16.5,-487"/>
<polygon fill="#666666" stroke="#666666" points="16.5,-472 16.5,-472 98.5,-472 98.5,-472 16.5,-472"/>
<polygon fill="none" stroke="#666666" points="16.5,-425 16.5,-504 98.5,-504 98.5,-425 16.5,-425"/>
</a>
</g>
</g>
<!-- Node3&#45;&gt;Node2 -->
<g id="edge2_Node000002_Node000003" class="edge">
<title>Node3&#45;&gt;Node2</title>
<g id="a_edge2_Node000002_Node000003"><a xlink:title=" ">
<path fill="none" stroke="#63b8ff" d="M57.5,-414.36C57.5,-406.31 57.5,-397.65 57.5,-388.69"/>
<polygon fill="none" stroke="#63b8ff" points="54,-414.32 57.5,-424.32 61,-414.32 54,-414.32"/>
</a>
</g>
</g>
</g>
</svg>
