<?xml version="1.0" encoding="UTF-8" standalone="no"?>
<!DOCTYPE svg PUBLIC "-//W3C//DTD SVG 1.1//EN"
 "http://www.w3.org/Graphics/SVG/1.1/DTD/svg11.dtd">
<!-- Generated by graphviz version 8.1.0 (20230707.0739)
 -->
<!-- Title: LPT::Receiver Pages: 1 -->
<svg width="222pt" height="258pt"
 viewBox="0.00 0.00 221.50 258.25" xmlns="http://www.w3.org/2000/svg" xmlns:xlink="http://www.w3.org/1999/xlink">
<g id="graph0" class="graph" transform="scale(1 1) rotate(0) translate(4 254.25)">
<title>LPT::Receiver</title>
<!-- Node1 -->
<g id="Node000001" class="node">
<title>Node1</title>
<g id="a_Node000001"><a xlink:title=" ">
<polygon fill="#999999" stroke="none" points="141,-79 70,-79 70,0 141,0 141,-79"/>
<text text-anchor="start" x="74.75" y="-65.5" font-family="Helvetica,sans-Serif" font-size="10.00">LPT::Receiver</text>
<text text-anchor="start" x="74.5" y="-50.5" font-family="Helvetica,sans-Serif" font-size="10.00">+</text>
<text text-anchor="start" x="85" y="-50.5" font-family="Helvetica,sans-Serif" font-size="10.00">txrx</text>
<text text-anchor="start" x="74.5" y="-35.5" font-family="Helvetica,sans-Serif" font-size="10.00">+</text>
<text text-anchor="start" x="85" y="-35.5" font-family="Helvetica,sans-Serif" font-size="10.00">~Receiver()</text>
<text text-anchor="start" x="74.5" y="-20.5" font-family="Helvetica,sans-Serif" font-size="10.00">+</text>
<text text-anchor="start" x="85" y="-20.5" font-family="Helvetica,sans-Serif" font-size="10.00">GetAgent()</text>
<text text-anchor="start" x="74.5" y="-5.5" font-family="Helvetica,sans-Serif" font-size="10.00">+</text>
<text text-anchor="start" x="85" y="-5.5" font-family="Helvetica,sans-Serif" font-size="10.00">SetAgent()</text>
<polygon fill="#666666" stroke="#666666" points="70,-62 70,-62 141,-62 141,-62 70,-62"/>
<polygon fill="#666666" stroke="#666666" points="70,-47 70,-47 83,-47 83,-47 70,-47"/>
<polygon fill="#666666" stroke="#666666" points="83,-47 83,-47 141,-47 141,-47 83,-47"/>
<polygon fill="none" stroke="#666666" points="70,0 70,-79 141,-79 141,0 70,0"/>
</a>
</g>
</g>
<!-- Node2 -->
<g id="Node000002" class="node">
<title>Node2</title>
<g id="a_Node000002"><a xlink:href="class_l_p_t_1_1_i_comm_device.html" target="_top" xlink:title=" ">
<polygon fill="white" stroke="none" points="95,-227.75 0,-227.75 0,-148.75 95,-148.75 95,-227.75"/>
<text text-anchor="start" x="4.75" y="-214.25" font-family="Helvetica,sans-Serif" font-size="10.00">LPT::ICommDevice</text>
<text text-anchor="start" x="4.5" y="-199.25" font-family="Helvetica,sans-Serif" font-size="10.00">+</text>
<text text-anchor="start" x="15" y="-199.25" font-family="Helvetica,sans-Serif" font-size="10.00">txrx</text>
<text text-anchor="start" x="4.5" y="-184.25" font-family="Helvetica,sans-Serif" font-size="10.00">+</text>
<text text-anchor="start" x="15" y="-184.25" font-family="Helvetica,sans-Serif" font-size="10.00">~ICommDevice()</text>
<text text-anchor="start" x="4.5" y="-169.25" font-family="Helvetica,sans-Serif" font-size="10.00">+</text>
<text text-anchor="start" x="15" y="-169.25" font-family="Helvetica,sans-Serif" font-size="10.00">GetAgent()</text>
<text text-anchor="start" x="4.5" y="-154.25" font-family="Helvetica,sans-Serif" font-size="10.00">+</text>
<text text-anchor="start" x="15" y="-154.25" font-family="Helvetica,sans-Serif" font-size="10.00">SetAgent()</text>
<polygon fill="#bfbfbf" stroke="#bfbfbf" points="0,-210.75 0,-210.75 95,-210.75 95,-210.75 0,-210.75"/>
<polygon fill="#bfbfbf" stroke="#bfbfbf" points="0,-195.75 0,-195.75 13,-195.75 13,-195.75 0,-195.75"/>
<polygon fill="#bfbfbf" stroke="#bfbfbf" points="13,-195.75 13,-195.75 95,-195.75 95,-195.75 13,-195.75"/>
<polygon fill="none" stroke="#bfbfbf" points="0,-148.75 0,-227.75 95,-227.75 95,-148.75 0,-148.75"/>
</a>
</g>
</g>
<!-- Node2&#45;&gt;Node1 -->
<g id="edge1_Node000001_Node000002" class="edge">
<title>Node2&#45;&gt;Node1</title>
<g id="a_edge1_Node000001_Node000002"><a xlink:title=" ">
<path fill="none" stroke="#63b8ff" d="M66.62,-138.88C74.3,-119.43 83.04,-97.32 90.29,-78.99"/>
<polygon fill="none" stroke="#63b8ff" points="63.01,-137.49 62.59,-148.08 69.52,-140.06 63.01,-137.49"/>
</a>
</g>
</g>
<!-- Node3 -->
<g id="Node000003" class="node">
<title>Node3</title>
<g id="a_Node000003"><a xlink:href="struct_l_p_t_1_1_receiver_param.html" target="_top" xlink:title=" ">
<polygon fill="white" stroke="none" points="213.5,-250.25 113.5,-250.25 113.5,-126.25 213.5,-126.25 213.5,-250.25"/>
<text text-anchor="start" x="118.5" y="-236.75" font-family="Helvetica,sans-Serif" font-size="10.00">LPT::ReceiverParam</text>
<text text-anchor="start" x="123" y="-221.75" font-family="Helvetica,sans-Serif" font-size="10.00">+</text>
<text text-anchor="start" x="138.5" y="-221.75" font-family="Helvetica,sans-Serif" font-size="10.00">Ts</text>
<text text-anchor="start" x="123" y="-206.75" font-family="Helvetica,sans-Serif" font-size="10.00">+</text>
<text text-anchor="start" x="138.5" y="-206.75" font-family="Helvetica,sans-Serif" font-size="10.00">Ae</text>
<text text-anchor="start" x="123" y="-191.75" font-family="Helvetica,sans-Serif" font-size="10.00">+</text>
<text text-anchor="start" x="138.5" y="-191.75" font-family="Helvetica,sans-Serif" font-size="10.00">Nf</text>
<text text-anchor="start" x="123" y="-176.75" font-family="Helvetica,sans-Serif" font-size="10.00">+</text>
<text text-anchor="start" x="138.5" y="-176.75" font-family="Helvetica,sans-Serif" font-size="10.00">L</text>
<text text-anchor="start" x="123" y="-161.75" font-family="Helvetica,sans-Serif" font-size="10.00">+</text>
<text text-anchor="start" x="138.5" y="-161.75" font-family="Helvetica,sans-Serif" font-size="10.00">As</text>
<text text-anchor="start" x="123" y="-146.75" font-family="Helvetica,sans-Serif" font-size="10.00">+</text>
<text text-anchor="start" x="138.5" y="-146.75" font-family="Helvetica,sans-Serif" font-size="10.00">CN0threshold</text>
<text text-anchor="start" x="162" y="-131.75" font-family="Helvetica,sans-Serif" font-size="10.00"> </text>
<polygon fill="#bfbfbf" stroke="#bfbfbf" points="113.5,-233.25 113.5,-233.25 213.5,-233.25 213.5,-233.25 113.5,-233.25"/>
<polygon fill="#bfbfbf" stroke="#bfbfbf" points="113.5,-143.25 113.5,-143.25 136.5,-143.25 136.5,-143.25 113.5,-143.25"/>
<polygon fill="#bfbfbf" stroke="#bfbfbf" points="136.5,-143.25 136.5,-143.25 213.5,-143.25 213.5,-143.25 136.5,-143.25"/>
<polygon fill="none" stroke="#bfbfbf" points="113.5,-126.25 113.5,-250.25 213.5,-250.25 213.5,-126.25 113.5,-126.25"/>
</a>
</g>
</g>
<!-- Node3&#45;&gt;Node1 -->
<g id="edge2_Node000001_Node000003" class="edge">
<title>Node3&#45;&gt;Node1</title>
<g id="a_edge2_Node000001_Node000003"><a xlink:title=" ">
<path fill="none" stroke="#63b8ff" d="M139.41,-126.29C134.74,-114.49 129.91,-102.25 125.4,-90.84"/>
<polygon fill="none" stroke="#63b8ff" points="125.4,-90.84 119.47,-86.73 120.99,-79.68 126.91,-83.79 125.4,-90.84"/>
</a>
</g>
<text text-anchor="middle" x="157.88" y="-98.75" font-family="Helvetica,sans-Serif" font-size="10.00" fill="grey"> +rx_param_</text>
</g>
</g>
</svg>
