<?xml version="1.0" encoding="UTF-8" standalone="no"?>
<!DOCTYPE svg PUBLIC "-//W3C//DTD SVG 1.1//EN"
 "http://www.w3.org/Graphics/SVG/1.1/DTD/svg11.dtd">
<!-- Generated by graphviz version 8.1.0 (20230707.0739)
 -->
<!-- Title: LPT::Scheduler Pages: 1 -->
<svg width="120pt" height="102pt"
 viewBox="0.00 0.00 120.00 102.00" xmlns="http://www.w3.org/2000/svg" xmlns:xlink="http://www.w3.org/1999/xlink">
<g id="graph0" class="graph" transform="scale(1 1) rotate(0) translate(4 98)">
<title>LPT::Scheduler</title>
<!-- Node1 -->
<g id="Node000001" class="node">
<title>Node1</title>
<g id="a_Node000001"><a xlink:title=" ">
<polygon fill="#999999" stroke="none" points="112,-94 0,-94 0,0 112,0 112,-94"/>
<text text-anchor="start" x="23" y="-80.5" font-family="Helvetica,sans-Serif" font-size="10.00">LPT::Scheduler</text>
<text text-anchor="start" x="54.5" y="-65.5" font-family="Helvetica,sans-Serif" font-size="10.00"> </text>
<text text-anchor="start" x="4" y="-50.5" font-family="Helvetica,sans-Serif" font-size="10.00">+</text>
<text text-anchor="start" x="14" y="-50.5" font-family="Helvetica,sans-Serif" font-size="10.00">ScheduleEvent()</text>
<text text-anchor="start" x="4" y="-35.5" font-family="Helvetica,sans-Serif" font-size="10.00">+</text>
<text text-anchor="start" x="14" y="-35.5" font-family="Helvetica,sans-Serif" font-size="10.00">ScheduleFunction()</text>
<text text-anchor="start" x="4" y="-20.5" font-family="Helvetica,sans-Serif" font-size="10.00">+</text>
<text text-anchor="start" x="14" y="-20.5" font-family="Helvetica,sans-Serif" font-size="10.00">ScheduleApplication()</text>
<text text-anchor="start" x="4" y="-5.5" font-family="Helvetica,sans-Serif" font-size="10.00">+</text>
<text text-anchor="start" x="14" y="-5.5" font-family="Helvetica,sans-Serif" font-size="10.00">RunSimulation()</text>
<polygon fill="#666666" stroke="#666666" points="0,-77 0,-77 112,-77 112,-77 0,-77"/>
<polygon fill="#666666" stroke="#666666" points="0,-62 0,-62 112,-62 112,-62 0,-62"/>
<polygon fill="none" stroke="#666666" points="0,0 0,-94 112,-94 112,0 0,0"/>
</a>
</g>
</g>
</g>
</svg>
