<?xml version="1.0" encoding="UTF-8" standalone="no"?>
<!DOCTYPE svg PUBLIC "-//W3C//DTD SVG 1.1//EN"
 "http://www.w3.org/Graphics/SVG/1.1/DTD/svg11.dtd">
<!-- Generated by graphviz version 8.1.0 (20230707.0739)
 -->
<!-- Title: LPT::IIntegrator Pages: 1 -->
<svg width="130pt" height="157pt"
 viewBox="0.00 0.00 130.00 157.00" xmlns="http://www.w3.org/2000/svg" xmlns:xlink="http://www.w3.org/1999/xlink">
<g id="graph0" class="graph" transform="scale(1 1) rotate(0) translate(4 153)">
<title>LPT::IIntegrator</title>
<!-- Node1 -->
<g id="Node000001" class="node">
<title>Node1</title>
<g id="a_Node000001"><a xlink:title=" ">
<polygon fill="#999999" stroke="none" points="99,-149 23,-149 23,-85 99,-85 99,-149"/>
<text text-anchor="start" x="27.62" y="-135.5" font-family="Helvetica,sans-Serif" font-size="10.00">LPT::IIntegrator</text>
<text text-anchor="start" x="59.5" y="-120.5" font-family="Helvetica,sans-Serif" font-size="10.00"> </text>
<text text-anchor="start" x="27.5" y="-105.5" font-family="Helvetica,sans-Serif" font-size="10.00">+</text>
<text text-anchor="start" x="38" y="-105.5" font-family="Helvetica,sans-Serif" font-size="10.00">Step()</text>
<text text-anchor="start" x="27.5" y="-90.5" font-family="Helvetica,sans-Serif" font-size="10.00">+</text>
<text text-anchor="start" x="38" y="-90.5" font-family="Helvetica,sans-Serif" font-size="10.00">~IIntegrator()</text>
<polygon fill="#666666" stroke="#666666" points="23,-132 23,-132 99,-132 99,-132 23,-132"/>
<polygon fill="#666666" stroke="#666666" points="23,-117 23,-117 99,-117 99,-117 23,-117"/>
<polygon fill="none" stroke="#666666" points="23,-85 23,-149 99,-149 99,-85 23,-85"/>
</a>
</g>
</g>
<!-- Node2 -->
<g id="Node000002" class="node">
<title>Node2</title>
<g id="a_Node000002"><a xlink:href="class_l_p_t_1_1_r_k4.html" target="_top" xlink:title=" ">
<polygon fill="white" stroke="none" points="52,-49 0,-49 0,0 52,0 52,-49"/>
<text text-anchor="start" x="5" y="-35.5" font-family="Helvetica,sans-Serif" font-size="10.00">LPT::RK4</text>
<text text-anchor="start" x="24.5" y="-20.5" font-family="Helvetica,sans-Serif" font-size="10.00"> </text>
<text text-anchor="start" x="6" y="-5.5" font-family="Helvetica,sans-Serif" font-size="10.00">+</text>
<text text-anchor="start" x="18" y="-5.5" font-family="Helvetica,sans-Serif" font-size="10.00">Step()</text>
<polygon fill="#bfbfbf" stroke="#bfbfbf" points="0,-32 0,-32 52,-32 52,-32 0,-32"/>
<polygon fill="#bfbfbf" stroke="#bfbfbf" points="0,-17 0,-17 52,-17 52,-17 0,-17"/>
<polygon fill="none" stroke="#bfbfbf" points="0,0 0,-49 52,-49 52,0 0,0"/>
</a>
</g>
</g>
<!-- Node1&#45;&gt;Node2 -->
<g id="edge1_Node000001_Node000002" class="edge">
<title>Node1&#45;&gt;Node2</title>
<g id="a_edge1_Node000001_Node000002"><a xlink:title=" ">
<path fill="none" stroke="#63b8ff" d="M45.19,-75.11C41.7,-66.1 38.13,-56.85 35.02,-48.82"/>
<polygon fill="none" stroke="#63b8ff" points="42.18,-76.04 49.05,-84.11 48.71,-73.52 42.18,-76.04"/>
</a>
</g>
</g>
<!-- Node3 -->
<g id="Node000003" class="node">
<title>Node3</title>
<g id="a_Node000003"><a xlink:href="class_l_p_t_1_1_r_k8.html" target="_top" xlink:title=" ">
<polygon fill="white" stroke="none" points="122,-49 70,-49 70,0 122,0 122,-49"/>
<text text-anchor="start" x="75" y="-35.5" font-family="Helvetica,sans-Serif" font-size="10.00">LPT::RK8</text>
<text text-anchor="start" x="94.5" y="-20.5" font-family="Helvetica,sans-Serif" font-size="10.00"> </text>
<text text-anchor="start" x="76" y="-5.5" font-family="Helvetica,sans-Serif" font-size="10.00">+</text>
<text text-anchor="start" x="88" y="-5.5" font-family="Helvetica,sans-Serif" font-size="10.00">Step()</text>
<polygon fill="#bfbfbf" stroke="#bfbfbf" points="70,-32 70,-32 122,-32 122,-32 70,-32"/>
<polygon fill="#bfbfbf" stroke="#bfbfbf" points="70,-17 70,-17 122,-17 122,-17 70,-17"/>
<polygon fill="none" stroke="#bfbfbf" points="70,0 70,-49 122,-49 122,0 70,0"/>
</a>
</g>
</g>
<!-- Node1&#45;&gt;Node3 -->
<g id="edge2_Node000001_Node000003" class="edge">
<title>Node1&#45;&gt;Node3</title>
<g id="a_edge2_Node000001_Node000003"><a xlink:title=" ">
<path fill="none" stroke="#63b8ff" d="M76.81,-75.11C80.3,-66.1 83.87,-56.85 86.98,-48.82"/>
<polygon fill="none" stroke="#63b8ff" points="73.29,-73.52 72.95,-84.11 79.82,-76.04 73.29,-73.52"/>
</a>
</g>
</g>
</g>
</svg>
