<?xml version="1.0" encoding="UTF-8" standalone="no"?>
<!DOCTYPE svg PUBLIC "-//W3C//DTD SVG 1.1//EN"
 "http://www.w3.org/Graphics/SVG/1.1/DTD/svg11.dtd">
<!-- Generated by graphviz version 8.1.0 (20230707.0739)
 -->
<!-- Title: LPT::OrbitState Pages: 1 -->
<svg width="1088pt" height="602pt"
 viewBox="0.00 0.00 1088.00 602.00" xmlns="http://www.w3.org/2000/svg" xmlns:xlink="http://www.w3.org/1999/xlink">
<g id="graph0" class="graph" transform="scale(1 1) rotate(0) translate(4 598)">
<title>LPT::OrbitState</title>
<!-- Node1 -->
<g id="Node000001" class="node">
<title>Node1</title>
<g id="a_Node000001"><a xlink:title=" ">
<polygon fill="#999999" stroke="none" points="584.5,-479 469.5,-479 469.5,-220 584.5,-220 584.5,-479"/>
<text text-anchor="start" x="493.62" y="-465.5" font-family="Helvetica,sans-Serif" font-size="10.00">LPT::OrbitState</text>
<text text-anchor="start" x="473.5" y="-450.5" font-family="Helvetica,sans-Serif" font-size="10.00">+</text>
<text text-anchor="start" x="483.5" y="-450.5" font-family="Helvetica,sans-Serif" font-size="10.00">state_size</text>
<text text-anchor="start" x="473.5" y="-435.5" font-family="Helvetica,sans-Serif" font-size="10.00">+</text>
<text text-anchor="start" x="483.5" y="-435.5" font-family="Helvetica,sans-Serif" font-size="10.00">OrbitState()</text>
<text text-anchor="start" x="473.5" y="-420.5" font-family="Helvetica,sans-Serif" font-size="10.00">+</text>
<text text-anchor="start" x="483.5" y="-420.5" font-family="Helvetica,sans-Serif" font-size="10.00">OrbitState()</text>
<text text-anchor="start" x="473.5" y="-405.5" font-family="Helvetica,sans-Serif" font-size="10.00">+</text>
<text text-anchor="start" x="483.5" y="-405.5" font-family="Helvetica,sans-Serif" font-size="10.00">~OrbitState()</text>
<text text-anchor="start" x="473.5" y="-390.5" font-family="Helvetica,sans-Serif" font-size="10.00">+</text>
<text text-anchor="start" x="483.5" y="-390.5" font-family="Helvetica,sans-Serif" font-size="10.00">GetVector()</text>
<text text-anchor="start" x="473.5" y="-375.5" font-family="Helvetica,sans-Serif" font-size="10.00">+</text>
<text text-anchor="start" x="483.5" y="-375.5" font-family="Helvetica,sans-Serif" font-size="10.00">GetStateSize()</text>
<text text-anchor="start" x="473.5" y="-360.5" font-family="Helvetica,sans-Serif" font-size="10.00">+</text>
<text text-anchor="start" x="483.5" y="-360.5" font-family="Helvetica,sans-Serif" font-size="10.00">GetValue()</text>
<text text-anchor="start" x="473.5" y="-345.5" font-family="Helvetica,sans-Serif" font-size="10.00">+</text>
<text text-anchor="start" x="483.5" y="-345.5" font-family="Helvetica,sans-Serif" font-size="10.00">GetOrbitStateRepres()</text>
<text text-anchor="start" x="473.5" y="-330.5" font-family="Helvetica,sans-Serif" font-size="10.00">+</text>
<text text-anchor="start" x="483.5" y="-330.5" font-family="Helvetica,sans-Serif" font-size="10.00">GetCoordSystem()</text>
<text text-anchor="start" x="473.5" y="-315.5" font-family="Helvetica,sans-Serif" font-size="10.00">+</text>
<text text-anchor="start" x="483.5" y="-315.5" font-family="Helvetica,sans-Serif" font-size="10.00">SetValue()</text>
<text text-anchor="start" x="473.5" y="-300.5" font-family="Helvetica,sans-Serif" font-size="10.00">+</text>
<text text-anchor="start" x="483.5" y="-300.5" font-family="Helvetica,sans-Serif" font-size="10.00">SetVector()</text>
<text text-anchor="start" x="473.5" y="-285.5" font-family="Helvetica,sans-Serif" font-size="10.00">+</text>
<text text-anchor="start" x="483.5" y="-285.5" font-family="Helvetica,sans-Serif" font-size="10.00">SetOrbitStateRepres()</text>
<text text-anchor="start" x="473.5" y="-270.5" font-family="Helvetica,sans-Serif" font-size="10.00">+</text>
<text text-anchor="start" x="483.5" y="-270.5" font-family="Helvetica,sans-Serif" font-size="10.00">SetCoordSystem()</text>
<text text-anchor="start" x="473.5" y="-255.5" font-family="Helvetica,sans-Serif" font-size="10.00">+</text>
<text text-anchor="start" x="483.5" y="-255.5" font-family="Helvetica,sans-Serif" font-size="10.00">operator()()</text>
<text text-anchor="start" x="473.5" y="-240.5" font-family="Helvetica,sans-Serif" font-size="10.00">+</text>
<text text-anchor="start" x="483.5" y="-240.5" font-family="Helvetica,sans-Serif" font-size="10.00">Print()</text>
<text text-anchor="start" x="473.5" y="-225.5" font-family="Helvetica,sans-Serif" font-size="10.00">+</text>
<text text-anchor="start" x="483.5" y="-225.5" font-family="Helvetica,sans-Serif" font-size="10.00">Clone()</text>
<polygon fill="#666666" stroke="#666666" points="469.5,-462 469.5,-462 584.5,-462 584.5,-462 469.5,-462"/>
<polygon fill="#666666" stroke="#666666" points="469.5,-447 469.5,-447 481.5,-447 481.5,-447 469.5,-447"/>
<polygon fill="#666666" stroke="#666666" points="481.5,-447 481.5,-447 584.5,-447 584.5,-447 481.5,-447"/>
<polygon fill="none" stroke="#666666" points="469.5,-220 469.5,-479 584.5,-479 584.5,-220 469.5,-220"/>
</a>
</g>
</g>
<!-- Node3 -->
<g id="Node000003" class="node">
<title>Node3</title>
<g id="a_Node000003"><a xlink:href="class_l_p_t_1_1_cartesian_orbit_state.html" target="_top" xlink:title=" ">
<polygon fill="white" stroke="none" points="118,-161.5 0,-161.5 0,-22.5 118,-22.5 118,-161.5"/>
<text text-anchor="start" x="4.62" y="-148" font-family="Helvetica,sans-Serif" font-size="10.00">LPT::CartesianOrbitState</text>
<text text-anchor="start" x="57.5" y="-133" font-family="Helvetica,sans-Serif" font-size="10.00"> </text>
<text text-anchor="start" x="6" y="-118" font-family="Helvetica,sans-Serif" font-size="10.00">+</text>
<text text-anchor="start" x="18" y="-118" font-family="Helvetica,sans-Serif" font-size="10.00">CartesianOrbitState()</text>
<text text-anchor="start" x="6" y="-103" font-family="Helvetica,sans-Serif" font-size="10.00">+</text>
<text text-anchor="start" x="18" y="-103" font-family="Helvetica,sans-Serif" font-size="10.00">Print()</text>
<text text-anchor="start" x="6" y="-88" font-family="Helvetica,sans-Serif" font-size="10.00">+</text>
<text text-anchor="start" x="18" y="-88" font-family="Helvetica,sans-Serif" font-size="10.00">Clone()</text>
<text text-anchor="start" x="6" y="-73" font-family="Helvetica,sans-Serif" font-size="10.00">+</text>
<text text-anchor="start" x="18" y="-73" font-family="Helvetica,sans-Serif" font-size="10.00">r()</text>
<text text-anchor="start" x="6" y="-58" font-family="Helvetica,sans-Serif" font-size="10.00">+</text>
<text text-anchor="start" x="18" y="-58" font-family="Helvetica,sans-Serif" font-size="10.00">v()</text>
<text text-anchor="start" x="6" y="-43" font-family="Helvetica,sans-Serif" font-size="10.00">+</text>
<text text-anchor="start" x="18" y="-43" font-family="Helvetica,sans-Serif" font-size="10.00">Set_r()</text>
<text text-anchor="start" x="6" y="-28" font-family="Helvetica,sans-Serif" font-size="10.00">+</text>
<text text-anchor="start" x="18" y="-28" font-family="Helvetica,sans-Serif" font-size="10.00">Set_v()</text>
<polygon fill="#bfbfbf" stroke="#bfbfbf" points="0,-144.5 0,-144.5 118,-144.5 118,-144.5 0,-144.5"/>
<polygon fill="#bfbfbf" stroke="#bfbfbf" points="0,-129.5 0,-129.5 118,-129.5 118,-129.5 0,-129.5"/>
<polygon fill="none" stroke="#bfbfbf" points="0,-22.5 0,-161.5 118,-161.5 118,-22.5 0,-22.5"/>
</a>
</g>
</g>
<!-- Node1&#45;&gt;Node3 -->
<g id="edge2_Node000001_Node000003" class="edge">
<title>Node1&#45;&gt;Node3</title>
<g id="a_edge2_Node000001_Node000003"><a xlink:title=" ">
<path fill="none" stroke="#63b8ff" d="M459.23,-332.61C374.78,-310.27 229.14,-263.21 127,-184 118.58,-177.47 110.69,-169.65 103.48,-161.37"/>
<polygon fill="none" stroke="#63b8ff" points="458.16,-336.21 468.72,-335.34 459.93,-329.43 458.16,-336.21"/>
</a>
</g>
</g>
<!-- Node4 -->
<g id="Node000004" class="node">
<title>Node4</title>
<g id="a_Node000004"><a xlink:href="class_l_p_t_1_1_classical_o_e.html" target="_top" xlink:title=" ">
<polygon fill="white" stroke="none" points="232,-184 136,-184 136,0 232,0 232,-184"/>
<text text-anchor="start" x="145.38" y="-170.5" font-family="Helvetica,sans-Serif" font-size="10.00">LPT::ClassicalOE</text>
<text text-anchor="start" x="182.5" y="-155.5" font-family="Helvetica,sans-Serif" font-size="10.00"> </text>
<text text-anchor="start" x="140" y="-140.5" font-family="Helvetica,sans-Serif" font-size="10.00">+</text>
<text text-anchor="start" x="150" y="-140.5" font-family="Helvetica,sans-Serif" font-size="10.00">ClassicalOE()</text>
<text text-anchor="start" x="140" y="-125.5" font-family="Helvetica,sans-Serif" font-size="10.00">+</text>
<text text-anchor="start" x="150" y="-125.5" font-family="Helvetica,sans-Serif" font-size="10.00">ClassicalOE()</text>
<text text-anchor="start" x="140" y="-110.5" font-family="Helvetica,sans-Serif" font-size="10.00">+</text>
<text text-anchor="start" x="150" y="-110.5" font-family="Helvetica,sans-Serif" font-size="10.00">Print()</text>
<text text-anchor="start" x="140" y="-95.5" font-family="Helvetica,sans-Serif" font-size="10.00">+</text>
<text text-anchor="start" x="150" y="-95.5" font-family="Helvetica,sans-Serif" font-size="10.00">Clone()</text>
<text text-anchor="start" x="140" y="-80.5" font-family="Helvetica,sans-Serif" font-size="10.00">+</text>
<text text-anchor="start" x="150" y="-80.5" font-family="Helvetica,sans-Serif" font-size="10.00">GETSET_ELEM()</text>
<text text-anchor="start" x="140" y="-65.5" font-family="Helvetica,sans-Serif" font-size="10.00">+</text>
<text text-anchor="start" x="150" y="-65.5" font-family="Helvetica,sans-Serif" font-size="10.00">GETSET_ELEM()</text>
<text text-anchor="start" x="140" y="-50.5" font-family="Helvetica,sans-Serif" font-size="10.00">+</text>
<text text-anchor="start" x="150" y="-50.5" font-family="Helvetica,sans-Serif" font-size="10.00">GETSET_ELEM()</text>
<text text-anchor="start" x="140" y="-35.5" font-family="Helvetica,sans-Serif" font-size="10.00">+</text>
<text text-anchor="start" x="150" y="-35.5" font-family="Helvetica,sans-Serif" font-size="10.00">GETSET_ELEM()</text>
<text text-anchor="start" x="140" y="-20.5" font-family="Helvetica,sans-Serif" font-size="10.00">+</text>
<text text-anchor="start" x="150" y="-20.5" font-family="Helvetica,sans-Serif" font-size="10.00">GETSET_ELEM()</text>
<text text-anchor="start" x="140" y="-5.5" font-family="Helvetica,sans-Serif" font-size="10.00">+</text>
<text text-anchor="start" x="150" y="-5.5" font-family="Helvetica,sans-Serif" font-size="10.00">GETSET_ELEM()</text>
<polygon fill="#bfbfbf" stroke="#bfbfbf" points="136,-167 136,-167 232,-167 232,-167 136,-167"/>
<polygon fill="#bfbfbf" stroke="#bfbfbf" points="136,-152 136,-152 232,-152 232,-152 136,-152"/>
<polygon fill="none" stroke="#bfbfbf" points="136,0 136,-184 232,-184 232,0 136,0"/>
</a>
</g>
</g>
<!-- Node1&#45;&gt;Node4 -->
<g id="edge3_Node000001_Node000004" class="edge">
<title>Node1&#45;&gt;Node4</title>
<g id="a_edge3_Node000001_Node000004"><a xlink:title=" ">
<path fill="none" stroke="#63b8ff" d="M459.81,-321.26C397.66,-293.6 305.42,-246.04 241,-184 237.78,-180.9 234.66,-177.57 231.65,-174.1"/>
<polygon fill="none" stroke="#63b8ff" points="457.96,-324.71 468.52,-325.53 460.77,-318.3 457.96,-324.71"/>
</a>
</g>
</g>
<!-- Node5 -->
<g id="Node000005" class="node">
<title>Node5</title>
<g id="a_Node000005"><a xlink:href="class_l_p_t_1_1_delaunay_o_e.html" target="_top" xlink:title=" ">
<polygon fill="white" stroke="none" points="346,-184 250,-184 250,0 346,0 346,-184"/>
<text text-anchor="start" x="259" y="-170.5" font-family="Helvetica,sans-Serif" font-size="10.00">LPT::DelaunayOE</text>
<text text-anchor="start" x="296.5" y="-155.5" font-family="Helvetica,sans-Serif" font-size="10.00"> </text>
<text text-anchor="start" x="254" y="-140.5" font-family="Helvetica,sans-Serif" font-size="10.00">+</text>
<text text-anchor="start" x="264" y="-140.5" font-family="Helvetica,sans-Serif" font-size="10.00">DelaunayOE()</text>
<text text-anchor="start" x="254" y="-125.5" font-family="Helvetica,sans-Serif" font-size="10.00">+</text>
<text text-anchor="start" x="264" y="-125.5" font-family="Helvetica,sans-Serif" font-size="10.00">DelaunayOE()</text>
<text text-anchor="start" x="254" y="-110.5" font-family="Helvetica,sans-Serif" font-size="10.00">+</text>
<text text-anchor="start" x="264" y="-110.5" font-family="Helvetica,sans-Serif" font-size="10.00">Print()</text>
<text text-anchor="start" x="254" y="-95.5" font-family="Helvetica,sans-Serif" font-size="10.00">+</text>
<text text-anchor="start" x="264" y="-95.5" font-family="Helvetica,sans-Serif" font-size="10.00">Clone()</text>
<text text-anchor="start" x="254" y="-80.5" font-family="Helvetica,sans-Serif" font-size="10.00">+</text>
<text text-anchor="start" x="264" y="-80.5" font-family="Helvetica,sans-Serif" font-size="10.00">GETSET_ELEM()</text>
<text text-anchor="start" x="254" y="-65.5" font-family="Helvetica,sans-Serif" font-size="10.00">+</text>
<text text-anchor="start" x="264" y="-65.5" font-family="Helvetica,sans-Serif" font-size="10.00">GETSET_ELEM()</text>
<text text-anchor="start" x="254" y="-50.5" font-family="Helvetica,sans-Serif" font-size="10.00">+</text>
<text text-anchor="start" x="264" y="-50.5" font-family="Helvetica,sans-Serif" font-size="10.00">GETSET_ELEM()</text>
<text text-anchor="start" x="254" y="-35.5" font-family="Helvetica,sans-Serif" font-size="10.00">+</text>
<text text-anchor="start" x="264" y="-35.5" font-family="Helvetica,sans-Serif" font-size="10.00">GETSET_ELEM()</text>
<text text-anchor="start" x="254" y="-20.5" font-family="Helvetica,sans-Serif" font-size="10.00">+</text>
<text text-anchor="start" x="264" y="-20.5" font-family="Helvetica,sans-Serif" font-size="10.00">GETSET_ELEM()</text>
<text text-anchor="start" x="254" y="-5.5" font-family="Helvetica,sans-Serif" font-size="10.00">+</text>
<text text-anchor="start" x="264" y="-5.5" font-family="Helvetica,sans-Serif" font-size="10.00">GETSET_ELEM()</text>
<polygon fill="#bfbfbf" stroke="#bfbfbf" points="250,-167 250,-167 346,-167 346,-167 250,-167"/>
<polygon fill="#bfbfbf" stroke="#bfbfbf" points="250,-152 250,-152 346,-152 346,-152 250,-152"/>
<polygon fill="none" stroke="#bfbfbf" points="250,0 250,-184 346,-184 346,0 250,0"/>
</a>
</g>
</g>
<!-- Node1&#45;&gt;Node5 -->
<g id="edge4_Node000001_Node000005" class="edge">
<title>Node1&#45;&gt;Node5</title>
<g id="a_edge4_Node000001_Node000005"><a xlink:title=" ">
<path fill="none" stroke="#63b8ff" d="M461.68,-293.09C427.84,-262.7 387.01,-223.3 355,-184 351.94,-180.24 348.91,-176.31 345.94,-172.28"/>
<polygon fill="none" stroke="#63b8ff" points="458.88,-295.18 468.68,-299.22 463.54,-289.95 458.88,-295.18"/>
</a>
</g>
</g>
<!-- Node6 -->
<g id="Node000006" class="node">
<title>Node6</title>
<g id="a_Node000006"><a xlink:href="class_l_p_t_1_1_equinoctial_o_e.html" target="_top" xlink:title=" ">
<polygon fill="white" stroke="none" points="460,-184 364,-184 364,0 460,0 460,-184"/>
<text text-anchor="start" x="369.62" y="-170.5" font-family="Helvetica,sans-Serif" font-size="10.00">LPT::EquinoctialOE</text>
<text text-anchor="start" x="410.5" y="-155.5" font-family="Helvetica,sans-Serif" font-size="10.00"> </text>
<text text-anchor="start" x="368" y="-140.5" font-family="Helvetica,sans-Serif" font-size="10.00">+</text>
<text text-anchor="start" x="378" y="-140.5" font-family="Helvetica,sans-Serif" font-size="10.00">EquinoctialOE()</text>
<text text-anchor="start" x="368" y="-125.5" font-family="Helvetica,sans-Serif" font-size="10.00">+</text>
<text text-anchor="start" x="378" y="-125.5" font-family="Helvetica,sans-Serif" font-size="10.00">EquinoctialOE()</text>
<text text-anchor="start" x="368" y="-110.5" font-family="Helvetica,sans-Serif" font-size="10.00">+</text>
<text text-anchor="start" x="378" y="-110.5" font-family="Helvetica,sans-Serif" font-size="10.00">Print()</text>
<text text-anchor="start" x="368" y="-95.5" font-family="Helvetica,sans-Serif" font-size="10.00">+</text>
<text text-anchor="start" x="378" y="-95.5" font-family="Helvetica,sans-Serif" font-size="10.00">Clone()</text>
<text text-anchor="start" x="368" y="-80.5" font-family="Helvetica,sans-Serif" font-size="10.00">+</text>
<text text-anchor="start" x="378" y="-80.5" font-family="Helvetica,sans-Serif" font-size="10.00">GETSET_ELEM()</text>
<text text-anchor="start" x="368" y="-65.5" font-family="Helvetica,sans-Serif" font-size="10.00">+</text>
<text text-anchor="start" x="378" y="-65.5" font-family="Helvetica,sans-Serif" font-size="10.00">GETSET_ELEM()</text>
<text text-anchor="start" x="368" y="-50.5" font-family="Helvetica,sans-Serif" font-size="10.00">+</text>
<text text-anchor="start" x="378" y="-50.5" font-family="Helvetica,sans-Serif" font-size="10.00">GETSET_ELEM()</text>
<text text-anchor="start" x="368" y="-35.5" font-family="Helvetica,sans-Serif" font-size="10.00">+</text>
<text text-anchor="start" x="378" y="-35.5" font-family="Helvetica,sans-Serif" font-size="10.00">GETSET_ELEM()</text>
<text text-anchor="start" x="368" y="-20.5" font-family="Helvetica,sans-Serif" font-size="10.00">+</text>
<text text-anchor="start" x="378" y="-20.5" font-family="Helvetica,sans-Serif" font-size="10.00">GETSET_ELEM()</text>
<text text-anchor="start" x="368" y="-5.5" font-family="Helvetica,sans-Serif" font-size="10.00">+</text>
<text text-anchor="start" x="378" y="-5.5" font-family="Helvetica,sans-Serif" font-size="10.00">GETSET_ELEM()</text>
<polygon fill="#bfbfbf" stroke="#bfbfbf" points="364,-167 364,-167 460,-167 460,-167 364,-167"/>
<polygon fill="#bfbfbf" stroke="#bfbfbf" points="364,-152 364,-152 460,-152 460,-152 364,-152"/>
<polygon fill="none" stroke="#bfbfbf" points="364,0 364,-184 460,-184 460,0 364,0"/>
</a>
</g>
</g>
<!-- Node1&#45;&gt;Node6 -->
<g id="edge5_Node000001_Node000006" class="edge">
<title>Node1&#45;&gt;Node6</title>
<g id="a_edge5_Node000001_Node000006"><a xlink:title=" ">
<path fill="none" stroke="#63b8ff" d="M465.03,-210.82C460.92,-201.68 456.83,-192.61 452.87,-183.8"/>
<polygon fill="none" stroke="#63b8ff" points="462.2,-212.07 469.5,-219.75 468.59,-209.19 462.2,-212.07"/>
</a>
</g>
</g>
<!-- Node7 -->
<g id="Node000007" class="node">
<title>Node7</title>
<g id="a_Node000007"><a xlink:href="class_l_p_t_1_1_nonsingular_o_e.html" target="_top" xlink:title=" ">
<polygon fill="white" stroke="none" points="576,-184 478,-184 478,0 576,0 576,-184"/>
<text text-anchor="start" x="482.75" y="-170.5" font-family="Helvetica,sans-Serif" font-size="10.00">LPT::NonsingularOE</text>
<text text-anchor="start" x="525.5" y="-155.5" font-family="Helvetica,sans-Serif" font-size="10.00"> </text>
<text text-anchor="start" x="482.5" y="-140.5" font-family="Helvetica,sans-Serif" font-size="10.00">+</text>
<text text-anchor="start" x="493" y="-140.5" font-family="Helvetica,sans-Serif" font-size="10.00">NonsingularOE()</text>
<text text-anchor="start" x="482.5" y="-125.5" font-family="Helvetica,sans-Serif" font-size="10.00">+</text>
<text text-anchor="start" x="493" y="-125.5" font-family="Helvetica,sans-Serif" font-size="10.00">NonsingularOE()</text>
<text text-anchor="start" x="482.5" y="-110.5" font-family="Helvetica,sans-Serif" font-size="10.00">+</text>
<text text-anchor="start" x="493" y="-110.5" font-family="Helvetica,sans-Serif" font-size="10.00">Print()</text>
<text text-anchor="start" x="482.5" y="-95.5" font-family="Helvetica,sans-Serif" font-size="10.00">+</text>
<text text-anchor="start" x="493" y="-95.5" font-family="Helvetica,sans-Serif" font-size="10.00">Clone()</text>
<text text-anchor="start" x="482.5" y="-80.5" font-family="Helvetica,sans-Serif" font-size="10.00">+</text>
<text text-anchor="start" x="493" y="-80.5" font-family="Helvetica,sans-Serif" font-size="10.00">GETSET_ELEM()</text>
<text text-anchor="start" x="482.5" y="-65.5" font-family="Helvetica,sans-Serif" font-size="10.00">+</text>
<text text-anchor="start" x="493" y="-65.5" font-family="Helvetica,sans-Serif" font-size="10.00">GETSET_ELEM()</text>
<text text-anchor="start" x="482.5" y="-50.5" font-family="Helvetica,sans-Serif" font-size="10.00">+</text>
<text text-anchor="start" x="493" y="-50.5" font-family="Helvetica,sans-Serif" font-size="10.00">GETSET_ELEM()</text>
<text text-anchor="start" x="482.5" y="-35.5" font-family="Helvetica,sans-Serif" font-size="10.00">+</text>
<text text-anchor="start" x="493" y="-35.5" font-family="Helvetica,sans-Serif" font-size="10.00">GETSET_ELEM()</text>
<text text-anchor="start" x="482.5" y="-20.5" font-family="Helvetica,sans-Serif" font-size="10.00">+</text>
<text text-anchor="start" x="493" y="-20.5" font-family="Helvetica,sans-Serif" font-size="10.00">GETSET_ELEM()</text>
<text text-anchor="start" x="482.5" y="-5.5" font-family="Helvetica,sans-Serif" font-size="10.00">+</text>
<text text-anchor="start" x="493" y="-5.5" font-family="Helvetica,sans-Serif" font-size="10.00">GETSET_ELEM()</text>
<polygon fill="#bfbfbf" stroke="#bfbfbf" points="478,-167 478,-167 576,-167 576,-167 478,-167"/>
<polygon fill="#bfbfbf" stroke="#bfbfbf" points="478,-152 478,-152 576,-152 576,-152 478,-152"/>
<polygon fill="none" stroke="#bfbfbf" points="478,0 478,-184 576,-184 576,0 478,0"/>
</a>
</g>
</g>
<!-- Node1&#45;&gt;Node7 -->
<g id="edge6_Node000001_Node000007" class="edge">
<title>Node1&#45;&gt;Node7</title>
<g id="a_edge6_Node000001_Node000007"><a xlink:title=" ">
<path fill="none" stroke="#63b8ff" d="M527,-209.17C527,-200.64 527,-192.18 527,-183.94"/>
<polygon fill="none" stroke="#63b8ff" points="523.5,-209 527,-219 530.5,-209 523.5,-209"/>
</a>
</g>
</g>
<!-- Node8 -->
<g id="Node000008" class="node">
<title>Node8</title>
<g id="a_Node000008"><a xlink:href="class_l_p_t_1_1_quasi_nonsingular_o_e.html" target="_top" xlink:title=" ">
<polygon fill="white" stroke="none" points="718,-184 594,-184 594,0 718,0 718,-184"/>
<text text-anchor="start" x="599" y="-170.5" font-family="Helvetica,sans-Serif" font-size="10.00">LPT::QuasiNonsingularOE</text>
<text text-anchor="start" x="654.5" y="-155.5" font-family="Helvetica,sans-Serif" font-size="10.00"> </text>
<text text-anchor="start" x="600" y="-140.5" font-family="Helvetica,sans-Serif" font-size="10.00">+</text>
<text text-anchor="start" x="612" y="-140.5" font-family="Helvetica,sans-Serif" font-size="10.00">QuasiNonsingularOE()</text>
<text text-anchor="start" x="600" y="-125.5" font-family="Helvetica,sans-Serif" font-size="10.00">+</text>
<text text-anchor="start" x="612" y="-125.5" font-family="Helvetica,sans-Serif" font-size="10.00">QuasiNonsingularOE()</text>
<text text-anchor="start" x="600" y="-110.5" font-family="Helvetica,sans-Serif" font-size="10.00">+</text>
<text text-anchor="start" x="612" y="-110.5" font-family="Helvetica,sans-Serif" font-size="10.00">Print()</text>
<text text-anchor="start" x="600" y="-95.5" font-family="Helvetica,sans-Serif" font-size="10.00">+</text>
<text text-anchor="start" x="612" y="-95.5" font-family="Helvetica,sans-Serif" font-size="10.00">Clone()</text>
<text text-anchor="start" x="600" y="-80.5" font-family="Helvetica,sans-Serif" font-size="10.00">+</text>
<text text-anchor="start" x="612" y="-80.5" font-family="Helvetica,sans-Serif" font-size="10.00">GETSET_ELEM()</text>
<text text-anchor="start" x="600" y="-65.5" font-family="Helvetica,sans-Serif" font-size="10.00">+</text>
<text text-anchor="start" x="612" y="-65.5" font-family="Helvetica,sans-Serif" font-size="10.00">GETSET_ELEM()</text>
<text text-anchor="start" x="600" y="-50.5" font-family="Helvetica,sans-Serif" font-size="10.00">+</text>
<text text-anchor="start" x="612" y="-50.5" font-family="Helvetica,sans-Serif" font-size="10.00">GETSET_ELEM()</text>
<text text-anchor="start" x="600" y="-35.5" font-family="Helvetica,sans-Serif" font-size="10.00">+</text>
<text text-anchor="start" x="612" y="-35.5" font-family="Helvetica,sans-Serif" font-size="10.00">GETSET_ELEM()</text>
<text text-anchor="start" x="600" y="-20.5" font-family="Helvetica,sans-Serif" font-size="10.00">+</text>
<text text-anchor="start" x="612" y="-20.5" font-family="Helvetica,sans-Serif" font-size="10.00">GETSET_ELEM()</text>
<text text-anchor="start" x="600" y="-5.5" font-family="Helvetica,sans-Serif" font-size="10.00">+</text>
<text text-anchor="start" x="612" y="-5.5" font-family="Helvetica,sans-Serif" font-size="10.00">GETSET_ELEM()</text>
<polygon fill="#bfbfbf" stroke="#bfbfbf" points="594,-167 594,-167 718,-167 718,-167 594,-167"/>
<polygon fill="#bfbfbf" stroke="#bfbfbf" points="594,-152 594,-152 718,-152 718,-152 594,-152"/>
<polygon fill="none" stroke="#bfbfbf" points="594,0 594,-184 718,-184 718,0 594,0"/>
</a>
</g>
</g>
<!-- Node1&#45;&gt;Node8 -->
<g id="edge7_Node000001_Node000008" class="edge">
<title>Node1&#45;&gt;Node8</title>
<g id="a_edge7_Node000001_Node000008"><a xlink:title=" ">
<path fill="none" stroke="#63b8ff" d="M589.19,-225.32C596.22,-211.39 603.29,-197.39 610.07,-183.98"/>
<polygon fill="none" stroke="#63b8ff" points="585.72,-223.44 584.33,-233.95 591.96,-226.6 585.72,-223.44"/>
</a>
</g>
</g>
<!-- Node9 -->
<g id="Node000009" class="node">
<title>Node9</title>
<g id="a_Node000009"><a xlink:href="class_l_p_t_1_1_quasi_nonsingular_r_o_e.html" target="_top" xlink:title=" ">
<polygon fill="white" stroke="none" points="867.5,-184 736.5,-184 736.5,0 867.5,0 867.5,-184"/>
<text text-anchor="start" x="741.25" y="-170.5" font-family="Helvetica,sans-Serif" font-size="10.00">LPT::QuasiNonsingularROE</text>
<text text-anchor="start" x="800.5" y="-155.5" font-family="Helvetica,sans-Serif" font-size="10.00"> </text>
<text text-anchor="start" x="742.5" y="-140.5" font-family="Helvetica,sans-Serif" font-size="10.00">+</text>
<text text-anchor="start" x="754.5" y="-140.5" font-family="Helvetica,sans-Serif" font-size="10.00">QuasiNonsingularROE()</text>
<text text-anchor="start" x="742.5" y="-125.5" font-family="Helvetica,sans-Serif" font-size="10.00">+</text>
<text text-anchor="start" x="754.5" y="-125.5" font-family="Helvetica,sans-Serif" font-size="10.00">QuasiNonsingularROE()</text>
<text text-anchor="start" x="742.5" y="-110.5" font-family="Helvetica,sans-Serif" font-size="10.00">+</text>
<text text-anchor="start" x="754.5" y="-110.5" font-family="Helvetica,sans-Serif" font-size="10.00">Print()</text>
<text text-anchor="start" x="742.5" y="-95.5" font-family="Helvetica,sans-Serif" font-size="10.00">+</text>
<text text-anchor="start" x="754.5" y="-95.5" font-family="Helvetica,sans-Serif" font-size="10.00">Clone()</text>
<text text-anchor="start" x="742.5" y="-80.5" font-family="Helvetica,sans-Serif" font-size="10.00">+</text>
<text text-anchor="start" x="754.5" y="-80.5" font-family="Helvetica,sans-Serif" font-size="10.00">GETSET_ELEM()</text>
<text text-anchor="start" x="742.5" y="-65.5" font-family="Helvetica,sans-Serif" font-size="10.00">+</text>
<text text-anchor="start" x="754.5" y="-65.5" font-family="Helvetica,sans-Serif" font-size="10.00">GETSET_ELEM()</text>
<text text-anchor="start" x="742.5" y="-50.5" font-family="Helvetica,sans-Serif" font-size="10.00">+</text>
<text text-anchor="start" x="754.5" y="-50.5" font-family="Helvetica,sans-Serif" font-size="10.00">GETSET_ELEM()</text>
<text text-anchor="start" x="742.5" y="-35.5" font-family="Helvetica,sans-Serif" font-size="10.00">+</text>
<text text-anchor="start" x="754.5" y="-35.5" font-family="Helvetica,sans-Serif" font-size="10.00">GETSET_ELEM()</text>
<text text-anchor="start" x="742.5" y="-20.5" font-family="Helvetica,sans-Serif" font-size="10.00">+</text>
<text text-anchor="start" x="754.5" y="-20.5" font-family="Helvetica,sans-Serif" font-size="10.00">GETSET_ELEM()</text>
<text text-anchor="start" x="742.5" y="-5.5" font-family="Helvetica,sans-Serif" font-size="10.00">+</text>
<text text-anchor="start" x="754.5" y="-5.5" font-family="Helvetica,sans-Serif" font-size="10.00">GETSET_ELEM()</text>
<polygon fill="#bfbfbf" stroke="#bfbfbf" points="736.5,-167 736.5,-167 867.5,-167 867.5,-167 736.5,-167"/>
<polygon fill="#bfbfbf" stroke="#bfbfbf" points="736.5,-152 736.5,-152 867.5,-152 867.5,-152 736.5,-152"/>
<polygon fill="none" stroke="#bfbfbf" points="736.5,0 736.5,-184 867.5,-184 867.5,0 736.5,0"/>
</a>
</g>
</g>
<!-- Node1&#45;&gt;Node9 -->
<g id="edge8_Node000001_Node000009" class="edge">
<title>Node1&#45;&gt;Node9</title>
<g id="a_edge8_Node000001_Node000009"><a xlink:title=" ">
<path fill="none" stroke="#63b8ff" d="M592.92,-299.5C633.29,-268.26 685.07,-225.89 727,-184 730.19,-180.82 733.38,-177.51 736.55,-174.12"/>
<polygon fill="none" stroke="#63b8ff" points="591.02,-297.32 585.23,-306.2 595.29,-302.87 591.02,-297.32"/>
</a>
</g>
</g>
<!-- Node10 -->
<g id="Node000010" class="node">
<title>Node10</title>
<g id="a_Node000010"><a xlink:href="class_l_p_t_1_1_singular_r_o_e.html" target="_top" xlink:title=" ">
<polygon fill="white" stroke="none" points="982,-184 886,-184 886,0 982,0 982,-184"/>
<text text-anchor="start" x="894.25" y="-170.5" font-family="Helvetica,sans-Serif" font-size="10.00">LPT::SingularROE</text>
<text text-anchor="start" x="932.5" y="-155.5" font-family="Helvetica,sans-Serif" font-size="10.00"> </text>
<text text-anchor="start" x="890" y="-140.5" font-family="Helvetica,sans-Serif" font-size="10.00">+</text>
<text text-anchor="start" x="900" y="-140.5" font-family="Helvetica,sans-Serif" font-size="10.00">SingularROE()</text>
<text text-anchor="start" x="890" y="-125.5" font-family="Helvetica,sans-Serif" font-size="10.00">+</text>
<text text-anchor="start" x="900" y="-125.5" font-family="Helvetica,sans-Serif" font-size="10.00">SingularROE()</text>
<text text-anchor="start" x="890" y="-110.5" font-family="Helvetica,sans-Serif" font-size="10.00">+</text>
<text text-anchor="start" x="900" y="-110.5" font-family="Helvetica,sans-Serif" font-size="10.00">Print()</text>
<text text-anchor="start" x="890" y="-95.5" font-family="Helvetica,sans-Serif" font-size="10.00">+</text>
<text text-anchor="start" x="900" y="-95.5" font-family="Helvetica,sans-Serif" font-size="10.00">Clone()</text>
<text text-anchor="start" x="890" y="-80.5" font-family="Helvetica,sans-Serif" font-size="10.00">+</text>
<text text-anchor="start" x="900" y="-80.5" font-family="Helvetica,sans-Serif" font-size="10.00">GETSET_ELEM()</text>
<text text-anchor="start" x="890" y="-65.5" font-family="Helvetica,sans-Serif" font-size="10.00">+</text>
<text text-anchor="start" x="900" y="-65.5" font-family="Helvetica,sans-Serif" font-size="10.00">GETSET_ELEM()</text>
<text text-anchor="start" x="890" y="-50.5" font-family="Helvetica,sans-Serif" font-size="10.00">+</text>
<text text-anchor="start" x="900" y="-50.5" font-family="Helvetica,sans-Serif" font-size="10.00">GETSET_ELEM()</text>
<text text-anchor="start" x="890" y="-35.5" font-family="Helvetica,sans-Serif" font-size="10.00">+</text>
<text text-anchor="start" x="900" y="-35.5" font-family="Helvetica,sans-Serif" font-size="10.00">GETSET_ELEM()</text>
<text text-anchor="start" x="890" y="-20.5" font-family="Helvetica,sans-Serif" font-size="10.00">+</text>
<text text-anchor="start" x="900" y="-20.5" font-family="Helvetica,sans-Serif" font-size="10.00">GETSET_ELEM()</text>
<text text-anchor="start" x="890" y="-5.5" font-family="Helvetica,sans-Serif" font-size="10.00">+</text>
<text text-anchor="start" x="900" y="-5.5" font-family="Helvetica,sans-Serif" font-size="10.00">GETSET_ELEM()</text>
<polygon fill="#bfbfbf" stroke="#bfbfbf" points="886,-167 886,-167 982,-167 982,-167 886,-167"/>
<polygon fill="#bfbfbf" stroke="#bfbfbf" points="886,-152 886,-152 982,-152 982,-152 886,-152"/>
<polygon fill="none" stroke="#bfbfbf" points="886,0 886,-184 982,-184 982,0 886,0"/>
</a>
</g>
</g>
<!-- Node1&#45;&gt;Node10 -->
<g id="edge9_Node000001_Node000010" class="edge">
<title>Node1&#45;&gt;Node10</title>
<g id="a_edge9_Node000001_Node000010"><a xlink:title=" ">
<path fill="none" stroke="#63b8ff" d="M594.86,-329.4C670.57,-305.39 793.39,-258.12 877,-184 880.21,-181.16 883.3,-178.09 886.27,-174.86"/>
<polygon fill="none" stroke="#63b8ff" points="594,-326.31 585.5,-332.63 596.08,-332.99 594,-326.31"/>
</a>
</g>
</g>
<!-- Node11 -->
<g id="Node000011" class="node">
<title>Node11</title>
<g id="a_Node000011"><a xlink:href="class_py_orbit_state.html" target="_top" xlink:title=" ">
<polygon fill="white" stroke="none" points="1080,-139 1000,-139 1000,-45 1080,-45 1080,-139"/>
<text text-anchor="start" x="1011.88" y="-125.5" font-family="Helvetica,sans-Serif" font-size="10.00">PyOrbitState</text>
<text text-anchor="start" x="1038.5" y="-110.5" font-family="Helvetica,sans-Serif" font-size="10.00"> </text>
<text text-anchor="start" x="1004" y="-95.5" font-family="Helvetica,sans-Serif" font-size="10.00">+</text>
<text text-anchor="start" x="1014" y="-95.5" font-family="Helvetica,sans-Serif" font-size="10.00">PyOrbitState()</text>
<text text-anchor="start" x="1004" y="-80.5" font-family="Helvetica,sans-Serif" font-size="10.00">+</text>
<text text-anchor="start" x="1014" y="-80.5" font-family="Helvetica,sans-Serif" font-size="10.00">PyOrbitState()</text>
<text text-anchor="start" x="1004" y="-65.5" font-family="Helvetica,sans-Serif" font-size="10.00">+</text>
<text text-anchor="start" x="1014" y="-65.5" font-family="Helvetica,sans-Serif" font-size="10.00">Print()</text>
<text text-anchor="start" x="1004" y="-50.5" font-family="Helvetica,sans-Serif" font-size="10.00">+</text>
<text text-anchor="start" x="1014" y="-50.5" font-family="Helvetica,sans-Serif" font-size="10.00">Clone()</text>
<polygon fill="#bfbfbf" stroke="#bfbfbf" points="1000,-122 1000,-122 1080,-122 1080,-122 1000,-122"/>
<polygon fill="#bfbfbf" stroke="#bfbfbf" points="1000,-107 1000,-107 1080,-107 1080,-107 1000,-107"/>
<polygon fill="none" stroke="#bfbfbf" points="1000,-45 1000,-139 1080,-139 1080,-45 1000,-45"/>
</a>
</g>
</g>
<!-- Node1&#45;&gt;Node11 -->
<g id="edge10_Node000001_Node000011" class="edge">
<title>Node1&#45;&gt;Node11</title>
<g id="a_edge10_Node000001_Node000011"><a xlink:title=" ">
<path fill="none" stroke="#63b8ff" d="M594.91,-340.03C692.74,-324.67 874.36,-284 991,-184 1005.03,-171.97 1015.7,-154.89 1023.45,-138.77"/>
<polygon fill="none" stroke="#63b8ff" points="594.63,-336.68 585.27,-341.65 595.68,-343.6 594.63,-336.68"/>
</a>
</g>
</g>
<!-- Node2 -->
<g id="Node000002" class="node">
<title>Node2</title>
<g id="a_Node000002"><a xlink:href="class_l_p_t_1_1_i_state.html" target="_top" xlink:title="Interface for States.">
<polygon fill="white" stroke="none" points="568,-594 486,-594 486,-515 568,-515 568,-594"/>
<text text-anchor="start" x="502.62" y="-580.5" font-family="Helvetica,sans-Serif" font-size="10.00">LPT::IState</text>
<text text-anchor="start" x="525.5" y="-565.5" font-family="Helvetica,sans-Serif" font-size="10.00"> </text>
<text text-anchor="start" x="490" y="-550.5" font-family="Helvetica,sans-Serif" font-size="10.00">+</text>
<text text-anchor="start" x="500" y="-550.5" font-family="Helvetica,sans-Serif" font-size="10.00">~IState()</text>
<text text-anchor="start" x="490" y="-535.5" font-family="Helvetica,sans-Serif" font-size="10.00">+</text>
<text text-anchor="start" x="500" y="-535.5" font-family="Helvetica,sans-Serif" font-size="10.00">GetStateSize()</text>
<text text-anchor="start" x="490" y="-520.5" font-family="Helvetica,sans-Serif" font-size="10.00">+</text>
<text text-anchor="start" x="500" y="-520.5" font-family="Helvetica,sans-Serif" font-size="10.00">GetValue()</text>
<polygon fill="#666666" stroke="#666666" points="486,-577 486,-577 568,-577 568,-577 486,-577"/>
<polygon fill="#666666" stroke="#666666" points="486,-562 486,-562 568,-562 568,-562 486,-562"/>
<polygon fill="none" stroke="#666666" points="486,-515 486,-594 568,-594 568,-515 486,-515"/>
</a>
</g>
</g>
<!-- Node2&#45;&gt;Node1 -->
<g id="edge1_Node000001_Node000002" class="edge">
<title>Node2&#45;&gt;Node1</title>
<g id="a_edge1_Node000001_Node000002"><a xlink:title=" ">
<path fill="none" stroke="#63b8ff" d="M527,-504.36C527,-496.31 527,-487.65 527,-478.69"/>
<polygon fill="none" stroke="#63b8ff" points="523.5,-504.32 527,-514.32 530.5,-504.32 523.5,-504.32"/>
</a>
</g>
</g>
</g>
</svg>
