<?xml version="1.0" encoding="UTF-8" standalone="no"?>
<!DOCTYPE svg PUBLIC "-//W3C//DTD SVG 1.1//EN"
 "http://www.w3.org/Graphics/SVG/1.1/DTD/svg11.dtd">
<!-- Generated by graphviz version 8.1.0 (20230707.0739)
 -->
<!-- Title: LPT::ICommDevice Pages: 1 -->
<!--zoomable 557 -->

<svg id="main" version="1.1" xmlns="http://www.w3.org/2000/svg" xmlns:xlink="http://www.w3.org/1999/xlink" xml:space="preserve" onload="init(evt)">
<style type="text/css"><![CDATA[
.node, .edge {opacity: 0.7;}
.node.selected, .edge.selected {opacity: 1;}
.edge:hover path { stroke: red; }
.edge:hover polygon { stroke: red; fill: red; }
]]></style>

<defs>
  <circle id="rim" cx="0" cy="0" r="7"/>
  <circle id="rim2" cx="0" cy="0" r="3.5"/>
  <g id="zoomPlus">
    <use xlink:href="#rim" fill="#404040"><set attributeName="fill" to="#808080" begin="zoomplus.mouseover" end="zoomplus.mouseout"/></use>
    <path d="M-4,0h8M0,-4v8" fill="none" stroke="white" stroke-width="1.5" pointer-events="none"/>
  </g>
  <g id="zoomMin">
    <use xlink:href="#rim" fill="#404040"><set attributeName="fill" to="#808080" begin="zoomminus.mouseover" end="zoomminus.mouseout"/></use>
    <path d="M-4,0h8" fill="none" stroke="white" stroke-width="1.5" pointer-events="none"/>
  </g>
  <g id="arrowUp" transform="translate(30 24)">
    <use xlink:href="#rim"/>
    <path pointer-events="none" fill="none" stroke="white" stroke-width="1.5" d="M0,-3.0v7 M-2.5,-0.5L0,-3.0L2.5,-0.5"/>
  </g>
  <g id="arrowRight" transform="rotate(90) translate(36 -43)">
    <use xlink:href="#rim"/>
    <path pointer-events="none" fill="none" stroke="white" stroke-width="1.5" d="M0,-3.0v7 M-2.5,-0.5L0,-3.0L2.5,-0.5"/>
  </g>
  <g id="arrowDown" transform="rotate(180) translate(-30 -48)">
    <use xlink:href="#rim"/>
    <path pointer-events="none" fill="none" stroke="white" stroke-width="1.5" d="M0,-3.0v7 M-2.5,-0.5L0,-3.0L2.5,-0.5"/>
  </g>
  <g id="arrowLeft" transform="rotate(270) translate(-36 17)">
    <use xlink:href="#rim"/>
    <path pointer-events="none" fill="none" stroke="white" stroke-width="1.5" d="M0,-3.0v7 M-2.5,-0.5L0,-3.0L2.5,-0.5"/>
  </g>
  <g id="resetDef">
    <use xlink:href="#rim2" fill="#404040"><set attributeName="fill" to="#808080" begin="reset.mouseover" end="reset.mouseout"/></use>
  </g>
</defs>
<script type="application/ecmascript">
var viewWidth = 345;
var viewHeight = 557;
var sectionId = 'dynsection-0';
</script>
<script type="application/ecmascript" xlink:href="svg.min.js"/>
<svg id="graph" class="graph">
<g id="viewport">
<title>LPT::ICommDevice</title>
<!-- Node1 -->
<g id="Node000001" class="node">
<title>Node1</title>
<g id="a_Node000001"><a xlink:title=" ">
<polygon fill="#999999" stroke="none" points="208,-549 113,-549 113,-470 208,-470 208,-549"/>
<text text-anchor="start" x="117.75" y="-535.5" font-family="Helvetica,sans-Serif" font-size="10.00">LPT::ICommDevice</text>
<text text-anchor="start" x="117.5" y="-520.5" font-family="Helvetica,sans-Serif" font-size="10.00">+</text>
<text text-anchor="start" x="128" y="-520.5" font-family="Helvetica,sans-Serif" font-size="10.00">txrx</text>
<text text-anchor="start" x="117.5" y="-505.5" font-family="Helvetica,sans-Serif" font-size="10.00">+</text>
<text text-anchor="start" x="128" y="-505.5" font-family="Helvetica,sans-Serif" font-size="10.00">~ICommDevice()</text>
<text text-anchor="start" x="117.5" y="-490.5" font-family="Helvetica,sans-Serif" font-size="10.00">+</text>
<text text-anchor="start" x="128" y="-490.5" font-family="Helvetica,sans-Serif" font-size="10.00">GetAgent()</text>
<text text-anchor="start" x="117.5" y="-475.5" font-family="Helvetica,sans-Serif" font-size="10.00">+</text>
<text text-anchor="start" x="128" y="-475.5" font-family="Helvetica,sans-Serif" font-size="10.00">SetAgent()</text>
<polygon fill="#666666" stroke="#666666" points="113,-532 113,-532 208,-532 208,-532 113,-532"/>
<polygon fill="#666666" stroke="#666666" points="113,-517 113,-517 126,-517 126,-517 113,-517"/>
<polygon fill="#666666" stroke="#666666" points="126,-517 126,-517 208,-517 208,-517 126,-517"/>
<polygon fill="none" stroke="#666666" points="113,-470 113,-549 208,-549 208,-470 113,-470"/>
</a>
</g>
</g>
<!-- Node2 -->
<g id="Node000002" class="node">
<title>Node2</title>
<g id="a_Node000002"><a xlink:href="class_l_p_t_1_1_receiver.html" target="_top" xlink:title=" ">
<polygon fill="white" stroke="none" points="103,-426.5 32,-426.5 32,-332.5 103,-332.5 103,-426.5"/>
<text text-anchor="start" x="36.75" y="-413" font-family="Helvetica,sans-Serif" font-size="10.00">LPT::Receiver</text>
<text text-anchor="start" x="36.5" y="-398" font-family="Helvetica,sans-Serif" font-size="10.00">+</text>
<text text-anchor="start" x="47" y="-398" font-family="Helvetica,sans-Serif" font-size="10.00">txrx</text>
<text text-anchor="start" x="36.5" y="-383" font-family="Helvetica,sans-Serif" font-size="10.00">+</text>
<text text-anchor="start" x="47" y="-383" font-family="Helvetica,sans-Serif" font-size="10.00">rx_param_</text>
<text text-anchor="start" x="36.5" y="-368" font-family="Helvetica,sans-Serif" font-size="10.00">+</text>
<text text-anchor="start" x="47" y="-368" font-family="Helvetica,sans-Serif" font-size="10.00">~Receiver()</text>
<text text-anchor="start" x="36.5" y="-353" font-family="Helvetica,sans-Serif" font-size="10.00">+</text>
<text text-anchor="start" x="47" y="-353" font-family="Helvetica,sans-Serif" font-size="10.00">GetAgent()</text>
<text text-anchor="start" x="36.5" y="-338" font-family="Helvetica,sans-Serif" font-size="10.00">+</text>
<text text-anchor="start" x="47" y="-338" font-family="Helvetica,sans-Serif" font-size="10.00">SetAgent()</text>
<polygon fill="#bfbfbf" stroke="#bfbfbf" points="32,-409.5 32,-409.5 103,-409.5 103,-409.5 32,-409.5"/>
<polygon fill="#bfbfbf" stroke="#bfbfbf" points="32,-379.5 32,-379.5 45,-379.5 45,-379.5 32,-379.5"/>
<polygon fill="#bfbfbf" stroke="#bfbfbf" points="45,-379.5 45,-379.5 103,-379.5 103,-379.5 45,-379.5"/>
<polygon fill="none" stroke="#bfbfbf" points="32,-332.5 32,-426.5 103,-426.5 103,-332.5 32,-332.5"/>
</a>
</g>
</g>
<!-- Node1&#45;&gt;Node2 -->
<g id="edge1_Node000001_Node000002" class="edge">
<title>Node1&#45;&gt;Node2</title>
<g id="a_edge1_Node000001_Node000002"><a xlink:title=" ">
<path fill="none" stroke="#63b8ff" d="M126.32,-461.45C117.93,-449.91 108.96,-437.57 100.63,-426.1"/>
<polygon fill="none" stroke="#63b8ff" points="123.89,-463.06 132.6,-469.1 129.55,-458.95 123.89,-463.06"/>
</a>
</g>
</g>
<!-- Node4 -->
<g id="Node000004" class="node">
<title>Node4</title>
<g id="a_Node000004"><a xlink:href="class_l_p_t_1_1_tranceiver.html" target="_top" xlink:title=" ">
<polygon fill="white" stroke="none" points="199.5,-434 121.5,-434 121.5,-325 199.5,-325 199.5,-434"/>
<text text-anchor="start" x="126.38" y="-420.5" font-family="Helvetica,sans-Serif" font-size="10.00">LPT::Tranceiver</text>
<text text-anchor="start" x="126" y="-405.5" font-family="Helvetica,sans-Serif" font-size="10.00">+</text>
<text text-anchor="start" x="136.5" y="-405.5" font-family="Helvetica,sans-Serif" font-size="10.00">txrx</text>
<text text-anchor="start" x="126" y="-390.5" font-family="Helvetica,sans-Serif" font-size="10.00">+</text>
<text text-anchor="start" x="136.5" y="-390.5" font-family="Helvetica,sans-Serif" font-size="10.00">tx_param_</text>
<text text-anchor="start" x="126" y="-375.5" font-family="Helvetica,sans-Serif" font-size="10.00">+</text>
<text text-anchor="start" x="136.5" y="-375.5" font-family="Helvetica,sans-Serif" font-size="10.00">rx_param_</text>
<text text-anchor="start" x="126" y="-360.5" font-family="Helvetica,sans-Serif" font-size="10.00">+</text>
<text text-anchor="start" x="136.5" y="-360.5" font-family="Helvetica,sans-Serif" font-size="10.00">~Tranceiver()</text>
<text text-anchor="start" x="126" y="-345.5" font-family="Helvetica,sans-Serif" font-size="10.00">+</text>
<text text-anchor="start" x="136.5" y="-345.5" font-family="Helvetica,sans-Serif" font-size="10.00">GetAgent()</text>
<text text-anchor="start" x="126" y="-330.5" font-family="Helvetica,sans-Serif" font-size="10.00">+</text>
<text text-anchor="start" x="136.5" y="-330.5" font-family="Helvetica,sans-Serif" font-size="10.00">SetAgent()</text>
<polygon fill="#bfbfbf" stroke="#bfbfbf" points="121.5,-417 121.5,-417 199.5,-417 199.5,-417 121.5,-417"/>
<polygon fill="#bfbfbf" stroke="#bfbfbf" points="121.5,-372 121.5,-372 134.5,-372 134.5,-372 121.5,-372"/>
<polygon fill="#bfbfbf" stroke="#bfbfbf" points="134.5,-372 134.5,-372 199.5,-372 199.5,-372 134.5,-372"/>
<polygon fill="none" stroke="#bfbfbf" points="121.5,-325 121.5,-434 199.5,-434 199.5,-325 121.5,-325"/>
</a>
</g>
</g>
<!-- Node1&#45;&gt;Node4 -->
<g id="edge3_Node000001_Node000004" class="edge">
<title>Node1&#45;&gt;Node4</title>
<g id="a_edge3_Node000001_Node000004"><a xlink:title=" ">
<path fill="none" stroke="#63b8ff" d="M160.5,-459.28C160.5,-450.86 160.5,-442.07 160.5,-433.55"/>
<polygon fill="none" stroke="#63b8ff" points="157,-459.1 160.5,-469.1 164,-459.1 157,-459.1"/>
</a>
</g>
</g>
<!-- Node5 -->
<g id="Node000005" class="node">
<title>Node5</title>
<g id="a_Node000005"><a xlink:href="class_l_p_t_1_1_transmitter.html" target="_top" xlink:title=" ">
<polygon fill="white" stroke="none" points="299.5,-426.5 217.5,-426.5 217.5,-332.5 299.5,-332.5 299.5,-426.5"/>
<text text-anchor="start" x="222.5" y="-413" font-family="Helvetica,sans-Serif" font-size="10.00">LPT::Transmitter</text>
<text text-anchor="start" x="222" y="-398" font-family="Helvetica,sans-Serif" font-size="10.00">+</text>
<text text-anchor="start" x="232.5" y="-398" font-family="Helvetica,sans-Serif" font-size="10.00">txrx</text>
<text text-anchor="start" x="222" y="-383" font-family="Helvetica,sans-Serif" font-size="10.00">+</text>
<text text-anchor="start" x="232.5" y="-383" font-family="Helvetica,sans-Serif" font-size="10.00">tx_param_</text>
<text text-anchor="start" x="222" y="-368" font-family="Helvetica,sans-Serif" font-size="10.00">+</text>
<text text-anchor="start" x="232.5" y="-368" font-family="Helvetica,sans-Serif" font-size="10.00">~Transmitter()</text>
<text text-anchor="start" x="222" y="-353" font-family="Helvetica,sans-Serif" font-size="10.00">+</text>
<text text-anchor="start" x="232.5" y="-353" font-family="Helvetica,sans-Serif" font-size="10.00">GetAgent()</text>
<text text-anchor="start" x="222" y="-338" font-family="Helvetica,sans-Serif" font-size="10.00">+</text>
<text text-anchor="start" x="232.5" y="-338" font-family="Helvetica,sans-Serif" font-size="10.00">SetAgent()</text>
<polygon fill="#bfbfbf" stroke="#bfbfbf" points="217.5,-409.5 217.5,-409.5 299.5,-409.5 299.5,-409.5 217.5,-409.5"/>
<polygon fill="#bfbfbf" stroke="#bfbfbf" points="217.5,-379.5 217.5,-379.5 230.5,-379.5 230.5,-379.5 217.5,-379.5"/>
<polygon fill="#bfbfbf" stroke="#bfbfbf" points="230.5,-379.5 230.5,-379.5 299.5,-379.5 299.5,-379.5 230.5,-379.5"/>
<polygon fill="none" stroke="#bfbfbf" points="217.5,-332.5 217.5,-426.5 299.5,-426.5 299.5,-332.5 217.5,-332.5"/>
</a>
</g>
</g>
<!-- Node1&#45;&gt;Node5 -->
<g id="edge4_Node000001_Node000005" class="edge">
<title>Node1&#45;&gt;Node5</title>
<g id="a_edge4_Node000001_Node000005"><a xlink:title=" ">
<path fill="none" stroke="#63b8ff" d="M196.52,-461.45C205.36,-449.91 214.81,-437.57 223.59,-426.1"/>
<polygon fill="none" stroke="#63b8ff" points="193.2,-459.03 189.9,-469.1 198.76,-463.28 193.2,-459.03"/>
</a>
</g>
</g>
<!-- Node3 -->
<g id="Node000003" class="node">
<title>Node3</title>
<g id="a_Node000003"><a xlink:href="class_l_p_t_1_1_g_n_s_s_receiver.html" target="_top" xlink:title=" ">
<polygon fill="white" stroke="none" points="135,-251.5 0,-251.5 0,-37.5 135,-37.5 135,-251.5"/>
<text text-anchor="start" x="22.5" y="-238" font-family="Helvetica,sans-Serif" font-size="10.00">LPT::GNSSReceiver</text>
<text text-anchor="start" x="4" y="-223" font-family="Helvetica,sans-Serif" font-size="10.00">+</text>
<text text-anchor="start" x="14" y="-223" font-family="Helvetica,sans-Serif" font-size="10.00">antenna_</text>
<text text-anchor="start" x="4" y="-208" font-family="Helvetica,sans-Serif" font-size="10.00">+</text>
<text text-anchor="start" x="14" y="-208" font-family="Helvetica,sans-Serif" font-size="10.00">receiver_name_</text>
<text text-anchor="start" x="4" y="-193" font-family="Helvetica,sans-Serif" font-size="10.00">+</text>
<text text-anchor="start" x="14" y="-193" font-family="Helvetica,sans-Serif" font-size="10.00">GNSSReceiver()</text>
<text text-anchor="start" x="4" y="-178" font-family="Helvetica,sans-Serif" font-size="10.00">+</text>
<text text-anchor="start" x="14" y="-178" font-family="Helvetica,sans-Serif" font-size="10.00">GetReceiverOrientation()</text>
<text text-anchor="start" x="4" y="-163" font-family="Helvetica,sans-Serif" font-size="10.00">+</text>
<text text-anchor="start" x="14" y="-163" font-family="Helvetica,sans-Serif" font-size="10.00">GetReceiverAntennaGain()</text>
<text text-anchor="start" x="4" y="-148" font-family="Helvetica,sans-Serif" font-size="10.00">+</text>
<text text-anchor="start" x="14" y="-148" font-family="Helvetica,sans-Serif" font-size="10.00">InitializeReceiverParams()</text>
<text text-anchor="start" x="4" y="-133" font-family="Helvetica,sans-Serif" font-size="10.00">+</text>
<text text-anchor="start" x="14" y="-133" font-family="Helvetica,sans-Serif" font-size="10.00">SetCN0Threshold()</text>
<text text-anchor="start" x="4" y="-118" font-family="Helvetica,sans-Serif" font-size="10.00">+</text>
<text text-anchor="start" x="14" y="-118" font-family="Helvetica,sans-Serif" font-size="10.00">GetMeasurement()</text>
<text text-anchor="start" x="4" y="-103" font-family="Helvetica,sans-Serif" font-size="10.00">+</text>
<text text-anchor="start" x="14" y="-103" font-family="Helvetica,sans-Serif" font-size="10.00">SetChannel()</text>
<text text-anchor="start" x="4" y="-88" font-family="Helvetica,sans-Serif" font-size="10.00">+</text>
<text text-anchor="start" x="14" y="-88" font-family="Helvetica,sans-Serif" font-size="10.00">GetAgent()</text>
<text text-anchor="start" x="4" y="-73" font-family="Helvetica,sans-Serif" font-size="10.00">+</text>
<text text-anchor="start" x="14" y="-73" font-family="Helvetica,sans-Serif" font-size="10.00">SetAgent()</text>
<text text-anchor="start" x="4" y="-58" font-family="Helvetica,sans-Serif" font-size="10.00">+</text>
<text text-anchor="start" x="14" y="-58" font-family="Helvetica,sans-Serif" font-size="10.00">GetAntennaGain()</text>
<text text-anchor="start" x="4" y="-43" font-family="Helvetica,sans-Serif" font-size="10.00">+</text>
<text text-anchor="start" x="14" y="-43" font-family="Helvetica,sans-Serif" font-size="10.00">GetAntennaGain()</text>
<polygon fill="#bfbfbf" stroke="#bfbfbf" points="0,-234.5 0,-234.5 135,-234.5 135,-234.5 0,-234.5"/>
<polygon fill="#bfbfbf" stroke="#bfbfbf" points="0,-204.5 0,-204.5 12,-204.5 12,-204.5 0,-204.5"/>
<polygon fill="#bfbfbf" stroke="#bfbfbf" points="12,-204.5 12,-204.5 135,-204.5 135,-204.5 12,-204.5"/>
<polygon fill="none" stroke="#bfbfbf" points="0,-37.5 0,-251.5 135,-251.5 135,-37.5 0,-37.5"/>
</a>
</g>
</g>
<!-- Node2&#45;&gt;Node3 -->
<g id="edge2_Node000002_Node000003" class="edge">
<title>Node2&#45;&gt;Node3</title>
<g id="a_edge2_Node000002_Node000003"><a xlink:title=" ">
<path fill="none" stroke="#63b8ff" d="M67.5,-321.98C67.5,-300.71 67.5,-275.76 67.5,-251.44"/>
<polygon fill="none" stroke="#63b8ff" points="64,-321.74 67.5,-331.74 71,-321.74 64,-321.74"/>
</a>
</g>
</g>
<!-- Node6 -->
<g id="Node000006" class="node">
<title>Node6</title>
<g id="a_Node000006"><a xlink:href="class_l_p_t_1_1_g_n_s_s_transmitter.html" target="_top" xlink:title=" ">
<polygon fill="white" stroke="none" points="337,-289 180,-289 180,0 337,0 337,-289"/>
<text text-anchor="start" x="208.25" y="-275.5" font-family="Helvetica,sans-Serif" font-size="10.00">LPT::GNSSTransmitter</text>
<text text-anchor="start" x="184" y="-260.5" font-family="Helvetica,sans-Serif" font-size="10.00">+</text>
<text text-anchor="start" x="194" y="-260.5" font-family="Helvetica,sans-Serif" font-size="10.00">antenna_</text>
<text text-anchor="start" x="184" y="-245.5" font-family="Helvetica,sans-Serif" font-size="10.00">+</text>
<text text-anchor="start" x="194" y="-245.5" font-family="Helvetica,sans-Serif" font-size="10.00">gnss_type_</text>
<text text-anchor="start" x="184" y="-230.5" font-family="Helvetica,sans-Serif" font-size="10.00">+</text>
<text text-anchor="start" x="194" y="-230.5" font-family="Helvetica,sans-Serif" font-size="10.00">txrx</text>
<text text-anchor="start" x="184" y="-215.5" font-family="Helvetica,sans-Serif" font-size="10.00">+</text>
<text text-anchor="start" x="194" y="-215.5" font-family="Helvetica,sans-Serif" font-size="10.00">prn_</text>
<text text-anchor="start" x="184" y="-200.5" font-family="Helvetica,sans-Serif" font-size="10.00">+</text>
<text text-anchor="start" x="194" y="-200.5" font-family="Helvetica,sans-Serif" font-size="10.00">freq_tx</text>
<text text-anchor="start" x="184" y="-185.5" font-family="Helvetica,sans-Serif" font-size="10.00">+</text>
<text text-anchor="start" x="194" y="-185.5" font-family="Helvetica,sans-Serif" font-size="10.00">freq_list</text>
<text text-anchor="start" x="184" y="-170.5" font-family="Helvetica,sans-Serif" font-size="10.00">+</text>
<text text-anchor="start" x="194" y="-170.5" font-family="Helvetica,sans-Serif" font-size="10.00">freq_map</text>
<text text-anchor="start" x="184" y="-155.5" font-family="Helvetica,sans-Serif" font-size="10.00">+</text>
<text text-anchor="start" x="194" y="-155.5" font-family="Helvetica,sans-Serif" font-size="10.00">GNSSTransmitter()</text>
<text text-anchor="start" x="184" y="-140.5" font-family="Helvetica,sans-Serif" font-size="10.00">+</text>
<text text-anchor="start" x="194" y="-140.5" font-family="Helvetica,sans-Serif" font-size="10.00">InitializeGNSSTransmitter()</text>
<text text-anchor="start" x="184" y="-125.5" font-family="Helvetica,sans-Serif" font-size="10.00">+</text>
<text text-anchor="start" x="194" y="-125.5" font-family="Helvetica,sans-Serif" font-size="10.00">InitializeGPSTransmitter()</text>
<text text-anchor="start" x="184" y="-110.5" font-family="Helvetica,sans-Serif" font-size="10.00">+</text>
<text text-anchor="start" x="194" y="-110.5" font-family="Helvetica,sans-Serif" font-size="10.00">InitializeGLONASSTransmitter()</text>
<text text-anchor="start" x="184" y="-95.5" font-family="Helvetica,sans-Serif" font-size="10.00">+</text>
<text text-anchor="start" x="194" y="-95.5" font-family="Helvetica,sans-Serif" font-size="10.00">InitializeGALILEOTransmitter()</text>
<text text-anchor="start" x="184" y="-80.5" font-family="Helvetica,sans-Serif" font-size="10.00">+</text>
<text text-anchor="start" x="194" y="-80.5" font-family="Helvetica,sans-Serif" font-size="10.00">InitializeBEIDOUTransmitter()</text>
<text text-anchor="start" x="184" y="-65.5" font-family="Helvetica,sans-Serif" font-size="10.00">+</text>
<text text-anchor="start" x="194" y="-65.5" font-family="Helvetica,sans-Serif" font-size="10.00">GetTransmitterOrientation()</text>
<text text-anchor="start" x="184" y="-50.5" font-family="Helvetica,sans-Serif" font-size="10.00">+</text>
<text text-anchor="start" x="194" y="-50.5" font-family="Helvetica,sans-Serif" font-size="10.00">GetTransmittionAntennaGain()</text>
<text text-anchor="start" x="184" y="-35.5" font-family="Helvetica,sans-Serif" font-size="10.00">+</text>
<text text-anchor="start" x="194" y="-35.5" font-family="Helvetica,sans-Serif" font-size="10.00">GenerateTransmission()</text>
<text text-anchor="start" x="184" y="-20.5" font-family="Helvetica,sans-Serif" font-size="10.00">+</text>
<text text-anchor="start" x="194" y="-20.5" font-family="Helvetica,sans-Serif" font-size="10.00">SetChannel()</text>
<text text-anchor="start" x="194" y="-5.5" font-family="Helvetica,sans-Serif" font-size="10.00">and 7 more...</text>
<polygon fill="#bfbfbf" stroke="#bfbfbf" points="180,-272 180,-272 337,-272 337,-272 180,-272"/>
<polygon fill="#bfbfbf" stroke="#bfbfbf" points="180,-167 180,-167 192,-167 192,-167 180,-167"/>
<polygon fill="#bfbfbf" stroke="#bfbfbf" points="192,-167 192,-167 337,-167 337,-167 192,-167"/>
<polygon fill="none" stroke="#bfbfbf" points="180,0 180,-289 337,-289 337,0 180,0"/>
</a>
</g>
</g>
<!-- Node5&#45;&gt;Node6 -->
<g id="edge5_Node000005_Node000006" class="edge">
<title>Node5&#45;&gt;Node6</title>
<g id="a_edge5_Node000005_Node000006"><a xlink:title=" ">
<path fill="none" stroke="#63b8ff" d="M258.5,-321.9C258.5,-311.58 258.5,-300.4 258.5,-288.84"/>
<polygon fill="none" stroke="#63b8ff" points="255,-321.74 258.5,-331.74 262,-321.74 255,-321.74"/>
</a>
</g>
</g>
</g>
</svg>

<g id="navigator" transform="translate(0 0)" fill="#404254">
  <rect fill="#f2f5e9" fill-opacity="0.5" stroke="#606060" stroke-width=".5" x="0" y="0" width="60" height="60"/>
  <use id="zoomplus" xlink:href="#zoomPlus" x="17" y="9" onmousedown="handleZoom(evt,'in')"/>
  <use id="zoomminus" xlink:href="#zoomMin" x="42" y="9" onmousedown="handleZoom(evt,'out')"/>
  <use id="reset" xlink:href="#resetDef" x="30" y="36" onmousedown="handleReset()"/>
   <use id="arrowup" xlink:href="#arrowUp" x="0" y="0" onmousedown="handlePan(0,-1)"/>
  <use id="arrowright" xlink:href="#arrowRight" x="0" y="0" onmousedown="handlePan(1,0)"/>
  <use id="arrowdown" xlink:href="#arrowDown" x="0" y="0" onmousedown="handlePan(0,1)"/>
  <use id="arrowleft" xlink:href="#arrowLeft" x="0" y="0" onmousedown="handlePan(-1,0)"/>
</g>
<svg viewBox="0 0 15 15" width="100%" height="30px" preserveAspectRatio="xMaxYMin meet">
 <g id="arrow_out" transform="scale(0.3 0.3)">
  <a xlink:href="class_l_p_t_1_1_i_comm_device__inherit__graph_org.svg" target="_base">
   <rect id="button" ry="5" rx="5" y="6" x="6" height="38" width="38"
        fill="#f2f5e9" fill-opacity="0.5" stroke="#606060" stroke-width="1.0"/>
   <path id="arrow"
     d="M 11.500037,31.436501 C 11.940474,20.09759 22.043105,11.32322 32.158766,21.979434 L 37.068811,17.246167 C 37.068811,17.246167 37.088388,32 37.088388,32 L 22.160133,31.978069 C 22.160133,31.978069 26.997745,27.140456 26.997745,27.140456 C 18.528582,18.264221 13.291696,25.230495 11.500037,31.436501 z"
     style="fill:#404040;"/>
  </a>
 </g>
</svg>

<style type='text/css'>
<![CDATA[
[data-mouse-over-selected='false'] { opacity: 0.7; }
[data-mouse-over-selected='true']  { opacity: 1.0; }
]]>
</style>
<script type="application/ecmascript"><![CDATA[
document.addEventListener('DOMContentLoaded', (event) => {
  highlightEdges();
  highlightAdjacentNodes();
});
]]></script>
</svg>
