<?xml version="1.0" encoding="UTF-8" standalone="no"?>
<!DOCTYPE svg PUBLIC "-//W3C//DTD SVG 1.1//EN"
 "http://www.w3.org/Graphics/SVG/1.1/DTD/svg11.dtd">
<!-- Generated by graphviz version 8.1.0 (20230707.0739)
 -->
<!-- Title: LPT::GNSSChannel::Receive Pages: 1 -->
<svg width="477pt" height="143pt"
 viewBox="0.00 0.00 476.75 142.88" xmlns="http://www.w3.org/2000/svg" xmlns:xlink="http://www.w3.org/1999/xlink">

<svg id="main" version="1.1" xmlns="http://www.w3.org/2000/svg" xmlns:xlink="http://www.w3.org/1999/xlink" xml:space="preserve" onload="init(evt)">
<style type="text/css"><![CDATA[
.node, .edge {opacity: 0.7;}
.node.selected, .edge.selected {opacity: 1;}
.edge:hover path { stroke: red; }
.edge:hover polygon { stroke: red; fill: red; }
]]></style>
<script type="application/ecmascript" xlink:href="svg.min.js"/>
<svg id="graph" class="graph">
<g id="graph0" class="graph" transform="scale(1 1) rotate(0) translate(4 138.88)">
<title>LPT::GNSSChannel::Receive</title>
<!-- Node1 -->
<g id="Node000001" class="node">
<title>Node1</title>
<g id="a_Node000001"><a xlink:title="Receiver receives all available GNSS signals.">
<polygon fill="#999999" stroke="#666666" points="145,-80.25 0,-80.25 0,-61 145,-61 145,-80.25"/>
<text text-anchor="middle" x="72.5" y="-66.75" font-family="Helvetica,sans-Serif" font-size="10.00">LPT::GNSSChannel::Receive</text>
</a>
</g>
</g>
<!-- Node2 -->
<g id="Node000002" class="node">
<title>Node2</title>
<g id="a_Node000002"><a xlink:href="class_l_p_t_1_1_occultation.html#af0a0bc737ea9982f22cce97d0c6ffa57" target="_top" xlink:title="Compute occultation between a tx and a rx.">
<polygon fill="white" stroke="#666666" points="314.75,-134.88 181,-134.88 181,-104.38 314.75,-104.38 314.75,-134.88"/>
<text text-anchor="start" x="189" y="-121.38" font-family="Helvetica,sans-Serif" font-size="10.00">LPT::Occultation::Compute</text>
<text text-anchor="middle" x="247.88" y="-110.12" font-family="Helvetica,sans-Serif" font-size="10.00">Occultation</text>
</a>
</g>
</g>
<!-- Node1&#45;&gt;Node2 -->
<g id="edge1_Node000001_Node000002" class="edge">
<title>Node1&#45;&gt;Node2</title>
<g id="a_edge1_Node000001_Node000002"><a xlink:title=" ">
<path fill="none" stroke="#63b8ff" d="M109,-80.66C129.72,-86.51 156.52,-94.09 180.97,-101"/>
<polygon fill="#63b8ff" stroke="#63b8ff" points="179.7,-104.56 190.28,-103.91 181.61,-97.82 179.7,-104.56"/>
</a>
</g>
</g>
<!-- Node3 -->
<g id="Node000003" class="node">
<title>Node3</title>
<g id="a_Node000003"><a xlink:href="class_l_p_t_1_1_g_n_s_s_receiver.html#a3bc250705af52f7f0995f3f13a13b690" target="_top" xlink:title="Get the.">
<polygon fill="white" stroke="#666666" points="311.38,-85.88 184.38,-85.88 184.38,-55.38 311.38,-55.38 311.38,-85.88"/>
<text text-anchor="start" x="192.38" y="-72.38" font-family="Helvetica,sans-Serif" font-size="10.00">LPT::GNSSReceiver::</text>
<text text-anchor="middle" x="247.88" y="-61.12" font-family="Helvetica,sans-Serif" font-size="10.00">GetReceiverAntennaGain</text>
</a>
</g>
</g>
<!-- Node1&#45;&gt;Node3 -->
<g id="edge2_Node000001_Node000003" class="edge">
<title>Node1&#45;&gt;Node3</title>
<g id="a_edge2_Node000001_Node000003"><a xlink:title=" ">
<path fill="none" stroke="#63b8ff" d="M145.27,-70.62C154.51,-70.62 163.98,-70.62 173.25,-70.62"/>
<polygon fill="#63b8ff" stroke="#63b8ff" points="173.01,-74.13 183.01,-70.62 173.01,-67.13 173.01,-74.13"/>
</a>
</g>
</g>
<!-- Node5 -->
<g id="Node000005" class="node">
<title>Node5</title>
<g id="a_Node000005"><a xlink:href="_math_utils_8cpp.html#a645eea2914e4bd646eedb64deb148aa6" target="_top" xlink:title="Calculate the 2&#45;norm of ad::vector.">
<polygon fill="white" stroke="#666666" points="278,-19.25 217.75,-19.25 217.75,0 278,0 278,-19.25"/>
<text text-anchor="middle" x="247.88" y="-5.75" font-family="Helvetica,sans-Serif" font-size="10.00">LPT::norm</text>
</a>
</g>
</g>
<!-- Node1&#45;&gt;Node5 -->
<g id="edge4_Node000001_Node000005" class="edge">
<title>Node1&#45;&gt;Node5</title>
<g id="a_edge4_Node000001_Node000005"><a xlink:title=" ">
<path fill="none" stroke="#63b8ff" d="M102.13,-60.55C130.99,-50.4 175.74,-34.65 207.84,-23.36"/>
<polygon fill="#63b8ff" stroke="#63b8ff" points="208.93,-26.33 217.2,-19.71 206.61,-19.73 208.93,-26.33"/>
</a>
</g>
</g>
<!-- Node4 -->
<g id="Node000004" class="node">
<title>Node4</title>
<g id="a_Node000004"><a xlink:href="class_l_p_t_1_1_g_n_s_s_receiver.html#a7f5b41355854eb59b7f63c473a89d6d6" target="_top" xlink:title="Get the transmitter orientation Todo: Change this depending on the gnss type.">
<polygon fill="white" stroke="#666666" points="468.75,-85.88 350.75,-85.88 350.75,-55.38 468.75,-55.38 468.75,-85.88"/>
<text text-anchor="start" x="358.75" y="-72.38" font-family="Helvetica,sans-Serif" font-size="10.00">LPT::GNSSReceiver::</text>
<text text-anchor="middle" x="409.75" y="-61.12" font-family="Helvetica,sans-Serif" font-size="10.00">GetReceiverOrientation</text>
</a>
</g>
</g>
<!-- Node3&#45;&gt;Node4 -->
<g id="edge3_Node000003_Node000004" class="edge">
<title>Node3&#45;&gt;Node4</title>
<g id="a_edge3_Node000003_Node000004"><a xlink:title=" ">
<path fill="none" stroke="#63b8ff" d="M311.6,-70.62C320.78,-70.62 330.28,-70.62 339.58,-70.62"/>
<polygon fill="#63b8ff" stroke="#63b8ff" points="339.38,-74.13 349.38,-70.62 339.38,-67.13 339.38,-74.13"/>
</a>
</g>
</g>
<!-- Node5&#45;&gt;Node5 -->
<g id="edge7_Node000005_Node000005" class="edge">
<title>Node5&#45;&gt;Node5</title>
<g id="a_edge7_Node000005_Node000005"><a xlink:title=" ">
<path fill="none" stroke="#63b8ff" d="M222.53,-19.54C210.97,-28.15 219.42,-37.25 247.88,-37.25 264.77,-37.25 274.61,-34.04 277.4,-29.63"/>
<polygon fill="#63b8ff" stroke="#63b8ff" points="280.28,-28.44 273.22,-20.54 273.81,-31.12 280.28,-28.44"/>
</a>
</g>
</g>
<!-- Node6 -->
<g id="Node000006" class="node">
<title>Node6</title>
<g id="a_Node000006"><a xlink:href="_math_utils_8cpp.html#ae2a720fd8e16772da7b293bb5e1be510" target="_top" xlink:title="Calculate the dot product of two ad vectors.">
<polygon fill="white" stroke="#666666" points="435.75,-19.25 383.75,-19.25 383.75,0 435.75,0 435.75,-19.25"/>
<text text-anchor="middle" x="409.75" y="-5.75" font-family="Helvetica,sans-Serif" font-size="10.00">LPT::dot</text>
</a>
</g>
</g>
<!-- Node5&#45;&gt;Node6 -->
<g id="edge5_Node000005_Node000006" class="edge">
<title>Node5&#45;&gt;Node6</title>
<g id="a_edge5_Node000005_Node000006"><a xlink:title=" ">
<path fill="none" stroke="#63b8ff" d="M278.2,-9.62C304.78,-9.62 344.04,-9.62 372.57,-9.62"/>
<polygon fill="#63b8ff" stroke="#63b8ff" points="372.3,-13.13 382.3,-9.62 372.3,-6.13 372.3,-13.13"/>
</a>
</g>
</g>
<!-- Node6&#45;&gt;Node6 -->
<g id="edge6_Node000006_Node000006" class="edge">
<title>Node6&#45;&gt;Node6</title>
<g id="a_edge6_Node000006_Node000006"><a xlink:title=" ">
<path fill="none" stroke="#63b8ff" d="M384.41,-19.54C372.85,-28.15 381.3,-37.25 409.75,-37.25 426.64,-37.25 436.49,-34.04 439.27,-29.63"/>
<polygon fill="#63b8ff" stroke="#63b8ff" points="442.15,-28.44 435.09,-20.54 435.69,-31.12 442.15,-28.44"/>
</a>
</g>
</g>
</g>
</svg>
</svg>

<style type='text/css'>
<![CDATA[
[data-mouse-over-selected='false'] { opacity: 0.7; }
[data-mouse-over-selected='true']  { opacity: 1.0; }
]]>
</style>
<script type="application/ecmascript"><![CDATA[
document.addEventListener('DOMContentLoaded', (event) => {
  highlightEdges();
  highlightAdjacentNodes();
});
]]></script>
</svg>
