<?xml version="1.0" encoding="UTF-8" standalone="no"?>
<!DOCTYPE svg PUBLIC "-//W3C//DTD SVG 1.1//EN"
 "http://www.w3.org/Graphics/SVG/1.1/DTD/svg11.dtd">
<!-- Generated by graphviz version 8.1.0 (20230707.0739)
 -->
<!-- Title: LPT::Tranceiver Pages: 1 -->
<svg width="103pt" height="232pt"
 viewBox="0.00 0.00 103.00 232.00" xmlns="http://www.w3.org/2000/svg" xmlns:xlink="http://www.w3.org/1999/xlink">
<g id="graph0" class="graph" transform="scale(1 1) rotate(0) translate(4 228)">
<title>LPT::Tranceiver</title>
<!-- Node1 -->
<g id="Node000001" class="node">
<title>Node1</title>
<g id="a_Node000001"><a xlink:title=" ">
<polygon fill="#999999" stroke="none" points="86.5,-109 8.5,-109 8.5,0 86.5,0 86.5,-109"/>
<text text-anchor="start" x="13.38" y="-95.5" font-family="Helvetica,sans-Serif" font-size="10.00">LPT::Tranceiver</text>
<text text-anchor="start" x="13" y="-80.5" font-family="Helvetica,sans-Serif" font-size="10.00">+</text>
<text text-anchor="start" x="23.5" y="-80.5" font-family="Helvetica,sans-Serif" font-size="10.00">txrx</text>
<text text-anchor="start" x="13" y="-65.5" font-family="Helvetica,sans-Serif" font-size="10.00">+</text>
<text text-anchor="start" x="23.5" y="-65.5" font-family="Helvetica,sans-Serif" font-size="10.00">tx_param_</text>
<text text-anchor="start" x="13" y="-50.5" font-family="Helvetica,sans-Serif" font-size="10.00">+</text>
<text text-anchor="start" x="23.5" y="-50.5" font-family="Helvetica,sans-Serif" font-size="10.00">rx_param_</text>
<text text-anchor="start" x="13" y="-35.5" font-family="Helvetica,sans-Serif" font-size="10.00">+</text>
<text text-anchor="start" x="23.5" y="-35.5" font-family="Helvetica,sans-Serif" font-size="10.00">~Tranceiver()</text>
<text text-anchor="start" x="13" y="-20.5" font-family="Helvetica,sans-Serif" font-size="10.00">+</text>
<text text-anchor="start" x="23.5" y="-20.5" font-family="Helvetica,sans-Serif" font-size="10.00">GetAgent()</text>
<text text-anchor="start" x="13" y="-5.5" font-family="Helvetica,sans-Serif" font-size="10.00">+</text>
<text text-anchor="start" x="23.5" y="-5.5" font-family="Helvetica,sans-Serif" font-size="10.00">SetAgent()</text>
<polygon fill="#666666" stroke="#666666" points="8.5,-92 8.5,-92 86.5,-92 86.5,-92 8.5,-92"/>
<polygon fill="#666666" stroke="#666666" points="8.5,-47 8.5,-47 21.5,-47 21.5,-47 8.5,-47"/>
<polygon fill="#666666" stroke="#666666" points="21.5,-47 21.5,-47 86.5,-47 86.5,-47 21.5,-47"/>
<polygon fill="none" stroke="#666666" points="8.5,0 8.5,-109 86.5,-109 86.5,0 8.5,0"/>
</a>
</g>
</g>
<!-- Node2 -->
<g id="Node000002" class="node">
<title>Node2</title>
<g id="a_Node000002"><a xlink:href="class_l_p_t_1_1_i_comm_device.html" target="_top" xlink:title=" ">
<polygon fill="white" stroke="none" points="95,-224 0,-224 0,-145 95,-145 95,-224"/>
<text text-anchor="start" x="4.75" y="-210.5" font-family="Helvetica,sans-Serif" font-size="10.00">LPT::ICommDevice</text>
<text text-anchor="start" x="4.5" y="-195.5" font-family="Helvetica,sans-Serif" font-size="10.00">+</text>
<text text-anchor="start" x="15" y="-195.5" font-family="Helvetica,sans-Serif" font-size="10.00">txrx</text>
<text text-anchor="start" x="4.5" y="-180.5" font-family="Helvetica,sans-Serif" font-size="10.00">+</text>
<text text-anchor="start" x="15" y="-180.5" font-family="Helvetica,sans-Serif" font-size="10.00">~ICommDevice()</text>
<text text-anchor="start" x="4.5" y="-165.5" font-family="Helvetica,sans-Serif" font-size="10.00">+</text>
<text text-anchor="start" x="15" y="-165.5" font-family="Helvetica,sans-Serif" font-size="10.00">GetAgent()</text>
<text text-anchor="start" x="4.5" y="-150.5" font-family="Helvetica,sans-Serif" font-size="10.00">+</text>
<text text-anchor="start" x="15" y="-150.5" font-family="Helvetica,sans-Serif" font-size="10.00">SetAgent()</text>
<polygon fill="#bfbfbf" stroke="#bfbfbf" points="0,-207 0,-207 95,-207 95,-207 0,-207"/>
<polygon fill="#bfbfbf" stroke="#bfbfbf" points="0,-192 0,-192 13,-192 13,-192 0,-192"/>
<polygon fill="#bfbfbf" stroke="#bfbfbf" points="13,-192 13,-192 95,-192 95,-192 13,-192"/>
<polygon fill="none" stroke="#bfbfbf" points="0,-145 0,-224 95,-224 95,-145 0,-145"/>
</a>
</g>
</g>
<!-- Node2&#45;&gt;Node1 -->
<g id="edge1_Node000001_Node000002" class="edge">
<title>Node2&#45;&gt;Node1</title>
<g id="a_edge1_Node000001_Node000002"><a xlink:title=" ">
<path fill="none" stroke="#63b8ff" d="M47.5,-134.28C47.5,-125.86 47.5,-117.07 47.5,-108.55"/>
<polygon fill="none" stroke="#63b8ff" points="44,-134.1 47.5,-144.1 51,-134.1 44,-134.1"/>
</a>
</g>
</g>
</g>
</svg>
