<?xml version="1.0" encoding="UTF-8" standalone="no"?>
<!DOCTYPE svg PUBLIC "-//W3C//DTD SVG 1.1//EN"
 "http://www.w3.org/Graphics/SVG/1.1/DTD/svg11.dtd">
<!-- Generated by graphviz version 8.1.0 (20230707.0739)
 -->
<!-- Title: LPT::RadioMeasurement Pages: 1 -->
<svg width="145pt" height="87pt"
 viewBox="0.00 0.00 145.00 87.00" xmlns="http://www.w3.org/2000/svg" xmlns:xlink="http://www.w3.org/1999/xlink">
<g id="graph0" class="graph" transform="scale(1 1) rotate(0) translate(4 83)">
<title>LPT::RadioMeasurement</title>
<!-- Node1 -->
<g id="Node000001" class="node">
<title>Node1</title>
<g id="a_Node000001"><a xlink:title=" ">
<polygon fill="#999999" stroke="none" points="137,-79 0,-79 0,0 137,0 137,-79"/>
<text text-anchor="start" x="14.88" y="-65.5" font-family="Helvetica,sans-Serif" font-size="10.00">LPT::RadioMeasurement</text>
<text text-anchor="start" x="67" y="-50.5" font-family="Helvetica,sans-Serif" font-size="10.00"> </text>
<text text-anchor="start" x="4" y="-35.5" font-family="Helvetica,sans-Serif" font-size="10.00">+</text>
<text text-anchor="start" x="14" y="-35.5" font-family="Helvetica,sans-Serif" font-size="10.00">ComputePseudorange()</text>
<text text-anchor="start" x="4" y="-20.5" font-family="Helvetica,sans-Serif" font-size="10.00">+</text>
<text text-anchor="start" x="14" y="-20.5" font-family="Helvetica,sans-Serif" font-size="10.00">ComputePseudorangerate()</text>
<text text-anchor="start" x="4" y="-5.5" font-family="Helvetica,sans-Serif" font-size="10.00">+</text>
<text text-anchor="start" x="14" y="-5.5" font-family="Helvetica,sans-Serif" font-size="10.00">ComputeDopplerShift()</text>
<polygon fill="#666666" stroke="#666666" points="0,-62 0,-62 137,-62 137,-62 0,-62"/>
<polygon fill="#666666" stroke="#666666" points="0,-47 0,-47 137,-47 137,-47 0,-47"/>
<polygon fill="none" stroke="#666666" points="0,0 0,-79 137,-79 137,0 0,0"/>
</a>
</g>
</g>
</g>
</svg>
