<?xml version="1.0" encoding="UTF-8" standalone="no"?>
<!DOCTYPE svg PUBLIC "-//W3C//DTD SVG 1.1//EN"
 "http://www.w3.org/Graphics/SVG/1.1/DTD/svg11.dtd">
<!-- Generated by graphviz version 8.1.0 (20230707.0739)
 -->
<!-- Title: LPT::ICommDevice Pages: 1 -->
<svg width="103pt" height="87pt"
 viewBox="0.00 0.00 103.00 87.00" xmlns="http://www.w3.org/2000/svg" xmlns:xlink="http://www.w3.org/1999/xlink">

<svg id="main" version="1.1" xmlns="http://www.w3.org/2000/svg" xmlns:xlink="http://www.w3.org/1999/xlink" xml:space="preserve" onload="init(evt)">
<style type="text/css"><![CDATA[
.node, .edge {opacity: 0.7;}
.node.selected, .edge.selected {opacity: 1;}
.edge:hover path { stroke: red; }
.edge:hover polygon { stroke: red; fill: red; }
]]></style>
<script type="application/ecmascript" xlink:href="svg.min.js"/>
<svg id="graph" class="graph">
<g id="graph0" class="graph" transform="scale(1 1) rotate(0) translate(4 83)">
<title>LPT::ICommDevice</title>
<!-- Node1 -->
<g id="Node000001" class="node">
<title>Node1</title>
<g id="a_Node000001"><a xlink:title=" ">
<polygon fill="#999999" stroke="none" points="95,-79 0,-79 0,0 95,0 95,-79"/>
<text text-anchor="start" x="4.75" y="-65.5" font-family="Helvetica,sans-Serif" font-size="10.00">LPT::ICommDevice</text>
<text text-anchor="start" x="4.5" y="-50.5" font-family="Helvetica,sans-Serif" font-size="10.00">+</text>
<text text-anchor="start" x="15" y="-50.5" font-family="Helvetica,sans-Serif" font-size="10.00">txrx</text>
<text text-anchor="start" x="4.5" y="-35.5" font-family="Helvetica,sans-Serif" font-size="10.00">+</text>
<text text-anchor="start" x="15" y="-35.5" font-family="Helvetica,sans-Serif" font-size="10.00">~ICommDevice()</text>
<text text-anchor="start" x="4.5" y="-20.5" font-family="Helvetica,sans-Serif" font-size="10.00">+</text>
<text text-anchor="start" x="15" y="-20.5" font-family="Helvetica,sans-Serif" font-size="10.00">GetAgent()</text>
<text text-anchor="start" x="4.5" y="-5.5" font-family="Helvetica,sans-Serif" font-size="10.00">+</text>
<text text-anchor="start" x="15" y="-5.5" font-family="Helvetica,sans-Serif" font-size="10.00">SetAgent()</text>
<polygon fill="#666666" stroke="#666666" points="0,-62 0,-62 95,-62 95,-62 0,-62"/>
<polygon fill="#666666" stroke="#666666" points="0,-47 0,-47 13,-47 13,-47 0,-47"/>
<polygon fill="#666666" stroke="#666666" points="13,-47 13,-47 95,-47 95,-47 13,-47"/>
<polygon fill="none" stroke="#666666" points="0,0 0,-79 95,-79 95,0 0,0"/>
</a>
</g>
</g>
</g>
</svg>
</svg>

<style type='text/css'>
<![CDATA[
[data-mouse-over-selected='false'] { opacity: 0.7; }
[data-mouse-over-selected='true']  { opacity: 1.0; }
]]>
</style>
<script type="application/ecmascript"><![CDATA[
document.addEventListener('DOMContentLoaded', (event) => {
  highlightEdges();
  highlightAdjacentNodes();
});
]]></script>
</svg>
