<?xml version="1.0" encoding="UTF-8" standalone="no"?>
<!DOCTYPE svg PUBLIC "-//W3C//DTD SVG 1.1//EN"
 "http://www.w3.org/Graphics/SVG/1.1/DTD/svg11.dtd">
<!-- Generated by graphviz version 8.1.0 (20230707.0739)
 -->
<!-- Title: LPT::IAnalyticalDynamics Pages: 1 -->
<!--zoomable 262 -->

<svg id="main" version="1.1" xmlns="http://www.w3.org/2000/svg" xmlns:xlink="http://www.w3.org/1999/xlink" xml:space="preserve" onload="init(evt)">
<style type="text/css"><![CDATA[
.node, .edge {opacity: 0.7;}
.node.selected, .edge.selected {opacity: 1;}
.edge:hover path { stroke: red; }
.edge:hover polygon { stroke: red; fill: red; }
]]></style>

<defs>
  <circle id="rim" cx="0" cy="0" r="7"/>
  <circle id="rim2" cx="0" cy="0" r="3.5"/>
  <g id="zoomPlus">
    <use xlink:href="#rim" fill="#404040"><set attributeName="fill" to="#808080" begin="zoomplus.mouseover" end="zoomplus.mouseout"/></use>
    <path d="M-4,0h8M0,-4v8" fill="none" stroke="white" stroke-width="1.5" pointer-events="none"/>
  </g>
  <g id="zoomMin">
    <use xlink:href="#rim" fill="#404040"><set attributeName="fill" to="#808080" begin="zoomminus.mouseover" end="zoomminus.mouseout"/></use>
    <path d="M-4,0h8" fill="none" stroke="white" stroke-width="1.5" pointer-events="none"/>
  </g>
  <g id="arrowUp" transform="translate(30 24)">
    <use xlink:href="#rim"/>
    <path pointer-events="none" fill="none" stroke="white" stroke-width="1.5" d="M0,-3.0v7 M-2.5,-0.5L0,-3.0L2.5,-0.5"/>
  </g>
  <g id="arrowRight" transform="rotate(90) translate(36 -43)">
    <use xlink:href="#rim"/>
    <path pointer-events="none" fill="none" stroke="white" stroke-width="1.5" d="M0,-3.0v7 M-2.5,-0.5L0,-3.0L2.5,-0.5"/>
  </g>
  <g id="arrowDown" transform="rotate(180) translate(-30 -48)">
    <use xlink:href="#rim"/>
    <path pointer-events="none" fill="none" stroke="white" stroke-width="1.5" d="M0,-3.0v7 M-2.5,-0.5L0,-3.0L2.5,-0.5"/>
  </g>
  <g id="arrowLeft" transform="rotate(270) translate(-36 17)">
    <use xlink:href="#rim"/>
    <path pointer-events="none" fill="none" stroke="white" stroke-width="1.5" d="M0,-3.0v7 M-2.5,-0.5L0,-3.0L2.5,-0.5"/>
  </g>
  <g id="resetDef">
    <use xlink:href="#rim2" fill="#404040"><set attributeName="fill" to="#808080" begin="reset.mouseover" end="reset.mouseout"/></use>
  </g>
</defs>
<script type="application/ecmascript">
var viewWidth = 532;
var viewHeight = 262;
var sectionId = 'dynsection-0';
</script>
<script type="application/ecmascript" xlink:href="svg.min.js"/>
<svg id="graph" class="graph">
<g id="viewport">
<title>LPT::IAnalyticalDynamics</title>
<!-- Node1 -->
<g id="Node000001" class="node">
<title>Node1</title>
<g id="a_Node000001"><a xlink:title=" ">
<polygon fill="#999999" stroke="none" points="319,-254 197,-254 197,-145 319,-145 319,-254"/>
<text text-anchor="start" x="201.75" y="-240.5" font-family="Helvetica,sans-Serif" font-size="10.00">LPT::IAnalyticalDynamics</text>
<text text-anchor="start" x="256.5" y="-225.5" font-family="Helvetica,sans-Serif" font-size="10.00"> </text>
<text text-anchor="start" x="201.5" y="-210.5" font-family="Helvetica,sans-Serif" font-size="10.00">+</text>
<text text-anchor="start" x="212" y="-210.5" font-family="Helvetica,sans-Serif" font-size="10.00">~IAnalyticalDynamics()</text>
<text text-anchor="start" x="201.5" y="-195.5" font-family="Helvetica,sans-Serif" font-size="10.00">+</text>
<text text-anchor="start" x="212" y="-195.5" font-family="Helvetica,sans-Serif" font-size="10.00">Propagate()</text>
<text text-anchor="start" x="201.5" y="-180.5" font-family="Helvetica,sans-Serif" font-size="10.00">+</text>
<text text-anchor="start" x="212" y="-180.5" font-family="Helvetica,sans-Serif" font-size="10.00">Propagate()</text>
<text text-anchor="start" x="201.5" y="-165.5" font-family="Helvetica,sans-Serif" font-size="10.00">+</text>
<text text-anchor="start" x="212" y="-165.5" font-family="Helvetica,sans-Serif" font-size="10.00">PropagateWithSTM()</text>
<text text-anchor="start" x="201.5" y="-150.5" font-family="Helvetica,sans-Serif" font-size="10.00">+</text>
<text text-anchor="start" x="212" y="-150.5" font-family="Helvetica,sans-Serif" font-size="10.00">PropagateWithSTM()</text>
<polygon fill="#666666" stroke="#666666" points="197,-237 197,-237 319,-237 319,-237 197,-237"/>
<polygon fill="#666666" stroke="#666666" points="197,-222 197,-222 319,-222 319,-222 197,-222"/>
<polygon fill="none" stroke="#666666" points="197,-145 197,-254 319,-254 319,-145 197,-145"/>
</a>
</g>
</g>
<!-- Node2 -->
<g id="Node000002" class="node">
<title>Node2</title>
<g id="a_Node000002"><a xlink:href="class_l_p_t_1_1_clohessy_wiltshire_dynamics.html" target="_top" xlink:title=" ">
<polygon fill="white" stroke="none" points="156,-101.5 0,-101.5 0,-7.5 156,-7.5 156,-101.5"/>
<text text-anchor="start" x="4.88" y="-88" font-family="Helvetica,sans-Serif" font-size="10.00">LPT::ClohessyWiltshireDynamics</text>
<text text-anchor="start" x="76.5" y="-73" font-family="Helvetica,sans-Serif" font-size="10.00"> </text>
<text text-anchor="start" x="6" y="-58" font-family="Helvetica,sans-Serif" font-size="10.00">+</text>
<text text-anchor="start" x="18" y="-58" font-family="Helvetica,sans-Serif" font-size="10.00">ClohessyWiltshireDynamics()</text>
<text text-anchor="start" x="6" y="-43" font-family="Helvetica,sans-Serif" font-size="10.00">+</text>
<text text-anchor="start" x="18" y="-43" font-family="Helvetica,sans-Serif" font-size="10.00">Propagate()</text>
<text text-anchor="start" x="6" y="-28" font-family="Helvetica,sans-Serif" font-size="10.00">+</text>
<text text-anchor="start" x="18" y="-28" font-family="Helvetica,sans-Serif" font-size="10.00">Initialize()</text>
<text text-anchor="start" x="6" y="-13" font-family="Helvetica,sans-Serif" font-size="10.00">+</text>
<text text-anchor="start" x="18" y="-13" font-family="Helvetica,sans-Serif" font-size="10.00">ComputeMatrix()</text>
<polygon fill="#bfbfbf" stroke="#bfbfbf" points="0,-84.5 0,-84.5 156,-84.5 156,-84.5 0,-84.5"/>
<polygon fill="#bfbfbf" stroke="#bfbfbf" points="0,-69.5 0,-69.5 156,-69.5 156,-69.5 0,-69.5"/>
<polygon fill="none" stroke="#bfbfbf" points="0,-7.5 0,-101.5 156,-101.5 156,-7.5 0,-7.5"/>
</a>
</g>
</g>
<!-- Node1&#45;&gt;Node2 -->
<g id="edge1_Node000001_Node000002" class="edge">
<title>Node1&#45;&gt;Node2</title>
<g id="a_edge1_Node000001_Node000002"><a xlink:title=" ">
<path fill="none" stroke="#63b8ff" d="M188.6,-143.37C171.16,-129.51 152.64,-114.8 135.84,-101.45"/>
<polygon fill="none" stroke="#63b8ff" points="186.05,-146.61 196.06,-150.09 190.41,-141.13 186.05,-146.61"/>
</a>
</g>
</g>
<!-- Node3 -->
<g id="Node000003" class="node">
<title>Node3</title>
<g id="a_Node000003"><a xlink:href="class_l_p_t_1_1_roe_geometric_mapping_dynamics.html" target="_top" xlink:title=" ">
<polygon fill="white" stroke="none" points="342,-107 174,-107 174,-2 342,-2 342,-107"/>
<text text-anchor="start" x="196.88" y="-93.5" font-family="Helvetica,sans-Serif" font-size="10.00">LPT::RoeGeometricMapping</text>
<text text-anchor="start" x="235.88" y="-82.25" font-family="Helvetica,sans-Serif" font-size="10.00">Dynamics</text>
<text text-anchor="start" x="256.5" y="-67.5" font-family="Helvetica,sans-Serif" font-size="10.00"> </text>
<text text-anchor="start" x="178" y="-52.5" font-family="Helvetica,sans-Serif" font-size="10.00">+</text>
<text text-anchor="start" x="188" y="-52.5" font-family="Helvetica,sans-Serif" font-size="10.00">RoeGeometricMappingDynamics()</text>
<text text-anchor="start" x="178" y="-37.5" font-family="Helvetica,sans-Serif" font-size="10.00">+</text>
<text text-anchor="start" x="188" y="-37.5" font-family="Helvetica,sans-Serif" font-size="10.00">Propagate()</text>
<text text-anchor="start" x="178" y="-22.5" font-family="Helvetica,sans-Serif" font-size="10.00">+</text>
<text text-anchor="start" x="188" y="-22.5" font-family="Helvetica,sans-Serif" font-size="10.00">Initialize()</text>
<text text-anchor="start" x="178" y="-7.5" font-family="Helvetica,sans-Serif" font-size="10.00">+</text>
<text text-anchor="start" x="188" y="-7.5" font-family="Helvetica,sans-Serif" font-size="10.00">ComputeMatrix()</text>
<polygon fill="#bfbfbf" stroke="#bfbfbf" points="174,-79 174,-79 342,-79 342,-79 174,-79"/>
<polygon fill="#bfbfbf" stroke="#bfbfbf" points="174,-64 174,-64 342,-64 342,-64 174,-64"/>
<polygon fill="none" stroke="#bfbfbf" points="174,-2 174,-107 342,-107 342,-2 174,-2"/>
</a>
</g>
</g>
<!-- Node1&#45;&gt;Node3 -->
<g id="edge2_Node000001_Node000003" class="edge">
<title>Node1&#45;&gt;Node3</title>
<g id="a_edge2_Node000001_Node000003"><a xlink:title=" ">
<path fill="none" stroke="#63b8ff" d="M258,-134.51C258,-125.27 258,-115.85 258,-106.89"/>
<polygon fill="none" stroke="#63b8ff" points="254.5,-134.25 258,-144.25 261.5,-134.25 254.5,-134.25"/>
</a>
</g>
</g>
<!-- Node4 -->
<g id="Node000004" class="node">
<title>Node4</title>
<g id="a_Node000004"><a xlink:href="class_l_p_t_1_1_yamanaka_ankersen_dynamics.html" target="_top" xlink:title=" ">
<polygon fill="white" stroke="none" points="523.5,-109 360.5,-109 360.5,0 523.5,0 523.5,-109"/>
<text text-anchor="start" x="365.12" y="-95.5" font-family="Helvetica,sans-Serif" font-size="10.00">LPT::YamanakaAnkersenDynamics</text>
<text text-anchor="start" x="440.5" y="-80.5" font-family="Helvetica,sans-Serif" font-size="10.00"> </text>
<text text-anchor="start" x="366.5" y="-65.5" font-family="Helvetica,sans-Serif" font-size="10.00">+</text>
<text text-anchor="start" x="378.5" y="-65.5" font-family="Helvetica,sans-Serif" font-size="10.00">YamanakaAnkersenDynamics()</text>
<text text-anchor="start" x="366.5" y="-50.5" font-family="Helvetica,sans-Serif" font-size="10.00">+</text>
<text text-anchor="start" x="378.5" y="-50.5" font-family="Helvetica,sans-Serif" font-size="10.00">Propagate()</text>
<text text-anchor="start" x="366.5" y="-35.5" font-family="Helvetica,sans-Serif" font-size="10.00">+</text>
<text text-anchor="start" x="378.5" y="-35.5" font-family="Helvetica,sans-Serif" font-size="10.00">Initialize()</text>
<text text-anchor="start" x="366.5" y="-20.5" font-family="Helvetica,sans-Serif" font-size="10.00">+</text>
<text text-anchor="start" x="378.5" y="-20.5" font-family="Helvetica,sans-Serif" font-size="10.00">ComputeMatrix()</text>
<text text-anchor="start" x="366.5" y="-5.5" font-family="Helvetica,sans-Serif" font-size="10.00">+</text>
<text text-anchor="start" x="378.5" y="-5.5" font-family="Helvetica,sans-Serif" font-size="10.00">ComputeInverseMatrix()</text>
<polygon fill="#bfbfbf" stroke="#bfbfbf" points="360.5,-92 360.5,-92 523.5,-92 523.5,-92 360.5,-92"/>
<polygon fill="#bfbfbf" stroke="#bfbfbf" points="360.5,-77 360.5,-77 523.5,-77 523.5,-77 360.5,-77"/>
<polygon fill="none" stroke="#bfbfbf" points="360.5,0 360.5,-109 523.5,-109 523.5,0 360.5,0"/>
</a>
</g>
</g>
<!-- Node1&#45;&gt;Node4 -->
<g id="edge3_Node000001_Node000004" class="edge">
<title>Node1&#45;&gt;Node4</title>
<g id="a_edge3_Node000001_Node000004"><a xlink:title=" ">
<path fill="none" stroke="#63b8ff" d="M327.07,-144.82C342.21,-133.06 358.23,-120.6 373.35,-108.85"/>
<polygon fill="none" stroke="#63b8ff" points="325.51,-142.38 319.76,-151.28 329.8,-147.91 325.51,-142.38"/>
</a>
</g>
</g>
</g>
</svg>

<g id="navigator" transform="translate(0 0)" fill="#404254">
  <rect fill="#f2f5e9" fill-opacity="0.5" stroke="#606060" stroke-width=".5" x="0" y="0" width="60" height="60"/>
  <use id="zoomplus" xlink:href="#zoomPlus" x="17" y="9" onmousedown="handleZoom(evt,'in')"/>
  <use id="zoomminus" xlink:href="#zoomMin" x="42" y="9" onmousedown="handleZoom(evt,'out')"/>
  <use id="reset" xlink:href="#resetDef" x="30" y="36" onmousedown="handleReset()"/>
   <use id="arrowup" xlink:href="#arrowUp" x="0" y="0" onmousedown="handlePan(0,-1)"/>
  <use id="arrowright" xlink:href="#arrowRight" x="0" y="0" onmousedown="handlePan(1,0)"/>
  <use id="arrowdown" xlink:href="#arrowDown" x="0" y="0" onmousedown="handlePan(0,1)"/>
  <use id="arrowleft" xlink:href="#arrowLeft" x="0" y="0" onmousedown="handlePan(-1,0)"/>
</g>
<svg viewBox="0 0 15 15" width="100%" height="30px" preserveAspectRatio="xMaxYMin meet">
 <g id="arrow_out" transform="scale(0.3 0.3)">
  <a xlink:href="class_l_p_t_1_1_i_analytical_dynamics__inherit__graph_org.svg" target="_base">
   <rect id="button" ry="5" rx="5" y="6" x="6" height="38" width="38"
        fill="#f2f5e9" fill-opacity="0.5" stroke="#606060" stroke-width="1.0"/>
   <path id="arrow"
     d="M 11.500037,31.436501 C 11.940474,20.09759 22.043105,11.32322 32.158766,21.979434 L 37.068811,17.246167 C 37.068811,17.246167 37.088388,32 37.088388,32 L 22.160133,31.978069 C 22.160133,31.978069 26.997745,27.140456 26.997745,27.140456 C 18.528582,18.264221 13.291696,25.230495 11.500037,31.436501 z"
     style="fill:#404040;"/>
  </a>
 </g>
</svg>

<style type='text/css'>
<![CDATA[
[data-mouse-over-selected='false'] { opacity: 0.7; }
[data-mouse-over-selected='true']  { opacity: 1.0; }
]]>
</style>
<script type="application/ecmascript"><![CDATA[
document.addEventListener('DOMContentLoaded', (event) => {
  highlightEdges();
  highlightAdjacentNodes();
});
]]></script>
</svg>
