<?xml version="1.0" encoding="UTF-8" standalone="no"?>
<!DOCTYPE svg PUBLIC "-//W3C//DTD SVG 1.1//EN"
 "http://www.w3.org/Graphics/SVG/1.1/DTD/svg11.dtd">
<!-- Generated by graphviz version 8.1.0 (20230707.0739)
 -->
<!-- Title: LPT::GNSSTransmitter Pages: 1 -->
<svg width="287pt" height="595pt"
 viewBox="0.00 0.00 286.50 594.50" xmlns="http://www.w3.org/2000/svg" xmlns:xlink="http://www.w3.org/1999/xlink">
<g id="graph0" class="graph" transform="scale(1 1) rotate(0) translate(4 590.5)">
<title>LPT::GNSSTransmitter</title>
<!-- Node1 -->
<g id="Node000001" class="node">
<title>Node1</title>
<g id="a_Node000001"><a xlink:title=" ">
<polygon fill="#999999" stroke="none" points="243,-274 86,-274 86,0 243,0 243,-274"/>
<text text-anchor="start" x="114.25" y="-260.5" font-family="Helvetica,sans-Serif" font-size="10.00">LPT::GNSSTransmitter</text>
<text text-anchor="start" x="90" y="-245.5" font-family="Helvetica,sans-Serif" font-size="10.00">+</text>
<text text-anchor="start" x="100" y="-245.5" font-family="Helvetica,sans-Serif" font-size="10.00">gnss_type_</text>
<text text-anchor="start" x="90" y="-230.5" font-family="Helvetica,sans-Serif" font-size="10.00">+</text>
<text text-anchor="start" x="100" y="-230.5" font-family="Helvetica,sans-Serif" font-size="10.00">txrx</text>
<text text-anchor="start" x="90" y="-215.5" font-family="Helvetica,sans-Serif" font-size="10.00">+</text>
<text text-anchor="start" x="100" y="-215.5" font-family="Helvetica,sans-Serif" font-size="10.00">prn_</text>
<text text-anchor="start" x="90" y="-200.5" font-family="Helvetica,sans-Serif" font-size="10.00">+</text>
<text text-anchor="start" x="100" y="-200.5" font-family="Helvetica,sans-Serif" font-size="10.00">freq_tx</text>
<text text-anchor="start" x="90" y="-185.5" font-family="Helvetica,sans-Serif" font-size="10.00">+</text>
<text text-anchor="start" x="100" y="-185.5" font-family="Helvetica,sans-Serif" font-size="10.00">freq_list</text>
<text text-anchor="start" x="90" y="-170.5" font-family="Helvetica,sans-Serif" font-size="10.00">+</text>
<text text-anchor="start" x="100" y="-170.5" font-family="Helvetica,sans-Serif" font-size="10.00">freq_map</text>
<text text-anchor="start" x="90" y="-155.5" font-family="Helvetica,sans-Serif" font-size="10.00">+</text>
<text text-anchor="start" x="100" y="-155.5" font-family="Helvetica,sans-Serif" font-size="10.00">GNSSTransmitter()</text>
<text text-anchor="start" x="90" y="-140.5" font-family="Helvetica,sans-Serif" font-size="10.00">+</text>
<text text-anchor="start" x="100" y="-140.5" font-family="Helvetica,sans-Serif" font-size="10.00">InitializeGNSSTransmitter()</text>
<text text-anchor="start" x="90" y="-125.5" font-family="Helvetica,sans-Serif" font-size="10.00">+</text>
<text text-anchor="start" x="100" y="-125.5" font-family="Helvetica,sans-Serif" font-size="10.00">InitializeGPSTransmitter()</text>
<text text-anchor="start" x="90" y="-110.5" font-family="Helvetica,sans-Serif" font-size="10.00">+</text>
<text text-anchor="start" x="100" y="-110.5" font-family="Helvetica,sans-Serif" font-size="10.00">InitializeGLONASSTransmitter()</text>
<text text-anchor="start" x="90" y="-95.5" font-family="Helvetica,sans-Serif" font-size="10.00">+</text>
<text text-anchor="start" x="100" y="-95.5" font-family="Helvetica,sans-Serif" font-size="10.00">InitializeGALILEOTransmitter()</text>
<text text-anchor="start" x="90" y="-80.5" font-family="Helvetica,sans-Serif" font-size="10.00">+</text>
<text text-anchor="start" x="100" y="-80.5" font-family="Helvetica,sans-Serif" font-size="10.00">InitializeBEIDOUTransmitter()</text>
<text text-anchor="start" x="90" y="-65.5" font-family="Helvetica,sans-Serif" font-size="10.00">+</text>
<text text-anchor="start" x="100" y="-65.5" font-family="Helvetica,sans-Serif" font-size="10.00">GetTransmitterOrientation()</text>
<text text-anchor="start" x="90" y="-50.5" font-family="Helvetica,sans-Serif" font-size="10.00">+</text>
<text text-anchor="start" x="100" y="-50.5" font-family="Helvetica,sans-Serif" font-size="10.00">GetTransmittionAntennaGain()</text>
<text text-anchor="start" x="90" y="-35.5" font-family="Helvetica,sans-Serif" font-size="10.00">+</text>
<text text-anchor="start" x="100" y="-35.5" font-family="Helvetica,sans-Serif" font-size="10.00">GenerateTransmission()</text>
<text text-anchor="start" x="90" y="-20.5" font-family="Helvetica,sans-Serif" font-size="10.00">+</text>
<text text-anchor="start" x="100" y="-20.5" font-family="Helvetica,sans-Serif" font-size="10.00">SetChannel()</text>
<text text-anchor="start" x="100" y="-5.5" font-family="Helvetica,sans-Serif" font-size="10.00">and 7 more...</text>
<polygon fill="#666666" stroke="#666666" points="86,-257 86,-257 243,-257 243,-257 86,-257"/>
<polygon fill="#666666" stroke="#666666" points="86,-167 86,-167 98,-167 98,-167 86,-167"/>
<polygon fill="#666666" stroke="#666666" points="98,-167 98,-167 243,-167 243,-167 98,-167"/>
<polygon fill="none" stroke="#666666" points="86,0 86,-274 243,-274 243,0 86,0"/>
</a>
</g>
</g>
<!-- Node2 -->
<g id="Node000002" class="node">
<title>Node2</title>
<g id="a_Node000002"><a xlink:href="class_l_p_t_1_1_transmitter.html" target="_top" xlink:title=" ">
<polygon fill="white" stroke="none" points="148.5,-430.25 66.5,-430.25 66.5,-351.25 148.5,-351.25 148.5,-430.25"/>
<text text-anchor="start" x="71.5" y="-416.75" font-family="Helvetica,sans-Serif" font-size="10.00">LPT::Transmitter</text>
<text text-anchor="start" x="71" y="-401.75" font-family="Helvetica,sans-Serif" font-size="10.00">+</text>
<text text-anchor="start" x="81.5" y="-401.75" font-family="Helvetica,sans-Serif" font-size="10.00">txrx</text>
<text text-anchor="start" x="71" y="-386.75" font-family="Helvetica,sans-Serif" font-size="10.00">+</text>
<text text-anchor="start" x="81.5" y="-386.75" font-family="Helvetica,sans-Serif" font-size="10.00">~Transmitter()</text>
<text text-anchor="start" x="71" y="-371.75" font-family="Helvetica,sans-Serif" font-size="10.00">+</text>
<text text-anchor="start" x="81.5" y="-371.75" font-family="Helvetica,sans-Serif" font-size="10.00">GetAgent()</text>
<text text-anchor="start" x="71" y="-356.75" font-family="Helvetica,sans-Serif" font-size="10.00">+</text>
<text text-anchor="start" x="81.5" y="-356.75" font-family="Helvetica,sans-Serif" font-size="10.00">SetAgent()</text>
<polygon fill="#bfbfbf" stroke="#bfbfbf" points="66.5,-413.25 66.5,-413.25 148.5,-413.25 148.5,-413.25 66.5,-413.25"/>
<polygon fill="#bfbfbf" stroke="#bfbfbf" points="66.5,-398.25 66.5,-398.25 79.5,-398.25 79.5,-398.25 66.5,-398.25"/>
<polygon fill="#bfbfbf" stroke="#bfbfbf" points="79.5,-398.25 79.5,-398.25 148.5,-398.25 148.5,-398.25 79.5,-398.25"/>
<polygon fill="none" stroke="#bfbfbf" points="66.5,-351.25 66.5,-430.25 148.5,-430.25 148.5,-351.25 66.5,-351.25"/>
</a>
</g>
</g>
<!-- Node2&#45;&gt;Node1 -->
<g id="edge1_Node000001_Node000002" class="edge">
<title>Node2&#45;&gt;Node1</title>
<g id="a_edge1_Node000001_Node000002"><a xlink:title=" ">
<path fill="none" stroke="#63b8ff" d="M118.58,-340.82C122.99,-321.32 128.31,-297.82 133.74,-273.84"/>
<polygon fill="none" stroke="#63b8ff" points="114.95,-339.99 116.16,-350.51 121.78,-341.53 114.95,-339.99"/>
</a>
</g>
</g>
<!-- Node3 -->
<g id="Node000003" class="node">
<title>Node3</title>
<g id="a_Node000003"><a xlink:href="class_l_p_t_1_1_i_comm_device.html" target="_top" xlink:title=" ">
<polygon fill="white" stroke="none" points="95,-586.5 0,-586.5 0,-507.5 95,-507.5 95,-586.5"/>
<text text-anchor="start" x="4.75" y="-573" font-family="Helvetica,sans-Serif" font-size="10.00">LPT::ICommDevice</text>
<text text-anchor="start" x="4.5" y="-558" font-family="Helvetica,sans-Serif" font-size="10.00">+</text>
<text text-anchor="start" x="15" y="-558" font-family="Helvetica,sans-Serif" font-size="10.00">txrx</text>
<text text-anchor="start" x="4.5" y="-543" font-family="Helvetica,sans-Serif" font-size="10.00">+</text>
<text text-anchor="start" x="15" y="-543" font-family="Helvetica,sans-Serif" font-size="10.00">~ICommDevice()</text>
<text text-anchor="start" x="4.5" y="-528" font-family="Helvetica,sans-Serif" font-size="10.00">+</text>
<text text-anchor="start" x="15" y="-528" font-family="Helvetica,sans-Serif" font-size="10.00">GetAgent()</text>
<text text-anchor="start" x="4.5" y="-513" font-family="Helvetica,sans-Serif" font-size="10.00">+</text>
<text text-anchor="start" x="15" y="-513" font-family="Helvetica,sans-Serif" font-size="10.00">SetAgent()</text>
<polygon fill="#bfbfbf" stroke="#bfbfbf" points="0,-569.5 0,-569.5 95,-569.5 95,-569.5 0,-569.5"/>
<polygon fill="#bfbfbf" stroke="#bfbfbf" points="0,-554.5 0,-554.5 13,-554.5 13,-554.5 0,-554.5"/>
<polygon fill="#bfbfbf" stroke="#bfbfbf" points="13,-554.5 13,-554.5 95,-554.5 95,-554.5 13,-554.5"/>
<polygon fill="none" stroke="#bfbfbf" points="0,-507.5 0,-586.5 95,-586.5 95,-507.5 0,-507.5"/>
</a>
</g>
</g>
<!-- Node3&#45;&gt;Node2 -->
<g id="edge2_Node000002_Node000003" class="edge">
<title>Node3&#45;&gt;Node2</title>
<g id="a_edge2_Node000002_Node000003"><a xlink:title=" ">
<path fill="none" stroke="#63b8ff" d="M66.23,-497.84C74.7,-476.07 84.57,-450.71 92.53,-430.24"/>
<polygon fill="none" stroke="#63b8ff" points="62.69,-496.28 62.33,-506.87 69.22,-498.82 62.69,-496.28"/>
</a>
</g>
</g>
<!-- Node4 -->
<g id="Node000004" class="node">
<title>Node4</title>
<g id="a_Node000004"><a xlink:href="struct_l_p_t_1_1_transmitter_param.html" target="_top" xlink:title=" ">
<polygon fill="white" stroke="none" points="223.5,-571.5 113.5,-571.5 113.5,-522.5 223.5,-522.5 223.5,-571.5"/>
<text text-anchor="start" x="118.25" y="-558" font-family="Helvetica,sans-Serif" font-size="10.00">LPT::TransmitterParam</text>
<text text-anchor="start" x="135.5" y="-543" font-family="Helvetica,sans-Serif" font-size="10.00">+</text>
<text text-anchor="start" x="163.5" y="-543" font-family="Helvetica,sans-Serif" font-size="10.00">P_tx</text>
<text text-anchor="start" x="167" y="-528" font-family="Helvetica,sans-Serif" font-size="10.00"> </text>
<polygon fill="#bfbfbf" stroke="#bfbfbf" points="113.5,-554.5 113.5,-554.5 223.5,-554.5 223.5,-554.5 113.5,-554.5"/>
<polygon fill="#bfbfbf" stroke="#bfbfbf" points="113.5,-539.5 113.5,-539.5 161.5,-539.5 161.5,-539.5 113.5,-539.5"/>
<polygon fill="#bfbfbf" stroke="#bfbfbf" points="161.5,-539.5 161.5,-539.5 223.5,-539.5 223.5,-539.5 161.5,-539.5"/>
<polygon fill="none" stroke="#bfbfbf" points="113.5,-522.5 113.5,-571.5 223.5,-571.5 223.5,-522.5 113.5,-522.5"/>
</a>
</g>
</g>
<!-- Node4&#45;&gt;Node2 -->
<g id="edge3_Node000002_Node000004" class="edge">
<title>Node4&#45;&gt;Node2</title>
<g id="a_edge3_Node000002_Node000004"><a xlink:title=" ">
<path fill="none" stroke="#63b8ff" d="M159.24,-522.57C150.82,-501.3 138.14,-469.22 127.43,-442.15"/>
<polygon fill="none" stroke="#63b8ff" points="127.42,-442.12 121.49,-438.01 123.01,-430.96 128.93,-435.07 127.42,-442.12"/>
</a>
</g>
<text text-anchor="middle" x="172.88" y="-480" font-family="Helvetica,sans-Serif" font-size="10.00" fill="grey"> +tx_param_</text>
</g>
<!-- Node5 -->
<g id="Node000005" class="node">
<title>Node5</title>
<g id="a_Node000005"><a xlink:href="class_l_p_t_1_1_antenna.html" target="_top" xlink:title=" ">
<polygon fill="white" stroke="none" points="278.5,-460.25 166.5,-460.25 166.5,-321.25 278.5,-321.25 278.5,-460.25"/>
<text text-anchor="start" x="193.25" y="-446.75" font-family="Helvetica,sans-Serif" font-size="10.00">LPT::Antenna</text>
<text text-anchor="start" x="170.5" y="-431.75" font-family="Helvetica,sans-Serif" font-size="10.00">+</text>
<text text-anchor="start" x="180.5" y="-431.75" font-family="Helvetica,sans-Serif" font-size="10.00">comms_name_</text>
<text text-anchor="start" x="170.5" y="-416.75" font-family="Helvetica,sans-Serif" font-size="10.00">+</text>
<text text-anchor="start" x="180.5" y="-416.75" font-family="Helvetica,sans-Serif" font-size="10.00">antenna_pattern_</text>
<text text-anchor="start" x="170.5" y="-401.75" font-family="Helvetica,sans-Serif" font-size="10.00">+</text>
<text text-anchor="start" x="180.5" y="-401.75" font-family="Helvetica,sans-Serif" font-size="10.00">antenna_mask_</text>
<text text-anchor="start" x="170.5" y="-386.75" font-family="Helvetica,sans-Serif" font-size="10.00">+</text>
<text text-anchor="start" x="180.5" y="-386.75" font-family="Helvetica,sans-Serif" font-size="10.00">Antenna()</text>
<text text-anchor="start" x="170.5" y="-371.75" font-family="Helvetica,sans-Serif" font-size="10.00">+</text>
<text text-anchor="start" x="180.5" y="-371.75" font-family="Helvetica,sans-Serif" font-size="10.00">Antenna()</text>
<text text-anchor="start" x="170.5" y="-356.75" font-family="Helvetica,sans-Serif" font-size="10.00">+</text>
<text text-anchor="start" x="180.5" y="-356.75" font-family="Helvetica,sans-Serif" font-size="10.00">LoadAntennaPattern()</text>
<text text-anchor="start" x="170.5" y="-341.75" font-family="Helvetica,sans-Serif" font-size="10.00">+</text>
<text text-anchor="start" x="180.5" y="-341.75" font-family="Helvetica,sans-Serif" font-size="10.00">GetAntennaGain()</text>
<text text-anchor="start" x="170.5" y="-326.75" font-family="Helvetica,sans-Serif" font-size="10.00">+</text>
<text text-anchor="start" x="180.5" y="-326.75" font-family="Helvetica,sans-Serif" font-size="10.00">GetAntennaGain()</text>
<polygon fill="#bfbfbf" stroke="#bfbfbf" points="166.5,-443.25 166.5,-443.25 278.5,-443.25 278.5,-443.25 166.5,-443.25"/>
<polygon fill="#bfbfbf" stroke="#bfbfbf" points="166.5,-398.25 166.5,-398.25 178.5,-398.25 178.5,-398.25 166.5,-398.25"/>
<polygon fill="#bfbfbf" stroke="#bfbfbf" points="178.5,-398.25 178.5,-398.25 278.5,-398.25 278.5,-398.25 178.5,-398.25"/>
<polygon fill="none" stroke="#bfbfbf" points="166.5,-321.25 166.5,-460.25 278.5,-460.25 278.5,-321.25 166.5,-321.25"/>
</a>
</g>
</g>
<!-- Node5&#45;&gt;Node1 -->
<g id="edge4_Node000001_Node000005" class="edge">
<title>Node5&#45;&gt;Node1</title>
<g id="a_edge4_Node000001_Node000005"><a xlink:title=" ">
<path fill="none" stroke="#63b8ff" d="M206.73,-321.29C204.19,-310.27 201.48,-298.5 198.7,-286.44"/>
<polygon fill="none" stroke="#63b8ff" points="198.68,-286.37 193.44,-281.42 195.99,-274.67 201.23,-279.62 198.68,-286.37"/>
</a>
</g>
<text text-anchor="middle" x="225.88" y="-293.75" font-family="Helvetica,sans-Serif" font-size="10.00" fill="grey"> +antenna_</text>
</g>
</g>
</svg>
