<?xml version="1.0" encoding="UTF-8" standalone="no"?>
<!DOCTYPE svg PUBLIC "-//W3C//DTD SVG 1.1//EN"
 "http://www.w3.org/Graphics/SVG/1.1/DTD/svg11.dtd">
<!-- Generated by graphviz version 8.1.0 (20230707.0739)
 -->
<!-- Title: LPT::Antenna::GetAntennaGain Pages: 1 -->
<svg width="297pt" height="100pt"
 viewBox="0.00 0.00 296.50 100.25" xmlns="http://www.w3.org/2000/svg" xmlns:xlink="http://www.w3.org/1999/xlink">

<svg id="main" version="1.1" xmlns="http://www.w3.org/2000/svg" xmlns:xlink="http://www.w3.org/1999/xlink" xml:space="preserve" onload="init(evt)">
<style type="text/css"><![CDATA[
.node, .edge {opacity: 0.7;}
.node.selected, .edge.selected {opacity: 1;}
.edge:hover path { stroke: red; }
.edge:hover polygon { stroke: red; fill: red; }
]]></style>
<script type="application/ecmascript" xlink:href="svg.min.js"/>
<svg id="graph" class="graph">
<g id="graph0" class="graph" transform="scale(1 1) rotate(0) translate(4 96.25)">
<title>LPT::Antenna::GetAntennaGain</title>
<!-- Node1 -->
<g id="Node000001" class="node">
<title>Node1</title>
<g id="a_Node000001"><a xlink:title="Get the Antenna Gain object.">
<polygon fill="#999999" stroke="#666666" points="152.5,-46.25 0,-46.25 0,-27 152.5,-27 152.5,-46.25"/>
<text text-anchor="middle" x="76.25" y="-32.75" font-family="Helvetica,sans-Serif" font-size="10.00">LPT::Antenna::GetAntennaGain</text>
</a>
</g>
</g>
<!-- Node2 -->
<g id="Node000002" class="node">
<title>Node2</title>
<g id="a_Node000002"><a xlink:href="_math_utils_8cpp.html#a7d0e1b3d0f9fcf5f942dee923bf1242e" target="_top" xlink:title="Linear interpolation of a 2D data set.">
<polygon fill="white" stroke="#666666" points="288.5,-74.25 188.5,-74.25 188.5,-55 288.5,-55 288.5,-74.25"/>
<text text-anchor="middle" x="238.5" y="-60.75" font-family="Helvetica,sans-Serif" font-size="10.00">LPT::LinearInterp1d</text>
</a>
</g>
</g>
<!-- Node1&#45;&gt;Node2 -->
<g id="edge1_Node000001_Node000002" class="edge">
<title>Node1&#45;&gt;Node2</title>
<g id="a_edge1_Node000001_Node000002"><a xlink:title=" ">
<path fill="none" stroke="#63b8ff" d="M135.1,-46.73C148.96,-49.16 163.79,-51.75 177.73,-54.18"/>
<polygon fill="#63b8ff" stroke="#63b8ff" points="176.74,-57.74 187.19,-56.01 177.95,-50.84 176.74,-57.74"/>
</a>
</g>
</g>
<!-- Node3 -->
<g id="Node000003" class="node">
<title>Node3</title>
<g id="a_Node000003"><a xlink:href="_math_utils_8cpp.html#a18b2a0d53374293cd63a05dfc7703a48" target="_top" xlink:title="Linear interpolation of a 2D data set.">
<polygon fill="white" stroke="#666666" points="288.5,-19.25 188.5,-19.25 188.5,0 288.5,0 288.5,-19.25"/>
<text text-anchor="middle" x="238.5" y="-5.75" font-family="Helvetica,sans-Serif" font-size="10.00">LPT::LinearInterp2d</text>
</a>
</g>
</g>
<!-- Node1&#45;&gt;Node3 -->
<g id="edge3_Node000001_Node000003" class="edge">
<title>Node1&#45;&gt;Node3</title>
<g id="a_edge3_Node000001_Node000003"><a xlink:title=" ">
<path fill="none" stroke="#63b8ff" d="M136.92,-26.57C150.26,-24.32 164.41,-21.94 177.76,-19.69"/>
<polygon fill="#63b8ff" stroke="#63b8ff" points="177.98,-23.03 187.26,-17.92 176.81,-16.13 177.98,-23.03"/>
</a>
</g>
</g>
<!-- Node2&#45;&gt;Node2 -->
<g id="edge2_Node000002_Node000002" class="edge">
<title>Node2&#45;&gt;Node2</title>
<g id="a_edge2_Node000002_Node000002"><a xlink:title=" ">
<path fill="none" stroke="#63b8ff" d="M213.1,-74.54C201.51,-83.15 209.98,-92.25 238.5,-92.25 255.43,-92.25 265.3,-89.04 268.09,-84.63"/>
<polygon fill="#63b8ff" stroke="#63b8ff" points="270.97,-83.43 263.9,-75.54 264.5,-86.12 270.97,-83.43"/>
</a>
</g>
</g>
<!-- Node3&#45;&gt;Node3 -->
<g id="edge4_Node000003_Node000003" class="edge">
<title>Node3&#45;&gt;Node3</title>
<g id="a_edge4_Node000003_Node000003"><a xlink:title=" ">
<path fill="none" stroke="#63b8ff" d="M213.1,-19.54C201.51,-28.15 209.98,-37.25 238.5,-37.25 255.43,-37.25 265.3,-34.04 268.09,-29.63"/>
<polygon fill="#63b8ff" stroke="#63b8ff" points="270.97,-28.43 263.9,-20.54 264.5,-31.12 270.97,-28.43"/>
</a>
</g>
</g>
</g>
</svg>
</svg>

<style type='text/css'>
<![CDATA[
[data-mouse-over-selected='false'] { opacity: 0.7; }
[data-mouse-over-selected='true']  { opacity: 1.0; }
]]>
</style>
<script type="application/ecmascript"><![CDATA[
document.addEventListener('DOMContentLoaded', (event) => {
  highlightEdges();
  highlightAdjacentNodes();
});
]]></script>
</svg>
