<?xml version="1.0" encoding="UTF-8" standalone="no"?>
<!DOCTYPE svg PUBLIC "-//W3C//DTD SVG 1.1//EN"
 "http://www.w3.org/Graphics/SVG/1.1/DTD/svg11.dtd">
<!-- Generated by graphviz version 8.1.0 (20230707.0739)
 -->
<!-- Title: LPT::CoordConverter::Convert Pages: 1 -->
<svg width="575pt" height="185pt"
 viewBox="0.00 0.00 574.50 184.50" xmlns="http://www.w3.org/2000/svg" xmlns:xlink="http://www.w3.org/1999/xlink">
<g id="graph0" class="graph" transform="scale(1 1) rotate(0) translate(4 180.5)">
<title>LPT::CoordConverter::Convert</title>
<!-- Node1 -->
<g id="Node000001" class="node">
<title>Node1</title>
<g id="a_Node000001"><a xlink:title="Convert the state vector from one coordinate system to another (with integer ID input)">
<polygon fill="#999999" stroke="#666666" points="107.5,-91.5 0,-91.5 0,-61 107.5,-61 107.5,-91.5"/>
<text text-anchor="start" x="8" y="-78" font-family="Helvetica,sans-Serif" font-size="10.00">LPT::CoordConverter</text>
<text text-anchor="middle" x="53.75" y="-66.75" font-family="Helvetica,sans-Serif" font-size="10.00">::Convert</text>
</a>
</g>
</g>
<!-- Node2 -->
<g id="Node000002" class="node">
<title>Node2</title>
<g id="a_Node000002"><a xlink:href="class_l_p_t_1_1_coord_converter.html#a2f843ba197bcb99fd14fd60d057522d5" target="_top" xlink:title="Convert the state vector from one coordinate system to another (with string ID input)">
<polygon fill="white" stroke="#666666" points="251,-158.5 143.5,-158.5 143.5,-128 251,-128 251,-158.5"/>
<text text-anchor="start" x="151.5" y="-145" font-family="Helvetica,sans-Serif" font-size="10.00">LPT::CoordConverter</text>
<text text-anchor="middle" x="197.25" y="-133.75" font-family="Helvetica,sans-Serif" font-size="10.00">::Convert</text>
</a>
</g>
</g>
<!-- Node1&#45;&gt;Node2 -->
<g id="edge1_Node000001_Node000002" class="edge">
<title>Node1&#45;&gt;Node2</title>
<g id="a_edge1_Node000001_Node000002"><a xlink:title=" ">
<path fill="none" stroke="#63b8ff" d="M87.93,-91.96C107.53,-101.24 132.56,-113.09 153.61,-123.06"/>
<polygon fill="#63b8ff" stroke="#63b8ff" points="151.75,-126.52 162.28,-127.64 154.74,-120.2 151.75,-126.52"/>
</a>
</g>
</g>
<!-- Node3 -->
<g id="Node000003" class="node">
<title>Node3</title>
<g id="a_Node000003"><a xlink:href="_spice_interface_8cpp.html#ad1190ee1fcd763b5e40f302c3c391ef5" target="_top" xlink:title="Get the Body Position and Velocity using Chebyshev polynomials.">
<polygon fill="white" stroke="#666666" points="248,-91.5 146.5,-91.5 146.5,-61 248,-61 248,-91.5"/>
<text text-anchor="start" x="154.5" y="-78" font-family="Helvetica,sans-Serif" font-size="10.00">LPT::SpiceInterface</text>
<text text-anchor="middle" x="197.25" y="-66.75" font-family="Helvetica,sans-Serif" font-size="10.00">::GetBodyPosVel</text>
</a>
</g>
</g>
<!-- Node1&#45;&gt;Node3 -->
<g id="edge3_Node000001_Node000003" class="edge">
<title>Node1&#45;&gt;Node3</title>
<g id="a_edge3_Node000001_Node000003"><a xlink:title=" ">
<path fill="none" stroke="#63b8ff" d="M107.84,-76.25C116.76,-76.25 126.08,-76.25 135.19,-76.25"/>
<polygon fill="#63b8ff" stroke="#63b8ff" points="135.14,-79.75 145.14,-76.25 135.14,-72.75 135.14,-79.75"/>
</a>
</g>
</g>
<!-- Node6 -->
<g id="Node000006" class="node">
<title>Node6</title>
<g id="a_Node000006"><a xlink:href="_spice_interface_8cpp.html#a5d3bc331a28fbbaac12e77e0ef739b5f" target="_top" xlink:title="Get the Frame Conversion Matrix object.">
<polygon fill="white" stroke="#666666" points="429,-30.5 287,-30.5 287,0 429,0 429,-30.5"/>
<text text-anchor="start" x="295" y="-17" font-family="Helvetica,sans-Serif" font-size="10.00">LPT::SpiceInterface</text>
<text text-anchor="middle" x="358" y="-5.75" font-family="Helvetica,sans-Serif" font-size="10.00">::GetFrameConversionMatrix</text>
</a>
</g>
</g>
<!-- Node1&#45;&gt;Node6 -->
<g id="edge10_Node000001_Node000006" class="edge">
<title>Node1&#45;&gt;Node6</title>
<g id="a_edge10_Node000001_Node000006"><a xlink:title=" ">
<path fill="none" stroke="#63b8ff" d="M107.58,-61.1C119.35,-57.97 131.81,-54.84 143.5,-52.25 187.07,-42.61 236.1,-33.95 276.18,-27.45"/>
<polygon fill="#63b8ff" stroke="#63b8ff" points="276.65,-30.76 285.97,-25.71 275.54,-23.84 276.65,-30.76"/>
</a>
</g>
</g>
<!-- Node2&#45;&gt;Node2 -->
<g id="edge2_Node000002_Node000002" class="edge">
<title>Node2&#45;&gt;Node2</title>
<g id="a_edge2_Node000002_Node000002"><a xlink:title=" ">
<path fill="none" stroke="#63b8ff" d="M171.82,-158.99C166.63,-168.06 175.11,-176.5 197.25,-176.5 209.7,-176.5 217.84,-173.83 221.64,-169.88"/>
<polygon fill="#63b8ff" stroke="#63b8ff" points="225.22,-170.27 222.68,-159.99 218.25,-169.61 225.22,-170.27"/>
</a>
</g>
</g>
<!-- Node3&#45;&gt;Node3 -->
<g id="edge8_Node000003_Node000003" class="edge">
<title>Node3&#45;&gt;Node3</title>
<g id="a_edge8_Node000003_Node000003"><a xlink:title=" ">
<path fill="none" stroke="#63b8ff" d="M171.82,-91.99C166.63,-101.06 175.11,-109.5 197.25,-109.5 209.7,-109.5 217.84,-106.83 221.64,-102.88"/>
<polygon fill="#63b8ff" stroke="#63b8ff" points="225.22,-103.27 222.68,-92.99 218.25,-102.61 225.22,-103.27"/>
</a>
</g>
</g>
<!-- Node4 -->
<g id="Node000004" class="node">
<title>Node4</title>
<g id="a_Node000004"><a xlink:href="_spice_interface_8cpp.html#af325f617b7e3d6a65c37b6ca4dfd52b3" target="_top" xlink:title="Convert time from one time system to another.">
<polygon fill="white" stroke="#666666" points="408.75,-134.5 307.25,-134.5 307.25,-104 408.75,-104 408.75,-134.5"/>
<text text-anchor="start" x="315.25" y="-121" font-family="Helvetica,sans-Serif" font-size="10.00">LPT::SpiceInterface</text>
<text text-anchor="middle" x="358" y="-109.75" font-family="Helvetica,sans-Serif" font-size="10.00">::ConvertTime</text>
</a>
</g>
</g>
<!-- Node3&#45;&gt;Node4 -->
<g id="edge4_Node000003_Node000004" class="edge">
<title>Node3&#45;&gt;Node4</title>
<g id="a_edge4_Node000003_Node000004"><a xlink:title=" ">
<path fill="none" stroke="#63b8ff" d="M248.48,-89.86C263.76,-93.99 280.7,-98.58 296.58,-102.88"/>
<polygon fill="#63b8ff" stroke="#63b8ff" points="295.26,-106.42 305.83,-105.66 297.09,-99.67 295.26,-106.42"/>
</a>
</g>
</g>
<!-- Node5 -->
<g id="Node000005" class="node">
<title>Node5</title>
<g id="a_Node000005"><a xlink:href="_spice_interface_8cpp.html#a37ef193d9d9c280ca90a4dcfc6c42002" target="_top" xlink:title="load the Spice kernels">
<polygon fill="white" stroke="#666666" points="566.5,-91.5 465,-91.5 465,-61 566.5,-61 566.5,-91.5"/>
<text text-anchor="start" x="473" y="-78" font-family="Helvetica,sans-Serif" font-size="10.00">LPT::SpiceInterface</text>
<text text-anchor="middle" x="515.75" y="-66.75" font-family="Helvetica,sans-Serif" font-size="10.00">::LoadSpiceKernel</text>
</a>
</g>
</g>
<!-- Node3&#45;&gt;Node5 -->
<g id="edge9_Node000003_Node000005" class="edge">
<title>Node3&#45;&gt;Node5</title>
<g id="a_edge9_Node000003_Node000005"><a xlink:title=" ">
<path fill="none" stroke="#63b8ff" d="M248.4,-76.25C304.11,-76.25 394.06,-76.25 453.79,-76.25"/>
<polygon fill="#63b8ff" stroke="#63b8ff" points="453.57,-79.75 463.57,-76.25 453.57,-72.75 453.57,-79.75"/>
</a>
</g>
</g>
<!-- Node4&#45;&gt;Node4 -->
<g id="edge5_Node000004_Node000004" class="edge">
<title>Node4&#45;&gt;Node4</title>
<g id="a_edge5_Node000004_Node000004"><a xlink:title=" ">
<path fill="none" stroke="#63b8ff" d="M330.05,-134.99C324.34,-144.06 333.66,-152.5 358,-152.5 371.69,-152.5 380.63,-149.83 384.81,-145.88"/>
<polygon fill="#63b8ff" stroke="#63b8ff" points="388.39,-146.3 385.95,-135.99 381.43,-145.57 388.39,-146.3"/>
</a>
</g>
</g>
<!-- Node4&#45;&gt;Node5 -->
<g id="edge6_Node000004_Node000005" class="edge">
<title>Node4&#45;&gt;Node5</title>
<g id="a_edge6_Node000004_Node000005"><a xlink:title=" ">
<path fill="none" stroke="#63b8ff" d="M409.14,-105.41C423.59,-101.42 439.5,-97.02 454.5,-92.88"/>
<polygon fill="#63b8ff" stroke="#63b8ff" points="455,-96.1 463.71,-90.07 453.14,-89.35 455,-96.1"/>
</a>
</g>
</g>
<!-- Node5&#45;&gt;Node5 -->
<g id="edge7_Node000005_Node000005" class="edge">
<title>Node5&#45;&gt;Node5</title>
<g id="a_edge7_Node000005_Node000005"><a xlink:title=" ">
<path fill="none" stroke="#63b8ff" d="M487.8,-91.99C482.09,-101.06 491.41,-109.5 515.75,-109.5 529.44,-109.5 538.38,-106.83 542.56,-102.88"/>
<polygon fill="#63b8ff" stroke="#63b8ff" points="546.14,-103.3 543.7,-92.99 539.18,-102.57 546.14,-103.3"/>
</a>
</g>
</g>
<!-- Node6&#45;&gt;Node5 -->
<g id="edge12_Node000006_Node000005" class="edge">
<title>Node6&#45;&gt;Node5</title>
<g id="a_edge12_Node000006_Node000005"><a xlink:title=" ">
<path fill="none" stroke="#63b8ff" d="M399.11,-30.96C419.09,-38.79 443.46,-48.33 464.66,-56.63"/>
<polygon fill="#63b8ff" stroke="#63b8ff" points="463.19,-60.21 473.78,-60.59 465.74,-53.69 463.19,-60.21"/>
</a>
</g>
</g>
<!-- Node6&#45;&gt;Node6 -->
<g id="edge11_Node000006_Node000006" class="edge">
<title>Node6&#45;&gt;Node6</title>
<g id="a_edge11_Node000006_Node000006"><a xlink:title=" ">
<path fill="none" stroke="#63b8ff" d="M330.05,-30.99C324.34,-40.06 333.66,-48.5 358,-48.5 371.69,-48.5 380.63,-45.83 384.81,-41.88"/>
<polygon fill="#63b8ff" stroke="#63b8ff" points="388.39,-42.3 385.95,-31.99 381.43,-41.57 388.39,-42.3"/>
</a>
</g>
</g>
</g>
</svg>
