<?xml version="1.0" encoding="UTF-8" standalone="no"?>
<!DOCTYPE svg PUBLIC "-//W3C//DTD SVG 1.1//EN"
 "http://www.w3.org/Graphics/SVG/1.1/DTD/svg11.dtd">
<!-- Generated by graphviz version 8.1.0 (20230707.0739)
 -->
<!-- Title: LPT::NumericalDynamics Pages: 1 -->
<svg width="968pt" height="572pt"
 viewBox="0.00 0.00 967.50 572.00" xmlns="http://www.w3.org/2000/svg" xmlns:xlink="http://www.w3.org/1999/xlink">
<g id="graph0" class="graph" transform="scale(1 1) rotate(0) translate(4 568)">
<title>LPT::NumericalDynamics</title>
<!-- Node1 -->
<g id="Node000001" class="node">
<title>Node1</title>
<g id="a_Node000001"><a xlink:title=" ">
<polygon fill="#999999" stroke="none" points="560,-359 439,-359 439,-160 560,-160 560,-359"/>
<text text-anchor="start" x="444" y="-345.5" font-family="Helvetica,sans-Serif" font-size="10.00">LPT::NumericalDynamics</text>
<text text-anchor="start" x="498" y="-330.5" font-family="Helvetica,sans-Serif" font-size="10.00"> </text>
<text text-anchor="start" x="445" y="-315.5" font-family="Helvetica,sans-Serif" font-size="10.00">+</text>
<text text-anchor="start" x="457" y="-315.5" font-family="Helvetica,sans-Serif" font-size="10.00">NumericalDynamics()</text>
<text text-anchor="start" x="445" y="-300.5" font-family="Helvetica,sans-Serif" font-size="10.00">+</text>
<text text-anchor="start" x="457" y="-300.5" font-family="Helvetica,sans-Serif" font-size="10.00">SetDt()</text>
<text text-anchor="start" x="445" y="-285.5" font-family="Helvetica,sans-Serif" font-size="10.00">+</text>
<text text-anchor="start" x="457" y="-285.5" font-family="Helvetica,sans-Serif" font-size="10.00">Propagate()</text>
<text text-anchor="start" x="445" y="-270.5" font-family="Helvetica,sans-Serif" font-size="10.00">+</text>
<text text-anchor="start" x="457" y="-270.5" font-family="Helvetica,sans-Serif" font-size="10.00">Propagate()</text>
<text text-anchor="start" x="445" y="-255.5" font-family="Helvetica,sans-Serif" font-size="10.00">+</text>
<text text-anchor="start" x="457" y="-255.5" font-family="Helvetica,sans-Serif" font-size="10.00">PropagateWithStm()</text>
<text text-anchor="start" x="445" y="-240.5" font-family="Helvetica,sans-Serif" font-size="10.00">+</text>
<text text-anchor="start" x="457" y="-240.5" font-family="Helvetica,sans-Serif" font-size="10.00">PropagateWithStm()</text>
<text text-anchor="start" x="445" y="-225.5" font-family="Helvetica,sans-Serif" font-size="10.00">+</text>
<text text-anchor="start" x="457" y="-225.5" font-family="Helvetica,sans-Serif" font-size="10.00">Propagate()</text>
<text text-anchor="start" x="445" y="-210.5" font-family="Helvetica,sans-Serif" font-size="10.00">+</text>
<text text-anchor="start" x="457" y="-210.5" font-family="Helvetica,sans-Serif" font-size="10.00">Propagate()</text>
<text text-anchor="start" x="445" y="-195.5" font-family="Helvetica,sans-Serif" font-size="10.00">+</text>
<text text-anchor="start" x="457" y="-195.5" font-family="Helvetica,sans-Serif" font-size="10.00">PropagateWithStm()</text>
<text text-anchor="start" x="445" y="-180.5" font-family="Helvetica,sans-Serif" font-size="10.00">+</text>
<text text-anchor="start" x="457" y="-180.5" font-family="Helvetica,sans-Serif" font-size="10.00">PropagateWithStm()</text>
<text text-anchor="start" x="445.38" y="-165.5" font-family="Helvetica,sans-Serif" font-size="10.00">#</text>
<text text-anchor="start" x="457" y="-165.5" font-family="Helvetica,sans-Serif" font-size="10.00">ComputeRates()</text>
<polygon fill="#666666" stroke="#666666" points="439,-342 439,-342 560,-342 560,-342 439,-342"/>
<polygon fill="#666666" stroke="#666666" points="439,-327 439,-327 560,-327 560,-327 439,-327"/>
<polygon fill="none" stroke="#666666" points="439,-160 439,-359 560,-359 560,-160 439,-160"/>
</a>
</g>
</g>
<!-- Node3 -->
<g id="Node000003" class="node">
<title>Node3</title>
<g id="a_Node000003"><a xlink:href="class_l_p_t_1_1_cartesian_two_body_dynamics.html" target="_top" xlink:title=" ">
<polygon fill="white" stroke="none" points="159,-94 0,-94 0,-30 159,-30 159,-94"/>
<text text-anchor="start" x="4.88" y="-80.5" font-family="Helvetica,sans-Serif" font-size="10.00">LPT::CartesianTwoBodyDynamics</text>
<text text-anchor="start" x="78" y="-65.5" font-family="Helvetica,sans-Serif" font-size="10.00"> </text>
<text text-anchor="start" x="6" y="-50.5" font-family="Helvetica,sans-Serif" font-size="10.00">+</text>
<text text-anchor="start" x="18" y="-50.5" font-family="Helvetica,sans-Serif" font-size="10.00">CartesianTwoBodyDynamics()</text>
<text text-anchor="start" x="6" y="-35.5" font-family="Helvetica,sans-Serif" font-size="10.00">+</text>
<text text-anchor="start" x="18" y="-35.5" font-family="Helvetica,sans-Serif" font-size="10.00">ComputeRates()</text>
<polygon fill="#bfbfbf" stroke="#bfbfbf" points="0,-77 0,-77 159,-77 159,-77 0,-77"/>
<polygon fill="#bfbfbf" stroke="#bfbfbf" points="0,-62 0,-62 159,-62 159,-62 0,-62"/>
<polygon fill="none" stroke="#bfbfbf" points="0,-30 0,-94 159,-94 159,-30 0,-30"/>
</a>
</g>
</g>
<!-- Node1&#45;&gt;Node3 -->
<g id="edge2_Node000001_Node000003" class="edge">
<title>Node1&#45;&gt;Node3</title>
<g id="a_edge2_Node000001_Node000003"><a xlink:title=" ">
<path fill="none" stroke="#63b8ff" d="M428.97,-235.06C360.32,-211.07 254.01,-170.76 167.5,-124 151.31,-115.25 134.48,-104.14 119.93,-93.81"/>
<polygon fill="none" stroke="#63b8ff" points="427.64,-238.65 438.23,-238.62 429.93,-232.04 427.64,-238.65"/>
</a>
</g>
</g>
<!-- Node4 -->
<g id="Node000004" class="node">
<title>Node4</title>
<g id="a_Node000004"><a xlink:href="class_l_p_t_1_1_j2_cartesian_two_body_dynamics.html" target="_top" xlink:title=" ">
<polygon fill="white" stroke="none" points="346,-94 177,-94 177,-30 346,-30 346,-94"/>
<text text-anchor="start" x="181.62" y="-80.5" font-family="Helvetica,sans-Serif" font-size="10.00">LPT::J2CartesianTwoBodyDynamics</text>
<text text-anchor="start" x="260" y="-65.5" font-family="Helvetica,sans-Serif" font-size="10.00"> </text>
<text text-anchor="start" x="183" y="-50.5" font-family="Helvetica,sans-Serif" font-size="10.00">+</text>
<text text-anchor="start" x="195" y="-50.5" font-family="Helvetica,sans-Serif" font-size="10.00">J2CartesianTwoBodyDynamics()</text>
<text text-anchor="start" x="183" y="-35.5" font-family="Helvetica,sans-Serif" font-size="10.00">+</text>
<text text-anchor="start" x="195" y="-35.5" font-family="Helvetica,sans-Serif" font-size="10.00">ComputeRates()</text>
<polygon fill="#bfbfbf" stroke="#bfbfbf" points="177,-77 177,-77 346,-77 346,-77 177,-77"/>
<polygon fill="#bfbfbf" stroke="#bfbfbf" points="177,-62 177,-62 346,-62 346,-62 177,-62"/>
<polygon fill="none" stroke="#bfbfbf" points="177,-30 177,-94 346,-94 346,-30 177,-30"/>
</a>
</g>
</g>
<!-- Node1&#45;&gt;Node4 -->
<g id="edge3_Node000001_Node000004" class="edge">
<title>Node1&#45;&gt;Node4</title>
<g id="a_edge3_Node000001_Node000004"><a xlink:title=" ">
<path fill="none" stroke="#63b8ff" d="M430.71,-202C387.85,-166.79 334.35,-122.84 299.11,-93.9"/>
<polygon fill="none" stroke="#63b8ff" points="428.19,-205.27 438.13,-208.91 432.63,-199.86 428.19,-205.27"/>
</a>
</g>
</g>
<!-- Node5 -->
<g id="Node000005" class="node">
<title>Node5</title>
<g id="a_Node000005"><a xlink:href="class_l_p_t_1_1_j2_keplerian_dynamics.html" target="_top" xlink:title=" ">
<polygon fill="white" stroke="none" points="491,-94 364,-94 364,-30 491,-30 491,-94"/>
<text text-anchor="start" x="368.62" y="-80.5" font-family="Helvetica,sans-Serif" font-size="10.00">LPT::J2KeplerianDynamics</text>
<text text-anchor="start" x="426" y="-65.5" font-family="Helvetica,sans-Serif" font-size="10.00"> </text>
<text text-anchor="start" x="370" y="-50.5" font-family="Helvetica,sans-Serif" font-size="10.00">+</text>
<text text-anchor="start" x="382" y="-50.5" font-family="Helvetica,sans-Serif" font-size="10.00">J2KeplerianDynamics()</text>
<text text-anchor="start" x="370" y="-35.5" font-family="Helvetica,sans-Serif" font-size="10.00">+</text>
<text text-anchor="start" x="382" y="-35.5" font-family="Helvetica,sans-Serif" font-size="10.00">ComputeRates()</text>
<polygon fill="#bfbfbf" stroke="#bfbfbf" points="364,-77 364,-77 491,-77 491,-77 364,-77"/>
<polygon fill="#bfbfbf" stroke="#bfbfbf" points="364,-62 364,-62 491,-62 491,-62 364,-62"/>
<polygon fill="none" stroke="#bfbfbf" points="364,-30 364,-94 491,-94 491,-30 364,-30"/>
</a>
</g>
</g>
<!-- Node1&#45;&gt;Node5 -->
<g id="edge4_Node000001_Node000005" class="edge">
<title>Node1&#45;&gt;Node5</title>
<g id="a_edge4_Node000001_Node000005"><a xlink:title=" ">
<path fill="none" stroke="#63b8ff" d="M459.54,-150.01C451.94,-129.36 444.58,-109.37 438.83,-93.76"/>
<polygon fill="none" stroke="#63b8ff" points="456.55,-151 463.29,-159.18 463.12,-148.58 456.55,-151"/>
</a>
</g>
</g>
<!-- Node6 -->
<g id="Node000006" class="node">
<title>Node6</title>
<g id="a_Node000006"><a xlink:href="class_l_p_t_1_1_moon_fixed_dynamics.html" target="_top" xlink:title=" ">
<polygon fill="white" stroke="none" points="633.5,-94 509.5,-94 509.5,-30 633.5,-30 633.5,-94"/>
<text text-anchor="start" x="514.12" y="-80.5" font-family="Helvetica,sans-Serif" font-size="10.00">LPT::MoonFixedDynamics</text>
<text text-anchor="start" x="570" y="-65.5" font-family="Helvetica,sans-Serif" font-size="10.00"> </text>
<text text-anchor="start" x="515.5" y="-50.5" font-family="Helvetica,sans-Serif" font-size="10.00">+</text>
<text text-anchor="start" x="527.5" y="-50.5" font-family="Helvetica,sans-Serif" font-size="10.00">MoonFixedDynamics()</text>
<text text-anchor="start" x="515.5" y="-35.5" font-family="Helvetica,sans-Serif" font-size="10.00">+</text>
<text text-anchor="start" x="527.5" y="-35.5" font-family="Helvetica,sans-Serif" font-size="10.00">ComputeRates()</text>
<polygon fill="#bfbfbf" stroke="#bfbfbf" points="509.5,-77 509.5,-77 633.5,-77 633.5,-77 509.5,-77"/>
<polygon fill="#bfbfbf" stroke="#bfbfbf" points="509.5,-62 509.5,-62 633.5,-62 633.5,-62 509.5,-62"/>
<polygon fill="none" stroke="#bfbfbf" points="509.5,-30 509.5,-94 633.5,-94 633.5,-30 509.5,-30"/>
</a>
</g>
</g>
<!-- Node1&#45;&gt;Node6 -->
<g id="edge5_Node000001_Node000006" class="edge">
<title>Node1&#45;&gt;Node6</title>
<g id="a_edge5_Node000001_Node000006"><a xlink:title=" ">
<path fill="none" stroke="#63b8ff" d="M539.46,-150.01C547.06,-129.36 554.42,-109.37 560.17,-93.76"/>
<polygon fill="none" stroke="#63b8ff" points="535.88,-148.58 535.71,-159.18 542.45,-151 535.88,-148.58"/>
</a>
</g>
</g>
<!-- Node7 -->
<g id="Node000007" class="node">
<title>Node7</title>
<g id="a_Node000007"><a xlink:href="class_l_p_t_1_1_moon_mean_dynamics.html" target="_top" xlink:title=" ">
<polygon fill="white" stroke="none" points="775.5,-94 651.5,-94 651.5,-30 775.5,-30 775.5,-94"/>
<text text-anchor="start" x="656.12" y="-80.5" font-family="Helvetica,sans-Serif" font-size="10.00">LPT::MoonMeanDynamics</text>
<text text-anchor="start" x="712" y="-65.5" font-family="Helvetica,sans-Serif" font-size="10.00"> </text>
<text text-anchor="start" x="657.5" y="-50.5" font-family="Helvetica,sans-Serif" font-size="10.00">+</text>
<text text-anchor="start" x="669.5" y="-50.5" font-family="Helvetica,sans-Serif" font-size="10.00">MoonMeanDynamics()</text>
<text text-anchor="start" x="657.5" y="-35.5" font-family="Helvetica,sans-Serif" font-size="10.00">+</text>
<text text-anchor="start" x="669.5" y="-35.5" font-family="Helvetica,sans-Serif" font-size="10.00">ComputeRates()</text>
<polygon fill="#bfbfbf" stroke="#bfbfbf" points="651.5,-77 651.5,-77 775.5,-77 775.5,-77 651.5,-77"/>
<polygon fill="#bfbfbf" stroke="#bfbfbf" points="651.5,-62 651.5,-62 775.5,-62 775.5,-62 651.5,-62"/>
<polygon fill="none" stroke="#bfbfbf" points="651.5,-30 651.5,-94 775.5,-94 775.5,-30 651.5,-30"/>
</a>
</g>
</g>
<!-- Node1&#45;&gt;Node7 -->
<g id="edge6_Node000001_Node000007" class="edge">
<title>Node1&#45;&gt;Node7</title>
<g id="a_edge6_Node000001_Node000007"><a xlink:title=" ">
<path fill="none" stroke="#63b8ff" d="M567.82,-196.08C605.2,-161.94 649.86,-121.14 679.79,-93.8"/>
<polygon fill="none" stroke="#63b8ff" points="565.99,-192.93 560.97,-202.26 570.71,-198.1 565.99,-192.93"/>
</a>
</g>
</g>
<!-- Node8 -->
<g id="Node000008" class="node">
<title>Node8</title>
<g id="a_Node000008"><a xlink:href="class_l_p_t_1_1_n_body_dynamics.html" target="_top" xlink:title=" ">
<polygon fill="white" stroke="none" points="959.5,-124 793.5,-124 793.5,0 959.5,0 959.5,-124"/>
<text text-anchor="start" x="828.12" y="-110.5" font-family="Helvetica,sans-Serif" font-size="10.00">LPT::NBodyDynamics</text>
<text text-anchor="start" x="875" y="-95.5" font-family="Helvetica,sans-Serif" font-size="10.00"> </text>
<text text-anchor="start" x="797.5" y="-80.5" font-family="Helvetica,sans-Serif" font-size="10.00">+</text>
<text text-anchor="start" x="807.5" y="-80.5" font-family="Helvetica,sans-Serif" font-size="10.00">NBodyDynamics()</text>
<text text-anchor="start" x="797.5" y="-65.5" font-family="Helvetica,sans-Serif" font-size="10.00">+</text>
<text text-anchor="start" x="807.5" y="-65.5" font-family="Helvetica,sans-Serif" font-size="10.00">ComputeRates()</text>
<text text-anchor="start" x="797.5" y="-50.5" font-family="Helvetica,sans-Serif" font-size="10.00">+</text>
<text text-anchor="start" x="807.5" y="-50.5" font-family="Helvetica,sans-Serif" font-size="10.00">AddBody()</text>
<text text-anchor="start" x="797.5" y="-35.5" font-family="Helvetica,sans-Serif" font-size="10.00">+</text>
<text text-anchor="start" x="807.5" y="-35.5" font-family="Helvetica,sans-Serif" font-size="10.00">SetCentralBody()</text>
<text text-anchor="start" x="797.5" y="-20.5" font-family="Helvetica,sans-Serif" font-size="10.00">+</text>
<text text-anchor="start" x="807.5" y="-20.5" font-family="Helvetica,sans-Serif" font-size="10.00">ComputeNBodyGravity()</text>
<text text-anchor="start" x="797.5" y="-5.5" font-family="Helvetica,sans-Serif" font-size="10.00">+</text>
<text text-anchor="start" x="807.5" y="-5.5" font-family="Helvetica,sans-Serif" font-size="10.00">ComputeSolarRadiationPressure()</text>
<polygon fill="#bfbfbf" stroke="#bfbfbf" points="793.5,-107 793.5,-107 959.5,-107 959.5,-107 793.5,-107"/>
<polygon fill="#bfbfbf" stroke="#bfbfbf" points="793.5,-92 793.5,-92 959.5,-92 959.5,-92 793.5,-92"/>
<polygon fill="none" stroke="#bfbfbf" points="793.5,0 793.5,-124 959.5,-124 959.5,0 793.5,0"/>
</a>
</g>
</g>
<!-- Node1&#45;&gt;Node8 -->
<g id="edge7_Node000001_Node000008" class="edge">
<title>Node1&#45;&gt;Node8</title>
<g id="a_edge7_Node000001_Node000008"><a xlink:title=" ">
<path fill="none" stroke="#63b8ff" d="M569.88,-228.69C628.45,-203.09 713.42,-164.06 784.5,-124 787.51,-122.31 790.54,-120.55 793.59,-118.75"/>
<polygon fill="none" stroke="#63b8ff" points="568.76,-225.8 560.99,-233 571.56,-232.22 568.76,-225.8"/>
</a>
</g>
</g>
<!-- Node2 -->
<g id="Node000002" class="node">
<title>Node2</title>
<g id="a_Node000002"><a xlink:href="class_l_p_t_1_1_i_orbit_dynamics.html" target="_top" xlink:title="Interface for Orbit Dynamics (Todo: find a way to inherit this from IDynamics)">
<polygon fill="white" stroke="none" points="552.5,-564 446.5,-564 446.5,-395 552.5,-395 552.5,-564"/>
<text text-anchor="start" x="454.12" y="-550.5" font-family="Helvetica,sans-Serif" font-size="10.00">LPT::IOrbitDynamics</text>
<text text-anchor="start" x="498" y="-535.5" font-family="Helvetica,sans-Serif" font-size="10.00"> </text>
<text text-anchor="start" x="450.5" y="-520.5" font-family="Helvetica,sans-Serif" font-size="10.00">+</text>
<text text-anchor="start" x="460.5" y="-520.5" font-family="Helvetica,sans-Serif" font-size="10.00">~IOrbitDynamics()</text>
<text text-anchor="start" x="450.5" y="-505.5" font-family="Helvetica,sans-Serif" font-size="10.00">+</text>
<text text-anchor="start" x="460.5" y="-505.5" font-family="Helvetica,sans-Serif" font-size="10.00">Propagate()</text>
<text text-anchor="start" x="450.5" y="-490.5" font-family="Helvetica,sans-Serif" font-size="10.00">+</text>
<text text-anchor="start" x="460.5" y="-490.5" font-family="Helvetica,sans-Serif" font-size="10.00">Propagate()</text>
<text text-anchor="start" x="450.5" y="-475.5" font-family="Helvetica,sans-Serif" font-size="10.00">+</text>
<text text-anchor="start" x="460.5" y="-475.5" font-family="Helvetica,sans-Serif" font-size="10.00">PropagateWithStm()</text>
<text text-anchor="start" x="450.5" y="-460.5" font-family="Helvetica,sans-Serif" font-size="10.00">+</text>
<text text-anchor="start" x="460.5" y="-460.5" font-family="Helvetica,sans-Serif" font-size="10.00">PropagateWithStm()</text>
<text text-anchor="start" x="450.5" y="-445.5" font-family="Helvetica,sans-Serif" font-size="10.00">+</text>
<text text-anchor="start" x="460.5" y="-445.5" font-family="Helvetica,sans-Serif" font-size="10.00">Propagate()</text>
<text text-anchor="start" x="450.5" y="-430.5" font-family="Helvetica,sans-Serif" font-size="10.00">+</text>
<text text-anchor="start" x="460.5" y="-430.5" font-family="Helvetica,sans-Serif" font-size="10.00">Propagate()</text>
<text text-anchor="start" x="450.5" y="-415.5" font-family="Helvetica,sans-Serif" font-size="10.00">+</text>
<text text-anchor="start" x="460.5" y="-415.5" font-family="Helvetica,sans-Serif" font-size="10.00">PropagateWithStm()</text>
<text text-anchor="start" x="450.5" y="-400.5" font-family="Helvetica,sans-Serif" font-size="10.00">+</text>
<text text-anchor="start" x="460.5" y="-400.5" font-family="Helvetica,sans-Serif" font-size="10.00">PropagateWithStm()</text>
<polygon fill="#666666" stroke="#666666" points="446.5,-547 446.5,-547 552.5,-547 552.5,-547 446.5,-547"/>
<polygon fill="#666666" stroke="#666666" points="446.5,-532 446.5,-532 552.5,-532 552.5,-532 446.5,-532"/>
<polygon fill="none" stroke="#666666" points="446.5,-395 446.5,-564 552.5,-564 552.5,-395 446.5,-395"/>
</a>
</g>
</g>
<!-- Node2&#45;&gt;Node1 -->
<g id="edge1_Node000001_Node000002" class="edge">
<title>Node2&#45;&gt;Node1</title>
<g id="a_edge1_Node000001_Node000002"><a xlink:title=" ">
<path fill="none" stroke="#63b8ff" d="M499.5,-384.17C499.5,-375.75 499.5,-367.22 499.5,-358.77"/>
<polygon fill="none" stroke="#63b8ff" points="496,-384.15 499.5,-394.15 503,-384.15 496,-384.15"/>
</a>
</g>
</g>
</g>
</svg>
