<?xml version="1.0" encoding="UTF-8" standalone="no"?>
<!DOCTYPE svg PUBLIC "-//W3C//DTD SVG 1.1//EN"
 "http://www.w3.org/Graphics/SVG/1.1/DTD/svg11.dtd">
<!-- Generated by graphviz version 8.1.0 (20230707.0739)
 -->
<!-- Title: lupnt Pages: 1 -->
<svg width="256pt" height="280pt"
 viewBox="0.00 0.00 256.00 280.25" xmlns="http://www.w3.org/2000/svg" xmlns:xlink="http://www.w3.org/1999/xlink">
<g id="graph0" class="graph" transform="scale(1 1) rotate(0) translate(4 276.25)">
<title>lupnt</title>
<g id="clust1" class="cluster">
<title>clusterdir_0cac02388ded90a743b690659ebac3b7</title>
<g id="a_clust1"><a xlink:href="dir_0cac02388ded90a743b690659ebac3b7.html" target="_top">
<polygon fill="#edf0f7" stroke="#404040" stroke-width="2" points="8,-8 8,-264.25 240,-264.25 240,-8 8,-8"/>
</a>
</g>
</g>
<!-- dir_0cac02388ded90a743b690659ebac3b7 -->
<g id="node1" class="node">
<title>dir_0cac02388ded90a743b690659ebac3b7</title>
<text text-anchor="middle" x="192" y="-242.75" font-family="Helvetica,sans-Serif" font-size="10.00">lupnt</text>
</g>
<!-- dir_bfb67d1bf2055d55254a135fbe634cf0 -->
<g id="node2" class="node">
<title>dir_bfb67d1bf2055d55254a135fbe634cf0</title>
<g id="a_node2"><a xlink:href="dir_bfb67d1bf2055d55254a135fbe634cf0.html" target="_top" xlink:title="agents">
<polygon fill="#eaeef6" stroke="#404040" points="135.62,-256.25 90.38,-256.25 90.38,-237 135.62,-237 135.62,-256.25"/>
<text text-anchor="middle" x="113" y="-242.75" font-family="Helvetica,sans-Serif" font-size="10.00">agents</text>
</a>
</g>
</g>
<!-- dir_689da0fbbc4c0c811ae068fee20340f5 -->
<g id="node3" class="node">
<title>dir_689da0fbbc4c0c811ae068fee20340f5</title>
<g id="a_node3"><a xlink:href="dir_689da0fbbc4c0c811ae068fee20340f5.html" target="_top" xlink:title="core">
<polygon fill="#eaeef6" stroke="#404040" points="100.38,-90.5 65.62,-90.5 65.62,-71.25 100.38,-71.25 100.38,-90.5"/>
<text text-anchor="middle" x="83" y="-77" font-family="Helvetica,sans-Serif" font-size="10.00">core</text>
</a>
</g>
</g>
<!-- dir_bfb67d1bf2055d55254a135fbe634cf0&#45;&gt;dir_689da0fbbc4c0c811ae068fee20340f5 -->
<g id="edge3" class="edge">
<title>dir_bfb67d1bf2055d55254a135fbe634cf0&#45;&gt;dir_689da0fbbc4c0c811ae068fee20340f5</title>
<g id="a_edge3"><a xlink:href="dir_000000_000002.html" target="_top">
<path fill="none" stroke="#63b8ff" d="M89.88,-242.35C66.68,-237.37 33.03,-225.72 18,-201 -3.42,-165.76 33.19,-121 59.81,-97.66"/>
<polygon fill="#63b8ff" stroke="#63b8ff" points="61.54,-99.95 67.02,-90.88 57.08,-94.55 61.54,-99.95"/>
</a>
</g>
<g id="a_edge3&#45;headlabel"><a xlink:href="dir_000000_000002.html" target="_top" xlink:title="3">
<text text-anchor="middle" x="61.58" y="-100.55" font-family="Helvetica,sans-Serif" font-size="10.00" fill="#63b8ff">3</text>
</a>
</g>
</g>
<!-- dir_6f06eedd4381d05154931903bd792f62 -->
<g id="node4" class="node">
<title>dir_6f06eedd4381d05154931903bd792f62</title>
<g id="a_node4"><a xlink:href="dir_6f06eedd4381d05154931903bd792f62.html" target="_top" xlink:title="dynamics">
<polygon fill="#eaeef6" stroke="#404040" points="94,-201 36,-201 36,-181.75 94,-181.75 94,-201"/>
<text text-anchor="middle" x="65" y="-187.5" font-family="Helvetica,sans-Serif" font-size="10.00">dynamics</text>
</a>
</g>
</g>
<!-- dir_bfb67d1bf2055d55254a135fbe634cf0&#45;&gt;dir_6f06eedd4381d05154931903bd792f62 -->
<g id="edge4" class="edge">
<title>dir_bfb67d1bf2055d55254a135fbe634cf0&#45;&gt;dir_6f06eedd4381d05154931903bd792f62</title>
<g id="a_edge4"><a xlink:href="dir_000000_000006.html" target="_top">
<path fill="none" stroke="#63b8ff" d="M105.07,-236.83C98.37,-229.4 88.58,-218.54 80.36,-209.41"/>
<polygon fill="#63b8ff" stroke="#63b8ff" points="83.39,-207.44 74.1,-202.36 78.19,-212.13 83.39,-207.44"/>
</a>
</g>
<g id="a_edge4&#45;headlabel"><a xlink:href="dir_000000_000006.html" target="_top" xlink:title="2">
<text text-anchor="middle" x="86.91" y="-203.34" font-family="Helvetica,sans-Serif" font-size="10.00" fill="#63b8ff">2</text>
</a>
</g>
</g>
<!-- dir_41860b115bc8f1d6a1d8d9c85a569409 -->
<g id="node5" class="node">
<title>dir_41860b115bc8f1d6a1d8d9c85a569409</title>
<g id="a_node5"><a xlink:href="dir_41860b115bc8f1d6a1d8d9c85a569409.html" target="_top" xlink:title="measurements">
<polygon fill="#eaeef6" stroke="#404040" points="212.25,-201 131.75,-201 131.75,-181.75 212.25,-181.75 212.25,-201"/>
<text text-anchor="middle" x="172" y="-187.5" font-family="Helvetica,sans-Serif" font-size="10.00">measurements</text>
</a>
</g>
</g>
<!-- dir_bfb67d1bf2055d55254a135fbe634cf0&#45;&gt;dir_41860b115bc8f1d6a1d8d9c85a569409 -->
<g id="edge1" class="edge">
<title>dir_bfb67d1bf2055d55254a135fbe634cf0&#45;&gt;dir_41860b115bc8f1d6a1d8d9c85a569409</title>
<g id="a_edge1"><a xlink:href="dir_000000_000010.html" target="_top">
<path fill="none" stroke="#63b8ff" d="M117.58,-236.83C124.56,-229.02 137.08,-217.41 148.46,-208.01"/>
<polygon fill="#63b8ff" stroke="#63b8ff" points="150.19,-210.32 155.84,-201.36 145.83,-204.84 150.19,-210.32"/>
</a>
</g>
<g id="a_edge1&#45;headlabel"><a xlink:href="dir_000000_000010.html" target="_top" xlink:title="8">
<text text-anchor="middle" x="150.14" y="-210.9" font-family="Helvetica,sans-Serif" font-size="10.00" fill="#63b8ff">8</text>
</a>
</g>
</g>
<!-- dir_bcc1ce19567e81766b626745e6abe58c -->
<g id="node6" class="node">
<title>dir_bcc1ce19567e81766b626745e6abe58c</title>
<g id="a_node6"><a xlink:href="dir_bcc1ce19567e81766b626745e6abe58c.html" target="_top" xlink:title="numerics">
<polygon fill="#eaeef6" stroke="#404040" points="146.88,-35.25 91.12,-35.25 91.12,-16 146.88,-16 146.88,-35.25"/>
<text text-anchor="middle" x="119" y="-21.75" font-family="Helvetica,sans-Serif" font-size="10.00">numerics</text>
</a>
</g>
</g>
<!-- dir_bfb67d1bf2055d55254a135fbe634cf0&#45;&gt;dir_bcc1ce19567e81766b626745e6abe58c -->
<g id="edge5" class="edge">
<title>dir_bfb67d1bf2055d55254a135fbe634cf0&#45;&gt;dir_bcc1ce19567e81766b626745e6abe58c</title>
<g id="a_edge5"><a xlink:href="dir_000000_000012.html" target="_top">
<path fill="none" stroke="#63b8ff" d="M136.12,-239.34C164.82,-231.01 211.19,-215.67 221,-201 258.9,-144.34 180.45,-73.2 140.48,-42.23"/>
<polygon fill="#63b8ff" stroke="#63b8ff" points="143,-38.99 132.92,-35.75 138.78,-44.57 143,-38.99"/>
</a>
</g>
<g id="a_edge5&#45;headlabel"><a xlink:href="dir_000000_000012.html" target="_top" xlink:title="3">
<text text-anchor="middle" x="146.58" y="-35.02" font-family="Helvetica,sans-Serif" font-size="10.00" fill="#63b8ff">3</text>
</a>
</g>
</g>
<!-- dir_520a86cecb0e205b0267bf504e30a434 -->
<g id="node7" class="node">
<title>dir_520a86cecb0e205b0267bf504e30a434</title>
<g id="a_node7"><a xlink:href="dir_520a86cecb0e205b0267bf504e30a434.html" target="_top" xlink:title="physics">
<polygon fill="#eaeef6" stroke="#404040" points="135.88,-145.75 86.12,-145.75 86.12,-126.5 135.88,-126.5 135.88,-145.75"/>
<text text-anchor="middle" x="111" y="-132.25" font-family="Helvetica,sans-Serif" font-size="10.00">physics</text>
</a>
</g>
</g>
<!-- dir_bfb67d1bf2055d55254a135fbe634cf0&#45;&gt;dir_520a86cecb0e205b0267bf504e30a434 -->
<g id="edge2" class="edge">
<title>dir_bfb67d1bf2055d55254a135fbe634cf0&#45;&gt;dir_520a86cecb0e205b0267bf504e30a434</title>
<g id="a_edge2"><a xlink:href="dir_000000_000013.html" target="_top">
<path fill="none" stroke="#63b8ff" d="M112.84,-236.75C112.52,-219.42 111.8,-180.73 111.37,-156.99"/>
<polygon fill="#63b8ff" stroke="#63b8ff" points="114.85,-157.06 111.17,-147.13 107.85,-157.19 114.85,-157.06"/>
</a>
</g>
<g id="a_edge2&#45;headlabel"><a xlink:href="dir_000000_000013.html" target="_top" xlink:title="6">
<text text-anchor="middle" x="117.75" y="-155.73" font-family="Helvetica,sans-Serif" font-size="10.00" fill="#63b8ff">6</text>
</a>
</g>
</g>
<!-- dir_689da0fbbc4c0c811ae068fee20340f5&#45;&gt;dir_bfb67d1bf2055d55254a135fbe634cf0 -->
<g id="edge7" class="edge">
<title>dir_689da0fbbc4c0c811ae068fee20340f5&#45;&gt;dir_bfb67d1bf2055d55254a135fbe634cf0</title>
<g id="a_edge7"><a xlink:href="dir_000002_000000.html" target="_top">
<path fill="none" stroke="#63b8ff" d="M77.43,-90.88C59.8,-111.2 12.26,-161.94 36,-201 45.82,-217.15 63.59,-227.73 79.68,-234.5"/>
<polygon fill="#63b8ff" stroke="#63b8ff" points="78.32,-238.11 88.91,-238.43 80.82,-231.58 78.32,-238.11"/>
</a>
</g>
<g id="a_edge7&#45;headlabel"><a xlink:href="dir_000002_000000.html" target="_top" xlink:title="1">
<text text-anchor="middle" x="74.94" y="-235.6" font-family="Helvetica,sans-Serif" font-size="10.00" fill="#63b8ff">1</text>
</a>
</g>
</g>
<!-- dir_689da0fbbc4c0c811ae068fee20340f5&#45;&gt;dir_bcc1ce19567e81766b626745e6abe58c -->
<g id="edge6" class="edge">
<title>dir_689da0fbbc4c0c811ae068fee20340f5&#45;&gt;dir_bcc1ce19567e81766b626745e6abe58c</title>
<g id="a_edge6"><a xlink:href="dir_000002_000012.html" target="_top">
<path fill="none" stroke="#63b8ff" d="M88.94,-71.08C93.81,-63.88 100.86,-53.46 106.91,-44.51"/>
<polygon fill="#63b8ff" stroke="#63b8ff" points="110.22,-46.85 112.93,-36.61 104.43,-42.93 110.22,-46.85"/>
</a>
</g>
<g id="a_edge6&#45;headlabel"><a xlink:href="dir_000002_000012.html" target="_top" xlink:title="1">
<text text-anchor="middle" x="110.56" y="-46.55" font-family="Helvetica,sans-Serif" font-size="10.00" fill="#63b8ff">1</text>
</a>
</g>
</g>
<!-- dir_6f06eedd4381d05154931903bd792f62&#45;&gt;dir_689da0fbbc4c0c811ae068fee20340f5 -->
<g id="edge9" class="edge">
<title>dir_6f06eedd4381d05154931903bd792f62&#45;&gt;dir_689da0fbbc4c0c811ae068fee20340f5</title>
<g id="a_edge9"><a xlink:href="dir_000006_000002.html" target="_top">
<path fill="none" stroke="#63b8ff" d="M66.47,-181.5C69.36,-164.09 75.83,-125.12 79.76,-101.41"/>
<polygon fill="#63b8ff" stroke="#63b8ff" points="83.32,-102.31 81.51,-91.88 76.42,-101.17 83.32,-102.31"/>
</a>
</g>
<g id="a_edge9&#45;headlabel"><a xlink:href="dir_000006_000002.html" target="_top" xlink:title="3">
<text text-anchor="middle" x="85.54" y="-101.45" font-family="Helvetica,sans-Serif" font-size="10.00" fill="#63b8ff">3</text>
</a>
</g>
</g>
<!-- dir_6f06eedd4381d05154931903bd792f62&#45;&gt;dir_bcc1ce19567e81766b626745e6abe58c -->
<g id="edge10" class="edge">
<title>dir_6f06eedd4381d05154931903bd792f62&#45;&gt;dir_bcc1ce19567e81766b626745e6abe58c</title>
<g id="a_edge10"><a xlink:href="dir_000006_000012.html" target="_top">
<path fill="none" stroke="#63b8ff" d="M61.42,-181.38C53.77,-160.62 38,-108.33 57,-71.25 63.68,-58.21 76.14,-48.12 88.15,-40.85"/>
<polygon fill="#63b8ff" stroke="#63b8ff" points="89.51,-43.54 96.56,-35.63 86.12,-37.42 89.51,-43.54"/>
</a>
</g>
<g id="a_edge10&#45;headlabel"><a xlink:href="dir_000006_000012.html" target="_top" xlink:title="3">
<text text-anchor="middle" x="88.75" y="-43.89" font-family="Helvetica,sans-Serif" font-size="10.00" fill="#63b8ff">3</text>
</a>
</g>
</g>
<!-- dir_6f06eedd4381d05154931903bd792f62&#45;&gt;dir_520a86cecb0e205b0267bf504e30a434 -->
<g id="edge8" class="edge">
<title>dir_6f06eedd4381d05154931903bd792f62&#45;&gt;dir_520a86cecb0e205b0267bf504e30a434</title>
<g id="a_edge8"><a xlink:href="dir_000006_000013.html" target="_top">
<path fill="none" stroke="#63b8ff" d="M72.6,-181.58C79.02,-174.15 88.4,-163.29 96.28,-154.16"/>
<polygon fill="#63b8ff" stroke="#63b8ff" points="99.35,-156.96 103.24,-147.11 94.05,-152.39 99.35,-156.96"/>
</a>
</g>
<g id="a_edge8&#45;headlabel"><a xlink:href="dir_000006_000013.html" target="_top" xlink:title="4">
<text text-anchor="middle" x="99.15" y="-156.67" font-family="Helvetica,sans-Serif" font-size="10.00" fill="#63b8ff">4</text>
</a>
</g>
</g>
<!-- dir_41860b115bc8f1d6a1d8d9c85a569409&#45;&gt;dir_bfb67d1bf2055d55254a135fbe634cf0 -->
<g id="edge14" class="edge">
<title>dir_41860b115bc8f1d6a1d8d9c85a569409&#45;&gt;dir_bfb67d1bf2055d55254a135fbe634cf0</title>
<g id="a_edge14"><a xlink:href="dir_000010_000000.html" target="_top">
<path fill="none" stroke="#63b8ff" d="M167.33,-201.27C160.33,-209.08 147.89,-220.62 136.56,-229.97"/>
<polygon fill="#63b8ff" stroke="#63b8ff" points="134.88,-227.63 129.23,-236.59 139.23,-233.11 134.88,-227.63"/>
</a>
</g>
<g id="a_edge14&#45;headlabel"><a xlink:href="dir_000010_000000.html" target="_top" xlink:title="6">
<text text-anchor="middle" x="134.92" y="-219.3" font-family="Helvetica,sans-Serif" font-size="10.00" fill="#63b8ff">6</text>
</a>
</g>
</g>
<!-- dir_41860b115bc8f1d6a1d8d9c85a569409&#45;&gt;dir_689da0fbbc4c0c811ae068fee20340f5 -->
<g id="edge12" class="edge">
<title>dir_41860b115bc8f1d6a1d8d9c85a569409&#45;&gt;dir_689da0fbbc4c0c811ae068fee20340f5</title>
<g id="a_edge12"><a xlink:href="dir_000010_000002.html" target="_top">
<path fill="none" stroke="#63b8ff" d="M169.85,-181.31C166.37,-168.14 158.52,-143.44 145,-126.5 135.41,-114.48 121.78,-104.19 109.74,-96.53"/>
<polygon fill="#63b8ff" stroke="#63b8ff" points="111.9,-93.14 101.54,-90.97 108.29,-99.13 111.9,-93.14"/>
</a>
</g>
<g id="a_edge12&#45;headlabel"><a xlink:href="dir_000010_000002.html" target="_top" xlink:title="6">
<text text-anchor="middle" x="115.45" y="-88.7" font-family="Helvetica,sans-Serif" font-size="10.00" fill="#63b8ff">6</text>
</a>
</g>
</g>
<!-- dir_41860b115bc8f1d6a1d8d9c85a569409&#45;&gt;dir_bcc1ce19567e81766b626745e6abe58c -->
<g id="edge13" class="edge">
<title>dir_41860b115bc8f1d6a1d8d9c85a569409&#45;&gt;dir_bcc1ce19567e81766b626745e6abe58c</title>
<g id="a_edge13"><a xlink:href="dir_000010_000012.html" target="_top">
<path fill="none" stroke="#63b8ff" d="M169.92,-181.63C166.93,-169.26 161.1,-146 155,-126.5 146.13,-98.12 134.14,-65.84 126.49,-45.85"/>
<polygon fill="#63b8ff" stroke="#63b8ff" points="129.41,-44.69 122.54,-36.63 122.88,-47.21 129.41,-44.69"/>
</a>
</g>
<g id="a_edge13&#45;headlabel"><a xlink:href="dir_000010_000012.html" target="_top" xlink:title="4">
<text text-anchor="middle" x="133.35" y="-42.15" font-family="Helvetica,sans-Serif" font-size="10.00" fill="#63b8ff">4</text>
</a>
</g>
</g>
<!-- dir_41860b115bc8f1d6a1d8d9c85a569409&#45;&gt;dir_520a86cecb0e205b0267bf504e30a434 -->
<g id="edge11" class="edge">
<title>dir_41860b115bc8f1d6a1d8d9c85a569409&#45;&gt;dir_520a86cecb0e205b0267bf504e30a434</title>
<g id="a_edge11"><a xlink:href="dir_000010_000013.html" target="_top">
<path fill="none" stroke="#63b8ff" d="M161.65,-181.34C152.84,-173.65 139.95,-162.4 129.39,-153.18"/>
<polygon fill="#63b8ff" stroke="#63b8ff" points="132.03,-149.96 122.19,-146.02 127.43,-155.24 132.03,-149.96"/>
</a>
</g>
<g id="a_edge11&#45;headlabel"><a xlink:href="dir_000010_000013.html" target="_top" xlink:title="4">
<text text-anchor="middle" x="135.61" y="-146.31" font-family="Helvetica,sans-Serif" font-size="10.00" fill="#63b8ff">4</text>
</a>
</g>
</g>
<!-- dir_520a86cecb0e205b0267bf504e30a434&#45;&gt;dir_689da0fbbc4c0c811ae068fee20340f5 -->
<g id="edge15" class="edge">
<title>dir_520a86cecb0e205b0267bf504e30a434&#45;&gt;dir_689da0fbbc4c0c811ae068fee20340f5</title>
<g id="a_edge15"><a xlink:href="dir_000013_000002.html" target="_top">
<path fill="none" stroke="#63b8ff" d="M106.38,-126.33C102.67,-119.28 97.34,-109.15 92.71,-100.33"/>
<polygon fill="#63b8ff" stroke="#63b8ff" points="95.48,-99.08 87.72,-91.86 89.28,-102.34 95.48,-99.08"/>
</a>
</g>
<g id="a_edge15&#45;headlabel"><a xlink:href="dir_000013_000002.html" target="_top" xlink:title="8">
<text text-anchor="middle" x="99.66" y="-96.07" font-family="Helvetica,sans-Serif" font-size="10.00" fill="#63b8ff">8</text>
</a>
</g>
</g>
<!-- dir_520a86cecb0e205b0267bf504e30a434&#45;&gt;dir_bcc1ce19567e81766b626745e6abe58c -->
<g id="edge16" class="edge">
<title>dir_520a86cecb0e205b0267bf504e30a434&#45;&gt;dir_bcc1ce19567e81766b626745e6abe58c</title>
<g id="a_edge16"><a xlink:href="dir_000013_000012.html" target="_top">
<path fill="none" stroke="#63b8ff" d="M111.65,-126.25C112.93,-108.92 115.79,-70.23 117.54,-46.49"/>
<polygon fill="#63b8ff" stroke="#63b8ff" points="121.09,-46.86 118.34,-36.63 114.11,-46.34 121.09,-46.86"/>
</a>
</g>
<g id="a_edge16&#45;headlabel"><a xlink:href="dir_000013_000012.html" target="_top" xlink:title="6">
<text text-anchor="middle" x="123.66" y="-45.78" font-family="Helvetica,sans-Serif" font-size="10.00" fill="#63b8ff">6</text>
</a>
</g>
</g>
</g>
</svg>
