<?xml version="1.0" encoding="UTF-8" standalone="no"?>
<!DOCTYPE svg PUBLIC "-//W3C//DTD SVG 1.1//EN"
 "http://www.w3.org/Graphics/SVG/1.1/DTD/svg11.dtd">
<!-- Generated by graphviz version 8.1.0 (20230707.0739)
 -->
<!-- Title: Graphical Class Hierarchy Pages: 1 -->
<svg width="194pt" height="64pt"
 viewBox="0.00 0.00 193.75 64.25" xmlns="http://www.w3.org/2000/svg" xmlns:xlink="http://www.w3.org/1999/xlink">
<g id="graph0" class="graph" transform="scale(1 1) rotate(0) translate(4 60.25)">
<title>Graphical Class Hierarchy</title>
<!-- Node0 -->
<g id="Node000000" class="node">
<title>Node0</title>
<g id="a_Node000000"><a xlink:href="class_l_p_t_1_1_agent.html" target="_top" xlink:title="Agent base class.">
<polygon fill="white" stroke="#666666" points="64,-37.25 0,-37.25 0,-18 64,-18 64,-37.25"/>
<text text-anchor="middle" x="32" y="-23.75" font-family="Helvetica,sans-Serif" font-size="10.00">LPT::Agent</text>
</a>
</g>
</g>
<!-- Node1 -->
<g id="Node000001" class="node">
<title>Node1</title>
<g id="a_Node000001"><a xlink:href="class_l_p_t_1_1_rover.html" target="_top" xlink:title="Rover Agent.">
<polygon fill="white" stroke="#666666" points="175.25,-56.25 110.5,-56.25 110.5,-37 175.25,-37 175.25,-56.25"/>
<text text-anchor="middle" x="142.88" y="-42.75" font-family="Helvetica,sans-Serif" font-size="10.00">LPT::Rover</text>
</a>
</g>
</g>
<!-- Node0&#45;&gt;Node1 -->
<g id="edge1_Node000000_Node000001" class="edge">
<title>Node0&#45;&gt;Node1</title>
<g id="a_edge1_Node000000_Node000001"><a xlink:title=" ">
<path fill="none" stroke="#63b8ff" d="M75.28,-35C86.85,-37.02 99.2,-39.18 110.08,-41.08"/>
<polygon fill="#63b8ff" stroke="#63b8ff" points="75.94,-31.39 65.49,-33.12 74.74,-38.29 75.94,-31.39"/>
</a>
</g>
</g>
<!-- Node2 -->
<g id="Node000002" class="node">
<title>Node2</title>
<g id="a_Node000002"><a xlink:href="class_l_p_t_1_1_spacecraft.html" target="_top" xlink:title="Spacecraft Agent.">
<polygon fill="white" stroke="#666666" points="185.75,-19.25 100,-19.25 100,0 185.75,0 185.75,-19.25"/>
<text text-anchor="middle" x="142.88" y="-5.75" font-family="Helvetica,sans-Serif" font-size="10.00">LPT::Spacecraft</text>
</a>
</g>
</g>
<!-- Node0&#45;&gt;Node2 -->
<g id="edge2_Node000000_Node000002" class="edge">
<title>Node0&#45;&gt;Node2</title>
<g id="a_edge2_Node000000_Node000002"><a xlink:title=" ">
<path fill="none" stroke="#63b8ff" d="M75.11,-20.66C83.12,-19.34 91.5,-17.95 99.52,-16.63"/>
<polygon fill="#63b8ff" stroke="#63b8ff" points="74.79,-17.33 65.49,-22.42 75.93,-24.24 74.79,-17.33"/>
</a>
</g>
</g>
</g>
</svg>
