<?xml version="1.0" encoding="UTF-8" standalone="no"?>
<!DOCTYPE svg PUBLIC "-//W3C//DTD SVG 1.1//EN"
 "http://www.w3.org/Graphics/SVG/1.1/DTD/svg11.dtd">
<!-- Generated by graphviz version 8.1.0 (20230707.0739)
 -->
<!-- Title: Graphical Class Hierarchy Pages: 1 -->
<svg width="490pt" height="212pt"
 viewBox="0.00 0.00 489.50 212.25" xmlns="http://www.w3.org/2000/svg" xmlns:xlink="http://www.w3.org/1999/xlink">
<g id="graph0" class="graph" transform="scale(1 1) rotate(0) translate(4 208.25)">
<title>Graphical Class Hierarchy</title>
<!-- Node0 -->
<g id="Node000000" class="node">
<title>Node0</title>
<g id="a_Node000000"><a xlink:href="class_l_p_t_1_1_i_orbit_dynamics.html" target="_top" xlink:title="Interface for Orbit Dynamics (Todo: find a way to inherit this from IDynamics)">
<polygon fill="white" stroke="#666666" points="106.75,-111.25 0,-111.25 0,-92 106.75,-92 106.75,-111.25"/>
<text text-anchor="middle" x="53.38" y="-97.75" font-family="Helvetica,sans-Serif" font-size="10.00">LPT::IOrbitDynamics</text>
</a>
</g>
</g>
<!-- Node1 -->
<g id="Node000001" class="node">
<title>Node1</title>
<g id="a_Node000001"><a xlink:href="class_l_p_t_1_1_numerical_dynamics.html" target="_top" xlink:title=" ">
<polygon fill="white" stroke="#666666" points="269.75,-111.25 142.75,-111.25 142.75,-92 269.75,-92 269.75,-111.25"/>
<text text-anchor="middle" x="206.25" y="-97.75" font-family="Helvetica,sans-Serif" font-size="10.00">LPT::NumericalDynamics</text>
</a>
</g>
</g>
<!-- Node0&#45;&gt;Node1 -->
<g id="edge16_Node000000_Node000001" class="edge">
<title>Node0&#45;&gt;Node1</title>
<g id="a_edge16_Node000000_Node000001"><a xlink:title=" ">
<path fill="none" stroke="#63b8ff" d="M118.01,-101.62C126.08,-101.62 134.34,-101.62 142.41,-101.62"/>
<polygon fill="#63b8ff" stroke="#63b8ff" points="118.14,-98.13 108.14,-101.62 118.14,-105.13 118.14,-98.13"/>
</a>
</g>
</g>
<!-- Node2 -->
<g id="Node000002" class="node">
<title>Node2</title>
<g id="a_Node000002"><a xlink:href="class_l_p_t_1_1_cartesian_two_body_dynamics.html" target="_top" xlink:title=" ">
<polygon fill="white" stroke="#666666" points="476.25,-204.25 311,-204.25 311,-185 476.25,-185 476.25,-204.25"/>
<text text-anchor="middle" x="393.62" y="-190.75" font-family="Helvetica,sans-Serif" font-size="10.00">LPT::CartesianTwoBodyDynamics</text>
</a>
</g>
</g>
<!-- Node1&#45;&gt;Node2 -->
<g id="edge17_Node000001_Node000002" class="edge">
<title>Node1&#45;&gt;Node2</title>
<g id="a_edge17_Node000001_Node000002"><a xlink:title=" ">
<path fill="none" stroke="#63b8ff" d="M225.02,-119.16C243.58,-136.45 274.34,-162.32 305.75,-176.62 312.76,-179.82 320.34,-182.45 328.01,-184.62"/>
<polygon fill="#63b8ff" stroke="#63b8ff" points="227.81,-117.03 218.16,-112.66 222.98,-122.1 227.81,-117.03"/>
</a>
</g>
</g>
<!-- Node3 -->
<g id="Node000003" class="node">
<title>Node3</title>
<g id="a_Node000003"><a xlink:href="class_l_p_t_1_1_j2_cartesian_two_body_dynamics.html" target="_top" xlink:title=" ">
<polygon fill="white" stroke="#666666" points="481.5,-167.25 305.75,-167.25 305.75,-148 481.5,-148 481.5,-167.25"/>
<text text-anchor="middle" x="393.62" y="-153.75" font-family="Helvetica,sans-Serif" font-size="10.00">LPT::J2CartesianTwoBodyDynamics</text>
</a>
</g>
</g>
<!-- Node1&#45;&gt;Node3 -->
<g id="edge18_Node000001_Node000003" class="edge">
<title>Node1&#45;&gt;Node3</title>
<g id="a_edge18_Node000001_Node000003"><a xlink:title=" ">
<path fill="none" stroke="#63b8ff" d="M239.88,-115.77C258.85,-123.59 283.35,-133.03 305.75,-139.62 315.8,-142.58 326.64,-145.24 337.14,-147.55"/>
<polygon fill="#63b8ff" stroke="#63b8ff" points="241.54,-112.25 230.97,-111.62 238.84,-118.71 241.54,-112.25"/>
</a>
</g>
</g>
<!-- Node4 -->
<g id="Node000004" class="node">
<title>Node4</title>
<g id="a_Node000004"><a xlink:href="class_l_p_t_1_1_j2_keplerian_dynamics.html" target="_top" xlink:title=" ">
<polygon fill="white" stroke="#666666" points="460.5,-130.25 326.75,-130.25 326.75,-111 460.5,-111 460.5,-130.25"/>
<text text-anchor="middle" x="393.62" y="-116.75" font-family="Helvetica,sans-Serif" font-size="10.00">LPT::J2KeplerianDynamics</text>
</a>
</g>
</g>
<!-- Node1&#45;&gt;Node4 -->
<g id="edge19_Node000001_Node000004" class="edge">
<title>Node1&#45;&gt;Node4</title>
<g id="a_edge19_Node000001_Node000004"><a xlink:title=" ">
<path fill="none" stroke="#63b8ff" d="M280.83,-109.17C295.89,-110.71 311.66,-112.33 326.44,-113.84"/>
<polygon fill="#63b8ff" stroke="#63b8ff" points="281.31,-105.6 271.01,-108.06 280.6,-112.56 281.31,-105.6"/>
</a>
</g>
</g>
<!-- Node5 -->
<g id="Node000005" class="node">
<title>Node5</title>
<g id="a_Node000005"><a xlink:href="class_l_p_t_1_1_moon_fixed_dynamics.html" target="_top" xlink:title=" ">
<polygon fill="white" stroke="#666666" points="459,-93.25 328.25,-93.25 328.25,-74 459,-74 459,-93.25"/>
<text text-anchor="middle" x="393.62" y="-79.75" font-family="Helvetica,sans-Serif" font-size="10.00">LPT::MoonFixedDynamics</text>
</a>
</g>
</g>
<!-- Node1&#45;&gt;Node5 -->
<g id="edge20_Node000001_Node000005" class="edge">
<title>Node1&#45;&gt;Node5</title>
<g id="a_edge20_Node000001_Node000005"><a xlink:title=" ">
<path fill="none" stroke="#63b8ff" d="M280.7,-94.49C296.34,-92.97 312.75,-91.38 328.03,-89.9"/>
<polygon fill="#63b8ff" stroke="#63b8ff" points="280.62,-91.08 271.01,-95.53 281.3,-98.05 280.62,-91.08"/>
</a>
</g>
</g>
<!-- Node6 -->
<g id="Node000006" class="node">
<title>Node6</title>
<g id="a_Node000006"><a xlink:href="class_l_p_t_1_1_moon_mean_dynamics.html" target="_top" xlink:title=" ">
<polygon fill="white" stroke="#666666" points="459,-56.25 328.25,-56.25 328.25,-37 459,-37 459,-56.25"/>
<text text-anchor="middle" x="393.62" y="-42.75" font-family="Helvetica,sans-Serif" font-size="10.00">LPT::MoonMeanDynamics</text>
</a>
</g>
</g>
<!-- Node1&#45;&gt;Node6 -->
<g id="edge21_Node000001_Node000006" class="edge">
<title>Node1&#45;&gt;Node6</title>
<g id="a_edge21_Node000001_Node000006"><a xlink:title=" ">
<path fill="none" stroke="#63b8ff" d="M240.94,-87.49C259.77,-79.97 283.79,-70.98 305.75,-64.62 315.96,-61.67 326.98,-59 337.62,-56.68"/>
<polygon fill="#63b8ff" stroke="#63b8ff" points="239.74,-84.6 231.79,-91.6 242.37,-91.09 239.74,-84.6"/>
</a>
</g>
</g>
<!-- Node7 -->
<g id="Node000007" class="node">
<title>Node7</title>
<g id="a_Node000007"><a xlink:href="class_l_p_t_1_1_n_body_dynamics.html" target="_top" xlink:title=" ">
<polygon fill="white" stroke="#666666" points="450,-19.25 337.25,-19.25 337.25,0 450,0 450,-19.25"/>
<text text-anchor="middle" x="393.62" y="-5.75" font-family="Helvetica,sans-Serif" font-size="10.00">LPT::NBodyDynamics</text>
</a>
</g>
</g>
<!-- Node1&#45;&gt;Node7 -->
<g id="edge22_Node000001_Node000007" class="edge">
<title>Node1&#45;&gt;Node7</title>
<g id="a_edge22_Node000001_Node000007"><a xlink:title=" ">
<path fill="none" stroke="#63b8ff" d="M225.06,-84.34C243.66,-67.28 274.45,-41.76 305.75,-27.62 315.44,-23.25 326.21,-19.93 336.79,-17.4"/>
<polygon fill="#63b8ff" stroke="#63b8ff" points="223.08,-81.33 218.18,-90.73 227.87,-86.44 223.08,-81.33"/>
</a>
</g>
</g>
</g>
</svg>
