<?xml version="1.0" encoding="UTF-8" standalone="no"?>
<!DOCTYPE svg PUBLIC "-//W3C//DTD SVG 1.1//EN"
 "http://www.w3.org/Graphics/SVG/1.1/DTD/svg11.dtd">
<!-- Generated by graphviz version 8.1.0 (20230707.0739)
 -->
<!-- Title: Graphical Class Hierarchy Pages: 1 -->
<svg width="342pt" height="113pt"
 viewBox="0.00 0.00 342.25 113.25" xmlns="http://www.w3.org/2000/svg" xmlns:xlink="http://www.w3.org/1999/xlink">
<g id="graph0" class="graph" transform="scale(1 1) rotate(0) translate(4 109.25)">
<title>Graphical Class Hierarchy</title>
<!-- Node0 -->
<g id="Node000000" class="node">
<title>Node0</title>
<g id="a_Node000000"><a xlink:href="class_l_p_t_1_1_i_analytical_dynamics.html" target="_top" xlink:title=" ">
<polygon fill="white" stroke="#666666" points="128.5,-62.25 0,-62.25 0,-43 128.5,-43 128.5,-62.25"/>
<text text-anchor="middle" x="64.25" y="-48.75" font-family="Helvetica,sans-Serif" font-size="10.00">LPT::IAnalyticalDynamics</text>
</a>
</g>
</g>
<!-- Node1 -->
<g id="Node000001" class="node">
<title>Node1</title>
<g id="a_Node000001"><a xlink:href="class_l_p_t_1_1_clohessy_wiltshire_dynamics.html" target="_top" xlink:title=" ">
<polygon fill="white" stroke="#666666" points="330.5,-105.25 168.25,-105.25 168.25,-86 330.5,-86 330.5,-105.25"/>
<text text-anchor="middle" x="249.38" y="-91.75" font-family="Helvetica,sans-Serif" font-size="10.00">LPT::ClohessyWiltshireDynamics</text>
</a>
</g>
</g>
<!-- Node0&#45;&gt;Node1 -->
<g id="edge5_Node000000_Node000001" class="edge">
<title>Node0&#45;&gt;Node1</title>
<g id="a_edge5_Node000000_Node000001"><a xlink:title=" ">
<path fill="none" stroke="#63b8ff" d="M116.63,-65.2C132.02,-68.92 148.93,-72.98 164.5,-76.62 177.15,-79.59 190.89,-82.73 203.51,-85.59"/>
<polygon fill="#63b8ff" stroke="#63b8ff" points="117.81,-61.64 107.26,-62.68 116.16,-68.44 117.81,-61.64"/>
</a>
</g>
</g>
<!-- Node2 -->
<g id="Node000002" class="node">
<title>Node2</title>
<g id="a_Node000002"><a xlink:href="class_l_p_t_1_1_roe_geometric_mapping_dynamics.html" target="_top" xlink:title=" ">
<polygon fill="white" stroke="#666666" points="318.5,-67.88 180.25,-67.88 180.25,-37.38 318.5,-37.38 318.5,-67.88"/>
<text text-anchor="start" x="188.25" y="-54.38" font-family="Helvetica,sans-Serif" font-size="10.00">LPT::RoeGeometricMapping</text>
<text text-anchor="middle" x="249.38" y="-43.12" font-family="Helvetica,sans-Serif" font-size="10.00">Dynamics</text>
</a>
</g>
</g>
<!-- Node0&#45;&gt;Node2 -->
<g id="edge6_Node000000_Node000002" class="edge">
<title>Node0&#45;&gt;Node2</title>
<g id="a_edge6_Node000000_Node000002"><a xlink:title=" ">
<path fill="none" stroke="#63b8ff" d="M139.4,-52.62C152.81,-52.62 166.73,-52.62 179.96,-52.62"/>
<polygon fill="#63b8ff" stroke="#63b8ff" points="139.78,-49.13 129.78,-52.62 139.78,-56.13 139.78,-49.13"/>
</a>
</g>
</g>
<!-- Node3 -->
<g id="Node000003" class="node">
<title>Node3</title>
<g id="a_Node000003"><a xlink:href="class_l_p_t_1_1_yamanaka_ankersen_dynamics.html" target="_top" xlink:title=" ">
<polygon fill="white" stroke="#666666" points="334.25,-19.25 164.5,-19.25 164.5,0 334.25,0 334.25,-19.25"/>
<text text-anchor="middle" x="249.38" y="-5.75" font-family="Helvetica,sans-Serif" font-size="10.00">LPT::YamanakaAnkersenDynamics</text>
</a>
</g>
</g>
<!-- Node0&#45;&gt;Node3 -->
<g id="edge7_Node000000_Node000003" class="edge">
<title>Node0&#45;&gt;Node3</title>
<g id="a_edge7_Node000000_Node000003"><a xlink:title=" ">
<path fill="none" stroke="#63b8ff" d="M116.63,-40.05C132.02,-36.33 148.93,-32.27 164.5,-28.62 177.15,-25.66 190.89,-22.52 203.51,-19.66"/>
<polygon fill="#63b8ff" stroke="#63b8ff" points="116.16,-36.81 107.26,-42.57 117.81,-43.61 116.16,-36.81"/>
</a>
</g>
</g>
</g>
</svg>
