<?xml version="1.0" encoding="UTF-8" standalone="no"?>
<!DOCTYPE svg PUBLIC "-//W3C//DTD SVG 1.1//EN"
 "http://www.w3.org/Graphics/SVG/1.1/DTD/svg11.dtd">
<!-- Generated by graphviz version 8.1.0 (20230707.0739)
 -->
<!-- Title: Graphical Class Hierarchy Pages: 1 -->
<svg width="386pt" height="101pt"
 viewBox="0.00 0.00 386.00 101.25" xmlns="http://www.w3.org/2000/svg" xmlns:xlink="http://www.w3.org/1999/xlink">
<g id="graph0" class="graph" transform="scale(1 1) rotate(0) translate(4 97.25)">
<title>Graphical Class Hierarchy</title>
<!-- Node0 -->
<g id="Node000000" class="node">
<title>Node0</title>
<g id="a_Node000000"><a xlink:href="class_l_p_t_1_1_i_comm_device.html" target="_top" xlink:title=" ">
<polygon fill="white" stroke="#666666" points="101.5,-56.25 0,-56.25 0,-37 101.5,-37 101.5,-56.25"/>
<text text-anchor="middle" x="50.75" y="-42.75" font-family="Helvetica,sans-Serif" font-size="10.00">LPT::ICommDevice</text>
</a>
</g>
</g>
<!-- Node1 -->
<g id="Node000001" class="node">
<title>Node1</title>
<g id="a_Node000001"><a xlink:href="class_l_p_t_1_1_receiver.html" target="_top" xlink:title=" ">
<polygon fill="white" stroke="#666666" points="220.25,-93.25 142.75,-93.25 142.75,-74 220.25,-74 220.25,-93.25"/>
<text text-anchor="middle" x="181.5" y="-79.75" font-family="Helvetica,sans-Serif" font-size="10.00">LPT::Receiver</text>
</a>
</g>
</g>
<!-- Node0&#45;&gt;Node1 -->
<g id="edge8_Node000000_Node000001" class="edge">
<title>Node0&#45;&gt;Node1</title>
<g id="a_edge8_Node000000_Node000001"><a xlink:title=" ">
<path fill="none" stroke="#63b8ff" d="M97.06,-59.65C112.91,-64.2 130.46,-69.25 145.36,-73.53"/>
<polygon fill="#63b8ff" stroke="#63b8ff" points="98.51,-56.13 87.93,-56.74 96.58,-62.86 98.51,-56.13"/>
</a>
</g>
</g>
<!-- Node3 -->
<g id="Node000003" class="node">
<title>Node3</title>
<g id="a_Node000003"><a xlink:href="class_l_p_t_1_1_tranceiver.html" target="_top" xlink:title=" ">
<polygon fill="white" stroke="#666666" points="223.62,-56.25 139.38,-56.25 139.38,-37 223.62,-37 223.62,-56.25"/>
<text text-anchor="middle" x="181.5" y="-42.75" font-family="Helvetica,sans-Serif" font-size="10.00">LPT::Tranceiver</text>
</a>
</g>
</g>
<!-- Node0&#45;&gt;Node3 -->
<g id="edge10_Node000000_Node000003" class="edge">
<title>Node0&#45;&gt;Node3</title>
<g id="a_edge10_Node000000_Node000003"><a xlink:title=" ">
<path fill="none" stroke="#63b8ff" d="M112.69,-46.62C121.61,-46.62 130.61,-46.62 139.02,-46.62"/>
<polygon fill="#63b8ff" stroke="#63b8ff" points="112.9,-43.13 102.9,-46.62 112.9,-50.13 112.9,-43.13"/>
</a>
</g>
</g>
<!-- Node4 -->
<g id="Node000004" class="node">
<title>Node4</title>
<g id="a_Node000004"><a xlink:href="class_l_p_t_1_1_transmitter.html" target="_top" xlink:title=" ">
<polygon fill="white" stroke="#666666" points="225.5,-19.25 137.5,-19.25 137.5,0 225.5,0 225.5,-19.25"/>
<text text-anchor="middle" x="181.5" y="-5.75" font-family="Helvetica,sans-Serif" font-size="10.00">LPT::Transmitter</text>
</a>
</g>
</g>
<!-- Node0&#45;&gt;Node4 -->
<g id="edge11_Node000000_Node000004" class="edge">
<title>Node0&#45;&gt;Node4</title>
<g id="a_edge11_Node000000_Node000004"><a xlink:title=" ">
<path fill="none" stroke="#63b8ff" d="M97.06,-33.6C112.91,-29.05 130.46,-24 145.36,-19.72"/>
<polygon fill="#63b8ff" stroke="#63b8ff" points="96.58,-30.39 87.93,-36.51 98.51,-37.12 96.58,-30.39"/>
</a>
</g>
</g>
<!-- Node2 -->
<g id="Node000002" class="node">
<title>Node2</title>
<g id="a_Node000002"><a xlink:href="class_l_p_t_1_1_g_n_s_s_receiver.html" target="_top" xlink:title=" ">
<polygon fill="white" stroke="#666666" points="372.75,-93.25 266.75,-93.25 266.75,-74 372.75,-74 372.75,-93.25"/>
<text text-anchor="middle" x="319.75" y="-79.75" font-family="Helvetica,sans-Serif" font-size="10.00">LPT::GNSSReceiver</text>
</a>
</g>
</g>
<!-- Node1&#45;&gt;Node2 -->
<g id="edge9_Node000001_Node000002" class="edge">
<title>Node1&#45;&gt;Node2</title>
<g id="a_edge9_Node000001_Node000002"><a xlink:title=" ">
<path fill="none" stroke="#63b8ff" d="M231.15,-83.62C242.61,-83.62 254.88,-83.62 266.49,-83.62"/>
<polygon fill="#63b8ff" stroke="#63b8ff" points="231.45,-80.13 221.45,-83.62 231.45,-87.13 231.45,-80.13"/>
</a>
</g>
</g>
<!-- Node5 -->
<g id="Node000005" class="node">
<title>Node5</title>
<g id="a_Node000005"><a xlink:href="class_l_p_t_1_1_g_n_s_s_transmitter.html" target="_top" xlink:title=" ">
<polygon fill="white" stroke="#666666" points="378,-19.25 261.5,-19.25 261.5,0 378,0 378,-19.25"/>
<text text-anchor="middle" x="319.75" y="-5.75" font-family="Helvetica,sans-Serif" font-size="10.00">LPT::GNSSTransmitter</text>
</a>
</g>
</g>
<!-- Node4&#45;&gt;Node5 -->
<g id="edge12_Node000004_Node000005" class="edge">
<title>Node4&#45;&gt;Node5</title>
<g id="a_edge12_Node000004_Node000005"><a xlink:title=" ">
<path fill="none" stroke="#63b8ff" d="M236.76,-9.62C244.81,-9.62 253.13,-9.62 261.25,-9.62"/>
<polygon fill="#63b8ff" stroke="#63b8ff" points="236.98,-6.13 226.98,-9.62 236.98,-13.13 236.98,-6.13"/>
</a>
</g>
</g>
</g>
</svg>
