<?xml version="1.0" encoding="UTF-8" standalone="no"?>
<!DOCTYPE svg PUBLIC "-//W3C//DTD SVG 1.1//EN"
 "http://www.w3.org/Graphics/SVG/1.1/DTD/svg11.dtd">
<!-- Generated by graphviz version 8.1.0 (20230707.0739)
 -->
<!-- Title: Graphical Class Hierarchy Pages: 1 -->
<svg width="370pt" height="323pt"
 viewBox="0.00 0.00 369.50 323.25" xmlns="http://www.w3.org/2000/svg" xmlns:xlink="http://www.w3.org/1999/xlink">
<g id="graph0" class="graph" transform="scale(1 1) rotate(0) translate(4 319.25)">
<title>Graphical Class Hierarchy</title>
<!-- Node0 -->
<g id="Node000000" class="node">
<title>Node0</title>
<g id="a_Node000000"><a xlink:href="class_l_p_t_1_1_i_state.html" target="_top" xlink:title="Interface for States.">
<polygon fill="white" stroke="#666666" points="64.75,-185.25 0,-185.25 0,-166 64.75,-166 64.75,-185.25"/>
<text text-anchor="middle" x="32.38" y="-171.75" font-family="Helvetica,sans-Serif" font-size="10.00">LPT::IState</text>
</a>
</g>
</g>
<!-- Node1 -->
<g id="Node000001" class="node">
<title>Node1</title>
<g id="a_Node000001"><a xlink:href="class_l_p_t_1_1_clock_state.html" target="_top" xlink:title="Clock State Class.">
<polygon fill="white" stroke="#666666" points="188,-204.25 100.75,-204.25 100.75,-185 188,-185 188,-204.25"/>
<text text-anchor="middle" x="144.38" y="-190.75" font-family="Helvetica,sans-Serif" font-size="10.00">LPT::ClockState</text>
</a>
</g>
</g>
<!-- Node0&#45;&gt;Node1 -->
<g id="edge23_Node000000_Node000001" class="edge">
<title>Node0&#45;&gt;Node1</title>
<g id="a_edge23_Node000000_Node000001"><a xlink:title=" ">
<path fill="none" stroke="#63b8ff" d="M75.92,-182.97C84.01,-184.37 92.48,-185.83 100.58,-187.23"/>
<polygon fill="#63b8ff" stroke="#63b8ff" points="76.64,-179.37 66.19,-181.12 75.45,-186.27 76.64,-179.37"/>
</a>
</g>
</g>
<!-- Node2 -->
<g id="Node000002" class="node">
<title>Node2</title>
<g id="a_Node000002"><a xlink:href="class_l_p_t_1_1_orbit_state.html" target="_top" xlink:title=" ">
<polygon fill="white" stroke="#666666" points="185.75,-167.25 103,-167.25 103,-148 185.75,-148 185.75,-167.25"/>
<text text-anchor="middle" x="144.38" y="-153.75" font-family="Helvetica,sans-Serif" font-size="10.00">LPT::OrbitState</text>
</a>
</g>
</g>
<!-- Node0&#45;&gt;Node2 -->
<g id="edge24_Node000000_Node000002" class="edge">
<title>Node0&#45;&gt;Node2</title>
<g id="a_edge24_Node000000_Node000002"><a xlink:title=" ">
<path fill="none" stroke="#63b8ff" d="M75.97,-168.66C84.72,-167.22 93.91,-165.72 102.6,-164.3"/>
<polygon fill="#63b8ff" stroke="#63b8ff" points="75.5,-165.35 66.19,-170.42 76.63,-172.26 75.5,-165.35"/>
</a>
</g>
</g>
<!-- Node3 -->
<g id="Node000003" class="node">
<title>Node3</title>
<g id="a_Node000003"><a xlink:href="class_l_p_t_1_1_cartesian_orbit_state.html" target="_top" xlink:title=" ">
<polygon fill="white" stroke="#666666" points="355.12,-315.25 230.38,-315.25 230.38,-296 355.12,-296 355.12,-315.25"/>
<text text-anchor="middle" x="292.75" y="-301.75" font-family="Helvetica,sans-Serif" font-size="10.00">LPT::CartesianOrbitState</text>
</a>
</g>
</g>
<!-- Node2&#45;&gt;Node3 -->
<g id="edge25_Node000002_Node000003" class="edge">
<title>Node2&#45;&gt;Node3</title>
<g id="a_edge25_Node000002_Node000003"><a xlink:title=" ">
<path fill="none" stroke="#63b8ff" d="M186.29,-173.88C186.88,-174.44 187.45,-175.02 188,-175.62 223.3,-214.2 186.09,-251.61 224,-287.62 227.35,-290.81 231.2,-293.45 235.33,-295.63"/>
<polygon fill="#63b8ff" stroke="#63b8ff" points="188.78,-170.64 178.64,-167.58 184.66,-176.3 188.78,-170.64"/>
</a>
</g>
</g>
<!-- Node4 -->
<g id="Node000004" class="node">
<title>Node4</title>
<g id="a_Node000004"><a xlink:href="class_l_p_t_1_1_classical_o_e.html" target="_top" xlink:title=" ">
<polygon fill="white" stroke="#666666" points="339.38,-278.25 246.12,-278.25 246.12,-259 339.38,-259 339.38,-278.25"/>
<text text-anchor="middle" x="292.75" y="-264.75" font-family="Helvetica,sans-Serif" font-size="10.00">LPT::ClassicalOE</text>
</a>
</g>
</g>
<!-- Node2&#45;&gt;Node4 -->
<g id="edge26_Node000002_Node000004" class="edge">
<title>Node2&#45;&gt;Node4</title>
<g id="a_edge26_Node000002_Node000004"><a xlink:title=" ">
<path fill="none" stroke="#63b8ff" d="M185.78,-173.66C186.55,-174.29 187.29,-174.95 188,-175.62 214.76,-201.14 195.52,-227.05 224,-250.62 230.28,-255.82 237.92,-259.54 245.76,-262.18"/>
<polygon fill="#63b8ff" stroke="#63b8ff" points="188.08,-170.33 177.81,-167.73 184.23,-176.17 188.08,-170.33"/>
</a>
</g>
</g>
<!-- Node5 -->
<g id="Node000005" class="node">
<title>Node5</title>
<g id="a_Node000005"><a xlink:href="class_l_p_t_1_1_delaunay_o_e.html" target="_top" xlink:title=" ">
<polygon fill="white" stroke="#666666" points="339.75,-241.25 245.75,-241.25 245.75,-222 339.75,-222 339.75,-241.25"/>
<text text-anchor="middle" x="292.75" y="-227.75" font-family="Helvetica,sans-Serif" font-size="10.00">LPT::DelaunayOE</text>
</a>
</g>
</g>
<!-- Node2&#45;&gt;Node5 -->
<g id="edge27_Node000002_Node000005" class="edge">
<title>Node2&#45;&gt;Node5</title>
<g id="a_edge27_Node000002_Node000005"><a xlink:title=" ">
<path fill="none" stroke="#63b8ff" d="M183.32,-172.64C184.93,-173.59 186.5,-174.59 188,-175.62 207.12,-188.88 204,-201.74 224,-213.62 230.59,-217.54 238.04,-220.62 245.53,-223.04"/>
<polygon fill="#63b8ff" stroke="#63b8ff" points="185.25,-169.17 174.76,-167.66 182.01,-175.38 185.25,-169.17"/>
</a>
</g>
</g>
<!-- Node6 -->
<g id="Node000006" class="node">
<title>Node6</title>
<g id="a_Node000006"><a xlink:href="class_l_p_t_1_1_equinoctial_o_e.html" target="_top" xlink:title=" ">
<polygon fill="white" stroke="#666666" points="343.12,-204.25 242.38,-204.25 242.38,-185 343.12,-185 343.12,-204.25"/>
<text text-anchor="middle" x="292.75" y="-190.75" font-family="Helvetica,sans-Serif" font-size="10.00">LPT::EquinoctialOE</text>
</a>
</g>
</g>
<!-- Node2&#45;&gt;Node6 -->
<g id="edge28_Node000002_Node000006" class="edge">
<title>Node2&#45;&gt;Node6</title>
<g id="a_edge28_Node000002_Node000006"><a xlink:title=" ">
<path fill="none" stroke="#63b8ff" d="M195.86,-170.39C214.15,-175.01 234.54,-180.16 251.8,-184.53"/>
<polygon fill="#63b8ff" stroke="#63b8ff" points="196.93,-166.79 186.37,-167.74 195.21,-173.58 196.93,-166.79"/>
</a>
</g>
</g>
<!-- Node7 -->
<g id="Node000007" class="node">
<title>Node7</title>
<g id="a_Node000007"><a xlink:href="class_l_p_t_1_1_nonsingular_o_e.html" target="_top" xlink:title=" ">
<polygon fill="white" stroke="#666666" points="345,-167.25 240.5,-167.25 240.5,-148 345,-148 345,-167.25"/>
<text text-anchor="middle" x="292.75" y="-153.75" font-family="Helvetica,sans-Serif" font-size="10.00">LPT::NonsingularOE</text>
</a>
</g>
</g>
<!-- Node2&#45;&gt;Node7 -->
<g id="edge29_Node000002_Node000007" class="edge">
<title>Node2&#45;&gt;Node7</title>
<g id="a_edge29_Node000002_Node000007"><a xlink:title=" ">
<path fill="none" stroke="#63b8ff" d="M197.08,-157.62C211.08,-157.62 226.22,-157.62 240.21,-157.62"/>
<polygon fill="#63b8ff" stroke="#63b8ff" points="197.15,-154.13 187.15,-157.62 197.15,-161.13 197.15,-154.13"/>
</a>
</g>
</g>
<!-- Node8 -->
<g id="Node000008" class="node">
<title>Node8</title>
<g id="a_Node000008"><a xlink:href="class_l_p_t_1_1_quasi_nonsingular_o_e.html" target="_top" xlink:title=" ">
<polygon fill="white" stroke="#666666" points="357.75,-130.25 227.75,-130.25 227.75,-111 357.75,-111 357.75,-130.25"/>
<text text-anchor="middle" x="292.75" y="-116.75" font-family="Helvetica,sans-Serif" font-size="10.00">LPT::QuasiNonsingularOE</text>
</a>
</g>
</g>
<!-- Node2&#45;&gt;Node8 -->
<g id="edge30_Node000002_Node000008" class="edge">
<title>Node2&#45;&gt;Node8</title>
<g id="a_edge30_Node000002_Node000008"><a xlink:title=" ">
<path fill="none" stroke="#63b8ff" d="M195.86,-144.86C214.15,-140.24 234.54,-135.09 251.8,-130.72"/>
<polygon fill="#63b8ff" stroke="#63b8ff" points="195.21,-141.67 186.37,-147.51 196.93,-148.46 195.21,-141.67"/>
</a>
</g>
</g>
<!-- Node9 -->
<g id="Node000009" class="node">
<title>Node9</title>
<g id="a_Node000009"><a xlink:href="class_l_p_t_1_1_quasi_nonsingular_r_o_e.html" target="_top" xlink:title=" ">
<polygon fill="white" stroke="#666666" points="361.5,-93.25 224,-93.25 224,-74 361.5,-74 361.5,-93.25"/>
<text text-anchor="middle" x="292.75" y="-79.75" font-family="Helvetica,sans-Serif" font-size="10.00">LPT::QuasiNonsingularROE</text>
</a>
</g>
</g>
<!-- Node2&#45;&gt;Node9 -->
<g id="edge31_Node000002_Node000009" class="edge">
<title>Node2&#45;&gt;Node9</title>
<g id="a_edge31_Node000002_Node000009"><a xlink:title=" ">
<path fill="none" stroke="#63b8ff" d="M164.62,-140.9C179.82,-128.47 202.07,-111.93 224,-101.62 230.61,-98.52 237.84,-95.88 245.04,-93.66"/>
<polygon fill="#63b8ff" stroke="#63b8ff" points="162.95,-138.57 157.54,-147.67 167.45,-143.93 162.95,-138.57"/>
</a>
</g>
</g>
<!-- Node10 -->
<g id="Node000010" class="node">
<title>Node10</title>
<g id="a_Node000010"><a xlink:href="class_l_p_t_1_1_singular_r_o_e.html" target="_top" xlink:title=" ">
<polygon fill="white" stroke="#666666" points="340.5,-56.25 245,-56.25 245,-37 340.5,-37 340.5,-56.25"/>
<text text-anchor="middle" x="292.75" y="-42.75" font-family="Helvetica,sans-Serif" font-size="10.00">LPT::SingularROE</text>
</a>
</g>
</g>
<!-- Node2&#45;&gt;Node10 -->
<g id="edge32_Node000002_Node000010" class="edge">
<title>Node2&#45;&gt;Node10</title>
<g id="a_edge32_Node000002_Node000010"><a xlink:title=" ">
<path fill="none" stroke="#63b8ff" d="M156.53,-138.46C169.88,-117.22 194.22,-83.48 224,-64.62 230.27,-60.65 237.4,-57.55 244.63,-55.13"/>
<polygon fill="#63b8ff" stroke="#63b8ff" points="153.08,-136.4 150.88,-146.76 159.06,-140.03 153.08,-136.4"/>
</a>
</g>
</g>
<!-- Node11 -->
<g id="Node000011" class="node">
<title>Node11</title>
<g id="a_Node000011"><a xlink:href="class_py_orbit_state.html" target="_top" xlink:title=" ">
<polygon fill="white" stroke="#666666" points="328.88,-19.25 256.62,-19.25 256.62,0 328.88,0 328.88,-19.25"/>
<text text-anchor="middle" x="292.75" y="-5.75" font-family="Helvetica,sans-Serif" font-size="10.00">PyOrbitState</text>
</a>
</g>
</g>
<!-- Node2&#45;&gt;Node11 -->
<g id="edge33_Node000002_Node000011" class="edge">
<title>Node2&#45;&gt;Node11</title>
<g id="a_edge33_Node000002_Node000011"><a xlink:title=" ">
<path fill="none" stroke="#63b8ff" d="M151.99,-137.63C162.55,-108.86 185.99,-56.12 224,-27.62 233.35,-20.62 245.21,-16.33 256.39,-13.72"/>
<polygon fill="#63b8ff" stroke="#63b8ff" points="148.46,-136.11 148.46,-146.71 155.07,-138.43 148.46,-136.11"/>
</a>
</g>
</g>
</g>
</svg>
