<?xml version="1.0" encoding="UTF-8" standalone="no"?>
<!DOCTYPE svg PUBLIC "-//W3C//DTD SVG 1.1//EN"
 "http://www.w3.org/Graphics/SVG/1.1/DTD/svg11.dtd">
<!-- Generated by graphviz version 8.1.0 (20230707.0739)
 -->
<!-- Title: Graphical Class Hierarchy Pages: 1 -->
<svg width="285pt" height="64pt"
 viewBox="0.00 0.00 284.50 64.25" xmlns="http://www.w3.org/2000/svg" xmlns:xlink="http://www.w3.org/1999/xlink">
<g id="graph0" class="graph" transform="scale(1 1) rotate(0) translate(4 60.25)">
<title>Graphical Class Hierarchy</title>
<!-- Node0 -->
<g id="Node000000" class="node">
<title>Node0</title>
<g id="a_Node000000"><a xlink:href="class_l_p_t_1_1_application.html" target="_top" xlink:title=" ">
<polygon fill="white" stroke="#666666" points="86.5,-37.25 0,-37.25 0,-18 86.5,-18 86.5,-37.25"/>
<text text-anchor="middle" x="43.25" y="-23.75" font-family="Helvetica,sans-Serif" font-size="10.00">LPT::Application</text>
</a>
</g>
</g>
<!-- Node1 -->
<g id="Node000001" class="node">
<title>Node1</title>
<g id="a_Node000001"><a xlink:href="class_l_p_t_1_1_g_n_s_s_state_estimation_app.html" target="_top" xlink:title=" ">
<polygon fill="white" stroke="#666666" points="276.5,-56.25 122.5,-56.25 122.5,-37 276.5,-37 276.5,-56.25"/>
<text text-anchor="middle" x="199.5" y="-42.75" font-family="Helvetica,sans-Serif" font-size="10.00">LPT::GNSSStateEstimationApp</text>
</a>
</g>
</g>
<!-- Node0&#45;&gt;Node1 -->
<g id="edge3_Node000000_Node000001" class="edge">
<title>Node0&#45;&gt;Node1</title>
<g id="a_edge3_Node000000_Node000001"><a xlink:title=" ">
<path fill="none" stroke="#63b8ff" d="M97.67,-34.21C105.55,-35.18 113.8,-36.19 122.04,-37.21"/>
<polygon fill="#63b8ff" stroke="#63b8ff" points="98.16,-30.62 87.81,-32.87 97.3,-37.56 98.16,-30.62"/>
</a>
</g>
</g>
<!-- Node2 -->
<g id="Node000002" class="node">
<title>Node2</title>
<g id="a_Node000002"><a xlink:href="class_l_p_t_1_1_state_estimation_app.html" target="_top" xlink:title=" ">
<polygon fill="white" stroke="#666666" points="262.25,-19.25 136.75,-19.25 136.75,0 262.25,0 262.25,-19.25"/>
<text text-anchor="middle" x="199.5" y="-5.75" font-family="Helvetica,sans-Serif" font-size="10.00">LPT::StateEstimationApp</text>
</a>
</g>
</g>
<!-- Node0&#45;&gt;Node2 -->
<g id="edge4_Node000000_Node000002" class="edge">
<title>Node0&#45;&gt;Node2</title>
<g id="a_edge4_Node000000_Node000002"><a xlink:title=" ">
<path fill="none" stroke="#63b8ff" d="M97.55,-21.41C110.09,-19.94 123.56,-18.37 136.44,-16.87"/>
<polygon fill="#63b8ff" stroke="#63b8ff" points="97.33,-18.02 87.81,-22.66 98.15,-24.98 97.33,-18.02"/>
</a>
</g>
</g>
</g>
</svg>
