<?xml version="1.0" encoding="UTF-8" standalone="no"?>
<!DOCTYPE svg PUBLIC "-//W3C//DTD SVG 1.1//EN"
 "http://www.w3.org/Graphics/SVG/1.1/DTD/svg11.dtd">
<!-- Generated by graphviz version 8.1.0 (20230707.0739)
 -->
<!-- Title: Graphical Class Hierarchy Pages: 1 -->
<svg width="185pt" height="64pt"
 viewBox="0.00 0.00 184.75 64.25" xmlns="http://www.w3.org/2000/svg" xmlns:xlink="http://www.w3.org/1999/xlink">
<g id="graph0" class="graph" transform="scale(1 1) rotate(0) translate(4 60.25)">
<title>Graphical Class Hierarchy</title>
<!-- Node0 -->
<g id="Node000000" class="node">
<title>Node0</title>
<g id="a_Node000000"><a xlink:href="class_l_p_t_1_1_i_integrator.html" target="_top" xlink:title=" ">
<polygon fill="white" stroke="#666666" points="82.75,-37.25 0,-37.25 0,-18 82.75,-18 82.75,-37.25"/>
<text text-anchor="middle" x="41.38" y="-23.75" font-family="Helvetica,sans-Serif" font-size="10.00">LPT::IIntegrator</text>
</a>
</g>
</g>
<!-- Node1 -->
<g id="Node000001" class="node">
<title>Node1</title>
<g id="a_Node000001"><a xlink:href="class_l_p_t_1_1_r_k4.html" target="_top" xlink:title=" ">
<polygon fill="white" stroke="#666666" points="176.75,-56.25 118.75,-56.25 118.75,-37 176.75,-37 176.75,-56.25"/>
<text text-anchor="middle" x="147.75" y="-42.75" font-family="Helvetica,sans-Serif" font-size="10.00">LPT::RK4</text>
</a>
</g>
</g>
<!-- Node0&#45;&gt;Node1 -->
<g id="edge14_Node000000_Node000001" class="edge">
<title>Node0&#45;&gt;Node1</title>
<g id="a_edge14_Node000000_Node000001"><a xlink:title=" ">
<path fill="none" stroke="#63b8ff" d="M93.68,-36.96C102.16,-38.51 110.67,-40.06 118.31,-41.45"/>
<polygon fill="#63b8ff" stroke="#63b8ff" points="94.49,-33.37 84.03,-35.03 93.24,-40.26 94.49,-33.37"/>
</a>
</g>
</g>
<!-- Node2 -->
<g id="Node000002" class="node">
<title>Node2</title>
<g id="a_Node000002"><a xlink:href="class_l_p_t_1_1_r_k8.html" target="_top" xlink:title=" ">
<polygon fill="white" stroke="#666666" points="176.75,-19.25 118.75,-19.25 118.75,0 176.75,0 176.75,-19.25"/>
<text text-anchor="middle" x="147.75" y="-5.75" font-family="Helvetica,sans-Serif" font-size="10.00">LPT::RK8</text>
</a>
</g>
</g>
<!-- Node0&#45;&gt;Node2 -->
<g id="edge15_Node000000_Node000002" class="edge">
<title>Node0&#45;&gt;Node2</title>
<g id="a_edge15_Node000000_Node000002"><a xlink:title=" ">
<path fill="none" stroke="#63b8ff" d="M93.68,-18.78C102.16,-17.32 110.67,-15.85 118.31,-14.53"/>
<polygon fill="#63b8ff" stroke="#63b8ff" points="93.29,-15.47 84.03,-20.61 94.48,-22.36 93.29,-15.47"/>
</a>
</g>
</g>
</g>
</svg>
