<?xml version="1.0" encoding="UTF-8" standalone="no"?>
<!DOCTYPE svg PUBLIC "-//W3C//DTD SVG 1.1//EN"
 "http://www.w3.org/Graphics/SVG/1.1/DTD/svg11.dtd">
<!-- Generated by graphviz version 8.1.0 (20230707.0739)
 -->
<!-- Title: LPT::BodyData Pages: 1 -->
<svg width="84pt" height="132pt"
 viewBox="0.00 0.00 84.00 132.00" xmlns="http://www.w3.org/2000/svg" xmlns:xlink="http://www.w3.org/1999/xlink">

<svg id="main" version="1.1" xmlns="http://www.w3.org/2000/svg" xmlns:xlink="http://www.w3.org/1999/xlink" xml:space="preserve" onload="init(evt)">
<style type="text/css"><![CDATA[
.node, .edge {opacity: 0.7;}
.node.selected, .edge.selected {opacity: 1;}
.edge:hover path { stroke: red; }
.edge:hover polygon { stroke: red; fill: red; }
]]></style>
<script type="application/ecmascript" xlink:href="svg.min.js"/>
<svg id="graph" class="graph">
<g id="graph0" class="graph" transform="scale(1 1) rotate(0) translate(4 128)">
<title>LPT::BodyData</title>
<!-- Node1 -->
<g id="Node000001" class="node">
<title>Node1</title>
<g id="a_Node000001"><a xlink:title=" ">
<polygon fill="#999999" stroke="none" points="76,-124 0,-124 0,0 76,0 76,-124"/>
<text text-anchor="start" x="5" y="-110.5" font-family="Helvetica,sans-Serif" font-size="10.00">LPT::BodyData</text>
<text text-anchor="start" x="6" y="-95.5" font-family="Helvetica,sans-Serif" font-size="10.00">+</text>
<text text-anchor="start" x="18" y="-95.5" font-family="Helvetica,sans-Serif" font-size="10.00">name</text>
<text text-anchor="start" x="6" y="-80.5" font-family="Helvetica,sans-Serif" font-size="10.00">+</text>
<text text-anchor="start" x="18" y="-80.5" font-family="Helvetica,sans-Serif" font-size="10.00">GM</text>
<text text-anchor="start" x="6" y="-65.5" font-family="Helvetica,sans-Serif" font-size="10.00">+</text>
<text text-anchor="start" x="18" y="-65.5" font-family="Helvetica,sans-Serif" font-size="10.00">R</text>
<text text-anchor="start" x="6" y="-50.5" font-family="Helvetica,sans-Serif" font-size="10.00">+</text>
<text text-anchor="start" x="18" y="-50.5" font-family="Helvetica,sans-Serif" font-size="10.00">filepath</text>
<text text-anchor="start" x="6" y="-35.5" font-family="Helvetica,sans-Serif" font-size="10.00">+</text>
<text text-anchor="start" x="18" y="-35.5" font-family="Helvetica,sans-Serif" font-size="10.00">headerlines</text>
<text text-anchor="start" x="6" y="-20.5" font-family="Helvetica,sans-Serif" font-size="10.00">+</text>
<text text-anchor="start" x="18" y="-20.5" font-family="Helvetica,sans-Serif" font-size="10.00">delimiter</text>
<text text-anchor="start" x="36.5" y="-5.5" font-family="Helvetica,sans-Serif" font-size="10.00"> </text>
<polygon fill="#666666" stroke="#666666" points="0,-107 0,-107 76,-107 76,-107 0,-107"/>
<polygon fill="#666666" stroke="#666666" points="0,-17 0,-17 16,-17 16,-17 0,-17"/>
<polygon fill="#666666" stroke="#666666" points="16,-17 16,-17 76,-17 76,-17 16,-17"/>
<polygon fill="none" stroke="#666666" points="0,0 0,-124 76,-124 76,0 0,0"/>
</a>
</g>
</g>
</g>
</svg>
</svg>

<style type='text/css'>
<![CDATA[
[data-mouse-over-selected='false'] { opacity: 0.7; }
[data-mouse-over-selected='true']  { opacity: 1.0; }
]]>
</style>
<script type="application/ecmascript"><![CDATA[
document.addEventListener('DOMContentLoaded', (event) => {
  highlightEdges();
  highlightAdjacentNodes();
});
]]></script>
</svg>
