<?xml version="1.0" encoding="UTF-8" standalone="no"?>
<!DOCTYPE svg PUBLIC "-//W3C//DTD SVG 1.1//EN"
 "http://www.w3.org/Graphics/SVG/1.1/DTD/svg11.dtd">
<!-- Generated by graphviz version 8.1.0 (20230707.0739)
 -->
<!-- Title: Antenna.h Pages: 1 -->
<!--zoomable 248 -->

<svg id="main" version="1.1" xmlns="http://www.w3.org/2000/svg" xmlns:xlink="http://www.w3.org/1999/xlink" xml:space="preserve" onload="init(evt)">
<style type="text/css"><![CDATA[
.node, .edge {opacity: 0.7;}
.node.selected, .edge.selected {opacity: 1;}
.edge:hover path { stroke: red; }
.edge:hover polygon { stroke: red; fill: red; }
]]></style>

<defs>
  <circle id="rim" cx="0" cy="0" r="7"/>
  <circle id="rim2" cx="0" cy="0" r="3.5"/>
  <g id="zoomPlus">
    <use xlink:href="#rim" fill="#404040"><set attributeName="fill" to="#808080" begin="zoomplus.mouseover" end="zoomplus.mouseout"/></use>
    <path d="M-4,0h8M0,-4v8" fill="none" stroke="white" stroke-width="1.5" pointer-events="none"/>
  </g>
  <g id="zoomMin">
    <use xlink:href="#rim" fill="#404040"><set attributeName="fill" to="#808080" begin="zoomminus.mouseover" end="zoomminus.mouseout"/></use>
    <path d="M-4,0h8" fill="none" stroke="white" stroke-width="1.5" pointer-events="none"/>
  </g>
  <g id="arrowUp" transform="translate(30 24)">
    <use xlink:href="#rim"/>
    <path pointer-events="none" fill="none" stroke="white" stroke-width="1.5" d="M0,-3.0v7 M-2.5,-0.5L0,-3.0L2.5,-0.5"/>
  </g>
  <g id="arrowRight" transform="rotate(90) translate(36 -43)">
    <use xlink:href="#rim"/>
    <path pointer-events="none" fill="none" stroke="white" stroke-width="1.5" d="M0,-3.0v7 M-2.5,-0.5L0,-3.0L2.5,-0.5"/>
  </g>
  <g id="arrowDown" transform="rotate(180) translate(-30 -48)">
    <use xlink:href="#rim"/>
    <path pointer-events="none" fill="none" stroke="white" stroke-width="1.5" d="M0,-3.0v7 M-2.5,-0.5L0,-3.0L2.5,-0.5"/>
  </g>
  <g id="arrowLeft" transform="rotate(270) translate(-36 17)">
    <use xlink:href="#rim"/>
    <path pointer-events="none" fill="none" stroke="white" stroke-width="1.5" d="M0,-3.0v7 M-2.5,-0.5L0,-3.0L2.5,-0.5"/>
  </g>
  <g id="resetDef">
    <use xlink:href="#rim2" fill="#404040"><set attributeName="fill" to="#808080" begin="reset.mouseover" end="reset.mouseout"/></use>
  </g>
</defs>
<script type="application/ecmascript">
var viewWidth = 1282;
var viewHeight = 248;
var sectionId = 'dynsection-1';
</script>
<script type="application/ecmascript" xlink:href="svg.min.js"/>
<svg id="graph" class="graph">
<g id="viewport">
<title>Antenna.h</title>
<!-- Node1 -->
<g id="Node000001" class="node">
<title>Node1</title>
<g id="a_Node000001"><a xlink:title="Antenna class.">
<polygon fill="#999999" stroke="#666666" points="545.12,-240.25 484.88,-240.25 484.88,-221 545.12,-221 545.12,-240.25"/>
<text text-anchor="middle" x="515" y="-226.75" font-family="Helvetica,sans-Serif" font-size="10.00">Antenna.h</text>
</a>
</g>
</g>
<!-- Node2 -->
<g id="Node000002" class="node">
<title>Node2</title>
<g id="a_Node000002"><a xlink:href="_antenna_8cpp.html" target="_top" xlink:title="Antenna class.">
<polygon fill="white" stroke="#666666" points="487.38,-185 416.62,-185 416.62,-165.75 487.38,-165.75 487.38,-185"/>
<text text-anchor="middle" x="452" y="-171.5" font-family="Helvetica,sans-Serif" font-size="10.00">Antenna.cpp</text>
</a>
</g>
</g>
<!-- Node1&#45;&gt;Node2 -->
<g id="edge1_Node000001_Node000002" class="edge">
<title>Node1&#45;&gt;Node2</title>
<g id="a_edge1_Node000001_Node000002"><a xlink:title=" ">
<path fill="none" stroke="#63b8ff" d="M496.15,-213.69C485.15,-204.39 471.68,-193.01 462.53,-185.27"/>
<polygon fill="#63b8ff" stroke="#63b8ff" points="493.42,-216.81 503.31,-220.59 497.93,-211.46 493.42,-216.81"/>
</a>
</g>
</g>
<!-- Node3 -->
<g id="Node000003" class="node">
<title>Node3</title>
<g id="a_Node000003"><a xlink:href="_comm_device_8h.html" target="_top" xlink:title="Communication devices.">
<polygon fill="white" stroke="#666666" points="697.12,-185 612.88,-185 612.88,-165.75 697.12,-165.75 697.12,-185"/>
<text text-anchor="middle" x="655" y="-171.5" font-family="Helvetica,sans-Serif" font-size="10.00">CommDevice.h</text>
</a>
</g>
</g>
<!-- Node1&#45;&gt;Node3 -->
<g id="edge2_Node000001_Node000003" class="edge">
<title>Node1&#45;&gt;Node3</title>
<g id="a_edge2_Node000001_Node000003"><a xlink:title=" ">
<path fill="none" stroke="#63b8ff" d="M548.71,-216.8C574.17,-207.12 608.47,-194.07 631.13,-185.45"/>
<polygon fill="#63b8ff" stroke="#63b8ff" points="547.85,-213.77 539.75,-220.59 550.34,-220.31 547.85,-213.77"/>
</a>
</g>
</g>
<!-- Node21 -->
<g id="Node000021" class="node">
<title>Node21</title>
<g id="a_Node000021"><a xlink:href="_g_n_s_s_transmitter_8h.html" target="_top" xlink:title="Handles GNSS transmit.">
<polygon fill="white" stroke="#666666" points="496.75,-129.75 395.25,-129.75 395.25,-110.5 496.75,-110.5 496.75,-129.75"/>
<text text-anchor="middle" x="446" y="-116.25" font-family="Helvetica,sans-Serif" font-size="10.00">GNSSTransmitter.h</text>
</a>
</g>
</g>
<!-- Node1&#45;&gt;Node21 -->
<g id="edge39_Node000001_Node000021" class="edge">
<title>Node1&#45;&gt;Node21</title>
<g id="a_edge39_Node000001_Node000021"><a xlink:title=" ">
<path fill="none" stroke="#63b8ff" d="M512.05,-209.96C509.4,-196.69 504.55,-179.21 496,-165.75 486.65,-151.02 471.09,-138.23 459.81,-130.16"/>
<polygon fill="#63b8ff" stroke="#63b8ff" points="508.76,-210.47 513.92,-219.73 515.66,-209.28 508.76,-210.47"/>
</a>
</g>
</g>
<!-- Node4 -->
<g id="Node000004" class="node">
<title>Node4</title>
<g id="a_Node000004"><a xlink:href="_agent_8h.html" target="_top" xlink:title="List of agents.">
<polygon fill="white" stroke="#666666" points="564.88,-129.75 515.12,-129.75 515.12,-110.5 564.88,-110.5 564.88,-129.75"/>
<text text-anchor="middle" x="540" y="-116.25" font-family="Helvetica,sans-Serif" font-size="10.00">Agent.h</text>
</a>
</g>
</g>
<!-- Node3&#45;&gt;Node4 -->
<g id="edge3_Node000003_Node000004" class="edge">
<title>Node3&#45;&gt;Node4</title>
<g id="a_edge3_Node000003_Node000004"><a xlink:title=" ">
<path fill="none" stroke="#63b8ff" d="M625.62,-160.77C604.9,-151.18 577.73,-138.59 559.6,-130.2"/>
<polygon fill="#63b8ff" stroke="#63b8ff" points="623.95,-164.32 634.49,-165.34 626.89,-157.96 623.95,-164.32"/>
</a>
</g>
</g>
<!-- Node13 -->
<g id="Node000013" class="node">
<title>Node13</title>
<g id="a_Node000013"><a xlink:href="_g_n_s_s_state_estimation_app_8h.html" target="_top" xlink:title="State Estimation Application Using GNSS Measurement.">
<polygon fill="white" stroke="#666666" points="1133.88,-74.5 994.12,-74.5 994.12,-55.25 1133.88,-55.25 1133.88,-74.5"/>
<text text-anchor="middle" x="1064" y="-61" font-family="Helvetica,sans-Serif" font-size="10.00">GNSSStateEstimationApp.h</text>
</a>
</g>
</g>
<!-- Node3&#45;&gt;Node13 -->
<g id="edge32_Node000003_Node000013" class="edge">
<title>Node3&#45;&gt;Node13</title>
<g id="a_edge32_Node000003_Node000013"><a xlink:title=" ">
<path fill="none" stroke="#63b8ff" d="M708.11,-164.45C750.34,-156.2 810.79,-143.61 863,-129.75 926.7,-112.84 1000.19,-88.13 1038.22,-74.95"/>
<polygon fill="#63b8ff" stroke="#63b8ff" points="707.66,-161.16 698.51,-166.5 708.99,-168.03 707.66,-161.16"/>
</a>
</g>
</g>
<!-- Node16 -->
<g id="Node000016" class="node">
<title>Node16</title>
<g id="a_Node000016"><a xlink:href="_space_channel_8cpp.html" target="_top" xlink:title="Base spacechannel class (Under devlopment )">
<polygon fill="white" stroke="#666666" points="704.25,-74.5 605.75,-74.5 605.75,-55.25 704.25,-55.25 704.25,-74.5"/>
<text text-anchor="middle" x="655" y="-61" font-family="Helvetica,sans-Serif" font-size="10.00">SpaceChannel.cpp</text>
</a>
</g>
</g>
<!-- Node3&#45;&gt;Node16 -->
<g id="edge37_Node000003_Node000016" class="edge">
<title>Node3&#45;&gt;Node16</title>
<g id="a_edge37_Node000003_Node000016"><a xlink:title=" ">
<path fill="none" stroke="#63b8ff" d="M655,-154.68C655,-131.01 655,-92.3 655,-74.88"/>
<polygon fill="#63b8ff" stroke="#63b8ff" points="651.5,-154.5 655,-164.5 658.5,-154.5 651.5,-154.5"/>
</a>
</g>
</g>
<!-- Node17 -->
<g id="Node000017" class="node">
<title>Node17</title>
<g id="a_Node000017"><a xlink:href="_state_estimation_app_8h.html" target="_top" xlink:title="Base class for State Estimation Application.">
<polygon fill="white" stroke="#666666" points="1263.62,-74.5 1152.38,-74.5 1152.38,-55.25 1263.62,-55.25 1263.62,-74.5"/>
<text text-anchor="middle" x="1208" y="-61" font-family="Helvetica,sans-Serif" font-size="10.00">StateEstimationApp.h</text>
</a>
</g>
</g>
<!-- Node3&#45;&gt;Node17 -->
<g id="edge38_Node000003_Node000017" class="edge">
<title>Node3&#45;&gt;Node17</title>
<g id="a_edge38_Node000003_Node000017"><a xlink:title=" ">
<path fill="none" stroke="#63b8ff" d="M708.21,-165.49C759.28,-156.84 838.54,-143.07 907,-129.75 1000.34,-111.59 1109.4,-87.8 1167.19,-74.99"/>
<polygon fill="#63b8ff" stroke="#63b8ff" points="707.72,-162.19 698.44,-167.31 708.88,-169.1 707.72,-162.19"/>
</a>
</g>
</g>
<!-- Node19 -->
<g id="Node000019" class="node">
<title>Node19</title>
<g id="a_Node000019"><a xlink:href="_g_n_s_s_receiver_8h.html" target="_top" xlink:title="GNSS receiver class.">
<polygon fill="white" stroke="#666666" points="853.5,-129.75 762.5,-129.75 762.5,-110.5 853.5,-110.5 853.5,-129.75"/>
<text text-anchor="middle" x="808" y="-116.25" font-family="Helvetica,sans-Serif" font-size="10.00">GNSSReceiver.h</text>
</a>
</g>
</g>
<!-- Node3&#45;&gt;Node19 -->
<g id="edge23_Node000003_Node000019" class="edge">
<title>Node3&#45;&gt;Node19</title>
<g id="a_edge23_Node000003_Node000019"><a xlink:title=" ">
<path fill="none" stroke="#63b8ff" d="M691.1,-161.81C718.99,-152.1 756.93,-138.9 781.92,-130.2"/>
<polygon fill="#63b8ff" stroke="#63b8ff" points="690.25,-158.75 681.95,-165.34 692.55,-165.36 690.25,-158.75"/>
</a>
</g>
</g>
<!-- Node3&#45;&gt;Node21 -->
<g id="edge33_Node000003_Node000021" class="edge">
<title>Node3&#45;&gt;Node21</title>
<g id="a_edge33_Node000003_Node000021"><a xlink:title=" ">
<path fill="none" stroke="#63b8ff" d="M609.17,-162.7C570.8,-152.92 516.82,-139.17 481.63,-130.2"/>
<polygon fill="#63b8ff" stroke="#63b8ff" points="607.99,-166.26 618.55,-165.34 609.72,-159.48 607.99,-166.26"/>
</a>
</g>
</g>
<!-- Node5 -->
<g id="Node000005" class="node">
<title>Node5</title>
<g id="a_Node000005"><a xlink:href="_agent_8cpp.html" target="_top" xlink:title="Base class fo.">
<polygon fill="white" stroke="#666666" points="356.12,-74.5 295.88,-74.5 295.88,-55.25 356.12,-55.25 356.12,-74.5"/>
<text text-anchor="middle" x="326" y="-61" font-family="Helvetica,sans-Serif" font-size="10.00">Agent.cpp</text>
</a>
</g>
</g>
<!-- Node4&#45;&gt;Node5 -->
<g id="edge4_Node000004_Node000005" class="edge">
<title>Node4&#45;&gt;Node5</title>
<g id="a_edge4_Node000004_Node000005"><a xlink:title=" ">
<path fill="none" stroke="#63b8ff" d="M504.36,-110.1C446.69,-95.65 390.38,-81.74 356.59,-73.4"/>
<polygon fill="#63b8ff" stroke="#63b8ff" points="503.2,-113.67 513.75,-112.7 504.9,-106.88 503.2,-113.67"/>
</a>
</g>
</g>
<!-- Node6 -->
<g id="Node000006" class="node">
<title>Node6</title>
<g id="a_Node000006"><a xlink:href="_example_constellations_8cpp.html" target="_top" xlink:title="Setup GNSS Constellation.">
<polygon fill="white" stroke="#666666" points="207.62,-19.25 72.38,-19.25 72.38,0 207.62,0 207.62,-19.25"/>
<text text-anchor="middle" x="140" y="-5.75" font-family="Helvetica,sans-Serif" font-size="10.00">ExampleConstellations.cpp</text>
</a>
</g>
</g>
<!-- Node4&#45;&gt;Node6 -->
<g id="edge5_Node000004_Node000006" class="edge">
<title>Node4&#45;&gt;Node6</title>
<g id="a_edge5_Node000004_Node000006"><a xlink:title=" ">
<path fill="none" stroke="#63b8ff" d="M504.02,-110.66C413.02,-98.98 216.28,-122.02 159,-74.5 142.62,-60.91 139.97,-33.86 139.78,-19.72"/>
<polygon fill="#63b8ff" stroke="#63b8ff" points="503.42,-114.26 513.84,-112.31 504.48,-107.34 503.42,-114.26"/>
</a>
</g>
</g>
<!-- Node7 -->
<g id="Node000007" class="node">
<title>Node7</title>
<g id="a_Node000007"><a xlink:href="_example_e_k_f_8cpp.html" target="_top" xlink:title="Example of Extended Kalman Filter for orbit determination.">
<polygon fill="white" stroke="#666666" points="455.5,-19.25 364.5,-19.25 364.5,0 455.5,0 455.5,-19.25"/>
<text text-anchor="middle" x="410" y="-5.75" font-family="Helvetica,sans-Serif" font-size="10.00">ExampleEKF.cpp</text>
</a>
</g>
</g>
<!-- Node4&#45;&gt;Node7 -->
<g id="edge6_Node000004_Node000007" class="edge">
<title>Node4&#45;&gt;Node7</title>
<g id="a_edge6_Node000004_Node000007"><a xlink:title=" ">
<path fill="none" stroke="#63b8ff" d="M504.57,-109.89C466.06,-99.51 409.16,-82.99 403,-74.5 391.07,-58.07 399.64,-32.72 405.59,-19.43"/>
<polygon fill="#63b8ff" stroke="#63b8ff" points="503.32,-113.45 513.88,-112.65 505.12,-106.69 503.32,-113.45"/>
</a>
</g>
</g>
<!-- Node8 -->
<g id="Node000008" class="node">
<title>Node8</title>
<g id="a_Node000008"><a xlink:href="_example_e_k_f_app_8cpp.html" target="_top" xlink:title="Example of EKF application.">
<polygon fill="white" stroke="#666666" points="850.88,-19.25 741.12,-19.25 741.12,0 850.88,0 850.88,-19.25"/>
<text text-anchor="middle" x="796" y="-5.75" font-family="Helvetica,sans-Serif" font-size="10.00">ExampleEKFApp.cpp</text>
</a>
</g>
</g>
<!-- Node4&#45;&gt;Node8 -->
<g id="edge7_Node000004_Node000008" class="edge">
<title>Node4&#45;&gt;Node8</title>
<g id="a_edge7_Node000004_Node000008"><a xlink:title=" ">
<path fill="none" stroke="#63b8ff" d="M551.44,-101C561.62,-86.4 577.84,-66.51 597,-55.25 641.11,-29.32 698.82,-18.45 740.73,-13.89"/>
<polygon fill="#63b8ff" stroke="#63b8ff" points="548.02,-98.83 545.4,-109.1 553.85,-102.71 548.02,-98.83"/>
</a>
</g>
</g>
<!-- Node9 -->
<g id="Node000009" class="node">
<title>Node9</title>
<g id="a_Node000009"><a xlink:href="_example_propagation_8cpp.html" target="_top" xlink:title="Example propagating both GPS constellation and Lunar Satellite.">
<polygon fill="white" stroke="#666666" points="602.38,-19.25 477.62,-19.25 477.62,0 602.38,0 602.38,-19.25"/>
<text text-anchor="middle" x="540" y="-5.75" font-family="Helvetica,sans-Serif" font-size="10.00">ExamplePropagation.cpp</text>
</a>
</g>
</g>
<!-- Node4&#45;&gt;Node9 -->
<g id="edge8_Node000004_Node000009" class="edge">
<title>Node4&#45;&gt;Node9</title>
<g id="a_edge8_Node000004_Node000009"><a xlink:title=" ">
<path fill="none" stroke="#63b8ff" d="M540,-99.43C540,-75.76 540,-37.05 540,-19.63"/>
<polygon fill="#63b8ff" stroke="#63b8ff" points="536.5,-99.25 540,-109.25 543.5,-99.25 536.5,-99.25"/>
</a>
</g>
</g>
<!-- Node10 -->
<g id="Node000010" class="node">
<title>Node10</title>
<g id="a_Node000010"><a xlink:href="_g_n_s_s_channel_8cpp.html" target="_top" xlink:title="GNSS Channel.">
<polygon fill="white" stroke="#666666" points="511.62,-74.5 412.38,-74.5 412.38,-55.25 511.62,-55.25 511.62,-74.5"/>
<text text-anchor="middle" x="462" y="-61" font-family="Helvetica,sans-Serif" font-size="10.00">GNSSChannel.cpp</text>
</a>
</g>
</g>
<!-- Node4&#45;&gt;Node10 -->
<g id="edge9_Node000004_Node000010" class="edge">
<title>Node4&#45;&gt;Node10</title>
<g id="a_edge9_Node000004_Node000010"><a xlink:title=" ">
<path fill="none" stroke="#63b8ff" d="M517.92,-104.05C504.19,-94.67 486.97,-82.92 475.3,-74.95"/>
<polygon fill="#63b8ff" stroke="#63b8ff" points="515.54,-107.34 525.77,-110.09 519.48,-101.56 515.54,-107.34"/>
</a>
</g>
</g>
<!-- Node11 -->
<g id="Node000011" class="node">
<title>Node11</title>
<g id="a_Node000011"><a xlink:href="_g_n_s_s_constellation_8h.html" target="_top" xlink:title=" ">
<polygon fill="white" stroke="#666666" points="277.88,-74.5 168.12,-74.5 168.12,-55.25 277.88,-55.25 277.88,-74.5"/>
<text text-anchor="middle" x="223" y="-61" font-family="Helvetica,sans-Serif" font-size="10.00">GNSSConstellation.h</text>
</a>
</g>
</g>
<!-- Node4&#45;&gt;Node11 -->
<g id="edge10_Node000004_Node000011" class="edge">
<title>Node4&#45;&gt;Node11</title>
<g id="a_edge10_Node000004_Node000011"><a xlink:title=" ">
<path fill="none" stroke="#63b8ff" d="M504.12,-110.31C448.82,-99.56 343.29,-83.6 278.16,-73.96"/>
<polygon fill="#63b8ff" stroke="#63b8ff" points="503.32,-113.92 513.81,-112.46 504.69,-107.06 503.32,-113.92"/>
</a>
</g>
</g>
<!-- Node4&#45;&gt;Node13 -->
<g id="edge16_Node000004_Node000013" class="edge">
<title>Node4&#45;&gt;Node13</title>
<g id="a_edge16_Node000004_Node000013"><a xlink:title=" ">
<path fill="none" stroke="#63b8ff" d="M576.04,-115.46C662.09,-106.72 880.77,-84.49 993.87,-73"/>
<polygon fill="#63b8ff" stroke="#63b8ff" points="575.87,-112.06 566.27,-116.56 576.58,-119.03 575.87,-112.06"/>
</a>
</g>
</g>
<!-- Node15 -->
<g id="Node000015" class="node">
<title>Node15</title>
<g id="a_Node000015"><a xlink:href="_g_n_s_s_transmitter_8cpp.html" target="_top" xlink:title="Handles GNSS transmit.">
<polygon fill="white" stroke="#666666" points="112,-74.5 0,-74.5 0,-55.25 112,-55.25 112,-74.5"/>
<text text-anchor="middle" x="56" y="-61" font-family="Helvetica,sans-Serif" font-size="10.00">GNSSTransmitter.cpp</text>
</a>
</g>
</g>
<!-- Node4&#45;&gt;Node15 -->
<g id="edge19_Node000004_Node000015" class="edge">
<title>Node4&#45;&gt;Node15</title>
<g id="a_edge19_Node000004_Node000015"><a xlink:title=" ">
<path fill="none" stroke="#63b8ff" d="M504.18,-110.45C336.98,-82.01 291.19,-92.5 126,-74.5 121.5,-74.01 116.83,-73.48 112.15,-72.93"/>
<polygon fill="#63b8ff" stroke="#63b8ff" points="503.39,-114.03 513.84,-112.28 504.58,-107.14 503.39,-114.03"/>
</a>
</g>
</g>
<!-- Node4&#45;&gt;Node16 -->
<g id="edge20_Node000004_Node000016" class="edge">
<title>Node4&#45;&gt;Node16</title>
<g id="a_edge20_Node000004_Node000016"><a xlink:title=" ">
<path fill="none" stroke="#63b8ff" d="M569.38,-105.52C590.1,-95.93 617.27,-83.34 635.4,-74.95"/>
<polygon fill="#63b8ff" stroke="#63b8ff" points="568.11,-102.71 560.51,-110.09 571.05,-109.07 568.11,-102.71"/>
</a>
</g>
</g>
<!-- Node4&#45;&gt;Node17 -->
<g id="edge21_Node000004_Node000017" class="edge">
<title>Node4&#45;&gt;Node17</title>
<g id="a_edge21_Node000004_Node000017"><a xlink:title=" ">
<path fill="none" stroke="#63b8ff" d="M576.18,-117.18C669.95,-111.99 928.49,-96.65 1143,-74.5 1145.94,-74.2 1148.96,-73.86 1152,-73.51"/>
<polygon fill="#63b8ff" stroke="#63b8ff" points="576.12,-113.74 566.32,-117.78 576.5,-120.72 576.12,-113.74"/>
</a>
</g>
</g>
<!-- Node11&#45;&gt;Node6 -->
<g id="edge11_Node000011_Node000006" class="edge">
<title>Node11&#45;&gt;Node6</title>
<g id="a_edge11_Node000011_Node000006"><a xlink:title=" ">
<path fill="none" stroke="#63b8ff" d="M199.93,-49.07C185.24,-39.65 166.69,-27.75 154.15,-19.7"/>
<polygon fill="#63b8ff" stroke="#63b8ff" points="197.61,-52.39 207.92,-54.84 201.39,-46.5 197.61,-52.39"/>
</a>
</g>
</g>
<!-- Node11&#45;&gt;Node7 -->
<g id="edge12_Node000011_Node000007" class="edge">
<title>Node11&#45;&gt;Node7</title>
<g id="a_edge12_Node000011_Node000007"><a xlink:title=" ">
<path fill="none" stroke="#63b8ff" d="M264.89,-51.95C299.16,-42.19 346.9,-28.59 378.12,-19.7"/>
<polygon fill="#63b8ff" stroke="#63b8ff" points="264.38,-48.74 255.72,-54.84 266.3,-55.47 264.38,-48.74"/>
</a>
</g>
</g>
<!-- Node11&#45;&gt;Node8 -->
<g id="edge13_Node000011_Node000008" class="edge">
<title>Node11&#45;&gt;Node8</title>
<g id="a_edge13_Node000011_Node000008"><a xlink:title=" ">
<path fill="none" stroke="#63b8ff" d="M288.85,-55.09C459.85,-36.3 649.38,-21.42 740.93,-14.61"/>
<polygon fill="#63b8ff" stroke="#63b8ff" points="288.69,-51.7 279.14,-56.28 289.46,-58.66 288.69,-51.7"/>
</a>
</g>
</g>
<!-- Node11&#45;&gt;Node9 -->
<g id="edge14_Node000011_Node000009" class="edge">
<title>Node11&#45;&gt;Node9</title>
<g id="a_edge14_Node000011_Node000009"><a xlink:title=" ">
<path fill="none" stroke="#63b8ff" d="M287.71,-53C346.08,-43.2 430.96,-28.94 485.82,-19.73"/>
<polygon fill="#63b8ff" stroke="#63b8ff" points="287.42,-49.67 278.13,-54.78 288.58,-56.58 287.42,-49.67"/>
</a>
</g>
</g>
<!-- Node12 -->
<g id="Node000012" class="node">
<title>Node12</title>
<g id="a_Node000012"><a xlink:href="_g_n_s_s_constellation_8cpp.html" target="_top" xlink:title="GNSS Constellation.">
<polygon fill="white" stroke="#666666" points="346.12,-19.25 225.88,-19.25 225.88,0 346.12,0 346.12,-19.25"/>
<text text-anchor="middle" x="286" y="-5.75" font-family="Helvetica,sans-Serif" font-size="10.00">GNSSConstellation.cpp</text>
</a>
</g>
</g>
<!-- Node11&#45;&gt;Node12 -->
<g id="edge15_Node000011_Node000012" class="edge">
<title>Node11&#45;&gt;Node12</title>
<g id="a_edge15_Node000011_Node000012"><a xlink:title=" ">
<path fill="none" stroke="#63b8ff" d="M241.85,-47.94C252.85,-38.64 266.32,-27.26 275.47,-19.52"/>
<polygon fill="#63b8ff" stroke="#63b8ff" points="240.07,-45.71 234.69,-54.84 244.58,-51.06 240.07,-45.71"/>
</a>
</g>
</g>
<!-- Node13&#45;&gt;Node8 -->
<g id="edge17_Node000013_Node000008" class="edge">
<title>Node13&#45;&gt;Node8</title>
<g id="a_edge17_Node000013_Node000008"><a xlink:title=" ">
<path fill="none" stroke="#63b8ff" d="M1007.73,-52.69C958.36,-42.89 887.47,-28.8 841.58,-19.68"/>
<polygon fill="#63b8ff" stroke="#63b8ff" points="1006.74,-56.27 1017.23,-54.78 1008.11,-49.4 1006.74,-56.27"/>
</a>
</g>
</g>
<!-- Node14 -->
<g id="Node000014" class="node">
<title>Node14</title>
<g id="a_Node000014"><a xlink:href="_g_n_s_s_state_estimation_app_8cpp.html" target="_top" xlink:title="State Estimation Application Using GNSS Measurement.">
<polygon fill="white" stroke="#666666" points="1134.12,-19.25 983.88,-19.25 983.88,0 1134.12,0 1134.12,-19.25"/>
<text text-anchor="middle" x="1059" y="-5.75" font-family="Helvetica,sans-Serif" font-size="10.00">GNSSStateEstimationApp.cpp</text>
</a>
</g>
</g>
<!-- Node13&#45;&gt;Node14 -->
<g id="edge18_Node000013_Node000014" class="edge">
<title>Node13&#45;&gt;Node14</title>
<g id="a_edge18_Node000013_Node000014"><a xlink:title=" ">
<path fill="none" stroke="#63b8ff" d="M1062.15,-44.21C1061.36,-35.77 1060.47,-26.33 1059.84,-19.61"/>
<polygon fill="#63b8ff" stroke="#63b8ff" points="1058.75,-44.45 1063.17,-54.08 1065.72,-43.8 1058.75,-44.45"/>
</a>
</g>
</g>
<!-- Node18 -->
<g id="Node000018" class="node">
<title>Node18</title>
<g id="a_Node000018"><a xlink:href="_state_estimation_app_8cpp.html" target="_top" xlink:title="Base class for State Estimation Application.">
<polygon fill="white" stroke="#666666" points="1273.88,-19.25 1152.12,-19.25 1152.12,0 1273.88,0 1273.88,-19.25"/>
<text text-anchor="middle" x="1213" y="-5.75" font-family="Helvetica,sans-Serif" font-size="10.00">StateEstimationApp.cpp</text>
</a>
</g>
</g>
<!-- Node17&#45;&gt;Node18 -->
<g id="edge22_Node000017_Node000018" class="edge">
<title>Node17&#45;&gt;Node18</title>
<g id="a_edge22_Node000017_Node000018"><a xlink:title=" ">
<path fill="none" stroke="#63b8ff" d="M1209.85,-44.21C1210.64,-35.77 1211.53,-26.33 1212.16,-19.61"/>
<polygon fill="#63b8ff" stroke="#63b8ff" points="1206.28,-43.8 1208.83,-54.08 1213.25,-44.45 1206.28,-43.8"/>
</a>
</g>
</g>
<!-- Node19&#45;&gt;Node6 -->
<g id="edge24_Node000019_Node000006" class="edge">
<title>Node19&#45;&gt;Node6</title>
<g id="a_edge24_Node000019_Node000006"><a xlink:title=" ">
<path fill="none" stroke="#63b8ff" d="M786.65,-103.91C761.2,-85.92 721.08,-58.04 713,-55.25 608.53,-19.21 327.04,-29.4 217,-19.25 214.05,-18.98 211.04,-18.69 208.01,-18.39"/>
<polygon fill="#63b8ff" stroke="#63b8ff" points="784.4,-107.32 794.59,-110.25 788.45,-101.61 784.4,-107.32"/>
</a>
</g>
</g>
<!-- Node19&#45;&gt;Node7 -->
<g id="edge25_Node000019_Node000007" class="edge">
<title>Node19&#45;&gt;Node7</title>
<g id="a_edge25_Node000019_Node000007"><a xlink:title=" ">
<path fill="none" stroke="#63b8ff" d="M796.14,-101.45C785.06,-86.48 767.08,-65.82 746,-55.25 635.02,0.39 591.98,-36.23 469,-19.25 464.69,-18.66 460.21,-18.02 455.73,-17.38"/>
<polygon fill="#63b8ff" stroke="#63b8ff" points="793.76,-103.15 802.39,-109.3 799.48,-99.11 793.76,-103.15"/>
</a>
</g>
</g>
<!-- Node19&#45;&gt;Node8 -->
<g id="edge26_Node000019_Node000008" class="edge">
<title>Node19&#45;&gt;Node8</title>
<g id="a_edge26_Node000019_Node000008"><a xlink:title=" ">
<path fill="none" stroke="#63b8ff" d="M864.51,-112.99C913.25,-105.33 972.12,-88.87 947,-55.25 925.07,-25.91 884.73,-15.06 851.26,-11.38"/>
<polygon fill="#63b8ff" stroke="#63b8ff" points="864.06,-109.67 854.67,-114.59 865.07,-116.6 864.06,-109.67"/>
</a>
</g>
</g>
<!-- Node19&#45;&gt;Node9 -->
<g id="edge27_Node000019_Node000009" class="edge">
<title>Node19&#45;&gt;Node9</title>
<g id="a_edge27_Node000019_Node000009"><a xlink:title=" ">
<path fill="none" stroke="#63b8ff" d="M805.74,-99.35C803.03,-84.97 797.07,-66.17 784,-55.25 757.11,-32.78 665.79,-20.84 602.84,-15.13"/>
<polygon fill="#63b8ff" stroke="#63b8ff" points="802.41,-99.75 807.34,-109.13 809.33,-98.72 802.41,-99.75"/>
</a>
</g>
</g>
<!-- Node19&#45;&gt;Node10 -->
<g id="edge28_Node000019_Node000010" class="edge">
<title>Node19&#45;&gt;Node10</title>
<g id="a_edge28_Node000019_Node000010"><a xlink:title=" ">
<path fill="none" stroke="#63b8ff" d="M751.36,-110.41C684.86,-100.17 575.59,-83.36 512.06,-73.58"/>
<polygon fill="#63b8ff" stroke="#63b8ff" points="750.64,-113.99 761.05,-112.05 751.7,-107.07 750.64,-113.99"/>
</a>
</g>
</g>
<!-- Node19&#45;&gt;Node13 -->
<g id="edge30_Node000019_Node000013" class="edge">
<title>Node19&#45;&gt;Node13</title>
<g id="a_edge30_Node000019_Node000013"><a xlink:title=" ">
<path fill="none" stroke="#63b8ff" d="M862.34,-107.82C909.48,-98.02 976.81,-84.01 1020.46,-74.93"/>
<polygon fill="#63b8ff" stroke="#63b8ff" points="861.79,-104.57 852.72,-110.03 863.22,-111.42 861.79,-104.57"/>
</a>
</g>
</g>
<!-- Node19&#45;&gt;Node17 -->
<g id="edge31_Node000019_Node000017" class="edge">
<title>Node19&#45;&gt;Node17</title>
<g id="a_edge31_Node000019_Node000017"><a xlink:title=" ">
<path fill="none" stroke="#63b8ff" d="M864.71,-111.58C941.09,-101.41 1076.15,-83.43 1152.1,-73.32"/>
<polygon fill="#63b8ff" stroke="#63b8ff" points="864.34,-108.23 854.89,-113.02 865.26,-115.17 864.34,-108.23"/>
</a>
</g>
</g>
<!-- Node20 -->
<g id="Node000020" class="node">
<title>Node20</title>
<g id="a_Node000020"><a xlink:href="_g_n_s_s_receiver_8cpp.html" target="_top" xlink:title="GNSS Receiver class.">
<polygon fill="white" stroke="#666666" points="937.75,-74.5 836.25,-74.5 836.25,-55.25 937.75,-55.25 937.75,-74.5"/>
<text text-anchor="middle" x="887" y="-61" font-family="Helvetica,sans-Serif" font-size="10.00">GNSSReceiver.cpp</text>
</a>
</g>
</g>
<!-- Node19&#45;&gt;Node20 -->
<g id="edge29_Node000019_Node000020" class="edge">
<title>Node19&#45;&gt;Node20</title>
<g id="a_edge29_Node000019_Node000020"><a xlink:title=" ">
<path fill="none" stroke="#63b8ff" d="M830.36,-104.05C844.27,-94.67 861.71,-82.92 873.53,-74.95"/>
<polygon fill="#63b8ff" stroke="#63b8ff" points="828.74,-101.6 822.4,-110.09 832.65,-107.4 828.74,-101.6"/>
</a>
</g>
</g>
<!-- Node21&#45;&gt;Node10 -->
<g id="edge34_Node000021_Node000010" class="edge">
<title>Node21&#45;&gt;Node10</title>
<g id="a_edge34_Node000021_Node000010"><a xlink:title=" ">
<path fill="none" stroke="#63b8ff" d="M451.73,-100.04C454.31,-91.46 457.24,-81.73 459.3,-74.86"/>
<polygon fill="#63b8ff" stroke="#63b8ff" points="448.17,-98.75 448.64,-109.33 454.87,-100.76 448.17,-98.75"/>
</a>
</g>
</g>
<!-- Node21&#45;&gt;Node11 -->
<g id="edge35_Node000021_Node000011" class="edge">
<title>Node21&#45;&gt;Node11</title>
<g id="a_edge35_Node000021_Node000011"><a xlink:title=" ">
<path fill="none" stroke="#63b8ff" d="M397.36,-107.51C356.37,-97.72 298.55,-83.92 260.92,-74.93"/>
<polygon fill="#63b8ff" stroke="#63b8ff" points="396.38,-111.11 406.92,-110.03 398,-104.3 396.38,-111.11"/>
</a>
</g>
</g>
<!-- Node21&#45;&gt;Node15 -->
<g id="edge36_Node000021_Node000015" class="edge">
<title>Node21&#45;&gt;Node15</title>
<g id="a_edge36_Node000021_Node000015"><a xlink:title=" ">
<path fill="none" stroke="#63b8ff" d="M384.36,-110.71C309.61,-100.5 184.66,-83.44 112.37,-73.57"/>
<polygon fill="#63b8ff" stroke="#63b8ff" points="383.63,-114.28 394.01,-112.16 384.58,-107.34 383.63,-114.28"/>
</a>
</g>
</g>
</g>
</svg>

<g id="navigator" transform="translate(0 0)" fill="#404254">
  <rect fill="#f2f5e9" fill-opacity="0.5" stroke="#606060" stroke-width=".5" x="0" y="0" width="60" height="60"/>
  <use id="zoomplus" xlink:href="#zoomPlus" x="17" y="9" onmousedown="handleZoom(evt,'in')"/>
  <use id="zoomminus" xlink:href="#zoomMin" x="42" y="9" onmousedown="handleZoom(evt,'out')"/>
  <use id="reset" xlink:href="#resetDef" x="30" y="36" onmousedown="handleReset()"/>
   <use id="arrowup" xlink:href="#arrowUp" x="0" y="0" onmousedown="handlePan(0,-1)"/>
  <use id="arrowright" xlink:href="#arrowRight" x="0" y="0" onmousedown="handlePan(1,0)"/>
  <use id="arrowdown" xlink:href="#arrowDown" x="0" y="0" onmousedown="handlePan(0,1)"/>
  <use id="arrowleft" xlink:href="#arrowLeft" x="0" y="0" onmousedown="handlePan(-1,0)"/>
</g>
<svg viewBox="0 0 15 15" width="100%" height="30px" preserveAspectRatio="xMaxYMin meet">
 <g id="arrow_out" transform="scale(0.3 0.3)">
  <a xlink:href="_antenna_8h__dep__incl_org.svg" target="_base">
   <rect id="button" ry="5" rx="5" y="6" x="6" height="38" width="38"
        fill="#f2f5e9" fill-opacity="0.5" stroke="#606060" stroke-width="1.0"/>
   <path id="arrow"
     d="M 11.500037,31.436501 C 11.940474,20.09759 22.043105,11.32322 32.158766,21.979434 L 37.068811,17.246167 C 37.068811,17.246167 37.088388,32 37.088388,32 L 22.160133,31.978069 C 22.160133,31.978069 26.997745,27.140456 26.997745,27.140456 C 18.528582,18.264221 13.291696,25.230495 11.500037,31.436501 z"
     style="fill:#404040;"/>
  </a>
 </g>
</svg>

<style type='text/css'>
<![CDATA[
[data-mouse-over-selected='false'] { opacity: 0.7; }
[data-mouse-over-selected='true']  { opacity: 1.0; }
]]>
</style>
<script type="application/ecmascript"><![CDATA[
document.addEventListener('DOMContentLoaded', (event) => {
  highlightEdges();
  highlightAdjacentNodes();
});
]]></script>
</svg>
