<?xml version="1.0" encoding="UTF-8" standalone="no"?>
<!DOCTYPE svg PUBLIC "-//W3C//DTD SVG 1.1//EN"
 "http://www.w3.org/Graphics/SVG/1.1/DTD/svg11.dtd">
<!-- Generated by graphviz version 8.1.0 (20230707.0739)
 -->
<!-- Title: Antenna.h Pages: 1 -->
<svg width="466pt" height="204pt"
 viewBox="0.00 0.00 466.22 204.25" xmlns="http://www.w3.org/2000/svg" xmlns:xlink="http://www.w3.org/1999/xlink">
<g id="graph0" class="graph" transform="scale(1 1) rotate(0) translate(4 200.25)">
<title>Antenna.h</title>
<!-- Node1 -->
<g id="Node000001" class="node">
<title>Node1</title>
<g id="a_Node000001"><a xlink:title="Antenna class.">
<polygon fill="#999999" stroke="#666666" points="133.47,-196.25 73.22,-196.25 73.22,-177 133.47,-177 133.47,-196.25"/>
<text text-anchor="middle" x="103.35" y="-182.75" font-family="Helvetica,sans-Serif" font-size="10.00">Antenna.h</text>
</a>
</g>
</g>
<!-- Node2 -->
<g id="Node000002" class="node">
<title>Node2</title>
<g id="a_Node000002"><a xlink:title=" ">
<polygon fill="#e0e0e0" stroke="#999999" points="167.85,-74.5 46.85,-74.5 46.85,-55.25 167.85,-55.25 167.85,-74.5"/>
<text text-anchor="middle" x="107.35" y="-61" font-family="Helvetica,sans-Serif" font-size="10.00">autodiff/forward/real.hpp</text>
</a>
</g>
</g>
<!-- Node1&#45;&gt;Node2 -->
<g id="edge1_Node000001_Node000002" class="edge">
<title>Node1&#45;&gt;Node2</title>
<g id="a_edge1_Node000001_Node000002"><a xlink:title=" ">
<path fill="none" stroke="#63b8ff" d="M108.92,-176.82C114.09,-168.11 121.39,-154.2 124.35,-141 127.3,-127.77 126.8,-123.83 124.35,-110.5 122.73,-101.74 119.48,-92.48 116.25,-84.68"/>
<polygon fill="#63b8ff" stroke="#63b8ff" points="119.13,-83.54 111.87,-75.82 112.73,-86.38 119.13,-83.54"/>
</a>
</g>
</g>
<!-- Node3 -->
<g id="Node000003" class="node">
<title>Node3</title>
<g id="a_Node000003"><a xlink:title=" ">
<polygon fill="#e0e0e0" stroke="#999999" points="115.47,-141 13.22,-141 13.22,-110.5 115.47,-110.5 115.47,-141"/>
<text text-anchor="start" x="21.22" y="-127.5" font-family="Helvetica,sans-Serif" font-size="10.00">autodiff/forward/real</text>
<text text-anchor="middle" x="64.35" y="-116.25" font-family="Helvetica,sans-Serif" font-size="10.00">/eigen.hpp</text>
</a>
</g>
</g>
<!-- Node1&#45;&gt;Node3 -->
<g id="edge2_Node000001_Node000003" class="edge">
<title>Node1&#45;&gt;Node3</title>
<g id="a_edge2_Node000001_Node000003"><a xlink:title=" ">
<path fill="none" stroke="#63b8ff" d="M97.42,-176.68C92.76,-169.64 86.03,-159.48 79.86,-150.17"/>
<polygon fill="#63b8ff" stroke="#63b8ff" points="82.41,-148.69 73.97,-142.28 76.58,-152.55 82.41,-148.69"/>
</a>
</g>
</g>
<!-- Node4 -->
<g id="Node000004" class="node">
<title>Node4</title>
<g id="a_Node000004"><a xlink:title=" ">
<polygon fill="#e0e0e0" stroke="#999999" points="178.35,-19.25 138.35,-19.25 138.35,0 178.35,0 178.35,-19.25"/>
<text text-anchor="middle" x="158.35" y="-5.75" font-family="Helvetica,sans-Serif" font-size="10.00">string</text>
</a>
</g>
</g>
<!-- Node1&#45;&gt;Node4 -->
<g id="edge3_Node000001_Node000004" class="edge">
<title>Node1&#45;&gt;Node4</title>
<g id="a_edge3_Node000001_Node000004"><a xlink:title=" ">
<path fill="none" stroke="#63b8ff" d="M72.97,-180.9C49.8,-175.54 19.39,-164.28 4.35,-141 -3.01,-129.61 0.74,-123.57 4.35,-110.5 11.95,-82.93 15.34,-73.52 37.35,-55.25 63.57,-33.48 101.4,-21.82 127.76,-15.94"/>
<polygon fill="#63b8ff" stroke="#63b8ff" points="128.2,-19.22 137.28,-13.77 126.78,-12.37 128.2,-19.22"/>
</a>
</g>
</g>
<!-- Node5 -->
<g id="Node000005" class="node">
<title>Node5</title>
<g id="a_Node000005"><a xlink:href="_constants_8h.html" target="_top" xlink:title="List of constants.">
<polygon fill="white" stroke="#666666" points="286.85,-135.38 171.85,-135.38 171.85,-116.12 286.85,-116.12 286.85,-135.38"/>
<text text-anchor="middle" x="229.35" y="-121.88" font-family="Helvetica,sans-Serif" font-size="10.00">lupnt/core/Constants.h</text>
</a>
</g>
</g>
<!-- Node1&#45;&gt;Node5 -->
<g id="edge4_Node000001_Node000005" class="edge">
<title>Node1&#45;&gt;Node5</title>
<g id="a_edge4_Node000001_Node000005"><a xlink:title=" ">
<path fill="none" stroke="#63b8ff" d="M122.76,-176.55C143.44,-166.89 176.43,-151.48 200.23,-140.36"/>
<polygon fill="#63b8ff" stroke="#63b8ff" points="201.54,-143.14 209.12,-135.73 198.58,-136.8 201.54,-143.14"/>
</a>
</g>
</g>
<!-- Node5&#45;&gt;Node2 -->
<g id="edge6_Node000005_Node000002" class="edge">
<title>Node5&#45;&gt;Node2</title>
<g id="a_edge6_Node000005_Node000002"><a xlink:title=" ">
<path fill="none" stroke="#63b8ff" d="M210.55,-115.68C190.61,-106.06 158.87,-90.74 135.85,-79.63"/>
<polygon fill="#63b8ff" stroke="#63b8ff" points="137.49,-76.05 126.96,-74.86 134.45,-82.36 137.49,-76.05"/>
</a>
</g>
</g>
<!-- Node5&#45;&gt;Node4 -->
<g id="edge7_Node000005_Node000004" class="edge">
<title>Node5&#45;&gt;Node4</title>
<g id="a_edge7_Node000005_Node000004"><a xlink:title=" ">
<path fill="none" stroke="#63b8ff" d="M223.77,-115.79C212.11,-97.04 184.92,-53.35 169.52,-28.58"/>
<polygon fill="#63b8ff" stroke="#63b8ff" points="172.14,-27.18 163.89,-20.54 166.2,-30.88 172.14,-27.18"/>
</a>
</g>
</g>
<!-- Node6 -->
<g id="Node000006" class="node">
<title>Node6</title>
<g id="a_Node000006"><a xlink:title=" ">
<polygon fill="#e0e0e0" stroke="#999999" points="458.22,-74.5 324.47,-74.5 324.47,-55.25 458.22,-55.25 458.22,-74.5"/>
<text text-anchor="middle" x="391.35" y="-61" font-family="Helvetica,sans-Serif" font-size="10.00">autodiff/common/eigen.hpp</text>
</a>
</g>
</g>
<!-- Node5&#45;&gt;Node6 -->
<g id="edge5_Node000005_Node000006" class="edge">
<title>Node5&#45;&gt;Node6</title>
<g id="a_edge5_Node000005_Node000006"><a xlink:title=" ">
<path fill="none" stroke="#63b8ff" d="M254.3,-115.68C281.53,-105.78 325.34,-89.86 356.08,-78.69"/>
<polygon fill="#63b8ff" stroke="#63b8ff" points="357.16,-81.66 365.36,-74.96 354.77,-75.08 357.16,-81.66"/>
</a>
</g>
</g>
<!-- Node7 -->
<g id="Node000007" class="node">
<title>Node7</title>
<g id="a_Node000007"><a xlink:href="_user_file_path_8h.html" target="_top" xlink:title="File access utils.">
<polygon fill="white" stroke="#666666" points="305.97,-74.5 224.72,-74.5 224.72,-55.25 305.97,-55.25 305.97,-74.5"/>
<text text-anchor="middle" x="265.35" y="-61" font-family="Helvetica,sans-Serif" font-size="10.00">UserFilePath.h</text>
</a>
</g>
</g>
<!-- Node5&#45;&gt;Node7 -->
<g id="edge8_Node000005_Node000007" class="edge">
<title>Node5&#45;&gt;Node7</title>
<g id="a_edge8_Node000005_Node000007"><a xlink:title=" ">
<path fill="none" stroke="#63b8ff" d="M234.81,-115.81C239.94,-107.42 247.76,-94.63 254.2,-84.09"/>
<polygon fill="#63b8ff" stroke="#63b8ff" points="257.6,-86.26 259.83,-75.9 251.62,-82.61 257.6,-86.26"/>
</a>
</g>
</g>
<!-- Node7&#45;&gt;Node4 -->
<g id="edge12_Node000007_Node000004" class="edge">
<title>Node7&#45;&gt;Node4</title>
<g id="a_edge12_Node000007_Node000004"><a xlink:title=" ">
<path fill="none" stroke="#63b8ff" d="M247.19,-54.84C230.52,-46.54 205.54,-34.11 186.31,-24.54"/>
<polygon fill="#63b8ff" stroke="#63b8ff" points="188.1,-21.02 177.59,-19.7 184.98,-27.29 188.1,-21.02"/>
</a>
</g>
</g>
<!-- Node8 -->
<g id="Node000008" class="node">
<title>Node8</title>
<g id="a_Node000008"><a xlink:title=" ">
<polygon fill="#e0e0e0" stroke="#999999" points="257.85,-19.25 196.85,-19.25 196.85,0 257.85,0 257.85,-19.25"/>
<text text-anchor="middle" x="227.35" y="-5.75" font-family="Helvetica,sans-Serif" font-size="10.00">filesystem</text>
</a>
</g>
</g>
<!-- Node7&#45;&gt;Node8 -->
<g id="edge9_Node000007_Node000008" class="edge">
<title>Node7&#45;&gt;Node8</title>
<g id="a_edge9_Node000007_Node000008"><a xlink:title=" ">
<path fill="none" stroke="#63b8ff" d="M259.07,-55.08C253.93,-47.88 246.49,-37.46 240.11,-28.51"/>
<polygon fill="#63b8ff" stroke="#63b8ff" points="242.41,-26.72 233.76,-20.61 236.72,-30.78 242.41,-26.72"/>
</a>
</g>
</g>
<!-- Node9 -->
<g id="Node000009" class="node">
<title>Node9</title>
<g id="a_Node000009"><a xlink:title=" ">
<polygon fill="#e0e0e0" stroke="#999999" points="329.1,-19.25 275.6,-19.25 275.6,0 329.1,0 329.1,-19.25"/>
<text text-anchor="middle" x="302.35" y="-5.75" font-family="Helvetica,sans-Serif" font-size="10.00">iostream</text>
</a>
</g>
</g>
<!-- Node7&#45;&gt;Node9 -->
<g id="edge10_Node000007_Node000009" class="edge">
<title>Node7&#45;&gt;Node9</title>
<g id="a_edge10_Node000007_Node000009"><a xlink:title=" ">
<path fill="none" stroke="#63b8ff" d="M271.46,-55.08C276.46,-47.88 283.7,-37.46 289.92,-28.51"/>
<polygon fill="#63b8ff" stroke="#63b8ff" points="293.27,-30.82 296.1,-20.61 287.52,-26.82 293.27,-30.82"/>
</a>
</g>
</g>
<!-- Node10 -->
<g id="Node000010" class="node">
<title>Node10</title>
<g id="a_Node000010"><a xlink:title=" ">
<polygon fill="#e0e0e0" stroke="#999999" points="397.22,-19.25 347.47,-19.25 347.47,0 397.22,0 397.22,-19.25"/>
<text text-anchor="middle" x="372.35" y="-5.75" font-family="Helvetica,sans-Serif" font-size="10.00">optional</text>
</a>
</g>
</g>
<!-- Node7&#45;&gt;Node10 -->
<g id="edge11_Node000007_Node000010" class="edge">
<title>Node7&#45;&gt;Node10</title>
<g id="a_edge11_Node000007_Node000010"><a xlink:title=" ">
<path fill="none" stroke="#63b8ff" d="M283.5,-54.84C300.17,-46.54 325.15,-34.11 344.38,-24.54"/>
<polygon fill="#63b8ff" stroke="#63b8ff" points="345.71,-27.29 353.11,-19.7 342.59,-21.02 345.71,-27.29"/>
</a>
</g>
</g>
</g>
</svg>
