<?xml version="1.0" encoding="UTF-8" standalone="no"?>
<!DOCTYPE svg PUBLIC "-//W3C//DTD SVG 1.1//EN"
 "http://www.w3.org/Graphics/SVG/1.1/DTD/svg11.dtd">
<!-- Generated by graphviz version 8.1.0 (20230707.0739)
 -->
<!-- Title: Clock.h Pages: 1 -->
<svg width="311pt" height="149pt"
 viewBox="0.00 0.00 311.00 149.00" xmlns="http://www.w3.org/2000/svg" xmlns:xlink="http://www.w3.org/1999/xlink">
<g id="graph0" class="graph" transform="scale(1 1) rotate(0) translate(4 145)">
<title>Clock.h</title>
<!-- Node1 -->
<g id="Node000001" class="node">
<title>Node1</title>
<g id="a_Node000001"><a xlink:title="Clock class.">
<polygon fill="#999999" stroke="#666666" points="155.38,-141 105.62,-141 105.62,-121.75 155.38,-121.75 155.38,-141"/>
<text text-anchor="middle" x="130.5" y="-127.5" font-family="Helvetica,sans-Serif" font-size="10.00">Clock.h</text>
</a>
</g>
</g>
<!-- Node2 -->
<g id="Node000002" class="node">
<title>Node2</title>
<g id="a_Node000002"><a xlink:title=" ">
<polygon fill="#e0e0e0" stroke="#999999" points="93.62,-85.75 21.38,-85.75 21.38,-66.5 93.62,-66.5 93.62,-85.75"/>
<text text-anchor="middle" x="57.5" y="-72.25" font-family="Helvetica,sans-Serif" font-size="10.00">Eigen/Dense</text>
</a>
</g>
</g>
<!-- Node1&#45;&gt;Node2 -->
<g id="edge1_Node000001_Node000002" class="edge">
<title>Node1&#45;&gt;Node2</title>
<g id="a_edge1_Node000001_Node000002"><a xlink:title=" ">
<path fill="none" stroke="#63b8ff" d="M118.12,-121.34C107.25,-113.41 91.22,-101.72 78.37,-92.35"/>
<polygon fill="#63b8ff" stroke="#63b8ff" points="80.84,-89.09 70.7,-86.02 76.72,-94.75 80.84,-89.09"/>
</a>
</g>
</g>
<!-- Node3 -->
<g id="Node000003" class="node">
<title>Node3</title>
<g id="a_Node000003"><a xlink:title=" ">
<polygon fill="#e0e0e0" stroke="#999999" points="149,-85.75 112,-85.75 112,-66.5 149,-66.5 149,-85.75"/>
<text text-anchor="middle" x="130.5" y="-72.25" font-family="Helvetica,sans-Serif" font-size="10.00">tuple</text>
</a>
</g>
</g>
<!-- Node1&#45;&gt;Node3 -->
<g id="edge2_Node000001_Node000003" class="edge">
<title>Node1&#45;&gt;Node3</title>
<g id="a_edge2_Node000001_Node000003"><a xlink:title=" ">
<path fill="none" stroke="#63b8ff" d="M130.5,-121.58C130.5,-114.92 130.5,-105.49 130.5,-97.03"/>
<polygon fill="#63b8ff" stroke="#63b8ff" points="134,-97.11 130.5,-87.11 127,-97.11 134,-97.11"/>
</a>
</g>
</g>
<!-- Node4 -->
<g id="Node000004" class="node">
<title>Node4</title>
<g id="a_Node000004"><a xlink:href="_state_8h.html" target="_top" xlink:title="SPICE Interface functions.">
<polygon fill="white" stroke="#666666" points="214.25,-85.75 166.75,-85.75 166.75,-66.5 214.25,-66.5 214.25,-85.75"/>
<text text-anchor="middle" x="190.5" y="-72.25" font-family="Helvetica,sans-Serif" font-size="10.00">State.h</text>
</a>
</g>
</g>
<!-- Node1&#45;&gt;Node4 -->
<g id="edge3_Node000001_Node000004" class="edge">
<title>Node1&#45;&gt;Node4</title>
<g id="a_edge3_Node000001_Node000004"><a xlink:title=" ">
<path fill="none" stroke="#63b8ff" d="M140.68,-121.34C149.35,-113.65 162.02,-102.4 172.42,-93.18"/>
<polygon fill="#63b8ff" stroke="#63b8ff" points="174.32,-96.28 179.47,-87.02 169.67,-91.04 174.32,-96.28"/>
</a>
</g>
</g>
<!-- Node5 -->
<g id="Node000005" class="node">
<title>Node5</title>
<g id="a_Node000005"><a xlink:title=" ">
<polygon fill="#e0e0e0" stroke="#999999" points="121,-24.88 0,-24.88 0,-5.63 121,-5.63 121,-24.88"/>
<text text-anchor="middle" x="60.5" y="-11.38" font-family="Helvetica,sans-Serif" font-size="10.00">autodiff/forward/real.hpp</text>
</a>
</g>
</g>
<!-- Node4&#45;&gt;Node5 -->
<g id="edge4_Node000004_Node000005" class="edge">
<title>Node4&#45;&gt;Node5</title>
<g id="a_edge4_Node000004_Node000005"><a xlink:title=" ">
<path fill="none" stroke="#63b8ff" d="M170.47,-66.05C149.03,-56.35 114.79,-40.84 90.21,-29.71"/>
<polygon fill="#63b8ff" stroke="#63b8ff" points="91.89,-26.17 81.34,-25.23 89,-32.55 91.89,-26.17"/>
</a>
</g>
</g>
<!-- Node6 -->
<g id="Node000006" class="node">
<title>Node6</title>
<g id="a_Node000006"><a xlink:title=" ">
<polygon fill="#e0e0e0" stroke="#999999" points="241.62,-30.5 139.38,-30.5 139.38,0 241.62,0 241.62,-30.5"/>
<text text-anchor="start" x="147.38" y="-17" font-family="Helvetica,sans-Serif" font-size="10.00">autodiff/forward/real</text>
<text text-anchor="middle" x="190.5" y="-5.75" font-family="Helvetica,sans-Serif" font-size="10.00">/eigen.hpp</text>
</a>
</g>
</g>
<!-- Node4&#45;&gt;Node6 -->
<g id="edge5_Node000004_Node000006" class="edge">
<title>Node4&#45;&gt;Node6</title>
<g id="a_edge5_Node000004_Node000006"><a xlink:title=" ">
<path fill="none" stroke="#63b8ff" d="M190.5,-66.18C190.5,-59.65 190.5,-50.45 190.5,-41.72"/>
<polygon fill="#63b8ff" stroke="#63b8ff" points="194,-41.78 190.5,-31.78 187,-41.78 194,-41.78"/>
</a>
</g>
</g>
<!-- Node7 -->
<g id="Node000007" class="node">
<title>Node7</title>
<g id="a_Node000007"><a xlink:title=" ">
<polygon fill="#e0e0e0" stroke="#999999" points="303,-24.88 260,-24.88 260,-5.63 303,-5.63 303,-24.88"/>
<text text-anchor="middle" x="281.5" y="-11.38" font-family="Helvetica,sans-Serif" font-size="10.00">vector</text>
</a>
</g>
</g>
<!-- Node4&#45;&gt;Node7 -->
<g id="edge6_Node000004_Node000007" class="edge">
<title>Node4&#45;&gt;Node7</title>
<g id="a_edge6_Node000004_Node000007"><a xlink:title=" ">
<path fill="none" stroke="#63b8ff" d="M204.32,-66.18C218.75,-56.85 241.62,-42.05 258.73,-30.98"/>
<polygon fill="#63b8ff" stroke="#63b8ff" points="260.05,-33.65 266.55,-25.28 256.25,-27.77 260.05,-33.65"/>
</a>
</g>
</g>
</g>
</svg>
