<?xml version="1.0" encoding="UTF-8" standalone="no"?>
<!DOCTYPE svg PUBLIC "-//W3C//DTD SVG 1.1//EN"
 "http://www.w3.org/Graphics/SVG/1.1/DTD/svg11.dtd">
<!-- Generated by graphviz version 8.1.0 (20230707.0739)
 -->
<!-- Title: CommDevice.h Pages: 1 -->
<!--zoomable 193 -->

<svg id="main" version="1.1" xmlns="http://www.w3.org/2000/svg" xmlns:xlink="http://www.w3.org/1999/xlink" xml:space="preserve" onload="init(evt)">
<style type="text/css"><![CDATA[
.node, .edge {opacity: 0.7;}
.node.selected, .edge.selected {opacity: 1;}
.edge:hover path { stroke: red; }
.edge:hover polygon { stroke: red; fill: red; }
]]></style>

<defs>
  <circle id="rim" cx="0" cy="0" r="7"/>
  <circle id="rim2" cx="0" cy="0" r="3.5"/>
  <g id="zoomPlus">
    <use xlink:href="#rim" fill="#404040"><set attributeName="fill" to="#808080" begin="zoomplus.mouseover" end="zoomplus.mouseout"/></use>
    <path d="M-4,0h8M0,-4v8" fill="none" stroke="white" stroke-width="1.5" pointer-events="none"/>
  </g>
  <g id="zoomMin">
    <use xlink:href="#rim" fill="#404040"><set attributeName="fill" to="#808080" begin="zoomminus.mouseover" end="zoomminus.mouseout"/></use>
    <path d="M-4,0h8" fill="none" stroke="white" stroke-width="1.5" pointer-events="none"/>
  </g>
  <g id="arrowUp" transform="translate(30 24)">
    <use xlink:href="#rim"/>
    <path pointer-events="none" fill="none" stroke="white" stroke-width="1.5" d="M0,-3.0v7 M-2.5,-0.5L0,-3.0L2.5,-0.5"/>
  </g>
  <g id="arrowRight" transform="rotate(90) translate(36 -43)">
    <use xlink:href="#rim"/>
    <path pointer-events="none" fill="none" stroke="white" stroke-width="1.5" d="M0,-3.0v7 M-2.5,-0.5L0,-3.0L2.5,-0.5"/>
  </g>
  <g id="arrowDown" transform="rotate(180) translate(-30 -48)">
    <use xlink:href="#rim"/>
    <path pointer-events="none" fill="none" stroke="white" stroke-width="1.5" d="M0,-3.0v7 M-2.5,-0.5L0,-3.0L2.5,-0.5"/>
  </g>
  <g id="arrowLeft" transform="rotate(270) translate(-36 17)">
    <use xlink:href="#rim"/>
    <path pointer-events="none" fill="none" stroke="white" stroke-width="1.5" d="M0,-3.0v7 M-2.5,-0.5L0,-3.0L2.5,-0.5"/>
  </g>
  <g id="resetDef">
    <use xlink:href="#rim2" fill="#404040"><set attributeName="fill" to="#808080" begin="reset.mouseover" end="reset.mouseout"/></use>
  </g>
</defs>
<script type="application/ecmascript">
var viewWidth = 1282;
var viewHeight = 193;
var sectionId = 'dynsection-1';
</script>
<script type="application/ecmascript" xlink:href="svg.min.js"/>
<svg id="graph" class="graph">
<g id="viewport">
<title>CommDevice.h</title>
<!-- Node1 -->
<g id="Node000001" class="node">
<title>Node1</title>
<g id="a_Node000001"><a xlink:title="Communication devices.">
<polygon fill="#999999" stroke="#666666" points="723.38,-185 639.12,-185 639.12,-165.75 723.38,-165.75 723.38,-185"/>
<text text-anchor="middle" x="681.25" y="-171.5" font-family="Helvetica,sans-Serif" font-size="10.00">CommDevice.h</text>
</a>
</g>
</g>
<!-- Node2 -->
<g id="Node000002" class="node">
<title>Node2</title>
<g id="a_Node000002"><a xlink:href="_agent_8h.html" target="_top" xlink:title="List of agents.">
<polygon fill="white" stroke="#666666" points="459.12,-129.75 409.38,-129.75 409.38,-110.5 459.12,-110.5 459.12,-129.75"/>
<text text-anchor="middle" x="434.25" y="-116.25" font-family="Helvetica,sans-Serif" font-size="10.00">Agent.h</text>
</a>
</g>
</g>
<!-- Node1&#45;&gt;Node2 -->
<g id="edge1_Node000001_Node000002" class="edge">
<title>Node1&#45;&gt;Node2</title>
<g id="a_edge1_Node000001_Node000002"><a xlink:title=" ">
<path fill="none" stroke="#63b8ff" d="M628.35,-162.97C576.19,-151.73 498.74,-135.03 459.3,-126.52"/>
<polygon fill="#63b8ff" stroke="#63b8ff" points="627.56,-166.6 638.07,-165.28 629.03,-159.75 627.56,-166.6"/>
</a>
</g>
</g>
<!-- Node11 -->
<g id="Node000011" class="node">
<title>Node11</title>
<g id="a_Node000011"><a xlink:href="_g_n_s_s_state_estimation_app_8h.html" target="_top" xlink:title="State Estimation Application Using GNSS Measurement.">
<polygon fill="white" stroke="#666666" points="1134.12,-74.5 994.38,-74.5 994.38,-55.25 1134.12,-55.25 1134.12,-74.5"/>
<text text-anchor="middle" x="1064.25" y="-61" font-family="Helvetica,sans-Serif" font-size="10.00">GNSSStateEstimationApp.h</text>
</a>
</g>
</g>
<!-- Node1&#45;&gt;Node11 -->
<g id="edge30_Node000001_Node000011" class="edge">
<title>Node1&#45;&gt;Node11</title>
<g id="a_edge30_Node000001_Node000011"><a xlink:title=" ">
<path fill="none" stroke="#63b8ff" d="M732,-162.9C768.64,-154.38 819.21,-142.13 863.25,-129.75 926.35,-112.01 999.48,-87.85 1037.76,-74.92"/>
<polygon fill="#63b8ff" stroke="#63b8ff" points="731.53,-159.64 722.57,-165.31 733.11,-166.46 731.53,-159.64"/>
</a>
</g>
</g>
<!-- Node14 -->
<g id="Node000014" class="node">
<title>Node14</title>
<g id="a_Node000014"><a xlink:href="_space_channel_8cpp.html" target="_top" xlink:title="Base spacechannel class (Under devlopment )">
<polygon fill="white" stroke="#666666" points="98.5,-74.5 0,-74.5 0,-55.25 98.5,-55.25 98.5,-74.5"/>
<text text-anchor="middle" x="49.25" y="-61" font-family="Helvetica,sans-Serif" font-size="10.00">SpaceChannel.cpp</text>
</a>
</g>
</g>
<!-- Node1&#45;&gt;Node14 -->
<g id="edge35_Node000001_Node000014" class="edge">
<title>Node1&#45;&gt;Node14</title>
<g id="a_edge35_Node000001_Node000014"><a xlink:title=" ">
<path fill="none" stroke="#63b8ff" d="M628.01,-166.28C571.45,-157.61 479.45,-143.24 400.25,-129.75 291.72,-111.26 164.68,-87.65 97.16,-74.95"/>
<polygon fill="#63b8ff" stroke="#63b8ff" points="627.42,-169.89 637.83,-167.94 628.48,-162.97 627.42,-169.89"/>
</a>
</g>
</g>
<!-- Node15 -->
<g id="Node000015" class="node">
<title>Node15</title>
<g id="a_Node000015"><a xlink:href="_state_estimation_app_8h.html" target="_top" xlink:title="Base class for State Estimation Application.">
<polygon fill="white" stroke="#666666" points="1263.88,-74.5 1152.62,-74.5 1152.62,-55.25 1263.88,-55.25 1263.88,-74.5"/>
<text text-anchor="middle" x="1208.25" y="-61" font-family="Helvetica,sans-Serif" font-size="10.00">StateEstimationApp.h</text>
</a>
</g>
</g>
<!-- Node1&#45;&gt;Node15 -->
<g id="edge36_Node000001_Node000015" class="edge">
<title>Node1&#45;&gt;Node15</title>
<g id="a_edge36_Node000001_Node000015"><a xlink:title=" ">
<path fill="none" stroke="#63b8ff" d="M734.35,-164.11C780.18,-155.2 848.13,-141.86 907.25,-129.75 999.88,-110.78 1108.31,-87.51 1166.41,-74.95"/>
<polygon fill="#63b8ff" stroke="#63b8ff" points="733.92,-160.82 724.77,-166.16 735.26,-167.69 733.92,-160.82"/>
</a>
</g>
</g>
<!-- Node17 -->
<g id="Node000017" class="node">
<title>Node17</title>
<g id="a_Node000017"><a xlink:href="_g_n_s_s_receiver_8h.html" target="_top" xlink:title="GNSS receiver class.">
<polygon fill="white" stroke="#666666" points="853.75,-129.75 762.75,-129.75 762.75,-110.5 853.75,-110.5 853.75,-129.75"/>
<text text-anchor="middle" x="808.25" y="-116.25" font-family="Helvetica,sans-Serif" font-size="10.00">GNSSReceiver.h</text>
</a>
</g>
</g>
<!-- Node1&#45;&gt;Node17 -->
<g id="edge21_Node000001_Node000017" class="edge">
<title>Node1&#45;&gt;Node17</title>
<g id="a_edge21_Node000001_Node000017"><a xlink:title=" ">
<path fill="none" stroke="#63b8ff" d="M712.76,-161.16C735.75,-151.52 766.31,-138.71 786.6,-130.2"/>
<polygon fill="#63b8ff" stroke="#63b8ff" points="711.66,-158.25 703.79,-165.34 714.37,-164.7 711.66,-158.25"/>
</a>
</g>
</g>
<!-- Node19 -->
<g id="Node000019" class="node">
<title>Node19</title>
<g id="a_Node000019"><a xlink:href="_g_n_s_s_transmitter_8h.html" target="_top" xlink:title="Handles GNSS transmit.">
<polygon fill="white" stroke="#666666" points="593,-129.75 491.5,-129.75 491.5,-110.5 593,-110.5 593,-129.75"/>
<text text-anchor="middle" x="542.25" y="-116.25" font-family="Helvetica,sans-Serif" font-size="10.00">GNSSTransmitter.h</text>
</a>
</g>
</g>
<!-- Node1&#45;&gt;Node19 -->
<g id="edge31_Node000001_Node000019" class="edge">
<title>Node1&#45;&gt;Node19</title>
<g id="a_edge31_Node000001_Node000019"><a xlink:title=" ">
<path fill="none" stroke="#63b8ff" d="M647.44,-161.42C622.2,-151.75 588.35,-138.79 565.95,-130.2"/>
<polygon fill="#63b8ff" stroke="#63b8ff" points="646.08,-165.03 656.67,-165.34 648.58,-158.5 646.08,-165.03"/>
</a>
</g>
</g>
<!-- Node3 -->
<g id="Node000003" class="node">
<title>Node3</title>
<g id="a_Node000003"><a xlink:href="_agent_8cpp.html" target="_top" xlink:title="Base class fo.">
<polygon fill="white" stroke="#666666" points="214.38,-74.5 154.12,-74.5 154.12,-55.25 214.38,-55.25 214.38,-74.5"/>
<text text-anchor="middle" x="184.25" y="-61" font-family="Helvetica,sans-Serif" font-size="10.00">Agent.cpp</text>
</a>
</g>
</g>
<!-- Node2&#45;&gt;Node3 -->
<g id="edge2_Node000002_Node000003" class="edge">
<title>Node2&#45;&gt;Node3</title>
<g id="a_edge2_Node000002_Node000003"><a xlink:title=" ">
<path fill="none" stroke="#63b8ff" d="M398.4,-111.49C349.05,-100.98 261.03,-82.23 214.69,-72.36"/>
<polygon fill="#63b8ff" stroke="#63b8ff" points="397.39,-115.07 407.9,-113.73 398.85,-108.22 397.39,-115.07"/>
</a>
</g>
</g>
<!-- Node4 -->
<g id="Node000004" class="node">
<title>Node4</title>
<g id="a_Node000004"><a xlink:href="_example_constellations_8cpp.html" target="_top" xlink:title="Setup GNSS Constellation.">
<polygon fill="white" stroke="#666666" points="643.88,-19.25 508.62,-19.25 508.62,0 643.88,0 643.88,-19.25"/>
<text text-anchor="middle" x="576.25" y="-5.75" font-family="Helvetica,sans-Serif" font-size="10.00">ExampleConstellations.cpp</text>
</a>
</g>
</g>
<!-- Node2&#45;&gt;Node4 -->
<g id="edge3_Node000002_Node000004" class="edge">
<title>Node2&#45;&gt;Node4</title>
<g id="a_edge3_Node000002_Node000004"><a xlink:title=" ">
<path fill="none" stroke="#63b8ff" d="M427.87,-100.01C424.54,-86.25 422.89,-67.95 432.25,-55.25 443.59,-39.87 488.83,-27.52 525.62,-19.74"/>
<polygon fill="#63b8ff" stroke="#63b8ff" points="424.7,-100.64 430.84,-109.27 431.42,-98.69 424.7,-100.64"/>
</a>
</g>
</g>
<!-- Node5 -->
<g id="Node000005" class="node">
<title>Node5</title>
<g id="a_Node000005"><a xlink:href="_example_e_k_f_8cpp.html" target="_top" xlink:title="Example of Extended Kalman Filter for orbit determination.">
<polygon fill="white" stroke="#666666" points="208.75,-19.25 117.75,-19.25 117.75,0 208.75,0 208.75,-19.25"/>
<text text-anchor="middle" x="163.25" y="-5.75" font-family="Helvetica,sans-Serif" font-size="10.00">ExampleEKF.cpp</text>
</a>
</g>
</g>
<!-- Node2&#45;&gt;Node5 -->
<g id="edge4_Node000002_Node000005" class="edge">
<title>Node2&#45;&gt;Node5</title>
<g id="a_edge4_Node000002_Node000005"><a xlink:title=" ">
<path fill="none" stroke="#63b8ff" d="M397.97,-119.13C327.77,-118.28 177.41,-112.01 145.25,-74.5 131.6,-58.58 146.46,-33.01 156.19,-19.56"/>
<polygon fill="#63b8ff" stroke="#63b8ff" points="397.88,-122.64 407.91,-119.22 397.94,-115.64 397.88,-122.64"/>
</a>
</g>
</g>
<!-- Node6 -->
<g id="Node000006" class="node">
<title>Node6</title>
<g id="a_Node000006"><a xlink:href="_example_e_k_f_app_8cpp.html" target="_top" xlink:title="Example of EKF application.">
<polygon fill="white" stroke="#666666" points="837.12,-19.25 727.38,-19.25 727.38,0 837.12,0 837.12,-19.25"/>
<text text-anchor="middle" x="782.25" y="-5.75" font-family="Helvetica,sans-Serif" font-size="10.00">ExampleEKFApp.cpp</text>
</a>
</g>
</g>
<!-- Node2&#45;&gt;Node6 -->
<g id="edge5_Node000002_Node000006" class="edge">
<title>Node2&#45;&gt;Node6</title>
<g id="a_edge5_Node000002_Node000006"><a xlink:title=" ">
<path fill="none" stroke="#63b8ff" d="M438.38,-99.98C442.58,-85.33 450.63,-65.9 465.25,-55.25 486,-40.14 641.9,-23.6 727.07,-15.56"/>
<polygon fill="#63b8ff" stroke="#63b8ff" points="434.79,-98.89 435.78,-109.44 441.59,-100.58 434.79,-98.89"/>
</a>
</g>
</g>
<!-- Node7 -->
<g id="Node000007" class="node">
<title>Node7</title>
<g id="a_Node000007"><a xlink:href="_example_propagation_8cpp.html" target="_top" xlink:title="Example propagating both GPS constellation and Lunar Satellite.">
<polygon fill="white" stroke="#666666" points="351.62,-19.25 226.88,-19.25 226.88,0 351.62,0 351.62,-19.25"/>
<text text-anchor="middle" x="289.25" y="-5.75" font-family="Helvetica,sans-Serif" font-size="10.00">ExamplePropagation.cpp</text>
</a>
</g>
</g>
<!-- Node2&#45;&gt;Node7 -->
<g id="edge6_Node000002_Node000007" class="edge">
<title>Node2&#45;&gt;Node7</title>
<g id="a_edge6_Node000002_Node000007"><a xlink:title=" ">
<path fill="none" stroke="#63b8ff" d="M398.3,-115C352.67,-108.94 277.88,-95.96 261.25,-74.5 247.9,-57.27 267.17,-32.69 279.78,-19.62"/>
<polygon fill="#63b8ff" stroke="#63b8ff" points="397.57,-118.56 407.94,-116.36 398.46,-111.62 397.57,-118.56"/>
</a>
</g>
</g>
<!-- Node8 -->
<g id="Node000008" class="node">
<title>Node8</title>
<g id="a_Node000008"><a xlink:href="_g_n_s_s_channel_8cpp.html" target="_top" xlink:title="GNSS Channel.">
<polygon fill="white" stroke="#666666" points="703.88,-74.5 604.62,-74.5 604.62,-55.25 703.88,-55.25 703.88,-74.5"/>
<text text-anchor="middle" x="654.25" y="-61" font-family="Helvetica,sans-Serif" font-size="10.00">GNSSChannel.cpp</text>
</a>
</g>
</g>
<!-- Node2&#45;&gt;Node8 -->
<g id="edge7_Node000002_Node000008" class="edge">
<title>Node2&#45;&gt;Node8</title>
<g id="a_edge7_Node000002_Node000008"><a xlink:title=" ">
<path fill="none" stroke="#63b8ff" d="M469.92,-110.49C510.3,-100.72 575.79,-84.87 616.86,-74.93"/>
<polygon fill="#63b8ff" stroke="#63b8ff" points="469.38,-107.26 460.49,-113.02 471.03,-114.07 469.38,-107.26"/>
</a>
</g>
</g>
<!-- Node9 -->
<g id="Node000009" class="node">
<title>Node9</title>
<g id="a_Node000009"><a xlink:href="_g_n_s_s_constellation_8h.html" target="_top" xlink:title=" ">
<polygon fill="white" stroke="#666666" points="380.12,-74.5 270.38,-74.5 270.38,-55.25 380.12,-55.25 380.12,-74.5"/>
<text text-anchor="middle" x="325.25" y="-61" font-family="Helvetica,sans-Serif" font-size="10.00">GNSSConstellation.h</text>
</a>
</g>
</g>
<!-- Node2&#45;&gt;Node9 -->
<g id="edge8_Node000002_Node000009" class="edge">
<title>Node2&#45;&gt;Node9</title>
<g id="a_edge8_Node000002_Node000009"><a xlink:title=" ">
<path fill="none" stroke="#63b8ff" d="M406.13,-105.39C386.53,-95.81 360.93,-83.31 343.83,-74.95"/>
<polygon fill="#63b8ff" stroke="#63b8ff" points="404.24,-108.85 414.76,-110.09 407.31,-102.56 404.24,-108.85"/>
</a>
</g>
</g>
<!-- Node2&#45;&gt;Node11 -->
<g id="edge14_Node000002_Node000011" class="edge">
<title>Node2&#45;&gt;Node11</title>
<g id="a_edge14_Node000002_Node000011"><a xlink:title=" ">
<path fill="none" stroke="#63b8ff" d="M470.16,-112.24C474.23,-111.59 478.32,-110.99 482.25,-110.5 704.64,-82.64 762.03,-94.67 985.25,-74.5 988.14,-74.24 991.08,-73.96 994.05,-73.68"/>
<polygon fill="#63b8ff" stroke="#63b8ff" points="469.85,-108.92 460.58,-114.05 471.03,-115.82 469.85,-108.92"/>
</a>
</g>
</g>
<!-- Node13 -->
<g id="Node000013" class="node">
<title>Node13</title>
<g id="a_Node000013"><a xlink:href="_g_n_s_s_transmitter_8cpp.html" target="_top" xlink:title="Handles GNSS transmit.">
<polygon fill="white" stroke="#666666" points="586.25,-74.5 474.25,-74.5 474.25,-55.25 586.25,-55.25 586.25,-74.5"/>
<text text-anchor="middle" x="530.25" y="-61" font-family="Helvetica,sans-Serif" font-size="10.00">GNSSTransmitter.cpp</text>
</a>
</g>
</g>
<!-- Node2&#45;&gt;Node13 -->
<g id="edge17_Node000002_Node000013" class="edge">
<title>Node2&#45;&gt;Node13</title>
<g id="a_edge17_Node000002_Node000013"><a xlink:title=" ">
<path fill="none" stroke="#63b8ff" d="M459.97,-104.86C477.1,-95.36 499.1,-83.15 513.89,-74.95"/>
<polygon fill="#63b8ff" stroke="#63b8ff" points="458.58,-102.18 451.54,-110.09 461.98,-108.3 458.58,-102.18"/>
</a>
</g>
</g>
<!-- Node2&#45;&gt;Node14 -->
<g id="edge18_Node000002_Node000014" class="edge">
<title>Node2&#45;&gt;Node14</title>
<g id="a_edge18_Node000002_Node000014"><a xlink:title=" ">
<path fill="none" stroke="#63b8ff" d="M398.23,-114.14C329.08,-104.58 177.62,-83.63 98.93,-72.75"/>
<polygon fill="#63b8ff" stroke="#63b8ff" points="397.6,-117.73 407.99,-115.63 398.56,-110.79 397.6,-117.73"/>
</a>
</g>
</g>
<!-- Node2&#45;&gt;Node15 -->
<g id="edge19_Node000002_Node000015" class="edge">
<title>Node2&#45;&gt;Node15</title>
<g id="a_edge19_Node000002_Node000015"><a xlink:title=" ">
<path fill="none" stroke="#63b8ff" d="M470.15,-112.18C474.22,-111.54 478.32,-110.96 482.25,-110.5 774.48,-76.42 850.31,-101.87 1143.25,-74.5 1146.2,-74.22 1149.22,-73.92 1152.26,-73.58"/>
<polygon fill="#63b8ff" stroke="#63b8ff" points="469.85,-108.85 460.57,-113.97 471.02,-115.75 469.85,-108.85"/>
</a>
</g>
</g>
<!-- Node9&#45;&gt;Node4 -->
<g id="edge9_Node000009_Node000004" class="edge">
<title>Node9&#45;&gt;Node4</title>
<g id="a_edge9_Node000009_Node000004"><a xlink:title=" ">
<path fill="none" stroke="#63b8ff" d="M378.82,-52.51C425.02,-42.71 490.85,-28.74 533.56,-19.68"/>
<polygon fill="#63b8ff" stroke="#63b8ff" points="378.17,-49.28 369.11,-54.78 379.62,-56.13 378.17,-49.28"/>
</a>
</g>
</g>
<!-- Node9&#45;&gt;Node5 -->
<g id="edge10_Node000009_Node000005" class="edge">
<title>Node9&#45;&gt;Node5</title>
<g id="a_edge10_Node000009_Node000005"><a xlink:title=" ">
<path fill="none" stroke="#63b8ff" d="M287.41,-51.44C257.85,-41.72 217.44,-28.44 190.87,-19.7"/>
<polygon fill="#63b8ff" stroke="#63b8ff" points="286.18,-55.04 296.77,-54.84 288.36,-48.39 286.18,-55.04"/>
</a>
</g>
</g>
<!-- Node9&#45;&gt;Node6 -->
<g id="edge11_Node000009_Node000006" class="edge">
<title>Node9&#45;&gt;Node6</title>
<g id="a_edge11_Node000009_Node000006"><a xlink:title=" ">
<path fill="none" stroke="#63b8ff" d="M391.04,-56.21C481.43,-45.68 642.41,-26.92 726.93,-17.07"/>
<polygon fill="#63b8ff" stroke="#63b8ff" points="390.9,-52.82 381.37,-57.45 391.71,-59.77 390.9,-52.82"/>
</a>
</g>
</g>
<!-- Node9&#45;&gt;Node7 -->
<g id="edge12_Node000009_Node000007" class="edge">
<title>Node9&#45;&gt;Node7</title>
<g id="a_edge12_Node000009_Node000007"><a xlink:title=" ">
<path fill="none" stroke="#63b8ff" d="M313.32,-46.22C307.29,-37.31 300.23,-26.87 295.32,-19.61"/>
<polygon fill="#63b8ff" stroke="#63b8ff" points="310.8,-47.76 319.31,-54.08 316.6,-43.84 310.8,-47.76"/>
</a>
</g>
</g>
<!-- Node10 -->
<g id="Node000010" class="node">
<title>Node10</title>
<g id="a_Node000010"><a xlink:href="_g_n_s_s_constellation_8cpp.html" target="_top" xlink:title="GNSS Constellation.">
<polygon fill="white" stroke="#666666" points="490.38,-19.25 370.12,-19.25 370.12,0 490.38,0 490.38,-19.25"/>
<text text-anchor="middle" x="430.25" y="-5.75" font-family="Helvetica,sans-Serif" font-size="10.00">GNSSConstellation.cpp</text>
</a>
</g>
</g>
<!-- Node9&#45;&gt;Node10 -->
<g id="edge13_Node000009_Node000010" class="edge">
<title>Node9&#45;&gt;Node10</title>
<g id="a_edge13_Node000009_Node000010"><a xlink:title=" ">
<path fill="none" stroke="#63b8ff" d="M352.86,-49.87C371.67,-40.33 396.03,-27.98 412.35,-19.7"/>
<polygon fill="#63b8ff" stroke="#63b8ff" points="351.4,-47.2 344.06,-54.84 354.56,-53.44 351.4,-47.2"/>
</a>
</g>
</g>
<!-- Node11&#45;&gt;Node6 -->
<g id="edge15_Node000011_Node000006" class="edge">
<title>Node11&#45;&gt;Node6</title>
<g id="a_edge15_Node000011_Node000006"><a xlink:title=" ">
<path fill="none" stroke="#63b8ff" d="M1005.37,-52.76C953.41,-42.94 878.6,-28.82 830.21,-19.68"/>
<polygon fill="#63b8ff" stroke="#63b8ff" points="1004.62,-56.37 1015.09,-54.78 1005.92,-49.49 1004.62,-56.37"/>
</a>
</g>
</g>
<!-- Node12 -->
<g id="Node000012" class="node">
<title>Node12</title>
<g id="a_Node000012"><a xlink:href="_g_n_s_s_state_estimation_app_8cpp.html" target="_top" xlink:title="State Estimation Application Using GNSS Measurement.">
<polygon fill="white" stroke="#666666" points="1134.38,-19.25 984.12,-19.25 984.12,0 1134.38,0 1134.38,-19.25"/>
<text text-anchor="middle" x="1059.25" y="-5.75" font-family="Helvetica,sans-Serif" font-size="10.00">GNSSStateEstimationApp.cpp</text>
</a>
</g>
</g>
<!-- Node11&#45;&gt;Node12 -->
<g id="edge16_Node000011_Node000012" class="edge">
<title>Node11&#45;&gt;Node12</title>
<g id="a_edge16_Node000011_Node000012"><a xlink:title=" ">
<path fill="none" stroke="#63b8ff" d="M1062.4,-44.21C1061.61,-35.77 1060.72,-26.33 1060.09,-19.61"/>
<polygon fill="#63b8ff" stroke="#63b8ff" points="1059,-44.45 1063.42,-54.08 1065.97,-43.8 1059,-44.45"/>
</a>
</g>
</g>
<!-- Node16 -->
<g id="Node000016" class="node">
<title>Node16</title>
<g id="a_Node000016"><a xlink:href="_state_estimation_app_8cpp.html" target="_top" xlink:title="Base class for State Estimation Application.">
<polygon fill="white" stroke="#666666" points="1274.12,-19.25 1152.38,-19.25 1152.38,0 1274.12,0 1274.12,-19.25"/>
<text text-anchor="middle" x="1213.25" y="-5.75" font-family="Helvetica,sans-Serif" font-size="10.00">StateEstimationApp.cpp</text>
</a>
</g>
</g>
<!-- Node15&#45;&gt;Node16 -->
<g id="edge20_Node000015_Node000016" class="edge">
<title>Node15&#45;&gt;Node16</title>
<g id="a_edge20_Node000015_Node000016"><a xlink:title=" ">
<path fill="none" stroke="#63b8ff" d="M1210.1,-44.21C1210.89,-35.77 1211.78,-26.33 1212.41,-19.61"/>
<polygon fill="#63b8ff" stroke="#63b8ff" points="1206.53,-43.8 1209.08,-54.08 1213.5,-44.45 1206.53,-43.8"/>
</a>
</g>
</g>
<!-- Node17&#45;&gt;Node4 -->
<g id="edge22_Node000017_Node000004" class="edge">
<title>Node17&#45;&gt;Node4</title>
<g id="a_edge22_Node000017_Node000004"><a xlink:title=" ">
<path fill="none" stroke="#63b8ff" d="M805.89,-99.47C803.13,-85.14 797.15,-66.37 784.25,-55.25 763.44,-37.32 696.59,-25.16 644.23,-18.12"/>
<polygon fill="#63b8ff" stroke="#63b8ff" points="802.56,-99.83 807.54,-109.19 809.48,-98.77 802.56,-99.83"/>
</a>
</g>
</g>
<!-- Node17&#45;&gt;Node5 -->
<g id="edge23_Node000017_Node000005" class="edge">
<title>Node17&#45;&gt;Node5</title>
<g id="a_edge23_Node000017_Node000005"><a xlink:title=" ">
<path fill="none" stroke="#63b8ff" d="M786.9,-103.91C761.45,-85.92 721.33,-58.04 713.25,-55.25 608.99,-19.27 327.82,-31.8 218.25,-19.25 215.27,-18.91 212.21,-18.52 209.13,-18.11"/>
<polygon fill="#63b8ff" stroke="#63b8ff" points="784.65,-107.32 794.84,-110.25 788.7,-101.61 784.65,-107.32"/>
</a>
</g>
</g>
<!-- Node17&#45;&gt;Node6 -->
<g id="edge24_Node000017_Node000006" class="edge">
<title>Node17&#45;&gt;Node6</title>
<g id="a_edge24_Node000017_Node000006"><a xlink:title=" ">
<path fill="none" stroke="#63b8ff" d="M817.88,-100.55C823.27,-87.57 827.89,-70 822.25,-55.25 816.67,-40.67 803.9,-27.86 794.28,-19.74"/>
<polygon fill="#63b8ff" stroke="#63b8ff" points="814.43,-98.66 813.37,-109.21 820.77,-101.62 814.43,-98.66"/>
</a>
</g>
</g>
<!-- Node17&#45;&gt;Node7 -->
<g id="edge25_Node000017_Node000007" class="edge">
<title>Node17&#45;&gt;Node7</title>
<g id="a_edge25_Node000017_Node000007"><a xlink:title=" ">
<path fill="none" stroke="#63b8ff" d="M796.48,-101.26C785.46,-86.17 767.52,-65.44 746.25,-55.25 668.76,-18.12 446.69,-28.36 361.25,-19.25 358.25,-18.93 355.17,-18.59 352.07,-18.25"/>
<polygon fill="#63b8ff" stroke="#63b8ff" points="794.11,-102.98 802.69,-109.2 799.86,-98.99 794.11,-102.98"/>
</a>
</g>
</g>
<!-- Node17&#45;&gt;Node8 -->
<g id="edge26_Node000017_Node000008" class="edge">
<title>Node17&#45;&gt;Node8</title>
<g id="a_edge26_Node000017_Node000008"><a xlink:title=" ">
<path fill="none" stroke="#63b8ff" d="M771.91,-106.56C743.84,-96.85 705.66,-83.65 680.5,-74.95"/>
<polygon fill="#63b8ff" stroke="#63b8ff" points="770.53,-110.13 781.13,-110.09 772.82,-103.52 770.53,-110.13"/>
</a>
</g>
</g>
<!-- Node17&#45;&gt;Node11 -->
<g id="edge28_Node000017_Node000011" class="edge">
<title>Node17&#45;&gt;Node11</title>
<g id="a_edge28_Node000017_Node000011"><a xlink:title=" ">
<path fill="none" stroke="#63b8ff" d="M862.59,-107.82C909.73,-98.02 977.06,-84.01 1020.71,-74.93"/>
<polygon fill="#63b8ff" stroke="#63b8ff" points="862.04,-104.57 852.97,-110.03 863.47,-111.42 862.04,-104.57"/>
</a>
</g>
</g>
<!-- Node17&#45;&gt;Node15 -->
<g id="edge29_Node000017_Node000015" class="edge">
<title>Node17&#45;&gt;Node15</title>
<g id="a_edge29_Node000017_Node000015"><a xlink:title=" ">
<path fill="none" stroke="#63b8ff" d="M864.96,-111.58C941.34,-101.41 1076.4,-83.43 1152.35,-73.32"/>
<polygon fill="#63b8ff" stroke="#63b8ff" points="864.59,-108.23 855.14,-113.02 865.51,-115.17 864.59,-108.23"/>
</a>
</g>
</g>
<!-- Node18 -->
<g id="Node000018" class="node">
<title>Node18</title>
<g id="a_Node000018"><a xlink:href="_g_n_s_s_receiver_8cpp.html" target="_top" xlink:title="GNSS Receiver class.">
<polygon fill="white" stroke="#666666" points="976,-74.5 874.5,-74.5 874.5,-55.25 976,-55.25 976,-74.5"/>
<text text-anchor="middle" x="925.25" y="-61" font-family="Helvetica,sans-Serif" font-size="10.00">GNSSReceiver.cpp</text>
</a>
</g>
</g>
<!-- Node17&#45;&gt;Node18 -->
<g id="edge27_Node000017_Node000018" class="edge">
<title>Node17&#45;&gt;Node18</title>
<g id="a_edge27_Node000017_Node000018"><a xlink:title=" ">
<path fill="none" stroke="#63b8ff" d="M837.85,-105.65C858.97,-96.04 886.78,-83.38 905.31,-74.95"/>
<polygon fill="#63b8ff" stroke="#63b8ff" points="836.75,-102.76 829.1,-110.09 839.65,-109.13 836.75,-102.76"/>
</a>
</g>
</g>
<!-- Node19&#45;&gt;Node8 -->
<g id="edge32_Node000019_Node000008" class="edge">
<title>Node19&#45;&gt;Node8</title>
<g id="a_edge32_Node000019_Node000008"><a xlink:title=" ">
<path fill="none" stroke="#63b8ff" d="M571.14,-105.39C591.28,-95.81 617.59,-83.31 635.16,-74.95"/>
<polygon fill="#63b8ff" stroke="#63b8ff" points="569.78,-102.64 562.25,-110.09 572.78,-108.96 569.78,-102.64"/>
</a>
</g>
</g>
<!-- Node19&#45;&gt;Node9 -->
<g id="edge33_Node000019_Node000009" class="edge">
<title>Node19&#45;&gt;Node9</title>
<g id="a_edge33_Node000019_Node000009"><a xlink:title=" ">
<path fill="none" stroke="#63b8ff" d="M494.92,-107.51C455.06,-97.73 398.86,-83.94 362.24,-74.95"/>
<polygon fill="#63b8ff" stroke="#63b8ff" points="493.89,-111.11 504.44,-110.09 495.56,-104.31 493.89,-111.11"/>
</a>
</g>
</g>
<!-- Node19&#45;&gt;Node13 -->
<g id="edge34_Node000019_Node000013" class="edge">
<title>Node19&#45;&gt;Node13</title>
<g id="a_edge34_Node000019_Node000013"><a xlink:title=" ">
<path fill="none" stroke="#63b8ff" d="M537.88,-99.75C535.97,-91.24 533.81,-81.65 532.27,-74.86"/>
<polygon fill="#63b8ff" stroke="#63b8ff" points="534.66,-100.35 540.27,-109.33 541.48,-98.81 534.66,-100.35"/>
</a>
</g>
</g>
</g>
</svg>

<g id="navigator" transform="translate(0 0)" fill="#404254">
  <rect fill="#f2f5e9" fill-opacity="0.5" stroke="#606060" stroke-width=".5" x="0" y="0" width="60" height="60"/>
  <use id="zoomplus" xlink:href="#zoomPlus" x="17" y="9" onmousedown="handleZoom(evt,'in')"/>
  <use id="zoomminus" xlink:href="#zoomMin" x="42" y="9" onmousedown="handleZoom(evt,'out')"/>
  <use id="reset" xlink:href="#resetDef" x="30" y="36" onmousedown="handleReset()"/>
   <use id="arrowup" xlink:href="#arrowUp" x="0" y="0" onmousedown="handlePan(0,-1)"/>
  <use id="arrowright" xlink:href="#arrowRight" x="0" y="0" onmousedown="handlePan(1,0)"/>
  <use id="arrowdown" xlink:href="#arrowDown" x="0" y="0" onmousedown="handlePan(0,1)"/>
  <use id="arrowleft" xlink:href="#arrowLeft" x="0" y="0" onmousedown="handlePan(-1,0)"/>
</g>
<svg viewBox="0 0 15 15" width="100%" height="30px" preserveAspectRatio="xMaxYMin meet">
 <g id="arrow_out" transform="scale(0.3 0.3)">
  <a xlink:href="_comm_device_8h__dep__incl_org.svg" target="_base">
   <rect id="button" ry="5" rx="5" y="6" x="6" height="38" width="38"
        fill="#f2f5e9" fill-opacity="0.5" stroke="#606060" stroke-width="1.0"/>
   <path id="arrow"
     d="M 11.500037,31.436501 C 11.940474,20.09759 22.043105,11.32322 32.158766,21.979434 L 37.068811,17.246167 C 37.068811,17.246167 37.088388,32 37.088388,32 L 22.160133,31.978069 C 22.160133,31.978069 26.997745,27.140456 26.997745,27.140456 C 18.528582,18.264221 13.291696,25.230495 11.500037,31.436501 z"
     style="fill:#404040;"/>
  </a>
 </g>
</svg>

<style type='text/css'>
<![CDATA[
[data-mouse-over-selected='false'] { opacity: 0.7; }
[data-mouse-over-selected='true']  { opacity: 1.0; }
]]>
</style>
<script type="application/ecmascript"><![CDATA[
document.addEventListener('DOMContentLoaded', (event) => {
  highlightEdges();
  highlightAdjacentNodes();
});
]]></script>
</svg>
