<?xml version="1.0" encoding="UTF-8" standalone="no"?>
<!DOCTYPE svg PUBLIC "-//W3C//DTD SVG 1.1//EN"
 "http://www.w3.org/Graphics/SVG/1.1/DTD/svg11.dtd">
<!-- Generated by graphviz version 8.1.0 (20230707.0739)
 -->
<!-- Title: CommDevice.h Pages: 1 -->
<!--zoomable 282 -->

<svg id="main" version="1.1" xmlns="http://www.w3.org/2000/svg" xmlns:xlink="http://www.w3.org/1999/xlink" xml:space="preserve" onload="init(evt)">
<style type="text/css"><![CDATA[
.node, .edge {opacity: 0.7;}
.node.selected, .edge.selected {opacity: 1;}
.edge:hover path { stroke: red; }
.edge:hover polygon { stroke: red; fill: red; }
]]></style>

<defs>
  <circle id="rim" cx="0" cy="0" r="7"/>
  <circle id="rim2" cx="0" cy="0" r="3.5"/>
  <g id="zoomPlus">
    <use xlink:href="#rim" fill="#404040"><set attributeName="fill" to="#808080" begin="zoomplus.mouseover" end="zoomplus.mouseout"/></use>
    <path d="M-4,0h8M0,-4v8" fill="none" stroke="white" stroke-width="1.5" pointer-events="none"/>
  </g>
  <g id="zoomMin">
    <use xlink:href="#rim" fill="#404040"><set attributeName="fill" to="#808080" begin="zoomminus.mouseover" end="zoomminus.mouseout"/></use>
    <path d="M-4,0h8" fill="none" stroke="white" stroke-width="1.5" pointer-events="none"/>
  </g>
  <g id="arrowUp" transform="translate(30 24)">
    <use xlink:href="#rim"/>
    <path pointer-events="none" fill="none" stroke="white" stroke-width="1.5" d="M0,-3.0v7 M-2.5,-0.5L0,-3.0L2.5,-0.5"/>
  </g>
  <g id="arrowRight" transform="rotate(90) translate(36 -43)">
    <use xlink:href="#rim"/>
    <path pointer-events="none" fill="none" stroke="white" stroke-width="1.5" d="M0,-3.0v7 M-2.5,-0.5L0,-3.0L2.5,-0.5"/>
  </g>
  <g id="arrowDown" transform="rotate(180) translate(-30 -48)">
    <use xlink:href="#rim"/>
    <path pointer-events="none" fill="none" stroke="white" stroke-width="1.5" d="M0,-3.0v7 M-2.5,-0.5L0,-3.0L2.5,-0.5"/>
  </g>
  <g id="arrowLeft" transform="rotate(270) translate(-36 17)">
    <use xlink:href="#rim"/>
    <path pointer-events="none" fill="none" stroke="white" stroke-width="1.5" d="M0,-3.0v7 M-2.5,-0.5L0,-3.0L2.5,-0.5"/>
  </g>
  <g id="resetDef">
    <use xlink:href="#rim2" fill="#404040"><set attributeName="fill" to="#808080" begin="reset.mouseover" end="reset.mouseout"/></use>
  </g>
</defs>
<script type="application/ecmascript">
var viewWidth = 1275;
var viewHeight = 282;
var sectionId = 'dynsection-0';
</script>
<script type="application/ecmascript" xlink:href="svg.min.js"/>
<svg id="graph" class="graph">
<g id="viewport">
<title>CommDevice.h</title>
<!-- Node1 -->
<g id="Node000001" class="node">
<title>Node1</title>
<g id="a_Node000001"><a xlink:title="Communication devices.">
<polygon fill="#999999" stroke="#666666" points="842.62,-274 758.38,-274 758.38,-254.75 842.62,-254.75 842.62,-274"/>
<text text-anchor="middle" x="800.5" y="-260.5" font-family="Helvetica,sans-Serif" font-size="10.00">CommDevice.h</text>
</a>
</g>
</g>
<!-- Node2 -->
<g id="Node000002" class="node">
<title>Node2</title>
<g id="a_Node000002"><a xlink:title=" ">
<polygon fill="#e0e0e0" stroke="#999999" points="514,-80.12 393,-80.12 393,-60.88 514,-60.88 514,-80.12"/>
<text text-anchor="middle" x="453.5" y="-66.62" font-family="Helvetica,sans-Serif" font-size="10.00">autodiff/forward/real.hpp</text>
</a>
</g>
</g>
<!-- Node1&#45;&gt;Node2 -->
<g id="edge1_Node000001_Node000002" class="edge">
<title>Node1&#45;&gt;Node2</title>
<g id="a_edge1_Node000001_Node000002"><a xlink:title=" ">
<path fill="none" stroke="#63b8ff" d="M757.92,-256.84C670.42,-242.45 475.45,-205.03 437.5,-152.25 424.25,-133.82 433.6,-107.18 442.61,-89.6"/>
<polygon fill="#63b8ff" stroke="#63b8ff" points="445.9,-91.88 447.7,-81.44 439.78,-88.48 445.9,-91.88"/>
</a>
</g>
</g>
<!-- Node3 -->
<g id="Node000003" class="node">
<title>Node3</title>
<g id="a_Node000003"><a xlink:title=" ">
<polygon fill="#e0e0e0" stroke="#999999" points="754.62,-85.75 652.38,-85.75 652.38,-55.25 754.62,-55.25 754.62,-85.75"/>
<text text-anchor="start" x="660.38" y="-72.25" font-family="Helvetica,sans-Serif" font-size="10.00">autodiff/forward/real</text>
<text text-anchor="middle" x="703.5" y="-61" font-family="Helvetica,sans-Serif" font-size="10.00">/eigen.hpp</text>
</a>
</g>
</g>
<!-- Node1&#45;&gt;Node3 -->
<g id="edge2_Node000001_Node000003" class="edge">
<title>Node1&#45;&gt;Node3</title>
<g id="a_edge2_Node000001_Node000003"><a xlink:title=" ">
<path fill="none" stroke="#63b8ff" d="M842.81,-257.93C937.19,-244.18 1151.13,-203.22 1078.5,-121.75 1033.86,-71.69 850.82,-95.39 765.47,-85.29"/>
<polygon fill="#63b8ff" stroke="#63b8ff" points="766.23,-81.72 755.84,-83.76 765.23,-88.65 766.23,-81.72"/>
</a>
</g>
</g>
<!-- Node4 -->
<g id="Node000004" class="node">
<title>Node4</title>
<g id="a_Node000004"><a xlink:title=" ">
<polygon fill="#e0e0e0" stroke="#999999" points="1197.88,-213.12 1163.12,-213.12 1163.12,-193.88 1197.88,-193.88 1197.88,-213.12"/>
<text text-anchor="middle" x="1180.5" y="-199.62" font-family="Helvetica,sans-Serif" font-size="10.00">map</text>
</a>
</g>
</g>
<!-- Node1&#45;&gt;Node4 -->
<g id="edge3_Node000001_Node000004" class="edge">
<title>Node1&#45;&gt;Node4</title>
<g id="a_edge3_Node000001_Node000004"><a xlink:title=" ">
<path fill="none" stroke="#63b8ff" d="M842.96,-262.08C909.51,-259.14 1041.89,-249.58 1149.5,-218.75 1150.64,-218.42 1151.79,-218.06 1152.94,-217.67"/>
<polygon fill="#63b8ff" stroke="#63b8ff" points="1154.16,-220.55 1162.15,-213.59 1151.56,-214.05 1154.16,-220.55"/>
</a>
</g>
</g>
<!-- Node5 -->
<g id="Node000005" class="node">
<title>Node5</title>
<g id="a_Node000005"><a xlink:title=" ">
<polygon fill="#e0e0e0" stroke="#999999" points="1267.12,-213.12 1215.88,-213.12 1215.88,-193.88 1267.12,-193.88 1267.12,-213.12"/>
<text text-anchor="middle" x="1241.5" y="-199.62" font-family="Helvetica,sans-Serif" font-size="10.00">memory</text>
</a>
</g>
</g>
<!-- Node1&#45;&gt;Node5 -->
<g id="edge4_Node000001_Node000005" class="edge">
<title>Node1&#45;&gt;Node5</title>
<g id="a_edge4_Node000001_Node000005"><a xlink:title=" ">
<path fill="none" stroke="#63b8ff" d="M842.97,-262.56C917.62,-260.27 1076.75,-251.61 1206.5,-218.75 1208.25,-218.31 1210.03,-217.79 1211.81,-217.23"/>
<polygon fill="#63b8ff" stroke="#63b8ff" points="1212.61,-220.3 1220.83,-213.62 1210.24,-213.72 1212.61,-220.3"/>
</a>
</g>
</g>
<!-- Node6 -->
<g id="Node000006" class="node">
<title>Node6</title>
<g id="a_Node000006"><a xlink:href="_antenna_8h.html" target="_top" xlink:title="Antenna class.">
<polygon fill="white" stroke="#666666" points="365.75,-218.75 261.25,-218.75 261.25,-188.25 365.75,-188.25 365.75,-218.75"/>
<text text-anchor="start" x="269.25" y="-205.25" font-family="Helvetica,sans-Serif" font-size="10.00">lupnt/measurements</text>
<text text-anchor="middle" x="313.5" y="-194" font-family="Helvetica,sans-Serif" font-size="10.00">/Antenna.h</text>
</a>
</g>
</g>
<!-- Node1&#45;&gt;Node6 -->
<g id="edge5_Node000001_Node000006" class="edge">
<title>Node1&#45;&gt;Node6</title>
<g id="a_edge5_Node000001_Node000006"><a xlink:title=" ">
<path fill="none" stroke="#63b8ff" d="M758.17,-260.4C682.07,-254.7 517.2,-240.85 379.5,-218.75 378.54,-218.6 377.57,-218.44 376.59,-218.27"/>
<polygon fill="#63b8ff" stroke="#63b8ff" points="377.46,-214.69 367,-216.37 376.22,-221.58 377.46,-214.69"/>
</a>
</g>
</g>
<!-- Node14 -->
<g id="Node000014" class="node">
<title>Node14</title>
<g id="a_Node000014"><a xlink:href="_transmission_8h.html" target="_top" xlink:title="Signal transmission data.">
<polygon fill="white" stroke="#666666" points="753.75,-152.25 649.25,-152.25 649.25,-121.75 753.75,-121.75 753.75,-152.25"/>
<text text-anchor="start" x="657.25" y="-138.75" font-family="Helvetica,sans-Serif" font-size="10.00">lupnt/measurements</text>
<text text-anchor="middle" x="701.5" y="-127.5" font-family="Helvetica,sans-Serif" font-size="10.00">/Transmission.h</text>
</a>
</g>
</g>
<!-- Node1&#45;&gt;Node14 -->
<g id="edge18_Node000001_Node000014" class="edge">
<title>Node1&#45;&gt;Node14</title>
<g id="a_edge18_Node000001_Node000014"><a xlink:title=" ">
<path fill="none" stroke="#63b8ff" d="M793.38,-254.36C778.1,-235 741.75,-188.97 719.63,-160.95"/>
<polygon fill="#63b8ff" stroke="#63b8ff" points="721.93,-159.23 712.99,-153.55 716.44,-163.56 721.93,-159.23"/>
</a>
</g>
</g>
<!-- Node16 -->
<g id="Node000016" class="node">
<title>Node16</title>
<g id="a_Node000016"><a xlink:href="_math_utils_8h.html" target="_top" xlink:title=" ">
<polygon fill="white" stroke="#666666" points="593,-146.62 460,-146.62 460,-127.38 593,-127.38 593,-146.62"/>
<text text-anchor="middle" x="526.5" y="-133.12" font-family="Helvetica,sans-Serif" font-size="10.00">lupnt/numerics/MathUtils.h</text>
</a>
</g>
</g>
<!-- Node1&#45;&gt;Node16 -->
<g id="edge23_Node000001_Node000016" class="edge">
<title>Node1&#45;&gt;Node16</title>
<g id="a_edge23_Node000001_Node000016"><a xlink:title=" ">
<path fill="none" stroke="#63b8ff" d="M780.79,-254.36C733.32,-232.63 612.37,-177.29 556.11,-151.55"/>
<polygon fill="#63b8ff" stroke="#63b8ff" points="557.94,-148.08 547.4,-147.1 555.03,-154.45 557.94,-148.08"/>
</a>
</g>
</g>
<!-- Node18 -->
<g id="Node000018" class="node">
<title>Node18</title>
<g id="a_Node000018"><a xlink:href="_orbit_state_8h.html" target="_top" xlink:title="Orbit states.">
<polygon fill="white" stroke="#666666" points="912.12,-213.12 782.88,-213.12 782.88,-193.88 912.12,-193.88 912.12,-213.12"/>
<text text-anchor="middle" x="847.5" y="-199.62" font-family="Helvetica,sans-Serif" font-size="10.00">lupnt/physics/OrbitState.h</text>
</a>
</g>
</g>
<!-- Node1&#45;&gt;Node18 -->
<g id="edge27_Node000001_Node000018" class="edge">
<title>Node1&#45;&gt;Node18</title>
<g id="a_edge27_Node000001_Node000018"><a xlink:title=" ">
<path fill="none" stroke="#63b8ff" d="M807.64,-254.43C814.47,-245.87 824.97,-232.73 833.47,-222.07"/>
<polygon fill="#63b8ff" stroke="#63b8ff" points="836.79,-224.52 840.29,-214.53 831.32,-220.16 836.79,-224.52"/>
</a>
</g>
</g>
<!-- Node6&#45;&gt;Node2 -->
<g id="edge6_Node000006_Node000002" class="edge">
<title>Node6&#45;&gt;Node2</title>
<g id="a_edge6_Node000006_Node000002"><a xlink:title=" ">
<path fill="none" stroke="#63b8ff" d="M323.37,-188.02C335.39,-170.98 356.93,-142.41 379.5,-121.75 394.44,-108.08 413.37,-95.29 428.34,-86.04"/>
<polygon fill="#63b8ff" stroke="#63b8ff" points="429.77,-88.66 436.52,-80.5 426.15,-82.67 429.77,-88.66"/>
</a>
</g>
</g>
<!-- Node6&#45;&gt;Node3 -->
<g id="edge7_Node000006_Node000003" class="edge">
<title>Node6&#45;&gt;Node3</title>
<g id="a_edge7_Node000006_Node000003"><a xlink:title=" ">
<path fill="none" stroke="#63b8ff" d="M366.21,-201.04C425.75,-197.66 524.38,-186.8 601.5,-152.25 602.59,-151.76 646.84,-116.61 676.7,-92.85"/>
<polygon fill="#63b8ff" stroke="#63b8ff" points="678.42,-95.16 684.06,-86.19 674.06,-89.68 678.42,-95.16"/>
</a>
</g>
</g>
<!-- Node7 -->
<g id="Node000007" class="node">
<title>Node7</title>
<g id="a_Node000007"><a xlink:title=" ">
<polygon fill="#e0e0e0" stroke="#999999" points="321.5,-19.25 281.5,-19.25 281.5,0 321.5,0 321.5,-19.25"/>
<text text-anchor="middle" x="301.5" y="-5.75" font-family="Helvetica,sans-Serif" font-size="10.00">string</text>
</a>
</g>
</g>
<!-- Node6&#45;&gt;Node7 -->
<g id="edge8_Node000006_Node000007" class="edge">
<title>Node6&#45;&gt;Node7</title>
<g id="a_edge8_Node000006_Node000007"><a xlink:title=" ">
<path fill="none" stroke="#63b8ff" d="M260.79,-190.62C239.46,-183.14 216.59,-171.17 202.5,-152.25 184.69,-128.33 195.5,-115.51 193.5,-85.75 192.59,-72.23 185.96,-66.52 193.5,-55.25 210.59,-29.69 245.31,-18.75 270.78,-14.08"/>
<polygon fill="#63b8ff" stroke="#63b8ff" points="271.07,-17.42 280.4,-12.4 269.97,-10.51 271.07,-17.42"/>
</a>
</g>
</g>
<!-- Node8 -->
<g id="Node000008" class="node">
<title>Node8</title>
<g id="a_Node000008"><a xlink:href="_constants_8h.html" target="_top" xlink:title="List of constants.">
<polygon fill="white" stroke="#666666" points="327,-146.62 212,-146.62 212,-127.38 327,-127.38 327,-146.62"/>
<text text-anchor="middle" x="269.5" y="-133.12" font-family="Helvetica,sans-Serif" font-size="10.00">lupnt/core/Constants.h</text>
</a>
</g>
</g>
<!-- Node6&#45;&gt;Node8 -->
<g id="edge9_Node000006_Node000008" class="edge">
<title>Node6&#45;&gt;Node8</title>
<g id="a_edge9_Node000006_Node000008"><a xlink:title=" ">
<path fill="none" stroke="#63b8ff" d="M303.52,-187.86C296.98,-178.29 288.41,-165.72 281.51,-155.6"/>
<polygon fill="#63b8ff" stroke="#63b8ff" points="284.05,-154.11 275.52,-147.82 278.26,-158.06 284.05,-154.11"/>
</a>
</g>
</g>
<!-- Node8&#45;&gt;Node2 -->
<g id="edge11_Node000008_Node000002" class="edge">
<title>Node8&#45;&gt;Node2</title>
<g id="a_edge11_Node000008_Node000002"><a xlink:title=" ">
<path fill="none" stroke="#63b8ff" d="M295.47,-126.9C327.39,-115.71 381.72,-96.66 417.61,-84.08"/>
<polygon fill="#63b8ff" stroke="#63b8ff" points="418.38,-87.17 426.66,-80.56 416.06,-80.56 418.38,-87.17"/>
</a>
</g>
</g>
<!-- Node8&#45;&gt;Node7 -->
<g id="edge12_Node000008_Node000007" class="edge">
<title>Node8&#45;&gt;Node7</title>
<g id="a_edge12_Node000008_Node000007"><a xlink:title=" ">
<path fill="none" stroke="#63b8ff" d="M294.59,-126.92C312.33,-119.02 334.79,-105.67 345.5,-85.75 351.92,-73.81 350.64,-67.79 345.5,-55.25 340.86,-43.93 331.8,-33.94 323.1,-26.3"/>
<polygon fill="#63b8ff" stroke="#63b8ff" points="325.67,-23.06 315.7,-19.48 321.26,-28.5 325.67,-23.06"/>
</a>
</g>
</g>
<!-- Node9 -->
<g id="Node000009" class="node">
<title>Node9</title>
<g id="a_Node000009"><a xlink:title=" ">
<polygon fill="#e0e0e0" stroke="#999999" points="336.38,-80.12 202.62,-80.12 202.62,-60.88 336.38,-60.88 336.38,-80.12"/>
<text text-anchor="middle" x="269.5" y="-66.62" font-family="Helvetica,sans-Serif" font-size="10.00">autodiff/common/eigen.hpp</text>
</a>
</g>
</g>
<!-- Node8&#45;&gt;Node9 -->
<g id="edge10_Node000008_Node000009" class="edge">
<title>Node8&#45;&gt;Node9</title>
<g id="a_edge10_Node000008_Node000009"><a xlink:title=" ">
<path fill="none" stroke="#63b8ff" d="M269.5,-127.03C269.5,-117.79 269.5,-103.08 269.5,-91.13"/>
<polygon fill="#63b8ff" stroke="#63b8ff" points="273,-91.39 269.5,-81.39 266,-91.39 273,-91.39"/>
</a>
</g>
</g>
<!-- Node10 -->
<g id="Node000010" class="node">
<title>Node10</title>
<g id="a_Node000010"><a xlink:href="_user_file_path_8h.html" target="_top" xlink:title="File access utils.">
<polygon fill="white" stroke="#666666" points="146.12,-80.12 64.88,-80.12 64.88,-60.88 146.12,-60.88 146.12,-80.12"/>
<text text-anchor="middle" x="105.5" y="-66.62" font-family="Helvetica,sans-Serif" font-size="10.00">UserFilePath.h</text>
</a>
</g>
</g>
<!-- Node8&#45;&gt;Node10 -->
<g id="edge13_Node000008_Node000010" class="edge">
<title>Node8&#45;&gt;Node10</title>
<g id="a_edge13_Node000008_Node000010"><a xlink:title=" ">
<path fill="none" stroke="#63b8ff" d="M246.35,-126.9C218.27,-115.85 170.72,-97.15 138.73,-84.57"/>
<polygon fill="#63b8ff" stroke="#63b8ff" points="140.12,-80.96 129.53,-80.56 137.56,-87.48 140.12,-80.96"/>
</a>
</g>
</g>
<!-- Node10&#45;&gt;Node7 -->
<g id="edge17_Node000010_Node000007" class="edge">
<title>Node10&#45;&gt;Node7</title>
<g id="a_edge17_Node000010_Node000007"><a xlink:title=" ">
<path fill="none" stroke="#63b8ff" d="M135.7,-60.43C172.44,-49.39 234.14,-30.86 271.02,-19.78"/>
<polygon fill="#63b8ff" stroke="#63b8ff" points="271.6,-22.96 280.17,-16.73 269.58,-16.26 271.6,-22.96"/>
</a>
</g>
</g>
<!-- Node11 -->
<g id="Node000011" class="node">
<title>Node11</title>
<g id="a_Node000011"><a xlink:title=" ">
<polygon fill="#e0e0e0" stroke="#999999" points="61,-19.25 0,-19.25 0,0 61,0 61,-19.25"/>
<text text-anchor="middle" x="30.5" y="-5.75" font-family="Helvetica,sans-Serif" font-size="10.00">filesystem</text>
</a>
</g>
</g>
<!-- Node10&#45;&gt;Node11 -->
<g id="edge14_Node000010_Node000011" class="edge">
<title>Node10&#45;&gt;Node11</title>
<g id="a_edge14_Node000010_Node000011"><a xlink:title=" ">
<path fill="none" stroke="#63b8ff" d="M94.11,-60.56C82.55,-51.48 64.41,-37.24 50.45,-26.29"/>
<polygon fill="#63b8ff" stroke="#63b8ff" points="53.03,-23.07 43,-19.65 48.7,-28.58 53.03,-23.07"/>
</a>
</g>
</g>
<!-- Node12 -->
<g id="Node000012" class="node">
<title>Node12</title>
<g id="a_Node000012"><a xlink:title=" ">
<polygon fill="#e0e0e0" stroke="#999999" points="132.25,-19.25 78.75,-19.25 78.75,0 132.25,0 132.25,-19.25"/>
<text text-anchor="middle" x="105.5" y="-5.75" font-family="Helvetica,sans-Serif" font-size="10.00">iostream</text>
</a>
</g>
</g>
<!-- Node10&#45;&gt;Node12 -->
<g id="edge15_Node000010_Node000012" class="edge">
<title>Node10&#45;&gt;Node12</title>
<g id="a_edge15_Node000010_Node000012"><a xlink:title=" ">
<path fill="none" stroke="#63b8ff" d="M105.5,-60.56C105.5,-52.6 105.5,-40.69 105.5,-30.49"/>
<polygon fill="#63b8ff" stroke="#63b8ff" points="109,-30.65 105.5,-20.65 102,-30.65 109,-30.65"/>
</a>
</g>
</g>
<!-- Node13 -->
<g id="Node000013" class="node">
<title>Node13</title>
<g id="a_Node000013"><a xlink:title=" ">
<polygon fill="#e0e0e0" stroke="#999999" points="200.38,-19.25 150.62,-19.25 150.62,0 200.38,0 200.38,-19.25"/>
<text text-anchor="middle" x="175.5" y="-5.75" font-family="Helvetica,sans-Serif" font-size="10.00">optional</text>
</a>
</g>
</g>
<!-- Node10&#45;&gt;Node13 -->
<g id="edge16_Node000010_Node000013" class="edge">
<title>Node10&#45;&gt;Node13</title>
<g id="a_edge16_Node000010_Node000013"><a xlink:title=" ">
<path fill="none" stroke="#63b8ff" d="M116.13,-60.56C126.82,-51.57 143.53,-37.51 156.5,-26.6"/>
<polygon fill="#63b8ff" stroke="#63b8ff" points="158.37,-28.77 163.77,-19.65 153.86,-23.41 158.37,-28.77"/>
</a>
</g>
</g>
<!-- Node14&#45;&gt;Node2 -->
<g id="edge20_Node000014_Node000002" class="edge">
<title>Node14&#45;&gt;Node2</title>
<g id="a_edge20_Node000014_Node000002"><a xlink:title=" ">
<path fill="none" stroke="#63b8ff" d="M648.91,-122.32C604.43,-110.76 541.38,-94.35 499.03,-83.34"/>
<polygon fill="#63b8ff" stroke="#63b8ff" points="500.03,-79.73 489.47,-80.6 498.27,-86.5 500.03,-79.73"/>
</a>
</g>
</g>
<!-- Node14&#45;&gt;Node3 -->
<g id="edge21_Node000014_Node000003" class="edge">
<title>Node14&#45;&gt;Node3</title>
<g id="a_edge21_Node000014_Node000003"><a xlink:title=" ">
<path fill="none" stroke="#63b8ff" d="M701.95,-121.36C702.18,-114.11 702.46,-105.13 702.72,-96.81"/>
<polygon fill="#63b8ff" stroke="#63b8ff" points="706.24,-97.18 703.05,-87.08 699.24,-96.96 706.24,-97.18"/>
</a>
</g>
</g>
<!-- Node14&#45;&gt;Node7 -->
<g id="edge22_Node000014_Node000007" class="edge">
<title>Node14&#45;&gt;Node7</title>
<g id="a_edge22_Node000014_Node000007"><a xlink:title=" ">
<path fill="none" stroke="#63b8ff" d="M686.27,-121.32C665.96,-102.69 628.09,-71.08 589.5,-55.25 501.4,-19.12 387.19,-11.99 332.87,-10.75"/>
<polygon fill="#63b8ff" stroke="#63b8ff" points="332.97,-7.24 322.91,-10.57 332.85,-14.24 332.97,-7.24"/>
</a>
</g>
</g>
<!-- Node15 -->
<g id="Node000015" class="node">
<title>Node15</title>
<g id="a_Node000015"><a xlink:title=" ">
<polygon fill="#e0e0e0" stroke="#999999" points="1020.62,-80.12 948.38,-80.12 948.38,-60.88 1020.62,-60.88 1020.62,-80.12"/>
<text text-anchor="middle" x="984.5" y="-66.62" font-family="Helvetica,sans-Serif" font-size="10.00">Eigen/Dense</text>
</a>
</g>
</g>
<!-- Node14&#45;&gt;Node15 -->
<g id="edge19_Node000014_Node000015" class="edge">
<title>Node14&#45;&gt;Node15</title>
<g id="a_edge19_Node000014_Node000015"><a xlink:title=" ">
<path fill="none" stroke="#63b8ff" d="M754.07,-123.7C756.92,-123.04 759.74,-122.38 762.5,-121.75 822.8,-107.88 892.4,-92.18 937.35,-82.07"/>
<polygon fill="#63b8ff" stroke="#63b8ff" points="937.96,-85.3 946.95,-79.69 936.42,-78.47 937.96,-85.3"/>
</a>
</g>
</g>
<!-- Node16&#45;&gt;Node2 -->
<g id="edge24_Node000016_Node000002" class="edge">
<title>Node16&#45;&gt;Node2</title>
<g id="a_edge24_Node000016_Node000002"><a xlink:title=" ">
<path fill="none" stroke="#63b8ff" d="M516.35,-127.03C504.8,-116.83 485.71,-99.96 471.6,-87.49"/>
<polygon fill="#63b8ff" stroke="#63b8ff" points="474.38,-85.39 464.56,-81.39 469.74,-90.64 474.38,-85.39"/>
</a>
</g>
</g>
<!-- Node16&#45;&gt;Node3 -->
<g id="edge25_Node000016_Node000003" class="edge">
<title>Node16&#45;&gt;Node3</title>
<g id="a_edge25_Node000016_Node000003"><a xlink:title=" ">
<path fill="none" stroke="#63b8ff" d="M551.48,-126.9C577.82,-117.3 620.03,-101.92 653.29,-89.8"/>
<polygon fill="#63b8ff" stroke="#63b8ff" points="654.1,-92.86 662.3,-86.15 651.71,-86.28 654.1,-92.86"/>
</a>
</g>
</g>
<!-- Node17 -->
<g id="Node000017" class="node">
<title>Node17</title>
<g id="a_Node000017"><a xlink:title=" ">
<polygon fill="#e0e0e0" stroke="#999999" points="580.62,-80.12 532.38,-80.12 532.38,-60.88 580.62,-60.88 580.62,-80.12"/>
<text text-anchor="middle" x="556.5" y="-66.62" font-family="Helvetica,sans-Serif" font-size="10.00">random</text>
</a>
</g>
</g>
<!-- Node16&#45;&gt;Node17 -->
<g id="edge26_Node000016_Node000017" class="edge">
<title>Node16&#45;&gt;Node17</title>
<g id="a_edge26_Node000016_Node000017"><a xlink:title=" ">
<path fill="none" stroke="#63b8ff" d="M530.67,-127.03C535.1,-117.5 542.24,-102.16 547.89,-90.02"/>
<polygon fill="#63b8ff" stroke="#63b8ff" points="551.32,-91.94 552.36,-81.39 544.97,-88.98 551.32,-91.94"/>
</a>
</g>
</g>
<!-- Node18&#45;&gt;Node2 -->
<g id="edge29_Node000018_Node000002" class="edge">
<title>Node18&#45;&gt;Node2</title>
<g id="a_edge29_Node000018_Node000002"><a xlink:title=" ">
<path fill="none" stroke="#63b8ff" d="M782.49,-198.91C675.53,-192.32 472.06,-176.71 450.5,-152.25 435.9,-135.68 440.39,-108.95 446.01,-90.83"/>
<polygon fill="#63b8ff" stroke="#63b8ff" points="449.6,-92.18 449.59,-81.59 442.99,-89.87 449.6,-92.18"/>
</a>
</g>
</g>
<!-- Node18&#45;&gt;Node3 -->
<g id="edge30_Node000018_Node000003" class="edge">
<title>Node18&#45;&gt;Node3</title>
<g id="a_edge30_Node000018_Node000003"><a xlink:title=" ">
<path fill="none" stroke="#63b8ff" d="M847.91,-193.56C848.18,-177.29 846.43,-142.61 828.5,-121.75 819.28,-111.01 790.83,-99.2 763.4,-89.72"/>
<polygon fill="#63b8ff" stroke="#63b8ff" points="764.58,-86.09 753.98,-86.21 762.34,-92.72 764.58,-86.09"/>
</a>
</g>
</g>
<!-- Node18&#45;&gt;Node15 -->
<g id="edge28_Node000018_Node000015" class="edge">
<title>Node18&#45;&gt;Node15</title>
<g id="a_edge28_Node000018_Node000015"><a xlink:title=" ">
<path fill="none" stroke="#63b8ff" d="M912.47,-197.33C973.35,-190.97 1057.96,-177.74 1078.5,-152.25 1100.68,-124.73 1055.68,-99.28 1020.59,-84.57"/>
<polygon fill="#63b8ff" stroke="#63b8ff" points="1022.15,-81.02 1011.56,-80.54 1019.54,-87.52 1022.15,-81.02"/>
</a>
</g>
</g>
<!-- Node19 -->
<g id="Node000019" class="node">
<title>Node19</title>
<g id="a_Node000019"><a xlink:title=" ">
<polygon fill="#e0e0e0" stroke="#999999" points="993.12,-146.62 875.88,-146.62 875.88,-127.38 993.12,-127.38 993.12,-146.62"/>
<text text-anchor="middle" x="934.5" y="-133.12" font-family="Helvetica,sans-Serif" font-size="10.00">boost/preprocessor.hpp</text>
</a>
</g>
</g>
<!-- Node18&#45;&gt;Node19 -->
<g id="edge31_Node000018_Node000019" class="edge">
<title>Node18&#45;&gt;Node19</title>
<g id="a_edge31_Node000018_Node000019"><a xlink:title=" ">
<path fill="none" stroke="#63b8ff" d="M859.6,-193.53C873.54,-183.19 896.71,-166.02 913.59,-153.5"/>
<polygon fill="#63b8ff" stroke="#63b8ff" points="915.28,-155.87 921.23,-147.1 911.11,-150.24 915.28,-155.87"/>
</a>
</g>
</g>
<!-- Node20 -->
<g id="Node000020" class="node">
<title>Node20</title>
<g id="a_Node000020"><a xlink:title=" ">
<polygon fill="#e0e0e0" stroke="#999999" points="1069.88,-146.62 1011.12,-146.62 1011.12,-127.38 1069.88,-127.38 1069.88,-146.62"/>
<text text-anchor="middle" x="1040.5" y="-133.12" font-family="Helvetica,sans-Serif" font-size="10.00">stdexcept</text>
</a>
</g>
</g>
<!-- Node18&#45;&gt;Node20 -->
<g id="edge32_Node000018_Node000020" class="edge">
<title>Node18&#45;&gt;Node20</title>
<g id="a_edge32_Node000018_Node000020"><a xlink:title=" ">
<path fill="none" stroke="#63b8ff" d="M876.77,-193.44C908.03,-183.67 958.97,-167.46 1002.5,-152.25 1003.96,-151.74 1005.44,-151.22 1006.94,-150.68"/>
<polygon fill="#63b8ff" stroke="#63b8ff" points="1007.65,-153.78 1015.84,-147.06 1005.25,-147.2 1007.65,-153.78"/>
</a>
</g>
</g>
<!-- Node21 -->
<g id="Node000021" class="node">
<title>Node21</title>
<g id="a_Node000021"><a xlink:href="_state_8h.html" target="_top" xlink:title="SPICE Interface functions.">
<polygon fill="white" stroke="#666666" points="819.25,-146.62 771.75,-146.62 771.75,-127.38 819.25,-127.38 819.25,-146.62"/>
<text text-anchor="middle" x="795.5" y="-133.12" font-family="Helvetica,sans-Serif" font-size="10.00">State.h</text>
</a>
</g>
</g>
<!-- Node18&#45;&gt;Node21 -->
<g id="edge33_Node000018_Node000021" class="edge">
<title>Node18&#45;&gt;Node21</title>
<g id="a_edge33_Node000018_Node000021"><a xlink:title=" ">
<path fill="none" stroke="#63b8ff" d="M840.27,-193.53C832.35,-183.71 819.46,-167.73 809.54,-155.42"/>
<polygon fill="#63b8ff" stroke="#63b8ff" points="811.67,-153.48 802.67,-147.89 806.22,-157.87 811.67,-153.48"/>
</a>
</g>
</g>
<!-- Node21&#45;&gt;Node2 -->
<g id="edge34_Node000021_Node000002" class="edge">
<title>Node21&#45;&gt;Node2</title>
<g id="a_edge34_Node000021_Node000002"><a xlink:title=" ">
<path fill="none" stroke="#63b8ff" d="M776.96,-127C772.32,-125.03 767.3,-123.12 762.5,-121.75 659.22,-92.21 629.28,-104.47 523.5,-85.75 518.14,-84.8 512.56,-83.76 507,-82.68"/>
<polygon fill="#63b8ff" stroke="#63b8ff" points="507.86,-79.09 497.38,-80.59 506.51,-85.96 507.86,-79.09"/>
</a>
</g>
</g>
<!-- Node21&#45;&gt;Node3 -->
<g id="edge35_Node000021_Node000003" class="edge">
<title>Node21&#45;&gt;Node3</title>
<g id="a_edge35_Node000021_Node000003"><a xlink:title=" ">
<path fill="none" stroke="#63b8ff" d="M782.71,-127.03C769.96,-118.09 749.93,-104.05 733.2,-92.32"/>
<polygon fill="#63b8ff" stroke="#63b8ff" points="735.51,-88.97 725.31,-86.09 731.49,-94.7 735.51,-88.97"/>
</a>
</g>
</g>
<!-- Node22 -->
<g id="Node000022" class="node">
<title>Node22</title>
<g id="a_Node000022"><a xlink:title=" ">
<polygon fill="#e0e0e0" stroke="#999999" points="817,-80.12 774,-80.12 774,-60.88 817,-60.88 817,-80.12"/>
<text text-anchor="middle" x="795.5" y="-66.62" font-family="Helvetica,sans-Serif" font-size="10.00">vector</text>
</a>
</g>
</g>
<!-- Node21&#45;&gt;Node22 -->
<g id="edge36_Node000021_Node000022" class="edge">
<title>Node21&#45;&gt;Node22</title>
<g id="a_edge36_Node000021_Node000022"><a xlink:title=" ">
<path fill="none" stroke="#63b8ff" d="M795.5,-127.03C795.5,-117.79 795.5,-103.08 795.5,-91.13"/>
<polygon fill="#63b8ff" stroke="#63b8ff" points="799,-91.39 795.5,-81.39 792,-91.39 799,-91.39"/>
</a>
</g>
</g>
</g>
</svg>

<g id="navigator" transform="translate(0 0)" fill="#404254">
  <rect fill="#f2f5e9" fill-opacity="0.5" stroke="#606060" stroke-width=".5" x="0" y="0" width="60" height="60"/>
  <use id="zoomplus" xlink:href="#zoomPlus" x="17" y="9" onmousedown="handleZoom(evt,'in')"/>
  <use id="zoomminus" xlink:href="#zoomMin" x="42" y="9" onmousedown="handleZoom(evt,'out')"/>
  <use id="reset" xlink:href="#resetDef" x="30" y="36" onmousedown="handleReset()"/>
   <use id="arrowup" xlink:href="#arrowUp" x="0" y="0" onmousedown="handlePan(0,-1)"/>
  <use id="arrowright" xlink:href="#arrowRight" x="0" y="0" onmousedown="handlePan(1,0)"/>
  <use id="arrowdown" xlink:href="#arrowDown" x="0" y="0" onmousedown="handlePan(0,1)"/>
  <use id="arrowleft" xlink:href="#arrowLeft" x="0" y="0" onmousedown="handlePan(-1,0)"/>
</g>
<svg viewBox="0 0 15 15" width="100%" height="30px" preserveAspectRatio="xMaxYMin meet">
 <g id="arrow_out" transform="scale(0.3 0.3)">
  <a xlink:href="_comm_device_8h__incl_org.svg" target="_base">
   <rect id="button" ry="5" rx="5" y="6" x="6" height="38" width="38"
        fill="#f2f5e9" fill-opacity="0.5" stroke="#606060" stroke-width="1.0"/>
   <path id="arrow"
     d="M 11.500037,31.436501 C 11.940474,20.09759 22.043105,11.32322 32.158766,21.979434 L 37.068811,17.246167 C 37.068811,17.246167 37.088388,32 37.088388,32 L 22.160133,31.978069 C 22.160133,31.978069 26.997745,27.140456 26.997745,27.140456 C 18.528582,18.264221 13.291696,25.230495 11.500037,31.436501 z"
     style="fill:#404040;"/>
  </a>
 </g>
</svg>

<style type='text/css'>
<![CDATA[
[data-mouse-over-selected='false'] { opacity: 0.7; }
[data-mouse-over-selected='true']  { opacity: 1.0; }
]]>
</style>
<script type="application/ecmascript"><![CDATA[
document.addEventListener('DOMContentLoaded', (event) => {
  highlightEdges();
  highlightAdjacentNodes();
});
]]></script>
</svg>
