<?xml version="1.0" encoding="UTF-8" standalone="no"?>
<!DOCTYPE svg PUBLIC "-//W3C//DTD SVG 1.1//EN"
 "http://www.w3.org/Graphics/SVG/1.1/DTD/svg11.dtd">
<!-- Generated by graphviz version 8.1.0 (20230707.0739)
 -->
<!-- Title: DynamicsAnalytical.cpp Pages: 1 -->
<!--zoomable 271 -->

<svg id="main" version="1.1" xmlns="http://www.w3.org/2000/svg" xmlns:xlink="http://www.w3.org/1999/xlink" xml:space="preserve" onload="init(evt)">
<style type="text/css"><![CDATA[
.node, .edge {opacity: 0.7;}
.node.selected, .edge.selected {opacity: 1;}
.edge:hover path { stroke: red; }
.edge:hover polygon { stroke: red; fill: red; }
]]></style>

<defs>
  <circle id="rim" cx="0" cy="0" r="7"/>
  <circle id="rim2" cx="0" cy="0" r="3.5"/>
  <g id="zoomPlus">
    <use xlink:href="#rim" fill="#404040"><set attributeName="fill" to="#808080" begin="zoomplus.mouseover" end="zoomplus.mouseout"/></use>
    <path d="M-4,0h8M0,-4v8" fill="none" stroke="white" stroke-width="1.5" pointer-events="none"/>
  </g>
  <g id="zoomMin">
    <use xlink:href="#rim" fill="#404040"><set attributeName="fill" to="#808080" begin="zoomminus.mouseover" end="zoomminus.mouseout"/></use>
    <path d="M-4,0h8" fill="none" stroke="white" stroke-width="1.5" pointer-events="none"/>
  </g>
  <g id="arrowUp" transform="translate(30 24)">
    <use xlink:href="#rim"/>
    <path pointer-events="none" fill="none" stroke="white" stroke-width="1.5" d="M0,-3.0v7 M-2.5,-0.5L0,-3.0L2.5,-0.5"/>
  </g>
  <g id="arrowRight" transform="rotate(90) translate(36 -43)">
    <use xlink:href="#rim"/>
    <path pointer-events="none" fill="none" stroke="white" stroke-width="1.5" d="M0,-3.0v7 M-2.5,-0.5L0,-3.0L2.5,-0.5"/>
  </g>
  <g id="arrowDown" transform="rotate(180) translate(-30 -48)">
    <use xlink:href="#rim"/>
    <path pointer-events="none" fill="none" stroke="white" stroke-width="1.5" d="M0,-3.0v7 M-2.5,-0.5L0,-3.0L2.5,-0.5"/>
  </g>
  <g id="arrowLeft" transform="rotate(270) translate(-36 17)">
    <use xlink:href="#rim"/>
    <path pointer-events="none" fill="none" stroke="white" stroke-width="1.5" d="M0,-3.0v7 M-2.5,-0.5L0,-3.0L2.5,-0.5"/>
  </g>
  <g id="resetDef">
    <use xlink:href="#rim2" fill="#404040"><set attributeName="fill" to="#808080" begin="reset.mouseover" end="reset.mouseout"/></use>
  </g>
</defs>
<script type="application/ecmascript">
var viewWidth = 1735;
var viewHeight = 271;
var sectionId = 'dynsection-0';
</script>
<script type="application/ecmascript" xlink:href="svg.min.js"/>
<svg id="graph" class="graph">
<g id="viewport">
<title>DynamicsAnalytical.cpp</title>
<!-- Node1 -->
<g id="Node000001" class="node">
<title>Node1</title>
<g id="a_Node000001"><a xlink:title="Analytical orbit dynamics implementation.">
<polygon fill="#999999" stroke="#666666" points="871.2,-262.75 749.45,-262.75 749.45,-243.5 871.2,-243.5 871.2,-262.75"/>
<text text-anchor="middle" x="810.32" y="-249.25" font-family="Helvetica,sans-Serif" font-size="10.00">DynamicsAnalytical.cpp</text>
</a>
</g>
</g>
<!-- Node2 -->
<g id="Node000002" class="node">
<title>Node2</title>
<g id="a_Node000002"><a xlink:title=" ">
<polygon fill="#e0e0e0" stroke="#999999" points="757.7,-201.88 698.95,-201.88 698.95,-182.62 757.7,-182.62 757.7,-201.88"/>
<text text-anchor="middle" x="728.32" y="-188.38" font-family="Helvetica,sans-Serif" font-size="10.00">Eigen/QR</text>
</a>
</g>
</g>
<!-- Node1&#45;&gt;Node2 -->
<g id="edge1_Node000001_Node000002" class="edge">
<title>Node1&#45;&gt;Node2</title>
<g id="a_edge1_Node000001_Node000002"><a xlink:title=" ">
<path fill="none" stroke="#63b8ff" d="M797.87,-243.18C785.11,-234.02 765.01,-219.59 749.7,-208.6"/>
<polygon fill="#63b8ff" stroke="#63b8ff" points="752.06,-205.27 741.89,-202.28 747.98,-210.95 752.06,-205.27"/>
</a>
</g>
</g>
<!-- Node3 -->
<g id="Node000003" class="node">
<title>Node3</title>
<g id="a_Node000003"><a xlink:href="_dynamics_8h.html" target="_top" xlink:title="Interface for Dynamics.">
<polygon fill="white" stroke="#666666" points="844.57,-201.88 776.07,-201.88 776.07,-182.62 844.57,-182.62 844.57,-201.88"/>
<text text-anchor="middle" x="810.32" y="-188.38" font-family="Helvetica,sans-Serif" font-size="10.00">Dynamics.h</text>
</a>
</g>
</g>
<!-- Node1&#45;&gt;Node3 -->
<g id="edge2_Node000001_Node000003" class="edge">
<title>Node1&#45;&gt;Node3</title>
<g id="a_edge2_Node000001_Node000003"><a xlink:title=" ">
<path fill="none" stroke="#63b8ff" d="M810.32,-243.18C810.32,-235.23 810.32,-223.31 810.32,-213.12"/>
<polygon fill="#63b8ff" stroke="#63b8ff" points="813.82,-213.28 810.32,-203.28 806.82,-213.28 813.82,-213.28"/>
</a>
</g>
</g>
<!-- Node26 -->
<g id="Node000026" class="node">
<title>Node26</title>
<g id="a_Node000026"><a xlink:href="_orbit_state_utils_8h.html" target="_top" xlink:title="Util functions for state conversions.">
<polygon fill="white" stroke="#666666" points="1297.82,-207.5 1176.82,-207.5 1176.82,-177 1297.82,-177 1297.82,-207.5"/>
<text text-anchor="start" x="1184.82" y="-194" font-family="Helvetica,sans-Serif" font-size="10.00">lupnt/physics/OrbitState</text>
<text text-anchor="middle" x="1237.32" y="-182.75" font-family="Helvetica,sans-Serif" font-size="10.00">Utils.h</text>
</a>
</g>
</g>
<!-- Node1&#45;&gt;Node26 -->
<g id="edge42_Node000001_Node000026" class="edge">
<title>Node1&#45;&gt;Node26</title>
<g id="a_edge42_Node000001_Node000026"><a xlink:title=" ">
<path fill="none" stroke="#63b8ff" d="M871.5,-243.69C949.3,-232.96 1083.39,-214.47 1165.82,-203.11"/>
<polygon fill="#63b8ff" stroke="#63b8ff" points="1166.17,-206.46 1175.6,-201.62 1165.22,-199.52 1166.17,-206.46"/>
</a>
</g>
</g>
<!-- Node4 -->
<g id="Node000004" class="node">
<title>Node4</title>
<g id="a_Node000004"><a xlink:title=" ">
<polygon fill="#e0e0e0" stroke="#999999" points="891.82,-24.88 770.82,-24.88 770.82,-5.63 891.82,-5.63 891.82,-24.88"/>
<text text-anchor="middle" x="831.32" y="-11.38" font-family="Helvetica,sans-Serif" font-size="10.00">autodiff/forward/real.hpp</text>
</a>
</g>
</g>
<!-- Node3&#45;&gt;Node4 -->
<g id="edge3_Node000003_Node000004" class="edge">
<title>Node3&#45;&gt;Node4</title>
<g id="a_edge3_Node000003_Node000004"><a xlink:title=" ">
<path fill="none" stroke="#63b8ff" d="M812.72,-182.31C817.44,-164.23 827.75,-121.99 831.32,-85.75 832.97,-69.03 832.83,-49.94 832.35,-36.01"/>
<polygon fill="#63b8ff" stroke="#63b8ff" points="835.82,-36.11 831.89,-26.27 828.82,-36.42 835.82,-36.11"/>
</a>
</g>
</g>
<!-- Node5 -->
<g id="Node000005" class="node">
<title>Node5</title>
<g id="a_Node000005"><a xlink:href="_gravity_field_8h.html" target="_top" xlink:title="Gravity field model and acceleration calculation.">
<polygon fill="white" stroke="#666666" points="300.2,-141 154.45,-141 154.45,-121.75 300.2,-121.75 300.2,-141"/>
<text text-anchor="middle" x="227.32" y="-127.5" font-family="Helvetica,sans-Serif" font-size="10.00">lupnt/dynamics/GravityField.h</text>
</a>
</g>
</g>
<!-- Node3&#45;&gt;Node5 -->
<g id="edge4_Node000003_Node000005" class="edge">
<title>Node3&#45;&gt;Node5</title>
<g id="a_edge4_Node000003_Node000005"><a xlink:title=" ">
<path fill="none" stroke="#63b8ff" d="M785.92,-182.24C779.61,-180.22 772.78,-178.29 766.32,-177 607.45,-145.14 417.83,-135.96 311.12,-133.35"/>
<polygon fill="#63b8ff" stroke="#63b8ff" points="311.5,-129.84 301.43,-133.11 311.34,-136.84 311.5,-129.84"/>
</a>
</g>
</g>
<!-- Node18 -->
<g id="Node000018" class="node">
<title>Node18</title>
<g id="a_Node000018"><a xlink:href="_propagator_8h.html" target="_top" xlink:title="Numerical Propagator.">
<polygon fill="white" stroke="#666666" points="782.2,-141 642.45,-141 642.45,-121.75 782.2,-121.75 782.2,-141"/>
<text text-anchor="middle" x="712.32" y="-127.5" font-family="Helvetica,sans-Serif" font-size="10.00">lupnt/dynamics/Propagator.h</text>
</a>
</g>
</g>
<!-- Node3&#45;&gt;Node18 -->
<g id="edge22_Node000003_Node000018" class="edge">
<title>Node3&#45;&gt;Node18</title>
<g id="a_edge22_Node000003_Node000018"><a xlink:title=" ">
<path fill="none" stroke="#63b8ff" d="M795.44,-182.31C779.82,-172.93 755.04,-158.04 736.59,-146.95"/>
<polygon fill="#63b8ff" stroke="#63b8ff" points="738.72,-143.55 728.35,-141.4 735.12,-149.55 738.72,-143.55"/>
</a>
</g>
</g>
<!-- Node20 -->
<g id="Node000020" class="node">
<title>Node20</title>
<g id="a_Node000020"><a xlink:href="_integrator_8h.html" target="_top" xlink:title="Integrator interfaces.">
<polygon fill="white" stroke="#666666" points="630.07,-85.75 498.57,-85.75 498.57,-66.5 630.07,-66.5 630.07,-85.75"/>
<text text-anchor="middle" x="564.32" y="-72.25" font-family="Helvetica,sans-Serif" font-size="10.00">lupnt/numerics/Integrator.h</text>
</a>
</g>
</g>
<!-- Node3&#45;&gt;Node20 -->
<g id="edge30_Node000003_Node000020" class="edge">
<title>Node3&#45;&gt;Node20</title>
<g id="a_edge30_Node000003_Node000020"><a xlink:title=" ">
<path fill="none" stroke="#63b8ff" d="M782.93,-182.15C777.44,-180.39 771.71,-178.6 766.32,-177 707.62,-159.56 686.9,-170.66 633.32,-141 611.56,-128.95 591.26,-108.62 578.39,-94.13"/>
<polygon fill="#63b8ff" stroke="#63b8ff" points="580.56,-92.29 571.39,-86.99 575.26,-96.85 580.56,-92.29"/>
</a>
</g>
</g>
<!-- Node21 -->
<g id="Node000021" class="node">
<title>Node21</title>
<g id="a_Node000021"><a xlink:href="_orbit_state_8h.html" target="_top" xlink:title="Orbit states.">
<polygon fill="white" stroke="#666666" points="1076.95,-141 947.7,-141 947.7,-121.75 1076.95,-121.75 1076.95,-141"/>
<text text-anchor="middle" x="1012.32" y="-127.5" font-family="Helvetica,sans-Serif" font-size="10.00">lupnt/physics/OrbitState.h</text>
</a>
</g>
</g>
<!-- Node3&#45;&gt;Node21 -->
<g id="edge31_Node000003_Node000021" class="edge">
<title>Node3&#45;&gt;Node21</title>
<g id="a_edge31_Node000003_Node000021"><a xlink:title=" ">
<path fill="none" stroke="#63b8ff" d="M841.44,-182.18C876.14,-172.07 932.42,-155.66 970.84,-144.47"/>
<polygon fill="#63b8ff" stroke="#63b8ff" points="971.55,-147.61 980.17,-141.46 969.59,-140.89 971.55,-147.61"/>
</a>
</g>
</g>
<!-- Node25 -->
<g id="Node000025" class="node">
<title>Node25</title>
<g id="a_Node000025"><a xlink:href="_state_8h.html" target="_top" xlink:title="SPICE Interface functions.">
<polygon fill="white" stroke="#666666" points="803.07,-85.75 755.57,-85.75 755.57,-66.5 803.07,-66.5 803.07,-85.75"/>
<text text-anchor="middle" x="779.32" y="-72.25" font-family="Helvetica,sans-Serif" font-size="10.00">State.h</text>
</a>
</g>
</g>
<!-- Node3&#45;&gt;Node25 -->
<g id="edge41_Node000003_Node000025" class="edge">
<title>Node3&#45;&gt;Node25</title>
<g id="a_edge41_Node000003_Node000025"><a xlink:title=" ">
<path fill="none" stroke="#63b8ff" d="M807.89,-182.29C802.89,-163.88 791.35,-121.39 784.56,-96.42"/>
<polygon fill="#63b8ff" stroke="#63b8ff" points="787.74,-95.77 781.74,-87.04 780.99,-97.61 787.74,-95.77"/>
</a>
</g>
</g>
<!-- Node5&#45;&gt;Node4 -->
<g id="edge11_Node000005_Node000004" class="edge">
<title>Node5&#45;&gt;Node4</title>
<g id="a_edge11_Node000005_Node000004"><a xlink:title=" ">
<path fill="none" stroke="#63b8ff" d="M296.36,-121.32C341.05,-114.31 400.05,-102.86 450.32,-85.75 468.62,-79.52 470.87,-72.25 489.32,-66.5 538.31,-51.23 674.45,-33.94 759.46,-24.14"/>
<polygon fill="#63b8ff" stroke="#63b8ff" points="759.79,-27.51 769.33,-22.89 758.99,-20.55 759.79,-27.51"/>
</a>
</g>
</g>
<!-- Node6 -->
<g id="Node000006" class="node">
<title>Node6</title>
<g id="a_Node000006"><a xlink:title=" ">
<polygon fill="#e0e0e0" stroke="#999999" points="185.2,-85.75 129.45,-85.75 129.45,-66.5 185.2,-66.5 185.2,-85.75"/>
<text text-anchor="middle" x="157.32" y="-72.25" font-family="Helvetica,sans-Serif" font-size="10.00">algorithm</text>
</a>
</g>
</g>
<!-- Node5&#45;&gt;Node6 -->
<g id="edge5_Node000005_Node000006" class="edge">
<title>Node5&#45;&gt;Node6</title>
<g id="a_edge5_Node000005_Node000006"><a xlink:title=" ">
<path fill="none" stroke="#63b8ff" d="M215.45,-121.34C205.13,-113.49 189.95,-101.95 177.7,-92.62"/>
<polygon fill="#63b8ff" stroke="#63b8ff" points="180.1,-89.29 170.02,-86.02 175.86,-94.86 180.1,-89.29"/>
</a>
</g>
</g>
<!-- Node7 -->
<g id="Node000007" class="node">
<title>Node7</title>
<g id="a_Node000007"><a xlink:title=" ">
<polygon fill="#e0e0e0" stroke="#999999" points="251.82,-85.75 202.82,-85.75 202.82,-66.5 251.82,-66.5 251.82,-85.75"/>
<text text-anchor="middle" x="227.32" y="-72.25" font-family="Helvetica,sans-Serif" font-size="10.00">fstream</text>
</a>
</g>
</g>
<!-- Node5&#45;&gt;Node7 -->
<g id="edge6_Node000005_Node000007" class="edge">
<title>Node5&#45;&gt;Node7</title>
<g id="a_edge6_Node000005_Node000007"><a xlink:title=" ">
<path fill="none" stroke="#63b8ff" d="M227.32,-121.58C227.32,-114.92 227.32,-105.49 227.32,-97.03"/>
<polygon fill="#63b8ff" stroke="#63b8ff" points="230.82,-97.11 227.32,-87.11 223.82,-97.11 230.82,-97.11"/>
</a>
</g>
</g>
<!-- Node8 -->
<g id="Node000008" class="node">
<title>Node8</title>
<g id="a_Node000008"><a xlink:title=" ">
<polygon fill="#e0e0e0" stroke="#999999" points="307.07,-24.88 253.57,-24.88 253.57,-5.63 307.07,-5.63 307.07,-24.88"/>
<text text-anchor="middle" x="280.32" y="-11.38" font-family="Helvetica,sans-Serif" font-size="10.00">iostream</text>
</a>
</g>
</g>
<!-- Node5&#45;&gt;Node8 -->
<g id="edge7_Node000005_Node000008" class="edge">
<title>Node5&#45;&gt;Node8</title>
<g id="a_edge7_Node000005_Node000008"><a xlink:title=" ">
<path fill="none" stroke="#63b8ff" d="M154.12,-130.36C78.49,-127.78 -23.24,-115.54 17.32,-66.5 45.47,-32.47 176.72,-21.27 242.51,-17.76"/>
<polygon fill="#63b8ff" stroke="#63b8ff" points="242.43,-21.22 252.24,-17.23 242.08,-14.23 242.43,-21.22"/>
</a>
</g>
</g>
<!-- Node9 -->
<g id="Node000009" class="node">
<title>Node9</title>
<g id="a_Node000009"><a xlink:title=" ">
<polygon fill="#e0e0e0" stroke="#999999" points="110.95,-85.75 59.7,-85.75 59.7,-66.5 110.95,-66.5 110.95,-85.75"/>
<text text-anchor="middle" x="85.32" y="-72.25" font-family="Helvetica,sans-Serif" font-size="10.00">sstream</text>
</a>
</g>
</g>
<!-- Node5&#45;&gt;Node9 -->
<g id="edge8_Node000005_Node000009" class="edge">
<title>Node5&#45;&gt;Node9</title>
<g id="a_edge8_Node000005_Node000009"><a xlink:title=" ">
<path fill="none" stroke="#63b8ff" d="M203.23,-121.34C180.28,-112.74 145.5,-99.69 119.65,-90"/>
<polygon fill="#63b8ff" stroke="#63b8ff" points="121.12,-86.44 110.53,-86.2 118.66,-92.99 121.12,-86.44"/>
</a>
</g>
</g>
<!-- Node10 -->
<g id="Node000010" class="node">
<title>Node10</title>
<g id="a_Node000010"><a xlink:title=" ">
<polygon fill="#e0e0e0" stroke="#999999" points="1196.32,-24.88 1156.32,-24.88 1156.32,-5.63 1196.32,-5.63 1196.32,-24.88"/>
<text text-anchor="middle" x="1176.32" y="-11.38" font-family="Helvetica,sans-Serif" font-size="10.00">string</text>
</a>
</g>
</g>
<!-- Node5&#45;&gt;Node10 -->
<g id="edge9_Node000005_Node000010" class="edge">
<title>Node5&#45;&gt;Node10</title>
<g id="a_edge9_Node000005_Node000010"><a xlink:title=" ">
<path fill="none" stroke="#63b8ff" d="M300.7,-130.33C384.32,-128.47 524.31,-119.87 639.32,-85.75 657.47,-80.37 659.15,-71.82 677.32,-66.5 765.97,-40.57 1050.39,-23.11 1145.22,-17.89"/>
<polygon fill="#63b8ff" stroke="#63b8ff" points="1145.27,-21.33 1155.07,-17.3 1144.89,-14.34 1145.27,-21.33"/>
</a>
</g>
</g>
<!-- Node11 -->
<g id="Node000011" class="node">
<title>Node11</title>
<g id="a_Node000011"><a xlink:title=" ">
<polygon fill="#e0e0e0" stroke="#999999" points="106.82,-24.88 63.82,-24.88 63.82,-5.63 106.82,-5.63 106.82,-24.88"/>
<text text-anchor="middle" x="85.32" y="-11.38" font-family="Helvetica,sans-Serif" font-size="10.00">vector</text>
</a>
</g>
</g>
<!-- Node5&#45;&gt;Node11 -->
<g id="edge10_Node000005_Node000011" class="edge">
<title>Node5&#45;&gt;Node11</title>
<g id="a_edge10_Node000005_Node000011"><a xlink:title=" ">
<path fill="none" stroke="#63b8ff" d="M153.98,-125.46C96.77,-119.92 23.97,-108.52 5.32,-85.75 -13.6,-62.64 23.65,-40.89 53.44,-28.07"/>
<polygon fill="#63b8ff" stroke="#63b8ff" points="54.64,-30.95 62.56,-23.92 51.98,-24.47 54.64,-30.95"/>
</a>
</g>
</g>
<!-- Node12 -->
<g id="Node000012" class="node">
<title>Node12</title>
<g id="a_Node000012"><a xlink:title=" ">
<polygon fill="#e0e0e0" stroke="#999999" points="683.45,-30.5 581.2,-30.5 581.2,0 683.45,0 683.45,-30.5"/>
<text text-anchor="start" x="589.2" y="-17" font-family="Helvetica,sans-Serif" font-size="10.00">autodiff/forward/real</text>
<text text-anchor="middle" x="632.32" y="-5.75" font-family="Helvetica,sans-Serif" font-size="10.00">/eigen.hpp</text>
</a>
</g>
</g>
<!-- Node5&#45;&gt;Node12 -->
<g id="edge12_Node000005_Node000012" class="edge">
<title>Node5&#45;&gt;Node12</title>
<g id="a_edge12_Node000005_Node000012"><a xlink:title=" ">
<path fill="none" stroke="#63b8ff" d="M154.03,-126.18C91.03,-119.95 15.43,-104.54 50.32,-66.5 59.04,-56.99 421.78,-30.84 570.1,-20.52"/>
<polygon fill="#63b8ff" stroke="#63b8ff" points="570.09,-23.96 579.82,-19.77 569.6,-16.98 570.09,-23.96"/>
</a>
</g>
</g>
<!-- Node13 -->
<g id="Node000013" class="node">
<title>Node13</title>
<g id="a_Node000013"><a xlink:href="_user_file_path_8h.html" target="_top" xlink:title="File access utils.">
<polygon fill="white" stroke="#666666" points="1555.82,-85.75 1428.82,-85.75 1428.82,-66.5 1555.82,-66.5 1555.82,-85.75"/>
<text text-anchor="middle" x="1492.32" y="-72.25" font-family="Helvetica,sans-Serif" font-size="10.00">lupnt/core/UserFilePath.h</text>
</a>
</g>
</g>
<!-- Node5&#45;&gt;Node13 -->
<g id="edge13_Node000005_Node000013" class="edge">
<title>Node5&#45;&gt;Node13</title>
<g id="a_edge13_Node000005_Node000013"><a xlink:title=" ">
<path fill="none" stroke="#63b8ff" d="M300.52,-127.46C474.67,-120.51 927.31,-102.29 1305.32,-85.75 1342.38,-84.13 1383.57,-82.24 1417.84,-80.64"/>
<polygon fill="#63b8ff" stroke="#63b8ff" points="1417.88,-84.1 1427.71,-80.13 1417.56,-77.1 1417.88,-84.1"/>
</a>
</g>
</g>
<!-- Node16 -->
<g id="Node000016" class="node">
<title>Node16</title>
<g id="a_Node000016"><a xlink:href="_math_utils_8h.html" target="_top" xlink:title=" ">
<polygon fill="white" stroke="#666666" points="441.82,-85.75 308.82,-85.75 308.82,-66.5 441.82,-66.5 441.82,-85.75"/>
<text text-anchor="middle" x="375.32" y="-72.25" font-family="Helvetica,sans-Serif" font-size="10.00">lupnt/numerics/MathUtils.h</text>
</a>
</g>
</g>
<!-- Node5&#45;&gt;Node16 -->
<g id="edge18_Node000005_Node000016" class="edge">
<title>Node5&#45;&gt;Node16</title>
<g id="a_edge18_Node000005_Node000016"><a xlink:title=" ">
<path fill="none" stroke="#63b8ff" d="M252.43,-121.34C276.45,-112.7 312.93,-99.57 339.9,-89.87"/>
<polygon fill="#63b8ff" stroke="#63b8ff" points="340.87,-92.88 349.09,-86.2 338.5,-86.29 340.87,-92.88"/>
</a>
</g>
</g>
<!-- Node13&#45;&gt;Node8 -->
<g id="edge15_Node000013_Node000008" class="edge">
<title>Node13&#45;&gt;Node8</title>
<g id="a_edge15_Node000013_Node000008"><a xlink:title=" ">
<path fill="none" stroke="#63b8ff" d="M1428.71,-72.05C1392.54,-70.34 1346.4,-68.22 1305.32,-66.5 877.4,-48.63 766.92,-86.72 342.32,-30.5 334.34,-29.44 325.88,-27.83 317.86,-26.07"/>
<polygon fill="#63b8ff" stroke="#63b8ff" points="318.82,-22.47 308.28,-23.61 317.23,-29.29 318.82,-22.47"/>
</a>
</g>
</g>
<!-- Node13&#45;&gt;Node10 -->
<g id="edge17_Node000013_Node000010" class="edge">
<title>Node13&#45;&gt;Node10</title>
<g id="a_edge17_Node000013_Node000010"><a xlink:title=" ">
<path fill="none" stroke="#63b8ff" d="M1443.64,-66.05C1377.86,-53.8 1262.48,-32.3 1207.36,-22.03"/>
<polygon fill="#63b8ff" stroke="#63b8ff" points="1208.02,-18.41 1197.55,-20.02 1206.74,-25.29 1208.02,-18.41"/>
</a>
</g>
</g>
<!-- Node14 -->
<g id="Node000014" class="node">
<title>Node14</title>
<g id="a_Node000014"><a xlink:title=" ">
<polygon fill="#e0e0e0" stroke="#999999" points="1485.82,-24.88 1424.82,-24.88 1424.82,-5.63 1485.82,-5.63 1485.82,-24.88"/>
<text text-anchor="middle" x="1455.32" y="-11.38" font-family="Helvetica,sans-Serif" font-size="10.00">filesystem</text>
</a>
</g>
</g>
<!-- Node13&#45;&gt;Node14 -->
<g id="edge14_Node000013_Node000014" class="edge">
<title>Node13&#45;&gt;Node14</title>
<g id="a_edge14_Node000013_Node000014"><a xlink:title=" ">
<path fill="none" stroke="#63b8ff" d="M1486.7,-66.18C1481.43,-57.8 1473.39,-45.01 1466.77,-34.47"/>
<polygon fill="#63b8ff" stroke="#63b8ff" points="1469.28,-32.88 1460.99,-26.28 1463.35,-36.61 1469.28,-32.88"/>
</a>
</g>
</g>
<!-- Node15 -->
<g id="Node000015" class="node">
<title>Node15</title>
<g id="a_Node000015"><a xlink:title=" ">
<polygon fill="#e0e0e0" stroke="#999999" points="1553.2,-24.88 1503.45,-24.88 1503.45,-5.63 1553.2,-5.63 1553.2,-24.88"/>
<text text-anchor="middle" x="1528.32" y="-11.38" font-family="Helvetica,sans-Serif" font-size="10.00">optional</text>
</a>
</g>
</g>
<!-- Node13&#45;&gt;Node15 -->
<g id="edge16_Node000013_Node000015" class="edge">
<title>Node13&#45;&gt;Node15</title>
<g id="a_edge16_Node000013_Node000015"><a xlink:title=" ">
<path fill="none" stroke="#63b8ff" d="M1497.79,-66.18C1502.92,-57.8 1510.74,-45.01 1517.18,-34.47"/>
<polygon fill="#63b8ff" stroke="#63b8ff" points="1520.57,-36.63 1522.8,-26.28 1514.6,-32.98 1520.57,-36.63"/>
</a>
</g>
</g>
<!-- Node16&#45;&gt;Node4 -->
<g id="edge19_Node000016_Node000004" class="edge">
<title>Node16&#45;&gt;Node4</title>
<g id="a_edge19_Node000016_Node000004"><a xlink:title=" ">
<path fill="none" stroke="#63b8ff" d="M442.12,-66.5C526.93,-55.55 672.67,-36.73 759.71,-25.5"/>
<polygon fill="#63b8ff" stroke="#63b8ff" points="760.08,-28.85 769.55,-24.1 759.18,-21.91 760.08,-28.85"/>
</a>
</g>
</g>
<!-- Node16&#45;&gt;Node12 -->
<g id="edge20_Node000016_Node000012" class="edge">
<title>Node16&#45;&gt;Node12</title>
<g id="a_edge20_Node000016_Node000012"><a xlink:title=" ">
<path fill="none" stroke="#63b8ff" d="M414.92,-66.05C456.41,-56.55 522.17,-41.48 570.51,-30.41"/>
<polygon fill="#63b8ff" stroke="#63b8ff" points="571.19,-33.62 580.16,-27.97 569.63,-26.79 571.19,-33.62"/>
</a>
</g>
</g>
<!-- Node17 -->
<g id="Node000017" class="node">
<title>Node17</title>
<g id="a_Node000017"><a xlink:title=" ">
<polygon fill="#e0e0e0" stroke="#999999" points="399.45,-24.88 351.2,-24.88 351.2,-5.63 399.45,-5.63 399.45,-24.88"/>
<text text-anchor="middle" x="375.32" y="-11.38" font-family="Helvetica,sans-Serif" font-size="10.00">random</text>
</a>
</g>
</g>
<!-- Node16&#45;&gt;Node17 -->
<g id="edge21_Node000016_Node000017" class="edge">
<title>Node16&#45;&gt;Node17</title>
<g id="a_edge21_Node000016_Node000017"><a xlink:title=" ">
<path fill="none" stroke="#63b8ff" d="M375.32,-66.18C375.32,-58.23 375.32,-46.31 375.32,-36.12"/>
<polygon fill="#63b8ff" stroke="#63b8ff" points="378.82,-36.28 375.32,-26.28 371.82,-36.28 378.82,-36.28"/>
</a>
</g>
</g>
<!-- Node18&#45;&gt;Node4 -->
<g id="edge23_Node000018_Node000004" class="edge">
<title>Node18&#45;&gt;Node4</title>
<g id="a_edge23_Node000018_Node000004"><a xlink:title=" ">
<path fill="none" stroke="#63b8ff" d="M752.42,-121.29C773.03,-114.67 796.97,-103.64 812.32,-85.75 824.27,-71.82 828.77,-51.02 830.43,-35.8"/>
<polygon fill="#63b8ff" stroke="#63b8ff" points="833.97,-36.27 831.24,-26.04 826.99,-35.75 833.97,-36.27"/>
</a>
</g>
</g>
<!-- Node18&#45;&gt;Node8 -->
<g id="edge24_Node000018_Node000008" class="edge">
<title>Node18&#45;&gt;Node8</title>
<g id="a_edge24_Node000018_Node000008"><a xlink:title=" ">
<path fill="none" stroke="#63b8ff" d="M642.3,-127.07C531.3,-121.2 324.85,-107.5 299.32,-85.75 285.06,-73.59 280.98,-51.86 280.06,-35.93"/>
<polygon fill="#63b8ff" stroke="#63b8ff" points="283.54,-36.06 279.84,-26.13 276.54,-36.19 283.54,-36.06"/>
</a>
</g>
</g>
<!-- Node18&#45;&gt;Node10 -->
<g id="edge26_Node000018_Node000010" class="edge">
<title>Node18&#45;&gt;Node10</title>
<g id="a_edge26_Node000018_Node000010"><a xlink:title=" ">
<path fill="none" stroke="#63b8ff" d="M749.12,-121.32C837.97,-99.47 1062.95,-44.13 1145.42,-23.85"/>
<polygon fill="#63b8ff" stroke="#63b8ff" points="1146.2,-27.02 1155.08,-21.23 1144.53,-20.22 1146.2,-27.02"/>
</a>
</g>
</g>
<!-- Node19 -->
<g id="Node000019" class="node">
<title>Node19</title>
<g id="a_Node000019"><a xlink:title=" ">
<polygon fill="#e0e0e0" stroke="#999999" points="737.95,-85.75 686.7,-85.75 686.7,-66.5 737.95,-66.5 737.95,-85.75"/>
<text text-anchor="middle" x="712.32" y="-72.25" font-family="Helvetica,sans-Serif" font-size="10.00">memory</text>
</a>
</g>
</g>
<!-- Node18&#45;&gt;Node19 -->
<g id="edge25_Node000018_Node000019" class="edge">
<title>Node18&#45;&gt;Node19</title>
<g id="a_edge25_Node000018_Node000019"><a xlink:title=" ">
<path fill="none" stroke="#63b8ff" d="M712.32,-121.58C712.32,-114.92 712.32,-105.49 712.32,-97.03"/>
<polygon fill="#63b8ff" stroke="#63b8ff" points="715.82,-97.11 712.32,-87.11 708.82,-97.11 715.82,-97.11"/>
</a>
</g>
</g>
<!-- Node18&#45;&gt;Node20 -->
<g id="edge27_Node000018_Node000020" class="edge">
<title>Node18&#45;&gt;Node20</title>
<g id="a_edge27_Node000018_Node000020"><a xlink:title=" ">
<path fill="none" stroke="#63b8ff" d="M687.22,-121.34C663.19,-112.7 626.72,-99.57 599.74,-89.87"/>
<polygon fill="#63b8ff" stroke="#63b8ff" points="601.15,-86.29 590.55,-86.2 598.78,-92.88 601.15,-86.29"/>
</a>
</g>
</g>
<!-- Node20&#45;&gt;Node4 -->
<g id="edge28_Node000020_Node000004" class="edge">
<title>Node20&#45;&gt;Node4</title>
<g id="a_edge28_Node000020_Node000004"><a xlink:title=" ">
<path fill="none" stroke="#63b8ff" d="M605.46,-66.05C652.3,-55.73 728.9,-38.83 779.71,-27.63"/>
<polygon fill="#63b8ff" stroke="#63b8ff" points="780.13,-30.9 789.14,-25.33 778.62,-24.07 780.13,-30.9"/>
</a>
</g>
</g>
<!-- Node20&#45;&gt;Node12 -->
<g id="edge29_Node000020_Node000012" class="edge">
<title>Node20&#45;&gt;Node12</title>
<g id="a_edge29_Node000020_Node000012"><a xlink:title=" ">
<path fill="none" stroke="#63b8ff" d="M574.65,-66.18C583.3,-58.7 595.99,-47.7 607.28,-37.93"/>
<polygon fill="#63b8ff" stroke="#63b8ff" points="609.27,-39.97 614.54,-30.78 604.69,-34.68 609.27,-39.97"/>
</a>
</g>
</g>
<!-- Node21&#45;&gt;Node4 -->
<g id="edge33_Node000021_Node000004" class="edge">
<title>Node21&#45;&gt;Node4</title>
<g id="a_edge33_Node000021_Node000004"><a xlink:title=" ">
<path fill="none" stroke="#63b8ff" d="M1006.92,-121.3C998.4,-107.67 980.57,-81.87 959.32,-66.5 935.09,-48.98 903.94,-36.57 878.43,-28.47"/>
<polygon fill="#63b8ff" stroke="#63b8ff" points="879.82,-24.94 869.24,-25.37 877.78,-31.63 879.82,-24.94"/>
</a>
</g>
</g>
<!-- Node21&#45;&gt;Node12 -->
<g id="edge34_Node000021_Node000012" class="edge">
<title>Node21&#45;&gt;Node12</title>
<g id="a_edge34_Node000021_Node000012"><a xlink:title=" ">
<path fill="none" stroke="#63b8ff" d="M984.92,-121.27C946.49,-108.58 874.31,-85.04 812.32,-66.5 773.17,-54.79 728.96,-42.43 694.16,-32.91"/>
<polygon fill="#63b8ff" stroke="#63b8ff" points="695.24,-29.3 684.67,-30.04 693.4,-36.05 695.24,-29.3"/>
</a>
</g>
</g>
<!-- Node22 -->
<g id="Node000022" class="node">
<title>Node22</title>
<g id="a_Node000022"><a xlink:title=" ">
<polygon fill="#e0e0e0" stroke="#999999" points="1160.45,-85.75 1088.2,-85.75 1088.2,-66.5 1160.45,-66.5 1160.45,-85.75"/>
<text text-anchor="middle" x="1124.32" y="-72.25" font-family="Helvetica,sans-Serif" font-size="10.00">Eigen/Dense</text>
</a>
</g>
</g>
<!-- Node21&#45;&gt;Node22 -->
<g id="edge32_Node000021_Node000022" class="edge">
<title>Node21&#45;&gt;Node22</title>
<g id="a_edge32_Node000021_Node000022"><a xlink:title=" ">
<path fill="none" stroke="#63b8ff" d="M1031.32,-121.34C1048.86,-113 1075.16,-100.5 1095.32,-90.91"/>
<polygon fill="#63b8ff" stroke="#63b8ff" points="1096.7,-93.66 1104.23,-86.2 1093.7,-87.34 1096.7,-93.66"/>
</a>
</g>
</g>
<!-- Node23 -->
<g id="Node000023" class="node">
<title>Node23</title>
<g id="a_Node000023"><a xlink:title=" ">
<polygon fill="#e0e0e0" stroke="#999999" points="1295.95,-85.75 1178.7,-85.75 1178.7,-66.5 1295.95,-66.5 1295.95,-85.75"/>
<text text-anchor="middle" x="1237.32" y="-72.25" font-family="Helvetica,sans-Serif" font-size="10.00">boost/preprocessor.hpp</text>
</a>
</g>
</g>
<!-- Node21&#45;&gt;Node23 -->
<g id="edge35_Node000021_Node000023" class="edge">
<title>Node21&#45;&gt;Node23</title>
<g id="a_edge35_Node000021_Node000023"><a xlink:title=" ">
<path fill="none" stroke="#63b8ff" d="M1050.75,-121.28C1088.77,-112.28 1147.11,-98.48 1188.42,-88.7"/>
<polygon fill="#63b8ff" stroke="#63b8ff" points="1189.13,-91.89 1198.06,-86.18 1187.52,-85.08 1189.13,-91.89"/>
</a>
</g>
</g>
<!-- Node24 -->
<g id="Node000024" class="node">
<title>Node24</title>
<g id="a_Node000024"><a xlink:title=" ">
<polygon fill="#e0e0e0" stroke="#999999" points="1069.7,-85.75 1010.95,-85.75 1010.95,-66.5 1069.7,-66.5 1069.7,-85.75"/>
<text text-anchor="middle" x="1040.32" y="-72.25" font-family="Helvetica,sans-Serif" font-size="10.00">stdexcept</text>
</a>
</g>
</g>
<!-- Node21&#45;&gt;Node24 -->
<g id="edge36_Node000021_Node000024" class="edge">
<title>Node21&#45;&gt;Node24</title>
<g id="a_edge36_Node000021_Node000024"><a xlink:title=" ">
<path fill="none" stroke="#63b8ff" d="M1016.95,-121.58C1020.65,-114.53 1025.98,-104.4 1030.62,-95.58"/>
<polygon fill="#63b8ff" stroke="#63b8ff" points="1034.04,-97.59 1035.6,-87.11 1027.85,-94.33 1034.04,-97.59"/>
</a>
</g>
</g>
<!-- Node21&#45;&gt;Node25 -->
<g id="edge37_Node000021_Node000025" class="edge">
<title>Node21&#45;&gt;Node25</title>
<g id="a_edge37_Node000021_Node000025"><a xlink:title=" ">
<path fill="none" stroke="#63b8ff" d="M972.53,-121.28C927.91,-111.08 856.26,-94.71 813.89,-85.02"/>
<polygon fill="#63b8ff" stroke="#63b8ff" points="814.8,-81.41 804.27,-82.6 813.24,-88.24 814.8,-81.41"/>
</a>
</g>
</g>
<!-- Node25&#45;&gt;Node4 -->
<g id="edge38_Node000025_Node000004" class="edge">
<title>Node25&#45;&gt;Node4</title>
<g id="a_edge38_Node000025_Node000004"><a xlink:title=" ">
<path fill="none" stroke="#63b8ff" d="M787.22,-66.18C794.86,-57.54 806.63,-44.21 816.09,-33.5"/>
<polygon fill="#63b8ff" stroke="#63b8ff" points="818.35,-36.09 822.35,-26.28 813.11,-31.45 818.35,-36.09"/>
</a>
</g>
</g>
<!-- Node25&#45;&gt;Node11 -->
<g id="edge40_Node000025_Node000011" class="edge">
<title>Node25&#45;&gt;Node11</title>
<g id="a_edge40_Node000025_Node000011"><a xlink:title=" ">
<path fill="none" stroke="#63b8ff" d="M755.32,-68.13C752.64,-67.5 749.93,-66.94 747.32,-66.5 526.33,-29.16 467.73,-48.5 244.32,-30.5 200.46,-26.97 149.84,-22.33 117.72,-19.33"/>
<polygon fill="#63b8ff" stroke="#63b8ff" points="118.46,-15.78 108.17,-18.33 117.8,-22.75 118.46,-15.78"/>
</a>
</g>
</g>
<!-- Node25&#45;&gt;Node12 -->
<g id="edge39_Node000025_Node000012" class="edge">
<title>Node25&#45;&gt;Node12</title>
<g id="a_edge39_Node000025_Node000012"><a xlink:title=" ">
<path fill="none" stroke="#63b8ff" d="M756.68,-66.05C736.06,-57.8 704.97,-45.34 679.03,-34.96"/>
<polygon fill="#63b8ff" stroke="#63b8ff" points="680.6,-31.41 670.01,-30.94 677.99,-37.91 680.6,-31.41"/>
</a>
</g>
</g>
<!-- Node26&#45;&gt;Node4 -->
<g id="edge50_Node000026_Node000004" class="edge">
<title>Node26&#45;&gt;Node4</title>
<g id="a_edge50_Node000026_Node000004"><a xlink:title=" ">
<path fill="none" stroke="#63b8ff" d="M1292.64,-176.56C1310.34,-168.96 1328.01,-157.65 1338.32,-141 1355.76,-112.85 1360.55,-91.04 1338.32,-66.5 1309.66,-34.86 1035.85,-22.36 902.97,-18.13"/>
<polygon fill="#63b8ff" stroke="#63b8ff" points="903.21,-14.6 893.11,-17.79 902.99,-21.6 903.21,-14.6"/>
</a>
</g>
</g>
<!-- Node26&#45;&gt;Node12 -->
<g id="edge51_Node000026_Node000012" class="edge">
<title>Node26&#45;&gt;Node12</title>
<g id="a_edge51_Node000026_Node000012"><a xlink:title=" ">
<path fill="none" stroke="#63b8ff" d="M1255.87,-176.69C1285.48,-151.77 1337.01,-100.36 1305.32,-66.5 1264.01,-22.35 822.56,-35.8 762.32,-30.5 740.27,-28.56 716.16,-26.03 694.75,-23.64"/>
<polygon fill="#63b8ff" stroke="#63b8ff" points="695.16,-20.05 684.83,-22.41 694.38,-27.01 695.16,-20.05"/>
</a>
</g>
</g>
<!-- Node26&#45;&gt;Node21 -->
<g id="edge48_Node000026_Node000021" class="edge">
<title>Node26&#45;&gt;Node21</title>
<g id="a_edge48_Node000026_Node000021"><a xlink:title=" ">
<path fill="none" stroke="#63b8ff" d="M1181.13,-176.55C1143.02,-166.58 1093.31,-153.57 1057.72,-144.25"/>
<polygon fill="#63b8ff" stroke="#63b8ff" points="1058.72,-140.64 1048.16,-141.49 1056.95,-147.41 1058.72,-140.64"/>
</a>
</g>
</g>
<!-- Node26&#45;&gt;Node22 -->
<g id="edge49_Node000026_Node000022" class="edge">
<title>Node26&#45;&gt;Node22</title>
<g id="a_edge49_Node000026_Node000022"><a xlink:title=" ">
<path fill="none" stroke="#63b8ff" d="M1223.01,-176.8C1202.05,-155.63 1163.1,-116.29 1140.91,-93.88"/>
<polygon fill="#63b8ff" stroke="#63b8ff" points="1143.83,-91.84 1134.31,-87.2 1138.85,-96.77 1143.83,-91.84"/>
</a>
</g>
</g>
<!-- Node26&#45;&gt;Node23 -->
<g id="edge52_Node000026_Node000023" class="edge">
<title>Node26&#45;&gt;Node23</title>
<g id="a_edge52_Node000026_Node000023"><a xlink:title=" ">
<path fill="none" stroke="#63b8ff" d="M1237.32,-176.8C1237.32,-156.56 1237.32,-119.72 1237.32,-96.94"/>
<polygon fill="#63b8ff" stroke="#63b8ff" points="1240.82,-97.2 1237.32,-87.2 1233.82,-97.2 1240.82,-97.2"/>
</a>
</g>
</g>
<!-- Node27 -->
<g id="Node000027" class="node">
<title>Node27</title>
<g id="a_Node000027"><a xlink:href="_constants_8h.html" target="_top" xlink:title="List of constants.">
<polygon fill="white" stroke="#666666" points="1549.82,-141 1434.82,-141 1434.82,-121.75 1549.82,-121.75 1549.82,-141"/>
<text text-anchor="middle" x="1492.32" y="-127.5" font-family="Helvetica,sans-Serif" font-size="10.00">lupnt/core/Constants.h</text>
</a>
</g>
</g>
<!-- Node26&#45;&gt;Node27 -->
<g id="edge43_Node000026_Node000027" class="edge">
<title>Node26&#45;&gt;Node27</title>
<g id="a_edge43_Node000026_Node000027"><a xlink:title=" ">
<path fill="none" stroke="#63b8ff" d="M1298.08,-177.22C1342.16,-167.04 1401.07,-153.44 1442.42,-143.9"/>
<polygon fill="#63b8ff" stroke="#63b8ff" points="1443.1,-147.1 1452.06,-141.44 1441.52,-140.28 1443.1,-147.1"/>
</a>
</g>
</g>
<!-- Node27&#45;&gt;Node4 -->
<g id="edge45_Node000027_Node000004" class="edge">
<title>Node27&#45;&gt;Node4</title>
<g id="a_edge45_Node000027_Node000004"><a xlink:title=" ">
<path fill="none" stroke="#63b8ff" d="M1477.74,-121.36C1451.55,-105.33 1397.31,-72.94 1376.32,-66.5 1289.71,-39.93 1029.73,-25.06 902.72,-19.2"/>
<polygon fill="#63b8ff" stroke="#63b8ff" points="903.11,-15.67 892.96,-18.72 902.79,-22.67 903.11,-15.67"/>
</a>
</g>
</g>
<!-- Node27&#45;&gt;Node10 -->
<g id="edge46_Node000027_Node000010" class="edge">
<title>Node27&#45;&gt;Node10</title>
<g id="a_edge46_Node000027_Node000010"><a xlink:title=" ">
<path fill="none" stroke="#63b8ff" d="M1550.08,-131.09C1631.76,-130.23 1765.9,-120.9 1716.32,-66.5 1699.06,-47.55 1320.33,-24.47 1207.66,-18.01"/>
<polygon fill="#63b8ff" stroke="#63b8ff" points="1207.91,-14.46 1197.73,-17.38 1207.51,-21.45 1207.91,-14.46"/>
</a>
</g>
</g>
<!-- Node27&#45;&gt;Node13 -->
<g id="edge47_Node000027_Node000013" class="edge">
<title>Node27&#45;&gt;Node13</title>
<g id="a_edge47_Node000027_Node000013"><a xlink:title=" ">
<path fill="none" stroke="#63b8ff" d="M1492.32,-121.58C1492.32,-114.92 1492.32,-105.49 1492.32,-97.03"/>
<polygon fill="#63b8ff" stroke="#63b8ff" points="1495.82,-97.11 1492.32,-87.11 1488.82,-97.11 1495.82,-97.11"/>
</a>
</g>
</g>
<!-- Node28 -->
<g id="Node000028" class="node">
<title>Node28</title>
<g id="a_Node000028"><a xlink:title=" ">
<polygon fill="#e0e0e0" stroke="#999999" points="1707.2,-85.75 1573.45,-85.75 1573.45,-66.5 1707.2,-66.5 1707.2,-85.75"/>
<text text-anchor="middle" x="1640.32" y="-72.25" font-family="Helvetica,sans-Serif" font-size="10.00">autodiff/common/eigen.hpp</text>
</a>
</g>
</g>
<!-- Node27&#45;&gt;Node28 -->
<g id="edge44_Node000027_Node000028" class="edge">
<title>Node27&#45;&gt;Node28</title>
<g id="a_edge44_Node000027_Node000028"><a xlink:title=" ">
<path fill="none" stroke="#63b8ff" d="M1517.43,-121.34C1541.45,-112.7 1577.93,-99.57 1604.9,-89.87"/>
<polygon fill="#63b8ff" stroke="#63b8ff" points="1605.87,-92.88 1614.09,-86.2 1603.5,-86.29 1605.87,-92.88"/>
</a>
</g>
</g>
</g>
</svg>

<g id="navigator" transform="translate(0 0)" fill="#404254">
  <rect fill="#f2f5e9" fill-opacity="0.5" stroke="#606060" stroke-width=".5" x="0" y="0" width="60" height="60"/>
  <use id="zoomplus" xlink:href="#zoomPlus" x="17" y="9" onmousedown="handleZoom(evt,'in')"/>
  <use id="zoomminus" xlink:href="#zoomMin" x="42" y="9" onmousedown="handleZoom(evt,'out')"/>
  <use id="reset" xlink:href="#resetDef" x="30" y="36" onmousedown="handleReset()"/>
   <use id="arrowup" xlink:href="#arrowUp" x="0" y="0" onmousedown="handlePan(0,-1)"/>
  <use id="arrowright" xlink:href="#arrowRight" x="0" y="0" onmousedown="handlePan(1,0)"/>
  <use id="arrowdown" xlink:href="#arrowDown" x="0" y="0" onmousedown="handlePan(0,1)"/>
  <use id="arrowleft" xlink:href="#arrowLeft" x="0" y="0" onmousedown="handlePan(-1,0)"/>
</g>
<svg viewBox="0 0 15 15" width="100%" height="30px" preserveAspectRatio="xMaxYMin meet">
 <g id="arrow_out" transform="scale(0.3 0.3)">
  <a xlink:href="_dynamics_analytical_8cpp__incl_org.svg" target="_base">
   <rect id="button" ry="5" rx="5" y="6" x="6" height="38" width="38"
        fill="#f2f5e9" fill-opacity="0.5" stroke="#606060" stroke-width="1.0"/>
   <path id="arrow"
     d="M 11.500037,31.436501 C 11.940474,20.09759 22.043105,11.32322 32.158766,21.979434 L 37.068811,17.246167 C 37.068811,17.246167 37.088388,32 37.088388,32 L 22.160133,31.978069 C 22.160133,31.978069 26.997745,27.140456 26.997745,27.140456 C 18.528582,18.264221 13.291696,25.230495 11.500037,31.436501 z"
     style="fill:#404040;"/>
  </a>
 </g>
</svg>

<style type='text/css'>
<![CDATA[
[data-mouse-over-selected='false'] { opacity: 0.7; }
[data-mouse-over-selected='true']  { opacity: 1.0; }
]]>
</style>
<script type="application/ecmascript"><![CDATA[
document.addEventListener('DOMContentLoaded', (event) => {
  highlightEdges();
  highlightAdjacentNodes();
});
]]></script>
</svg>
