<?xml version="1.0" encoding="UTF-8" standalone="no"?>
<!DOCTYPE svg PUBLIC "-//W3C//DTD SVG 1.1//EN"
 "http://www.w3.org/Graphics/SVG/1.1/DTD/svg11.dtd">
<!-- Generated by graphviz version 8.1.0 (20230707.0739)
 -->
<!-- Title: Dynamics.h Pages: 1 -->
<svg width="1482pt" height="204pt"
 viewBox="0.00 0.00 1481.97 204.25" xmlns="http://www.w3.org/2000/svg" xmlns:xlink="http://www.w3.org/1999/xlink">
<g id="graph0" class="graph" transform="scale(1 1) rotate(0) translate(4 200.25)">
<title>Dynamics.h</title>
<!-- Node1 -->
<g id="Node000001" class="node">
<title>Node1</title>
<g id="a_Node000001"><a xlink:title="Interface for Dynamics.">
<polygon fill="#999999" stroke="#666666" points="874.84,-196.25 806.34,-196.25 806.34,-177 874.84,-177 874.84,-196.25"/>
<text text-anchor="middle" x="840.59" y="-182.75" font-family="Helvetica,sans-Serif" font-size="10.00">Dynamics.h</text>
</a>
</g>
</g>
<!-- Node2 -->
<g id="Node000002" class="node">
<title>Node2</title>
<g id="a_Node000002"><a xlink:title=" ">
<polygon fill="#e0e0e0" stroke="#999999" points="858.09,-24.88 737.09,-24.88 737.09,-5.63 858.09,-5.63 858.09,-24.88"/>
<text text-anchor="middle" x="797.59" y="-11.38" font-family="Helvetica,sans-Serif" font-size="10.00">autodiff/forward/real.hpp</text>
</a>
</g>
</g>
<!-- Node1&#45;&gt;Node2 -->
<g id="edge1_Node000001_Node000002" class="edge">
<title>Node1&#45;&gt;Node2</title>
<g id="a_edge1_Node000001_Node000002"><a xlink:title=" ">
<path fill="none" stroke="#63b8ff" d="M837.86,-176.59C832.62,-159.12 820.96,-119.48 812.59,-85.75 808.46,-69.07 804.39,-49.98 801.53,-36.03"/>
<polygon fill="#63b8ff" stroke="#63b8ff" points="804.77,-35.4 799.36,-26.29 797.91,-36.78 804.77,-35.4"/>
</a>
</g>
</g>
<!-- Node3 -->
<g id="Node000003" class="node">
<title>Node3</title>
<g id="a_Node000003"><a xlink:href="_gravity_field_8h.html" target="_top" xlink:title="Gravity field model and acceleration calculation.">
<polygon fill="white" stroke="#666666" points="623.47,-141 477.72,-141 477.72,-121.75 623.47,-121.75 623.47,-141"/>
<text text-anchor="middle" x="550.59" y="-127.5" font-family="Helvetica,sans-Serif" font-size="10.00">lupnt/dynamics/GravityField.h</text>
</a>
</g>
</g>
<!-- Node1&#45;&gt;Node3 -->
<g id="edge2_Node000001_Node000003" class="edge">
<title>Node1&#45;&gt;Node3</title>
<g id="a_edge2_Node000001_Node000003"><a xlink:title=" ">
<path fill="none" stroke="#63b8ff" d="M805.9,-179.25C757.71,-170.41 669.79,-154.26 610.78,-143.43"/>
<polygon fill="#63b8ff" stroke="#63b8ff" points="611.58,-139.83 601.11,-141.47 610.31,-146.72 611.58,-139.83"/>
</a>
</g>
</g>
<!-- Node16 -->
<g id="Node000016" class="node">
<title>Node16</title>
<g id="a_Node000016"><a xlink:href="_propagator_8h.html" target="_top" xlink:title="Numerical Propagator.">
<polygon fill="white" stroke="#666666" points="313.47,-141 173.72,-141 173.72,-121.75 313.47,-121.75 313.47,-141"/>
<text text-anchor="middle" x="243.59" y="-127.5" font-family="Helvetica,sans-Serif" font-size="10.00">lupnt/dynamics/Propagator.h</text>
</a>
</g>
</g>
<!-- Node1&#45;&gt;Node16 -->
<g id="edge20_Node000001_Node000016" class="edge">
<title>Node1&#45;&gt;Node16</title>
<g id="a_edge20_Node000001_Node000016"><a xlink:title=" ">
<path fill="none" stroke="#63b8ff" d="M805.92,-182.53C713.03,-174.25 456.72,-151.38 324.63,-139.6"/>
<polygon fill="#63b8ff" stroke="#63b8ff" points="325.06,-136.04 314.79,-138.64 324.44,-143.01 325.06,-136.04"/>
</a>
</g>
</g>
<!-- Node18 -->
<g id="Node000018" class="node">
<title>Node18</title>
<g id="a_Node000018"><a xlink:href="_integrator_8h.html" target="_top" xlink:title="Integrator interfaces.">
<polygon fill="white" stroke="#666666" points="953.34,-85.75 821.84,-85.75 821.84,-66.5 953.34,-66.5 953.34,-85.75"/>
<text text-anchor="middle" x="887.59" y="-72.25" font-family="Helvetica,sans-Serif" font-size="10.00">lupnt/numerics/Integrator.h</text>
</a>
</g>
</g>
<!-- Node1&#45;&gt;Node18 -->
<g id="edge28_Node000001_Node000018" class="edge">
<title>Node1&#45;&gt;Node18</title>
<g id="a_edge28_Node000001_Node000018"><a xlink:title=" ">
<path fill="none" stroke="#63b8ff" d="M844.44,-176.75C852.05,-159.18 869.17,-119.66 879.41,-96.02"/>
<polygon fill="#63b8ff" stroke="#63b8ff" points="882.93,-97.69 883.69,-87.13 876.51,-94.91 882.93,-97.69"/>
</a>
</g>
</g>
<!-- Node19 -->
<g id="Node000019" class="node">
<title>Node19</title>
<g id="a_Node000019"><a xlink:href="_orbit_state_8h.html" target="_top" xlink:title="Orbit states.">
<polygon fill="white" stroke="#666666" points="1226.22,-141 1096.97,-141 1096.97,-121.75 1226.22,-121.75 1226.22,-141"/>
<text text-anchor="middle" x="1161.59" y="-127.5" font-family="Helvetica,sans-Serif" font-size="10.00">lupnt/physics/OrbitState.h</text>
</a>
</g>
</g>
<!-- Node1&#45;&gt;Node19 -->
<g id="edge29_Node000001_Node000019" class="edge">
<title>Node1&#45;&gt;Node19</title>
<g id="a_edge29_Node000001_Node000019"><a xlink:title=" ">
<path fill="none" stroke="#63b8ff" d="M875.25,-179.88C927.93,-171.14 1029.06,-154.36 1095.94,-143.27"/>
<polygon fill="#63b8ff" stroke="#63b8ff" points="1096.48,-146.56 1105.77,-141.47 1095.33,-139.65 1096.48,-146.56"/>
</a>
</g>
</g>
<!-- Node23 -->
<g id="Node000023" class="node">
<title>Node23</title>
<g id="a_Node000023"><a xlink:href="_state_8h.html" target="_top" xlink:title="SPICE Interface functions.">
<polygon fill="white" stroke="#666666" points="1095.34,-85.75 1047.84,-85.75 1047.84,-66.5 1095.34,-66.5 1095.34,-85.75"/>
<text text-anchor="middle" x="1071.59" y="-72.25" font-family="Helvetica,sans-Serif" font-size="10.00">State.h</text>
</a>
</g>
</g>
<!-- Node1&#45;&gt;Node23 -->
<g id="edge39_Node000001_Node000023" class="edge">
<title>Node1&#45;&gt;Node23</title>
<g id="a_edge39_Node000001_Node000023"><a xlink:title=" ">
<path fill="none" stroke="#63b8ff" d="M859.89,-176.56C900.4,-157.53 994.51,-113.33 1042.43,-90.83"/>
<polygon fill="#63b8ff" stroke="#63b8ff" points="1043.63,-93.66 1051.19,-86.24 1040.65,-87.32 1043.63,-93.66"/>
</a>
</g>
</g>
<!-- Node3&#45;&gt;Node2 -->
<g id="edge9_Node000003_Node000002" class="edge">
<title>Node3&#45;&gt;Node2</title>
<g id="a_edge9_Node000003_Node000002"><a xlink:title=" ">
<path fill="none" stroke="#63b8ff" d="M558.08,-121.57C570.24,-107.83 595.65,-81.31 622.59,-66.5 644.15,-54.65 704.2,-38.63 747.96,-27.89"/>
<polygon fill="#63b8ff" stroke="#63b8ff" points="748.53,-31.11 757.42,-25.35 746.87,-24.31 748.53,-31.11"/>
</a>
</g>
</g>
<!-- Node4 -->
<g id="Node000004" class="node">
<title>Node4</title>
<g id="a_Node000004"><a xlink:title=" ">
<polygon fill="#e0e0e0" stroke="#999999" points="508.47,-85.75 452.72,-85.75 452.72,-66.5 508.47,-66.5 508.47,-85.75"/>
<text text-anchor="middle" x="480.59" y="-72.25" font-family="Helvetica,sans-Serif" font-size="10.00">algorithm</text>
</a>
</g>
</g>
<!-- Node3&#45;&gt;Node4 -->
<g id="edge3_Node000003_Node000004" class="edge">
<title>Node3&#45;&gt;Node4</title>
<g id="a_edge3_Node000003_Node000004"><a xlink:title=" ">
<path fill="none" stroke="#63b8ff" d="M538.72,-121.34C528.4,-113.49 513.23,-101.95 500.97,-92.62"/>
<polygon fill="#63b8ff" stroke="#63b8ff" points="503.37,-89.29 493.29,-86.02 499.13,-94.86 503.37,-89.29"/>
</a>
</g>
</g>
<!-- Node5 -->
<g id="Node000005" class="node">
<title>Node5</title>
<g id="a_Node000005"><a xlink:title=" ">
<polygon fill="#e0e0e0" stroke="#999999" points="575.09,-85.75 526.09,-85.75 526.09,-66.5 575.09,-66.5 575.09,-85.75"/>
<text text-anchor="middle" x="550.59" y="-72.25" font-family="Helvetica,sans-Serif" font-size="10.00">fstream</text>
</a>
</g>
</g>
<!-- Node3&#45;&gt;Node5 -->
<g id="edge4_Node000003_Node000005" class="edge">
<title>Node3&#45;&gt;Node5</title>
<g id="a_edge4_Node000003_Node000005"><a xlink:title=" ">
<path fill="none" stroke="#63b8ff" d="M550.59,-121.58C550.59,-114.92 550.59,-105.49 550.59,-97.03"/>
<polygon fill="#63b8ff" stroke="#63b8ff" points="554.09,-97.11 550.59,-87.11 547.09,-97.11 554.09,-97.11"/>
</a>
</g>
</g>
<!-- Node6 -->
<g id="Node000006" class="node">
<title>Node6</title>
<g id="a_Node000006"><a xlink:title=" ">
<polygon fill="#e0e0e0" stroke="#999999" points="121.34,-24.88 67.84,-24.88 67.84,-5.63 121.34,-5.63 121.34,-24.88"/>
<text text-anchor="middle" x="94.59" y="-11.38" font-family="Helvetica,sans-Serif" font-size="10.00">iostream</text>
</a>
</g>
</g>
<!-- Node3&#45;&gt;Node6 -->
<g id="edge5_Node000003_Node000006" class="edge">
<title>Node3&#45;&gt;Node6</title>
<g id="a_edge5_Node000003_Node000006"><a xlink:title=" ">
<path fill="none" stroke="#63b8ff" d="M477.47,-126.88C383.54,-121.51 226.33,-109.28 173.59,-85.75 146.85,-73.82 122.62,-49.58 108.25,-33.12"/>
<polygon fill="#63b8ff" stroke="#63b8ff" points="110.44,-31.29 101.32,-25.91 105.09,-35.81 110.44,-31.29"/>
</a>
</g>
</g>
<!-- Node7 -->
<g id="Node000007" class="node">
<title>Node7</title>
<g id="a_Node000007"><a xlink:title=" ">
<polygon fill="#e0e0e0" stroke="#999999" points="434.22,-85.75 382.97,-85.75 382.97,-66.5 434.22,-66.5 434.22,-85.75"/>
<text text-anchor="middle" x="408.59" y="-72.25" font-family="Helvetica,sans-Serif" font-size="10.00">sstream</text>
</a>
</g>
</g>
<!-- Node3&#45;&gt;Node7 -->
<g id="edge6_Node000003_Node000007" class="edge">
<title>Node3&#45;&gt;Node7</title>
<g id="a_edge6_Node000003_Node000007"><a xlink:title=" ">
<path fill="none" stroke="#63b8ff" d="M526.51,-121.34C503.56,-112.74 468.77,-99.69 442.92,-90"/>
<polygon fill="#63b8ff" stroke="#63b8ff" points="444.39,-86.44 433.8,-86.2 441.94,-92.99 444.39,-86.44"/>
</a>
</g>
</g>
<!-- Node8 -->
<g id="Node000008" class="node">
<title>Node8</title>
<g id="a_Node000008"><a xlink:title=" ">
<polygon fill="#e0e0e0" stroke="#999999" points="190.59,-24.88 150.59,-24.88 150.59,-5.63 190.59,-5.63 190.59,-24.88"/>
<text text-anchor="middle" x="170.59" y="-11.38" font-family="Helvetica,sans-Serif" font-size="10.00">string</text>
</a>
</g>
</g>
<!-- Node3&#45;&gt;Node8 -->
<g id="edge7_Node000003_Node000008" class="edge">
<title>Node3&#45;&gt;Node8</title>
<g id="a_edge7_Node000003_Node000008"><a xlink:title=" ">
<path fill="none" stroke="#63b8ff" d="M477.23,-125.65C378.01,-118.61 210.9,-104.19 189.59,-85.75 175.43,-73.49 171.33,-51.77 170.38,-35.87"/>
<polygon fill="#63b8ff" stroke="#63b8ff" points="173.86,-36.02 170.14,-26.1 166.86,-36.17 173.86,-36.02"/>
</a>
</g>
</g>
<!-- Node9 -->
<g id="Node000009" class="node">
<title>Node9</title>
<g id="a_Node000009"><a xlink:title=" ">
<polygon fill="#e0e0e0" stroke="#999999" points="1138.09,-24.88 1095.09,-24.88 1095.09,-5.63 1138.09,-5.63 1138.09,-24.88"/>
<text text-anchor="middle" x="1116.59" y="-11.38" font-family="Helvetica,sans-Serif" font-size="10.00">vector</text>
</a>
</g>
</g>
<!-- Node3&#45;&gt;Node9 -->
<g id="edge8_Node000003_Node000009" class="edge">
<title>Node3&#45;&gt;Node9</title>
<g id="a_edge8_Node000003_Node000009"><a xlink:title=" ">
<path fill="none" stroke="#63b8ff" d="M623.78,-129.39C766.21,-126.77 1069.84,-117.49 1104.59,-85.75 1118.14,-73.38 1119.94,-51.69 1119.1,-35.82"/>
<polygon fill="#63b8ff" stroke="#63b8ff" points="1122.52,-35.7 1118.1,-26.07 1115.55,-36.35 1122.52,-35.7"/>
</a>
</g>
</g>
<!-- Node10 -->
<g id="Node000010" class="node">
<title>Node10</title>
<g id="a_Node000010"><a xlink:title=" ">
<polygon fill="#e0e0e0" stroke="#999999" points="1070.72,-30.5 968.47,-30.5 968.47,0 1070.72,0 1070.72,-30.5"/>
<text text-anchor="start" x="976.47" y="-17" font-family="Helvetica,sans-Serif" font-size="10.00">autodiff/forward/real</text>
<text text-anchor="middle" x="1019.59" y="-5.75" font-family="Helvetica,sans-Serif" font-size="10.00">/eigen.hpp</text>
</a>
</g>
</g>
<!-- Node3&#45;&gt;Node10 -->
<g id="edge10_Node000003_Node000010" class="edge">
<title>Node3&#45;&gt;Node10</title>
<g id="a_edge10_Node000003_Node000010"><a xlink:title=" ">
<path fill="none" stroke="#63b8ff" d="M623.76,-129.03C726.09,-126.05 905.8,-116.47 962.59,-85.75 981.69,-75.42 996.86,-55.79 1006.74,-40.02"/>
<polygon fill="#63b8ff" stroke="#63b8ff" points="1010.11,-42.21 1012.19,-31.82 1004.08,-38.64 1010.11,-42.21"/>
</a>
</g>
</g>
<!-- Node11 -->
<g id="Node000011" class="node">
<title>Node11</title>
<g id="a_Node000011"><a xlink:href="_user_file_path_8h.html" target="_top" xlink:title="File access utils.">
<polygon fill="white" stroke="#666666" points="326.09,-85.75 199.09,-85.75 199.09,-66.5 326.09,-66.5 326.09,-85.75"/>
<text text-anchor="middle" x="262.59" y="-72.25" font-family="Helvetica,sans-Serif" font-size="10.00">lupnt/core/UserFilePath.h</text>
</a>
</g>
</g>
<!-- Node3&#45;&gt;Node11 -->
<g id="edge11_Node000003_Node000011" class="edge">
<title>Node3&#45;&gt;Node11</title>
<g id="a_edge11_Node000003_Node000011"><a xlink:title=" ">
<path fill="none" stroke="#63b8ff" d="M501.41,-121.28C451.81,-112.11 375.2,-97.94 322.18,-88.14"/>
<polygon fill="#63b8ff" stroke="#63b8ff" points="323.04,-84.56 312.57,-86.18 321.77,-91.44 323.04,-84.56"/>
</a>
</g>
</g>
<!-- Node14 -->
<g id="Node000014" class="node">
<title>Node14</title>
<g id="a_Node000014"><a xlink:href="_math_utils_8h.html" target="_top" xlink:title=" ">
<polygon fill="white" stroke="#666666" points="765.09,-85.75 632.09,-85.75 632.09,-66.5 765.09,-66.5 765.09,-85.75"/>
<text text-anchor="middle" x="698.59" y="-72.25" font-family="Helvetica,sans-Serif" font-size="10.00">lupnt/numerics/MathUtils.h</text>
</a>
</g>
</g>
<!-- Node3&#45;&gt;Node14 -->
<g id="edge16_Node000003_Node000014" class="edge">
<title>Node3&#45;&gt;Node14</title>
<g id="a_edge16_Node000003_Node000014"><a xlink:title=" ">
<path fill="none" stroke="#63b8ff" d="M575.7,-121.34C599.73,-112.7 636.2,-99.57 663.18,-89.87"/>
<polygon fill="#63b8ff" stroke="#63b8ff" points="664.14,-92.88 672.36,-86.2 661.77,-86.29 664.14,-92.88"/>
</a>
</g>
</g>
<!-- Node11&#45;&gt;Node6 -->
<g id="edge13_Node000011_Node000006" class="edge">
<title>Node11&#45;&gt;Node6</title>
<g id="a_edge13_Node000011_Node000006"><a xlink:title=" ">
<path fill="none" stroke="#63b8ff" d="M236.71,-66.05C208.35,-56.11 162.64,-40.1 130.75,-28.92"/>
<polygon fill="#63b8ff" stroke="#63b8ff" points="132.1,-25.33 121.51,-25.33 129.79,-31.94 132.1,-25.33"/>
</a>
</g>
</g>
<!-- Node11&#45;&gt;Node8 -->
<g id="edge15_Node000011_Node000008" class="edge">
<title>Node11&#45;&gt;Node8</title>
<g id="a_edge15_Node000011_Node000008"><a xlink:title=" ">
<path fill="none" stroke="#63b8ff" d="M248.62,-66.18C234.03,-56.85 210.91,-42.05 193.61,-30.98"/>
<polygon fill="#63b8ff" stroke="#63b8ff" points="196.01,-27.72 185.7,-25.28 192.23,-33.61 196.01,-27.72"/>
</a>
</g>
</g>
<!-- Node12 -->
<g id="Node000012" class="node">
<title>Node12</title>
<g id="a_Node000012"><a xlink:title=" ">
<polygon fill="#e0e0e0" stroke="#999999" points="352.09,-24.88 291.09,-24.88 291.09,-5.63 352.09,-5.63 352.09,-24.88"/>
<text text-anchor="middle" x="321.59" y="-11.38" font-family="Helvetica,sans-Serif" font-size="10.00">filesystem</text>
</a>
</g>
</g>
<!-- Node11&#45;&gt;Node12 -->
<g id="edge12_Node000011_Node000012" class="edge">
<title>Node11&#45;&gt;Node12</title>
<g id="a_edge12_Node000011_Node000012"><a xlink:title=" ">
<path fill="none" stroke="#63b8ff" d="M271.56,-66.18C280.39,-57.37 294.11,-43.68 304.95,-32.86"/>
<polygon fill="#63b8ff" stroke="#63b8ff" points="306.94,-35.82 311.55,-26.28 302,-30.86 306.94,-35.82"/>
</a>
</g>
</g>
<!-- Node13 -->
<g id="Node000013" class="node">
<title>Node13</title>
<g id="a_Node000013"><a xlink:title=" ">
<polygon fill="#e0e0e0" stroke="#999999" points="273.47,-24.88 223.72,-24.88 223.72,-5.63 273.47,-5.63 273.47,-24.88"/>
<text text-anchor="middle" x="248.59" y="-11.38" font-family="Helvetica,sans-Serif" font-size="10.00">optional</text>
</a>
</g>
</g>
<!-- Node11&#45;&gt;Node13 -->
<g id="edge14_Node000011_Node000013" class="edge">
<title>Node11&#45;&gt;Node13</title>
<g id="a_edge14_Node000011_Node000013"><a xlink:title=" ">
<path fill="none" stroke="#63b8ff" d="M260.47,-66.18C258.56,-58.14 255.68,-46.05 253.24,-35.78"/>
<polygon fill="#63b8ff" stroke="#63b8ff" points="256.46,-35.2 250.74,-26.28 249.65,-36.81 256.46,-35.2"/>
</a>
</g>
</g>
<!-- Node14&#45;&gt;Node2 -->
<g id="edge17_Node000014_Node000002" class="edge">
<title>Node14&#45;&gt;Node2</title>
<g id="a_edge17_Node000014_Node000002"><a xlink:title=" ">
<path fill="none" stroke="#63b8ff" d="M713.63,-66.18C729.4,-56.8 754.44,-41.91 773.08,-30.83"/>
<polygon fill="#63b8ff" stroke="#63b8ff" points="774.61,-33.4 781.42,-25.28 771.03,-27.38 774.61,-33.4"/>
</a>
</g>
</g>
<!-- Node14&#45;&gt;Node10 -->
<g id="edge18_Node000014_Node000010" class="edge">
<title>Node14&#45;&gt;Node10</title>
<g id="a_edge18_Node000014_Node000010"><a xlink:title=" ">
<path fill="none" stroke="#63b8ff" d="M748.05,-66.05C804.37,-55.72 896.48,-38.83 957.57,-27.63"/>
<polygon fill="#63b8ff" stroke="#63b8ff" points="958.02,-30.92 967.23,-25.67 956.76,-24.03 958.02,-30.92"/>
</a>
</g>
</g>
<!-- Node15 -->
<g id="Node000015" class="node">
<title>Node15</title>
<g id="a_Node000015"><a xlink:title=" ">
<polygon fill="#e0e0e0" stroke="#999999" points="718.72,-24.88 670.47,-24.88 670.47,-5.63 718.72,-5.63 718.72,-24.88"/>
<text text-anchor="middle" x="694.59" y="-11.38" font-family="Helvetica,sans-Serif" font-size="10.00">random</text>
</a>
</g>
</g>
<!-- Node14&#45;&gt;Node15 -->
<g id="edge19_Node000014_Node000015" class="edge">
<title>Node14&#45;&gt;Node15</title>
<g id="a_edge19_Node000014_Node000015"><a xlink:title=" ">
<path fill="none" stroke="#63b8ff" d="M697.99,-66.18C697.45,-58.23 696.64,-46.31 695.94,-36.12"/>
<polygon fill="#63b8ff" stroke="#63b8ff" points="699.38,-36.02 695.21,-26.28 692.39,-36.49 699.38,-36.02"/>
</a>
</g>
</g>
<!-- Node16&#45;&gt;Node2 -->
<g id="edge21_Node000016_Node000002" class="edge">
<title>Node16&#45;&gt;Node2</title>
<g id="a_edge21_Node000016_Node000002"><a xlink:title=" ">
<path fill="none" stroke="#63b8ff" d="M262.08,-121.33C280.47,-112.32 309.49,-98.1 334.59,-85.75 351.94,-77.22 355.02,-71.84 373.59,-66.5 525.58,-22.81 571.25,-54.3 727.59,-30.5 733.42,-29.61 739.49,-28.57 745.52,-27.45"/>
<polygon fill="#63b8ff" stroke="#63b8ff" points="746.1,-30.7 755.26,-25.37 744.78,-23.83 746.1,-30.7"/>
</a>
</g>
</g>
<!-- Node16&#45;&gt;Node6 -->
<g id="edge22_Node000016_Node000006" class="edge">
<title>Node16&#45;&gt;Node6</title>
<g id="a_edge22_Node000016_Node000006"><a xlink:title=" ">
<path fill="none" stroke="#63b8ff" d="M173.5,-126.89C111.14,-122.14 26.64,-111.1 5.59,-85.75 -14.29,-61.79 24.75,-40.81 57.25,-28.34"/>
<polygon fill="#63b8ff" stroke="#63b8ff" points="58.31,-31.31 66.5,-24.59 55.9,-24.74 58.31,-31.31"/>
</a>
</g>
</g>
<!-- Node16&#45;&gt;Node8 -->
<g id="edge24_Node000016_Node000008" class="edge">
<title>Node16&#45;&gt;Node8</title>
<g id="a_edge24_Node000016_Node000008"><a xlink:title=" ">
<path fill="none" stroke="#63b8ff" d="M206.81,-121.34C188.32,-114.74 167.57,-103.71 156.59,-85.75 147.09,-70.2 153.27,-49.39 160.16,-34.6"/>
<polygon fill="#63b8ff" stroke="#63b8ff" points="163.61,-36.55 165.09,-26.06 157.39,-33.34 163.61,-36.55"/>
</a>
</g>
</g>
<!-- Node17 -->
<g id="Node000017" class="node">
<title>Node17</title>
<g id="a_Node000017"><a xlink:title=" ">
<polygon fill="#e0e0e0" stroke="#999999" points="66.22,-85.75 14.97,-85.75 14.97,-66.5 66.22,-66.5 66.22,-85.75"/>
<text text-anchor="middle" x="40.59" y="-72.25" font-family="Helvetica,sans-Serif" font-size="10.00">memory</text>
</a>
</g>
</g>
<!-- Node16&#45;&gt;Node17 -->
<g id="edge23_Node000016_Node000017" class="edge">
<title>Node16&#45;&gt;Node17</title>
<g id="a_edge23_Node000016_Node000017"><a xlink:title=" ">
<path fill="none" stroke="#63b8ff" d="M209.16,-121.34C172.4,-111.7 114.41,-96.49 76.94,-86.66"/>
<polygon fill="#63b8ff" stroke="#63b8ff" points="78.04,-83.07 67.48,-83.92 76.27,-89.84 78.04,-83.07"/>
</a>
</g>
</g>
<!-- Node16&#45;&gt;Node18 -->
<g id="edge25_Node000016_Node000018" class="edge">
<title>Node16&#45;&gt;Node18</title>
<g id="a_edge25_Node000016_Node000018"><a xlink:title=" ">
<path fill="none" stroke="#63b8ff" d="M313.74,-124.57C435.38,-114.52 684.49,-93.92 810.69,-83.48"/>
<polygon fill="#63b8ff" stroke="#63b8ff" points="810.72,-86.91 820.4,-82.6 810.15,-79.93 810.72,-86.91"/>
</a>
</g>
</g>
<!-- Node18&#45;&gt;Node2 -->
<g id="edge26_Node000018_Node000002" class="edge">
<title>Node18&#45;&gt;Node2</title>
<g id="a_edge26_Node000018_Node000002"><a xlink:title=" ">
<path fill="none" stroke="#63b8ff" d="M873.93,-66.18C859.78,-56.93 837.45,-42.32 820.59,-31.29"/>
<polygon fill="#63b8ff" stroke="#63b8ff" points="822.68,-27.82 812.39,-25.28 818.84,-33.68 822.68,-27.82"/>
</a>
</g>
</g>
<!-- Node18&#45;&gt;Node10 -->
<g id="edge27_Node000018_Node000010" class="edge">
<title>Node18&#45;&gt;Node10</title>
<g id="a_edge27_Node000018_Node000010"><a xlink:title=" ">
<path fill="none" stroke="#63b8ff" d="M907.93,-66.05C926.2,-57.91 953.62,-45.67 976.72,-35.37"/>
<polygon fill="#63b8ff" stroke="#63b8ff" points="977.94,-38.21 985.65,-30.94 975.09,-31.82 977.94,-38.21"/>
</a>
</g>
</g>
<!-- Node19&#45;&gt;Node2 -->
<g id="edge31_Node000019_Node000002" class="edge">
<title>Node19&#45;&gt;Node2</title>
<g id="a_edge31_Node000019_Node000002"><a xlink:title=" ">
<path fill="none" stroke="#63b8ff" d="M1133.62,-121.25C1095.15,-108.74 1023.72,-85.62 962.59,-66.5 920.17,-53.23 871.47,-38.46 838.04,-28.38"/>
<polygon fill="#63b8ff" stroke="#63b8ff" points="839.33,-24.82 828.74,-25.28 837.31,-31.52 839.33,-24.82"/>
</a>
</g>
</g>
<!-- Node19&#45;&gt;Node10 -->
<g id="edge32_Node000019_Node000010" class="edge">
<title>Node19&#45;&gt;Node10</title>
<g id="a_edge32_Node000019_Node000010"><a xlink:title=" ">
<path fill="none" stroke="#63b8ff" d="M1154.97,-121.32C1145.04,-108.17 1125.26,-83.49 1104.59,-66.5 1090.69,-55.07 1073.89,-44.56 1058.91,-36.14"/>
<polygon fill="#63b8ff" stroke="#63b8ff" points="1060.83,-32.66 1050.38,-30.92 1057.47,-38.8 1060.83,-32.66"/>
</a>
</g>
</g>
<!-- Node20 -->
<g id="Node000020" class="node">
<title>Node20</title>
<g id="a_Node000020"><a xlink:title=" ">
<polygon fill="#e0e0e0" stroke="#999999" points="1261.72,-85.75 1189.47,-85.75 1189.47,-66.5 1261.72,-66.5 1261.72,-85.75"/>
<text text-anchor="middle" x="1225.59" y="-72.25" font-family="Helvetica,sans-Serif" font-size="10.00">Eigen/Dense</text>
</a>
</g>
</g>
<!-- Node19&#45;&gt;Node20 -->
<g id="edge30_Node000019_Node000020" class="edge">
<title>Node19&#45;&gt;Node20</title>
<g id="a_edge30_Node000019_Node000020"><a xlink:title=" ">
<path fill="none" stroke="#63b8ff" d="M1172.45,-121.34C1181.79,-113.57 1195.49,-102.17 1206.64,-92.9"/>
<polygon fill="#63b8ff" stroke="#63b8ff" points="1208.45,-95.11 1213.9,-86.02 1203.97,-89.73 1208.45,-95.11"/>
</a>
</g>
</g>
<!-- Node21 -->
<g id="Node000021" class="node">
<title>Node21</title>
<g id="a_Node000021"><a xlink:title=" ">
<polygon fill="#e0e0e0" stroke="#999999" points="1397.22,-85.75 1279.97,-85.75 1279.97,-66.5 1397.22,-66.5 1397.22,-85.75"/>
<text text-anchor="middle" x="1338.59" y="-72.25" font-family="Helvetica,sans-Serif" font-size="10.00">boost/preprocessor.hpp</text>
</a>
</g>
</g>
<!-- Node19&#45;&gt;Node21 -->
<g id="edge33_Node000019_Node000021" class="edge">
<title>Node19&#45;&gt;Node21</title>
<g id="a_edge33_Node000019_Node000021"><a xlink:title=" ">
<path fill="none" stroke="#63b8ff" d="M1191.62,-121.34C1220.86,-112.54 1265.52,-99.11 1297.94,-89.36"/>
<polygon fill="#63b8ff" stroke="#63b8ff" points="1298.85,-92.44 1307.42,-86.2 1296.84,-85.73 1298.85,-92.44"/>
</a>
</g>
</g>
<!-- Node22 -->
<g id="Node000022" class="node">
<title>Node22</title>
<g id="a_Node000022"><a xlink:title=" ">
<polygon fill="#e0e0e0" stroke="#999999" points="1473.97,-85.75 1415.22,-85.75 1415.22,-66.5 1473.97,-66.5 1473.97,-85.75"/>
<text text-anchor="middle" x="1444.59" y="-72.25" font-family="Helvetica,sans-Serif" font-size="10.00">stdexcept</text>
</a>
</g>
</g>
<!-- Node19&#45;&gt;Node22 -->
<g id="edge34_Node000019_Node000022" class="edge">
<title>Node19&#45;&gt;Node22</title>
<g id="a_edge34_Node000019_Node000022"><a xlink:title=" ">
<path fill="none" stroke="#63b8ff" d="M1215.25,-121.29C1262.64,-113.1 1333.87,-100.43 1404.36,-86.15"/>
<polygon fill="#63b8ff" stroke="#63b8ff" points="1404.65,-89.45 1413.75,-84.03 1403.25,-82.6 1404.65,-89.45"/>
</a>
</g>
</g>
<!-- Node19&#45;&gt;Node23 -->
<g id="edge35_Node000019_Node000023" class="edge">
<title>Node19&#45;&gt;Node23</title>
<g id="a_edge35_Node000019_Node000023"><a xlink:title=" ">
<path fill="none" stroke="#63b8ff" d="M1146.33,-121.34C1132.62,-113.23 1112.26,-101.18 1096.24,-91.71"/>
<polygon fill="#63b8ff" stroke="#63b8ff" points="1098.33,-88.28 1087.94,-86.2 1094.76,-94.31 1098.33,-88.28"/>
</a>
</g>
</g>
<!-- Node23&#45;&gt;Node2 -->
<g id="edge36_Node000023_Node000002" class="edge">
<title>Node23&#45;&gt;Node2</title>
<g id="a_edge36_Node000023_Node000002"><a xlink:title=" ">
<path fill="none" stroke="#63b8ff" d="M1047.76,-70C1004,-60.6 909.9,-40.38 850.4,-27.6"/>
<polygon fill="#63b8ff" stroke="#63b8ff" points="851.23,-23.98 840.71,-25.3 849.76,-30.82 851.23,-23.98"/>
</a>
</g>
</g>
<!-- Node23&#45;&gt;Node9 -->
<g id="edge38_Node000023_Node000009" class="edge">
<title>Node23&#45;&gt;Node9</title>
<g id="a_edge38_Node000023_Node000009"><a xlink:title=" ">
<path fill="none" stroke="#63b8ff" d="M1078.43,-66.18C1084.97,-57.62 1095.02,-44.48 1103.16,-33.82"/>
<polygon fill="#63b8ff" stroke="#63b8ff" points="1106.4,-36.35 1109.7,-26.28 1100.84,-32.1 1106.4,-36.35"/>
</a>
</g>
</g>
<!-- Node23&#45;&gt;Node10 -->
<g id="edge37_Node000023_Node000010" class="edge">
<title>Node23&#45;&gt;Node10</title>
<g id="a_edge37_Node000023_Node000010"><a xlink:title=" ">
<path fill="none" stroke="#63b8ff" d="M1063.7,-66.18C1057.28,-58.92 1047.94,-48.35 1039.51,-38.8"/>
<polygon fill="#63b8ff" stroke="#63b8ff" points="1042.67,-36.96 1033.43,-31.78 1037.43,-41.59 1042.67,-36.96"/>
</a>
</g>
</g>
</g>
</svg>
