<?xml version="1.0" encoding="UTF-8" standalone="no"?>
<!DOCTYPE svg PUBLIC "-//W3C//DTD SVG 1.1//EN"
 "http://www.w3.org/Graphics/SVG/1.1/DTD/svg11.dtd">
<!-- Generated by graphviz version 8.1.0 (20230707.0739)
 -->
<!-- Title: ExampleFrozenOrbits.cpp Pages: 1 -->
<svg width="1856pt" height="326pt"
 viewBox="0.00 0.00 1856.38 326.00" xmlns="http://www.w3.org/2000/svg" xmlns:xlink="http://www.w3.org/1999/xlink">
<g id="graph0" class="graph" transform="scale(1 1) rotate(0) translate(4 322)">
<title>ExampleFrozenOrbits.cpp</title>
<!-- Node1 -->
<g id="Node000001" class="node">
<title>Node1</title>
<g id="a_Node000001"><a xlink:title="Example of frozen orbits.">
<polygon fill="#999999" stroke="#666666" points="494.62,-318 365.38,-318 365.38,-298.75 494.62,-298.75 494.62,-318"/>
<text text-anchor="middle" x="430" y="-304.5" font-family="Helvetica,sans-Serif" font-size="10.00">ExampleFrozenOrbits.cpp</text>
</a>
</g>
</g>
<!-- Node2 -->
<g id="Node000002" class="node">
<title>Node2</title>
<g id="a_Node000002"><a xlink:href="_constants_8h.html" target="_top" xlink:title="List of constants.">
<polygon fill="white" stroke="#666666" points="878.5,-141 763.5,-141 763.5,-121.75 878.5,-121.75 878.5,-141"/>
<text text-anchor="middle" x="821" y="-127.5" font-family="Helvetica,sans-Serif" font-size="10.00">lupnt/core/Constants.h</text>
</a>
</g>
</g>
<!-- Node1&#45;&gt;Node2 -->
<g id="edge1_Node000001_Node000002" class="edge">
<title>Node1&#45;&gt;Node2</title>
<g id="a_edge1_Node000001_Node000002"><a xlink:title=" ">
<path fill="none" stroke="#63b8ff" d="M474.3,-298.31C507.43,-290.78 553.47,-278.73 592,-262.75 672.25,-229.46 759.46,-173.82 799.14,-147.3"/>
<polygon fill="#63b8ff" stroke="#63b8ff" points="800.83,-149.71 807.17,-141.22 796.92,-143.9 800.83,-149.71"/>
</a>
</g>
</g>
<!-- Node4 -->
<g id="Node000004" class="node">
<title>Node4</title>
<g id="a_Node000004"><a xlink:title=" ">
<polygon fill="#e0e0e0" stroke="#999999" points="1124.5,-24.88 1003.5,-24.88 1003.5,-5.63 1124.5,-5.63 1124.5,-24.88"/>
<text text-anchor="middle" x="1064" y="-11.38" font-family="Helvetica,sans-Serif" font-size="10.00">autodiff/forward/real.hpp</text>
</a>
</g>
</g>
<!-- Node1&#45;&gt;Node4 -->
<g id="edge47_Node000001_Node000004" class="edge">
<title>Node1&#45;&gt;Node4</title>
<g id="a_edge47_Node000001_Node000004"><a xlink:title=" ">
<path fill="none" stroke="#63b8ff" d="M462.48,-298.25C506.05,-283.8 578,-251.17 578,-193.25 578,-193.25 578,-193.25 578,-130.38 578,-92.33 601.24,-84.05 635,-66.5 695.57,-35.01 886.95,-22.9 992.46,-18.52"/>
<polygon fill="#63b8ff" stroke="#63b8ff" points="992.48,-21.99 1002.33,-18.09 992.2,-14.99 992.48,-21.99"/>
</a>
</g>
</g>
<!-- Node5 -->
<g id="Node000005" class="node">
<title>Node5</title>
<g id="a_Node000005"><a xlink:title=" ">
<polygon fill="#e0e0e0" stroke="#999999" points="340,-24.88 300,-24.88 300,-5.63 340,-5.63 340,-24.88"/>
<text text-anchor="middle" x="320" y="-11.38" font-family="Helvetica,sans-Serif" font-size="10.00">string</text>
</a>
</g>
</g>
<!-- Node1&#45;&gt;Node5 -->
<g id="edge62_Node000001_Node000005" class="edge">
<title>Node1&#45;&gt;Node5</title>
<g id="a_edge62_Node000001_Node000005"><a xlink:title=" ">
<path fill="none" stroke="#63b8ff" d="M397.52,-298.25C353.95,-283.8 282,-251.17 282,-193.25 282,-193.25 282,-193.25 282,-130.38 282,-95.2 298.45,-56.91 309.7,-34.83"/>
<polygon fill="#63b8ff" stroke="#63b8ff" points="313.12,-36.85 314.72,-26.37 306.94,-33.57 313.12,-36.85"/>
</a>
</g>
</g>
<!-- Node6 -->
<g id="Node000006" class="node">
<title>Node6</title>
<g id="a_Node000006"><a xlink:href="_user_file_path_8h.html" target="_top" xlink:title="File access utils.">
<polygon fill="white" stroke="#666666" points="253.62,-85.75 172.38,-85.75 172.38,-66.5 253.62,-66.5 253.62,-85.75"/>
<text text-anchor="middle" x="213" y="-72.25" font-family="Helvetica,sans-Serif" font-size="10.00">UserFilePath.h</text>
</a>
</g>
</g>
<!-- Node1&#45;&gt;Node6 -->
<g id="edge10_Node000001_Node000006" class="edge">
<title>Node1&#45;&gt;Node6</title>
<g id="a_edge10_Node000001_Node000006"><a xlink:title=" ">
<path fill="none" stroke="#63b8ff" d="M365,-304.1C332.01,-299.16 293.62,-287.88 268,-262.75 221.65,-217.29 213.93,-134.75 212.94,-96.97"/>
<polygon fill="#63b8ff" stroke="#63b8ff" points="216.43,-96.95 212.81,-86.99 209.43,-97.03 216.43,-96.95"/>
</a>
</g>
</g>
<!-- Node8 -->
<g id="Node000008" class="node">
<title>Node8</title>
<g id="a_Node000008"><a xlink:title=" ">
<polygon fill="#e0e0e0" stroke="#999999" points="133.75,-24.88 80.25,-24.88 80.25,-5.63 133.75,-5.63 133.75,-24.88"/>
<text text-anchor="middle" x="107" y="-11.38" font-family="Helvetica,sans-Serif" font-size="10.00">iostream</text>
</a>
</g>
</g>
<!-- Node1&#45;&gt;Node8 -->
<g id="edge49_Node000001_Node000008" class="edge">
<title>Node1&#45;&gt;Node8</title>
<g id="a_edge49_Node000001_Node000008"><a xlink:title=" ">
<path fill="none" stroke="#63b8ff" d="M365.16,-303.62C245.03,-294.87 0,-267.88 0,-193.25 0,-193.25 0,-193.25 0,-130.38 0,-100.76 0.6,-89.71 19,-66.5 32.16,-49.91 52.4,-37.81 70.15,-29.65"/>
<polygon fill="#63b8ff" stroke="#63b8ff" points="71.45,-32.47 79.25,-25.29 68.68,-26.04 71.45,-32.47"/>
</a>
</g>
</g>
<!-- Node10 -->
<g id="Node000010" class="node">
<title>Node10</title>
<g id="a_Node000010"><a xlink:href="_dynamics_8h.html" target="_top" xlink:title="Interface for Dynamics.">
<polygon fill="white" stroke="#666666" points="1096.75,-201.88 959.25,-201.88 959.25,-182.62 1096.75,-182.62 1096.75,-201.88"/>
<text text-anchor="middle" x="1028" y="-188.38" font-family="Helvetica,sans-Serif" font-size="10.00">lupnt/dynamics/Dynamics.h</text>
</a>
</g>
</g>
<!-- Node1&#45;&gt;Node10 -->
<g id="edge11_Node000001_Node000010" class="edge">
<title>Node1&#45;&gt;Node10</title>
<g id="a_edge11_Node000001_Node000010"><a xlink:title=" ">
<path fill="none" stroke="#63b8ff" d="M495.07,-299.37C556.41,-291.44 650.79,-278.26 732,-262.75 821.63,-245.64 925.17,-219.95 982.98,-205.07"/>
<polygon fill="#63b8ff" stroke="#63b8ff" points="983.76,-208.22 992.57,-202.33 982.01,-201.44 983.76,-208.22"/>
</a>
</g>
</g>
<!-- Node13 -->
<g id="Node000013" class="node">
<title>Node13</title>
<g id="a_Node000013"><a xlink:title=" ">
<polygon fill="#e0e0e0" stroke="#999999" points="77.5,-85.75 28.5,-85.75 28.5,-66.5 77.5,-66.5 77.5,-85.75"/>
<text text-anchor="middle" x="53" y="-72.25" font-family="Helvetica,sans-Serif" font-size="10.00">fstream</text>
</a>
</g>
</g>
<!-- Node1&#45;&gt;Node13 -->
<g id="edge48_Node000001_Node000013" class="edge">
<title>Node1&#45;&gt;Node13</title>
<g id="a_edge48_Node000001_Node000013"><a xlink:title=" ">
<path fill="none" stroke="#63b8ff" d="M365.02,-299.49C329.42,-293.2 285.47,-282.1 250,-262.75 168.23,-218.15 94.99,-131.34 66.09,-94.42"/>
<polygon fill="#63b8ff" stroke="#63b8ff" points="68.6,-92.94 59.72,-87.16 63.05,-97.22 68.6,-92.94"/>
</a>
</g>
</g>
<!-- Node27 -->
<g id="Node000027" class="node">
<title>Node27</title>
<g id="a_Node000027"><a xlink:href="_lunar_mean_osc_8cpp.html" target="_top" xlink:title="Lunar Mean and Osculating Elements.">
<polygon fill="white" stroke="#666666" points="1521.75,-262.75 1360.25,-262.75 1360.25,-243.5 1521.75,-243.5 1521.75,-262.75"/>
<text text-anchor="middle" x="1441" y="-249.25" font-family="Helvetica,sans-Serif" font-size="10.00">lupnt/physics/LunarMeanOsc.cpp</text>
</a>
</g>
</g>
<!-- Node1&#45;&gt;Node27 -->
<g id="edge50_Node000001_Node000027" class="edge">
<title>Node1&#45;&gt;Node27</title>
<g id="a_edge50_Node000001_Node000027"><a xlink:title=" ">
<path fill="none" stroke="#63b8ff" d="M494.78,-303.96C668.85,-294.79 1147.14,-269.6 1349.09,-258.97"/>
<polygon fill="#63b8ff" stroke="#63b8ff" points="1349.16,-262.41 1358.96,-258.39 1348.79,-255.42 1349.16,-262.41"/>
</a>
</g>
</g>
<!-- Node3 -->
<g id="Node000003" class="node">
<title>Node3</title>
<g id="a_Node000003"><a xlink:title=" ">
<polygon fill="#e0e0e0" stroke="#999999" points="999.88,-85.75 866.12,-85.75 866.12,-66.5 999.88,-66.5 999.88,-85.75"/>
<text text-anchor="middle" x="933" y="-72.25" font-family="Helvetica,sans-Serif" font-size="10.00">autodiff/common/eigen.hpp</text>
</a>
</g>
</g>
<!-- Node2&#45;&gt;Node3 -->
<g id="edge2_Node000002_Node000003" class="edge">
<title>Node2&#45;&gt;Node3</title>
<g id="a_edge2_Node000002_Node000003"><a xlink:title=" ">
<path fill="none" stroke="#63b8ff" d="M840,-121.34C857.54,-113 883.84,-100.5 904,-90.91"/>
<polygon fill="#63b8ff" stroke="#63b8ff" points="905.38,-93.66 912.91,-86.2 902.37,-87.34 905.38,-93.66"/>
</a>
</g>
</g>
<!-- Node2&#45;&gt;Node4 -->
<g id="edge3_Node000002_Node000004" class="edge">
<title>Node2&#45;&gt;Node4</title>
<g id="a_edge3_Node000002_Node000004"><a xlink:title=" ">
<path fill="none" stroke="#63b8ff" d="M823.51,-121.41C827.9,-107.45 838.32,-80.63 857,-66.5 895.87,-37.08 949.6,-24.63 992.58,-19.48"/>
<polygon fill="#63b8ff" stroke="#63b8ff" points="992.69,-22.88 1002.26,-18.32 991.94,-15.92 992.69,-22.88"/>
</a>
</g>
</g>
<!-- Node2&#45;&gt;Node5 -->
<g id="edge4_Node000002_Node000005" class="edge">
<title>Node2&#45;&gt;Node5</title>
<g id="a_edge4_Node000002_Node000005"><a xlink:title=" ">
<path fill="none" stroke="#63b8ff" d="M808.51,-121.42C788,-107.2 745.42,-79.74 705,-66.5 578.4,-25.03 417.81,-17.64 351.17,-16.43"/>
<polygon fill="#63b8ff" stroke="#63b8ff" points="351.26,-12.91 341.21,-16.27 351.16,-19.91 351.26,-12.91"/>
</a>
</g>
</g>
<!-- Node2&#45;&gt;Node6 -->
<g id="edge5_Node000002_Node000006" class="edge">
<title>Node2&#45;&gt;Node6</title>
<g id="a_edge5_Node000002_Node000006"><a xlink:title=" ">
<path fill="none" stroke="#63b8ff" d="M763.07,-122.65C760.34,-122.33 757.64,-122.03 755,-121.75 575.28,-102.62 361.29,-87.15 264.76,-80.56"/>
<polygon fill="#63b8ff" stroke="#63b8ff" points="265.07,-77 254.86,-79.82 264.6,-83.99 265.07,-77"/>
</a>
</g>
</g>
<!-- Node6&#45;&gt;Node5 -->
<g id="edge9_Node000006_Node000005" class="edge">
<title>Node6&#45;&gt;Node5</title>
<g id="a_edge9_Node000006_Node000005"><a xlink:title=" ">
<path fill="none" stroke="#63b8ff" d="M229.25,-66.18C246.46,-56.72 273.86,-41.64 294.06,-30.52"/>
<polygon fill="#63b8ff" stroke="#63b8ff" points="295.52,-33.16 302.6,-25.28 292.15,-27.03 295.52,-33.16"/>
</a>
</g>
</g>
<!-- Node7 -->
<g id="Node000007" class="node">
<title>Node7</title>
<g id="a_Node000007"><a xlink:title=" ">
<polygon fill="#e0e0e0" stroke="#999999" points="281.5,-24.88 220.5,-24.88 220.5,-5.63 281.5,-5.63 281.5,-24.88"/>
<text text-anchor="middle" x="251" y="-11.38" font-family="Helvetica,sans-Serif" font-size="10.00">filesystem</text>
</a>
</g>
</g>
<!-- Node6&#45;&gt;Node7 -->
<g id="edge6_Node000006_Node000007" class="edge">
<title>Node6&#45;&gt;Node7</title>
<g id="a_edge6_Node000006_Node000007"><a xlink:title=" ">
<path fill="none" stroke="#63b8ff" d="M218.77,-66.18C224.18,-57.8 232.44,-45.01 239.24,-34.47"/>
<polygon fill="#63b8ff" stroke="#63b8ff" points="242.69,-36.58 245.17,-26.28 236.81,-32.78 242.69,-36.58"/>
</a>
</g>
</g>
<!-- Node6&#45;&gt;Node8 -->
<g id="edge7_Node000006_Node000008" class="edge">
<title>Node6&#45;&gt;Node8</title>
<g id="a_edge7_Node000006_Node000008"><a xlink:title=" ">
<path fill="none" stroke="#63b8ff" d="M196.9,-66.18C179.86,-56.72 152.71,-41.64 132.7,-30.52"/>
<polygon fill="#63b8ff" stroke="#63b8ff" points="134.69,-27.07 124.25,-25.28 131.29,-33.19 134.69,-27.07"/>
</a>
</g>
</g>
<!-- Node9 -->
<g id="Node000009" class="node">
<title>Node9</title>
<g id="a_Node000009"><a xlink:title=" ">
<polygon fill="#e0e0e0" stroke="#999999" points="202.88,-24.88 153.12,-24.88 153.12,-5.63 202.88,-5.63 202.88,-24.88"/>
<text text-anchor="middle" x="178" y="-11.38" font-family="Helvetica,sans-Serif" font-size="10.00">optional</text>
</a>
</g>
</g>
<!-- Node6&#45;&gt;Node9 -->
<g id="edge8_Node000006_Node000009" class="edge">
<title>Node6&#45;&gt;Node9</title>
<g id="a_edge8_Node000006_Node000009"><a xlink:title=" ">
<path fill="none" stroke="#63b8ff" d="M207.68,-66.18C202.7,-57.8 195.1,-45.01 188.83,-34.47"/>
<polygon fill="#63b8ff" stroke="#63b8ff" points="191.48,-33.08 183.37,-26.28 185.47,-36.66 191.48,-33.08"/>
</a>
</g>
</g>
<!-- Node10&#45;&gt;Node4 -->
<g id="edge12_Node000010_Node000004" class="edge">
<title>Node10&#45;&gt;Node4</title>
<g id="a_edge12_Node000010_Node000004"><a xlink:title=" ">
<path fill="none" stroke="#63b8ff" d="M1028.81,-182.37C1030.81,-161.79 1036.59,-109.29 1047,-66.5 1049.54,-56.07 1053.29,-44.71 1056.63,-35.44"/>
<polygon fill="#63b8ff" stroke="#63b8ff" points="1060.17,-36.96 1060.37,-26.37 1053.61,-34.52 1060.17,-36.96"/>
</a>
</g>
</g>
<!-- Node11 -->
<g id="Node000011" class="node">
<title>Node11</title>
<g id="a_Node000011"><a xlink:href="_gravity_field_8h.html" target="_top" xlink:title="Gravity field model and acceleration calculation.">
<polygon fill="white" stroke="#666666" points="520.88,-141 375.12,-141 375.12,-121.75 520.88,-121.75 520.88,-141"/>
<text text-anchor="middle" x="448" y="-127.5" font-family="Helvetica,sans-Serif" font-size="10.00">lupnt/dynamics/GravityField.h</text>
</a>
</g>
</g>
<!-- Node10&#45;&gt;Node11 -->
<g id="edge13_Node000010_Node000011" class="edge">
<title>Node10&#45;&gt;Node11</title>
<g id="a_edge13_Node000010_Node000011"><a xlink:title=" ">
<path fill="none" stroke="#63b8ff" d="M958.9,-184.24C852.11,-173.4 647.28,-152.6 532.06,-140.91"/>
<polygon fill="#63b8ff" stroke="#63b8ff" points="532.5,-137.33 522.2,-139.8 531.79,-144.3 532.5,-137.33"/>
</a>
</g>
</g>
<!-- Node19 -->
<g id="Node000019" class="node">
<title>Node19</title>
<g id="a_Node000019"><a xlink:href="_propagator_8h.html" target="_top" xlink:title="Numerical Propagator.">
<polygon fill="white" stroke="#666666" points="745.88,-141 606.12,-141 606.12,-121.75 745.88,-121.75 745.88,-141"/>
<text text-anchor="middle" x="676" y="-127.5" font-family="Helvetica,sans-Serif" font-size="10.00">lupnt/dynamics/Propagator.h</text>
</a>
</g>
</g>
<!-- Node10&#45;&gt;Node19 -->
<g id="edge27_Node000010_Node000019" class="edge">
<title>Node10&#45;&gt;Node19</title>
<g id="a_edge27_Node000010_Node000019"><a xlink:title=" ">
<path fill="none" stroke="#63b8ff" d="M973.77,-182.18C911.11,-171.7 808.06,-154.46 741.12,-143.27"/>
<polygon fill="#63b8ff" stroke="#63b8ff" points="741.73,-139.65 731.29,-141.46 740.58,-146.56 741.73,-139.65"/>
</a>
</g>
</g>
<!-- Node21 -->
<g id="Node000021" class="node">
<title>Node21</title>
<g id="a_Node000021"><a xlink:href="_integrator_8h.html" target="_top" xlink:title="Integrator interfaces.">
<polygon fill="white" stroke="#666666" points="1187.75,-85.75 1056.25,-85.75 1056.25,-66.5 1187.75,-66.5 1187.75,-85.75"/>
<text text-anchor="middle" x="1122" y="-72.25" font-family="Helvetica,sans-Serif" font-size="10.00">lupnt/numerics/Integrator.h</text>
</a>
</g>
</g>
<!-- Node10&#45;&gt;Node21 -->
<g id="edge35_Node000010_Node000021" class="edge">
<title>Node10&#45;&gt;Node21</title>
<g id="a_edge35_Node000010_Node000021"><a xlink:title=" ">
<path fill="none" stroke="#63b8ff" d="M1035.38,-182.29C1050.96,-163.38 1087.45,-119.07 1107.75,-94.43"/>
<polygon fill="#63b8ff" stroke="#63b8ff" points="1111,-96.98 1114.66,-87.04 1105.6,-92.53 1111,-96.98"/>
</a>
</g>
</g>
<!-- Node22 -->
<g id="Node000022" class="node">
<title>Node22</title>
<g id="a_Node000022"><a xlink:href="_orbit_state_8h.html" target="_top" xlink:title="Orbit states.">
<polygon fill="white" stroke="#666666" points="1457.62,-141 1328.38,-141 1328.38,-121.75 1457.62,-121.75 1457.62,-141"/>
<text text-anchor="middle" x="1393" y="-127.5" font-family="Helvetica,sans-Serif" font-size="10.00">lupnt/physics/OrbitState.h</text>
</a>
</g>
</g>
<!-- Node10&#45;&gt;Node22 -->
<g id="edge36_Node000010_Node000022" class="edge">
<title>Node10&#45;&gt;Node22</title>
<g id="a_edge36_Node000010_Node000022"><a xlink:title=" ">
<path fill="none" stroke="#63b8ff" d="M1084.23,-182.18C1149.34,-171.68 1256.5,-154.39 1325.9,-143.2"/>
<polygon fill="#63b8ff" stroke="#63b8ff" points="1326.39,-146.5 1335.7,-141.46 1325.27,-139.59 1326.39,-146.5"/>
</a>
</g>
</g>
<!-- Node26 -->
<g id="Node000026" class="node">
<title>Node26</title>
<g id="a_Node000026"><a xlink:href="_state_8h.html" target="_top" xlink:title="SPICE Interface functions.">
<polygon fill="white" stroke="#666666" points="1253.75,-85.75 1206.25,-85.75 1206.25,-66.5 1253.75,-66.5 1253.75,-85.75"/>
<text text-anchor="middle" x="1230" y="-72.25" font-family="Helvetica,sans-Serif" font-size="10.00">State.h</text>
</a>
</g>
</g>
<!-- Node10&#45;&gt;Node26 -->
<g id="edge46_Node000010_Node000026" class="edge">
<title>Node10&#45;&gt;Node26</title>
<g id="a_edge46_Node000010_Node000026"><a xlink:title=" ">
<path fill="none" stroke="#63b8ff" d="M1043.85,-182.29C1078.72,-162.59 1162.35,-115.35 1204.62,-91.46"/>
<polygon fill="#63b8ff" stroke="#63b8ff" points="1205.96,-94.16 1212.94,-86.2 1202.52,-88.07 1205.96,-94.16"/>
</a>
</g>
</g>
<!-- Node11&#45;&gt;Node4 -->
<g id="edge20_Node000011_Node000004" class="edge">
<title>Node11&#45;&gt;Node4</title>
<g id="a_edge20_Node000011_Node000004"><a xlink:title=" ">
<path fill="none" stroke="#63b8ff" d="M463.69,-121.27C492.86,-104.43 553.41,-69.8 564,-66.5 642.05,-42.21 873.77,-26.55 992.34,-19.91"/>
<polygon fill="#63b8ff" stroke="#63b8ff" points="992.32,-23.36 1002.11,-19.31 991.93,-16.37 992.32,-23.36"/>
</a>
</g>
</g>
<!-- Node11&#45;&gt;Node5 -->
<g id="edge18_Node000011_Node000005" class="edge">
<title>Node11&#45;&gt;Node5</title>
<g id="a_edge18_Node000011_Node000005"><a xlink:title=" ">
<path fill="none" stroke="#63b8ff" d="M401.34,-121.29C379.61,-114.8 355.06,-103.89 339,-85.75 326.83,-72 322.37,-51.18 320.78,-35.9"/>
<polygon fill="#63b8ff" stroke="#63b8ff" points="324.21,-35.82 320.03,-26.09 317.23,-36.31 324.21,-35.82"/>
</a>
</g>
</g>
<!-- Node11&#45;&gt;Node6 -->
<g id="edge22_Node000011_Node000006" class="edge">
<title>Node11&#45;&gt;Node6</title>
<g id="a_edge22_Node000011_Node000006"><a xlink:title=" ">
<path fill="none" stroke="#63b8ff" d="M407.87,-121.28C367.99,-112.24 306.7,-98.36 263.53,-88.57"/>
<polygon fill="#63b8ff" stroke="#63b8ff" points="264.49,-84.98 253.97,-86.18 262.94,-91.8 264.49,-84.98"/>
</a>
</g>
</g>
<!-- Node11&#45;&gt;Node8 -->
<g id="edge16_Node000011_Node000008" class="edge">
<title>Node11&#45;&gt;Node8</title>
<g id="a_edge16_Node000011_Node000008"><a xlink:title=" ">
<path fill="none" stroke="#63b8ff" d="M374.95,-128.86C292.8,-125.68 166.12,-115.88 130,-85.75 115.38,-73.55 109.99,-51.83 108.04,-35.91"/>
<polygon fill="#63b8ff" stroke="#63b8ff" points="111.46,-35.78 107.12,-26.12 104.48,-36.38 111.46,-35.78"/>
</a>
</g>
</g>
<!-- Node12 -->
<g id="Node000012" class="node">
<title>Node12</title>
<g id="a_Node000012"><a xlink:title=" ">
<polygon fill="#e0e0e0" stroke="#999999" points="403.88,-85.75 348.12,-85.75 348.12,-66.5 403.88,-66.5 403.88,-85.75"/>
<text text-anchor="middle" x="376" y="-72.25" font-family="Helvetica,sans-Serif" font-size="10.00">algorithm</text>
</a>
</g>
</g>
<!-- Node11&#45;&gt;Node12 -->
<g id="edge14_Node000011_Node000012" class="edge">
<title>Node11&#45;&gt;Node12</title>
<g id="a_edge14_Node000011_Node000012"><a xlink:title=" ">
<path fill="none" stroke="#63b8ff" d="M435.79,-121.34C425.07,-113.41 409.26,-101.72 396.59,-92.35"/>
<polygon fill="#63b8ff" stroke="#63b8ff" points="399.15,-89.16 389.03,-86.02 394.99,-94.79 399.15,-89.16"/>
</a>
</g>
</g>
<!-- Node11&#45;&gt;Node13 -->
<g id="edge15_Node000011_Node000013" class="edge">
<title>Node11&#45;&gt;Node13</title>
<g id="a_edge15_Node000011_Node000013"><a xlink:title=" ">
<path fill="none" stroke="#63b8ff" d="M374.75,-123.2C302.57,-115.67 189.29,-102.57 92,-85.75 90.84,-85.55 89.66,-85.34 88.47,-85.12"/>
<polygon fill="#63b8ff" stroke="#63b8ff" points="89.18,-81.49 78.69,-82.95 87.8,-88.35 89.18,-81.49"/>
</a>
</g>
</g>
<!-- Node14 -->
<g id="Node000014" class="node">
<title>Node14</title>
<g id="a_Node000014"><a xlink:title=" ">
<polygon fill="#e0e0e0" stroke="#999999" points="473.62,-85.75 422.38,-85.75 422.38,-66.5 473.62,-66.5 473.62,-85.75"/>
<text text-anchor="middle" x="448" y="-72.25" font-family="Helvetica,sans-Serif" font-size="10.00">sstream</text>
</a>
</g>
</g>
<!-- Node11&#45;&gt;Node14 -->
<g id="edge17_Node000011_Node000014" class="edge">
<title>Node11&#45;&gt;Node14</title>
<g id="a_edge17_Node000011_Node000014"><a xlink:title=" ">
<path fill="none" stroke="#63b8ff" d="M448,-121.58C448,-114.92 448,-105.49 448,-97.03"/>
<polygon fill="#63b8ff" stroke="#63b8ff" points="451.5,-97.11 448,-87.11 444.5,-97.11 451.5,-97.11"/>
</a>
</g>
</g>
<!-- Node15 -->
<g id="Node000015" class="node">
<title>Node15</title>
<g id="a_Node000015"><a xlink:title=" ">
<polygon fill="#e0e0e0" stroke="#999999" points="754.5,-24.88 711.5,-24.88 711.5,-5.63 754.5,-5.63 754.5,-24.88"/>
<text text-anchor="middle" x="733" y="-11.38" font-family="Helvetica,sans-Serif" font-size="10.00">vector</text>
</a>
</g>
</g>
<!-- Node11&#45;&gt;Node15 -->
<g id="edge19_Node000011_Node000015" class="edge">
<title>Node11&#45;&gt;Node15</title>
<g id="a_edge19_Node000011_Node000015"><a xlink:title=" ">
<path fill="none" stroke="#63b8ff" d="M456.2,-121.47C469.49,-107.58 497.17,-80.86 526,-66.5 583.46,-37.88 658.17,-24.97 700.32,-19.62"/>
<polygon fill="#63b8ff" stroke="#63b8ff" points="700.54,-23 710.05,-18.34 699.71,-16.05 700.54,-23"/>
</a>
</g>
</g>
<!-- Node16 -->
<g id="Node000016" class="node">
<title>Node16</title>
<g id="a_Node000016"><a xlink:title=" ">
<polygon fill="#e0e0e0" stroke="#999999" points="1364.12,-30.5 1261.88,-30.5 1261.88,0 1364.12,0 1364.12,-30.5"/>
<text text-anchor="start" x="1269.88" y="-17" font-family="Helvetica,sans-Serif" font-size="10.00">autodiff/forward/real</text>
<text text-anchor="middle" x="1313" y="-5.75" font-family="Helvetica,sans-Serif" font-size="10.00">/eigen.hpp</text>
</a>
</g>
</g>
<!-- Node11&#45;&gt;Node16 -->
<g id="edge21_Node000011_Node000016" class="edge">
<title>Node11&#45;&gt;Node16</title>
<g id="a_edge21_Node000011_Node000016"><a xlink:title=" ">
<path fill="none" stroke="#63b8ff" d="M501.16,-121.29C579.08,-108.15 728.95,-83.55 857,-66.5 997.44,-47.8 1162.89,-30.83 1250.78,-22.21"/>
<polygon fill="#63b8ff" stroke="#63b8ff" points="1251.01,-25.6 1260.62,-21.15 1250.33,-18.64 1251.01,-25.6"/>
</a>
</g>
</g>
<!-- Node17 -->
<g id="Node000017" class="node">
<title>Node17</title>
<g id="a_Node000017"><a xlink:href="_math_utils_8h.html" target="_top" xlink:title=" ">
<polygon fill="white" stroke="#666666" points="1821.5,-85.75 1688.5,-85.75 1688.5,-66.5 1821.5,-66.5 1821.5,-85.75"/>
<text text-anchor="middle" x="1755" y="-72.25" font-family="Helvetica,sans-Serif" font-size="10.00">lupnt/numerics/MathUtils.h</text>
</a>
</g>
</g>
<!-- Node11&#45;&gt;Node17 -->
<g id="edge23_Node000011_Node000017" class="edge">
<title>Node11&#45;&gt;Node17</title>
<g id="a_edge23_Node000011_Node000017"><a xlink:title=" ">
<path fill="none" stroke="#63b8ff" d="M521.12,-125.8C545.27,-124.38 572.28,-122.89 597,-121.75 1060.78,-100.33 1177.43,-111.27 1641,-85.75 1652.8,-85.1 1665.28,-84.29 1677.49,-83.42"/>
<polygon fill="#63b8ff" stroke="#63b8ff" points="1677.4,-86.86 1687.12,-82.65 1676.89,-79.88 1677.4,-86.86"/>
</a>
</g>
</g>
<!-- Node17&#45;&gt;Node4 -->
<g id="edge24_Node000017_Node000004" class="edge">
<title>Node17&#45;&gt;Node4</title>
<g id="a_edge24_Node000017_Node000004"><a xlink:title=" ">
<path fill="none" stroke="#63b8ff" d="M1688.27,-67.89C1683.44,-67.41 1678.65,-66.94 1674,-66.5 1479.28,-48.12 1249.22,-30.19 1135.31,-21.57"/>
<polygon fill="#63b8ff" stroke="#63b8ff" points="1135.88,-18.03 1125.65,-20.76 1135.36,-25.01 1135.88,-18.03"/>
</a>
</g>
</g>
<!-- Node17&#45;&gt;Node16 -->
<g id="edge25_Node000017_Node000016" class="edge">
<title>Node17&#45;&gt;Node16</title>
<g id="a_edge25_Node000017_Node000016"><a xlink:title=" ">
<path fill="none" stroke="#63b8ff" d="M1688.35,-66.25C1603.41,-54.93 1457.73,-35.53 1375.05,-24.52"/>
<polygon fill="#63b8ff" stroke="#63b8ff" points="1375.69,-20.94 1365.31,-23.08 1374.76,-27.87 1375.69,-20.94"/>
</a>
</g>
</g>
<!-- Node18 -->
<g id="Node000018" class="node">
<title>Node18</title>
<g id="a_Node000018"><a xlink:title=" ">
<polygon fill="#e0e0e0" stroke="#999999" points="1779.12,-24.88 1730.88,-24.88 1730.88,-5.63 1779.12,-5.63 1779.12,-24.88"/>
<text text-anchor="middle" x="1755" y="-11.38" font-family="Helvetica,sans-Serif" font-size="10.00">random</text>
</a>
</g>
</g>
<!-- Node17&#45;&gt;Node18 -->
<g id="edge26_Node000017_Node000018" class="edge">
<title>Node17&#45;&gt;Node18</title>
<g id="a_edge26_Node000017_Node000018"><a xlink:title=" ">
<path fill="none" stroke="#63b8ff" d="M1755,-66.18C1755,-58.23 1755,-46.31 1755,-36.12"/>
<polygon fill="#63b8ff" stroke="#63b8ff" points="1758.5,-36.28 1755,-26.28 1751.5,-36.28 1758.5,-36.28"/>
</a>
</g>
</g>
<!-- Node19&#45;&gt;Node4 -->
<g id="edge28_Node000019_Node000004" class="edge">
<title>Node19&#45;&gt;Node4</title>
<g id="a_edge28_Node000019_Node000004"><a xlink:title=" ">
<path fill="none" stroke="#63b8ff" d="M695.21,-121.45C724.72,-108 783.26,-82.45 835,-66.5 889.74,-49.63 953.49,-36.12 999.81,-27.38"/>
<polygon fill="#63b8ff" stroke="#63b8ff" points="1000.41,-30.64 1009.6,-25.37 999.13,-23.76 1000.41,-30.64"/>
</a>
</g>
</g>
<!-- Node19&#45;&gt;Node5 -->
<g id="edge31_Node000019_Node000005" class="edge">
<title>Node19&#45;&gt;Node5</title>
<g id="a_edge31_Node000019_Node000005"><a xlink:title=" ">
<path fill="none" stroke="#63b8ff" d="M649.21,-121.31C611.99,-108.77 542.51,-85.52 483,-66.5 437,-51.8 383.47,-35.44 350.66,-25.5"/>
<polygon fill="#63b8ff" stroke="#63b8ff" points="351.96,-21.93 341.37,-22.38 349.93,-28.63 351.96,-21.93"/>
</a>
</g>
</g>
<!-- Node19&#45;&gt;Node8 -->
<g id="edge29_Node000019_Node000008" class="edge">
<title>Node19&#45;&gt;Node8</title>
<g id="a_edge29_Node000019_Node000008"><a xlink:title=" ">
<path fill="none" stroke="#63b8ff" d="M605.78,-125.73C469.81,-116.53 182.23,-96 163,-85.75 141.69,-74.39 125.57,-51.1 116.22,-34.62"/>
<polygon fill="#63b8ff" stroke="#63b8ff" points="118.86,-33.14 111.07,-25.97 112.69,-36.44 118.86,-33.14"/>
</a>
</g>
</g>
<!-- Node20 -->
<g id="Node000020" class="node">
<title>Node20</title>
<g id="a_Node000020"><a xlink:title=" ">
<polygon fill="#e0e0e0" stroke="#999999" points="695.62,-85.75 644.38,-85.75 644.38,-66.5 695.62,-66.5 695.62,-85.75"/>
<text text-anchor="middle" x="670" y="-72.25" font-family="Helvetica,sans-Serif" font-size="10.00">memory</text>
</a>
</g>
</g>
<!-- Node19&#45;&gt;Node20 -->
<g id="edge30_Node000019_Node000020" class="edge">
<title>Node19&#45;&gt;Node20</title>
<g id="a_edge30_Node000019_Node000020"><a xlink:title=" ">
<path fill="none" stroke="#63b8ff" d="M675.01,-121.58C674.26,-114.92 673.2,-105.49 672.24,-97.03"/>
<polygon fill="#63b8ff" stroke="#63b8ff" points="675.61,-96.65 671.01,-87.11 668.65,-97.44 675.61,-96.65"/>
</a>
</g>
</g>
<!-- Node19&#45;&gt;Node21 -->
<g id="edge32_Node000019_Node000021" class="edge">
<title>Node19&#45;&gt;Node21</title>
<g id="a_edge32_Node000019_Node000021"><a xlink:title=" ">
<path fill="none" stroke="#63b8ff" d="M746.18,-122C827.49,-112.29 961.04,-96.34 1045.11,-86.31"/>
<polygon fill="#63b8ff" stroke="#63b8ff" points="1045.35,-89.68 1054.87,-85.02 1044.52,-82.73 1045.35,-89.68"/>
</a>
</g>
</g>
<!-- Node21&#45;&gt;Node4 -->
<g id="edge33_Node000021_Node000004" class="edge">
<title>Node21&#45;&gt;Node4</title>
<g id="a_edge33_Node000021_Node000004"><a xlink:title=" ">
<path fill="none" stroke="#63b8ff" d="M1113.19,-66.18C1104.5,-57.37 1091.02,-43.68 1080.36,-32.86"/>
<polygon fill="#63b8ff" stroke="#63b8ff" points="1083.4,-30.94 1073.89,-26.28 1078.42,-35.86 1083.4,-30.94"/>
</a>
</g>
</g>
<!-- Node21&#45;&gt;Node16 -->
<g id="edge34_Node000021_Node000016" class="edge">
<title>Node21&#45;&gt;Node16</title>
<g id="a_edge34_Node000021_Node000016"><a xlink:title=" ">
<path fill="none" stroke="#63b8ff" d="M1151.43,-66.05C1178.93,-57.58 1220.77,-44.68 1254.98,-34.13"/>
<polygon fill="#63b8ff" stroke="#63b8ff" points="1255.8,-37.24 1264.33,-30.94 1253.74,-30.55 1255.8,-37.24"/>
</a>
</g>
</g>
<!-- Node22&#45;&gt;Node4 -->
<g id="edge38_Node000022_Node000004" class="edge">
<title>Node22&#45;&gt;Node4</title>
<g id="a_edge38_Node000022_Node000004"><a xlink:title=" ">
<path fill="none" stroke="#63b8ff" d="M1374.28,-121.41C1355.65,-112.47 1326.29,-98.29 1301,-85.75 1284.04,-77.34 1280.73,-73.14 1263,-66.5 1217.15,-49.34 1163.19,-36.12 1123.03,-27.56"/>
<polygon fill="#63b8ff" stroke="#63b8ff" points="1123.86,-23.95 1113.35,-25.33 1122.42,-30.8 1123.86,-23.95"/>
</a>
</g>
</g>
<!-- Node22&#45;&gt;Node16 -->
<g id="edge39_Node000022_Node000016" class="edge">
<title>Node22&#45;&gt;Node16</title>
<g id="a_edge39_Node000022_Node000016"><a xlink:title=" ">
<path fill="none" stroke="#63b8ff" d="M1392.57,-121.39C1391.56,-108.33 1388.2,-83.77 1377,-66.5 1369.55,-55.02 1358.58,-45.03 1347.81,-37.05"/>
<polygon fill="#63b8ff" stroke="#63b8ff" points="1350.1,-33.68 1339.9,-30.83 1346.1,-39.42 1350.1,-33.68"/>
</a>
</g>
</g>
<!-- Node23 -->
<g id="Node000023" class="node">
<title>Node23</title>
<g id="a_Node000023"><a xlink:title=" ">
<polygon fill="#e0e0e0" stroke="#999999" points="1632.12,-85.75 1559.88,-85.75 1559.88,-66.5 1632.12,-66.5 1632.12,-85.75"/>
<text text-anchor="middle" x="1596" y="-72.25" font-family="Helvetica,sans-Serif" font-size="10.00">Eigen/Dense</text>
</a>
</g>
</g>
<!-- Node22&#45;&gt;Node23 -->
<g id="edge37_Node000022_Node000023" class="edge">
<title>Node22&#45;&gt;Node23</title>
<g id="a_edge37_Node000022_Node000023"><a xlink:title=" ">
<path fill="none" stroke="#63b8ff" d="M1427.44,-121.34C1461.41,-112.43 1513.53,-98.76 1550.82,-88.98"/>
<polygon fill="#63b8ff" stroke="#63b8ff" points="1551.61,-92.13 1560.39,-86.2 1549.83,-85.35 1551.61,-92.13"/>
</a>
</g>
</g>
<!-- Node24 -->
<g id="Node000024" class="node">
<title>Node24</title>
<g id="a_Node000024"><a xlink:title=" ">
<polygon fill="#e0e0e0" stroke="#999999" points="1541.62,-85.75 1424.38,-85.75 1424.38,-66.5 1541.62,-66.5 1541.62,-85.75"/>
<text text-anchor="middle" x="1483" y="-72.25" font-family="Helvetica,sans-Serif" font-size="10.00">boost/preprocessor.hpp</text>
</a>
</g>
</g>
<!-- Node22&#45;&gt;Node24 -->
<g id="edge40_Node000022_Node000024" class="edge">
<title>Node22&#45;&gt;Node24</title>
<g id="a_edge40_Node000022_Node000024"><a xlink:title=" ">
<path fill="none" stroke="#63b8ff" d="M1408.27,-121.34C1421.97,-113.23 1442.34,-101.18 1458.35,-91.71"/>
<polygon fill="#63b8ff" stroke="#63b8ff" points="1459.83,-94.31 1466.66,-86.2 1456.27,-88.28 1459.83,-94.31"/>
</a>
</g>
</g>
<!-- Node25 -->
<g id="Node000025" class="node">
<title>Node25</title>
<g id="a_Node000025"><a xlink:title=" ">
<polygon fill="#e0e0e0" stroke="#999999" points="1368.38,-85.75 1309.62,-85.75 1309.62,-66.5 1368.38,-66.5 1368.38,-85.75"/>
<text text-anchor="middle" x="1339" y="-72.25" font-family="Helvetica,sans-Serif" font-size="10.00">stdexcept</text>
</a>
</g>
</g>
<!-- Node22&#45;&gt;Node25 -->
<g id="edge41_Node000022_Node000025" class="edge">
<title>Node22&#45;&gt;Node25</title>
<g id="a_edge41_Node000022_Node000025"><a xlink:title=" ">
<path fill="none" stroke="#63b8ff" d="M1384.08,-121.58C1376.39,-114 1365.07,-102.84 1355.7,-93.6"/>
<polygon fill="#63b8ff" stroke="#63b8ff" points="1358.69,-91.64 1349.11,-87.11 1353.77,-96.62 1358.69,-91.64"/>
</a>
</g>
</g>
<!-- Node22&#45;&gt;Node26 -->
<g id="edge42_Node000022_Node000026" class="edge">
<title>Node22&#45;&gt;Node26</title>
<g id="a_edge42_Node000022_Node000026"><a xlink:title=" ">
<path fill="none" stroke="#63b8ff" d="M1365.35,-121.34C1337.52,-112.25 1294.53,-98.21 1264.49,-88.39"/>
<polygon fill="#63b8ff" stroke="#63b8ff" points="1265.65,-84.76 1255.06,-84.99 1263.48,-91.42 1265.65,-84.76"/>
</a>
</g>
</g>
<!-- Node26&#45;&gt;Node4 -->
<g id="edge43_Node000026_Node000004" class="edge">
<title>Node26&#45;&gt;Node4</title>
<g id="a_edge43_Node000026_Node000004"><a xlink:title=" ">
<path fill="none" stroke="#63b8ff" d="M1205.86,-66.56C1177.99,-56.68 1131.87,-40.32 1099.82,-28.95"/>
<polygon fill="#63b8ff" stroke="#63b8ff" points="1101.13,-25.35 1090.53,-25.3 1098.79,-31.95 1101.13,-25.35"/>
</a>
</g>
</g>
<!-- Node26&#45;&gt;Node15 -->
<g id="edge45_Node000026_Node000015" class="edge">
<title>Node26&#45;&gt;Node15</title>
<g id="a_edge45_Node000026_Node000015"><a xlink:title=" ">
<path fill="none" stroke="#63b8ff" d="M1205.94,-68.4C1202.95,-67.69 1199.91,-67.04 1197,-66.5 1036.68,-37.04 841.8,-22.85 765.67,-18.12"/>
<polygon fill="#63b8ff" stroke="#63b8ff" points="766.1,-14.58 755.91,-17.47 765.68,-21.57 766.1,-14.58"/>
</a>
</g>
</g>
<!-- Node26&#45;&gt;Node16 -->
<g id="edge44_Node000026_Node000016" class="edge">
<title>Node26&#45;&gt;Node16</title>
<g id="a_edge44_Node000026_Node000016"><a xlink:title=" ">
<path fill="none" stroke="#63b8ff" d="M1242.61,-66.18C1253.47,-58.48 1269.57,-47.05 1283.64,-37.08"/>
<polygon fill="#63b8ff" stroke="#63b8ff" points="1285.38,-39.42 1291.51,-30.78 1281.33,-33.71 1285.38,-39.42"/>
</a>
</g>
</g>
<!-- Node27&#45;&gt;Node2 -->
<g id="edge52_Node000027_Node000002" class="edge">
<title>Node27&#45;&gt;Node2</title>
<g id="a_edge52_Node000027_Node000002"><a xlink:title=" ">
<path fill="none" stroke="#63b8ff" d="M1360.24,-249.03C1241.07,-243.75 1024.2,-231.19 950,-207.5 908.15,-194.14 865.17,-165.54 840.9,-147.73"/>
<polygon fill="#63b8ff" stroke="#63b8ff" points="843.37,-144.47 833.27,-141.28 839.18,-150.07 843.37,-144.47"/>
</a>
</g>
</g>
<!-- Node27&#45;&gt;Node17 -->
<g id="edge53_Node000027_Node000017" class="edge">
<title>Node27&#45;&gt;Node17</title>
<g id="a_edge53_Node000027_Node000017"><a xlink:title=" ">
<path fill="none" stroke="#63b8ff" d="M1467.48,-243.07C1491.09,-234.71 1526.38,-221.51 1556,-207.5 1610.42,-181.77 1623.99,-174.52 1674,-141 1696.47,-125.94 1720.62,-106.42 1736.65,-92.94"/>
<polygon fill="#63b8ff" stroke="#63b8ff" points="1738.3,-95.28 1743.65,-86.14 1733.76,-89.95 1738.3,-95.28"/>
</a>
</g>
</g>
<!-- Node27&#45;&gt;Node22 -->
<g id="edge54_Node000027_Node000022" class="edge">
<title>Node27&#45;&gt;Node22</title>
<g id="a_edge54_Node000027_Node000022"><a xlink:title=" ">
<path fill="none" stroke="#63b8ff" d="M1435.53,-243.14C1430.3,-234.29 1422.43,-220.29 1417,-207.5 1409.16,-189.02 1402.43,-167.06 1398.1,-151.68"/>
<polygon fill="#63b8ff" stroke="#63b8ff" points="1401.3,-151.08 1395.29,-142.36 1394.54,-152.92 1401.3,-151.08"/>
</a>
</g>
</g>
<!-- Node28 -->
<g id="Node000028" class="node">
<title>Node28</title>
<g id="a_Node000028"><a xlink:title=" ">
<polygon fill="#e0e0e0" stroke="#999999" points="1763.88,-201.88 1726.12,-201.88 1726.12,-182.62 1763.88,-182.62 1763.88,-201.88"/>
<text text-anchor="middle" x="1745" y="-188.38" font-family="Helvetica,sans-Serif" font-size="10.00">array</text>
</a>
</g>
</g>
<!-- Node27&#45;&gt;Node28 -->
<g id="edge51_Node000027_Node000028" class="edge">
<title>Node27&#45;&gt;Node28</title>
<g id="a_edge51_Node000027_Node000028"><a xlink:title=" ">
<path fill="none" stroke="#63b8ff" d="M1522.2,-244.01C1576.65,-237.3 1649.55,-225.83 1712,-207.5 1713.31,-207.11 1714.64,-206.69 1715.98,-206.24"/>
<polygon fill="#63b8ff" stroke="#63b8ff" points="1717.02,-209.2 1725.1,-202.35 1714.51,-202.67 1717.02,-209.2"/>
</a>
</g>
</g>
<!-- Node29 -->
<g id="Node000029" class="node">
<title>Node29</title>
<g id="a_Node000029"><a xlink:href="_orbit_state_utils_8h.html" target="_top" xlink:title="Util functions for state conversions.">
<polygon fill="white" stroke="#666666" points="1546.5,-207.5 1425.5,-207.5 1425.5,-177 1546.5,-177 1546.5,-207.5"/>
<text text-anchor="start" x="1433.5" y="-194" font-family="Helvetica,sans-Serif" font-size="10.00">lupnt/physics/OrbitState</text>
<text text-anchor="middle" x="1486" y="-182.75" font-family="Helvetica,sans-Serif" font-size="10.00">Utils.h</text>
</a>
</g>
</g>
<!-- Node27&#45;&gt;Node29 -->
<g id="edge55_Node000027_Node000029" class="edge">
<title>Node27&#45;&gt;Node29</title>
<g id="a_edge55_Node000027_Node000029"><a xlink:title=" ">
<path fill="none" stroke="#63b8ff" d="M1447.83,-243.18C1453.28,-236.06 1461.14,-225.77 1468.32,-216.38"/>
<polygon fill="#63b8ff" stroke="#63b8ff" points="1471.6,-218.85 1474.89,-208.78 1466.04,-214.6 1471.6,-218.85"/>
</a>
</g>
</g>
<!-- Node29&#45;&gt;Node2 -->
<g id="edge56_Node000029_Node000002" class="edge">
<title>Node29&#45;&gt;Node2</title>
<g id="a_edge56_Node000029_Node000002"><a xlink:title=" ">
<path fill="none" stroke="#63b8ff" d="M1425.22,-185.87C1301.1,-174.88 1019.26,-149.93 889.15,-138.41"/>
<polygon fill="#63b8ff" stroke="#63b8ff" points="889.82,-134.87 879.55,-137.47 889.2,-141.84 889.82,-134.87"/>
</a>
</g>
</g>
<!-- Node29&#45;&gt;Node4 -->
<g id="edge59_Node000029_Node000004" class="edge">
<title>Node29&#45;&gt;Node4</title>
<g id="a_edge59_Node000029_Node000004"><a xlink:title=" ">
<path fill="none" stroke="#63b8ff" d="M1530.97,-176.55C1590.35,-154.91 1682.78,-112.08 1641,-66.5 1636.77,-61.88 1289.27,-33.99 1135.66,-21.87"/>
<polygon fill="#63b8ff" stroke="#63b8ff" points="1136.19,-18.32 1125.94,-21.02 1135.64,-25.3 1136.19,-18.32"/>
</a>
</g>
</g>
<!-- Node29&#45;&gt;Node16 -->
<g id="edge60_Node000029_Node000016" class="edge">
<title>Node29&#45;&gt;Node16</title>
<g id="a_edge60_Node000029_Node000016"><a xlink:title=" ">
<path fill="none" stroke="#63b8ff" d="M1546.88,-189.18C1666.84,-183.08 1915.12,-159.17 1831,-66.5 1800.88,-33.31 1506.26,-21.38 1375.25,-17.7"/>
<polygon fill="#63b8ff" stroke="#63b8ff" points="1375.69,-14.18 1365.6,-17.4 1375.5,-21.18 1375.69,-14.18"/>
</a>
</g>
</g>
<!-- Node29&#45;&gt;Node22 -->
<g id="edge57_Node000029_Node000022" class="edge">
<title>Node29&#45;&gt;Node22</title>
<g id="a_edge57_Node000029_Node000022"><a xlink:title=" ">
<path fill="none" stroke="#63b8ff" d="M1463.01,-176.7C1448.85,-167.73 1430.74,-156.27 1416.49,-147.25"/>
<polygon fill="#63b8ff" stroke="#63b8ff" points="1418.66,-143.84 1408.34,-141.45 1414.91,-149.76 1418.66,-143.84"/>
</a>
</g>
</g>
<!-- Node29&#45;&gt;Node23 -->
<g id="edge58_Node000029_Node000023" class="edge">
<title>Node29&#45;&gt;Node23</title>
<g id="a_edge58_Node000029_Node000023"><a xlink:title=" ">
<path fill="none" stroke="#63b8ff" d="M1499.93,-176.8C1520.33,-155.63 1558.25,-116.29 1579.85,-93.88"/>
<polygon fill="#63b8ff" stroke="#63b8ff" points="1581.84,-96.83 1586.25,-87.2 1576.8,-91.97 1581.84,-96.83"/>
</a>
</g>
</g>
<!-- Node29&#45;&gt;Node24 -->
<g id="edge61_Node000029_Node000024" class="edge">
<title>Node29&#45;&gt;Node24</title>
<g id="a_edge61_Node000029_Node000024"><a xlink:title=" ">
<path fill="none" stroke="#63b8ff" d="M1485.62,-176.8C1485.09,-156.56 1484.12,-119.72 1483.52,-96.94"/>
<polygon fill="#63b8ff" stroke="#63b8ff" points="1487,-97.1 1483.24,-87.2 1480,-97.29 1487,-97.1"/>
</a>
</g>
</g>
</g>
</svg>
