<?xml version="1.0" encoding="UTF-8" standalone="no"?>
<!DOCTYPE svg PUBLIC "-//W3C//DTD SVG 1.1//EN"
 "http://www.w3.org/Graphics/SVG/1.1/DTD/svg11.dtd">
<!-- Generated by graphviz version 8.1.0 (20230707.0739)
 -->
<!-- Title: File.h Pages: 1 -->
<svg width="968pt" height="138pt"
 viewBox="0.00 0.00 968.25 137.75" xmlns="http://www.w3.org/2000/svg" xmlns:xlink="http://www.w3.org/1999/xlink">
<g id="graph0" class="graph" transform="scale(1 1) rotate(0) translate(4 133.75)">
<title>File.h</title>
<!-- Node1 -->
<g id="Node000001" class="node">
<title>Node1</title>
<g id="a_Node000001"><a xlink:title="File access utils.">
<polygon fill="#999999" stroke="#666666" points="427.38,-129.75 387.38,-129.75 387.38,-110.5 427.38,-110.5 427.38,-129.75"/>
<text text-anchor="middle" x="407.38" y="-116.25" font-family="Helvetica,sans-Serif" font-size="10.00">File.h</text>
</a>
</g>
</g>
<!-- Node2 -->
<g id="Node000002" class="node">
<title>Node2</title>
<g id="a_Node000002"><a xlink:href="_antenna_8cpp.html" target="_top" xlink:title="Antenna class.">
<polygon fill="white" stroke="#666666" points="70.75,-74.5 0,-74.5 0,-55.25 70.75,-55.25 70.75,-74.5"/>
<text text-anchor="middle" x="35.38" y="-61" font-family="Helvetica,sans-Serif" font-size="10.00">Antenna.cpp</text>
</a>
</g>
</g>
<!-- Node1&#45;&gt;Node2 -->
<g id="edge1_Node000001_Node000002" class="edge">
<title>Node1&#45;&gt;Node2</title>
<g id="a_edge1_Node000001_Node000002"><a xlink:title=" ">
<path fill="none" stroke="#63b8ff" d="M376.28,-115.51C317.92,-108.58 188.07,-92.53 79.38,-74.5 76.61,-74.04 73.75,-73.54 70.88,-73.02"/>
<polygon fill="#63b8ff" stroke="#63b8ff" points="375.63,-119.07 385.97,-116.77 376.45,-112.12 375.63,-119.07"/>
</a>
</g>
</g>
<!-- Node3 -->
<g id="Node000003" class="node">
<title>Node3</title>
<g id="a_Node000003"><a xlink:href="_example_constellations_8cpp.html" target="_top" xlink:title="Setup GNSS Constellation.">
<polygon fill="white" stroke="#666666" points="224,-74.5 88.75,-74.5 88.75,-55.25 224,-55.25 224,-74.5"/>
<text text-anchor="middle" x="156.38" y="-61" font-family="Helvetica,sans-Serif" font-size="10.00">ExampleConstellations.cpp</text>
</a>
</g>
</g>
<!-- Node1&#45;&gt;Node3 -->
<g id="edge2_Node000001_Node000003" class="edge">
<title>Node1&#45;&gt;Node3</title>
<g id="a_edge2_Node000001_Node000003"><a xlink:title=" ">
<path fill="none" stroke="#63b8ff" d="M376.55,-112.59C332.08,-103.15 249.74,-85.68 199.33,-74.99"/>
<polygon fill="#63b8ff" stroke="#63b8ff" points="375.75,-116.21 386.26,-114.86 377.2,-109.36 375.75,-116.21"/>
</a>
</g>
</g>
<!-- Node4 -->
<g id="Node000004" class="node">
<title>Node4</title>
<g id="a_Node000004"><a xlink:href="_example_e_k_f_8cpp.html" target="_top" xlink:title="Example of Extended Kalman Filter for orbit determination.">
<polygon fill="white" stroke="#666666" points="332.88,-74.5 241.88,-74.5 241.88,-55.25 332.88,-55.25 332.88,-74.5"/>
<text text-anchor="middle" x="287.38" y="-61" font-family="Helvetica,sans-Serif" font-size="10.00">ExampleEKF.cpp</text>
</a>
</g>
</g>
<!-- Node1&#45;&gt;Node4 -->
<g id="edge3_Node000001_Node000004" class="edge">
<title>Node1&#45;&gt;Node4</title>
<g id="a_edge3_Node000001_Node000004"><a xlink:title=" ">
<path fill="none" stroke="#63b8ff" d="M377.01,-105.65C355.36,-96.04 326.83,-83.38 307.83,-74.95"/>
<polygon fill="#63b8ff" stroke="#63b8ff" points="375.46,-109.23 386.02,-110.09 378.3,-102.84 375.46,-109.23"/>
</a>
</g>
</g>
<!-- Node5 -->
<g id="Node000005" class="node">
<title>Node5</title>
<g id="a_Node000005"><a xlink:href="_example_e_k_f_app_8cpp.html" target="_top" xlink:title="Example of EKF application.">
<polygon fill="white" stroke="#666666" points="538.25,-19.25 428.5,-19.25 428.5,0 538.25,0 538.25,-19.25"/>
<text text-anchor="middle" x="483.38" y="-5.75" font-family="Helvetica,sans-Serif" font-size="10.00">ExampleEKFApp.cpp</text>
</a>
</g>
</g>
<!-- Node1&#45;&gt;Node5 -->
<g id="edge4_Node000001_Node000005" class="edge">
<title>Node1&#45;&gt;Node5</title>
<g id="a_edge4_Node000001_Node000005"><a xlink:title=" ">
<path fill="none" stroke="#63b8ff" d="M391.41,-102.09C380.9,-88.72 370.71,-69.97 380.38,-55.25 392.41,-36.92 413.76,-26.09 433.91,-19.69"/>
<polygon fill="#63b8ff" stroke="#63b8ff" points="389.34,-104.05 398.5,-109.37 394.66,-99.5 389.34,-104.05"/>
</a>
</g>
</g>
<!-- Node6 -->
<g id="Node000006" class="node">
<title>Node6</title>
<g id="a_Node000006"><a xlink:href="_example_performance_8cpp.html" target="_top" xlink:title="Example for performance testing of spherical harmonics computation.">
<polygon fill="white" stroke="#666666" points="517.62,-74.5 389.12,-74.5 389.12,-55.25 517.62,-55.25 517.62,-74.5"/>
<text text-anchor="middle" x="453.38" y="-61" font-family="Helvetica,sans-Serif" font-size="10.00">ExamplePerformance.cpp</text>
</a>
</g>
</g>
<!-- Node1&#45;&gt;Node6 -->
<g id="edge5_Node000001_Node000006" class="edge">
<title>Node1&#45;&gt;Node6</title>
<g id="a_edge5_Node000001_Node000006"><a xlink:title=" ">
<path fill="none" stroke="#63b8ff" d="M422.13,-102.04C429.94,-93 439.21,-82.27 445.61,-74.86"/>
<polygon fill="#63b8ff" stroke="#63b8ff" points="418.86,-99.48 414.97,-109.33 424.16,-104.05 418.86,-99.48"/>
</a>
</g>
</g>
<!-- Node7 -->
<g id="Node000007" class="node">
<title>Node7</title>
<g id="a_Node000007"><a xlink:href="_example_propagation_8cpp.html" target="_top" xlink:title="Example propagating both GPS constellation and Lunar Satellite.">
<polygon fill="white" stroke="#666666" points="660.75,-74.5 536,-74.5 536,-55.25 660.75,-55.25 660.75,-74.5"/>
<text text-anchor="middle" x="598.38" y="-61" font-family="Helvetica,sans-Serif" font-size="10.00">ExamplePropagation.cpp</text>
</a>
</g>
</g>
<!-- Node1&#45;&gt;Node7 -->
<g id="edge6_Node000001_Node000007" class="edge">
<title>Node1&#45;&gt;Node7</title>
<g id="a_edge6_Node000001_Node000007"><a xlink:title=" ">
<path fill="none" stroke="#63b8ff" d="M438.36,-110.49C473.34,-100.73 530.01,-84.93 565.68,-74.99"/>
<polygon fill="#63b8ff" stroke="#63b8ff" points="437.51,-107.37 428.82,-113.43 439.39,-114.11 437.51,-107.37"/>
</a>
</g>
</g>
<!-- Node8 -->
<g id="Node000008" class="node">
<title>Node8</title>
<g id="a_Node000008"><a xlink:href="_g_n_s_s_state_estimation_app_8h.html" target="_top" xlink:title="State Estimation Application Using GNSS Measurement.">
<polygon fill="white" stroke="#666666" points="818.25,-74.5 678.5,-74.5 678.5,-55.25 818.25,-55.25 818.25,-74.5"/>
<text text-anchor="middle" x="748.38" y="-61" font-family="Helvetica,sans-Serif" font-size="10.00">GNSSStateEstimationApp.h</text>
</a>
</g>
</g>
<!-- Node1&#45;&gt;Node8 -->
<g id="edge7_Node000001_Node000008" class="edge">
<title>Node1&#45;&gt;Node8</title>
<g id="a_edge7_Node000001_Node000008"><a xlink:title=" ">
<path fill="none" stroke="#63b8ff" d="M438.5,-114.26C495.47,-105.37 617.33,-86.34 690.11,-74.97"/>
<polygon fill="#63b8ff" stroke="#63b8ff" points="438.03,-110.95 428.68,-115.95 439.11,-117.87 438.03,-110.95"/>
</a>
</g>
</g>
<!-- Node10 -->
<g id="Node000010" class="node">
<title>Node10</title>
<g id="a_Node000010"><a xlink:href="_state_estimation_app_8h.html" target="_top" xlink:title="Base class for State Estimation Application.">
<polygon fill="white" stroke="#666666" points="953,-74.5 841.75,-74.5 841.75,-55.25 953,-55.25 953,-74.5"/>
<text text-anchor="middle" x="897.38" y="-61" font-family="Helvetica,sans-Serif" font-size="10.00">StateEstimationApp.h</text>
</a>
</g>
</g>
<!-- Node1&#45;&gt;Node10 -->
<g id="edge10_Node000001_Node000010" class="edge">
<title>Node1&#45;&gt;Node10</title>
<g id="a_edge10_Node000001_Node000010"><a xlink:title=" ">
<path fill="none" stroke="#63b8ff" d="M438.09,-116.04C507.51,-109.03 681.77,-91.2 827.38,-74.5 832,-73.97 836.79,-73.41 841.6,-72.83"/>
<polygon fill="#63b8ff" stroke="#63b8ff" points="438.1,-112.62 428.5,-117.11 438.8,-119.59 438.1,-112.62"/>
</a>
</g>
</g>
<!-- Node8&#45;&gt;Node5 -->
<g id="edge8_Node000008_Node000005" class="edge">
<title>Node8&#45;&gt;Node5</title>
<g id="a_edge8_Node000008_Node000005"><a xlink:title=" ">
<path fill="none" stroke="#63b8ff" d="M692.43,-52.63C643.62,-42.83 573.73,-28.78 528.44,-19.68"/>
<polygon fill="#63b8ff" stroke="#63b8ff" points="691.63,-56.24 702.12,-54.78 693.01,-49.38 691.63,-56.24"/>
</a>
</g>
</g>
<!-- Node9 -->
<g id="Node000009" class="node">
<title>Node9</title>
<g id="a_Node000009"><a xlink:href="_g_n_s_s_state_estimation_app_8cpp.html" target="_top" xlink:title="State Estimation Application Using GNSS Measurement.">
<polygon fill="white" stroke="#666666" points="820.5,-19.25 670.25,-19.25 670.25,0 820.5,0 820.5,-19.25"/>
<text text-anchor="middle" x="745.38" y="-5.75" font-family="Helvetica,sans-Serif" font-size="10.00">GNSSStateEstimationApp.cpp</text>
</a>
</g>
</g>
<!-- Node8&#45;&gt;Node9 -->
<g id="edge9_Node000008_Node000009" class="edge">
<title>Node8&#45;&gt;Node9</title>
<g id="a_edge9_Node000008_Node000009"><a xlink:title=" ">
<path fill="none" stroke="#63b8ff" d="M747.27,-44.21C746.79,-35.77 746.26,-26.33 745.88,-19.61"/>
<polygon fill="#63b8ff" stroke="#63b8ff" points="743.82,-44.29 747.88,-54.08 750.81,-43.9 743.82,-44.29"/>
</a>
</g>
</g>
<!-- Node11 -->
<g id="Node000011" class="node">
<title>Node11</title>
<g id="a_Node000011"><a xlink:href="_state_estimation_app_8cpp.html" target="_top" xlink:title="Base class for State Estimation Application.">
<polygon fill="white" stroke="#666666" points="960.25,-19.25 838.5,-19.25 838.5,0 960.25,0 960.25,-19.25"/>
<text text-anchor="middle" x="899.38" y="-5.75" font-family="Helvetica,sans-Serif" font-size="10.00">StateEstimationApp.cpp</text>
</a>
</g>
</g>
<!-- Node10&#45;&gt;Node11 -->
<g id="edge11_Node000010_Node000011" class="edge">
<title>Node10&#45;&gt;Node11</title>
<g id="a_edge11_Node000010_Node000011"><a xlink:title=" ">
<path fill="none" stroke="#63b8ff" d="M898.11,-44.21C898.43,-35.77 898.79,-26.33 899.04,-19.61"/>
<polygon fill="#63b8ff" stroke="#63b8ff" points="894.58,-43.96 897.71,-54.08 901.58,-44.22 894.58,-43.96"/>
</a>
</g>
</g>
</g>
</svg>
