<?xml version="1.0" encoding="UTF-8" standalone="no"?>
<!DOCTYPE svg PUBLIC "-//W3C//DTD SVG 1.1//EN"
 "http://www.w3.org/Graphics/SVG/1.1/DTD/svg11.dtd">
<!-- Generated by graphviz version 8.1.0 (20230707.0739)
 -->
<!-- Title: GNSSReceiver.cpp Pages: 1 -->
<!--zoomable 448 -->

<svg id="main" version="1.1" xmlns="http://www.w3.org/2000/svg" xmlns:xlink="http://www.w3.org/1999/xlink" xml:space="preserve" onload="init(evt)">
<style type="text/css"><![CDATA[
.node, .edge {opacity: 0.7;}
.node.selected, .edge.selected {opacity: 1;}
.edge:hover path { stroke: red; }
.edge:hover polygon { stroke: red; fill: red; }
]]></style>

<defs>
  <circle id="rim" cx="0" cy="0" r="7"/>
  <circle id="rim2" cx="0" cy="0" r="3.5"/>
  <g id="zoomPlus">
    <use xlink:href="#rim" fill="#404040"><set attributeName="fill" to="#808080" begin="zoomplus.mouseover" end="zoomplus.mouseout"/></use>
    <path d="M-4,0h8M0,-4v8" fill="none" stroke="white" stroke-width="1.5" pointer-events="none"/>
  </g>
  <g id="zoomMin">
    <use xlink:href="#rim" fill="#404040"><set attributeName="fill" to="#808080" begin="zoomminus.mouseover" end="zoomminus.mouseout"/></use>
    <path d="M-4,0h8" fill="none" stroke="white" stroke-width="1.5" pointer-events="none"/>
  </g>
  <g id="arrowUp" transform="translate(30 24)">
    <use xlink:href="#rim"/>
    <path pointer-events="none" fill="none" stroke="white" stroke-width="1.5" d="M0,-3.0v7 M-2.5,-0.5L0,-3.0L2.5,-0.5"/>
  </g>
  <g id="arrowRight" transform="rotate(90) translate(36 -43)">
    <use xlink:href="#rim"/>
    <path pointer-events="none" fill="none" stroke="white" stroke-width="1.5" d="M0,-3.0v7 M-2.5,-0.5L0,-3.0L2.5,-0.5"/>
  </g>
  <g id="arrowDown" transform="rotate(180) translate(-30 -48)">
    <use xlink:href="#rim"/>
    <path pointer-events="none" fill="none" stroke="white" stroke-width="1.5" d="M0,-3.0v7 M-2.5,-0.5L0,-3.0L2.5,-0.5"/>
  </g>
  <g id="arrowLeft" transform="rotate(270) translate(-36 17)">
    <use xlink:href="#rim"/>
    <path pointer-events="none" fill="none" stroke="white" stroke-width="1.5" d="M0,-3.0v7 M-2.5,-0.5L0,-3.0L2.5,-0.5"/>
  </g>
  <g id="resetDef">
    <use xlink:href="#rim2" fill="#404040"><set attributeName="fill" to="#808080" begin="reset.mouseover" end="reset.mouseout"/></use>
  </g>
</defs>
<script type="application/ecmascript">
var viewWidth = 1603;
var viewHeight = 448;
var sectionId = 'dynsection-0';
</script>
<script type="application/ecmascript" xlink:href="svg.min.js"/>
<svg id="graph" class="graph">
<g id="viewport">
<title>GNSSReceiver.cpp</title>
<!-- Node1 -->
<g id="Node000001" class="node">
<title>Node1</title>
<g id="a_Node000001"><a xlink:title="GNSS Receiver class.">
<polygon fill="#999999" stroke="#666666" points="1049.75,-439.75 948.25,-439.75 948.25,-420.5 1049.75,-420.5 1049.75,-439.75"/>
<text text-anchor="middle" x="999" y="-426.25" font-family="Helvetica,sans-Serif" font-size="10.00">GNSSReceiver.cpp</text>
</a>
</g>
</g>
<!-- Node2 -->
<g id="Node000002" class="node">
<title>Node2</title>
<g id="a_Node000002"><a xlink:href="_g_n_s_s_receiver_8h.html" target="_top" xlink:title="GNSS receiver class.">
<polygon fill="white" stroke="#666666" points="372.5,-384.5 281.5,-384.5 281.5,-365.25 372.5,-365.25 372.5,-384.5"/>
<text text-anchor="middle" x="327" y="-371" font-family="Helvetica,sans-Serif" font-size="10.00">GNSSReceiver.h</text>
</a>
</g>
</g>
<!-- Node1&#45;&gt;Node2 -->
<g id="edge1_Node000001_Node000002" class="edge">
<title>Node1&#45;&gt;Node2</title>
<g id="a_edge1_Node000001_Node000002"><a xlink:title=" ">
<path fill="none" stroke="#63b8ff" d="M947.94,-425.08C824.73,-415.32 511.81,-390.52 383.35,-380.34"/>
<polygon fill="#63b8ff" stroke="#63b8ff" points="383.85,-376.79 373.6,-379.49 383.29,-383.77 383.85,-376.79"/>
</a>
</g>
</g>
<!-- Node30 -->
<g id="Node000030" class="node">
<title>Node30</title>
<g id="a_Node000030"><a xlink:href="_g_n_s_s_measurement_8h.html" target="_top" xlink:title="Class that constructs GPS measurement data from channel observables.">
<polygon fill="white" stroke="#666666" points="1055,-268.38 943,-268.38 943,-249.12 1055,-249.12 1055,-268.38"/>
<text text-anchor="middle" x="999" y="-254.88" font-family="Helvetica,sans-Serif" font-size="10.00">GNSSMeasurement.h</text>
</a>
</g>
</g>
<!-- Node1&#45;&gt;Node30 -->
<g id="edge60_Node000001_Node000030" class="edge">
<title>Node1&#45;&gt;Node30</title>
<g id="a_edge60_Node000001_Node000030"><a xlink:title=" ">
<path fill="none" stroke="#63b8ff" d="M999,-420.02C999,-393.47 999,-315.74 999,-279.18"/>
<polygon fill="#63b8ff" stroke="#63b8ff" points="1002.5,-279.49 999,-269.49 995.5,-279.49 1002.5,-279.49"/>
</a>
</g>
</g>
<!-- Node31 -->
<g id="Node000031" class="node">
<title>Node31</title>
<g id="a_Node000031"><a xlink:href="_spice_interface_8h.html" target="_top" xlink:title="SPICE Interface functions.">
<polygon fill="white" stroke="#666666" points="1401,-201.88 1253,-201.88 1253,-182.62 1401,-182.62 1401,-201.88"/>
<text text-anchor="middle" x="1327" y="-188.38" font-family="Helvetica,sans-Serif" font-size="10.00">lupnt/physics/SpiceInterface.h</text>
</a>
</g>
</g>
<!-- Node1&#45;&gt;Node31 -->
<g id="edge61_Node000001_Node000031" class="edge">
<title>Node1&#45;&gt;Node31</title>
<g id="a_edge61_Node000001_Node000031"><a xlink:title=" ">
<path fill="none" stroke="#63b8ff" d="M1011.46,-420.17C1060.88,-384.63 1243.45,-253.33 1305.9,-208.43"/>
<polygon fill="#63b8ff" stroke="#63b8ff" points="1307.45,-210.9 1313.53,-202.22 1303.37,-205.21 1307.45,-210.9"/>
</a>
</g>
</g>
<!-- Node3 -->
<g id="Node000003" class="node">
<title>Node3</title>
<g id="a_Node000003"><a xlink:href="_comm_device_8h.html" target="_top" xlink:title="Communication devices.">
<polygon fill="white" stroke="#666666" points="501.25,-268.38 360.75,-268.38 360.75,-249.12 501.25,-249.12 501.25,-268.38"/>
<text text-anchor="middle" x="431" y="-254.88" font-family="Helvetica,sans-Serif" font-size="10.00">lupnt/agents/CommDevice.h</text>
</a>
</g>
</g>
<!-- Node2&#45;&gt;Node3 -->
<g id="edge2_Node000002_Node000003" class="edge">
<title>Node2&#45;&gt;Node3</title>
<g id="a_edge2_Node000002_Node000003"><a xlink:title=" ">
<path fill="none" stroke="#63b8ff" d="M335.16,-364.92C352.48,-345.92 393.14,-301.3 415.53,-276.73"/>
<polygon fill="#63b8ff" stroke="#63b8ff" points="417.73,-279.41 421.88,-269.66 412.55,-274.7 417.73,-279.41"/>
</a>
</g>
</g>
<!-- Node9 -->
<g id="Node000009" class="node">
<title>Node9</title>
<g id="a_Node000009"><a xlink:title=" ">
<polygon fill="#e0e0e0" stroke="#999999" points="1261,-19.25 1221,-19.25 1221,0 1261,0 1261,-19.25"/>
<text text-anchor="middle" x="1241" y="-5.75" font-family="Helvetica,sans-Serif" font-size="10.00">string</text>
</a>
</g>
</g>
<!-- Node2&#45;&gt;Node9 -->
<g id="edge40_Node000002_Node000009" class="edge">
<title>Node2&#45;&gt;Node9</title>
<g id="a_edge40_Node000002_Node000009"><a xlink:title=" ">
<path fill="none" stroke="#63b8ff" d="M281.45,-371.62C232.29,-367.77 152.65,-357.36 90,-329.25 43.89,-308.56 0,-310.29 0,-259.75 0,-259.75 0,-259.75 0,-130.38 0,-91.45 11.5,-75.07 45,-55.25 96.57,-24.74 1026.36,-12.98 1209.74,-10.95"/>
<polygon fill="#63b8ff" stroke="#63b8ff" points="1209.76,-14.44 1219.72,-10.83 1209.69,-7.44 1209.76,-14.44"/>
</a>
</g>
</g>
<!-- Node16 -->
<g id="Node000016" class="node">
<title>Node16</title>
<g id="a_Node000016"><a xlink:href="_transmission_8h.html" target="_top" xlink:title="Signal transmission data.">
<polygon fill="white" stroke="#666666" points="1135.25,-207.5 1030.75,-207.5 1030.75,-177 1135.25,-177 1135.25,-207.5"/>
<text text-anchor="start" x="1038.75" y="-194" font-family="Helvetica,sans-Serif" font-size="10.00">lupnt/measurements</text>
<text text-anchor="middle" x="1083" y="-182.75" font-family="Helvetica,sans-Serif" font-size="10.00">/Transmission.h</text>
</a>
</g>
</g>
<!-- Node2&#45;&gt;Node16 -->
<g id="edge39_Node000002_Node000016" class="edge">
<title>Node2&#45;&gt;Node16</title>
<g id="a_edge39_Node000002_Node000016"><a xlink:title=" ">
<path fill="none" stroke="#63b8ff" d="M372.76,-374.19C517.51,-374.23 961.95,-366.66 1064,-274 1079.13,-260.26 1083.33,-236.94 1084.06,-218.88"/>
<polygon fill="#63b8ff" stroke="#63b8ff" points="1087.56,-218.95 1084.12,-208.93 1080.56,-218.91 1087.56,-218.95"/>
</a>
</g>
</g>
<!-- Node24 -->
<g id="Node000024" class="node">
<title>Node24</title>
<g id="a_Node000024"><a xlink:title=" ">
<polygon fill="#e0e0e0" stroke="#999999" points="97.5,-80.12 54.5,-80.12 54.5,-60.88 97.5,-60.88 97.5,-80.12"/>
<text text-anchor="middle" x="76" y="-66.62" font-family="Helvetica,sans-Serif" font-size="10.00">vector</text>
</a>
</g>
</g>
<!-- Node2&#45;&gt;Node24 -->
<g id="edge42_Node000002_Node000024" class="edge">
<title>Node2&#45;&gt;Node24</title>
<g id="a_edge42_Node000002_Node000024"><a xlink:title=" ">
<path fill="none" stroke="#63b8ff" d="M281.21,-365.63C199.72,-349.64 38,-311.4 38,-259.75 38,-259.75 38,-259.75 38,-191.25 38,-153.97 54.94,-113.09 66.2,-90.03"/>
<polygon fill="#63b8ff" stroke="#63b8ff" points="69.63,-92.01 71.03,-81.5 63.39,-88.84 69.63,-92.01"/>
</a>
</g>
</g>
<!-- Node25 -->
<g id="Node000025" class="node">
<title>Node25</title>
<g id="a_Node000025"><a xlink:title=" ">
<polygon fill="#e0e0e0" stroke="#999999" points="226.5,-329.25 189.5,-329.25 189.5,-310 226.5,-310 226.5,-329.25"/>
<text text-anchor="middle" x="208" y="-315.75" font-family="Helvetica,sans-Serif" font-size="10.00">tuple</text>
</a>
</g>
</g>
<!-- Node2&#45;&gt;Node25 -->
<g id="edge41_Node000002_Node000025" class="edge">
<title>Node2&#45;&gt;Node25</title>
<g id="a_edge41_Node000002_Node000025"><a xlink:title=" ">
<path fill="none" stroke="#63b8ff" d="M306.81,-364.84C287.55,-356.22 258.34,-343.15 236.67,-333.45"/>
<polygon fill="#63b8ff" stroke="#63b8ff" points="238.27,-329.89 227.71,-329 235.41,-336.28 238.27,-329.89"/>
</a>
</g>
</g>
<!-- Node26 -->
<g id="Node000026" class="node">
<title>Node26</title>
<g id="a_Node000026"><a xlink:href="_g_n_s_s_channel_8h.html" target="_top" xlink:title="GNSS Channel class.">
<polygon fill="white" stroke="#666666" points="333.38,-329.25 244.62,-329.25 244.62,-310 333.38,-310 333.38,-329.25"/>
<text text-anchor="middle" x="289" y="-315.75" font-family="Helvetica,sans-Serif" font-size="10.00">GNSSChannel.h</text>
</a>
</g>
</g>
<!-- Node2&#45;&gt;Node26 -->
<g id="edge43_Node000002_Node000026" class="edge">
<title>Node2&#45;&gt;Node26</title>
<g id="a_edge43_Node000002_Node000026"><a xlink:title=" ">
<path fill="none" stroke="#63b8ff" d="M320.73,-365.08C315.59,-357.88 308.15,-347.46 301.76,-338.51"/>
<polygon fill="#63b8ff" stroke="#63b8ff" points="304.07,-336.72 295.41,-330.61 298.37,-340.78 304.07,-336.72"/>
</a>
</g>
</g>
<!-- Node2&#45;&gt;Node30 -->
<g id="edge53_Node000002_Node000030" class="edge">
<title>Node2&#45;&gt;Node30</title>
<g id="a_edge53_Node000002_Node000030"><a xlink:title=" ">
<path fill="none" stroke="#63b8ff" d="M372.92,-366.08C490.06,-346.18 800.21,-293.51 934.98,-270.62"/>
<polygon fill="#63b8ff" stroke="#63b8ff" points="935.26,-273.96 944.53,-268.83 934.09,-267.05 935.26,-273.96"/>
</a>
</g>
</g>
<!-- Node4 -->
<g id="Node000004" class="node">
<title>Node4</title>
<g id="a_Node000004"><a xlink:title=" ">
<polygon fill="#e0e0e0" stroke="#999999" points="1034.5,-80.12 913.5,-80.12 913.5,-60.88 1034.5,-60.88 1034.5,-80.12"/>
<text text-anchor="middle" x="974" y="-66.62" font-family="Helvetica,sans-Serif" font-size="10.00">autodiff/forward/real.hpp</text>
</a>
</g>
</g>
<!-- Node3&#45;&gt;Node4 -->
<g id="edge3_Node000003_Node000004" class="edge">
<title>Node3&#45;&gt;Node4</title>
<g id="a_edge3_Node000003_Node000004"><a xlink:title=" ">
<path fill="none" stroke="#63b8ff" d="M501.7,-255.3C634.21,-250.08 909.55,-235.9 942,-207.5 975.37,-178.3 977.4,-121.45 975.83,-91.33"/>
<polygon fill="#63b8ff" stroke="#63b8ff" points="979.26,-91.27 975.05,-81.55 972.28,-91.77 979.26,-91.27"/>
</a>
</g>
</g>
<!-- Node5 -->
<g id="Node000005" class="node">
<title>Node5</title>
<g id="a_Node000005"><a xlink:title=" ">
<polygon fill="#e0e0e0" stroke="#999999" points="559.12,-85.75 456.88,-85.75 456.88,-55.25 559.12,-55.25 559.12,-85.75"/>
<text text-anchor="start" x="464.88" y="-72.25" font-family="Helvetica,sans-Serif" font-size="10.00">autodiff/forward/real</text>
<text text-anchor="middle" x="508" y="-61" font-family="Helvetica,sans-Serif" font-size="10.00">/eigen.hpp</text>
</a>
</g>
</g>
<!-- Node3&#45;&gt;Node5 -->
<g id="edge4_Node000003_Node000005" class="edge">
<title>Node3&#45;&gt;Node5</title>
<g id="a_edge4_Node000003_Node000005"><a xlink:title=" ">
<path fill="none" stroke="#63b8ff" d="M431.94,-248.67C434.55,-226.09 443.3,-166 466,-121.75 471.08,-111.84 478.43,-102.15 485.56,-93.97"/>
<polygon fill="#63b8ff" stroke="#63b8ff" points="487.64,-96.79 491.81,-87.05 482.47,-92.07 487.64,-96.79"/>
</a>
</g>
</g>
<!-- Node6 -->
<g id="Node000006" class="node">
<title>Node6</title>
<g id="a_Node000006"><a xlink:title=" ">
<polygon fill="#e0e0e0" stroke="#999999" points="238.38,-141 203.62,-141 203.62,-121.75 238.38,-121.75 238.38,-141"/>
<text text-anchor="middle" x="221" y="-127.5" font-family="Helvetica,sans-Serif" font-size="10.00">map</text>
</a>
</g>
</g>
<!-- Node3&#45;&gt;Node6 -->
<g id="edge5_Node000003_Node000006" class="edge">
<title>Node3&#45;&gt;Node6</title>
<g id="a_edge5_Node000003_Node000006"><a xlink:title=" ">
<path fill="none" stroke="#63b8ff" d="M408.65,-248.73C386.55,-239.48 352.08,-224.13 324,-207.5 293.28,-189.31 260.38,-164.22 240.25,-148.14"/>
<polygon fill="#63b8ff" stroke="#63b8ff" points="242.93,-145 232.95,-141.45 238.53,-150.45 242.93,-145"/>
</a>
</g>
</g>
<!-- Node7 -->
<g id="Node000007" class="node">
<title>Node7</title>
<g id="a_Node000007"><a xlink:title=" ">
<polygon fill="#e0e0e0" stroke="#999999" points="402.62,-201.88 351.38,-201.88 351.38,-182.62 402.62,-182.62 402.62,-201.88"/>
<text text-anchor="middle" x="377" y="-188.38" font-family="Helvetica,sans-Serif" font-size="10.00">memory</text>
</a>
</g>
</g>
<!-- Node3&#45;&gt;Node7 -->
<g id="edge6_Node000003_Node000007" class="edge">
<title>Node3&#45;&gt;Node7</title>
<g id="a_edge6_Node000003_Node000007"><a xlink:title=" ">
<path fill="none" stroke="#63b8ff" d="M423.49,-248.78C415.19,-238.87 401.62,-222.66 391.28,-210.31"/>
<polygon fill="#63b8ff" stroke="#63b8ff" points="393.55,-208.56 384.44,-203.14 388.18,-213.06 393.55,-208.56"/>
</a>
</g>
</g>
<!-- Node8 -->
<g id="Node000008" class="node">
<title>Node8</title>
<g id="a_Node000008"><a xlink:href="_antenna_8h.html" target="_top" xlink:title="Antenna class.">
<polygon fill="white" stroke="#666666" points="933.25,-207.5 828.75,-207.5 828.75,-177 933.25,-177 933.25,-207.5"/>
<text text-anchor="start" x="836.75" y="-194" font-family="Helvetica,sans-Serif" font-size="10.00">lupnt/measurements</text>
<text text-anchor="middle" x="881" y="-182.75" font-family="Helvetica,sans-Serif" font-size="10.00">/Antenna.h</text>
</a>
</g>
</g>
<!-- Node3&#45;&gt;Node8 -->
<g id="edge7_Node000003_Node000008" class="edge">
<title>Node3&#45;&gt;Node8</title>
<g id="a_edge7_Node000003_Node000008"><a xlink:title=" ">
<path fill="none" stroke="#63b8ff" d="M494.52,-248.65C580.16,-236.37 731.78,-214.64 817.44,-202.36"/>
<polygon fill="#63b8ff" stroke="#63b8ff" points="817.92,-205.68 827.32,-200.8 816.92,-198.76 817.92,-205.68"/>
</a>
</g>
</g>
<!-- Node3&#45;&gt;Node16 -->
<g id="edge20_Node000003_Node000016" class="edge">
<title>Node3&#45;&gt;Node16</title>
<g id="a_edge20_Node000003_Node000016"><a xlink:title=" ">
<path fill="none" stroke="#63b8ff" d="M501.51,-252.12C605.32,-243.64 805.34,-226.52 975,-207.5 989.52,-205.87 1005.11,-203.93 1019.8,-202.01"/>
<polygon fill="#63b8ff" stroke="#63b8ff" points="1019.86,-205.4 1029.32,-200.62 1018.94,-198.46 1019.86,-205.4"/>
</a>
</g>
</g>
<!-- Node18 -->
<g id="Node000018" class="node">
<title>Node18</title>
<g id="a_Node000018"><a xlink:href="_math_utils_8h.html" target="_top" xlink:title=" ">
<polygon fill="white" stroke="#666666" points="389.5,-141 256.5,-141 256.5,-121.75 389.5,-121.75 389.5,-141"/>
<text text-anchor="middle" x="323" y="-127.5" font-family="Helvetica,sans-Serif" font-size="10.00">lupnt/numerics/MathUtils.h</text>
</a>
</g>
</g>
<!-- Node3&#45;&gt;Node18 -->
<g id="edge25_Node000003_Node000018" class="edge">
<title>Node3&#45;&gt;Node18</title>
<g id="a_edge25_Node000003_Node000018"><a xlink:title=" ">
<path fill="none" stroke="#63b8ff" d="M402.87,-248.64C383,-240.79 357.29,-227.52 342,-207.5 329.77,-191.48 325.34,-168.48 323.78,-152.16"/>
<polygon fill="#63b8ff" stroke="#63b8ff" points="327.21,-151.95 323.06,-142.21 320.22,-152.41 327.21,-151.95"/>
</a>
</g>
</g>
<!-- Node20 -->
<g id="Node000020" class="node">
<title>Node20</title>
<g id="a_Node000020"><a xlink:href="_orbit_state_8h.html" target="_top" xlink:title="Orbit states.">
<polygon fill="white" stroke="#666666" points="672.62,-201.88 543.38,-201.88 543.38,-182.62 672.62,-182.62 672.62,-201.88"/>
<text text-anchor="middle" x="608" y="-188.38" font-family="Helvetica,sans-Serif" font-size="10.00">lupnt/physics/OrbitState.h</text>
</a>
</g>
</g>
<!-- Node3&#45;&gt;Node20 -->
<g id="edge29_Node000003_Node000020" class="edge">
<title>Node3&#45;&gt;Node20</title>
<g id="a_edge29_Node000003_Node000020"><a xlink:title=" ">
<path fill="none" stroke="#63b8ff" d="M455.98,-248.65C486.56,-237.51 538.5,-218.58 573.03,-205.99"/>
<polygon fill="#63b8ff" stroke="#63b8ff" points="573.95,-209.02 582.14,-202.31 571.55,-202.44 573.95,-209.02"/>
</a>
</g>
</g>
<!-- Node8&#45;&gt;Node4 -->
<g id="edge8_Node000008_Node000004" class="edge">
<title>Node8&#45;&gt;Node4</title>
<g id="a_edge8_Node000008_Node000004"><a xlink:title=" ">
<path fill="none" stroke="#63b8ff" d="M892.4,-176.57C909.54,-154.5 941.88,-112.86 960.28,-89.16"/>
<polygon fill="#63b8ff" stroke="#63b8ff" points="963.65,-91.53 967.02,-81.49 958.12,-87.24 963.65,-91.53"/>
</a>
</g>
</g>
<!-- Node8&#45;&gt;Node5 -->
<g id="edge9_Node000008_Node000005" class="edge">
<title>Node8&#45;&gt;Node5</title>
<g id="a_edge9_Node000008_Node000005"><a xlink:title=" ">
<path fill="none" stroke="#63b8ff" d="M865.72,-176.78C847.83,-160.7 816.61,-135.23 785,-121.75 715.1,-91.95 627.93,-79.81 570.25,-74.87"/>
<polygon fill="#63b8ff" stroke="#63b8ff" points="570.73,-71.32 560.48,-74 570.17,-78.3 570.73,-71.32"/>
</a>
</g>
</g>
<!-- Node8&#45;&gt;Node9 -->
<g id="edge10_Node000008_Node000009" class="edge">
<title>Node8&#45;&gt;Node9</title>
<g id="a_edge10_Node000008_Node000009"><a xlink:title=" ">
<path fill="none" stroke="#63b8ff" d="M878.63,-176.85C874.95,-148.94 871.42,-87.43 905,-55.25 948.24,-13.81 1135.14,-10.06 1209.91,-10.26"/>
<polygon fill="#63b8ff" stroke="#63b8ff" points="1209.49,-13.76 1219.51,-10.32 1209.53,-6.76 1209.49,-13.76"/>
</a>
</g>
</g>
<!-- Node10 -->
<g id="Node000010" class="node">
<title>Node10</title>
<g id="a_Node000010"><a xlink:href="_constants_8h.html" target="_top" xlink:title="List of constants.">
<polygon fill="white" stroke="#666666" points="1384.5,-141 1269.5,-141 1269.5,-121.75 1384.5,-121.75 1384.5,-141"/>
<text text-anchor="middle" x="1327" y="-127.5" font-family="Helvetica,sans-Serif" font-size="10.00">lupnt/core/Constants.h</text>
</a>
</g>
</g>
<!-- Node8&#45;&gt;Node10 -->
<g id="edge11_Node000008_Node000010" class="edge">
<title>Node8&#45;&gt;Node10</title>
<g id="a_edge11_Node000008_Node000010"><a xlink:title=" ">
<path fill="none" stroke="#63b8ff" d="M933.47,-184.32C1014.16,-173.67 1168.71,-153.27 1258.24,-141.45"/>
<polygon fill="#63b8ff" stroke="#63b8ff" points="1258.64,-144.8 1268.09,-140.02 1257.72,-137.86 1258.64,-144.8"/>
</a>
</g>
</g>
<!-- Node10&#45;&gt;Node4 -->
<g id="edge13_Node000010_Node000004" class="edge">
<title>Node10&#45;&gt;Node4</title>
<g id="a_edge13_Node000010_Node000004"><a xlink:title=" ">
<path fill="none" stroke="#63b8ff" d="M1272.62,-121.3C1209.65,-110.8 1106.01,-93.52 1038.89,-82.32"/>
<polygon fill="#63b8ff" stroke="#63b8ff" points="1039.88,-78.77 1029.44,-80.58 1038.73,-85.68 1039.88,-78.77"/>
</a>
</g>
</g>
<!-- Node10&#45;&gt;Node9 -->
<g id="edge14_Node000010_Node000009" class="edge">
<title>Node10&#45;&gt;Node9</title>
<g id="a_edge14_Node000010_Node000009"><a xlink:title=" ">
<path fill="none" stroke="#63b8ff" d="M1320.54,-121.37C1306.4,-101.7 1272.53,-54.53 1253.87,-28.55"/>
<polygon fill="#63b8ff" stroke="#63b8ff" points="1256.22,-26.81 1247.54,-20.73 1250.53,-30.89 1256.22,-26.81"/>
</a>
</g>
</g>
<!-- Node11 -->
<g id="Node000011" class="node">
<title>Node11</title>
<g id="a_Node000011"><a xlink:title=" ">
<polygon fill="#e0e0e0" stroke="#999999" points="1440.88,-80.12 1307.12,-80.12 1307.12,-60.88 1440.88,-60.88 1440.88,-80.12"/>
<text text-anchor="middle" x="1374" y="-66.62" font-family="Helvetica,sans-Serif" font-size="10.00">autodiff/common/eigen.hpp</text>
</a>
</g>
</g>
<!-- Node10&#45;&gt;Node11 -->
<g id="edge12_Node000010_Node000011" class="edge">
<title>Node10&#45;&gt;Node11</title>
<g id="a_edge12_Node000010_Node000011"><a xlink:title=" ">
<path fill="none" stroke="#63b8ff" d="M1334.14,-121.43C1340.97,-112.87 1351.47,-99.73 1359.97,-89.07"/>
<polygon fill="#63b8ff" stroke="#63b8ff" points="1363.29,-91.52 1366.79,-81.53 1357.82,-87.16 1363.29,-91.52"/>
</a>
</g>
</g>
<!-- Node12 -->
<g id="Node000012" class="node">
<title>Node12</title>
<g id="a_Node000012"><a xlink:href="_user_file_path_8h.html" target="_top" xlink:title="File access utils.">
<polygon fill="white" stroke="#666666" points="1540.62,-80.12 1459.38,-80.12 1459.38,-60.88 1540.62,-60.88 1540.62,-80.12"/>
<text text-anchor="middle" x="1500" y="-66.62" font-family="Helvetica,sans-Serif" font-size="10.00">UserFilePath.h</text>
</a>
</g>
</g>
<!-- Node10&#45;&gt;Node12 -->
<g id="edge15_Node000010_Node000012" class="edge">
<title>Node10&#45;&gt;Node12</title>
<g id="a_edge15_Node000010_Node000012"><a xlink:title=" ">
<path fill="none" stroke="#63b8ff" d="M1353.65,-121.3C1382.99,-111.32 1430.33,-95.21 1463.2,-84.02"/>
<polygon fill="#63b8ff" stroke="#63b8ff" points="1463.98,-87.12 1472.32,-80.58 1461.72,-80.49 1463.98,-87.12"/>
</a>
</g>
</g>
<!-- Node12&#45;&gt;Node9 -->
<g id="edge19_Node000012_Node000009" class="edge">
<title>Node12&#45;&gt;Node9</title>
<g id="a_edge19_Node000012_Node000009"><a xlink:title=" ">
<path fill="none" stroke="#63b8ff" d="M1469.41,-60.43C1463.02,-58.63 1456.31,-56.82 1450,-55.25 1387.14,-39.6 1312.82,-24.54 1271.9,-16.55"/>
<polygon fill="#63b8ff" stroke="#63b8ff" points="1272.76,-12.95 1262.28,-14.48 1271.43,-19.83 1272.76,-12.95"/>
</a>
</g>
</g>
<!-- Node13 -->
<g id="Node000013" class="node">
<title>Node13</title>
<g id="a_Node000013"><a xlink:title=" ">
<polygon fill="#e0e0e0" stroke="#999999" points="1455.5,-19.25 1394.5,-19.25 1394.5,0 1455.5,0 1455.5,-19.25"/>
<text text-anchor="middle" x="1425" y="-5.75" font-family="Helvetica,sans-Serif" font-size="10.00">filesystem</text>
</a>
</g>
</g>
<!-- Node12&#45;&gt;Node13 -->
<g id="edge16_Node000012_Node000013" class="edge">
<title>Node12&#45;&gt;Node13</title>
<g id="a_edge16_Node000012_Node000013"><a xlink:title=" ">
<path fill="none" stroke="#63b8ff" d="M1488.61,-60.56C1477.05,-51.48 1458.91,-37.24 1444.95,-26.29"/>
<polygon fill="#63b8ff" stroke="#63b8ff" points="1447.53,-23.07 1437.5,-19.65 1443.2,-28.58 1447.53,-23.07"/>
</a>
</g>
</g>
<!-- Node14 -->
<g id="Node000014" class="node">
<title>Node14</title>
<g id="a_Node000014"><a xlink:title=" ">
<polygon fill="#e0e0e0" stroke="#999999" points="1526.75,-19.25 1473.25,-19.25 1473.25,0 1526.75,0 1526.75,-19.25"/>
<text text-anchor="middle" x="1500" y="-5.75" font-family="Helvetica,sans-Serif" font-size="10.00">iostream</text>
</a>
</g>
</g>
<!-- Node12&#45;&gt;Node14 -->
<g id="edge17_Node000012_Node000014" class="edge">
<title>Node12&#45;&gt;Node14</title>
<g id="a_edge17_Node000012_Node000014"><a xlink:title=" ">
<path fill="none" stroke="#63b8ff" d="M1500,-60.56C1500,-52.6 1500,-40.69 1500,-30.49"/>
<polygon fill="#63b8ff" stroke="#63b8ff" points="1503.5,-30.65 1500,-20.65 1496.5,-30.65 1503.5,-30.65"/>
</a>
</g>
</g>
<!-- Node15 -->
<g id="Node000015" class="node">
<title>Node15</title>
<g id="a_Node000015"><a xlink:title=" ">
<polygon fill="#e0e0e0" stroke="#999999" points="1594.88,-19.25 1545.12,-19.25 1545.12,0 1594.88,0 1594.88,-19.25"/>
<text text-anchor="middle" x="1570" y="-5.75" font-family="Helvetica,sans-Serif" font-size="10.00">optional</text>
</a>
</g>
</g>
<!-- Node12&#45;&gt;Node15 -->
<g id="edge18_Node000012_Node000015" class="edge">
<title>Node12&#45;&gt;Node15</title>
<g id="a_edge18_Node000012_Node000015"><a xlink:title=" ">
<path fill="none" stroke="#63b8ff" d="M1510.63,-60.56C1521.32,-51.57 1538.03,-37.51 1551,-26.6"/>
<polygon fill="#63b8ff" stroke="#63b8ff" points="1552.87,-28.77 1558.27,-19.65 1548.36,-23.41 1552.87,-28.77"/>
</a>
</g>
</g>
<!-- Node16&#45;&gt;Node4 -->
<g id="edge22_Node000016_Node000004" class="edge">
<title>Node16&#45;&gt;Node4</title>
<g id="a_edge22_Node000016_Node000004"><a xlink:title=" ">
<path fill="none" stroke="#63b8ff" d="M1093.93,-176.53C1103.56,-161.62 1114.41,-138.44 1103,-121.75 1089.65,-102.22 1067.5,-90.28 1045.29,-82.98"/>
<polygon fill="#63b8ff" stroke="#63b8ff" points="1046.35,-79.35 1035.77,-79.85 1044.35,-86.06 1046.35,-79.35"/>
</a>
</g>
</g>
<!-- Node16&#45;&gt;Node5 -->
<g id="edge23_Node000016_Node000005" class="edge">
<title>Node16&#45;&gt;Node5</title>
<g id="a_edge23_Node000016_Node000005"><a xlink:title=" ">
<path fill="none" stroke="#63b8ff" d="M1084.9,-176.6C1086.07,-160.61 1085.08,-135.45 1070,-121.75 1033.6,-88.68 708.5,-76.57 570.02,-72.89"/>
<polygon fill="#63b8ff" stroke="#63b8ff" points="570.28,-69.37 560.19,-72.61 570.1,-76.37 570.28,-69.37"/>
</a>
</g>
</g>
<!-- Node16&#45;&gt;Node9 -->
<g id="edge24_Node000016_Node000009" class="edge">
<title>Node16&#45;&gt;Node9</title>
<g id="a_edge24_Node000016_Node000009"><a xlink:title=" ">
<path fill="none" stroke="#63b8ff" d="M1095.66,-176.77C1124.56,-143.74 1195.23,-62.95 1226.13,-27.63"/>
<polygon fill="#63b8ff" stroke="#63b8ff" points="1229.13,-30.51 1233.08,-20.68 1223.86,-25.9 1229.13,-30.51"/>
</a>
</g>
</g>
<!-- Node17 -->
<g id="Node000017" class="node">
<title>Node17</title>
<g id="a_Node000017"><a xlink:title=" ">
<polygon fill="#e0e0e0" stroke="#999999" points="1061.12,-141 988.88,-141 988.88,-121.75 1061.12,-121.75 1061.12,-141"/>
<text text-anchor="middle" x="1025" y="-127.5" font-family="Helvetica,sans-Serif" font-size="10.00">Eigen/Dense</text>
</a>
</g>
</g>
<!-- Node16&#45;&gt;Node17 -->
<g id="edge21_Node000016_Node000017" class="edge">
<title>Node16&#45;&gt;Node17</title>
<g id="a_edge21_Node000016_Node000017"><a xlink:title=" ">
<path fill="none" stroke="#63b8ff" d="M1068.66,-176.7C1060.43,-168.34 1050.05,-157.8 1041.48,-149.1"/>
<polygon fill="#63b8ff" stroke="#63b8ff" points="1044.45,-147.12 1034.94,-142.45 1039.47,-152.03 1044.45,-147.12"/>
</a>
</g>
</g>
<!-- Node18&#45;&gt;Node4 -->
<g id="edge26_Node000018_Node000004" class="edge">
<title>Node18&#45;&gt;Node4</title>
<g id="a_edge26_Node000018_Node000004"><a xlink:title=" ">
<path fill="none" stroke="#63b8ff" d="M389.91,-124.32C513.34,-113.16 775.8,-89.43 902.55,-77.96"/>
<polygon fill="#63b8ff" stroke="#63b8ff" points="902.63,-81.38 912.28,-76.99 902,-74.41 902.63,-81.38"/>
</a>
</g>
</g>
<!-- Node18&#45;&gt;Node5 -->
<g id="edge27_Node000018_Node000005" class="edge">
<title>Node18&#45;&gt;Node5</title>
<g id="a_edge27_Node000018_Node000005"><a xlink:title=" ">
<path fill="none" stroke="#63b8ff" d="M351.5,-121.3C378.02,-112.86 418.32,-100.04 451.37,-89.52"/>
<polygon fill="#63b8ff" stroke="#63b8ff" points="452.36,-92.56 460.83,-86.19 450.24,-85.89 452.36,-92.56"/>
</a>
</g>
</g>
<!-- Node19 -->
<g id="Node000019" class="node">
<title>Node19</title>
<g id="a_Node000019"><a xlink:title=" ">
<polygon fill="#e0e0e0" stroke="#999999" points="347.12,-80.12 298.88,-80.12 298.88,-60.88 347.12,-60.88 347.12,-80.12"/>
<text text-anchor="middle" x="323" y="-66.62" font-family="Helvetica,sans-Serif" font-size="10.00">random</text>
</a>
</g>
</g>
<!-- Node18&#45;&gt;Node19 -->
<g id="edge28_Node000018_Node000019" class="edge">
<title>Node18&#45;&gt;Node19</title>
<g id="a_edge28_Node000018_Node000019"><a xlink:title=" ">
<path fill="none" stroke="#63b8ff" d="M323,-121.43C323,-113.48 323,-101.56 323,-91.37"/>
<polygon fill="#63b8ff" stroke="#63b8ff" points="326.5,-91.53 323,-81.53 319.5,-91.53 326.5,-91.53"/>
</a>
</g>
</g>
<!-- Node20&#45;&gt;Node4 -->
<g id="edge31_Node000020_Node000004" class="edge">
<title>Node20&#45;&gt;Node4</title>
<g id="a_edge31_Node000020_Node000004"><a xlink:title=" ">
<path fill="none" stroke="#63b8ff" d="M635.81,-182.15C700.68,-160.93 862.1,-108.11 935.99,-83.94"/>
<polygon fill="#63b8ff" stroke="#63b8ff" points="936.82,-87.02 945.23,-80.59 934.64,-80.37 936.82,-87.02"/>
</a>
</g>
</g>
<!-- Node20&#45;&gt;Node5 -->
<g id="edge32_Node000020_Node000005" class="edge">
<title>Node20&#45;&gt;Node5</title>
<g id="a_edge32_Node000020_Node000005"><a xlink:title=" ">
<path fill="none" stroke="#63b8ff" d="M542.98,-182.75C517.41,-175.87 490.51,-163.44 475,-141 464.94,-126.44 474.13,-108.33 485.34,-94.25"/>
<polygon fill="#63b8ff" stroke="#63b8ff" points="488.53,-96.92 492.43,-87.07 483.24,-92.34 488.53,-96.92"/>
</a>
</g>
</g>
<!-- Node20&#45;&gt;Node17 -->
<g id="edge30_Node000020_Node000017" class="edge">
<title>Node20&#45;&gt;Node17</title>
<g id="a_edge30_Node000020_Node000017"><a xlink:title=" ">
<path fill="none" stroke="#63b8ff" d="M672.24,-182.18C756.73,-170.25 903.2,-149.57 978.04,-139"/>
<polygon fill="#63b8ff" stroke="#63b8ff" points="978.13,-142.39 987.55,-137.52 977.16,-135.45 978.13,-142.39"/>
</a>
</g>
</g>
<!-- Node21 -->
<g id="Node000021" class="node">
<title>Node21</title>
<g id="a_Node000021"><a xlink:title=" ">
<polygon fill="#e0e0e0" stroke="#999999" points="666.62,-141 549.38,-141 549.38,-121.75 666.62,-121.75 666.62,-141"/>
<text text-anchor="middle" x="608" y="-127.5" font-family="Helvetica,sans-Serif" font-size="10.00">boost/preprocessor.hpp</text>
</a>
</g>
</g>
<!-- Node20&#45;&gt;Node21 -->
<g id="edge33_Node000020_Node000021" class="edge">
<title>Node20&#45;&gt;Node21</title>
<g id="a_edge33_Node000020_Node000021"><a xlink:title=" ">
<path fill="none" stroke="#63b8ff" d="M608,-182.31C608,-174.35 608,-162.44 608,-152.24"/>
<polygon fill="#63b8ff" stroke="#63b8ff" points="611.5,-152.4 608,-142.4 604.5,-152.4 611.5,-152.4"/>
</a>
</g>
</g>
<!-- Node22 -->
<g id="Node000022" class="node">
<title>Node22</title>
<g id="a_Node000022"><a xlink:title=" ">
<polygon fill="#e0e0e0" stroke="#999999" points="743.38,-141 684.62,-141 684.62,-121.75 743.38,-121.75 743.38,-141"/>
<text text-anchor="middle" x="714" y="-127.5" font-family="Helvetica,sans-Serif" font-size="10.00">stdexcept</text>
</a>
</g>
</g>
<!-- Node20&#45;&gt;Node22 -->
<g id="edge34_Node000020_Node000022" class="edge">
<title>Node20&#45;&gt;Node22</title>
<g id="a_edge34_Node000020_Node000022"><a xlink:title=" ">
<path fill="none" stroke="#63b8ff" d="M624.1,-182.31C641.14,-172.84 668.29,-157.76 688.3,-146.65"/>
<polygon fill="#63b8ff" stroke="#63b8ff" points="689.71,-149.32 696.75,-141.4 686.31,-143.2 689.71,-149.32"/>
</a>
</g>
</g>
<!-- Node23 -->
<g id="Node000023" class="node">
<title>Node23</title>
<g id="a_Node000023"><a xlink:href="_state_8h.html" target="_top" xlink:title="SPICE Interface functions.">
<polygon fill="white" stroke="#666666" points="531.75,-141 484.25,-141 484.25,-121.75 531.75,-121.75 531.75,-141"/>
<text text-anchor="middle" x="508" y="-127.5" font-family="Helvetica,sans-Serif" font-size="10.00">State.h</text>
</a>
</g>
</g>
<!-- Node20&#45;&gt;Node23 -->
<g id="edge35_Node000020_Node000023" class="edge">
<title>Node20&#45;&gt;Node23</title>
<g id="a_edge35_Node000020_Node000023"><a xlink:title=" ">
<path fill="none" stroke="#63b8ff" d="M592.81,-182.31C576.88,-172.93 551.59,-158.04 532.76,-146.95"/>
<polygon fill="#63b8ff" stroke="#63b8ff" points="534.72,-143.46 524.33,-141.4 531.17,-149.49 534.72,-143.46"/>
</a>
</g>
</g>
<!-- Node23&#45;&gt;Node4 -->
<g id="edge36_Node000023_Node000004" class="edge">
<title>Node23&#45;&gt;Node4</title>
<g id="a_edge36_Node000023_Node000004"><a xlink:title=" ">
<path fill="none" stroke="#63b8ff" d="M532.02,-123.49C534.7,-122.85 537.4,-122.25 540,-121.75 666.45,-97.53 816.02,-83.33 902.45,-76.52"/>
<polygon fill="#63b8ff" stroke="#63b8ff" points="902.49,-79.95 912.19,-75.69 901.95,-72.97 902.49,-79.95"/>
</a>
</g>
</g>
<!-- Node23&#45;&gt;Node5 -->
<g id="edge37_Node000023_Node000005" class="edge">
<title>Node23&#45;&gt;Node5</title>
<g id="a_edge37_Node000023_Node000005"><a xlink:title=" ">
<path fill="none" stroke="#63b8ff" d="M508,-121.43C508,-114.9 508,-105.7 508,-96.97"/>
<polygon fill="#63b8ff" stroke="#63b8ff" points="511.5,-97.03 508,-87.03 504.5,-97.03 511.5,-97.03"/>
</a>
</g>
</g>
<!-- Node23&#45;&gt;Node24 -->
<g id="edge38_Node000023_Node000024" class="edge">
<title>Node23&#45;&gt;Node24</title>
<g id="a_edge38_Node000023_Node000024"><a xlink:title=" ">
<path fill="none" stroke="#63b8ff" d="M483.85,-127.08C410.79,-117.13 192.05,-87.32 108.73,-75.96"/>
<polygon fill="#63b8ff" stroke="#63b8ff" points="109.28,-72.37 98.9,-74.48 108.33,-79.3 109.28,-72.37"/>
</a>
</g>
</g>
<!-- Node26&#45;&gt;Node24 -->
<g id="edge52_Node000026_Node000024" class="edge">
<title>Node26&#45;&gt;Node24</title>
<g id="a_edge52_Node000026_Node000024"><a xlink:title=" ">
<path fill="none" stroke="#63b8ff" d="M269.58,-309.54C253,-301.36 228.91,-288.43 210,-274 147.87,-226.6 129.06,-211.33 95,-141 87.25,-124.99 82.25,-105.33 79.33,-91"/>
<polygon fill="#63b8ff" stroke="#63b8ff" points="82.63,-90.62 77.36,-81.43 75.75,-91.9 82.63,-90.62"/>
</a>
</g>
</g>
<!-- Node27 -->
<g id="Node000027" class="node">
<title>Node27</title>
<g id="a_Node000027"><a xlink:href="_occultation_8h.html" target="_top" xlink:title="Signal blockage model.">
<polygon fill="white" stroke="#666666" points="257.25,-207.5 152.75,-207.5 152.75,-177 257.25,-177 257.25,-207.5"/>
<text text-anchor="start" x="160.75" y="-194" font-family="Helvetica,sans-Serif" font-size="10.00">lupnt/measurements</text>
<text text-anchor="middle" x="205" y="-182.75" font-family="Helvetica,sans-Serif" font-size="10.00">/Occultation.h</text>
</a>
</g>
</g>
<!-- Node26&#45;&gt;Node27 -->
<g id="edge44_Node000026_Node000027" class="edge">
<title>Node26&#45;&gt;Node27</title>
<g id="a_edge44_Node000026_Node000027"><a xlink:title=" ">
<path fill="none" stroke="#63b8ff" d="M270.67,-309.54C257,-301.86 238.87,-289.61 228,-274 216.56,-257.58 210.78,-235.54 207.87,-218.64"/>
<polygon fill="#63b8ff" stroke="#63b8ff" points="211.21,-218.27 206.29,-208.89 204.28,-219.29 211.21,-218.27"/>
</a>
</g>
</g>
<!-- Node29 -->
<g id="Node000029" class="node">
<title>Node29</title>
<g id="a_Node000029"><a xlink:href="_space_channel_8h.html" target="_top" xlink:title="Base spacechannel class (Under devlopment )">
<polygon fill="white" stroke="#666666" points="341.25,-274 236.75,-274 236.75,-243.5 341.25,-243.5 341.25,-274"/>
<text text-anchor="start" x="244.75" y="-260.5" font-family="Helvetica,sans-Serif" font-size="10.00">lupnt/measurements</text>
<text text-anchor="middle" x="289" y="-249.25" font-family="Helvetica,sans-Serif" font-size="10.00">/SpaceChannel.h</text>
</a>
</g>
</g>
<!-- Node26&#45;&gt;Node29 -->
<g id="edge49_Node000026_Node000029" class="edge">
<title>Node26&#45;&gt;Node29</title>
<g id="a_edge49_Node000026_Node000029"><a xlink:title=" ">
<path fill="none" stroke="#63b8ff" d="M289,-309.68C289,-303.15 289,-293.95 289,-285.22"/>
<polygon fill="#63b8ff" stroke="#63b8ff" points="292.5,-285.28 289,-275.28 285.5,-285.28 292.5,-285.28"/>
</a>
</g>
</g>
<!-- Node27&#45;&gt;Node5 -->
<g id="edge46_Node000027_Node000005" class="edge">
<title>Node27&#45;&gt;Node5</title>
<g id="a_edge46_Node000027_Node000005"><a xlink:title=" ">
<path fill="none" stroke="#63b8ff" d="M197.03,-176.67C189.78,-161.21 182.03,-136.97 195,-121.75 211.07,-102.9 359.36,-85.71 445.94,-77.17"/>
<polygon fill="#63b8ff" stroke="#63b8ff" points="446.08,-80.57 455.69,-76.12 445.4,-73.6 446.08,-80.57"/>
</a>
</g>
</g>
<!-- Node27&#45;&gt;Node6 -->
<g id="edge48_Node000027_Node000006" class="edge">
<title>Node27&#45;&gt;Node6</title>
<g id="a_edge48_Node000027_Node000006"><a xlink:title=" ">
<path fill="none" stroke="#63b8ff" d="M208.96,-176.7C210.99,-169.2 213.51,-159.95 215.71,-151.85"/>
<polygon fill="#63b8ff" stroke="#63b8ff" points="219.29,-153.02 218.53,-142.45 212.53,-151.18 219.29,-153.02"/>
</a>
</g>
</g>
<!-- Node27&#45;&gt;Node10 -->
<g id="edge45_Node000027_Node000010" class="edge">
<title>Node27&#45;&gt;Node10</title>
<g id="a_edge45_Node000027_Node000010"><a xlink:title=" ">
<path fill="none" stroke="#63b8ff" d="M257.63,-185.05C283.09,-182.24 314.1,-179.08 342,-177 520.66,-163.67 1065.65,-142.31 1258.49,-134.96"/>
<polygon fill="#63b8ff" stroke="#63b8ff" points="1258.46,-138.42 1268.32,-134.54 1258.19,-131.43 1258.46,-138.42"/>
</a>
</g>
</g>
<!-- Node28 -->
<g id="Node000028" class="node">
<title>Node28</title>
<g id="a_Node000028"><a xlink:title=" ">
<polygon fill="#e0e0e0" stroke="#999999" points="147.5,-141 104.5,-141 104.5,-121.75 147.5,-121.75 147.5,-141"/>
<text text-anchor="middle" x="126" y="-127.5" font-family="Helvetica,sans-Serif" font-size="10.00">cmath</text>
</a>
</g>
</g>
<!-- Node27&#45;&gt;Node28 -->
<g id="edge47_Node000027_Node000028" class="edge">
<title>Node27&#45;&gt;Node28</title>
<g id="a_edge47_Node000027_Node000028"><a xlink:title=" ">
<path fill="none" stroke="#63b8ff" d="M185.47,-176.7C173.67,-167.9 158.65,-156.71 146.66,-147.77"/>
<polygon fill="#63b8ff" stroke="#63b8ff" points="149.29,-144.62 139.18,-141.45 145.11,-150.23 149.29,-144.62"/>
</a>
</g>
</g>
<!-- Node29&#45;&gt;Node7 -->
<g id="edge51_Node000029_Node000007" class="edge">
<title>Node29&#45;&gt;Node7</title>
<g id="a_edge51_Node000029_Node000007"><a xlink:title=" ">
<path fill="none" stroke="#63b8ff" d="M308.97,-243.11C323.03,-232.81 341.81,-219.04 356.08,-208.58"/>
<polygon fill="#63b8ff" stroke="#63b8ff" points="357.71,-210.99 363.71,-202.26 353.57,-205.35 357.71,-210.99"/>
</a>
</g>
</g>
<!-- Node29&#45;&gt;Node27 -->
<g id="edge50_Node000029_Node000027" class="edge">
<title>Node29&#45;&gt;Node27</title>
<g id="a_edge50_Node000029_Node000027"><a xlink:title=" ">
<path fill="none" stroke="#63b8ff" d="M269.94,-243.11C258.88,-234.62 244.75,-223.77 232.5,-214.37"/>
<polygon fill="#63b8ff" stroke="#63b8ff" points="235.05,-211.14 224.99,-207.83 230.79,-216.69 235.05,-211.14"/>
</a>
</g>
</g>
<!-- Node30&#45;&gt;Node4 -->
<g id="edge57_Node000030_Node000004" class="edge">
<title>Node30&#45;&gt;Node4</title>
<g id="a_edge57_Node000030_Node000004"><a xlink:title=" ">
<path fill="none" stroke="#63b8ff" d="M1055.2,-253.72C1086.84,-248.23 1123.92,-235.72 1144,-207.5 1151.86,-196.46 1146.86,-190.25 1144,-177 1138.32,-150.65 1138.91,-139.92 1119,-121.75 1097.98,-102.57 1069.25,-90.64 1042.91,-83.26"/>
<polygon fill="#63b8ff" stroke="#63b8ff" points="1044.14,-79.7 1033.58,-80.55 1042.36,-86.47 1044.14,-79.7"/>
</a>
</g>
</g>
<!-- Node30&#45;&gt;Node5 -->
<g id="edge58_Node000030_Node000005" class="edge">
<title>Node30&#45;&gt;Node5</title>
<g id="a_edge58_Node000030_Node000005"><a xlink:title=" ">
<path fill="none" stroke="#63b8ff" d="M942.79,-251.15C905.49,-244.66 856.82,-231.99 820,-207.5 779.5,-180.56 793.42,-147.24 752,-121.75 696.64,-87.68 622.17,-76.29 570.12,-72.7"/>
<polygon fill="#63b8ff" stroke="#63b8ff" points="570.56,-69.16 560.37,-72.05 570.14,-76.15 570.56,-69.16"/>
</a>
</g>
</g>
<!-- Node30&#45;&gt;Node7 -->
<g id="edge59_Node000030_Node000007" class="edge">
<title>Node30&#45;&gt;Node7</title>
<g id="a_edge59_Node000030_Node000007"><a xlink:title=" ">
<path fill="none" stroke="#63b8ff" d="M942.7,-251.91C817.46,-238.93 518.61,-207.93 413.96,-197.08"/>
<polygon fill="#63b8ff" stroke="#63b8ff" points="414.34,-193.5 404.03,-195.95 413.61,-200.46 414.34,-193.5"/>
</a>
</g>
</g>
<!-- Node30&#45;&gt;Node10 -->
<g id="edge54_Node000030_Node000010" class="edge">
<title>Node30&#45;&gt;Node10</title>
<g id="a_edge54_Node000030_Node000010"><a xlink:title=" ">
<path fill="none" stroke="#63b8ff" d="M1040.5,-248.63C1077.48,-239.93 1132.74,-225.5 1179,-207.5 1202.93,-198.19 1265.29,-165.43 1300.96,-146.38"/>
<polygon fill="#63b8ff" stroke="#63b8ff" points="1302.09,-149.21 1309.26,-141.4 1298.79,-143.04 1302.09,-149.21"/>
</a>
</g>
</g>
<!-- Node30&#45;&gt;Node16 -->
<g id="edge55_Node000030_Node000016" class="edge">
<title>Node30&#45;&gt;Node16</title>
<g id="a_edge55_Node000030_Node000016"><a xlink:title=" ">
<path fill="none" stroke="#63b8ff" d="M1010.68,-248.78C1022.21,-239.93 1040.27,-226.06 1055.46,-214.4"/>
<polygon fill="#63b8ff" stroke="#63b8ff" points="1057.2,-216.71 1063,-207.84 1052.94,-211.15 1057.2,-216.71"/>
</a>
</g>
</g>
<!-- Node30&#45;&gt;Node17 -->
<g id="edge56_Node000030_Node000017" class="edge">
<title>Node30&#45;&gt;Node17</title>
<g id="a_edge56_Node000030_Node000017"><a xlink:title=" ">
<path fill="none" stroke="#63b8ff" d="M1000.87,-248.73C1005.05,-228.58 1015.23,-179.51 1020.94,-151.96"/>
<polygon fill="#63b8ff" stroke="#63b8ff" points="1024.54,-152.81 1023.15,-142.31 1017.69,-151.39 1024.54,-152.81"/>
</a>
</g>
</g>
<!-- Node31&#45;&gt;Node4 -->
<g id="edge63_Node000031_Node000004" class="edge">
<title>Node31&#45;&gt;Node4</title>
<g id="a_edge63_Node000031_Node000004"><a xlink:title=" ">
<path fill="none" stroke="#63b8ff" d="M1346.94,-182.26C1373.22,-169.23 1413.91,-144.19 1394,-121.75 1371.3,-96.18 1159.34,-81.22 1045.51,-74.96"/>
<polygon fill="#63b8ff" stroke="#63b8ff" points="1045.98,-71.43 1035.81,-74.39 1045.6,-78.42 1045.98,-71.43"/>
</a>
</g>
</g>
<!-- Node31&#45;&gt;Node5 -->
<g id="edge64_Node000031_Node000005" class="edge">
<title>Node31&#45;&gt;Node5</title>
<g id="a_edge64_Node000031_Node000005"><a xlink:title=" ">
<path fill="none" stroke="#63b8ff" d="M1302.04,-182.18C1259.13,-166.99 1168.33,-136.61 1089,-121.75 902.3,-86.77 677.21,-76.07 570.27,-72.85"/>
<polygon fill="#63b8ff" stroke="#63b8ff" points="570.46,-69.33 560.36,-72.54 570.26,-76.33 570.46,-69.33"/>
</a>
</g>
</g>
<!-- Node31&#45;&gt;Node10 -->
<g id="edge65_Node000031_Node000010" class="edge">
<title>Node31&#45;&gt;Node10</title>
<g id="a_edge65_Node000031_Node000010"><a xlink:title=" ">
<path fill="none" stroke="#63b8ff" d="M1327,-182.31C1327,-174.35 1327,-162.44 1327,-152.24"/>
<polygon fill="#63b8ff" stroke="#63b8ff" points="1330.5,-152.4 1327,-142.4 1323.5,-152.4 1330.5,-152.4"/>
</a>
</g>
</g>
<!-- Node32 -->
<g id="Node000032" class="node">
<title>Node32</title>
<g id="a_Node000032"><a xlink:title=" ">
<polygon fill="#e0e0e0" stroke="#999999" points="1489.12,-141 1440.88,-141 1440.88,-121.75 1489.12,-121.75 1489.12,-141"/>
<text text-anchor="middle" x="1465" y="-127.5" font-family="Helvetica,sans-Serif" font-size="10.00">string.h</text>
</a>
</g>
</g>
<!-- Node31&#45;&gt;Node32 -->
<g id="edge62_Node000031_Node000032" class="edge">
<title>Node31&#45;&gt;Node32</title>
<g id="a_edge62_Node000031_Node000032"><a xlink:title=" ">
<path fill="none" stroke="#63b8ff" d="M1348.26,-182.18C1371.22,-172.38 1408.01,-156.69 1434.15,-145.54"/>
<polygon fill="#63b8ff" stroke="#63b8ff" points="1435.12,-148.5 1442.94,-141.36 1432.37,-142.06 1435.12,-148.5"/>
</a>
</g>
</g>
</g>
</svg>

<g id="navigator" transform="translate(0 0)" fill="#404254">
  <rect fill="#f2f5e9" fill-opacity="0.5" stroke="#606060" stroke-width=".5" x="0" y="0" width="60" height="60"/>
  <use id="zoomplus" xlink:href="#zoomPlus" x="17" y="9" onmousedown="handleZoom(evt,'in')"/>
  <use id="zoomminus" xlink:href="#zoomMin" x="42" y="9" onmousedown="handleZoom(evt,'out')"/>
  <use id="reset" xlink:href="#resetDef" x="30" y="36" onmousedown="handleReset()"/>
   <use id="arrowup" xlink:href="#arrowUp" x="0" y="0" onmousedown="handlePan(0,-1)"/>
  <use id="arrowright" xlink:href="#arrowRight" x="0" y="0" onmousedown="handlePan(1,0)"/>
  <use id="arrowdown" xlink:href="#arrowDown" x="0" y="0" onmousedown="handlePan(0,1)"/>
  <use id="arrowleft" xlink:href="#arrowLeft" x="0" y="0" onmousedown="handlePan(-1,0)"/>
</g>
<svg viewBox="0 0 15 15" width="100%" height="30px" preserveAspectRatio="xMaxYMin meet">
 <g id="arrow_out" transform="scale(0.3 0.3)">
  <a xlink:href="_g_n_s_s_receiver_8cpp__incl_org.svg" target="_base">
   <rect id="button" ry="5" rx="5" y="6" x="6" height="38" width="38"
        fill="#f2f5e9" fill-opacity="0.5" stroke="#606060" stroke-width="1.0"/>
   <path id="arrow"
     d="M 11.500037,31.436501 C 11.940474,20.09759 22.043105,11.32322 32.158766,21.979434 L 37.068811,17.246167 C 37.068811,17.246167 37.088388,32 37.088388,32 L 22.160133,31.978069 C 22.160133,31.978069 26.997745,27.140456 26.997745,27.140456 C 18.528582,18.264221 13.291696,25.230495 11.500037,31.436501 z"
     style="fill:#404040;"/>
  </a>
 </g>
</svg>

<style type='text/css'>
<![CDATA[
[data-mouse-over-selected='false'] { opacity: 0.7; }
[data-mouse-over-selected='true']  { opacity: 1.0; }
]]>
</style>
<script type="application/ecmascript"><![CDATA[
document.addEventListener('DOMContentLoaded', (event) => {
  highlightEdges();
  highlightAdjacentNodes();
});
]]></script>
</svg>
