<?xml version="1.0" encoding="UTF-8" standalone="no"?>
<!DOCTYPE svg PUBLIC "-//W3C//DTD SVG 1.1//EN"
 "http://www.w3.org/Graphics/SVG/1.1/DTD/svg11.dtd">
<!-- Generated by graphviz version 8.1.0 (20230707.0739)
 -->
<!-- Title: GNSSMeasurement.cpp Pages: 1 -->
<!--zoomable 271 -->

<svg id="main" version="1.1" xmlns="http://www.w3.org/2000/svg" xmlns:xlink="http://www.w3.org/1999/xlink" xml:space="preserve" onload="init(evt)">
<style type="text/css"><![CDATA[
.node, .edge {opacity: 0.7;}
.node.selected, .edge.selected {opacity: 1;}
.edge:hover path { stroke: red; }
.edge:hover polygon { stroke: red; fill: red; }
]]></style>

<defs>
  <circle id="rim" cx="0" cy="0" r="7"/>
  <circle id="rim2" cx="0" cy="0" r="3.5"/>
  <g id="zoomPlus">
    <use xlink:href="#rim" fill="#404040"><set attributeName="fill" to="#808080" begin="zoomplus.mouseover" end="zoomplus.mouseout"/></use>
    <path d="M-4,0h8M0,-4v8" fill="none" stroke="white" stroke-width="1.5" pointer-events="none"/>
  </g>
  <g id="zoomMin">
    <use xlink:href="#rim" fill="#404040"><set attributeName="fill" to="#808080" begin="zoomminus.mouseover" end="zoomminus.mouseout"/></use>
    <path d="M-4,0h8" fill="none" stroke="white" stroke-width="1.5" pointer-events="none"/>
  </g>
  <g id="arrowUp" transform="translate(30 24)">
    <use xlink:href="#rim"/>
    <path pointer-events="none" fill="none" stroke="white" stroke-width="1.5" d="M0,-3.0v7 M-2.5,-0.5L0,-3.0L2.5,-0.5"/>
  </g>
  <g id="arrowRight" transform="rotate(90) translate(36 -43)">
    <use xlink:href="#rim"/>
    <path pointer-events="none" fill="none" stroke="white" stroke-width="1.5" d="M0,-3.0v7 M-2.5,-0.5L0,-3.0L2.5,-0.5"/>
  </g>
  <g id="arrowDown" transform="rotate(180) translate(-30 -48)">
    <use xlink:href="#rim"/>
    <path pointer-events="none" fill="none" stroke="white" stroke-width="1.5" d="M0,-3.0v7 M-2.5,-0.5L0,-3.0L2.5,-0.5"/>
  </g>
  <g id="arrowLeft" transform="rotate(270) translate(-36 17)">
    <use xlink:href="#rim"/>
    <path pointer-events="none" fill="none" stroke="white" stroke-width="1.5" d="M0,-3.0v7 M-2.5,-0.5L0,-3.0L2.5,-0.5"/>
  </g>
  <g id="resetDef">
    <use xlink:href="#rim2" fill="#404040"><set attributeName="fill" to="#808080" begin="reset.mouseover" end="reset.mouseout"/></use>
  </g>
</defs>
<script type="application/ecmascript">
var viewWidth = 738;
var viewHeight = 271;
var sectionId = 'dynsection-0';
</script>
<script type="application/ecmascript" xlink:href="svg.min.js"/>
<svg id="graph" class="graph">
<g id="viewport">
<title>GNSSMeasurement.cpp</title>
<!-- Node1 -->
<g id="Node000001" class="node">
<title>Node1</title>
<g id="a_Node000001"><a xlink:title="Class that constructs GPS measurement data from channel observables.">
<polygon fill="#999999" stroke="#666666" points="331.38,-262.75 208.88,-262.75 208.88,-243.5 331.38,-243.5 331.38,-262.75"/>
<text text-anchor="middle" x="270.12" y="-249.25" font-family="Helvetica,sans-Serif" font-size="10.00">GNSSMeasurement.cpp</text>
</a>
</g>
</g>
<!-- Node2 -->
<g id="Node000002" class="node">
<title>Node2</title>
<g id="a_Node000002"><a xlink:href="_g_n_s_s_measurement_8h.html" target="_top" xlink:title="Class that constructs GPS measurement data from channel observables.">
<polygon fill="white" stroke="#666666" points="284.12,-207.5 172.12,-207.5 172.12,-188.25 284.12,-188.25 284.12,-207.5"/>
<text text-anchor="middle" x="228.12" y="-194" font-family="Helvetica,sans-Serif" font-size="10.00">GNSSMeasurement.h</text>
</a>
</g>
</g>
<!-- Node1&#45;&gt;Node2 -->
<g id="edge1_Node000001_Node000002" class="edge">
<title>Node1&#45;&gt;Node2</title>
<g id="a_edge1_Node000001_Node000002"><a xlink:title=" ">
<path fill="none" stroke="#63b8ff" d="M263.19,-243.33C257.45,-236.05 249.11,-225.48 242.01,-216.48"/>
<polygon fill="#63b8ff" stroke="#63b8ff" points="244.15,-214.54 235.21,-208.86 238.66,-218.88 244.15,-214.54"/>
</a>
</g>
</g>
<!-- Node15 -->
<g id="Node000015" class="node">
<title>Node15</title>
<g id="a_Node000015"><a xlink:href="_math_utils_8h.html" target="_top" xlink:title=" ">
<polygon fill="white" stroke="#666666" points="427.62,-146.62 294.62,-146.62 294.62,-127.38 427.62,-127.38 427.62,-146.62"/>
<text text-anchor="middle" x="361.12" y="-133.12" font-family="Helvetica,sans-Serif" font-size="10.00">lupnt/numerics/MathUtils.h</text>
</a>
</g>
</g>
<!-- Node1&#45;&gt;Node15 -->
<g id="edge20_Node000001_Node000015" class="edge">
<title>Node1&#45;&gt;Node15</title>
<g id="a_edge20_Node000001_Node000015"><a xlink:title=" ">
<path fill="none" stroke="#63b8ff" d="M277.27,-243.17C292.35,-224.25 327.68,-179.94 347.33,-155.3"/>
<polygon fill="#63b8ff" stroke="#63b8ff" points="350.52,-157.91 354.02,-147.91 345.05,-153.55 350.52,-157.91"/>
</a>
</g>
</g>
<!-- Node3 -->
<g id="Node000003" class="node">
<title>Node3</title>
<g id="a_Node000003"><a xlink:href="_constants_8h.html" target="_top" xlink:title="List of constants.">
<polygon fill="white" stroke="#666666" points="560.62,-146.62 445.62,-146.62 445.62,-127.38 560.62,-127.38 560.62,-146.62"/>
<text text-anchor="middle" x="503.12" y="-133.12" font-family="Helvetica,sans-Serif" font-size="10.00">lupnt/core/Constants.h</text>
</a>
</g>
</g>
<!-- Node2&#45;&gt;Node3 -->
<g id="edge2_Node000002_Node000003" class="edge">
<title>Node2&#45;&gt;Node3</title>
<g id="a_edge2_Node000002_Node000003"><a xlink:title=" ">
<path fill="none" stroke="#63b8ff" d="M270.49,-187.8C318.74,-177.48 397.63,-160.58 449.97,-149.38"/>
<polygon fill="#63b8ff" stroke="#63b8ff" points="450.67,-152.6 459.71,-147.08 449.2,-145.75 450.67,-152.6"/>
</a>
</g>
</g>
<!-- Node5 -->
<g id="Node000005" class="node">
<title>Node5</title>
<g id="a_Node000005"><a xlink:title=" ">
<polygon fill="#e0e0e0" stroke="#999999" points="373.62,-80.12 252.62,-80.12 252.62,-60.88 373.62,-60.88 373.62,-80.12"/>
<text text-anchor="middle" x="313.12" y="-66.62" font-family="Helvetica,sans-Serif" font-size="10.00">autodiff/forward/real.hpp</text>
</a>
</g>
</g>
<!-- Node2&#45;&gt;Node5 -->
<g id="edge17_Node000002_Node000005" class="edge">
<title>Node2&#45;&gt;Node5</title>
<g id="a_edge17_Node000002_Node000005"><a xlink:title=" ">
<path fill="none" stroke="#63b8ff" d="M234.24,-187.86C248.21,-167.26 282.67,-116.42 301.08,-89.27"/>
<polygon fill="#63b8ff" stroke="#63b8ff" points="304.35,-91.68 307.07,-81.43 298.56,-87.75 304.35,-91.68"/>
</a>
</g>
</g>
<!-- Node11 -->
<g id="Node000011" class="node">
<title>Node11</title>
<g id="a_Node000011"><a xlink:href="_transmission_8h.html" target="_top" xlink:title="Signal transmission data.">
<polygon fill="white" stroke="#666666" points="200.38,-152.25 95.88,-152.25 95.88,-121.75 200.38,-121.75 200.38,-152.25"/>
<text text-anchor="start" x="103.88" y="-138.75" font-family="Helvetica,sans-Serif" font-size="10.00">lupnt/measurements</text>
<text text-anchor="middle" x="148.12" y="-127.5" font-family="Helvetica,sans-Serif" font-size="10.00">/Transmission.h</text>
</a>
</g>
</g>
<!-- Node2&#45;&gt;Node11 -->
<g id="edge11_Node000002_Node000011" class="edge">
<title>Node2&#45;&gt;Node11</title>
<g id="a_edge11_Node000002_Node000011"><a xlink:title=" ">
<path fill="none" stroke="#63b8ff" d="M215.97,-187.93C205.5,-180.23 189.98,-168.8 176.42,-158.83"/>
<polygon fill="#63b8ff" stroke="#63b8ff" points="179,-155.64 168.87,-152.53 174.85,-161.28 179,-155.64"/>
</a>
</g>
</g>
<!-- Node12 -->
<g id="Node000012" class="node">
<title>Node12</title>
<g id="a_Node000012"><a xlink:title=" ">
<polygon fill="#e0e0e0" stroke="#999999" points="72.25,-80.12 0,-80.12 0,-60.88 72.25,-60.88 72.25,-80.12"/>
<text text-anchor="middle" x="36.12" y="-66.62" font-family="Helvetica,sans-Serif" font-size="10.00">Eigen/Dense</text>
</a>
</g>
</g>
<!-- Node2&#45;&gt;Node12 -->
<g id="edge16_Node000002_Node000012" class="edge">
<title>Node2&#45;&gt;Node12</title>
<g id="a_edge16_Node000002_Node000012"><a xlink:title=" ">
<path fill="none" stroke="#63b8ff" d="M171.65,-192.8C115.89,-187.46 36.25,-175.85 17.12,-152.25 2.72,-134.48 13.5,-107.68 23.76,-89.89"/>
<polygon fill="#63b8ff" stroke="#63b8ff" points="27.24,-91.93 29.55,-81.6 21.29,-88.23 27.24,-91.93"/>
</a>
</g>
</g>
<!-- Node13 -->
<g id="Node000013" class="node">
<title>Node13</title>
<g id="a_Node000013"><a xlink:title=" ">
<polygon fill="#e0e0e0" stroke="#999999" points="234.25,-85.75 132,-85.75 132,-55.25 234.25,-55.25 234.25,-85.75"/>
<text text-anchor="start" x="140" y="-72.25" font-family="Helvetica,sans-Serif" font-size="10.00">autodiff/forward/real</text>
<text text-anchor="middle" x="183.12" y="-61" font-family="Helvetica,sans-Serif" font-size="10.00">/eigen.hpp</text>
</a>
</g>
</g>
<!-- Node2&#45;&gt;Node13 -->
<g id="edge18_Node000002_Node000013" class="edge">
<title>Node2&#45;&gt;Node13</title>
<g id="a_edge18_Node000002_Node000013"><a xlink:title=" ">
<path fill="none" stroke="#63b8ff" d="M226.55,-187.88C223.88,-173.58 217.91,-144.89 209.12,-121.75 205.79,-112.97 201.32,-103.74 197.03,-95.61"/>
<polygon fill="#63b8ff" stroke="#63b8ff" points="199.66,-94.13 191.78,-87.04 193.52,-97.49 199.66,-94.13"/>
</a>
</g>
</g>
<!-- Node14 -->
<g id="Node000014" class="node">
<title>Node14</title>
<g id="a_Node000014"><a xlink:title=" ">
<polygon fill="#e0e0e0" stroke="#999999" points="77.75,-146.62 26.5,-146.62 26.5,-127.38 77.75,-127.38 77.75,-146.62"/>
<text text-anchor="middle" x="52.12" y="-133.12" font-family="Helvetica,sans-Serif" font-size="10.00">memory</text>
</a>
</g>
</g>
<!-- Node2&#45;&gt;Node14 -->
<g id="edge19_Node000002_Node000014" class="edge">
<title>Node2&#45;&gt;Node14</title>
<g id="a_edge19_Node000002_Node000014"><a xlink:title=" ">
<path fill="none" stroke="#63b8ff" d="M197.08,-187.83C168.35,-179.28 124.56,-165.77 87.12,-152.25 85.88,-151.8 84.6,-151.33 83.32,-150.85"/>
<polygon fill="#63b8ff" stroke="#63b8ff" points="85.08,-147.39 74.49,-147.02 82.54,-153.91 85.08,-147.39"/>
</a>
</g>
</g>
<!-- Node4 -->
<g id="Node000004" class="node">
<title>Node4</title>
<g id="a_Node000004"><a xlink:title=" ">
<polygon fill="#e0e0e0" stroke="#999999" points="730,-80.12 596.25,-80.12 596.25,-60.88 730,-60.88 730,-80.12"/>
<text text-anchor="middle" x="663.12" y="-66.62" font-family="Helvetica,sans-Serif" font-size="10.00">autodiff/common/eigen.hpp</text>
</a>
</g>
</g>
<!-- Node3&#45;&gt;Node4 -->
<g id="edge3_Node000003_Node000004" class="edge">
<title>Node3&#45;&gt;Node4</title>
<g id="a_edge3_Node000003_Node000004"><a xlink:title=" ">
<path fill="none" stroke="#63b8ff" d="M525.71,-126.9C553.11,-115.85 599.49,-97.15 630.7,-84.57"/>
<polygon fill="#63b8ff" stroke="#63b8ff" points="631.69,-87.54 639.66,-80.56 629.07,-81.05 631.69,-87.54"/>
</a>
</g>
</g>
<!-- Node3&#45;&gt;Node5 -->
<g id="edge4_Node000003_Node000005" class="edge">
<title>Node3&#45;&gt;Node5</title>
<g id="a_edge4_Node000003_Node000005"><a xlink:title=" ">
<path fill="none" stroke="#63b8ff" d="M476.31,-126.9C443.35,-115.71 387.25,-96.66 350.19,-84.08"/>
<polygon fill="#63b8ff" stroke="#63b8ff" points="351.4,-80.46 340.81,-80.56 349.15,-87.09 351.4,-80.46"/>
</a>
</g>
</g>
<!-- Node6 -->
<g id="Node000006" class="node">
<title>Node6</title>
<g id="a_Node000006"><a xlink:title=" ">
<polygon fill="#e0e0e0" stroke="#999999" points="455.12,-19.25 415.12,-19.25 415.12,0 455.12,0 455.12,-19.25"/>
<text text-anchor="middle" x="435.12" y="-5.75" font-family="Helvetica,sans-Serif" font-size="10.00">string</text>
</a>
</g>
</g>
<!-- Node3&#45;&gt;Node6 -->
<g id="edge5_Node000003_Node000006" class="edge">
<title>Node3&#45;&gt;Node6</title>
<g id="a_edge5_Node000003_Node000006"><a xlink:title=" ">
<path fill="none" stroke="#63b8ff" d="M498.23,-126.98C487.16,-106.56 459.97,-56.43 445.15,-29.11"/>
<polygon fill="#63b8ff" stroke="#63b8ff" points="447.82,-27.68 439.97,-20.56 441.66,-31.02 447.82,-27.68"/>
</a>
</g>
</g>
<!-- Node7 -->
<g id="Node000007" class="node">
<title>Node7</title>
<g id="a_Node000007"><a xlink:href="_user_file_path_8h.html" target="_top" xlink:title="File access utils.">
<polygon fill="white" stroke="#666666" points="577.75,-80.12 496.5,-80.12 496.5,-60.88 577.75,-60.88 577.75,-80.12"/>
<text text-anchor="middle" x="537.12" y="-66.62" font-family="Helvetica,sans-Serif" font-size="10.00">UserFilePath.h</text>
</a>
</g>
</g>
<!-- Node3&#45;&gt;Node7 -->
<g id="edge6_Node000003_Node000007" class="edge">
<title>Node3&#45;&gt;Node7</title>
<g id="a_edge6_Node000003_Node000007"><a xlink:title=" ">
<path fill="none" stroke="#63b8ff" d="M507.85,-127.03C512.88,-117.5 520.96,-102.16 527.36,-90.02"/>
<polygon fill="#63b8ff" stroke="#63b8ff" points="530.87,-91.87 532.44,-81.39 524.68,-88.61 530.87,-91.87"/>
</a>
</g>
</g>
<!-- Node7&#45;&gt;Node6 -->
<g id="edge10_Node000007_Node000006" class="edge">
<title>Node7&#45;&gt;Node6</title>
<g id="a_edge10_Node000007_Node000006"><a xlink:title=" ">
<path fill="none" stroke="#63b8ff" d="M521.63,-60.56C505.31,-51.13 479.34,-36.15 460.12,-25.05"/>
<polygon fill="#63b8ff" stroke="#63b8ff" points="462.17,-21.62 451.76,-19.65 458.67,-27.68 462.17,-21.62"/>
</a>
</g>
</g>
<!-- Node8 -->
<g id="Node000008" class="node">
<title>Node8</title>
<g id="a_Node000008"><a xlink:title=" ">
<polygon fill="#e0e0e0" stroke="#999999" points="673.62,-19.25 612.62,-19.25 612.62,0 673.62,0 673.62,-19.25"/>
<text text-anchor="middle" x="643.12" y="-5.75" font-family="Helvetica,sans-Serif" font-size="10.00">filesystem</text>
</a>
</g>
</g>
<!-- Node7&#45;&gt;Node8 -->
<g id="edge7_Node000007_Node000008" class="edge">
<title>Node7&#45;&gt;Node8</title>
<g id="a_edge7_Node000007_Node000008"><a xlink:title=" ">
<path fill="none" stroke="#63b8ff" d="M553.22,-60.56C570.27,-51.09 597.42,-36.01 617.43,-24.9"/>
<polygon fill="#63b8ff" stroke="#63b8ff" points="618.83,-27.57 625.87,-19.65 615.43,-21.45 618.83,-27.57"/>
</a>
</g>
</g>
<!-- Node9 -->
<g id="Node000009" class="node">
<title>Node9</title>
<g id="a_Node000009"><a xlink:title=" ">
<polygon fill="#e0e0e0" stroke="#999999" points="526.88,-19.25 473.38,-19.25 473.38,0 526.88,0 526.88,-19.25"/>
<text text-anchor="middle" x="500.12" y="-5.75" font-family="Helvetica,sans-Serif" font-size="10.00">iostream</text>
</a>
</g>
</g>
<!-- Node7&#45;&gt;Node9 -->
<g id="edge8_Node000007_Node000009" class="edge">
<title>Node7&#45;&gt;Node9</title>
<g id="a_edge8_Node000007_Node000009"><a xlink:title=" ">
<path fill="none" stroke="#63b8ff" d="M531.51,-60.56C526.24,-52.17 518.2,-39.38 511.58,-28.84"/>
<polygon fill="#63b8ff" stroke="#63b8ff" points="514.08,-27.26 505.8,-20.65 508.16,-30.98 514.08,-27.26"/>
</a>
</g>
</g>
<!-- Node10 -->
<g id="Node000010" class="node">
<title>Node10</title>
<g id="a_Node000010"><a xlink:title=" ">
<polygon fill="#e0e0e0" stroke="#999999" points="595,-19.25 545.25,-19.25 545.25,0 595,0 595,-19.25"/>
<text text-anchor="middle" x="570.12" y="-5.75" font-family="Helvetica,sans-Serif" font-size="10.00">optional</text>
</a>
</g>
</g>
<!-- Node7&#45;&gt;Node10 -->
<g id="edge9_Node000007_Node000010" class="edge">
<title>Node7&#45;&gt;Node10</title>
<g id="a_edge9_Node000007_Node000010"><a xlink:title=" ">
<path fill="none" stroke="#63b8ff" d="M542.14,-60.56C546.79,-52.26 553.86,-39.64 559.73,-29.17"/>
<polygon fill="#63b8ff" stroke="#63b8ff" points="563.23,-31.09 565.07,-20.65 557.12,-27.66 563.23,-31.09"/>
</a>
</g>
</g>
<!-- Node11&#45;&gt;Node5 -->
<g id="edge13_Node000011_Node000005" class="edge">
<title>Node11&#45;&gt;Node5</title>
<g id="a_edge13_Node000011_Node000005"><a xlink:title=" ">
<path fill="none" stroke="#63b8ff" d="M185.57,-121.36C213.94,-110.27 252.56,-95.17 279.86,-84.5"/>
<polygon fill="#63b8ff" stroke="#63b8ff" points="281.04,-87.41 289.08,-80.51 278.49,-80.89 281.04,-87.41"/>
</a>
</g>
</g>
<!-- Node11&#45;&gt;Node6 -->
<g id="edge15_Node000011_Node000006" class="edge">
<title>Node11&#45;&gt;Node6</title>
<g id="a_edge15_Node000011_Node000006"><a xlink:title=" ">
<path fill="none" stroke="#63b8ff" d="M136.25,-121.48C123.36,-103.87 106.68,-74.21 123.12,-55.25 159.29,-13.54 332.26,-9.86 403.92,-10.17"/>
<polygon fill="#63b8ff" stroke="#63b8ff" points="403.88,-13.68 413.91,-10.25 403.93,-6.68 403.88,-13.68"/>
</a>
</g>
</g>
<!-- Node11&#45;&gt;Node12 -->
<g id="edge12_Node000011_Node000012" class="edge">
<title>Node11&#45;&gt;Node12</title>
<g id="a_edge12_Node000011_Node000012"><a xlink:title=" ">
<path fill="none" stroke="#63b8ff" d="M122.71,-121.36C104.3,-110.76 79.54,-96.5 61.21,-85.95"/>
<polygon fill="#63b8ff" stroke="#63b8ff" points="63.18,-82.47 52.77,-80.51 59.69,-88.53 63.18,-82.47"/>
</a>
</g>
</g>
<!-- Node11&#45;&gt;Node13 -->
<g id="edge14_Node000011_Node000013" class="edge">
<title>Node11&#45;&gt;Node13</title>
<g id="a_edge14_Node000011_Node000013"><a xlink:title=" ">
<path fill="none" stroke="#63b8ff" d="M156.07,-121.36C160.18,-113.78 165.32,-104.31 170.01,-95.68"/>
<polygon fill="#63b8ff" stroke="#63b8ff" points="173.52,-97.54 175.21,-87.08 167.37,-94.2 173.52,-97.54"/>
</a>
</g>
</g>
<!-- Node15&#45;&gt;Node5 -->
<g id="edge21_Node000015_Node000005" class="edge">
<title>Node15&#45;&gt;Node5</title>
<g id="a_edge21_Node000015_Node000005"><a xlink:title=" ">
<path fill="none" stroke="#63b8ff" d="M354.45,-127.03C347.14,-117.21 335.25,-101.23 326.09,-88.92"/>
<polygon fill="#63b8ff" stroke="#63b8ff" points="328.52,-87.33 319.74,-81.39 322.9,-91.5 328.52,-87.33"/>
</a>
</g>
</g>
<!-- Node15&#45;&gt;Node13 -->
<g id="edge22_Node000015_Node000013" class="edge">
<title>Node15&#45;&gt;Node13</title>
<g id="a_edge22_Node000015_Node000013"><a xlink:title=" ">
<path fill="none" stroke="#63b8ff" d="M336,-126.9C309.51,-117.3 267.07,-101.92 233.62,-89.8"/>
<polygon fill="#63b8ff" stroke="#63b8ff" points="235.15,-86.27 224.55,-86.15 232.76,-92.85 235.15,-86.27"/>
</a>
</g>
</g>
<!-- Node16 -->
<g id="Node000016" class="node">
<title>Node16</title>
<g id="a_Node000016"><a xlink:title=" ">
<polygon fill="#e0e0e0" stroke="#999999" points="440.25,-80.12 392,-80.12 392,-60.88 440.25,-60.88 440.25,-80.12"/>
<text text-anchor="middle" x="416.12" y="-66.62" font-family="Helvetica,sans-Serif" font-size="10.00">random</text>
</a>
</g>
</g>
<!-- Node15&#45;&gt;Node16 -->
<g id="edge23_Node000015_Node000016" class="edge">
<title>Node15&#45;&gt;Node16</title>
<g id="a_edge23_Node000015_Node000016"><a xlink:title=" ">
<path fill="none" stroke="#63b8ff" d="M368.77,-127.03C377.23,-117.12 391.05,-100.91 401.58,-88.56"/>
<polygon fill="#63b8ff" stroke="#63b8ff" points="404.72,-91.27 408.54,-81.39 399.39,-86.73 404.72,-91.27"/>
</a>
</g>
</g>
</g>
</svg>

<g id="navigator" transform="translate(0 0)" fill="#404254">
  <rect fill="#f2f5e9" fill-opacity="0.5" stroke="#606060" stroke-width=".5" x="0" y="0" width="60" height="60"/>
  <use id="zoomplus" xlink:href="#zoomPlus" x="17" y="9" onmousedown="handleZoom(evt,'in')"/>
  <use id="zoomminus" xlink:href="#zoomMin" x="42" y="9" onmousedown="handleZoom(evt,'out')"/>
  <use id="reset" xlink:href="#resetDef" x="30" y="36" onmousedown="handleReset()"/>
   <use id="arrowup" xlink:href="#arrowUp" x="0" y="0" onmousedown="handlePan(0,-1)"/>
  <use id="arrowright" xlink:href="#arrowRight" x="0" y="0" onmousedown="handlePan(1,0)"/>
  <use id="arrowdown" xlink:href="#arrowDown" x="0" y="0" onmousedown="handlePan(0,1)"/>
  <use id="arrowleft" xlink:href="#arrowLeft" x="0" y="0" onmousedown="handlePan(-1,0)"/>
</g>
<svg viewBox="0 0 15 15" width="100%" height="30px" preserveAspectRatio="xMaxYMin meet">
 <g id="arrow_out" transform="scale(0.3 0.3)">
  <a xlink:href="_g_n_s_s_measurement_8cpp__incl_org.svg" target="_base">
   <rect id="button" ry="5" rx="5" y="6" x="6" height="38" width="38"
        fill="#f2f5e9" fill-opacity="0.5" stroke="#606060" stroke-width="1.0"/>
   <path id="arrow"
     d="M 11.500037,31.436501 C 11.940474,20.09759 22.043105,11.32322 32.158766,21.979434 L 37.068811,17.246167 C 37.068811,17.246167 37.088388,32 37.088388,32 L 22.160133,31.978069 C 22.160133,31.978069 26.997745,27.140456 26.997745,27.140456 C 18.528582,18.264221 13.291696,25.230495 11.500037,31.436501 z"
     style="fill:#404040;"/>
  </a>
 </g>
</svg>

<style type='text/css'>
<![CDATA[
[data-mouse-over-selected='false'] { opacity: 0.7; }
[data-mouse-over-selected='true']  { opacity: 1.0; }
]]>
</style>
<script type="application/ecmascript"><![CDATA[
document.addEventListener('DOMContentLoaded', (event) => {
  highlightEdges();
  highlightAdjacentNodes();
});
]]></script>
</svg>
