<?xml version="1.0" encoding="UTF-8" standalone="no"?>
<!DOCTYPE svg PUBLIC "-//W3C//DTD SVG 1.1//EN"
 "http://www.w3.org/Graphics/SVG/1.1/DTD/svg11.dtd">
<!-- Generated by graphviz version 8.1.0 (20230707.0739)
 -->
<!-- Title: GNSSMeasurement.h Pages: 1 -->
<svg width="668pt" height="216pt"
 viewBox="0.00 0.00 668.00 215.50" xmlns="http://www.w3.org/2000/svg" xmlns:xlink="http://www.w3.org/1999/xlink">
<g id="graph0" class="graph" transform="scale(1 1) rotate(0) translate(4 211.5)">
<title>GNSSMeasurement.h</title>
<!-- Node1 -->
<g id="Node000001" class="node">
<title>Node1</title>
<g id="a_Node000001"><a xlink:title="Class that constructs GPS measurement data from channel observables.">
<polygon fill="#999999" stroke="#666666" points="532.88,-207.5 420.88,-207.5 420.88,-188.25 532.88,-188.25 532.88,-207.5"/>
<text text-anchor="middle" x="476.88" y="-194" font-family="Helvetica,sans-Serif" font-size="10.00">GNSSMeasurement.h</text>
</a>
</g>
</g>
<!-- Node2 -->
<g id="Node000002" class="node">
<title>Node2</title>
<g id="a_Node000002"><a xlink:href="_constants_8h.html" target="_top" xlink:title="List of constants.">
<polygon fill="white" stroke="#666666" points="319.38,-146.62 204.38,-146.62 204.38,-127.38 319.38,-127.38 319.38,-146.62"/>
<text text-anchor="middle" x="261.88" y="-133.12" font-family="Helvetica,sans-Serif" font-size="10.00">lupnt/core/Constants.h</text>
</a>
</g>
</g>
<!-- Node1&#45;&gt;Node2 -->
<g id="edge1_Node000001_Node000002" class="edge">
<title>Node1&#45;&gt;Node2</title>
<g id="a_edge1_Node000001_Node000002"><a xlink:title=" ">
<path fill="none" stroke="#63b8ff" d="M443.75,-187.8C406.66,-177.65 346.41,-161.15 305.51,-149.95"/>
<polygon fill="#63b8ff" stroke="#63b8ff" points="306.6,-146.35 296.04,-147.08 304.76,-153.1 306.6,-146.35"/>
</a>
</g>
</g>
<!-- Node4 -->
<g id="Node000004" class="node">
<title>Node4</title>
<g id="a_Node000004"><a xlink:title=" ">
<polygon fill="#e0e0e0" stroke="#999999" points="411.38,-80.12 290.38,-80.12 290.38,-60.88 411.38,-60.88 411.38,-80.12"/>
<text text-anchor="middle" x="350.88" y="-66.62" font-family="Helvetica,sans-Serif" font-size="10.00">autodiff/forward/real.hpp</text>
</a>
</g>
</g>
<!-- Node1&#45;&gt;Node4 -->
<g id="edge16_Node000001_Node000004" class="edge">
<title>Node1&#45;&gt;Node4</title>
<g id="a_edge16_Node000001_Node000004"><a xlink:title=" ">
<path fill="none" stroke="#63b8ff" d="M437.12,-187.84C416.26,-181.21 391.81,-170.15 375.88,-152.25 360.73,-135.24 354.76,-109.18 352.41,-91.29"/>
<polygon fill="#63b8ff" stroke="#63b8ff" points="355.79,-91.01 351.29,-81.43 348.83,-91.73 355.79,-91.01"/>
</a>
</g>
</g>
<!-- Node10 -->
<g id="Node000010" class="node">
<title>Node10</title>
<g id="a_Node000010"><a xlink:href="_transmission_8h.html" target="_top" xlink:title="Signal transmission data.">
<polygon fill="white" stroke="#666666" points="489.12,-152.25 384.62,-152.25 384.62,-121.75 489.12,-121.75 489.12,-152.25"/>
<text text-anchor="start" x="392.62" y="-138.75" font-family="Helvetica,sans-Serif" font-size="10.00">lupnt/measurements</text>
<text text-anchor="middle" x="436.88" y="-127.5" font-family="Helvetica,sans-Serif" font-size="10.00">/Transmission.h</text>
</a>
</g>
</g>
<!-- Node1&#45;&gt;Node10 -->
<g id="edge10_Node000001_Node000010" class="edge">
<title>Node1&#45;&gt;Node10</title>
<g id="a_edge10_Node000001_Node000010"><a xlink:title=" ">
<path fill="none" stroke="#63b8ff" d="M470.8,-187.93C466.01,-180.89 459.12,-170.73 452.79,-161.42"/>
<polygon fill="#63b8ff" stroke="#63b8ff" points="455.26,-159.84 446.75,-153.53 449.47,-163.77 455.26,-159.84"/>
</a>
</g>
</g>
<!-- Node11 -->
<g id="Node000011" class="node">
<title>Node11</title>
<g id="a_Node000011"><a xlink:title=" ">
<polygon fill="#e0e0e0" stroke="#999999" points="540,-80.12 467.75,-80.12 467.75,-60.88 540,-60.88 540,-80.12"/>
<text text-anchor="middle" x="503.88" y="-66.62" font-family="Helvetica,sans-Serif" font-size="10.00">Eigen/Dense</text>
</a>
</g>
</g>
<!-- Node1&#45;&gt;Node11 -->
<g id="edge15_Node000001_Node000011" class="edge">
<title>Node1&#45;&gt;Node11</title>
<g id="a_edge15_Node000001_Node000011"><a xlink:title=" ">
<path fill="none" stroke="#63b8ff" d="M482.24,-188.02C487.24,-179.27 494.44,-165.33 497.88,-152.25 503.23,-131.88 504.37,-107.7 504.4,-91.14"/>
<polygon fill="#63b8ff" stroke="#63b8ff" points="507.88,-91.11 504.25,-81.16 500.88,-91.2 507.88,-91.11"/>
</a>
</g>
</g>
<!-- Node12 -->
<g id="Node000012" class="node">
<title>Node12</title>
<g id="a_Node000012"><a xlink:title=" ">
<polygon fill="#e0e0e0" stroke="#999999" points="660,-85.75 557.75,-85.75 557.75,-55.25 660,-55.25 660,-85.75"/>
<text text-anchor="start" x="565.75" y="-72.25" font-family="Helvetica,sans-Serif" font-size="10.00">autodiff/forward/real</text>
<text text-anchor="middle" x="608.88" y="-61" font-family="Helvetica,sans-Serif" font-size="10.00">/eigen.hpp</text>
</a>
</g>
</g>
<!-- Node1&#45;&gt;Node12 -->
<g id="edge17_Node000001_Node000012" class="edge">
<title>Node1&#45;&gt;Node12</title>
<g id="a_edge17_Node000001_Node000012"><a xlink:title=" ">
<path fill="none" stroke="#63b8ff" d="M486.37,-187.86C507.01,-168.25 556.47,-121.27 585.85,-93.37"/>
<polygon fill="#63b8ff" stroke="#63b8ff" points="587.72,-96.47 592.56,-87.05 582.9,-91.4 587.72,-96.47"/>
</a>
</g>
</g>
<!-- Node13 -->
<g id="Node000013" class="node">
<title>Node13</title>
<g id="a_Node000013"><a xlink:title=" ">
<polygon fill="#e0e0e0" stroke="#999999" points="634.5,-146.62 583.25,-146.62 583.25,-127.38 634.5,-127.38 634.5,-146.62"/>
<text text-anchor="middle" x="608.88" y="-133.12" font-family="Helvetica,sans-Serif" font-size="10.00">memory</text>
</a>
</g>
</g>
<!-- Node1&#45;&gt;Node13 -->
<g id="edge18_Node000001_Node000013" class="edge">
<title>Node1&#45;&gt;Node13</title>
<g id="a_edge18_Node000001_Node000013"><a xlink:title=" ">
<path fill="none" stroke="#63b8ff" d="M497.21,-187.8C518.98,-178.1 553.75,-162.59 578.7,-151.46"/>
<polygon fill="#63b8ff" stroke="#63b8ff" points="580.03,-154.25 587.73,-146.98 577.17,-147.86 580.03,-154.25"/>
</a>
</g>
</g>
<!-- Node3 -->
<g id="Node000003" class="node">
<title>Node3</title>
<g id="a_Node000003"><a xlink:title=" ">
<polygon fill="#e0e0e0" stroke="#999999" points="133.75,-80.12 0,-80.12 0,-60.88 133.75,-60.88 133.75,-80.12"/>
<text text-anchor="middle" x="66.88" y="-66.62" font-family="Helvetica,sans-Serif" font-size="10.00">autodiff/common/eigen.hpp</text>
</a>
</g>
</g>
<!-- Node2&#45;&gt;Node3 -->
<g id="edge2_Node000002_Node000003" class="edge">
<title>Node2&#45;&gt;Node3</title>
<g id="a_edge2_Node000002_Node000003"><a xlink:title=" ">
<path fill="none" stroke="#63b8ff" d="M234.35,-126.9C200.38,-115.66 142.46,-96.5 104.42,-83.92"/>
<polygon fill="#63b8ff" stroke="#63b8ff" points="105.85,-80.38 95.26,-80.56 103.66,-87.02 105.85,-80.38"/>
</a>
</g>
</g>
<!-- Node2&#45;&gt;Node4 -->
<g id="edge3_Node000002_Node000004" class="edge">
<title>Node2&#45;&gt;Node4</title>
<g id="a_edge3_Node000002_Node000004"><a xlink:title=" ">
<path fill="none" stroke="#63b8ff" d="M274.25,-127.03C288.52,-116.69 312.21,-99.52 329.49,-87"/>
<polygon fill="#63b8ff" stroke="#63b8ff" points="331.27,-89.3 337.32,-80.6 327.17,-83.63 331.27,-89.3"/>
</a>
</g>
</g>
<!-- Node5 -->
<g id="Node000005" class="node">
<title>Node5</title>
<g id="a_Node000005"><a xlink:title=" ">
<polygon fill="#e0e0e0" stroke="#999999" points="318.88,-19.25 278.88,-19.25 278.88,0 318.88,0 318.88,-19.25"/>
<text text-anchor="middle" x="298.88" y="-5.75" font-family="Helvetica,sans-Serif" font-size="10.00">string</text>
</a>
</g>
</g>
<!-- Node2&#45;&gt;Node5 -->
<g id="edge4_Node000002_Node000005" class="edge">
<title>Node2&#45;&gt;Node5</title>
<g id="a_edge4_Node000002_Node000005"><a xlink:title=" ">
<path fill="none" stroke="#63b8ff" d="M263.54,-126.92C266.41,-111.84 272.77,-80.78 280.88,-55.25 283.59,-46.7 287.19,-37.47 290.46,-29.63"/>
<polygon fill="#63b8ff" stroke="#63b8ff" points="294,-31.27 294.74,-20.71 287.57,-28.51 294,-31.27"/>
</a>
</g>
</g>
<!-- Node6 -->
<g id="Node000006" class="node">
<title>Node6</title>
<g id="a_Node000006"><a xlink:href="_user_file_path_8h.html" target="_top" xlink:title="File access utils.">
<polygon fill="white" stroke="#666666" points="233.5,-80.12 152.25,-80.12 152.25,-60.88 233.5,-60.88 233.5,-80.12"/>
<text text-anchor="middle" x="192.88" y="-66.62" font-family="Helvetica,sans-Serif" font-size="10.00">UserFilePath.h</text>
</a>
</g>
</g>
<!-- Node2&#45;&gt;Node6 -->
<g id="edge5_Node000002_Node000006" class="edge">
<title>Node2&#45;&gt;Node6</title>
<g id="a_edge5_Node000002_Node000006"><a xlink:title=" ">
<path fill="none" stroke="#63b8ff" d="M252.28,-127.03C241.47,-116.92 223.66,-100.28 210.36,-87.85"/>
<polygon fill="#63b8ff" stroke="#63b8ff" points="213.08,-85.66 203.39,-81.39 208.3,-90.78 213.08,-85.66"/>
</a>
</g>
</g>
<!-- Node6&#45;&gt;Node5 -->
<g id="edge9_Node000006_Node000005" class="edge">
<title>Node6&#45;&gt;Node5</title>
<g id="a_edge9_Node000006_Node000005"><a xlink:title=" ">
<path fill="none" stroke="#63b8ff" d="M208.97,-60.56C226.02,-51.09 253.17,-36.01 273.18,-24.9"/>
<polygon fill="#63b8ff" stroke="#63b8ff" points="274.58,-27.57 281.62,-19.65 271.18,-21.45 274.58,-27.57"/>
</a>
</g>
</g>
<!-- Node7 -->
<g id="Node000007" class="node">
<title>Node7</title>
<g id="a_Node000007"><a xlink:title=" ">
<polygon fill="#e0e0e0" stroke="#999999" points="260.38,-19.25 199.38,-19.25 199.38,0 260.38,0 260.38,-19.25"/>
<text text-anchor="middle" x="229.88" y="-5.75" font-family="Helvetica,sans-Serif" font-size="10.00">filesystem</text>
</a>
</g>
</g>
<!-- Node6&#45;&gt;Node7 -->
<g id="edge6_Node000006_Node000007" class="edge">
<title>Node6&#45;&gt;Node7</title>
<g id="a_edge6_Node000006_Node000007"><a xlink:title=" ">
<path fill="none" stroke="#63b8ff" d="M198.49,-60.56C203.76,-52.17 211.8,-39.38 218.42,-28.84"/>
<polygon fill="#63b8ff" stroke="#63b8ff" points="221.84,-30.98 224.2,-20.65 215.92,-27.26 221.84,-30.98"/>
</a>
</g>
</g>
<!-- Node8 -->
<g id="Node000008" class="node">
<title>Node8</title>
<g id="a_Node000008"><a xlink:title=" ">
<polygon fill="#e0e0e0" stroke="#999999" points="113.62,-19.25 60.12,-19.25 60.12,0 113.62,0 113.62,-19.25"/>
<text text-anchor="middle" x="86.88" y="-5.75" font-family="Helvetica,sans-Serif" font-size="10.00">iostream</text>
</a>
</g>
</g>
<!-- Node6&#45;&gt;Node8 -->
<g id="edge7_Node000006_Node000008" class="edge">
<title>Node6&#45;&gt;Node8</title>
<g id="a_edge7_Node000006_Node000008"><a xlink:title=" ">
<path fill="none" stroke="#63b8ff" d="M176.78,-60.56C159.73,-51.09 132.58,-36.01 112.57,-24.9"/>
<polygon fill="#63b8ff" stroke="#63b8ff" points="114.57,-21.45 104.13,-19.65 111.17,-27.57 114.57,-21.45"/>
</a>
</g>
</g>
<!-- Node9 -->
<g id="Node000009" class="node">
<title>Node9</title>
<g id="a_Node000009"><a xlink:title=" ">
<polygon fill="#e0e0e0" stroke="#999999" points="181.75,-19.25 132,-19.25 132,0 181.75,0 181.75,-19.25"/>
<text text-anchor="middle" x="156.88" y="-5.75" font-family="Helvetica,sans-Serif" font-size="10.00">optional</text>
</a>
</g>
</g>
<!-- Node6&#45;&gt;Node9 -->
<g id="edge8_Node000006_Node000009" class="edge">
<title>Node6&#45;&gt;Node9</title>
<g id="a_edge8_Node000006_Node000009"><a xlink:title=" ">
<path fill="none" stroke="#63b8ff" d="M187.41,-60.56C182.28,-52.17 174.46,-39.38 168.02,-28.84"/>
<polygon fill="#63b8ff" stroke="#63b8ff" points="170.6,-27.36 162.39,-20.65 164.62,-31.01 170.6,-27.36"/>
</a>
</g>
</g>
<!-- Node10&#45;&gt;Node4 -->
<g id="edge12_Node000010_Node000004" class="edge">
<title>Node10&#45;&gt;Node4</title>
<g id="a_edge12_Node000010_Node000004"><a xlink:title=" ">
<path fill="none" stroke="#63b8ff" d="M417.36,-121.36C403.54,-111 385.05,-97.13 371.07,-86.65"/>
<polygon fill="#63b8ff" stroke="#63b8ff" points="373.74,-83.52 363.64,-80.32 369.54,-89.12 373.74,-83.52"/>
</a>
</g>
</g>
<!-- Node10&#45;&gt;Node5 -->
<g id="edge14_Node000010_Node000005" class="edge">
<title>Node10&#45;&gt;Node5</title>
<g id="a_edge14_Node000010_Node000005"><a xlink:title=" ">
<path fill="none" stroke="#63b8ff" d="M437.79,-121.34C438.09,-103.59 435.89,-73.79 419.88,-55.25 397.11,-28.89 357.33,-18.09 329.62,-13.67"/>
<polygon fill="#63b8ff" stroke="#63b8ff" points="330.32,-10.09 319.93,-12.18 329.35,-17.03 330.32,-10.09"/>
</a>
</g>
</g>
<!-- Node10&#45;&gt;Node11 -->
<g id="edge11_Node000010_Node000011" class="edge">
<title>Node10&#45;&gt;Node11</title>
<g id="a_edge11_Node000010_Node000011"><a xlink:title=" ">
<path fill="none" stroke="#63b8ff" d="M452.08,-121.36C462.44,-111.39 476.16,-98.18 486.88,-87.86"/>
<polygon fill="#63b8ff" stroke="#63b8ff" points="488.93,-90.78 493.71,-81.32 484.08,-85.74 488.93,-90.78"/>
</a>
</g>
</g>
<!-- Node10&#45;&gt;Node12 -->
<g id="edge13_Node000010_Node000012" class="edge">
<title>Node10&#45;&gt;Node12</title>
<g id="a_edge13_Node000010_Node000012"><a xlink:title=" ">
<path fill="none" stroke="#63b8ff" d="M475.9,-121.36C500.67,-112.08 532.92,-99.98 559.47,-90.03"/>
<polygon fill="#63b8ff" stroke="#63b8ff" points="560.57,-92.98 568.7,-86.19 558.11,-86.42 560.57,-92.98"/>
</a>
</g>
</g>
</g>
</svg>
