<?xml version="1.0" encoding="UTF-8" standalone="no"?>
<!DOCTYPE svg PUBLIC "-//W3C//DTD SVG 1.1//EN"
 "http://www.w3.org/Graphics/SVG/1.1/DTD/svg11.dtd">
<!-- Generated by graphviz version 8.1.0 (20230707.0739)
 -->
<!-- Title: GNSSReceiver.h Pages: 1 -->
<svg width="1503pt" height="393pt"
 viewBox="0.00 0.00 1502.65 392.50" xmlns="http://www.w3.org/2000/svg" xmlns:xlink="http://www.w3.org/1999/xlink">
<g id="graph0" class="graph" transform="scale(1 1) rotate(0) translate(4 388.5)">
<title>GNSSReceiver.h</title>
<!-- Node1 -->
<g id="Node000001" class="node">
<title>Node1</title>
<g id="a_Node000001"><a xlink:title="GNSS receiver class.">
<polygon fill="#999999" stroke="#666666" points="1143.65,-384.5 1052.65,-384.5 1052.65,-365.25 1143.65,-365.25 1143.65,-384.5"/>
<text text-anchor="middle" x="1098.15" y="-371" font-family="Helvetica,sans-Serif" font-size="10.00">GNSSReceiver.h</text>
</a>
</g>
</g>
<!-- Node2 -->
<g id="Node000002" class="node">
<title>Node2</title>
<g id="a_Node000002"><a xlink:href="_comm_device_8h.html" target="_top" xlink:title="Communication devices.">
<polygon fill="white" stroke="#666666" points="742.4,-268.38 601.9,-268.38 601.9,-249.12 742.4,-249.12 742.4,-268.38"/>
<text text-anchor="middle" x="672.15" y="-254.88" font-family="Helvetica,sans-Serif" font-size="10.00">lupnt/agents/CommDevice.h</text>
</a>
</g>
</g>
<!-- Node1&#45;&gt;Node2 -->
<g id="edge1_Node000001_Node000002" class="edge">
<title>Node1&#45;&gt;Node2</title>
<g id="a_edge1_Node000001_Node000002"><a xlink:title=" ">
<path fill="none" stroke="#63b8ff" d="M1052.18,-373.14C989.88,-370.85 876.02,-362.06 785.15,-329.25 749.68,-316.44 713.35,-291.58 691.77,-275.33"/>
<polygon fill="#63b8ff" stroke="#63b8ff" points="694.28,-272.07 684.22,-268.74 690.01,-277.61 694.28,-272.07"/>
</a>
</g>
</g>
<!-- Node8 -->
<g id="Node000008" class="node">
<title>Node8</title>
<g id="a_Node000008"><a xlink:title=" ">
<polygon fill="#e0e0e0" stroke="#999999" points="1004.15,-19.25 964.15,-19.25 964.15,0 1004.15,0 1004.15,-19.25"/>
<text text-anchor="middle" x="984.15" y="-5.75" font-family="Helvetica,sans-Serif" font-size="10.00">string</text>
</a>
</g>
</g>
<!-- Node1&#45;&gt;Node8 -->
<g id="edge39_Node000001_Node000008" class="edge">
<title>Node1&#45;&gt;Node8</title>
<g id="a_edge39_Node000001_Node000008"><a xlink:title=" ">
<path fill="none" stroke="#63b8ff" d="M1144.02,-370.63C1209.56,-363.22 1322.15,-338.97 1322.15,-259.75 1322.15,-259.75 1322.15,-259.75 1322.15,-130.38 1322.15,-91.45 1309.47,-76.94 1277.15,-55.25 1234.65,-26.72 1081.19,-15.58 1014.95,-12.03"/>
<polygon fill="#63b8ff" stroke="#63b8ff" points="1015.53,-8.51 1005.37,-11.49 1015.18,-15.5 1015.53,-8.51"/>
</a>
</g>
</g>
<!-- Node15 -->
<g id="Node000015" class="node">
<title>Node15</title>
<g id="a_Node000015"><a xlink:href="_transmission_8h.html" target="_top" xlink:title="Signal transmission data.">
<polygon fill="white" stroke="#666666" points="724.4,-207.5 619.9,-207.5 619.9,-177 724.4,-177 724.4,-207.5"/>
<text text-anchor="start" x="627.9" y="-194" font-family="Helvetica,sans-Serif" font-size="10.00">lupnt/measurements</text>
<text text-anchor="middle" x="672.15" y="-182.75" font-family="Helvetica,sans-Serif" font-size="10.00">/Transmission.h</text>
</a>
</g>
</g>
<!-- Node1&#45;&gt;Node15 -->
<g id="edge38_Node000001_Node000015" class="edge">
<title>Node1&#45;&gt;Node15</title>
<g id="a_edge38_Node000001_Node000015"><a xlink:title=" ">
<path fill="none" stroke="#63b8ff" d="M1074.1,-364.8C1029.19,-347.74 929.68,-309.43 847.15,-274 800.56,-254 747.81,-229.38 712.51,-212.62"/>
<polygon fill="#63b8ff" stroke="#63b8ff" points="714.13,-209.04 703.59,-207.9 711.12,-215.36 714.13,-209.04"/>
</a>
</g>
</g>
<!-- Node23 -->
<g id="Node000023" class="node">
<title>Node23</title>
<g id="a_Node000023"><a xlink:title=" ">
<polygon fill="#e0e0e0" stroke="#999999" points="1267.65,-80.12 1224.65,-80.12 1224.65,-60.88 1267.65,-60.88 1267.65,-80.12"/>
<text text-anchor="middle" x="1246.15" y="-66.62" font-family="Helvetica,sans-Serif" font-size="10.00">vector</text>
</a>
</g>
</g>
<!-- Node1&#45;&gt;Node23 -->
<g id="edge41_Node000001_Node000023" class="edge">
<title>Node1&#45;&gt;Node23</title>
<g id="a_edge41_Node000001_Node000023"><a xlink:title=" ">
<path fill="none" stroke="#63b8ff" d="M1144.13,-366.33C1199.21,-354.37 1284.15,-325.29 1284.15,-259.75 1284.15,-259.75 1284.15,-259.75 1284.15,-191.25 1284.15,-153.97 1267.21,-113.09 1255.95,-90.03"/>
<polygon fill="#63b8ff" stroke="#63b8ff" points="1258.77,-88.84 1251.12,-81.5 1252.52,-92.01 1258.77,-88.84"/>
</a>
</g>
</g>
<!-- Node24 -->
<g id="Node000024" class="node">
<title>Node24</title>
<g id="a_Node000024"><a xlink:title=" ">
<polygon fill="#e0e0e0" stroke="#999999" points="1197.65,-329.25 1160.65,-329.25 1160.65,-310 1197.65,-310 1197.65,-329.25"/>
<text text-anchor="middle" x="1179.15" y="-315.75" font-family="Helvetica,sans-Serif" font-size="10.00">tuple</text>
</a>
</g>
</g>
<!-- Node1&#45;&gt;Node24 -->
<g id="edge40_Node000001_Node000024" class="edge">
<title>Node1&#45;&gt;Node24</title>
<g id="a_edge40_Node000001_Node000024"><a xlink:title=" ">
<path fill="none" stroke="#63b8ff" d="M1111.89,-364.84C1124.11,-356.81 1142.21,-344.91 1156.56,-335.48"/>
<polygon fill="#63b8ff" stroke="#63b8ff" points="1157.91,-338.12 1164.34,-329.7 1154.07,-332.27 1157.91,-338.12"/>
</a>
</g>
</g>
<!-- Node25 -->
<g id="Node000025" class="node">
<title>Node25</title>
<g id="a_Node000025"><a xlink:href="_g_n_s_s_channel_8h.html" target="_top" xlink:title="GNSS Channel class.">
<polygon fill="white" stroke="#666666" points="1142.53,-329.25 1053.78,-329.25 1053.78,-310 1142.53,-310 1142.53,-329.25"/>
<text text-anchor="middle" x="1098.15" y="-315.75" font-family="Helvetica,sans-Serif" font-size="10.00">GNSSChannel.h</text>
</a>
</g>
</g>
<!-- Node1&#45;&gt;Node25 -->
<g id="edge42_Node000001_Node000025" class="edge">
<title>Node1&#45;&gt;Node25</title>
<g id="a_edge42_Node000001_Node000025"><a xlink:title=" ">
<path fill="none" stroke="#63b8ff" d="M1098.15,-365.08C1098.15,-358.42 1098.15,-348.99 1098.15,-340.53"/>
<polygon fill="#63b8ff" stroke="#63b8ff" points="1101.65,-340.61 1098.15,-330.61 1094.65,-340.61 1101.65,-340.61"/>
</a>
</g>
</g>
<!-- Node29 -->
<g id="Node000029" class="node">
<title>Node29</title>
<g id="a_Node000029"><a xlink:href="_g_n_s_s_measurement_8h.html" target="_top" xlink:title="Class that constructs GPS measurement data from channel observables.">
<polygon fill="white" stroke="#666666" points="968.15,-268.38 856.15,-268.38 856.15,-249.12 968.15,-249.12 968.15,-268.38"/>
<text text-anchor="middle" x="912.15" y="-254.88" font-family="Helvetica,sans-Serif" font-size="10.00">GNSSMeasurement.h</text>
</a>
</g>
</g>
<!-- Node1&#45;&gt;Node29 -->
<g id="edge52_Node000001_Node000029" class="edge">
<title>Node1&#45;&gt;Node29</title>
<g id="a_edge52_Node000001_Node000029"><a xlink:title=" ">
<path fill="none" stroke="#63b8ff" d="M1083.56,-364.92C1051.65,-345.34 975.42,-298.57 936.27,-274.55"/>
<polygon fill="#63b8ff" stroke="#63b8ff" points="938.29,-271.07 927.94,-268.82 934.63,-277.03 938.29,-271.07"/>
</a>
</g>
</g>
<!-- Node3 -->
<g id="Node000003" class="node">
<title>Node3</title>
<g id="a_Node000003"><a xlink:title=" ">
<polygon fill="#e0e0e0" stroke="#999999" points="503.65,-80.12 382.65,-80.12 382.65,-60.88 503.65,-60.88 503.65,-80.12"/>
<text text-anchor="middle" x="443.15" y="-66.62" font-family="Helvetica,sans-Serif" font-size="10.00">autodiff/forward/real.hpp</text>
</a>
</g>
</g>
<!-- Node2&#45;&gt;Node3 -->
<g id="edge2_Node000002_Node000003" class="edge">
<title>Node2&#45;&gt;Node3</title>
<g id="a_edge2_Node000002_Node000003"><a xlink:title=" ">
<path fill="none" stroke="#63b8ff" d="M601.44,-256.84C444.68,-253.13 76.13,-234.44 4.15,-141 -1.07,-134.22 -1.54,-128.13 4.15,-121.75 28.14,-94.86 253.38,-80.37 371.55,-74.57"/>
<polygon fill="#63b8ff" stroke="#63b8ff" points="371.47,-78.03 381.29,-74.05 371.13,-71.04 371.47,-78.03"/>
</a>
</g>
</g>
<!-- Node4 -->
<g id="Node000004" class="node">
<title>Node4</title>
<g id="a_Node000004"><a xlink:title=" ">
<polygon fill="#e0e0e0" stroke="#999999" points="712.28,-85.75 610.03,-85.75 610.03,-55.25 712.28,-55.25 712.28,-85.75"/>
<text text-anchor="start" x="618.03" y="-72.25" font-family="Helvetica,sans-Serif" font-size="10.00">autodiff/forward/real</text>
<text text-anchor="middle" x="661.15" y="-61" font-family="Helvetica,sans-Serif" font-size="10.00">/eigen.hpp</text>
</a>
</g>
</g>
<!-- Node2&#45;&gt;Node4 -->
<g id="edge3_Node000002_Node000004" class="edge">
<title>Node2&#45;&gt;Node4</title>
<g id="a_edge3_Node000002_Node000004"><a xlink:title=" ">
<path fill="none" stroke="#63b8ff" d="M654.25,-248.78C639.63,-240.35 619.99,-226.24 611.15,-207.5 605.37,-195.24 608.18,-190.23 611.15,-177 614.84,-160.59 634.77,-121.11 648.32,-95.38"/>
<polygon fill="#63b8ff" stroke="#63b8ff" points="651.73,-97.42 653.33,-86.94 645.55,-94.13 651.73,-97.42"/>
</a>
</g>
</g>
<!-- Node5 -->
<g id="Node000005" class="node">
<title>Node5</title>
<g id="a_Node000005"><a xlink:title=" ">
<polygon fill="#e0e0e0" stroke="#999999" points="1118.53,-141 1083.78,-141 1083.78,-121.75 1118.53,-121.75 1118.53,-141"/>
<text text-anchor="middle" x="1101.15" y="-127.5" font-family="Helvetica,sans-Serif" font-size="10.00">map</text>
</a>
</g>
</g>
<!-- Node2&#45;&gt;Node5 -->
<g id="edge4_Node000002_Node000005" class="edge">
<title>Node2&#45;&gt;Node5</title>
<g id="a_edge4_Node000002_Node000005"><a xlink:title=" ">
<path fill="none" stroke="#63b8ff" d="M720.01,-248.64C765.07,-239.65 834.25,-224.76 893.15,-207.5 958.66,-188.3 1033.5,-159.54 1073.11,-143.75"/>
<polygon fill="#63b8ff" stroke="#63b8ff" points="1074.34,-146.63 1082.32,-139.66 1071.73,-140.13 1074.34,-146.63"/>
</a>
</g>
</g>
<!-- Node6 -->
<g id="Node000006" class="node">
<title>Node6</title>
<g id="a_Node000006"><a xlink:title=" ">
<polygon fill="#e0e0e0" stroke="#999999" points="1067.78,-201.88 1016.53,-201.88 1016.53,-182.62 1067.78,-182.62 1067.78,-201.88"/>
<text text-anchor="middle" x="1042.15" y="-188.38" font-family="Helvetica,sans-Serif" font-size="10.00">memory</text>
</a>
</g>
</g>
<!-- Node2&#45;&gt;Node6 -->
<g id="edge5_Node000002_Node000006" class="edge">
<title>Node2&#45;&gt;Node6</title>
<g id="a_edge5_Node000002_Node000006"><a xlink:title=" ">
<path fill="none" stroke="#63b8ff" d="M726,-248.65C784.61,-238.71 881.09,-222.23 964.15,-207.5 977.71,-205.1 992.57,-202.4 1005.66,-200"/>
<polygon fill="#63b8ff" stroke="#63b8ff" points="1005.96,-203.32 1015.16,-198.07 1004.7,-196.43 1005.96,-203.32"/>
</a>
</g>
</g>
<!-- Node7 -->
<g id="Node000007" class="node">
<title>Node7</title>
<g id="a_Node000007"><a xlink:href="_antenna_8h.html" target="_top" xlink:title="Antenna class.">
<polygon fill="white" stroke="#666666" points="884.4,-207.5 779.9,-207.5 779.9,-177 884.4,-177 884.4,-207.5"/>
<text text-anchor="start" x="787.9" y="-194" font-family="Helvetica,sans-Serif" font-size="10.00">lupnt/measurements</text>
<text text-anchor="middle" x="832.15" y="-182.75" font-family="Helvetica,sans-Serif" font-size="10.00">/Antenna.h</text>
</a>
</g>
</g>
<!-- Node2&#45;&gt;Node7 -->
<g id="edge6_Node000002_Node000007" class="edge">
<title>Node2&#45;&gt;Node7</title>
<g id="a_edge6_Node000002_Node000007"><a xlink:title=" ">
<path fill="none" stroke="#63b8ff" d="M694.74,-248.65C718.34,-239.13 756.04,-223.93 785.99,-211.86"/>
<polygon fill="#63b8ff" stroke="#63b8ff" points="786.85,-214.88 794.81,-207.9 784.23,-208.39 786.85,-214.88"/>
</a>
</g>
</g>
<!-- Node2&#45;&gt;Node15 -->
<g id="edge19_Node000002_Node000015" class="edge">
<title>Node2&#45;&gt;Node15</title>
<g id="a_edge19_Node000002_Node000015"><a xlink:title=" ">
<path fill="none" stroke="#63b8ff" d="M672.15,-248.78C672.15,-240.95 672.15,-229.2 672.15,-218.52"/>
<polygon fill="#63b8ff" stroke="#63b8ff" points="675.65,-218.59 672.15,-208.59 668.65,-218.59 675.65,-218.59"/>
</a>
</g>
</g>
<!-- Node17 -->
<g id="Node000017" class="node">
<title>Node17</title>
<g id="a_Node000017"><a xlink:href="_math_utils_8h.html" target="_top" xlink:title=" ">
<polygon fill="white" stroke="#666666" points="146.65,-141 13.65,-141 13.65,-121.75 146.65,-121.75 146.65,-141"/>
<text text-anchor="middle" x="80.15" y="-127.5" font-family="Helvetica,sans-Serif" font-size="10.00">lupnt/numerics/MathUtils.h</text>
</a>
</g>
</g>
<!-- Node2&#45;&gt;Node17 -->
<g id="edge24_Node000002_Node000017" class="edge">
<title>Node2&#45;&gt;Node17</title>
<g id="a_edge24_Node000002_Node000017"><a xlink:title=" ">
<path fill="none" stroke="#63b8ff" d="M614.08,-248.65C556.34,-239.34 465.33,-223.94 387.15,-207.5 293.13,-187.73 184.1,-159.86 124.58,-144.22"/>
<polygon fill="#63b8ff" stroke="#63b8ff" points="125.62,-140.61 115.06,-141.44 123.84,-147.38 125.62,-140.61"/>
</a>
</g>
</g>
<!-- Node19 -->
<g id="Node000019" class="node">
<title>Node19</title>
<g id="a_Node000019"><a xlink:href="_orbit_state_8h.html" target="_top" xlink:title="Orbit states.">
<polygon fill="white" stroke="#666666" points="525.78,-201.88 396.53,-201.88 396.53,-182.62 525.78,-182.62 525.78,-201.88"/>
<text text-anchor="middle" x="461.15" y="-188.38" font-family="Helvetica,sans-Serif" font-size="10.00">lupnt/physics/OrbitState.h</text>
</a>
</g>
</g>
<!-- Node2&#45;&gt;Node19 -->
<g id="edge28_Node000002_Node000019" class="edge">
<title>Node2&#45;&gt;Node19</title>
<g id="a_edge28_Node000002_Node000019"><a xlink:title=" ">
<path fill="none" stroke="#63b8ff" d="M642.37,-248.65C605.45,-237.36 542.4,-218.09 501.26,-205.51"/>
<polygon fill="#63b8ff" stroke="#63b8ff" points="502.37,-201.88 491.79,-202.31 500.33,-208.58 502.37,-201.88"/>
</a>
</g>
</g>
<!-- Node7&#45;&gt;Node3 -->
<g id="edge7_Node000007_Node000003" class="edge">
<title>Node7&#45;&gt;Node3</title>
<g id="a_edge7_Node000007_Node000003"><a xlink:title=" ">
<path fill="none" stroke="#63b8ff" d="M779.54,-182.7C705.58,-170.52 577.59,-148.79 557.15,-141 552.32,-139.16 498.78,-106.08 466.83,-86.24"/>
<polygon fill="#63b8ff" stroke="#63b8ff" points="469.02,-82.86 458.68,-80.55 465.32,-88.8 469.02,-82.86"/>
</a>
</g>
</g>
<!-- Node7&#45;&gt;Node4 -->
<g id="edge8_Node000007_Node000004" class="edge">
<title>Node7&#45;&gt;Node4</title>
<g id="a_edge8_Node000007_Node000004"><a xlink:title=" ">
<path fill="none" stroke="#63b8ff" d="M826.41,-176.55C819.64,-160.99 807.02,-136.66 789.15,-121.75 770.08,-105.83 745.36,-94.55 722.74,-86.77"/>
<polygon fill="#63b8ff" stroke="#63b8ff" points="724.11,-83.21 713.52,-83.44 721.94,-89.87 724.11,-83.21"/>
</a>
</g>
</g>
<!-- Node7&#45;&gt;Node8 -->
<g id="edge9_Node000007_Node000008" class="edge">
<title>Node7&#45;&gt;Node8</title>
<g id="a_edge9_Node000007_Node000008"><a xlink:title=" ">
<path fill="none" stroke="#63b8ff" d="M844.33,-176.77C872.01,-143.88 939.54,-63.63 969.47,-28.08"/>
<polygon fill="#63b8ff" stroke="#63b8ff" points="972.77,-30.59 976.53,-20.68 967.42,-26.08 972.77,-30.59"/>
</a>
</g>
</g>
<!-- Node9 -->
<g id="Node000009" class="node">
<title>Node9</title>
<g id="a_Node000009"><a xlink:href="_constants_8h.html" target="_top" xlink:title="List of constants.">
<polygon fill="white" stroke="#666666" points="1065.65,-141 950.65,-141 950.65,-121.75 1065.65,-121.75 1065.65,-141"/>
<text text-anchor="middle" x="1008.15" y="-127.5" font-family="Helvetica,sans-Serif" font-size="10.00">lupnt/core/Constants.h</text>
</a>
</g>
</g>
<!-- Node7&#45;&gt;Node9 -->
<g id="edge10_Node000007_Node000009" class="edge">
<title>Node7&#45;&gt;Node9</title>
<g id="a_edge10_Node000007_Node000009"><a xlink:title=" ">
<path fill="none" stroke="#63b8ff" d="M876.11,-176.55C905.27,-166.79 943.13,-154.13 970.82,-144.86"/>
<polygon fill="#63b8ff" stroke="#63b8ff" points="971.53,-147.98 979.9,-141.49 969.31,-141.34 971.53,-147.98"/>
</a>
</g>
</g>
<!-- Node9&#45;&gt;Node3 -->
<g id="edge12_Node000009_Node000003" class="edge">
<title>Node9&#45;&gt;Node3</title>
<g id="a_edge12_Node000009_Node000003"><a xlink:title=" ">
<path fill="none" stroke="#63b8ff" d="M950.34,-124.35C846.26,-113.51 627.68,-90.73 514.48,-78.93"/>
<polygon fill="#63b8ff" stroke="#63b8ff" points="515.17,-75.38 504.86,-77.83 514.45,-82.34 515.17,-75.38"/>
</a>
</g>
</g>
<!-- Node9&#45;&gt;Node8 -->
<g id="edge13_Node000009_Node000008" class="edge">
<title>Node9&#45;&gt;Node8</title>
<g id="a_edge13_Node000009_Node000008"><a xlink:title=" ">
<path fill="none" stroke="#63b8ff" d="M1006.35,-121.37C1002.49,-102.13 993.37,-56.6 988.1,-30.3"/>
<polygon fill="#63b8ff" stroke="#63b8ff" points="991.37,-29.85 985.98,-20.73 984.51,-31.22 991.37,-29.85"/>
</a>
</g>
</g>
<!-- Node10 -->
<g id="Node000010" class="node">
<title>Node10</title>
<g id="a_Node000010"><a xlink:title=" ">
<polygon fill="#e0e0e0" stroke="#999999" points="1146.03,-80.12 1012.28,-80.12 1012.28,-60.88 1146.03,-60.88 1146.03,-80.12"/>
<text text-anchor="middle" x="1079.15" y="-66.62" font-family="Helvetica,sans-Serif" font-size="10.00">autodiff/common/eigen.hpp</text>
</a>
</g>
</g>
<!-- Node9&#45;&gt;Node10 -->
<g id="edge11_Node000009_Node000010" class="edge">
<title>Node9&#45;&gt;Node10</title>
<g id="a_edge11_Node000009_Node000010"><a xlink:title=" ">
<path fill="none" stroke="#63b8ff" d="M1018.94,-121.43C1029.78,-112.44 1046.73,-98.39 1059.89,-87.48"/>
<polygon fill="#63b8ff" stroke="#63b8ff" points="1061.8,-89.6 1067.27,-80.53 1057.34,-84.21 1061.8,-89.6"/>
</a>
</g>
</g>
<!-- Node11 -->
<g id="Node000011" class="node">
<title>Node11</title>
<g id="a_Node000011"><a xlink:href="_user_file_path_8h.html" target="_top" xlink:title="File access utils.">
<polygon fill="white" stroke="#666666" points="1431.78,-80.12 1350.53,-80.12 1350.53,-60.88 1431.78,-60.88 1431.78,-80.12"/>
<text text-anchor="middle" x="1391.15" y="-66.62" font-family="Helvetica,sans-Serif" font-size="10.00">UserFilePath.h</text>
</a>
</g>
</g>
<!-- Node9&#45;&gt;Node11 -->
<g id="edge14_Node000009_Node000011" class="edge">
<title>Node9&#45;&gt;Node11</title>
<g id="a_edge14_Node000009_Node000011"><a xlink:title=" ">
<path fill="none" stroke="#63b8ff" d="M1065.91,-121.5C1140.25,-110.07 1268.3,-90.39 1339.53,-79.44"/>
<polygon fill="#63b8ff" stroke="#63b8ff" points="1339.69,-82.8 1349.04,-77.82 1338.62,-75.88 1339.69,-82.8"/>
</a>
</g>
</g>
<!-- Node11&#45;&gt;Node8 -->
<g id="edge18_Node000011_Node000008" class="edge">
<title>Node11&#45;&gt;Node8</title>
<g id="a_edge18_Node000011_Node000008"><a xlink:title=" ">
<path fill="none" stroke="#63b8ff" d="M1359.03,-60.44C1351.56,-58.54 1343.61,-56.68 1336.15,-55.25 1218.8,-32.7 1077.17,-18.7 1015.44,-13.24"/>
<polygon fill="#63b8ff" stroke="#63b8ff" points="1015.8,-9.67 1005.53,-12.29 1015.19,-16.65 1015.8,-9.67"/>
</a>
</g>
</g>
<!-- Node12 -->
<g id="Node000012" class="node">
<title>Node12</title>
<g id="a_Node000012"><a xlink:title=" ">
<polygon fill="#e0e0e0" stroke="#999999" points="1494.65,-19.25 1433.65,-19.25 1433.65,0 1494.65,0 1494.65,-19.25"/>
<text text-anchor="middle" x="1464.15" y="-5.75" font-family="Helvetica,sans-Serif" font-size="10.00">filesystem</text>
</a>
</g>
</g>
<!-- Node11&#45;&gt;Node12 -->
<g id="edge15_Node000011_Node000012" class="edge">
<title>Node11&#45;&gt;Node12</title>
<g id="a_edge15_Node000011_Node000012"><a xlink:title=" ">
<path fill="none" stroke="#63b8ff" d="M1402.24,-60.56C1413.5,-51.48 1431.15,-37.24 1444.73,-26.29"/>
<polygon fill="#63b8ff" stroke="#63b8ff" points="1446.37,-28.65 1451.96,-19.65 1441.98,-23.2 1446.37,-28.65"/>
</a>
</g>
</g>
<!-- Node13 -->
<g id="Node000013" class="node">
<title>Node13</title>
<g id="a_Node000013"><a xlink:title=" ">
<polygon fill="#e0e0e0" stroke="#999999" points="1347.9,-19.25 1294.4,-19.25 1294.4,0 1347.9,0 1347.9,-19.25"/>
<text text-anchor="middle" x="1321.15" y="-5.75" font-family="Helvetica,sans-Serif" font-size="10.00">iostream</text>
</a>
</g>
</g>
<!-- Node11&#45;&gt;Node13 -->
<g id="edge16_Node000011_Node000013" class="edge">
<title>Node11&#45;&gt;Node13</title>
<g id="a_edge16_Node000011_Node000013"><a xlink:title=" ">
<path fill="none" stroke="#63b8ff" d="M1380.52,-60.56C1369.83,-51.57 1353.12,-37.51 1340.15,-26.6"/>
<polygon fill="#63b8ff" stroke="#63b8ff" points="1342.79,-23.41 1332.88,-19.65 1338.28,-28.77 1342.79,-23.41"/>
</a>
</g>
</g>
<!-- Node14 -->
<g id="Node000014" class="node">
<title>Node14</title>
<g id="a_Node000014"><a xlink:title=" ">
<polygon fill="#e0e0e0" stroke="#999999" points="1416.03,-19.25 1366.28,-19.25 1366.28,0 1416.03,0 1416.03,-19.25"/>
<text text-anchor="middle" x="1391.15" y="-5.75" font-family="Helvetica,sans-Serif" font-size="10.00">optional</text>
</a>
</g>
</g>
<!-- Node11&#45;&gt;Node14 -->
<g id="edge17_Node000011_Node000014" class="edge">
<title>Node11&#45;&gt;Node14</title>
<g id="a_edge17_Node000011_Node000014"><a xlink:title=" ">
<path fill="none" stroke="#63b8ff" d="M1391.15,-60.56C1391.15,-52.6 1391.15,-40.69 1391.15,-30.49"/>
<polygon fill="#63b8ff" stroke="#63b8ff" points="1394.65,-30.65 1391.15,-20.65 1387.65,-30.65 1394.65,-30.65"/>
</a>
</g>
</g>
<!-- Node15&#45;&gt;Node3 -->
<g id="edge21_Node000015_Node000003" class="edge">
<title>Node15&#45;&gt;Node3</title>
<g id="a_edge21_Node000015_Node000003"><a xlink:title=" ">
<path fill="none" stroke="#63b8ff" d="M619.74,-178.74C590.46,-170.47 553.97,-158 524.15,-141 498.89,-126.6 474.16,-103.73 458.8,-88.2"/>
<polygon fill="#63b8ff" stroke="#63b8ff" points="461.76,-86.18 452.29,-81.42 456.72,-91.04 461.76,-86.18"/>
</a>
</g>
</g>
<!-- Node15&#45;&gt;Node4 -->
<g id="edge22_Node000015_Node000004" class="edge">
<title>Node15&#45;&gt;Node4</title>
<g id="a_edge22_Node000015_Node000004"><a xlink:title=" ">
<path fill="none" stroke="#63b8ff" d="M670.8,-176.57C668.98,-156.71 665.7,-120.99 663.47,-96.77"/>
<polygon fill="#63b8ff" stroke="#63b8ff" points="666.88,-96.57 662.48,-86.93 659.91,-97.21 666.88,-96.57"/>
</a>
</g>
</g>
<!-- Node15&#45;&gt;Node8 -->
<g id="edge23_Node000015_Node000008" class="edge">
<title>Node15&#45;&gt;Node8</title>
<g id="a_edge23_Node000015_Node000008"><a xlink:title=" ">
<path fill="none" stroke="#63b8ff" d="M711.49,-176.51C734.61,-167.32 764.12,-154.67 789.15,-141 848.93,-108.36 859.46,-92.99 916.15,-55.25 931.19,-45.24 948.18,-34.09 961.42,-25.44"/>
<polygon fill="#63b8ff" stroke="#63b8ff" points="962.85,-28.03 969.31,-19.63 959.03,-22.17 962.85,-28.03"/>
</a>
</g>
</g>
<!-- Node16 -->
<g id="Node000016" class="node">
<title>Node16</title>
<g id="a_Node000016"><a xlink:title=" ">
<polygon fill="#e0e0e0" stroke="#999999" points="780.28,-141 708.03,-141 708.03,-121.75 780.28,-121.75 780.28,-141"/>
<text text-anchor="middle" x="744.15" y="-127.5" font-family="Helvetica,sans-Serif" font-size="10.00">Eigen/Dense</text>
</a>
</g>
</g>
<!-- Node15&#45;&gt;Node16 -->
<g id="edge20_Node000015_Node000016" class="edge">
<title>Node15&#45;&gt;Node16</title>
<g id="a_edge20_Node000015_Node000016"><a xlink:title=" ">
<path fill="none" stroke="#63b8ff" d="M689.95,-176.7C700.49,-168.08 713.86,-157.15 724.68,-148.3"/>
<polygon fill="#63b8ff" stroke="#63b8ff" points="726.53,-150.49 732.05,-141.45 722.1,-145.07 726.53,-150.49"/>
</a>
</g>
</g>
<!-- Node17&#45;&gt;Node3 -->
<g id="edge25_Node000017_Node000003" class="edge">
<title>Node17&#45;&gt;Node3</title>
<g id="a_edge25_Node000017_Node000003"><a xlink:title=" ">
<path fill="none" stroke="#63b8ff" d="M136.08,-121.3C200.83,-110.8 307.4,-93.52 376.42,-82.32"/>
<polygon fill="#63b8ff" stroke="#63b8ff" points="376.86,-85.64 386.17,-80.58 375.73,-78.73 376.86,-85.64"/>
</a>
</g>
</g>
<!-- Node17&#45;&gt;Node4 -->
<g id="edge26_Node000017_Node000004" class="edge">
<title>Node17&#45;&gt;Node4</title>
<g id="a_edge26_Node000017_Node000004"><a xlink:title=" ">
<path fill="none" stroke="#63b8ff" d="M146.8,-122.66C149.62,-122.35 152.42,-122.04 155.15,-121.75 239.66,-112.7 483.27,-88.84 598.86,-77.56"/>
<polygon fill="#63b8ff" stroke="#63b8ff" points="599.03,-80.97 608.64,-76.51 598.35,-74 599.03,-80.97"/>
</a>
</g>
</g>
<!-- Node18 -->
<g id="Node000018" class="node">
<title>Node18</title>
<g id="a_Node000018"><a xlink:title=" ">
<polygon fill="#e0e0e0" stroke="#999999" points="104.28,-80.12 56.03,-80.12 56.03,-60.88 104.28,-60.88 104.28,-80.12"/>
<text text-anchor="middle" x="80.15" y="-66.62" font-family="Helvetica,sans-Serif" font-size="10.00">random</text>
</a>
</g>
</g>
<!-- Node17&#45;&gt;Node18 -->
<g id="edge27_Node000017_Node000018" class="edge">
<title>Node17&#45;&gt;Node18</title>
<g id="a_edge27_Node000017_Node000018"><a xlink:title=" ">
<path fill="none" stroke="#63b8ff" d="M80.15,-121.43C80.15,-113.48 80.15,-101.56 80.15,-91.37"/>
<polygon fill="#63b8ff" stroke="#63b8ff" points="83.65,-91.53 80.15,-81.53 76.65,-91.53 83.65,-91.53"/>
</a>
</g>
</g>
<!-- Node19&#45;&gt;Node3 -->
<g id="edge30_Node000019_Node000003" class="edge">
<title>Node19&#45;&gt;Node3</title>
<g id="a_edge30_Node000019_Node000003"><a xlink:title=" ">
<path fill="none" stroke="#63b8ff" d="M447.31,-182.43C434.94,-173.63 417.64,-158.89 410.15,-141 402.54,-122.81 414.69,-102.48 426.33,-88.53"/>
<polygon fill="#63b8ff" stroke="#63b8ff" points="428.59,-91.14 432.7,-81.38 423.4,-86.45 428.59,-91.14"/>
</a>
</g>
</g>
<!-- Node19&#45;&gt;Node4 -->
<g id="edge31_Node000019_Node000004" class="edge">
<title>Node19&#45;&gt;Node4</title>
<g id="a_edge31_Node000019_Node000004"><a xlink:title=" ">
<path fill="none" stroke="#63b8ff" d="M472.23,-182.23C489.66,-168.28 524.83,-141.06 557.15,-121.75 576.27,-110.33 598.37,-99.37 617.27,-90.61"/>
<polygon fill="#63b8ff" stroke="#63b8ff" points="618.47,-93.45 626.11,-86.11 615.56,-87.08 618.47,-93.45"/>
</a>
</g>
</g>
<!-- Node19&#45;&gt;Node16 -->
<g id="edge29_Node000019_Node000016" class="edge">
<title>Node19&#45;&gt;Node16</title>
<g id="a_edge29_Node000019_Node000016"><a xlink:title=" ">
<path fill="none" stroke="#63b8ff" d="M504.75,-182.18C556.83,-171.35 643.6,-153.29 697.14,-142.16"/>
<polygon fill="#63b8ff" stroke="#63b8ff" points="697.63,-145.42 706.71,-139.96 696.2,-138.57 697.63,-145.42"/>
</a>
</g>
</g>
<!-- Node20 -->
<g id="Node000020" class="node">
<title>Node20</title>
<g id="a_Node000020"><a xlink:title=" ">
<polygon fill="#e0e0e0" stroke="#999999" points="281.78,-141 164.53,-141 164.53,-121.75 281.78,-121.75 281.78,-141"/>
<text text-anchor="middle" x="223.15" y="-127.5" font-family="Helvetica,sans-Serif" font-size="10.00">boost/preprocessor.hpp</text>
</a>
</g>
</g>
<!-- Node19&#45;&gt;Node20 -->
<g id="edge32_Node000019_Node000020" class="edge">
<title>Node19&#45;&gt;Node20</title>
<g id="a_edge32_Node000019_Node000020"><a xlink:title=" ">
<path fill="none" stroke="#63b8ff" d="M424.49,-182.18C383.08,-171.94 315.59,-155.24 270.3,-144.04"/>
<polygon fill="#63b8ff" stroke="#63b8ff" points="271.41,-140.46 260.86,-141.46 269.73,-147.25 271.41,-140.46"/>
</a>
</g>
</g>
<!-- Node21 -->
<g id="Node000021" class="node">
<title>Node21</title>
<g id="a_Node000021"><a xlink:title=" ">
<polygon fill="#e0e0e0" stroke="#999999" points="358.53,-141 299.78,-141 299.78,-121.75 358.53,-121.75 358.53,-141"/>
<text text-anchor="middle" x="329.15" y="-127.5" font-family="Helvetica,sans-Serif" font-size="10.00">stdexcept</text>
</a>
</g>
</g>
<!-- Node19&#45;&gt;Node21 -->
<g id="edge33_Node000019_Node000021" class="edge">
<title>Node19&#45;&gt;Node21</title>
<g id="a_edge33_Node000019_Node000021"><a xlink:title=" ">
<path fill="none" stroke="#63b8ff" d="M440.82,-182.18C419.05,-172.47 384.28,-156.96 359.32,-145.83"/>
<polygon fill="#63b8ff" stroke="#63b8ff" points="360.85,-142.24 350.3,-141.36 358,-148.63 360.85,-142.24"/>
</a>
</g>
</g>
<!-- Node22 -->
<g id="Node000022" class="node">
<title>Node22</title>
<g id="a_Node000022"><a xlink:href="_state_8h.html" target="_top" xlink:title="SPICE Interface functions.">
<polygon fill="white" stroke="#666666" points="613.9,-141 566.4,-141 566.4,-121.75 613.9,-121.75 613.9,-141"/>
<text text-anchor="middle" x="590.15" y="-127.5" font-family="Helvetica,sans-Serif" font-size="10.00">State.h</text>
</a>
</g>
</g>
<!-- Node19&#45;&gt;Node22 -->
<g id="edge34_Node000019_Node000022" class="edge">
<title>Node19&#45;&gt;Node22</title>
<g id="a_edge34_Node000019_Node000022"><a xlink:title=" ">
<path fill="none" stroke="#63b8ff" d="M481.03,-182.18C502.3,-172.47 536.28,-156.96 560.67,-145.83"/>
<polygon fill="#63b8ff" stroke="#63b8ff" points="561.82,-148.69 569.47,-141.36 558.92,-142.33 561.82,-148.69"/>
</a>
</g>
</g>
<!-- Node22&#45;&gt;Node3 -->
<g id="edge35_Node000022_Node000003" class="edge">
<title>Node22&#45;&gt;Node3</title>
<g id="a_edge35_Node000022_Node000003"><a xlink:title=" ">
<path fill="none" stroke="#63b8ff" d="M567.51,-121.3C542.94,-111.47 503.51,-95.67 475.64,-84.51"/>
<polygon fill="#63b8ff" stroke="#63b8ff" points="477.17,-80.95 466.58,-80.48 474.57,-87.45 477.17,-80.95"/>
</a>
</g>
</g>
<!-- Node22&#45;&gt;Node4 -->
<g id="edge36_Node000022_Node000004" class="edge">
<title>Node22&#45;&gt;Node4</title>
<g id="a_edge36_Node000022_Node000004"><a xlink:title=" ">
<path fill="none" stroke="#63b8ff" d="M600.94,-121.43C610.05,-113.87 623.48,-102.74 635.35,-92.9"/>
<polygon fill="#63b8ff" stroke="#63b8ff" points="637.16,-95.11 642.63,-86.03 632.7,-89.72 637.16,-95.11"/>
</a>
</g>
</g>
<!-- Node22&#45;&gt;Node23 -->
<g id="edge37_Node000022_Node000023" class="edge">
<title>Node22&#45;&gt;Node23</title>
<g id="a_edge37_Node000022_Node000023"><a xlink:title=" ">
<path fill="none" stroke="#63b8ff" d="M614.4,-128.46C636.49,-126.71 670.01,-124.05 699.15,-121.75 901.82,-105.73 953.25,-109.49 1155.15,-85.75 1174.69,-83.45 1196.47,-80.07 1213.83,-77.18"/>
<polygon fill="#63b8ff" stroke="#63b8ff" points="1214.25,-80.49 1223.52,-75.37 1213.08,-73.59 1214.25,-80.49"/>
</a>
</g>
</g>
<!-- Node25&#45;&gt;Node23 -->
<g id="edge51_Node000025_Node000023" class="edge">
<title>Node25&#45;&gt;Node23</title>
<g id="a_edge51_Node000025_Node000023"><a xlink:title=" ">
<path fill="none" stroke="#63b8ff" d="M1108.27,-309.73C1127.97,-291.97 1171.94,-250.13 1199.15,-207.5 1216.41,-180.47 1216.68,-171.31 1227.15,-141 1232.9,-124.37 1238.06,-105.04 1241.55,-90.99"/>
<polygon fill="#63b8ff" stroke="#63b8ff" points="1245.12,-92.16 1244.07,-81.61 1238.31,-90.51 1245.12,-92.16"/>
</a>
</g>
</g>
<!-- Node26 -->
<g id="Node000026" class="node">
<title>Node26</title>
<g id="a_Node000026"><a xlink:href="_occultation_8h.html" target="_top" xlink:title="Signal blockage model.">
<polygon fill="white" stroke="#666666" points="1190.4,-207.5 1085.9,-207.5 1085.9,-177 1190.4,-177 1190.4,-207.5"/>
<text text-anchor="start" x="1093.9" y="-194" font-family="Helvetica,sans-Serif" font-size="10.00">lupnt/measurements</text>
<text text-anchor="middle" x="1138.15" y="-182.75" font-family="Helvetica,sans-Serif" font-size="10.00">/Occultation.h</text>
</a>
</g>
</g>
<!-- Node25&#45;&gt;Node26 -->
<g id="edge43_Node000025_Node000026" class="edge">
<title>Node25&#45;&gt;Node26</title>
<g id="a_edge43_Node000025_Node000026"><a xlink:title=" ">
<path fill="none" stroke="#63b8ff" d="M1103.07,-309.63C1107.74,-300.78 1114.7,-286.77 1119.15,-274 1125.49,-255.83 1130.38,-234.64 1133.62,-218.52"/>
<polygon fill="#63b8ff" stroke="#63b8ff" points="1137.23,-219.28 1135.68,-208.8 1130.35,-217.96 1137.23,-219.28"/>
</a>
</g>
</g>
<!-- Node28 -->
<g id="Node000028" class="node">
<title>Node28</title>
<g id="a_Node000028"><a xlink:href="_space_channel_8h.html" target="_top" xlink:title="Base spacechannel class (Under devlopment )">
<polygon fill="white" stroke="#666666" points="1110.4,-274 1005.9,-274 1005.9,-243.5 1110.4,-243.5 1110.4,-274"/>
<text text-anchor="start" x="1013.9" y="-260.5" font-family="Helvetica,sans-Serif" font-size="10.00">lupnt/measurements</text>
<text text-anchor="middle" x="1058.15" y="-249.25" font-family="Helvetica,sans-Serif" font-size="10.00">/SpaceChannel.h</text>
</a>
</g>
</g>
<!-- Node25&#45;&gt;Node28 -->
<g id="edge48_Node000025_Node000028" class="edge">
<title>Node25&#45;&gt;Node28</title>
<g id="a_edge48_Node000025_Node000028"><a xlink:title=" ">
<path fill="none" stroke="#63b8ff" d="M1092.08,-309.68C1087.29,-302.64 1080.39,-292.48 1074.06,-283.17"/>
<polygon fill="#63b8ff" stroke="#63b8ff" points="1076.54,-281.59 1068.03,-275.28 1070.75,-285.52 1076.54,-281.59"/>
</a>
</g>
</g>
<!-- Node26&#45;&gt;Node4 -->
<g id="edge45_Node000026_Node000004" class="edge">
<title>Node26&#45;&gt;Node4</title>
<g id="a_edge45_Node000026_Node000004"><a xlink:title=" ">
<path fill="none" stroke="#63b8ff" d="M1140.48,-176.7C1142.11,-160.8 1141.84,-135.73 1127.15,-121.75 1098.46,-94.45 843.93,-79.61 723.63,-74.07"/>
<polygon fill="#63b8ff" stroke="#63b8ff" points="723.91,-70.53 713.77,-73.58 723.6,-77.53 723.91,-70.53"/>
</a>
</g>
</g>
<!-- Node26&#45;&gt;Node5 -->
<g id="edge47_Node000026_Node000005" class="edge">
<title>Node26&#45;&gt;Node5</title>
<g id="a_edge47_Node000026_Node000005"><a xlink:title=" ">
<path fill="none" stroke="#63b8ff" d="M1129.01,-176.7C1124.08,-168.85 1117.95,-159.1 1112.69,-150.74"/>
<polygon fill="#63b8ff" stroke="#63b8ff" points="1115.14,-149.06 1106.86,-142.45 1109.21,-152.78 1115.14,-149.06"/>
</a>
</g>
</g>
<!-- Node26&#45;&gt;Node9 -->
<g id="edge44_Node000026_Node000009" class="edge">
<title>Node26&#45;&gt;Node9</title>
<g id="a_edge44_Node000026_Node000009"><a xlink:title=" ">
<path fill="none" stroke="#63b8ff" d="M1105.68,-176.55C1084.93,-167.15 1058.23,-155.05 1038.01,-145.89"/>
<polygon fill="#63b8ff" stroke="#63b8ff" points="1039.64,-142.34 1029.09,-141.4 1036.76,-148.72 1039.64,-142.34"/>
</a>
</g>
</g>
<!-- Node27 -->
<g id="Node000027" class="node">
<title>Node27</title>
<g id="a_Node000027"><a xlink:title=" ">
<polygon fill="#e0e0e0" stroke="#999999" points="1217.65,-141 1174.65,-141 1174.65,-121.75 1217.65,-121.75 1217.65,-141"/>
<text text-anchor="middle" x="1196.15" y="-127.5" font-family="Helvetica,sans-Serif" font-size="10.00">cmath</text>
</a>
</g>
</g>
<!-- Node26&#45;&gt;Node27 -->
<g id="edge46_Node000026_Node000027" class="edge">
<title>Node26&#45;&gt;Node27</title>
<g id="a_edge46_Node000026_Node000027"><a xlink:title=" ">
<path fill="none" stroke="#63b8ff" d="M1152.49,-176.7C1160.73,-168.34 1171.1,-157.8 1179.68,-149.1"/>
<polygon fill="#63b8ff" stroke="#63b8ff" points="1181.69,-152.03 1186.21,-142.45 1176.7,-147.12 1181.69,-152.03"/>
</a>
</g>
</g>
<!-- Node28&#45;&gt;Node6 -->
<g id="edge50_Node000028_Node000006" class="edge">
<title>Node28&#45;&gt;Node6</title>
<g id="a_edge50_Node000028_Node000006"><a xlink:title=" ">
<path fill="none" stroke="#63b8ff" d="M1054.52,-243.11C1052.27,-234.03 1049.35,-222.26 1046.91,-212.43"/>
<polygon fill="#63b8ff" stroke="#63b8ff" points="1050.15,-211.94 1044.34,-203.07 1043.35,-213.62 1050.15,-211.94"/>
</a>
</g>
</g>
<!-- Node28&#45;&gt;Node26 -->
<g id="edge49_Node000028_Node000026" class="edge">
<title>Node28&#45;&gt;Node26</title>
<g id="a_edge49_Node000028_Node000026"><a xlink:title=" ">
<path fill="none" stroke="#63b8ff" d="M1076.31,-243.11C1086.74,-234.7 1100.03,-223.98 1111.62,-214.64"/>
<polygon fill="#63b8ff" stroke="#63b8ff" points="1113.48,-216.83 1119.07,-207.83 1109.09,-211.38 1113.48,-216.83"/>
</a>
</g>
</g>
<!-- Node29&#45;&gt;Node3 -->
<g id="edge56_Node000029_Node000003" class="edge">
<title>Node29&#45;&gt;Node3</title>
<g id="a_edge56_Node000029_Node000003"><a xlink:title=" ">
<path fill="none" stroke="#63b8ff" d="M855.78,-254.2C794.19,-248.98 693.34,-236.51 611.15,-207.5 554.39,-187.46 538,-181.15 493.15,-141 476.6,-126.18 462.33,-104.97 453.32,-89.88"/>
<polygon fill="#63b8ff" stroke="#63b8ff" points="455.98,-88.49 447.96,-81.57 449.91,-91.98 455.98,-88.49"/>
</a>
</g>
</g>
<!-- Node29&#45;&gt;Node4 -->
<g id="edge57_Node000029_Node000004" class="edge">
<title>Node29&#45;&gt;Node4</title>
<g id="a_edge57_Node000029_Node000004"><a xlink:title=" ">
<path fill="none" stroke="#63b8ff" d="M912.11,-248.65C911.61,-232.74 908.62,-199.4 893.15,-177 854.25,-120.68 777.66,-93.91 723.12,-81.53"/>
<polygon fill="#63b8ff" stroke="#63b8ff" points="724.04,-77.93 713.53,-79.24 722.56,-84.78 724.04,-77.93"/>
</a>
</g>
</g>
<!-- Node29&#45;&gt;Node6 -->
<g id="edge58_Node000029_Node000006" class="edge">
<title>Node29&#45;&gt;Node6</title>
<g id="a_edge58_Node000029_Node000006"><a xlink:title=" ">
<path fill="none" stroke="#63b8ff" d="M930.5,-248.65C952.28,-237.84 988.82,-219.71 1014.14,-207.15"/>
<polygon fill="#63b8ff" stroke="#63b8ff" points="1015.49,-209.89 1022.9,-202.31 1012.38,-203.62 1015.49,-209.89"/>
</a>
</g>
</g>
<!-- Node29&#45;&gt;Node9 -->
<g id="edge53_Node000029_Node000009" class="edge">
<title>Node29&#45;&gt;Node9</title>
<g id="a_edge53_Node000029_Node000009"><a xlink:title=" ">
<path fill="none" stroke="#63b8ff" d="M919.06,-248.73C934.9,-228.04 974.1,-176.85 994.82,-149.79"/>
<polygon fill="#63b8ff" stroke="#63b8ff" points="998.01,-152.38 1001.31,-142.31 992.45,-148.12 998.01,-152.38"/>
</a>
</g>
</g>
<!-- Node29&#45;&gt;Node15 -->
<g id="edge54_Node000029_Node000015" class="edge">
<title>Node29&#45;&gt;Node15</title>
<g id="a_edge54_Node000029_Node000015"><a xlink:title=" ">
<path fill="none" stroke="#63b8ff" d="M878.28,-248.65C841.23,-238.69 781.05,-222.52 735.26,-210.21"/>
<polygon fill="#63b8ff" stroke="#63b8ff" points="736.4,-206.62 725.84,-207.41 734.59,-213.38 736.4,-206.62"/>
</a>
</g>
</g>
<!-- Node29&#45;&gt;Node16 -->
<g id="edge55_Node000029_Node000016" class="edge">
<title>Node29&#45;&gt;Node16</title>
<g id="a_edge55_Node000029_Node000016"><a xlink:title=" ">
<path fill="none" stroke="#63b8ff" d="M855.85,-249.43C827.22,-242.55 793.79,-230.07 771.15,-207.5 756.15,-192.54 749.44,-168.65 746.46,-151.84"/>
<polygon fill="#63b8ff" stroke="#63b8ff" points="749.8,-151.46 744.89,-142.07 742.87,-152.47 749.8,-151.46"/>
</a>
</g>
</g>
</g>
</svg>
