<?xml version="1.0" encoding="UTF-8" standalone="no"?>
<!DOCTYPE svg PUBLIC "-//W3C//DTD SVG 1.1//EN"
 "http://www.w3.org/Graphics/SVG/1.1/DTD/svg11.dtd">
<!-- Generated by graphviz version 8.1.0 (20230707.0739)
 -->
<!-- Title: GNSSChannel.h Pages: 1 -->
<!--zoomable 193 -->

<svg id="main" version="1.1" xmlns="http://www.w3.org/2000/svg" xmlns:xlink="http://www.w3.org/1999/xlink" xml:space="preserve" onload="init(evt)">
<style type="text/css"><![CDATA[
.node, .edge {opacity: 0.7;}
.node.selected, .edge.selected {opacity: 1;}
.edge:hover path { stroke: red; }
.edge:hover polygon { stroke: red; fill: red; }
]]></style>

<defs>
  <circle id="rim" cx="0" cy="0" r="7"/>
  <circle id="rim2" cx="0" cy="0" r="3.5"/>
  <g id="zoomPlus">
    <use xlink:href="#rim" fill="#404040"><set attributeName="fill" to="#808080" begin="zoomplus.mouseover" end="zoomplus.mouseout"/></use>
    <path d="M-4,0h8M0,-4v8" fill="none" stroke="white" stroke-width="1.5" pointer-events="none"/>
  </g>
  <g id="zoomMin">
    <use xlink:href="#rim" fill="#404040"><set attributeName="fill" to="#808080" begin="zoomminus.mouseover" end="zoomminus.mouseout"/></use>
    <path d="M-4,0h8" fill="none" stroke="white" stroke-width="1.5" pointer-events="none"/>
  </g>
  <g id="arrowUp" transform="translate(30 24)">
    <use xlink:href="#rim"/>
    <path pointer-events="none" fill="none" stroke="white" stroke-width="1.5" d="M0,-3.0v7 M-2.5,-0.5L0,-3.0L2.5,-0.5"/>
  </g>
  <g id="arrowRight" transform="rotate(90) translate(36 -43)">
    <use xlink:href="#rim"/>
    <path pointer-events="none" fill="none" stroke="white" stroke-width="1.5" d="M0,-3.0v7 M-2.5,-0.5L0,-3.0L2.5,-0.5"/>
  </g>
  <g id="arrowDown" transform="rotate(180) translate(-30 -48)">
    <use xlink:href="#rim"/>
    <path pointer-events="none" fill="none" stroke="white" stroke-width="1.5" d="M0,-3.0v7 M-2.5,-0.5L0,-3.0L2.5,-0.5"/>
  </g>
  <g id="arrowLeft" transform="rotate(270) translate(-36 17)">
    <use xlink:href="#rim"/>
    <path pointer-events="none" fill="none" stroke="white" stroke-width="1.5" d="M0,-3.0v7 M-2.5,-0.5L0,-3.0L2.5,-0.5"/>
  </g>
  <g id="resetDef">
    <use xlink:href="#rim2" fill="#404040"><set attributeName="fill" to="#808080" begin="reset.mouseover" end="reset.mouseout"/></use>
  </g>
</defs>
<script type="application/ecmascript">
var viewWidth = 1149;
var viewHeight = 193;
var sectionId = 'dynsection-1';
</script>
<script type="application/ecmascript" xlink:href="svg.min.js"/>
<svg id="graph" class="graph">
<g id="viewport">
<title>GNSSChannel.h</title>
<!-- Node1 -->
<g id="Node000001" class="node">
<title>Node1</title>
<g id="a_Node000001"><a xlink:title="GNSS Channel class.">
<polygon fill="#999999" stroke="#666666" points="516.26,-185 427.51,-185 427.51,-165.75 516.26,-165.75 516.26,-185"/>
<text text-anchor="middle" x="471.88" y="-171.5" font-family="Helvetica,sans-Serif" font-size="10.00">GNSSChannel.h</text>
</a>
</g>
</g>
<!-- Node2 -->
<g id="Node000002" class="node">
<title>Node2</title>
<g id="a_Node000002"><a xlink:href="_example_constellations_8cpp.html" target="_top" xlink:title="Setup GNSS Constellation.">
<polygon fill="white" stroke="#666666" points="577.51,-74.5 442.26,-74.5 442.26,-55.25 577.51,-55.25 577.51,-74.5"/>
<text text-anchor="middle" x="509.88" y="-61" font-family="Helvetica,sans-Serif" font-size="10.00">ExampleConstellations.cpp</text>
</a>
</g>
</g>
<!-- Node1&#45;&gt;Node2 -->
<g id="edge1_Node000001_Node000002" class="edge">
<title>Node1&#45;&gt;Node2</title>
<g id="a_edge1_Node000001_Node000002"><a xlink:title=" ">
<path fill="none" stroke="#63b8ff" d="M478.55,-155.33C486.82,-131.72 500.57,-92.46 506.73,-74.88"/>
<polygon fill="#63b8ff" stroke="#63b8ff" points="475,-153.9 474.99,-164.5 481.6,-156.22 475,-153.9"/>
</a>
</g>
</g>
<!-- Node3 -->
<g id="Node000003" class="node">
<title>Node3</title>
<g id="a_Node000003"><a xlink:href="_example_e_k_f_8cpp.html" target="_top" xlink:title="Example of Extended Kalman Filter for orbit determination.">
<polygon fill="white" stroke="#666666" points="281.38,-74.5 190.38,-74.5 190.38,-55.25 281.38,-55.25 281.38,-74.5"/>
<text text-anchor="middle" x="235.88" y="-61" font-family="Helvetica,sans-Serif" font-size="10.00">ExampleEKF.cpp</text>
</a>
</g>
</g>
<!-- Node1&#45;&gt;Node3 -->
<g id="edge2_Node000001_Node000003" class="edge">
<title>Node1&#45;&gt;Node3</title>
<g id="a_edge2_Node000001_Node000003"><a xlink:title=" ">
<path fill="none" stroke="#63b8ff" d="M416.59,-171.64C376.32,-167.34 322.02,-156.55 281.88,-129.75 260.97,-115.79 246.36,-88.9 239.79,-74.88"/>
<polygon fill="#63b8ff" stroke="#63b8ff" points="416,-175.2 426.29,-172.67 416.67,-168.23 416,-175.2"/>
</a>
</g>
</g>
<!-- Node4 -->
<g id="Node000004" class="node">
<title>Node4</title>
<g id="a_Node000004"><a xlink:href="_example_e_k_f_app_8cpp.html" target="_top" xlink:title="Example of EKF application.">
<polygon fill="white" stroke="#666666" points="438.76,-19.25 329.01,-19.25 329.01,0 438.76,0 438.76,-19.25"/>
<text text-anchor="middle" x="383.88" y="-5.75" font-family="Helvetica,sans-Serif" font-size="10.00">ExampleEKFApp.cpp</text>
</a>
</g>
</g>
<!-- Node1&#45;&gt;Node4 -->
<g id="edge3_Node000001_Node000004" class="edge">
<title>Node1&#45;&gt;Node4</title>
<g id="a_edge3_Node000001_Node000004"><a xlink:title=" ">
<path fill="none" stroke="#63b8ff" d="M416.55,-171C304.28,-162.89 56.02,-138.01 4.88,-74.5 -36.65,-22.92 214.09,-12.92 328.83,-11.04"/>
<polygon fill="#63b8ff" stroke="#63b8ff" points="416.08,-174.55 426.3,-171.76 416.57,-167.57 416.08,-174.55"/>
</a>
</g>
</g>
<!-- Node5 -->
<g id="Node000005" class="node">
<title>Node5</title>
<g id="a_Node000005"><a xlink:href="_example_propagation_8cpp.html" target="_top" xlink:title="Example propagating both GPS constellation and Lunar Satellite.">
<polygon fill="white" stroke="#666666" points="424.26,-74.5 299.51,-74.5 299.51,-55.25 424.26,-55.25 424.26,-74.5"/>
<text text-anchor="middle" x="361.88" y="-61" font-family="Helvetica,sans-Serif" font-size="10.00">ExamplePropagation.cpp</text>
</a>
</g>
</g>
<!-- Node1&#45;&gt;Node5 -->
<g id="edge4_Node000001_Node000005" class="edge">
<title>Node1&#45;&gt;Node5</title>
<g id="a_edge4_Node000001_Node000005"><a xlink:title=" ">
<path fill="none" stroke="#63b8ff" d="M456.32,-157.88C443.91,-144.84 426.01,-126.28 409.88,-110.5 397.04,-97.93 381.76,-83.87 371.95,-74.96"/>
<polygon fill="#63b8ff" stroke="#63b8ff" points="453.18,-159.71 462.6,-164.56 458.26,-154.89 453.18,-159.71"/>
</a>
</g>
</g>
<!-- Node6 -->
<g id="Node000006" class="node">
<title>Node6</title>
<g id="a_Node000006"><a xlink:href="_g_n_s_s_channel_8cpp.html" target="_top" xlink:title="GNSS Channel.">
<polygon fill="white" stroke="#666666" points="1140.51,-74.5 1041.26,-74.5 1041.26,-55.25 1140.51,-55.25 1140.51,-74.5"/>
<text text-anchor="middle" x="1090.88" y="-61" font-family="Helvetica,sans-Serif" font-size="10.00">GNSSChannel.cpp</text>
</a>
</g>
</g>
<!-- Node1&#45;&gt;Node6 -->
<g id="edge5_Node000001_Node000006" class="edge">
<title>Node1&#45;&gt;Node6</title>
<g id="a_edge5_Node000001_Node000006"><a xlink:title=" ">
<path fill="none" stroke="#63b8ff" d="M526.96,-163.53C562.12,-155.85 608.35,-144.33 647.88,-129.75 666.02,-123.06 668.31,-115.86 686.88,-110.5 835.42,-67.61 879.5,-93.88 1032.88,-74.5 1035.51,-74.17 1038.2,-73.82 1040.92,-73.45"/>
<polygon fill="#63b8ff" stroke="#63b8ff" points="526.47,-160.27 517.42,-165.79 527.93,-167.12 526.47,-160.27"/>
</a>
</g>
</g>
<!-- Node7 -->
<g id="Node000007" class="node">
<title>Node7</title>
<g id="a_Node000007"><a xlink:href="_g_n_s_s_constellation_8h.html" target="_top" xlink:title=" ">
<polygon fill="white" stroke="#666666" points="400.76,-129.75 291.01,-129.75 291.01,-110.5 400.76,-110.5 400.76,-129.75"/>
<text text-anchor="middle" x="345.88" y="-116.25" font-family="Helvetica,sans-Serif" font-size="10.00">GNSSConstellation.h</text>
</a>
</g>
</g>
<!-- Node1&#45;&gt;Node7 -->
<g id="edge6_Node000001_Node000007" class="edge">
<title>Node1&#45;&gt;Node7</title>
<g id="a_edge6_Node000001_Node000007"><a xlink:title=" ">
<path fill="none" stroke="#63b8ff" d="M440.62,-161.16C417.81,-151.52 387.49,-138.71 367.36,-130.2"/>
<polygon fill="#63b8ff" stroke="#63b8ff" points="438.94,-164.67 449.51,-165.34 441.66,-158.23 438.94,-164.67"/>
</a>
</g>
</g>
<!-- Node9 -->
<g id="Node000009" class="node">
<title>Node9</title>
<g id="a_Node000009"><a xlink:href="_g_n_s_s_receiver_8h.html" target="_top" xlink:title="GNSS receiver class.">
<polygon fill="white" stroke="#666666" points="639.38,-129.75 548.38,-129.75 548.38,-110.5 639.38,-110.5 639.38,-129.75"/>
<text text-anchor="middle" x="593.88" y="-116.25" font-family="Helvetica,sans-Serif" font-size="10.00">GNSSReceiver.h</text>
</a>
</g>
</g>
<!-- Node1&#45;&gt;Node9 -->
<g id="edge12_Node000001_Node000009" class="edge">
<title>Node1&#45;&gt;Node9</title>
<g id="a_edge12_Node000001_Node000009"><a xlink:title=" ">
<path fill="none" stroke="#63b8ff" d="M502.45,-161.03C524.5,-151.41 553.69,-138.67 573.09,-130.2"/>
<polygon fill="#63b8ff" stroke="#63b8ff" points="501.34,-158.13 493.58,-165.34 504.14,-164.55 501.34,-158.13"/>
</a>
</g>
</g>
<!-- Node15 -->
<g id="Node000015" class="node">
<title>Node15</title>
<g id="a_Node000015"><a xlink:href="_g_n_s_s_transmitter_8cpp.html" target="_top" xlink:title="Handles GNSS transmit.">
<polygon fill="white" stroke="#666666" points="807.88,-129.75 695.88,-129.75 695.88,-110.5 807.88,-110.5 807.88,-129.75"/>
<text text-anchor="middle" x="751.88" y="-116.25" font-family="Helvetica,sans-Serif" font-size="10.00">GNSSTransmitter.cpp</text>
</a>
</g>
</g>
<!-- Node1&#45;&gt;Node15 -->
<g id="edge24_Node000001_Node000015" class="edge">
<title>Node1&#45;&gt;Node15</title>
<g id="a_edge24_Node000001_Node000015"><a xlink:title=" ">
<path fill="none" stroke="#63b8ff" d="M527.18,-163.86C578.8,-154.04 655.04,-139.54 704.09,-130.22"/>
<polygon fill="#63b8ff" stroke="#63b8ff" points="526.73,-160.57 517.56,-165.88 528.04,-167.45 526.73,-160.57"/>
</a>
</g>
</g>
<!-- Node7&#45;&gt;Node2 -->
<g id="edge7_Node000007_Node000002" class="edge">
<title>Node7&#45;&gt;Node2</title>
<g id="a_edge7_Node000007_Node000002"><a xlink:title=" ">
<path fill="none" stroke="#63b8ff" d="M383.8,-106.82C413.76,-97.09 454.9,-83.73 481.93,-74.95"/>
<polygon fill="#63b8ff" stroke="#63b8ff" points="383.13,-103.67 374.7,-110.09 385.3,-110.33 383.13,-103.67"/>
</a>
</g>
</g>
<!-- Node7&#45;&gt;Node3 -->
<g id="edge8_Node000007_Node000003" class="edge">
<title>Node7&#45;&gt;Node3</title>
<g id="a_edge8_Node000007_Node000003"><a xlink:title=" ">
<path fill="none" stroke="#63b8ff" d="M317.51,-105.39C297.73,-95.81 271.89,-83.31 254.64,-74.95"/>
<polygon fill="#63b8ff" stroke="#63b8ff" points="315.7,-108.88 326.22,-110.09 318.75,-102.58 315.7,-108.88"/>
</a>
</g>
</g>
<!-- Node7&#45;&gt;Node4 -->
<g id="edge9_Node000007_Node000004" class="edge">
<title>Node7&#45;&gt;Node4</title>
<g id="a_edge9_Node000007_Node000004"><a xlink:title=" ">
<path fill="none" stroke="#63b8ff" d="M279.95,-115C221.64,-108.8 150.22,-93.39 180.88,-55.25 199.14,-32.54 275.15,-20.72 328.78,-15.1"/>
<polygon fill="#63b8ff" stroke="#63b8ff" points="279.37,-118.55 289.66,-116.05 280.05,-111.59 279.37,-118.55"/>
</a>
</g>
</g>
<!-- Node7&#45;&gt;Node5 -->
<g id="edge10_Node000007_Node000005" class="edge">
<title>Node7&#45;&gt;Node5</title>
<g id="a_edge10_Node000007_Node000005"><a xlink:title=" ">
<path fill="none" stroke="#63b8ff" d="M351.62,-100.04C354.2,-91.46 357.12,-81.73 359.18,-74.86"/>
<polygon fill="#63b8ff" stroke="#63b8ff" points="348.05,-98.75 348.53,-109.33 354.76,-100.76 348.05,-98.75"/>
</a>
</g>
</g>
<!-- Node8 -->
<g id="Node000008" class="node">
<title>Node8</title>
<g id="a_Node000008"><a xlink:href="_g_n_s_s_constellation_8cpp.html" target="_top" xlink:title="GNSS Constellation.">
<polygon fill="white" stroke="#666666" points="134.01,-74.5 13.76,-74.5 13.76,-55.25 134.01,-55.25 134.01,-74.5"/>
<text text-anchor="middle" x="73.88" y="-61" font-family="Helvetica,sans-Serif" font-size="10.00">GNSSConstellation.cpp</text>
</a>
</g>
</g>
<!-- Node7&#45;&gt;Node8 -->
<g id="edge11_Node000007_Node000008" class="edge">
<title>Node7&#45;&gt;Node8</title>
<g id="a_edge11_Node000007_Node000008"><a xlink:title=" ">
<path fill="none" stroke="#63b8ff" d="M288.78,-107.94C238.67,-98.14 166.72,-84.05 120.14,-74.93"/>
<polygon fill="#63b8ff" stroke="#63b8ff" points="287.95,-111.54 298.43,-110.03 289.29,-104.68 287.95,-111.54"/>
</a>
</g>
</g>
<!-- Node9&#45;&gt;Node2 -->
<g id="edge13_Node000009_Node000002" class="edge">
<title>Node9&#45;&gt;Node2</title>
<g id="a_edge13_Node000009_Node000002"><a xlink:title=" ">
<path fill="none" stroke="#63b8ff" d="M570.54,-104.32C555.67,-94.9 536.9,-83 524.2,-74.95"/>
<polygon fill="#63b8ff" stroke="#63b8ff" points="568.31,-107.69 578.63,-110.09 572.06,-101.78 568.31,-107.69"/>
</a>
</g>
</g>
<!-- Node9&#45;&gt;Node3 -->
<g id="edge14_Node000009_Node000003" class="edge">
<title>Node9&#45;&gt;Node3</title>
<g id="a_edge14_Node000009_Node000003"><a xlink:title=" ">
<path fill="none" stroke="#63b8ff" d="M537.39,-110.96C476.51,-102.13 376.8,-87.56 290.88,-74.5 287.92,-74.05 284.87,-73.58 281.8,-73.11"/>
<polygon fill="#63b8ff" stroke="#63b8ff" points="536.52,-114.52 546.92,-112.49 537.53,-107.59 536.52,-114.52"/>
</a>
</g>
</g>
<!-- Node9&#45;&gt;Node4 -->
<g id="edge15_Node000009_Node000004" class="edge">
<title>Node9&#45;&gt;Node4</title>
<g id="a_edge15_Node000009_Node000004"><a xlink:title=" ">
<path fill="none" stroke="#63b8ff" d="M597.21,-99.93C598.49,-85.85 597.6,-67.18 586.88,-55.25 567.47,-33.64 492.19,-21.56 438.98,-15.57"/>
<polygon fill="#63b8ff" stroke="#63b8ff" points="593.66,-99.05 595.79,-109.43 600.6,-99.99 593.66,-99.05"/>
</a>
</g>
</g>
<!-- Node9&#45;&gt;Node5 -->
<g id="edge16_Node000009_Node000005" class="edge">
<title>Node9&#45;&gt;Node5</title>
<g id="a_edge16_Node000009_Node000005"><a xlink:title=" ">
<path fill="none" stroke="#63b8ff" d="M543.55,-107.57C500.9,-97.78 440.57,-83.94 401.34,-74.93"/>
<polygon fill="#63b8ff" stroke="#63b8ff" points="542.74,-111.21 553.27,-110.03 544.3,-104.38 542.74,-111.21"/>
</a>
</g>
</g>
<!-- Node9&#45;&gt;Node6 -->
<g id="edge17_Node000009_Node000006" class="edge">
<title>Node9&#45;&gt;Node6</title>
<g id="a_edge17_Node000009_Node000006"><a xlink:title=" ">
<path fill="none" stroke="#63b8ff" d="M650.4,-110.92C651.57,-110.78 652.73,-110.64 653.88,-110.5 821.9,-90.46 864.92,-94.95 1032.88,-74.5 1035.51,-74.18 1038.2,-73.84 1040.92,-73.48"/>
<polygon fill="#63b8ff" stroke="#63b8ff" points="650.18,-107.55 640.72,-112.31 651.08,-114.49 650.18,-107.55"/>
</a>
</g>
</g>
<!-- Node10 -->
<g id="Node000010" class="node">
<title>Node10</title>
<g id="a_Node000010"><a xlink:href="_g_n_s_s_receiver_8cpp.html" target="_top" xlink:title="GNSS Receiver class.">
<polygon fill="white" stroke="#666666" points="735.63,-74.5 634.13,-74.5 634.13,-55.25 735.63,-55.25 735.63,-74.5"/>
<text text-anchor="middle" x="684.88" y="-61" font-family="Helvetica,sans-Serif" font-size="10.00">GNSSReceiver.cpp</text>
</a>
</g>
</g>
<!-- Node9&#45;&gt;Node10 -->
<g id="edge18_Node000009_Node000010" class="edge">
<title>Node9&#45;&gt;Node10</title>
<g id="a_edge18_Node000009_Node000010"><a xlink:title=" ">
<path fill="none" stroke="#63b8ff" d="M618.72,-104.59C634.89,-95.13 655.49,-83.08 669.37,-74.95"/>
<polygon fill="#63b8ff" stroke="#63b8ff" points="617.18,-102.02 610.32,-110.09 620.72,-108.06 617.18,-102.02"/>
</a>
</g>
</g>
<!-- Node11 -->
<g id="Node000011" class="node">
<title>Node11</title>
<g id="a_Node000011"><a xlink:href="_g_n_s_s_state_estimation_app_8h.html" target="_top" xlink:title="State Estimation Application Using GNSS Measurement.">
<polygon fill="white" stroke="#666666" points="893.76,-74.5 754.01,-74.5 754.01,-55.25 893.76,-55.25 893.76,-74.5"/>
<text text-anchor="middle" x="823.88" y="-61" font-family="Helvetica,sans-Serif" font-size="10.00">GNSSStateEstimationApp.h</text>
</a>
</g>
</g>
<!-- Node9&#45;&gt;Node11 -->
<g id="edge19_Node000009_Node000011" class="edge">
<title>Node9&#45;&gt;Node11</title>
<g id="a_edge19_Node000009_Node000011"><a xlink:title=" ">
<path fill="none" stroke="#63b8ff" d="M643.78,-107.57C686.07,-97.78 745.88,-83.94 784.77,-74.93"/>
<polygon fill="#63b8ff" stroke="#63b8ff" points="643.11,-104.37 634.16,-110.03 644.69,-111.19 643.11,-104.37"/>
</a>
</g>
</g>
<!-- Node13 -->
<g id="Node000013" class="node">
<title>Node13</title>
<g id="a_Node000013"><a xlink:href="_state_estimation_app_8h.html" target="_top" xlink:title="Base class for State Estimation Application.">
<polygon fill="white" stroke="#666666" points="1023.51,-74.5 912.26,-74.5 912.26,-55.25 1023.51,-55.25 1023.51,-74.5"/>
<text text-anchor="middle" x="967.88" y="-61" font-family="Helvetica,sans-Serif" font-size="10.00">StateEstimationApp.h</text>
</a>
</g>
</g>
<!-- Node9&#45;&gt;Node13 -->
<g id="edge22_Node000009_Node000013" class="edge">
<title>Node9&#45;&gt;Node13</title>
<g id="a_edge22_Node000009_Node000013"><a xlink:title=" ">
<path fill="none" stroke="#63b8ff" d="M650.41,-111C651.58,-110.83 652.74,-110.66 653.88,-110.5 744.23,-97.59 849.22,-82.69 912.01,-73.79"/>
<polygon fill="#63b8ff" stroke="#63b8ff" points="650.15,-107.64 640.75,-112.52 651.14,-114.57 650.15,-107.64"/>
</a>
</g>
</g>
<!-- Node11&#45;&gt;Node4 -->
<g id="edge20_Node000011_Node000004" class="edge">
<title>Node11&#45;&gt;Node4</title>
<g id="a_edge20_Node000011_Node000004"><a xlink:title=" ">
<path fill="none" stroke="#63b8ff" d="M742.91,-54.07C654.64,-43.39 515.8,-26.59 439.21,-17.32"/>
<polygon fill="#63b8ff" stroke="#63b8ff" points="742.33,-57.65 752.68,-55.38 743.17,-50.7 742.33,-57.65"/>
</a>
</g>
</g>
<!-- Node12 -->
<g id="Node000012" class="node">
<title>Node12</title>
<g id="a_Node000012"><a xlink:href="_g_n_s_s_state_estimation_app_8cpp.html" target="_top" xlink:title="State Estimation Application Using GNSS Measurement.">
<polygon fill="white" stroke="#666666" points="894.01,-19.25 743.76,-19.25 743.76,0 894.01,0 894.01,-19.25"/>
<text text-anchor="middle" x="818.88" y="-5.75" font-family="Helvetica,sans-Serif" font-size="10.00">GNSSStateEstimationApp.cpp</text>
</a>
</g>
</g>
<!-- Node11&#45;&gt;Node12 -->
<g id="edge21_Node000011_Node000012" class="edge">
<title>Node11&#45;&gt;Node12</title>
<g id="a_edge21_Node000011_Node000012"><a xlink:title=" ">
<path fill="none" stroke="#63b8ff" d="M822.04,-44.21C821.25,-35.77 820.36,-26.33 819.73,-19.61"/>
<polygon fill="#63b8ff" stroke="#63b8ff" points="818.64,-44.45 823.06,-54.08 825.61,-43.8 818.64,-44.45"/>
</a>
</g>
</g>
<!-- Node14 -->
<g id="Node000014" class="node">
<title>Node14</title>
<g id="a_Node000014"><a xlink:href="_state_estimation_app_8cpp.html" target="_top" xlink:title="Base class for State Estimation Application.">
<polygon fill="white" stroke="#666666" points="1033.76,-19.25 912.01,-19.25 912.01,0 1033.76,0 1033.76,-19.25"/>
<text text-anchor="middle" x="972.88" y="-5.75" font-family="Helvetica,sans-Serif" font-size="10.00">StateEstimationApp.cpp</text>
</a>
</g>
</g>
<!-- Node13&#45;&gt;Node14 -->
<g id="edge23_Node000013_Node000014" class="edge">
<title>Node13&#45;&gt;Node14</title>
<g id="a_edge23_Node000013_Node000014"><a xlink:title=" ">
<path fill="none" stroke="#63b8ff" d="M969.73,-44.21C970.52,-35.77 971.41,-26.33 972.04,-19.61"/>
<polygon fill="#63b8ff" stroke="#63b8ff" points="966.16,-43.8 968.71,-54.08 973.13,-44.45 966.16,-43.8"/>
</a>
</g>
</g>
</g>
</svg>

<g id="navigator" transform="translate(0 0)" fill="#404254">
  <rect fill="#f2f5e9" fill-opacity="0.5" stroke="#606060" stroke-width=".5" x="0" y="0" width="60" height="60"/>
  <use id="zoomplus" xlink:href="#zoomPlus" x="17" y="9" onmousedown="handleZoom(evt,'in')"/>
  <use id="zoomminus" xlink:href="#zoomMin" x="42" y="9" onmousedown="handleZoom(evt,'out')"/>
  <use id="reset" xlink:href="#resetDef" x="30" y="36" onmousedown="handleReset()"/>
   <use id="arrowup" xlink:href="#arrowUp" x="0" y="0" onmousedown="handlePan(0,-1)"/>
  <use id="arrowright" xlink:href="#arrowRight" x="0" y="0" onmousedown="handlePan(1,0)"/>
  <use id="arrowdown" xlink:href="#arrowDown" x="0" y="0" onmousedown="handlePan(0,1)"/>
  <use id="arrowleft" xlink:href="#arrowLeft" x="0" y="0" onmousedown="handlePan(-1,0)"/>
</g>
<svg viewBox="0 0 15 15" width="100%" height="30px" preserveAspectRatio="xMaxYMin meet">
 <g id="arrow_out" transform="scale(0.3 0.3)">
  <a xlink:href="_g_n_s_s_channel_8h__dep__incl_org.svg" target="_base">
   <rect id="button" ry="5" rx="5" y="6" x="6" height="38" width="38"
        fill="#f2f5e9" fill-opacity="0.5" stroke="#606060" stroke-width="1.0"/>
   <path id="arrow"
     d="M 11.500037,31.436501 C 11.940474,20.09759 22.043105,11.32322 32.158766,21.979434 L 37.068811,17.246167 C 37.068811,17.246167 37.088388,32 37.088388,32 L 22.160133,31.978069 C 22.160133,31.978069 26.997745,27.140456 26.997745,27.140456 C 18.528582,18.264221 13.291696,25.230495 11.500037,31.436501 z"
     style="fill:#404040;"/>
  </a>
 </g>
</svg>

<style type='text/css'>
<![CDATA[
[data-mouse-over-selected='false'] { opacity: 0.7; }
[data-mouse-over-selected='true']  { opacity: 1.0; }
]]>
</style>
<script type="application/ecmascript"><![CDATA[
document.addEventListener('DOMContentLoaded', (event) => {
  highlightEdges();
  highlightAdjacentNodes();
});
]]></script>
</svg>
