<?xml version="1.0" encoding="UTF-8" standalone="no"?>
<!DOCTYPE svg PUBLIC "-//W3C//DTD SVG 1.1//EN"
 "http://www.w3.org/Graphics/SVG/1.1/DTD/svg11.dtd">
<!-- Generated by graphviz version 8.1.0 (20230707.0739)
 -->
<!-- Title: LunarMeanOsc.cpp Pages: 1 -->
<!--zoomable 271 -->

<svg id="main" version="1.1" xmlns="http://www.w3.org/2000/svg" xmlns:xlink="http://www.w3.org/1999/xlink" xml:space="preserve" onload="init(evt)">
<style type="text/css"><![CDATA[
.node, .edge {opacity: 0.7;}
.node.selected, .edge.selected {opacity: 1;}
.edge:hover path { stroke: red; }
.edge:hover polygon { stroke: red; fill: red; }
]]></style>

<defs>
  <circle id="rim" cx="0" cy="0" r="7"/>
  <circle id="rim2" cx="0" cy="0" r="3.5"/>
  <g id="zoomPlus">
    <use xlink:href="#rim" fill="#404040"><set attributeName="fill" to="#808080" begin="zoomplus.mouseover" end="zoomplus.mouseout"/></use>
    <path d="M-4,0h8M0,-4v8" fill="none" stroke="white" stroke-width="1.5" pointer-events="none"/>
  </g>
  <g id="zoomMin">
    <use xlink:href="#rim" fill="#404040"><set attributeName="fill" to="#808080" begin="zoomminus.mouseover" end="zoomminus.mouseout"/></use>
    <path d="M-4,0h8" fill="none" stroke="white" stroke-width="1.5" pointer-events="none"/>
  </g>
  <g id="arrowUp" transform="translate(30 24)">
    <use xlink:href="#rim"/>
    <path pointer-events="none" fill="none" stroke="white" stroke-width="1.5" d="M0,-3.0v7 M-2.5,-0.5L0,-3.0L2.5,-0.5"/>
  </g>
  <g id="arrowRight" transform="rotate(90) translate(36 -43)">
    <use xlink:href="#rim"/>
    <path pointer-events="none" fill="none" stroke="white" stroke-width="1.5" d="M0,-3.0v7 M-2.5,-0.5L0,-3.0L2.5,-0.5"/>
  </g>
  <g id="arrowDown" transform="rotate(180) translate(-30 -48)">
    <use xlink:href="#rim"/>
    <path pointer-events="none" fill="none" stroke="white" stroke-width="1.5" d="M0,-3.0v7 M-2.5,-0.5L0,-3.0L2.5,-0.5"/>
  </g>
  <g id="arrowLeft" transform="rotate(270) translate(-36 17)">
    <use xlink:href="#rim"/>
    <path pointer-events="none" fill="none" stroke="white" stroke-width="1.5" d="M0,-3.0v7 M-2.5,-0.5L0,-3.0L2.5,-0.5"/>
  </g>
  <g id="resetDef">
    <use xlink:href="#rim2" fill="#404040"><set attributeName="fill" to="#808080" begin="reset.mouseover" end="reset.mouseout"/></use>
  </g>
</defs>
<script type="application/ecmascript">
var viewWidth = 1003;
var viewHeight = 271;
var sectionId = 'dynsection-0';
</script>
<script type="application/ecmascript" xlink:href="svg.min.js"/>
<svg id="graph" class="graph">
<g id="viewport">
<title>LunarMeanOsc.cpp</title>
<!-- Node1 -->
<g id="Node000001" class="node">
<title>Node1</title>
<g id="a_Node000001"><a xlink:title="Lunar Mean and Osculating Elements.">
<polygon fill="#999999" stroke="#666666" points="483.38,-262.75 382.62,-262.75 382.62,-243.5 483.38,-243.5 483.38,-262.75"/>
<text text-anchor="middle" x="433" y="-249.25" font-family="Helvetica,sans-Serif" font-size="10.00">LunarMeanOsc.cpp</text>
</a>
</g>
</g>
<!-- Node2 -->
<g id="Node000002" class="node">
<title>Node2</title>
<g id="a_Node000002"><a xlink:title=" ">
<polygon fill="#e0e0e0" stroke="#999999" points="366.88,-201.88 329.12,-201.88 329.12,-182.62 366.88,-182.62 366.88,-201.88"/>
<text text-anchor="middle" x="348" y="-188.38" font-family="Helvetica,sans-Serif" font-size="10.00">array</text>
</a>
</g>
</g>
<!-- Node1&#45;&gt;Node2 -->
<g id="edge1_Node000001_Node000002" class="edge">
<title>Node1&#45;&gt;Node2</title>
<g id="a_edge1_Node000001_Node000002"><a xlink:title=" ">
<path fill="none" stroke="#63b8ff" d="M420.09,-243.18C406.74,-233.93 385.64,-219.32 369.71,-208.29"/>
<polygon fill="#63b8ff" stroke="#63b8ff" points="372.24,-205.09 362.03,-202.28 368.26,-210.85 372.24,-205.09"/>
</a>
</g>
</g>
<!-- Node3 -->
<g id="Node000003" class="node">
<title>Node3</title>
<g id="a_Node000003"><a xlink:href="_constants_8h.html" target="_top" xlink:title="List of constants.">
<polygon fill="white" stroke="#666666" points="320.5,-141 205.5,-141 205.5,-121.75 320.5,-121.75 320.5,-141"/>
<text text-anchor="middle" x="263" y="-127.5" font-family="Helvetica,sans-Serif" font-size="10.00">lupnt/core/Constants.h</text>
</a>
</g>
</g>
<!-- Node1&#45;&gt;Node3 -->
<g id="edge2_Node000001_Node000003" class="edge">
<title>Node1&#45;&gt;Node3</title>
<g id="a_edge2_Node000001_Node000003"><a xlink:title=" ">
<path fill="none" stroke="#63b8ff" d="M428.53,-243.47C420.18,-228.07 400.78,-195.8 376,-177 356.65,-162.32 331.84,-151.82 310.4,-144.71"/>
<polygon fill="#63b8ff" stroke="#63b8ff" points="311.78,-141.15 301.19,-141.48 309.67,-147.83 311.78,-141.15"/>
</a>
</g>
</g>
<!-- Node11 -->
<g id="Node000011" class="node">
<title>Node11</title>
<g id="a_Node000011"><a xlink:href="_math_utils_8h.html" target="_top" xlink:title=" ">
<polygon fill="white" stroke="#666666" points="471.5,-85.75 338.5,-85.75 338.5,-66.5 471.5,-66.5 471.5,-85.75"/>
<text text-anchor="middle" x="405" y="-72.25" font-family="Helvetica,sans-Serif" font-size="10.00">lupnt/numerics/MathUtils.h</text>
</a>
</g>
</g>
<!-- Node1&#45;&gt;Node11 -->
<g id="edge11_Node000001_Node000011" class="edge">
<title>Node1&#45;&gt;Node11</title>
<g id="a_edge11_Node000001_Node000011"><a xlink:title=" ">
<path fill="none" stroke="#63b8ff" d="M431.57,-243.21C427.25,-216.18 414.22,-134.74 408.16,-96.87"/>
<polygon fill="#63b8ff" stroke="#63b8ff" points="411.49,-96.56 406.46,-87.24 404.58,-97.66 411.49,-96.56"/>
</a>
</g>
</g>
<!-- Node14 -->
<g id="Node000014" class="node">
<title>Node14</title>
<g id="a_Node000014"><a xlink:href="_orbit_state_8h.html" target="_top" xlink:title="Orbit states.">
<polygon fill="white" stroke="#666666" points="816.62,-141 687.38,-141 687.38,-121.75 816.62,-121.75 816.62,-141"/>
<text text-anchor="middle" x="752" y="-127.5" font-family="Helvetica,sans-Serif" font-size="10.00">lupnt/physics/OrbitState.h</text>
</a>
</g>
</g>
<!-- Node1&#45;&gt;Node14 -->
<g id="edge15_Node000001_Node000014" class="edge">
<title>Node1&#45;&gt;Node14</title>
<g id="a_edge15_Node000001_Node000014"><a xlink:title=" ">
<path fill="none" stroke="#63b8ff" d="M483.58,-248.85C530.4,-244.27 601.03,-233.37 657,-207.5 688.17,-193.1 718.22,-166.51 735.91,-149.13"/>
<polygon fill="#63b8ff" stroke="#63b8ff" points="737.98,-152 742.54,-142.44 733.02,-147.07 737.98,-152"/>
</a>
</g>
</g>
<!-- Node20 -->
<g id="Node000020" class="node">
<title>Node20</title>
<g id="a_Node000020"><a xlink:href="_orbit_state_utils_8h.html" target="_top" xlink:title="Util functions for state conversions.">
<polygon fill="white" stroke="#666666" points="647.5,-207.5 526.5,-207.5 526.5,-177 647.5,-177 647.5,-207.5"/>
<text text-anchor="start" x="534.5" y="-194" font-family="Helvetica,sans-Serif" font-size="10.00">lupnt/physics/OrbitState</text>
<text text-anchor="middle" x="587" y="-182.75" font-family="Helvetica,sans-Serif" font-size="10.00">Utils.h</text>
</a>
</g>
</g>
<!-- Node1&#45;&gt;Node20 -->
<g id="edge25_Node000001_Node000020" class="edge">
<title>Node1&#45;&gt;Node20</title>
<g id="a_edge25_Node000001_Node000020"><a xlink:title=" ">
<path fill="none" stroke="#63b8ff" d="M456.73,-243.05C478.42,-234.76 511.19,-222.23 538.43,-211.82"/>
<polygon fill="#63b8ff" stroke="#63b8ff" points="539.47,-214.78 547.56,-207.94 536.97,-208.25 539.47,-214.78"/>
</a>
</g>
</g>
<!-- Node4 -->
<g id="Node000004" class="node">
<title>Node4</title>
<g id="a_Node000004"><a xlink:title=" ">
<polygon fill="#e0e0e0" stroke="#999999" points="281.88,-85.75 148.12,-85.75 148.12,-66.5 281.88,-66.5 281.88,-85.75"/>
<text text-anchor="middle" x="215" y="-72.25" font-family="Helvetica,sans-Serif" font-size="10.00">autodiff/common/eigen.hpp</text>
</a>
</g>
</g>
<!-- Node3&#45;&gt;Node4 -->
<g id="edge3_Node000003_Node000004" class="edge">
<title>Node3&#45;&gt;Node4</title>
<g id="a_edge3_Node000003_Node000004"><a xlink:title=" ">
<path fill="none" stroke="#63b8ff" d="M255.07,-121.58C248.37,-114.15 238.58,-103.29 230.36,-94.16"/>
<polygon fill="#63b8ff" stroke="#63b8ff" points="233.39,-92.19 224.1,-87.11 228.19,-96.88 233.39,-92.19"/>
</a>
</g>
</g>
<!-- Node5 -->
<g id="Node000005" class="node">
<title>Node5</title>
<g id="a_Node000005"><a xlink:title=" ">
<polygon fill="#e0e0e0" stroke="#999999" points="564.5,-24.88 443.5,-24.88 443.5,-5.63 564.5,-5.63 564.5,-24.88"/>
<text text-anchor="middle" x="504" y="-11.38" font-family="Helvetica,sans-Serif" font-size="10.00">autodiff/forward/real.hpp</text>
</a>
</g>
</g>
<!-- Node3&#45;&gt;Node5 -->
<g id="edge4_Node000003_Node000005" class="edge">
<title>Node3&#45;&gt;Node5</title>
<g id="a_edge4_Node000003_Node000005"><a xlink:title=" ">
<path fill="none" stroke="#63b8ff" d="M269.83,-121.55C280.96,-107.78 304.36,-81.23 330,-66.5 351.11,-54.37 410.37,-38.53 453.88,-27.9"/>
<polygon fill="#63b8ff" stroke="#63b8ff" points="454.67,-31.07 463.57,-25.32 453.03,-24.26 454.67,-31.07"/>
</a>
</g>
</g>
<!-- Node6 -->
<g id="Node000006" class="node">
<title>Node6</title>
<g id="a_Node000006"><a xlink:title=" ">
<polygon fill="#e0e0e0" stroke="#999999" points="40,-24.88 0,-24.88 0,-5.63 40,-5.63 40,-24.88"/>
<text text-anchor="middle" x="20" y="-11.38" font-family="Helvetica,sans-Serif" font-size="10.00">string</text>
</a>
</g>
</g>
<!-- Node3&#45;&gt;Node6 -->
<g id="edge5_Node000003_Node000006" class="edge">
<title>Node3&#45;&gt;Node6</title>
<g id="a_edge5_Node000003_Node000006"><a xlink:title=" ">
<path fill="none" stroke="#63b8ff" d="M205.15,-125.71C146.99,-119.85 62.64,-107.79 39,-85.75 25.29,-72.97 21.12,-51.35 20.02,-35.61"/>
<polygon fill="#63b8ff" stroke="#63b8ff" points="23.5,-35.84 19.67,-25.96 16.5,-36.07 23.5,-35.84"/>
</a>
</g>
</g>
<!-- Node7 -->
<g id="Node000007" class="node">
<title>Node7</title>
<g id="a_Node000007"><a xlink:href="_user_file_path_8h.html" target="_top" xlink:title="File access utils.">
<polygon fill="white" stroke="#666666" points="129.62,-85.75 48.38,-85.75 48.38,-66.5 129.62,-66.5 129.62,-85.75"/>
<text text-anchor="middle" x="89" y="-72.25" font-family="Helvetica,sans-Serif" font-size="10.00">UserFilePath.h</text>
</a>
</g>
</g>
<!-- Node3&#45;&gt;Node7 -->
<g id="edge6_Node000003_Node000007" class="edge">
<title>Node3&#45;&gt;Node7</title>
<g id="a_edge6_Node000003_Node000007"><a xlink:title=" ">
<path fill="none" stroke="#63b8ff" d="M233.48,-121.34C204.74,-112.54 160.83,-99.11 128.97,-89.36"/>
<polygon fill="#63b8ff" stroke="#63b8ff" points="130.25,-85.78 119.66,-86.2 128.2,-92.48 130.25,-85.78"/>
</a>
</g>
</g>
<!-- Node7&#45;&gt;Node6 -->
<g id="edge10_Node000007_Node000006" class="edge">
<title>Node7&#45;&gt;Node6</title>
<g id="a_edge10_Node000007_Node000006"><a xlink:title=" ">
<path fill="none" stroke="#63b8ff" d="M78.52,-66.18C67.98,-57.19 51.51,-43.14 38.72,-32.23"/>
<polygon fill="#63b8ff" stroke="#63b8ff" points="41.46,-29.1 31.58,-25.28 36.91,-34.43 41.46,-29.1"/>
</a>
</g>
</g>
<!-- Node8 -->
<g id="Node000008" class="node">
<title>Node8</title>
<g id="a_Node000008"><a xlink:title=" ">
<polygon fill="#e0e0e0" stroke="#999999" points="119.5,-24.88 58.5,-24.88 58.5,-5.63 119.5,-5.63 119.5,-24.88"/>
<text text-anchor="middle" x="89" y="-11.38" font-family="Helvetica,sans-Serif" font-size="10.00">filesystem</text>
</a>
</g>
</g>
<!-- Node7&#45;&gt;Node8 -->
<g id="edge7_Node000007_Node000008" class="edge">
<title>Node7&#45;&gt;Node8</title>
<g id="a_edge7_Node000007_Node000008"><a xlink:title=" ">
<path fill="none" stroke="#63b8ff" d="M89,-66.18C89,-58.23 89,-46.31 89,-36.12"/>
<polygon fill="#63b8ff" stroke="#63b8ff" points="92.5,-36.28 89,-26.28 85.5,-36.28 92.5,-36.28"/>
</a>
</g>
</g>
<!-- Node9 -->
<g id="Node000009" class="node">
<title>Node9</title>
<g id="a_Node000009"><a xlink:title=" ">
<polygon fill="#e0e0e0" stroke="#999999" points="190.75,-24.88 137.25,-24.88 137.25,-5.63 190.75,-5.63 190.75,-24.88"/>
<text text-anchor="middle" x="164" y="-11.38" font-family="Helvetica,sans-Serif" font-size="10.00">iostream</text>
</a>
</g>
</g>
<!-- Node7&#45;&gt;Node9 -->
<g id="edge8_Node000007_Node000009" class="edge">
<title>Node7&#45;&gt;Node9</title>
<g id="a_edge8_Node000007_Node000009"><a xlink:title=" ">
<path fill="none" stroke="#63b8ff" d="M100.39,-66.18C111.95,-57.11 130.09,-42.87 144.05,-31.91"/>
<polygon fill="#63b8ff" stroke="#63b8ff" points="145.8,-34.2 151.5,-25.28 141.47,-28.7 145.8,-34.2"/>
</a>
</g>
</g>
<!-- Node10 -->
<g id="Node000010" class="node">
<title>Node10</title>
<g id="a_Node000010"><a xlink:title=" ">
<polygon fill="#e0e0e0" stroke="#999999" points="258.88,-24.88 209.12,-24.88 209.12,-5.63 258.88,-5.63 258.88,-24.88"/>
<text text-anchor="middle" x="234" y="-11.38" font-family="Helvetica,sans-Serif" font-size="10.00">optional</text>
</a>
</g>
</g>
<!-- Node7&#45;&gt;Node10 -->
<g id="edge9_Node000007_Node000010" class="edge">
<title>Node7&#45;&gt;Node10</title>
<g id="a_edge9_Node000007_Node000010"><a xlink:title=" ">
<path fill="none" stroke="#63b8ff" d="M111.57,-66.16C134.03,-57.22 169.45,-43.04 200,-30.5 200.75,-30.19 201.52,-29.88 202.29,-29.56"/>
<polygon fill="#63b8ff" stroke="#63b8ff" points="203.54,-32.41 211.44,-25.34 200.86,-25.95 203.54,-32.41"/>
</a>
</g>
</g>
<!-- Node11&#45;&gt;Node5 -->
<g id="edge12_Node000011_Node000005" class="edge">
<title>Node11&#45;&gt;Node5</title>
<g id="a_edge12_Node000011_Node000005"><a xlink:title=" ">
<path fill="none" stroke="#63b8ff" d="M420.04,-66.18C435.81,-56.8 460.85,-41.91 479.49,-30.83"/>
<polygon fill="#63b8ff" stroke="#63b8ff" points="481.02,-33.4 487.82,-25.28 477.44,-27.38 481.02,-33.4"/>
</a>
</g>
</g>
<!-- Node12 -->
<g id="Node000012" class="node">
<title>Node12</title>
<g id="a_Node000012"><a xlink:title=" ">
<polygon fill="#e0e0e0" stroke="#999999" points="995.12,-30.5 892.88,-30.5 892.88,0 995.12,0 995.12,-30.5"/>
<text text-anchor="start" x="900.88" y="-17" font-family="Helvetica,sans-Serif" font-size="10.00">autodiff/forward/real</text>
<text text-anchor="middle" x="944" y="-5.75" font-family="Helvetica,sans-Serif" font-size="10.00">/eigen.hpp</text>
</a>
</g>
</g>
<!-- Node11&#45;&gt;Node12 -->
<g id="edge13_Node000011_Node000012" class="edge">
<title>Node11&#45;&gt;Node12</title>
<g id="a_edge13_Node000011_Node000012"><a xlink:title=" ">
<path fill="none" stroke="#63b8ff" d="M471.59,-70.08C579.54,-61.72 789.21,-44.66 881.7,-30.68"/>
<polygon fill="#63b8ff" stroke="#63b8ff" points="882.05,-34.01 891.38,-28.99 880.96,-27.1 882.05,-34.01"/>
</a>
</g>
</g>
<!-- Node13 -->
<g id="Node000013" class="node">
<title>Node13</title>
<g id="a_Node000013"><a xlink:title=" ">
<polygon fill="#e0e0e0" stroke="#999999" points="425.12,-24.88 376.88,-24.88 376.88,-5.63 425.12,-5.63 425.12,-24.88"/>
<text text-anchor="middle" x="401" y="-11.38" font-family="Helvetica,sans-Serif" font-size="10.00">random</text>
</a>
</g>
</g>
<!-- Node11&#45;&gt;Node13 -->
<g id="edge14_Node000011_Node000013" class="edge">
<title>Node11&#45;&gt;Node13</title>
<g id="a_edge14_Node000011_Node000013"><a xlink:title=" ">
<path fill="none" stroke="#63b8ff" d="M404.39,-66.18C403.85,-58.23 403.04,-46.31 402.35,-36.12"/>
<polygon fill="#63b8ff" stroke="#63b8ff" points="405.78,-36.02 401.61,-26.28 398.8,-36.49 405.78,-36.02"/>
</a>
</g>
</g>
<!-- Node14&#45;&gt;Node5 -->
<g id="edge17_Node000014_Node000005" class="edge">
<title>Node14&#45;&gt;Node5</title>
<g id="a_edge17_Node000014_Node000005"><a xlink:title=" ">
<path fill="none" stroke="#63b8ff" d="M753.92,-121.67C756.38,-108.05 758.8,-81.7 745,-66.5 722.59,-41.82 638.03,-28.56 575.36,-21.97"/>
<polygon fill="#63b8ff" stroke="#63b8ff" points="576.02,-18.41 565.72,-20.89 575.32,-25.38 576.02,-18.41"/>
</a>
</g>
</g>
<!-- Node14&#45;&gt;Node12 -->
<g id="edge18_Node000014_Node000012" class="edge">
<title>Node14&#45;&gt;Node12</title>
<g id="a_edge18_Node000014_Node000012"><a xlink:title=" ">
<path fill="none" stroke="#63b8ff" d="M816.87,-129.01C853.14,-124.86 896.61,-113.73 925,-85.75 936.71,-74.2 941.41,-56.18 943.2,-41.39"/>
<polygon fill="#63b8ff" stroke="#63b8ff" points="946.74,-42.12 944.08,-31.86 939.76,-41.54 946.74,-42.12"/>
</a>
</g>
</g>
<!-- Node15 -->
<g id="Node000015" class="node">
<title>Node15</title>
<g id="a_Node000015"><a xlink:title=" ">
<polygon fill="#e0e0e0" stroke="#999999" points="736.12,-85.75 663.88,-85.75 663.88,-66.5 736.12,-66.5 736.12,-85.75"/>
<text text-anchor="middle" x="700" y="-72.25" font-family="Helvetica,sans-Serif" font-size="10.00">Eigen/Dense</text>
</a>
</g>
</g>
<!-- Node14&#45;&gt;Node15 -->
<g id="edge16_Node000014_Node000015" class="edge">
<title>Node14&#45;&gt;Node15</title>
<g id="a_edge16_Node000014_Node000015"><a xlink:title=" ">
<path fill="none" stroke="#63b8ff" d="M743.41,-121.58C736.08,-114.07 725.33,-103.06 716.36,-93.88"/>
<polygon fill="#63b8ff" stroke="#63b8ff" points="719.26,-91.82 709.77,-87.11 714.26,-96.71 719.26,-91.82"/>
</a>
</g>
</g>
<!-- Node16 -->
<g id="Node000016" class="node">
<title>Node16</title>
<g id="a_Node000016"><a xlink:title=" ">
<polygon fill="#e0e0e0" stroke="#999999" points="645.62,-85.75 528.38,-85.75 528.38,-66.5 645.62,-66.5 645.62,-85.75"/>
<text text-anchor="middle" x="587" y="-72.25" font-family="Helvetica,sans-Serif" font-size="10.00">boost/preprocessor.hpp</text>
</a>
</g>
</g>
<!-- Node14&#45;&gt;Node16 -->
<g id="edge19_Node000014_Node000016" class="edge">
<title>Node14&#45;&gt;Node16</title>
<g id="a_edge19_Node000014_Node000016"><a xlink:title=" ">
<path fill="none" stroke="#63b8ff" d="M724.01,-121.34C696.87,-112.58 655.48,-99.23 625.3,-89.48"/>
<polygon fill="#63b8ff" stroke="#63b8ff" points="626.72,-85.94 616.13,-86.2 624.57,-92.6 626.72,-85.94"/>
</a>
</g>
</g>
<!-- Node17 -->
<g id="Node000017" class="node">
<title>Node17</title>
<g id="a_Node000017"><a xlink:title=" ">
<polygon fill="#e0e0e0" stroke="#999999" points="850.38,-85.75 791.62,-85.75 791.62,-66.5 850.38,-66.5 850.38,-85.75"/>
<text text-anchor="middle" x="821" y="-72.25" font-family="Helvetica,sans-Serif" font-size="10.00">stdexcept</text>
</a>
</g>
</g>
<!-- Node14&#45;&gt;Node17 -->
<g id="edge20_Node000014_Node000017" class="edge">
<title>Node14&#45;&gt;Node17</title>
<g id="a_edge20_Node000014_Node000017"><a xlink:title=" ">
<path fill="none" stroke="#63b8ff" d="M763.7,-121.34C773.88,-113.49 788.83,-101.95 800.92,-92.62"/>
<polygon fill="#63b8ff" stroke="#63b8ff" points="802.69,-94.91 808.47,-86.02 798.41,-89.36 802.69,-94.91"/>
</a>
</g>
</g>
<!-- Node18 -->
<g id="Node000018" class="node">
<title>Node18</title>
<g id="a_Node000018"><a xlink:href="_state_8h.html" target="_top" xlink:title="SPICE Interface functions.">
<polygon fill="white" stroke="#666666" points="915.75,-85.75 868.25,-85.75 868.25,-66.5 915.75,-66.5 915.75,-85.75"/>
<text text-anchor="middle" x="892" y="-72.25" font-family="Helvetica,sans-Serif" font-size="10.00">State.h</text>
</a>
</g>
</g>
<!-- Node14&#45;&gt;Node18 -->
<g id="edge21_Node000014_Node000018" class="edge">
<title>Node14&#45;&gt;Node18</title>
<g id="a_edge21_Node000014_Node000018"><a xlink:title=" ">
<path fill="none" stroke="#63b8ff" d="M775.75,-121.34C798.38,-112.74 832.67,-99.69 858.16,-90"/>
<polygon fill="#63b8ff" stroke="#63b8ff" points="859.03,-93.03 867.13,-86.2 856.54,-86.49 859.03,-93.03"/>
</a>
</g>
</g>
<!-- Node18&#45;&gt;Node5 -->
<g id="edge22_Node000018_Node000005" class="edge">
<title>Node18&#45;&gt;Node5</title>
<g id="a_edge22_Node000018_Node000005"><a xlink:title=" ">
<path fill="none" stroke="#63b8ff" d="M867.92,-68.49C864.93,-67.77 861.9,-67.08 859,-66.5 761.62,-46.95 647.72,-32.25 575.73,-23.95"/>
<polygon fill="#63b8ff" stroke="#63b8ff" points="576.31,-20.38 565.98,-22.72 575.52,-27.33 576.31,-20.38"/>
</a>
</g>
</g>
<!-- Node18&#45;&gt;Node12 -->
<g id="edge23_Node000018_Node000012" class="edge">
<title>Node18&#45;&gt;Node12</title>
<g id="a_edge23_Node000018_Node000012"><a xlink:title=" ">
<path fill="none" stroke="#63b8ff" d="M899.9,-66.18C906.31,-58.92 915.65,-48.35 924.08,-38.8"/>
<polygon fill="#63b8ff" stroke="#63b8ff" points="926.17,-41.59 930.16,-31.78 920.92,-36.96 926.17,-41.59"/>
</a>
</g>
</g>
<!-- Node19 -->
<g id="Node000019" class="node">
<title>Node19</title>
<g id="a_Node000019"><a xlink:title=" ">
<polygon fill="#e0e0e0" stroke="#999999" points="874.5,-24.88 831.5,-24.88 831.5,-5.63 874.5,-5.63 874.5,-24.88"/>
<text text-anchor="middle" x="853" y="-11.38" font-family="Helvetica,sans-Serif" font-size="10.00">vector</text>
</a>
</g>
</g>
<!-- Node18&#45;&gt;Node19 -->
<g id="edge24_Node000018_Node000019" class="edge">
<title>Node18&#45;&gt;Node19</title>
<g id="a_edge24_Node000018_Node000019"><a xlink:title=" ">
<path fill="none" stroke="#63b8ff" d="M886.08,-66.18C880.46,-57.71 871.87,-44.74 864.85,-34.14"/>
<polygon fill="#63b8ff" stroke="#63b8ff" points="867.42,-32.68 858.98,-26.28 861.58,-36.55 867.42,-32.68"/>
</a>
</g>
</g>
<!-- Node20&#45;&gt;Node3 -->
<g id="edge26_Node000020_Node000003" class="edge">
<title>Node20&#45;&gt;Node3</title>
<g id="a_edge26_Node000020_Node000003"><a xlink:title=" ">
<path fill="none" stroke="#63b8ff" d="M526.06,-180.18C468.2,-169.66 381.69,-153.94 323.86,-143.43"/>
<polygon fill="#63b8ff" stroke="#63b8ff" points="324.51,-139.81 314.05,-141.47 323.26,-146.7 324.51,-139.81"/>
</a>
</g>
</g>
<!-- Node20&#45;&gt;Node5 -->
<g id="edge29_Node000020_Node000005" class="edge">
<title>Node20&#45;&gt;Node5</title>
<g id="a_edge29_Node000020_Node000005"><a xlink:title=" ">
<path fill="none" stroke="#63b8ff" d="M575.27,-176.83C560.01,-157.35 533.59,-120.98 519,-85.75 512.29,-69.53 508.4,-49.89 506.28,-35.63"/>
<polygon fill="#63b8ff" stroke="#63b8ff" points="509.67,-35.56 504.88,-26.11 502.73,-36.48 509.67,-35.56"/>
</a>
</g>
</g>
<!-- Node20&#45;&gt;Node12 -->
<g id="edge30_Node000020_Node000012" class="edge">
<title>Node20&#45;&gt;Node12</title>
<g id="a_edge30_Node000020_Node000012"><a xlink:title=" ">
<path fill="none" stroke="#63b8ff" d="M647.88,-182.87C741.16,-168.56 912.05,-135.99 944,-85.75 952.28,-72.74 952.29,-55.39 950.22,-41.28"/>
<polygon fill="#63b8ff" stroke="#63b8ff" points="953.54,-40.98 948.24,-31.81 946.66,-42.28 953.54,-40.98"/>
</a>
</g>
</g>
<!-- Node20&#45;&gt;Node14 -->
<g id="edge27_Node000020_Node000014" class="edge">
<title>Node20&#45;&gt;Node14</title>
<g id="a_edge27_Node000020_Node000014"><a xlink:title=" ">
<path fill="none" stroke="#63b8ff" d="M628.21,-176.55C655.39,-166.85 690.63,-154.27 716.56,-145.02"/>
<polygon fill="#63b8ff" stroke="#63b8ff" points="717.45,-148.06 725.7,-141.4 715.1,-141.47 717.45,-148.06"/>
</a>
</g>
</g>
<!-- Node20&#45;&gt;Node15 -->
<g id="edge28_Node000020_Node000015" class="edge">
<title>Node20&#45;&gt;Node15</title>
<g id="a_edge28_Node000020_Node000015"><a xlink:title=" ">
<path fill="none" stroke="#63b8ff" d="M601.31,-176.8C622.27,-155.63 661.22,-116.29 683.41,-93.88"/>
<polygon fill="#63b8ff" stroke="#63b8ff" points="685.47,-96.77 690.02,-87.2 680.49,-91.84 685.47,-96.77"/>
</a>
</g>
</g>
<!-- Node20&#45;&gt;Node16 -->
<g id="edge31_Node000020_Node000016" class="edge">
<title>Node20&#45;&gt;Node16</title>
<g id="a_edge31_Node000020_Node000016"><a xlink:title=" ">
<path fill="none" stroke="#63b8ff" d="M587,-176.8C587,-156.56 587,-119.72 587,-96.94"/>
<polygon fill="#63b8ff" stroke="#63b8ff" points="590.5,-97.2 587,-87.2 583.5,-97.2 590.5,-97.2"/>
</a>
</g>
</g>
</g>
</svg>

<g id="navigator" transform="translate(0 0)" fill="#404254">
  <rect fill="#f2f5e9" fill-opacity="0.5" stroke="#606060" stroke-width=".5" x="0" y="0" width="60" height="60"/>
  <use id="zoomplus" xlink:href="#zoomPlus" x="17" y="9" onmousedown="handleZoom(evt,'in')"/>
  <use id="zoomminus" xlink:href="#zoomMin" x="42" y="9" onmousedown="handleZoom(evt,'out')"/>
  <use id="reset" xlink:href="#resetDef" x="30" y="36" onmousedown="handleReset()"/>
   <use id="arrowup" xlink:href="#arrowUp" x="0" y="0" onmousedown="handlePan(0,-1)"/>
  <use id="arrowright" xlink:href="#arrowRight" x="0" y="0" onmousedown="handlePan(1,0)"/>
  <use id="arrowdown" xlink:href="#arrowDown" x="0" y="0" onmousedown="handlePan(0,1)"/>
  <use id="arrowleft" xlink:href="#arrowLeft" x="0" y="0" onmousedown="handlePan(-1,0)"/>
</g>
<svg viewBox="0 0 15 15" width="100%" height="30px" preserveAspectRatio="xMaxYMin meet">
 <g id="arrow_out" transform="scale(0.3 0.3)">
  <a xlink:href="_lunar_mean_osc_8cpp__incl_org.svg" target="_base">
   <rect id="button" ry="5" rx="5" y="6" x="6" height="38" width="38"
        fill="#f2f5e9" fill-opacity="0.5" stroke="#606060" stroke-width="1.0"/>
   <path id="arrow"
     d="M 11.500037,31.436501 C 11.940474,20.09759 22.043105,11.32322 32.158766,21.979434 L 37.068811,17.246167 C 37.068811,17.246167 37.088388,32 37.088388,32 L 22.160133,31.978069 C 22.160133,31.978069 26.997745,27.140456 26.997745,27.140456 C 18.528582,18.264221 13.291696,25.230495 11.500037,31.436501 z"
     style="fill:#404040;"/>
  </a>
 </g>
</svg>

<style type='text/css'>
<![CDATA[
[data-mouse-over-selected='false'] { opacity: 0.7; }
[data-mouse-over-selected='true']  { opacity: 1.0; }
]]>
</style>
<script type="application/ecmascript"><![CDATA[
document.addEventListener('DOMContentLoaded', (event) => {
  highlightEdges();
  highlightAdjacentNodes();
});
]]></script>
</svg>
