<?xml version="1.0" encoding="UTF-8" standalone="no"?>
<!DOCTYPE svg PUBLIC "-//W3C//DTD SVG 1.1//EN"
 "http://www.w3.org/Graphics/SVG/1.1/DTD/svg11.dtd">
<!-- Generated by graphviz version 8.1.0 (20230707.0739)
 -->
<!-- Title: LPT::norm Pages: 1 -->
<svg width="156pt" height="45pt"
 viewBox="0.00 0.00 156.25 45.25" xmlns="http://www.w3.org/2000/svg" xmlns:xlink="http://www.w3.org/1999/xlink">
<g id="graph0" class="graph" transform="scale(1 1) rotate(0) translate(4 41.25)">
<title>LPT::norm</title>
<!-- Node1 -->
<g id="Node000001" class="node">
<title>Node1</title>
<g id="a_Node000001"><a xlink:title="Calculate the 2&#45;norm of ad::vector.">
<polygon fill="#999999" stroke="#666666" points="60.25,-19.25 0,-19.25 0,0 60.25,0 60.25,-19.25"/>
<text text-anchor="middle" x="30.12" y="-5.75" font-family="Helvetica,sans-Serif" font-size="10.00">LPT::norm</text>
</a>
</g>
</g>
<!-- Node1&#45;&gt;Node1 -->
<g id="edge3_Node000001_Node000001" class="edge">
<title>Node1&#45;&gt;Node1</title>
<g id="a_edge3_Node000001_Node000001"><a xlink:title=" ">
<path fill="none" stroke="#63b8ff" d="M15.7,-19.54C9.12,-28.15 13.93,-37.25 30.12,-37.25 39.23,-37.25 44.74,-34.37 46.64,-30.32"/>
<polygon fill="#63b8ff" stroke="#63b8ff" points="49.89,-29.69 44.55,-20.54 43.02,-31.02 49.89,-29.69"/>
</a>
</g>
</g>
<!-- Node2 -->
<g id="Node000002" class="node">
<title>Node2</title>
<g id="a_Node000002"><a xlink:href="_math_utils_8cpp.html#ae2a720fd8e16772da7b293bb5e1be510" target="_top" xlink:title="Calculate the dot product of two ad vectors.">
<polygon fill="white" stroke="#666666" points="148.25,-19.25 96.25,-19.25 96.25,0 148.25,0 148.25,-19.25"/>
<text text-anchor="middle" x="122.25" y="-5.75" font-family="Helvetica,sans-Serif" font-size="10.00">LPT::dot</text>
</a>
</g>
</g>
<!-- Node1&#45;&gt;Node2 -->
<g id="edge1_Node000001_Node000002" class="edge">
<title>Node1&#45;&gt;Node2</title>
<g id="a_edge1_Node000001_Node000002"><a xlink:title=" ">
<path fill="none" stroke="#63b8ff" d="M60.64,-9.62C68.47,-9.62 77.02,-9.62 85.16,-9.62"/>
<polygon fill="#63b8ff" stroke="#63b8ff" points="84.91,-13.13 94.91,-9.62 84.91,-6.13 84.91,-13.13"/>
</a>
</g>
</g>
<!-- Node2&#45;&gt;Node2 -->
<g id="edge2_Node000002_Node000002" class="edge">
<title>Node2&#45;&gt;Node2</title>
<g id="a_edge2_Node000002_Node000002"><a xlink:title=" ">
<path fill="none" stroke="#63b8ff" d="M107.83,-19.54C101.25,-28.15 106.06,-37.25 122.25,-37.25 131.36,-37.25 136.87,-34.37 138.77,-30.32"/>
<polygon fill="#63b8ff" stroke="#63b8ff" points="142.02,-29.69 136.67,-20.54 135.15,-31.02 142.02,-29.69"/>
</a>
</g>
</g>
</g>
</svg>
