<?xml version="1.0" encoding="UTF-8" standalone="no"?>
<!DOCTYPE svg PUBLIC "-//W3C//DTD SVG 1.1//EN"
 "http://www.w3.org/Graphics/SVG/1.1/DTD/svg11.dtd">
<!-- Generated by graphviz version 8.1.0 (20230707.0739)
 -->
<!-- Title: MathUtils.h Pages: 1 -->
<svg width="316pt" height="94pt"
 viewBox="0.00 0.00 315.62 93.75" xmlns="http://www.w3.org/2000/svg" xmlns:xlink="http://www.w3.org/1999/xlink">

<svg id="main" version="1.1" xmlns="http://www.w3.org/2000/svg" xmlns:xlink="http://www.w3.org/1999/xlink" xml:space="preserve" onload="init(evt)">
<style type="text/css"><![CDATA[
.node, .edge {opacity: 0.7;}
.node.selected, .edge.selected {opacity: 1;}
.edge:hover path { stroke: red; }
.edge:hover polygon { stroke: red; fill: red; }
]]></style>
<script type="application/ecmascript" xlink:href="svg.min.js"/>
<svg id="graph" class="graph">
<g id="graph0" class="graph" transform="scale(1 1) rotate(0) translate(4 89.75)">
<title>MathUtils.h</title>
<!-- Node1 -->
<g id="Node000001" class="node">
<title>Node1</title>
<g id="a_Node000001"><a xlink:title=" ">
<polygon fill="#999999" stroke="#666666" points="223.62,-85.75 157.38,-85.75 157.38,-66.5 223.62,-66.5 223.62,-85.75"/>
<text text-anchor="middle" x="190.5" y="-72.25" font-family="Helvetica,sans-Serif" font-size="10.00">MathUtils.h</text>
</a>
</g>
</g>
<!-- Node2 -->
<g id="Node000002" class="node">
<title>Node2</title>
<g id="a_Node000002"><a xlink:title=" ">
<polygon fill="#e0e0e0" stroke="#999999" points="121,-24.88 0,-24.88 0,-5.63 121,-5.63 121,-24.88"/>
<text text-anchor="middle" x="60.5" y="-11.38" font-family="Helvetica,sans-Serif" font-size="10.00">autodiff/forward/real.hpp</text>
</a>
</g>
</g>
<!-- Node1&#45;&gt;Node2 -->
<g id="edge1_Node000001_Node000002" class="edge">
<title>Node1&#45;&gt;Node2</title>
<g id="a_edge1_Node000001_Node000002"><a xlink:title=" ">
<path fill="none" stroke="#63b8ff" d="M170.47,-66.05C149.03,-56.35 114.79,-40.84 90.21,-29.71"/>
<polygon fill="#63b8ff" stroke="#63b8ff" points="91.89,-26.17 81.34,-25.23 89,-32.55 91.89,-26.17"/>
</a>
</g>
</g>
<!-- Node3 -->
<g id="Node000003" class="node">
<title>Node3</title>
<g id="a_Node000003"><a xlink:title=" ">
<polygon fill="#e0e0e0" stroke="#999999" points="241.62,-30.5 139.38,-30.5 139.38,0 241.62,0 241.62,-30.5"/>
<text text-anchor="start" x="147.38" y="-17" font-family="Helvetica,sans-Serif" font-size="10.00">autodiff/forward/real</text>
<text text-anchor="middle" x="190.5" y="-5.75" font-family="Helvetica,sans-Serif" font-size="10.00">/eigen.hpp</text>
</a>
</g>
</g>
<!-- Node1&#45;&gt;Node3 -->
<g id="edge2_Node000001_Node000003" class="edge">
<title>Node1&#45;&gt;Node3</title>
<g id="a_edge2_Node000001_Node000003"><a xlink:title=" ">
<path fill="none" stroke="#63b8ff" d="M190.5,-66.18C190.5,-59.65 190.5,-50.45 190.5,-41.72"/>
<polygon fill="#63b8ff" stroke="#63b8ff" points="194,-41.78 190.5,-31.78 187,-41.78 194,-41.78"/>
</a>
</g>
</g>
<!-- Node4 -->
<g id="Node000004" class="node">
<title>Node4</title>
<g id="a_Node000004"><a xlink:title=" ">
<polygon fill="#e0e0e0" stroke="#999999" points="307.62,-24.88 259.38,-24.88 259.38,-5.63 307.62,-5.63 307.62,-24.88"/>
<text text-anchor="middle" x="283.5" y="-11.38" font-family="Helvetica,sans-Serif" font-size="10.00">random</text>
</a>
</g>
</g>
<!-- Node1&#45;&gt;Node4 -->
<g id="edge3_Node000001_Node000004" class="edge">
<title>Node1&#45;&gt;Node4</title>
<g id="a_edge3_Node000001_Node000004"><a xlink:title=" ">
<path fill="none" stroke="#63b8ff" d="M204.62,-66.18C219.37,-56.85 242.75,-42.05 260.23,-30.98"/>
<polygon fill="#63b8ff" stroke="#63b8ff" points="261.67,-33.58 268.24,-25.28 257.92,-27.67 261.67,-33.58"/>
</a>
</g>
</g>
</g>
</svg>
</svg>

<style type='text/css'>
<![CDATA[
[data-mouse-over-selected='false'] { opacity: 0.7; }
[data-mouse-over-selected='true']  { opacity: 1.0; }
]]>
</style>
<script type="application/ecmascript"><![CDATA[
document.addEventListener('DOMContentLoaded', (event) => {
  highlightEdges();
  highlightAdjacentNodes();
});
]]></script>
</svg>
