<?xml version="1.0" encoding="UTF-8" standalone="no"?>
<!DOCTYPE svg PUBLIC "-//W3C//DTD SVG 1.1//EN"
 "http://www.w3.org/Graphics/SVG/1.1/DTD/svg11.dtd">
<!-- Generated by graphviz version 8.1.0 (20230707.0739)
 -->
<!-- Title: NBodyDynamics.cpp Pages: 1 -->
<svg width="1761pt" height="260pt"
 viewBox="0.00 0.00 1760.60 259.50" xmlns="http://www.w3.org/2000/svg" xmlns:xlink="http://www.w3.org/1999/xlink">
<g id="graph0" class="graph" transform="scale(1 1) rotate(0) translate(4 255.5)">
<title>NBodyDynamics.cpp</title>
<!-- Node1 -->
<g id="Node000001" class="node">
<title>Node1</title>
<g id="a_Node000001"><a xlink:title="Multiple&#45;body dynamics.">
<polygon fill="#999999" stroke="#666666" points="835.22,-251.5 726.22,-251.5 726.22,-232.25 835.22,-232.25 835.22,-251.5"/>
<text text-anchor="middle" x="780.72" y="-238" font-family="Helvetica,sans-Serif" font-size="10.00">NBodyDynamics.cpp</text>
</a>
</g>
</g>
<!-- Node2 -->
<g id="Node000002" class="node">
<title>Node2</title>
<g id="a_Node000002"><a xlink:title=" ">
<polygon fill="#e0e0e0" stroke="#999999" points="527.22,-24.88 406.22,-24.88 406.22,-5.63 527.22,-5.63 527.22,-24.88"/>
<text text-anchor="middle" x="466.72" y="-11.38" font-family="Helvetica,sans-Serif" font-size="10.00">autodiff/forward/real.hpp</text>
</a>
</g>
</g>
<!-- Node1&#45;&gt;Node2 -->
<g id="edge1_Node000001_Node000002" class="edge">
<title>Node1&#45;&gt;Node2</title>
<g id="a_edge1_Node000001_Node000002"><a xlink:title=" ">
<path fill="none" stroke="#63b8ff" d="M725.88,-240.53C558.65,-238.02 62.94,-219.28 3.72,-85.75 0.26,-77.93 -1.99,-72.87 3.72,-66.5 29.34,-37.95 271.41,-24.11 394.94,-18.87"/>
<polygon fill="#63b8ff" stroke="#63b8ff" points="394.95,-22.33 404.79,-18.41 394.65,-15.33 394.95,-22.33"/>
</a>
</g>
</g>
<!-- Node3 -->
<g id="Node000003" class="node">
<title>Node3</title>
<g id="a_Node000003"><a xlink:href="_dynamics_8h.html" target="_top" xlink:title="Interface for Dynamics.">
<polygon fill="white" stroke="#666666" points="540.97,-196.25 472.47,-196.25 472.47,-177 540.97,-177 540.97,-196.25"/>
<text text-anchor="middle" x="506.72" y="-182.75" font-family="Helvetica,sans-Serif" font-size="10.00">Dynamics.h</text>
</a>
</g>
</g>
<!-- Node1&#45;&gt;Node3 -->
<g id="edge2_Node000001_Node000003" class="edge">
<title>Node1&#45;&gt;Node3</title>
<g id="a_edge2_Node000001_Node000003"><a xlink:title=" ">
<path fill="none" stroke="#63b8ff" d="M733.93,-231.78C682.95,-221.87 601.98,-206.14 551.72,-196.37"/>
<polygon fill="#63b8ff" stroke="#63b8ff" points="552.66,-192.79 542.17,-194.32 551.32,-199.66 552.66,-192.79"/>
</a>
</g>
</g>
<!-- Node4 -->
<g id="Node000004" class="node">
<title>Node4</title>
<g id="a_Node000004"><a xlink:href="_gravity_field_8h.html" target="_top" xlink:title="Gravity field model and acceleration calculation.">
<polygon fill="white" stroke="#666666" points="1201.6,-141 1055.85,-141 1055.85,-121.75 1201.6,-121.75 1201.6,-141"/>
<text text-anchor="middle" x="1128.72" y="-127.5" font-family="Helvetica,sans-Serif" font-size="10.00">lupnt/dynamics/GravityField.h</text>
</a>
</g>
</g>
<!-- Node1&#45;&gt;Node4 -->
<g id="edge47_Node000001_Node000004" class="edge">
<title>Node1&#45;&gt;Node4</title>
<g id="a_edge47_Node000001_Node000004"><a xlink:title=" ">
<path fill="none" stroke="#63b8ff" d="M809.8,-231.81C872.1,-212.38 1018.57,-166.72 1089.23,-144.69"/>
<polygon fill="#63b8ff" stroke="#63b8ff" points="1089.99,-147.81 1098.49,-141.49 1087.9,-141.12 1089.99,-147.81"/>
</a>
</g>
</g>
<!-- Node25 -->
<g id="Node000025" class="node">
<title>Node25</title>
<g id="a_Node000025"><a xlink:href="_constants_8h.html" target="_top" xlink:title="List of constants.">
<polygon fill="white" stroke="#666666" points="1465.22,-141 1350.22,-141 1350.22,-121.75 1465.22,-121.75 1465.22,-141"/>
<text text-anchor="middle" x="1407.72" y="-127.5" font-family="Helvetica,sans-Serif" font-size="10.00">lupnt/core/Constants.h</text>
</a>
</g>
</g>
<!-- Node1&#45;&gt;Node25 -->
<g id="edge42_Node000001_Node000025" class="edge">
<title>Node1&#45;&gt;Node25</title>
<g id="a_edge42_Node000001_Node000025"><a xlink:title=" ">
<path fill="none" stroke="#63b8ff" d="M833.37,-231.76C948.12,-211.91 1220.36,-164.8 1344.3,-143.35"/>
<polygon fill="#63b8ff" stroke="#63b8ff" points="1344.85,-146.63 1354.11,-141.48 1343.66,-139.74 1344.85,-146.63"/>
</a>
</g>
</g>
<!-- Node27 -->
<g id="Node000027" class="node">
<title>Node27</title>
<g id="a_Node000027"><a xlink:href="_spice_interface_8h.html" target="_top" xlink:title="SPICE Interface functions.">
<polygon fill="white" stroke="#666666" points="854.72,-196.25 706.72,-196.25 706.72,-177 854.72,-177 854.72,-196.25"/>
<text text-anchor="middle" x="780.72" y="-182.75" font-family="Helvetica,sans-Serif" font-size="10.00">lupnt/physics/SpiceInterface.h</text>
</a>
</g>
</g>
<!-- Node1&#45;&gt;Node27 -->
<g id="edge48_Node000001_Node000027" class="edge">
<title>Node1&#45;&gt;Node27</title>
<g id="a_edge48_Node000001_Node000027"><a xlink:title=" ">
<path fill="none" stroke="#63b8ff" d="M780.72,-232.08C780.72,-225.42 780.72,-215.99 780.72,-207.53"/>
<polygon fill="#63b8ff" stroke="#63b8ff" points="784.22,-207.61 780.72,-197.61 777.22,-207.61 784.22,-207.61"/>
</a>
</g>
</g>
<!-- Node3&#45;&gt;Node2 -->
<g id="edge3_Node000003_Node000002" class="edge">
<title>Node3&#45;&gt;Node2</title>
<g id="a_edge3_Node000003_Node000002"><a xlink:title=" ">
<path fill="none" stroke="#63b8ff" d="M472.2,-184.3C369.36,-179.54 68.67,-159.45 12.72,-85.75 -34.42,-23.64 255.45,-15.87 394.91,-15.66"/>
<polygon fill="#63b8ff" stroke="#63b8ff" points="394.9,-19.16 404.9,-15.66 394.9,-12.16 394.9,-19.16"/>
</a>
</g>
</g>
<!-- Node3&#45;&gt;Node4 -->
<g id="edge4_Node000003_Node000004" class="edge">
<title>Node3&#45;&gt;Node4</title>
<g id="a_edge4_Node000003_Node000004"><a xlink:title=" ">
<path fill="none" stroke="#63b8ff" d="M541.05,-182.69C636.33,-174.53 906.14,-151.43 1044.55,-139.58"/>
<polygon fill="#63b8ff" stroke="#63b8ff" points="1044.84,-142.98 1054.5,-138.64 1044.24,-136.01 1044.84,-142.98"/>
</a>
</g>
</g>
<!-- Node17 -->
<g id="Node000017" class="node">
<title>Node17</title>
<g id="a_Node000017"><a xlink:href="_propagator_8h.html" target="_top" xlink:title="Numerical Propagator.">
<polygon fill="white" stroke="#666666" points="674.6,-141 534.85,-141 534.85,-121.75 674.6,-121.75 674.6,-141"/>
<text text-anchor="middle" x="604.72" y="-127.5" font-family="Helvetica,sans-Serif" font-size="10.00">lupnt/dynamics/Propagator.h</text>
</a>
</g>
</g>
<!-- Node3&#45;&gt;Node17 -->
<g id="edge22_Node000003_Node000017" class="edge">
<title>Node3&#45;&gt;Node17</title>
<g id="a_edge22_Node000003_Node000017"><a xlink:title=" ">
<path fill="none" stroke="#63b8ff" d="M523.35,-176.59C538.41,-168.41 560.87,-156.21 578.37,-146.69"/>
<polygon fill="#63b8ff" stroke="#63b8ff" points="579.9,-149.3 587.02,-141.45 576.56,-143.15 579.9,-149.3"/>
</a>
</g>
</g>
<!-- Node19 -->
<g id="Node000019" class="node">
<title>Node19</title>
<g id="a_Node000019"><a xlink:href="_integrator_8h.html" target="_top" xlink:title="Integrator interfaces.">
<polygon fill="white" stroke="#666666" points="605.47,-85.75 473.97,-85.75 473.97,-66.5 605.47,-66.5 605.47,-85.75"/>
<text text-anchor="middle" x="539.72" y="-72.25" font-family="Helvetica,sans-Serif" font-size="10.00">lupnt/numerics/Integrator.h</text>
</a>
</g>
</g>
<!-- Node3&#45;&gt;Node19 -->
<g id="edge30_Node000003_Node000019" class="edge">
<title>Node3&#45;&gt;Node19</title>
<g id="a_edge30_Node000003_Node000019"><a xlink:title=" ">
<path fill="none" stroke="#63b8ff" d="M509.39,-176.52C513.02,-164.11 519.77,-141.22 525.72,-121.75 528.27,-113.4 531.15,-104.2 533.63,-96.33"/>
<polygon fill="#63b8ff" stroke="#63b8ff" points="537.22,-97.59 536.9,-87 530.54,-95.48 537.22,-97.59"/>
</a>
</g>
</g>
<!-- Node20 -->
<g id="Node000020" class="node">
<title>Node20</title>
<g id="a_Node000020"><a xlink:href="_orbit_state_8h.html" target="_top" xlink:title="Orbit states.">
<polygon fill="white" stroke="#666666" points="349.35,-141 220.1,-141 220.1,-121.75 349.35,-121.75 349.35,-141"/>
<text text-anchor="middle" x="284.72" y="-127.5" font-family="Helvetica,sans-Serif" font-size="10.00">lupnt/physics/OrbitState.h</text>
</a>
</g>
</g>
<!-- Node3&#45;&gt;Node20 -->
<g id="edge31_Node000003_Node000020" class="edge">
<title>Node3&#45;&gt;Node20</title>
<g id="a_edge31_Node000003_Node000020"><a xlink:title=" ">
<path fill="none" stroke="#63b8ff" d="M472.04,-177.3C434.68,-168.34 374.97,-154.02 333.03,-143.96"/>
<polygon fill="#63b8ff" stroke="#63b8ff" points="334.05,-140.37 323.51,-141.44 332.42,-147.17 334.05,-140.37"/>
</a>
</g>
</g>
<!-- Node24 -->
<g id="Node000024" class="node">
<title>Node24</title>
<g id="a_Node000024"><a xlink:href="_state_8h.html" target="_top" xlink:title="SPICE Interface functions.">
<polygon fill="white" stroke="#666666" points="417.47,-85.75 369.97,-85.75 369.97,-66.5 417.47,-66.5 417.47,-85.75"/>
<text text-anchor="middle" x="393.72" y="-72.25" font-family="Helvetica,sans-Serif" font-size="10.00">State.h</text>
</a>
</g>
</g>
<!-- Node3&#45;&gt;Node24 -->
<g id="edge41_Node000003_Node000024" class="edge">
<title>Node3&#45;&gt;Node24</title>
<g id="a_edge41_Node000003_Node000024"><a xlink:title=" ">
<path fill="none" stroke="#63b8ff" d="M497.48,-176.75C478.52,-158.55 435.01,-116.77 410.79,-93.51"/>
<polygon fill="#63b8ff" stroke="#63b8ff" points="413.74,-91.53 404.1,-87.13 408.89,-96.58 413.74,-91.53"/>
</a>
</g>
</g>
<!-- Node4&#45;&gt;Node2 -->
<g id="edge11_Node000004_Node000002" class="edge">
<title>Node4&#45;&gt;Node2</title>
<g id="a_edge11_Node000004_Node000002"><a xlink:title=" ">
<path fill="none" stroke="#63b8ff" d="M1055.58,-123.13C987.25,-115.79 882.58,-103.04 792.72,-85.75 758.51,-79.17 750.7,-74.21 716.72,-66.5 651.97,-51.8 577.27,-37.08 526.51,-27.4"/>
<polygon fill="#63b8ff" stroke="#63b8ff" points="527.22,-23.78 516.74,-25.36 525.91,-30.66 527.22,-23.78"/>
</a>
</g>
</g>
<!-- Node5 -->
<g id="Node000005" class="node">
<title>Node5</title>
<g id="a_Node000005"><a xlink:title=" ">
<polygon fill="#e0e0e0" stroke="#999999" points="1128.6,-85.75 1072.85,-85.75 1072.85,-66.5 1128.6,-66.5 1128.6,-85.75"/>
<text text-anchor="middle" x="1100.72" y="-72.25" font-family="Helvetica,sans-Serif" font-size="10.00">algorithm</text>
</a>
</g>
</g>
<!-- Node4&#45;&gt;Node5 -->
<g id="edge5_Node000004_Node000005" class="edge">
<title>Node4&#45;&gt;Node5</title>
<g id="a_edge5_Node000004_Node000005"><a xlink:title=" ">
<path fill="none" stroke="#63b8ff" d="M1124.1,-121.58C1120.39,-114.53 1115.06,-104.4 1110.43,-95.58"/>
<polygon fill="#63b8ff" stroke="#63b8ff" points="1113.2,-94.33 1105.45,-87.11 1107,-97.59 1113.2,-94.33"/>
</a>
</g>
</g>
<!-- Node6 -->
<g id="Node000006" class="node">
<title>Node6</title>
<g id="a_Node000006"><a xlink:title=" ">
<polygon fill="#e0e0e0" stroke="#999999" points="1234.22,-85.75 1185.22,-85.75 1185.22,-66.5 1234.22,-66.5 1234.22,-85.75"/>
<text text-anchor="middle" x="1209.72" y="-72.25" font-family="Helvetica,sans-Serif" font-size="10.00">fstream</text>
</a>
</g>
</g>
<!-- Node4&#45;&gt;Node6 -->
<g id="edge6_Node000004_Node000006" class="edge">
<title>Node4&#45;&gt;Node6</title>
<g id="a_edge6_Node000004_Node000006"><a xlink:title=" ">
<path fill="none" stroke="#63b8ff" d="M1142.46,-121.34C1154.68,-113.31 1172.78,-101.41 1187.13,-91.98"/>
<polygon fill="#63b8ff" stroke="#63b8ff" points="1188.48,-94.62 1194.92,-86.2 1184.64,-88.77 1188.48,-94.62"/>
</a>
</g>
</g>
<!-- Node7 -->
<g id="Node000007" class="node">
<title>Node7</title>
<g id="a_Node000007"><a xlink:title=" ">
<polygon fill="#e0e0e0" stroke="#999999" points="1358.47,-24.88 1304.97,-24.88 1304.97,-5.63 1358.47,-5.63 1358.47,-24.88"/>
<text text-anchor="middle" x="1331.72" y="-11.38" font-family="Helvetica,sans-Serif" font-size="10.00">iostream</text>
</a>
</g>
</g>
<!-- Node4&#45;&gt;Node7 -->
<g id="edge7_Node000004_Node000007" class="edge">
<title>Node4&#45;&gt;Node7</title>
<g id="a_edge7_Node000004_Node000007"><a xlink:title=" ">
<path fill="none" stroke="#63b8ff" d="M1196.21,-121.3C1241.59,-113.88 1296.04,-101.95 1312.72,-85.75 1326.02,-72.83 1330.29,-51.57 1331.53,-35.96"/>
<polygon fill="#63b8ff" stroke="#63b8ff" points="1335.05,-36.5 1331.98,-26.36 1328.06,-36.2 1335.05,-36.5"/>
</a>
</g>
</g>
<!-- Node8 -->
<g id="Node000008" class="node">
<title>Node8</title>
<g id="a_Node000008"><a xlink:title=" ">
<polygon fill="#e0e0e0" stroke="#999999" points="1303.35,-85.75 1252.1,-85.75 1252.1,-66.5 1303.35,-66.5 1303.35,-85.75"/>
<text text-anchor="middle" x="1277.72" y="-72.25" font-family="Helvetica,sans-Serif" font-size="10.00">sstream</text>
</a>
</g>
</g>
<!-- Node4&#45;&gt;Node8 -->
<g id="edge8_Node000004_Node000008" class="edge">
<title>Node4&#45;&gt;Node8</title>
<g id="a_edge8_Node000004_Node000008"><a xlink:title=" ">
<path fill="none" stroke="#63b8ff" d="M1154,-121.34C1178.19,-112.7 1214.91,-99.57 1242.07,-89.87"/>
<polygon fill="#63b8ff" stroke="#63b8ff" points="1243.09,-92.86 1251.32,-86.2 1240.73,-86.27 1243.09,-92.86"/>
</a>
</g>
</g>
<!-- Node9 -->
<g id="Node000009" class="node">
<title>Node9</title>
<g id="a_Node000009"><a xlink:title=" ">
<polygon fill="#e0e0e0" stroke="#999999" points="1442.72,-24.88 1402.72,-24.88 1402.72,-5.63 1442.72,-5.63 1442.72,-24.88"/>
<text text-anchor="middle" x="1422.72" y="-11.38" font-family="Helvetica,sans-Serif" font-size="10.00">string</text>
</a>
</g>
</g>
<!-- Node4&#45;&gt;Node9 -->
<g id="edge9_Node000004_Node000009" class="edge">
<title>Node4&#45;&gt;Node9</title>
<g id="a_edge9_Node000004_Node000009"><a xlink:title=" ">
<path fill="none" stroke="#63b8ff" d="M1201.65,-122.19C1241.45,-115.81 1290.81,-104.73 1331.72,-85.75 1360.59,-72.36 1388.94,-48.54 1406.13,-32.57"/>
<polygon fill="#63b8ff" stroke="#63b8ff" points="1408.22,-35.46 1413.05,-26.03 1403.39,-30.39 1408.22,-35.46"/>
</a>
</g>
</g>
<!-- Node10 -->
<g id="Node000010" class="node">
<title>Node10</title>
<g id="a_Node000010"><a xlink:title=" ">
<polygon fill="#e0e0e0" stroke="#999999" points="609.22,-24.88 566.22,-24.88 566.22,-5.63 609.22,-5.63 609.22,-24.88"/>
<text text-anchor="middle" x="587.72" y="-11.38" font-family="Helvetica,sans-Serif" font-size="10.00">vector</text>
</a>
</g>
</g>
<!-- Node4&#45;&gt;Node10 -->
<g id="edge10_Node000004_Node000010" class="edge">
<title>Node4&#45;&gt;Node10</title>
<g id="a_edge10_Node000004_Node000010"><a xlink:title=" ">
<path fill="none" stroke="#63b8ff" d="M1055.59,-124.75C995.59,-118.83 908.91,-107.27 835.72,-85.75 815.64,-79.84 812.56,-73.21 792.72,-66.5 726.55,-44.13 707.42,-47.73 639.72,-30.5 633.39,-28.89 626.64,-27.09 620.18,-25.34"/>
<polygon fill="#63b8ff" stroke="#63b8ff" points="621.26,-21.73 610.69,-22.46 619.41,-28.48 621.26,-21.73"/>
</a>
</g>
</g>
<!-- Node11 -->
<g id="Node000011" class="node">
<title>Node11</title>
<g id="a_Node000011"><a xlink:title=" ">
<polygon fill="#e0e0e0" stroke="#999999" points="750.85,-30.5 648.6,-30.5 648.6,0 750.85,0 750.85,-30.5"/>
<text text-anchor="start" x="656.6" y="-17" font-family="Helvetica,sans-Serif" font-size="10.00">autodiff/forward/real</text>
<text text-anchor="middle" x="699.72" y="-5.75" font-family="Helvetica,sans-Serif" font-size="10.00">/eigen.hpp</text>
</a>
</g>
</g>
<!-- Node4&#45;&gt;Node11 -->
<g id="edge12_Node000004_Node000011" class="edge">
<title>Node4&#45;&gt;Node11</title>
<g id="a_edge12_Node000004_Node000011"><a xlink:title=" ">
<path fill="none" stroke="#63b8ff" d="M1133.95,-121.26C1141.02,-107.58 1151.29,-81.71 1137.72,-66.5 1125.36,-52.63 879.73,-30.89 761.84,-21.2"/>
<polygon fill="#63b8ff" stroke="#63b8ff" points="762.43,-17.65 752.18,-20.33 761.86,-24.63 762.43,-17.65"/>
</a>
</g>
</g>
<!-- Node12 -->
<g id="Node000012" class="node">
<title>Node12</title>
<g id="a_Node000012"><a xlink:href="_user_file_path_8h.html" target="_top" xlink:title="File access utils.">
<polygon fill="white" stroke="#666666" points="1601.22,-85.75 1474.22,-85.75 1474.22,-66.5 1601.22,-66.5 1601.22,-85.75"/>
<text text-anchor="middle" x="1537.72" y="-72.25" font-family="Helvetica,sans-Serif" font-size="10.00">lupnt/core/UserFilePath.h</text>
</a>
</g>
</g>
<!-- Node4&#45;&gt;Node12 -->
<g id="edge13_Node000004_Node000012" class="edge">
<title>Node4&#45;&gt;Node12</title>
<g id="a_edge13_Node000004_Node000012"><a xlink:title=" ">
<path fill="none" stroke="#63b8ff" d="M1198.57,-121.28C1272.18,-111.7 1387.69,-96.66 1463.07,-86.84"/>
<polygon fill="#63b8ff" stroke="#63b8ff" points="1463.42,-90.2 1472.89,-85.44 1462.52,-83.26 1463.42,-90.2"/>
</a>
</g>
</g>
<!-- Node15 -->
<g id="Node000015" class="node">
<title>Node15</title>
<g id="a_Node000015"><a xlink:href="_math_utils_8h.html" target="_top" xlink:title=" ">
<polygon fill="white" stroke="#666666" points="978.22,-85.75 845.22,-85.75 845.22,-66.5 978.22,-66.5 978.22,-85.75"/>
<text text-anchor="middle" x="911.72" y="-72.25" font-family="Helvetica,sans-Serif" font-size="10.00">lupnt/numerics/MathUtils.h</text>
</a>
</g>
</g>
<!-- Node4&#45;&gt;Node15 -->
<g id="edge18_Node000004_Node000015" class="edge">
<title>Node4&#45;&gt;Node15</title>
<g id="a_edge18_Node000004_Node000015"><a xlink:title=" ">
<path fill="none" stroke="#63b8ff" d="M1091.91,-121.34C1055.36,-112.37 999.16,-98.58 959.25,-88.79"/>
<polygon fill="#63b8ff" stroke="#63b8ff" points="960.26,-85.19 949.72,-86.2 958.59,-91.98 960.26,-85.19"/>
</a>
</g>
</g>
<!-- Node12&#45;&gt;Node7 -->
<g id="edge15_Node000012_Node000007" class="edge">
<title>Node12&#45;&gt;Node7</title>
<g id="a_edge15_Node000012_Node000007"><a xlink:title=" ">
<path fill="none" stroke="#63b8ff" d="M1505.99,-66.05C1469.16,-55.53 1408.49,-38.19 1369.33,-27"/>
<polygon fill="#63b8ff" stroke="#63b8ff" points="1370.47,-23.4 1359.89,-24.01 1368.54,-30.13 1370.47,-23.4"/>
</a>
</g>
</g>
<!-- Node12&#45;&gt;Node9 -->
<g id="edge17_Node000012_Node000009" class="edge">
<title>Node12&#45;&gt;Node9</title>
<g id="a_edge17_Node000012_Node000009"><a xlink:title=" ">
<path fill="none" stroke="#63b8ff" d="M1520.26,-66.18C1501.6,-56.63 1471.77,-41.36 1450.01,-30.22"/>
<polygon fill="#63b8ff" stroke="#63b8ff" points="1451.85,-26.72 1441.35,-25.28 1448.66,-32.95 1451.85,-26.72"/>
</a>
</g>
</g>
<!-- Node13 -->
<g id="Node000013" class="node">
<title>Node13</title>
<g id="a_Node000013"><a xlink:title=" ">
<polygon fill="#e0e0e0" stroke="#999999" points="1552.22,-24.88 1491.22,-24.88 1491.22,-5.63 1552.22,-5.63 1552.22,-24.88"/>
<text text-anchor="middle" x="1521.72" y="-11.38" font-family="Helvetica,sans-Serif" font-size="10.00">filesystem</text>
</a>
</g>
</g>
<!-- Node12&#45;&gt;Node13 -->
<g id="edge14_Node000012_Node000013" class="edge">
<title>Node12&#45;&gt;Node13</title>
<g id="a_edge14_Node000012_Node000013"><a xlink:title=" ">
<path fill="none" stroke="#63b8ff" d="M1535.29,-66.18C1533.11,-58.14 1529.82,-46.05 1527.03,-35.78"/>
<polygon fill="#63b8ff" stroke="#63b8ff" points="1530.18,-35.01 1524.18,-26.28 1523.42,-36.84 1530.18,-35.01"/>
</a>
</g>
</g>
<!-- Node14 -->
<g id="Node000014" class="node">
<title>Node14</title>
<g id="a_Node000014"><a xlink:title=" ">
<polygon fill="#e0e0e0" stroke="#999999" points="1619.6,-24.88 1569.85,-24.88 1569.85,-5.63 1619.6,-5.63 1619.6,-24.88"/>
<text text-anchor="middle" x="1594.72" y="-11.38" font-family="Helvetica,sans-Serif" font-size="10.00">optional</text>
</a>
</g>
</g>
<!-- Node12&#45;&gt;Node14 -->
<g id="edge16_Node000012_Node000014" class="edge">
<title>Node12&#45;&gt;Node14</title>
<g id="a_edge16_Node000012_Node000014"><a xlink:title=" ">
<path fill="none" stroke="#63b8ff" d="M1546.38,-66.18C1554.83,-57.45 1567.91,-43.94 1578.33,-33.18"/>
<polygon fill="#63b8ff" stroke="#63b8ff" points="1580.54,-35.9 1584.99,-26.28 1575.52,-31.03 1580.54,-35.9"/>
</a>
</g>
</g>
<!-- Node15&#45;&gt;Node2 -->
<g id="edge19_Node000015_Node000002" class="edge">
<title>Node15&#45;&gt;Node2</title>
<g id="a_edge19_Node000015_Node000002"><a xlink:title=" ">
<path fill="none" stroke="#63b8ff" d="M844.9,-67.37C773.48,-58.93 656.97,-44.73 556.72,-30.5 549.08,-29.41 541.08,-28.22 533.13,-27.01"/>
<polygon fill="#63b8ff" stroke="#63b8ff" points="533.79,-23.42 523.37,-25.35 532.72,-30.33 533.79,-23.42"/>
</a>
</g>
</g>
<!-- Node15&#45;&gt;Node11 -->
<g id="edge20_Node000015_Node000011" class="edge">
<title>Node15&#45;&gt;Node11</title>
<g id="a_edge20_Node000015_Node000011"><a xlink:title=" ">
<path fill="none" stroke="#63b8ff" d="M879.06,-66.05C847.85,-57.39 800,-44.1 761.57,-33.43"/>
<polygon fill="#63b8ff" stroke="#63b8ff" points="762.58,-29.79 752,-30.49 760.7,-36.54 762.58,-29.79"/>
</a>
</g>
</g>
<!-- Node16 -->
<g id="Node000016" class="node">
<title>Node16</title>
<g id="a_Node000016"><a xlink:title=" ">
<polygon fill="#e0e0e0" stroke="#999999" points="935.85,-24.88 887.6,-24.88 887.6,-5.63 935.85,-5.63 935.85,-24.88"/>
<text text-anchor="middle" x="911.72" y="-11.38" font-family="Helvetica,sans-Serif" font-size="10.00">random</text>
</a>
</g>
</g>
<!-- Node15&#45;&gt;Node16 -->
<g id="edge21_Node000015_Node000016" class="edge">
<title>Node15&#45;&gt;Node16</title>
<g id="a_edge21_Node000015_Node000016"><a xlink:title=" ">
<path fill="none" stroke="#63b8ff" d="M911.72,-66.18C911.72,-58.23 911.72,-46.31 911.72,-36.12"/>
<polygon fill="#63b8ff" stroke="#63b8ff" points="915.22,-36.28 911.72,-26.28 908.22,-36.28 915.22,-36.28"/>
</a>
</g>
</g>
<!-- Node17&#45;&gt;Node2 -->
<g id="edge23_Node000017_Node000002" class="edge">
<title>Node17&#45;&gt;Node2</title>
<g id="a_edge23_Node000017_Node000002"><a xlink:title=" ">
<path fill="none" stroke="#63b8ff" d="M534.41,-127.25C470.35,-122.75 382.51,-111.88 360.72,-85.75 339.21,-59.95 381.04,-40.21 418.33,-28.47"/>
<polygon fill="#63b8ff" stroke="#63b8ff" points="419.09,-31.6 427.66,-25.37 417.08,-24.89 419.09,-31.6"/>
</a>
</g>
</g>
<!-- Node17&#45;&gt;Node7 -->
<g id="edge24_Node000017_Node000007" class="edge">
<title>Node17&#45;&gt;Node7</title>
<g id="a_edge24_Node000017_Node000007"><a xlink:title=" ">
<path fill="none" stroke="#63b8ff" d="M674.92,-124.77C768.92,-116.82 930.52,-101.49 987.72,-85.75 1007.91,-80.2 1010.68,-72.55 1030.72,-66.5 1122.97,-38.65 1236.07,-25.01 1293.83,-19.45"/>
<polygon fill="#63b8ff" stroke="#63b8ff" points="1293.99,-22.85 1303.62,-18.44 1293.34,-15.88 1293.99,-22.85"/>
</a>
</g>
</g>
<!-- Node17&#45;&gt;Node9 -->
<g id="edge26_Node000017_Node000009" class="edge">
<title>Node17&#45;&gt;Node9</title>
<g id="a_edge26_Node000017_Node000009"><a xlink:title=" ">
<path fill="none" stroke="#63b8ff" d="M674.95,-124.16C785.3,-114.2 990.13,-94.86 1022.72,-85.75 1042.11,-80.33 1044.37,-72.03 1063.72,-66.5 1194.54,-29.11 1234.01,-55.62 1367.72,-30.5 1375.57,-29.03 1383.94,-27.06 1391.73,-25.06"/>
<polygon fill="#63b8ff" stroke="#63b8ff" points="1392.48,-28.22 1401.24,-22.26 1390.68,-21.46 1392.48,-28.22"/>
</a>
</g>
</g>
<!-- Node18 -->
<g id="Node000018" class="node">
<title>Node18</title>
<g id="a_Node000018"><a xlink:title=" ">
<polygon fill="#e0e0e0" stroke="#999999" points="674.35,-85.75 623.1,-85.75 623.1,-66.5 674.35,-66.5 674.35,-85.75"/>
<text text-anchor="middle" x="648.72" y="-72.25" font-family="Helvetica,sans-Serif" font-size="10.00">memory</text>
</a>
</g>
</g>
<!-- Node17&#45;&gt;Node18 -->
<g id="edge25_Node000017_Node000018" class="edge">
<title>Node17&#45;&gt;Node18</title>
<g id="a_edge25_Node000017_Node000018"><a xlink:title=" ">
<path fill="none" stroke="#63b8ff" d="M611.99,-121.58C618.07,-114.23 626.92,-103.51 634.41,-94.44"/>
<polygon fill="#63b8ff" stroke="#63b8ff" points="637.63,-97.05 641.3,-87.11 632.23,-92.59 637.63,-97.05"/>
</a>
</g>
</g>
<!-- Node17&#45;&gt;Node19 -->
<g id="edge27_Node000017_Node000019" class="edge">
<title>Node17&#45;&gt;Node19</title>
<g id="a_edge27_Node000017_Node000019"><a xlink:title=" ">
<path fill="none" stroke="#63b8ff" d="M593.7,-121.34C584.21,-113.57 570.3,-102.17 558.98,-92.9"/>
<polygon fill="#63b8ff" stroke="#63b8ff" points="561.54,-89.65 551.59,-86.02 557.11,-95.07 561.54,-89.65"/>
</a>
</g>
</g>
<!-- Node19&#45;&gt;Node2 -->
<g id="edge28_Node000019_Node000002" class="edge">
<title>Node19&#45;&gt;Node2</title>
<g id="a_edge28_Node000019_Node000002"><a xlink:title=" ">
<path fill="none" stroke="#63b8ff" d="M528.64,-66.18C517.38,-57.11 499.73,-42.87 486.14,-31.91"/>
<polygon fill="#63b8ff" stroke="#63b8ff" points="488.9,-28.83 478.92,-25.28 484.5,-34.28 488.9,-28.83"/>
</a>
</g>
</g>
<!-- Node19&#45;&gt;Node11 -->
<g id="edge29_Node000019_Node000011" class="edge">
<title>Node19&#45;&gt;Node11</title>
<g id="a_edge29_Node000019_Node000011"><a xlink:title=" ">
<path fill="none" stroke="#63b8ff" d="M564.37,-66.05C587.01,-57.72 621.26,-45.12 649.63,-34.68"/>
<polygon fill="#63b8ff" stroke="#63b8ff" points="650.61,-37.68 658.79,-30.94 648.2,-31.11 650.61,-37.68"/>
</a>
</g>
</g>
<!-- Node20&#45;&gt;Node2 -->
<g id="edge33_Node000020_Node000002" class="edge">
<title>Node20&#45;&gt;Node2</title>
<g id="a_edge33_Node000020_Node000002"><a xlink:title=" ">
<path fill="none" stroke="#63b8ff" d="M219.64,-128.66C149.86,-125.29 45.7,-115.31 20.72,-85.75 15.2,-79.22 15.02,-72.88 20.72,-66.5 45.18,-39.14 275.12,-24.84 394.91,-19.19"/>
<polygon fill="#63b8ff" stroke="#63b8ff" points="394.97,-22.64 404.8,-18.69 394.64,-15.65 394.97,-22.64"/>
</a>
</g>
</g>
<!-- Node20&#45;&gt;Node11 -->
<g id="edge34_Node000020_Node000011" class="edge">
<title>Node20&#45;&gt;Node11</title>
<g id="a_edge34_Node000020_Node000011"><a xlink:title=" ">
<path fill="none" stroke="#63b8ff" d="M319.13,-121.28C348.24,-113.18 390.82,-100.37 426.72,-85.75 444.26,-78.61 446.87,-72.81 464.72,-66.5 496.02,-55.44 579.18,-38.72 637.65,-27.64"/>
<polygon fill="#63b8ff" stroke="#63b8ff" points="638.09,-30.94 647.26,-25.65 636.79,-24.06 638.09,-30.94"/>
</a>
</g>
</g>
<!-- Node21 -->
<g id="Node000021" class="node">
<title>Node21</title>
<g id="a_Node000021"><a xlink:title=" ">
<polygon fill="#e0e0e0" stroke="#999999" points="101.85,-85.75 29.6,-85.75 29.6,-66.5 101.85,-66.5 101.85,-85.75"/>
<text text-anchor="middle" x="65.72" y="-72.25" font-family="Helvetica,sans-Serif" font-size="10.00">Eigen/Dense</text>
</a>
</g>
</g>
<!-- Node20&#45;&gt;Node21 -->
<g id="edge32_Node000020_Node000021" class="edge">
<title>Node20&#45;&gt;Node21</title>
<g id="a_edge32_Node000020_Node000021"><a xlink:title=" ">
<path fill="none" stroke="#63b8ff" d="M247.57,-121.34C210.46,-112.32 153.28,-98.41 112.96,-88.61"/>
<polygon fill="#63b8ff" stroke="#63b8ff" points="113.87,-84.99 103.33,-86.02 112.22,-91.79 113.87,-84.99"/>
</a>
</g>
</g>
<!-- Node22 -->
<g id="Node000022" class="node">
<title>Node22</title>
<g id="a_Node000022"><a xlink:title=" ">
<polygon fill="#e0e0e0" stroke="#999999" points="237.35,-85.75 120.1,-85.75 120.1,-66.5 237.35,-66.5 237.35,-85.75"/>
<text text-anchor="middle" x="178.72" y="-72.25" font-family="Helvetica,sans-Serif" font-size="10.00">boost/preprocessor.hpp</text>
</a>
</g>
</g>
<!-- Node20&#45;&gt;Node22 -->
<g id="edge35_Node000020_Node000022" class="edge">
<title>Node20&#45;&gt;Node22</title>
<g id="a_edge35_Node000020_Node000022"><a xlink:title=" ">
<path fill="none" stroke="#63b8ff" d="M266.74,-121.34C250.22,-113.04 225.48,-100.61 206.43,-91.04"/>
<polygon fill="#63b8ff" stroke="#63b8ff" points="208.3,-87.56 197.79,-86.2 205.16,-93.82 208.3,-87.56"/>
</a>
</g>
</g>
<!-- Node23 -->
<g id="Node000023" class="node">
<title>Node23</title>
<g id="a_Node000023"><a xlink:title=" ">
<polygon fill="#e0e0e0" stroke="#999999" points="314.1,-85.75 255.35,-85.75 255.35,-66.5 314.1,-66.5 314.1,-85.75"/>
<text text-anchor="middle" x="284.72" y="-72.25" font-family="Helvetica,sans-Serif" font-size="10.00">stdexcept</text>
</a>
</g>
</g>
<!-- Node20&#45;&gt;Node23 -->
<g id="edge36_Node000020_Node000023" class="edge">
<title>Node20&#45;&gt;Node23</title>
<g id="a_edge36_Node000020_Node000023"><a xlink:title=" ">
<path fill="none" stroke="#63b8ff" d="M284.72,-121.58C284.72,-114.92 284.72,-105.49 284.72,-97.03"/>
<polygon fill="#63b8ff" stroke="#63b8ff" points="288.22,-97.11 284.72,-87.11 281.22,-97.11 288.22,-97.11"/>
</a>
</g>
</g>
<!-- Node20&#45;&gt;Node24 -->
<g id="edge37_Node000020_Node000024" class="edge">
<title>Node20&#45;&gt;Node24</title>
<g id="a_edge37_Node000020_Node000024"><a xlink:title=" ">
<path fill="none" stroke="#63b8ff" d="M303.21,-121.34C320.28,-113 345.88,-100.5 365.5,-90.91"/>
<polygon fill="#63b8ff" stroke="#63b8ff" points="366.69,-93.74 374.14,-86.2 363.62,-87.45 366.69,-93.74"/>
</a>
</g>
</g>
<!-- Node24&#45;&gt;Node2 -->
<g id="edge38_Node000024_Node000002" class="edge">
<title>Node24&#45;&gt;Node2</title>
<g id="a_edge38_Node000024_Node000002"><a xlink:title=" ">
<path fill="none" stroke="#63b8ff" d="M404.81,-66.18C416.07,-57.11 433.72,-42.87 447.3,-31.91"/>
<polygon fill="#63b8ff" stroke="#63b8ff" points="448.95,-34.28 454.53,-25.28 444.55,-28.83 448.95,-34.28"/>
</a>
</g>
</g>
<!-- Node24&#45;&gt;Node10 -->
<g id="edge40_Node000024_Node000010" class="edge">
<title>Node24&#45;&gt;Node10</title>
<g id="a_edge40_Node000024_Node000010"><a xlink:title=" ">
<path fill="none" stroke="#63b8ff" d="M417.9,-67.79C452.72,-57.22 517.03,-37.7 555.74,-25.96"/>
<polygon fill="#63b8ff" stroke="#63b8ff" points="556.38,-29.12 564.94,-22.86 554.35,-22.42 556.38,-29.12"/>
</a>
</g>
</g>
<!-- Node24&#45;&gt;Node11 -->
<g id="edge39_Node000024_Node000011" class="edge">
<title>Node24&#45;&gt;Node11</title>
<g id="a_edge39_Node000024_Node000011"><a xlink:title=" ">
<path fill="none" stroke="#63b8ff" d="M417.82,-69.51C422.43,-68.48 427.22,-67.43 431.72,-66.5 502.12,-51.92 583.32,-36.95 637.72,-27.19"/>
<polygon fill="#63b8ff" stroke="#63b8ff" points="638.01,-30.51 647.23,-25.31 636.77,-23.62 638.01,-30.51"/>
</a>
</g>
</g>
<!-- Node25&#45;&gt;Node2 -->
<g id="edge44_Node000025_Node000002" class="edge">
<title>Node25&#45;&gt;Node2</title>
<g id="a_edge44_Node000025_Node000002"><a xlink:title=" ">
<path fill="none" stroke="#63b8ff" d="M1398.17,-121.27C1382.07,-106.57 1347.82,-78.12 1312.72,-66.5 1153.06,-13.63 724.04,-47.68 556.72,-30.5 547.68,-29.57 538.15,-28.34 528.82,-26.99"/>
<polygon fill="#63b8ff" stroke="#63b8ff" points="529.41,-23.39 519,-25.36 528.37,-30.31 529.41,-23.39"/>
</a>
</g>
</g>
<!-- Node25&#45;&gt;Node9 -->
<g id="edge45_Node000025_Node000009" class="edge">
<title>Node25&#45;&gt;Node9</title>
<g id="a_edge45_Node000025_Node000009"><a xlink:title=" ">
<path fill="none" stroke="#63b8ff" d="M1411.41,-121.33C1414.83,-112.45 1419.69,-98.42 1421.72,-85.75 1424.39,-69.16 1424.45,-50.06 1423.95,-36.09"/>
<polygon fill="#63b8ff" stroke="#63b8ff" points="1427.41,-36.13 1423.42,-26.32 1420.42,-36.48 1427.41,-36.13"/>
</a>
</g>
</g>
<!-- Node25&#45;&gt;Node12 -->
<g id="edge46_Node000025_Node000012" class="edge">
<title>Node25&#45;&gt;Node12</title>
<g id="a_edge46_Node000025_Node000012"><a xlink:title=" ">
<path fill="none" stroke="#63b8ff" d="M1429.78,-121.34C1450.6,-112.81 1482.07,-99.92 1505.67,-90.26"/>
<polygon fill="#63b8ff" stroke="#63b8ff" points="1506.64,-93.23 1514.56,-86.2 1503.98,-86.75 1506.64,-93.23"/>
</a>
</g>
</g>
<!-- Node26 -->
<g id="Node000026" class="node">
<title>Node26</title>
<g id="a_Node000026"><a xlink:title=" ">
<polygon fill="#e0e0e0" stroke="#999999" points="1752.6,-85.75 1618.85,-85.75 1618.85,-66.5 1752.6,-66.5 1752.6,-85.75"/>
<text text-anchor="middle" x="1685.72" y="-72.25" font-family="Helvetica,sans-Serif" font-size="10.00">autodiff/common/eigen.hpp</text>
</a>
</g>
</g>
<!-- Node25&#45;&gt;Node26 -->
<g id="edge43_Node000025_Node000026" class="edge">
<title>Node25&#45;&gt;Node26</title>
<g id="a_edge43_Node000025_Node000026"><a xlink:title=" ">
<path fill="none" stroke="#63b8ff" d="M1455.2,-121.28C1502.98,-112.13 1576.72,-98 1627.89,-88.2"/>
<polygon fill="#63b8ff" stroke="#63b8ff" points="1628.28,-91.5 1637.45,-86.18 1626.97,-84.62 1628.28,-91.5"/>
</a>
</g>
</g>
<!-- Node27&#45;&gt;Node2 -->
<g id="edge50_Node000027_Node000002" class="edge">
<title>Node27&#45;&gt;Node2</title>
<g id="a_edge50_Node000027_Node000002"><a xlink:title=" ">
<path fill="none" stroke="#63b8ff" d="M765.12,-176.6C752.23,-168.55 734.1,-155.77 721.72,-141 697.85,-112.51 713.01,-89.39 683.72,-66.5 671.27,-56.77 586.27,-38.98 526.43,-27.39"/>
<polygon fill="#63b8ff" stroke="#63b8ff" points="527.43,-23.83 516.95,-25.37 526.11,-30.7 527.43,-23.83"/>
</a>
</g>
</g>
<!-- Node27&#45;&gt;Node11 -->
<g id="edge51_Node000027_Node000011" class="edge">
<title>Node27&#45;&gt;Node11</title>
<g id="a_edge51_Node000027_Node000011"><a xlink:title=" ">
<path fill="none" stroke="#63b8ff" d="M784.16,-176.65C788.46,-164.01 794.49,-140.42 787.72,-121.75 775.46,-87.9 747.06,-57.28 725.82,-37.86"/>
<polygon fill="#63b8ff" stroke="#63b8ff" points="728.59,-35.76 718.79,-31.74 723.95,-40.99 728.59,-35.76"/>
</a>
</g>
</g>
<!-- Node27&#45;&gt;Node25 -->
<g id="edge52_Node000027_Node000025" class="edge">
<title>Node27&#45;&gt;Node25</title>
<g id="a_edge52_Node000027_Node000025"><a xlink:title=" ">
<path fill="none" stroke="#63b8ff" d="M855.11,-179.31C977.79,-168.89 1220.75,-148.25 1339.36,-138.18"/>
<polygon fill="#63b8ff" stroke="#63b8ff" points="1339.43,-141.6 1349.1,-137.27 1338.84,-134.63 1339.43,-141.6"/>
</a>
</g>
</g>
<!-- Node28 -->
<g id="Node000028" class="node">
<title>Node28</title>
<g id="a_Node000028"><a xlink:title=" ">
<polygon fill="#e0e0e0" stroke="#999999" points="778.85,-141 730.6,-141 730.6,-121.75 778.85,-121.75 778.85,-141"/>
<text text-anchor="middle" x="754.72" y="-127.5" font-family="Helvetica,sans-Serif" font-size="10.00">string.h</text>
</a>
</g>
</g>
<!-- Node27&#45;&gt;Node28 -->
<g id="edge49_Node000027_Node000028" class="edge">
<title>Node27&#45;&gt;Node28</title>
<g id="a_edge49_Node000027_Node000028"><a xlink:title=" ">
<path fill="none" stroke="#63b8ff" d="M776.43,-176.83C773.03,-169.86 768.15,-159.87 763.88,-151.12"/>
<polygon fill="#63b8ff" stroke="#63b8ff" points="766.64,-149.81 759.11,-142.36 760.35,-152.88 766.64,-149.81"/>
</a>
</g>
</g>
</g>
</svg>
