<?xml version="1.0" encoding="UTF-8" standalone="no"?>
<!DOCTYPE svg PUBLIC "-//W3C//DTD SVG 1.1//EN"
 "http://www.w3.org/Graphics/SVG/1.1/DTD/svg11.dtd">
<!-- Generated by graphviz version 8.1.0 (20230707.0739)
 -->
<!-- Title: Occultation.h Pages: 1 -->
<svg width="1149pt" height="304pt"
 viewBox="0.00 0.00 1148.51 303.50" xmlns="http://www.w3.org/2000/svg" xmlns:xlink="http://www.w3.org/1999/xlink">
<g id="graph0" class="graph" transform="scale(1 1) rotate(0) translate(4 299.5)">
<title>Occultation.h</title>
<!-- Node1 -->
<g id="Node000001" class="node">
<title>Node1</title>
<g id="a_Node000001"><a xlink:title="Signal blockage model.">
<polygon fill="#999999" stroke="#666666" points="514.76,-295.5 441.01,-295.5 441.01,-276.25 514.76,-276.25 514.76,-295.5"/>
<text text-anchor="middle" x="477.88" y="-282" font-family="Helvetica,sans-Serif" font-size="10.00">Occultation.h</text>
</a>
</g>
</g>
<!-- Node2 -->
<g id="Node000002" class="node">
<title>Node2</title>
<g id="a_Node000002"><a xlink:href="_example_occultation_8cpp.html" target="_top" xlink:title="Example of occultation computation.">
<polygon fill="white" stroke="#666666" points="450.13,-240.25 327.63,-240.25 327.63,-221 450.13,-221 450.13,-240.25"/>
<text text-anchor="middle" x="388.88" y="-226.75" font-family="Helvetica,sans-Serif" font-size="10.00">ExampleOccultation.cpp</text>
</a>
</g>
</g>
<!-- Node1&#45;&gt;Node2 -->
<g id="edge1_Node000001_Node000002" class="edge">
<title>Node1&#45;&gt;Node2</title>
<g id="a_edge1_Node000001_Node000002"><a xlink:title=" ">
<path fill="none" stroke="#63b8ff" d="M453.59,-270.34C437.78,-260.88 417.63,-248.83 404.06,-240.7"/>
<polygon fill="#63b8ff" stroke="#63b8ff" points="451.41,-273.71 461.79,-275.84 455,-267.7 451.41,-273.71"/>
</a>
</g>
</g>
<!-- Node3 -->
<g id="Node000003" class="node">
<title>Node3</title>
<g id="a_Node000003"><a xlink:href="_g_n_s_s_channel_8h.html" target="_top" xlink:title="GNSS Channel class.">
<polygon fill="white" stroke="#666666" points="522.26,-185 433.51,-185 433.51,-165.75 522.26,-165.75 522.26,-185"/>
<text text-anchor="middle" x="477.88" y="-171.5" font-family="Helvetica,sans-Serif" font-size="10.00">GNSSChannel.h</text>
</a>
</g>
</g>
<!-- Node1&#45;&gt;Node3 -->
<g id="edge2_Node000001_Node000003" class="edge">
<title>Node1&#45;&gt;Node3</title>
<g id="a_edge2_Node000001_Node000003"><a xlink:title=" ">
<path fill="none" stroke="#63b8ff" d="M477.88,-265.18C477.88,-241.51 477.88,-202.8 477.88,-185.38"/>
<polygon fill="#63b8ff" stroke="#63b8ff" points="474.38,-265 477.88,-275 481.38,-265 474.38,-265"/>
</a>
</g>
</g>
<!-- Node18 -->
<g id="Node000018" class="node">
<title>Node18</title>
<g id="a_Node000018"><a xlink:href="_space_channel_8h.html" target="_top" xlink:title="Base spacechannel class (Under devlopment )">
<polygon fill="white" stroke="#666666" points="593.88,-240.25 505.88,-240.25 505.88,-221 593.88,-221 593.88,-240.25"/>
<text text-anchor="middle" x="549.88" y="-226.75" font-family="Helvetica,sans-Serif" font-size="10.00">SpaceChannel.h</text>
</a>
</g>
</g>
<!-- Node1&#45;&gt;Node18 -->
<g id="edge27_Node000001_Node000018" class="edge">
<title>Node1&#45;&gt;Node18</title>
<g id="a_edge27_Node000001_Node000018"><a xlink:title=" ">
<path fill="none" stroke="#63b8ff" d="M498.68,-269.49C511.39,-260.09 527.19,-248.41 537.85,-240.52"/>
<polygon fill="#63b8ff" stroke="#63b8ff" points="497.06,-267.08 491.1,-275.84 501.22,-272.71 497.06,-267.08"/>
</a>
</g>
</g>
<!-- Node4 -->
<g id="Node000004" class="node">
<title>Node4</title>
<g id="a_Node000004"><a xlink:href="_example_constellations_8cpp.html" target="_top" xlink:title="Setup GNSS Constellation.">
<polygon fill="white" stroke="#666666" points="577.51,-74.5 442.26,-74.5 442.26,-55.25 577.51,-55.25 577.51,-74.5"/>
<text text-anchor="middle" x="509.88" y="-61" font-family="Helvetica,sans-Serif" font-size="10.00">ExampleConstellations.cpp</text>
</a>
</g>
</g>
<!-- Node3&#45;&gt;Node4 -->
<g id="edge3_Node000003_Node000004" class="edge">
<title>Node3&#45;&gt;Node4</title>
<g id="a_edge3_Node000003_Node000004"><a xlink:title=" ">
<path fill="none" stroke="#63b8ff" d="M483.6,-155.01C490.57,-131.37 502.07,-92.38 507.23,-74.88"/>
<polygon fill="#63b8ff" stroke="#63b8ff" points="479.97,-153.91 480.5,-164.5 486.69,-155.89 479.97,-153.91"/>
</a>
</g>
</g>
<!-- Node5 -->
<g id="Node000005" class="node">
<title>Node5</title>
<g id="a_Node000005"><a xlink:href="_example_e_k_f_8cpp.html" target="_top" xlink:title="Example of Extended Kalman Filter for orbit determination.">
<polygon fill="white" stroke="#666666" points="281.38,-74.5 190.38,-74.5 190.38,-55.25 281.38,-55.25 281.38,-74.5"/>
<text text-anchor="middle" x="235.88" y="-61" font-family="Helvetica,sans-Serif" font-size="10.00">ExampleEKF.cpp</text>
</a>
</g>
</g>
<!-- Node3&#45;&gt;Node5 -->
<g id="edge4_Node000003_Node000005" class="edge">
<title>Node3&#45;&gt;Node5</title>
<g id="a_edge4_Node000003_Node000005"><a xlink:title=" ">
<path fill="none" stroke="#63b8ff" d="M422.32,-172.18C380.65,-168.18 323.81,-157.53 281.88,-129.75 260.92,-115.86 246.33,-88.94 239.78,-74.89"/>
<polygon fill="#63b8ff" stroke="#63b8ff" points="421.85,-175.73 432.11,-173.1 422.44,-168.76 421.85,-175.73"/>
</a>
</g>
</g>
<!-- Node6 -->
<g id="Node000006" class="node">
<title>Node6</title>
<g id="a_Node000006"><a xlink:href="_example_e_k_f_app_8cpp.html" target="_top" xlink:title="Example of EKF application.">
<polygon fill="white" stroke="#666666" points="438.76,-19.25 329.01,-19.25 329.01,0 438.76,0 438.76,-19.25"/>
<text text-anchor="middle" x="383.88" y="-5.75" font-family="Helvetica,sans-Serif" font-size="10.00">ExampleEKFApp.cpp</text>
</a>
</g>
</g>
<!-- Node3&#45;&gt;Node6 -->
<g id="edge5_Node000003_Node000006" class="edge">
<title>Node3&#45;&gt;Node6</title>
<g id="a_edge5_Node000003_Node000006"><a xlink:title=" ">
<path fill="none" stroke="#63b8ff" d="M422.25,-171.16C308.73,-163.31 56.72,-138.87 4.88,-74.5 -36.65,-22.92 214.09,-12.92 328.83,-11.04"/>
<polygon fill="#63b8ff" stroke="#63b8ff" points="421.91,-174.71 432.12,-171.89 422.38,-167.73 421.91,-174.71"/>
</a>
</g>
</g>
<!-- Node7 -->
<g id="Node000007" class="node">
<title>Node7</title>
<g id="a_Node000007"><a xlink:href="_example_propagation_8cpp.html" target="_top" xlink:title="Example propagating both GPS constellation and Lunar Satellite.">
<polygon fill="white" stroke="#666666" points="424.26,-74.5 299.51,-74.5 299.51,-55.25 424.26,-55.25 424.26,-74.5"/>
<text text-anchor="middle" x="361.88" y="-61" font-family="Helvetica,sans-Serif" font-size="10.00">ExamplePropagation.cpp</text>
</a>
</g>
</g>
<!-- Node3&#45;&gt;Node7 -->
<g id="edge6_Node000003_Node000007" class="edge">
<title>Node3&#45;&gt;Node7</title>
<g id="a_edge6_Node000003_Node000007"><a xlink:title=" ">
<path fill="none" stroke="#63b8ff" d="M460.51,-158.01C446.78,-145.09 427.13,-126.62 409.88,-110.5 396.58,-98.07 381.16,-83.75 371.46,-74.75"/>
<polygon fill="#63b8ff" stroke="#63b8ff" points="457.53,-159.96 467.21,-164.26 462.33,-154.86 457.53,-159.96"/>
</a>
</g>
</g>
<!-- Node8 -->
<g id="Node000008" class="node">
<title>Node8</title>
<g id="a_Node000008"><a xlink:href="_g_n_s_s_channel_8cpp.html" target="_top" xlink:title="GNSS Channel.">
<polygon fill="white" stroke="#666666" points="1140.51,-74.5 1041.26,-74.5 1041.26,-55.25 1140.51,-55.25 1140.51,-74.5"/>
<text text-anchor="middle" x="1090.88" y="-61" font-family="Helvetica,sans-Serif" font-size="10.00">GNSSChannel.cpp</text>
</a>
</g>
</g>
<!-- Node3&#45;&gt;Node8 -->
<g id="edge7_Node000003_Node000008" class="edge">
<title>Node3&#45;&gt;Node8</title>
<g id="a_edge7_Node000003_Node000008"><a xlink:title=" ">
<path fill="none" stroke="#63b8ff" d="M533.27,-163.08C567.21,-155.39 611.21,-144.02 648.88,-129.75 666.59,-123.04 668.72,-115.85 686.88,-110.5 835.2,-66.84 879.5,-93.88 1032.88,-74.5 1035.51,-74.17 1038.2,-73.82 1040.92,-73.45"/>
<polygon fill="#63b8ff" stroke="#63b8ff" points="532.63,-159.86 523.62,-165.45 534.15,-166.69 532.63,-159.86"/>
</a>
</g>
</g>
<!-- Node9 -->
<g id="Node000009" class="node">
<title>Node9</title>
<g id="a_Node000009"><a xlink:href="_g_n_s_s_constellation_8h.html" target="_top" xlink:title=" ">
<polygon fill="white" stroke="#666666" points="400.76,-129.75 291.01,-129.75 291.01,-110.5 400.76,-110.5 400.76,-129.75"/>
<text text-anchor="middle" x="345.88" y="-116.25" font-family="Helvetica,sans-Serif" font-size="10.00">GNSSConstellation.h</text>
</a>
</g>
</g>
<!-- Node3&#45;&gt;Node9 -->
<g id="edge8_Node000003_Node000009" class="edge">
<title>Node3&#45;&gt;Node9</title>
<g id="a_edge8_Node000003_Node000009"><a xlink:title=" ">
<path fill="none" stroke="#63b8ff" d="M445.46,-161.29C421.52,-151.64 389.57,-138.75 368.39,-130.2"/>
<polygon fill="#63b8ff" stroke="#63b8ff" points="443.91,-164.85 454.49,-165.34 446.53,-158.35 443.91,-164.85"/>
</a>
</g>
</g>
<!-- Node11 -->
<g id="Node000011" class="node">
<title>Node11</title>
<g id="a_Node000011"><a xlink:href="_g_n_s_s_receiver_8h.html" target="_top" xlink:title="GNSS receiver class.">
<polygon fill="white" stroke="#666666" points="639.38,-129.75 548.38,-129.75 548.38,-110.5 639.38,-110.5 639.38,-129.75"/>
<text text-anchor="middle" x="593.88" y="-116.25" font-family="Helvetica,sans-Serif" font-size="10.00">GNSSReceiver.h</text>
</a>
</g>
</g>
<!-- Node3&#45;&gt;Node11 -->
<g id="edge14_Node000003_Node000011" class="edge">
<title>Node3&#45;&gt;Node11</title>
<g id="a_edge14_Node000003_Node000011"><a xlink:title=" ">
<path fill="none" stroke="#63b8ff" d="M507.52,-160.77C528.42,-151.18 555.83,-138.59 574.11,-130.2"/>
<polygon fill="#63b8ff" stroke="#63b8ff" points="506.19,-157.99 498.56,-165.34 509.11,-164.35 506.19,-157.99"/>
</a>
</g>
</g>
<!-- Node17 -->
<g id="Node000017" class="node">
<title>Node17</title>
<g id="a_Node000017"><a xlink:href="_g_n_s_s_transmitter_8cpp.html" target="_top" xlink:title="Handles GNSS transmit.">
<polygon fill="white" stroke="#666666" points="807.88,-129.75 695.88,-129.75 695.88,-110.5 807.88,-110.5 807.88,-129.75"/>
<text text-anchor="middle" x="751.88" y="-116.25" font-family="Helvetica,sans-Serif" font-size="10.00">GNSSTransmitter.cpp</text>
</a>
</g>
</g>
<!-- Node3&#45;&gt;Node17 -->
<g id="edge26_Node000003_Node000017" class="edge">
<title>Node3&#45;&gt;Node17</title>
<g id="a_edge26_Node000003_Node000017"><a xlink:title=" ">
<path fill="none" stroke="#63b8ff" d="M533.22,-163.62C583.67,-153.82 657.36,-139.49 704.98,-130.24"/>
<polygon fill="#63b8ff" stroke="#63b8ff" points="532.67,-160.36 523.52,-165.7 534,-167.23 532.67,-160.36"/>
</a>
</g>
</g>
<!-- Node9&#45;&gt;Node4 -->
<g id="edge9_Node000009_Node000004" class="edge">
<title>Node9&#45;&gt;Node4</title>
<g id="a_edge9_Node000009_Node000004"><a xlink:title=" ">
<path fill="none" stroke="#63b8ff" d="M383.8,-106.82C413.76,-97.09 454.9,-83.73 481.93,-74.95"/>
<polygon fill="#63b8ff" stroke="#63b8ff" points="383.13,-103.67 374.7,-110.09 385.3,-110.33 383.13,-103.67"/>
</a>
</g>
</g>
<!-- Node9&#45;&gt;Node5 -->
<g id="edge10_Node000009_Node000005" class="edge">
<title>Node9&#45;&gt;Node5</title>
<g id="a_edge10_Node000009_Node000005"><a xlink:title=" ">
<path fill="none" stroke="#63b8ff" d="M317.51,-105.39C297.73,-95.81 271.89,-83.31 254.64,-74.95"/>
<polygon fill="#63b8ff" stroke="#63b8ff" points="315.7,-108.88 326.22,-110.09 318.75,-102.58 315.7,-108.88"/>
</a>
</g>
</g>
<!-- Node9&#45;&gt;Node6 -->
<g id="edge11_Node000009_Node000006" class="edge">
<title>Node9&#45;&gt;Node6</title>
<g id="a_edge11_Node000009_Node000006"><a xlink:title=" ">
<path fill="none" stroke="#63b8ff" d="M279.95,-115C221.64,-108.8 150.22,-93.39 180.88,-55.25 199.14,-32.54 275.15,-20.72 328.78,-15.1"/>
<polygon fill="#63b8ff" stroke="#63b8ff" points="279.37,-118.55 289.66,-116.05 280.05,-111.59 279.37,-118.55"/>
</a>
</g>
</g>
<!-- Node9&#45;&gt;Node7 -->
<g id="edge12_Node000009_Node000007" class="edge">
<title>Node9&#45;&gt;Node7</title>
<g id="a_edge12_Node000009_Node000007"><a xlink:title=" ">
<path fill="none" stroke="#63b8ff" d="M351.62,-100.04C354.2,-91.46 357.12,-81.73 359.18,-74.86"/>
<polygon fill="#63b8ff" stroke="#63b8ff" points="348.05,-98.75 348.53,-109.33 354.76,-100.76 348.05,-98.75"/>
</a>
</g>
</g>
<!-- Node10 -->
<g id="Node000010" class="node">
<title>Node10</title>
<g id="a_Node000010"><a xlink:href="_g_n_s_s_constellation_8cpp.html" target="_top" xlink:title="GNSS Constellation.">
<polygon fill="white" stroke="#666666" points="134.01,-74.5 13.76,-74.5 13.76,-55.25 134.01,-55.25 134.01,-74.5"/>
<text text-anchor="middle" x="73.88" y="-61" font-family="Helvetica,sans-Serif" font-size="10.00">GNSSConstellation.cpp</text>
</a>
</g>
</g>
<!-- Node9&#45;&gt;Node10 -->
<g id="edge13_Node000009_Node000010" class="edge">
<title>Node9&#45;&gt;Node10</title>
<g id="a_edge13_Node000009_Node000010"><a xlink:title=" ">
<path fill="none" stroke="#63b8ff" d="M288.78,-107.94C238.67,-98.14 166.72,-84.05 120.14,-74.93"/>
<polygon fill="#63b8ff" stroke="#63b8ff" points="287.95,-111.54 298.43,-110.03 289.29,-104.68 287.95,-111.54"/>
</a>
</g>
</g>
<!-- Node11&#45;&gt;Node4 -->
<g id="edge15_Node000011_Node000004" class="edge">
<title>Node11&#45;&gt;Node4</title>
<g id="a_edge15_Node000011_Node000004"><a xlink:title=" ">
<path fill="none" stroke="#63b8ff" d="M570.54,-104.32C555.67,-94.9 536.9,-83 524.2,-74.95"/>
<polygon fill="#63b8ff" stroke="#63b8ff" points="568.31,-107.69 578.63,-110.09 572.06,-101.78 568.31,-107.69"/>
</a>
</g>
</g>
<!-- Node11&#45;&gt;Node5 -->
<g id="edge16_Node000011_Node000005" class="edge">
<title>Node11&#45;&gt;Node5</title>
<g id="a_edge16_Node000011_Node000005"><a xlink:title=" ">
<path fill="none" stroke="#63b8ff" d="M537.39,-110.96C476.51,-102.13 376.8,-87.56 290.88,-74.5 287.92,-74.05 284.87,-73.58 281.8,-73.11"/>
<polygon fill="#63b8ff" stroke="#63b8ff" points="536.52,-114.52 546.92,-112.49 537.53,-107.59 536.52,-114.52"/>
</a>
</g>
</g>
<!-- Node11&#45;&gt;Node6 -->
<g id="edge17_Node000011_Node000006" class="edge">
<title>Node11&#45;&gt;Node6</title>
<g id="a_edge17_Node000011_Node000006"><a xlink:title=" ">
<path fill="none" stroke="#63b8ff" d="M597.21,-99.93C598.49,-85.85 597.6,-67.18 586.88,-55.25 567.47,-33.64 492.19,-21.56 438.98,-15.57"/>
<polygon fill="#63b8ff" stroke="#63b8ff" points="593.66,-99.05 595.79,-109.43 600.6,-99.99 593.66,-99.05"/>
</a>
</g>
</g>
<!-- Node11&#45;&gt;Node7 -->
<g id="edge18_Node000011_Node000007" class="edge">
<title>Node11&#45;&gt;Node7</title>
<g id="a_edge18_Node000011_Node000007"><a xlink:title=" ">
<path fill="none" stroke="#63b8ff" d="M543.55,-107.57C500.9,-97.78 440.57,-83.94 401.34,-74.93"/>
<polygon fill="#63b8ff" stroke="#63b8ff" points="542.74,-111.21 553.27,-110.03 544.3,-104.38 542.74,-111.21"/>
</a>
</g>
</g>
<!-- Node11&#45;&gt;Node8 -->
<g id="edge19_Node000011_Node000008" class="edge">
<title>Node11&#45;&gt;Node8</title>
<g id="a_edge19_Node000011_Node000008"><a xlink:title=" ">
<path fill="none" stroke="#63b8ff" d="M650.4,-110.92C651.57,-110.78 652.73,-110.64 653.88,-110.5 821.9,-90.46 864.92,-94.95 1032.88,-74.5 1035.51,-74.18 1038.2,-73.84 1040.92,-73.48"/>
<polygon fill="#63b8ff" stroke="#63b8ff" points="650.18,-107.55 640.72,-112.31 651.08,-114.49 650.18,-107.55"/>
</a>
</g>
</g>
<!-- Node12 -->
<g id="Node000012" class="node">
<title>Node12</title>
<g id="a_Node000012"><a xlink:href="_g_n_s_s_receiver_8cpp.html" target="_top" xlink:title="GNSS Receiver class.">
<polygon fill="white" stroke="#666666" points="735.63,-74.5 634.13,-74.5 634.13,-55.25 735.63,-55.25 735.63,-74.5"/>
<text text-anchor="middle" x="684.88" y="-61" font-family="Helvetica,sans-Serif" font-size="10.00">GNSSReceiver.cpp</text>
</a>
</g>
</g>
<!-- Node11&#45;&gt;Node12 -->
<g id="edge20_Node000011_Node000012" class="edge">
<title>Node11&#45;&gt;Node12</title>
<g id="a_edge20_Node000011_Node000012"><a xlink:title=" ">
<path fill="none" stroke="#63b8ff" d="M618.72,-104.59C634.89,-95.13 655.49,-83.08 669.37,-74.95"/>
<polygon fill="#63b8ff" stroke="#63b8ff" points="617.18,-102.02 610.32,-110.09 620.72,-108.06 617.18,-102.02"/>
</a>
</g>
</g>
<!-- Node13 -->
<g id="Node000013" class="node">
<title>Node13</title>
<g id="a_Node000013"><a xlink:href="_g_n_s_s_state_estimation_app_8h.html" target="_top" xlink:title="State Estimation Application Using GNSS Measurement.">
<polygon fill="white" stroke="#666666" points="893.76,-74.5 754.01,-74.5 754.01,-55.25 893.76,-55.25 893.76,-74.5"/>
<text text-anchor="middle" x="823.88" y="-61" font-family="Helvetica,sans-Serif" font-size="10.00">GNSSStateEstimationApp.h</text>
</a>
</g>
</g>
<!-- Node11&#45;&gt;Node13 -->
<g id="edge21_Node000011_Node000013" class="edge">
<title>Node11&#45;&gt;Node13</title>
<g id="a_edge21_Node000011_Node000013"><a xlink:title=" ">
<path fill="none" stroke="#63b8ff" d="M643.78,-107.57C686.07,-97.78 745.88,-83.94 784.77,-74.93"/>
<polygon fill="#63b8ff" stroke="#63b8ff" points="643.11,-104.37 634.16,-110.03 644.69,-111.19 643.11,-104.37"/>
</a>
</g>
</g>
<!-- Node15 -->
<g id="Node000015" class="node">
<title>Node15</title>
<g id="a_Node000015"><a xlink:href="_state_estimation_app_8h.html" target="_top" xlink:title="Base class for State Estimation Application.">
<polygon fill="white" stroke="#666666" points="1023.51,-74.5 912.26,-74.5 912.26,-55.25 1023.51,-55.25 1023.51,-74.5"/>
<text text-anchor="middle" x="967.88" y="-61" font-family="Helvetica,sans-Serif" font-size="10.00">StateEstimationApp.h</text>
</a>
</g>
</g>
<!-- Node11&#45;&gt;Node15 -->
<g id="edge24_Node000011_Node000015" class="edge">
<title>Node11&#45;&gt;Node15</title>
<g id="a_edge24_Node000011_Node000015"><a xlink:title=" ">
<path fill="none" stroke="#63b8ff" d="M650.41,-111C651.58,-110.83 652.74,-110.66 653.88,-110.5 744.23,-97.59 849.22,-82.69 912.01,-73.79"/>
<polygon fill="#63b8ff" stroke="#63b8ff" points="650.15,-107.64 640.75,-112.52 651.14,-114.57 650.15,-107.64"/>
</a>
</g>
</g>
<!-- Node13&#45;&gt;Node6 -->
<g id="edge22_Node000013_Node000006" class="edge">
<title>Node13&#45;&gt;Node6</title>
<g id="a_edge22_Node000013_Node000006"><a xlink:title=" ">
<path fill="none" stroke="#63b8ff" d="M742.91,-54.07C654.64,-43.39 515.8,-26.59 439.21,-17.32"/>
<polygon fill="#63b8ff" stroke="#63b8ff" points="742.33,-57.65 752.68,-55.38 743.17,-50.7 742.33,-57.65"/>
</a>
</g>
</g>
<!-- Node14 -->
<g id="Node000014" class="node">
<title>Node14</title>
<g id="a_Node000014"><a xlink:href="_g_n_s_s_state_estimation_app_8cpp.html" target="_top" xlink:title="State Estimation Application Using GNSS Measurement.">
<polygon fill="white" stroke="#666666" points="894.01,-19.25 743.76,-19.25 743.76,0 894.01,0 894.01,-19.25"/>
<text text-anchor="middle" x="818.88" y="-5.75" font-family="Helvetica,sans-Serif" font-size="10.00">GNSSStateEstimationApp.cpp</text>
</a>
</g>
</g>
<!-- Node13&#45;&gt;Node14 -->
<g id="edge23_Node000013_Node000014" class="edge">
<title>Node13&#45;&gt;Node14</title>
<g id="a_edge23_Node000013_Node000014"><a xlink:title=" ">
<path fill="none" stroke="#63b8ff" d="M822.04,-44.21C821.25,-35.77 820.36,-26.33 819.73,-19.61"/>
<polygon fill="#63b8ff" stroke="#63b8ff" points="818.64,-44.45 823.06,-54.08 825.61,-43.8 818.64,-44.45"/>
</a>
</g>
</g>
<!-- Node16 -->
<g id="Node000016" class="node">
<title>Node16</title>
<g id="a_Node000016"><a xlink:href="_state_estimation_app_8cpp.html" target="_top" xlink:title="Base class for State Estimation Application.">
<polygon fill="white" stroke="#666666" points="1033.76,-19.25 912.01,-19.25 912.01,0 1033.76,0 1033.76,-19.25"/>
<text text-anchor="middle" x="972.88" y="-5.75" font-family="Helvetica,sans-Serif" font-size="10.00">StateEstimationApp.cpp</text>
</a>
</g>
</g>
<!-- Node15&#45;&gt;Node16 -->
<g id="edge25_Node000015_Node000016" class="edge">
<title>Node15&#45;&gt;Node16</title>
<g id="a_edge25_Node000015_Node000016"><a xlink:title=" ">
<path fill="none" stroke="#63b8ff" d="M969.73,-44.21C970.52,-35.77 971.41,-26.33 972.04,-19.61"/>
<polygon fill="#63b8ff" stroke="#63b8ff" points="966.16,-43.8 968.71,-54.08 973.13,-44.45 966.16,-43.8"/>
</a>
</g>
</g>
<!-- Node18&#45;&gt;Node3 -->
<g id="edge28_Node000018_Node000003" class="edge">
<title>Node18&#45;&gt;Node3</title>
<g id="a_edge28_Node000018_Node000003"><a xlink:title=" ">
<path fill="none" stroke="#63b8ff" d="M529.08,-214.24C516.38,-204.84 500.58,-193.16 489.92,-185.27"/>
<polygon fill="#63b8ff" stroke="#63b8ff" points="526.55,-217.46 536.67,-220.59 530.71,-211.83 526.55,-217.46"/>
</a>
</g>
</g>
<!-- Node19 -->
<g id="Node000019" class="node">
<title>Node19</title>
<g id="a_Node000019"><a xlink:href="_space_channel_8cpp.html" target="_top" xlink:title="Base spacechannel class (Under devlopment )">
<polygon fill="white" stroke="#666666" points="639.13,-185 540.63,-185 540.63,-165.75 639.13,-165.75 639.13,-185"/>
<text text-anchor="middle" x="589.88" y="-171.5" font-family="Helvetica,sans-Serif" font-size="10.00">SpaceChannel.cpp</text>
</a>
</g>
</g>
<!-- Node18&#45;&gt;Node19 -->
<g id="edge29_Node000018_Node000019" class="edge">
<title>Node18&#45;&gt;Node19</title>
<g id="a_edge29_Node000018_Node000019"><a xlink:title=" ">
<path fill="none" stroke="#63b8ff" d="M562.93,-212.26C569.67,-203.28 577.62,-192.7 583.14,-185.36"/>
<polygon fill="#63b8ff" stroke="#63b8ff" points="559.7,-209.73 556.49,-219.83 565.29,-213.94 559.7,-209.73"/>
</a>
</g>
</g>
</g>
</svg>
