<?xml version="1.0" encoding="UTF-8" standalone="no"?>
<!DOCTYPE svg PUBLIC "-//W3C//DTD SVG 1.1//EN"
 "http://www.w3.org/Graphics/SVG/1.1/DTD/svg11.dtd">
<!-- Generated by graphviz version 8.1.0 (20230707.0739)
 -->
<!-- Title: LPT::EccentricAnomToMeanAnom Pages: 1 -->
<svg width="288pt" height="45pt"
 viewBox="0.00 0.00 288.25 45.25" xmlns="http://www.w3.org/2000/svg" xmlns:xlink="http://www.w3.org/1999/xlink">
<g id="graph0" class="graph" transform="scale(1 1) rotate(0) translate(4 41.25)">
<title>LPT::EccentricAnomToMeanAnom</title>
<!-- Node1 -->
<g id="Node000001" class="node">
<title>Node1</title>
<g id="a_Node000001"><a xlink:title="Compute mean anomaly from the eccentric anomaly.">
<polygon fill="#999999" stroke="#666666" points="165.25,-19.25 0,-19.25 0,0 165.25,0 165.25,-19.25"/>
<text text-anchor="middle" x="82.62" y="-5.75" font-family="Helvetica,sans-Serif" font-size="10.00">LPT::EccentricAnomToMeanAnom</text>
</a>
</g>
</g>
<!-- Node1&#45;&gt;Node1 -->
<g id="edge1_Node000001_Node000001" class="edge">
<title>Node1&#45;&gt;Node1</title>
<g id="a_edge1_Node000001_Node000001"><a xlink:title=" ">
<path fill="none" stroke="#63b8ff" d="M57.87,-19.54C46.58,-28.15 54.83,-37.25 82.62,-37.25 99.13,-37.25 108.74,-34.04 111.47,-29.63"/>
<polygon fill="#63b8ff" stroke="#63b8ff" points="114.38,-28.49 107.38,-20.54 107.89,-31.12 114.38,-28.49"/>
</a>
</g>
</g>
<!-- Node2 -->
<g id="Node000002" class="node">
<title>Node2</title>
<g id="a_Node000002"><a xlink:href="_math_utils_8cpp.html#a7d7ca6984da9a017ed7e3d34657fc87b" target="_top" xlink:title="Wrap the angle between &#45;pi and pi.">
<polygon fill="white" stroke="#666666" points="280.25,-19.25 201.25,-19.25 201.25,0 280.25,0 280.25,-19.25"/>
<text text-anchor="middle" x="240.75" y="-5.75" font-family="Helvetica,sans-Serif" font-size="10.00">LPT::wrapToPi</text>
</a>
</g>
</g>
<!-- Node1&#45;&gt;Node2 -->
<g id="edge2_Node000001_Node000002" class="edge">
<title>Node1&#45;&gt;Node2</title>
<g id="a_edge2_Node000001_Node000002"><a xlink:title=" ">
<path fill="none" stroke="#63b8ff" d="M165.35,-9.62C173.77,-9.62 182.14,-9.62 190.05,-9.62"/>
<polygon fill="#63b8ff" stroke="#63b8ff" points="189.91,-13.13 199.91,-9.62 189.91,-6.13 189.91,-13.13"/>
</a>
</g>
</g>
<!-- Node2&#45;&gt;Node2 -->
<g id="edge3_Node000002_Node000002" class="edge">
<title>Node2&#45;&gt;Node2</title>
<g id="a_edge3_Node000002_Node000002"><a xlink:title=" ">
<path fill="none" stroke="#63b8ff" d="M215.99,-19.54C204.7,-28.15 212.95,-37.25 240.75,-37.25 257.25,-37.25 266.87,-34.04 269.59,-29.63"/>
<polygon fill="#63b8ff" stroke="#63b8ff" points="272.5,-28.49 265.51,-20.54 266.01,-31.12 272.5,-28.49"/>
</a>
</g>
</g>
</g>
</svg>
