<?xml version="1.0" encoding="UTF-8" standalone="no"?>
<!DOCTYPE svg PUBLIC "-//W3C//DTD SVG 1.1//EN"
 "http://www.w3.org/Graphics/SVG/1.1/DTD/svg11.dtd">
<!-- Generated by graphviz version 8.1.0 (20230707.0739)
 -->
<!-- Title: OrbitState.cpp Pages: 1 -->
<!--zoomable 271 -->

<svg id="main" version="1.1" xmlns="http://www.w3.org/2000/svg" xmlns:xlink="http://www.w3.org/1999/xlink" xml:space="preserve" onload="init(evt)">
<style type="text/css"><![CDATA[
.node, .edge {opacity: 0.7;}
.node.selected, .edge.selected {opacity: 1;}
.edge:hover path { stroke: red; }
.edge:hover polygon { stroke: red; fill: red; }
]]></style>

<defs>
  <circle id="rim" cx="0" cy="0" r="7"/>
  <circle id="rim2" cx="0" cy="0" r="3.5"/>
  <g id="zoomPlus">
    <use xlink:href="#rim" fill="#404040"><set attributeName="fill" to="#808080" begin="zoomplus.mouseover" end="zoomplus.mouseout"/></use>
    <path d="M-4,0h8M0,-4v8" fill="none" stroke="white" stroke-width="1.5" pointer-events="none"/>
  </g>
  <g id="zoomMin">
    <use xlink:href="#rim" fill="#404040"><set attributeName="fill" to="#808080" begin="zoomminus.mouseover" end="zoomminus.mouseout"/></use>
    <path d="M-4,0h8" fill="none" stroke="white" stroke-width="1.5" pointer-events="none"/>
  </g>
  <g id="arrowUp" transform="translate(30 24)">
    <use xlink:href="#rim"/>
    <path pointer-events="none" fill="none" stroke="white" stroke-width="1.5" d="M0,-3.0v7 M-2.5,-0.5L0,-3.0L2.5,-0.5"/>
  </g>
  <g id="arrowRight" transform="rotate(90) translate(36 -43)">
    <use xlink:href="#rim"/>
    <path pointer-events="none" fill="none" stroke="white" stroke-width="1.5" d="M0,-3.0v7 M-2.5,-0.5L0,-3.0L2.5,-0.5"/>
  </g>
  <g id="arrowDown" transform="rotate(180) translate(-30 -48)">
    <use xlink:href="#rim"/>
    <path pointer-events="none" fill="none" stroke="white" stroke-width="1.5" d="M0,-3.0v7 M-2.5,-0.5L0,-3.0L2.5,-0.5"/>
  </g>
  <g id="arrowLeft" transform="rotate(270) translate(-36 17)">
    <use xlink:href="#rim"/>
    <path pointer-events="none" fill="none" stroke="white" stroke-width="1.5" d="M0,-3.0v7 M-2.5,-0.5L0,-3.0L2.5,-0.5"/>
  </g>
  <g id="resetDef">
    <use xlink:href="#rim2" fill="#404040"><set attributeName="fill" to="#808080" begin="reset.mouseover" end="reset.mouseout"/></use>
  </g>
</defs>
<script type="application/ecmascript">
var viewWidth = 1043;
var viewHeight = 271;
var sectionId = 'dynsection-0';
</script>
<script type="application/ecmascript" xlink:href="svg.min.js"/>
<svg id="graph" class="graph">
<g id="viewport">
<title>OrbitState.cpp</title>
<!-- Node1 -->
<g id="Node000001" class="node">
<title>Node1</title>
<g id="a_Node000001"><a xlink:title="Orbit states.">
<polygon fill="#999999" stroke="#666666" points="421,-262.75 342,-262.75 342,-243.5 421,-243.5 421,-262.75"/>
<text text-anchor="middle" x="381.5" y="-249.25" font-family="Helvetica,sans-Serif" font-size="10.00">OrbitState.cpp</text>
</a>
</g>
</g>
<!-- Node2 -->
<g id="Node000002" class="node">
<title>Node2</title>
<g id="a_Node000002"><a xlink:href="_orbit_state_8h.html" target="_top" xlink:title="Orbit states.">
<polygon fill="white" stroke="#666666" points="444.12,-141 314.88,-141 314.88,-121.75 444.12,-121.75 444.12,-141"/>
<text text-anchor="middle" x="379.5" y="-127.5" font-family="Helvetica,sans-Serif" font-size="10.00">lupnt/physics/OrbitState.h</text>
</a>
</g>
</g>
<!-- Node1&#45;&gt;Node2 -->
<g id="edge1_Node000001_Node000002" class="edge">
<title>Node1&#45;&gt;Node2</title>
<g id="a_edge1_Node000001_Node000002"><a xlink:title=" ">
<path fill="none" stroke="#63b8ff" d="M381.35,-243.12C381.03,-223.97 380.27,-178.76 379.83,-152.4"/>
<polygon fill="#63b8ff" stroke="#63b8ff" points="383.32,-152.42 379.65,-142.48 376.32,-152.54 383.32,-152.42"/>
</a>
</g>
</g>
<!-- Node10 -->
<g id="Node000010" class="node">
<title>Node10</title>
<g id="a_Node000010"><a xlink:title=" ">
<polygon fill="#e0e0e0" stroke="#999999" points="353.12,-201.88 301.88,-201.88 301.88,-182.62 353.12,-182.62 353.12,-201.88"/>
<text text-anchor="middle" x="327.5" y="-188.38" font-family="Helvetica,sans-Serif" font-size="10.00">memory</text>
</a>
</g>
</g>
<!-- Node1&#45;&gt;Node10 -->
<g id="edge11_Node000001_Node000010" class="edge">
<title>Node1&#45;&gt;Node10</title>
<g id="a_edge11_Node000001_Node000010"><a xlink:title=" ">
<path fill="none" stroke="#63b8ff" d="M373.3,-243.18C365.29,-234.45 352.9,-220.94 343.03,-210.18"/>
<polygon fill="#63b8ff" stroke="#63b8ff" points="346.12,-208.28 336.78,-203.28 340.96,-213.01 346.12,-208.28"/>
</a>
</g>
</g>
<!-- Node11 -->
<g id="Node000011" class="node">
<title>Node11</title>
<g id="a_Node000011"><a xlink:href="_constants_8h.html" target="_top" xlink:title="List of constants.">
<polygon fill="white" stroke="#666666" points="787,-141 672,-141 672,-121.75 787,-121.75 787,-141"/>
<text text-anchor="middle" x="729.5" y="-127.5" font-family="Helvetica,sans-Serif" font-size="10.00">lupnt/core/Constants.h</text>
</a>
</g>
</g>
<!-- Node1&#45;&gt;Node11 -->
<g id="edge12_Node000001_Node000011" class="edge">
<title>Node1&#45;&gt;Node11</title>
<g id="a_edge12_Node000001_Node000011"><a xlink:title=" ">
<path fill="none" stroke="#63b8ff" d="M418.38,-243.05C451.04,-234.73 499.84,-221.59 541.5,-207.5 598.11,-188.36 662.45,-161.51 699.28,-145.63"/>
<polygon fill="#63b8ff" stroke="#63b8ff" points="700.12,-148.64 707.91,-141.46 697.34,-142.22 700.12,-148.64"/>
</a>
</g>
</g>
<!-- Node18 -->
<g id="Node000018" class="node">
<title>Node18</title>
<g id="a_Node000018"><a xlink:href="_math_utils_8h.html" target="_top" xlink:title=" ">
<polygon fill="white" stroke="#666666" points="133,-85.75 0,-85.75 0,-66.5 133,-66.5 133,-85.75"/>
<text text-anchor="middle" x="66.5" y="-72.25" font-family="Helvetica,sans-Serif" font-size="10.00">lupnt/numerics/MathUtils.h</text>
</a>
</g>
</g>
<!-- Node1&#45;&gt;Node18 -->
<g id="edge21_Node000001_Node000018" class="edge">
<title>Node1&#45;&gt;Node18</title>
<g id="a_edge21_Node000001_Node000018"><a xlink:title=" ">
<path fill="none" stroke="#63b8ff" d="M362.58,-243.04C344.45,-234.24 316.39,-220.37 292.5,-207.5 217.89,-167.32 131.64,-116.24 90.6,-91.65"/>
<polygon fill="#63b8ff" stroke="#63b8ff" points="92.78,-88.28 82.4,-86.13 89.18,-94.28 92.78,-88.28"/>
</a>
</g>
</g>
<!-- Node20 -->
<g id="Node000020" class="node">
<title>Node20</title>
<g id="a_Node000020"><a xlink:href="_orbit_state_utils_8h.html" target="_top" xlink:title="Util functions for state conversions.">
<polygon fill="white" stroke="#666666" points="533,-207.5 412,-207.5 412,-177 533,-177 533,-207.5"/>
<text text-anchor="start" x="420" y="-194" font-family="Helvetica,sans-Serif" font-size="10.00">lupnt/physics/OrbitState</text>
<text text-anchor="middle" x="472.5" y="-182.75" font-family="Helvetica,sans-Serif" font-size="10.00">Utils.h</text>
</a>
</g>
</g>
<!-- Node1&#45;&gt;Node20 -->
<g id="edge25_Node000001_Node000020" class="edge">
<title>Node1&#45;&gt;Node20</title>
<g id="a_edge25_Node000001_Node000020"><a xlink:title=" ">
<path fill="none" stroke="#63b8ff" d="M395.32,-243.18C407.46,-235.33 425.56,-223.62 441.19,-213.51"/>
<polygon fill="#63b8ff" stroke="#63b8ff" points="442.54,-216.15 449.04,-207.78 438.74,-210.28 442.54,-216.15"/>
</a>
</g>
</g>
<!-- Node3 -->
<g id="Node000003" class="node">
<title>Node3</title>
<g id="a_Node000003"><a xlink:title=" ">
<polygon fill="#e0e0e0" stroke="#999999" points="479.62,-85.75 407.38,-85.75 407.38,-66.5 479.62,-66.5 479.62,-85.75"/>
<text text-anchor="middle" x="443.5" y="-72.25" font-family="Helvetica,sans-Serif" font-size="10.00">Eigen/Dense</text>
</a>
</g>
</g>
<!-- Node2&#45;&gt;Node3 -->
<g id="edge2_Node000002_Node000003" class="edge">
<title>Node2&#45;&gt;Node3</title>
<g id="a_edge2_Node000002_Node000003"><a xlink:title=" ">
<path fill="none" stroke="#63b8ff" d="M390.36,-121.34C399.7,-113.57 413.39,-102.17 424.54,-92.9"/>
<polygon fill="#63b8ff" stroke="#63b8ff" points="426.36,-95.11 431.8,-86.02 421.88,-89.73 426.36,-95.11"/>
</a>
</g>
</g>
<!-- Node4 -->
<g id="Node000004" class="node">
<title>Node4</title>
<g id="a_Node000004"><a xlink:title=" ">
<polygon fill="#e0e0e0" stroke="#999999" points="464,-24.88 343,-24.88 343,-5.63 464,-5.63 464,-24.88"/>
<text text-anchor="middle" x="403.5" y="-11.38" font-family="Helvetica,sans-Serif" font-size="10.00">autodiff/forward/real.hpp</text>
</a>
</g>
</g>
<!-- Node2&#45;&gt;Node4 -->
<g id="edge3_Node000002_Node000004" class="edge">
<title>Node2&#45;&gt;Node4</title>
<g id="a_edge3_Node000002_Node000004"><a xlink:title=" ">
<path fill="none" stroke="#63b8ff" d="M381.38,-121.42C385.24,-103.09 394.11,-60.9 399.37,-35.88"/>
<polygon fill="#63b8ff" stroke="#63b8ff" points="402.99,-36.67 401.63,-26.16 396.14,-35.23 402.99,-36.67"/>
</a>
</g>
</g>
<!-- Node5 -->
<g id="Node000005" class="node">
<title>Node5</title>
<g id="a_Node000005"><a xlink:title=" ">
<polygon fill="#e0e0e0" stroke="#999999" points="237.62,-30.5 135.38,-30.5 135.38,0 237.62,0 237.62,-30.5"/>
<text text-anchor="start" x="143.38" y="-17" font-family="Helvetica,sans-Serif" font-size="10.00">autodiff/forward/real</text>
<text text-anchor="middle" x="186.5" y="-5.75" font-family="Helvetica,sans-Serif" font-size="10.00">/eigen.hpp</text>
</a>
</g>
</g>
<!-- Node2&#45;&gt;Node5 -->
<g id="edge4_Node000002_Node000005" class="edge">
<title>Node2&#45;&gt;Node5</title>
<g id="a_edge4_Node000002_Node000005"><a xlink:title=" ">
<path fill="none" stroke="#63b8ff" d="M361.01,-121.26C343.61,-112.55 316.96,-98.84 294.5,-85.75 267.82,-70.2 238.39,-51.13 217.01,-36.91"/>
<polygon fill="#63b8ff" stroke="#63b8ff" points="219.33,-33.58 209.07,-30.93 215.44,-39.4 219.33,-33.58"/>
</a>
</g>
</g>
<!-- Node6 -->
<g id="Node000006" class="node">
<title>Node6</title>
<g id="a_Node000006"><a xlink:title=" ">
<polygon fill="#e0e0e0" stroke="#999999" points="615.12,-85.75 497.88,-85.75 497.88,-66.5 615.12,-66.5 615.12,-85.75"/>
<text text-anchor="middle" x="556.5" y="-72.25" font-family="Helvetica,sans-Serif" font-size="10.00">boost/preprocessor.hpp</text>
</a>
</g>
</g>
<!-- Node2&#45;&gt;Node6 -->
<g id="edge5_Node000002_Node000006" class="edge">
<title>Node2&#45;&gt;Node6</title>
<g id="a_edge5_Node000002_Node000006"><a xlink:title=" ">
<path fill="none" stroke="#63b8ff" d="M409.53,-121.34C438.77,-112.54 483.43,-99.11 515.84,-89.36"/>
<polygon fill="#63b8ff" stroke="#63b8ff" points="516.76,-92.44 525.33,-86.2 514.74,-85.73 516.76,-92.44"/>
</a>
</g>
</g>
<!-- Node7 -->
<g id="Node000007" class="node">
<title>Node7</title>
<g id="a_Node000007"><a xlink:title=" ">
<polygon fill="#e0e0e0" stroke="#999999" points="247.88,-85.75 189.12,-85.75 189.12,-66.5 247.88,-66.5 247.88,-85.75"/>
<text text-anchor="middle" x="218.5" y="-72.25" font-family="Helvetica,sans-Serif" font-size="10.00">stdexcept</text>
</a>
</g>
</g>
<!-- Node2&#45;&gt;Node7 -->
<g id="edge6_Node000002_Node000007" class="edge">
<title>Node2&#45;&gt;Node7</title>
<g id="a_edge6_Node000002_Node000007"><a xlink:title=" ">
<path fill="none" stroke="#63b8ff" d="M352.19,-121.34C325.82,-112.62 285.67,-99.34 256.25,-89.61"/>
<polygon fill="#63b8ff" stroke="#63b8ff" points="257.54,-86.02 246.95,-86.2 255.34,-92.67 257.54,-86.02"/>
</a>
</g>
</g>
<!-- Node8 -->
<g id="Node000008" class="node">
<title>Node8</title>
<g id="a_Node000008"><a xlink:href="_state_8h.html" target="_top" xlink:title="SPICE Interface functions.">
<polygon fill="white" stroke="#666666" points="351.25,-85.75 303.75,-85.75 303.75,-66.5 351.25,-66.5 351.25,-85.75"/>
<text text-anchor="middle" x="327.5" y="-72.25" font-family="Helvetica,sans-Serif" font-size="10.00">State.h</text>
</a>
</g>
</g>
<!-- Node2&#45;&gt;Node8 -->
<g id="edge7_Node000002_Node000008" class="edge">
<title>Node2&#45;&gt;Node8</title>
<g id="a_edge7_Node000002_Node000008"><a xlink:title=" ">
<path fill="none" stroke="#63b8ff" d="M370.91,-121.58C363.58,-114.07 352.83,-103.06 343.86,-93.88"/>
<polygon fill="#63b8ff" stroke="#63b8ff" points="346.76,-91.82 337.27,-87.11 341.76,-96.71 346.76,-91.82"/>
</a>
</g>
</g>
<!-- Node8&#45;&gt;Node4 -->
<g id="edge8_Node000008_Node000004" class="edge">
<title>Node8&#45;&gt;Node4</title>
<g id="a_edge8_Node000008_Node000004"><a xlink:title=" ">
<path fill="none" stroke="#63b8ff" d="M339.04,-66.18C350.76,-57.11 369.14,-42.87 383.28,-31.91"/>
<polygon fill="#63b8ff" stroke="#63b8ff" points="385.09,-34.17 390.85,-25.28 380.8,-28.63 385.09,-34.17"/>
</a>
</g>
</g>
<!-- Node8&#45;&gt;Node5 -->
<g id="edge9_Node000008_Node000005" class="edge">
<title>Node8&#45;&gt;Node5</title>
<g id="a_edge9_Node000008_Node000005"><a xlink:title=" ">
<path fill="none" stroke="#63b8ff" d="M305.78,-66.05C286.09,-57.83 256.44,-45.45 231.63,-35.1"/>
<polygon fill="#63b8ff" stroke="#63b8ff" points="233.27,-31.57 222.69,-30.94 230.57,-38.03 233.27,-31.57"/>
</a>
</g>
</g>
<!-- Node9 -->
<g id="Node000009" class="node">
<title>Node9</title>
<g id="a_Node000009"><a xlink:title=" ">
<polygon fill="#e0e0e0" stroke="#999999" points="325,-24.88 282,-24.88 282,-5.63 325,-5.63 325,-24.88"/>
<text text-anchor="middle" x="303.5" y="-11.38" font-family="Helvetica,sans-Serif" font-size="10.00">vector</text>
</a>
</g>
</g>
<!-- Node8&#45;&gt;Node9 -->
<g id="edge10_Node000008_Node000009" class="edge">
<title>Node8&#45;&gt;Node9</title>
<g id="a_edge10_Node000008_Node000009"><a xlink:title=" ">
<path fill="none" stroke="#63b8ff" d="M323.85,-66.18C320.54,-58.06 315.54,-45.79 311.33,-35.45"/>
<polygon fill="#63b8ff" stroke="#63b8ff" points="314.2,-34.21 307.18,-26.28 307.71,-36.86 314.2,-34.21"/>
</a>
</g>
</g>
<!-- Node11&#45;&gt;Node4 -->
<g id="edge14_Node000011_Node000004" class="edge">
<title>Node11&#45;&gt;Node4</title>
<g id="a_edge14_Node000011_Node000004"><a xlink:title=" ">
<path fill="none" stroke="#63b8ff" d="M722.15,-121.3C710.19,-107.18 685.04,-80.16 657.5,-66.5 600.17,-38.06 528.04,-25.71 475.31,-20.35"/>
<polygon fill="#63b8ff" stroke="#63b8ff" points="475.65,-16.77 465.37,-19.31 474.99,-23.74 475.65,-16.77"/>
</a>
</g>
</g>
<!-- Node12 -->
<g id="Node000012" class="node">
<title>Node12</title>
<g id="a_Node000012"><a xlink:title=" ">
<polygon fill="#e0e0e0" stroke="#999999" points="881.38,-85.75 747.62,-85.75 747.62,-66.5 881.38,-66.5 881.38,-85.75"/>
<text text-anchor="middle" x="814.5" y="-72.25" font-family="Helvetica,sans-Serif" font-size="10.00">autodiff/common/eigen.hpp</text>
</a>
</g>
</g>
<!-- Node11&#45;&gt;Node12 -->
<g id="edge13_Node000011_Node000012" class="edge">
<title>Node11&#45;&gt;Node12</title>
<g id="a_edge13_Node000011_Node000012"><a xlink:title=" ">
<path fill="none" stroke="#63b8ff" d="M743.92,-121.34C756.74,-113.31 775.73,-101.41 790.79,-91.98"/>
<polygon fill="#63b8ff" stroke="#63b8ff" points="792.39,-94.48 799.01,-86.2 788.68,-88.55 792.39,-94.48"/>
</a>
</g>
</g>
<!-- Node13 -->
<g id="Node000013" class="node">
<title>Node13</title>
<g id="a_Node000013"><a xlink:title=" ">
<polygon fill="#e0e0e0" stroke="#999999" points="777.5,-24.88 737.5,-24.88 737.5,-5.63 777.5,-5.63 777.5,-24.88"/>
<text text-anchor="middle" x="757.5" y="-11.38" font-family="Helvetica,sans-Serif" font-size="10.00">string</text>
</a>
</g>
</g>
<!-- Node11&#45;&gt;Node13 -->
<g id="edge15_Node000011_Node000013" class="edge">
<title>Node11&#45;&gt;Node13</title>
<g id="a_edge15_Node000011_Node000013"><a xlink:title=" ">
<path fill="none" stroke="#63b8ff" d="M730.12,-121.58C731.13,-109.15 733.55,-85.81 738.5,-66.5 741.2,-55.97 745.38,-44.6 749.13,-35.35"/>
<polygon fill="#63b8ff" stroke="#63b8ff" points="752.71,-36.89 753.37,-26.31 746.26,-34.16 752.71,-36.89"/>
</a>
</g>
</g>
<!-- Node14 -->
<g id="Node000014" class="node">
<title>Node14</title>
<g id="a_Node000014"><a xlink:href="_user_file_path_8h.html" target="_top" xlink:title="File access utils.">
<polygon fill="white" stroke="#666666" points="981.12,-85.75 899.88,-85.75 899.88,-66.5 981.12,-66.5 981.12,-85.75"/>
<text text-anchor="middle" x="940.5" y="-72.25" font-family="Helvetica,sans-Serif" font-size="10.00">UserFilePath.h</text>
</a>
</g>
</g>
<!-- Node11&#45;&gt;Node14 -->
<g id="edge16_Node000011_Node000014" class="edge">
<title>Node11&#45;&gt;Node14</title>
<g id="a_edge16_Node000011_Node000014"><a xlink:title=" ">
<path fill="none" stroke="#63b8ff" d="M765.29,-121.34C800.76,-112.39 855.25,-98.64 894.04,-88.85"/>
<polygon fill="#63b8ff" stroke="#63b8ff" points="894.69,-92.04 903.53,-86.2 892.98,-85.26 894.69,-92.04"/>
</a>
</g>
</g>
<!-- Node14&#45;&gt;Node13 -->
<g id="edge20_Node000014_Node000013" class="edge">
<title>Node14&#45;&gt;Node13</title>
<g id="a_edge20_Node000014_Node000013"><a xlink:title=" ">
<path fill="none" stroke="#63b8ff" d="M912.31,-66.05C878.74,-55.26 822.89,-37.29 788.24,-26.14"/>
<polygon fill="#63b8ff" stroke="#63b8ff" points="789.38,-22.51 778.79,-22.78 787.24,-29.17 789.38,-22.51"/>
</a>
</g>
</g>
<!-- Node15 -->
<g id="Node000015" class="node">
<title>Node15</title>
<g id="a_Node000015"><a xlink:title=" ">
<polygon fill="#e0e0e0" stroke="#999999" points="896,-24.88 835,-24.88 835,-5.63 896,-5.63 896,-24.88"/>
<text text-anchor="middle" x="865.5" y="-11.38" font-family="Helvetica,sans-Serif" font-size="10.00">filesystem</text>
</a>
</g>
</g>
<!-- Node14&#45;&gt;Node15 -->
<g id="edge17_Node000014_Node000015" class="edge">
<title>Node14&#45;&gt;Node15</title>
<g id="a_edge17_Node000014_Node000015"><a xlink:title=" ">
<path fill="none" stroke="#63b8ff" d="M929.11,-66.18C917.55,-57.11 899.41,-42.87 885.45,-31.91"/>
<polygon fill="#63b8ff" stroke="#63b8ff" points="888.03,-28.7 878,-25.28 883.7,-34.2 888.03,-28.7"/>
</a>
</g>
</g>
<!-- Node16 -->
<g id="Node000016" class="node">
<title>Node16</title>
<g id="a_Node000016"><a xlink:title=" ">
<polygon fill="#e0e0e0" stroke="#999999" points="967.25,-24.88 913.75,-24.88 913.75,-5.63 967.25,-5.63 967.25,-24.88"/>
<text text-anchor="middle" x="940.5" y="-11.38" font-family="Helvetica,sans-Serif" font-size="10.00">iostream</text>
</a>
</g>
</g>
<!-- Node14&#45;&gt;Node16 -->
<g id="edge18_Node000014_Node000016" class="edge">
<title>Node14&#45;&gt;Node16</title>
<g id="a_edge18_Node000014_Node000016"><a xlink:title=" ">
<path fill="none" stroke="#63b8ff" d="M940.5,-66.18C940.5,-58.23 940.5,-46.31 940.5,-36.12"/>
<polygon fill="#63b8ff" stroke="#63b8ff" points="944,-36.28 940.5,-26.28 937,-36.28 944,-36.28"/>
</a>
</g>
</g>
<!-- Node17 -->
<g id="Node000017" class="node">
<title>Node17</title>
<g id="a_Node000017"><a xlink:title=" ">
<polygon fill="#e0e0e0" stroke="#999999" points="1035.38,-24.88 985.62,-24.88 985.62,-5.63 1035.38,-5.63 1035.38,-24.88"/>
<text text-anchor="middle" x="1010.5" y="-11.38" font-family="Helvetica,sans-Serif" font-size="10.00">optional</text>
</a>
</g>
</g>
<!-- Node14&#45;&gt;Node17 -->
<g id="edge19_Node000014_Node000017" class="edge">
<title>Node14&#45;&gt;Node17</title>
<g id="a_edge19_Node000014_Node000017"><a xlink:title=" ">
<path fill="none" stroke="#63b8ff" d="M951.13,-66.18C961.82,-57.19 978.53,-43.14 991.5,-32.23"/>
<polygon fill="#63b8ff" stroke="#63b8ff" points="993.37,-34.39 998.77,-25.28 988.86,-29.03 993.37,-34.39"/>
</a>
</g>
</g>
<!-- Node18&#45;&gt;Node4 -->
<g id="edge22_Node000018_Node000004" class="edge">
<title>Node18&#45;&gt;Node4</title>
<g id="a_edge22_Node000018_Node000004"><a xlink:title=" ">
<path fill="none" stroke="#63b8ff" d="M124.68,-66.01C178.84,-57.38 261.76,-43.79 333.5,-30.5 338.78,-29.52 344.27,-28.47 349.75,-27.39"/>
<polygon fill="#63b8ff" stroke="#63b8ff" points="350.11,-30.69 359.23,-25.31 348.74,-23.83 350.11,-30.69"/>
</a>
</g>
</g>
<!-- Node18&#45;&gt;Node5 -->
<g id="edge23_Node000018_Node000005" class="edge">
<title>Node18&#45;&gt;Node5</title>
<g id="a_edge23_Node000018_Node000005"><a xlink:title=" ">
<path fill="none" stroke="#63b8ff" d="M84.99,-66.05C101.37,-58.02 125.86,-46 146.68,-35.79"/>
<polygon fill="#63b8ff" stroke="#63b8ff" points="148.11,-38.49 155.55,-30.94 145.03,-32.21 148.11,-38.49"/>
</a>
</g>
</g>
<!-- Node19 -->
<g id="Node000019" class="node">
<title>Node19</title>
<g id="a_Node000019"><a xlink:title=" ">
<polygon fill="#e0e0e0" stroke="#999999" points="90.62,-24.88 42.38,-24.88 42.38,-5.63 90.62,-5.63 90.62,-24.88"/>
<text text-anchor="middle" x="66.5" y="-11.38" font-family="Helvetica,sans-Serif" font-size="10.00">random</text>
</a>
</g>
</g>
<!-- Node18&#45;&gt;Node19 -->
<g id="edge24_Node000018_Node000019" class="edge">
<title>Node18&#45;&gt;Node19</title>
<g id="a_edge24_Node000018_Node000019"><a xlink:title=" ">
<path fill="none" stroke="#63b8ff" d="M66.5,-66.18C66.5,-58.23 66.5,-46.31 66.5,-36.12"/>
<polygon fill="#63b8ff" stroke="#63b8ff" points="70,-36.28 66.5,-26.28 63,-36.28 70,-36.28"/>
</a>
</g>
</g>
<!-- Node20&#45;&gt;Node2 -->
<g id="edge27_Node000020_Node000002" class="edge">
<title>Node20&#45;&gt;Node2</title>
<g id="a_edge27_Node000020_Node000002"><a xlink:title=" ">
<path fill="none" stroke="#63b8ff" d="M449.51,-176.7C435.35,-167.73 417.24,-156.27 402.99,-147.25"/>
<polygon fill="#63b8ff" stroke="#63b8ff" points="405.16,-143.84 394.84,-141.45 401.41,-149.76 405.16,-143.84"/>
</a>
</g>
</g>
<!-- Node20&#45;&gt;Node3 -->
<g id="edge28_Node000020_Node000003" class="edge">
<title>Node20&#45;&gt;Node3</title>
<g id="a_edge28_Node000020_Node000003"><a xlink:title=" ">
<path fill="none" stroke="#63b8ff" d="M468.83,-176.8C463.66,-156.47 454.24,-119.38 448.46,-96.62"/>
<polygon fill="#63b8ff" stroke="#63b8ff" points="451.66,-96.03 445.81,-87.2 444.88,-97.75 451.66,-96.03"/>
</a>
</g>
</g>
<!-- Node20&#45;&gt;Node4 -->
<g id="edge29_Node000020_Node000004" class="edge">
<title>Node20&#45;&gt;Node4</title>
<g id="a_edge29_Node000020_Node000004"><a xlink:title=" ">
<path fill="none" stroke="#63b8ff" d="M517.27,-176.61C574.61,-155.52 662.3,-113.86 624.5,-66.5 605.97,-43.28 532.39,-29.97 475.17,-22.96"/>
<polygon fill="#63b8ff" stroke="#63b8ff" points="475.66,-19.37 465.32,-21.68 474.84,-26.32 475.66,-19.37"/>
</a>
</g>
</g>
<!-- Node20&#45;&gt;Node5 -->
<g id="edge30_Node000020_Node000005" class="edge">
<title>Node20&#45;&gt;Node5</title>
<g id="a_edge30_Node000020_Node000005"><a xlink:title=" ">
<path fill="none" stroke="#63b8ff" d="M411.7,-178.27C333.97,-160.26 206.31,-125.38 180.5,-85.75 172.05,-72.78 173.54,-55.43 177.14,-41.31"/>
<polygon fill="#63b8ff" stroke="#63b8ff" points="180.77,-42.42 180.34,-31.83 174.07,-40.38 180.77,-42.42"/>
</a>
</g>
</g>
<!-- Node20&#45;&gt;Node6 -->
<g id="edge31_Node000020_Node000006" class="edge">
<title>Node20&#45;&gt;Node6</title>
<g id="a_edge31_Node000020_Node000006"><a xlink:title=" ">
<path fill="none" stroke="#63b8ff" d="M483.14,-176.8C498.51,-155.91 526.91,-117.32 543.51,-94.78"/>
<polygon fill="#63b8ff" stroke="#63b8ff" points="546.71,-97.33 549.82,-87.2 541.08,-93.18 546.71,-97.33"/>
</a>
</g>
</g>
<!-- Node20&#45;&gt;Node11 -->
<g id="edge26_Node000020_Node000011" class="edge">
<title>Node20&#45;&gt;Node11</title>
<g id="a_edge26_Node000020_Node000011"><a xlink:title=" ">
<path fill="none" stroke="#63b8ff" d="M533.41,-177.3C577.92,-167.1 637.56,-153.44 679.34,-143.87"/>
<polygon fill="#63b8ff" stroke="#63b8ff" points="679.86,-147.11 688.82,-141.46 678.29,-140.29 679.86,-147.11"/>
</a>
</g>
</g>
</g>
</svg>

<g id="navigator" transform="translate(0 0)" fill="#404254">
  <rect fill="#f2f5e9" fill-opacity="0.5" stroke="#606060" stroke-width=".5" x="0" y="0" width="60" height="60"/>
  <use id="zoomplus" xlink:href="#zoomPlus" x="17" y="9" onmousedown="handleZoom(evt,'in')"/>
  <use id="zoomminus" xlink:href="#zoomMin" x="42" y="9" onmousedown="handleZoom(evt,'out')"/>
  <use id="reset" xlink:href="#resetDef" x="30" y="36" onmousedown="handleReset()"/>
   <use id="arrowup" xlink:href="#arrowUp" x="0" y="0" onmousedown="handlePan(0,-1)"/>
  <use id="arrowright" xlink:href="#arrowRight" x="0" y="0" onmousedown="handlePan(1,0)"/>
  <use id="arrowdown" xlink:href="#arrowDown" x="0" y="0" onmousedown="handlePan(0,1)"/>
  <use id="arrowleft" xlink:href="#arrowLeft" x="0" y="0" onmousedown="handlePan(-1,0)"/>
</g>
<svg viewBox="0 0 15 15" width="100%" height="30px" preserveAspectRatio="xMaxYMin meet">
 <g id="arrow_out" transform="scale(0.3 0.3)">
  <a xlink:href="_orbit_state_8cpp__incl_org.svg" target="_base">
   <rect id="button" ry="5" rx="5" y="6" x="6" height="38" width="38"
        fill="#f2f5e9" fill-opacity="0.5" stroke="#606060" stroke-width="1.0"/>
   <path id="arrow"
     d="M 11.500037,31.436501 C 11.940474,20.09759 22.043105,11.32322 32.158766,21.979434 L 37.068811,17.246167 C 37.068811,17.246167 37.088388,32 37.088388,32 L 22.160133,31.978069 C 22.160133,31.978069 26.997745,27.140456 26.997745,27.140456 C 18.528582,18.264221 13.291696,25.230495 11.500037,31.436501 z"
     style="fill:#404040;"/>
  </a>
 </g>
</svg>

<style type='text/css'>
<![CDATA[
[data-mouse-over-selected='false'] { opacity: 0.7; }
[data-mouse-over-selected='true']  { opacity: 1.0; }
]]>
</style>
<script type="application/ecmascript"><![CDATA[
document.addEventListener('DOMContentLoaded', (event) => {
  highlightEdges();
  highlightAdjacentNodes();
});
]]></script>
</svg>
