<?xml version="1.0" encoding="UTF-8" standalone="no"?>
<!DOCTYPE svg PUBLIC "-//W3C//DTD SVG 1.1//EN"
 "http://www.w3.org/Graphics/SVG/1.1/DTD/svg11.dtd">
<!-- Generated by graphviz version 8.1.0 (20230707.0739)
 -->
<!-- Title: OrbitState.h Pages: 1 -->
<!--zoomable 248 -->

<svg id="main" version="1.1" xmlns="http://www.w3.org/2000/svg" xmlns:xlink="http://www.w3.org/1999/xlink" xml:space="preserve" onload="init(evt)">
<style type="text/css"><![CDATA[
.node, .edge {opacity: 0.7;}
.node.selected, .edge.selected {opacity: 1;}
.edge:hover path { stroke: red; }
.edge:hover polygon { stroke: red; fill: red; }
]]></style>

<defs>
  <circle id="rim" cx="0" cy="0" r="7"/>
  <circle id="rim2" cx="0" cy="0" r="3.5"/>
  <g id="zoomPlus">
    <use xlink:href="#rim" fill="#404040"><set attributeName="fill" to="#808080" begin="zoomplus.mouseover" end="zoomplus.mouseout"/></use>
    <path d="M-4,0h8M0,-4v8" fill="none" stroke="white" stroke-width="1.5" pointer-events="none"/>
  </g>
  <g id="zoomMin">
    <use xlink:href="#rim" fill="#404040"><set attributeName="fill" to="#808080" begin="zoomminus.mouseover" end="zoomminus.mouseout"/></use>
    <path d="M-4,0h8" fill="none" stroke="white" stroke-width="1.5" pointer-events="none"/>
  </g>
  <g id="arrowUp" transform="translate(30 24)">
    <use xlink:href="#rim"/>
    <path pointer-events="none" fill="none" stroke="white" stroke-width="1.5" d="M0,-3.0v7 M-2.5,-0.5L0,-3.0L2.5,-0.5"/>
  </g>
  <g id="arrowRight" transform="rotate(90) translate(36 -43)">
    <use xlink:href="#rim"/>
    <path pointer-events="none" fill="none" stroke="white" stroke-width="1.5" d="M0,-3.0v7 M-2.5,-0.5L0,-3.0L2.5,-0.5"/>
  </g>
  <g id="arrowDown" transform="rotate(180) translate(-30 -48)">
    <use xlink:href="#rim"/>
    <path pointer-events="none" fill="none" stroke="white" stroke-width="1.5" d="M0,-3.0v7 M-2.5,-0.5L0,-3.0L2.5,-0.5"/>
  </g>
  <g id="arrowLeft" transform="rotate(270) translate(-36 17)">
    <use xlink:href="#rim"/>
    <path pointer-events="none" fill="none" stroke="white" stroke-width="1.5" d="M0,-3.0v7 M-2.5,-0.5L0,-3.0L2.5,-0.5"/>
  </g>
  <g id="resetDef">
    <use xlink:href="#rim2" fill="#404040"><set attributeName="fill" to="#808080" begin="reset.mouseover" end="reset.mouseout"/></use>
  </g>
</defs>
<script type="application/ecmascript">
var viewWidth = 2453;
var viewHeight = 248;
var sectionId = 'dynsection-1';
</script>
<script type="application/ecmascript" xlink:href="svg.min.js"/>
<svg id="graph" class="graph">
<g id="viewport">
<title>OrbitState.h</title>
<!-- Node1 -->
<g id="Node000001" class="node">
<title>Node1</title>
<g id="a_Node000001"><a xlink:title="Orbit states.">
<polygon fill="#999999" stroke="#666666" points="1363.12,-240.25 1294.62,-240.25 1294.62,-221 1363.12,-221 1363.12,-240.25"/>
<text text-anchor="middle" x="1328.88" y="-226.75" font-family="Helvetica,sans-Serif" font-size="10.00">OrbitState.h</text>
</a>
</g>
</g>
<!-- Node2 -->
<g id="Node000002" class="node">
<title>Node2</title>
<g id="a_Node000002"><a xlink:href="_agent_8h.html" target="_top" xlink:title="List of agents.">
<polygon fill="white" stroke="#666666" points="1033.75,-129.75 984,-129.75 984,-110.5 1033.75,-110.5 1033.75,-129.75"/>
<text text-anchor="middle" x="1008.88" y="-116.25" font-family="Helvetica,sans-Serif" font-size="10.00">Agent.h</text>
</a>
</g>
</g>
<!-- Node1&#45;&gt;Node2 -->
<g id="edge1_Node000001_Node000002" class="edge">
<title>Node1&#45;&gt;Node2</title>
<g id="a_edge1_Node000001_Node000002"><a xlink:title=" ">
<path fill="none" stroke="#63b8ff" d="M1283.78,-218.56C1251.27,-210.24 1206.51,-198.07 1167.88,-185 1117.29,-167.89 1059.47,-143.37 1029.43,-130.24"/>
<polygon fill="#63b8ff" stroke="#63b8ff" points="1282.75,-222.17 1293.3,-221.23 1284.47,-215.38 1282.75,-222.17"/>
</a>
</g>
</g>
<!-- Node4 -->
<g id="Node000004" class="node">
<title>Node4</title>
<g id="a_Node000004"><a xlink:href="_example_constellations_8cpp.html" target="_top" xlink:title="Setup GNSS Constellation.">
<polygon fill="white" stroke="#666666" points="275.5,-19.25 140.25,-19.25 140.25,0 275.5,0 275.5,-19.25"/>
<text text-anchor="middle" x="207.88" y="-5.75" font-family="Helvetica,sans-Serif" font-size="10.00">ExampleConstellations.cpp</text>
</a>
</g>
</g>
<!-- Node1&#45;&gt;Node4 -->
<g id="edge51_Node000001_Node000004" class="edge">
<title>Node1&#45;&gt;Node4</title>
<g id="a_edge51_Node000001_Node000004"><a xlink:title=" ">
<path fill="none" stroke="#63b8ff" d="M1283.47,-229.61C1148.51,-229.11 738.26,-224.21 400.88,-185 225.74,-164.65 103.12,-229.92 19.88,-74.5 15.84,-66.96 14.57,-61.96 19.88,-55.25 28.38,-44.49 102.71,-29.27 155.31,-19.68"/>
<polygon fill="#63b8ff" stroke="#63b8ff" points="1283.18,-233.11 1293.19,-229.64 1283.2,-226.11 1283.18,-233.11"/>
</a>
</g>
</g>
<!-- Node5 -->
<g id="Node000005" class="node">
<title>Node5</title>
<g id="a_Node000005"><a xlink:href="_example_e_k_f_8cpp.html" target="_top" xlink:title="Example of Extended Kalman Filter for orbit determination.">
<polygon fill="white" stroke="#666666" points="1033.38,-19.25 942.38,-19.25 942.38,0 1033.38,0 1033.38,-19.25"/>
<text text-anchor="middle" x="987.88" y="-5.75" font-family="Helvetica,sans-Serif" font-size="10.00">ExampleEKF.cpp</text>
</a>
</g>
</g>
<!-- Node1&#45;&gt;Node5 -->
<g id="edge52_Node000001_Node000005" class="edge">
<title>Node1&#45;&gt;Node5</title>
<g id="a_edge52_Node000001_Node000005"><a xlink:title=" ">
<path fill="none" stroke="#63b8ff" d="M1283.25,-227.96C1061.76,-219.38 106.1,-176.61 27.88,-74.5 22.67,-67.71 21.97,-61.44 27.88,-55.25 35.87,-46.88 751.93,-19.47 942,-12.33"/>
<polygon fill="#63b8ff" stroke="#63b8ff" points="1283,-231.49 1293.13,-228.37 1283.27,-224.49 1283,-231.49"/>
</a>
</g>
</g>
<!-- Node6 -->
<g id="Node000006" class="node">
<title>Node6</title>
<g id="a_Node000006"><a xlink:href="_example_e_k_f_app_8cpp.html" target="_top" xlink:title="Example of EKF application.">
<polygon fill="white" stroke="#666666" points="1442.75,-19.25 1333,-19.25 1333,0 1442.75,0 1442.75,-19.25"/>
<text text-anchor="middle" x="1387.88" y="-5.75" font-family="Helvetica,sans-Serif" font-size="10.00">ExampleEKFApp.cpp</text>
</a>
</g>
</g>
<!-- Node1&#45;&gt;Node6 -->
<g id="edge53_Node000001_Node000006" class="edge">
<title>Node1&#45;&gt;Node6</title>
<g id="a_edge53_Node000001_Node000006"><a xlink:title=" ">
<path fill="none" stroke="#63b8ff" d="M1374.3,-229.3C1572.65,-227.4 2355.87,-214.53 2419.88,-129.75 2542.55,32.74 2170.47,-75.42 1967.88,-55.25 1775.43,-36.09 1546.35,-20.63 1443.13,-14.05"/>
<polygon fill="#63b8ff" stroke="#63b8ff" points="1374.38,-225.81 1364.42,-229.4 1374.45,-232.81 1374.38,-225.81"/>
</a>
</g>
</g>
<!-- Node7 -->
<g id="Node000007" class="node">
<title>Node7</title>
<g id="a_Node000007"><a xlink:href="_example_propagation_8cpp.html" target="_top" xlink:title="Example propagating both GPS constellation and Lunar Satellite.">
<polygon fill="white" stroke="#666666" points="1315.25,-19.25 1190.5,-19.25 1190.5,0 1315.25,0 1315.25,-19.25"/>
<text text-anchor="middle" x="1252.88" y="-5.75" font-family="Helvetica,sans-Serif" font-size="10.00">ExamplePropagation.cpp</text>
</a>
</g>
</g>
<!-- Node1&#45;&gt;Node7 -->
<g id="edge55_Node000001_Node000007" class="edge">
<title>Node1&#45;&gt;Node7</title>
<g id="a_edge55_Node000001_Node000007"><a xlink:title=" ">
<path fill="none" stroke="#63b8ff" d="M1322.25,-210.53C1306.46,-165.05 1267.12,-51.67 1255.9,-19.35"/>
<polygon fill="#63b8ff" stroke="#63b8ff" points="1319.22,-211.47 1325.8,-219.77 1325.83,-209.17 1319.22,-211.47"/>
</a>
</g>
</g>
<!-- Node8 -->
<g id="Node000008" class="node">
<title>Node8</title>
<g id="a_Node000008"><a xlink:href="_g_n_s_s_channel_8cpp.html" target="_top" xlink:title="GNSS Channel.">
<polygon fill="white" stroke="#666666" points="538.5,-74.5 439.25,-74.5 439.25,-55.25 538.5,-55.25 538.5,-74.5"/>
<text text-anchor="middle" x="488.88" y="-61" font-family="Helvetica,sans-Serif" font-size="10.00">GNSSChannel.cpp</text>
</a>
</g>
</g>
<!-- Node1&#45;&gt;Node8 -->
<g id="edge56_Node000001_Node000008" class="edge">
<title>Node1&#45;&gt;Node8</title>
<g id="a_edge56_Node000001_Node000008"><a xlink:title=" ">
<path fill="none" stroke="#63b8ff" d="M1283.45,-228.65C1160.94,-225.65 825.88,-214.87 719.88,-185 630.41,-159.79 535.35,-98.02 501.63,-74.85"/>
<polygon fill="#63b8ff" stroke="#63b8ff" points="1283.21,-232.17 1293.29,-228.91 1283.37,-225.17 1283.21,-232.17"/>
</a>
</g>
</g>
<!-- Node9 -->
<g id="Node000009" class="node">
<title>Node9</title>
<g id="a_Node000009"><a xlink:href="_g_n_s_s_constellation_8h.html" target="_top" xlink:title=" ">
<polygon fill="white" stroke="#666666" points="1224.75,-74.5 1115,-74.5 1115,-55.25 1224.75,-55.25 1224.75,-74.5"/>
<text text-anchor="middle" x="1169.88" y="-61" font-family="Helvetica,sans-Serif" font-size="10.00">GNSSConstellation.h</text>
</a>
</g>
</g>
<!-- Node1&#45;&gt;Node9 -->
<g id="edge57_Node000001_Node000009" class="edge">
<title>Node1&#45;&gt;Node9</title>
<g id="a_edge57_Node000001_Node000009"><a xlink:title=" ">
<path fill="none" stroke="#63b8ff" d="M1309.32,-213.87C1299.34,-205.58 1287.17,-195.06 1276.88,-185 1237.12,-146.13 1194.17,-95.29 1177.29,-74.9"/>
<polygon fill="#63b8ff" stroke="#63b8ff" points="1306.81,-217.15 1316.76,-220.79 1311.24,-211.74 1306.81,-217.15"/>
</a>
</g>
</g>
<!-- Node17 -->
<g id="Node000017" class="node">
<title>Node17</title>
<g id="a_Node000017"><a xlink:href="_comm_device_8h.html" target="_top" xlink:title="Communication devices.">
<polygon fill="white" stroke="#666666" points="813,-185 728.75,-185 728.75,-165.75 813,-165.75 813,-185"/>
<text text-anchor="middle" x="770.88" y="-171.5" font-family="Helvetica,sans-Serif" font-size="10.00">CommDevice.h</text>
</a>
</g>
</g>
<!-- Node1&#45;&gt;Node17 -->
<g id="edge21_Node000001_Node000017" class="edge">
<title>Node1&#45;&gt;Node17</title>
<g id="a_edge21_Node000001_Node000017"><a xlink:title=" ">
<path fill="none" stroke="#63b8ff" d="M1283.46,-225.29C1177.7,-215.2 916.12,-190.24 813.33,-180.43"/>
<polygon fill="#63b8ff" stroke="#63b8ff" points="1283.1,-228.87 1293.39,-226.33 1283.77,-221.9 1283.1,-228.87"/>
</a>
</g>
</g>
<!-- Node21 -->
<g id="Node000021" class="node">
<title>Node21</title>
<g id="a_Node000021"><a xlink:href="_dynamics_8h.html" target="_top" xlink:title="Interface for Dynamics.">
<polygon fill="white" stroke="#666666" points="1420.12,-185 1351.62,-185 1351.62,-165.75 1420.12,-165.75 1420.12,-185"/>
<text text-anchor="middle" x="1385.88" y="-171.5" font-family="Helvetica,sans-Serif" font-size="10.00">Dynamics.h</text>
</a>
</g>
</g>
<!-- Node1&#45;&gt;Node21 -->
<g id="edge39_Node000001_Node000021" class="edge">
<title>Node1&#45;&gt;Node21</title>
<g id="a_edge39_Node000001_Node000021"><a xlink:title=" ">
<path fill="none" stroke="#63b8ff" d="M1346.52,-213.14C1356.37,-203.94 1368.24,-192.85 1376.35,-185.27"/>
<polygon fill="#63b8ff" stroke="#63b8ff" points="1344.46,-210.21 1339.54,-219.59 1349.24,-215.32 1344.46,-210.21"/>
</a>
</g>
</g>
<!-- Node25 -->
<g id="Node000025" class="node">
<title>Node25</title>
<g id="a_Node000025"><a xlink:href="_example_performance_8cpp.html" target="_top" xlink:title="Example for performance testing of spherical harmonics computation.">
<polygon fill="white" stroke="#666666" points="1868.12,-129.75 1739.62,-129.75 1739.62,-110.5 1868.12,-110.5 1868.12,-129.75"/>
<text text-anchor="middle" x="1803.88" y="-116.25" font-family="Helvetica,sans-Serif" font-size="10.00">ExamplePerformance.cpp</text>
</a>
</g>
</g>
<!-- Node1&#45;&gt;Node25 -->
<g id="edge54_Node000001_Node000025" class="edge">
<title>Node1&#45;&gt;Node25</title>
<g id="a_edge54_Node000001_Node000025"><a xlink:title=" ">
<path fill="none" stroke="#63b8ff" d="M1374.11,-219.29C1466.71,-198.14 1676.5,-150.22 1764.19,-130.19"/>
<polygon fill="#63b8ff" stroke="#63b8ff" points="1373.39,-216.1 1364.42,-221.73 1374.95,-222.92 1373.39,-216.1"/>
</a>
</g>
</g>
<!-- Node27 -->
<g id="Node000027" class="node">
<title>Node27</title>
<g id="a_Node000027"><a xlink:href="_lunar_mean_osc_8cpp.html" target="_top" xlink:title="Lunar Mean and Osculating Elements.">
<polygon fill="white" stroke="#666666" points="2126.25,-129.75 2025.5,-129.75 2025.5,-110.5 2126.25,-110.5 2126.25,-129.75"/>
<text text-anchor="middle" x="2075.88" y="-116.25" font-family="Helvetica,sans-Serif" font-size="10.00">LunarMeanOsc.cpp</text>
</a>
</g>
</g>
<!-- Node1&#45;&gt;Node27 -->
<g id="edge58_Node000001_Node000027" class="edge">
<title>Node1&#45;&gt;Node27</title>
<g id="a_edge58_Node000001_Node000027"><a xlink:title=" ">
<path fill="none" stroke="#63b8ff" d="M1374.3,-223.05C1484.48,-207.09 1774.68,-165.03 2016.88,-129.75 2019.54,-129.36 2022.27,-128.96 2025.03,-128.56"/>
<polygon fill="#63b8ff" stroke="#63b8ff" points="1373.99,-219.7 1364.6,-224.6 1375,-226.63 1373.99,-219.7"/>
</a>
</g>
</g>
<!-- Node28 -->
<g id="Node000028" class="node">
<title>Node28</title>
<g id="a_Node000028"><a xlink:href="_orbit_state_8cpp.html" target="_top" xlink:title="Orbit states.">
<polygon fill="white" stroke="#666666" points="2340.38,-129.75 2261.38,-129.75 2261.38,-110.5 2340.38,-110.5 2340.38,-129.75"/>
<text text-anchor="middle" x="2300.88" y="-116.25" font-family="Helvetica,sans-Serif" font-size="10.00">OrbitState.cpp</text>
</a>
</g>
</g>
<!-- Node1&#45;&gt;Node28 -->
<g id="edge60_Node000001_Node000028" class="edge">
<title>Node1&#45;&gt;Node28</title>
<g id="a_edge60_Node000001_Node000028"><a xlink:title=" ">
<path fill="none" stroke="#63b8ff" d="M1374.29,-228.88C1521.3,-226.17 1983.05,-215.42 2128.88,-185 2186.72,-172.93 2251.04,-144.82 2282.09,-130.24"/>
<polygon fill="#63b8ff" stroke="#63b8ff" points="1374.39,-225.39 1364.45,-229.07 1374.52,-232.39 1374.39,-225.39"/>
</a>
</g>
</g>
<!-- Node29 -->
<g id="Node000029" class="node">
<title>Node29</title>
<g id="a_Node000029"><a xlink:href="_orbit_state_utils_8h.html" target="_top" xlink:title="Util functions for state conversions.">
<polygon fill="white" stroke="#666666" points="2120.25,-185 2031.5,-185 2031.5,-165.75 2120.25,-165.75 2120.25,-185"/>
<text text-anchor="middle" x="2075.88" y="-171.5" font-family="Helvetica,sans-Serif" font-size="10.00">OrbitStateUtils.h</text>
</a>
</g>
</g>
<!-- Node1&#45;&gt;Node29 -->
<g id="edge61_Node000001_Node000029" class="edge">
<title>Node1&#45;&gt;Node29</title>
<g id="a_edge61_Node000001_Node000029"><a xlink:title=" ">
<path fill="none" stroke="#63b8ff" d="M1374.03,-226.41C1507.41,-216.9 1898.53,-189.02 2031.23,-179.56"/>
<polygon fill="#63b8ff" stroke="#63b8ff" points="1374.13,-222.96 1364.41,-227.16 1374.63,-229.94 1374.13,-222.96"/>
</a>
</g>
</g>
<!-- Node31 -->
<g id="Node000031" class="node">
<title>Node31</title>
<g id="a_Node000031"><a xlink:href="_t_l_e_8cpp.html" target="_top" xlink:title="Routines to process TLE files.">
<polygon fill="white" stroke="#666666" points="2411.25,-129.75 2358.5,-129.75 2358.5,-110.5 2411.25,-110.5 2411.25,-129.75"/>
<text text-anchor="middle" x="2384.88" y="-116.25" font-family="Helvetica,sans-Serif" font-size="10.00">TLE.cpp</text>
</a>
</g>
</g>
<!-- Node1&#45;&gt;Node31 -->
<g id="edge68_Node000001_Node000031" class="edge">
<title>Node1&#45;&gt;Node31</title>
<g id="a_edge68_Node000001_Node000031"><a xlink:title=" ">
<path fill="none" stroke="#63b8ff" d="M1374.22,-228.67C1526.39,-225.24 2018.06,-212.29 2173.88,-185 2243.81,-172.75 2323.18,-144.72 2361.59,-130.2"/>
<polygon fill="#63b8ff" stroke="#63b8ff" points="1374.36,-225.19 1364.44,-228.91 1374.52,-232.19 1374.36,-225.19"/>
</a>
</g>
</g>
<!-- Node3 -->
<g id="Node000003" class="node">
<title>Node3</title>
<g id="a_Node000003"><a xlink:href="_agent_8cpp.html" target="_top" xlink:title="Base class fo.">
<polygon fill="white" stroke="#666666" points="1097,-74.5 1036.75,-74.5 1036.75,-55.25 1097,-55.25 1097,-74.5"/>
<text text-anchor="middle" x="1066.88" y="-61" font-family="Helvetica,sans-Serif" font-size="10.00">Agent.cpp</text>
</a>
</g>
</g>
<!-- Node2&#45;&gt;Node3 -->
<g id="edge2_Node000002_Node000003" class="edge">
<title>Node2&#45;&gt;Node3</title>
<g id="a_edge2_Node000002_Node000003"><a xlink:title=" ">
<path fill="none" stroke="#63b8ff" d="M1026.53,-102.91C1036.6,-93.67 1048.84,-82.43 1057.18,-74.77"/>
<polygon fill="#63b8ff" stroke="#63b8ff" points="1024.71,-99.75 1019.71,-109.09 1029.45,-104.91 1024.71,-99.75"/>
</a>
</g>
</g>
<!-- Node2&#45;&gt;Node4 -->
<g id="edge3_Node000002_Node000004" class="edge">
<title>Node2&#45;&gt;Node4</title>
<g id="a_edge3_Node000002_Node000004"><a xlink:title=" ">
<path fill="none" stroke="#63b8ff" d="M998.48,-101.11C988.61,-85.93 972.28,-65.14 951.88,-55.25 921.74,-40.65 453.89,-20.49 275.9,-13.3"/>
<polygon fill="#63b8ff" stroke="#63b8ff" points="995.79,-102.42 1004,-109.11 1001.75,-98.76 995.79,-102.42"/>
</a>
</g>
</g>
<!-- Node2&#45;&gt;Node5 -->
<g id="edge4_Node000002_Node000005" class="edge">
<title>Node2&#45;&gt;Node5</title>
<g id="a_edge4_Node000002_Node000005"><a xlink:title=" ">
<path fill="none" stroke="#63b8ff" d="M1005.13,-99.76C1000.55,-76.12 993.01,-37.13 989.62,-19.63"/>
<polygon fill="#63b8ff" stroke="#63b8ff" points="1001.82,-100.09 1007.16,-109.25 1008.69,-98.76 1001.82,-100.09"/>
</a>
</g>
</g>
<!-- Node2&#45;&gt;Node6 -->
<g id="edge5_Node000002_Node000006" class="edge">
<title>Node2&#45;&gt;Node6</title>
<g id="a_edge5_Node000002_Node000006"><a xlink:title=" ">
<path fill="none" stroke="#63b8ff" d="M1045.11,-115.63C1093.76,-110.24 1182.44,-97.99 1254.88,-74.5 1299.46,-60.04 1348.27,-33.61 1372.48,-19.72"/>
<polygon fill="#63b8ff" stroke="#63b8ff" points="1044.78,-112.25 1035.21,-116.79 1045.53,-119.21 1044.78,-112.25"/>
</a>
</g>
</g>
<!-- Node2&#45;&gt;Node7 -->
<g id="edge6_Node000002_Node000007" class="edge">
<title>Node2&#45;&gt;Node7</title>
<g id="a_edge6_Node000002_Node000007"><a xlink:title=" ">
<path fill="none" stroke="#63b8ff" d="M1045.12,-116.44C1101.53,-111.53 1206.67,-99.27 1233.88,-74.5 1249.61,-60.17 1252.54,-33.44 1252.95,-19.54"/>
<polygon fill="#63b8ff" stroke="#63b8ff" points="1044.87,-113.03 1035.2,-117.35 1045.45,-120 1044.87,-113.03"/>
</a>
</g>
</g>
<!-- Node2&#45;&gt;Node8 -->
<g id="edge7_Node000002_Node000008" class="edge">
<title>Node2&#45;&gt;Node8</title>
<g id="a_edge7_Node000002_Node000008"><a xlink:title=" ">
<path fill="none" stroke="#63b8ff" d="M972.96,-116.25C895.29,-109.89 705.93,-93.69 547.88,-74.5 544.89,-74.14 541.83,-73.75 538.75,-73.34"/>
<polygon fill="#63b8ff" stroke="#63b8ff" points="972.34,-119.79 982.59,-117.11 972.91,-112.81 972.34,-119.79"/>
</a>
</g>
</g>
<!-- Node2&#45;&gt;Node9 -->
<g id="edge8_Node000002_Node000009" class="edge">
<title>Node2&#45;&gt;Node9</title>
<g id="a_edge8_Node000002_Node000009"><a xlink:title=" ">
<path fill="none" stroke="#63b8ff" d="M1044.33,-107.4C1073.9,-97.62 1115.41,-83.89 1142.47,-74.94"/>
<polygon fill="#63b8ff" stroke="#63b8ff" points="1043.43,-104.34 1035.03,-110.8 1045.62,-110.99 1043.43,-104.34"/>
</a>
</g>
</g>
<!-- Node11 -->
<g id="Node000011" class="node">
<title>Node11</title>
<g id="a_Node000011"><a xlink:href="_g_n_s_s_state_estimation_app_8h.html" target="_top" xlink:title="State Estimation Application Using GNSS Measurement.">
<polygon fill="white" stroke="#666666" points="696.75,-74.5 557,-74.5 557,-55.25 696.75,-55.25 696.75,-74.5"/>
<text text-anchor="middle" x="626.88" y="-61" font-family="Helvetica,sans-Serif" font-size="10.00">GNSSStateEstimationApp.h</text>
</a>
</g>
</g>
<!-- Node2&#45;&gt;Node11 -->
<g id="edge14_Node000002_Node000011" class="edge">
<title>Node2&#45;&gt;Node11</title>
<g id="a_edge14_Node000002_Node000011"><a xlink:title=" ">
<path fill="none" stroke="#63b8ff" d="M972.71,-114.08C908.33,-105.11 773.01,-86.25 692.04,-74.96"/>
<polygon fill="#63b8ff" stroke="#63b8ff" points="972.13,-117.68 982.52,-115.59 973.09,-110.74 972.13,-117.68"/>
</a>
</g>
</g>
<!-- Node13 -->
<g id="Node000013" class="node">
<title>Node13</title>
<g id="a_Node000013"><a xlink:href="_g_n_s_s_transmitter_8cpp.html" target="_top" xlink:title="Handles GNSS transmit.">
<polygon fill="white" stroke="#666666" points="826.88,-74.5 714.88,-74.5 714.88,-55.25 826.88,-55.25 826.88,-74.5"/>
<text text-anchor="middle" x="770.88" y="-61" font-family="Helvetica,sans-Serif" font-size="10.00">GNSSTransmitter.cpp</text>
</a>
</g>
</g>
<!-- Node2&#45;&gt;Node13 -->
<g id="edge17_Node000002_Node000013" class="edge">
<title>Node2&#45;&gt;Node13</title>
<g id="a_edge17_Node000002_Node000013"><a xlink:title=" ">
<path fill="none" stroke="#63b8ff" d="M973.24,-111.15C929.87,-101.45 856.81,-85.1 811.36,-74.93"/>
<polygon fill="#63b8ff" stroke="#63b8ff" points="972.33,-114.76 982.85,-113.53 973.86,-107.93 972.33,-114.76"/>
</a>
</g>
</g>
<!-- Node14 -->
<g id="Node000014" class="node">
<title>Node14</title>
<g id="a_Node000014"><a xlink:href="_space_channel_8cpp.html" target="_top" xlink:title="Base spacechannel class (Under devlopment )">
<polygon fill="white" stroke="#666666" points="943.12,-74.5 844.62,-74.5 844.62,-55.25 943.12,-55.25 943.12,-74.5"/>
<text text-anchor="middle" x="893.88" y="-61" font-family="Helvetica,sans-Serif" font-size="10.00">SpaceChannel.cpp</text>
</a>
</g>
</g>
<!-- Node2&#45;&gt;Node14 -->
<g id="edge18_Node000002_Node000014" class="edge">
<title>Node2&#45;&gt;Node14</title>
<g id="a_edge18_Node000002_Node000014"><a xlink:title=" ">
<path fill="none" stroke="#63b8ff" d="M979.49,-105.52C958.78,-95.93 931.6,-83.34 913.48,-74.95"/>
<polygon fill="#63b8ff" stroke="#63b8ff" points="977.82,-109.07 988.37,-110.09 980.76,-102.71 977.82,-109.07"/>
</a>
</g>
</g>
<!-- Node15 -->
<g id="Node000015" class="node">
<title>Node15</title>
<g id="a_Node000015"><a xlink:href="_state_estimation_app_8h.html" target="_top" xlink:title="Base class for State Estimation Application.">
<polygon fill="white" stroke="#666666" points="148.5,-74.5 37.25,-74.5 37.25,-55.25 148.5,-55.25 148.5,-74.5"/>
<text text-anchor="middle" x="92.88" y="-61" font-family="Helvetica,sans-Serif" font-size="10.00">StateEstimationApp.h</text>
</a>
</g>
</g>
<!-- Node2&#45;&gt;Node15 -->
<g id="edge19_Node000002_Node000015" class="edge">
<title>Node2&#45;&gt;Node15</title>
<g id="a_edge19_Node000002_Node000015"><a xlink:title=" ">
<path fill="none" stroke="#63b8ff" d="M973.14,-117.3C836.97,-110.33 350.53,-85.22 195.88,-74.5 180.66,-73.45 164.19,-72.14 148.98,-70.87"/>
<polygon fill="#63b8ff" stroke="#63b8ff" points="972.61,-120.83 982.78,-117.84 972.97,-113.84 972.61,-120.83"/>
</a>
</g>
</g>
<!-- Node9&#45;&gt;Node4 -->
<g id="edge9_Node000009_Node000004" class="edge">
<title>Node9&#45;&gt;Node4</title>
<g id="a_edge9_Node000009_Node000004"><a xlink:title=" ">
<path fill="none" stroke="#63b8ff" d="M1104.02,-55.16C788.45,-26.54 424.28,-15.58 275.89,-12.05"/>
<polygon fill="#63b8ff" stroke="#63b8ff" points="1103.47,-58.72 1113.75,-56.15 1104.11,-51.75 1103.47,-58.72"/>
</a>
</g>
</g>
<!-- Node9&#45;&gt;Node5 -->
<g id="edge10_Node000009_Node000005" class="edge">
<title>Node9&#45;&gt;Node5</title>
<g id="a_edge10_Node000009_Node000005"><a xlink:title=" ">
<path fill="none" stroke="#63b8ff" d="M1128.67,-51.82C1095.35,-42.07 1049.15,-28.55 1018.9,-19.7"/>
<polygon fill="#63b8ff" stroke="#63b8ff" points="1127.42,-55.39 1138,-54.84 1129.39,-48.67 1127.42,-55.39"/>
</a>
</g>
</g>
<!-- Node9&#45;&gt;Node6 -->
<g id="edge11_Node000009_Node000006" class="edge">
<title>Node9&#45;&gt;Node6</title>
<g id="a_edge11_Node000009_Node000006"><a xlink:title=" ">
<path fill="none" stroke="#63b8ff" d="M1217.43,-52.26C1257.46,-42.48 1313.93,-28.69 1350.71,-19.7"/>
<polygon fill="#63b8ff" stroke="#63b8ff" points="1216.74,-49.07 1207.86,-54.84 1218.4,-55.87 1216.74,-49.07"/>
</a>
</g>
</g>
<!-- Node9&#45;&gt;Node7 -->
<g id="edge12_Node000009_Node000007" class="edge">
<title>Node9&#45;&gt;Node7</title>
<g id="a_edge12_Node000009_Node000007"><a xlink:title=" ">
<path fill="none" stroke="#63b8ff" d="M1192.95,-49.07C1207.63,-39.65 1226.18,-27.75 1238.73,-19.7"/>
<polygon fill="#63b8ff" stroke="#63b8ff" points="1191.48,-46.5 1184.95,-54.84 1195.26,-52.39 1191.48,-46.5"/>
</a>
</g>
</g>
<!-- Node10 -->
<g id="Node000010" class="node">
<title>Node10</title>
<g id="a_Node000010"><a xlink:href="_g_n_s_s_constellation_8cpp.html" target="_top" xlink:title="GNSS Constellation.">
<polygon fill="white" stroke="#666666" points="1172,-19.25 1051.75,-19.25 1051.75,0 1172,0 1172,-19.25"/>
<text text-anchor="middle" x="1111.88" y="-5.75" font-family="Helvetica,sans-Serif" font-size="10.00">GNSSConstellation.cpp</text>
</a>
</g>
</g>
<!-- Node9&#45;&gt;Node10 -->
<g id="edge13_Node000009_Node000010" class="edge">
<title>Node9&#45;&gt;Node10</title>
<g id="a_edge13_Node000009_Node000010"><a xlink:title=" ">
<path fill="none" stroke="#63b8ff" d="M1152.22,-47.66C1142.15,-38.42 1129.91,-27.18 1121.57,-19.52"/>
<polygon fill="#63b8ff" stroke="#63b8ff" points="1149.3,-49.66 1159.04,-53.84 1154.04,-44.5 1149.3,-49.66"/>
</a>
</g>
</g>
<!-- Node11&#45;&gt;Node6 -->
<g id="edge15_Node000011_Node000006" class="edge">
<title>Node11&#45;&gt;Node6</title>
<g id="a_edge15_Node000011_Node000006"><a xlink:title=" ">
<path fill="none" stroke="#63b8ff" d="M707.74,-55.14C981.86,-32.64 1053.49,-45.31 1323.88,-19.25 1326.78,-18.97 1329.75,-18.66 1332.75,-18.32"/>
<polygon fill="#63b8ff" stroke="#63b8ff" points="707.74,-51.71 698.07,-56.03 708.32,-58.69 707.74,-51.71"/>
</a>
</g>
</g>
<!-- Node12 -->
<g id="Node000012" class="node">
<title>Node12</title>
<g id="a_Node000012"><a xlink:href="_g_n_s_s_state_estimation_app_8cpp.html" target="_top" xlink:title="State Estimation Application Using GNSS Measurement.">
<polygon fill="white" stroke="#666666" points="702,-19.25 551.75,-19.25 551.75,0 702,0 702,-19.25"/>
<text text-anchor="middle" x="626.88" y="-5.75" font-family="Helvetica,sans-Serif" font-size="10.00">GNSSStateEstimationApp.cpp</text>
</a>
</g>
</g>
<!-- Node11&#45;&gt;Node12 -->
<g id="edge16_Node000011_Node000012" class="edge">
<title>Node11&#45;&gt;Node12</title>
<g id="a_edge16_Node000011_Node000012"><a xlink:title=" ">
<path fill="none" stroke="#63b8ff" d="M626.88,-44.21C626.88,-35.77 626.88,-26.33 626.88,-19.61"/>
<polygon fill="#63b8ff" stroke="#63b8ff" points="623.38,-44.08 626.88,-54.08 630.38,-44.08 623.38,-44.08"/>
</a>
</g>
</g>
<!-- Node16 -->
<g id="Node000016" class="node">
<title>Node16</title>
<g id="a_Node000016"><a xlink:href="_state_estimation_app_8cpp.html" target="_top" xlink:title="Base class for State Estimation Application.">
<polygon fill="white" stroke="#666666" points="121.75,-19.25 0,-19.25 0,0 121.75,0 121.75,-19.25"/>
<text text-anchor="middle" x="60.88" y="-5.75" font-family="Helvetica,sans-Serif" font-size="10.00">StateEstimationApp.cpp</text>
</a>
</g>
</g>
<!-- Node15&#45;&gt;Node16 -->
<g id="edge20_Node000015_Node000016" class="edge">
<title>Node15&#45;&gt;Node16</title>
<g id="a_edge20_Node000015_Node000016"><a xlink:title=" ">
<path fill="none" stroke="#63b8ff" d="M81.92,-45.65C76.64,-36.86 70.54,-26.71 66.27,-19.61"/>
<polygon fill="#63b8ff" stroke="#63b8ff" points="79.44,-47.31 87.59,-54.08 85.44,-43.71 79.44,-47.31"/>
</a>
</g>
</g>
<!-- Node17&#45;&gt;Node2 -->
<g id="edge22_Node000017_Node000002" class="edge">
<title>Node17&#45;&gt;Node2</title>
<g id="a_edge22_Node000017_Node000002"><a xlink:title=" ">
<path fill="none" stroke="#63b8ff" d="M822.08,-162.92C871.9,-151.77 945.52,-135.3 983.75,-126.75"/>
<polygon fill="#63b8ff" stroke="#63b8ff" points="821.51,-159.68 812.52,-165.28 823.04,-166.51 821.51,-159.68"/>
</a>
</g>
</g>
<!-- Node17&#45;&gt;Node11 -->
<g id="edge32_Node000017_Node000011" class="edge">
<title>Node17&#45;&gt;Node11</title>
<g id="a_edge32_Node000017_Node000011"><a xlink:title=" ">
<path fill="none" stroke="#63b8ff" d="M750.35,-159.2C738.75,-150.59 723.97,-139.6 710.88,-129.75 684.96,-110.26 654.72,-87.19 638.53,-74.8"/>
<polygon fill="#63b8ff" stroke="#63b8ff" points="747.78,-162.38 757.89,-165.52 751.94,-156.76 747.78,-162.38"/>
</a>
</g>
</g>
<!-- Node17&#45;&gt;Node14 -->
<g id="edge37_Node000017_Node000014" class="edge">
<title>Node17&#45;&gt;Node14</title>
<g id="a_edge37_Node000017_Node000014"><a xlink:title=" ">
<path fill="none" stroke="#63b8ff" d="M792.85,-159.26C804.48,-150.96 818.82,-140.24 830.88,-129.75 851.79,-111.55 874.08,-87.78 885.72,-74.98"/>
<polygon fill="#63b8ff" stroke="#63b8ff" points="791.36,-156.73 785.19,-165.35 795.39,-162.46 791.36,-156.73"/>
</a>
</g>
</g>
<!-- Node17&#45;&gt;Node15 -->
<g id="edge38_Node000017_Node000015" class="edge">
<title>Node17&#45;&gt;Node15</title>
<g id="a_edge38_Node000017_Node000015"><a xlink:title=" ">
<path fill="none" stroke="#63b8ff" d="M717.42,-172.2C632.24,-168.04 460.73,-156.84 317.88,-129.75 244.47,-115.83 160.35,-88.92 118.84,-74.89"/>
<polygon fill="#63b8ff" stroke="#63b8ff" points="717.21,-175.74 727.36,-172.72 717.54,-168.75 717.21,-175.74"/>
</a>
</g>
</g>
<!-- Node18 -->
<g id="Node000018" class="node">
<title>Node18</title>
<g id="a_Node000018"><a xlink:href="_g_n_s_s_receiver_8h.html" target="_top" xlink:title="GNSS receiver class.">
<polygon fill="white" stroke="#666666" points="418.38,-129.75 327.38,-129.75 327.38,-110.5 418.38,-110.5 418.38,-129.75"/>
<text text-anchor="middle" x="372.88" y="-116.25" font-family="Helvetica,sans-Serif" font-size="10.00">GNSSReceiver.h</text>
</a>
</g>
</g>
<!-- Node17&#45;&gt;Node18 -->
<g id="edge23_Node000017_Node000018" class="edge">
<title>Node17&#45;&gt;Node18</title>
<g id="a_edge23_Node000017_Node000018"><a xlink:title=" ">
<path fill="none" stroke="#63b8ff" d="M717.65,-167.25C638.99,-156.73 493.06,-137.21 418.82,-127.27"/>
<polygon fill="#63b8ff" stroke="#63b8ff" points="716.91,-170.82 727.28,-168.68 717.83,-163.88 716.91,-170.82"/>
</a>
</g>
</g>
<!-- Node20 -->
<g id="Node000020" class="node">
<title>Node20</title>
<g id="a_Node000020"><a xlink:href="_g_n_s_s_transmitter_8h.html" target="_top" xlink:title="Handles GNSS transmit.">
<polygon fill="white" stroke="#666666" points="821.62,-129.75 720.12,-129.75 720.12,-110.5 821.62,-110.5 821.62,-129.75"/>
<text text-anchor="middle" x="770.88" y="-116.25" font-family="Helvetica,sans-Serif" font-size="10.00">GNSSTransmitter.h</text>
</a>
</g>
</g>
<!-- Node17&#45;&gt;Node20 -->
<g id="edge33_Node000017_Node000020" class="edge">
<title>Node17&#45;&gt;Node20</title>
<g id="a_edge33_Node000017_Node000020"><a xlink:title=" ">
<path fill="none" stroke="#63b8ff" d="M770.88,-154.71C770.88,-146.27 770.88,-136.83 770.88,-130.11"/>
<polygon fill="#63b8ff" stroke="#63b8ff" points="767.38,-154.58 770.88,-164.58 774.38,-154.58 767.38,-154.58"/>
</a>
</g>
</g>
<!-- Node18&#45;&gt;Node4 -->
<g id="edge24_Node000018_Node000004" class="edge">
<title>Node18&#45;&gt;Node4</title>
<g id="a_edge24_Node000018_Node000004"><a xlink:title=" ">
<path fill="none" stroke="#63b8ff" d="M316.15,-112.4C270.17,-105.64 210.66,-93.48 195.88,-74.5 183.25,-58.3 194.64,-32.85 202.28,-19.49"/>
<polygon fill="#63b8ff" stroke="#63b8ff" points="315.52,-115.99 325.91,-113.92 316.5,-109.05 315.52,-115.99"/>
</a>
</g>
</g>
<!-- Node18&#45;&gt;Node5 -->
<g id="edge25_Node000018_Node000005" class="edge">
<title>Node18&#45;&gt;Node5</title>
<g id="a_edge25_Node000018_Node000005"><a xlink:title=" ">
<path fill="none" stroke="#63b8ff" d="M361.4,-101.19C353.9,-86.99 347.42,-67.55 358.88,-55.25 378.73,-33.93 800.5,-17.21 942.03,-12.18"/>
<polygon fill="#63b8ff" stroke="#63b8ff" points="358.73,-102.57 366.8,-109.44 364.77,-99.04 358.73,-102.57"/>
</a>
</g>
</g>
<!-- Node18&#45;&gt;Node6 -->
<g id="edge26_Node000018_Node000006" class="edge">
<title>Node18&#45;&gt;Node6</title>
<g id="a_edge26_Node000018_Node000006"><a xlink:title=" ">
<path fill="none" stroke="#63b8ff" d="M383.23,-101.02C393.06,-85.76 409.37,-64.93 429.88,-55.25 519.77,-12.8 1224.84,-27.9 1323.88,-19.25 1326.78,-19 1329.75,-18.71 1332.75,-18.39"/>
<polygon fill="#63b8ff" stroke="#63b8ff" points="379.93,-98.7 377.72,-109.06 385.91,-102.34 379.93,-98.7"/>
</a>
</g>
</g>
<!-- Node18&#45;&gt;Node7 -->
<g id="edge27_Node000018_Node000007" class="edge">
<title>Node18&#45;&gt;Node7</title>
<g id="a_edge27_Node000018_Node000007"><a xlink:title=" ">
<path fill="none" stroke="#63b8ff" d="M374.57,-99.74C376.99,-84.97 382.81,-65.47 396.88,-55.25 467.41,-3.97 1093.97,-26.44 1180.88,-19.25 1183.89,-19 1186.97,-18.72 1190.07,-18.42"/>
<polygon fill="#63b8ff" stroke="#63b8ff" points="371.02,-98.96 373.28,-109.32 377.97,-99.82 371.02,-98.96"/>
</a>
</g>
</g>
<!-- Node18&#45;&gt;Node8 -->
<g id="edge28_Node000018_Node000008" class="edge">
<title>Node18&#45;&gt;Node8</title>
<g id="a_edge28_Node000018_Node000008"><a xlink:title=" ">
<path fill="none" stroke="#63b8ff" d="M402.51,-105.52C423.41,-95.93 450.82,-83.34 469.1,-74.95"/>
<polygon fill="#63b8ff" stroke="#63b8ff" points="401.18,-102.74 393.55,-110.09 404.1,-109.1 401.18,-102.74"/>
</a>
</g>
</g>
<!-- Node18&#45;&gt;Node11 -->
<g id="edge30_Node000018_Node000011" class="edge">
<title>Node18&#45;&gt;Node11</title>
<g id="a_edge30_Node000018_Node000011"><a xlink:title=" ">
<path fill="none" stroke="#63b8ff" d="M426.79,-107.82C473.56,-98.02 540.36,-84.01 583.68,-74.93"/>
<polygon fill="#63b8ff" stroke="#63b8ff" points="426.32,-104.55 417.25,-110.03 427.76,-111.41 426.32,-104.55"/>
</a>
</g>
</g>
<!-- Node18&#45;&gt;Node15 -->
<g id="edge31_Node000018_Node000015" class="edge">
<title>Node18&#45;&gt;Node15</title>
<g id="a_edge31_Node000018_Node000015"><a xlink:title=" ">
<path fill="none" stroke="#63b8ff" d="M316.32,-108.37C264.74,-98.56 189.35,-84.22 140.7,-74.97"/>
<polygon fill="#63b8ff" stroke="#63b8ff" points="315.47,-111.96 325.95,-110.39 316.78,-105.08 315.47,-111.96"/>
</a>
</g>
</g>
<!-- Node19 -->
<g id="Node000019" class="node">
<title>Node19</title>
<g id="a_Node000019"><a xlink:href="_g_n_s_s_receiver_8cpp.html" target="_top" xlink:title="GNSS Receiver class.">
<polygon fill="white" stroke="#666666" points="306.62,-74.5 205.12,-74.5 205.12,-55.25 306.62,-55.25 306.62,-74.5"/>
<text text-anchor="middle" x="255.88" y="-61" font-family="Helvetica,sans-Serif" font-size="10.00">GNSSReceiver.cpp</text>
</a>
</g>
</g>
<!-- Node18&#45;&gt;Node19 -->
<g id="edge29_Node000018_Node000019" class="edge">
<title>Node18&#45;&gt;Node19</title>
<g id="a_edge29_Node000018_Node000019"><a xlink:title=" ">
<path fill="none" stroke="#63b8ff" d="M343.27,-105.65C322.16,-96.04 294.34,-83.38 275.82,-74.95"/>
<polygon fill="#63b8ff" stroke="#63b8ff" points="341.48,-109.13 352.03,-110.09 344.38,-102.76 341.48,-109.13"/>
</a>
</g>
</g>
<!-- Node20&#45;&gt;Node8 -->
<g id="edge34_Node000020_Node000008" class="edge">
<title>Node20&#45;&gt;Node8</title>
<g id="a_edge34_Node000020_Node000008"><a xlink:title=" ">
<path fill="none" stroke="#63b8ff" d="M711.99,-108.01C660.03,-98.19 585.23,-84.07 536.83,-74.93"/>
<polygon fill="#63b8ff" stroke="#63b8ff" points="711.24,-111.62 721.72,-110.03 712.54,-104.74 711.24,-111.62"/>
</a>
</g>
</g>
<!-- Node20&#45;&gt;Node9 -->
<g id="edge35_Node000020_Node000009" class="edge">
<title>Node20&#45;&gt;Node9</title>
<g id="a_edge35_Node000020_Node000009"><a xlink:title=" ">
<path fill="none" stroke="#63b8ff" d="M832.77,-110.91C900.01,-101.98 1010.57,-87.27 1105.88,-74.5 1108.76,-74.11 1111.73,-73.72 1114.72,-73.31"/>
<polygon fill="#63b8ff" stroke="#63b8ff" points="832.41,-107.56 822.96,-112.35 833.33,-114.5 832.41,-107.56"/>
</a>
</g>
</g>
<!-- Node20&#45;&gt;Node13 -->
<g id="edge36_Node000020_Node000013" class="edge">
<title>Node20&#45;&gt;Node13</title>
<g id="a_edge36_Node000020_Node000013"><a xlink:title=" ">
<path fill="none" stroke="#63b8ff" d="M770.88,-99.46C770.88,-91.02 770.88,-81.58 770.88,-74.86"/>
<polygon fill="#63b8ff" stroke="#63b8ff" points="767.38,-99.33 770.88,-109.33 774.38,-99.33 767.38,-99.33"/>
</a>
</g>
</g>
<!-- Node21&#45;&gt;Node2 -->
<g id="edge40_Node000021_Node000002" class="edge">
<title>Node21&#45;&gt;Node2</title>
<g id="a_edge40_Node000021_Node000002"><a xlink:title=" ">
<path fill="none" stroke="#63b8ff" d="M1340.71,-167.99C1260.68,-156.69 1096.56,-133.51 1033.92,-124.66"/>
<polygon fill="#63b8ff" stroke="#63b8ff" points="1340.03,-171.58 1350.42,-169.51 1341.01,-164.64 1340.03,-171.58"/>
</a>
</g>
</g>
<!-- Node21&#45;&gt;Node4 -->
<g id="edge43_Node000021_Node000004" class="edge">
<title>Node21&#45;&gt;Node4</title>
<g id="a_edge43_Node000021_Node000004"><a xlink:title=" ">
<path fill="none" stroke="#63b8ff" d="M1340.3,-173.36C1163.19,-169.28 520.59,-153.17 317.88,-129.75 187.53,-114.69 111.52,-175.59 27.88,-74.5 22.42,-67.91 22.6,-61.99 27.88,-55.25 41.86,-37.37 95.05,-25.65 140.01,-18.73"/>
<polygon fill="#63b8ff" stroke="#63b8ff" points="1340.2,-176.88 1350.28,-173.61 1340.36,-169.88 1340.2,-176.88"/>
</a>
</g>
</g>
<!-- Node21&#45;&gt;Node5 -->
<g id="edge44_Node000021_Node000005" class="edge">
<title>Node21&#45;&gt;Node5</title>
<g id="a_edge44_Node000021_Node000005"><a xlink:title=" ">
<path fill="none" stroke="#63b8ff" d="M1370.33,-157.82C1344.63,-131.54 1290.45,-80.66 1233.88,-55.25 1224.79,-51.17 1102.34,-30.01 1033.7,-18.35"/>
<polygon fill="#63b8ff" stroke="#63b8ff" points="1367.19,-159.65 1376.65,-164.43 1372.24,-154.79 1367.19,-159.65"/>
</a>
</g>
</g>
<!-- Node21&#45;&gt;Node6 -->
<g id="edge45_Node000021_Node000006" class="edge">
<title>Node21&#45;&gt;Node6</title>
<g id="a_edge45_Node000021_Node000006"><a xlink:title=" ">
<path fill="none" stroke="#63b8ff" d="M1397.45,-156.24C1410.92,-132.79 1430,-90.75 1418.88,-55.25 1414.53,-41.39 1404.2,-28.05 1396.65,-19.63"/>
<polygon fill="#63b8ff" stroke="#63b8ff" points="1394.13,-153.98 1391.95,-164.35 1400.12,-157.6 1394.13,-153.98"/>
</a>
</g>
</g>
<!-- Node21&#45;&gt;Node7 -->
<g id="edge48_Node000021_Node000007" class="edge">
<title>Node21&#45;&gt;Node7</title>
<g id="a_edge48_Node000021_Node000007"><a xlink:title=" ">
<path fill="none" stroke="#63b8ff" d="M1383.4,-154.88C1379.21,-129.21 1368.53,-84 1342.88,-55.25 1327.43,-37.94 1303.74,-26.57 1284.55,-19.64"/>
<polygon fill="#63b8ff" stroke="#63b8ff" points="1380.03,-155.06 1384.93,-164.45 1386.96,-154.06 1380.03,-155.06"/>
</a>
</g>
</g>
<!-- Node21&#45;&gt;Node9 -->
<g id="edge49_Node000021_Node000009" class="edge">
<title>Node21&#45;&gt;Node9</title>
<g id="a_edge49_Node000021_Node000009"><a xlink:title=" ">
<path fill="none" stroke="#63b8ff" d="M1358.15,-160.45C1313.25,-137.89 1225.83,-93.98 1188.02,-74.99"/>
<polygon fill="#63b8ff" stroke="#63b8ff" points="1356.32,-163.95 1366.83,-165.31 1359.47,-157.69 1356.32,-163.95"/>
</a>
</g>
</g>
<!-- Node22 -->
<g id="Node000022" class="node">
<title>Node22</title>
<g id="a_Node000022"><a xlink:href="_dynamics_analytical_8cpp.html" target="_top" xlink:title="Analytical orbit dynamics implementation.">
<polygon fill="white" stroke="#666666" points="2007.75,-129.75 1886,-129.75 1886,-110.5 2007.75,-110.5 2007.75,-129.75"/>
<text text-anchor="middle" x="1946.88" y="-116.25" font-family="Helvetica,sans-Serif" font-size="10.00">DynamicsAnalytical.cpp</text>
</a>
</g>
</g>
<!-- Node21&#45;&gt;Node22 -->
<g id="edge41_Node000021_Node000022" class="edge">
<title>Node21&#45;&gt;Node22</title>
<g id="a_edge41_Node000021_Node000022"><a xlink:title=" ">
<path fill="none" stroke="#63b8ff" d="M1431.2,-170.74C1517.85,-163.69 1712.99,-147.29 1876.88,-129.75 1879.8,-129.44 1882.79,-129.11 1885.8,-128.77"/>
<polygon fill="#63b8ff" stroke="#63b8ff" points="1431.12,-167.32 1421.44,-171.62 1431.69,-174.3 1431.12,-167.32"/>
</a>
</g>
</g>
<!-- Node23 -->
<g id="Node000023" class="node">
<title>Node23</title>
<g id="a_Node000023"><a xlink:href="_dynamics_numerical_8cpp.html" target="_top" xlink:title="List of Numerical Dynamics.">
<polygon fill="white" stroke="#666666" points="1556.5,-129.75 1433.25,-129.75 1433.25,-110.5 1556.5,-110.5 1556.5,-129.75"/>
<text text-anchor="middle" x="1494.88" y="-116.25" font-family="Helvetica,sans-Serif" font-size="10.00">DynamicsNumerical.cpp</text>
</a>
</g>
</g>
<!-- Node21&#45;&gt;Node23 -->
<g id="edge42_Node000021_Node000023" class="edge">
<title>Node21&#45;&gt;Node23</title>
<g id="a_edge42_Node000021_Node000023"><a xlink:title=" ">
<path fill="none" stroke="#63b8ff" d="M1413.99,-160.64C1433.59,-151.06 1459.2,-138.56 1476.29,-130.2"/>
<polygon fill="#63b8ff" stroke="#63b8ff" points="1412.81,-157.81 1405.37,-165.34 1415.89,-164.1 1412.81,-157.81"/>
</a>
</g>
</g>
<!-- Node24 -->
<g id="Node000024" class="node">
<title>Node24</title>
<g id="a_Node000024"><a xlink:href="_example_frozen_orbits_8cpp.html" target="_top" xlink:title="Example of frozen orbits.">
<polygon fill="white" stroke="#666666" points="1958.5,-74.5 1829.25,-74.5 1829.25,-55.25 1958.5,-55.25 1958.5,-74.5"/>
<text text-anchor="middle" x="1893.88" y="-61" font-family="Helvetica,sans-Serif" font-size="10.00">ExampleFrozenOrbits.cpp</text>
</a>
</g>
</g>
<!-- Node21&#45;&gt;Node24 -->
<g id="edge46_Node000021_Node000024" class="edge">
<title>Node21&#45;&gt;Node24</title>
<g id="a_edge46_Node000021_Node000024"><a xlink:title=" ">
<path fill="none" stroke="#63b8ff" d="M1431.05,-172.38C1491.83,-168.67 1602.72,-158.29 1692.88,-129.75 1710.92,-124.04 1713.21,-117.31 1730.88,-110.5 1770.84,-95.09 1818.24,-82.74 1851.59,-74.97"/>
<polygon fill="#63b8ff" stroke="#63b8ff" points="1431.08,-168.93 1421.3,-173 1431.48,-175.92 1431.08,-168.93"/>
</a>
</g>
</g>
<!-- Node21&#45;&gt;Node25 -->
<g id="edge47_Node000021_Node000025" class="edge">
<title>Node21&#45;&gt;Node25</title>
<g id="a_edge47_Node000021_Node000025"><a xlink:title=" ">
<path fill="none" stroke="#63b8ff" d="M1431.3,-168.59C1505.75,-159.1 1653.96,-140.22 1739.3,-129.35"/>
<polygon fill="#63b8ff" stroke="#63b8ff" points="1430.91,-165.24 1421.44,-169.97 1431.8,-172.18 1430.91,-165.24"/>
</a>
</g>
</g>
<!-- Node26 -->
<g id="Node000026" class="node">
<title>Node26</title>
<g id="a_Node000026"><a xlink:href="_n_body_dynamics_8cpp.html" target="_top" xlink:title="Multiple&#45;body dynamics.">
<polygon fill="white" stroke="#666666" points="1683.38,-129.75 1574.38,-129.75 1574.38,-110.5 1683.38,-110.5 1683.38,-129.75"/>
<text text-anchor="middle" x="1628.88" y="-116.25" font-family="Helvetica,sans-Serif" font-size="10.00">NBodyDynamics.cpp</text>
</a>
</g>
</g>
<!-- Node21&#45;&gt;Node26 -->
<g id="edge50_Node000021_Node000026" class="edge">
<title>Node21&#45;&gt;Node26</title>
<g id="a_edge50_Node000021_Node000026"><a xlink:title=" ">
<path fill="none" stroke="#63b8ff" d="M1431.02,-164.48C1475.87,-154.65 1544.05,-139.71 1587.52,-130.19"/>
<polygon fill="#63b8ff" stroke="#63b8ff" points="1430.45,-161.24 1421.43,-166.8 1431.95,-168.08 1430.45,-161.24"/>
</a>
</g>
</g>
<!-- Node27&#45;&gt;Node24 -->
<g id="edge59_Node000027_Node000024" class="edge">
<title>Node27&#45;&gt;Node24</title>
<g id="a_edge59_Node000027_Node000024"><a xlink:title=" ">
<path fill="none" stroke="#63b8ff" d="M2034.67,-107.07C2001.35,-97.32 1955.15,-83.8 1924.9,-74.95"/>
<polygon fill="#63b8ff" stroke="#63b8ff" points="2033.42,-110.64 2044,-110.09 2035.39,-103.92 2033.42,-110.64"/>
</a>
</g>
</g>
<!-- Node29&#45;&gt;Node2 -->
<g id="edge62_Node000029_Node000002" class="edge">
<title>Node29&#45;&gt;Node2</title>
<g id="a_edge62_Node000029_Node000002"><a xlink:title=" ">
<path fill="none" stroke="#63b8ff" d="M2020.16,-171.59C1824.13,-161.81 1170.78,-129.21 1034.08,-122.38"/>
<polygon fill="#63b8ff" stroke="#63b8ff" points="2019.89,-175.13 2030.05,-172.14 2020.23,-168.14 2019.89,-175.13"/>
</a>
</g>
</g>
<!-- Node29&#45;&gt;Node22 -->
<g id="edge63_Node000029_Node000022" class="edge">
<title>Node29&#45;&gt;Node22</title>
<g id="a_edge63_Node000029_Node000022"><a xlink:title=" ">
<path fill="none" stroke="#63b8ff" d="M2043.87,-161.16C2020.52,-151.52 1989.47,-138.71 1968.87,-130.2"/>
<polygon fill="#63b8ff" stroke="#63b8ff" points="2042.41,-164.76 2052.99,-165.34 2045.08,-158.29 2042.41,-164.76"/>
</a>
</g>
</g>
<!-- Node29&#45;&gt;Node27 -->
<g id="edge64_Node000029_Node000027" class="edge">
<title>Node29&#45;&gt;Node27</title>
<g id="a_edge64_Node000029_Node000027"><a xlink:title=" ">
<path fill="none" stroke="#63b8ff" d="M2075.88,-154.71C2075.88,-146.27 2075.88,-136.83 2075.88,-130.11"/>
<polygon fill="#63b8ff" stroke="#63b8ff" points="2072.38,-154.58 2075.88,-164.58 2079.38,-154.58 2072.38,-154.58"/>
</a>
</g>
</g>
<!-- Node29&#45;&gt;Node28 -->
<g id="edge65_Node000029_Node000028" class="edge">
<title>Node29&#45;&gt;Node28</title>
<g id="a_edge65_Node000029_Node000028"><a xlink:title=" ">
<path fill="none" stroke="#63b8ff" d="M2124.95,-162.76C2166.31,-152.97 2224.65,-139.17 2262.61,-130.18"/>
<polygon fill="#63b8ff" stroke="#63b8ff" points="2124.22,-159.57 2115.3,-165.28 2125.84,-166.38 2124.22,-159.57"/>
</a>
</g>
</g>
<!-- Node30 -->
<g id="Node000030" class="node">
<title>Node30</title>
<g id="a_Node000030"><a xlink:href="_orbit_state_utils_8cpp.html" target="_top" xlink:title="Util functions for state conversions.">
<polygon fill="white" stroke="#666666" points="2243.5,-129.75 2144.25,-129.75 2144.25,-110.5 2243.5,-110.5 2243.5,-129.75"/>
<text text-anchor="middle" x="2193.88" y="-116.25" font-family="Helvetica,sans-Serif" font-size="10.00">OrbitStateUtils.cpp</text>
</a>
</g>
</g>
<!-- Node29&#45;&gt;Node30 -->
<g id="edge66_Node000029_Node000030" class="edge">
<title>Node29&#45;&gt;Node30</title>
<g id="a_edge66_Node000029_Node000030"><a xlink:title=" ">
<path fill="none" stroke="#63b8ff" d="M2105.73,-160.9C2127.02,-151.29 2155.08,-138.63 2173.76,-130.2"/>
<polygon fill="#63b8ff" stroke="#63b8ff" points="2104.57,-158.04 2096.89,-165.34 2107.45,-164.42 2104.57,-158.04"/>
</a>
</g>
</g>
<!-- Node29&#45;&gt;Node31 -->
<g id="edge67_Node000029_Node000031" class="edge">
<title>Node29&#45;&gt;Node31</title>
<g id="a_edge67_Node000029_Node000031"><a xlink:title=" ">
<path fill="none" stroke="#63b8ff" d="M2131.35,-166.67C2186.87,-158.65 2274.62,-145.13 2349.88,-129.75 2352.57,-129.2 2355.38,-128.58 2358.17,-127.94"/>
<polygon fill="#63b8ff" stroke="#63b8ff" points="2131.09,-163.32 2121.69,-168.2 2132.08,-170.25 2131.09,-163.32"/>
</a>
</g>
</g>
</g>
</svg>

<g id="navigator" transform="translate(0 0)" fill="#404254">
  <rect fill="#f2f5e9" fill-opacity="0.5" stroke="#606060" stroke-width=".5" x="0" y="0" width="60" height="60"/>
  <use id="zoomplus" xlink:href="#zoomPlus" x="17" y="9" onmousedown="handleZoom(evt,'in')"/>
  <use id="zoomminus" xlink:href="#zoomMin" x="42" y="9" onmousedown="handleZoom(evt,'out')"/>
  <use id="reset" xlink:href="#resetDef" x="30" y="36" onmousedown="handleReset()"/>
   <use id="arrowup" xlink:href="#arrowUp" x="0" y="0" onmousedown="handlePan(0,-1)"/>
  <use id="arrowright" xlink:href="#arrowRight" x="0" y="0" onmousedown="handlePan(1,0)"/>
  <use id="arrowdown" xlink:href="#arrowDown" x="0" y="0" onmousedown="handlePan(0,1)"/>
  <use id="arrowleft" xlink:href="#arrowLeft" x="0" y="0" onmousedown="handlePan(-1,0)"/>
</g>
<svg viewBox="0 0 15 15" width="100%" height="30px" preserveAspectRatio="xMaxYMin meet">
 <g id="arrow_out" transform="scale(0.3 0.3)">
  <a xlink:href="_orbit_state_8h__dep__incl_org.svg" target="_base">
   <rect id="button" ry="5" rx="5" y="6" x="6" height="38" width="38"
        fill="#f2f5e9" fill-opacity="0.5" stroke="#606060" stroke-width="1.0"/>
   <path id="arrow"
     d="M 11.500037,31.436501 C 11.940474,20.09759 22.043105,11.32322 32.158766,21.979434 L 37.068811,17.246167 C 37.068811,17.246167 37.088388,32 37.088388,32 L 22.160133,31.978069 C 22.160133,31.978069 26.997745,27.140456 26.997745,27.140456 C 18.528582,18.264221 13.291696,25.230495 11.500037,31.436501 z"
     style="fill:#404040;"/>
  </a>
 </g>
</svg>

<style type='text/css'>
<![CDATA[
[data-mouse-over-selected='false'] { opacity: 0.7; }
[data-mouse-over-selected='true']  { opacity: 1.0; }
]]>
</style>
<script type="application/ecmascript"><![CDATA[
document.addEventListener('DOMContentLoaded', (event) => {
  highlightEdges();
  highlightAdjacentNodes();
});
]]></script>
</svg>
