<?xml version="1.0" encoding="UTF-8" standalone="no"?>
<!DOCTYPE svg PUBLIC "-//W3C//DTD SVG 1.1//EN"
 "http://www.w3.org/Graphics/SVG/1.1/DTD/svg11.dtd">
<!-- Generated by graphviz version 8.1.0 (20230707.0739)
 -->
<!-- Title: LPT::TrueAnomToMeanAnom Pages: 1 -->
<svg width="468pt" height="100pt"
 viewBox="0.00 0.00 467.75 100.25" xmlns="http://www.w3.org/2000/svg" xmlns:xlink="http://www.w3.org/1999/xlink">

<svg id="main" version="1.1" xmlns="http://www.w3.org/2000/svg" xmlns:xlink="http://www.w3.org/1999/xlink" xml:space="preserve" onload="init(evt)">
<style type="text/css"><![CDATA[
.node, .edge {opacity: 0.7;}
.node.selected, .edge.selected {opacity: 1;}
.edge:hover path { stroke: red; }
.edge:hover polygon { stroke: red; fill: red; }
]]></style>
<script type="application/ecmascript" xlink:href="svg.min.js"/>
<svg id="graph" class="graph">
<g id="graph0" class="graph" transform="scale(1 1) rotate(0) translate(4 96.25)">
<title>LPT::TrueAnomToMeanAnom</title>
<!-- Node1 -->
<g id="Node000001" class="node">
<title>Node1</title>
<g id="a_Node000001"><a xlink:title="Compute mean anomaly from the True anomaly.">
<polygon fill="#999999" stroke="#666666" points="143.5,-46.25 0,-46.25 0,-27 143.5,-27 143.5,-46.25"/>
<text text-anchor="middle" x="71.75" y="-32.75" font-family="Helvetica,sans-Serif" font-size="10.00">LPT::TrueAnomToMeanAnom</text>
</a>
</g>
</g>
<!-- Node1&#45;&gt;Node1 -->
<g id="edge7_Node000001_Node000001" class="edge">
<title>Node1&#45;&gt;Node1</title>
<g id="a_edge7_Node000001_Node000001"><a xlink:title=" ">
<path fill="none" stroke="#63b8ff" d="M41.95,-46.54C28.35,-55.15 38.29,-64.25 71.75,-64.25 92.67,-64.25 104.39,-60.69 106.92,-55.92"/>
<polygon fill="#63b8ff" stroke="#63b8ff" points="109.56,-54.48 101.55,-47.54 103.48,-57.96 109.56,-54.48"/>
</a>
</g>
</g>
<!-- Node2 -->
<g id="Node000002" class="node">
<title>Node2</title>
<g id="a_Node000002"><a xlink:href="_orbit_state_utils_8cpp.html#a7efd4c21163a5acb20e61e1843b73310" target="_top" xlink:title="Compute mean anomaly from the eccentric anomaly.">
<polygon fill="white" stroke="#666666" points="344.75,-74.25 179.5,-74.25 179.5,-55 344.75,-55 344.75,-74.25"/>
<text text-anchor="middle" x="262.12" y="-60.75" font-family="Helvetica,sans-Serif" font-size="10.00">LPT::EccentricAnomToMeanAnom</text>
</a>
</g>
</g>
<!-- Node1&#45;&gt;Node2 -->
<g id="edge1_Node000001_Node000002" class="edge">
<title>Node1&#45;&gt;Node2</title>
<g id="a_edge1_Node000001_Node000002"><a xlink:title=" ">
<path fill="none" stroke="#63b8ff" d="M140.76,-46.73C154.36,-48.76 168.76,-50.9 182.68,-52.97"/>
<polygon fill="#63b8ff" stroke="#63b8ff" points="181.81,-56.52 192.22,-54.53 182.84,-49.6 181.81,-56.52"/>
</a>
</g>
</g>
<!-- Node4 -->
<g id="Node000004" class="node">
<title>Node4</title>
<g id="a_Node000004"><a xlink:href="_orbit_state_utils_8cpp.html#a2d32f22e904b8f588403c328d9b7af35" target="_top" xlink:title="Compute true anomaly from the Eccentric anomaly.">
<polygon fill="white" stroke="#666666" points="342.5,-19.25 181.75,-19.25 181.75,0 342.5,0 342.5,-19.25"/>
<text text-anchor="middle" x="262.12" y="-5.75" font-family="Helvetica,sans-Serif" font-size="10.00">LPT::TrueAnomToEccentricAnom</text>
</a>
</g>
</g>
<!-- Node1&#45;&gt;Node4 -->
<g id="edge5_Node000001_Node000004" class="edge">
<title>Node1&#45;&gt;Node4</title>
<g id="a_edge5_Node000001_Node000004"><a xlink:title=" ">
<path fill="none" stroke="#63b8ff" d="M143.16,-26.53C155.12,-24.82 167.63,-23.03 179.85,-21.27"/>
<polygon fill="#63b8ff" stroke="#63b8ff" points="180.08,-24.63 189.48,-19.75 179.09,-17.7 180.08,-24.63"/>
</a>
</g>
</g>
<!-- Node2&#45;&gt;Node2 -->
<g id="edge2_Node000002_Node000002" class="edge">
<title>Node2&#45;&gt;Node2</title>
<g id="a_edge2_Node000002_Node000002"><a xlink:title=" ">
<path fill="none" stroke="#63b8ff" d="M237.37,-74.54C226.08,-83.15 234.33,-92.25 262.12,-92.25 278.63,-92.25 288.24,-89.04 290.97,-84.63"/>
<polygon fill="#63b8ff" stroke="#63b8ff" points="293.88,-83.49 286.88,-75.54 287.39,-86.12 293.88,-83.49"/>
</a>
</g>
</g>
<!-- Node3 -->
<g id="Node000003" class="node">
<title>Node3</title>
<g id="a_Node000003"><a xlink:href="_math_utils_8cpp.html#a7d7ca6984da9a017ed7e3d34657fc87b" target="_top" xlink:title="Wrap the angle between &#45;pi and pi.">
<polygon fill="white" stroke="#666666" points="459.75,-74.25 380.75,-74.25 380.75,-55 459.75,-55 459.75,-74.25"/>
<text text-anchor="middle" x="420.25" y="-60.75" font-family="Helvetica,sans-Serif" font-size="10.00">LPT::wrapToPi</text>
</a>
</g>
</g>
<!-- Node2&#45;&gt;Node3 -->
<g id="edge3_Node000002_Node000003" class="edge">
<title>Node2&#45;&gt;Node3</title>
<g id="a_edge3_Node000002_Node000003"><a xlink:title=" ">
<path fill="none" stroke="#63b8ff" d="M344.85,-64.62C353.27,-64.62 361.64,-64.62 369.55,-64.62"/>
<polygon fill="#63b8ff" stroke="#63b8ff" points="369.41,-68.13 379.41,-64.62 369.41,-61.13 369.41,-68.13"/>
</a>
</g>
</g>
<!-- Node3&#45;&gt;Node3 -->
<g id="edge4_Node000003_Node000003" class="edge">
<title>Node3&#45;&gt;Node3</title>
<g id="a_edge4_Node000003_Node000003"><a xlink:title=" ">
<path fill="none" stroke="#63b8ff" d="M395.49,-74.54C384.2,-83.15 392.45,-92.25 420.25,-92.25 436.75,-92.25 446.37,-89.04 449.09,-84.63"/>
<polygon fill="#63b8ff" stroke="#63b8ff" points="452,-83.49 445.01,-75.54 445.51,-86.12 452,-83.49"/>
</a>
</g>
</g>
<!-- Node4&#45;&gt;Node4 -->
<g id="edge6_Node000004_Node000004" class="edge">
<title>Node4&#45;&gt;Node4</title>
<g id="a_edge6_Node000004_Node000004"><a xlink:title=" ">
<path fill="none" stroke="#63b8ff" d="M237.37,-19.54C226.08,-28.15 234.33,-37.25 262.12,-37.25 278.63,-37.25 288.24,-34.04 290.97,-29.63"/>
<polygon fill="#63b8ff" stroke="#63b8ff" points="293.88,-28.49 286.88,-20.54 287.39,-31.12 293.88,-28.49"/>
</a>
</g>
</g>
</g>
</svg>
</svg>

<style type='text/css'>
<![CDATA[
[data-mouse-over-selected='false'] { opacity: 0.7; }
[data-mouse-over-selected='true']  { opacity: 1.0; }
]]>
</style>
<script type="application/ecmascript"><![CDATA[
document.addEventListener('DOMContentLoaded', (event) => {
  highlightEdges();
  highlightAdjacentNodes();
});
]]></script>
</svg>
