<?xml version="1.0" encoding="UTF-8" standalone="no"?>
<!DOCTYPE svg PUBLIC "-//W3C//DTD SVG 1.1//EN"
 "http://www.w3.org/Graphics/SVG/1.1/DTD/svg11.dtd">
<!-- Generated by graphviz version 8.1.0 (20230707.0739)
 -->
<!-- Title: Propagator.h Pages: 1 -->
<svg width="352pt" height="149pt"
 viewBox="0.00 0.00 351.82 149.00" xmlns="http://www.w3.org/2000/svg" xmlns:xlink="http://www.w3.org/1999/xlink">

<svg id="main" version="1.1" xmlns="http://www.w3.org/2000/svg" xmlns:xlink="http://www.w3.org/1999/xlink" xml:space="preserve" onload="init(evt)">
<style type="text/css"><![CDATA[
.node, .edge {opacity: 0.7;}
.node.selected, .edge.selected {opacity: 1;}
.edge:hover path { stroke: red; }
.edge:hover polygon { stroke: red; fill: red; }
]]></style>
<script type="application/ecmascript" xlink:href="svg.min.js"/>
<svg id="graph" class="graph">
<g id="graph0" class="graph" transform="scale(1 1) rotate(0) translate(4 145)">
<title>Propagator.h</title>
<!-- Node1 -->
<g id="Node000001" class="node">
<title>Node1</title>
<g id="a_Node000001"><a xlink:title="Numerical Propagator.">
<polygon fill="#999999" stroke="#666666" points="145.44,-141 74.69,-141 74.69,-121.75 145.44,-121.75 145.44,-141"/>
<text text-anchor="middle" x="110.07" y="-127.5" font-family="Helvetica,sans-Serif" font-size="10.00">Propagator.h</text>
</a>
</g>
</g>
<!-- Node2 -->
<g id="Node000002" class="node">
<title>Node2</title>
<g id="a_Node000002"><a xlink:title=" ">
<polygon fill="#e0e0e0" stroke="#999999" points="127.57,-24.88 6.57,-24.88 6.57,-5.63 127.57,-5.63 127.57,-24.88"/>
<text text-anchor="middle" x="67.07" y="-11.38" font-family="Helvetica,sans-Serif" font-size="10.00">autodiff/forward/real.hpp</text>
</a>
</g>
</g>
<!-- Node1&#45;&gt;Node2 -->
<g id="edge1_Node000001_Node000002" class="edge">
<title>Node1&#45;&gt;Node2</title>
<g id="a_edge1_Node000001_Node000002"><a xlink:title=" ">
<path fill="none" stroke="#63b8ff" d="M74.28,-125.59C50,-120.28 19.59,-109.12 4.07,-85.75 -9.81,-64.86 15.81,-43.95 38.42,-30.61"/>
<polygon fill="#63b8ff" stroke="#63b8ff" points="39.78,-33.3 46.81,-25.37 36.37,-27.19 39.78,-33.3"/>
</a>
</g>
</g>
<!-- Node3 -->
<g id="Node000003" class="node">
<title>Node3</title>
<g id="a_Node000003"><a xlink:title=" ">
<polygon fill="#e0e0e0" stroke="#999999" points="66.82,-85.75 13.32,-85.75 13.32,-66.5 66.82,-66.5 66.82,-85.75"/>
<text text-anchor="middle" x="40.07" y="-72.25" font-family="Helvetica,sans-Serif" font-size="10.00">iostream</text>
</a>
</g>
</g>
<!-- Node1&#45;&gt;Node3 -->
<g id="edge2_Node000001_Node000003" class="edge">
<title>Node1&#45;&gt;Node3</title>
<g id="a_edge2_Node000001_Node000003"><a xlink:title=" ">
<path fill="none" stroke="#63b8ff" d="M98.19,-121.34C87.87,-113.49 72.7,-101.95 60.44,-92.62"/>
<polygon fill="#63b8ff" stroke="#63b8ff" points="62.84,-89.29 52.77,-86.02 58.61,-94.86 62.84,-89.29"/>
</a>
</g>
</g>
<!-- Node4 -->
<g id="Node000004" class="node">
<title>Node4</title>
<g id="a_Node000004"><a xlink:title=" ">
<polygon fill="#e0e0e0" stroke="#999999" points="135.69,-85.75 84.44,-85.75 84.44,-66.5 135.69,-66.5 135.69,-85.75"/>
<text text-anchor="middle" x="110.07" y="-72.25" font-family="Helvetica,sans-Serif" font-size="10.00">memory</text>
</a>
</g>
</g>
<!-- Node1&#45;&gt;Node4 -->
<g id="edge3_Node000001_Node000004" class="edge">
<title>Node1&#45;&gt;Node4</title>
<g id="a_edge3_Node000001_Node000004"><a xlink:title=" ">
<path fill="none" stroke="#63b8ff" d="M110.07,-121.58C110.07,-114.92 110.07,-105.49 110.07,-97.03"/>
<polygon fill="#63b8ff" stroke="#63b8ff" points="113.57,-97.11 110.07,-87.11 106.57,-97.11 113.57,-97.11"/>
</a>
</g>
</g>
<!-- Node5 -->
<g id="Node000005" class="node">
<title>Node5</title>
<g id="a_Node000005"><a xlink:title=" ">
<polygon fill="#e0e0e0" stroke="#999999" points="194.07,-85.75 154.07,-85.75 154.07,-66.5 194.07,-66.5 194.07,-85.75"/>
<text text-anchor="middle" x="174.07" y="-72.25" font-family="Helvetica,sans-Serif" font-size="10.00">string</text>
</a>
</g>
</g>
<!-- Node1&#45;&gt;Node5 -->
<g id="edge4_Node000001_Node000005" class="edge">
<title>Node1&#45;&gt;Node5</title>
<g id="a_edge4_Node000001_Node000005"><a xlink:title=" ">
<path fill="none" stroke="#63b8ff" d="M120.92,-121.34C130.27,-113.57 143.96,-102.17 155.11,-92.9"/>
<polygon fill="#63b8ff" stroke="#63b8ff" points="156.92,-95.11 162.37,-86.02 152.44,-89.73 156.92,-95.11"/>
</a>
</g>
</g>
<!-- Node6 -->
<g id="Node000006" class="node">
<title>Node6</title>
<g id="a_Node000006"><a xlink:href="_integrator_8h.html" target="_top" xlink:title="Integrator interfaces.">
<polygon fill="white" stroke="#666666" points="343.82,-85.75 212.32,-85.75 212.32,-66.5 343.82,-66.5 343.82,-85.75"/>
<text text-anchor="middle" x="278.07" y="-72.25" font-family="Helvetica,sans-Serif" font-size="10.00">lupnt/numerics/Integrator.h</text>
</a>
</g>
</g>
<!-- Node1&#45;&gt;Node6 -->
<g id="edge5_Node000001_Node000006" class="edge">
<title>Node1&#45;&gt;Node6</title>
<g id="a_edge5_Node000001_Node000006"><a xlink:title=" ">
<path fill="none" stroke="#63b8ff" d="M138.57,-121.34C166.2,-112.58 208.34,-99.23 239.08,-89.48"/>
<polygon fill="#63b8ff" stroke="#63b8ff" points="239.95,-92.56 248.43,-86.2 237.84,-85.89 239.95,-92.56"/>
</a>
</g>
</g>
<!-- Node6&#45;&gt;Node2 -->
<g id="edge6_Node000006_Node000002" class="edge">
<title>Node6&#45;&gt;Node2</title>
<g id="a_edge6_Node000006_Node000002"><a xlink:title=" ">
<path fill="none" stroke="#63b8ff" d="M245.56,-66.05C209.24,-55.92 150.28,-39.47 110.14,-28.27"/>
<polygon fill="#63b8ff" stroke="#63b8ff" points="111.18,-24.65 100.61,-25.33 109.3,-31.39 111.18,-24.65"/>
</a>
</g>
</g>
<!-- Node7 -->
<g id="Node000007" class="node">
<title>Node7</title>
<g id="a_Node000007"><a xlink:title=" ">
<polygon fill="#e0e0e0" stroke="#999999" points="329.19,-30.5 226.94,-30.5 226.94,0 329.19,0 329.19,-30.5"/>
<text text-anchor="start" x="234.94" y="-17" font-family="Helvetica,sans-Serif" font-size="10.00">autodiff/forward/real</text>
<text text-anchor="middle" x="278.07" y="-5.75" font-family="Helvetica,sans-Serif" font-size="10.00">/eigen.hpp</text>
</a>
</g>
</g>
<!-- Node6&#45;&gt;Node7 -->
<g id="edge7_Node000006_Node000007" class="edge">
<title>Node6&#45;&gt;Node7</title>
<g id="a_edge7_Node000006_Node000007"><a xlink:title=" ">
<path fill="none" stroke="#63b8ff" d="M278.07,-66.18C278.07,-59.65 278.07,-50.45 278.07,-41.72"/>
<polygon fill="#63b8ff" stroke="#63b8ff" points="281.57,-41.78 278.07,-31.78 274.57,-41.78 281.57,-41.78"/>
</a>
</g>
</g>
</g>
</svg>
</svg>

<style type='text/css'>
<![CDATA[
[data-mouse-over-selected='false'] { opacity: 0.7; }
[data-mouse-over-selected='true']  { opacity: 1.0; }
]]>
</style>
<script type="application/ecmascript"><![CDATA[
document.addEventListener('DOMContentLoaded', (event) => {
  highlightEdges();
  highlightAdjacentNodes();
});
]]></script>
</svg>
