<?xml version="1.0" encoding="UTF-8" standalone="no"?>
<!DOCTYPE svg PUBLIC "-//W3C//DTD SVG 1.1//EN"
 "http://www.w3.org/Graphics/SVG/1.1/DTD/svg11.dtd">
<!-- Generated by graphviz version 8.1.0 (20230707.0739)
 -->
<!-- Title: Propagator.cpp Pages: 1 -->
<svg width="460pt" height="204pt"
 viewBox="0.00 0.00 459.62 204.25" xmlns="http://www.w3.org/2000/svg" xmlns:xlink="http://www.w3.org/1999/xlink">
<g id="graph0" class="graph" transform="scale(1 1) rotate(0) translate(4 200.25)">
<title>Propagator.cpp</title>
<!-- Node1 -->
<g id="Node000001" class="node">
<title>Node1</title>
<g id="a_Node000001"><a xlink:title="Propagator class.">
<polygon fill="#999999" stroke="#666666" points="319.75,-196.25 238.5,-196.25 238.5,-177 319.75,-177 319.75,-196.25"/>
<text text-anchor="middle" x="279.12" y="-182.75" font-family="Helvetica,sans-Serif" font-size="10.00">Propagator.cpp</text>
</a>
</g>
</g>
<!-- Node2 -->
<g id="Node000002" class="node">
<title>Node2</title>
<g id="a_Node000002"><a xlink:href="_propagator_8h.html" target="_top" xlink:title="Numerical Propagator.">
<polygon fill="white" stroke="#666666" points="314.5,-141 243.75,-141 243.75,-121.75 314.5,-121.75 314.5,-141"/>
<text text-anchor="middle" x="279.12" y="-127.5" font-family="Helvetica,sans-Serif" font-size="10.00">Propagator.h</text>
</a>
</g>
</g>
<!-- Node1&#45;&gt;Node2 -->
<g id="edge1_Node000001_Node000002" class="edge">
<title>Node1&#45;&gt;Node2</title>
<g id="a_edge1_Node000001_Node000002"><a xlink:title=" ">
<path fill="none" stroke="#63b8ff" d="M279.12,-176.83C279.12,-170.17 279.12,-160.74 279.12,-152.28"/>
<polygon fill="#63b8ff" stroke="#63b8ff" points="282.63,-152.36 279.12,-142.36 275.63,-152.36 282.63,-152.36"/>
</a>
</g>
</g>
<!-- Node3 -->
<g id="Node000003" class="node">
<title>Node3</title>
<g id="a_Node000003"><a xlink:title=" ">
<polygon fill="#e0e0e0" stroke="#999999" points="451.62,-24.88 330.62,-24.88 330.62,-5.63 451.62,-5.63 451.62,-24.88"/>
<text text-anchor="middle" x="391.12" y="-11.38" font-family="Helvetica,sans-Serif" font-size="10.00">autodiff/forward/real.hpp</text>
</a>
</g>
</g>
<!-- Node1&#45;&gt;Node3 -->
<g id="edge9_Node000001_Node000003" class="edge">
<title>Node1&#45;&gt;Node3</title>
<g id="a_edge9_Node000001_Node000003"><a xlink:title=" ">
<path fill="none" stroke="#63b8ff" d="M296.5,-176.51C322.77,-161.6 371.63,-129.26 391.12,-85.75 398.14,-70.09 397.36,-50.39 395.29,-35.96"/>
<polygon fill="#63b8ff" stroke="#63b8ff" points="398.58,-35.52 393.38,-26.29 391.69,-36.75 398.58,-35.52"/>
</a>
</g>
</g>
<!-- Node8 -->
<g id="Node000008" class="node">
<title>Node8</title>
<g id="a_Node000008"><a xlink:title=" ">
<polygon fill="#e0e0e0" stroke="#999999" points="102.25,-30.5 0,-30.5 0,0 102.25,0 102.25,-30.5"/>
<text text-anchor="start" x="8" y="-17" font-family="Helvetica,sans-Serif" font-size="10.00">autodiff/forward/real</text>
<text text-anchor="middle" x="51.12" y="-5.75" font-family="Helvetica,sans-Serif" font-size="10.00">/eigen.hpp</text>
</a>
</g>
</g>
<!-- Node1&#45;&gt;Node8 -->
<g id="edge10_Node000001_Node000008" class="edge">
<title>Node1&#45;&gt;Node8</title>
<g id="a_edge10_Node000001_Node000008"><a xlink:title=" ">
<path fill="none" stroke="#63b8ff" d="M238.14,-183.24C179.05,-177.34 71.71,-156.85 23.12,-85.75 13.49,-71.65 21.1,-53.74 30.8,-39.63"/>
<polygon fill="#63b8ff" stroke="#63b8ff" points="34.09,-42.08 37.31,-31.99 28.5,-37.87 34.09,-42.08"/>
</a>
</g>
</g>
<!-- Node2&#45;&gt;Node3 -->
<g id="edge2_Node000002_Node000003" class="edge">
<title>Node2&#45;&gt;Node3</title>
<g id="a_edge2_Node000002_Node000003"><a xlink:title=" ">
<path fill="none" stroke="#63b8ff" d="M314.61,-121.27C334.19,-114.51 357.44,-103.35 372.12,-85.75 383.88,-71.65 388.4,-50.88 390.12,-35.71"/>
<polygon fill="#63b8ff" stroke="#63b8ff" points="393.67,-36.24 390.98,-25.99 386.69,-35.68 393.67,-36.24"/>
</a>
</g>
</g>
<!-- Node4 -->
<g id="Node000004" class="node">
<title>Node4</title>
<g id="a_Node000004"><a xlink:title=" ">
<polygon fill="#e0e0e0" stroke="#999999" points="235.88,-85.75 182.38,-85.75 182.38,-66.5 235.88,-66.5 235.88,-85.75"/>
<text text-anchor="middle" x="209.12" y="-72.25" font-family="Helvetica,sans-Serif" font-size="10.00">iostream</text>
</a>
</g>
</g>
<!-- Node2&#45;&gt;Node4 -->
<g id="edge3_Node000002_Node000004" class="edge">
<title>Node2&#45;&gt;Node4</title>
<g id="a_edge3_Node000002_Node000004"><a xlink:title=" ">
<path fill="none" stroke="#63b8ff" d="M267.25,-121.34C256.93,-113.49 241.76,-101.95 229.5,-92.62"/>
<polygon fill="#63b8ff" stroke="#63b8ff" points="231.9,-89.29 221.82,-86.02 227.66,-94.86 231.9,-89.29"/>
</a>
</g>
</g>
<!-- Node5 -->
<g id="Node000005" class="node">
<title>Node5</title>
<g id="a_Node000005"><a xlink:title=" ">
<polygon fill="#e0e0e0" stroke="#999999" points="304.75,-85.75 253.5,-85.75 253.5,-66.5 304.75,-66.5 304.75,-85.75"/>
<text text-anchor="middle" x="279.12" y="-72.25" font-family="Helvetica,sans-Serif" font-size="10.00">memory</text>
</a>
</g>
</g>
<!-- Node2&#45;&gt;Node5 -->
<g id="edge4_Node000002_Node000005" class="edge">
<title>Node2&#45;&gt;Node5</title>
<g id="a_edge4_Node000002_Node000005"><a xlink:title=" ">
<path fill="none" stroke="#63b8ff" d="M279.12,-121.58C279.12,-114.92 279.12,-105.49 279.12,-97.03"/>
<polygon fill="#63b8ff" stroke="#63b8ff" points="282.63,-97.11 279.12,-87.11 275.63,-97.11 282.63,-97.11"/>
</a>
</g>
</g>
<!-- Node6 -->
<g id="Node000006" class="node">
<title>Node6</title>
<g id="a_Node000006"><a xlink:title=" ">
<polygon fill="#e0e0e0" stroke="#999999" points="363.12,-85.75 323.12,-85.75 323.12,-66.5 363.12,-66.5 363.12,-85.75"/>
<text text-anchor="middle" x="343.12" y="-72.25" font-family="Helvetica,sans-Serif" font-size="10.00">string</text>
</a>
</g>
</g>
<!-- Node2&#45;&gt;Node6 -->
<g id="edge5_Node000002_Node000006" class="edge">
<title>Node2&#45;&gt;Node6</title>
<g id="a_edge5_Node000002_Node000006"><a xlink:title=" ">
<path fill="none" stroke="#63b8ff" d="M289.98,-121.34C299.32,-113.57 313.02,-102.17 324.17,-92.9"/>
<polygon fill="#63b8ff" stroke="#63b8ff" points="325.98,-95.11 331.43,-86.02 321.5,-89.73 325.98,-95.11"/>
</a>
</g>
</g>
<!-- Node7 -->
<g id="Node000007" class="node">
<title>Node7</title>
<g id="a_Node000007"><a xlink:href="_integrator_8h.html" target="_top" xlink:title="Integrator interfaces.">
<polygon fill="white" stroke="#666666" points="163.88,-85.75 32.38,-85.75 32.38,-66.5 163.88,-66.5 163.88,-85.75"/>
<text text-anchor="middle" x="98.12" y="-72.25" font-family="Helvetica,sans-Serif" font-size="10.00">lupnt/numerics/Integrator.h</text>
</a>
</g>
</g>
<!-- Node2&#45;&gt;Node7 -->
<g id="edge6_Node000002_Node000007" class="edge">
<title>Node2&#45;&gt;Node7</title>
<g id="a_edge6_Node000002_Node000007"><a xlink:title=" ">
<path fill="none" stroke="#63b8ff" d="M248.42,-121.34C218.39,-112.51 172.45,-98.99 139.27,-89.23"/>
<polygon fill="#63b8ff" stroke="#63b8ff" points="140.56,-85.67 129.98,-86.2 138.59,-92.38 140.56,-85.67"/>
</a>
</g>
</g>
<!-- Node7&#45;&gt;Node3 -->
<g id="edge7_Node000007_Node000003" class="edge">
<title>Node7&#45;&gt;Node3</title>
<g id="a_edge7_Node000007_Node000003"><a xlink:title=" ">
<path fill="none" stroke="#63b8ff" d="M143.26,-66.05C194.88,-55.68 279.43,-38.69 335.19,-27.49"/>
<polygon fill="#63b8ff" stroke="#63b8ff" points="335.82,-30.73 344.93,-25.33 334.44,-23.87 335.82,-30.73"/>
</a>
</g>
</g>
<!-- Node7&#45;&gt;Node8 -->
<g id="edge8_Node000007_Node000008" class="edge">
<title>Node7&#45;&gt;Node8</title>
<g id="a_edge8_Node000007_Node000008"><a xlink:title=" ">
<path fill="none" stroke="#63b8ff" d="M90.99,-66.18C85.25,-58.99 76.92,-48.56 69.36,-39.09"/>
<polygon fill="#63b8ff" stroke="#63b8ff" points="71.7,-37.41 62.73,-31.78 66.23,-41.78 71.7,-37.41"/>
</a>
</g>
</g>
</g>
</svg>
