<?xml version="1.0" encoding="UTF-8" standalone="no"?>
<!DOCTYPE svg PUBLIC "-//W3C//DTD SVG 1.1//EN"
 "http://www.w3.org/Graphics/SVG/1.1/DTD/svg11.dtd">
<!-- Generated by graphviz version 8.1.0 (20230707.0739)
 -->
<!-- Title: Scheduler.h Pages: 1 -->
<svg width="509pt" height="138pt"
 viewBox="0.00 0.00 509.00 137.75" xmlns="http://www.w3.org/2000/svg" xmlns:xlink="http://www.w3.org/1999/xlink">
<g id="graph0" class="graph" transform="scale(1 1) rotate(0) translate(4 133.75)">
<title>Scheduler.h</title>
<!-- Node1 -->
<g id="Node000001" class="node">
<title>Node1</title>
<g id="a_Node000001"><a xlink:title="Event scheduler class.">
<polygon fill="#999999" stroke="#666666" points="257,-129.75 190,-129.75 190,-110.5 257,-110.5 257,-129.75"/>
<text text-anchor="middle" x="223.5" y="-116.25" font-family="Helvetica,sans-Serif" font-size="10.00">Scheduler.h</text>
</a>
</g>
</g>
<!-- Node2 -->
<g id="Node000002" class="node">
<title>Node2</title>
<g id="a_Node000002"><a xlink:title=" ">
<polygon fill="#e0e0e0" stroke="#999999" points="43,-74.5 0,-74.5 0,-55.25 43,-55.25 43,-74.5"/>
<text text-anchor="middle" x="21.5" y="-61" font-family="Helvetica,sans-Serif" font-size="10.00">cmath</text>
</a>
</g>
</g>
<!-- Node1&#45;&gt;Node2 -->
<g id="edge1_Node000001_Node000002" class="edge">
<title>Node1&#45;&gt;Node2</title>
<g id="a_edge1_Node000001_Node000002"><a xlink:title=" ">
<path fill="none" stroke="#63b8ff" d="M189.69,-110.21C151.77,-100.21 90.71,-84.12 53.53,-74.32"/>
<polygon fill="#63b8ff" stroke="#63b8ff" points="54.82,-70.78 44.26,-71.61 53.04,-77.54 54.82,-70.78"/>
</a>
</g>
</g>
<!-- Node3 -->
<g id="Node000003" class="node">
<title>Node3</title>
<g id="a_Node000003"><a xlink:title=" ">
<polygon fill="#e0e0e0" stroke="#999999" points="96.12,-19.25 56.88,-19.25 56.88,0 96.12,0 96.12,-19.25"/>
<text text-anchor="middle" x="76.5" y="-5.75" font-family="Helvetica,sans-Serif" font-size="10.00">limits</text>
</a>
</g>
</g>
<!-- Node1&#45;&gt;Node3 -->
<g id="edge2_Node000001_Node000003" class="edge">
<title>Node1&#45;&gt;Node3</title>
<g id="a_edge2_Node000001_Node000003"><a xlink:title=" ">
<path fill="none" stroke="#63b8ff" d="M189.5,-116.89C159.15,-113.03 115.71,-102.6 90.5,-74.5 79.83,-62.61 76.66,-44.48 75.97,-30.57"/>
<polygon fill="#63b8ff" stroke="#63b8ff" points="79.46,-30.67 75.87,-20.7 72.46,-30.73 79.46,-30.67"/>
</a>
</g>
</g>
<!-- Node4 -->
<g id="Node000004" class="node">
<title>Node4</title>
<g id="a_Node000004"><a xlink:title=" ">
<polygon fill="#e0e0e0" stroke="#999999" points="249.12,-19.25 197.88,-19.25 197.88,0 249.12,0 249.12,-19.25"/>
<text text-anchor="middle" x="223.5" y="-5.75" font-family="Helvetica,sans-Serif" font-size="10.00">memory</text>
</a>
</g>
</g>
<!-- Node1&#45;&gt;Node4 -->
<g id="edge3_Node000001_Node000004" class="edge">
<title>Node1&#45;&gt;Node4</title>
<g id="a_edge3_Node000001_Node000004"><a xlink:title=" ">
<path fill="none" stroke="#63b8ff" d="M223.5,-110.25C223.5,-92.92 223.5,-54.23 223.5,-30.49"/>
<polygon fill="#63b8ff" stroke="#63b8ff" points="227,-30.63 223.5,-20.63 220,-30.63 227,-30.63"/>
</a>
</g>
</g>
<!-- Node5 -->
<g id="Node000005" class="node">
<title>Node5</title>
<g id="a_Node000005"><a xlink:title=" ">
<polygon fill="#e0e0e0" stroke="#999999" points="439.62,-74.5 397.38,-74.5 397.38,-55.25 439.62,-55.25 439.62,-74.5"/>
<text text-anchor="middle" x="418.5" y="-61" font-family="Helvetica,sans-Serif" font-size="10.00">queue</text>
</a>
</g>
</g>
<!-- Node1&#45;&gt;Node5 -->
<g id="edge4_Node000001_Node000005" class="edge">
<title>Node1&#45;&gt;Node5</title>
<g id="a_edge4_Node000001_Node000005"><a xlink:title=" ">
<path fill="none" stroke="#63b8ff" d="M257.36,-110.14C288.59,-101.81 336.51,-88.93 386.52,-75.02"/>
<polygon fill="#63b8ff" stroke="#63b8ff" points="387.19,-78.19 395.88,-72.13 385.31,-71.45 387.19,-78.19"/>
</a>
</g>
</g>
<!-- Node6 -->
<g id="Node000006" class="node">
<title>Node6</title>
<g id="a_Node000006"><a xlink:title=" ">
<polygon fill="#e0e0e0" stroke="#999999" points="501,-74.5 458,-74.5 458,-55.25 501,-55.25 501,-74.5"/>
<text text-anchor="middle" x="479.5" y="-61" font-family="Helvetica,sans-Serif" font-size="10.00">vector</text>
</a>
</g>
</g>
<!-- Node1&#45;&gt;Node6 -->
<g id="edge5_Node000001_Node000006" class="edge">
<title>Node1&#45;&gt;Node6</title>
<g id="a_edge5_Node000001_Node000006"><a xlink:title=" ">
<path fill="none" stroke="#63b8ff" d="M257.22,-113.26C299.39,-105.74 374,-91.86 447.22,-74.66"/>
<polygon fill="#63b8ff" stroke="#63b8ff" points="447.62,-77.92 456.54,-72.21 446,-71.11 447.62,-77.92"/>
</a>
</g>
</g>
<!-- Node7 -->
<g id="Node000007" class="node">
<title>Node7</title>
<g id="a_Node000007"><a xlink:href="_application_8h.html" target="_top" xlink:title="Base class for Application.">
<polygon fill="white" stroke="#666666" points="379.75,-74.5 251.25,-74.5 251.25,-55.25 379.75,-55.25 379.75,-74.5"/>
<text text-anchor="middle" x="315.5" y="-61" font-family="Helvetica,sans-Serif" font-size="10.00">lupnt/agents/Application.h</text>
</a>
</g>
</g>
<!-- Node1&#45;&gt;Node7 -->
<g id="edge6_Node000001_Node000007" class="edge">
<title>Node1&#45;&gt;Node7</title>
<g id="a_edge6_Node000001_Node000007"><a xlink:title=" ">
<path fill="none" stroke="#63b8ff" d="M239.11,-110.09C253.12,-101.98 273.93,-89.93 290.3,-80.46"/>
<polygon fill="#63b8ff" stroke="#63b8ff" points="291.92,-82.99 298.82,-74.95 288.41,-76.93 291.92,-82.99"/>
</a>
</g>
</g>
<!-- Node8 -->
<g id="Node000008" class="node">
<title>Node8</title>
<g id="a_Node000008"><a xlink:href="_event_8h.html" target="_top" xlink:title="Event class.">
<polygon fill="white" stroke="#666666" points="195.25,-74.5 99.75,-74.5 99.75,-55.25 195.25,-55.25 195.25,-74.5"/>
<text text-anchor="middle" x="147.5" y="-61" font-family="Helvetica,sans-Serif" font-size="10.00">lupnt/core/Event.h</text>
</a>
</g>
</g>
<!-- Node1&#45;&gt;Node8 -->
<g id="edge8_Node000001_Node000008" class="edge">
<title>Node1&#45;&gt;Node8</title>
<g id="a_edge8_Node000001_Node000008"><a xlink:title=" ">
<path fill="none" stroke="#63b8ff" d="M210.61,-110.09C199.25,-102.14 182.48,-90.39 169.09,-81"/>
<polygon fill="#63b8ff" stroke="#63b8ff" points="171.65,-77.82 161.46,-74.95 167.64,-83.56 171.65,-77.82"/>
</a>
</g>
</g>
<!-- Node7&#45;&gt;Node4 -->
<g id="edge7_Node000007_Node000004" class="edge">
<title>Node7&#45;&gt;Node4</title>
<g id="a_edge7_Node000007_Node000004"><a xlink:title=" ">
<path fill="none" stroke="#63b8ff" d="M299.89,-54.84C285.88,-46.73 265.07,-34.68 248.7,-25.21"/>
<polygon fill="#63b8ff" stroke="#63b8ff" points="250.59,-21.68 240.18,-19.7 247.08,-27.74 250.59,-21.68"/>
</a>
</g>
</g>
<!-- Node8&#45;&gt;Node3 -->
<g id="edge10_Node000008_Node000003" class="edge">
<title>Node8&#45;&gt;Node3</title>
<g id="a_edge10_Node000008_Node000003"><a xlink:title=" ">
<path fill="none" stroke="#63b8ff" d="M135.46,-54.84C124.99,-46.99 109.6,-35.45 97.17,-26.12"/>
<polygon fill="#63b8ff" stroke="#63b8ff" points="99.47,-22.72 89.37,-19.52 95.27,-28.32 99.47,-22.72"/>
</a>
</g>
</g>
<!-- Node8&#45;&gt;Node4 -->
<g id="edge11_Node000008_Node000004" class="edge">
<title>Node8&#45;&gt;Node4</title>
<g id="a_edge11_Node000008_Node000004"><a xlink:title=" ">
<path fill="none" stroke="#63b8ff" d="M160.39,-54.84C171.75,-46.89 188.52,-35.14 201.91,-25.75"/>
<polygon fill="#63b8ff" stroke="#63b8ff" points="203.36,-28.31 209.54,-19.7 199.35,-22.57 203.36,-28.31"/>
</a>
</g>
</g>
<!-- Node9 -->
<g id="Node000009" class="node">
<title>Node9</title>
<g id="a_Node000009"><a xlink:title=" ">
<polygon fill="#e0e0e0" stroke="#999999" points="176.5,-19.25 118.5,-19.25 118.5,0 176.5,0 176.5,-19.25"/>
<text text-anchor="middle" x="147.5" y="-5.75" font-family="Helvetica,sans-Serif" font-size="10.00">functional</text>
</a>
</g>
</g>
<!-- Node8&#45;&gt;Node9 -->
<g id="edge9_Node000008_Node000009" class="edge">
<title>Node8&#45;&gt;Node9</title>
<g id="a_edge9_Node000008_Node000009"><a xlink:title=" ">
<path fill="none" stroke="#63b8ff" d="M147.5,-55.08C147.5,-48.42 147.5,-38.99 147.5,-30.53"/>
<polygon fill="#63b8ff" stroke="#63b8ff" points="151,-30.61 147.5,-20.61 144,-30.61 151,-30.61"/>
</a>
</g>
</g>
</g>
</svg>
