<?xml version="1.0" encoding="UTF-8" standalone="no"?>
<!DOCTYPE svg PUBLIC "-//W3C//DTD SVG 1.1//EN"
 "http://www.w3.org/Graphics/SVG/1.1/DTD/svg11.dtd">
<!-- Generated by graphviz version 8.1.0 (20230707.0739)
 -->
<!-- Title: LPT::SpiceInterface::GetBodyPosVel Pages: 1 -->
<svg width="385pt" height="79pt"
 viewBox="0.00 0.00 384.50 78.50" xmlns="http://www.w3.org/2000/svg" xmlns:xlink="http://www.w3.org/1999/xlink">
<g id="graph0" class="graph" transform="scale(1 1) rotate(0) translate(4 74.5)">
<title>LPT::SpiceInterface::GetBodyPosVel</title>
<!-- Node1 -->
<g id="Node000001" class="node">
<title>Node1</title>
<g id="a_Node000001"><a xlink:title="Get the Body Position and Velocity using Chebyshev polynomials.">
<polygon fill="#999999" stroke="#666666" points="101.5,-30.5 0,-30.5 0,0 101.5,0 101.5,-30.5"/>
<text text-anchor="start" x="8" y="-17" font-family="Helvetica,sans-Serif" font-size="10.00">LPT::SpiceInterface</text>
<text text-anchor="middle" x="50.75" y="-5.75" font-family="Helvetica,sans-Serif" font-size="10.00">::GetBodyPosVel</text>
</a>
</g>
</g>
<!-- Node1&#45;&gt;Node1 -->
<g id="edge5_Node000001_Node000001" class="edge">
<title>Node1&#45;&gt;Node1</title>
<g id="a_edge5_Node000001_Node000001"><a xlink:title=" ">
<path fill="none" stroke="#63b8ff" d="M26.38,-30.99C21.41,-40.06 29.53,-48.5 50.75,-48.5 62.68,-48.5 70.47,-45.83 74.12,-41.88"/>
<polygon fill="#63b8ff" stroke="#63b8ff" points="77.69,-42.26 75.12,-31.99 70.72,-41.63 77.69,-42.26"/>
</a>
</g>
</g>
<!-- Node2 -->
<g id="Node000002" class="node">
<title>Node2</title>
<g id="a_Node000002"><a xlink:href="_spice_interface_8cpp.html#af325f617b7e3d6a65c37b6ca4dfd52b3" target="_top" xlink:title="Convert time from one time system to another.">
<polygon fill="white" stroke="#666666" points="239,-52.5 137.5,-52.5 137.5,-22 239,-22 239,-52.5"/>
<text text-anchor="start" x="145.5" y="-39" font-family="Helvetica,sans-Serif" font-size="10.00">LPT::SpiceInterface</text>
<text text-anchor="middle" x="188.25" y="-27.75" font-family="Helvetica,sans-Serif" font-size="10.00">::ConvertTime</text>
</a>
</g>
</g>
<!-- Node1&#45;&gt;Node2 -->
<g id="edge1_Node000001_Node000002" class="edge">
<title>Node1&#45;&gt;Node2</title>
<g id="a_edge1_Node000001_Node000002"><a xlink:title=" ">
<path fill="none" stroke="#63b8ff" d="M101.82,-23.38C109.89,-24.69 118.33,-26.06 126.61,-27.41"/>
<polygon fill="#63b8ff" stroke="#63b8ff" points="125.95,-31.01 136.39,-29.15 127.08,-24.1 125.95,-31.01"/>
</a>
</g>
</g>
<!-- Node3 -->
<g id="Node000003" class="node">
<title>Node3</title>
<g id="a_Node000003"><a xlink:href="_spice_interface_8cpp.html#a37ef193d9d9c280ca90a4dcfc6c42002" target="_top" xlink:title="load the Spice kernels">
<polygon fill="white" stroke="#666666" points="376.5,-30.5 275,-30.5 275,0 376.5,0 376.5,-30.5"/>
<text text-anchor="start" x="283" y="-17" font-family="Helvetica,sans-Serif" font-size="10.00">LPT::SpiceInterface</text>
<text text-anchor="middle" x="325.75" y="-5.75" font-family="Helvetica,sans-Serif" font-size="10.00">::LoadSpiceKernel</text>
</a>
</g>
</g>
<!-- Node1&#45;&gt;Node3 -->
<g id="edge6_Node000001_Node000003" class="edge">
<title>Node1&#45;&gt;Node3</title>
<g id="a_edge6_Node000001_Node000003"><a xlink:title=" ">
<path fill="none" stroke="#63b8ff" d="M101.62,-13.89C113.39,-13.62 125.89,-13.39 137.5,-13.25 182.61,-12.72 193.89,-12.72 239,-13.25 247.08,-13.34 255.58,-13.49 263.96,-13.66"/>
<polygon fill="#63b8ff" stroke="#63b8ff" points="263.8,-17.18 273.88,-13.89 263.95,-10.18 263.8,-17.18"/>
</a>
</g>
</g>
<!-- Node2&#45;&gt;Node2 -->
<g id="edge2_Node000002_Node000002" class="edge">
<title>Node2&#45;&gt;Node2</title>
<g id="a_edge2_Node000002_Node000002"><a xlink:title=" ">
<path fill="none" stroke="#63b8ff" d="M163.88,-52.99C158.91,-62.06 167.03,-70.5 188.25,-70.5 200.18,-70.5 207.97,-67.83 211.62,-63.88"/>
<polygon fill="#63b8ff" stroke="#63b8ff" points="215.19,-64.26 212.62,-53.99 208.22,-63.63 215.19,-64.26"/>
</a>
</g>
</g>
<!-- Node2&#45;&gt;Node3 -->
<g id="edge3_Node000002_Node000003" class="edge">
<title>Node2&#45;&gt;Node3</title>
<g id="a_edge3_Node000002_Node000003"><a xlink:title=" ">
<path fill="none" stroke="#63b8ff" d="M239.32,-29.12C247.39,-27.81 255.83,-26.44 264.11,-25.09"/>
<polygon fill="#63b8ff" stroke="#63b8ff" points="264.58,-28.4 273.89,-23.35 263.45,-21.49 264.58,-28.4"/>
</a>
</g>
</g>
<!-- Node3&#45;&gt;Node3 -->
<g id="edge4_Node000003_Node000003" class="edge">
<title>Node3&#45;&gt;Node3</title>
<g id="a_edge4_Node000003_Node000003"><a xlink:title=" ">
<path fill="none" stroke="#63b8ff" d="M301.38,-30.99C296.41,-40.06 304.53,-48.5 325.75,-48.5 337.68,-48.5 345.47,-45.83 349.12,-41.88"/>
<polygon fill="#63b8ff" stroke="#63b8ff" points="352.69,-42.26 350.12,-31.99 345.72,-41.63 352.69,-42.26"/>
</a>
</g>
</g>
</g>
</svg>
