<?xml version="1.0" encoding="UTF-8" standalone="no"?>
<!DOCTYPE svg PUBLIC "-//W3C//DTD SVG 1.1//EN"
 "http://www.w3.org/Graphics/SVG/1.1/DTD/svg11.dtd">
<!-- Generated by graphviz version 8.1.0 (20230707.0739)
 -->
<!-- Title: SpiceInterface.cpp Pages: 1 -->
<svg width="837pt" height="271pt"
 viewBox="0.00 0.00 837.12 270.75" xmlns="http://www.w3.org/2000/svg" xmlns:xlink="http://www.w3.org/1999/xlink">
<g id="graph0" class="graph" transform="scale(1 1) rotate(0) translate(4 266.75)">
<title>SpiceInterface.cpp</title>
<!-- Node1 -->
<g id="Node000001" class="node">
<title>Node1</title>
<g id="a_Node000001"><a xlink:title="SPICE Interface functions.">
<polygon fill="#999999" stroke="#666666" points="545,-262.75 447.25,-262.75 447.25,-243.5 545,-243.5 545,-262.75"/>
<text text-anchor="middle" x="496.12" y="-249.25" font-family="Helvetica,sans-Serif" font-size="10.00">SpiceInterface.cpp</text>
</a>
</g>
</g>
<!-- Node2 -->
<g id="Node000002" class="node">
<title>Node2</title>
<g id="a_Node000002"><a xlink:href="_spice_interface_8h.html" target="_top" xlink:title="SPICE Interface functions.">
<polygon fill="white" stroke="#666666" points="239.75,-201.88 152.5,-201.88 152.5,-182.62 239.75,-182.62 239.75,-201.88"/>
<text text-anchor="middle" x="196.12" y="-188.38" font-family="Helvetica,sans-Serif" font-size="10.00">SpiceInterface.h</text>
</a>
</g>
</g>
<!-- Node1&#45;&gt;Node2 -->
<g id="edge1_Node000001_Node000002" class="edge">
<title>Node1&#45;&gt;Node2</title>
<g id="a_edge1_Node000001_Node000002"><a xlink:title=" ">
<path fill="none" stroke="#63b8ff" d="M449.91,-243.05C396.17,-232.51 307.59,-215.12 250.57,-203.93"/>
<polygon fill="#63b8ff" stroke="#63b8ff" points="251.44,-200.34 240.95,-201.85 250.09,-207.21 251.44,-200.34"/>
</a>
</g>
</g>
<!-- Node3 -->
<g id="Node000003" class="node">
<title>Node3</title>
<g id="a_Node000003"><a xlink:title=" ">
<polygon fill="#e0e0e0" stroke="#999999" points="48.25,-135.38 0,-135.38 0,-116.12 48.25,-116.12 48.25,-135.38"/>
<text text-anchor="middle" x="24.12" y="-121.88" font-family="Helvetica,sans-Serif" font-size="10.00">string.h</text>
</a>
</g>
</g>
<!-- Node1&#45;&gt;Node3 -->
<g id="edge14_Node000001_Node000003" class="edge">
<title>Node1&#45;&gt;Node3</title>
<g id="a_edge14_Node000001_Node000003"><a xlink:title=" ">
<path fill="none" stroke="#63b8ff" d="M447.02,-253.04C377.21,-252.77 246.28,-246.44 143.12,-207.5 103.3,-192.46 63.73,-161.64 41.75,-142.72"/>
<polygon fill="#63b8ff" stroke="#63b8ff" points="44.53,-139.63 34.71,-135.65 39.91,-144.89 44.53,-139.63"/>
</a>
</g>
</g>
<!-- Node9 -->
<g id="Node000009" class="node">
<title>Node9</title>
<g id="a_Node000009"><a xlink:href="_user_file_path_8h.html" target="_top" xlink:title="File access utils.">
<polygon fill="white" stroke="#666666" points="448.75,-74.5 367.5,-74.5 367.5,-55.25 448.75,-55.25 448.75,-74.5"/>
<text text-anchor="middle" x="408.12" y="-61" font-family="Helvetica,sans-Serif" font-size="10.00">UserFilePath.h</text>
</a>
</g>
</g>
<!-- Node1&#45;&gt;Node9 -->
<g id="edge20_Node000001_Node000009" class="edge">
<title>Node1&#45;&gt;Node9</title>
<g id="a_edge20_Node000001_Node000009"><a xlink:title=" ">
<path fill="none" stroke="#63b8ff" d="M488.27,-243.04C481.05,-234.36 470.38,-220.67 463.12,-207.5 440.29,-166.06 422.45,-113.16 413.82,-85.21"/>
<polygon fill="#63b8ff" stroke="#63b8ff" points="416.94,-84.42 410.7,-75.86 410.24,-86.44 416.94,-84.42"/>
</a>
</g>
</g>
<!-- Node10 -->
<g id="Node000010" class="node">
<title>Node10</title>
<g id="a_Node000010"><a xlink:title=" ">
<polygon fill="#e0e0e0" stroke="#999999" points="470.62,-19.25 409.62,-19.25 409.62,0 470.62,0 470.62,-19.25"/>
<text text-anchor="middle" x="440.12" y="-5.75" font-family="Helvetica,sans-Serif" font-size="10.00">filesystem</text>
</a>
</g>
</g>
<!-- Node1&#45;&gt;Node10 -->
<g id="edge15_Node000001_Node000010" class="edge">
<title>Node1&#45;&gt;Node10</title>
<g id="a_edge15_Node000001_Node000010"><a xlink:title=" ">
<path fill="none" stroke="#63b8ff" d="M495.05,-243.35C491.48,-215.43 479.12,-126.36 458.12,-55.25 455.59,-46.65 452.01,-37.41 448.71,-29.58"/>
<polygon fill="#63b8ff" stroke="#63b8ff" points="451.59,-28.43 444.38,-20.67 445.18,-31.24 451.59,-28.43"/>
</a>
</g>
</g>
<!-- Node11 -->
<g id="Node000011" class="node">
<title>Node11</title>
<g id="a_Node000011"><a xlink:title=" ">
<polygon fill="#e0e0e0" stroke="#999999" points="541.88,-19.25 488.38,-19.25 488.38,0 541.88,0 541.88,-19.25"/>
<text text-anchor="middle" x="515.12" y="-5.75" font-family="Helvetica,sans-Serif" font-size="10.00">iostream</text>
</a>
</g>
</g>
<!-- Node1&#45;&gt;Node11 -->
<g id="edge17_Node000001_Node000011" class="edge">
<title>Node1&#45;&gt;Node11</title>
<g id="a_edge17_Node000001_Node000011"><a xlink:title=" ">
<path fill="none" stroke="#63b8ff" d="M496.82,-243.24C499.57,-208.33 509.66,-80.03 513.57,-30.4"/>
<polygon fill="#63b8ff" stroke="#63b8ff" points="517.12,-30.83 514.42,-20.59 510.15,-30.28 517.12,-30.83"/>
</a>
</g>
</g>
<!-- Node13 -->
<g id="Node000013" class="node">
<title>Node13</title>
<g id="a_Node000013"><a xlink:title=" ">
<polygon fill="#e0e0e0" stroke="#999999" points="592.62,-201.88 543.62,-201.88 543.62,-182.62 592.62,-182.62 592.62,-201.88"/>
<text text-anchor="middle" x="568.12" y="-188.38" font-family="Helvetica,sans-Serif" font-size="10.00">fstream</text>
</a>
</g>
</g>
<!-- Node1&#45;&gt;Node13 -->
<g id="edge16_Node000001_Node000013" class="edge">
<title>Node1&#45;&gt;Node13</title>
<g id="a_edge16_Node000001_Node000013"><a xlink:title=" ">
<path fill="none" stroke="#63b8ff" d="M507.06,-243.18C518.06,-234.19 535.24,-220.14 548.59,-209.23"/>
<polygon fill="#63b8ff" stroke="#63b8ff" points="550.56,-211.32 556.09,-202.28 546.13,-205.9 550.56,-211.32"/>
</a>
</g>
</g>
<!-- Node14 -->
<g id="Node000014" class="node">
<title>Node14</title>
<g id="a_Node000014"><a xlink:title=" ">
<polygon fill="#e0e0e0" stroke="#999999" points="711.5,-207.5 610.75,-207.5 610.75,-177 711.5,-177 711.5,-207.5"/>
<text text-anchor="start" x="618.75" y="-194" font-family="Helvetica,sans-Serif" font-size="10.00">../3rdparty/cspice</text>
<text text-anchor="middle" x="661.12" y="-182.75" font-family="Helvetica,sans-Serif" font-size="10.00">/include/SpiceUsr.h</text>
</a>
</g>
</g>
<!-- Node1&#45;&gt;Node14 -->
<g id="edge18_Node000001_Node000014" class="edge">
<title>Node1&#45;&gt;Node14</title>
<g id="a_edge18_Node000001_Node000014"><a xlink:title=" ">
<path fill="none" stroke="#63b8ff" d="M521.54,-243.05C545,-234.69 580.51,-222.01 609.85,-211.54"/>
<polygon fill="#63b8ff" stroke="#63b8ff" points="610.7,-214.6 618.94,-207.94 608.35,-208.01 610.7,-214.6"/>
</a>
</g>
</g>
<!-- Node15 -->
<g id="Node000015" class="node">
<title>Node15</title>
<g id="a_Node000015"><a xlink:title=" ">
<polygon fill="#e0e0e0" stroke="#999999" points="829.12,-207.5 729.12,-207.5 729.12,-177 829.12,-177 829.12,-207.5"/>
<text text-anchor="start" x="737.12" y="-194" font-family="Helvetica,sans-Serif" font-size="10.00">../3rdparty/cspice</text>
<text text-anchor="middle" x="779.12" y="-182.75" font-family="Helvetica,sans-Serif" font-size="10.00">/include/SpiceZfc.h</text>
</a>
</g>
</g>
<!-- Node1&#45;&gt;Node15 -->
<g id="edge19_Node000001_Node000015" class="edge">
<title>Node1&#45;&gt;Node15</title>
<g id="a_edge19_Node000001_Node000015"><a xlink:title=" ">
<path fill="none" stroke="#63b8ff" d="M544.75,-243.03C587.89,-234.82 652.89,-222.13 718.15,-207.89"/>
<polygon fill="#63b8ff" stroke="#63b8ff" points="718.61,-211.15 727.63,-205.59 717.11,-204.31 718.61,-211.15"/>
</a>
</g>
</g>
<!-- Node2&#45;&gt;Node3 -->
<g id="edge2_Node000002_Node000003" class="edge">
<title>Node2&#45;&gt;Node3</title>
<g id="a_edge2_Node000002_Node000003"><a xlink:title=" ">
<path fill="none" stroke="#63b8ff" d="M169.56,-182.18C141.45,-172.47 95.89,-156.36 57.12,-141 56.24,-140.65 55.34,-140.29 54.43,-139.92"/>
<polygon fill="#63b8ff" stroke="#63b8ff" points="56.22,-136.46 45.64,-135.84 53.52,-142.92 56.22,-136.46"/>
</a>
</g>
</g>
<!-- Node4 -->
<g id="Node000004" class="node">
<title>Node4</title>
<g id="a_Node000004"><a xlink:title=" ">
<polygon fill="#e0e0e0" stroke="#999999" points="158.62,-74.5 37.62,-74.5 37.62,-55.25 158.62,-55.25 158.62,-74.5"/>
<text text-anchor="middle" x="98.12" y="-61" font-family="Helvetica,sans-Serif" font-size="10.00">autodiff/forward/real.hpp</text>
</a>
</g>
</g>
<!-- Node2&#45;&gt;Node4 -->
<g id="edge3_Node000002_Node000004" class="edge">
<title>Node2&#45;&gt;Node4</title>
<g id="a_edge3_Node000002_Node000004"><a xlink:title=" ">
<path fill="none" stroke="#63b8ff" d="M196.26,-182.28C196.06,-166.27 193.55,-132.39 177.12,-110.5 166.75,-96.68 150.77,-86.51 135.88,-79.4"/>
<polygon fill="#63b8ff" stroke="#63b8ff" points="137.39,-75.8 126.83,-74.96 134.56,-82.2 137.39,-75.8"/>
</a>
</g>
</g>
<!-- Node5 -->
<g id="Node000005" class="node">
<title>Node5</title>
<g id="a_Node000005"><a xlink:title=" ">
<polygon fill="#e0e0e0" stroke="#999999" points="168.25,-141 66,-141 66,-110.5 168.25,-110.5 168.25,-141"/>
<text text-anchor="start" x="74" y="-127.5" font-family="Helvetica,sans-Serif" font-size="10.00">autodiff/forward/real</text>
<text text-anchor="middle" x="117.12" y="-116.25" font-family="Helvetica,sans-Serif" font-size="10.00">/eigen.hpp</text>
</a>
</g>
</g>
<!-- Node2&#45;&gt;Node5 -->
<g id="edge4_Node000002_Node000005" class="edge">
<title>Node2&#45;&gt;Node5</title>
<g id="a_edge4_Node000002_Node000005"><a xlink:title=" ">
<path fill="none" stroke="#63b8ff" d="M185.14,-182.28C174.4,-173.51 157.63,-159.82 143.43,-148.23"/>
<polygon fill="#63b8ff" stroke="#63b8ff" points="145.96,-144.95 136,-141.34 141.53,-150.38 145.96,-144.95"/>
</a>
</g>
</g>
<!-- Node6 -->
<g id="Node000006" class="node">
<title>Node6</title>
<g id="a_Node000006"><a xlink:href="_constants_8h.html" target="_top" xlink:title="List of constants.">
<polygon fill="white" stroke="#666666" points="339.62,-135.38 224.62,-135.38 224.62,-116.12 339.62,-116.12 339.62,-135.38"/>
<text text-anchor="middle" x="282.12" y="-121.88" font-family="Helvetica,sans-Serif" font-size="10.00">lupnt/core/Constants.h</text>
</a>
</g>
</g>
<!-- Node2&#45;&gt;Node6 -->
<g id="edge5_Node000002_Node000006" class="edge">
<title>Node2&#45;&gt;Node6</title>
<g id="a_edge5_Node000002_Node000006"><a xlink:title=" ">
<path fill="none" stroke="#63b8ff" d="M208.08,-182.28C221.87,-171.94 244.77,-154.77 261.46,-142.25"/>
<polygon fill="#63b8ff" stroke="#63b8ff" points="263.09,-144.65 268.99,-135.85 258.89,-139.05 263.09,-144.65"/>
</a>
</g>
</g>
<!-- Node6&#45;&gt;Node4 -->
<g id="edge7_Node000006_Node000004" class="edge">
<title>Node6&#45;&gt;Node4</title>
<g id="a_edge7_Node000006_Node000004"><a xlink:title=" ">
<path fill="none" stroke="#63b8ff" d="M253.78,-115.68C222.44,-105.65 171.78,-89.44 136.81,-78.25"/>
<polygon fill="#63b8ff" stroke="#63b8ff" points="138.09,-74.67 127.5,-74.96 135.96,-81.34 138.09,-74.67"/>
</a>
</g>
</g>
<!-- Node7 -->
<g id="Node000007" class="node">
<title>Node7</title>
<g id="a_Node000007"><a xlink:title=" ">
<polygon fill="#e0e0e0" stroke="#999999" points="349,-74.5 215.25,-74.5 215.25,-55.25 349,-55.25 349,-74.5"/>
<text text-anchor="middle" x="282.12" y="-61" font-family="Helvetica,sans-Serif" font-size="10.00">autodiff/common/eigen.hpp</text>
</a>
</g>
</g>
<!-- Node6&#45;&gt;Node7 -->
<g id="edge6_Node000006_Node000007" class="edge">
<title>Node6&#45;&gt;Node7</title>
<g id="a_edge6_Node000006_Node000007"><a xlink:title=" ">
<path fill="none" stroke="#63b8ff" d="M282.12,-115.81C282.12,-107.85 282.12,-95.94 282.12,-85.74"/>
<polygon fill="#63b8ff" stroke="#63b8ff" points="285.63,-85.9 282.12,-75.9 278.63,-85.9 285.63,-85.9"/>
</a>
</g>
</g>
<!-- Node8 -->
<g id="Node000008" class="node">
<title>Node8</title>
<g id="a_Node000008"><a xlink:title=" ">
<polygon fill="#e0e0e0" stroke="#999999" points="266.12,-19.25 226.12,-19.25 226.12,0 266.12,0 266.12,-19.25"/>
<text text-anchor="middle" x="246.12" y="-5.75" font-family="Helvetica,sans-Serif" font-size="10.00">string</text>
</a>
</g>
</g>
<!-- Node6&#45;&gt;Node8 -->
<g id="edge8_Node000006_Node000008" class="edge">
<title>Node6&#45;&gt;Node8</title>
<g id="a_edge8_Node000006_Node000008"><a xlink:title=" ">
<path fill="none" stroke="#63b8ff" d="M257.03,-115.67C239.29,-107.77 216.84,-94.42 206.12,-74.5 197.06,-57.64 211.42,-39.19 225.39,-26.48"/>
<polygon fill="#63b8ff" stroke="#63b8ff" points="227.02,-28.84 232.39,-19.71 222.49,-23.49 227.02,-28.84"/>
</a>
</g>
</g>
<!-- Node6&#45;&gt;Node9 -->
<g id="edge9_Node000006_Node000009" class="edge">
<title>Node6&#45;&gt;Node9</title>
<g id="a_edge9_Node000006_Node000009"><a xlink:title=" ">
<path fill="none" stroke="#63b8ff" d="M301.54,-115.68C322.22,-106.01 355.2,-90.6 379.01,-79.48"/>
<polygon fill="#63b8ff" stroke="#63b8ff" points="380.32,-82.26 387.9,-74.86 377.36,-75.92 380.32,-82.26"/>
</a>
</g>
</g>
<!-- Node9&#45;&gt;Node8 -->
<g id="edge13_Node000009_Node000008" class="edge">
<title>Node9&#45;&gt;Node8</title>
<g id="a_edge13_Node000009_Node000008"><a xlink:title=" ">
<path fill="none" stroke="#63b8ff" d="M380.64,-54.84C351.86,-45.38 306.76,-30.56 276.83,-20.72"/>
<polygon fill="#63b8ff" stroke="#63b8ff" points="278.14,-17.13 267.54,-17.34 275.95,-23.78 278.14,-17.13"/>
</a>
</g>
</g>
<!-- Node9&#45;&gt;Node10 -->
<g id="edge10_Node000009_Node000010" class="edge">
<title>Node9&#45;&gt;Node10</title>
<g id="a_edge10_Node000009_Node000010"><a xlink:title=" ">
<path fill="none" stroke="#63b8ff" d="M413.41,-55.08C417.69,-47.96 423.87,-37.68 429.2,-28.8"/>
<polygon fill="#63b8ff" stroke="#63b8ff" points="432.58,-30.98 434.73,-20.61 426.58,-27.38 432.58,-30.98"/>
</a>
</g>
</g>
<!-- Node9&#45;&gt;Node11 -->
<g id="edge11_Node000009_Node000011" class="edge">
<title>Node9&#45;&gt;Node11</title>
<g id="a_edge11_Node000009_Node000011"><a xlink:title=" ">
<path fill="none" stroke="#63b8ff" d="M426.28,-54.84C442.95,-46.54 467.93,-34.11 487.16,-24.54"/>
<polygon fill="#63b8ff" stroke="#63b8ff" points="488.49,-27.29 495.88,-19.7 485.37,-21.02 488.49,-27.29"/>
</a>
</g>
</g>
<!-- Node12 -->
<g id="Node000012" class="node">
<title>Node12</title>
<g id="a_Node000012"><a xlink:title=" ">
<polygon fill="#e0e0e0" stroke="#999999" points="392,-19.25 342.25,-19.25 342.25,0 392,0 392,-19.25"/>
<text text-anchor="middle" x="367.12" y="-5.75" font-family="Helvetica,sans-Serif" font-size="10.00">optional</text>
</a>
</g>
</g>
<!-- Node9&#45;&gt;Node12 -->
<g id="edge12_Node000009_Node000012" class="edge">
<title>Node9&#45;&gt;Node12</title>
<g id="a_edge12_Node000009_Node000012"><a xlink:title=" ">
<path fill="none" stroke="#63b8ff" d="M401.35,-55.08C395.75,-47.8 387.61,-37.23 380.68,-28.23"/>
<polygon fill="#63b8ff" stroke="#63b8ff" points="382.92,-26.4 374.04,-20.61 377.37,-30.67 382.92,-26.4"/>
</a>
</g>
</g>
</g>
</svg>
