<?xml version="1.0" encoding="UTF-8" standalone="no"?>
<!DOCTYPE svg PUBLIC "-//W3C//DTD SVG 1.1//EN"
 "http://www.w3.org/Graphics/SVG/1.1/DTD/svg11.dtd">
<!-- Generated by graphviz version 8.1.0 (20230707.0739)
 -->
<!-- Title: StringUtils.h Pages: 1 -->
<svg width="289pt" height="83pt"
 viewBox="0.00 0.00 289.38 82.50" xmlns="http://www.w3.org/2000/svg" xmlns:xlink="http://www.w3.org/1999/xlink">

<svg id="main" version="1.1" xmlns="http://www.w3.org/2000/svg" xmlns:xlink="http://www.w3.org/1999/xlink" xml:space="preserve" onload="init(evt)">
<style type="text/css"><![CDATA[
.node, .edge {opacity: 0.7;}
.node.selected, .edge.selected {opacity: 1;}
.edge:hover path { stroke: red; }
.edge:hover polygon { stroke: red; fill: red; }
]]></style>
<script type="application/ecmascript" xlink:href="svg.min.js"/>
<svg id="graph" class="graph">
<g id="graph0" class="graph" transform="scale(1 1) rotate(0) translate(4 78.5)">
<title>StringUtils.h</title>
<!-- Node1 -->
<g id="Node000001" class="node">
<title>Node1</title>
<g id="a_Node000001"><a xlink:title="String util functions.">
<polygon fill="#999999" stroke="#666666" points="205,-74.5 135,-74.5 135,-55.25 205,-55.25 205,-74.5"/>
<text text-anchor="middle" x="170" y="-61" font-family="Helvetica,sans-Serif" font-size="10.00">StringUtils.h</text>
</a>
</g>
</g>
<!-- Node2 -->
<g id="Node000002" class="node">
<title>Node2</title>
<g id="a_Node000002"><a xlink:href="_g_n_s_s_transmitter_8cpp.html" target="_top" xlink:title="Handles GNSS transmit.">
<polygon fill="white" stroke="#666666" points="112,-19.25 0,-19.25 0,0 112,0 112,-19.25"/>
<text text-anchor="middle" x="56" y="-5.75" font-family="Helvetica,sans-Serif" font-size="10.00">GNSSTransmitter.cpp</text>
</a>
</g>
</g>
<!-- Node1&#45;&gt;Node2 -->
<g id="edge1_Node000001_Node000002" class="edge">
<title>Node1&#45;&gt;Node2</title>
<g id="a_edge1_Node000001_Node000002"><a xlink:title=" ">
<path fill="none" stroke="#63b8ff" d="M140.88,-50.27C120.34,-40.68 93.4,-28.09 75.43,-19.7"/>
<polygon fill="#63b8ff" stroke="#63b8ff" points="139.12,-53.78 149.66,-54.84 142.08,-47.44 139.12,-53.78"/>
</a>
</g>
</g>
<!-- Node3 -->
<g id="Node000003" class="node">
<title>Node3</title>
<g id="a_Node000003"><a xlink:href="_string_utils_8cpp.html" target="_top" xlink:title="Util functions for strings.">
<polygon fill="white" stroke="#666666" points="210.25,-19.25 129.75,-19.25 129.75,0 210.25,0 210.25,-19.25"/>
<text text-anchor="middle" x="170" y="-5.75" font-family="Helvetica,sans-Serif" font-size="10.00">StringUtils.cpp</text>
</a>
</g>
</g>
<!-- Node1&#45;&gt;Node3 -->
<g id="edge2_Node000001_Node000003" class="edge">
<title>Node1&#45;&gt;Node3</title>
<g id="a_edge2_Node000001_Node000003"><a xlink:title=" ">
<path fill="none" stroke="#63b8ff" d="M170,-44.21C170,-35.77 170,-26.33 170,-19.61"/>
<polygon fill="#63b8ff" stroke="#63b8ff" points="166.5,-44.08 170,-54.08 173.5,-44.08 166.5,-44.08"/>
</a>
</g>
</g>
<!-- Node4 -->
<g id="Node000004" class="node">
<title>Node4</title>
<g id="a_Node000004"><a xlink:href="_t_l_e_8cpp.html" target="_top" xlink:title="Routines to process TLE files.">
<polygon fill="white" stroke="#666666" points="281.38,-19.25 228.62,-19.25 228.62,0 281.38,0 281.38,-19.25"/>
<text text-anchor="middle" x="255" y="-5.75" font-family="Helvetica,sans-Serif" font-size="10.00">TLE.cpp</text>
</a>
</g>
</g>
<!-- Node1&#45;&gt;Node4 -->
<g id="edge3_Node000001_Node000004" class="edge">
<title>Node1&#45;&gt;Node4</title>
<g id="a_edge3_Node000001_Node000004"><a xlink:title=" ">
<path fill="none" stroke="#63b8ff" d="M193.63,-49.07C208.67,-39.65 227.67,-27.75 240.51,-19.7"/>
<polygon fill="#63b8ff" stroke="#63b8ff" points="192.04,-46.57 185.42,-54.84 195.75,-52.5 192.04,-46.57"/>
</a>
</g>
</g>
</g>
</svg>
</svg>

<style type='text/css'>
<![CDATA[
[data-mouse-over-selected='false'] { opacity: 0.7; }
[data-mouse-over-selected='true']  { opacity: 1.0; }
]]>
</style>
<script type="application/ecmascript"><![CDATA[
document.addEventListener('DOMContentLoaded', (event) => {
  highlightEdges();
  highlightAdjacentNodes();
});
]]></script>
</svg>
