<?xml version="1.0" encoding="UTF-8" standalone="no"?>
<!DOCTYPE svg PUBLIC "-//W3C//DTD SVG 1.1//EN"
 "http://www.w3.org/Graphics/SVG/1.1/DTD/svg11.dtd">
<!-- Generated by graphviz version 8.1.0 (20230707.0739)
 -->
<!-- Title: StringUtils.cpp Pages: 1 -->
<svg width="301pt" height="138pt"
 viewBox="0.00 0.00 300.62 137.75" xmlns="http://www.w3.org/2000/svg" xmlns:xlink="http://www.w3.org/1999/xlink">
<g id="graph0" class="graph" transform="scale(1 1) rotate(0) translate(4 133.75)">
<title>StringUtils.cpp</title>
<!-- Node1 -->
<g id="Node000001" class="node">
<title>Node1</title>
<g id="a_Node000001"><a xlink:title="Util functions for strings.">
<polygon fill="#999999" stroke="#666666" points="202.25,-129.75 121.75,-129.75 121.75,-110.5 202.25,-110.5 202.25,-129.75"/>
<text text-anchor="middle" x="162" y="-116.25" font-family="Helvetica,sans-Serif" font-size="10.00">StringUtils.cpp</text>
</a>
</g>
</g>
<!-- Node2 -->
<g id="Node000002" class="node">
<title>Node2</title>
<g id="a_Node000002"><a xlink:href="_string_utils_8h.html" target="_top" xlink:title="String util functions.">
<polygon fill="white" stroke="#666666" points="85,-74.5 15,-74.5 15,-55.25 85,-55.25 85,-74.5"/>
<text text-anchor="middle" x="50" y="-61" font-family="Helvetica,sans-Serif" font-size="10.00">StringUtils.h</text>
</a>
</g>
</g>
<!-- Node1&#45;&gt;Node2 -->
<g id="edge1_Node000001_Node000002" class="edge">
<title>Node1&#45;&gt;Node2</title>
<g id="a_edge1_Node000001_Node000002"><a xlink:title=" ">
<path fill="none" stroke="#63b8ff" d="M143,-110.09C125.46,-101.75 99.16,-89.25 79,-79.66"/>
<polygon fill="#63b8ff" stroke="#63b8ff" points="80.63,-76.09 70.09,-74.95 77.62,-82.41 80.63,-76.09"/>
</a>
</g>
</g>
<!-- Node5 -->
<g id="Node000005" class="node">
<title>Node5</title>
<g id="a_Node000005"><a xlink:title=" ">
<polygon fill="#e0e0e0" stroke="#999999" points="152.5,-74.5 103.5,-74.5 103.5,-55.25 152.5,-55.25 152.5,-74.5"/>
<text text-anchor="middle" x="128" y="-61" font-family="Helvetica,sans-Serif" font-size="10.00">fstream</text>
</a>
</g>
</g>
<!-- Node1&#45;&gt;Node5 -->
<g id="edge4_Node000001_Node000005" class="edge">
<title>Node1&#45;&gt;Node5</title>
<g id="a_edge4_Node000001_Node000005"><a xlink:title=" ">
<path fill="none" stroke="#63b8ff" d="M156.39,-110.33C151.84,-103.21 145.27,-92.93 139.6,-84.05"/>
<polygon fill="#63b8ff" stroke="#63b8ff" points="142.07,-82.4 133.74,-75.86 136.17,-86.17 142.07,-82.4"/>
</a>
</g>
</g>
<!-- Node6 -->
<g id="Node000006" class="node">
<title>Node6</title>
<g id="a_Node000006"><a xlink:title=" ">
<polygon fill="#e0e0e0" stroke="#999999" points="223.75,-74.5 170.25,-74.5 170.25,-55.25 223.75,-55.25 223.75,-74.5"/>
<text text-anchor="middle" x="197" y="-61" font-family="Helvetica,sans-Serif" font-size="10.00">iostream</text>
</a>
</g>
</g>
<!-- Node1&#45;&gt;Node6 -->
<g id="edge5_Node000001_Node000006" class="edge">
<title>Node1&#45;&gt;Node6</title>
<g id="a_edge5_Node000001_Node000006"><a xlink:title=" ">
<path fill="none" stroke="#63b8ff" d="M167.78,-110.33C172.46,-103.21 179.22,-92.93 185.06,-84.05"/>
<polygon fill="#63b8ff" stroke="#63b8ff" points="188.53,-86.14 191.09,-75.86 182.68,-82.29 188.53,-86.14"/>
</a>
</g>
</g>
<!-- Node7 -->
<g id="Node000007" class="node">
<title>Node7</title>
<g id="a_Node000007"><a xlink:title=" ">
<polygon fill="#e0e0e0" stroke="#999999" points="292.62,-74.5 241.38,-74.5 241.38,-55.25 292.62,-55.25 292.62,-74.5"/>
<text text-anchor="middle" x="267" y="-61" font-family="Helvetica,sans-Serif" font-size="10.00">sstream</text>
</a>
</g>
</g>
<!-- Node1&#45;&gt;Node7 -->
<g id="edge6_Node000001_Node000007" class="edge">
<title>Node1&#45;&gt;Node7</title>
<g id="a_edge6_Node000001_Node000007"><a xlink:title=" ">
<path fill="none" stroke="#63b8ff" d="M179.81,-110.09C196.1,-101.83 220.46,-89.48 239.29,-79.93"/>
<polygon fill="#63b8ff" stroke="#63b8ff" points="240.77,-82.6 248.1,-74.95 237.6,-76.35 240.77,-82.6"/>
</a>
</g>
</g>
<!-- Node3 -->
<g id="Node000003" class="node">
<title>Node3</title>
<g id="a_Node000003"><a xlink:title=" ">
<polygon fill="#e0e0e0" stroke="#999999" points="40,-19.25 0,-19.25 0,0 40,0 40,-19.25"/>
<text text-anchor="middle" x="20" y="-5.75" font-family="Helvetica,sans-Serif" font-size="10.00">string</text>
</a>
</g>
</g>
<!-- Node2&#45;&gt;Node3 -->
<g id="edge2_Node000002_Node000003" class="edge">
<title>Node2&#45;&gt;Node3</title>
<g id="a_edge2_Node000002_Node000003"><a xlink:title=" ">
<path fill="none" stroke="#63b8ff" d="M45.05,-55.08C41.07,-48.03 35.36,-37.9 30.4,-29.08"/>
<polygon fill="#63b8ff" stroke="#63b8ff" points="33.02,-27.6 25.06,-20.61 26.92,-31.04 33.02,-27.6"/>
</a>
</g>
</g>
<!-- Node4 -->
<g id="Node000004" class="node">
<title>Node4</title>
<g id="a_Node000004"><a xlink:title=" ">
<polygon fill="#e0e0e0" stroke="#999999" points="101.5,-19.25 58.5,-19.25 58.5,0 101.5,0 101.5,-19.25"/>
<text text-anchor="middle" x="80" y="-5.75" font-family="Helvetica,sans-Serif" font-size="10.00">vector</text>
</a>
</g>
</g>
<!-- Node2&#45;&gt;Node4 -->
<g id="edge3_Node000002_Node000004" class="edge">
<title>Node2&#45;&gt;Node4</title>
<g id="a_edge3_Node000002_Node000004"><a xlink:title=" ">
<path fill="none" stroke="#63b8ff" d="M54.95,-55.08C58.93,-48.03 64.64,-37.9 69.6,-29.08"/>
<polygon fill="#63b8ff" stroke="#63b8ff" points="73.08,-31.04 74.94,-20.61 66.98,-27.6 73.08,-31.04"/>
</a>
</g>
</g>
</g>
</svg>
