<?xml version="1.0" encoding="UTF-8" standalone="no"?>
<!DOCTYPE svg PUBLIC "-//W3C//DTD SVG 1.1//EN"
 "http://www.w3.org/Graphics/SVG/1.1/DTD/svg11.dtd">
<!-- Generated by graphviz version 8.1.0 (20230707.0739)
 -->
<!-- Title: Transmission.h Pages: 1 -->
<svg width="1359pt" height="248pt"
 viewBox="0.00 0.00 1358.85 248.25" xmlns="http://www.w3.org/2000/svg" xmlns:xlink="http://www.w3.org/1999/xlink">
<g id="graph0" class="graph" transform="scale(1 1) rotate(0) translate(4 244.25)">
<title>Transmission.h</title>
<!-- Node1 -->
<g id="Node000001" class="node">
<title>Node1</title>
<g id="a_Node000001"><a xlink:title="Signal transmission data.">
<polygon fill="#999999" stroke="#666666" points="1112.62,-240.25 1029.88,-240.25 1029.88,-221 1112.62,-221 1112.62,-240.25"/>
<text text-anchor="middle" x="1071.25" y="-226.75" font-family="Helvetica,sans-Serif" font-size="10.00">Transmission.h</text>
</a>
</g>
</g>
<!-- Node2 -->
<g id="Node000002" class="node">
<title>Node2</title>
<g id="a_Node000002"><a xlink:href="_comm_device_8h.html" target="_top" xlink:title="Communication devices.">
<polygon fill="white" stroke="#666666" points="854.38,-185 770.12,-185 770.12,-165.75 854.38,-165.75 854.38,-185"/>
<text text-anchor="middle" x="812.25" y="-171.5" font-family="Helvetica,sans-Serif" font-size="10.00">CommDevice.h</text>
</a>
</g>
</g>
<!-- Node1&#45;&gt;Node2 -->
<g id="edge1_Node000001_Node000002" class="edge">
<title>Node1&#45;&gt;Node2</title>
<g id="a_edge1_Node000001_Node000002"><a xlink:title=" ">
<path fill="none" stroke="#63b8ff" d="M1019.07,-218.9C970.69,-208.95 899.58,-194.33 854.62,-185.09"/>
<polygon fill="#63b8ff" stroke="#63b8ff" points="1018.14,-222.48 1028.64,-221.07 1019.55,-215.63 1018.14,-222.48"/>
</a>
</g>
</g>
<!-- Node5 -->
<g id="Node000005" class="node">
<title>Node5</title>
<g id="a_Node000005"><a xlink:href="_example_constellations_8cpp.html" target="_top" xlink:title="Setup GNSS Constellation.">
<polygon fill="white" stroke="#666666" points="1162.88,-19.25 1027.62,-19.25 1027.62,0 1162.88,0 1162.88,-19.25"/>
<text text-anchor="middle" x="1095.25" y="-5.75" font-family="Helvetica,sans-Serif" font-size="10.00">ExampleConstellations.cpp</text>
</a>
</g>
</g>
<!-- Node1&#45;&gt;Node5 -->
<g id="edge38_Node000001_Node000005" class="edge">
<title>Node1&#45;&gt;Node5</title>
<g id="a_edge38_Node000001_Node000005"><a xlink:title=" ">
<path fill="none" stroke="#63b8ff" d="M1123.6,-221.92C1178.32,-211.06 1262.7,-185.89 1310.25,-129.75 1326.55,-110.5 1320.34,-99.56 1323.25,-74.5 1324.24,-66 1328.69,-61.86 1323.25,-55.25 1313.01,-42.81 1226.77,-28.52 1163.36,-19.53"/>
<polygon fill="#63b8ff" stroke="#63b8ff" points="1123.25,-218.62 1114.08,-223.91 1124.55,-225.5 1123.25,-218.62"/>
</a>
</g>
</g>
<!-- Node6 -->
<g id="Node000006" class="node">
<title>Node6</title>
<g id="a_Node000006"><a xlink:href="_example_e_k_f_8cpp.html" target="_top" xlink:title="Example of Extended Kalman Filter for orbit determination.">
<polygon fill="white" stroke="#666666" points="1271.75,-19.25 1180.75,-19.25 1180.75,0 1271.75,0 1271.75,-19.25"/>
<text text-anchor="middle" x="1226.25" y="-5.75" font-family="Helvetica,sans-Serif" font-size="10.00">ExampleEKF.cpp</text>
</a>
</g>
</g>
<!-- Node1&#45;&gt;Node6 -->
<g id="edge39_Node000001_Node000006" class="edge">
<title>Node1&#45;&gt;Node6</title>
<g id="a_edge39_Node000001_Node000006"><a xlink:title=" ">
<path fill="none" stroke="#63b8ff" d="M1123.92,-227.31C1186.47,-221.3 1287.57,-200.51 1329.25,-129.75 1346.27,-100.85 1360.2,-82.92 1341.25,-55.25 1325.76,-32.63 1297.01,-21.47 1272.14,-15.97"/>
<polygon fill="#63b8ff" stroke="#63b8ff" points="1123.76,-223.89 1114.09,-228.24 1124.36,-230.87 1123.76,-223.89"/>
</a>
</g>
</g>
<!-- Node18 -->
<g id="Node000018" class="node">
<title>Node18</title>
<g id="a_Node000018"><a xlink:href="_g_n_s_s_receiver_8h.html" target="_top" xlink:title="GNSS receiver class.">
<polygon fill="white" stroke="#666666" points="1074.75,-129.75 983.75,-129.75 983.75,-110.5 1074.75,-110.5 1074.75,-129.75"/>
<text text-anchor="middle" x="1029.25" y="-116.25" font-family="Helvetica,sans-Serif" font-size="10.00">GNSSReceiver.h</text>
</a>
</g>
</g>
<!-- Node1&#45;&gt;Node18 -->
<g id="edge50_Node000001_Node000018" class="edge">
<title>Node1&#45;&gt;Node18</title>
<g id="a_edge50_Node000001_Node000018"><a xlink:title=" ">
<path fill="none" stroke="#63b8ff" d="M1060.67,-211.02C1056.46,-203.15 1051.78,-193.78 1048.25,-185 1040.56,-165.89 1034.38,-142.48 1031.33,-129.98"/>
<polygon fill="#63b8ff" stroke="#63b8ff" points="1058.08,-212.57 1065.98,-219.63 1064.21,-209.18 1058.08,-212.57"/>
</a>
</g>
</g>
<!-- Node20 -->
<g id="Node000020" class="node">
<title>Node20</title>
<g id="a_Node000020"><a xlink:href="_g_n_s_s_transmitter_8h.html" target="_top" xlink:title="Handles GNSS transmit.">
<polygon fill="white" stroke="#666666" points="863,-129.75 761.5,-129.75 761.5,-110.5 863,-110.5 863,-129.75"/>
<text text-anchor="middle" x="812.25" y="-116.25" font-family="Helvetica,sans-Serif" font-size="10.00">GNSSTransmitter.h</text>
</a>
</g>
</g>
<!-- Node1&#45;&gt;Node20 -->
<g id="edge51_Node000001_Node000020" class="edge">
<title>Node1&#45;&gt;Node20</title>
<g id="a_edge51_Node000001_Node000020"><a xlink:title=" ">
<path fill="none" stroke="#63b8ff" d="M1039.69,-216.41C986.38,-194.07 879.82,-149.43 834.01,-130.24"/>
<polygon fill="#63b8ff" stroke="#63b8ff" points="1038.04,-219.93 1048.61,-220.56 1040.74,-213.47 1038.04,-219.93"/>
</a>
</g>
</g>
<!-- Node21 -->
<g id="Node000021" class="node">
<title>Node21</title>
<g id="a_Node000021"><a xlink:href="_g_n_s_s_measurement_8h.html" target="_top" xlink:title="Class that constructs GPS measurement data from channel observables.">
<polygon fill="white" stroke="#666666" points="1169.25,-185 1057.25,-185 1057.25,-165.75 1169.25,-165.75 1169.25,-185"/>
<text text-anchor="middle" x="1113.25" y="-171.5" font-family="Helvetica,sans-Serif" font-size="10.00">GNSSMeasurement.h</text>
</a>
</g>
</g>
<!-- Node1&#45;&gt;Node21 -->
<g id="edge40_Node000001_Node000021" class="edge">
<title>Node1&#45;&gt;Node21</title>
<g id="a_edge40_Node000001_Node000021"><a xlink:title=" ">
<path fill="none" stroke="#63b8ff" d="M1084.95,-212.26C1092.03,-203.28 1100.38,-192.7 1106.16,-185.36"/>
<polygon fill="#63b8ff" stroke="#63b8ff" points="1081.63,-209.81 1078.19,-219.83 1087.13,-214.15 1081.63,-209.81"/>
</a>
</g>
</g>
<!-- Node3 -->
<g id="Node000003" class="node">
<title>Node3</title>
<g id="a_Node000003"><a xlink:href="_agent_8h.html" target="_top" xlink:title="List of agents.">
<polygon fill="white" stroke="#666666" points="567.12,-129.75 517.38,-129.75 517.38,-110.5 567.12,-110.5 567.12,-129.75"/>
<text text-anchor="middle" x="542.25" y="-116.25" font-family="Helvetica,sans-Serif" font-size="10.00">Agent.h</text>
</a>
</g>
</g>
<!-- Node2&#45;&gt;Node3 -->
<g id="edge2_Node000002_Node000003" class="edge">
<title>Node2&#45;&gt;Node3</title>
<g id="a_edge2_Node000002_Node000003"><a xlink:title=" ">
<path fill="none" stroke="#63b8ff" d="M758.99,-163.87C701.08,-152.45 610.99,-134.68 567.47,-126.1"/>
<polygon fill="#63b8ff" stroke="#63b8ff" points="758.28,-167.49 768.77,-166 759.63,-160.63 758.28,-167.49"/>
</a>
</g>
</g>
<!-- Node12 -->
<g id="Node000012" class="node">
<title>Node12</title>
<g id="a_Node000012"><a xlink:href="_g_n_s_s_state_estimation_app_8h.html" target="_top" xlink:title="State Estimation Application Using GNSS Measurement.">
<polygon fill="white" stroke="#666666" points="256.12,-74.5 116.38,-74.5 116.38,-55.25 256.12,-55.25 256.12,-74.5"/>
<text text-anchor="middle" x="186.25" y="-61" font-family="Helvetica,sans-Serif" font-size="10.00">GNSSStateEstimationApp.h</text>
</a>
</g>
</g>
<!-- Node2&#45;&gt;Node12 -->
<g id="edge31_Node000002_Node000012" class="edge">
<title>Node2&#45;&gt;Node12</title>
<g id="a_edge31_Node000002_Node000012"><a xlink:title=" ">
<path fill="none" stroke="#63b8ff" d="M759.28,-170.66C684.71,-164.88 544.77,-152.01 427.25,-129.75 349.42,-115.01 259.71,-88.7 214.88,-74.9"/>
<polygon fill="#63b8ff" stroke="#63b8ff" points="758.55,-174.19 768.79,-171.46 759.09,-167.21 758.55,-174.19"/>
</a>
</g>
</g>
<!-- Node15 -->
<g id="Node000015" class="node">
<title>Node15</title>
<g id="a_Node000015"><a xlink:href="_space_channel_8cpp.html" target="_top" xlink:title="Base spacechannel class (Under devlopment )">
<polygon fill="white" stroke="#666666" points="98.5,-74.5 0,-74.5 0,-55.25 98.5,-55.25 98.5,-74.5"/>
<text text-anchor="middle" x="49.25" y="-61" font-family="Helvetica,sans-Serif" font-size="10.00">SpaceChannel.cpp</text>
</a>
</g>
</g>
<!-- Node2&#45;&gt;Node15 -->
<g id="edge36_Node000002_Node000015" class="edge">
<title>Node2&#45;&gt;Node15</title>
<g id="a_edge36_Node000002_Node000015"><a xlink:title=" ">
<path fill="none" stroke="#63b8ff" d="M758.95,-171.4C671.53,-166.06 492.38,-153.15 342.25,-129.75 248.11,-115.07 138.84,-88.74 84.17,-74.91"/>
<polygon fill="#63b8ff" stroke="#63b8ff" points="758.72,-174.96 768.91,-172.06 759.14,-167.97 758.72,-174.96"/>
</a>
</g>
</g>
<!-- Node16 -->
<g id="Node000016" class="node">
<title>Node16</title>
<g id="a_Node000016"><a xlink:href="_state_estimation_app_8h.html" target="_top" xlink:title="Base class for State Estimation Application.">
<polygon fill="white" stroke="#666666" points="990.88,-74.5 879.62,-74.5 879.62,-55.25 990.88,-55.25 990.88,-74.5"/>
<text text-anchor="middle" x="935.25" y="-61" font-family="Helvetica,sans-Serif" font-size="10.00">StateEstimationApp.h</text>
</a>
</g>
</g>
<!-- Node2&#45;&gt;Node16 -->
<g id="edge37_Node000002_Node000016" class="edge">
<title>Node2&#45;&gt;Node16</title>
<g id="a_edge37_Node000002_Node000016"><a xlink:title=" ">
<path fill="none" stroke="#63b8ff" d="M834.22,-159.26C845.86,-150.96 860.19,-140.24 872.25,-129.75 893.17,-111.55 915.46,-87.78 927.09,-74.98"/>
<polygon fill="#63b8ff" stroke="#63b8ff" points="832.73,-156.73 826.57,-165.35 836.76,-162.46 832.73,-156.73"/>
</a>
</g>
</g>
<!-- Node2&#45;&gt;Node18 -->
<g id="edge22_Node000002_Node000018" class="edge">
<title>Node2&#45;&gt;Node18</title>
<g id="a_edge22_Node000002_Node000018"><a xlink:title=" ">
<path fill="none" stroke="#63b8ff" d="M859.58,-162.76C899.44,-152.98 955.64,-139.19 992.26,-130.2"/>
<polygon fill="#63b8ff" stroke="#63b8ff" points="858.94,-159.56 850.06,-165.34 860.61,-166.36 858.94,-159.56"/>
</a>
</g>
</g>
<!-- Node2&#45;&gt;Node20 -->
<g id="edge32_Node000002_Node000020" class="edge">
<title>Node2&#45;&gt;Node20</title>
<g id="a_edge32_Node000002_Node000020"><a xlink:title=" ">
<path fill="none" stroke="#63b8ff" d="M812.25,-154.71C812.25,-146.27 812.25,-136.83 812.25,-130.11"/>
<polygon fill="#63b8ff" stroke="#63b8ff" points="808.75,-154.58 812.25,-164.58 815.75,-154.58 808.75,-154.58"/>
</a>
</g>
</g>
<!-- Node4 -->
<g id="Node000004" class="node">
<title>Node4</title>
<g id="a_Node000004"><a xlink:href="_agent_8cpp.html" target="_top" xlink:title="Base class fo.">
<polygon fill="white" stroke="#666666" points="372.38,-74.5 312.12,-74.5 312.12,-55.25 372.38,-55.25 372.38,-74.5"/>
<text text-anchor="middle" x="342.25" y="-61" font-family="Helvetica,sans-Serif" font-size="10.00">Agent.cpp</text>
</a>
</g>
</g>
<!-- Node3&#45;&gt;Node4 -->
<g id="edge3_Node000003_Node000004" class="edge">
<title>Node3&#45;&gt;Node4</title>
<g id="a_edge3_Node000003_Node000004"><a xlink:title=" ">
<path fill="none" stroke="#63b8ff" d="M506.78,-109.68C468.64,-99.53 408.63,-83.55 372.6,-73.95"/>
<polygon fill="#63b8ff" stroke="#63b8ff" points="505.36,-113.19 515.92,-112.38 507.16,-106.43 505.36,-113.19"/>
</a>
</g>
</g>
<!-- Node3&#45;&gt;Node5 -->
<g id="edge4_Node000003_Node000005" class="edge">
<title>Node3&#45;&gt;Node5</title>
<g id="a_edge4_Node000003_Node000005"><a xlink:title=" ">
<path fill="none" stroke="#63b8ff" d="M550.81,-100.42C558.75,-85.43 572.08,-65.3 590.25,-55.25 673.78,-9.06 923.26,-28.56 1018.25,-19.25 1021.2,-18.96 1024.2,-18.66 1027.24,-18.35"/>
<polygon fill="#63b8ff" stroke="#63b8ff" points="547.27,-98.69 545.99,-109.21 553.55,-101.79 547.27,-98.69"/>
</a>
</g>
</g>
<!-- Node3&#45;&gt;Node6 -->
<g id="edge5_Node000003_Node000006" class="edge">
<title>Node3&#45;&gt;Node6</title>
<g id="a_edge5_Node000003_Node000006"><a xlink:title=" ">
<path fill="none" stroke="#63b8ff" d="M560.23,-102.85C579.57,-85.74 609.4,-60.57 623.25,-55.25 737.39,-11.42 1050.75,-32.91 1172.25,-19.25 1174.89,-18.95 1177.6,-18.62 1180.33,-18.26"/>
<polygon fill="#63b8ff" stroke="#63b8ff" points="558.3,-99.78 553.18,-109.05 562.97,-105 558.3,-99.78"/>
</a>
</g>
</g>
<!-- Node7 -->
<g id="Node000007" class="node">
<title>Node7</title>
<g id="a_Node000007"><a xlink:href="_example_e_k_f_app_8cpp.html" target="_top" xlink:title="Example of EKF application.">
<polygon fill="white" stroke="#666666" points="397.12,-19.25 287.38,-19.25 287.38,0 397.12,0 397.12,-19.25"/>
<text text-anchor="middle" x="342.25" y="-5.75" font-family="Helvetica,sans-Serif" font-size="10.00">ExampleEKFApp.cpp</text>
</a>
</g>
</g>
<!-- Node3&#45;&gt;Node7 -->
<g id="edge6_Node000003_Node000007" class="edge">
<title>Node3&#45;&gt;Node7</title>
<g id="a_edge6_Node000003_Node000007"><a xlink:title=" ">
<path fill="none" stroke="#63b8ff" d="M506.37,-114.96C442.87,-107.22 316.13,-90.01 303.25,-74.5 288.39,-56.61 313.38,-32.51 329.75,-19.63"/>
<polygon fill="#63b8ff" stroke="#63b8ff" points="505.74,-118.53 516.09,-116.25 506.58,-111.58 505.74,-118.53"/>
</a>
</g>
</g>
<!-- Node8 -->
<g id="Node000008" class="node">
<title>Node8</title>
<g id="a_Node000008"><a xlink:href="_example_propagation_8cpp.html" target="_top" xlink:title="Example propagating both GPS constellation and Lunar Satellite.">
<polygon fill="white" stroke="#666666" points="1009.62,-19.25 884.88,-19.25 884.88,0 1009.62,0 1009.62,-19.25"/>
<text text-anchor="middle" x="947.25" y="-5.75" font-family="Helvetica,sans-Serif" font-size="10.00">ExamplePropagation.cpp</text>
</a>
</g>
</g>
<!-- Node3&#45;&gt;Node8 -->
<g id="edge7_Node000003_Node000008" class="edge">
<title>Node3&#45;&gt;Node8</title>
<g id="a_edge7_Node000003_Node000008"><a xlink:title=" ">
<path fill="none" stroke="#63b8ff" d="M506.37,-113.62C460.5,-105.17 390.28,-86.59 419.25,-55.25 453.82,-17.85 825.57,-24.32 876.25,-19.25 878.97,-18.98 881.74,-18.69 884.55,-18.39"/>
<polygon fill="#63b8ff" stroke="#63b8ff" points="505.7,-117.23 516.15,-115.51 506.9,-110.33 505.7,-117.23"/>
</a>
</g>
</g>
<!-- Node9 -->
<g id="Node000009" class="node">
<title>Node9</title>
<g id="a_Node000009"><a xlink:href="_g_n_s_s_channel_8cpp.html" target="_top" xlink:title="GNSS Channel.">
<polygon fill="white" stroke="#666666" points="861.88,-74.5 762.62,-74.5 762.62,-55.25 861.88,-55.25 861.88,-74.5"/>
<text text-anchor="middle" x="812.25" y="-61" font-family="Helvetica,sans-Serif" font-size="10.00">GNSSChannel.cpp</text>
</a>
</g>
</g>
<!-- Node3&#45;&gt;Node9 -->
<g id="edge8_Node000003_Node000009" class="edge">
<title>Node3&#45;&gt;Node9</title>
<g id="a_edge8_Node000003_Node000009"><a xlink:title=" ">
<path fill="none" stroke="#63b8ff" d="M577.76,-112.12C626.21,-102.57 713.09,-85.43 766.41,-74.92"/>
<polygon fill="#63b8ff" stroke="#63b8ff" points="577.3,-108.84 568.17,-114.21 578.66,-115.71 577.3,-108.84"/>
</a>
</g>
</g>
<!-- Node10 -->
<g id="Node000010" class="node">
<title>Node10</title>
<g id="a_Node000010"><a xlink:href="_g_n_s_s_constellation_8h.html" target="_top" xlink:title=" ">
<polygon fill="white" stroke="#666666" points="538.12,-74.5 428.38,-74.5 428.38,-55.25 538.12,-55.25 538.12,-74.5"/>
<text text-anchor="middle" x="483.25" y="-61" font-family="Helvetica,sans-Serif" font-size="10.00">GNSSConstellation.h</text>
</a>
</g>
</g>
<!-- Node3&#45;&gt;Node10 -->
<g id="edge9_Node000003_Node000010" class="edge">
<title>Node3&#45;&gt;Node10</title>
<g id="a_edge9_Node000003_Node000010"><a xlink:title=" ">
<path fill="none" stroke="#63b8ff" d="M524.29,-102.91C514.04,-93.67 501.59,-82.43 493.11,-74.77"/>
<polygon fill="#63b8ff" stroke="#63b8ff" points="521.47,-104.99 531.24,-109.09 526.16,-99.79 521.47,-104.99"/>
</a>
</g>
</g>
<!-- Node3&#45;&gt;Node12 -->
<g id="edge15_Node000003_Node000012" class="edge">
<title>Node3&#45;&gt;Node12</title>
<g id="a_edge15_Node000003_Node000012"><a xlink:title=" ">
<path fill="none" stroke="#63b8ff" d="M506.35,-113.75C445.58,-104.67 321.81,-86.15 247.24,-75"/>
<polygon fill="#63b8ff" stroke="#63b8ff" points="505.52,-117.32 515.93,-115.34 506.56,-110.4 505.52,-117.32"/>
</a>
</g>
</g>
<!-- Node14 -->
<g id="Node000014" class="node">
<title>Node14</title>
<g id="a_Node000014"><a xlink:href="_g_n_s_s_transmitter_8cpp.html" target="_top" xlink:title="Handles GNSS transmit.">
<polygon fill="white" stroke="#666666" points="744.25,-74.5 632.25,-74.5 632.25,-55.25 744.25,-55.25 744.25,-74.5"/>
<text text-anchor="middle" x="688.25" y="-61" font-family="Helvetica,sans-Serif" font-size="10.00">GNSSTransmitter.cpp</text>
</a>
</g>
</g>
<!-- Node3&#45;&gt;Node14 -->
<g id="edge18_Node000003_Node000014" class="edge">
<title>Node3&#45;&gt;Node14</title>
<g id="a_edge18_Node000003_Node000014"><a xlink:title=" ">
<path fill="none" stroke="#63b8ff" d="M577.05,-106.43C603.63,-96.74 639.62,-83.61 663.36,-74.95"/>
<polygon fill="#63b8ff" stroke="#63b8ff" points="576.21,-103.38 568.02,-110.09 578.61,-109.95 576.21,-103.38"/>
</a>
</g>
</g>
<!-- Node3&#45;&gt;Node15 -->
<g id="edge19_Node000003_Node000015" class="edge">
<title>Node3&#45;&gt;Node15</title>
<g id="a_edge19_Node000003_Node000015"><a xlink:title=" ">
<path fill="none" stroke="#63b8ff" d="M506.57,-116.02C432.2,-109.42 255.2,-93.08 107.25,-74.5 104.52,-74.16 101.73,-73.79 98.9,-73.41"/>
<polygon fill="#63b8ff" stroke="#63b8ff" points="505.93,-119.56 516.2,-116.96 506.54,-112.59 505.93,-119.56"/>
</a>
</g>
</g>
<!-- Node3&#45;&gt;Node16 -->
<g id="edge20_Node000003_Node000016" class="edge">
<title>Node3&#45;&gt;Node16</title>
<g id="a_edge20_Node000003_Node000016"><a xlink:title=" ">
<path fill="none" stroke="#63b8ff" d="M578.11,-114.27C646.73,-104.97 797.08,-84.6 879.13,-73.48"/>
<polygon fill="#63b8ff" stroke="#63b8ff" points="577.87,-110.9 568.43,-115.71 578.81,-117.84 577.87,-110.9"/>
</a>
</g>
</g>
<!-- Node10&#45;&gt;Node5 -->
<g id="edge10_Node000010_Node000005" class="edge">
<title>Node10&#45;&gt;Node5</title>
<g id="a_edge10_Node000010_Node000005"><a xlink:title=" ">
<path fill="none" stroke="#63b8ff" d="M549.31,-55.55C550.3,-55.45 551.28,-55.35 552.25,-55.25 758.93,-34.36 811.45,-38.81 1018.25,-19.25 1021.2,-18.97 1024.2,-18.68 1027.24,-18.37"/>
<polygon fill="#63b8ff" stroke="#63b8ff" points="549.15,-52.16 539.59,-56.72 549.91,-59.12 549.15,-52.16"/>
</a>
</g>
</g>
<!-- Node10&#45;&gt;Node6 -->
<g id="edge11_Node000010_Node000006" class="edge">
<title>Node10&#45;&gt;Node6</title>
<g id="a_edge11_Node000010_Node000006"><a xlink:title=" ">
<path fill="none" stroke="#63b8ff" d="M549.21,-58.36C562.78,-57.28 576.98,-56.2 590.25,-55.25 848.76,-36.84 914.66,-47.72 1172.25,-19.25 1174.89,-18.96 1177.6,-18.63 1180.33,-18.27"/>
<polygon fill="#63b8ff" stroke="#63b8ff" points="549.18,-54.94 539.49,-59.22 549.74,-61.91 549.18,-54.94"/>
</a>
</g>
</g>
<!-- Node10&#45;&gt;Node7 -->
<g id="edge12_Node000010_Node000007" class="edge">
<title>Node10&#45;&gt;Node7</title>
<g id="a_edge12_Node000010_Node000007"><a xlink:title=" ">
<path fill="none" stroke="#63b8ff" d="M449.3,-51.05C423.66,-41.37 389.11,-28.32 366.29,-19.7"/>
<polygon fill="#63b8ff" stroke="#63b8ff" points="447.74,-54.58 458.33,-54.84 450.21,-48.03 447.74,-54.58"/>
</a>
</g>
</g>
<!-- Node10&#45;&gt;Node8 -->
<g id="edge13_Node000010_Node000008" class="edge">
<title>Node10&#45;&gt;Node8</title>
<g id="a_edge13_Node000010_Node000008"><a xlink:title=" ">
<path fill="none" stroke="#63b8ff" d="M549.32,-55.6C550.3,-55.48 551.28,-55.36 552.25,-55.25 696.14,-38.26 732.33,-35.99 876.25,-19.25 878.96,-18.93 881.73,-18.61 884.53,-18.28"/>
<polygon fill="#63b8ff" stroke="#63b8ff" points="549.11,-52.22 539.6,-56.89 549.95,-59.17 549.11,-52.22"/>
</a>
</g>
</g>
<!-- Node11 -->
<g id="Node000011" class="node">
<title>Node11</title>
<g id="a_Node000011"><a xlink:href="_g_n_s_s_constellation_8cpp.html" target="_top" xlink:title="GNSS Constellation.">
<polygon fill="white" stroke="#666666" points="543.38,-19.25 423.12,-19.25 423.12,0 543.38,0 543.38,-19.25"/>
<text text-anchor="middle" x="483.25" y="-5.75" font-family="Helvetica,sans-Serif" font-size="10.00">GNSSConstellation.cpp</text>
</a>
</g>
</g>
<!-- Node10&#45;&gt;Node11 -->
<g id="edge14_Node000010_Node000011" class="edge">
<title>Node10&#45;&gt;Node11</title>
<g id="a_edge14_Node000010_Node000011"><a xlink:title=" ">
<path fill="none" stroke="#63b8ff" d="M483.25,-44.21C483.25,-35.77 483.25,-26.33 483.25,-19.61"/>
<polygon fill="#63b8ff" stroke="#63b8ff" points="479.75,-44.08 483.25,-54.08 486.75,-44.08 479.75,-44.08"/>
</a>
</g>
</g>
<!-- Node12&#45;&gt;Node7 -->
<g id="edge16_Node000012_Node000007" class="edge">
<title>Node12&#45;&gt;Node7</title>
<g id="a_edge16_Node000012_Node000007"><a xlink:title=" ">
<path fill="none" stroke="#63b8ff" d="M223.06,-51.31C251.5,-41.6 290.18,-28.4 315.66,-19.7"/>
<polygon fill="#63b8ff" stroke="#63b8ff" points="222.05,-48.3 213.71,-54.84 224.31,-54.92 222.05,-48.3"/>
</a>
</g>
</g>
<!-- Node13 -->
<g id="Node000013" class="node">
<title>Node13</title>
<g id="a_Node000013"><a xlink:href="_g_n_s_s_state_estimation_app_8cpp.html" target="_top" xlink:title="State Estimation Application Using GNSS Measurement.">
<polygon fill="white" stroke="#666666" points="261.38,-19.25 111.12,-19.25 111.12,0 261.38,0 261.38,-19.25"/>
<text text-anchor="middle" x="186.25" y="-5.75" font-family="Helvetica,sans-Serif" font-size="10.00">GNSSStateEstimationApp.cpp</text>
</a>
</g>
</g>
<!-- Node12&#45;&gt;Node13 -->
<g id="edge17_Node000012_Node000013" class="edge">
<title>Node12&#45;&gt;Node13</title>
<g id="a_edge17_Node000012_Node000013"><a xlink:title=" ">
<path fill="none" stroke="#63b8ff" d="M186.25,-44.21C186.25,-35.77 186.25,-26.33 186.25,-19.61"/>
<polygon fill="#63b8ff" stroke="#63b8ff" points="182.75,-44.08 186.25,-54.08 189.75,-44.08 182.75,-44.08"/>
</a>
</g>
</g>
<!-- Node17 -->
<g id="Node000017" class="node">
<title>Node17</title>
<g id="a_Node000017"><a xlink:href="_state_estimation_app_8cpp.html" target="_top" xlink:title="Base class for State Estimation Application.">
<polygon fill="white" stroke="#666666" points="867.12,-19.25 745.38,-19.25 745.38,0 867.12,0 867.12,-19.25"/>
<text text-anchor="middle" x="806.25" y="-5.75" font-family="Helvetica,sans-Serif" font-size="10.00">StateEstimationApp.cpp</text>
</a>
</g>
</g>
<!-- Node16&#45;&gt;Node17 -->
<g id="edge21_Node000016_Node000017" class="edge">
<title>Node16&#45;&gt;Node17</title>
<g id="a_edge21_Node000016_Node000017"><a xlink:title=" ">
<path fill="none" stroke="#63b8ff" d="M903.24,-50.66C879.89,-41.02 848.85,-28.21 828.24,-19.7"/>
<polygon fill="#63b8ff" stroke="#63b8ff" points="901.79,-54.26 912.37,-54.84 904.46,-47.79 901.79,-54.26"/>
</a>
</g>
</g>
<!-- Node18&#45;&gt;Node5 -->
<g id="edge23_Node000018_Node000005" class="edge">
<title>Node18&#45;&gt;Node5</title>
<g id="a_edge23_Node000018_Node000005"><a xlink:title=" ">
<path fill="none" stroke="#63b8ff" d="M1047.7,-102.73C1055.76,-94.82 1064.82,-84.82 1071.25,-74.5 1082.53,-56.4 1089.81,-32.18 1093.14,-19.39"/>
<polygon fill="#63b8ff" stroke="#63b8ff" points="1045.7,-99.74 1040.81,-109.14 1050.5,-104.84 1045.7,-99.74"/>
</a>
</g>
</g>
<!-- Node18&#45;&gt;Node6 -->
<g id="edge24_Node000018_Node000006" class="edge">
<title>Node18&#45;&gt;Node6</title>
<g id="a_edge24_Node000018_Node000006"><a xlink:title=" ">
<path fill="none" stroke="#63b8ff" d="M1055.31,-104.77C1096.49,-82.09 1175.44,-38.61 1209.7,-19.74"/>
<polygon fill="#63b8ff" stroke="#63b8ff" points="1053.78,-102.17 1046.71,-110.06 1057.16,-108.3 1053.78,-102.17"/>
</a>
</g>
</g>
<!-- Node18&#45;&gt;Node7 -->
<g id="edge25_Node000018_Node000007" class="edge">
<title>Node18&#45;&gt;Node7</title>
<g id="a_edge25_Node000018_Node000007"><a xlink:title=" ">
<path fill="none" stroke="#63b8ff" d="M1025.96,-99.7C1022.35,-84.89 1014.97,-65.39 1000.25,-55.25 946.52,-18.26 479.22,-25.13 414.25,-19.25 408.73,-18.75 402.99,-18.17 397.25,-17.55"/>
<polygon fill="#63b8ff" stroke="#63b8ff" points="1022.69,-100.19 1028.12,-109.29 1029.55,-98.79 1022.69,-100.19"/>
</a>
</g>
</g>
<!-- Node18&#45;&gt;Node8 -->
<g id="edge26_Node000018_Node000008" class="edge">
<title>Node18&#45;&gt;Node8</title>
<g id="a_edge26_Node000018_Node000008"><a xlink:title=" ">
<path fill="none" stroke="#63b8ff" d="M1036,-99.63C1039.4,-86.2 1041.28,-68.47 1033.25,-55.25 1022.33,-37.28 1001.57,-26.22 983.18,-19.61"/>
<polygon fill="#63b8ff" stroke="#63b8ff" points="1032.38,-98.51 1032.84,-109.1 1039.08,-100.53 1032.38,-98.51"/>
</a>
</g>
</g>
<!-- Node18&#45;&gt;Node9 -->
<g id="edge27_Node000018_Node000009" class="edge">
<title>Node18&#45;&gt;Node9</title>
<g id="a_edge27_Node000018_Node000009"><a xlink:title=" ">
<path fill="none" stroke="#63b8ff" d="M981.92,-107.51C942.06,-97.73 885.86,-83.94 849.24,-74.95"/>
<polygon fill="#63b8ff" stroke="#63b8ff" points="980.89,-111.11 991.44,-110.09 982.56,-104.31 980.89,-111.11"/>
</a>
</g>
</g>
<!-- Node18&#45;&gt;Node12 -->
<g id="edge29_Node000018_Node000012" class="edge">
<title>Node18&#45;&gt;Node12</title>
<g id="a_edge29_Node000018_Node000012"><a xlink:title=" ">
<path fill="none" stroke="#63b8ff" d="M972.43,-115.87C850.06,-108.8 552.49,-91.35 303.25,-74.5 288.11,-73.48 271.87,-72.32 256.46,-71.19"/>
<polygon fill="#63b8ff" stroke="#63b8ff" points="972.18,-119.42 982.37,-116.5 972.59,-112.43 972.18,-119.42"/>
</a>
</g>
</g>
<!-- Node18&#45;&gt;Node16 -->
<g id="edge30_Node000018_Node000016" class="edge">
<title>Node18&#45;&gt;Node16</title>
<g id="a_edge30_Node000018_Node000016"><a xlink:title=" ">
<path fill="none" stroke="#63b8ff" d="M1004.07,-104.86C987.29,-95.36 965.75,-83.15 951.27,-74.95"/>
<polygon fill="#63b8ff" stroke="#63b8ff" points="1001.88,-108.21 1012.3,-110.09 1005.33,-102.12 1001.88,-108.21"/>
</a>
</g>
</g>
<!-- Node19 -->
<g id="Node000019" class="node">
<title>Node19</title>
<g id="a_Node000019"><a xlink:href="_g_n_s_s_receiver_8cpp.html" target="_top" xlink:title="GNSS Receiver class.">
<polygon fill="white" stroke="#666666" points="1263,-74.5 1161.5,-74.5 1161.5,-55.25 1263,-55.25 1263,-74.5"/>
<text text-anchor="middle" x="1212.25" y="-61" font-family="Helvetica,sans-Serif" font-size="10.00">GNSSReceiver.cpp</text>
</a>
</g>
</g>
<!-- Node18&#45;&gt;Node19 -->
<g id="edge28_Node000018_Node000019" class="edge">
<title>Node18&#45;&gt;Node19</title>
<g id="a_edge28_Node000018_Node000019"><a xlink:title=" ">
<path fill="none" stroke="#63b8ff" d="M1070.68,-107.07C1104.19,-97.32 1150.64,-83.8 1181.05,-74.95"/>
<polygon fill="#63b8ff" stroke="#63b8ff" points="1069.92,-103.94 1061.29,-110.09 1071.87,-110.66 1069.92,-103.94"/>
</a>
</g>
</g>
<!-- Node20&#45;&gt;Node9 -->
<g id="edge33_Node000020_Node000009" class="edge">
<title>Node20&#45;&gt;Node9</title>
<g id="a_edge33_Node000020_Node000009"><a xlink:title=" ">
<path fill="none" stroke="#63b8ff" d="M812.25,-99.46C812.25,-91.02 812.25,-81.58 812.25,-74.86"/>
<polygon fill="#63b8ff" stroke="#63b8ff" points="808.75,-99.33 812.25,-109.33 815.75,-99.33 808.75,-99.33"/>
</a>
</g>
</g>
<!-- Node20&#45;&gt;Node10 -->
<g id="edge34_Node000020_Node000010" class="edge">
<title>Node20&#45;&gt;Node10</title>
<g id="a_edge34_Node000020_Node000010"><a xlink:title=" ">
<path fill="none" stroke="#63b8ff" d="M750.58,-109.14C689.61,-99.28 597.18,-84.32 538.54,-74.82"/>
<polygon fill="#63b8ff" stroke="#63b8ff" points="749.77,-112.72 760.2,-110.86 750.89,-105.81 749.77,-112.72"/>
</a>
</g>
</g>
<!-- Node20&#45;&gt;Node14 -->
<g id="edge35_Node000020_Node000014" class="edge">
<title>Node20&#45;&gt;Node14</title>
<g id="a_edge35_Node000020_Node000014"><a xlink:title=" ">
<path fill="none" stroke="#63b8ff" d="M781.18,-105.78C758.77,-96.16 729.11,-83.42 709.39,-74.95"/>
<polygon fill="#63b8ff" stroke="#63b8ff" points="779.65,-109.36 790.22,-110.09 782.41,-102.93 779.65,-109.36"/>
</a>
</g>
</g>
<!-- Node21&#45;&gt;Node5 -->
<g id="edge41_Node000021_Node000005" class="edge">
<title>Node21&#45;&gt;Node5</title>
<g id="a_edge41_Node000021_Node000005"><a xlink:title=" ">
<path fill="none" stroke="#63b8ff" d="M1180.23,-172.67C1216.45,-168.32 1259.53,-157.11 1288.25,-129.75 1312.84,-106.33 1326.62,-81.64 1305.25,-55.25 1295.82,-43.61 1215.43,-28.99 1156.92,-19.73"/>
<polygon fill="#63b8ff" stroke="#63b8ff" points="1180.3,-169.25 1170.72,-173.77 1181.03,-176.21 1180.3,-169.25"/>
</a>
</g>
</g>
<!-- Node21&#45;&gt;Node6 -->
<g id="edge42_Node000021_Node000006" class="edge">
<title>Node21&#45;&gt;Node6</title>
<g id="a_edge42_Node000021_Node000006"><a xlink:title=" ">
<path fill="none" stroke="#63b8ff" d="M1180.3,-166.83C1229.93,-159.88 1291.98,-147.87 1310.25,-129.75 1334.12,-106.08 1341.38,-83.55 1323.25,-55.25 1311.6,-37.07 1290.46,-26.19 1270.89,-19.74"/>
<polygon fill="#63b8ff" stroke="#63b8ff" points="1180.03,-163.47 1170.59,-168.28 1180.97,-170.4 1180.03,-163.47"/>
</a>
</g>
</g>
<!-- Node21&#45;&gt;Node8 -->
<g id="edge43_Node000021_Node000008" class="edge">
<title>Node21&#45;&gt;Node8</title>
<g id="a_edge43_Node000021_Node000008"><a xlink:title=" ">
<path fill="none" stroke="#63b8ff" d="M1114.1,-154.96C1115.75,-140.76 1120.27,-122.04 1132.25,-110.5 1180.43,-64.09 1316.22,-105.66 1272.25,-55.25 1270.1,-52.79 1103.6,-30.87 1009.79,-18.69"/>
<polygon fill="#63b8ff" stroke="#63b8ff" points="1110.56,-154.32 1113.28,-164.56 1117.54,-154.86 1110.56,-154.32"/>
</a>
</g>
</g>
<!-- Node21&#45;&gt;Node12 -->
<g id="edge47_Node000021_Node000012" class="edge">
<title>Node21&#45;&gt;Node12</title>
<g id="a_edge47_Node000021_Node000012"><a xlink:title=" ">
<path fill="none" stroke="#63b8ff" d="M1046.36,-172.11C934.52,-167.73 702.68,-156.1 508.25,-129.75 454.6,-122.48 303.21,-90.82 228.72,-74.97"/>
<polygon fill="#63b8ff" stroke="#63b8ff" points="1046,-175.64 1056.13,-172.53 1046.27,-168.65 1046,-175.64"/>
</a>
</g>
</g>
<!-- Node21&#45;&gt;Node16 -->
<g id="edge49_Node000021_Node000016" class="edge">
<title>Node21&#45;&gt;Node16</title>
<g id="a_edge49_Node000021_Node000016"><a xlink:title=" ">
<path fill="none" stroke="#63b8ff" d="M1046.37,-162.74C1022.16,-156.08 995.75,-145.73 975.25,-129.75 956.26,-114.95 943.9,-88.43 938.46,-74.68"/>
<polygon fill="#63b8ff" stroke="#63b8ff" points="1045.39,-166.36 1055.95,-165.46 1047.14,-159.58 1045.39,-166.36"/>
</a>
</g>
</g>
<!-- Node21&#45;&gt;Node18 -->
<g id="edge46_Node000021_Node000018" class="edge">
<title>Node21&#45;&gt;Node18</title>
<g id="a_edge46_Node000021_Node000018"><a xlink:title=" ">
<path fill="none" stroke="#63b8ff" d="M1089.9,-159.57C1075.04,-150.15 1056.26,-138.25 1043.57,-130.2"/>
<polygon fill="#63b8ff" stroke="#63b8ff" points="1087.68,-162.94 1098,-165.34 1091.43,-157.03 1087.68,-162.94"/>
</a>
</g>
</g>
<!-- Node21&#45;&gt;Node19 -->
<g id="edge45_Node000021_Node000019" class="edge">
<title>Node21&#45;&gt;Node19</title>
<g id="a_edge45_Node000021_Node000019"><a xlink:title=" ">
<path fill="none" stroke="#63b8ff" d="M1180.12,-163.89C1218.27,-156.4 1260.73,-144.94 1272.25,-129.75 1288.24,-108.65 1254.78,-86.73 1231.7,-74.84"/>
<polygon fill="#63b8ff" stroke="#63b8ff" points="1179.68,-160.6 1170.51,-165.9 1180.98,-167.48 1179.68,-160.6"/>
</a>
</g>
</g>
<!-- Node21&#45;&gt;Node20 -->
<g id="edge48_Node000021_Node000020" class="edge">
<title>Node21&#45;&gt;Node20</title>
<g id="a_edge48_Node000021_Node000020"><a xlink:title=" ">
<path fill="none" stroke="#63b8ff" d="M1051.1,-163.38C995.61,-153.56 915.31,-139.36 863.44,-130.18"/>
<polygon fill="#63b8ff" stroke="#63b8ff" points="1050.39,-166.99 1060.85,-165.28 1051.61,-160.09 1050.39,-166.99"/>
</a>
</g>
</g>
<!-- Node22 -->
<g id="Node000022" class="node">
<title>Node22</title>
<g id="a_Node000022"><a xlink:href="_g_n_s_s_measurement_8cpp.html" target="_top" xlink:title="Class that constructs GPS measurement data from channel observables.">
<polygon fill="white" stroke="#666666" points="1263.5,-129.75 1141,-129.75 1141,-110.5 1263.5,-110.5 1263.5,-129.75"/>
<text text-anchor="middle" x="1202.25" y="-116.25" font-family="Helvetica,sans-Serif" font-size="10.00">GNSSMeasurement.cpp</text>
</a>
</g>
</g>
<!-- Node21&#45;&gt;Node22 -->
<g id="edge44_Node000021_Node000022" class="edge">
<title>Node21&#45;&gt;Node22</title>
<g id="a_edge44_Node000021_Node000022"><a xlink:title=" ">
<path fill="none" stroke="#63b8ff" d="M1137.54,-159.84C1153.36,-150.38 1173.5,-138.33 1187.08,-130.2"/>
<polygon fill="#63b8ff" stroke="#63b8ff" points="1136.13,-157.2 1129.35,-165.34 1139.73,-163.21 1136.13,-157.2"/>
</a>
</g>
</g>
</g>
</svg>
