<?xml version="1.0" encoding="UTF-8" standalone="no"?>
<!DOCTYPE svg PUBLIC "-//W3C//DTD SVG 1.1//EN"
 "http://www.w3.org/Graphics/SVG/1.1/DTD/svg11.dtd">
<!-- Generated by graphviz version 2.43.0 (0)
 -->
<!-- Title: Antenna.cpp Pages: 1 -->
<!--zoomable 263 -->
<svg id="main" version="1.1" xmlns="http://www.w3.org/2000/svg" xmlns:xlink="http://www.w3.org/1999/xlink" xml:space="preserve" onload="init(evt)">
<style type="text/css"><![CDATA[
.edge:hover path { stroke: red; }
.edge:hover polygon { stroke: red; fill: red; }
]]></style>
<script type="text/javascript"><![CDATA[
var edges = document.getElementsByTagName('g');
if (edges && edges.length) {
  for (var i=0;i<edges.length;i++) {
    if (edges[i].id.substr(0,4)=='edge') {
      edges[i].setAttribute('class','edge');
    }
  }
}
]]></script>
        <defs>
                <circle id="rim" cx="0" cy="0" r="7"/>
                <circle id="rim2" cx="0" cy="0" r="3.5"/>
                <g id="zoomPlus">
                        <use xlink:href="#rim" fill="#404040">
                                <set attributeName="fill" to="#808080" begin="zoomplus.mouseover" end="zoomplus.mouseout"/>
                        </use>
                        <path d="M-4,0h8M0,-4v8" fill="none" stroke="white" stroke-width="1.5" pointer-events="none"/>
                </g>
                <g id="zoomMin">
                        <use xlink:href="#rim" fill="#404040">
                                <set attributeName="fill" to="#808080" begin="zoomminus.mouseover" end="zoomminus.mouseout"/>
                        </use>
                        <path d="M-4,0h8" fill="none" stroke="white" stroke-width="1.5" pointer-events="none"/>
                </g>
                <g id="dirArrow">
                        <path fill="none" stroke="white" stroke-width="1.5" d="M0,-3.0v7 M-2.5,-0.5L0,-3.0L2.5,-0.5"/>
                </g>
               <g id="resetDef">
                       <use xlink:href="#rim2" fill="#404040">
                               <set attributeName="fill" to="#808080" begin="reset.mouseover" end="reset.mouseout"/>
                       </use>
               </g>
        </defs>

<script type="text/javascript">
var viewWidth = 1224;
var viewHeight = 263;
var sectionId = 'dynsection-0';
</script>
<script xlink:href="svgpan.js"/>
<svg id="graph" class="graph">
<g id="viewport">
<title>Antenna.cpp</title>
<polygon fill="white" stroke="transparent" points="-4,4 -4,-259 1220,-259 1220,4 -4,4"/>
<!-- Node1 -->
<g id="node1" class="node">
<title>Node1</title>
<g id="a_node1"><a xlink:title="Antenna class.">
<polygon fill="#bfbfbf" stroke="black" points="926.5,-235.5 926.5,-254.5 1003.5,-254.5 1003.5,-235.5 926.5,-235.5"/>
<text text-anchor="middle" x="965" y="-242.5" font-family="Helvetica,sans-Serif" font-size="10.00">Antenna.cpp</text>
</a>
</g>
</g>
<!-- Node2 -->
<g id="node2" class="node">
<title>Node2</title>
<g id="a_node2"><a xlink:href="Antenna_8h.html" target="_top" xlink:title="Antenna class.">
<polygon fill="white" stroke="black" points="365,-179.5 365,-198.5 431,-198.5 431,-179.5 365,-179.5"/>
<text text-anchor="middle" x="398" y="-186.5" font-family="Helvetica,sans-Serif" font-size="10.00">Antenna.h</text>
</a>
</g>
</g>
<!-- Node1&#45;&gt;Node2 -->
<g id="edge1" class="edge">
<title>Node1&#45;&gt;Node2</title>
<path fill="none" stroke="midnightblue" d="M926.48,-240.33C824.56,-230.62 548.38,-204.32 441.27,-194.12"/>
<polygon fill="midnightblue" stroke="midnightblue" points="441.43,-190.62 431.15,-193.16 440.77,-197.59 441.43,-190.62"/>
</g>
<!-- Node9 -->
<g id="node9" class="node">
<title>Node9</title>
<g id="a_node9"><a xlink:title=" ">
<polygon fill="white" stroke="#bfbfbf" points="1022,-0.5 1022,-19.5 1090,-19.5 1090,-0.5 1022,-0.5"/>
<text text-anchor="middle" x="1056" y="-7.5" font-family="Helvetica,sans-Serif" font-size="10.00">filesystem</text>
</a>
</g>
</g>
<!-- Node1&#45;&gt;Node9 -->
<g id="edge14" class="edge">
<title>Node1&#45;&gt;Node9</title>
<path fill="none" stroke="midnightblue" d="M1003.72,-243.65C1037.36,-241.04 1084.29,-231.32 1108,-199 1147.35,-145.36 1095.69,-63.34 1069.52,-28.08"/>
<polygon fill="midnightblue" stroke="midnightblue" points="1072.05,-25.63 1063.2,-19.8 1066.49,-29.87 1072.05,-25.63"/>
</g>
<!-- Node10 -->
<g id="node10" class="node">
<title>Node10</title>
<g id="a_node10"><a xlink:title=" ">
<polygon fill="white" stroke="#bfbfbf" points="754,-0.5 754,-19.5 814,-19.5 814,-0.5 754,-0.5"/>
<text text-anchor="middle" x="784" y="-7.5" font-family="Helvetica,sans-Serif" font-size="10.00">iostream</text>
</a>
</g>
</g>
<!-- Node1&#45;&gt;Node10 -->
<g id="edge15" class="edge">
<title>Node1&#45;&gt;Node10</title>
<path fill="none" stroke="midnightblue" d="M977.12,-235.33C1003.7,-215.23 1062.68,-164.05 1036,-123 988.87,-50.48 882.77,-24.54 824.39,-15.55"/>
<polygon fill="midnightblue" stroke="midnightblue" points="824.82,-12.07 814.42,-14.11 823.81,-19 824.82,-12.07"/>
</g>
<!-- Node12 -->
<g id="node12" class="node">
<title>Node12</title>
<g id="a_node12"><a xlink:title=" ">
<polygon fill="white" stroke="#bfbfbf" points="1160,-179.5 1160,-198.5 1216,-198.5 1216,-179.5 1160,-179.5"/>
<text text-anchor="middle" x="1188" y="-186.5" font-family="Helvetica,sans-Serif" font-size="10.00">sstream</text>
</a>
</g>
</g>
<!-- Node1&#45;&gt;Node12 -->
<g id="edge16" class="edge">
<title>Node1&#45;&gt;Node12</title>
<path fill="none" stroke="midnightblue" d="M1000.34,-235.44C1041.18,-225.55 1108.15,-209.34 1150.06,-199.19"/>
<polygon fill="midnightblue" stroke="midnightblue" points="1151,-202.56 1159.89,-196.81 1149.35,-195.76 1151,-202.56"/>
</g>
<!-- Node13 -->
<g id="node13" class="node">
<title>Node13</title>
<g id="a_node13"><a xlink:href="File_8h.html" target="_top" xlink:title="File access utils.">
<polygon fill="white" stroke="black" points="772,-179.5 772,-198.5 848,-198.5 848,-179.5 772,-179.5"/>
<text text-anchor="middle" x="810" y="-186.5" font-family="Helvetica,sans-Serif" font-size="10.00">../core/File.h</text>
</a>
</g>
</g>
<!-- Node1&#45;&gt;Node13 -->
<g id="edge17" class="edge">
<title>Node1&#45;&gt;Node13</title>
<path fill="none" stroke="midnightblue" d="M940.44,-235.44C914.48,-226.4 873.33,-212.06 844.2,-201.92"/>
<polygon fill="midnightblue" stroke="midnightblue" points="845.04,-198.5 834.45,-198.52 842.74,-205.11 845.04,-198.5"/>
</g>
<!-- Node14 -->
<g id="node14" class="node">
<title>Node14</title>
<g id="a_node14"><a xlink:href="MathUtils_8h.html" target="_top" xlink:title=" ">
<polygon fill="white" stroke="black" points="437.5,-123.5 437.5,-142.5 586.5,-142.5 586.5,-123.5 437.5,-123.5"/>
<text text-anchor="middle" x="512" y="-130.5" font-family="Helvetica,sans-Serif" font-size="10.00">lupnt/numerics/MathUtils.h</text>
</a>
</g>
</g>
<!-- Node1&#45;&gt;Node14 -->
<g id="edge30" class="edge">
<title>Node1&#45;&gt;Node14</title>
<path fill="none" stroke="midnightblue" d="M926.19,-235.77C885.45,-227.03 819.59,-212.63 763,-199 688.9,-181.16 603.01,-158.48 553.35,-145.17"/>
<polygon fill="midnightblue" stroke="midnightblue" points="554.18,-141.77 543.61,-142.56 552.36,-148.53 554.18,-141.77"/>
</g>
<!-- Node3 -->
<g id="node3" class="node">
<title>Node3</title>
<g id="a_node3"><a xlink:title=" ">
<polygon fill="white" stroke="#bfbfbf" points="329.5,-62 329.5,-81 466.5,-81 466.5,-62 329.5,-62"/>
<text text-anchor="middle" x="398" y="-69" font-family="Helvetica,sans-Serif" font-size="10.00">autodiff/forward/real.hpp</text>
</a>
</g>
</g>
<!-- Node2&#45;&gt;Node3 -->
<g id="edge2" class="edge">
<title>Node2&#45;&gt;Node3</title>
<path fill="none" stroke="midnightblue" d="M398,-179.32C398,-160.76 398,-116.84 398,-91.47"/>
<polygon fill="midnightblue" stroke="midnightblue" points="401.5,-91.28 398,-81.28 394.5,-91.28 401.5,-91.28"/>
</g>
<!-- Node4 -->
<g id="node4" class="node">
<title>Node4</title>
<g id="a_node4"><a xlink:title=" ">
<polygon fill="white" stroke="#bfbfbf" points="557,-56.5 557,-86.5 673,-86.5 673,-56.5 557,-56.5"/>
<text text-anchor="start" x="565" y="-74.5" font-family="Helvetica,sans-Serif" font-size="10.00">autodiff/forward/real</text>
<text text-anchor="middle" x="615" y="-63.5" font-family="Helvetica,sans-Serif" font-size="10.00">/eigen.hpp</text>
</a>
</g>
</g>
<!-- Node2&#45;&gt;Node4 -->
<g id="edge3" class="edge">
<title>Node2&#45;&gt;Node4</title>
<path fill="none" stroke="midnightblue" d="M431.24,-184.5C481.06,-178.6 571.72,-165.1 595,-143 607.48,-131.16 612.35,-112.16 614.18,-96.87"/>
<polygon fill="midnightblue" stroke="midnightblue" points="617.69,-96.8 615.03,-86.55 610.72,-96.22 617.69,-96.8"/>
</g>
<!-- Node5 -->
<g id="node5" class="node">
<title>Node5</title>
<g id="a_node5"><a xlink:title=" ">
<polygon fill="white" stroke="#bfbfbf" points="177,-0.5 177,-19.5 221,-19.5 221,-0.5 177,-0.5"/>
<text text-anchor="middle" x="199" y="-7.5" font-family="Helvetica,sans-Serif" font-size="10.00">string</text>
</a>
</g>
</g>
<!-- Node2&#45;&gt;Node5 -->
<g id="edge4" class="edge">
<title>Node2&#45;&gt;Node5</title>
<path fill="none" stroke="midnightblue" d="M364.74,-184.63C278.46,-175.11 51.17,-144.9 8,-87 -34.03,-30.63 101.78,-16.01 166.58,-12.27"/>
<polygon fill="midnightblue" stroke="midnightblue" points="166.89,-15.75 176.7,-11.74 166.53,-8.76 166.89,-15.75"/>
</g>
<!-- Node6 -->
<g id="node6" class="node">
<title>Node6</title>
<g id="a_node6"><a xlink:href="Constants_8h.html" target="_top" xlink:title="List of constants.">
<polygon fill="white" stroke="black" points="205,-123.5 205,-142.5 331,-142.5 331,-123.5 205,-123.5"/>
<text text-anchor="middle" x="268" y="-130.5" font-family="Helvetica,sans-Serif" font-size="10.00">lupnt/core/Constants.h</text>
</a>
</g>
</g>
<!-- Node2&#45;&gt;Node6 -->
<g id="edge5" class="edge">
<title>Node2&#45;&gt;Node6</title>
<path fill="none" stroke="midnightblue" d="M377.4,-179.44C356.01,-170.56 322.32,-156.56 297.98,-146.45"/>
<polygon fill="midnightblue" stroke="midnightblue" points="299.08,-143.12 288.5,-142.52 296.4,-149.58 299.08,-143.12"/>
</g>
<!-- Node6&#45;&gt;Node3 -->
<g id="edge7" class="edge">
<title>Node6&#45;&gt;Node3</title>
<path fill="none" stroke="midnightblue" d="M286.63,-123.48C308.44,-113.49 344.81,-96.85 370.02,-85.31"/>
<polygon fill="midnightblue" stroke="midnightblue" points="371.77,-88.35 379.41,-81.01 368.86,-81.99 371.77,-88.35"/>
</g>
<!-- Node6&#45;&gt;Node5 -->
<g id="edge8" class="edge">
<title>Node6&#45;&gt;Node5</title>
<path fill="none" stroke="midnightblue" d="M253.84,-123.47C241.9,-115.52 225.31,-102.58 216,-87 205.51,-69.44 201.48,-46.1 199.94,-29.93"/>
<polygon fill="midnightblue" stroke="midnightblue" points="203.41,-29.34 199.2,-19.62 196.43,-29.84 203.41,-29.34"/>
</g>
<!-- Node7 -->
<g id="node7" class="node">
<title>Node7</title>
<g id="a_node7"><a xlink:title=" ">
<polygon fill="white" stroke="#bfbfbf" points="17.5,-62 17.5,-81 168.5,-81 168.5,-62 17.5,-62"/>
<text text-anchor="middle" x="93" y="-69" font-family="Helvetica,sans-Serif" font-size="10.00">autodiff/common/eigen.hpp</text>
</a>
</g>
</g>
<!-- Node6&#45;&gt;Node7 -->
<g id="edge6" class="edge">
<title>Node6&#45;&gt;Node7</title>
<path fill="none" stroke="midnightblue" d="M242.93,-123.48C212.65,-113.18 161.56,-95.81 127.56,-84.25"/>
<polygon fill="midnightblue" stroke="midnightblue" points="128.62,-80.91 118.03,-81.01 126.37,-87.54 128.62,-80.91"/>
</g>
<!-- Node8 -->
<g id="node8" class="node">
<title>Node8</title>
<g id="a_node8"><a xlink:href="UserFilePath_8h.html" target="_top" xlink:title="File access utils.">
<polygon fill="white" stroke="black" points="225,-62 225,-81 311,-81 311,-62 225,-62"/>
<text text-anchor="middle" x="268" y="-69" font-family="Helvetica,sans-Serif" font-size="10.00">UserFilePath.h</text>
</a>
</g>
</g>
<!-- Node6&#45;&gt;Node8 -->
<g id="edge9" class="edge">
<title>Node6&#45;&gt;Node8</title>
<path fill="none" stroke="midnightblue" d="M268,-123.48C268,-115.08 268,-101.98 268,-91.16"/>
<polygon fill="midnightblue" stroke="midnightblue" points="271.5,-91.01 268,-81.01 264.5,-91.01 271.5,-91.01"/>
</g>
<!-- Node8&#45;&gt;Node5 -->
<g id="edge13" class="edge">
<title>Node8&#45;&gt;Node5</title>
<path fill="none" stroke="midnightblue" d="M258.12,-61.98C247.36,-52.7 229.93,-37.67 216.78,-26.33"/>
<polygon fill="midnightblue" stroke="midnightblue" points="218.73,-23.39 208.87,-19.51 214.16,-28.69 218.73,-23.39"/>
</g>
<!-- Node8&#45;&gt;Node9 -->
<g id="edge10" class="edge">
<title>Node8&#45;&gt;Node9</title>
<path fill="none" stroke="midnightblue" d="M294.48,-61.96C302.59,-59.65 311.59,-57.41 320,-56 388.04,-44.57 863.4,-20.48 1011.83,-13.16"/>
<polygon fill="midnightblue" stroke="midnightblue" points="1012.13,-16.65 1021.94,-12.66 1011.78,-9.65 1012.13,-16.65"/>
</g>
<!-- Node8&#45;&gt;Node10 -->
<g id="edge11" class="edge">
<title>Node8&#45;&gt;Node10</title>
<path fill="none" stroke="midnightblue" d="M295.05,-61.99C303.02,-59.75 311.8,-57.53 320,-56 474.96,-27.11 662.69,-16.13 743.65,-12.53"/>
<polygon fill="midnightblue" stroke="midnightblue" points="744.05,-16.02 753.89,-12.09 743.75,-9.03 744.05,-16.02"/>
</g>
<!-- Node11 -->
<g id="node11" class="node">
<title>Node11</title>
<g id="a_node11"><a xlink:title=" ">
<polygon fill="white" stroke="#bfbfbf" points="240,-0.5 240,-19.5 296,-19.5 296,-0.5 240,-0.5"/>
<text text-anchor="middle" x="268" y="-7.5" font-family="Helvetica,sans-Serif" font-size="10.00">optional</text>
</a>
</g>
</g>
<!-- Node8&#45;&gt;Node11 -->
<g id="edge12" class="edge">
<title>Node8&#45;&gt;Node11</title>
<path fill="none" stroke="midnightblue" d="M268,-61.98C268,-53.58 268,-40.48 268,-29.66"/>
<polygon fill="midnightblue" stroke="midnightblue" points="271.5,-29.51 268,-19.51 264.5,-29.51 271.5,-29.51"/>
</g>
<!-- Node13&#45;&gt;Node4 -->
<g id="edge23" class="edge">
<title>Node13&#45;&gt;Node4</title>
<path fill="none" stroke="midnightblue" d="M771.76,-180.86C743.54,-174.3 705.15,-162.55 676,-143 657.24,-130.42 640.8,-110.59 629.73,-95.17"/>
<polygon fill="midnightblue" stroke="midnightblue" points="632.42,-92.91 623.85,-86.68 626.67,-96.89 632.42,-92.91"/>
</g>
<!-- Node13&#45;&gt;Node5 -->
<g id="edge28" class="edge">
<title>Node13&#45;&gt;Node5</title>
<path fill="none" stroke="midnightblue" d="M772.24,-179.43C750.96,-172.8 725.45,-161.51 709,-143 682.12,-112.73 713.62,-81.29 682,-56 605.79,4.97 345.83,-35.18 231.22,-19.44"/>
<polygon fill="midnightblue" stroke="midnightblue" points="231.68,-15.97 221.25,-17.85 230.58,-22.88 231.68,-15.97"/>
</g>
<!-- Node13&#45;&gt;Node9 -->
<g id="edge24" class="edge">
<title>Node13&#45;&gt;Node9</title>
<path fill="none" stroke="midnightblue" d="M848.01,-185.6C905.53,-181.16 1010.65,-169.55 1036,-143 1065.26,-112.35 1062.93,-58.16 1059.21,-29.68"/>
<polygon fill="midnightblue" stroke="midnightblue" points="1062.62,-28.87 1057.67,-19.5 1055.7,-29.92 1062.62,-28.87"/>
</g>
<!-- Node13&#45;&gt;Node10 -->
<g id="edge26" class="edge">
<title>Node13&#45;&gt;Node10</title>
<path fill="none" stroke="midnightblue" d="M808.63,-179.38C807.2,-170.32 804.9,-155.67 803,-143 796.97,-102.69 790.25,-55.4 786.64,-29.79"/>
<polygon fill="midnightblue" stroke="midnightblue" points="790.07,-29.07 785.21,-19.65 783.14,-30.04 790.07,-29.07"/>
</g>
<!-- Node13&#45;&gt;Node14 -->
<g id="edge18" class="edge">
<title>Node13&#45;&gt;Node14</title>
<path fill="none" stroke="midnightblue" d="M771.96,-181.11C720.64,-171.81 628.8,-155.16 569.15,-144.36"/>
<polygon fill="midnightblue" stroke="midnightblue" points="569.6,-140.88 559.14,-142.54 568.36,-147.77 569.6,-140.88"/>
</g>
<!-- Node16 -->
<g id="node16" class="node">
<title>Node16</title>
<g id="a_node16"><a xlink:title=" ">
<polygon fill="white" stroke="#bfbfbf" points="877.5,-123.5 877.5,-142.5 954.5,-142.5 954.5,-123.5 877.5,-123.5"/>
<text text-anchor="middle" x="916" y="-130.5" font-family="Helvetica,sans-Serif" font-size="10.00">Eigen/Dense</text>
</a>
</g>
</g>
<!-- Node13&#45;&gt;Node16 -->
<g id="edge22" class="edge">
<title>Node13&#45;&gt;Node16</title>
<path fill="none" stroke="midnightblue" d="M827.03,-179.32C844.03,-170.66 870.38,-157.24 889.99,-147.25"/>
<polygon fill="midnightblue" stroke="midnightblue" points="891.69,-150.31 899.01,-142.65 888.51,-144.08 891.69,-150.31"/>
</g>
<!-- Node17 -->
<g id="node17" class="node">
<title>Node17</title>
<g id="a_node17"><a xlink:title=" ">
<polygon fill="white" stroke="#bfbfbf" points="972.5,-123.5 972.5,-142.5 1027.5,-142.5 1027.5,-123.5 972.5,-123.5"/>
<text text-anchor="middle" x="1000" y="-130.5" font-family="Helvetica,sans-Serif" font-size="10.00">fstream</text>
</a>
</g>
</g>
<!-- Node13&#45;&gt;Node17 -->
<g id="edge25" class="edge">
<title>Node13&#45;&gt;Node17</title>
<path fill="none" stroke="midnightblue" d="M840.11,-179.44C873.16,-170.05 926.27,-154.95 962.12,-144.77"/>
<polygon fill="midnightblue" stroke="midnightblue" points="963.54,-148 972.2,-141.9 961.62,-141.27 963.54,-148"/>
</g>
<!-- Node18 -->
<g id="node18" class="node">
<title>Node18</title>
<g id="a_node18"><a xlink:title=" ">
<polygon fill="white" stroke="#bfbfbf" points="718,-123.5 718,-142.5 756,-142.5 756,-123.5 718,-123.5"/>
<text text-anchor="middle" x="737" y="-130.5" font-family="Helvetica,sans-Serif" font-size="10.00">map</text>
</a>
</g>
</g>
<!-- Node13&#45;&gt;Node18 -->
<g id="edge27" class="edge">
<title>Node13&#45;&gt;Node18</title>
<path fill="none" stroke="midnightblue" d="M798.27,-179.32C787.16,-171.11 770.26,-158.6 757.02,-148.81"/>
<polygon fill="midnightblue" stroke="midnightblue" points="759.07,-145.97 748.94,-142.83 754.9,-151.59 759.07,-145.97"/>
</g>
<!-- Node19 -->
<g id="node19" class="node">
<title>Node19</title>
<g id="a_node19"><a xlink:title=" ">
<polygon fill="white" stroke="#bfbfbf" points="812.5,-123.5 812.5,-142.5 859.5,-142.5 859.5,-123.5 812.5,-123.5"/>
<text text-anchor="middle" x="836" y="-130.5" font-family="Helvetica,sans-Serif" font-size="10.00">vector</text>
</a>
</g>
</g>
<!-- Node13&#45;&gt;Node19 -->
<g id="edge29" class="edge">
<title>Node13&#45;&gt;Node19</title>
<path fill="none" stroke="midnightblue" d="M814.3,-179.08C817.85,-171.69 823.02,-160.95 827.43,-151.81"/>
<polygon fill="midnightblue" stroke="midnightblue" points="830.6,-153.28 831.79,-142.75 824.3,-150.24 830.6,-153.28"/>
</g>
<!-- Node14&#45;&gt;Node3 -->
<g id="edge19" class="edge">
<title>Node14&#45;&gt;Node3</title>
<path fill="none" stroke="midnightblue" d="M495.67,-123.48C476.79,-113.62 445.5,-97.29 423.43,-85.77"/>
<polygon fill="midnightblue" stroke="midnightblue" points="424.79,-82.53 414.31,-81.01 421.55,-88.74 424.79,-82.53"/>
</g>
<!-- Node14&#45;&gt;Node4 -->
<g id="edge20" class="edge">
<title>Node14&#45;&gt;Node4</title>
<path fill="none" stroke="midnightblue" d="M526.76,-123.48C541.1,-115.19 563.37,-102.32 581.95,-91.59"/>
<polygon fill="midnightblue" stroke="midnightblue" points="583.82,-94.56 590.73,-86.52 580.32,-88.49 583.82,-94.56"/>
</g>
<!-- Node15 -->
<g id="node15" class="node">
<title>Node15</title>
<g id="a_node15"><a xlink:title=" ">
<polygon fill="white" stroke="#bfbfbf" points="485,-62 485,-81 539,-81 539,-62 485,-62"/>
<text text-anchor="middle" x="512" y="-69" font-family="Helvetica,sans-Serif" font-size="10.00">random</text>
</a>
</g>
</g>
<!-- Node14&#45;&gt;Node15 -->
<g id="edge21" class="edge">
<title>Node14&#45;&gt;Node15</title>
<path fill="none" stroke="midnightblue" d="M512,-123.48C512,-115.08 512,-101.98 512,-91.16"/>
<polygon fill="midnightblue" stroke="midnightblue" points="515.5,-91.01 512,-81.01 508.5,-91.01 515.5,-91.01"/>
</g>
</g>
</svg>
        <g id="navigator" transform="translate(0 0)" fill="#404254">
                <rect fill="#f2f5e9" fill-opacity="0.5" stroke="#606060" stroke-width=".5" x="0" y="0" width="60" height="60"/>
                <use id="zoomplus" xlink:href="#zoomPlus" x="17" y="9" onmousedown="handleZoom(evt,'in')"/>
                <use id="zoomminus" xlink:href="#zoomMin" x="42" y="9" onmousedown="handleZoom(evt,'out')"/>
                <use id="reset" xlink:href="#resetDef" x="30" y="36" onmousedown="handleReset()"/>
                <g id="arrowUp" xlink:href="#dirArrow" transform="translate(30 24)" onmousedown="handlePan(0,-1)">
                  <use xlink:href="#rim" fill="#404040">
                        <set attributeName="fill" to="#808080" begin="arrowUp.mouseover" end="arrowUp.mouseout"/>
                  </use>
                  <path fill="none" stroke="white" stroke-width="1.5" d="M0,-3.0v7 M-2.5,-0.5L0,-3.0L2.5,-0.5"/>
                </g>
                <g id="arrowRight" xlink:href="#dirArrow" transform="rotate(90) translate(36 -43)" onmousedown="handlePan(1,0)">
                  <use xlink:href="#rim" fill="#404040">
                        <set attributeName="fill" to="#808080" begin="arrowRight.mouseover" end="arrowRight.mouseout"/>
                  </use>
                  <path fill="none" stroke="white" stroke-width="1.5" d="M0,-3.0v7 M-2.5,-0.5L0,-3.0L2.5,-0.5"/>
                </g>
                <g id="arrowDown" xlink:href="#dirArrow" transform="rotate(180) translate(-30 -48)" onmousedown="handlePan(0,1)">
                  <use xlink:href="#rim" fill="#404040">
                        <set attributeName="fill" to="#808080" begin="arrowDown.mouseover" end="arrowDown.mouseout"/>
                  </use>
                  <path fill="none" stroke="white" stroke-width="1.5" d="M0,-3.0v7 M-2.5,-0.5L0,-3.0L2.5,-0.5"/>
                </g>
                <g id="arrowLeft" xlink:href="#dirArrow" transform="rotate(270) translate(-36 17)" onmousedown="handlePan(-1,0)">
                  <use xlink:href="#rim" fill="#404040">
                        <set attributeName="fill" to="#808080" begin="arrowLeft.mouseover" end="arrowLeft.mouseout"/>
                  </use>
                  <path fill="none" stroke="white" stroke-width="1.5" d="M0,-3.0v7 M-2.5,-0.5L0,-3.0L2.5,-0.5"/>
                </g>
        </g>
        <svg viewBox="0 0 15 15" width="100%" height="30px" preserveAspectRatio="xMaxYMin meet">
         <g id="arrow_out" transform="scale(0.3 0.3)">
          <a xlink:href="Antenna_8cpp__incl_org.svg" target="_base">
           <rect id="button" ry="5" rx="5" y="6" x="6" height="38" width="38"
                fill="#f2f5e9" fill-opacity="0.5" stroke="#606060" stroke-width="1.0"/>
           <path id="arrow"
             d="M 11.500037,31.436501 C 11.940474,20.09759 22.043105,11.32322 32.158766,21.979434 L 37.068811,17.246167 C 37.068811,17.246167 37.088388,32 37.088388,32 L 22.160133,31.978069 C 22.160133,31.978069 26.997745,27.140456 26.997745,27.140456 C 18.528582,18.264221 13.291696,25.230495 11.500037,31.436501 z"
             style="fill:#404040;"/>
          </a>
         </g>
        </svg>
</svg>
