<?xml version="1.0" encoding="UTF-8" standalone="no"?>
<!DOCTYPE svg PUBLIC "-//W3C//DTD SVG 1.1//EN"
 "http://www.w3.org/Graphics/SVG/1.1/DTD/svg11.dtd">
<!-- Generated by graphviz version 2.43.0 (0)
 -->
<!-- Title: Antenna.h Pages: 1 -->
<!--zoomable 252 -->
<svg id="main" version="1.1" xmlns="http://www.w3.org/2000/svg" xmlns:xlink="http://www.w3.org/1999/xlink" xml:space="preserve" onload="init(evt)">
<style type="text/css"><![CDATA[
.edge:hover path { stroke: red; }
.edge:hover polygon { stroke: red; fill: red; }
]]></style>
<script type="text/javascript"><![CDATA[
var edges = document.getElementsByTagName('g');
if (edges && edges.length) {
  for (var i=0;i<edges.length;i++) {
    if (edges[i].id.substr(0,4)=='edge') {
      edges[i].setAttribute('class','edge');
    }
  }
}
]]></script>
        <defs>
                <circle id="rim" cx="0" cy="0" r="7"/>
                <circle id="rim2" cx="0" cy="0" r="3.5"/>
                <g id="zoomPlus">
                        <use xlink:href="#rim" fill="#404040">
                                <set attributeName="fill" to="#808080" begin="zoomplus.mouseover" end="zoomplus.mouseout"/>
                        </use>
                        <path d="M-4,0h8M0,-4v8" fill="none" stroke="white" stroke-width="1.5" pointer-events="none"/>
                </g>
                <g id="zoomMin">
                        <use xlink:href="#rim" fill="#404040">
                                <set attributeName="fill" to="#808080" begin="zoomminus.mouseover" end="zoomminus.mouseout"/>
                        </use>
                        <path d="M-4,0h8" fill="none" stroke="white" stroke-width="1.5" pointer-events="none"/>
                </g>
                <g id="dirArrow">
                        <path fill="none" stroke="white" stroke-width="1.5" d="M0,-3.0v7 M-2.5,-0.5L0,-3.0L2.5,-0.5"/>
                </g>
               <g id="resetDef">
                       <use xlink:href="#rim2" fill="#404040">
                               <set attributeName="fill" to="#808080" begin="reset.mouseover" end="reset.mouseout"/>
                       </use>
               </g>
        </defs>

<script type="text/javascript">
var viewWidth = 1340;
var viewHeight = 252;
var sectionId = 'dynsection-1';
</script>
<script xlink:href="svgpan.js"/>
<svg id="graph" class="graph">
<g id="viewport">
<title>Antenna.h</title>
<polygon fill="white" stroke="transparent" points="-4,4 -4,-248 1335.5,-248 1335.5,4 -4,4"/>
<!-- Node1 -->
<g id="node1" class="node">
<title>Node1</title>
<g id="a_node1"><a xlink:title="Antenna class.">
<polygon fill="#bfbfbf" stroke="black" points="650.5,-224.5 650.5,-243.5 716.5,-243.5 716.5,-224.5 650.5,-224.5"/>
<text text-anchor="middle" x="683.5" y="-231.5" font-family="Helvetica,sans-Serif" font-size="10.00">Antenna.h</text>
</a>
</g>
</g>
<!-- Node2 -->
<g id="node2" class="node">
<title>Node2</title>
<g id="a_node2"><a xlink:href="CommDevice_8h.html" target="_top" xlink:title="Communication devices.">
<polygon fill="white" stroke="black" points="637.5,-168.5 637.5,-187.5 729.5,-187.5 729.5,-168.5 637.5,-168.5"/>
<text text-anchor="middle" x="683.5" y="-175.5" font-family="Helvetica,sans-Serif" font-size="10.00">CommDevice.h</text>
</a>
</g>
</g>
<!-- Node1&#45;&gt;Node2 -->
<g id="edge1" class="edge">
<title>Node1&#45;&gt;Node2</title>
<path fill="none" stroke="midnightblue" d="M683.5,-213.8C683.5,-204.91 683.5,-194.78 683.5,-187.75"/>
<polygon fill="midnightblue" stroke="midnightblue" points="680,-214.08 683.5,-224.08 687,-214.08 680,-214.08"/>
</g>
<!-- Node20 -->
<g id="node20" class="node">
<title>Node20</title>
<g id="a_node20"><a xlink:href="GNSSTransmitter_8h.html" target="_top" xlink:title="Handles GNSS transmit.">
<polygon fill="white" stroke="black" points="412,-112.5 412,-131.5 519,-131.5 519,-112.5 412,-112.5"/>
<text text-anchor="middle" x="465.5" y="-119.5" font-family="Helvetica,sans-Serif" font-size="10.00">GNSSTransmitter.h</text>
</a>
</g>
</g>
<!-- Node1&#45;&gt;Node20 -->
<g id="edge39" class="edge">
<title>Node1&#45;&gt;Node20</title>
<path fill="none" stroke="midnightblue" d="M657.21,-219.73C611.92,-196.88 520.42,-150.71 482.53,-131.59"/>
<polygon fill="midnightblue" stroke="midnightblue" points="655.89,-222.99 666.39,-224.37 659.04,-216.74 655.89,-222.99"/>
</g>
<!-- Node21 -->
<g id="node21" class="node">
<title>Node21</title>
<g id="a_node21"><a xlink:href="Antenna_8cpp.html" target="_top" xlink:title="Antenna class.">
<polygon fill="white" stroke="black" points="748,-168.5 748,-187.5 825,-187.5 825,-168.5 748,-168.5"/>
<text text-anchor="middle" x="786.5" y="-175.5" font-family="Helvetica,sans-Serif" font-size="10.00">Antenna.cpp</text>
</a>
</g>
</g>
<!-- Node1&#45;&gt;Node21 -->
<g id="edge38" class="edge">
<title>Node1&#45;&gt;Node21</title>
<path fill="none" stroke="midnightblue" d="M709.08,-219.59C728.12,-209.61 753.56,-196.27 769.99,-187.65"/>
<polygon fill="midnightblue" stroke="midnightblue" points="707.28,-216.58 700.05,-224.32 710.53,-222.78 707.28,-216.58"/>
</g>
<!-- Node3 -->
<g id="node3" class="node">
<title>Node3</title>
<g id="a_node3"><a xlink:href="Agent_8h.html" target="_top" xlink:title="List of agents.">
<polygon fill="white" stroke="black" points="537.5,-112.5 537.5,-131.5 591.5,-131.5 591.5,-112.5 537.5,-112.5"/>
<text text-anchor="middle" x="564.5" y="-119.5" font-family="Helvetica,sans-Serif" font-size="10.00">Agent.h</text>
</a>
</g>
</g>
<!-- Node2&#45;&gt;Node3 -->
<g id="edge2" class="edge">
<title>Node2&#45;&gt;Node3</title>
<path fill="none" stroke="midnightblue" d="M655.36,-164.23C633.1,-154.13 602.64,-140.31 583.27,-131.52"/>
<polygon fill="midnightblue" stroke="midnightblue" points="654.09,-167.5 664.64,-168.44 656.98,-161.12 654.09,-167.5"/>
</g>
<!-- Node11 -->
<g id="node11" class="node">
<title>Node11</title>
<g id="a_node11"><a xlink:href="GNSSStateEstimationApp_8h.html" target="_top" xlink:title="State Estimation Application Using GNSS Measurement.">
<polygon fill="white" stroke="black" points="1030,-56.5 1030,-75.5 1179,-75.5 1179,-56.5 1030,-56.5"/>
<text text-anchor="middle" x="1104.5" y="-63.5" font-family="Helvetica,sans-Serif" font-size="10.00">GNSSStateEstimationApp.h</text>
</a>
</g>
</g>
<!-- Node2&#45;&gt;Node11 -->
<g id="edge22" class="edge">
<title>Node2&#45;&gt;Node11</title>
<path fill="none" stroke="midnightblue" d="M739.79,-166.71C783.15,-158.41 844.45,-145.87 897.5,-132 964.19,-114.56 1041.31,-88.84 1079.87,-75.59"/>
<polygon fill="midnightblue" stroke="midnightblue" points="738.89,-163.32 729.72,-168.62 740.2,-170.2 738.89,-163.32"/>
</g>
<!-- Node13 -->
<g id="node13" class="node">
<title>Node13</title>
<g id="a_node13"><a xlink:href="StateEstimationApp_8h.html" target="_top" xlink:title="Base class for State Estimation Application.">
<polygon fill="white" stroke="black" points="1197.5,-56.5 1197.5,-75.5 1319.5,-75.5 1319.5,-56.5 1197.5,-56.5"/>
<text text-anchor="middle" x="1258.5" y="-63.5" font-family="Helvetica,sans-Serif" font-size="10.00">StateEstimationApp.h</text>
</a>
</g>
</g>
<!-- Node2&#45;&gt;Node13 -->
<g id="edge23" class="edge">
<title>Node2&#45;&gt;Node13</title>
<path fill="none" stroke="midnightblue" d="M739.87,-167.9C793,-159.18 874.79,-145.41 945.5,-132 1044.47,-113.23 1160.43,-88.4 1219.55,-75.54"/>
<polygon fill="midnightblue" stroke="midnightblue" points="739.27,-164.45 729.97,-169.52 740.4,-171.36 739.27,-164.45"/>
</g>
<!-- Node17 -->
<g id="node17" class="node">
<title>Node17</title>
<g id="a_node17"><a xlink:href="SpaceChannel_8cpp.html" target="_top" xlink:title="Base spacechannel class (Under devlopment )">
<polygon fill="white" stroke="black" points="630.5,-56.5 630.5,-75.5 736.5,-75.5 736.5,-56.5 630.5,-56.5"/>
<text text-anchor="middle" x="683.5" y="-63.5" font-family="Helvetica,sans-Serif" font-size="10.00">SpaceChannel.cpp</text>
</a>
</g>
</g>
<!-- Node2&#45;&gt;Node17 -->
<g id="edge37" class="edge">
<title>Node2&#45;&gt;Node17</title>
<path fill="none" stroke="midnightblue" d="M683.5,-158.35C683.5,-134.25 683.5,-93.31 683.5,-75.59"/>
<polygon fill="midnightblue" stroke="midnightblue" points="680,-158.37 683.5,-168.37 687,-158.37 680,-158.37"/>
</g>
<!-- Node18 -->
<g id="node18" class="node">
<title>Node18</title>
<g id="a_node18"><a xlink:href="GNSSReceiver_8h.html" target="_top" xlink:title="GNSS receiver class.">
<polygon fill="white" stroke="black" points="793,-112.5 793,-131.5 888,-131.5 888,-112.5 793,-112.5"/>
<text text-anchor="middle" x="840.5" y="-119.5" font-family="Helvetica,sans-Serif" font-size="10.00">GNSSReceiver.h</text>
</a>
</g>
</g>
<!-- Node2&#45;&gt;Node18 -->
<g id="edge24" class="edge">
<title>Node2&#45;&gt;Node18</title>
<path fill="none" stroke="midnightblue" d="M717.89,-165.17C747.45,-155 789.37,-140.59 815.74,-131.52"/>
<polygon fill="midnightblue" stroke="midnightblue" points="716.7,-161.88 708.38,-168.44 718.97,-168.5 716.7,-161.88"/>
</g>
<!-- Node2&#45;&gt;Node20 -->
<g id="edge33" class="edge">
<title>Node2&#45;&gt;Node20</title>
<path fill="none" stroke="midnightblue" d="M639.19,-166.02C598.01,-155.82 537.53,-140.84 499.88,-131.52"/>
<polygon fill="midnightblue" stroke="midnightblue" points="638.41,-169.44 648.96,-168.44 640.09,-162.64 638.41,-169.44"/>
</g>
<!-- Node4 -->
<g id="node4" class="node">
<title>Node4</title>
<g id="a_node4"><a xlink:href="Agent_8cpp.html" target="_top" xlink:title="Base class fo.">
<polygon fill="white" stroke="black" points="311,-56.5 311,-75.5 376,-75.5 376,-56.5 311,-56.5"/>
<text text-anchor="middle" x="343.5" y="-63.5" font-family="Helvetica,sans-Serif" font-size="10.00">Agent.cpp</text>
</a>
</g>
</g>
<!-- Node3&#45;&gt;Node4 -->
<g id="edge3" class="edge">
<title>Node3&#45;&gt;Node4</title>
<path fill="none" stroke="midnightblue" d="M527.51,-111.96C485.21,-101.63 416.63,-84.87 376.21,-74.99"/>
<polygon fill="midnightblue" stroke="midnightblue" points="526.86,-115.4 537.4,-114.38 528.52,-108.6 526.86,-115.4"/>
</g>
<!-- Node5 -->
<g id="node5" class="node">
<title>Node5</title>
<g id="a_node5"><a xlink:href="GNSSConstellation_8h.html" target="_top" xlink:title=" ">
<polygon fill="white" stroke="black" points="176,-56.5 176,-75.5 293,-75.5 293,-56.5 176,-56.5"/>
<text text-anchor="middle" x="234.5" y="-63.5" font-family="Helvetica,sans-Serif" font-size="10.00">GNSSConstellation.h</text>
</a>
</g>
</g>
<!-- Node3&#45;&gt;Node5 -->
<g id="edge4" class="edge">
<title>Node3&#45;&gt;Node5</title>
<path fill="none" stroke="midnightblue" d="M527.8,-112.06C527.7,-112.04 527.6,-112.02 527.5,-112 483.83,-103.35 365.38,-85.84 293.16,-75.4"/>
<polygon fill="midnightblue" stroke="midnightblue" points="526.97,-115.46 537.48,-114.14 528.44,-108.62 526.97,-115.46"/>
</g>
<!-- Node7 -->
<g id="node7" class="node">
<title>Node7</title>
<g id="a_node7"><a xlink:href="ExampleConstellations_8cpp.html" target="_top" xlink:title="Setup GNSS Constellation.">
<polygon fill="white" stroke="black" points="493,-0.5 493,-19.5 642,-19.5 642,-0.5 493,-0.5"/>
<text text-anchor="middle" x="567.5" y="-7.5" font-family="Helvetica,sans-Serif" font-size="10.00">ExampleConstellations.cpp</text>
</a>
</g>
</g>
<!-- Node3&#45;&gt;Node7 -->
<g id="edge18" class="edge">
<title>Node3&#45;&gt;Node7</title>
<path fill="none" stroke="midnightblue" d="M565.01,-102.35C565.67,-78.25 566.78,-37.31 567.27,-19.59"/>
<polygon fill="midnightblue" stroke="midnightblue" points="561.51,-102.28 564.74,-112.37 568.51,-102.47 561.51,-102.28"/>
</g>
<!-- Node8 -->
<g id="node8" class="node">
<title>Node8</title>
<g id="a_node8"><a xlink:href="ExampleEKF_8cpp.html" target="_top" xlink:title="Example of Extended Kalman Filter for orbit determination.">
<polygon fill="white" stroke="black" points="378,-0.5 378,-19.5 475,-19.5 475,-0.5 378,-0.5"/>
<text text-anchor="middle" x="426.5" y="-7.5" font-family="Helvetica,sans-Serif" font-size="10.00">ExampleEKF.cpp</text>
</a>
</g>
</g>
<!-- Node3&#45;&gt;Node8 -->
<g id="edge19" class="edge">
<title>Node3&#45;&gt;Node8</title>
<path fill="none" stroke="midnightblue" d="M527.49,-111.6C487.88,-101.17 429.83,-84.66 423.5,-76 411.24,-59.22 418.15,-32.98 423.01,-19.55"/>
<polygon fill="midnightblue" stroke="midnightblue" points="526.81,-115.04 537.37,-114.18 528.58,-108.27 526.81,-115.04"/>
</g>
<!-- Node9 -->
<g id="node9" class="node">
<title>Node9</title>
<g id="a_node9"><a xlink:href="ExampleEKFApp_8cpp.html" target="_top" xlink:title="Example of EKF application.">
<polygon fill="white" stroke="black" points="773.5,-0.5 773.5,-19.5 889.5,-19.5 889.5,-0.5 773.5,-0.5"/>
<text text-anchor="middle" x="831.5" y="-7.5" font-family="Helvetica,sans-Serif" font-size="10.00">ExampleEKFApp.cpp</text>
</a>
</g>
</g>
<!-- Node3&#45;&gt;Node9 -->
<g id="edge20" class="edge">
<title>Node3&#45;&gt;Node9</title>
<path fill="none" stroke="midnightblue" d="M575.22,-103.42C585.3,-88.46 601.75,-67.6 621.5,-56 667.96,-28.72 728.88,-17.9 773.13,-13.65"/>
<polygon fill="midnightblue" stroke="midnightblue" points="572.01,-101.94 569.56,-112.25 577.9,-105.73 572.01,-101.94"/>
</g>
<!-- Node10 -->
<g id="node10" class="node">
<title>Node10</title>
<g id="a_node10"><a xlink:href="ExamplePropagation_8cpp.html" target="_top" xlink:title="Example propagating both GPS constellation and Lunar Satellite.">
<polygon fill="white" stroke="black" points="75.5,-0.5 75.5,-19.5 213.5,-19.5 213.5,-0.5 75.5,-0.5"/>
<text text-anchor="middle" x="144.5" y="-7.5" font-family="Helvetica,sans-Serif" font-size="10.00">ExamplePropagation.cpp</text>
</a>
</g>
</g>
<!-- Node3&#45;&gt;Node10 -->
<g id="edge21" class="edge">
<title>Node3&#45;&gt;Node10</title>
<path fill="none" stroke="midnightblue" d="M526.96,-112.38C432.45,-100.34 227.32,-124.37 166.5,-76 149.16,-62.21 145.4,-34.14 144.65,-19.83"/>
<polygon fill="midnightblue" stroke="midnightblue" points="526.7,-115.88 537.11,-113.89 527.73,-108.95 526.7,-115.88"/>
</g>
<!-- Node3&#45;&gt;Node11 -->
<g id="edge10" class="edge">
<title>Node3&#45;&gt;Node11</title>
<path fill="none" stroke="midnightblue" d="M601.71,-117.28C689.81,-108.47 912.55,-86.2 1029.76,-74.47"/>
<polygon fill="midnightblue" stroke="midnightblue" points="601.25,-113.81 591.65,-118.29 601.95,-120.77 601.25,-113.81"/>
</g>
<!-- Node3&#45;&gt;Node13 -->
<g id="edge13" class="edge">
<title>Node3&#45;&gt;Node13</title>
<path fill="none" stroke="midnightblue" d="M601.78,-119.04C698.67,-113.79 966.36,-98.27 1188.5,-76 1191.43,-75.71 1194.42,-75.39 1197.44,-75.05"/>
<polygon fill="midnightblue" stroke="midnightblue" points="601.41,-115.56 591.61,-119.59 601.78,-122.55 601.41,-115.56"/>
</g>
<!-- Node15 -->
<g id="node15" class="node">
<title>Node15</title>
<g id="a_node15"><a xlink:href="GNSSChannel_8cpp.html" target="_top" xlink:title="GNSS Channel.">
<polygon fill="white" stroke="black" points="432.5,-56.5 432.5,-75.5 536.5,-75.5 536.5,-56.5 432.5,-56.5"/>
<text text-anchor="middle" x="484.5" y="-63.5" font-family="Helvetica,sans-Serif" font-size="10.00">GNSSChannel.cpp</text>
</a>
</g>
</g>
<!-- Node3&#45;&gt;Node15 -->
<g id="edge15" class="edge">
<title>Node3&#45;&gt;Node15</title>
<path fill="none" stroke="midnightblue" d="M543.2,-106.62C528.58,-96.76 509.67,-83.99 497.32,-75.65"/>
<polygon fill="midnightblue" stroke="midnightblue" points="541.4,-109.63 551.65,-112.32 545.32,-103.83 541.4,-109.63"/>
</g>
<!-- Node16 -->
<g id="node16" class="node">
<title>Node16</title>
<g id="a_node16"><a xlink:href="GNSSTransmitter_8cpp.html" target="_top" xlink:title="Handles GNSS transmit.">
<polygon fill="white" stroke="black" points="0,-56.5 0,-75.5 119,-75.5 119,-56.5 0,-56.5"/>
<text text-anchor="middle" x="59.5" y="-63.5" font-family="Helvetica,sans-Serif" font-size="10.00">GNSSTransmitter.cpp</text>
</a>
</g>
</g>
<!-- Node3&#45;&gt;Node16 -->
<g id="edge16" class="edge">
<title>Node3&#45;&gt;Node16</title>
<path fill="none" stroke="midnightblue" d="M527.06,-112.2C352.3,-83.56 305.11,-94.27 133.5,-76 128.87,-75.51 124.07,-74.97 119.26,-74.42"/>
<polygon fill="midnightblue" stroke="midnightblue" points="526.68,-115.68 537.11,-113.86 527.82,-108.77 526.68,-115.68"/>
</g>
<!-- Node3&#45;&gt;Node17 -->
<g id="edge17" class="edge">
<title>Node3&#45;&gt;Node17</title>
<path fill="none" stroke="midnightblue" d="M592.64,-108.23C614.9,-98.13 645.36,-84.31 664.73,-75.52"/>
<polygon fill="midnightblue" stroke="midnightblue" points="591.02,-105.12 583.36,-112.44 593.91,-111.5 591.02,-105.12"/>
</g>
<!-- Node6 -->
<g id="node6" class="node">
<title>Node6</title>
<g id="a_node6"><a xlink:href="GNSSConstellation_8cpp.html" target="_top" xlink:title="GNSS Constellation.">
<polygon fill="white" stroke="black" points="231.5,-0.5 231.5,-19.5 359.5,-19.5 359.5,-0.5 231.5,-0.5"/>
<text text-anchor="middle" x="295.5" y="-7.5" font-family="Helvetica,sans-Serif" font-size="10.00">GNSSConstellation.cpp</text>
</a>
</g>
</g>
<!-- Node5&#45;&gt;Node6 -->
<g id="edge5" class="edge">
<title>Node5&#45;&gt;Node6</title>
<path fill="none" stroke="midnightblue" d="M251.97,-49.54C262.84,-39.91 276.44,-27.87 285.52,-19.83"/>
<polygon fill="midnightblue" stroke="midnightblue" points="249.47,-47.07 244.3,-56.32 254.11,-52.32 249.47,-47.07"/>
</g>
<!-- Node5&#45;&gt;Node7 -->
<g id="edge6" class="edge">
<title>Node5&#45;&gt;Node7</title>
<path fill="none" stroke="midnightblue" d="M297.46,-54.79C360.38,-44.59 456.02,-29.08 514.98,-19.52"/>
<polygon fill="midnightblue" stroke="midnightblue" points="296.58,-51.39 287.26,-56.44 297.7,-58.3 296.58,-51.39"/>
</g>
<!-- Node5&#45;&gt;Node8 -->
<g id="edge7" class="edge">
<title>Node5&#45;&gt;Node8</title>
<path fill="none" stroke="midnightblue" d="M274.68,-53.7C310.92,-43.51 363.41,-28.74 396.22,-19.52"/>
<polygon fill="midnightblue" stroke="midnightblue" points="273.6,-50.37 264.92,-56.44 275.5,-57.11 273.6,-50.37"/>
</g>
<!-- Node5&#45;&gt;Node9 -->
<g id="edge8" class="edge">
<title>Node5&#45;&gt;Node9</title>
<path fill="none" stroke="midnightblue" d="M303.32,-55.84C480.2,-36.68 677.56,-21.8 773.38,-15"/>
<polygon fill="midnightblue" stroke="midnightblue" points="302.87,-52.37 293.31,-56.94 303.63,-59.33 302.87,-52.37"/>
</g>
<!-- Node5&#45;&gt;Node10 -->
<g id="edge9" class="edge">
<title>Node5&#45;&gt;Node10</title>
<path fill="none" stroke="midnightblue" d="M211.46,-51.18C194.9,-41.24 173.08,-28.15 158.92,-19.65"/>
<polygon fill="midnightblue" stroke="midnightblue" points="209.66,-54.18 220.04,-56.32 213.27,-48.18 209.66,-54.18"/>
</g>
<!-- Node11&#45;&gt;Node9 -->
<g id="edge12" class="edge">
<title>Node11&#45;&gt;Node9</title>
<path fill="none" stroke="midnightblue" d="M1051.28,-54.47C999.69,-44.27 922.4,-28.98 874.56,-19.52"/>
<polygon fill="midnightblue" stroke="midnightblue" points="1050.75,-57.94 1061.24,-56.44 1052.11,-51.07 1050.75,-57.94"/>
</g>
<!-- Node12 -->
<g id="node12" class="node">
<title>Node12</title>
<g id="a_node12"><a xlink:href="GNSSStateEstimationApp_8cpp.html" target="_top" xlink:title="State Estimation Application Using GNSS Measurement.">
<polygon fill="white" stroke="black" points="1018,-0.5 1018,-19.5 1179,-19.5 1179,-0.5 1018,-0.5"/>
<text text-anchor="middle" x="1098.5" y="-7.5" font-family="Helvetica,sans-Serif" font-size="10.00">GNSSStateEstimationApp.cpp</text>
</a>
</g>
</g>
<!-- Node11&#45;&gt;Node12 -->
<g id="edge11" class="edge">
<title>Node11&#45;&gt;Node12</title>
<path fill="none" stroke="midnightblue" d="M1102.4,-46.1C1101.4,-37.14 1100.26,-26.86 1099.47,-19.75"/>
<polygon fill="midnightblue" stroke="midnightblue" points="1098.93,-46.53 1103.51,-56.08 1105.88,-45.76 1098.93,-46.53"/>
</g>
<!-- Node14 -->
<g id="node14" class="node">
<title>Node14</title>
<g id="a_node14"><a xlink:href="StateEstimationApp_8cpp.html" target="_top" xlink:title="Base class for State Estimation Application.">
<polygon fill="white" stroke="black" points="1197.5,-0.5 1197.5,-19.5 1331.5,-19.5 1331.5,-0.5 1197.5,-0.5"/>
<text text-anchor="middle" x="1264.5" y="-7.5" font-family="Helvetica,sans-Serif" font-size="10.00">StateEstimationApp.cpp</text>
</a>
</g>
</g>
<!-- Node13&#45;&gt;Node14 -->
<g id="edge14" class="edge">
<title>Node13&#45;&gt;Node14</title>
<path fill="none" stroke="midnightblue" d="M1260.6,-46.1C1261.6,-37.14 1262.74,-26.86 1263.53,-19.75"/>
<polygon fill="midnightblue" stroke="midnightblue" points="1257.12,-45.76 1259.49,-56.08 1264.07,-46.53 1257.12,-45.76"/>
</g>
<!-- Node18&#45;&gt;Node7 -->
<g id="edge29" class="edge">
<title>Node18&#45;&gt;Node7</title>
<path fill="none" stroke="midnightblue" d="M838.58,-102.23C836.05,-87.44 830.16,-67.46 816.5,-56 790.58,-34.26 705.74,-22.39 642.25,-16.39"/>
<polygon fill="midnightblue" stroke="midnightblue" points="835.14,-102.86 839.94,-112.3 842.07,-101.93 835.14,-102.86"/>
</g>
<!-- Node18&#45;&gt;Node8 -->
<g id="edge30" class="edge">
<title>Node18&#45;&gt;Node8</title>
<path fill="none" stroke="midnightblue" d="M829.4,-103.9C818.43,-88.58 800.2,-66.9 778.5,-56 660.86,3.08 614.89,-38.1 484.5,-20 481.47,-19.58 478.36,-19.13 475.22,-18.68"/>
<polygon fill="midnightblue" stroke="midnightblue" points="826.71,-106.18 835.25,-112.46 832.49,-102.23 826.71,-106.18"/>
</g>
<!-- Node18&#45;&gt;Node9 -->
<g id="edge31" class="edge">
<title>Node18&#45;&gt;Node9</title>
<path fill="none" stroke="midnightblue" d="M898.56,-114.91C948.69,-107.21 1009.3,-90.55 983.5,-56 962.01,-27.22 922.93,-16.09 889.78,-12.09"/>
<polygon fill="midnightblue" stroke="midnightblue" points="897.78,-111.49 888.38,-116.38 898.77,-118.41 897.78,-111.49"/>
</g>
<!-- Node18&#45;&gt;Node10 -->
<g id="edge32" class="edge">
<title>Node18&#45;&gt;Node10</title>
<path fill="none" stroke="midnightblue" d="M820.61,-106.56C795.28,-88.3 753.77,-58.87 745.5,-56 635.46,-17.77 338.51,-30.68 222.5,-20 219.65,-19.74 216.74,-19.46 213.81,-19.16"/>
<polygon fill="midnightblue" stroke="midnightblue" points="818.66,-109.47 828.81,-112.49 822.76,-103.8 818.66,-109.47"/>
</g>
<!-- Node18&#45;&gt;Node11 -->
<g id="edge25" class="edge">
<title>Node18&#45;&gt;Node11</title>
<path fill="none" stroke="midnightblue" d="M892.28,-110.41C942.17,-100.2 1016.7,-84.96 1062.86,-75.52"/>
<polygon fill="midnightblue" stroke="midnightblue" points="891.43,-107.01 882.33,-112.44 892.83,-113.87 891.43,-107.01"/>
</g>
<!-- Node18&#45;&gt;Node13 -->
<g id="edge26" class="edge">
<title>Node18&#45;&gt;Node13</title>
<path fill="none" stroke="midnightblue" d="M898.26,-113.54C976.93,-103.37 1117.17,-85.26 1197.5,-74.88"/>
<polygon fill="midnightblue" stroke="midnightblue" points="897.51,-110.11 888.04,-114.86 898.41,-117.05 897.51,-110.11"/>
</g>
<!-- Node18&#45;&gt;Node15 -->
<g id="edge27" class="edge">
<title>Node18&#45;&gt;Node15</title>
<path fill="none" stroke="midnightblue" d="M782.73,-112.24C714.62,-101.91 602.4,-84.88 536.77,-74.93"/>
<polygon fill="midnightblue" stroke="midnightblue" points="782.45,-115.73 792.86,-113.77 783.5,-108.81 782.45,-115.73"/>
</g>
<!-- Node19 -->
<g id="node19" class="node">
<title>Node19</title>
<g id="a_node19"><a xlink:href="GNSSReceiver_8cpp.html" target="_top" xlink:title="GNSS Receiver class.">
<polygon fill="white" stroke="black" points="868.5,-56.5 868.5,-75.5 974.5,-75.5 974.5,-56.5 868.5,-56.5"/>
<text text-anchor="middle" x="921.5" y="-63.5" font-family="Helvetica,sans-Serif" font-size="10.00">GNSSReceiver.cpp</text>
</a>
</g>
</g>
<!-- Node18&#45;&gt;Node19 -->
<g id="edge28" class="edge">
<title>Node18&#45;&gt;Node19</title>
<path fill="none" stroke="midnightblue" d="M862.07,-106.62C876.86,-96.76 896.01,-83.99 908.52,-75.65"/>
<polygon fill="midnightblue" stroke="midnightblue" points="859.89,-103.86 853.51,-112.32 863.78,-109.69 859.89,-103.86"/>
</g>
<!-- Node20&#45;&gt;Node5 -->
<g id="edge34" class="edge">
<title>Node20&#45;&gt;Node5</title>
<path fill="none" stroke="midnightblue" d="M419.1,-110.15C375.45,-99.95 310.99,-84.88 270.93,-75.52"/>
<polygon fill="midnightblue" stroke="midnightblue" points="418.36,-113.58 428.9,-112.44 419.96,-106.76 418.36,-113.58"/>
</g>
<!-- Node20&#45;&gt;Node15 -->
<g id="edge35" class="edge">
<title>Node20&#45;&gt;Node15</title>
<path fill="none" stroke="midnightblue" d="M472.05,-102.4C475.22,-93.36 478.89,-82.94 481.42,-75.75"/>
<polygon fill="midnightblue" stroke="midnightblue" points="468.65,-101.49 468.64,-112.08 475.26,-103.81 468.65,-101.49"/>
</g>
<!-- Node20&#45;&gt;Node16 -->
<g id="edge36" class="edge">
<title>Node20&#45;&gt;Node16</title>
<path fill="none" stroke="midnightblue" d="M401.48,-112.48C324.05,-102.19 194.72,-84.98 119.25,-74.95"/>
<polygon fill="midnightblue" stroke="midnightblue" points="401.21,-115.98 411.59,-113.83 402.14,-109.04 401.21,-115.98"/>
</g>
</g>
</svg>
        <g id="navigator" transform="translate(0 0)" fill="#404254">
                <rect fill="#f2f5e9" fill-opacity="0.5" stroke="#606060" stroke-width=".5" x="0" y="0" width="60" height="60"/>
                <use id="zoomplus" xlink:href="#zoomPlus" x="17" y="9" onmousedown="handleZoom(evt,'in')"/>
                <use id="zoomminus" xlink:href="#zoomMin" x="42" y="9" onmousedown="handleZoom(evt,'out')"/>
                <use id="reset" xlink:href="#resetDef" x="30" y="36" onmousedown="handleReset()"/>
                <g id="arrowUp" xlink:href="#dirArrow" transform="translate(30 24)" onmousedown="handlePan(0,-1)">
                  <use xlink:href="#rim" fill="#404040">
                        <set attributeName="fill" to="#808080" begin="arrowUp.mouseover" end="arrowUp.mouseout"/>
                  </use>
                  <path fill="none" stroke="white" stroke-width="1.5" d="M0,-3.0v7 M-2.5,-0.5L0,-3.0L2.5,-0.5"/>
                </g>
                <g id="arrowRight" xlink:href="#dirArrow" transform="rotate(90) translate(36 -43)" onmousedown="handlePan(1,0)">
                  <use xlink:href="#rim" fill="#404040">
                        <set attributeName="fill" to="#808080" begin="arrowRight.mouseover" end="arrowRight.mouseout"/>
                  </use>
                  <path fill="none" stroke="white" stroke-width="1.5" d="M0,-3.0v7 M-2.5,-0.5L0,-3.0L2.5,-0.5"/>
                </g>
                <g id="arrowDown" xlink:href="#dirArrow" transform="rotate(180) translate(-30 -48)" onmousedown="handlePan(0,1)">
                  <use xlink:href="#rim" fill="#404040">
                        <set attributeName="fill" to="#808080" begin="arrowDown.mouseover" end="arrowDown.mouseout"/>
                  </use>
                  <path fill="none" stroke="white" stroke-width="1.5" d="M0,-3.0v7 M-2.5,-0.5L0,-3.0L2.5,-0.5"/>
                </g>
                <g id="arrowLeft" xlink:href="#dirArrow" transform="rotate(270) translate(-36 17)" onmousedown="handlePan(-1,0)">
                  <use xlink:href="#rim" fill="#404040">
                        <set attributeName="fill" to="#808080" begin="arrowLeft.mouseover" end="arrowLeft.mouseout"/>
                  </use>
                  <path fill="none" stroke="white" stroke-width="1.5" d="M0,-3.0v7 M-2.5,-0.5L0,-3.0L2.5,-0.5"/>
                </g>
        </g>
        <svg viewBox="0 0 15 15" width="100%" height="30px" preserveAspectRatio="xMaxYMin meet">
         <g id="arrow_out" transform="scale(0.3 0.3)">
          <a xlink:href="Antenna_8h__dep__incl_org.svg" target="_base">
           <rect id="button" ry="5" rx="5" y="6" x="6" height="38" width="38"
                fill="#f2f5e9" fill-opacity="0.5" stroke="#606060" stroke-width="1.0"/>
           <path id="arrow"
             d="M 11.500037,31.436501 C 11.940474,20.09759 22.043105,11.32322 32.158766,21.979434 L 37.068811,17.246167 C 37.068811,17.246167 37.088388,32 37.088388,32 L 22.160133,31.978069 C 22.160133,31.978069 26.997745,27.140456 26.997745,27.140456 C 18.528582,18.264221 13.291696,25.230495 11.500037,31.436501 z"
             style="fill:#404040;"/>
          </a>
         </g>
        </svg>
</svg>
