<?xml version="1.0" encoding="UTF-8" standalone="no"?>
<!DOCTYPE svg PUBLIC "-//W3C//DTD SVG 1.1//EN"
 "http://www.w3.org/Graphics/SVG/1.1/DTD/svg11.dtd">
<!-- Generated by graphviz version 2.43.0 (0)
 -->
<!-- Title: Antenna.h Pages: 1 -->
<svg width="505pt" height="207pt"
 viewBox="0.00 0.00 505.02 207.00" xmlns="http://www.w3.org/2000/svg" xmlns:xlink="http://www.w3.org/1999/xlink">
<g id="graph0" class="graph" transform="scale(1 1) rotate(0) translate(4 203)">
<title>Antenna.h</title>
<polygon fill="white" stroke="transparent" points="-4,4 -4,-203 501.02,-203 501.02,4 -4,4"/>
<!-- Node1 -->
<g id="node1" class="node">
<title>Node1</title>
<g id="a_node1"><a xlink:title="Antenna class.">
<polygon fill="#bfbfbf" stroke="black" points="81.52,-179.5 81.52,-198.5 147.52,-198.5 147.52,-179.5 81.52,-179.5"/>
<text text-anchor="middle" x="114.52" y="-186.5" font-family="Helvetica,sans-Serif" font-size="10.00">Antenna.h</text>
</a>
</g>
</g>
<!-- Node2 -->
<g id="node2" class="node">
<title>Node2</title>
<g id="a_node2"><a xlink:title=" ">
<polygon fill="white" stroke="#bfbfbf" points="48.02,-56.5 48.02,-75.5 185.02,-75.5 185.02,-56.5 48.02,-56.5"/>
<text text-anchor="middle" x="116.52" y="-63.5" font-family="Helvetica,sans-Serif" font-size="10.00">autodiff/forward/real.hpp</text>
</a>
</g>
</g>
<!-- Node1&#45;&gt;Node2 -->
<g id="edge1" class="edge">
<title>Node1&#45;&gt;Node2</title>
<path fill="none" stroke="midnightblue" d="M120.89,-179.23C126.78,-170.53 135.13,-156.57 138.52,-143 141.86,-129.63 141.63,-125.42 138.52,-112 136.29,-102.36 131.7,-92.41 127.28,-84.31"/>
<polygon fill="midnightblue" stroke="midnightblue" points="130.22,-82.4 122.16,-75.52 124.17,-85.92 130.22,-82.4"/>
</g>
<!-- Node3 -->
<g id="node3" class="node">
<title>Node3</title>
<g id="a_node3"><a xlink:title=" ">
<polygon fill="white" stroke="#bfbfbf" points="13.52,-112.5 13.52,-142.5 129.52,-142.5 129.52,-112.5 13.52,-112.5"/>
<text text-anchor="start" x="21.52" y="-130.5" font-family="Helvetica,sans-Serif" font-size="10.00">autodiff/forward/real</text>
<text text-anchor="middle" x="71.52" y="-119.5" font-family="Helvetica,sans-Serif" font-size="10.00">/eigen.hpp</text>
</a>
</g>
</g>
<!-- Node1&#45;&gt;Node3 -->
<g id="edge2" class="edge">
<title>Node1&#45;&gt;Node3</title>
<path fill="none" stroke="midnightblue" d="M108.36,-179.48C102.97,-172.02 94.9,-160.85 87.69,-150.87"/>
<polygon fill="midnightblue" stroke="midnightblue" points="90.35,-148.58 81.65,-142.52 84.67,-152.68 90.35,-148.58"/>
</g>
<!-- Node4 -->
<g id="node4" class="node">
<title>Node4</title>
<g id="a_node4"><a xlink:title=" ">
<polygon fill="white" stroke="#bfbfbf" points="147.52,-0.5 147.52,-19.5 191.52,-19.5 191.52,-0.5 147.52,-0.5"/>
<text text-anchor="middle" x="169.52" y="-7.5" font-family="Helvetica,sans-Serif" font-size="10.00">string</text>
</a>
</g>
</g>
<!-- Node1&#45;&gt;Node4 -->
<g id="edge3" class="edge">
<title>Node1&#45;&gt;Node4</title>
<path fill="none" stroke="midnightblue" d="M81.39,-184.27C55.65,-179.43 21.54,-168.35 4.52,-143 -3.16,-131.56 0.81,-125.27 4.52,-112 12.37,-83.96 15.84,-74.26 38.52,-56 67.38,-32.76 108.95,-21.19 137.48,-15.67"/>
<polygon fill="midnightblue" stroke="midnightblue" points="138.13,-19.11 147.36,-13.89 136.89,-12.22 138.13,-19.11"/>
</g>
<!-- Node5 -->
<g id="node5" class="node">
<title>Node5</title>
<g id="a_node5"><a xlink:href="Constants_8h.html" target="_top" xlink:title="List of constants.">
<polygon fill="white" stroke="black" points="185.52,-118 185.52,-137 311.52,-137 311.52,-118 185.52,-118"/>
<text text-anchor="middle" x="248.52" y="-125" font-family="Helvetica,sans-Serif" font-size="10.00">lupnt/core/Constants.h</text>
</a>
</g>
</g>
<!-- Node1&#45;&gt;Node5 -->
<g id="edge4" class="edge">
<title>Node1&#45;&gt;Node5</title>
<path fill="none" stroke="midnightblue" d="M133.72,-179.48C156.31,-169.45 194.02,-152.7 220.02,-141.15"/>
<polygon fill="midnightblue" stroke="midnightblue" points="221.64,-144.27 229.36,-137.01 218.8,-137.87 221.64,-144.27"/>
</g>
<!-- Node5&#45;&gt;Node2 -->
<g id="edge6" class="edge">
<title>Node5&#45;&gt;Node2</title>
<path fill="none" stroke="midnightblue" d="M229.61,-117.98C207.36,-107.95 170.21,-91.2 144.59,-79.65"/>
<polygon fill="midnightblue" stroke="midnightblue" points="145.95,-76.43 135.4,-75.51 143.08,-82.81 145.95,-76.43"/>
</g>
<!-- Node5&#45;&gt;Node4 -->
<g id="edge7" class="edge">
<title>Node5&#45;&gt;Node4</title>
<path fill="none" stroke="midnightblue" d="M242.58,-117.82C229.6,-98.84 198.49,-53.35 181.34,-28.29"/>
<polygon fill="midnightblue" stroke="midnightblue" points="184.06,-26.06 175.53,-19.78 178.28,-30.01 184.06,-26.06"/>
</g>
<!-- Node6 -->
<g id="node6" class="node">
<title>Node6</title>
<g id="a_node6"><a xlink:title=" ">
<polygon fill="white" stroke="#bfbfbf" points="346.02,-56.5 346.02,-75.5 497.02,-75.5 497.02,-56.5 346.02,-56.5"/>
<text text-anchor="middle" x="421.52" y="-63.5" font-family="Helvetica,sans-Serif" font-size="10.00">autodiff/common/eigen.hpp</text>
</a>
</g>
</g>
<!-- Node5&#45;&gt;Node6 -->
<g id="edge5" class="edge">
<title>Node5&#45;&gt;Node6</title>
<path fill="none" stroke="midnightblue" d="M273.31,-117.98C303.11,-107.72 353.31,-90.46 386.92,-78.9"/>
<polygon fill="midnightblue" stroke="midnightblue" points="388.46,-82.07 396.78,-75.51 386.18,-75.45 388.46,-82.07"/>
</g>
<!-- Node7 -->
<g id="node7" class="node">
<title>Node7</title>
<g id="a_node7"><a xlink:href="UserFilePath_8h.html" target="_top" xlink:title="File access utils.">
<polygon fill="white" stroke="black" points="241.52,-56.5 241.52,-75.5 327.52,-75.5 327.52,-56.5 241.52,-56.5"/>
<text text-anchor="middle" x="284.52" y="-63.5" font-family="Helvetica,sans-Serif" font-size="10.00">UserFilePath.h</text>
</a>
</g>
</g>
<!-- Node5&#45;&gt;Node7 -->
<g id="edge8" class="edge">
<title>Node5&#45;&gt;Node7</title>
<path fill="none" stroke="midnightblue" d="M253.68,-117.98C258.97,-109.23 267.36,-95.37 274.05,-84.31"/>
<polygon fill="midnightblue" stroke="midnightblue" points="277.19,-85.88 279.37,-75.51 271.2,-82.25 277.19,-85.88"/>
</g>
<!-- Node7&#45;&gt;Node4 -->
<g id="edge12" class="edge">
<title>Node7&#45;&gt;Node4</title>
<path fill="none" stroke="midnightblue" d="M266.3,-56.44C247.62,-47.68 218.36,-33.94 196.9,-23.86"/>
<polygon fill="midnightblue" stroke="midnightblue" points="198.2,-20.6 187.66,-19.52 195.22,-26.93 198.2,-20.6"/>
</g>
<!-- Node8 -->
<g id="node8" class="node">
<title>Node8</title>
<g id="a_node8"><a xlink:title=" ">
<polygon fill="white" stroke="#bfbfbf" points="209.52,-0.5 209.52,-19.5 277.52,-19.5 277.52,-0.5 209.52,-0.5"/>
<text text-anchor="middle" x="243.52" y="-7.5" font-family="Helvetica,sans-Serif" font-size="10.00">filesystem</text>
</a>
</g>
</g>
<!-- Node7&#45;&gt;Node8 -->
<g id="edge9" class="edge">
<title>Node7&#45;&gt;Node8</title>
<path fill="none" stroke="midnightblue" d="M277.75,-56.08C271.96,-48.46 263.46,-37.26 256.38,-27.94"/>
<polygon fill="midnightblue" stroke="midnightblue" points="259,-25.6 250.16,-19.75 253.42,-29.83 259,-25.6"/>
</g>
<!-- Node9 -->
<g id="node9" class="node">
<title>Node9</title>
<g id="a_node9"><a xlink:title=" ">
<polygon fill="white" stroke="#bfbfbf" points="295.52,-0.5 295.52,-19.5 355.52,-19.5 355.52,-0.5 295.52,-0.5"/>
<text text-anchor="middle" x="325.52" y="-7.5" font-family="Helvetica,sans-Serif" font-size="10.00">iostream</text>
</a>
</g>
</g>
<!-- Node7&#45;&gt;Node9 -->
<g id="edge10" class="edge">
<title>Node7&#45;&gt;Node9</title>
<path fill="none" stroke="midnightblue" d="M291.29,-56.08C297.08,-48.46 305.58,-37.26 312.66,-27.94"/>
<polygon fill="midnightblue" stroke="midnightblue" points="315.62,-29.83 318.88,-19.75 310.04,-25.6 315.62,-29.83"/>
</g>
<!-- Node10 -->
<g id="node10" class="node">
<title>Node10</title>
<g id="a_node10"><a xlink:title=" ">
<polygon fill="white" stroke="#bfbfbf" points="373.52,-0.5 373.52,-19.5 429.52,-19.5 429.52,-0.5 373.52,-0.5"/>
<text text-anchor="middle" x="401.52" y="-7.5" font-family="Helvetica,sans-Serif" font-size="10.00">optional</text>
</a>
</g>
</g>
<!-- Node7&#45;&gt;Node10 -->
<g id="edge11" class="edge">
<title>Node7&#45;&gt;Node10</title>
<path fill="none" stroke="midnightblue" d="M303.06,-56.44C322.14,-47.64 352.09,-33.81 373.96,-23.72"/>
<polygon fill="midnightblue" stroke="midnightblue" points="375.45,-26.88 383.07,-19.52 372.52,-20.53 375.45,-26.88"/>
</g>
</g>
</svg>
