<?xml version="1.0" encoding="UTF-8" standalone="no"?>
<!DOCTYPE svg PUBLIC "-//W3C//DTD SVG 1.1//EN"
 "http://www.w3.org/Graphics/SVG/1.1/DTD/svg11.dtd">
<!-- Generated by graphviz version 2.43.0 (0)
 -->
<!-- Title: Application.h Pages: 1 -->
<svg width="602pt" height="140pt"
 viewBox="0.00 0.00 601.50 140.00" xmlns="http://www.w3.org/2000/svg" xmlns:xlink="http://www.w3.org/1999/xlink">
<g id="graph0" class="graph" transform="scale(1 1) rotate(0) translate(4 136)">
<title>Application.h</title>
<polygon fill="white" stroke="transparent" points="-4,4 -4,-136 597.5,-136 597.5,4 -4,4"/>
<!-- Node1 -->
<g id="node1" class="node">
<title>Node1</title>
<g id="a_node1"><a xlink:title="Base class for Application.">
<polygon fill="#bfbfbf" stroke="black" points="331.5,-112.5 331.5,-131.5 411.5,-131.5 411.5,-112.5 331.5,-112.5"/>
<text text-anchor="middle" x="371.5" y="-119.5" font-family="Helvetica,sans-Serif" font-size="10.00">Application.h</text>
</a>
</g>
</g>
<!-- Node2 -->
<g id="node2" class="node">
<title>Node2</title>
<g id="a_node2"><a xlink:href="GNSSStateEstimationApp_8h.html" target="_top" xlink:title="State Estimation Application Using GNSS Measurement.">
<polygon fill="white" stroke="black" points="163,-56.5 163,-75.5 312,-75.5 312,-56.5 163,-56.5"/>
<text text-anchor="middle" x="237.5" y="-63.5" font-family="Helvetica,sans-Serif" font-size="10.00">GNSSStateEstimationApp.h</text>
</a>
</g>
</g>
<!-- Node1&#45;&gt;Node2 -->
<g id="edge1" class="edge">
<title>Node1&#45;&gt;Node2</title>
<path fill="none" stroke="midnightblue" d="M340.82,-108.64C315.68,-98.5 280.75,-84.43 258.63,-75.52"/>
<polygon fill="midnightblue" stroke="midnightblue" points="339.68,-111.95 350.27,-112.44 342.3,-105.46 339.68,-111.95"/>
</g>
<!-- Node5 -->
<g id="node5" class="node">
<title>Node5</title>
<g id="a_node5"><a xlink:href="StateEstimationApp_8h.html" target="_top" xlink:title="Base class for State Estimation Application.">
<polygon fill="white" stroke="black" points="445.5,-56.5 445.5,-75.5 567.5,-75.5 567.5,-56.5 445.5,-56.5"/>
<text text-anchor="middle" x="506.5" y="-63.5" font-family="Helvetica,sans-Serif" font-size="10.00">StateEstimationApp.h</text>
</a>
</g>
</g>
<!-- Node1&#45;&gt;Node5 -->
<g id="edge4" class="edge">
<title>Node1&#45;&gt;Node5</title>
<path fill="none" stroke="midnightblue" d="M402.41,-108.64C427.74,-98.5 462.93,-84.43 485.21,-75.52"/>
<polygon fill="midnightblue" stroke="midnightblue" points="400.88,-105.48 392.89,-112.44 403.48,-111.98 400.88,-105.48"/>
</g>
<!-- Node7 -->
<g id="node7" class="node">
<title>Node7</title>
<g id="a_node7"><a xlink:href="Scheduler_8h.html" target="_top" xlink:title="Event scheduler class.">
<polygon fill="white" stroke="black" points="335,-56.5 335,-75.5 408,-75.5 408,-56.5 335,-56.5"/>
<text text-anchor="middle" x="371.5" y="-63.5" font-family="Helvetica,sans-Serif" font-size="10.00">Scheduler.h</text>
</a>
</g>
</g>
<!-- Node1&#45;&gt;Node7 -->
<g id="edge6" class="edge">
<title>Node1&#45;&gt;Node7</title>
<path fill="none" stroke="midnightblue" d="M371.5,-101.8C371.5,-92.91 371.5,-82.78 371.5,-75.75"/>
<polygon fill="midnightblue" stroke="midnightblue" points="368,-102.08 371.5,-112.08 375,-102.08 368,-102.08"/>
</g>
<!-- Node3 -->
<g id="node3" class="node">
<title>Node3</title>
<g id="a_node3"><a xlink:href="GNSSStateEstimationApp_8cpp.html" target="_top" xlink:title="State Estimation Application Using GNSS Measurement.">
<polygon fill="white" stroke="black" points="0,-0.5 0,-19.5 161,-19.5 161,-0.5 0,-0.5"/>
<text text-anchor="middle" x="80.5" y="-7.5" font-family="Helvetica,sans-Serif" font-size="10.00">GNSSStateEstimationApp.cpp</text>
</a>
</g>
</g>
<!-- Node2&#45;&gt;Node3 -->
<g id="edge2" class="edge">
<title>Node2&#45;&gt;Node3</title>
<path fill="none" stroke="midnightblue" d="M203.11,-53.17C173.55,-43 131.63,-28.59 105.26,-19.52"/>
<polygon fill="midnightblue" stroke="midnightblue" points="202.03,-56.5 212.62,-56.44 204.3,-49.88 202.03,-56.5"/>
</g>
<!-- Node4 -->
<g id="node4" class="node">
<title>Node4</title>
<g id="a_node4"><a xlink:href="ExampleEKFApp_8cpp.html" target="_top" xlink:title="Example of EKF application.">
<polygon fill="white" stroke="black" points="179.5,-0.5 179.5,-19.5 295.5,-19.5 295.5,-0.5 179.5,-0.5"/>
<text text-anchor="middle" x="237.5" y="-7.5" font-family="Helvetica,sans-Serif" font-size="10.00">ExampleEKFApp.cpp</text>
</a>
</g>
</g>
<!-- Node2&#45;&gt;Node4 -->
<g id="edge3" class="edge">
<title>Node2&#45;&gt;Node4</title>
<path fill="none" stroke="midnightblue" d="M237.5,-45.8C237.5,-36.91 237.5,-26.78 237.5,-19.75"/>
<polygon fill="midnightblue" stroke="midnightblue" points="234,-46.08 237.5,-56.08 241,-46.08 234,-46.08"/>
</g>
<!-- Node6 -->
<g id="node6" class="node">
<title>Node6</title>
<g id="a_node6"><a xlink:href="StateEstimationApp_8cpp.html" target="_top" xlink:title="Base class for State Estimation Application.">
<polygon fill="white" stroke="black" points="459.5,-0.5 459.5,-19.5 593.5,-19.5 593.5,-0.5 459.5,-0.5"/>
<text text-anchor="middle" x="526.5" y="-7.5" font-family="Helvetica,sans-Serif" font-size="10.00">StateEstimationApp.cpp</text>
</a>
</g>
</g>
<!-- Node5&#45;&gt;Node6 -->
<g id="edge5" class="edge">
<title>Node5&#45;&gt;Node6</title>
<path fill="none" stroke="midnightblue" d="M513.28,-46.69C516.65,-37.59 520.57,-27.01 523.26,-19.75"/>
<polygon fill="midnightblue" stroke="midnightblue" points="509.99,-45.49 509.8,-56.08 516.56,-47.92 509.99,-45.49"/>
</g>
<!-- Node7&#45;&gt;Node4 -->
<g id="edge7" class="edge">
<title>Node7&#45;&gt;Node4</title>
<path fill="none" stroke="midnightblue" d="M340.82,-52.64C315.68,-42.5 280.75,-28.43 258.63,-19.52"/>
<polygon fill="midnightblue" stroke="midnightblue" points="339.68,-55.95 350.27,-56.44 342.3,-49.46 339.68,-55.95"/>
</g>
<!-- Node8 -->
<g id="node8" class="node">
<title>Node8</title>
<g id="a_node8"><a xlink:href="ExampleScheduler_8cpp.html" target="_top" xlink:title="Example of using the Scheduler class.">
<polygon fill="white" stroke="black" points="314,-0.5 314,-19.5 441,-19.5 441,-0.5 314,-0.5"/>
<text text-anchor="middle" x="377.5" y="-7.5" font-family="Helvetica,sans-Serif" font-size="10.00">ExampleScheduler.cpp</text>
</a>
</g>
</g>
<!-- Node7&#45;&gt;Node8 -->
<g id="edge8" class="edge">
<title>Node7&#45;&gt;Node8</title>
<path fill="none" stroke="midnightblue" d="M373.6,-46.1C374.6,-37.14 375.74,-26.86 376.53,-19.75"/>
<polygon fill="midnightblue" stroke="midnightblue" points="370.12,-45.76 372.49,-56.08 377.07,-46.53 370.12,-45.76"/>
</g>
</g>
</svg>
