<?xml version="1.0" encoding="UTF-8" standalone="no"?>
<!DOCTYPE svg PUBLIC "-//W3C//DTD SVG 1.1//EN"
 "http://www.w3.org/Graphics/SVG/1.1/DTD/svg11.dtd">
<!-- Generated by graphviz version 8.1.0 (20230707.0739)
 -->
<!-- Title: LPT::IFilter Pages: 1 -->
<svg width="151pt" height="427pt"
 viewBox="0.00 0.00 151.00 427.00" xmlns="http://www.w3.org/2000/svg" xmlns:xlink="http://www.w3.org/1999/xlink">
<g id="graph0" class="graph" transform="scale(1 1) rotate(0) translate(4 423)">
<title>LPT::IFilter</title>
<!-- Node1 -->
<g id="Node000001" class="node">
<title>Node1</title>
<g id="a_Node000001"><a xlink:title=" ">
<polygon fill="#999999" stroke="none" points="140.5,-419 2.5,-419 2.5,-295 140.5,-295 140.5,-419"/>
<text text-anchor="start" x="47.88" y="-405.5" font-family="Helvetica,sans-Serif" font-size="10.00">LPT::IFilter</text>
<text text-anchor="start" x="6.5" y="-390.5" font-family="Helvetica,sans-Serif" font-size="10.00">+</text>
<text text-anchor="start" x="16.5" y="-390.5" font-family="Helvetica,sans-Serif" font-size="10.00">dynamics</text>
<text text-anchor="start" x="6.5" y="-375.5" font-family="Helvetica,sans-Serif" font-size="10.00">+</text>
<text text-anchor="start" x="16.5" y="-375.5" font-family="Helvetica,sans-Serif" font-size="10.00">process_noise</text>
<text text-anchor="start" x="6.5" y="-360.5" font-family="Helvetica,sans-Serif" font-size="10.00">+</text>
<text text-anchor="start" x="16.5" y="-360.5" font-family="Helvetica,sans-Serif" font-size="10.00">measurement</text>
<text text-anchor="start" x="6.5" y="-345.5" font-family="Helvetica,sans-Serif" font-size="10.00">+</text>
<text text-anchor="start" x="16.5" y="-345.5" font-family="Helvetica,sans-Serif" font-size="10.00">~IFilter()</text>
<text text-anchor="start" x="6.5" y="-330.5" font-family="Helvetica,sans-Serif" font-size="10.00">+</text>
<text text-anchor="start" x="16.5" y="-330.5" font-family="Helvetica,sans-Serif" font-size="10.00">SetDynamicsFunction()</text>
<text text-anchor="start" x="6.5" y="-315.5" font-family="Helvetica,sans-Serif" font-size="10.00">+</text>
<text text-anchor="start" x="16.5" y="-315.5" font-family="Helvetica,sans-Serif" font-size="10.00">SetProcessNoiseFunction()</text>
<text text-anchor="start" x="6.5" y="-300.5" font-family="Helvetica,sans-Serif" font-size="10.00">+</text>
<text text-anchor="start" x="16.5" y="-300.5" font-family="Helvetica,sans-Serif" font-size="10.00">SetMeasurementFunction()</text>
<polygon fill="#666666" stroke="#666666" points="2.5,-402 2.5,-402 140.5,-402 140.5,-402 2.5,-402"/>
<polygon fill="#666666" stroke="#666666" points="2.5,-357 2.5,-357 14.5,-357 14.5,-357 2.5,-357"/>
<polygon fill="#666666" stroke="#666666" points="14.5,-357 14.5,-357 140.5,-357 140.5,-357 14.5,-357"/>
<polygon fill="none" stroke="#666666" points="2.5,-295 2.5,-419 140.5,-419 140.5,-295 2.5,-295"/>
</a>
</g>
</g>
<!-- Node2 -->
<g id="Node000002" class="node">
<title>Node2</title>
<g id="a_Node000002"><a xlink:href="class_l_p_t_1_1_e_k_f.html" target="_top" xlink:title="Extended Kalman Filter.">
<polygon fill="white" stroke="none" points="143,-259 0,-259 0,0 143,0 143,-259"/>
<text text-anchor="start" x="50.5" y="-245.5" font-family="Helvetica,sans-Serif" font-size="10.00">LPT::EKF</text>
<text text-anchor="start" x="4" y="-230.5" font-family="Helvetica,sans-Serif" font-size="10.00">+</text>
<text text-anchor="start" x="14" y="-230.5" font-family="Helvetica,sans-Serif" font-size="10.00">x</text>
<text text-anchor="start" x="4" y="-215.5" font-family="Helvetica,sans-Serif" font-size="10.00">+</text>
<text text-anchor="start" x="14" y="-215.5" font-family="Helvetica,sans-Serif" font-size="10.00">t_curr</text>
<text text-anchor="start" x="4" y="-200.5" font-family="Helvetica,sans-Serif" font-size="10.00">+</text>
<text text-anchor="start" x="14" y="-200.5" font-family="Helvetica,sans-Serif" font-size="10.00">xbar</text>
<text text-anchor="start" x="4" y="-185.5" font-family="Helvetica,sans-Serif" font-size="10.00">+</text>
<text text-anchor="start" x="14" y="-185.5" font-family="Helvetica,sans-Serif" font-size="10.00">dx</text>
<text text-anchor="start" x="4" y="-170.5" font-family="Helvetica,sans-Serif" font-size="10.00">+</text>
<text text-anchor="start" x="14" y="-170.5" font-family="Helvetica,sans-Serif" font-size="10.00">P</text>
<text text-anchor="start" x="4" y="-155.5" font-family="Helvetica,sans-Serif" font-size="10.00">+</text>
<text text-anchor="start" x="14" y="-155.5" font-family="Helvetica,sans-Serif" font-size="10.00">Pbar</text>
<text text-anchor="start" x="4" y="-140.5" font-family="Helvetica,sans-Serif" font-size="10.00">+</text>
<text text-anchor="start" x="14" y="-140.5" font-family="Helvetica,sans-Serif" font-size="10.00">H</text>
<text text-anchor="start" x="4" y="-125.5" font-family="Helvetica,sans-Serif" font-size="10.00">+</text>
<text text-anchor="start" x="14" y="-125.5" font-family="Helvetica,sans-Serif" font-size="10.00">S</text>
<text text-anchor="start" x="4" y="-110.5" font-family="Helvetica,sans-Serif" font-size="10.00">+</text>
<text text-anchor="start" x="14" y="-110.5" font-family="Helvetica,sans-Serif" font-size="10.00">K</text>
<text text-anchor="start" x="4" y="-95.5" font-family="Helvetica,sans-Serif" font-size="10.00">+</text>
<text text-anchor="start" x="14" y="-95.5" font-family="Helvetica,sans-Serif" font-size="10.00">I</text>
<text text-anchor="start" x="4" y="-80.5" font-family="Helvetica,sans-Serif" font-size="10.00">+</text>
<text text-anchor="start" x="14" y="-80.5" font-family="Helvetica,sans-Serif" font-size="10.00">Initialize()</text>
<text text-anchor="start" x="4" y="-65.5" font-family="Helvetica,sans-Serif" font-size="10.00">+</text>
<text text-anchor="start" x="14" y="-65.5" font-family="Helvetica,sans-Serif" font-size="10.00">GetPredictedStateEstimate()</text>
<text text-anchor="start" x="4" y="-50.5" font-family="Helvetica,sans-Serif" font-size="10.00">+</text>
<text text-anchor="start" x="14" y="-50.5" font-family="Helvetica,sans-Serif" font-size="10.00">GetUpdatedStateEstimate()</text>
<text text-anchor="start" x="4" y="-35.5" font-family="Helvetica,sans-Serif" font-size="10.00">+</text>
<text text-anchor="start" x="14" y="-35.5" font-family="Helvetica,sans-Serif" font-size="10.00">Predict()</text>
<text text-anchor="start" x="4" y="-20.5" font-family="Helvetica,sans-Serif" font-size="10.00">+</text>
<text text-anchor="start" x="14" y="-20.5" font-family="Helvetica,sans-Serif" font-size="10.00">Update()</text>
<text text-anchor="start" x="4" y="-5.5" font-family="Helvetica,sans-Serif" font-size="10.00">+</text>
<text text-anchor="start" x="14" y="-5.5" font-family="Helvetica,sans-Serif" font-size="10.00">Step()</text>
<polygon fill="#666666" stroke="#666666" points="0,-242 0,-242 143,-242 143,-242 0,-242"/>
<polygon fill="#666666" stroke="#666666" points="0,-92 0,-92 12,-92 12,-92 0,-92"/>
<polygon fill="#666666" stroke="#666666" points="12,-92 12,-92 143,-92 143,-92 12,-92"/>
<polygon fill="none" stroke="#666666" points="0,0 0,-259 143,-259 143,0 0,0"/>
</a>
</g>
</g>
<!-- Node1&#45;&gt;Node2 -->
<g id="edge1_Node000001_Node000002" class="edge">
<title>Node1&#45;&gt;Node2</title>
<g id="a_edge1_Node000001_Node000002"><a xlink:title=" ">
<path fill="none" stroke="#63b8ff" d="M71.5,-284.54C71.5,-276.21 71.5,-267.53 71.5,-258.73"/>
<polygon fill="none" stroke="#63b8ff" points="68,-284.27 71.5,-294.27 75,-284.27 68,-284.27"/>
</a>
</g>
</g>
</g>
</svg>
