<?xml version="1.0" encoding="UTF-8" standalone="no"?>
<!DOCTYPE svg PUBLIC "-//W3C//DTD SVG 1.1//EN"
 "http://www.w3.org/Graphics/SVG/1.1/DTD/svg11.dtd">
<!-- Generated by graphviz version 2.43.0 (0)
 -->
<!-- Title: LPT::SpaceChannel Pages: 1 -->
<svg width="141pt" height="193pt"
 viewBox="0.00 0.00 141.00 193.00" xmlns="http://www.w3.org/2000/svg" xmlns:xlink="http://www.w3.org/1999/xlink">
<g id="graph0" class="graph" transform="scale(1 1) rotate(0) translate(4 189)">
<title>LPT::SpaceChannel</title>
<polygon fill="white" stroke="transparent" points="-4,4 -4,-189 137,-189 137,4 -4,4"/>
<!-- Node1 -->
<g id="node1" class="node">
<title>Node1</title>
<g id="a_node1"><a xlink:title=" ">
<polygon fill="#bfbfbf" stroke="black" points="0,-127.5 0,-184.5 133,-184.5 133,-127.5 0,-127.5"/>
<text text-anchor="middle" x="66.5" y="-172.5" font-family="Helvetica,sans-Serif" font-size="10.00">LPT::SpaceChannel</text>
<polyline fill="none" stroke="black" points="0,-165.5 133,-165.5 "/>
<text text-anchor="middle" x="66.5" y="-153.5" font-family="Helvetica,sans-Serif" font-size="10.00"> </text>
<polyline fill="none" stroke="black" points="0,-146.5 133,-146.5 "/>
<text text-anchor="start" x="8" y="-134.5" font-family="Helvetica,sans-Serif" font-size="10.00">+ computeLinkBudget()</text>
</a>
</g>
</g>
<!-- Node2 -->
<g id="node2" class="node">
<title>Node2</title>
<g id="a_node2"><a xlink:href="classLPT_1_1GNSSChannel.html" target="_top" xlink:title=" ">
<polygon fill="white" stroke="black" points="11.5,-0.5 11.5,-90.5 121.5,-90.5 121.5,-0.5 11.5,-0.5"/>
<text text-anchor="middle" x="66.5" y="-78.5" font-family="Helvetica,sans-Serif" font-size="10.00">LPT::GNSSChannel</text>
<polyline fill="none" stroke="black" points="11.5,-71.5 121.5,-71.5 "/>
<text text-anchor="start" x="19.5" y="-59.5" font-family="Helvetica,sans-Serif" font-size="10.00">+ rx_devices</text>
<text text-anchor="start" x="19.5" y="-48.5" font-family="Helvetica,sans-Serif" font-size="10.00">+ tx_devices</text>
<polyline fill="none" stroke="black" points="11.5,-41.5 121.5,-41.5 "/>
<text text-anchor="start" x="19.5" y="-29.5" font-family="Helvetica,sans-Serif" font-size="10.00">+ AddTransmitter()</text>
<text text-anchor="start" x="19.5" y="-18.5" font-family="Helvetica,sans-Serif" font-size="10.00">+ AddReceiver()</text>
<text text-anchor="start" x="19.5" y="-7.5" font-family="Helvetica,sans-Serif" font-size="10.00">+ Receive()</text>
</a>
</g>
</g>
<!-- Node1&#45;&gt;Node2 -->
<g id="edge1" class="edge">
<title>Node1&#45;&gt;Node2</title>
<path fill="none" stroke="midnightblue" d="M66.5,-117.21C66.5,-108.61 66.5,-99.39 66.5,-90.55"/>
<polygon fill="none" stroke="midnightblue" points="63,-117.34 66.5,-127.34 70,-117.34 63,-117.34"/>
</g>
</g>
</svg>
