<?xml version="1.0" encoding="UTF-8" standalone="no"?>
<!DOCTYPE svg PUBLIC "-//W3C//DTD SVG 1.1//EN"
 "http://www.w3.org/Graphics/SVG/1.1/DTD/svg11.dtd">
<!-- Generated by graphviz version 8.1.0 (20230707.0739)
 -->
<!-- Title: LPT::J2CartesianTwoBodyDynamics Pages: 1 -->
<svg width="177pt" height="512pt"
 viewBox="0.00 0.00 177.00 512.00" xmlns="http://www.w3.org/2000/svg" xmlns:xlink="http://www.w3.org/1999/xlink">
<g id="graph0" class="graph" transform="scale(1 1) rotate(0) translate(4 508)">
<title>LPT::J2CartesianTwoBodyDynamics</title>
<!-- Node1 -->
<g id="Node000001" class="node">
<title>Node1</title>
<g id="a_Node000001"><a xlink:title=" ">
<polygon fill="#999999" stroke="none" points="169,-64 0,-64 0,0 169,0 169,-64"/>
<text text-anchor="start" x="4.62" y="-50.5" font-family="Helvetica,sans-Serif" font-size="10.00">LPT::J2CartesianTwoBodyDynamics</text>
<text text-anchor="start" x="83" y="-35.5" font-family="Helvetica,sans-Serif" font-size="10.00"> </text>
<text text-anchor="start" x="6" y="-20.5" font-family="Helvetica,sans-Serif" font-size="10.00">+</text>
<text text-anchor="start" x="18" y="-20.5" font-family="Helvetica,sans-Serif" font-size="10.00">J2CartesianTwoBodyDynamics()</text>
<text text-anchor="start" x="6" y="-5.5" font-family="Helvetica,sans-Serif" font-size="10.00">+</text>
<text text-anchor="start" x="18" y="-5.5" font-family="Helvetica,sans-Serif" font-size="10.00">ComputeRates()</text>
<polygon fill="#666666" stroke="#666666" points="0,-47 0,-47 169,-47 169,-47 0,-47"/>
<polygon fill="#666666" stroke="#666666" points="0,-32 0,-32 169,-32 169,-32 0,-32"/>
<polygon fill="none" stroke="#666666" points="0,0 0,-64 169,-64 169,0 0,0"/>
</a>
</g>
</g>
<!-- Node2 -->
<g id="Node000002" class="node">
<title>Node2</title>
<g id="a_Node000002"><a xlink:href="class_l_p_t_1_1_numerical_dynamics.html" target="_top" xlink:title=" ">
<polygon fill="white" stroke="none" points="145,-299 24,-299 24,-100 145,-100 145,-299"/>
<text text-anchor="start" x="29" y="-285.5" font-family="Helvetica,sans-Serif" font-size="10.00">LPT::NumericalDynamics</text>
<text text-anchor="start" x="83" y="-270.5" font-family="Helvetica,sans-Serif" font-size="10.00"> </text>
<text text-anchor="start" x="30" y="-255.5" font-family="Helvetica,sans-Serif" font-size="10.00">+</text>
<text text-anchor="start" x="42" y="-255.5" font-family="Helvetica,sans-Serif" font-size="10.00">NumericalDynamics()</text>
<text text-anchor="start" x="30" y="-240.5" font-family="Helvetica,sans-Serif" font-size="10.00">+</text>
<text text-anchor="start" x="42" y="-240.5" font-family="Helvetica,sans-Serif" font-size="10.00">SetDt()</text>
<text text-anchor="start" x="30" y="-225.5" font-family="Helvetica,sans-Serif" font-size="10.00">+</text>
<text text-anchor="start" x="42" y="-225.5" font-family="Helvetica,sans-Serif" font-size="10.00">Propagate()</text>
<text text-anchor="start" x="30" y="-210.5" font-family="Helvetica,sans-Serif" font-size="10.00">+</text>
<text text-anchor="start" x="42" y="-210.5" font-family="Helvetica,sans-Serif" font-size="10.00">Propagate()</text>
<text text-anchor="start" x="30" y="-195.5" font-family="Helvetica,sans-Serif" font-size="10.00">+</text>
<text text-anchor="start" x="42" y="-195.5" font-family="Helvetica,sans-Serif" font-size="10.00">PropagateWithStm()</text>
<text text-anchor="start" x="30" y="-180.5" font-family="Helvetica,sans-Serif" font-size="10.00">+</text>
<text text-anchor="start" x="42" y="-180.5" font-family="Helvetica,sans-Serif" font-size="10.00">PropagateWithStm()</text>
<text text-anchor="start" x="30" y="-165.5" font-family="Helvetica,sans-Serif" font-size="10.00">+</text>
<text text-anchor="start" x="42" y="-165.5" font-family="Helvetica,sans-Serif" font-size="10.00">Propagate()</text>
<text text-anchor="start" x="30" y="-150.5" font-family="Helvetica,sans-Serif" font-size="10.00">+</text>
<text text-anchor="start" x="42" y="-150.5" font-family="Helvetica,sans-Serif" font-size="10.00">Propagate()</text>
<text text-anchor="start" x="30" y="-135.5" font-family="Helvetica,sans-Serif" font-size="10.00">+</text>
<text text-anchor="start" x="42" y="-135.5" font-family="Helvetica,sans-Serif" font-size="10.00">PropagateWithStm()</text>
<text text-anchor="start" x="30" y="-120.5" font-family="Helvetica,sans-Serif" font-size="10.00">+</text>
<text text-anchor="start" x="42" y="-120.5" font-family="Helvetica,sans-Serif" font-size="10.00">PropagateWithStm()</text>
<text text-anchor="start" x="30.38" y="-105.5" font-family="Helvetica,sans-Serif" font-size="10.00">#</text>
<text text-anchor="start" x="42" y="-105.5" font-family="Helvetica,sans-Serif" font-size="10.00">ComputeRates()</text>
<polygon fill="#bfbfbf" stroke="#bfbfbf" points="24,-282 24,-282 145,-282 145,-282 24,-282"/>
<polygon fill="#bfbfbf" stroke="#bfbfbf" points="24,-267 24,-267 145,-267 145,-267 24,-267"/>
<polygon fill="none" stroke="#bfbfbf" points="24,-100 24,-299 145,-299 145,-100 24,-100"/>
</a>
</g>
</g>
<!-- Node2&#45;&gt;Node1 -->
<g id="edge1_Node000001_Node000002" class="edge">
<title>Node2&#45;&gt;Node1</title>
<g id="a_edge1_Node000001_Node000002"><a xlink:title=" ">
<path fill="none" stroke="#63b8ff" d="M84.5,-89.32C84.5,-80.11 84.5,-71.4 84.5,-63.69"/>
<polygon fill="none" stroke="#63b8ff" points="81,-89.32 84.5,-99.32 88,-89.32 81,-89.32"/>
</a>
</g>
</g>
<!-- Node3 -->
<g id="Node000003" class="node">
<title>Node3</title>
<g id="a_Node000003"><a xlink:href="class_l_p_t_1_1_i_orbit_dynamics.html" target="_top" xlink:title="Interface for Orbit Dynamics (Todo: find a way to inherit this from IDynamics)">
<polygon fill="white" stroke="none" points="137.5,-504 31.5,-504 31.5,-335 137.5,-335 137.5,-504"/>
<text text-anchor="start" x="39.12" y="-490.5" font-family="Helvetica,sans-Serif" font-size="10.00">LPT::IOrbitDynamics</text>
<text text-anchor="start" x="83" y="-475.5" font-family="Helvetica,sans-Serif" font-size="10.00"> </text>
<text text-anchor="start" x="35.5" y="-460.5" font-family="Helvetica,sans-Serif" font-size="10.00">+</text>
<text text-anchor="start" x="45.5" y="-460.5" font-family="Helvetica,sans-Serif" font-size="10.00">~IOrbitDynamics()</text>
<text text-anchor="start" x="35.5" y="-445.5" font-family="Helvetica,sans-Serif" font-size="10.00">+</text>
<text text-anchor="start" x="45.5" y="-445.5" font-family="Helvetica,sans-Serif" font-size="10.00">Propagate()</text>
<text text-anchor="start" x="35.5" y="-430.5" font-family="Helvetica,sans-Serif" font-size="10.00">+</text>
<text text-anchor="start" x="45.5" y="-430.5" font-family="Helvetica,sans-Serif" font-size="10.00">Propagate()</text>
<text text-anchor="start" x="35.5" y="-415.5" font-family="Helvetica,sans-Serif" font-size="10.00">+</text>
<text text-anchor="start" x="45.5" y="-415.5" font-family="Helvetica,sans-Serif" font-size="10.00">PropagateWithStm()</text>
<text text-anchor="start" x="35.5" y="-400.5" font-family="Helvetica,sans-Serif" font-size="10.00">+</text>
<text text-anchor="start" x="45.5" y="-400.5" font-family="Helvetica,sans-Serif" font-size="10.00">PropagateWithStm()</text>
<text text-anchor="start" x="35.5" y="-385.5" font-family="Helvetica,sans-Serif" font-size="10.00">+</text>
<text text-anchor="start" x="45.5" y="-385.5" font-family="Helvetica,sans-Serif" font-size="10.00">Propagate()</text>
<text text-anchor="start" x="35.5" y="-370.5" font-family="Helvetica,sans-Serif" font-size="10.00">+</text>
<text text-anchor="start" x="45.5" y="-370.5" font-family="Helvetica,sans-Serif" font-size="10.00">Propagate()</text>
<text text-anchor="start" x="35.5" y="-355.5" font-family="Helvetica,sans-Serif" font-size="10.00">+</text>
<text text-anchor="start" x="45.5" y="-355.5" font-family="Helvetica,sans-Serif" font-size="10.00">PropagateWithStm()</text>
<text text-anchor="start" x="35.5" y="-340.5" font-family="Helvetica,sans-Serif" font-size="10.00">+</text>
<text text-anchor="start" x="45.5" y="-340.5" font-family="Helvetica,sans-Serif" font-size="10.00">PropagateWithStm()</text>
<polygon fill="#666666" stroke="#666666" points="31.5,-487 31.5,-487 137.5,-487 137.5,-487 31.5,-487"/>
<polygon fill="#666666" stroke="#666666" points="31.5,-472 31.5,-472 137.5,-472 137.5,-472 31.5,-472"/>
<polygon fill="none" stroke="#666666" points="31.5,-335 31.5,-504 137.5,-504 137.5,-335 31.5,-335"/>
</a>
</g>
</g>
<!-- Node3&#45;&gt;Node2 -->
<g id="edge2_Node000002_Node000003" class="edge">
<title>Node3&#45;&gt;Node2</title>
<g id="a_edge2_Node000002_Node000003"><a xlink:title=" ">
<path fill="none" stroke="#63b8ff" d="M84.5,-324.17C84.5,-315.75 84.5,-307.22 84.5,-298.77"/>
<polygon fill="none" stroke="#63b8ff" points="81,-324.15 84.5,-334.15 88,-324.15 81,-324.15"/>
</a>
</g>
</g>
</g>
</svg>
