<?xml version="1.0" encoding="UTF-8" standalone="no"?>
<!DOCTYPE svg PUBLIC "-//W3C//DTD SVG 1.1//EN"
 "http://www.w3.org/Graphics/SVG/1.1/DTD/svg11.dtd">
<!-- Generated by graphviz version 2.43.0 (0)
 -->
<!-- Title: LPT::IFilter Pages: 1 -->
<svg width="175pt" height="369pt"
 viewBox="0.00 0.00 175.00 369.00" xmlns="http://www.w3.org/2000/svg" xmlns:xlink="http://www.w3.org/1999/xlink">
<g id="graph0" class="graph" transform="scale(1 1) rotate(0) translate(4 365)">
<title>LPT::IFilter</title>
<polygon fill="white" stroke="transparent" points="-4,4 -4,-365 171,-365 171,4 -4,4"/>
<!-- Node1 -->
<g id="node1" class="node">
<title>Node1</title>
<g id="a_node1"><a xlink:title=" ">
<polygon fill="#bfbfbf" stroke="black" points="3.5,-248.5 3.5,-360.5 163.5,-360.5 163.5,-248.5 3.5,-248.5"/>
<text text-anchor="middle" x="83.5" y="-348.5" font-family="Helvetica,sans-Serif" font-size="10.00">LPT::IFilter</text>
<polyline fill="none" stroke="black" points="3.5,-341.5 163.5,-341.5 "/>
<text text-anchor="start" x="11.5" y="-329.5" font-family="Helvetica,sans-Serif" font-size="10.00">+ dynamics</text>
<text text-anchor="start" x="11.5" y="-318.5" font-family="Helvetica,sans-Serif" font-size="10.00">+ process_noise</text>
<text text-anchor="start" x="11.5" y="-307.5" font-family="Helvetica,sans-Serif" font-size="10.00">+ measurement</text>
<polyline fill="none" stroke="black" points="3.5,-300.5 163.5,-300.5 "/>
<text text-anchor="start" x="11.5" y="-288.5" font-family="Helvetica,sans-Serif" font-size="10.00">+ ~IFilter()</text>
<text text-anchor="start" x="11.5" y="-277.5" font-family="Helvetica,sans-Serif" font-size="10.00">+ SetDynamicsFunction()</text>
<text text-anchor="start" x="11.5" y="-266.5" font-family="Helvetica,sans-Serif" font-size="10.00">+ SetProcessNoiseFunction()</text>
<text text-anchor="start" x="11.5" y="-255.5" font-family="Helvetica,sans-Serif" font-size="10.00">+ SetMeasurementFunction()</text>
</a>
</g>
</g>
<!-- Node2 -->
<g id="node2" class="node">
<title>Node2</title>
<g id="a_node2"><a xlink:href="classLPT_1_1EKF.html" target="_top" xlink:title="Extended Kalman Filter.">
<polygon fill="white" stroke="black" points="0,-0.5 0,-211.5 167,-211.5 167,-0.5 0,-0.5"/>
<text text-anchor="middle" x="83.5" y="-199.5" font-family="Helvetica,sans-Serif" font-size="10.00">LPT::EKF</text>
<polyline fill="none" stroke="black" points="0,-192.5 167,-192.5 "/>
<text text-anchor="start" x="8" y="-180.5" font-family="Helvetica,sans-Serif" font-size="10.00">+ x</text>
<text text-anchor="start" x="8" y="-169.5" font-family="Helvetica,sans-Serif" font-size="10.00">+ t_curr</text>
<text text-anchor="start" x="8" y="-158.5" font-family="Helvetica,sans-Serif" font-size="10.00">+ xbar</text>
<text text-anchor="start" x="8" y="-147.5" font-family="Helvetica,sans-Serif" font-size="10.00">+ dx</text>
<text text-anchor="start" x="8" y="-136.5" font-family="Helvetica,sans-Serif" font-size="10.00">+ P</text>
<text text-anchor="start" x="8" y="-125.5" font-family="Helvetica,sans-Serif" font-size="10.00">+ Pbar</text>
<text text-anchor="start" x="8" y="-114.5" font-family="Helvetica,sans-Serif" font-size="10.00">+ H</text>
<text text-anchor="start" x="8" y="-103.5" font-family="Helvetica,sans-Serif" font-size="10.00">+ S</text>
<text text-anchor="start" x="8" y="-92.5" font-family="Helvetica,sans-Serif" font-size="10.00">+ K</text>
<text text-anchor="start" x="8" y="-81.5" font-family="Helvetica,sans-Serif" font-size="10.00">+ I</text>
<polyline fill="none" stroke="black" points="0,-74.5 167,-74.5 "/>
<text text-anchor="start" x="8" y="-62.5" font-family="Helvetica,sans-Serif" font-size="10.00">+ Initialize()</text>
<text text-anchor="start" x="8" y="-51.5" font-family="Helvetica,sans-Serif" font-size="10.00">+ GetPredictedStateEstimate()</text>
<text text-anchor="start" x="8" y="-40.5" font-family="Helvetica,sans-Serif" font-size="10.00">+ GetUpdatedStateEstimate()</text>
<text text-anchor="start" x="8" y="-29.5" font-family="Helvetica,sans-Serif" font-size="10.00">+ Predict()</text>
<text text-anchor="start" x="8" y="-18.5" font-family="Helvetica,sans-Serif" font-size="10.00">+ Update()</text>
<text text-anchor="start" x="8" y="-7.5" font-family="Helvetica,sans-Serif" font-size="10.00">+ Step()</text>
</a>
</g>
</g>
<!-- Node1&#45;&gt;Node2 -->
<g id="edge1" class="edge">
<title>Node1&#45;&gt;Node2</title>
<path fill="none" stroke="midnightblue" d="M83.5,-238.07C83.5,-229.57 83.5,-220.7 83.5,-211.76"/>
<polygon fill="none" stroke="midnightblue" points="80,-238.24 83.5,-248.24 87,-238.24 80,-238.24"/>
</g>
</g>
</svg>
