<?xml version="1.0" encoding="UTF-8" standalone="no"?>
<!DOCTYPE svg PUBLIC "-//W3C//DTD SVG 1.1//EN"
 "http://www.w3.org/Graphics/SVG/1.1/DTD/svg11.dtd">
<!-- Generated by graphviz version 2.43.0 (0)
 -->
<!-- Title: LPT::NumericalDynamics Pages: 1 -->
<!--zoomable 507 -->
<svg id="main" version="1.1" xmlns="http://www.w3.org/2000/svg" xmlns:xlink="http://www.w3.org/1999/xlink" xml:space="preserve" onload="init(evt)">
<style type="text/css"><![CDATA[
.edge:hover path { stroke: red; }
.edge:hover polygon { stroke: red; fill: red; }
]]></style>
<script type="text/javascript"><![CDATA[
var edges = document.getElementsByTagName('g');
if (edges && edges.length) {
  for (var i=0;i<edges.length;i++) {
    if (edges[i].id.substr(0,4)=='edge') {
      edges[i].setAttribute('class','edge');
    }
  }
}
]]></script>
        <defs>
                <circle id="rim" cx="0" cy="0" r="7"/>
                <circle id="rim2" cx="0" cy="0" r="3.5"/>
                <g id="zoomPlus">
                        <use xlink:href="#rim" fill="#404040">
                                <set attributeName="fill" to="#808080" begin="zoomplus.mouseover" end="zoomplus.mouseout"/>
                        </use>
                        <path d="M-4,0h8M0,-4v8" fill="none" stroke="white" stroke-width="1.5" pointer-events="none"/>
                </g>
                <g id="zoomMin">
                        <use xlink:href="#rim" fill="#404040">
                                <set attributeName="fill" to="#808080" begin="zoomminus.mouseover" end="zoomminus.mouseout"/>
                        </use>
                        <path d="M-4,0h8" fill="none" stroke="white" stroke-width="1.5" pointer-events="none"/>
                </g>
                <g id="dirArrow">
                        <path fill="none" stroke="white" stroke-width="1.5" d="M0,-3.0v7 M-2.5,-0.5L0,-3.0L2.5,-0.5"/>
                </g>
               <g id="resetDef">
                       <use xlink:href="#rim2" fill="#404040">
                               <set attributeName="fill" to="#808080" begin="reset.mouseover" end="reset.mouseout"/>
                       </use>
               </g>
        </defs>

<script type="text/javascript">
var viewWidth = 1082;
var viewHeight = 507;
var sectionId = 'dynsection-0';
</script>
<script xlink:href="svgpan.js"/>
<svg id="graph" class="graph">
<g id="viewport">
<title>LPT::NumericalDynamics</title>
<polygon fill="white" stroke="transparent" points="-4,4 -4,-503 1077.5,-503 1077.5,4 -4,4"/>
<!-- Node1 -->
<g id="node1" class="node">
<title>Node1</title>
<g id="a_node1"><a xlink:title=" ">
<polygon fill="#bfbfbf" stroke="black" points="483,-149.5 483,-316.5 621,-316.5 621,-149.5 483,-149.5"/>
<text text-anchor="middle" x="552" y="-304.5" font-family="Helvetica,sans-Serif" font-size="10.00">LPT::NumericalDynamics</text>
<polyline fill="none" stroke="black" points="483,-297.5 621,-297.5 "/>
<text text-anchor="middle" x="552" y="-285.5" font-family="Helvetica,sans-Serif" font-size="10.00"> </text>
<polyline fill="none" stroke="black" points="483,-278.5 621,-278.5 "/>
<text text-anchor="start" x="491" y="-266.5" font-family="Helvetica,sans-Serif" font-size="10.00">+ NumericalDynamics()</text>
<text text-anchor="start" x="491" y="-255.5" font-family="Helvetica,sans-Serif" font-size="10.00">+ SetDt()</text>
<text text-anchor="start" x="491" y="-244.5" font-family="Helvetica,sans-Serif" font-size="10.00">+ Propagate()</text>
<text text-anchor="start" x="491" y="-233.5" font-family="Helvetica,sans-Serif" font-size="10.00">+ Propagate()</text>
<text text-anchor="start" x="491" y="-222.5" font-family="Helvetica,sans-Serif" font-size="10.00">+ PropagateWithStm()</text>
<text text-anchor="start" x="491" y="-211.5" font-family="Helvetica,sans-Serif" font-size="10.00">+ PropagateWithStm()</text>
<text text-anchor="start" x="491" y="-200.5" font-family="Helvetica,sans-Serif" font-size="10.00">+ Propagate()</text>
<text text-anchor="start" x="491" y="-189.5" font-family="Helvetica,sans-Serif" font-size="10.00">+ Propagate()</text>
<text text-anchor="start" x="491" y="-178.5" font-family="Helvetica,sans-Serif" font-size="10.00">+ PropagateWithStm()</text>
<text text-anchor="start" x="491" y="-167.5" font-family="Helvetica,sans-Serif" font-size="10.00">+ PropagateWithStm()</text>
<text text-anchor="start" x="491" y="-156.5" font-family="Helvetica,sans-Serif" font-size="10.00"># ComputeRates()</text>
</a>
</g>
</g>
<!-- Node3 -->
<g id="node3" class="node">
<title>Node3</title>
<g id="a_node3"><a xlink:href="classLPT_1_1CartesianTwoBodyDynamics.html" target="_top" xlink:title=" ">
<polygon fill="white" stroke="black" points="0,-22.5 0,-90.5 178,-90.5 178,-22.5 0,-22.5"/>
<text text-anchor="middle" x="89" y="-78.5" font-family="Helvetica,sans-Serif" font-size="10.00">LPT::CartesianTwoBodyDynamics</text>
<polyline fill="none" stroke="black" points="0,-71.5 178,-71.5 "/>
<text text-anchor="middle" x="89" y="-59.5" font-family="Helvetica,sans-Serif" font-size="10.00"> </text>
<polyline fill="none" stroke="black" points="0,-52.5 178,-52.5 "/>
<text text-anchor="start" x="8" y="-40.5" font-family="Helvetica,sans-Serif" font-size="10.00">+ CartesianTwoBodyDynamics()</text>
<text text-anchor="start" x="8" y="-29.5" font-family="Helvetica,sans-Serif" font-size="10.00">+ ComputeRates()</text>
</a>
</g>
</g>
<!-- Node1&#45;&gt;Node3 -->
<g id="edge2" class="edge">
<title>Node1&#45;&gt;Node3</title>
<path fill="none" stroke="midnightblue" d="M473.09,-211.42C397.77,-190.6 281.88,-155.48 186,-113 171.45,-106.56 156.27,-98.55 142.36,-90.63"/>
<polygon fill="none" stroke="midnightblue" points="472.42,-214.86 482.99,-214.14 474.27,-208.11 472.42,-214.86"/>
</g>
<!-- Node4 -->
<g id="node4" class="node">
<title>Node4</title>
<g id="a_node4"><a xlink:href="classLPT_1_1J2CartesianTwoBodyDynamics.html" target="_top" xlink:title=" ">
<polygon fill="white" stroke="black" points="195.5,-22.5 195.5,-90.5 382.5,-90.5 382.5,-22.5 195.5,-22.5"/>
<text text-anchor="middle" x="289" y="-78.5" font-family="Helvetica,sans-Serif" font-size="10.00">LPT::J2CartesianTwoBodyDynamics</text>
<polyline fill="none" stroke="black" points="195.5,-71.5 382.5,-71.5 "/>
<text text-anchor="middle" x="289" y="-59.5" font-family="Helvetica,sans-Serif" font-size="10.00"> </text>
<polyline fill="none" stroke="black" points="195.5,-52.5 382.5,-52.5 "/>
<text text-anchor="start" x="203.5" y="-40.5" font-family="Helvetica,sans-Serif" font-size="10.00">+ J2CartesianTwoBodyDynamics()</text>
<text text-anchor="start" x="203.5" y="-29.5" font-family="Helvetica,sans-Serif" font-size="10.00">+ ComputeRates()</text>
</a>
</g>
</g>
<!-- Node1&#45;&gt;Node4 -->
<g id="edge3" class="edge">
<title>Node1&#45;&gt;Node4</title>
<path fill="none" stroke="midnightblue" d="M474.56,-180.62C430.74,-151.54 377.23,-116.04 338.95,-90.64"/>
<polygon fill="none" stroke="midnightblue" points="472.63,-183.54 482.9,-186.15 476.5,-177.71 472.63,-183.54"/>
</g>
<!-- Node5 -->
<g id="node5" class="node">
<title>Node5</title>
<g id="a_node5"><a xlink:href="classLPT_1_1J2KeplerianDynamics.html" target="_top" xlink:title=" ">
<polygon fill="white" stroke="black" points="400.5,-22.5 400.5,-90.5 543.5,-90.5 543.5,-22.5 400.5,-22.5"/>
<text text-anchor="middle" x="472" y="-78.5" font-family="Helvetica,sans-Serif" font-size="10.00">LPT::J2KeplerianDynamics</text>
<polyline fill="none" stroke="black" points="400.5,-71.5 543.5,-71.5 "/>
<text text-anchor="middle" x="472" y="-59.5" font-family="Helvetica,sans-Serif" font-size="10.00"> </text>
<polyline fill="none" stroke="black" points="400.5,-52.5 543.5,-52.5 "/>
<text text-anchor="start" x="408.5" y="-40.5" font-family="Helvetica,sans-Serif" font-size="10.00">+ J2KeplerianDynamics()</text>
<text text-anchor="start" x="408.5" y="-29.5" font-family="Helvetica,sans-Serif" font-size="10.00">+ ComputeRates()</text>
</a>
</g>
</g>
<!-- Node1&#45;&gt;Node5 -->
<g id="edge4" class="edge">
<title>Node1&#45;&gt;Node5</title>
<path fill="none" stroke="midnightblue" d="M509.86,-140.08C501.74,-122.38 493.75,-104.93 487.21,-90.67"/>
<polygon fill="none" stroke="midnightblue" points="506.76,-141.72 514.11,-149.35 513.12,-138.8 506.76,-141.72"/>
</g>
<!-- Node6 -->
<g id="node6" class="node">
<title>Node6</title>
<g id="a_node6"><a xlink:href="classLPT_1_1MoonFixedDynamics.html" target="_top" xlink:title=" ">
<polygon fill="white" stroke="black" points="562,-22.5 562,-90.5 702,-90.5 702,-22.5 562,-22.5"/>
<text text-anchor="middle" x="632" y="-78.5" font-family="Helvetica,sans-Serif" font-size="10.00">LPT::MoonFixedDynamics</text>
<polyline fill="none" stroke="black" points="562,-71.5 702,-71.5 "/>
<text text-anchor="middle" x="632" y="-59.5" font-family="Helvetica,sans-Serif" font-size="10.00"> </text>
<polyline fill="none" stroke="black" points="562,-52.5 702,-52.5 "/>
<text text-anchor="start" x="570" y="-40.5" font-family="Helvetica,sans-Serif" font-size="10.00">+ MoonFixedDynamics()</text>
<text text-anchor="start" x="570" y="-29.5" font-family="Helvetica,sans-Serif" font-size="10.00">+ ComputeRates()</text>
</a>
</g>
</g>
<!-- Node1&#45;&gt;Node6 -->
<g id="edge5" class="edge">
<title>Node1&#45;&gt;Node6</title>
<path fill="none" stroke="midnightblue" d="M594.14,-140.08C602.26,-122.38 610.25,-104.93 616.79,-90.67"/>
<polygon fill="none" stroke="midnightblue" points="590.88,-138.8 589.89,-149.35 597.24,-141.72 590.88,-138.8"/>
</g>
<!-- Node7 -->
<g id="node7" class="node">
<title>Node7</title>
<g id="a_node7"><a xlink:href="classLPT_1_1MoonMeanDynamics.html" target="_top" xlink:title=" ">
<polygon fill="white" stroke="black" points="720,-22.5 720,-90.5 862,-90.5 862,-22.5 720,-22.5"/>
<text text-anchor="middle" x="791" y="-78.5" font-family="Helvetica,sans-Serif" font-size="10.00">LPT::MoonMeanDynamics</text>
<polyline fill="none" stroke="black" points="720,-71.5 862,-71.5 "/>
<text text-anchor="middle" x="791" y="-59.5" font-family="Helvetica,sans-Serif" font-size="10.00"> </text>
<polyline fill="none" stroke="black" points="720,-52.5 862,-52.5 "/>
<text text-anchor="start" x="728" y="-40.5" font-family="Helvetica,sans-Serif" font-size="10.00">+ MoonMeanDynamics()</text>
<text text-anchor="start" x="728" y="-29.5" font-family="Helvetica,sans-Serif" font-size="10.00">+ ComputeRates()</text>
</a>
</g>
</g>
<!-- Node1&#45;&gt;Node7 -->
<g id="edge6" class="edge">
<title>Node1&#45;&gt;Node7</title>
<path fill="none" stroke="midnightblue" d="M629.24,-175.61C667.74,-147.49 712.97,-114.47 745.8,-90.5"/>
<polygon fill="none" stroke="midnightblue" points="627.14,-172.8 621.13,-181.53 631.27,-178.46 627.14,-172.8"/>
</g>
<!-- Node8 -->
<g id="node8" class="node">
<title>Node8</title>
<g id="a_node8"><a xlink:href="classLPT_1_1NBodyDynamics.html" target="_top" xlink:title=" ">
<polygon fill="white" stroke="black" points="880.5,-0.5 880.5,-112.5 1073.5,-112.5 1073.5,-0.5 880.5,-0.5"/>
<text text-anchor="middle" x="977" y="-100.5" font-family="Helvetica,sans-Serif" font-size="10.00">LPT::NBodyDynamics</text>
<polyline fill="none" stroke="black" points="880.5,-93.5 1073.5,-93.5 "/>
<text text-anchor="middle" x="977" y="-81.5" font-family="Helvetica,sans-Serif" font-size="10.00"> </text>
<polyline fill="none" stroke="black" points="880.5,-74.5 1073.5,-74.5 "/>
<text text-anchor="start" x="888.5" y="-62.5" font-family="Helvetica,sans-Serif" font-size="10.00">+ NBodyDynamics()</text>
<text text-anchor="start" x="888.5" y="-51.5" font-family="Helvetica,sans-Serif" font-size="10.00">+ ComputeRates()</text>
<text text-anchor="start" x="888.5" y="-40.5" font-family="Helvetica,sans-Serif" font-size="10.00">+ AddBody()</text>
<text text-anchor="start" x="888.5" y="-29.5" font-family="Helvetica,sans-Serif" font-size="10.00">+ SetCentralBody()</text>
<text text-anchor="start" x="888.5" y="-18.5" font-family="Helvetica,sans-Serif" font-size="10.00">+ ComputeNBodyGravity()</text>
<text text-anchor="start" x="888.5" y="-7.5" font-family="Helvetica,sans-Serif" font-size="10.00">+ ComputeSolarRadiationPressure()</text>
</a>
</g>
</g>
<!-- Node1&#45;&gt;Node8 -->
<g id="edge7" class="edge">
<title>Node1&#45;&gt;Node8</title>
<path fill="none" stroke="midnightblue" d="M630.95,-205.65C696.18,-183.14 790.77,-148.8 871,-113 874.13,-111.6 877.3,-110.16 880.48,-108.67"/>
<polygon fill="none" stroke="midnightblue" points="629.46,-202.46 621.14,-209.02 631.73,-209.08 629.46,-202.46"/>
</g>
<!-- Node2 -->
<g id="node2" class="node">
<title>Node2</title>
<g id="a_node2"><a xlink:href="classLPT_1_1IOrbitDynamics.html" target="_top" xlink:title="Interface for Orbit Dynamics (Todo: find a way to inherit this from IDynamics)">
<polygon fill="white" stroke="black" points="488.5,-353.5 488.5,-498.5 615.5,-498.5 615.5,-353.5 488.5,-353.5"/>
<text text-anchor="middle" x="552" y="-486.5" font-family="Helvetica,sans-Serif" font-size="10.00">LPT::IOrbitDynamics</text>
<polyline fill="none" stroke="black" points="488.5,-479.5 615.5,-479.5 "/>
<text text-anchor="middle" x="552" y="-467.5" font-family="Helvetica,sans-Serif" font-size="10.00"> </text>
<polyline fill="none" stroke="black" points="488.5,-460.5 615.5,-460.5 "/>
<text text-anchor="start" x="496.5" y="-448.5" font-family="Helvetica,sans-Serif" font-size="10.00">+ ~IOrbitDynamics()</text>
<text text-anchor="start" x="496.5" y="-437.5" font-family="Helvetica,sans-Serif" font-size="10.00">+ Propagate()</text>
<text text-anchor="start" x="496.5" y="-426.5" font-family="Helvetica,sans-Serif" font-size="10.00">+ Propagate()</text>
<text text-anchor="start" x="496.5" y="-415.5" font-family="Helvetica,sans-Serif" font-size="10.00">+ PropagateWithStm()</text>
<text text-anchor="start" x="496.5" y="-404.5" font-family="Helvetica,sans-Serif" font-size="10.00">+ PropagateWithStm()</text>
<text text-anchor="start" x="496.5" y="-393.5" font-family="Helvetica,sans-Serif" font-size="10.00">+ Propagate()</text>
<text text-anchor="start" x="496.5" y="-382.5" font-family="Helvetica,sans-Serif" font-size="10.00">+ Propagate()</text>
<text text-anchor="start" x="496.5" y="-371.5" font-family="Helvetica,sans-Serif" font-size="10.00">+ PropagateWithStm()</text>
<text text-anchor="start" x="496.5" y="-360.5" font-family="Helvetica,sans-Serif" font-size="10.00">+ PropagateWithStm()</text>
</a>
</g>
</g>
<!-- Node2&#45;&gt;Node1 -->
<g id="edge1" class="edge">
<title>Node2&#45;&gt;Node1</title>
<path fill="none" stroke="midnightblue" d="M552,-343.13C552,-334.37 552,-325.45 552,-316.67"/>
<polygon fill="none" stroke="midnightblue" points="548.5,-343.34 552,-353.34 555.5,-343.34 548.5,-343.34"/>
</g>
</g>
</svg>
        <g id="navigator" transform="translate(0 0)" fill="#404254">
                <rect fill="#f2f5e9" fill-opacity="0.5" stroke="#606060" stroke-width=".5" x="0" y="0" width="60" height="60"/>
                <use id="zoomplus" xlink:href="#zoomPlus" x="17" y="9" onmousedown="handleZoom(evt,'in')"/>
                <use id="zoomminus" xlink:href="#zoomMin" x="42" y="9" onmousedown="handleZoom(evt,'out')"/>
                <use id="reset" xlink:href="#resetDef" x="30" y="36" onmousedown="handleReset()"/>
                <g id="arrowUp" xlink:href="#dirArrow" transform="translate(30 24)" onmousedown="handlePan(0,-1)">
                  <use xlink:href="#rim" fill="#404040">
                        <set attributeName="fill" to="#808080" begin="arrowUp.mouseover" end="arrowUp.mouseout"/>
                  </use>
                  <path fill="none" stroke="white" stroke-width="1.5" d="M0,-3.0v7 M-2.5,-0.5L0,-3.0L2.5,-0.5"/>
                </g>
                <g id="arrowRight" xlink:href="#dirArrow" transform="rotate(90) translate(36 -43)" onmousedown="handlePan(1,0)">
                  <use xlink:href="#rim" fill="#404040">
                        <set attributeName="fill" to="#808080" begin="arrowRight.mouseover" end="arrowRight.mouseout"/>
                  </use>
                  <path fill="none" stroke="white" stroke-width="1.5" d="M0,-3.0v7 M-2.5,-0.5L0,-3.0L2.5,-0.5"/>
                </g>
                <g id="arrowDown" xlink:href="#dirArrow" transform="rotate(180) translate(-30 -48)" onmousedown="handlePan(0,1)">
                  <use xlink:href="#rim" fill="#404040">
                        <set attributeName="fill" to="#808080" begin="arrowDown.mouseover" end="arrowDown.mouseout"/>
                  </use>
                  <path fill="none" stroke="white" stroke-width="1.5" d="M0,-3.0v7 M-2.5,-0.5L0,-3.0L2.5,-0.5"/>
                </g>
                <g id="arrowLeft" xlink:href="#dirArrow" transform="rotate(270) translate(-36 17)" onmousedown="handlePan(-1,0)">
                  <use xlink:href="#rim" fill="#404040">
                        <set attributeName="fill" to="#808080" begin="arrowLeft.mouseover" end="arrowLeft.mouseout"/>
                  </use>
                  <path fill="none" stroke="white" stroke-width="1.5" d="M0,-3.0v7 M-2.5,-0.5L0,-3.0L2.5,-0.5"/>
                </g>
        </g>
        <svg viewBox="0 0 15 15" width="100%" height="30px" preserveAspectRatio="xMaxYMin meet">
         <g id="arrow_out" transform="scale(0.3 0.3)">
          <a xlink:href="classLPT_1_1NumericalDynamics__inherit__graph_org.svg" target="_base">
           <rect id="button" ry="5" rx="5" y="6" x="6" height="38" width="38"
                fill="#f2f5e9" fill-opacity="0.5" stroke="#606060" stroke-width="1.0"/>
           <path id="arrow"
             d="M 11.500037,31.436501 C 11.940474,20.09759 22.043105,11.32322 32.158766,21.979434 L 37.068811,17.246167 C 37.068811,17.246167 37.088388,32 37.088388,32 L 22.160133,31.978069 C 22.160133,31.978069 26.997745,27.140456 26.997745,27.140456 C 18.528582,18.264221 13.291696,25.230495 11.500037,31.436501 z"
             style="fill:#404040;"/>
          </a>
         </g>
        </svg>
</svg>
