<?xml version="1.0" encoding="UTF-8" standalone="no"?>
<!DOCTYPE svg PUBLIC "-//W3C//DTD SVG 1.1//EN"
 "http://www.w3.org/Graphics/SVG/1.1/DTD/svg11.dtd">
<!-- Generated by graphviz version 8.1.0 (20230707.0739)
 -->
<!-- Title: LPT::YamanakaAnkersenDynamics Pages: 1 -->
<svg width="171pt" height="262pt"
 viewBox="0.00 0.00 171.00 262.00" xmlns="http://www.w3.org/2000/svg" xmlns:xlink="http://www.w3.org/1999/xlink">
<g id="graph0" class="graph" transform="scale(1 1) rotate(0) translate(4 258)">
<title>LPT::YamanakaAnkersenDynamics</title>
<!-- Node1 -->
<g id="Node000001" class="node">
<title>Node1</title>
<g id="a_Node000001"><a xlink:title=" ">
<polygon fill="#999999" stroke="none" points="163,-109 0,-109 0,0 163,0 163,-109"/>
<text text-anchor="start" x="4.62" y="-95.5" font-family="Helvetica,sans-Serif" font-size="10.00">LPT::YamanakaAnkersenDynamics</text>
<text text-anchor="start" x="80" y="-80.5" font-family="Helvetica,sans-Serif" font-size="10.00"> </text>
<text text-anchor="start" x="6" y="-65.5" font-family="Helvetica,sans-Serif" font-size="10.00">+</text>
<text text-anchor="start" x="18" y="-65.5" font-family="Helvetica,sans-Serif" font-size="10.00">YamanakaAnkersenDynamics()</text>
<text text-anchor="start" x="6" y="-50.5" font-family="Helvetica,sans-Serif" font-size="10.00">+</text>
<text text-anchor="start" x="18" y="-50.5" font-family="Helvetica,sans-Serif" font-size="10.00">Propagate()</text>
<text text-anchor="start" x="6" y="-35.5" font-family="Helvetica,sans-Serif" font-size="10.00">+</text>
<text text-anchor="start" x="18" y="-35.5" font-family="Helvetica,sans-Serif" font-size="10.00">Initialize()</text>
<text text-anchor="start" x="6" y="-20.5" font-family="Helvetica,sans-Serif" font-size="10.00">+</text>
<text text-anchor="start" x="18" y="-20.5" font-family="Helvetica,sans-Serif" font-size="10.00">ComputeMatrix()</text>
<text text-anchor="start" x="6" y="-5.5" font-family="Helvetica,sans-Serif" font-size="10.00">+</text>
<text text-anchor="start" x="18" y="-5.5" font-family="Helvetica,sans-Serif" font-size="10.00">ComputeInverseMatrix()</text>
<polygon fill="#666666" stroke="#666666" points="0,-92 0,-92 163,-92 163,-92 0,-92"/>
<polygon fill="#666666" stroke="#666666" points="0,-77 0,-77 163,-77 163,-77 0,-77"/>
<polygon fill="none" stroke="#666666" points="0,0 0,-109 163,-109 163,0 0,0"/>
</a>
</g>
</g>
<!-- Node2 -->
<g id="Node000002" class="node">
<title>Node2</title>
<g id="a_Node000002"><a xlink:href="class_l_p_t_1_1_i_analytical_dynamics.html" target="_top" xlink:title=" ">
<polygon fill="white" stroke="none" points="142.5,-254 20.5,-254 20.5,-145 142.5,-145 142.5,-254"/>
<text text-anchor="start" x="25.25" y="-240.5" font-family="Helvetica,sans-Serif" font-size="10.00">LPT::IAnalyticalDynamics</text>
<text text-anchor="start" x="80" y="-225.5" font-family="Helvetica,sans-Serif" font-size="10.00"> </text>
<text text-anchor="start" x="25" y="-210.5" font-family="Helvetica,sans-Serif" font-size="10.00">+</text>
<text text-anchor="start" x="35.5" y="-210.5" font-family="Helvetica,sans-Serif" font-size="10.00">~IAnalyticalDynamics()</text>
<text text-anchor="start" x="25" y="-195.5" font-family="Helvetica,sans-Serif" font-size="10.00">+</text>
<text text-anchor="start" x="35.5" y="-195.5" font-family="Helvetica,sans-Serif" font-size="10.00">Propagate()</text>
<text text-anchor="start" x="25" y="-180.5" font-family="Helvetica,sans-Serif" font-size="10.00">+</text>
<text text-anchor="start" x="35.5" y="-180.5" font-family="Helvetica,sans-Serif" font-size="10.00">Propagate()</text>
<text text-anchor="start" x="25" y="-165.5" font-family="Helvetica,sans-Serif" font-size="10.00">+</text>
<text text-anchor="start" x="35.5" y="-165.5" font-family="Helvetica,sans-Serif" font-size="10.00">PropagateWithSTM()</text>
<text text-anchor="start" x="25" y="-150.5" font-family="Helvetica,sans-Serif" font-size="10.00">+</text>
<text text-anchor="start" x="35.5" y="-150.5" font-family="Helvetica,sans-Serif" font-size="10.00">PropagateWithSTM()</text>
<polygon fill="#bfbfbf" stroke="#bfbfbf" points="20.5,-237 20.5,-237 142.5,-237 142.5,-237 20.5,-237"/>
<polygon fill="#bfbfbf" stroke="#bfbfbf" points="20.5,-222 20.5,-222 142.5,-222 142.5,-222 20.5,-222"/>
<polygon fill="none" stroke="#bfbfbf" points="20.5,-145 20.5,-254 142.5,-254 142.5,-145 20.5,-145"/>
</a>
</g>
</g>
<!-- Node2&#45;&gt;Node1 -->
<g id="edge1_Node000001_Node000002" class="edge">
<title>Node2&#45;&gt;Node1</title>
<g id="a_edge1_Node000001_Node000002"><a xlink:title=" ">
<path fill="none" stroke="#63b8ff" d="M81.5,-134.49C81.5,-125.9 81.5,-117.17 81.5,-108.79"/>
<polygon fill="none" stroke="#63b8ff" points="78,-134.25 81.5,-144.25 85,-134.25 78,-134.25"/>
</a>
</g>
</g>
</g>
</svg>
