<?xml version="1.0" encoding="UTF-8" standalone="no"?>
<!DOCTYPE svg PUBLIC "-//W3C//DTD SVG 1.1//EN"
 "http://www.w3.org/Graphics/SVG/1.1/DTD/svg11.dtd">
<!-- Generated by graphviz version 2.43.0 (0)
 -->
<!-- Title: LPT::IAnalyticalDynamics Pages: 1 -->
<svg width="598pt" height="248pt"
 viewBox="0.00 0.00 598.00 248.00" xmlns="http://www.w3.org/2000/svg" xmlns:xlink="http://www.w3.org/1999/xlink">
<g id="graph0" class="graph" transform="scale(1 1) rotate(0) translate(4 244)">
<title>LPT::IAnalyticalDynamics</title>
<polygon fill="white" stroke="transparent" points="-4,4 -4,-244 594,-244 594,4 -4,4"/>
<!-- Node1 -->
<g id="node1" class="node">
<title>Node1</title>
<g id="a_node1"><a xlink:title=" ">
<polygon fill="#bfbfbf" stroke="black" points="220,-138.5 220,-239.5 364,-239.5 364,-138.5 220,-138.5"/>
<text text-anchor="middle" x="292" y="-227.5" font-family="Helvetica,sans-Serif" font-size="10.00">LPT::IAnalyticalDynamics</text>
<polyline fill="none" stroke="black" points="220,-220.5 364,-220.5 "/>
<text text-anchor="middle" x="292" y="-208.5" font-family="Helvetica,sans-Serif" font-size="10.00"> </text>
<polyline fill="none" stroke="black" points="220,-201.5 364,-201.5 "/>
<text text-anchor="start" x="228" y="-189.5" font-family="Helvetica,sans-Serif" font-size="10.00">+ ~IAnalyticalDynamics()</text>
<text text-anchor="start" x="228" y="-178.5" font-family="Helvetica,sans-Serif" font-size="10.00">+ Propagate()</text>
<text text-anchor="start" x="228" y="-167.5" font-family="Helvetica,sans-Serif" font-size="10.00">+ Propagate()</text>
<text text-anchor="start" x="228" y="-156.5" font-family="Helvetica,sans-Serif" font-size="10.00">+ PropagateWithSTM()</text>
<text text-anchor="start" x="228" y="-145.5" font-family="Helvetica,sans-Serif" font-size="10.00">+ PropagateWithSTM()</text>
</a>
</g>
</g>
<!-- Node2 -->
<g id="node2" class="node">
<title>Node2</title>
<g id="a_node2"><a xlink:href="classLPT_1_1ClohessyWiltshireDynamics.html" target="_top" xlink:title=" ">
<polygon fill="white" stroke="black" points="0,-6 0,-96 176,-96 176,-6 0,-6"/>
<text text-anchor="middle" x="88" y="-84" font-family="Helvetica,sans-Serif" font-size="10.00">LPT::ClohessyWiltshireDynamics</text>
<polyline fill="none" stroke="black" points="0,-77 176,-77 "/>
<text text-anchor="middle" x="88" y="-65" font-family="Helvetica,sans-Serif" font-size="10.00"> </text>
<polyline fill="none" stroke="black" points="0,-58 176,-58 "/>
<text text-anchor="start" x="8" y="-46" font-family="Helvetica,sans-Serif" font-size="10.00">+ ClohessyWiltshireDynamics()</text>
<text text-anchor="start" x="8" y="-35" font-family="Helvetica,sans-Serif" font-size="10.00">+ Propagate()</text>
<text text-anchor="start" x="8" y="-24" font-family="Helvetica,sans-Serif" font-size="10.00">+ Initialize()</text>
<text text-anchor="start" x="8" y="-13" font-family="Helvetica,sans-Serif" font-size="10.00">+ ComputeMatrix()</text>
</a>
</g>
</g>
<!-- Node1&#45;&gt;Node2 -->
<g id="edge1" class="edge">
<title>Node1&#45;&gt;Node2</title>
<path fill="none" stroke="midnightblue" d="M211.46,-134.31C192.52,-121.68 172.55,-108.37 154.32,-96.21"/>
<polygon fill="none" stroke="midnightblue" points="209.53,-137.23 219.79,-139.86 213.41,-131.4 209.53,-137.23"/>
</g>
<!-- Node3 -->
<g id="node3" class="node">
<title>Node3</title>
<g id="a_node3"><a xlink:href="classLPT_1_1RoeGeometricMappingDynamics.html" target="_top" xlink:title=" ">
<polygon fill="white" stroke="black" points="194,-0.5 194,-101.5 390,-101.5 390,-0.5 194,-0.5"/>
<text text-anchor="start" x="202" y="-89.5" font-family="Helvetica,sans-Serif" font-size="10.00">LPT::RoeGeometricMapping</text>
<text text-anchor="middle" x="292" y="-78.5" font-family="Helvetica,sans-Serif" font-size="10.00">Dynamics</text>
<polyline fill="none" stroke="black" points="194,-71.5 390,-71.5 "/>
<text text-anchor="middle" x="292" y="-59.5" font-family="Helvetica,sans-Serif" font-size="10.00"> </text>
<polyline fill="none" stroke="black" points="194,-52.5 390,-52.5 "/>
<text text-anchor="start" x="202" y="-40.5" font-family="Helvetica,sans-Serif" font-size="10.00">+ RoeGeometricMappingDynamics()</text>
<text text-anchor="start" x="202" y="-29.5" font-family="Helvetica,sans-Serif" font-size="10.00">+ Propagate()</text>
<text text-anchor="start" x="202" y="-18.5" font-family="Helvetica,sans-Serif" font-size="10.00">+ Initialize()</text>
<text text-anchor="start" x="202" y="-7.5" font-family="Helvetica,sans-Serif" font-size="10.00">+ ComputeMatrix()</text>
</a>
</g>
</g>
<!-- Node1&#45;&gt;Node3 -->
<g id="edge2" class="edge">
<title>Node1&#45;&gt;Node3</title>
<path fill="none" stroke="midnightblue" d="M292,-128C292,-119.27 292,-110.36 292,-101.86"/>
<polygon fill="none" stroke="midnightblue" points="288.5,-128.13 292,-138.13 295.5,-128.13 288.5,-128.13"/>
</g>
<!-- Node4 -->
<g id="node4" class="node">
<title>Node4</title>
<g id="a_node4"><a xlink:href="classLPT_1_1YamanakaAnkersenDynamics.html" target="_top" xlink:title=" ">
<polygon fill="white" stroke="black" points="408,-0.5 408,-101.5 590,-101.5 590,-0.5 408,-0.5"/>
<text text-anchor="middle" x="499" y="-89.5" font-family="Helvetica,sans-Serif" font-size="10.00">LPT::YamanakaAnkersenDynamics</text>
<polyline fill="none" stroke="black" points="408,-82.5 590,-82.5 "/>
<text text-anchor="middle" x="499" y="-70.5" font-family="Helvetica,sans-Serif" font-size="10.00"> </text>
<polyline fill="none" stroke="black" points="408,-63.5 590,-63.5 "/>
<text text-anchor="start" x="416" y="-51.5" font-family="Helvetica,sans-Serif" font-size="10.00">+ YamanakaAnkersenDynamics()</text>
<text text-anchor="start" x="416" y="-40.5" font-family="Helvetica,sans-Serif" font-size="10.00">+ Propagate()</text>
<text text-anchor="start" x="416" y="-29.5" font-family="Helvetica,sans-Serif" font-size="10.00">+ Initialize()</text>
<text text-anchor="start" x="416" y="-18.5" font-family="Helvetica,sans-Serif" font-size="10.00">+ ComputeMatrix()</text>
<text text-anchor="start" x="416" y="-7.5" font-family="Helvetica,sans-Serif" font-size="10.00">+ ComputeInverseMatrix()</text>
</a>
</g>
</g>
<!-- Node1&#45;&gt;Node4 -->
<g id="edge3" class="edge">
<title>Node1&#45;&gt;Node4</title>
<path fill="none" stroke="midnightblue" d="M372.78,-134.93C389.52,-123.93 407.1,-112.38 423.64,-101.52"/>
<polygon fill="none" stroke="midnightblue" points="370.54,-132.21 364.11,-140.62 374.39,-138.06 370.54,-132.21"/>
</g>
</g>
</svg>
