<?xml version="1.0" encoding="UTF-8" standalone="no"?>
<!DOCTYPE svg PUBLIC "-//W3C//DTD SVG 1.1//EN"
 "http://www.w3.org/Graphics/SVG/1.1/DTD/svg11.dtd">
<!-- Generated by graphviz version 8.1.0 (20230707.0739)
 -->
<!-- Title: LPT::JointState Pages: 1 -->
<svg width="116pt" height="117pt"
 viewBox="0.00 0.00 116.00 117.00" xmlns="http://www.w3.org/2000/svg" xmlns:xlink="http://www.w3.org/1999/xlink">
<g id="graph0" class="graph" transform="scale(1 1) rotate(0) translate(4 113)">
<title>LPT::JointState</title>
<!-- Node1 -->
<g id="Node000001" class="node">
<title>Node1</title>
<g id="a_Node000001"><a xlink:title="Stack of multiple state types (example: orbit and clock)">
<polygon fill="#999999" stroke="none" points="108,-109 0,-109 0,0 108,0 108,-109"/>
<text text-anchor="start" x="20.62" y="-95.5" font-family="Helvetica,sans-Serif" font-size="10.00">LPT::JointState</text>
<text text-anchor="start" x="52.5" y="-80.5" font-family="Helvetica,sans-Serif" font-size="10.00"> </text>
<text text-anchor="start" x="4" y="-65.5" font-family="Helvetica,sans-Serif" font-size="10.00">+</text>
<text text-anchor="start" x="14" y="-65.5" font-family="Helvetica,sans-Serif" font-size="10.00">JointState()</text>
<text text-anchor="start" x="4" y="-50.5" font-family="Helvetica,sans-Serif" font-size="10.00">+</text>
<text text-anchor="start" x="14" y="-50.5" font-family="Helvetica,sans-Serif" font-size="10.00">JointState()</text>
<text text-anchor="start" x="4" y="-35.5" font-family="Helvetica,sans-Serif" font-size="10.00">+</text>
<text text-anchor="start" x="14" y="-35.5" font-family="Helvetica,sans-Serif" font-size="10.00">PushBackState()</text>
<text text-anchor="start" x="4" y="-20.5" font-family="Helvetica,sans-Serif" font-size="10.00">+</text>
<text text-anchor="start" x="14" y="-20.5" font-family="Helvetica,sans-Serif" font-size="10.00">GetJointState()</text>
<text text-anchor="start" x="4" y="-5.5" font-family="Helvetica,sans-Serif" font-size="10.00">+</text>
<text text-anchor="start" x="14" y="-5.5" font-family="Helvetica,sans-Serif" font-size="10.00">GetJointStateValue()</text>
<polygon fill="#666666" stroke="#666666" points="0,-92 0,-92 108,-92 108,-92 0,-92"/>
<polygon fill="#666666" stroke="#666666" points="0,-77 0,-77 108,-77 108,-77 0,-77"/>
<polygon fill="none" stroke="#666666" points="0,0 0,-109 108,-109 108,0 0,0"/>
</a>
</g>
</g>
</g>
</svg>
