<?xml version="1.0" encoding="UTF-8" standalone="no"?>
<!DOCTYPE svg PUBLIC "-//W3C//DTD SVG 1.1//EN"
 "http://www.w3.org/Graphics/SVG/1.1/DTD/svg11.dtd">
<!-- Generated by graphviz version 8.1.0 (20230707.0739)
 -->
<!-- Title: LPT::NumericalPropagator Pages: 1 -->
<svg width="132pt" height="102pt"
 viewBox="0.00 0.00 132.00 102.00" xmlns="http://www.w3.org/2000/svg" xmlns:xlink="http://www.w3.org/1999/xlink">

<svg id="main" version="1.1" xmlns="http://www.w3.org/2000/svg" xmlns:xlink="http://www.w3.org/1999/xlink" xml:space="preserve" onload="init(evt)">
<style type="text/css"><![CDATA[
.node, .edge {opacity: 0.7;}
.node.selected, .edge.selected {opacity: 1;}
.edge:hover path { stroke: red; }
.edge:hover polygon { stroke: red; fill: red; }
]]></style>
<script type="application/ecmascript" xlink:href="svg.min.js"/>
<svg id="graph" class="graph">
<g id="graph0" class="graph" transform="scale(1 1) rotate(0) translate(4 98)">
<title>LPT::NumericalPropagator</title>
<!-- Node1 -->
<g id="Node000001" class="node">
<title>Node1</title>
<g id="a_Node000001"><a xlink:title=" ">
<polygon fill="#999999" stroke="none" points="124,-94 0,-94 0,0 124,0 124,-94"/>
<text text-anchor="start" x="5" y="-80.5" font-family="Helvetica,sans-Serif" font-size="10.00">LPT::NumericalPropagator</text>
<text text-anchor="start" x="6" y="-65.5" font-family="Helvetica,sans-Serif" font-size="10.00">+</text>
<text text-anchor="start" x="18" y="-65.5" font-family="Helvetica,sans-Serif" font-size="10.00">integrator</text>
<text text-anchor="start" x="6" y="-50.5" font-family="Helvetica,sans-Serif" font-size="10.00">+</text>
<text text-anchor="start" x="18" y="-50.5" font-family="Helvetica,sans-Serif" font-size="10.00">NumericalPropagator()</text>
<text text-anchor="start" x="6" y="-35.5" font-family="Helvetica,sans-Serif" font-size="10.00">+</text>
<text text-anchor="start" x="18" y="-35.5" font-family="Helvetica,sans-Serif" font-size="10.00">NumericalPropagator()</text>
<text text-anchor="start" x="6" y="-20.5" font-family="Helvetica,sans-Serif" font-size="10.00">+</text>
<text text-anchor="start" x="18" y="-20.5" font-family="Helvetica,sans-Serif" font-size="10.00">Propagate()</text>
<text text-anchor="start" x="6" y="-5.5" font-family="Helvetica,sans-Serif" font-size="10.00">+</text>
<text text-anchor="start" x="18" y="-5.5" font-family="Helvetica,sans-Serif" font-size="10.00">PropagateWithStm()</text>
<polygon fill="#666666" stroke="#666666" points="0,-77 0,-77 124,-77 124,-77 0,-77"/>
<polygon fill="#666666" stroke="#666666" points="0,-62 0,-62 16,-62 16,-62 0,-62"/>
<polygon fill="#666666" stroke="#666666" points="16,-62 16,-62 124,-62 124,-62 16,-62"/>
<polygon fill="none" stroke="#666666" points="0,0 0,-94 124,-94 124,0 0,0"/>
</a>
</g>
</g>
</g>
</svg>
</svg>

<style type='text/css'>
<![CDATA[
[data-mouse-over-selected='false'] { opacity: 0.7; }
[data-mouse-over-selected='true']  { opacity: 1.0; }
]]>
</style>
<script type="application/ecmascript"><![CDATA[
document.addEventListener('DOMContentLoaded', (event) => {
  highlightEdges();
  highlightAdjacentNodes();
});
]]></script>
</svg>
