<?xml version="1.0" encoding="UTF-8" standalone="no"?>
<!DOCTYPE svg PUBLIC "-//W3C//DTD SVG 1.1//EN"
 "http://www.w3.org/Graphics/SVG/1.1/DTD/svg11.dtd">
<!-- Generated by graphviz version 2.43.0 (0)
 -->
<!-- Title: LPT::Antenna::GetAntennaGain Pages: 1 -->
<svg width="320pt" height="102pt"
 viewBox="0.00 0.00 320.00 102.00" xmlns="http://www.w3.org/2000/svg" xmlns:xlink="http://www.w3.org/1999/xlink">
<g id="graph0" class="graph" transform="scale(1 1) rotate(0) translate(4 98)">
<title>LPT::Antenna::GetAntennaGain</title>
<polygon fill="white" stroke="transparent" points="-4,4 -4,-98 316,-98 316,4 -4,4"/>
<!-- Node1 -->
<g id="node1" class="node">
<title>Node1</title>
<g id="a_node1"><a xlink:title="Get the Antenna Gain object.">
<polygon fill="#bfbfbf" stroke="black" points="0,-28.5 0,-47.5 166,-47.5 166,-28.5 0,-28.5"/>
<text text-anchor="middle" x="83" y="-35.5" font-family="Helvetica,sans-Serif" font-size="10.00">LPT::Antenna::GetAntennaGain</text>
</a>
</g>
</g>
<!-- Node2 -->
<g id="node2" class="node">
<title>Node2</title>
<g id="a_node2"><a xlink:href="MathUtils_8cpp.html#a7d0e1b3d0f9fcf5f942dee923bf1242e" target="_top" xlink:title="Linear interpolation of a 2D data set.">
<polygon fill="white" stroke="black" points="202,-56.5 202,-75.5 312,-75.5 312,-56.5 202,-56.5"/>
<text text-anchor="middle" x="257" y="-63.5" font-family="Helvetica,sans-Serif" font-size="10.00">LPT::LinearInterp1d</text>
</a>
</g>
</g>
<!-- Node1&#45;&gt;Node2 -->
<g id="edge1" class="edge">
<title>Node1&#45;&gt;Node2</title>
<path fill="none" stroke="midnightblue" d="M142.71,-47.56C158.59,-50.14 175.85,-52.95 192,-55.58"/>
<polygon fill="midnightblue" stroke="midnightblue" points="191.46,-59.04 201.89,-57.19 192.58,-52.13 191.46,-59.04"/>
</g>
<!-- Node3 -->
<g id="node3" class="node">
<title>Node3</title>
<g id="a_node3"><a xlink:href="MathUtils_8cpp.html#a18b2a0d53374293cd63a05dfc7703a48" target="_top" xlink:title="Linear interpolation of a 2D data set.">
<polygon fill="white" stroke="black" points="202,-0.5 202,-19.5 312,-19.5 312,-0.5 202,-0.5"/>
<text text-anchor="middle" x="257" y="-7.5" font-family="Helvetica,sans-Serif" font-size="10.00">LPT::LinearInterp2d</text>
</a>
</g>
</g>
<!-- Node1&#45;&gt;Node3 -->
<g id="edge3" class="edge">
<title>Node1&#45;&gt;Node3</title>
<path fill="none" stroke="midnightblue" d="M142.71,-28.44C158.59,-25.86 175.85,-23.05 192,-20.42"/>
<polygon fill="midnightblue" stroke="midnightblue" points="192.58,-23.87 201.89,-18.81 191.46,-16.96 192.58,-23.87"/>
</g>
<!-- Node2&#45;&gt;Node2 -->
<g id="edge2" class="edge">
<title>Node2&#45;&gt;Node2</title>
<path fill="none" stroke="midnightblue" d="M230.18,-75.76C217.13,-84.57 226.07,-94 257,-94 277.78,-94 288.63,-89.74 289.56,-84.27"/>
<polygon fill="midnightblue" stroke="midnightblue" points="292.31,-82.09 283.82,-75.76 286.51,-86.01 292.31,-82.09"/>
</g>
<!-- Node3&#45;&gt;Node3 -->
<g id="edge4" class="edge">
<title>Node3&#45;&gt;Node3</title>
<path fill="none" stroke="midnightblue" d="M230.18,-19.76C217.13,-28.57 226.07,-38 257,-38 277.78,-38 288.63,-33.74 289.56,-28.27"/>
<polygon fill="midnightblue" stroke="midnightblue" points="292.31,-26.09 283.82,-19.76 286.51,-30.01 292.31,-26.09"/>
</g>
</g>
</svg>
