<?xml version="1.0" encoding="UTF-8" standalone="no"?>
<!DOCTYPE svg PUBLIC "-//W3C//DTD SVG 1.1//EN"
 "http://www.w3.org/Graphics/SVG/1.1/DTD/svg11.dtd">
<!-- Generated by graphviz version 8.1.0 (20230707.0739)
 -->
<!-- Title: plots.Plot3D.plot Pages: 1 -->
<svg width="232pt" height="51pt"
 viewBox="0.00 0.00 232.00 50.88" xmlns="http://www.w3.org/2000/svg" xmlns:xlink="http://www.w3.org/1999/xlink">
<g id="graph0" class="graph" transform="scale(1 1) rotate(0) translate(4 46.88)">
<title>plots.Plot3D.plot</title>
<!-- Node1 -->
<g id="Node000001" class="node">
<title>Node1</title>
<g id="a_Node000001"><a xlink:title=" ">
<polygon fill="#999999" stroke="#666666" points="88.75,-24.88 0,-24.88 0,-5.63 88.75,-5.63 88.75,-24.88"/>
<text text-anchor="middle" x="44.38" y="-11.38" font-family="Helvetica,sans-Serif" font-size="10.00">plots.Plot3D.plot</text>
</a>
</g>
</g>
<!-- Node1&#45;&gt;Node1 -->
<g id="edge2_Node000001_Node000001" class="edge">
<title>Node1&#45;&gt;Node1</title>
<g id="a_edge2_Node000001_Node000001"><a xlink:title=" ">
<path fill="none" stroke="#63b8ff" d="M24.02,-25.16C14.74,-33.77 21.52,-42.88 44.38,-42.88 57.59,-42.88 65.43,-39.83 67.9,-35.6"/>
<polygon fill="#63b8ff" stroke="#63b8ff" points="70.98,-34.71 64.73,-26.16 64.28,-36.75 70.98,-34.71"/>
</a>
</g>
</g>
<!-- Node2 -->
<g id="Node000002" class="node">
<title>Node2</title>
<g id="a_Node000002"><a xlink:href="classplots_1_1_plot3_d.html#a17b4efa22eff649e0913a0c34a400014" target="_top" xlink:title=" ">
<polygon fill="white" stroke="#666666" points="224,-30.5 124.75,-30.5 124.75,0 224,0 224,-30.5"/>
<text text-anchor="start" x="132.75" y="-17" font-family="Helvetica,sans-Serif" font-size="10.00">plots.Plot3D.check</text>
<text text-anchor="middle" x="174.38" y="-5.75" font-family="Helvetica,sans-Serif" font-size="10.00">_occultation</text>
</a>
</g>
</g>
<!-- Node1&#45;&gt;Node2 -->
<g id="edge1_Node000001_Node000002" class="edge">
<title>Node1&#45;&gt;Node2</title>
<g id="a_edge1_Node000001_Node000002"><a xlink:title=" ">
<path fill="none" stroke="#63b8ff" d="M89.07,-15.25C97.02,-15.25 105.45,-15.25 113.77,-15.25"/>
<polygon fill="#63b8ff" stroke="#63b8ff" points="113.61,-18.75 123.61,-15.25 113.61,-11.75 113.61,-18.75"/>
</a>
</g>
</g>
</g>
</svg>
