<?xml version="1.0" encoding="UTF-8" standalone="no"?>
<!DOCTYPE svg PUBLIC "-//W3C//DTD SVG 1.1//EN"
 "http://www.w3.org/Graphics/SVG/1.1/DTD/svg11.dtd">
<!-- Generated by graphviz version 2.43.0 (0)
 -->
<!-- Title: LPT::NumericalDynamics Pages: 1 -->
<svg width="146pt" height="358pt"
 viewBox="0.00 0.00 146.00 358.00" xmlns="http://www.w3.org/2000/svg" xmlns:xlink="http://www.w3.org/1999/xlink">
<g id="graph0" class="graph" transform="scale(1 1) rotate(0) translate(4 354)">
<title>LPT::NumericalDynamics</title>
<polygon fill="white" stroke="transparent" points="-4,4 -4,-354 142,-354 142,4 -4,4"/>
<!-- Node1 -->
<g id="node1" class="node">
<title>Node1</title>
<g id="a_node1"><a xlink:title=" ">
<polygon fill="#bfbfbf" stroke="black" points="0,-0.5 0,-167.5 138,-167.5 138,-0.5 0,-0.5"/>
<text text-anchor="middle" x="69" y="-155.5" font-family="Helvetica,sans-Serif" font-size="10.00">LPT::NumericalDynamics</text>
<polyline fill="none" stroke="black" points="0,-148.5 138,-148.5 "/>
<text text-anchor="middle" x="69" y="-136.5" font-family="Helvetica,sans-Serif" font-size="10.00"> </text>
<polyline fill="none" stroke="black" points="0,-129.5 138,-129.5 "/>
<text text-anchor="start" x="8" y="-117.5" font-family="Helvetica,sans-Serif" font-size="10.00">+ NumericalDynamics()</text>
<text text-anchor="start" x="8" y="-106.5" font-family="Helvetica,sans-Serif" font-size="10.00">+ SetDt()</text>
<text text-anchor="start" x="8" y="-95.5" font-family="Helvetica,sans-Serif" font-size="10.00">+ Propagate()</text>
<text text-anchor="start" x="8" y="-84.5" font-family="Helvetica,sans-Serif" font-size="10.00">+ Propagate()</text>
<text text-anchor="start" x="8" y="-73.5" font-family="Helvetica,sans-Serif" font-size="10.00">+ PropagateWithStm()</text>
<text text-anchor="start" x="8" y="-62.5" font-family="Helvetica,sans-Serif" font-size="10.00">+ PropagateWithStm()</text>
<text text-anchor="start" x="8" y="-51.5" font-family="Helvetica,sans-Serif" font-size="10.00">+ Propagate()</text>
<text text-anchor="start" x="8" y="-40.5" font-family="Helvetica,sans-Serif" font-size="10.00">+ Propagate()</text>
<text text-anchor="start" x="8" y="-29.5" font-family="Helvetica,sans-Serif" font-size="10.00">+ PropagateWithStm()</text>
<text text-anchor="start" x="8" y="-18.5" font-family="Helvetica,sans-Serif" font-size="10.00">+ PropagateWithStm()</text>
<text text-anchor="start" x="8" y="-7.5" font-family="Helvetica,sans-Serif" font-size="10.00"># ComputeRates()</text>
</a>
</g>
</g>
<!-- Node2 -->
<g id="node2" class="node">
<title>Node2</title>
<g id="a_node2"><a xlink:href="classLPT_1_1IOrbitDynamics.html" target="_top" xlink:title="Interface for Orbit Dynamics (Todo: find a way to inherit this from IDynamics)">
<polygon fill="white" stroke="black" points="5.5,-204.5 5.5,-349.5 132.5,-349.5 132.5,-204.5 5.5,-204.5"/>
<text text-anchor="middle" x="69" y="-337.5" font-family="Helvetica,sans-Serif" font-size="10.00">LPT::IOrbitDynamics</text>
<polyline fill="none" stroke="black" points="5.5,-330.5 132.5,-330.5 "/>
<text text-anchor="middle" x="69" y="-318.5" font-family="Helvetica,sans-Serif" font-size="10.00"> </text>
<polyline fill="none" stroke="black" points="5.5,-311.5 132.5,-311.5 "/>
<text text-anchor="start" x="13.5" y="-299.5" font-family="Helvetica,sans-Serif" font-size="10.00">+ ~IOrbitDynamics()</text>
<text text-anchor="start" x="13.5" y="-288.5" font-family="Helvetica,sans-Serif" font-size="10.00">+ Propagate()</text>
<text text-anchor="start" x="13.5" y="-277.5" font-family="Helvetica,sans-Serif" font-size="10.00">+ Propagate()</text>
<text text-anchor="start" x="13.5" y="-266.5" font-family="Helvetica,sans-Serif" font-size="10.00">+ PropagateWithStm()</text>
<text text-anchor="start" x="13.5" y="-255.5" font-family="Helvetica,sans-Serif" font-size="10.00">+ PropagateWithStm()</text>
<text text-anchor="start" x="13.5" y="-244.5" font-family="Helvetica,sans-Serif" font-size="10.00">+ Propagate()</text>
<text text-anchor="start" x="13.5" y="-233.5" font-family="Helvetica,sans-Serif" font-size="10.00">+ Propagate()</text>
<text text-anchor="start" x="13.5" y="-222.5" font-family="Helvetica,sans-Serif" font-size="10.00">+ PropagateWithStm()</text>
<text text-anchor="start" x="13.5" y="-211.5" font-family="Helvetica,sans-Serif" font-size="10.00">+ PropagateWithStm()</text>
</a>
</g>
</g>
<!-- Node2&#45;&gt;Node1 -->
<g id="edge1" class="edge">
<title>Node2&#45;&gt;Node1</title>
<path fill="none" stroke="midnightblue" d="M69,-194.13C69,-185.37 69,-176.45 69,-167.67"/>
<polygon fill="none" stroke="midnightblue" points="65.5,-194.34 69,-204.34 72.5,-194.34 65.5,-194.34"/>
</g>
</g>
</svg>
