<?xml version="1.0" encoding="UTF-8" standalone="no"?>
<!DOCTYPE svg PUBLIC "-//W3C//DTD SVG 1.1//EN"
 "http://www.w3.org/Graphics/SVG/1.1/DTD/svg11.dtd">
<!-- Generated by graphviz version 8.1.0 (20230707.0739)
 -->
<!-- Title: LPT::GNSSTransmitter Pages: 1 -->
<!--zoomable 595 -->

<svg id="main" version="1.1" xmlns="http://www.w3.org/2000/svg" xmlns:xlink="http://www.w3.org/1999/xlink" xml:space="preserve" onload="init(evt)">
<style type="text/css"><![CDATA[
.node, .edge {opacity: 0.7;}
.node.selected, .edge.selected {opacity: 1;}
.edge:hover path { stroke: red; }
.edge:hover polygon { stroke: red; fill: red; }
]]></style>

<defs>
  <circle id="rim" cx="0" cy="0" r="7"/>
  <circle id="rim2" cx="0" cy="0" r="3.5"/>
  <g id="zoomPlus">
    <use xlink:href="#rim" fill="#404040"><set attributeName="fill" to="#808080" begin="zoomplus.mouseover" end="zoomplus.mouseout"/></use>
    <path d="M-4,0h8M0,-4v8" fill="none" stroke="white" stroke-width="1.5" pointer-events="none"/>
  </g>
  <g id="zoomMin">
    <use xlink:href="#rim" fill="#404040"><set attributeName="fill" to="#808080" begin="zoomminus.mouseover" end="zoomminus.mouseout"/></use>
    <path d="M-4,0h8" fill="none" stroke="white" stroke-width="1.5" pointer-events="none"/>
  </g>
  <g id="arrowUp" transform="translate(30 24)">
    <use xlink:href="#rim"/>
    <path pointer-events="none" fill="none" stroke="white" stroke-width="1.5" d="M0,-3.0v7 M-2.5,-0.5L0,-3.0L2.5,-0.5"/>
  </g>
  <g id="arrowRight" transform="rotate(90) translate(36 -43)">
    <use xlink:href="#rim"/>
    <path pointer-events="none" fill="none" stroke="white" stroke-width="1.5" d="M0,-3.0v7 M-2.5,-0.5L0,-3.0L2.5,-0.5"/>
  </g>
  <g id="arrowDown" transform="rotate(180) translate(-30 -48)">
    <use xlink:href="#rim"/>
    <path pointer-events="none" fill="none" stroke="white" stroke-width="1.5" d="M0,-3.0v7 M-2.5,-0.5L0,-3.0L2.5,-0.5"/>
  </g>
  <g id="arrowLeft" transform="rotate(270) translate(-36 17)">
    <use xlink:href="#rim"/>
    <path pointer-events="none" fill="none" stroke="white" stroke-width="1.5" d="M0,-3.0v7 M-2.5,-0.5L0,-3.0L2.5,-0.5"/>
  </g>
  <g id="resetDef">
    <use xlink:href="#rim2" fill="#404040"><set attributeName="fill" to="#808080" begin="reset.mouseover" end="reset.mouseout"/></use>
  </g>
</defs>
<script type="application/ecmascript">
var viewWidth = 287;
var viewHeight = 595;
var sectionId = 'dynsection-1';
</script>
<script type="application/ecmascript" xlink:href="svg.min.js"/>
<svg id="graph" class="graph">
<g id="viewport">
<title>LPT::GNSSTransmitter</title>
<!-- Node1 -->
<g id="Node000001" class="node">
<title>Node1</title>
<g id="a_Node000001"><a xlink:title=" ">
<polygon fill="#999999" stroke="none" points="243,-274 86,-274 86,0 243,0 243,-274"/>
<text text-anchor="start" x="114.25" y="-260.5" font-family="Helvetica,sans-Serif" font-size="10.00">LPT::GNSSTransmitter</text>
<text text-anchor="start" x="90" y="-245.5" font-family="Helvetica,sans-Serif" font-size="10.00">+</text>
<text text-anchor="start" x="100" y="-245.5" font-family="Helvetica,sans-Serif" font-size="10.00">gnss_type_</text>
<text text-anchor="start" x="90" y="-230.5" font-family="Helvetica,sans-Serif" font-size="10.00">+</text>
<text text-anchor="start" x="100" y="-230.5" font-family="Helvetica,sans-Serif" font-size="10.00">txrx</text>
<text text-anchor="start" x="90" y="-215.5" font-family="Helvetica,sans-Serif" font-size="10.00">+</text>
<text text-anchor="start" x="100" y="-215.5" font-family="Helvetica,sans-Serif" font-size="10.00">prn_</text>
<text text-anchor="start" x="90" y="-200.5" font-family="Helvetica,sans-Serif" font-size="10.00">+</text>
<text text-anchor="start" x="100" y="-200.5" font-family="Helvetica,sans-Serif" font-size="10.00">freq_tx</text>
<text text-anchor="start" x="90" y="-185.5" font-family="Helvetica,sans-Serif" font-size="10.00">+</text>
<text text-anchor="start" x="100" y="-185.5" font-family="Helvetica,sans-Serif" font-size="10.00">freq_list</text>
<text text-anchor="start" x="90" y="-170.5" font-family="Helvetica,sans-Serif" font-size="10.00">+</text>
<text text-anchor="start" x="100" y="-170.5" font-family="Helvetica,sans-Serif" font-size="10.00">freq_map</text>
<text text-anchor="start" x="90" y="-155.5" font-family="Helvetica,sans-Serif" font-size="10.00">+</text>
<text text-anchor="start" x="100" y="-155.5" font-family="Helvetica,sans-Serif" font-size="10.00">GNSSTransmitter()</text>
<text text-anchor="start" x="90" y="-140.5" font-family="Helvetica,sans-Serif" font-size="10.00">+</text>
<text text-anchor="start" x="100" y="-140.5" font-family="Helvetica,sans-Serif" font-size="10.00">InitializeGNSSTransmitter()</text>
<text text-anchor="start" x="90" y="-125.5" font-family="Helvetica,sans-Serif" font-size="10.00">+</text>
<text text-anchor="start" x="100" y="-125.5" font-family="Helvetica,sans-Serif" font-size="10.00">InitializeGPSTransmitter()</text>
<text text-anchor="start" x="90" y="-110.5" font-family="Helvetica,sans-Serif" font-size="10.00">+</text>
<text text-anchor="start" x="100" y="-110.5" font-family="Helvetica,sans-Serif" font-size="10.00">InitializeGLONASSTransmitter()</text>
<text text-anchor="start" x="90" y="-95.5" font-family="Helvetica,sans-Serif" font-size="10.00">+</text>
<text text-anchor="start" x="100" y="-95.5" font-family="Helvetica,sans-Serif" font-size="10.00">InitializeGALILEOTransmitter()</text>
<text text-anchor="start" x="90" y="-80.5" font-family="Helvetica,sans-Serif" font-size="10.00">+</text>
<text text-anchor="start" x="100" y="-80.5" font-family="Helvetica,sans-Serif" font-size="10.00">InitializeBEIDOUTransmitter()</text>
<text text-anchor="start" x="90" y="-65.5" font-family="Helvetica,sans-Serif" font-size="10.00">+</text>
<text text-anchor="start" x="100" y="-65.5" font-family="Helvetica,sans-Serif" font-size="10.00">GetTransmitterOrientation()</text>
<text text-anchor="start" x="90" y="-50.5" font-family="Helvetica,sans-Serif" font-size="10.00">+</text>
<text text-anchor="start" x="100" y="-50.5" font-family="Helvetica,sans-Serif" font-size="10.00">GetTransmittionAntennaGain()</text>
<text text-anchor="start" x="90" y="-35.5" font-family="Helvetica,sans-Serif" font-size="10.00">+</text>
<text text-anchor="start" x="100" y="-35.5" font-family="Helvetica,sans-Serif" font-size="10.00">GenerateTransmission()</text>
<text text-anchor="start" x="90" y="-20.5" font-family="Helvetica,sans-Serif" font-size="10.00">+</text>
<text text-anchor="start" x="100" y="-20.5" font-family="Helvetica,sans-Serif" font-size="10.00">SetChannel()</text>
<text text-anchor="start" x="100" y="-5.5" font-family="Helvetica,sans-Serif" font-size="10.00">and 7 more...</text>
<polygon fill="#666666" stroke="#666666" points="86,-257 86,-257 243,-257 243,-257 86,-257"/>
<polygon fill="#666666" stroke="#666666" points="86,-167 86,-167 98,-167 98,-167 86,-167"/>
<polygon fill="#666666" stroke="#666666" points="98,-167 98,-167 243,-167 243,-167 98,-167"/>
<polygon fill="none" stroke="#666666" points="86,0 86,-274 243,-274 243,0 86,0"/>
</a>
</g>
</g>
<!-- Node2 -->
<g id="Node000002" class="node">
<title>Node2</title>
<g id="a_Node000002"><a xlink:href="class_l_p_t_1_1_transmitter.html" target="_top" xlink:title=" ">
<polygon fill="white" stroke="none" points="148.5,-430.25 66.5,-430.25 66.5,-351.25 148.5,-351.25 148.5,-430.25"/>
<text text-anchor="start" x="71.5" y="-416.75" font-family="Helvetica,sans-Serif" font-size="10.00">LPT::Transmitter</text>
<text text-anchor="start" x="71" y="-401.75" font-family="Helvetica,sans-Serif" font-size="10.00">+</text>
<text text-anchor="start" x="81.5" y="-401.75" font-family="Helvetica,sans-Serif" font-size="10.00">txrx</text>
<text text-anchor="start" x="71" y="-386.75" font-family="Helvetica,sans-Serif" font-size="10.00">+</text>
<text text-anchor="start" x="81.5" y="-386.75" font-family="Helvetica,sans-Serif" font-size="10.00">~Transmitter()</text>
<text text-anchor="start" x="71" y="-371.75" font-family="Helvetica,sans-Serif" font-size="10.00">+</text>
<text text-anchor="start" x="81.5" y="-371.75" font-family="Helvetica,sans-Serif" font-size="10.00">GetAgent()</text>
<text text-anchor="start" x="71" y="-356.75" font-family="Helvetica,sans-Serif" font-size="10.00">+</text>
<text text-anchor="start" x="81.5" y="-356.75" font-family="Helvetica,sans-Serif" font-size="10.00">SetAgent()</text>
<polygon fill="#bfbfbf" stroke="#bfbfbf" points="66.5,-413.25 66.5,-413.25 148.5,-413.25 148.5,-413.25 66.5,-413.25"/>
<polygon fill="#bfbfbf" stroke="#bfbfbf" points="66.5,-398.25 66.5,-398.25 79.5,-398.25 79.5,-398.25 66.5,-398.25"/>
<polygon fill="#bfbfbf" stroke="#bfbfbf" points="79.5,-398.25 79.5,-398.25 148.5,-398.25 148.5,-398.25 79.5,-398.25"/>
<polygon fill="none" stroke="#bfbfbf" points="66.5,-351.25 66.5,-430.25 148.5,-430.25 148.5,-351.25 66.5,-351.25"/>
</a>
</g>
</g>
<!-- Node2&#45;&gt;Node1 -->
<g id="edge1_Node000001_Node000002" class="edge">
<title>Node2&#45;&gt;Node1</title>
<g id="a_edge1_Node000001_Node000002"><a xlink:title=" ">
<path fill="none" stroke="#63b8ff" d="M118.58,-340.82C122.99,-321.32 128.31,-297.82 133.74,-273.84"/>
<polygon fill="none" stroke="#63b8ff" points="114.95,-339.99 116.16,-350.51 121.78,-341.53 114.95,-339.99"/>
</a>
</g>
</g>
<!-- Node3 -->
<g id="Node000003" class="node">
<title>Node3</title>
<g id="a_Node000003"><a xlink:href="class_l_p_t_1_1_i_comm_device.html" target="_top" xlink:title=" ">
<polygon fill="white" stroke="none" points="95,-586.5 0,-586.5 0,-507.5 95,-507.5 95,-586.5"/>
<text text-anchor="start" x="4.75" y="-573" font-family="Helvetica,sans-Serif" font-size="10.00">LPT::ICommDevice</text>
<text text-anchor="start" x="4.5" y="-558" font-family="Helvetica,sans-Serif" font-size="10.00">+</text>
<text text-anchor="start" x="15" y="-558" font-family="Helvetica,sans-Serif" font-size="10.00">txrx</text>
<text text-anchor="start" x="4.5" y="-543" font-family="Helvetica,sans-Serif" font-size="10.00">+</text>
<text text-anchor="start" x="15" y="-543" font-family="Helvetica,sans-Serif" font-size="10.00">~ICommDevice()</text>
<text text-anchor="start" x="4.5" y="-528" font-family="Helvetica,sans-Serif" font-size="10.00">+</text>
<text text-anchor="start" x="15" y="-528" font-family="Helvetica,sans-Serif" font-size="10.00">GetAgent()</text>
<text text-anchor="start" x="4.5" y="-513" font-family="Helvetica,sans-Serif" font-size="10.00">+</text>
<text text-anchor="start" x="15" y="-513" font-family="Helvetica,sans-Serif" font-size="10.00">SetAgent()</text>
<polygon fill="#bfbfbf" stroke="#bfbfbf" points="0,-569.5 0,-569.5 95,-569.5 95,-569.5 0,-569.5"/>
<polygon fill="#bfbfbf" stroke="#bfbfbf" points="0,-554.5 0,-554.5 13,-554.5 13,-554.5 0,-554.5"/>
<polygon fill="#bfbfbf" stroke="#bfbfbf" points="13,-554.5 13,-554.5 95,-554.5 95,-554.5 13,-554.5"/>
<polygon fill="none" stroke="#bfbfbf" points="0,-507.5 0,-586.5 95,-586.5 95,-507.5 0,-507.5"/>
</a>
</g>
</g>
<!-- Node3&#45;&gt;Node2 -->
<g id="edge2_Node000002_Node000003" class="edge">
<title>Node3&#45;&gt;Node2</title>
<g id="a_edge2_Node000002_Node000003"><a xlink:title=" ">
<path fill="none" stroke="#63b8ff" d="M66.23,-497.84C74.7,-476.07 84.57,-450.71 92.53,-430.24"/>
<polygon fill="none" stroke="#63b8ff" points="62.69,-496.28 62.33,-506.87 69.22,-498.82 62.69,-496.28"/>
</a>
</g>
</g>
<!-- Node4 -->
<g id="Node000004" class="node">
<title>Node4</title>
<g id="a_Node000004"><a xlink:href="struct_l_p_t_1_1_transmitter_param.html" target="_top" xlink:title=" ">
<polygon fill="white" stroke="none" points="223.5,-571.5 113.5,-571.5 113.5,-522.5 223.5,-522.5 223.5,-571.5"/>
<text text-anchor="start" x="118.25" y="-558" font-family="Helvetica,sans-Serif" font-size="10.00">LPT::TransmitterParam</text>
<text text-anchor="start" x="135.5" y="-543" font-family="Helvetica,sans-Serif" font-size="10.00">+</text>
<text text-anchor="start" x="163.5" y="-543" font-family="Helvetica,sans-Serif" font-size="10.00">P_tx</text>
<text text-anchor="start" x="167" y="-528" font-family="Helvetica,sans-Serif" font-size="10.00"> </text>
<polygon fill="#bfbfbf" stroke="#bfbfbf" points="113.5,-554.5 113.5,-554.5 223.5,-554.5 223.5,-554.5 113.5,-554.5"/>
<polygon fill="#bfbfbf" stroke="#bfbfbf" points="113.5,-539.5 113.5,-539.5 161.5,-539.5 161.5,-539.5 113.5,-539.5"/>
<polygon fill="#bfbfbf" stroke="#bfbfbf" points="161.5,-539.5 161.5,-539.5 223.5,-539.5 223.5,-539.5 161.5,-539.5"/>
<polygon fill="none" stroke="#bfbfbf" points="113.5,-522.5 113.5,-571.5 223.5,-571.5 223.5,-522.5 113.5,-522.5"/>
</a>
</g>
</g>
<!-- Node4&#45;&gt;Node2 -->
<g id="edge3_Node000002_Node000004" class="edge">
<title>Node4&#45;&gt;Node2</title>
<g id="a_edge3_Node000002_Node000004"><a xlink:title=" ">
<path fill="none" stroke="#63b8ff" d="M159.24,-522.57C150.82,-501.3 138.14,-469.22 127.43,-442.15"/>
<polygon fill="none" stroke="#63b8ff" points="127.42,-442.12 121.49,-438.01 123.01,-430.96 128.93,-435.07 127.42,-442.12"/>
</a>
</g>
<text text-anchor="middle" x="172.88" y="-480" font-family="Helvetica,sans-Serif" font-size="10.00" fill="grey"> +tx_param_</text>
</g>
<!-- Node5 -->
<g id="Node000005" class="node">
<title>Node5</title>
<g id="a_Node000005"><a xlink:href="class_l_p_t_1_1_antenna.html" target="_top" xlink:title=" ">
<polygon fill="white" stroke="none" points="278.5,-460.25 166.5,-460.25 166.5,-321.25 278.5,-321.25 278.5,-460.25"/>
<text text-anchor="start" x="193.25" y="-446.75" font-family="Helvetica,sans-Serif" font-size="10.00">LPT::Antenna</text>
<text text-anchor="start" x="170.5" y="-431.75" font-family="Helvetica,sans-Serif" font-size="10.00">+</text>
<text text-anchor="start" x="180.5" y="-431.75" font-family="Helvetica,sans-Serif" font-size="10.00">comms_name_</text>
<text text-anchor="start" x="170.5" y="-416.75" font-family="Helvetica,sans-Serif" font-size="10.00">+</text>
<text text-anchor="start" x="180.5" y="-416.75" font-family="Helvetica,sans-Serif" font-size="10.00">antenna_pattern_</text>
<text text-anchor="start" x="170.5" y="-401.75" font-family="Helvetica,sans-Serif" font-size="10.00">+</text>
<text text-anchor="start" x="180.5" y="-401.75" font-family="Helvetica,sans-Serif" font-size="10.00">antenna_mask_</text>
<text text-anchor="start" x="170.5" y="-386.75" font-family="Helvetica,sans-Serif" font-size="10.00">+</text>
<text text-anchor="start" x="180.5" y="-386.75" font-family="Helvetica,sans-Serif" font-size="10.00">Antenna()</text>
<text text-anchor="start" x="170.5" y="-371.75" font-family="Helvetica,sans-Serif" font-size="10.00">+</text>
<text text-anchor="start" x="180.5" y="-371.75" font-family="Helvetica,sans-Serif" font-size="10.00">Antenna()</text>
<text text-anchor="start" x="170.5" y="-356.75" font-family="Helvetica,sans-Serif" font-size="10.00">+</text>
<text text-anchor="start" x="180.5" y="-356.75" font-family="Helvetica,sans-Serif" font-size="10.00">LoadAntennaPattern()</text>
<text text-anchor="start" x="170.5" y="-341.75" font-family="Helvetica,sans-Serif" font-size="10.00">+</text>
<text text-anchor="start" x="180.5" y="-341.75" font-family="Helvetica,sans-Serif" font-size="10.00">GetAntennaGain()</text>
<text text-anchor="start" x="170.5" y="-326.75" font-family="Helvetica,sans-Serif" font-size="10.00">+</text>
<text text-anchor="start" x="180.5" y="-326.75" font-family="Helvetica,sans-Serif" font-size="10.00">GetAntennaGain()</text>
<polygon fill="#bfbfbf" stroke="#bfbfbf" points="166.5,-443.25 166.5,-443.25 278.5,-443.25 278.5,-443.25 166.5,-443.25"/>
<polygon fill="#bfbfbf" stroke="#bfbfbf" points="166.5,-398.25 166.5,-398.25 178.5,-398.25 178.5,-398.25 166.5,-398.25"/>
<polygon fill="#bfbfbf" stroke="#bfbfbf" points="178.5,-398.25 178.5,-398.25 278.5,-398.25 278.5,-398.25 178.5,-398.25"/>
<polygon fill="none" stroke="#bfbfbf" points="166.5,-321.25 166.5,-460.25 278.5,-460.25 278.5,-321.25 166.5,-321.25"/>
</a>
</g>
</g>
<!-- Node5&#45;&gt;Node1 -->
<g id="edge4_Node000001_Node000005" class="edge">
<title>Node5&#45;&gt;Node1</title>
<g id="a_edge4_Node000001_Node000005"><a xlink:title=" ">
<path fill="none" stroke="#63b8ff" d="M206.73,-321.29C204.19,-310.27 201.48,-298.5 198.7,-286.44"/>
<polygon fill="none" stroke="#63b8ff" points="198.68,-286.37 193.44,-281.42 195.99,-274.67 201.23,-279.62 198.68,-286.37"/>
</a>
</g>
<text text-anchor="middle" x="225.88" y="-293.75" font-family="Helvetica,sans-Serif" font-size="10.00" fill="grey"> +antenna_</text>
</g>
</g>
</svg>

<g id="navigator" transform="translate(0 0)" fill="#404254">
  <rect fill="#f2f5e9" fill-opacity="0.5" stroke="#606060" stroke-width=".5" x="0" y="0" width="60" height="60"/>
  <use id="zoomplus" xlink:href="#zoomPlus" x="17" y="9" onmousedown="handleZoom(evt,'in')"/>
  <use id="zoomminus" xlink:href="#zoomMin" x="42" y="9" onmousedown="handleZoom(evt,'out')"/>
  <use id="reset" xlink:href="#resetDef" x="30" y="36" onmousedown="handleReset()"/>
   <use id="arrowup" xlink:href="#arrowUp" x="0" y="0" onmousedown="handlePan(0,-1)"/>
  <use id="arrowright" xlink:href="#arrowRight" x="0" y="0" onmousedown="handlePan(1,0)"/>
  <use id="arrowdown" xlink:href="#arrowDown" x="0" y="0" onmousedown="handlePan(0,1)"/>
  <use id="arrowleft" xlink:href="#arrowLeft" x="0" y="0" onmousedown="handlePan(-1,0)"/>
</g>
<svg viewBox="0 0 15 15" width="100%" height="30px" preserveAspectRatio="xMaxYMin meet">
 <g id="arrow_out" transform="scale(0.3 0.3)">
  <a xlink:href="class_l_p_t_1_1_g_n_s_s_transmitter__coll__graph_org.svg" target="_base">
   <rect id="button" ry="5" rx="5" y="6" x="6" height="38" width="38"
        fill="#f2f5e9" fill-opacity="0.5" stroke="#606060" stroke-width="1.0"/>
   <path id="arrow"
     d="M 11.500037,31.436501 C 11.940474,20.09759 22.043105,11.32322 32.158766,21.979434 L 37.068811,17.246167 C 37.068811,17.246167 37.088388,32 37.088388,32 L 22.160133,31.978069 C 22.160133,31.978069 26.997745,27.140456 26.997745,27.140456 C 18.528582,18.264221 13.291696,25.230495 11.500037,31.436501 z"
     style="fill:#404040;"/>
  </a>
 </g>
</svg>

<style type='text/css'>
<![CDATA[
[data-mouse-over-selected='false'] { opacity: 0.7; }
[data-mouse-over-selected='true']  { opacity: 1.0; }
]]>
</style>
<script type="application/ecmascript"><![CDATA[
document.addEventListener('DOMContentLoaded', (event) => {
  highlightEdges();
  highlightAdjacentNodes();
});
]]></script>
</svg>
