<?xml version="1.0" encoding="UTF-8" standalone="no"?>
<!DOCTYPE svg PUBLIC "-//W3C//DTD SVG 1.1//EN"
 "http://www.w3.org/Graphics/SVG/1.1/DTD/svg11.dtd">
<!-- Generated by graphviz version 2.43.0 (0)
 -->
<!-- Title: LPT::GNSSReceiver Pages: 1 -->
<!--zoomable 507 -->
<svg id="main" version="1.1" xmlns="http://www.w3.org/2000/svg" xmlns:xlink="http://www.w3.org/1999/xlink" xml:space="preserve" onload="init(evt)">
<style type="text/css"><![CDATA[
.edge:hover path { stroke: red; }
.edge:hover polygon { stroke: red; fill: red; }
]]></style>
<script type="text/javascript"><![CDATA[
var edges = document.getElementsByTagName('g');
if (edges && edges.length) {
  for (var i=0;i<edges.length;i++) {
    if (edges[i].id.substr(0,4)=='edge') {
      edges[i].setAttribute('class','edge');
    }
  }
}
]]></script>
        <defs>
                <circle id="rim" cx="0" cy="0" r="7"/>
                <circle id="rim2" cx="0" cy="0" r="3.5"/>
                <g id="zoomPlus">
                        <use xlink:href="#rim" fill="#404040">
                                <set attributeName="fill" to="#808080" begin="zoomplus.mouseover" end="zoomplus.mouseout"/>
                        </use>
                        <path d="M-4,0h8M0,-4v8" fill="none" stroke="white" stroke-width="1.5" pointer-events="none"/>
                </g>
                <g id="zoomMin">
                        <use xlink:href="#rim" fill="#404040">
                                <set attributeName="fill" to="#808080" begin="zoomminus.mouseover" end="zoomminus.mouseout"/>
                        </use>
                        <path d="M-4,0h8" fill="none" stroke="white" stroke-width="1.5" pointer-events="none"/>
                </g>
                <g id="dirArrow">
                        <path fill="none" stroke="white" stroke-width="1.5" d="M0,-3.0v7 M-2.5,-0.5L0,-3.0L2.5,-0.5"/>
                </g>
               <g id="resetDef">
                       <use xlink:href="#rim2" fill="#404040">
                               <set attributeName="fill" to="#808080" begin="reset.mouseover" end="reset.mouseout"/>
                       </use>
               </g>
        </defs>

<script type="text/javascript">
var viewWidth = 325;
var viewHeight = 507;
var sectionId = 'dynsection-1';
</script>
<script xlink:href="svgpan.js"/>
<svg id="graph" class="graph">
<g id="viewport">
<title>LPT::GNSSReceiver</title>
<polygon fill="white" stroke="transparent" points="-4,4 -4,-503 320.5,-503 320.5,4 -4,4"/>
<!-- Node1 -->
<g id="node1" class="node">
<title>Node1</title>
<g id="a_node1"><a xlink:title=" ">
<polygon fill="#bfbfbf" stroke="black" points="138.5,-0.5 138.5,-167.5 296.5,-167.5 296.5,-0.5 138.5,-0.5"/>
<text text-anchor="middle" x="217.5" y="-155.5" font-family="Helvetica,sans-Serif" font-size="10.00">LPT::GNSSReceiver</text>
<polyline fill="none" stroke="black" points="138.5,-148.5 296.5,-148.5 "/>
<text text-anchor="start" x="146.5" y="-136.5" font-family="Helvetica,sans-Serif" font-size="10.00">+ receiver_name_</text>
<polyline fill="none" stroke="black" points="138.5,-129.5 296.5,-129.5 "/>
<text text-anchor="start" x="146.5" y="-117.5" font-family="Helvetica,sans-Serif" font-size="10.00">+ GNSSReceiver()</text>
<text text-anchor="start" x="146.5" y="-106.5" font-family="Helvetica,sans-Serif" font-size="10.00">+ GetReceiverOrientation()</text>
<text text-anchor="start" x="146.5" y="-95.5" font-family="Helvetica,sans-Serif" font-size="10.00">+ GetReceiverAntennaGain()</text>
<text text-anchor="start" x="146.5" y="-84.5" font-family="Helvetica,sans-Serif" font-size="10.00">+ InitializeReceiverParams()</text>
<text text-anchor="start" x="146.5" y="-73.5" font-family="Helvetica,sans-Serif" font-size="10.00">+ SetCN0Threshold()</text>
<text text-anchor="start" x="146.5" y="-62.5" font-family="Helvetica,sans-Serif" font-size="10.00">+ GetMeasurement()</text>
<text text-anchor="start" x="146.5" y="-51.5" font-family="Helvetica,sans-Serif" font-size="10.00">+ SetChannel()</text>
<text text-anchor="start" x="146.5" y="-40.5" font-family="Helvetica,sans-Serif" font-size="10.00">+ GetAgent()</text>
<text text-anchor="start" x="146.5" y="-29.5" font-family="Helvetica,sans-Serif" font-size="10.00">+ SetAgent()</text>
<text text-anchor="start" x="146.5" y="-18.5" font-family="Helvetica,sans-Serif" font-size="10.00">+ GetAntennaGain()</text>
<text text-anchor="start" x="146.5" y="-7.5" font-family="Helvetica,sans-Serif" font-size="10.00">+ GetAntennaGain()</text>
</a>
</g>
</g>
<!-- Node2 -->
<g id="node2" class="node">
<title>Node2</title>
<g id="a_node2"><a xlink:href="classLPT_1_1Receiver.html" target="_top" xlink:title=" ">
<polygon fill="white" stroke="black" points="78.5,-237.5 78.5,-316.5 164.5,-316.5 164.5,-237.5 78.5,-237.5"/>
<text text-anchor="middle" x="121.5" y="-304.5" font-family="Helvetica,sans-Serif" font-size="10.00">LPT::Receiver</text>
<polyline fill="none" stroke="black" points="78.5,-297.5 164.5,-297.5 "/>
<text text-anchor="start" x="86.5" y="-285.5" font-family="Helvetica,sans-Serif" font-size="10.00">+ txrx</text>
<polyline fill="none" stroke="black" points="78.5,-278.5 164.5,-278.5 "/>
<text text-anchor="start" x="86.5" y="-266.5" font-family="Helvetica,sans-Serif" font-size="10.00">+ ~Receiver()</text>
<text text-anchor="start" x="86.5" y="-255.5" font-family="Helvetica,sans-Serif" font-size="10.00">+ GetAgent()</text>
<text text-anchor="start" x="86.5" y="-244.5" font-family="Helvetica,sans-Serif" font-size="10.00">+ SetAgent()</text>
</a>
</g>
</g>
<!-- Node2&#45;&gt;Node1 -->
<g id="edge1" class="edge">
<title>Node2&#45;&gt;Node1</title>
<path fill="none" stroke="midnightblue" d="M145.45,-228.34C154.67,-210 165.49,-188.48 175.9,-167.77"/>
<polygon fill="none" stroke="midnightblue" points="142.29,-226.84 140.93,-237.35 148.55,-229.99 142.29,-226.84"/>
</g>
<!-- Node3 -->
<g id="node3" class="node">
<title>Node3</title>
<g id="a_node3"><a xlink:href="classLPT_1_1ICommDevice.html" target="_top" xlink:title=" ">
<polygon fill="white" stroke="black" points="0,-403 0,-482 113,-482 113,-403 0,-403"/>
<text text-anchor="middle" x="56.5" y="-470" font-family="Helvetica,sans-Serif" font-size="10.00">LPT::ICommDevice</text>
<polyline fill="none" stroke="black" points="0,-463 113,-463 "/>
<text text-anchor="start" x="8" y="-451" font-family="Helvetica,sans-Serif" font-size="10.00">+ txrx</text>
<polyline fill="none" stroke="black" points="0,-444 113,-444 "/>
<text text-anchor="start" x="8" y="-432" font-family="Helvetica,sans-Serif" font-size="10.00">+ ~ICommDevice()</text>
<text text-anchor="start" x="8" y="-421" font-family="Helvetica,sans-Serif" font-size="10.00">+ GetAgent()</text>
<text text-anchor="start" x="8" y="-410" font-family="Helvetica,sans-Serif" font-size="10.00">+ SetAgent()</text>
</a>
</g>
</g>
<!-- Node3&#45;&gt;Node2 -->
<g id="edge2" class="edge">
<title>Node3&#45;&gt;Node2</title>
<path fill="none" stroke="midnightblue" d="M75.66,-393.32C85.36,-368.91 96.98,-339.68 106.09,-316.75"/>
<polygon fill="none" stroke="midnightblue" points="72.35,-392.17 71.9,-402.75 78.85,-394.75 72.35,-392.17"/>
</g>
<!-- Node4 -->
<g id="node4" class="node">
<title>Node4</title>
<g id="a_node4"><a xlink:href="structLPT_1_1ReceiverParam.html" target="_top" xlink:title=" ">
<polygon fill="white" stroke="black" points="131,-386.5 131,-498.5 244,-498.5 244,-386.5 131,-386.5"/>
<text text-anchor="middle" x="187.5" y="-486.5" font-family="Helvetica,sans-Serif" font-size="10.00">LPT::ReceiverParam</text>
<polyline fill="none" stroke="black" points="131,-479.5 244,-479.5 "/>
<text text-anchor="start" x="139" y="-467.5" font-family="Helvetica,sans-Serif" font-size="10.00">+ Ts</text>
<text text-anchor="start" x="139" y="-456.5" font-family="Helvetica,sans-Serif" font-size="10.00">+ Ae</text>
<text text-anchor="start" x="139" y="-445.5" font-family="Helvetica,sans-Serif" font-size="10.00">+ Nf</text>
<text text-anchor="start" x="139" y="-434.5" font-family="Helvetica,sans-Serif" font-size="10.00">+ L</text>
<text text-anchor="start" x="139" y="-423.5" font-family="Helvetica,sans-Serif" font-size="10.00">+ As</text>
<text text-anchor="start" x="139" y="-412.5" font-family="Helvetica,sans-Serif" font-size="10.00">+ CN0threshold</text>
<polyline fill="none" stroke="black" points="131,-405.5 244,-405.5 "/>
<text text-anchor="middle" x="187.5" y="-393.5" font-family="Helvetica,sans-Serif" font-size="10.00"> </text>
</a>
</g>
</g>
<!-- Node4&#45;&gt;Node2 -->
<g id="edge3" class="edge">
<title>Node4&#45;&gt;Node2</title>
<path fill="none" stroke="#404040" d="M165.16,-386.15C157.54,-367.29 149.08,-346.33 141.65,-327.92"/>
<polygon fill="none" stroke="#404040" points="141.55,-327.66 135.59,-323.59 137.05,-316.53 143.01,-320.6 141.55,-327.66"/>
<text text-anchor="middle" x="188.5" y="-360" font-family="Helvetica,sans-Serif" font-size="10.00"> +rx_param_</text>
</g>
<!-- Node5 -->
<g id="node5" class="node">
<title>Node5</title>
<g id="a_node5"><a xlink:href="classLPT_1_1Antenna.html" target="_top" xlink:title=" ">
<polygon fill="white" stroke="black" points="182.5,-215.5 182.5,-338.5 316.5,-338.5 316.5,-215.5 182.5,-215.5"/>
<text text-anchor="middle" x="249.5" y="-326.5" font-family="Helvetica,sans-Serif" font-size="10.00">LPT::Antenna</text>
<polyline fill="none" stroke="black" points="182.5,-319.5 316.5,-319.5 "/>
<text text-anchor="start" x="190.5" y="-307.5" font-family="Helvetica,sans-Serif" font-size="10.00">+ comms_name_</text>
<text text-anchor="start" x="190.5" y="-296.5" font-family="Helvetica,sans-Serif" font-size="10.00">+ antenna_pattern_</text>
<text text-anchor="start" x="190.5" y="-285.5" font-family="Helvetica,sans-Serif" font-size="10.00">+ antenna_mask_</text>
<polyline fill="none" stroke="black" points="182.5,-278.5 316.5,-278.5 "/>
<text text-anchor="start" x="190.5" y="-266.5" font-family="Helvetica,sans-Serif" font-size="10.00">+ Antenna()</text>
<text text-anchor="start" x="190.5" y="-255.5" font-family="Helvetica,sans-Serif" font-size="10.00">+ Antenna()</text>
<text text-anchor="start" x="190.5" y="-244.5" font-family="Helvetica,sans-Serif" font-size="10.00">+ LoadAntennaPattern()</text>
<text text-anchor="start" x="190.5" y="-233.5" font-family="Helvetica,sans-Serif" font-size="10.00">+ GetAntennaGain()</text>
<text text-anchor="start" x="190.5" y="-222.5" font-family="Helvetica,sans-Serif" font-size="10.00">+ GetAntennaGain()</text>
</a>
</g>
</g>
<!-- Node5&#45;&gt;Node1 -->
<g id="edge4" class="edge">
<title>Node5&#45;&gt;Node1</title>
<path fill="none" stroke="#404040" d="M239.33,-215.3C237.42,-203.92 235.39,-191.76 233.35,-179.63"/>
<polygon fill="none" stroke="#404040" points="233.31,-179.37 228.37,-174.11 231.33,-167.53 236.26,-172.79 233.31,-179.37"/>
<text text-anchor="middle" x="263" y="-189" font-family="Helvetica,sans-Serif" font-size="10.00"> +antenna_</text>
</g>
</g>
</svg>
        <g id="navigator" transform="translate(0 0)" fill="#404254">
                <rect fill="#f2f5e9" fill-opacity="0.5" stroke="#606060" stroke-width=".5" x="0" y="0" width="60" height="60"/>
                <use id="zoomplus" xlink:href="#zoomPlus" x="17" y="9" onmousedown="handleZoom(evt,'in')"/>
                <use id="zoomminus" xlink:href="#zoomMin" x="42" y="9" onmousedown="handleZoom(evt,'out')"/>
                <use id="reset" xlink:href="#resetDef" x="30" y="36" onmousedown="handleReset()"/>
                <g id="arrowUp" xlink:href="#dirArrow" transform="translate(30 24)" onmousedown="handlePan(0,-1)">
                  <use xlink:href="#rim" fill="#404040">
                        <set attributeName="fill" to="#808080" begin="arrowUp.mouseover" end="arrowUp.mouseout"/>
                  </use>
                  <path fill="none" stroke="white" stroke-width="1.5" d="M0,-3.0v7 M-2.5,-0.5L0,-3.0L2.5,-0.5"/>
                </g>
                <g id="arrowRight" xlink:href="#dirArrow" transform="rotate(90) translate(36 -43)" onmousedown="handlePan(1,0)">
                  <use xlink:href="#rim" fill="#404040">
                        <set attributeName="fill" to="#808080" begin="arrowRight.mouseover" end="arrowRight.mouseout"/>
                  </use>
                  <path fill="none" stroke="white" stroke-width="1.5" d="M0,-3.0v7 M-2.5,-0.5L0,-3.0L2.5,-0.5"/>
                </g>
                <g id="arrowDown" xlink:href="#dirArrow" transform="rotate(180) translate(-30 -48)" onmousedown="handlePan(0,1)">
                  <use xlink:href="#rim" fill="#404040">
                        <set attributeName="fill" to="#808080" begin="arrowDown.mouseover" end="arrowDown.mouseout"/>
                  </use>
                  <path fill="none" stroke="white" stroke-width="1.5" d="M0,-3.0v7 M-2.5,-0.5L0,-3.0L2.5,-0.5"/>
                </g>
                <g id="arrowLeft" xlink:href="#dirArrow" transform="rotate(270) translate(-36 17)" onmousedown="handlePan(-1,0)">
                  <use xlink:href="#rim" fill="#404040">
                        <set attributeName="fill" to="#808080" begin="arrowLeft.mouseover" end="arrowLeft.mouseout"/>
                  </use>
                  <path fill="none" stroke="white" stroke-width="1.5" d="M0,-3.0v7 M-2.5,-0.5L0,-3.0L2.5,-0.5"/>
                </g>
        </g>
        <svg viewBox="0 0 15 15" width="100%" height="30px" preserveAspectRatio="xMaxYMin meet">
         <g id="arrow_out" transform="scale(0.3 0.3)">
          <a xlink:href="classLPT_1_1GNSSReceiver__coll__graph_org.svg" target="_base">
           <rect id="button" ry="5" rx="5" y="6" x="6" height="38" width="38"
                fill="#f2f5e9" fill-opacity="0.5" stroke="#606060" stroke-width="1.0"/>
           <path id="arrow"
             d="M 11.500037,31.436501 C 11.940474,20.09759 22.043105,11.32322 32.158766,21.979434 L 37.068811,17.246167 C 37.068811,17.246167 37.088388,32 37.088388,32 L 22.160133,31.978069 C 22.160133,31.978069 26.997745,27.140456 26.997745,27.140456 C 18.528582,18.264221 13.291696,25.230495 11.500037,31.436501 z"
             style="fill:#404040;"/>
          </a>
         </g>
        </svg>
</svg>
