<?xml version="1.0" encoding="UTF-8" standalone="no"?>
<!DOCTYPE svg PUBLIC "-//W3C//DTD SVG 1.1//EN"
 "http://www.w3.org/Graphics/SVG/1.1/DTD/svg11.dtd">
<!-- Generated by graphviz version 2.43.0 (0)
 -->
<!-- Title: LPT::CartesianOrbitState Pages: 1 -->
<svg width="144pt" height="496pt"
 viewBox="0.00 0.00 144.00 496.00" xmlns="http://www.w3.org/2000/svg" xmlns:xlink="http://www.w3.org/1999/xlink">
<g id="graph0" class="graph" transform="scale(1 1) rotate(0) translate(4 492)">
<title>LPT::CartesianOrbitState</title>
<polygon fill="white" stroke="transparent" points="-4,4 -4,-492 140,-492 140,4 -4,4"/>
<!-- Node1 -->
<g id="node1" class="node">
<title>Node1</title>
<g id="a_node1"><a xlink:title=" ">
<polygon fill="#bfbfbf" stroke="black" points="0.5,-0.5 0.5,-123.5 135.5,-123.5 135.5,-0.5 0.5,-0.5"/>
<text text-anchor="middle" x="68" y="-111.5" font-family="Helvetica,sans-Serif" font-size="10.00">LPT::CartesianOrbitState</text>
<polyline fill="none" stroke="black" points="0.5,-104.5 135.5,-104.5 "/>
<text text-anchor="middle" x="68" y="-92.5" font-family="Helvetica,sans-Serif" font-size="10.00"> </text>
<polyline fill="none" stroke="black" points="0.5,-85.5 135.5,-85.5 "/>
<text text-anchor="start" x="8.5" y="-73.5" font-family="Helvetica,sans-Serif" font-size="10.00">+ CartesianOrbitState()</text>
<text text-anchor="start" x="8.5" y="-62.5" font-family="Helvetica,sans-Serif" font-size="10.00">+ Print()</text>
<text text-anchor="start" x="8.5" y="-51.5" font-family="Helvetica,sans-Serif" font-size="10.00">+ Clone()</text>
<text text-anchor="start" x="8.5" y="-40.5" font-family="Helvetica,sans-Serif" font-size="10.00">+ r()</text>
<text text-anchor="start" x="8.5" y="-29.5" font-family="Helvetica,sans-Serif" font-size="10.00">+ v()</text>
<text text-anchor="start" x="8.5" y="-18.5" font-family="Helvetica,sans-Serif" font-size="10.00">+ Set_r()</text>
<text text-anchor="start" x="8.5" y="-7.5" font-family="Helvetica,sans-Serif" font-size="10.00">+ Set_v()</text>
</a>
</g>
</g>
<!-- Node2 -->
<g id="node2" class="node">
<title>Node2</title>
<g id="a_node2"><a xlink:href="classLPT_1_1OrbitState.html" target="_top" xlink:title=" ">
<polygon fill="white" stroke="black" points="0,-160.5 0,-371.5 136,-371.5 136,-160.5 0,-160.5"/>
<text text-anchor="middle" x="68" y="-359.5" font-family="Helvetica,sans-Serif" font-size="10.00">LPT::OrbitState</text>
<polyline fill="none" stroke="black" points="0,-352.5 136,-352.5 "/>
<text text-anchor="start" x="8" y="-340.5" font-family="Helvetica,sans-Serif" font-size="10.00">+ state_size</text>
<polyline fill="none" stroke="black" points="0,-333.5 136,-333.5 "/>
<text text-anchor="start" x="8" y="-321.5" font-family="Helvetica,sans-Serif" font-size="10.00">+ OrbitState()</text>
<text text-anchor="start" x="8" y="-310.5" font-family="Helvetica,sans-Serif" font-size="10.00">+ OrbitState()</text>
<text text-anchor="start" x="8" y="-299.5" font-family="Helvetica,sans-Serif" font-size="10.00">+ ~OrbitState()</text>
<text text-anchor="start" x="8" y="-288.5" font-family="Helvetica,sans-Serif" font-size="10.00">+ GetVector()</text>
<text text-anchor="start" x="8" y="-277.5" font-family="Helvetica,sans-Serif" font-size="10.00">+ GetStateSize()</text>
<text text-anchor="start" x="8" y="-266.5" font-family="Helvetica,sans-Serif" font-size="10.00">+ GetValue()</text>
<text text-anchor="start" x="8" y="-255.5" font-family="Helvetica,sans-Serif" font-size="10.00">+ GetOrbitStateRepres()</text>
<text text-anchor="start" x="8" y="-244.5" font-family="Helvetica,sans-Serif" font-size="10.00">+ GetCoordSystem()</text>
<text text-anchor="start" x="8" y="-233.5" font-family="Helvetica,sans-Serif" font-size="10.00">+ SetValue()</text>
<text text-anchor="start" x="8" y="-222.5" font-family="Helvetica,sans-Serif" font-size="10.00">+ SetVector()</text>
<text text-anchor="start" x="8" y="-211.5" font-family="Helvetica,sans-Serif" font-size="10.00">+ SetOrbitStateRepres()</text>
<text text-anchor="start" x="8" y="-200.5" font-family="Helvetica,sans-Serif" font-size="10.00">+ SetCoordSystem()</text>
<text text-anchor="start" x="8" y="-189.5" font-family="Helvetica,sans-Serif" font-size="10.00">+ operator()()</text>
<text text-anchor="start" x="8" y="-178.5" font-family="Helvetica,sans-Serif" font-size="10.00">+ Print()</text>
<text text-anchor="start" x="8" y="-167.5" font-family="Helvetica,sans-Serif" font-size="10.00">+ Clone()</text>
</a>
</g>
</g>
<!-- Node2&#45;&gt;Node1 -->
<g id="edge1" class="edge">
<title>Node2&#45;&gt;Node1</title>
<path fill="none" stroke="midnightblue" d="M68,-150.43C68,-141.24 68,-132.2 68,-123.63"/>
<polygon fill="none" stroke="midnightblue" points="64.5,-150.45 68,-160.45 71.5,-150.45 64.5,-150.45"/>
</g>
<!-- Node3 -->
<g id="node3" class="node">
<title>Node3</title>
<g id="a_node3"><a xlink:href="classLPT_1_1IState.html" target="_top" xlink:title="Interface for States.">
<polygon fill="white" stroke="black" points="19,-408.5 19,-487.5 117,-487.5 117,-408.5 19,-408.5"/>
<text text-anchor="middle" x="68" y="-475.5" font-family="Helvetica,sans-Serif" font-size="10.00">LPT::IState</text>
<polyline fill="none" stroke="black" points="19,-468.5 117,-468.5 "/>
<text text-anchor="middle" x="68" y="-456.5" font-family="Helvetica,sans-Serif" font-size="10.00"> </text>
<polyline fill="none" stroke="black" points="19,-449.5 117,-449.5 "/>
<text text-anchor="start" x="27" y="-437.5" font-family="Helvetica,sans-Serif" font-size="10.00">+ ~IState()</text>
<text text-anchor="start" x="27" y="-426.5" font-family="Helvetica,sans-Serif" font-size="10.00">+ GetStateSize()</text>
<text text-anchor="start" x="27" y="-415.5" font-family="Helvetica,sans-Serif" font-size="10.00">+ GetValue()</text>
</a>
</g>
</g>
<!-- Node3&#45;&gt;Node2 -->
<g id="edge2" class="edge">
<title>Node3&#45;&gt;Node2</title>
<path fill="none" stroke="midnightblue" d="M68,-398.16C68,-389.81 68,-380.86 68,-371.69"/>
<polygon fill="none" stroke="midnightblue" points="64.5,-398.39 68,-408.39 71.5,-398.39 64.5,-398.39"/>
</g>
</g>
</svg>
