<?xml version="1.0" encoding="UTF-8" standalone="no"?>
<!DOCTYPE svg PUBLIC "-//W3C//DTD SVG 1.1//EN"
 "http://www.w3.org/Graphics/SVG/1.1/DTD/svg11.dtd">
<!-- Generated by graphviz version 2.43.0 (0)
 -->
<!-- Title: LPT::StateEstimationApp Pages: 1 -->
<svg width="149pt" height="270pt"
 viewBox="0.00 0.00 149.00 270.00" xmlns="http://www.w3.org/2000/svg" xmlns:xlink="http://www.w3.org/1999/xlink">
<g id="graph0" class="graph" transform="scale(1 1) rotate(0) translate(4 266)">
<title>LPT::StateEstimationApp</title>
<polygon fill="white" stroke="transparent" points="-4,4 -4,-266 145,-266 145,4 -4,4"/>
<!-- Node1 -->
<g id="node1" class="node">
<title>Node1</title>
<g id="a_node1"><a xlink:title=" ">
<polygon fill="#bfbfbf" stroke="black" points="0,-0.5 0,-134.5 141,-134.5 141,-0.5 0,-0.5"/>
<text text-anchor="middle" x="70.5" y="-122.5" font-family="Helvetica,sans-Serif" font-size="10.00">LPT::StateEstimationApp</text>
<polyline fill="none" stroke="black" points="0,-115.5 141,-115.5 "/>
<text text-anchor="middle" x="70.5" y="-103.5" font-family="Helvetica,sans-Serif" font-size="10.00"> </text>
<polyline fill="none" stroke="black" points="0,-96.5 141,-96.5 "/>
<text text-anchor="start" x="8" y="-84.5" font-family="Helvetica,sans-Serif" font-size="10.00">+ SetAgent()</text>
<text text-anchor="start" x="8" y="-73.5" font-family="Helvetica,sans-Serif" font-size="10.00">+ SetDataHistory()</text>
<text text-anchor="start" x="8" y="-62.5" font-family="Helvetica,sans-Serif" font-size="10.00">+ GetInitialEpoch()</text>
<text text-anchor="start" x="8" y="-51.5" font-family="Helvetica,sans-Serif" font-size="10.00">+ GetCurrentEpoch()</text>
<text text-anchor="start" x="8" y="-40.5" font-family="Helvetica,sans-Serif" font-size="10.00">+ GetCurrrentTime()</text>
<text text-anchor="start" x="8" y="-29.5" font-family="Helvetica,sans-Serif" font-size="10.00">+ SetDynamicsFunction()</text>
<text text-anchor="start" x="8" y="-18.5" font-family="Helvetica,sans-Serif" font-size="10.00">+ Setup()</text>
<text text-anchor="start" x="8" y="-7.5" font-family="Helvetica,sans-Serif" font-size="10.00">+ Step()</text>
</a>
</g>
</g>
<!-- Node2 -->
<g id="node2" class="node">
<title>Node2</title>
<g id="a_node2"><a xlink:href="classLPT_1_1Application.html" target="_top" xlink:title=" ">
<polygon fill="white" stroke="black" points="19,-171.5 19,-261.5 122,-261.5 122,-171.5 19,-171.5"/>
<text text-anchor="middle" x="70.5" y="-249.5" font-family="Helvetica,sans-Serif" font-size="10.00">LPT::Application</text>
<polyline fill="none" stroke="black" points="19,-242.5 122,-242.5 "/>
<text text-anchor="middle" x="70.5" y="-230.5" font-family="Helvetica,sans-Serif" font-size="10.00"> </text>
<polyline fill="none" stroke="black" points="19,-223.5 122,-223.5 "/>
<text text-anchor="start" x="27" y="-211.5" font-family="Helvetica,sans-Serif" font-size="10.00">+ ~Application()</text>
<text text-anchor="start" x="27" y="-200.5" font-family="Helvetica,sans-Serif" font-size="10.00">+ Setup()</text>
<text text-anchor="start" x="27" y="-189.5" font-family="Helvetica,sans-Serif" font-size="10.00">+ Step()</text>
<text text-anchor="start" x="27" y="-178.5" font-family="Helvetica,sans-Serif" font-size="10.00">+ GetFrequency()</text>
</a>
</g>
</g>
<!-- Node2&#45;&gt;Node1 -->
<g id="edge1" class="edge">
<title>Node2&#45;&gt;Node1</title>
<path fill="none" stroke="midnightblue" d="M70.5,-161.37C70.5,-152.66 70.5,-143.55 70.5,-134.59"/>
<polygon fill="none" stroke="midnightblue" points="67,-161.4 70.5,-171.4 74,-161.4 67,-161.4"/>
</g>
</g>
</svg>
