<?xml version="1.0" encoding="UTF-8" standalone="no"?>
<!DOCTYPE svg PUBLIC "-//W3C//DTD SVG 1.1//EN"
 "http://www.w3.org/Graphics/SVG/1.1/DTD/svg11.dtd">
<!-- Generated by graphviz version 2.43.0 (0)
 -->
<!-- Title: LPT::IState Pages: 1 -->
<svg width="1201pt" height="529pt"
 viewBox="0.00 0.00 1201.00 529.00" xmlns="http://www.w3.org/2000/svg" xmlns:xlink="http://www.w3.org/1999/xlink">
<g id="graph0" class="graph" transform="scale(1 1) rotate(0) translate(4 525)">
<title>LPT::IState</title>
<polygon fill="white" stroke="transparent" points="-4,4 -4,-525 1197,-525 1197,4 -4,4"/>
<!-- Node1 -->
<g id="node1" class="node">
<title>Node1</title>
<g id="a_node1"><a xlink:title="Interface for States.">
<polygon fill="#bfbfbf" stroke="black" points="461.5,-441.5 461.5,-520.5 559.5,-520.5 559.5,-441.5 461.5,-441.5"/>
<text text-anchor="middle" x="510.5" y="-508.5" font-family="Helvetica,sans-Serif" font-size="10.00">LPT::IState</text>
<polyline fill="none" stroke="black" points="461.5,-501.5 559.5,-501.5 "/>
<text text-anchor="middle" x="510.5" y="-489.5" font-family="Helvetica,sans-Serif" font-size="10.00"> </text>
<polyline fill="none" stroke="black" points="461.5,-482.5 559.5,-482.5 "/>
<text text-anchor="start" x="469.5" y="-470.5" font-family="Helvetica,sans-Serif" font-size="10.00">+ ~IState()</text>
<text text-anchor="start" x="469.5" y="-459.5" font-family="Helvetica,sans-Serif" font-size="10.00">+ GetStateSize()</text>
<text text-anchor="start" x="469.5" y="-448.5" font-family="Helvetica,sans-Serif" font-size="10.00">+ GetValue()</text>
</a>
</g>
</g>
<!-- Node2 -->
<g id="node2" class="node">
<title>Node2</title>
<g id="a_node2"><a xlink:href="classLPT_1_1ClockState.html" target="_top" xlink:title="Clock State Class.">
<polygon fill="white" stroke="black" points="394.5,-237.5 394.5,-360.5 492.5,-360.5 492.5,-237.5 394.5,-237.5"/>
<text text-anchor="middle" x="443.5" y="-348.5" font-family="Helvetica,sans-Serif" font-size="10.00">LPT::ClockState</text>
<polyline fill="none" stroke="black" points="394.5,-341.5 492.5,-341.5 "/>
<text text-anchor="middle" x="443.5" y="-329.5" font-family="Helvetica,sans-Serif" font-size="10.00"> </text>
<polyline fill="none" stroke="black" points="394.5,-322.5 492.5,-322.5 "/>
<text text-anchor="start" x="402.5" y="-310.5" font-family="Helvetica,sans-Serif" font-size="10.00">+ ClockState()</text>
<text text-anchor="start" x="402.5" y="-299.5" font-family="Helvetica,sans-Serif" font-size="10.00">+ ClockState()</text>
<text text-anchor="start" x="402.5" y="-288.5" font-family="Helvetica,sans-Serif" font-size="10.00">+ GetVector()</text>
<text text-anchor="start" x="402.5" y="-277.5" font-family="Helvetica,sans-Serif" font-size="10.00">+ GetValue()</text>
<text text-anchor="start" x="402.5" y="-266.5" font-family="Helvetica,sans-Serif" font-size="10.00">+ GetStateSize()</text>
<text text-anchor="start" x="402.5" y="-255.5" font-family="Helvetica,sans-Serif" font-size="10.00">+ SetValue()</text>
<text text-anchor="start" x="402.5" y="-244.5" font-family="Helvetica,sans-Serif" font-size="10.00">+ SetVector()</text>
</a>
</g>
</g>
<!-- Node1&#45;&gt;Node2 -->
<g id="edge1" class="edge">
<title>Node1&#45;&gt;Node2</title>
<path fill="none" stroke="midnightblue" d="M492.61,-431.95C484.45,-410.01 474.68,-383.78 466.02,-360.5"/>
<polygon fill="none" stroke="midnightblue" points="489.36,-433.23 496.13,-441.39 495.92,-430.79 489.36,-433.23"/>
</g>
<!-- Node3 -->
<g id="node3" class="node">
<title>Node3</title>
<g id="a_node3"><a xlink:href="classLPT_1_1OrbitState.html" target="_top" xlink:title=" ">
<polygon fill="white" stroke="black" points="510.5,-193.5 510.5,-404.5 646.5,-404.5 646.5,-193.5 510.5,-193.5"/>
<text text-anchor="middle" x="578.5" y="-392.5" font-family="Helvetica,sans-Serif" font-size="10.00">LPT::OrbitState</text>
<polyline fill="none" stroke="black" points="510.5,-385.5 646.5,-385.5 "/>
<text text-anchor="start" x="518.5" y="-373.5" font-family="Helvetica,sans-Serif" font-size="10.00">+ state_size</text>
<polyline fill="none" stroke="black" points="510.5,-366.5 646.5,-366.5 "/>
<text text-anchor="start" x="518.5" y="-354.5" font-family="Helvetica,sans-Serif" font-size="10.00">+ OrbitState()</text>
<text text-anchor="start" x="518.5" y="-343.5" font-family="Helvetica,sans-Serif" font-size="10.00">+ OrbitState()</text>
<text text-anchor="start" x="518.5" y="-332.5" font-family="Helvetica,sans-Serif" font-size="10.00">+ ~OrbitState()</text>
<text text-anchor="start" x="518.5" y="-321.5" font-family="Helvetica,sans-Serif" font-size="10.00">+ GetVector()</text>
<text text-anchor="start" x="518.5" y="-310.5" font-family="Helvetica,sans-Serif" font-size="10.00">+ GetStateSize()</text>
<text text-anchor="start" x="518.5" y="-299.5" font-family="Helvetica,sans-Serif" font-size="10.00">+ GetValue()</text>
<text text-anchor="start" x="518.5" y="-288.5" font-family="Helvetica,sans-Serif" font-size="10.00">+ GetOrbitStateRepres()</text>
<text text-anchor="start" x="518.5" y="-277.5" font-family="Helvetica,sans-Serif" font-size="10.00">+ GetCoordSystem()</text>
<text text-anchor="start" x="518.5" y="-266.5" font-family="Helvetica,sans-Serif" font-size="10.00">+ SetValue()</text>
<text text-anchor="start" x="518.5" y="-255.5" font-family="Helvetica,sans-Serif" font-size="10.00">+ SetVector()</text>
<text text-anchor="start" x="518.5" y="-244.5" font-family="Helvetica,sans-Serif" font-size="10.00">+ SetOrbitStateRepres()</text>
<text text-anchor="start" x="518.5" y="-233.5" font-family="Helvetica,sans-Serif" font-size="10.00">+ SetCoordSystem()</text>
<text text-anchor="start" x="518.5" y="-222.5" font-family="Helvetica,sans-Serif" font-size="10.00">+ operator()()</text>
<text text-anchor="start" x="518.5" y="-211.5" font-family="Helvetica,sans-Serif" font-size="10.00">+ Print()</text>
<text text-anchor="start" x="518.5" y="-200.5" font-family="Helvetica,sans-Serif" font-size="10.00">+ Clone()</text>
</a>
</g>
</g>
<!-- Node1&#45;&gt;Node3 -->
<g id="edge2" class="edge">
<title>Node1&#45;&gt;Node3</title>
<path fill="none" stroke="midnightblue" d="M528.64,-431.99C531.88,-423.41 535.37,-414.16 538.95,-404.69"/>
<polygon fill="none" stroke="midnightblue" points="525.35,-430.79 525.09,-441.39 531.9,-433.27 525.35,-430.79"/>
</g>
<!-- Node4 -->
<g id="node4" class="node">
<title>Node4</title>
<g id="a_node4"><a xlink:href="classLPT_1_1CartesianOrbitState.html" target="_top" xlink:title=" ">
<polygon fill="white" stroke="black" points="0,-17 0,-140 135,-140 135,-17 0,-17"/>
<text text-anchor="middle" x="67.5" y="-128" font-family="Helvetica,sans-Serif" font-size="10.00">LPT::CartesianOrbitState</text>
<polyline fill="none" stroke="black" points="0,-121 135,-121 "/>
<text text-anchor="middle" x="67.5" y="-109" font-family="Helvetica,sans-Serif" font-size="10.00"> </text>
<polyline fill="none" stroke="black" points="0,-102 135,-102 "/>
<text text-anchor="start" x="8" y="-90" font-family="Helvetica,sans-Serif" font-size="10.00">+ CartesianOrbitState()</text>
<text text-anchor="start" x="8" y="-79" font-family="Helvetica,sans-Serif" font-size="10.00">+ Print()</text>
<text text-anchor="start" x="8" y="-68" font-family="Helvetica,sans-Serif" font-size="10.00">+ Clone()</text>
<text text-anchor="start" x="8" y="-57" font-family="Helvetica,sans-Serif" font-size="10.00">+ r()</text>
<text text-anchor="start" x="8" y="-46" font-family="Helvetica,sans-Serif" font-size="10.00">+ v()</text>
<text text-anchor="start" x="8" y="-35" font-family="Helvetica,sans-Serif" font-size="10.00">+ Set_r()</text>
<text text-anchor="start" x="8" y="-24" font-family="Helvetica,sans-Serif" font-size="10.00">+ Set_v()</text>
</a>
</g>
</g>
<!-- Node3&#45;&gt;Node4 -->
<g id="edge3" class="edge">
<title>Node3&#45;&gt;Node4</title>
<path fill="none" stroke="midnightblue" d="M501.78,-193.16C501.69,-193.11 501.6,-193.05 501.5,-193 363.05,-113.86 288.47,-225.58 144.5,-157 135.42,-152.68 126.81,-146.82 118.85,-140.25"/>
<polygon fill="none" stroke="midnightblue" points="500.07,-196.22 510.37,-198.71 503.87,-190.34 500.07,-196.22"/>
</g>
<!-- Node5 -->
<g id="node5" class="node">
<title>Node5</title>
<g id="a_node5"><a xlink:href="classLPT_1_1ClassicalOE.html" target="_top" xlink:title=" ">
<polygon fill="white" stroke="black" points="153.5,-0.5 153.5,-156.5 257.5,-156.5 257.5,-0.5 153.5,-0.5"/>
<text text-anchor="middle" x="205.5" y="-144.5" font-family="Helvetica,sans-Serif" font-size="10.00">LPT::ClassicalOE</text>
<polyline fill="none" stroke="black" points="153.5,-137.5 257.5,-137.5 "/>
<text text-anchor="middle" x="205.5" y="-125.5" font-family="Helvetica,sans-Serif" font-size="10.00"> </text>
<polyline fill="none" stroke="black" points="153.5,-118.5 257.5,-118.5 "/>
<text text-anchor="start" x="161.5" y="-106.5" font-family="Helvetica,sans-Serif" font-size="10.00">+ ClassicalOE()</text>
<text text-anchor="start" x="161.5" y="-95.5" font-family="Helvetica,sans-Serif" font-size="10.00">+ ClassicalOE()</text>
<text text-anchor="start" x="161.5" y="-84.5" font-family="Helvetica,sans-Serif" font-size="10.00">+ Print()</text>
<text text-anchor="start" x="161.5" y="-73.5" font-family="Helvetica,sans-Serif" font-size="10.00">+ Clone()</text>
<text text-anchor="start" x="161.5" y="-62.5" font-family="Helvetica,sans-Serif" font-size="10.00">+ GETSET_ELEM()</text>
<text text-anchor="start" x="161.5" y="-51.5" font-family="Helvetica,sans-Serif" font-size="10.00">+ GETSET_ELEM()</text>
<text text-anchor="start" x="161.5" y="-40.5" font-family="Helvetica,sans-Serif" font-size="10.00">+ GETSET_ELEM()</text>
<text text-anchor="start" x="161.5" y="-29.5" font-family="Helvetica,sans-Serif" font-size="10.00">+ GETSET_ELEM()</text>
<text text-anchor="start" x="161.5" y="-18.5" font-family="Helvetica,sans-Serif" font-size="10.00">+ GETSET_ELEM()</text>
<text text-anchor="start" x="161.5" y="-7.5" font-family="Helvetica,sans-Serif" font-size="10.00">+ GETSET_ELEM()</text>
</a>
</g>
</g>
<!-- Node3&#45;&gt;Node5 -->
<g id="edge4" class="edge">
<title>Node3&#45;&gt;Node5</title>
<path fill="none" stroke="midnightblue" d="M501.78,-193.17C501.69,-193.11 501.59,-193.06 501.5,-193 411.15,-138.22 357.77,-210.23 266.5,-157 263.54,-155.27 260.67,-153.35 257.9,-151.26"/>
<polygon fill="none" stroke="midnightblue" points="500.01,-196.2 510.25,-198.92 503.94,-190.41 500.01,-196.2"/>
</g>
<!-- Node6 -->
<g id="node6" class="node">
<title>Node6</title>
<g id="a_node6"><a xlink:href="classLPT_1_1DelaunayOE.html" target="_top" xlink:title=" ">
<polygon fill="white" stroke="black" points="275.5,-0.5 275.5,-156.5 379.5,-156.5 379.5,-0.5 275.5,-0.5"/>
<text text-anchor="middle" x="327.5" y="-144.5" font-family="Helvetica,sans-Serif" font-size="10.00">LPT::DelaunayOE</text>
<polyline fill="none" stroke="black" points="275.5,-137.5 379.5,-137.5 "/>
<text text-anchor="middle" x="327.5" y="-125.5" font-family="Helvetica,sans-Serif" font-size="10.00"> </text>
<polyline fill="none" stroke="black" points="275.5,-118.5 379.5,-118.5 "/>
<text text-anchor="start" x="283.5" y="-106.5" font-family="Helvetica,sans-Serif" font-size="10.00">+ DelaunayOE()</text>
<text text-anchor="start" x="283.5" y="-95.5" font-family="Helvetica,sans-Serif" font-size="10.00">+ DelaunayOE()</text>
<text text-anchor="start" x="283.5" y="-84.5" font-family="Helvetica,sans-Serif" font-size="10.00">+ Print()</text>
<text text-anchor="start" x="283.5" y="-73.5" font-family="Helvetica,sans-Serif" font-size="10.00">+ Clone()</text>
<text text-anchor="start" x="283.5" y="-62.5" font-family="Helvetica,sans-Serif" font-size="10.00">+ GETSET_ELEM()</text>
<text text-anchor="start" x="283.5" y="-51.5" font-family="Helvetica,sans-Serif" font-size="10.00">+ GETSET_ELEM()</text>
<text text-anchor="start" x="283.5" y="-40.5" font-family="Helvetica,sans-Serif" font-size="10.00">+ GETSET_ELEM()</text>
<text text-anchor="start" x="283.5" y="-29.5" font-family="Helvetica,sans-Serif" font-size="10.00">+ GETSET_ELEM()</text>
<text text-anchor="start" x="283.5" y="-18.5" font-family="Helvetica,sans-Serif" font-size="10.00">+ GETSET_ELEM()</text>
<text text-anchor="start" x="283.5" y="-7.5" font-family="Helvetica,sans-Serif" font-size="10.00">+ GETSET_ELEM()</text>
</a>
</g>
</g>
<!-- Node3&#45;&gt;Node6 -->
<g id="edge5" class="edge">
<title>Node3&#45;&gt;Node6</title>
<path fill="none" stroke="midnightblue" d="M502.35,-193.62C502.07,-193.41 501.78,-193.2 501.5,-193 458.7,-162.24 431.82,-187.03 388.5,-157 385.54,-154.95 382.66,-152.72 379.87,-150.34"/>
<polygon fill="none" stroke="midnightblue" points="500.36,-196.5 510.37,-199.97 504.7,-191.02 500.36,-196.5"/>
</g>
<!-- Node7 -->
<g id="node7" class="node">
<title>Node7</title>
<g id="a_node7"><a xlink:href="classLPT_1_1EquinoctialOE.html" target="_top" xlink:title=" ">
<polygon fill="white" stroke="black" points="398,-0.5 398,-156.5 505,-156.5 505,-0.5 398,-0.5"/>
<text text-anchor="middle" x="451.5" y="-144.5" font-family="Helvetica,sans-Serif" font-size="10.00">LPT::EquinoctialOE</text>
<polyline fill="none" stroke="black" points="398,-137.5 505,-137.5 "/>
<text text-anchor="middle" x="451.5" y="-125.5" font-family="Helvetica,sans-Serif" font-size="10.00"> </text>
<polyline fill="none" stroke="black" points="398,-118.5 505,-118.5 "/>
<text text-anchor="start" x="406" y="-106.5" font-family="Helvetica,sans-Serif" font-size="10.00">+ EquinoctialOE()</text>
<text text-anchor="start" x="406" y="-95.5" font-family="Helvetica,sans-Serif" font-size="10.00">+ EquinoctialOE()</text>
<text text-anchor="start" x="406" y="-84.5" font-family="Helvetica,sans-Serif" font-size="10.00">+ Print()</text>
<text text-anchor="start" x="406" y="-73.5" font-family="Helvetica,sans-Serif" font-size="10.00">+ Clone()</text>
<text text-anchor="start" x="406" y="-62.5" font-family="Helvetica,sans-Serif" font-size="10.00">+ GETSET_ELEM()</text>
<text text-anchor="start" x="406" y="-51.5" font-family="Helvetica,sans-Serif" font-size="10.00">+ GETSET_ELEM()</text>
<text text-anchor="start" x="406" y="-40.5" font-family="Helvetica,sans-Serif" font-size="10.00">+ GETSET_ELEM()</text>
<text text-anchor="start" x="406" y="-29.5" font-family="Helvetica,sans-Serif" font-size="10.00">+ GETSET_ELEM()</text>
<text text-anchor="start" x="406" y="-18.5" font-family="Helvetica,sans-Serif" font-size="10.00">+ GETSET_ELEM()</text>
<text text-anchor="start" x="406" y="-7.5" font-family="Helvetica,sans-Serif" font-size="10.00">+ GETSET_ELEM()</text>
</a>
</g>
</g>
<!-- Node3&#45;&gt;Node7 -->
<g id="edge6" class="edge">
<title>Node3&#45;&gt;Node7</title>
<path fill="none" stroke="midnightblue" d="M512.54,-184.52C507.04,-175.05 501.55,-165.61 496.26,-156.51"/>
<polygon fill="none" stroke="midnightblue" points="509.55,-186.34 517.6,-193.23 515.6,-182.83 509.55,-186.34"/>
</g>
<!-- Node8 -->
<g id="node8" class="node">
<title>Node8</title>
<g id="a_node8"><a xlink:href="classLPT_1_1NonsingularOE.html" target="_top" xlink:title=" ">
<polygon fill="white" stroke="black" points="523,-0.5 523,-156.5 634,-156.5 634,-0.5 523,-0.5"/>
<text text-anchor="middle" x="578.5" y="-144.5" font-family="Helvetica,sans-Serif" font-size="10.00">LPT::NonsingularOE</text>
<polyline fill="none" stroke="black" points="523,-137.5 634,-137.5 "/>
<text text-anchor="middle" x="578.5" y="-125.5" font-family="Helvetica,sans-Serif" font-size="10.00"> </text>
<polyline fill="none" stroke="black" points="523,-118.5 634,-118.5 "/>
<text text-anchor="start" x="531" y="-106.5" font-family="Helvetica,sans-Serif" font-size="10.00">+ NonsingularOE()</text>
<text text-anchor="start" x="531" y="-95.5" font-family="Helvetica,sans-Serif" font-size="10.00">+ NonsingularOE()</text>
<text text-anchor="start" x="531" y="-84.5" font-family="Helvetica,sans-Serif" font-size="10.00">+ Print()</text>
<text text-anchor="start" x="531" y="-73.5" font-family="Helvetica,sans-Serif" font-size="10.00">+ Clone()</text>
<text text-anchor="start" x="531" y="-62.5" font-family="Helvetica,sans-Serif" font-size="10.00">+ GETSET_ELEM()</text>
<text text-anchor="start" x="531" y="-51.5" font-family="Helvetica,sans-Serif" font-size="10.00">+ GETSET_ELEM()</text>
<text text-anchor="start" x="531" y="-40.5" font-family="Helvetica,sans-Serif" font-size="10.00">+ GETSET_ELEM()</text>
<text text-anchor="start" x="531" y="-29.5" font-family="Helvetica,sans-Serif" font-size="10.00">+ GETSET_ELEM()</text>
<text text-anchor="start" x="531" y="-18.5" font-family="Helvetica,sans-Serif" font-size="10.00">+ GETSET_ELEM()</text>
<text text-anchor="start" x="531" y="-7.5" font-family="Helvetica,sans-Serif" font-size="10.00">+ GETSET_ELEM()</text>
</a>
</g>
</g>
<!-- Node3&#45;&gt;Node8 -->
<g id="edge7" class="edge">
<title>Node3&#45;&gt;Node8</title>
<path fill="none" stroke="midnightblue" d="M578.5,-183.07C578.5,-174.09 578.5,-165.15 578.5,-156.51"/>
<polygon fill="none" stroke="midnightblue" points="575,-183.23 578.5,-193.23 582,-183.23 575,-183.23"/>
</g>
<!-- Node9 -->
<g id="node9" class="node">
<title>Node9</title>
<g id="a_node9"><a xlink:href="classLPT_1_1QuasiNonsingularOE.html" target="_top" xlink:title=" ">
<polygon fill="white" stroke="black" points="652,-0.5 652,-156.5 791,-156.5 791,-0.5 652,-0.5"/>
<text text-anchor="middle" x="721.5" y="-144.5" font-family="Helvetica,sans-Serif" font-size="10.00">LPT::QuasiNonsingularOE</text>
<polyline fill="none" stroke="black" points="652,-137.5 791,-137.5 "/>
<text text-anchor="middle" x="721.5" y="-125.5" font-family="Helvetica,sans-Serif" font-size="10.00"> </text>
<polyline fill="none" stroke="black" points="652,-118.5 791,-118.5 "/>
<text text-anchor="start" x="660" y="-106.5" font-family="Helvetica,sans-Serif" font-size="10.00">+ QuasiNonsingularOE()</text>
<text text-anchor="start" x="660" y="-95.5" font-family="Helvetica,sans-Serif" font-size="10.00">+ QuasiNonsingularOE()</text>
<text text-anchor="start" x="660" y="-84.5" font-family="Helvetica,sans-Serif" font-size="10.00">+ Print()</text>
<text text-anchor="start" x="660" y="-73.5" font-family="Helvetica,sans-Serif" font-size="10.00">+ Clone()</text>
<text text-anchor="start" x="660" y="-62.5" font-family="Helvetica,sans-Serif" font-size="10.00">+ GETSET_ELEM()</text>
<text text-anchor="start" x="660" y="-51.5" font-family="Helvetica,sans-Serif" font-size="10.00">+ GETSET_ELEM()</text>
<text text-anchor="start" x="660" y="-40.5" font-family="Helvetica,sans-Serif" font-size="10.00">+ GETSET_ELEM()</text>
<text text-anchor="start" x="660" y="-29.5" font-family="Helvetica,sans-Serif" font-size="10.00">+ GETSET_ELEM()</text>
<text text-anchor="start" x="660" y="-18.5" font-family="Helvetica,sans-Serif" font-size="10.00">+ GETSET_ELEM()</text>
<text text-anchor="start" x="660" y="-7.5" font-family="Helvetica,sans-Serif" font-size="10.00">+ GETSET_ELEM()</text>
</a>
</g>
</g>
<!-- Node3&#45;&gt;Node9 -->
<g id="edge8" class="edge">
<title>Node3&#45;&gt;Node9</title>
<path fill="none" stroke="midnightblue" d="M652.23,-185.35C658.57,-175.65 664.9,-165.99 671,-156.67"/>
<polygon fill="none" stroke="midnightblue" points="649.2,-183.59 646.65,-193.87 655.05,-187.42 649.2,-183.59"/>
</g>
<!-- Node10 -->
<g id="node10" class="node">
<title>Node10</title>
<g id="a_node10"><a xlink:href="classLPT_1_1QuasiNonsingularROE.html" target="_top" xlink:title=" ">
<polygon fill="white" stroke="black" points="809.5,-0.5 809.5,-156.5 955.5,-156.5 955.5,-0.5 809.5,-0.5"/>
<text text-anchor="middle" x="882.5" y="-144.5" font-family="Helvetica,sans-Serif" font-size="10.00">LPT::QuasiNonsingularROE</text>
<polyline fill="none" stroke="black" points="809.5,-137.5 955.5,-137.5 "/>
<text text-anchor="middle" x="882.5" y="-125.5" font-family="Helvetica,sans-Serif" font-size="10.00"> </text>
<polyline fill="none" stroke="black" points="809.5,-118.5 955.5,-118.5 "/>
<text text-anchor="start" x="817.5" y="-106.5" font-family="Helvetica,sans-Serif" font-size="10.00">+ QuasiNonsingularROE()</text>
<text text-anchor="start" x="817.5" y="-95.5" font-family="Helvetica,sans-Serif" font-size="10.00">+ QuasiNonsingularROE()</text>
<text text-anchor="start" x="817.5" y="-84.5" font-family="Helvetica,sans-Serif" font-size="10.00">+ Print()</text>
<text text-anchor="start" x="817.5" y="-73.5" font-family="Helvetica,sans-Serif" font-size="10.00">+ Clone()</text>
<text text-anchor="start" x="817.5" y="-62.5" font-family="Helvetica,sans-Serif" font-size="10.00">+ GETSET_ELEM()</text>
<text text-anchor="start" x="817.5" y="-51.5" font-family="Helvetica,sans-Serif" font-size="10.00">+ GETSET_ELEM()</text>
<text text-anchor="start" x="817.5" y="-40.5" font-family="Helvetica,sans-Serif" font-size="10.00">+ GETSET_ELEM()</text>
<text text-anchor="start" x="817.5" y="-29.5" font-family="Helvetica,sans-Serif" font-size="10.00">+ GETSET_ELEM()</text>
<text text-anchor="start" x="817.5" y="-18.5" font-family="Helvetica,sans-Serif" font-size="10.00">+ GETSET_ELEM()</text>
<text text-anchor="start" x="817.5" y="-7.5" font-family="Helvetica,sans-Serif" font-size="10.00">+ GETSET_ELEM()</text>
</a>
</g>
</g>
<!-- Node3&#45;&gt;Node10 -->
<g id="edge9" class="edge">
<title>Node3&#45;&gt;Node10</title>
<path fill="none" stroke="midnightblue" d="M655.43,-254.12C699.32,-227.88 754.57,-192.76 800.5,-157 803.44,-154.71 806.39,-152.34 809.34,-149.9"/>
<polygon fill="none" stroke="midnightblue" points="653.61,-251.13 646.81,-259.25 657.19,-257.14 653.61,-251.13"/>
</g>
<!-- Node11 -->
<g id="node11" class="node">
<title>Node11</title>
<g id="a_node11"><a xlink:href="classLPT_1_1SingularROE.html" target="_top" xlink:title=" ">
<polygon fill="white" stroke="black" points="973.5,-0.5 973.5,-156.5 1077.5,-156.5 1077.5,-0.5 973.5,-0.5"/>
<text text-anchor="middle" x="1025.5" y="-144.5" font-family="Helvetica,sans-Serif" font-size="10.00">LPT::SingularROE</text>
<polyline fill="none" stroke="black" points="973.5,-137.5 1077.5,-137.5 "/>
<text text-anchor="middle" x="1025.5" y="-125.5" font-family="Helvetica,sans-Serif" font-size="10.00"> </text>
<polyline fill="none" stroke="black" points="973.5,-118.5 1077.5,-118.5 "/>
<text text-anchor="start" x="981.5" y="-106.5" font-family="Helvetica,sans-Serif" font-size="10.00">+ SingularROE()</text>
<text text-anchor="start" x="981.5" y="-95.5" font-family="Helvetica,sans-Serif" font-size="10.00">+ SingularROE()</text>
<text text-anchor="start" x="981.5" y="-84.5" font-family="Helvetica,sans-Serif" font-size="10.00">+ Print()</text>
<text text-anchor="start" x="981.5" y="-73.5" font-family="Helvetica,sans-Serif" font-size="10.00">+ Clone()</text>
<text text-anchor="start" x="981.5" y="-62.5" font-family="Helvetica,sans-Serif" font-size="10.00">+ GETSET_ELEM()</text>
<text text-anchor="start" x="981.5" y="-51.5" font-family="Helvetica,sans-Serif" font-size="10.00">+ GETSET_ELEM()</text>
<text text-anchor="start" x="981.5" y="-40.5" font-family="Helvetica,sans-Serif" font-size="10.00">+ GETSET_ELEM()</text>
<text text-anchor="start" x="981.5" y="-29.5" font-family="Helvetica,sans-Serif" font-size="10.00">+ GETSET_ELEM()</text>
<text text-anchor="start" x="981.5" y="-18.5" font-family="Helvetica,sans-Serif" font-size="10.00">+ GETSET_ELEM()</text>
<text text-anchor="start" x="981.5" y="-7.5" font-family="Helvetica,sans-Serif" font-size="10.00">+ GETSET_ELEM()</text>
</a>
</g>
</g>
<!-- Node3&#45;&gt;Node11 -->
<g id="edge10" class="edge">
<title>Node3&#45;&gt;Node11</title>
<path fill="none" stroke="midnightblue" d="M656.49,-282.84C739.02,-263.91 870.13,-225.39 964.5,-157 967.55,-154.79 970.53,-152.39 973.42,-149.84"/>
<polygon fill="none" stroke="midnightblue" points="655.65,-279.44 646.67,-285.05 657.19,-286.27 655.65,-279.44"/>
</g>
<!-- Node12 -->
<g id="node12" class="node">
<title>Node12</title>
<g id="a_node12"><a xlink:href="classPyOrbitState.html" target="_top" xlink:title=" ">
<polygon fill="white" stroke="black" points="1096,-33.5 1096,-123.5 1193,-123.5 1193,-33.5 1096,-33.5"/>
<text text-anchor="middle" x="1144.5" y="-111.5" font-family="Helvetica,sans-Serif" font-size="10.00">PyOrbitState</text>
<polyline fill="none" stroke="black" points="1096,-104.5 1193,-104.5 "/>
<text text-anchor="middle" x="1144.5" y="-92.5" font-family="Helvetica,sans-Serif" font-size="10.00"> </text>
<polyline fill="none" stroke="black" points="1096,-85.5 1193,-85.5 "/>
<text text-anchor="start" x="1104" y="-73.5" font-family="Helvetica,sans-Serif" font-size="10.00">+ PyOrbitState()</text>
<text text-anchor="start" x="1104" y="-62.5" font-family="Helvetica,sans-Serif" font-size="10.00">+ PyOrbitState()</text>
<text text-anchor="start" x="1104" y="-51.5" font-family="Helvetica,sans-Serif" font-size="10.00">+ Print()</text>
<text text-anchor="start" x="1104" y="-40.5" font-family="Helvetica,sans-Serif" font-size="10.00">+ Clone()</text>
</a>
</g>
</g>
<!-- Node3&#45;&gt;Node12 -->
<g id="edge11" class="edge">
<title>Node3&#45;&gt;Node12</title>
<path fill="none" stroke="midnightblue" d="M656.8,-291.99C762.59,-280.57 953.27,-248.06 1086.5,-157 1099.13,-148.37 1110.1,-136.08 1119.01,-123.83"/>
<polygon fill="none" stroke="midnightblue" points="656.41,-288.51 646.83,-293.03 657.14,-295.47 656.41,-288.51"/>
</g>
</g>
</svg>
