<?xml version="1.0" encoding="UTF-8" standalone="no"?>
<!DOCTYPE svg PUBLIC "-//W3C//DTD SVG 1.1//EN"
 "http://www.w3.org/Graphics/SVG/1.1/DTD/svg11.dtd">
<!-- Generated by graphviz version 8.1.0 (20230707.0739)
 -->
<!-- Title: LPT::CartesianTwoBodyDynamics Pages: 1 -->
<svg width="167pt" height="512pt"
 viewBox="0.00 0.00 167.00 512.00" xmlns="http://www.w3.org/2000/svg" xmlns:xlink="http://www.w3.org/1999/xlink">
<g id="graph0" class="graph" transform="scale(1 1) rotate(0) translate(4 508)">
<title>LPT::CartesianTwoBodyDynamics</title>
<!-- Node1 -->
<g id="Node000001" class="node">
<title>Node1</title>
<g id="a_Node000001"><a xlink:title=" ">
<polygon fill="#999999" stroke="none" points="159,-64 0,-64 0,0 159,0 159,-64"/>
<text text-anchor="start" x="4.88" y="-50.5" font-family="Helvetica,sans-Serif" font-size="10.00">LPT::CartesianTwoBodyDynamics</text>
<text text-anchor="start" x="78" y="-35.5" font-family="Helvetica,sans-Serif" font-size="10.00"> </text>
<text text-anchor="start" x="6" y="-20.5" font-family="Helvetica,sans-Serif" font-size="10.00">+</text>
<text text-anchor="start" x="18" y="-20.5" font-family="Helvetica,sans-Serif" font-size="10.00">CartesianTwoBodyDynamics()</text>
<text text-anchor="start" x="6" y="-5.5" font-family="Helvetica,sans-Serif" font-size="10.00">+</text>
<text text-anchor="start" x="18" y="-5.5" font-family="Helvetica,sans-Serif" font-size="10.00">ComputeRates()</text>
<polygon fill="#666666" stroke="#666666" points="0,-47 0,-47 159,-47 159,-47 0,-47"/>
<polygon fill="#666666" stroke="#666666" points="0,-32 0,-32 159,-32 159,-32 0,-32"/>
<polygon fill="none" stroke="#666666" points="0,0 0,-64 159,-64 159,0 0,0"/>
</a>
</g>
</g>
<!-- Node2 -->
<g id="Node000002" class="node">
<title>Node2</title>
<g id="a_Node000002"><a xlink:href="class_l_p_t_1_1_numerical_dynamics.html" target="_top" xlink:title=" ">
<polygon fill="white" stroke="none" points="140,-299 19,-299 19,-100 140,-100 140,-299"/>
<text text-anchor="start" x="24" y="-285.5" font-family="Helvetica,sans-Serif" font-size="10.00">LPT::NumericalDynamics</text>
<text text-anchor="start" x="78" y="-270.5" font-family="Helvetica,sans-Serif" font-size="10.00"> </text>
<text text-anchor="start" x="25" y="-255.5" font-family="Helvetica,sans-Serif" font-size="10.00">+</text>
<text text-anchor="start" x="37" y="-255.5" font-family="Helvetica,sans-Serif" font-size="10.00">NumericalDynamics()</text>
<text text-anchor="start" x="25" y="-240.5" font-family="Helvetica,sans-Serif" font-size="10.00">+</text>
<text text-anchor="start" x="37" y="-240.5" font-family="Helvetica,sans-Serif" font-size="10.00">SetDt()</text>
<text text-anchor="start" x="25" y="-225.5" font-family="Helvetica,sans-Serif" font-size="10.00">+</text>
<text text-anchor="start" x="37" y="-225.5" font-family="Helvetica,sans-Serif" font-size="10.00">Propagate()</text>
<text text-anchor="start" x="25" y="-210.5" font-family="Helvetica,sans-Serif" font-size="10.00">+</text>
<text text-anchor="start" x="37" y="-210.5" font-family="Helvetica,sans-Serif" font-size="10.00">Propagate()</text>
<text text-anchor="start" x="25" y="-195.5" font-family="Helvetica,sans-Serif" font-size="10.00">+</text>
<text text-anchor="start" x="37" y="-195.5" font-family="Helvetica,sans-Serif" font-size="10.00">PropagateWithStm()</text>
<text text-anchor="start" x="25" y="-180.5" font-family="Helvetica,sans-Serif" font-size="10.00">+</text>
<text text-anchor="start" x="37" y="-180.5" font-family="Helvetica,sans-Serif" font-size="10.00">PropagateWithStm()</text>
<text text-anchor="start" x="25" y="-165.5" font-family="Helvetica,sans-Serif" font-size="10.00">+</text>
<text text-anchor="start" x="37" y="-165.5" font-family="Helvetica,sans-Serif" font-size="10.00">Propagate()</text>
<text text-anchor="start" x="25" y="-150.5" font-family="Helvetica,sans-Serif" font-size="10.00">+</text>
<text text-anchor="start" x="37" y="-150.5" font-family="Helvetica,sans-Serif" font-size="10.00">Propagate()</text>
<text text-anchor="start" x="25" y="-135.5" font-family="Helvetica,sans-Serif" font-size="10.00">+</text>
<text text-anchor="start" x="37" y="-135.5" font-family="Helvetica,sans-Serif" font-size="10.00">PropagateWithStm()</text>
<text text-anchor="start" x="25" y="-120.5" font-family="Helvetica,sans-Serif" font-size="10.00">+</text>
<text text-anchor="start" x="37" y="-120.5" font-family="Helvetica,sans-Serif" font-size="10.00">PropagateWithStm()</text>
<text text-anchor="start" x="25.38" y="-105.5" font-family="Helvetica,sans-Serif" font-size="10.00">#</text>
<text text-anchor="start" x="37" y="-105.5" font-family="Helvetica,sans-Serif" font-size="10.00">ComputeRates()</text>
<polygon fill="#bfbfbf" stroke="#bfbfbf" points="19,-282 19,-282 140,-282 140,-282 19,-282"/>
<polygon fill="#bfbfbf" stroke="#bfbfbf" points="19,-267 19,-267 140,-267 140,-267 19,-267"/>
<polygon fill="none" stroke="#bfbfbf" points="19,-100 19,-299 140,-299 140,-100 19,-100"/>
</a>
</g>
</g>
<!-- Node2&#45;&gt;Node1 -->
<g id="edge1_Node000001_Node000002" class="edge">
<title>Node2&#45;&gt;Node1</title>
<g id="a_edge1_Node000001_Node000002"><a xlink:title=" ">
<path fill="none" stroke="#63b8ff" d="M79.5,-89.32C79.5,-80.11 79.5,-71.4 79.5,-63.69"/>
<polygon fill="none" stroke="#63b8ff" points="76,-89.32 79.5,-99.32 83,-89.32 76,-89.32"/>
</a>
</g>
</g>
<!-- Node3 -->
<g id="Node000003" class="node">
<title>Node3</title>
<g id="a_Node000003"><a xlink:href="class_l_p_t_1_1_i_orbit_dynamics.html" target="_top" xlink:title="Interface for Orbit Dynamics (Todo: find a way to inherit this from IDynamics)">
<polygon fill="white" stroke="none" points="132.5,-504 26.5,-504 26.5,-335 132.5,-335 132.5,-504"/>
<text text-anchor="start" x="34.12" y="-490.5" font-family="Helvetica,sans-Serif" font-size="10.00">LPT::IOrbitDynamics</text>
<text text-anchor="start" x="78" y="-475.5" font-family="Helvetica,sans-Serif" font-size="10.00"> </text>
<text text-anchor="start" x="30.5" y="-460.5" font-family="Helvetica,sans-Serif" font-size="10.00">+</text>
<text text-anchor="start" x="40.5" y="-460.5" font-family="Helvetica,sans-Serif" font-size="10.00">~IOrbitDynamics()</text>
<text text-anchor="start" x="30.5" y="-445.5" font-family="Helvetica,sans-Serif" font-size="10.00">+</text>
<text text-anchor="start" x="40.5" y="-445.5" font-family="Helvetica,sans-Serif" font-size="10.00">Propagate()</text>
<text text-anchor="start" x="30.5" y="-430.5" font-family="Helvetica,sans-Serif" font-size="10.00">+</text>
<text text-anchor="start" x="40.5" y="-430.5" font-family="Helvetica,sans-Serif" font-size="10.00">Propagate()</text>
<text text-anchor="start" x="30.5" y="-415.5" font-family="Helvetica,sans-Serif" font-size="10.00">+</text>
<text text-anchor="start" x="40.5" y="-415.5" font-family="Helvetica,sans-Serif" font-size="10.00">PropagateWithStm()</text>
<text text-anchor="start" x="30.5" y="-400.5" font-family="Helvetica,sans-Serif" font-size="10.00">+</text>
<text text-anchor="start" x="40.5" y="-400.5" font-family="Helvetica,sans-Serif" font-size="10.00">PropagateWithStm()</text>
<text text-anchor="start" x="30.5" y="-385.5" font-family="Helvetica,sans-Serif" font-size="10.00">+</text>
<text text-anchor="start" x="40.5" y="-385.5" font-family="Helvetica,sans-Serif" font-size="10.00">Propagate()</text>
<text text-anchor="start" x="30.5" y="-370.5" font-family="Helvetica,sans-Serif" font-size="10.00">+</text>
<text text-anchor="start" x="40.5" y="-370.5" font-family="Helvetica,sans-Serif" font-size="10.00">Propagate()</text>
<text text-anchor="start" x="30.5" y="-355.5" font-family="Helvetica,sans-Serif" font-size="10.00">+</text>
<text text-anchor="start" x="40.5" y="-355.5" font-family="Helvetica,sans-Serif" font-size="10.00">PropagateWithStm()</text>
<text text-anchor="start" x="30.5" y="-340.5" font-family="Helvetica,sans-Serif" font-size="10.00">+</text>
<text text-anchor="start" x="40.5" y="-340.5" font-family="Helvetica,sans-Serif" font-size="10.00">PropagateWithStm()</text>
<polygon fill="#666666" stroke="#666666" points="26.5,-487 26.5,-487 132.5,-487 132.5,-487 26.5,-487"/>
<polygon fill="#666666" stroke="#666666" points="26.5,-472 26.5,-472 132.5,-472 132.5,-472 26.5,-472"/>
<polygon fill="none" stroke="#666666" points="26.5,-335 26.5,-504 132.5,-504 132.5,-335 26.5,-335"/>
</a>
</g>
</g>
<!-- Node3&#45;&gt;Node2 -->
<g id="edge2_Node000002_Node000003" class="edge">
<title>Node3&#45;&gt;Node2</title>
<g id="a_edge2_Node000002_Node000003"><a xlink:title=" ">
<path fill="none" stroke="#63b8ff" d="M79.5,-324.17C79.5,-315.75 79.5,-307.22 79.5,-298.77"/>
<polygon fill="none" stroke="#63b8ff" points="76,-324.15 79.5,-334.15 83,-324.15 76,-324.15"/>
</a>
</g>
</g>
</g>
</svg>
