<?xml version="1.0" encoding="UTF-8" standalone="no"?>
<!DOCTYPE svg PUBLIC "-//W3C//DTD SVG 1.1//EN"
 "http://www.w3.org/Graphics/SVG/1.1/DTD/svg11.dtd">
<!-- Generated by graphviz version 2.43.0 (0)
 -->
<!-- Title: LPT::Transmitter Pages: 1 -->
<svg width="264pt" height="215pt"
 viewBox="0.00 0.00 264.00 215.00" xmlns="http://www.w3.org/2000/svg" xmlns:xlink="http://www.w3.org/1999/xlink">
<g id="graph0" class="graph" transform="scale(1 1) rotate(0) translate(4 211)">
<title>LPT::Transmitter</title>
<polygon fill="white" stroke="transparent" points="-4,4 -4,-211 260,-211 260,4 -4,4"/>
<!-- Node1 -->
<g id="node1" class="node">
<title>Node1</title>
<g id="a_node1"><a xlink:title=" ">
<polygon fill="#bfbfbf" stroke="black" points="75,-0.5 75,-79.5 174,-79.5 174,-0.5 75,-0.5"/>
<text text-anchor="middle" x="124.5" y="-67.5" font-family="Helvetica,sans-Serif" font-size="10.00">LPT::Transmitter</text>
<polyline fill="none" stroke="black" points="75,-60.5 174,-60.5 "/>
<text text-anchor="start" x="83" y="-48.5" font-family="Helvetica,sans-Serif" font-size="10.00">+ txrx</text>
<polyline fill="none" stroke="black" points="75,-41.5 174,-41.5 "/>
<text text-anchor="start" x="83" y="-29.5" font-family="Helvetica,sans-Serif" font-size="10.00">+ ~Transmitter()</text>
<text text-anchor="start" x="83" y="-18.5" font-family="Helvetica,sans-Serif" font-size="10.00">+ GetAgent()</text>
<text text-anchor="start" x="83" y="-7.5" font-family="Helvetica,sans-Serif" font-size="10.00">+ SetAgent()</text>
</a>
</g>
</g>
<!-- Node2 -->
<g id="node2" class="node">
<title>Node2</title>
<g id="a_node2"><a xlink:href="classLPT_1_1ICommDevice.html" target="_top" xlink:title=" ">
<polygon fill="white" stroke="black" points="0,-127.5 0,-206.5 113,-206.5 113,-127.5 0,-127.5"/>
<text text-anchor="middle" x="56.5" y="-194.5" font-family="Helvetica,sans-Serif" font-size="10.00">LPT::ICommDevice</text>
<polyline fill="none" stroke="black" points="0,-187.5 113,-187.5 "/>
<text text-anchor="start" x="8" y="-175.5" font-family="Helvetica,sans-Serif" font-size="10.00">+ txrx</text>
<polyline fill="none" stroke="black" points="0,-168.5 113,-168.5 "/>
<text text-anchor="start" x="8" y="-156.5" font-family="Helvetica,sans-Serif" font-size="10.00">+ ~ICommDevice()</text>
<text text-anchor="start" x="8" y="-145.5" font-family="Helvetica,sans-Serif" font-size="10.00">+ GetAgent()</text>
<text text-anchor="start" x="8" y="-134.5" font-family="Helvetica,sans-Serif" font-size="10.00">+ SetAgent()</text>
</a>
</g>
</g>
<!-- Node2&#45;&gt;Node1 -->
<g id="edge1" class="edge">
<title>Node2&#45;&gt;Node1</title>
<path fill="none" stroke="midnightblue" d="M82.43,-118.34C89.39,-105.54 96.83,-91.86 103.5,-79.61"/>
<polygon fill="none" stroke="midnightblue" points="79.16,-117.02 77.46,-127.48 85.31,-120.36 79.16,-117.02"/>
</g>
<!-- Node3 -->
<g id="node3" class="node">
<title>Node3</title>
<g id="a_node3"><a xlink:href="structLPT_1_1TransmitterParam.html" target="_top" xlink:title=" ">
<polygon fill="white" stroke="black" points="131,-138.5 131,-195.5 256,-195.5 256,-138.5 131,-138.5"/>
<text text-anchor="middle" x="193.5" y="-183.5" font-family="Helvetica,sans-Serif" font-size="10.00">LPT::TransmitterParam</text>
<polyline fill="none" stroke="black" points="131,-176.5 256,-176.5 "/>
<text text-anchor="start" x="139" y="-164.5" font-family="Helvetica,sans-Serif" font-size="10.00">+ P_tx</text>
<polyline fill="none" stroke="black" points="131,-157.5 256,-157.5 "/>
<text text-anchor="middle" x="193.5" y="-145.5" font-family="Helvetica,sans-Serif" font-size="10.00"> </text>
</a>
</g>
</g>
<!-- Node3&#45;&gt;Node1 -->
<g id="edge2" class="edge">
<title>Node3&#45;&gt;Node1</title>
<path fill="none" stroke="#404040" d="M178.19,-138.26C170.37,-124.1 160.63,-106.45 151.59,-90.08"/>
<polygon fill="none" stroke="#404040" points="151.59,-90.07 145.19,-86.75 145.79,-79.57 152.19,-82.89 151.59,-90.07"/>
<text text-anchor="middle" x="192.5" y="-101" font-family="Helvetica,sans-Serif" font-size="10.00"> +tx_param_</text>
</g>
</g>
</svg>
