<?xml version="1.0" encoding="UTF-8" standalone="no"?>
<!DOCTYPE svg PUBLIC "-//W3C//DTD SVG 1.1//EN"
 "http://www.w3.org/Graphics/SVG/1.1/DTD/svg11.dtd">
<!-- Generated by graphviz version 2.43.0 (0)
 -->
<!-- Title: LPT::Receiver Pages: 1 -->
<svg width="252pt" height="248pt"
 viewBox="0.00 0.00 252.00 248.00" xmlns="http://www.w3.org/2000/svg" xmlns:xlink="http://www.w3.org/1999/xlink">
<g id="graph0" class="graph" transform="scale(1 1) rotate(0) translate(4 244)">
<title>LPT::Receiver</title>
<polygon fill="white" stroke="transparent" points="-4,4 -4,-244 248,-244 248,4 -4,4"/>
<!-- Node1 -->
<g id="node1" class="node">
<title>Node1</title>
<g id="a_node1"><a xlink:title=" ">
<polygon fill="#bfbfbf" stroke="black" points="78.5,-0.5 78.5,-79.5 164.5,-79.5 164.5,-0.5 78.5,-0.5"/>
<text text-anchor="middle" x="121.5" y="-67.5" font-family="Helvetica,sans-Serif" font-size="10.00">LPT::Receiver</text>
<polyline fill="none" stroke="black" points="78.5,-60.5 164.5,-60.5 "/>
<text text-anchor="start" x="86.5" y="-48.5" font-family="Helvetica,sans-Serif" font-size="10.00">+ txrx</text>
<polyline fill="none" stroke="black" points="78.5,-41.5 164.5,-41.5 "/>
<text text-anchor="start" x="86.5" y="-29.5" font-family="Helvetica,sans-Serif" font-size="10.00">+ ~Receiver()</text>
<text text-anchor="start" x="86.5" y="-18.5" font-family="Helvetica,sans-Serif" font-size="10.00">+ GetAgent()</text>
<text text-anchor="start" x="86.5" y="-7.5" font-family="Helvetica,sans-Serif" font-size="10.00">+ SetAgent()</text>
</a>
</g>
</g>
<!-- Node2 -->
<g id="node2" class="node">
<title>Node2</title>
<g id="a_node2"><a xlink:href="classLPT_1_1ICommDevice.html" target="_top" xlink:title=" ">
<polygon fill="white" stroke="black" points="0,-144 0,-223 113,-223 113,-144 0,-144"/>
<text text-anchor="middle" x="56.5" y="-211" font-family="Helvetica,sans-Serif" font-size="10.00">LPT::ICommDevice</text>
<polyline fill="none" stroke="black" points="0,-204 113,-204 "/>
<text text-anchor="start" x="8" y="-192" font-family="Helvetica,sans-Serif" font-size="10.00">+ txrx</text>
<polyline fill="none" stroke="black" points="0,-185 113,-185 "/>
<text text-anchor="start" x="8" y="-173" font-family="Helvetica,sans-Serif" font-size="10.00">+ ~ICommDevice()</text>
<text text-anchor="start" x="8" y="-162" font-family="Helvetica,sans-Serif" font-size="10.00">+ GetAgent()</text>
<text text-anchor="start" x="8" y="-151" font-family="Helvetica,sans-Serif" font-size="10.00">+ SetAgent()</text>
</a>
</g>
</g>
<!-- Node2&#45;&gt;Node1 -->
<g id="edge1" class="edge">
<title>Node2&#45;&gt;Node1</title>
<path fill="none" stroke="midnightblue" d="M78.46,-134.69C86.7,-116.75 95.95,-96.62 103.76,-79.62"/>
<polygon fill="none" stroke="midnightblue" points="75.26,-133.29 74.26,-143.83 81.62,-136.21 75.26,-133.29"/>
</g>
<!-- Node3 -->
<g id="node3" class="node">
<title>Node3</title>
<g id="a_node3"><a xlink:href="structLPT_1_1ReceiverParam.html" target="_top" xlink:title=" ">
<polygon fill="white" stroke="black" points="131,-127.5 131,-239.5 244,-239.5 244,-127.5 131,-127.5"/>
<text text-anchor="middle" x="187.5" y="-227.5" font-family="Helvetica,sans-Serif" font-size="10.00">LPT::ReceiverParam</text>
<polyline fill="none" stroke="black" points="131,-220.5 244,-220.5 "/>
<text text-anchor="start" x="139" y="-208.5" font-family="Helvetica,sans-Serif" font-size="10.00">+ Ts</text>
<text text-anchor="start" x="139" y="-197.5" font-family="Helvetica,sans-Serif" font-size="10.00">+ Ae</text>
<text text-anchor="start" x="139" y="-186.5" font-family="Helvetica,sans-Serif" font-size="10.00">+ Nf</text>
<text text-anchor="start" x="139" y="-175.5" font-family="Helvetica,sans-Serif" font-size="10.00">+ L</text>
<text text-anchor="start" x="139" y="-164.5" font-family="Helvetica,sans-Serif" font-size="10.00">+ As</text>
<text text-anchor="start" x="139" y="-153.5" font-family="Helvetica,sans-Serif" font-size="10.00">+ CN0threshold</text>
<polyline fill="none" stroke="black" points="131,-146.5 244,-146.5 "/>
<text text-anchor="middle" x="187.5" y="-134.5" font-family="Helvetica,sans-Serif" font-size="10.00"> </text>
</a>
</g>
</g>
<!-- Node3&#45;&gt;Node1 -->
<g id="edge2" class="edge">
<title>Node3&#45;&gt;Node1</title>
<path fill="none" stroke="#404040" d="M161.79,-127.39C156.14,-115.27 150.19,-102.52 144.65,-90.63"/>
<polygon fill="none" stroke="#404040" points="144.56,-90.43 138.4,-86.69 139.48,-79.56 145.65,-83.3 144.56,-90.43"/>
<text text-anchor="middle" x="185.5" y="-101" font-family="Helvetica,sans-Serif" font-size="10.00"> +rx_param_</text>
</g>
</g>
</svg>
