<?xml version="1.0" encoding="UTF-8" standalone="no"?>
<!DOCTYPE svg PUBLIC "-//W3C//DTD SVG 1.1//EN"
 "http://www.w3.org/Graphics/SVG/1.1/DTD/svg11.dtd">
<!-- Generated by graphviz version 2.43.0 (0)
 -->
<!-- Title: LPT::OrbitState Pages: 1 -->
<!--zoomable 529 -->
<svg id="main" version="1.1" xmlns="http://www.w3.org/2000/svg" xmlns:xlink="http://www.w3.org/1999/xlink" xml:space="preserve" onload="init(evt)">
<style type="text/css"><![CDATA[
.edge:hover path { stroke: red; }
.edge:hover polygon { stroke: red; fill: red; }
]]></style>
<script type="text/javascript"><![CDATA[
var edges = document.getElementsByTagName('g');
if (edges && edges.length) {
  for (var i=0;i<edges.length;i++) {
    if (edges[i].id.substr(0,4)=='edge') {
      edges[i].setAttribute('class','edge');
    }
  }
}
]]></script>
        <defs>
                <circle id="rim" cx="0" cy="0" r="7"/>
                <circle id="rim2" cx="0" cy="0" r="3.5"/>
                <g id="zoomPlus">
                        <use xlink:href="#rim" fill="#404040">
                                <set attributeName="fill" to="#808080" begin="zoomplus.mouseover" end="zoomplus.mouseout"/>
                        </use>
                        <path d="M-4,0h8M0,-4v8" fill="none" stroke="white" stroke-width="1.5" pointer-events="none"/>
                </g>
                <g id="zoomMin">
                        <use xlink:href="#rim" fill="#404040">
                                <set attributeName="fill" to="#808080" begin="zoomminus.mouseover" end="zoomminus.mouseout"/>
                        </use>
                        <path d="M-4,0h8" fill="none" stroke="white" stroke-width="1.5" pointer-events="none"/>
                </g>
                <g id="dirArrow">
                        <path fill="none" stroke="white" stroke-width="1.5" d="M0,-3.0v7 M-2.5,-0.5L0,-3.0L2.5,-0.5"/>
                </g>
               <g id="resetDef">
                       <use xlink:href="#rim2" fill="#404040">
                               <set attributeName="fill" to="#808080" begin="reset.mouseover" end="reset.mouseout"/>
                       </use>
               </g>
        </defs>

<script type="text/javascript">
var viewWidth = 1201;
var viewHeight = 529;
var sectionId = 'dynsection-0';
</script>
<script xlink:href="svgpan.js"/>
<svg id="graph" class="graph">
<g id="viewport">
<title>LPT::OrbitState</title>
<polygon fill="white" stroke="transparent" points="-4,4 -4,-525 1197,-525 1197,4 -4,4"/>
<!-- Node1 -->
<g id="node1" class="node">
<title>Node1</title>
<g id="a_node1"><a xlink:title=" ">
<polygon fill="#bfbfbf" stroke="black" points="510.5,-193.5 510.5,-404.5 646.5,-404.5 646.5,-193.5 510.5,-193.5"/>
<text text-anchor="middle" x="578.5" y="-392.5" font-family="Helvetica,sans-Serif" font-size="10.00">LPT::OrbitState</text>
<polyline fill="none" stroke="black" points="510.5,-385.5 646.5,-385.5 "/>
<text text-anchor="start" x="518.5" y="-373.5" font-family="Helvetica,sans-Serif" font-size="10.00">+ state_size</text>
<polyline fill="none" stroke="black" points="510.5,-366.5 646.5,-366.5 "/>
<text text-anchor="start" x="518.5" y="-354.5" font-family="Helvetica,sans-Serif" font-size="10.00">+ OrbitState()</text>
<text text-anchor="start" x="518.5" y="-343.5" font-family="Helvetica,sans-Serif" font-size="10.00">+ OrbitState()</text>
<text text-anchor="start" x="518.5" y="-332.5" font-family="Helvetica,sans-Serif" font-size="10.00">+ ~OrbitState()</text>
<text text-anchor="start" x="518.5" y="-321.5" font-family="Helvetica,sans-Serif" font-size="10.00">+ GetVector()</text>
<text text-anchor="start" x="518.5" y="-310.5" font-family="Helvetica,sans-Serif" font-size="10.00">+ GetStateSize()</text>
<text text-anchor="start" x="518.5" y="-299.5" font-family="Helvetica,sans-Serif" font-size="10.00">+ GetValue()</text>
<text text-anchor="start" x="518.5" y="-288.5" font-family="Helvetica,sans-Serif" font-size="10.00">+ GetOrbitStateRepres()</text>
<text text-anchor="start" x="518.5" y="-277.5" font-family="Helvetica,sans-Serif" font-size="10.00">+ GetCoordSystem()</text>
<text text-anchor="start" x="518.5" y="-266.5" font-family="Helvetica,sans-Serif" font-size="10.00">+ SetValue()</text>
<text text-anchor="start" x="518.5" y="-255.5" font-family="Helvetica,sans-Serif" font-size="10.00">+ SetVector()</text>
<text text-anchor="start" x="518.5" y="-244.5" font-family="Helvetica,sans-Serif" font-size="10.00">+ SetOrbitStateRepres()</text>
<text text-anchor="start" x="518.5" y="-233.5" font-family="Helvetica,sans-Serif" font-size="10.00">+ SetCoordSystem()</text>
<text text-anchor="start" x="518.5" y="-222.5" font-family="Helvetica,sans-Serif" font-size="10.00">+ operator()()</text>
<text text-anchor="start" x="518.5" y="-211.5" font-family="Helvetica,sans-Serif" font-size="10.00">+ Print()</text>
<text text-anchor="start" x="518.5" y="-200.5" font-family="Helvetica,sans-Serif" font-size="10.00">+ Clone()</text>
</a>
</g>
</g>
<!-- Node3 -->
<g id="node3" class="node">
<title>Node3</title>
<g id="a_node3"><a xlink:href="classLPT_1_1CartesianOrbitState.html" target="_top" xlink:title=" ">
<polygon fill="white" stroke="black" points="0,-17 0,-140 135,-140 135,-17 0,-17"/>
<text text-anchor="middle" x="67.5" y="-128" font-family="Helvetica,sans-Serif" font-size="10.00">LPT::CartesianOrbitState</text>
<polyline fill="none" stroke="black" points="0,-121 135,-121 "/>
<text text-anchor="middle" x="67.5" y="-109" font-family="Helvetica,sans-Serif" font-size="10.00"> </text>
<polyline fill="none" stroke="black" points="0,-102 135,-102 "/>
<text text-anchor="start" x="8" y="-90" font-family="Helvetica,sans-Serif" font-size="10.00">+ CartesianOrbitState()</text>
<text text-anchor="start" x="8" y="-79" font-family="Helvetica,sans-Serif" font-size="10.00">+ Print()</text>
<text text-anchor="start" x="8" y="-68" font-family="Helvetica,sans-Serif" font-size="10.00">+ Clone()</text>
<text text-anchor="start" x="8" y="-57" font-family="Helvetica,sans-Serif" font-size="10.00">+ r()</text>
<text text-anchor="start" x="8" y="-46" font-family="Helvetica,sans-Serif" font-size="10.00">+ v()</text>
<text text-anchor="start" x="8" y="-35" font-family="Helvetica,sans-Serif" font-size="10.00">+ Set_r()</text>
<text text-anchor="start" x="8" y="-24" font-family="Helvetica,sans-Serif" font-size="10.00">+ Set_v()</text>
</a>
</g>
</g>
<!-- Node1&#45;&gt;Node3 -->
<g id="edge2" class="edge">
<title>Node1&#45;&gt;Node3</title>
<path fill="none" stroke="midnightblue" d="M500.41,-284.25C409.7,-265.75 258,-226.81 144.5,-157 136.58,-152.13 128.88,-146.29 121.59,-140.02"/>
<polygon fill="none" stroke="midnightblue" points="499.86,-287.71 510.35,-286.25 501.24,-280.85 499.86,-287.71"/>
</g>
<!-- Node4 -->
<g id="node4" class="node">
<title>Node4</title>
<g id="a_node4"><a xlink:href="classLPT_1_1ClassicalOE.html" target="_top" xlink:title=" ">
<polygon fill="white" stroke="black" points="153.5,-0.5 153.5,-156.5 257.5,-156.5 257.5,-0.5 153.5,-0.5"/>
<text text-anchor="middle" x="205.5" y="-144.5" font-family="Helvetica,sans-Serif" font-size="10.00">LPT::ClassicalOE</text>
<polyline fill="none" stroke="black" points="153.5,-137.5 257.5,-137.5 "/>
<text text-anchor="middle" x="205.5" y="-125.5" font-family="Helvetica,sans-Serif" font-size="10.00"> </text>
<polyline fill="none" stroke="black" points="153.5,-118.5 257.5,-118.5 "/>
<text text-anchor="start" x="161.5" y="-106.5" font-family="Helvetica,sans-Serif" font-size="10.00">+ ClassicalOE()</text>
<text text-anchor="start" x="161.5" y="-95.5" font-family="Helvetica,sans-Serif" font-size="10.00">+ ClassicalOE()</text>
<text text-anchor="start" x="161.5" y="-84.5" font-family="Helvetica,sans-Serif" font-size="10.00">+ Print()</text>
<text text-anchor="start" x="161.5" y="-73.5" font-family="Helvetica,sans-Serif" font-size="10.00">+ Clone()</text>
<text text-anchor="start" x="161.5" y="-62.5" font-family="Helvetica,sans-Serif" font-size="10.00">+ GETSET_ELEM()</text>
<text text-anchor="start" x="161.5" y="-51.5" font-family="Helvetica,sans-Serif" font-size="10.00">+ GETSET_ELEM()</text>
<text text-anchor="start" x="161.5" y="-40.5" font-family="Helvetica,sans-Serif" font-size="10.00">+ GETSET_ELEM()</text>
<text text-anchor="start" x="161.5" y="-29.5" font-family="Helvetica,sans-Serif" font-size="10.00">+ GETSET_ELEM()</text>
<text text-anchor="start" x="161.5" y="-18.5" font-family="Helvetica,sans-Serif" font-size="10.00">+ GETSET_ELEM()</text>
<text text-anchor="start" x="161.5" y="-7.5" font-family="Helvetica,sans-Serif" font-size="10.00">+ GETSET_ELEM()</text>
</a>
</g>
</g>
<!-- Node1&#45;&gt;Node4 -->
<g id="edge3" class="edge">
<title>Node1&#45;&gt;Node4</title>
<path fill="none" stroke="midnightblue" d="M500.8,-274.58C434.02,-251.85 337.54,-212.62 266.5,-157 263.53,-154.68 260.63,-152.18 257.79,-149.56"/>
<polygon fill="none" stroke="midnightblue" points="499.84,-277.94 510.43,-277.81 502.07,-271.31 499.84,-277.94"/>
</g>
<!-- Node5 -->
<g id="node5" class="node">
<title>Node5</title>
<g id="a_node5"><a xlink:href="classLPT_1_1DelaunayOE.html" target="_top" xlink:title=" ">
<polygon fill="white" stroke="black" points="275.5,-0.5 275.5,-156.5 379.5,-156.5 379.5,-0.5 275.5,-0.5"/>
<text text-anchor="middle" x="327.5" y="-144.5" font-family="Helvetica,sans-Serif" font-size="10.00">LPT::DelaunayOE</text>
<polyline fill="none" stroke="black" points="275.5,-137.5 379.5,-137.5 "/>
<text text-anchor="middle" x="327.5" y="-125.5" font-family="Helvetica,sans-Serif" font-size="10.00"> </text>
<polyline fill="none" stroke="black" points="275.5,-118.5 379.5,-118.5 "/>
<text text-anchor="start" x="283.5" y="-106.5" font-family="Helvetica,sans-Serif" font-size="10.00">+ DelaunayOE()</text>
<text text-anchor="start" x="283.5" y="-95.5" font-family="Helvetica,sans-Serif" font-size="10.00">+ DelaunayOE()</text>
<text text-anchor="start" x="283.5" y="-84.5" font-family="Helvetica,sans-Serif" font-size="10.00">+ Print()</text>
<text text-anchor="start" x="283.5" y="-73.5" font-family="Helvetica,sans-Serif" font-size="10.00">+ Clone()</text>
<text text-anchor="start" x="283.5" y="-62.5" font-family="Helvetica,sans-Serif" font-size="10.00">+ GETSET_ELEM()</text>
<text text-anchor="start" x="283.5" y="-51.5" font-family="Helvetica,sans-Serif" font-size="10.00">+ GETSET_ELEM()</text>
<text text-anchor="start" x="283.5" y="-40.5" font-family="Helvetica,sans-Serif" font-size="10.00">+ GETSET_ELEM()</text>
<text text-anchor="start" x="283.5" y="-29.5" font-family="Helvetica,sans-Serif" font-size="10.00">+ GETSET_ELEM()</text>
<text text-anchor="start" x="283.5" y="-18.5" font-family="Helvetica,sans-Serif" font-size="10.00">+ GETSET_ELEM()</text>
<text text-anchor="start" x="283.5" y="-7.5" font-family="Helvetica,sans-Serif" font-size="10.00">+ GETSET_ELEM()</text>
</a>
</g>
</g>
<!-- Node1&#45;&gt;Node5 -->
<g id="edge4" class="edge">
<title>Node1&#45;&gt;Node5</title>
<path fill="none" stroke="midnightblue" d="M501.87,-248.13C465.69,-222.89 423,-190.53 388.5,-157 385.55,-154.14 382.62,-151.13 379.73,-148.03"/>
<polygon fill="none" stroke="midnightblue" points="500.22,-251.25 510.43,-254.06 504.2,-245.49 500.22,-251.25"/>
</g>
<!-- Node6 -->
<g id="node6" class="node">
<title>Node6</title>
<g id="a_node6"><a xlink:href="classLPT_1_1EquinoctialOE.html" target="_top" xlink:title=" ">
<polygon fill="white" stroke="black" points="398,-0.5 398,-156.5 505,-156.5 505,-0.5 398,-0.5"/>
<text text-anchor="middle" x="451.5" y="-144.5" font-family="Helvetica,sans-Serif" font-size="10.00">LPT::EquinoctialOE</text>
<polyline fill="none" stroke="black" points="398,-137.5 505,-137.5 "/>
<text text-anchor="middle" x="451.5" y="-125.5" font-family="Helvetica,sans-Serif" font-size="10.00"> </text>
<polyline fill="none" stroke="black" points="398,-118.5 505,-118.5 "/>
<text text-anchor="start" x="406" y="-106.5" font-family="Helvetica,sans-Serif" font-size="10.00">+ EquinoctialOE()</text>
<text text-anchor="start" x="406" y="-95.5" font-family="Helvetica,sans-Serif" font-size="10.00">+ EquinoctialOE()</text>
<text text-anchor="start" x="406" y="-84.5" font-family="Helvetica,sans-Serif" font-size="10.00">+ Print()</text>
<text text-anchor="start" x="406" y="-73.5" font-family="Helvetica,sans-Serif" font-size="10.00">+ Clone()</text>
<text text-anchor="start" x="406" y="-62.5" font-family="Helvetica,sans-Serif" font-size="10.00">+ GETSET_ELEM()</text>
<text text-anchor="start" x="406" y="-51.5" font-family="Helvetica,sans-Serif" font-size="10.00">+ GETSET_ELEM()</text>
<text text-anchor="start" x="406" y="-40.5" font-family="Helvetica,sans-Serif" font-size="10.00">+ GETSET_ELEM()</text>
<text text-anchor="start" x="406" y="-29.5" font-family="Helvetica,sans-Serif" font-size="10.00">+ GETSET_ELEM()</text>
<text text-anchor="start" x="406" y="-18.5" font-family="Helvetica,sans-Serif" font-size="10.00">+ GETSET_ELEM()</text>
<text text-anchor="start" x="406" y="-7.5" font-family="Helvetica,sans-Serif" font-size="10.00">+ GETSET_ELEM()</text>
</a>
</g>
</g>
<!-- Node1&#45;&gt;Node6 -->
<g id="edge5" class="edge">
<title>Node1&#45;&gt;Node6</title>
<path fill="none" stroke="midnightblue" d="M512.54,-184.52C507.04,-175.05 501.55,-165.61 496.26,-156.51"/>
<polygon fill="none" stroke="midnightblue" points="509.55,-186.34 517.6,-193.23 515.6,-182.83 509.55,-186.34"/>
</g>
<!-- Node7 -->
<g id="node7" class="node">
<title>Node7</title>
<g id="a_node7"><a xlink:href="classLPT_1_1NonsingularOE.html" target="_top" xlink:title=" ">
<polygon fill="white" stroke="black" points="523,-0.5 523,-156.5 634,-156.5 634,-0.5 523,-0.5"/>
<text text-anchor="middle" x="578.5" y="-144.5" font-family="Helvetica,sans-Serif" font-size="10.00">LPT::NonsingularOE</text>
<polyline fill="none" stroke="black" points="523,-137.5 634,-137.5 "/>
<text text-anchor="middle" x="578.5" y="-125.5" font-family="Helvetica,sans-Serif" font-size="10.00"> </text>
<polyline fill="none" stroke="black" points="523,-118.5 634,-118.5 "/>
<text text-anchor="start" x="531" y="-106.5" font-family="Helvetica,sans-Serif" font-size="10.00">+ NonsingularOE()</text>
<text text-anchor="start" x="531" y="-95.5" font-family="Helvetica,sans-Serif" font-size="10.00">+ NonsingularOE()</text>
<text text-anchor="start" x="531" y="-84.5" font-family="Helvetica,sans-Serif" font-size="10.00">+ Print()</text>
<text text-anchor="start" x="531" y="-73.5" font-family="Helvetica,sans-Serif" font-size="10.00">+ Clone()</text>
<text text-anchor="start" x="531" y="-62.5" font-family="Helvetica,sans-Serif" font-size="10.00">+ GETSET_ELEM()</text>
<text text-anchor="start" x="531" y="-51.5" font-family="Helvetica,sans-Serif" font-size="10.00">+ GETSET_ELEM()</text>
<text text-anchor="start" x="531" y="-40.5" font-family="Helvetica,sans-Serif" font-size="10.00">+ GETSET_ELEM()</text>
<text text-anchor="start" x="531" y="-29.5" font-family="Helvetica,sans-Serif" font-size="10.00">+ GETSET_ELEM()</text>
<text text-anchor="start" x="531" y="-18.5" font-family="Helvetica,sans-Serif" font-size="10.00">+ GETSET_ELEM()</text>
<text text-anchor="start" x="531" y="-7.5" font-family="Helvetica,sans-Serif" font-size="10.00">+ GETSET_ELEM()</text>
</a>
</g>
</g>
<!-- Node1&#45;&gt;Node7 -->
<g id="edge6" class="edge">
<title>Node1&#45;&gt;Node7</title>
<path fill="none" stroke="midnightblue" d="M578.5,-183.07C578.5,-174.09 578.5,-165.15 578.5,-156.51"/>
<polygon fill="none" stroke="midnightblue" points="575,-183.23 578.5,-193.23 582,-183.23 575,-183.23"/>
</g>
<!-- Node8 -->
<g id="node8" class="node">
<title>Node8</title>
<g id="a_node8"><a xlink:href="classLPT_1_1QuasiNonsingularOE.html" target="_top" xlink:title=" ">
<polygon fill="white" stroke="black" points="652,-0.5 652,-156.5 791,-156.5 791,-0.5 652,-0.5"/>
<text text-anchor="middle" x="721.5" y="-144.5" font-family="Helvetica,sans-Serif" font-size="10.00">LPT::QuasiNonsingularOE</text>
<polyline fill="none" stroke="black" points="652,-137.5 791,-137.5 "/>
<text text-anchor="middle" x="721.5" y="-125.5" font-family="Helvetica,sans-Serif" font-size="10.00"> </text>
<polyline fill="none" stroke="black" points="652,-118.5 791,-118.5 "/>
<text text-anchor="start" x="660" y="-106.5" font-family="Helvetica,sans-Serif" font-size="10.00">+ QuasiNonsingularOE()</text>
<text text-anchor="start" x="660" y="-95.5" font-family="Helvetica,sans-Serif" font-size="10.00">+ QuasiNonsingularOE()</text>
<text text-anchor="start" x="660" y="-84.5" font-family="Helvetica,sans-Serif" font-size="10.00">+ Print()</text>
<text text-anchor="start" x="660" y="-73.5" font-family="Helvetica,sans-Serif" font-size="10.00">+ Clone()</text>
<text text-anchor="start" x="660" y="-62.5" font-family="Helvetica,sans-Serif" font-size="10.00">+ GETSET_ELEM()</text>
<text text-anchor="start" x="660" y="-51.5" font-family="Helvetica,sans-Serif" font-size="10.00">+ GETSET_ELEM()</text>
<text text-anchor="start" x="660" y="-40.5" font-family="Helvetica,sans-Serif" font-size="10.00">+ GETSET_ELEM()</text>
<text text-anchor="start" x="660" y="-29.5" font-family="Helvetica,sans-Serif" font-size="10.00">+ GETSET_ELEM()</text>
<text text-anchor="start" x="660" y="-18.5" font-family="Helvetica,sans-Serif" font-size="10.00">+ GETSET_ELEM()</text>
<text text-anchor="start" x="660" y="-7.5" font-family="Helvetica,sans-Serif" font-size="10.00">+ GETSET_ELEM()</text>
</a>
</g>
</g>
<!-- Node1&#45;&gt;Node8 -->
<g id="edge7" class="edge">
<title>Node1&#45;&gt;Node8</title>
<path fill="none" stroke="midnightblue" d="M652.23,-185.35C658.57,-175.65 664.9,-165.99 671,-156.67"/>
<polygon fill="none" stroke="midnightblue" points="649.2,-183.59 646.65,-193.87 655.05,-187.42 649.2,-183.59"/>
</g>
<!-- Node9 -->
<g id="node9" class="node">
<title>Node9</title>
<g id="a_node9"><a xlink:href="classLPT_1_1QuasiNonsingularROE.html" target="_top" xlink:title=" ">
<polygon fill="white" stroke="black" points="809.5,-0.5 809.5,-156.5 955.5,-156.5 955.5,-0.5 809.5,-0.5"/>
<text text-anchor="middle" x="882.5" y="-144.5" font-family="Helvetica,sans-Serif" font-size="10.00">LPT::QuasiNonsingularROE</text>
<polyline fill="none" stroke="black" points="809.5,-137.5 955.5,-137.5 "/>
<text text-anchor="middle" x="882.5" y="-125.5" font-family="Helvetica,sans-Serif" font-size="10.00"> </text>
<polyline fill="none" stroke="black" points="809.5,-118.5 955.5,-118.5 "/>
<text text-anchor="start" x="817.5" y="-106.5" font-family="Helvetica,sans-Serif" font-size="10.00">+ QuasiNonsingularROE()</text>
<text text-anchor="start" x="817.5" y="-95.5" font-family="Helvetica,sans-Serif" font-size="10.00">+ QuasiNonsingularROE()</text>
<text text-anchor="start" x="817.5" y="-84.5" font-family="Helvetica,sans-Serif" font-size="10.00">+ Print()</text>
<text text-anchor="start" x="817.5" y="-73.5" font-family="Helvetica,sans-Serif" font-size="10.00">+ Clone()</text>
<text text-anchor="start" x="817.5" y="-62.5" font-family="Helvetica,sans-Serif" font-size="10.00">+ GETSET_ELEM()</text>
<text text-anchor="start" x="817.5" y="-51.5" font-family="Helvetica,sans-Serif" font-size="10.00">+ GETSET_ELEM()</text>
<text text-anchor="start" x="817.5" y="-40.5" font-family="Helvetica,sans-Serif" font-size="10.00">+ GETSET_ELEM()</text>
<text text-anchor="start" x="817.5" y="-29.5" font-family="Helvetica,sans-Serif" font-size="10.00">+ GETSET_ELEM()</text>
<text text-anchor="start" x="817.5" y="-18.5" font-family="Helvetica,sans-Serif" font-size="10.00">+ GETSET_ELEM()</text>
<text text-anchor="start" x="817.5" y="-7.5" font-family="Helvetica,sans-Serif" font-size="10.00">+ GETSET_ELEM()</text>
</a>
</g>
</g>
<!-- Node1&#45;&gt;Node9 -->
<g id="edge8" class="edge">
<title>Node1&#45;&gt;Node9</title>
<path fill="none" stroke="midnightblue" d="M655.43,-254.12C699.32,-227.88 754.57,-192.76 800.5,-157 803.44,-154.71 806.39,-152.34 809.34,-149.9"/>
<polygon fill="none" stroke="midnightblue" points="653.61,-251.13 646.81,-259.25 657.19,-257.14 653.61,-251.13"/>
</g>
<!-- Node10 -->
<g id="node10" class="node">
<title>Node10</title>
<g id="a_node10"><a xlink:href="classLPT_1_1SingularROE.html" target="_top" xlink:title=" ">
<polygon fill="white" stroke="black" points="973.5,-0.5 973.5,-156.5 1077.5,-156.5 1077.5,-0.5 973.5,-0.5"/>
<text text-anchor="middle" x="1025.5" y="-144.5" font-family="Helvetica,sans-Serif" font-size="10.00">LPT::SingularROE</text>
<polyline fill="none" stroke="black" points="973.5,-137.5 1077.5,-137.5 "/>
<text text-anchor="middle" x="1025.5" y="-125.5" font-family="Helvetica,sans-Serif" font-size="10.00"> </text>
<polyline fill="none" stroke="black" points="973.5,-118.5 1077.5,-118.5 "/>
<text text-anchor="start" x="981.5" y="-106.5" font-family="Helvetica,sans-Serif" font-size="10.00">+ SingularROE()</text>
<text text-anchor="start" x="981.5" y="-95.5" font-family="Helvetica,sans-Serif" font-size="10.00">+ SingularROE()</text>
<text text-anchor="start" x="981.5" y="-84.5" font-family="Helvetica,sans-Serif" font-size="10.00">+ Print()</text>
<text text-anchor="start" x="981.5" y="-73.5" font-family="Helvetica,sans-Serif" font-size="10.00">+ Clone()</text>
<text text-anchor="start" x="981.5" y="-62.5" font-family="Helvetica,sans-Serif" font-size="10.00">+ GETSET_ELEM()</text>
<text text-anchor="start" x="981.5" y="-51.5" font-family="Helvetica,sans-Serif" font-size="10.00">+ GETSET_ELEM()</text>
<text text-anchor="start" x="981.5" y="-40.5" font-family="Helvetica,sans-Serif" font-size="10.00">+ GETSET_ELEM()</text>
<text text-anchor="start" x="981.5" y="-29.5" font-family="Helvetica,sans-Serif" font-size="10.00">+ GETSET_ELEM()</text>
<text text-anchor="start" x="981.5" y="-18.5" font-family="Helvetica,sans-Serif" font-size="10.00">+ GETSET_ELEM()</text>
<text text-anchor="start" x="981.5" y="-7.5" font-family="Helvetica,sans-Serif" font-size="10.00">+ GETSET_ELEM()</text>
</a>
</g>
</g>
<!-- Node1&#45;&gt;Node10 -->
<g id="edge9" class="edge">
<title>Node1&#45;&gt;Node10</title>
<path fill="none" stroke="midnightblue" d="M656.49,-282.84C739.02,-263.91 870.13,-225.39 964.5,-157 967.55,-154.79 970.53,-152.39 973.42,-149.84"/>
<polygon fill="none" stroke="midnightblue" points="655.65,-279.44 646.67,-285.05 657.19,-286.27 655.65,-279.44"/>
</g>
<!-- Node11 -->
<g id="node11" class="node">
<title>Node11</title>
<g id="a_node11"><a xlink:href="classPyOrbitState.html" target="_top" xlink:title=" ">
<polygon fill="white" stroke="black" points="1096,-33.5 1096,-123.5 1193,-123.5 1193,-33.5 1096,-33.5"/>
<text text-anchor="middle" x="1144.5" y="-111.5" font-family="Helvetica,sans-Serif" font-size="10.00">PyOrbitState</text>
<polyline fill="none" stroke="black" points="1096,-104.5 1193,-104.5 "/>
<text text-anchor="middle" x="1144.5" y="-92.5" font-family="Helvetica,sans-Serif" font-size="10.00"> </text>
<polyline fill="none" stroke="black" points="1096,-85.5 1193,-85.5 "/>
<text text-anchor="start" x="1104" y="-73.5" font-family="Helvetica,sans-Serif" font-size="10.00">+ PyOrbitState()</text>
<text text-anchor="start" x="1104" y="-62.5" font-family="Helvetica,sans-Serif" font-size="10.00">+ PyOrbitState()</text>
<text text-anchor="start" x="1104" y="-51.5" font-family="Helvetica,sans-Serif" font-size="10.00">+ Print()</text>
<text text-anchor="start" x="1104" y="-40.5" font-family="Helvetica,sans-Serif" font-size="10.00">+ Clone()</text>
</a>
</g>
</g>
<!-- Node1&#45;&gt;Node11 -->
<g id="edge10" class="edge">
<title>Node1&#45;&gt;Node11</title>
<path fill="none" stroke="midnightblue" d="M656.8,-291.99C762.59,-280.57 953.27,-248.06 1086.5,-157 1099.13,-148.37 1110.1,-136.08 1119.01,-123.83"/>
<polygon fill="none" stroke="midnightblue" points="656.41,-288.51 646.83,-293.03 657.14,-295.47 656.41,-288.51"/>
</g>
<!-- Node2 -->
<g id="node2" class="node">
<title>Node2</title>
<g id="a_node2"><a xlink:href="classLPT_1_1IState.html" target="_top" xlink:title="Interface for States.">
<polygon fill="white" stroke="black" points="529.5,-441.5 529.5,-520.5 627.5,-520.5 627.5,-441.5 529.5,-441.5"/>
<text text-anchor="middle" x="578.5" y="-508.5" font-family="Helvetica,sans-Serif" font-size="10.00">LPT::IState</text>
<polyline fill="none" stroke="black" points="529.5,-501.5 627.5,-501.5 "/>
<text text-anchor="middle" x="578.5" y="-489.5" font-family="Helvetica,sans-Serif" font-size="10.00"> </text>
<polyline fill="none" stroke="black" points="529.5,-482.5 627.5,-482.5 "/>
<text text-anchor="start" x="537.5" y="-470.5" font-family="Helvetica,sans-Serif" font-size="10.00">+ ~IState()</text>
<text text-anchor="start" x="537.5" y="-459.5" font-family="Helvetica,sans-Serif" font-size="10.00">+ GetStateSize()</text>
<text text-anchor="start" x="537.5" y="-448.5" font-family="Helvetica,sans-Serif" font-size="10.00">+ GetValue()</text>
</a>
</g>
</g>
<!-- Node2&#45;&gt;Node1 -->
<g id="edge1" class="edge">
<title>Node2&#45;&gt;Node1</title>
<path fill="none" stroke="midnightblue" d="M578.5,-431.16C578.5,-422.81 578.5,-413.86 578.5,-404.69"/>
<polygon fill="none" stroke="midnightblue" points="575,-431.39 578.5,-441.39 582,-431.39 575,-431.39"/>
</g>
</g>
</svg>
        <g id="navigator" transform="translate(0 0)" fill="#404254">
                <rect fill="#f2f5e9" fill-opacity="0.5" stroke="#606060" stroke-width=".5" x="0" y="0" width="60" height="60"/>
                <use id="zoomplus" xlink:href="#zoomPlus" x="17" y="9" onmousedown="handleZoom(evt,'in')"/>
                <use id="zoomminus" xlink:href="#zoomMin" x="42" y="9" onmousedown="handleZoom(evt,'out')"/>
                <use id="reset" xlink:href="#resetDef" x="30" y="36" onmousedown="handleReset()"/>
                <g id="arrowUp" xlink:href="#dirArrow" transform="translate(30 24)" onmousedown="handlePan(0,-1)">
                  <use xlink:href="#rim" fill="#404040">
                        <set attributeName="fill" to="#808080" begin="arrowUp.mouseover" end="arrowUp.mouseout"/>
                  </use>
                  <path fill="none" stroke="white" stroke-width="1.5" d="M0,-3.0v7 M-2.5,-0.5L0,-3.0L2.5,-0.5"/>
                </g>
                <g id="arrowRight" xlink:href="#dirArrow" transform="rotate(90) translate(36 -43)" onmousedown="handlePan(1,0)">
                  <use xlink:href="#rim" fill="#404040">
                        <set attributeName="fill" to="#808080" begin="arrowRight.mouseover" end="arrowRight.mouseout"/>
                  </use>
                  <path fill="none" stroke="white" stroke-width="1.5" d="M0,-3.0v7 M-2.5,-0.5L0,-3.0L2.5,-0.5"/>
                </g>
                <g id="arrowDown" xlink:href="#dirArrow" transform="rotate(180) translate(-30 -48)" onmousedown="handlePan(0,1)">
                  <use xlink:href="#rim" fill="#404040">
                        <set attributeName="fill" to="#808080" begin="arrowDown.mouseover" end="arrowDown.mouseout"/>
                  </use>
                  <path fill="none" stroke="white" stroke-width="1.5" d="M0,-3.0v7 M-2.5,-0.5L0,-3.0L2.5,-0.5"/>
                </g>
                <g id="arrowLeft" xlink:href="#dirArrow" transform="rotate(270) translate(-36 17)" onmousedown="handlePan(-1,0)">
                  <use xlink:href="#rim" fill="#404040">
                        <set attributeName="fill" to="#808080" begin="arrowLeft.mouseover" end="arrowLeft.mouseout"/>
                  </use>
                  <path fill="none" stroke="white" stroke-width="1.5" d="M0,-3.0v7 M-2.5,-0.5L0,-3.0L2.5,-0.5"/>
                </g>
        </g>
        <svg viewBox="0 0 15 15" width="100%" height="30px" preserveAspectRatio="xMaxYMin meet">
         <g id="arrow_out" transform="scale(0.3 0.3)">
          <a xlink:href="classLPT_1_1OrbitState__inherit__graph_org.svg" target="_base">
           <rect id="button" ry="5" rx="5" y="6" x="6" height="38" width="38"
                fill="#f2f5e9" fill-opacity="0.5" stroke="#606060" stroke-width="1.0"/>
           <path id="arrow"
             d="M 11.500037,31.436501 C 11.940474,20.09759 22.043105,11.32322 32.158766,21.979434 L 37.068811,17.246167 C 37.068811,17.246167 37.088388,32 37.088388,32 L 22.160133,31.978069 C 22.160133,31.978069 26.997745,27.140456 26.997745,27.140456 C 18.528582,18.264221 13.291696,25.230495 11.500037,31.436501 z"
             style="fill:#404040;"/>
          </a>
         </g>
        </svg>
</svg>
