<?xml version="1.0" encoding="UTF-8" standalone="no"?>
<!DOCTYPE svg PUBLIC "-//W3C//DTD SVG 1.1//EN"
 "http://www.w3.org/Graphics/SVG/1.1/DTD/svg11.dtd">
<!-- Generated by graphviz version 2.43.0 (0)
 -->
<!-- Title: LPT::Receiver Pages: 1 -->
<svg width="166pt" height="430pt"
 viewBox="0.00 0.00 166.00 430.00" xmlns="http://www.w3.org/2000/svg" xmlns:xlink="http://www.w3.org/1999/xlink">
<g id="graph0" class="graph" transform="scale(1 1) rotate(0) translate(4 426)">
<title>LPT::Receiver</title>
<polygon fill="white" stroke="transparent" points="-4,4 -4,-426 162,-426 162,4 -4,4"/>
<!-- Node1 -->
<g id="node1" class="node">
<title>Node1</title>
<g id="a_node1"><a xlink:title=" ">
<polygon fill="#bfbfbf" stroke="black" points="36,-215.5 36,-305.5 122,-305.5 122,-215.5 36,-215.5"/>
<text text-anchor="middle" x="79" y="-293.5" font-family="Helvetica,sans-Serif" font-size="10.00">LPT::Receiver</text>
<polyline fill="none" stroke="black" points="36,-286.5 122,-286.5 "/>
<text text-anchor="start" x="44" y="-274.5" font-family="Helvetica,sans-Serif" font-size="10.00">+ txrx</text>
<text text-anchor="start" x="44" y="-263.5" font-family="Helvetica,sans-Serif" font-size="10.00">+ rx_param_</text>
<polyline fill="none" stroke="black" points="36,-256.5 122,-256.5 "/>
<text text-anchor="start" x="44" y="-244.5" font-family="Helvetica,sans-Serif" font-size="10.00">+ ~Receiver()</text>
<text text-anchor="start" x="44" y="-233.5" font-family="Helvetica,sans-Serif" font-size="10.00">+ GetAgent()</text>
<text text-anchor="start" x="44" y="-222.5" font-family="Helvetica,sans-Serif" font-size="10.00">+ SetAgent()</text>
</a>
</g>
</g>
<!-- Node3 -->
<g id="node3" class="node">
<title>Node3</title>
<g id="a_node3"><a xlink:href="classLPT_1_1GNSSReceiver.html" target="_top" xlink:title=" ">
<polygon fill="white" stroke="black" points="0,-0.5 0,-178.5 158,-178.5 158,-0.5 0,-0.5"/>
<text text-anchor="middle" x="79" y="-166.5" font-family="Helvetica,sans-Serif" font-size="10.00">LPT::GNSSReceiver</text>
<polyline fill="none" stroke="black" points="0,-159.5 158,-159.5 "/>
<text text-anchor="start" x="8" y="-147.5" font-family="Helvetica,sans-Serif" font-size="10.00">+ antenna_</text>
<text text-anchor="start" x="8" y="-136.5" font-family="Helvetica,sans-Serif" font-size="10.00">+ receiver_name_</text>
<polyline fill="none" stroke="black" points="0,-129.5 158,-129.5 "/>
<text text-anchor="start" x="8" y="-117.5" font-family="Helvetica,sans-Serif" font-size="10.00">+ GNSSReceiver()</text>
<text text-anchor="start" x="8" y="-106.5" font-family="Helvetica,sans-Serif" font-size="10.00">+ GetReceiverOrientation()</text>
<text text-anchor="start" x="8" y="-95.5" font-family="Helvetica,sans-Serif" font-size="10.00">+ GetReceiverAntennaGain()</text>
<text text-anchor="start" x="8" y="-84.5" font-family="Helvetica,sans-Serif" font-size="10.00">+ InitializeReceiverParams()</text>
<text text-anchor="start" x="8" y="-73.5" font-family="Helvetica,sans-Serif" font-size="10.00">+ SetCN0Threshold()</text>
<text text-anchor="start" x="8" y="-62.5" font-family="Helvetica,sans-Serif" font-size="10.00">+ GetMeasurement()</text>
<text text-anchor="start" x="8" y="-51.5" font-family="Helvetica,sans-Serif" font-size="10.00">+ SetChannel()</text>
<text text-anchor="start" x="8" y="-40.5" font-family="Helvetica,sans-Serif" font-size="10.00">+ GetAgent()</text>
<text text-anchor="start" x="8" y="-29.5" font-family="Helvetica,sans-Serif" font-size="10.00">+ SetAgent()</text>
<text text-anchor="start" x="8" y="-18.5" font-family="Helvetica,sans-Serif" font-size="10.00">+ GetAntennaGain()</text>
<text text-anchor="start" x="8" y="-7.5" font-family="Helvetica,sans-Serif" font-size="10.00">+ GetAntennaGain()</text>
</a>
</g>
</g>
<!-- Node1&#45;&gt;Node3 -->
<g id="edge2" class="edge">
<title>Node1&#45;&gt;Node3</title>
<path fill="none" stroke="midnightblue" d="M79,-205.06C79,-196.63 79,-187.73 79,-178.78"/>
<polygon fill="none" stroke="midnightblue" points="75.5,-205.1 79,-215.1 82.5,-205.1 75.5,-205.1"/>
</g>
<!-- Node2 -->
<g id="node2" class="node">
<title>Node2</title>
<g id="a_node2"><a xlink:href="classLPT_1_1ICommDevice.html" target="_top" xlink:title=" ">
<polygon fill="white" stroke="black" points="22.5,-342.5 22.5,-421.5 135.5,-421.5 135.5,-342.5 22.5,-342.5"/>
<text text-anchor="middle" x="79" y="-409.5" font-family="Helvetica,sans-Serif" font-size="10.00">LPT::ICommDevice</text>
<polyline fill="none" stroke="black" points="22.5,-402.5 135.5,-402.5 "/>
<text text-anchor="start" x="30.5" y="-390.5" font-family="Helvetica,sans-Serif" font-size="10.00">+ txrx</text>
<polyline fill="none" stroke="black" points="22.5,-383.5 135.5,-383.5 "/>
<text text-anchor="start" x="30.5" y="-371.5" font-family="Helvetica,sans-Serif" font-size="10.00">+ ~ICommDevice()</text>
<text text-anchor="start" x="30.5" y="-360.5" font-family="Helvetica,sans-Serif" font-size="10.00">+ GetAgent()</text>
<text text-anchor="start" x="30.5" y="-349.5" font-family="Helvetica,sans-Serif" font-size="10.00">+ SetAgent()</text>
</a>
</g>
</g>
<!-- Node2&#45;&gt;Node1 -->
<g id="edge1" class="edge">
<title>Node2&#45;&gt;Node1</title>
<path fill="none" stroke="midnightblue" d="M79,-332.19C79,-323.49 79,-314.48 79,-305.91"/>
<polygon fill="none" stroke="midnightblue" points="75.5,-332.2 79,-342.2 82.5,-332.2 75.5,-332.2"/>
</g>
</g>
</svg>
