<?xml version="1.0" encoding="UTF-8" standalone="no"?>
<!DOCTYPE svg PUBLIC "-//W3C//DTD SVG 1.1//EN"
 "http://www.w3.org/Graphics/SVG/1.1/DTD/svg11.dtd">
<!-- Generated by graphviz version 2.43.0 (0)
 -->
<!-- Title: LPT::YamanakaAnkersenDynamics Pages: 1 -->
<svg width="190pt" height="248pt"
 viewBox="0.00 0.00 190.00 248.00" xmlns="http://www.w3.org/2000/svg" xmlns:xlink="http://www.w3.org/1999/xlink">
<g id="graph0" class="graph" transform="scale(1 1) rotate(0) translate(4 244)">
<title>LPT::YamanakaAnkersenDynamics</title>
<polygon fill="white" stroke="transparent" points="-4,4 -4,-244 186,-244 186,4 -4,4"/>
<!-- Node1 -->
<g id="node1" class="node">
<title>Node1</title>
<g id="a_node1"><a xlink:title=" ">
<polygon fill="#bfbfbf" stroke="black" points="0,-0.5 0,-101.5 182,-101.5 182,-0.5 0,-0.5"/>
<text text-anchor="middle" x="91" y="-89.5" font-family="Helvetica,sans-Serif" font-size="10.00">LPT::YamanakaAnkersenDynamics</text>
<polyline fill="none" stroke="black" points="0,-82.5 182,-82.5 "/>
<text text-anchor="middle" x="91" y="-70.5" font-family="Helvetica,sans-Serif" font-size="10.00"> </text>
<polyline fill="none" stroke="black" points="0,-63.5 182,-63.5 "/>
<text text-anchor="start" x="8" y="-51.5" font-family="Helvetica,sans-Serif" font-size="10.00">+ YamanakaAnkersenDynamics()</text>
<text text-anchor="start" x="8" y="-40.5" font-family="Helvetica,sans-Serif" font-size="10.00">+ Propagate()</text>
<text text-anchor="start" x="8" y="-29.5" font-family="Helvetica,sans-Serif" font-size="10.00">+ Initialize()</text>
<text text-anchor="start" x="8" y="-18.5" font-family="Helvetica,sans-Serif" font-size="10.00">+ ComputeMatrix()</text>
<text text-anchor="start" x="8" y="-7.5" font-family="Helvetica,sans-Serif" font-size="10.00">+ ComputeInverseMatrix()</text>
</a>
</g>
</g>
<!-- Node2 -->
<g id="node2" class="node">
<title>Node2</title>
<g id="a_node2"><a xlink:href="classLPT_1_1IAnalyticalDynamics.html" target="_top" xlink:title=" ">
<polygon fill="white" stroke="black" points="19,-138.5 19,-239.5 163,-239.5 163,-138.5 19,-138.5"/>
<text text-anchor="middle" x="91" y="-227.5" font-family="Helvetica,sans-Serif" font-size="10.00">LPT::IAnalyticalDynamics</text>
<polyline fill="none" stroke="black" points="19,-220.5 163,-220.5 "/>
<text text-anchor="middle" x="91" y="-208.5" font-family="Helvetica,sans-Serif" font-size="10.00"> </text>
<polyline fill="none" stroke="black" points="19,-201.5 163,-201.5 "/>
<text text-anchor="start" x="27" y="-189.5" font-family="Helvetica,sans-Serif" font-size="10.00">+ ~IAnalyticalDynamics()</text>
<text text-anchor="start" x="27" y="-178.5" font-family="Helvetica,sans-Serif" font-size="10.00">+ Propagate()</text>
<text text-anchor="start" x="27" y="-167.5" font-family="Helvetica,sans-Serif" font-size="10.00">+ Propagate()</text>
<text text-anchor="start" x="27" y="-156.5" font-family="Helvetica,sans-Serif" font-size="10.00">+ PropagateWithSTM()</text>
<text text-anchor="start" x="27" y="-145.5" font-family="Helvetica,sans-Serif" font-size="10.00">+ PropagateWithSTM()</text>
</a>
</g>
</g>
<!-- Node2&#45;&gt;Node1 -->
<g id="edge1" class="edge">
<title>Node2&#45;&gt;Node1</title>
<path fill="none" stroke="midnightblue" d="M91,-128C91,-119.27 91,-110.36 91,-101.86"/>
<polygon fill="none" stroke="midnightblue" points="87.5,-128.13 91,-138.13 94.5,-128.13 87.5,-128.13"/>
</g>
</g>
</svg>
