<?xml version="1.0" encoding="UTF-8" standalone="no"?>
<!DOCTYPE svg PUBLIC "-//W3C//DTD SVG 1.1//EN"
 "http://www.w3.org/Graphics/SVG/1.1/DTD/svg11.dtd">
<!-- Generated by graphviz version 2.43.0 (0)
 -->
<!-- Title: LPT::Tranceiver Pages: 1 -->
<svg width="395pt" height="248pt"
 viewBox="0.00 0.00 395.00 248.00" xmlns="http://www.w3.org/2000/svg" xmlns:xlink="http://www.w3.org/1999/xlink">
<g id="graph0" class="graph" transform="scale(1 1) rotate(0) translate(4 244)">
<title>LPT::Tranceiver</title>
<polygon fill="white" stroke="transparent" points="-4,4 -4,-244 391,-244 391,4 -4,4"/>
<!-- Node1 -->
<g id="node1" class="node">
<title>Node1</title>
<g id="a_node1"><a xlink:title=" ">
<polygon fill="#bfbfbf" stroke="black" points="140.5,-0.5 140.5,-79.5 234.5,-79.5 234.5,-0.5 140.5,-0.5"/>
<text text-anchor="middle" x="187.5" y="-67.5" font-family="Helvetica,sans-Serif" font-size="10.00">LPT::Tranceiver</text>
<polyline fill="none" stroke="black" points="140.5,-60.5 234.5,-60.5 "/>
<text text-anchor="start" x="148.5" y="-48.5" font-family="Helvetica,sans-Serif" font-size="10.00">+ txrx</text>
<polyline fill="none" stroke="black" points="140.5,-41.5 234.5,-41.5 "/>
<text text-anchor="start" x="148.5" y="-29.5" font-family="Helvetica,sans-Serif" font-size="10.00">+ ~Tranceiver()</text>
<text text-anchor="start" x="148.5" y="-18.5" font-family="Helvetica,sans-Serif" font-size="10.00">+ GetAgent()</text>
<text text-anchor="start" x="148.5" y="-7.5" font-family="Helvetica,sans-Serif" font-size="10.00">+ SetAgent()</text>
</a>
</g>
</g>
<!-- Node2 -->
<g id="node2" class="node">
<title>Node2</title>
<g id="a_node2"><a xlink:href="classLPT_1_1ICommDevice.html" target="_top" xlink:title=" ">
<polygon fill="white" stroke="black" points="0,-144 0,-223 113,-223 113,-144 0,-144"/>
<text text-anchor="middle" x="56.5" y="-211" font-family="Helvetica,sans-Serif" font-size="10.00">LPT::ICommDevice</text>
<polyline fill="none" stroke="black" points="0,-204 113,-204 "/>
<text text-anchor="start" x="8" y="-192" font-family="Helvetica,sans-Serif" font-size="10.00">+ txrx</text>
<polyline fill="none" stroke="black" points="0,-185 113,-185 "/>
<text text-anchor="start" x="8" y="-173" font-family="Helvetica,sans-Serif" font-size="10.00">+ ~ICommDevice()</text>
<text text-anchor="start" x="8" y="-162" font-family="Helvetica,sans-Serif" font-size="10.00">+ GetAgent()</text>
<text text-anchor="start" x="8" y="-151" font-family="Helvetica,sans-Serif" font-size="10.00">+ SetAgent()</text>
</a>
</g>
</g>
<!-- Node2&#45;&gt;Node1 -->
<g id="edge1" class="edge">
<title>Node2&#45;&gt;Node1</title>
<path fill="none" stroke="midnightblue" d="M99.4,-136.16C116.34,-117.86 135.58,-97.08 151.75,-79.62"/>
<polygon fill="none" stroke="midnightblue" points="96.52,-134.12 92.3,-143.83 101.66,-138.87 96.52,-134.12"/>
</g>
<!-- Node3 -->
<g id="node3" class="node">
<title>Node3</title>
<g id="a_node3"><a xlink:href="structLPT_1_1ReceiverParam.html" target="_top" xlink:title=" ">
<polygon fill="white" stroke="black" points="131,-127.5 131,-239.5 244,-239.5 244,-127.5 131,-127.5"/>
<text text-anchor="middle" x="187.5" y="-227.5" font-family="Helvetica,sans-Serif" font-size="10.00">LPT::ReceiverParam</text>
<polyline fill="none" stroke="black" points="131,-220.5 244,-220.5 "/>
<text text-anchor="start" x="139" y="-208.5" font-family="Helvetica,sans-Serif" font-size="10.00">+ Ts</text>
<text text-anchor="start" x="139" y="-197.5" font-family="Helvetica,sans-Serif" font-size="10.00">+ Ae</text>
<text text-anchor="start" x="139" y="-186.5" font-family="Helvetica,sans-Serif" font-size="10.00">+ Nf</text>
<text text-anchor="start" x="139" y="-175.5" font-family="Helvetica,sans-Serif" font-size="10.00">+ L</text>
<text text-anchor="start" x="139" y="-164.5" font-family="Helvetica,sans-Serif" font-size="10.00">+ As</text>
<text text-anchor="start" x="139" y="-153.5" font-family="Helvetica,sans-Serif" font-size="10.00">+ CN0threshold</text>
<polyline fill="none" stroke="black" points="131,-146.5 244,-146.5 "/>
<text text-anchor="middle" x="187.5" y="-134.5" font-family="Helvetica,sans-Serif" font-size="10.00"> </text>
</a>
</g>
</g>
<!-- Node3&#45;&gt;Node1 -->
<g id="edge2" class="edge">
<title>Node3&#45;&gt;Node1</title>
<path fill="none" stroke="#404040" d="M187.5,-127.39C187.5,-115.65 187.5,-103.3 187.5,-91.74"/>
<polygon fill="none" stroke="#404040" points="187.5,-91.56 183.5,-85.56 187.5,-79.56 191.5,-85.56 187.5,-91.56"/>
<text text-anchor="middle" x="219.5" y="-101" font-family="Helvetica,sans-Serif" font-size="10.00"> +rx_param_</text>
</g>
<!-- Node4 -->
<g id="node4" class="node">
<title>Node4</title>
<g id="a_node4"><a xlink:href="structLPT_1_1TransmitterParam.html" target="_top" xlink:title=" ">
<polygon fill="white" stroke="black" points="262,-155 262,-212 387,-212 387,-155 262,-155"/>
<text text-anchor="middle" x="324.5" y="-200" font-family="Helvetica,sans-Serif" font-size="10.00">LPT::TransmitterParam</text>
<polyline fill="none" stroke="black" points="262,-193 387,-193 "/>
<text text-anchor="start" x="270" y="-181" font-family="Helvetica,sans-Serif" font-size="10.00">+ P_tx</text>
<polyline fill="none" stroke="black" points="262,-174 387,-174 "/>
<text text-anchor="middle" x="324.5" y="-162" font-family="Helvetica,sans-Serif" font-size="10.00"> </text>
</a>
</g>
</g>
<!-- Node4&#45;&gt;Node1 -->
<g id="edge3" class="edge">
<title>Node4&#45;&gt;Node1</title>
<path fill="none" stroke="#404040" d="M303.98,-154.75C290.86,-137.7 273.06,-115.79 255.5,-98 251.75,-94.2 247.76,-90.38 243.68,-86.62"/>
<polygon fill="none" stroke="#404040" points="243.56,-86.52 236.42,-85.49 234.63,-78.51 241.76,-79.53 243.56,-86.52"/>
<text text-anchor="middle" x="297.5" y="-101" font-family="Helvetica,sans-Serif" font-size="10.00"> +tx_param_</text>
</g>
</g>
</svg>
