<?xml version="1.0" encoding="UTF-8" standalone="no"?>
<!DOCTYPE svg PUBLIC "-//W3C//DTD SVG 1.1//EN"
 "http://www.w3.org/Graphics/SVG/1.1/DTD/svg11.dtd">
<!-- Generated by graphviz version 8.1.0 (20230707.0739)
 -->
<!-- Title: LPT::GNSSChannel Pages: 1 -->
<svg width="118pt" height="187pt"
 viewBox="0.00 0.00 118.00 187.00" xmlns="http://www.w3.org/2000/svg" xmlns:xlink="http://www.w3.org/1999/xlink">

<svg id="main" version="1.1" xmlns="http://www.w3.org/2000/svg" xmlns:xlink="http://www.w3.org/1999/xlink" xml:space="preserve" onload="init(evt)">
<style type="text/css"><![CDATA[
.node, .edge {opacity: 0.7;}
.node.selected, .edge.selected {opacity: 1;}
.edge:hover path { stroke: red; }
.edge:hover polygon { stroke: red; fill: red; }
]]></style>
<script type="application/ecmascript" xlink:href="svg.min.js"/>
<svg id="graph" class="graph">
<g id="graph0" class="graph" transform="scale(1 1) rotate(0) translate(4 183)">
<title>LPT::GNSSChannel</title>
<!-- Node1 -->
<g id="Node000001" class="node">
<title>Node1</title>
<g id="a_Node000001"><a xlink:title=" ">
<polygon fill="#999999" stroke="none" points="103.5,-94 6.5,-94 6.5,0 103.5,0 103.5,-94"/>
<text text-anchor="start" x="11.5" y="-80.5" font-family="Helvetica,sans-Serif" font-size="10.00">LPT::GNSSChannel</text>
<text text-anchor="start" x="12" y="-65.5" font-family="Helvetica,sans-Serif" font-size="10.00">+</text>
<text text-anchor="start" x="23.5" y="-65.5" font-family="Helvetica,sans-Serif" font-size="10.00">rx_devices</text>
<text text-anchor="start" x="12" y="-50.5" font-family="Helvetica,sans-Serif" font-size="10.00">+</text>
<text text-anchor="start" x="23.5" y="-50.5" font-family="Helvetica,sans-Serif" font-size="10.00">tx_devices</text>
<text text-anchor="start" x="12" y="-35.5" font-family="Helvetica,sans-Serif" font-size="10.00">+</text>
<text text-anchor="start" x="23.5" y="-35.5" font-family="Helvetica,sans-Serif" font-size="10.00">AddTransmitter()</text>
<text text-anchor="start" x="12" y="-20.5" font-family="Helvetica,sans-Serif" font-size="10.00">+</text>
<text text-anchor="start" x="23.5" y="-20.5" font-family="Helvetica,sans-Serif" font-size="10.00">AddReceiver()</text>
<text text-anchor="start" x="12" y="-5.5" font-family="Helvetica,sans-Serif" font-size="10.00">+</text>
<text text-anchor="start" x="23.5" y="-5.5" font-family="Helvetica,sans-Serif" font-size="10.00">Receive()</text>
<polygon fill="#666666" stroke="#666666" points="6.5,-77 6.5,-77 103.5,-77 103.5,-77 6.5,-77"/>
<polygon fill="#666666" stroke="#666666" points="6.5,-47 6.5,-47 21.5,-47 21.5,-47 6.5,-47"/>
<polygon fill="#666666" stroke="#666666" points="21.5,-47 21.5,-47 103.5,-47 103.5,-47 21.5,-47"/>
<polygon fill="none" stroke="#666666" points="6.5,0 6.5,-94 103.5,-94 103.5,0 6.5,0"/>
</a>
</g>
</g>
<!-- Node2 -->
<g id="Node000002" class="node">
<title>Node2</title>
<g id="a_Node000002"><a xlink:href="class_l_p_t_1_1_space_channel.html" target="_top" xlink:title=" ">
<polygon fill="white" stroke="none" points="110,-179 0,-179 0,-130 110,-130 110,-179"/>
<text text-anchor="start" x="11.88" y="-165.5" font-family="Helvetica,sans-Serif" font-size="10.00">LPT::SpaceChannel</text>
<text text-anchor="start" x="53.5" y="-150.5" font-family="Helvetica,sans-Serif" font-size="10.00"> </text>
<text text-anchor="start" x="4" y="-135.5" font-family="Helvetica,sans-Serif" font-size="10.00">+</text>
<text text-anchor="start" x="14" y="-135.5" font-family="Helvetica,sans-Serif" font-size="10.00">computeLinkBudget()</text>
<polygon fill="#bfbfbf" stroke="#bfbfbf" points="0,-162 0,-162 110,-162 110,-162 0,-162"/>
<polygon fill="#bfbfbf" stroke="#bfbfbf" points="0,-147 0,-147 110,-147 110,-147 0,-147"/>
<polygon fill="none" stroke="#bfbfbf" points="0,-130 0,-179 110,-179 110,-130 0,-130"/>
</a>
</g>
</g>
<!-- Node2&#45;&gt;Node1 -->
<g id="edge1_Node000001_Node000002" class="edge">
<title>Node2&#45;&gt;Node1</title>
<g id="a_edge1_Node000001_Node000002"><a xlink:title=" ">
<path fill="none" stroke="#63b8ff" d="M55,-119.19C55,-111.1 55,-102.36 55,-93.85"/>
<polygon fill="none" stroke="#63b8ff" points="51.5,-119.09 55,-129.09 58.5,-119.09 51.5,-119.09"/>
</a>
</g>
</g>
</g>
</svg>
</svg>

<style type='text/css'>
<![CDATA[
[data-mouse-over-selected='false'] { opacity: 0.7; }
[data-mouse-over-selected='true']  { opacity: 1.0; }
]]>
</style>
<script type="application/ecmascript"><![CDATA[
document.addEventListener('DOMContentLoaded', (event) => {
  highlightEdges();
  highlightAdjacentNodes();
});
]]></script>
</svg>
