<?xml version="1.0" encoding="UTF-8" standalone="no"?>
<!DOCTYPE svg PUBLIC "-//W3C//DTD SVG 1.1//EN"
 "http://www.w3.org/Graphics/SVG/1.1/DTD/svg11.dtd">
<!-- Generated by graphviz version 2.43.0 (0)
 -->
<!-- Title: LPT::ICommDevice Pages: 1 -->
<!--zoomable 496 -->
<svg id="main" version="1.1" xmlns="http://www.w3.org/2000/svg" xmlns:xlink="http://www.w3.org/1999/xlink" xml:space="preserve" onload="init(evt)">
<style type="text/css"><![CDATA[
.edge:hover path { stroke: red; }
.edge:hover polygon { stroke: red; fill: red; }
]]></style>
<script type="text/javascript"><![CDATA[
var edges = document.getElementsByTagName('g');
if (edges && edges.length) {
  for (var i=0;i<edges.length;i++) {
    if (edges[i].id.substr(0,4)=='edge') {
      edges[i].setAttribute('class','edge');
    }
  }
}
]]></script>
        <defs>
                <circle id="rim" cx="0" cy="0" r="7"/>
                <circle id="rim2" cx="0" cy="0" r="3.5"/>
                <g id="zoomPlus">
                        <use xlink:href="#rim" fill="#404040">
                                <set attributeName="fill" to="#808080" begin="zoomplus.mouseover" end="zoomplus.mouseout"/>
                        </use>
                        <path d="M-4,0h8M0,-4v8" fill="none" stroke="white" stroke-width="1.5" pointer-events="none"/>
                </g>
                <g id="zoomMin">
                        <use xlink:href="#rim" fill="#404040">
                                <set attributeName="fill" to="#808080" begin="zoomminus.mouseover" end="zoomminus.mouseout"/>
                        </use>
                        <path d="M-4,0h8" fill="none" stroke="white" stroke-width="1.5" pointer-events="none"/>
                </g>
                <g id="dirArrow">
                        <path fill="none" stroke="white" stroke-width="1.5" d="M0,-3.0v7 M-2.5,-0.5L0,-3.0L2.5,-0.5"/>
                </g>
               <g id="resetDef">
                       <use xlink:href="#rim2" fill="#404040">
                               <set attributeName="fill" to="#808080" begin="reset.mouseover" end="reset.mouseout"/>
                       </use>
               </g>
        </defs>

<script type="text/javascript">
var viewWidth = 400;
var viewHeight = 496;
var sectionId = 'dynsection-0';
</script>
<script xlink:href="svgpan.js"/>
<svg id="graph" class="graph">
<g id="viewport">
<title>LPT::ICommDevice</title>
<polygon fill="white" stroke="transparent" points="-4,4 -4,-492 395.5,-492 395.5,4 -4,4"/>
<!-- Node1 -->
<g id="node1" class="node">
<title>Node1</title>
<g id="a_node1"><a xlink:title=" ">
<polygon fill="#bfbfbf" stroke="black" points="130.5,-408.5 130.5,-487.5 243.5,-487.5 243.5,-408.5 130.5,-408.5"/>
<text text-anchor="middle" x="187" y="-475.5" font-family="Helvetica,sans-Serif" font-size="10.00">LPT::ICommDevice</text>
<polyline fill="none" stroke="black" points="130.5,-468.5 243.5,-468.5 "/>
<text text-anchor="start" x="138.5" y="-456.5" font-family="Helvetica,sans-Serif" font-size="10.00">+ txrx</text>
<polyline fill="none" stroke="black" points="130.5,-449.5 243.5,-449.5 "/>
<text text-anchor="start" x="138.5" y="-437.5" font-family="Helvetica,sans-Serif" font-size="10.00">+ ~ICommDevice()</text>
<text text-anchor="start" x="138.5" y="-426.5" font-family="Helvetica,sans-Serif" font-size="10.00">+ GetAgent()</text>
<text text-anchor="start" x="138.5" y="-415.5" font-family="Helvetica,sans-Serif" font-size="10.00">+ SetAgent()</text>
</a>
</g>
</g>
<!-- Node2 -->
<g id="node2" class="node">
<title>Node2</title>
<g id="a_node2"><a xlink:href="classLPT_1_1Receiver.html" target="_top" xlink:title=" ">
<polygon fill="white" stroke="black" points="36,-276 36,-366 122,-366 122,-276 36,-276"/>
<text text-anchor="middle" x="79" y="-354" font-family="Helvetica,sans-Serif" font-size="10.00">LPT::Receiver</text>
<polyline fill="none" stroke="black" points="36,-347 122,-347 "/>
<text text-anchor="start" x="44" y="-335" font-family="Helvetica,sans-Serif" font-size="10.00">+ txrx</text>
<text text-anchor="start" x="44" y="-324" font-family="Helvetica,sans-Serif" font-size="10.00">+ rx_param_</text>
<polyline fill="none" stroke="black" points="36,-317 122,-317 "/>
<text text-anchor="start" x="44" y="-305" font-family="Helvetica,sans-Serif" font-size="10.00">+ ~Receiver()</text>
<text text-anchor="start" x="44" y="-294" font-family="Helvetica,sans-Serif" font-size="10.00">+ GetAgent()</text>
<text text-anchor="start" x="44" y="-283" font-family="Helvetica,sans-Serif" font-size="10.00">+ SetAgent()</text>
</a>
</g>
</g>
<!-- Node1&#45;&gt;Node2 -->
<g id="edge1" class="edge">
<title>Node1&#45;&gt;Node2</title>
<path fill="none" stroke="midnightblue" d="M147.09,-400.81C137.35,-389.53 126.94,-377.49 117.28,-366.3"/>
<polygon fill="none" stroke="midnightblue" points="144.53,-403.2 153.72,-408.48 149.83,-398.62 144.53,-403.2"/>
</g>
<!-- Node4 -->
<g id="node4" class="node">
<title>Node4</title>
<g id="a_node4"><a xlink:href="classLPT_1_1Tranceiver.html" target="_top" xlink:title=" ">
<polygon fill="white" stroke="black" points="140,-270.5 140,-371.5 234,-371.5 234,-270.5 140,-270.5"/>
<text text-anchor="middle" x="187" y="-359.5" font-family="Helvetica,sans-Serif" font-size="10.00">LPT::Tranceiver</text>
<polyline fill="none" stroke="black" points="140,-352.5 234,-352.5 "/>
<text text-anchor="start" x="148" y="-340.5" font-family="Helvetica,sans-Serif" font-size="10.00">+ txrx</text>
<text text-anchor="start" x="148" y="-329.5" font-family="Helvetica,sans-Serif" font-size="10.00">+ tx_param_</text>
<text text-anchor="start" x="148" y="-318.5" font-family="Helvetica,sans-Serif" font-size="10.00">+ rx_param_</text>
<polyline fill="none" stroke="black" points="140,-311.5 234,-311.5 "/>
<text text-anchor="start" x="148" y="-299.5" font-family="Helvetica,sans-Serif" font-size="10.00">+ ~Tranceiver()</text>
<text text-anchor="start" x="148" y="-288.5" font-family="Helvetica,sans-Serif" font-size="10.00">+ GetAgent()</text>
<text text-anchor="start" x="148" y="-277.5" font-family="Helvetica,sans-Serif" font-size="10.00">+ SetAgent()</text>
</a>
</g>
</g>
<!-- Node1&#45;&gt;Node4 -->
<g id="edge3" class="edge">
<title>Node1&#45;&gt;Node4</title>
<path fill="none" stroke="midnightblue" d="M187,-398.41C187,-389.64 187,-380.49 187,-371.69"/>
<polygon fill="none" stroke="midnightblue" points="183.5,-398.48 187,-408.48 190.5,-398.48 183.5,-398.48"/>
</g>
<!-- Node5 -->
<g id="node5" class="node">
<title>Node5</title>
<g id="a_node5"><a xlink:href="classLPT_1_1Transmitter.html" target="_top" xlink:title=" ">
<polygon fill="white" stroke="black" points="252.5,-276 252.5,-366 351.5,-366 351.5,-276 252.5,-276"/>
<text text-anchor="middle" x="302" y="-354" font-family="Helvetica,sans-Serif" font-size="10.00">LPT::Transmitter</text>
<polyline fill="none" stroke="black" points="252.5,-347 351.5,-347 "/>
<text text-anchor="start" x="260.5" y="-335" font-family="Helvetica,sans-Serif" font-size="10.00">+ txrx</text>
<text text-anchor="start" x="260.5" y="-324" font-family="Helvetica,sans-Serif" font-size="10.00">+ tx_param_</text>
<polyline fill="none" stroke="black" points="252.5,-317 351.5,-317 "/>
<text text-anchor="start" x="260.5" y="-305" font-family="Helvetica,sans-Serif" font-size="10.00">+ ~Transmitter()</text>
<text text-anchor="start" x="260.5" y="-294" font-family="Helvetica,sans-Serif" font-size="10.00">+ GetAgent()</text>
<text text-anchor="start" x="260.5" y="-283" font-family="Helvetica,sans-Serif" font-size="10.00">+ SetAgent()</text>
</a>
</g>
</g>
<!-- Node1&#45;&gt;Node5 -->
<g id="edge4" class="edge">
<title>Node1&#45;&gt;Node5</title>
<path fill="none" stroke="midnightblue" d="M229.5,-400.81C239.87,-389.53 250.95,-377.49 261.24,-366.3"/>
<polygon fill="none" stroke="midnightblue" points="226.64,-398.75 222.44,-408.48 231.79,-403.49 226.64,-398.75"/>
</g>
<!-- Node3 -->
<g id="node3" class="node">
<title>Node3</title>
<g id="a_node3"><a xlink:href="classLPT_1_1GNSSReceiver.html" target="_top" xlink:title=" ">
<polygon fill="white" stroke="black" points="0,-28 0,-206 158,-206 158,-28 0,-28"/>
<text text-anchor="middle" x="79" y="-194" font-family="Helvetica,sans-Serif" font-size="10.00">LPT::GNSSReceiver</text>
<polyline fill="none" stroke="black" points="0,-187 158,-187 "/>
<text text-anchor="start" x="8" y="-175" font-family="Helvetica,sans-Serif" font-size="10.00">+ antenna_</text>
<text text-anchor="start" x="8" y="-164" font-family="Helvetica,sans-Serif" font-size="10.00">+ receiver_name_</text>
<polyline fill="none" stroke="black" points="0,-157 158,-157 "/>
<text text-anchor="start" x="8" y="-145" font-family="Helvetica,sans-Serif" font-size="10.00">+ GNSSReceiver()</text>
<text text-anchor="start" x="8" y="-134" font-family="Helvetica,sans-Serif" font-size="10.00">+ GetReceiverOrientation()</text>
<text text-anchor="start" x="8" y="-123" font-family="Helvetica,sans-Serif" font-size="10.00">+ GetReceiverAntennaGain()</text>
<text text-anchor="start" x="8" y="-112" font-family="Helvetica,sans-Serif" font-size="10.00">+ InitializeReceiverParams()</text>
<text text-anchor="start" x="8" y="-101" font-family="Helvetica,sans-Serif" font-size="10.00">+ SetCN0Threshold()</text>
<text text-anchor="start" x="8" y="-90" font-family="Helvetica,sans-Serif" font-size="10.00">+ GetMeasurement()</text>
<text text-anchor="start" x="8" y="-79" font-family="Helvetica,sans-Serif" font-size="10.00">+ SetChannel()</text>
<text text-anchor="start" x="8" y="-68" font-family="Helvetica,sans-Serif" font-size="10.00">+ GetAgent()</text>
<text text-anchor="start" x="8" y="-57" font-family="Helvetica,sans-Serif" font-size="10.00">+ SetAgent()</text>
<text text-anchor="start" x="8" y="-46" font-family="Helvetica,sans-Serif" font-size="10.00">+ GetAntennaGain()</text>
<text text-anchor="start" x="8" y="-35" font-family="Helvetica,sans-Serif" font-size="10.00">+ GetAntennaGain()</text>
</a>
</g>
</g>
<!-- Node2&#45;&gt;Node3 -->
<g id="edge2" class="edge">
<title>Node2&#45;&gt;Node3</title>
<path fill="none" stroke="midnightblue" d="M79,-265.52C79,-247.24 79,-226.36 79,-206.18"/>
<polygon fill="none" stroke="midnightblue" points="75.5,-265.67 79,-275.67 82.5,-265.67 75.5,-265.67"/>
</g>
<!-- Node6 -->
<g id="node6" class="node">
<title>Node6</title>
<g id="a_node6"><a xlink:href="classLPT_1_1GNSSTransmitter.html" target="_top" xlink:title=" ">
<polygon fill="white" stroke="black" points="212.5,-0.5 212.5,-233.5 391.5,-233.5 391.5,-0.5 212.5,-0.5"/>
<text text-anchor="middle" x="302" y="-221.5" font-family="Helvetica,sans-Serif" font-size="10.00">LPT::GNSSTransmitter</text>
<polyline fill="none" stroke="black" points="212.5,-214.5 391.5,-214.5 "/>
<text text-anchor="start" x="220.5" y="-202.5" font-family="Helvetica,sans-Serif" font-size="10.00">+ antenna_</text>
<text text-anchor="start" x="220.5" y="-191.5" font-family="Helvetica,sans-Serif" font-size="10.00">+ gnss_type_</text>
<text text-anchor="start" x="220.5" y="-180.5" font-family="Helvetica,sans-Serif" font-size="10.00">+ txrx</text>
<text text-anchor="start" x="220.5" y="-169.5" font-family="Helvetica,sans-Serif" font-size="10.00">+ prn_</text>
<text text-anchor="start" x="220.5" y="-158.5" font-family="Helvetica,sans-Serif" font-size="10.00">+ freq_tx</text>
<text text-anchor="start" x="220.5" y="-147.5" font-family="Helvetica,sans-Serif" font-size="10.00">+ freq_list</text>
<text text-anchor="start" x="220.5" y="-136.5" font-family="Helvetica,sans-Serif" font-size="10.00">+ freq_map</text>
<polyline fill="none" stroke="black" points="212.5,-129.5 391.5,-129.5 "/>
<text text-anchor="start" x="220.5" y="-117.5" font-family="Helvetica,sans-Serif" font-size="10.00">+ GNSSTransmitter()</text>
<text text-anchor="start" x="220.5" y="-106.5" font-family="Helvetica,sans-Serif" font-size="10.00">+ InitializeGNSSTransmitter()</text>
<text text-anchor="start" x="220.5" y="-95.5" font-family="Helvetica,sans-Serif" font-size="10.00">+ InitializeGPSTransmitter()</text>
<text text-anchor="start" x="220.5" y="-84.5" font-family="Helvetica,sans-Serif" font-size="10.00">+ InitializeGLONASSTransmitter()</text>
<text text-anchor="start" x="220.5" y="-73.5" font-family="Helvetica,sans-Serif" font-size="10.00">+ InitializeGALILEOTransmitter()</text>
<text text-anchor="start" x="220.5" y="-62.5" font-family="Helvetica,sans-Serif" font-size="10.00">+ InitializeBEIDOUTransmitter()</text>
<text text-anchor="start" x="220.5" y="-51.5" font-family="Helvetica,sans-Serif" font-size="10.00">+ GetTransmitterOrientation()</text>
<text text-anchor="start" x="220.5" y="-40.5" font-family="Helvetica,sans-Serif" font-size="10.00">+ GetTransmittionAntennaGain()</text>
<text text-anchor="start" x="220.5" y="-29.5" font-family="Helvetica,sans-Serif" font-size="10.00">+ GenerateTransmission()</text>
<text text-anchor="start" x="220.5" y="-18.5" font-family="Helvetica,sans-Serif" font-size="10.00">+ SetChannel()</text>
<text text-anchor="start" x="220.5" y="-7.5" font-family="Helvetica,sans-Serif" font-size="10.00">and 7 more...</text>
</a>
</g>
</g>
<!-- Node5&#45;&gt;Node6 -->
<g id="edge5" class="edge">
<title>Node5&#45;&gt;Node6</title>
<path fill="none" stroke="midnightblue" d="M302,-265.55C302,-255.55 302,-244.77 302,-233.75"/>
<polygon fill="none" stroke="midnightblue" points="298.5,-265.67 302,-275.67 305.5,-265.67 298.5,-265.67"/>
</g>
</g>
</svg>
        <g id="navigator" transform="translate(0 0)" fill="#404254">
                <rect fill="#f2f5e9" fill-opacity="0.5" stroke="#606060" stroke-width=".5" x="0" y="0" width="60" height="60"/>
                <use id="zoomplus" xlink:href="#zoomPlus" x="17" y="9" onmousedown="handleZoom(evt,'in')"/>
                <use id="zoomminus" xlink:href="#zoomMin" x="42" y="9" onmousedown="handleZoom(evt,'out')"/>
                <use id="reset" xlink:href="#resetDef" x="30" y="36" onmousedown="handleReset()"/>
                <g id="arrowUp" xlink:href="#dirArrow" transform="translate(30 24)" onmousedown="handlePan(0,-1)">
                  <use xlink:href="#rim" fill="#404040">
                        <set attributeName="fill" to="#808080" begin="arrowUp.mouseover" end="arrowUp.mouseout"/>
                  </use>
                  <path fill="none" stroke="white" stroke-width="1.5" d="M0,-3.0v7 M-2.5,-0.5L0,-3.0L2.5,-0.5"/>
                </g>
                <g id="arrowRight" xlink:href="#dirArrow" transform="rotate(90) translate(36 -43)" onmousedown="handlePan(1,0)">
                  <use xlink:href="#rim" fill="#404040">
                        <set attributeName="fill" to="#808080" begin="arrowRight.mouseover" end="arrowRight.mouseout"/>
                  </use>
                  <path fill="none" stroke="white" stroke-width="1.5" d="M0,-3.0v7 M-2.5,-0.5L0,-3.0L2.5,-0.5"/>
                </g>
                <g id="arrowDown" xlink:href="#dirArrow" transform="rotate(180) translate(-30 -48)" onmousedown="handlePan(0,1)">
                  <use xlink:href="#rim" fill="#404040">
                        <set attributeName="fill" to="#808080" begin="arrowDown.mouseover" end="arrowDown.mouseout"/>
                  </use>
                  <path fill="none" stroke="white" stroke-width="1.5" d="M0,-3.0v7 M-2.5,-0.5L0,-3.0L2.5,-0.5"/>
                </g>
                <g id="arrowLeft" xlink:href="#dirArrow" transform="rotate(270) translate(-36 17)" onmousedown="handlePan(-1,0)">
                  <use xlink:href="#rim" fill="#404040">
                        <set attributeName="fill" to="#808080" begin="arrowLeft.mouseover" end="arrowLeft.mouseout"/>
                  </use>
                  <path fill="none" stroke="white" stroke-width="1.5" d="M0,-3.0v7 M-2.5,-0.5L0,-3.0L2.5,-0.5"/>
                </g>
        </g>
        <svg viewBox="0 0 15 15" width="100%" height="30px" preserveAspectRatio="xMaxYMin meet">
         <g id="arrow_out" transform="scale(0.3 0.3)">
          <a xlink:href="classLPT_1_1ICommDevice__inherit__graph_org.svg" target="_base">
           <rect id="button" ry="5" rx="5" y="6" x="6" height="38" width="38"
                fill="#f2f5e9" fill-opacity="0.5" stroke="#606060" stroke-width="1.0"/>
           <path id="arrow"
             d="M 11.500037,31.436501 C 11.940474,20.09759 22.043105,11.32322 32.158766,21.979434 L 37.068811,17.246167 C 37.068811,17.246167 37.088388,32 37.088388,32 L 22.160133,31.978069 C 22.160133,31.978069 26.997745,27.140456 26.997745,27.140456 C 18.528582,18.264221 13.291696,25.230495 11.500037,31.436501 z"
             style="fill:#404040;"/>
          </a>
         </g>
        </svg>
</svg>
