<?xml version="1.0" encoding="UTF-8" standalone="no"?>
<!DOCTYPE svg PUBLIC "-//W3C//DTD SVG 1.1//EN"
 "http://www.w3.org/Graphics/SVG/1.1/DTD/svg11.dtd">
<!-- Generated by graphviz version 2.43.0 (0)
 -->
<!-- Title: LPT::MoonMeanDynamics Pages: 1 -->
<svg width="150pt" height="463pt"
 viewBox="0.00 0.00 150.00 463.00" xmlns="http://www.w3.org/2000/svg" xmlns:xlink="http://www.w3.org/1999/xlink">
<g id="graph0" class="graph" transform="scale(1 1) rotate(0) translate(4 459)">
<title>LPT::MoonMeanDynamics</title>
<polygon fill="white" stroke="transparent" points="-4,4 -4,-459 146,-459 146,4 -4,4"/>
<!-- Node1 -->
<g id="node1" class="node">
<title>Node1</title>
<g id="a_node1"><a xlink:title=" ">
<polygon fill="#bfbfbf" stroke="black" points="0,-0.5 0,-68.5 142,-68.5 142,-0.5 0,-0.5"/>
<text text-anchor="middle" x="71" y="-56.5" font-family="Helvetica,sans-Serif" font-size="10.00">LPT::MoonMeanDynamics</text>
<polyline fill="none" stroke="black" points="0,-49.5 142,-49.5 "/>
<text text-anchor="middle" x="71" y="-37.5" font-family="Helvetica,sans-Serif" font-size="10.00"> </text>
<polyline fill="none" stroke="black" points="0,-30.5 142,-30.5 "/>
<text text-anchor="start" x="8" y="-18.5" font-family="Helvetica,sans-Serif" font-size="10.00">+ MoonMeanDynamics()</text>
<text text-anchor="start" x="8" y="-7.5" font-family="Helvetica,sans-Serif" font-size="10.00">+ ComputeRates()</text>
</a>
</g>
</g>
<!-- Node2 -->
<g id="node2" class="node">
<title>Node2</title>
<g id="a_node2"><a xlink:href="classLPT_1_1NumericalDynamics.html" target="_top" xlink:title=" ">
<polygon fill="white" stroke="black" points="2,-105.5 2,-272.5 140,-272.5 140,-105.5 2,-105.5"/>
<text text-anchor="middle" x="71" y="-260.5" font-family="Helvetica,sans-Serif" font-size="10.00">LPT::NumericalDynamics</text>
<polyline fill="none" stroke="black" points="2,-253.5 140,-253.5 "/>
<text text-anchor="middle" x="71" y="-241.5" font-family="Helvetica,sans-Serif" font-size="10.00"> </text>
<polyline fill="none" stroke="black" points="2,-234.5 140,-234.5 "/>
<text text-anchor="start" x="10" y="-222.5" font-family="Helvetica,sans-Serif" font-size="10.00">+ NumericalDynamics()</text>
<text text-anchor="start" x="10" y="-211.5" font-family="Helvetica,sans-Serif" font-size="10.00">+ SetDt()</text>
<text text-anchor="start" x="10" y="-200.5" font-family="Helvetica,sans-Serif" font-size="10.00">+ Propagate()</text>
<text text-anchor="start" x="10" y="-189.5" font-family="Helvetica,sans-Serif" font-size="10.00">+ Propagate()</text>
<text text-anchor="start" x="10" y="-178.5" font-family="Helvetica,sans-Serif" font-size="10.00">+ PropagateWithStm()</text>
<text text-anchor="start" x="10" y="-167.5" font-family="Helvetica,sans-Serif" font-size="10.00">+ PropagateWithStm()</text>
<text text-anchor="start" x="10" y="-156.5" font-family="Helvetica,sans-Serif" font-size="10.00">+ Propagate()</text>
<text text-anchor="start" x="10" y="-145.5" font-family="Helvetica,sans-Serif" font-size="10.00">+ Propagate()</text>
<text text-anchor="start" x="10" y="-134.5" font-family="Helvetica,sans-Serif" font-size="10.00">+ PropagateWithStm()</text>
<text text-anchor="start" x="10" y="-123.5" font-family="Helvetica,sans-Serif" font-size="10.00">+ PropagateWithStm()</text>
<text text-anchor="start" x="10" y="-112.5" font-family="Helvetica,sans-Serif" font-size="10.00"># ComputeRates()</text>
</a>
</g>
</g>
<!-- Node2&#45;&gt;Node1 -->
<g id="edge1" class="edge">
<title>Node2&#45;&gt;Node1</title>
<path fill="none" stroke="midnightblue" d="M71,-94.89C71,-85.63 71,-76.72 71,-68.74"/>
<polygon fill="none" stroke="midnightblue" points="67.5,-95.06 71,-105.06 74.5,-95.06 67.5,-95.06"/>
</g>
<!-- Node3 -->
<g id="node3" class="node">
<title>Node3</title>
<g id="a_node3"><a xlink:href="classLPT_1_1IOrbitDynamics.html" target="_top" xlink:title="Interface for Orbit Dynamics (Todo: find a way to inherit this from IDynamics)">
<polygon fill="white" stroke="black" points="7.5,-309.5 7.5,-454.5 134.5,-454.5 134.5,-309.5 7.5,-309.5"/>
<text text-anchor="middle" x="71" y="-442.5" font-family="Helvetica,sans-Serif" font-size="10.00">LPT::IOrbitDynamics</text>
<polyline fill="none" stroke="black" points="7.5,-435.5 134.5,-435.5 "/>
<text text-anchor="middle" x="71" y="-423.5" font-family="Helvetica,sans-Serif" font-size="10.00"> </text>
<polyline fill="none" stroke="black" points="7.5,-416.5 134.5,-416.5 "/>
<text text-anchor="start" x="15.5" y="-404.5" font-family="Helvetica,sans-Serif" font-size="10.00">+ ~IOrbitDynamics()</text>
<text text-anchor="start" x="15.5" y="-393.5" font-family="Helvetica,sans-Serif" font-size="10.00">+ Propagate()</text>
<text text-anchor="start" x="15.5" y="-382.5" font-family="Helvetica,sans-Serif" font-size="10.00">+ Propagate()</text>
<text text-anchor="start" x="15.5" y="-371.5" font-family="Helvetica,sans-Serif" font-size="10.00">+ PropagateWithStm()</text>
<text text-anchor="start" x="15.5" y="-360.5" font-family="Helvetica,sans-Serif" font-size="10.00">+ PropagateWithStm()</text>
<text text-anchor="start" x="15.5" y="-349.5" font-family="Helvetica,sans-Serif" font-size="10.00">+ Propagate()</text>
<text text-anchor="start" x="15.5" y="-338.5" font-family="Helvetica,sans-Serif" font-size="10.00">+ Propagate()</text>
<text text-anchor="start" x="15.5" y="-327.5" font-family="Helvetica,sans-Serif" font-size="10.00">+ PropagateWithStm()</text>
<text text-anchor="start" x="15.5" y="-316.5" font-family="Helvetica,sans-Serif" font-size="10.00">+ PropagateWithStm()</text>
</a>
</g>
</g>
<!-- Node3&#45;&gt;Node2 -->
<g id="edge2" class="edge">
<title>Node3&#45;&gt;Node2</title>
<path fill="none" stroke="midnightblue" d="M71,-299.13C71,-290.37 71,-281.45 71,-272.67"/>
<polygon fill="none" stroke="midnightblue" points="67.5,-299.34 71,-309.34 74.5,-299.34 67.5,-299.34"/>
</g>
</g>
</svg>
