<?xml version="1.0" encoding="UTF-8" standalone="no"?>
<!DOCTYPE svg PUBLIC "-//W3C//DTD SVG 1.1//EN"
 "http://www.w3.org/Graphics/SVG/1.1/DTD/svg11.dtd">
<!-- Generated by graphviz version 2.43.0 (0)
 -->
<!-- Title: LPT::GNSSTransmitter Pages: 1 -->
<svg width="335pt" height="529pt"
 viewBox="0.00 0.00 334.50 529.00" xmlns="http://www.w3.org/2000/svg" xmlns:xlink="http://www.w3.org/1999/xlink">
<g id="graph0" class="graph" transform="scale(1 1) rotate(0) translate(4 525)">
<title>LPT::GNSSTransmitter</title>
<polygon fill="white" stroke="transparent" points="-4,4 -4,-525 330.5,-525 330.5,4 -4,4"/>
<!-- Node1 -->
<g id="node1" class="node">
<title>Node1</title>
<g id="a_node1"><a xlink:title=" ">
<polygon fill="#bfbfbf" stroke="black" points="102,-0.5 102,-222.5 281,-222.5 281,-0.5 102,-0.5"/>
<text text-anchor="middle" x="191.5" y="-210.5" font-family="Helvetica,sans-Serif" font-size="10.00">LPT::GNSSTransmitter</text>
<polyline fill="none" stroke="black" points="102,-203.5 281,-203.5 "/>
<text text-anchor="start" x="110" y="-191.5" font-family="Helvetica,sans-Serif" font-size="10.00">+ gnss_type_</text>
<text text-anchor="start" x="110" y="-180.5" font-family="Helvetica,sans-Serif" font-size="10.00">+ txrx</text>
<text text-anchor="start" x="110" y="-169.5" font-family="Helvetica,sans-Serif" font-size="10.00">+ prn_</text>
<text text-anchor="start" x="110" y="-158.5" font-family="Helvetica,sans-Serif" font-size="10.00">+ freq_tx</text>
<text text-anchor="start" x="110" y="-147.5" font-family="Helvetica,sans-Serif" font-size="10.00">+ freq_list</text>
<text text-anchor="start" x="110" y="-136.5" font-family="Helvetica,sans-Serif" font-size="10.00">+ freq_map</text>
<polyline fill="none" stroke="black" points="102,-129.5 281,-129.5 "/>
<text text-anchor="start" x="110" y="-117.5" font-family="Helvetica,sans-Serif" font-size="10.00">+ GNSSTransmitter()</text>
<text text-anchor="start" x="110" y="-106.5" font-family="Helvetica,sans-Serif" font-size="10.00">+ InitializeGNSSTransmitter()</text>
<text text-anchor="start" x="110" y="-95.5" font-family="Helvetica,sans-Serif" font-size="10.00">+ InitializeGPSTransmitter()</text>
<text text-anchor="start" x="110" y="-84.5" font-family="Helvetica,sans-Serif" font-size="10.00">+ InitializeGLONASSTransmitter()</text>
<text text-anchor="start" x="110" y="-73.5" font-family="Helvetica,sans-Serif" font-size="10.00">+ InitializeGALILEOTransmitter()</text>
<text text-anchor="start" x="110" y="-62.5" font-family="Helvetica,sans-Serif" font-size="10.00">+ InitializeBEIDOUTransmitter()</text>
<text text-anchor="start" x="110" y="-51.5" font-family="Helvetica,sans-Serif" font-size="10.00">+ GetTransmitterOrientation()</text>
<text text-anchor="start" x="110" y="-40.5" font-family="Helvetica,sans-Serif" font-size="10.00">+ GetTransmittionAntennaGain()</text>
<text text-anchor="start" x="110" y="-29.5" font-family="Helvetica,sans-Serif" font-size="10.00">+ GenerateTransmission()</text>
<text text-anchor="start" x="110" y="-18.5" font-family="Helvetica,sans-Serif" font-size="10.00">+ SetChannel()</text>
<text text-anchor="start" x="110" y="-7.5" font-family="Helvetica,sans-Serif" font-size="10.00">and 7 more...</text>
</a>
</g>
</g>
<!-- Node2 -->
<g id="node2" class="node">
<title>Node2</title>
<g id="a_node2"><a xlink:href="classLPT_1_1Transmitter.html" target="_top" xlink:title=" ">
<polygon fill="white" stroke="black" points="75,-292.5 75,-371.5 174,-371.5 174,-292.5 75,-292.5"/>
<text text-anchor="middle" x="124.5" y="-359.5" font-family="Helvetica,sans-Serif" font-size="10.00">LPT::Transmitter</text>
<polyline fill="none" stroke="black" points="75,-352.5 174,-352.5 "/>
<text text-anchor="start" x="83" y="-340.5" font-family="Helvetica,sans-Serif" font-size="10.00">+ txrx</text>
<polyline fill="none" stroke="black" points="75,-333.5 174,-333.5 "/>
<text text-anchor="start" x="83" y="-321.5" font-family="Helvetica,sans-Serif" font-size="10.00">+ ~Transmitter()</text>
<text text-anchor="start" x="83" y="-310.5" font-family="Helvetica,sans-Serif" font-size="10.00">+ GetAgent()</text>
<text text-anchor="start" x="83" y="-299.5" font-family="Helvetica,sans-Serif" font-size="10.00">+ SetAgent()</text>
</a>
</g>
</g>
<!-- Node2&#45;&gt;Node1 -->
<g id="edge1" class="edge">
<title>Node2&#45;&gt;Node1</title>
<path fill="none" stroke="midnightblue" d="M139.41,-282.39C144.84,-264.66 151.23,-243.81 157.64,-222.91"/>
<polygon fill="none" stroke="midnightblue" points="135.91,-281.85 136.32,-292.44 142.6,-283.91 135.91,-281.85"/>
</g>
<!-- Node3 -->
<g id="node3" class="node">
<title>Node3</title>
<g id="a_node3"><a xlink:href="classLPT_1_1ICommDevice.html" target="_top" xlink:title=" ">
<polygon fill="white" stroke="black" points="0,-441.5 0,-520.5 113,-520.5 113,-441.5 0,-441.5"/>
<text text-anchor="middle" x="56.5" y="-508.5" font-family="Helvetica,sans-Serif" font-size="10.00">LPT::ICommDevice</text>
<polyline fill="none" stroke="black" points="0,-501.5 113,-501.5 "/>
<text text-anchor="start" x="8" y="-489.5" font-family="Helvetica,sans-Serif" font-size="10.00">+ txrx</text>
<polyline fill="none" stroke="black" points="0,-482.5 113,-482.5 "/>
<text text-anchor="start" x="8" y="-470.5" font-family="Helvetica,sans-Serif" font-size="10.00">+ ~ICommDevice()</text>
<text text-anchor="start" x="8" y="-459.5" font-family="Helvetica,sans-Serif" font-size="10.00">+ GetAgent()</text>
<text text-anchor="start" x="8" y="-448.5" font-family="Helvetica,sans-Serif" font-size="10.00">+ SetAgent()</text>
</a>
</g>
</g>
<!-- Node3&#45;&gt;Node2 -->
<g id="edge2" class="edge">
<title>Node3&#45;&gt;Node2</title>
<path fill="none" stroke="midnightblue" d="M78.57,-432.29C87.66,-412.65 98.04,-390.2 106.64,-371.62"/>
<polygon fill="none" stroke="midnightblue" points="75.39,-430.83 74.37,-441.38 81.74,-433.77 75.39,-430.83"/>
</g>
<!-- Node4 -->
<g id="node4" class="node">
<title>Node4</title>
<g id="a_node4"><a xlink:href="structLPT_1_1TransmitterParam.html" target="_top" xlink:title=" ">
<polygon fill="white" stroke="black" points="131,-452.5 131,-509.5 256,-509.5 256,-452.5 131,-452.5"/>
<text text-anchor="middle" x="193.5" y="-497.5" font-family="Helvetica,sans-Serif" font-size="10.00">LPT::TransmitterParam</text>
<polyline fill="none" stroke="black" points="131,-490.5 256,-490.5 "/>
<text text-anchor="start" x="139" y="-478.5" font-family="Helvetica,sans-Serif" font-size="10.00">+ P_tx</text>
<polyline fill="none" stroke="black" points="131,-471.5 256,-471.5 "/>
<text text-anchor="middle" x="193.5" y="-459.5" font-family="Helvetica,sans-Serif" font-size="10.00"> </text>
</a>
</g>
</g>
<!-- Node4&#45;&gt;Node2 -->
<g id="edge3" class="edge">
<title>Node4&#45;&gt;Node2</title>
<path fill="none" stroke="#404040" d="M180.52,-452.35C171.33,-432.77 158.74,-405.95 147.83,-382.7"/>
<polygon fill="none" stroke="#404040" points="147.73,-382.48 141.56,-378.75 142.63,-371.62 148.8,-375.35 147.73,-382.48"/>
<text text-anchor="middle" x="197.5" y="-415" font-family="Helvetica,sans-Serif" font-size="10.00"> +tx_param_</text>
</g>
<!-- Node5 -->
<g id="node5" class="node">
<title>Node5</title>
<g id="a_node5"><a xlink:href="classLPT_1_1Antenna.html" target="_top" xlink:title=" ">
<polygon fill="white" stroke="black" points="192.5,-270.5 192.5,-393.5 326.5,-393.5 326.5,-270.5 192.5,-270.5"/>
<text text-anchor="middle" x="259.5" y="-381.5" font-family="Helvetica,sans-Serif" font-size="10.00">LPT::Antenna</text>
<polyline fill="none" stroke="black" points="192.5,-374.5 326.5,-374.5 "/>
<text text-anchor="start" x="200.5" y="-362.5" font-family="Helvetica,sans-Serif" font-size="10.00">+ comms_name_</text>
<text text-anchor="start" x="200.5" y="-351.5" font-family="Helvetica,sans-Serif" font-size="10.00">+ antenna_pattern_</text>
<text text-anchor="start" x="200.5" y="-340.5" font-family="Helvetica,sans-Serif" font-size="10.00">+ antenna_mask_</text>
<polyline fill="none" stroke="black" points="192.5,-333.5 326.5,-333.5 "/>
<text text-anchor="start" x="200.5" y="-321.5" font-family="Helvetica,sans-Serif" font-size="10.00">+ Antenna()</text>
<text text-anchor="start" x="200.5" y="-310.5" font-family="Helvetica,sans-Serif" font-size="10.00">+ Antenna()</text>
<text text-anchor="start" x="200.5" y="-299.5" font-family="Helvetica,sans-Serif" font-size="10.00">+ LoadAntennaPattern()</text>
<text text-anchor="start" x="200.5" y="-288.5" font-family="Helvetica,sans-Serif" font-size="10.00">+ GetAntennaGain()</text>
<text text-anchor="start" x="200.5" y="-277.5" font-family="Helvetica,sans-Serif" font-size="10.00">+ GetAntennaGain()</text>
</a>
</g>
</g>
<!-- Node5&#45;&gt;Node1 -->
<g id="edge4" class="edge">
<title>Node5&#45;&gt;Node1</title>
<path fill="none" stroke="#404040" d="M240.65,-270.43C237.1,-259.02 233.27,-246.72 229.37,-234.19"/>
<polygon fill="none" stroke="#404040" points="229.35,-234.11 223.74,-229.57 225.78,-222.65 231.38,-227.19 229.35,-234.11"/>
<text text-anchor="middle" x="262" y="-244" font-family="Helvetica,sans-Serif" font-size="10.00"> +antenna_</text>
</g>
</g>
</svg>
