<?xml version="1.0" encoding="UTF-8" standalone="no"?>
<!DOCTYPE svg PUBLIC "-//W3C//DTD SVG 1.1//EN"
 "http://www.w3.org/Graphics/SVG/1.1/DTD/svg11.dtd">
<!-- Generated by graphviz version 8.1.0 (20230707.0739)
 -->
<!-- Title: LPT::J2KeplerianDynamics Pages: 1 -->
<svg width="135pt" height="512pt"
 viewBox="0.00 0.00 135.00 512.00" xmlns="http://www.w3.org/2000/svg" xmlns:xlink="http://www.w3.org/1999/xlink">
<g id="graph0" class="graph" transform="scale(1 1) rotate(0) translate(4 508)">
<title>LPT::J2KeplerianDynamics</title>
<!-- Node1 -->
<g id="Node000001" class="node">
<title>Node1</title>
<g id="a_Node000001"><a xlink:title=" ">
<polygon fill="#999999" stroke="none" points="127,-64 0,-64 0,0 127,0 127,-64"/>
<text text-anchor="start" x="4.62" y="-50.5" font-family="Helvetica,sans-Serif" font-size="10.00">LPT::J2KeplerianDynamics</text>
<text text-anchor="start" x="62" y="-35.5" font-family="Helvetica,sans-Serif" font-size="10.00"> </text>
<text text-anchor="start" x="6" y="-20.5" font-family="Helvetica,sans-Serif" font-size="10.00">+</text>
<text text-anchor="start" x="18" y="-20.5" font-family="Helvetica,sans-Serif" font-size="10.00">J2KeplerianDynamics()</text>
<text text-anchor="start" x="6" y="-5.5" font-family="Helvetica,sans-Serif" font-size="10.00">+</text>
<text text-anchor="start" x="18" y="-5.5" font-family="Helvetica,sans-Serif" font-size="10.00">ComputeRates()</text>
<polygon fill="#666666" stroke="#666666" points="0,-47 0,-47 127,-47 127,-47 0,-47"/>
<polygon fill="#666666" stroke="#666666" points="0,-32 0,-32 127,-32 127,-32 0,-32"/>
<polygon fill="none" stroke="#666666" points="0,0 0,-64 127,-64 127,0 0,0"/>
</a>
</g>
</g>
<!-- Node2 -->
<g id="Node000002" class="node">
<title>Node2</title>
<g id="a_Node000002"><a xlink:href="class_l_p_t_1_1_numerical_dynamics.html" target="_top" xlink:title=" ">
<polygon fill="white" stroke="none" points="124,-299 3,-299 3,-100 124,-100 124,-299"/>
<text text-anchor="start" x="8" y="-285.5" font-family="Helvetica,sans-Serif" font-size="10.00">LPT::NumericalDynamics</text>
<text text-anchor="start" x="62" y="-270.5" font-family="Helvetica,sans-Serif" font-size="10.00"> </text>
<text text-anchor="start" x="9" y="-255.5" font-family="Helvetica,sans-Serif" font-size="10.00">+</text>
<text text-anchor="start" x="21" y="-255.5" font-family="Helvetica,sans-Serif" font-size="10.00">NumericalDynamics()</text>
<text text-anchor="start" x="9" y="-240.5" font-family="Helvetica,sans-Serif" font-size="10.00">+</text>
<text text-anchor="start" x="21" y="-240.5" font-family="Helvetica,sans-Serif" font-size="10.00">SetDt()</text>
<text text-anchor="start" x="9" y="-225.5" font-family="Helvetica,sans-Serif" font-size="10.00">+</text>
<text text-anchor="start" x="21" y="-225.5" font-family="Helvetica,sans-Serif" font-size="10.00">Propagate()</text>
<text text-anchor="start" x="9" y="-210.5" font-family="Helvetica,sans-Serif" font-size="10.00">+</text>
<text text-anchor="start" x="21" y="-210.5" font-family="Helvetica,sans-Serif" font-size="10.00">Propagate()</text>
<text text-anchor="start" x="9" y="-195.5" font-family="Helvetica,sans-Serif" font-size="10.00">+</text>
<text text-anchor="start" x="21" y="-195.5" font-family="Helvetica,sans-Serif" font-size="10.00">PropagateWithStm()</text>
<text text-anchor="start" x="9" y="-180.5" font-family="Helvetica,sans-Serif" font-size="10.00">+</text>
<text text-anchor="start" x="21" y="-180.5" font-family="Helvetica,sans-Serif" font-size="10.00">PropagateWithStm()</text>
<text text-anchor="start" x="9" y="-165.5" font-family="Helvetica,sans-Serif" font-size="10.00">+</text>
<text text-anchor="start" x="21" y="-165.5" font-family="Helvetica,sans-Serif" font-size="10.00">Propagate()</text>
<text text-anchor="start" x="9" y="-150.5" font-family="Helvetica,sans-Serif" font-size="10.00">+</text>
<text text-anchor="start" x="21" y="-150.5" font-family="Helvetica,sans-Serif" font-size="10.00">Propagate()</text>
<text text-anchor="start" x="9" y="-135.5" font-family="Helvetica,sans-Serif" font-size="10.00">+</text>
<text text-anchor="start" x="21" y="-135.5" font-family="Helvetica,sans-Serif" font-size="10.00">PropagateWithStm()</text>
<text text-anchor="start" x="9" y="-120.5" font-family="Helvetica,sans-Serif" font-size="10.00">+</text>
<text text-anchor="start" x="21" y="-120.5" font-family="Helvetica,sans-Serif" font-size="10.00">PropagateWithStm()</text>
<text text-anchor="start" x="9.38" y="-105.5" font-family="Helvetica,sans-Serif" font-size="10.00">#</text>
<text text-anchor="start" x="21" y="-105.5" font-family="Helvetica,sans-Serif" font-size="10.00">ComputeRates()</text>
<polygon fill="#bfbfbf" stroke="#bfbfbf" points="3,-282 3,-282 124,-282 124,-282 3,-282"/>
<polygon fill="#bfbfbf" stroke="#bfbfbf" points="3,-267 3,-267 124,-267 124,-267 3,-267"/>
<polygon fill="none" stroke="#bfbfbf" points="3,-100 3,-299 124,-299 124,-100 3,-100"/>
</a>
</g>
</g>
<!-- Node2&#45;&gt;Node1 -->
<g id="edge1_Node000001_Node000002" class="edge">
<title>Node2&#45;&gt;Node1</title>
<g id="a_edge1_Node000001_Node000002"><a xlink:title=" ">
<path fill="none" stroke="#63b8ff" d="M63.5,-89.32C63.5,-80.11 63.5,-71.4 63.5,-63.69"/>
<polygon fill="none" stroke="#63b8ff" points="60,-89.32 63.5,-99.32 67,-89.32 60,-89.32"/>
</a>
</g>
</g>
<!-- Node3 -->
<g id="Node000003" class="node">
<title>Node3</title>
<g id="a_Node000003"><a xlink:href="class_l_p_t_1_1_i_orbit_dynamics.html" target="_top" xlink:title="Interface for Orbit Dynamics (Todo: find a way to inherit this from IDynamics)">
<polygon fill="white" stroke="none" points="116.5,-504 10.5,-504 10.5,-335 116.5,-335 116.5,-504"/>
<text text-anchor="start" x="18.12" y="-490.5" font-family="Helvetica,sans-Serif" font-size="10.00">LPT::IOrbitDynamics</text>
<text text-anchor="start" x="62" y="-475.5" font-family="Helvetica,sans-Serif" font-size="10.00"> </text>
<text text-anchor="start" x="14.5" y="-460.5" font-family="Helvetica,sans-Serif" font-size="10.00">+</text>
<text text-anchor="start" x="24.5" y="-460.5" font-family="Helvetica,sans-Serif" font-size="10.00">~IOrbitDynamics()</text>
<text text-anchor="start" x="14.5" y="-445.5" font-family="Helvetica,sans-Serif" font-size="10.00">+</text>
<text text-anchor="start" x="24.5" y="-445.5" font-family="Helvetica,sans-Serif" font-size="10.00">Propagate()</text>
<text text-anchor="start" x="14.5" y="-430.5" font-family="Helvetica,sans-Serif" font-size="10.00">+</text>
<text text-anchor="start" x="24.5" y="-430.5" font-family="Helvetica,sans-Serif" font-size="10.00">Propagate()</text>
<text text-anchor="start" x="14.5" y="-415.5" font-family="Helvetica,sans-Serif" font-size="10.00">+</text>
<text text-anchor="start" x="24.5" y="-415.5" font-family="Helvetica,sans-Serif" font-size="10.00">PropagateWithStm()</text>
<text text-anchor="start" x="14.5" y="-400.5" font-family="Helvetica,sans-Serif" font-size="10.00">+</text>
<text text-anchor="start" x="24.5" y="-400.5" font-family="Helvetica,sans-Serif" font-size="10.00">PropagateWithStm()</text>
<text text-anchor="start" x="14.5" y="-385.5" font-family="Helvetica,sans-Serif" font-size="10.00">+</text>
<text text-anchor="start" x="24.5" y="-385.5" font-family="Helvetica,sans-Serif" font-size="10.00">Propagate()</text>
<text text-anchor="start" x="14.5" y="-370.5" font-family="Helvetica,sans-Serif" font-size="10.00">+</text>
<text text-anchor="start" x="24.5" y="-370.5" font-family="Helvetica,sans-Serif" font-size="10.00">Propagate()</text>
<text text-anchor="start" x="14.5" y="-355.5" font-family="Helvetica,sans-Serif" font-size="10.00">+</text>
<text text-anchor="start" x="24.5" y="-355.5" font-family="Helvetica,sans-Serif" font-size="10.00">PropagateWithStm()</text>
<text text-anchor="start" x="14.5" y="-340.5" font-family="Helvetica,sans-Serif" font-size="10.00">+</text>
<text text-anchor="start" x="24.5" y="-340.5" font-family="Helvetica,sans-Serif" font-size="10.00">PropagateWithStm()</text>
<polygon fill="#666666" stroke="#666666" points="10.5,-487 10.5,-487 116.5,-487 116.5,-487 10.5,-487"/>
<polygon fill="#666666" stroke="#666666" points="10.5,-472 10.5,-472 116.5,-472 116.5,-472 10.5,-472"/>
<polygon fill="none" stroke="#666666" points="10.5,-335 10.5,-504 116.5,-504 116.5,-335 10.5,-335"/>
</a>
</g>
</g>
<!-- Node3&#45;&gt;Node2 -->
<g id="edge2_Node000002_Node000003" class="edge">
<title>Node3&#45;&gt;Node2</title>
<g id="a_edge2_Node000002_Node000003"><a xlink:title=" ">
<path fill="none" stroke="#63b8ff" d="M63.5,-324.17C63.5,-315.75 63.5,-307.22 63.5,-298.77"/>
<polygon fill="none" stroke="#63b8ff" points="60,-324.15 63.5,-334.15 67,-324.15 60,-324.15"/>
</a>
</g>
</g>
</g>
</svg>
