<?xml version="1.0" encoding="UTF-8" standalone="no"?>
<!DOCTYPE svg PUBLIC "-//W3C//DTD SVG 1.1//EN"
 "http://www.w3.org/Graphics/SVG/1.1/DTD/svg11.dtd">
<!-- Generated by graphviz version 2.43.0 (0)
 -->
<!-- Title: LPT::RoeGeometricMappingDynamics Pages: 1 -->
<svg width="204pt" height="248pt"
 viewBox="0.00 0.00 204.00 248.00" xmlns="http://www.w3.org/2000/svg" xmlns:xlink="http://www.w3.org/1999/xlink">
<g id="graph0" class="graph" transform="scale(1 1) rotate(0) translate(4 244)">
<title>LPT::RoeGeometricMappingDynamics</title>
<polygon fill="white" stroke="transparent" points="-4,4 -4,-244 200,-244 200,4 -4,4"/>
<!-- Node1 -->
<g id="node1" class="node">
<title>Node1</title>
<g id="a_node1"><a xlink:title=" ">
<polygon fill="#bfbfbf" stroke="black" points="0,-0.5 0,-101.5 196,-101.5 196,-0.5 0,-0.5"/>
<text text-anchor="start" x="8" y="-89.5" font-family="Helvetica,sans-Serif" font-size="10.00">LPT::RoeGeometricMapping</text>
<text text-anchor="middle" x="98" y="-78.5" font-family="Helvetica,sans-Serif" font-size="10.00">Dynamics</text>
<polyline fill="none" stroke="black" points="0,-71.5 196,-71.5 "/>
<text text-anchor="middle" x="98" y="-59.5" font-family="Helvetica,sans-Serif" font-size="10.00"> </text>
<polyline fill="none" stroke="black" points="0,-52.5 196,-52.5 "/>
<text text-anchor="start" x="8" y="-40.5" font-family="Helvetica,sans-Serif" font-size="10.00">+ RoeGeometricMappingDynamics()</text>
<text text-anchor="start" x="8" y="-29.5" font-family="Helvetica,sans-Serif" font-size="10.00">+ Propagate()</text>
<text text-anchor="start" x="8" y="-18.5" font-family="Helvetica,sans-Serif" font-size="10.00">+ Initialize()</text>
<text text-anchor="start" x="8" y="-7.5" font-family="Helvetica,sans-Serif" font-size="10.00">+ ComputeMatrix()</text>
</a>
</g>
</g>
<!-- Node2 -->
<g id="node2" class="node">
<title>Node2</title>
<g id="a_node2"><a xlink:href="classLPT_1_1IAnalyticalDynamics.html" target="_top" xlink:title=" ">
<polygon fill="white" stroke="black" points="26,-138.5 26,-239.5 170,-239.5 170,-138.5 26,-138.5"/>
<text text-anchor="middle" x="98" y="-227.5" font-family="Helvetica,sans-Serif" font-size="10.00">LPT::IAnalyticalDynamics</text>
<polyline fill="none" stroke="black" points="26,-220.5 170,-220.5 "/>
<text text-anchor="middle" x="98" y="-208.5" font-family="Helvetica,sans-Serif" font-size="10.00"> </text>
<polyline fill="none" stroke="black" points="26,-201.5 170,-201.5 "/>
<text text-anchor="start" x="34" y="-189.5" font-family="Helvetica,sans-Serif" font-size="10.00">+ ~IAnalyticalDynamics()</text>
<text text-anchor="start" x="34" y="-178.5" font-family="Helvetica,sans-Serif" font-size="10.00">+ Propagate()</text>
<text text-anchor="start" x="34" y="-167.5" font-family="Helvetica,sans-Serif" font-size="10.00">+ Propagate()</text>
<text text-anchor="start" x="34" y="-156.5" font-family="Helvetica,sans-Serif" font-size="10.00">+ PropagateWithSTM()</text>
<text text-anchor="start" x="34" y="-145.5" font-family="Helvetica,sans-Serif" font-size="10.00">+ PropagateWithSTM()</text>
</a>
</g>
</g>
<!-- Node2&#45;&gt;Node1 -->
<g id="edge1" class="edge">
<title>Node2&#45;&gt;Node1</title>
<path fill="none" stroke="midnightblue" d="M98,-128C98,-119.27 98,-110.36 98,-101.86"/>
<polygon fill="none" stroke="midnightblue" points="94.5,-128.13 98,-138.13 101.5,-128.13 94.5,-128.13"/>
</g>
</g>
</svg>
