<?xml version="1.0" encoding="UTF-8" standalone="no"?>
<!DOCTYPE svg PUBLIC "-//W3C//DTD SVG 1.1//EN"
 "http://www.w3.org/Graphics/SVG/1.1/DTD/svg11.dtd">
<!-- Generated by graphviz version 2.43.0 (0)
 -->
<!-- Title: LPT::OrbitState Pages: 1 -->
<svg width="144pt" height="336pt"
 viewBox="0.00 0.00 144.00 336.00" xmlns="http://www.w3.org/2000/svg" xmlns:xlink="http://www.w3.org/1999/xlink">
<g id="graph0" class="graph" transform="scale(1 1) rotate(0) translate(4 332)">
<title>LPT::OrbitState</title>
<polygon fill="white" stroke="transparent" points="-4,4 -4,-332 140,-332 140,4 -4,4"/>
<!-- Node1 -->
<g id="node1" class="node">
<title>Node1</title>
<g id="a_node1"><a xlink:title=" ">
<polygon fill="#bfbfbf" stroke="black" points="0,-0.5 0,-211.5 136,-211.5 136,-0.5 0,-0.5"/>
<text text-anchor="middle" x="68" y="-199.5" font-family="Helvetica,sans-Serif" font-size="10.00">LPT::OrbitState</text>
<polyline fill="none" stroke="black" points="0,-192.5 136,-192.5 "/>
<text text-anchor="start" x="8" y="-180.5" font-family="Helvetica,sans-Serif" font-size="10.00">+ state_size</text>
<polyline fill="none" stroke="black" points="0,-173.5 136,-173.5 "/>
<text text-anchor="start" x="8" y="-161.5" font-family="Helvetica,sans-Serif" font-size="10.00">+ OrbitState()</text>
<text text-anchor="start" x="8" y="-150.5" font-family="Helvetica,sans-Serif" font-size="10.00">+ OrbitState()</text>
<text text-anchor="start" x="8" y="-139.5" font-family="Helvetica,sans-Serif" font-size="10.00">+ ~OrbitState()</text>
<text text-anchor="start" x="8" y="-128.5" font-family="Helvetica,sans-Serif" font-size="10.00">+ GetVector()</text>
<text text-anchor="start" x="8" y="-117.5" font-family="Helvetica,sans-Serif" font-size="10.00">+ GetStateSize()</text>
<text text-anchor="start" x="8" y="-106.5" font-family="Helvetica,sans-Serif" font-size="10.00">+ GetValue()</text>
<text text-anchor="start" x="8" y="-95.5" font-family="Helvetica,sans-Serif" font-size="10.00">+ GetOrbitStateRepres()</text>
<text text-anchor="start" x="8" y="-84.5" font-family="Helvetica,sans-Serif" font-size="10.00">+ GetCoordSystem()</text>
<text text-anchor="start" x="8" y="-73.5" font-family="Helvetica,sans-Serif" font-size="10.00">+ SetValue()</text>
<text text-anchor="start" x="8" y="-62.5" font-family="Helvetica,sans-Serif" font-size="10.00">+ SetVector()</text>
<text text-anchor="start" x="8" y="-51.5" font-family="Helvetica,sans-Serif" font-size="10.00">+ SetOrbitStateRepres()</text>
<text text-anchor="start" x="8" y="-40.5" font-family="Helvetica,sans-Serif" font-size="10.00">+ SetCoordSystem()</text>
<text text-anchor="start" x="8" y="-29.5" font-family="Helvetica,sans-Serif" font-size="10.00">+ operator()()</text>
<text text-anchor="start" x="8" y="-18.5" font-family="Helvetica,sans-Serif" font-size="10.00">+ Print()</text>
<text text-anchor="start" x="8" y="-7.5" font-family="Helvetica,sans-Serif" font-size="10.00">+ Clone()</text>
</a>
</g>
</g>
<!-- Node2 -->
<g id="node2" class="node">
<title>Node2</title>
<g id="a_node2"><a xlink:href="classLPT_1_1IState.html" target="_top" xlink:title="Interface for States.">
<polygon fill="white" stroke="black" points="19,-248.5 19,-327.5 117,-327.5 117,-248.5 19,-248.5"/>
<text text-anchor="middle" x="68" y="-315.5" font-family="Helvetica,sans-Serif" font-size="10.00">LPT::IState</text>
<polyline fill="none" stroke="black" points="19,-308.5 117,-308.5 "/>
<text text-anchor="middle" x="68" y="-296.5" font-family="Helvetica,sans-Serif" font-size="10.00"> </text>
<polyline fill="none" stroke="black" points="19,-289.5 117,-289.5 "/>
<text text-anchor="start" x="27" y="-277.5" font-family="Helvetica,sans-Serif" font-size="10.00">+ ~IState()</text>
<text text-anchor="start" x="27" y="-266.5" font-family="Helvetica,sans-Serif" font-size="10.00">+ GetStateSize()</text>
<text text-anchor="start" x="27" y="-255.5" font-family="Helvetica,sans-Serif" font-size="10.00">+ GetValue()</text>
</a>
</g>
</g>
<!-- Node2&#45;&gt;Node1 -->
<g id="edge1" class="edge">
<title>Node2&#45;&gt;Node1</title>
<path fill="none" stroke="midnightblue" d="M68,-238.16C68,-229.81 68,-220.86 68,-211.69"/>
<polygon fill="none" stroke="midnightblue" points="64.5,-238.39 68,-248.39 71.5,-238.39 64.5,-238.39"/>
</g>
</g>
</svg>
