<?xml version="1.0" encoding="UTF-8" standalone="no"?>
<!DOCTYPE svg PUBLIC "-//W3C//DTD SVG 1.1//EN"
 "http://www.w3.org/Graphics/SVG/1.1/DTD/svg11.dtd">
<!-- Generated by graphviz version 2.43.0 (0)
 -->
<!-- Title: LPT::GNSSChannel::Receive Pages: 1 -->
<svg width="351pt" height="46pt"
 viewBox="0.00 0.00 351.00 46.00" xmlns="http://www.w3.org/2000/svg" xmlns:xlink="http://www.w3.org/1999/xlink">
<g id="graph0" class="graph" transform="scale(1 1) rotate(0) translate(4 42)">
<title>LPT::GNSSChannel::Receive</title>
<polygon fill="white" stroke="transparent" points="-4,4 -4,-42 347,-42 347,4 -4,4"/>
<!-- Node1 -->
<g id="node1" class="node">
<title>Node1</title>
<g id="a_node1"><a xlink:title="Receiver receives all available GNSS signals.">
<polygon fill="#bfbfbf" stroke="black" points="0,-0.5 0,-19.5 151,-19.5 151,-0.5 0,-0.5"/>
<text text-anchor="middle" x="75.5" y="-7.5" font-family="Helvetica,sans-Serif" font-size="10.00">LPT::GNSSChannel::Receive</text>
</a>
</g>
</g>
<!-- Node2 -->
<g id="node2" class="node">
<title>Node2</title>
<g id="a_node2"><a xlink:href="MathUtils_8cpp.html#a645eea2914e4bd646eedb64deb148aa6" target="_top" xlink:title="Calculate the 2&#45;norm of ad::vector.">
<polygon fill="white" stroke="black" points="187,-0.5 187,-19.5 252,-19.5 252,-0.5 187,-0.5"/>
<text text-anchor="middle" x="219.5" y="-7.5" font-family="Helvetica,sans-Serif" font-size="10.00">LPT::norm</text>
</a>
</g>
</g>
<!-- Node1&#45;&gt;Node2 -->
<g id="edge1" class="edge">
<title>Node1&#45;&gt;Node2</title>
<path fill="none" stroke="midnightblue" d="M151.24,-10C159.98,-10 168.63,-10 176.69,-10"/>
<polygon fill="midnightblue" stroke="midnightblue" points="176.88,-13.5 186.88,-10 176.88,-6.5 176.88,-13.5"/>
</g>
<!-- Node2&#45;&gt;Node2 -->
<g id="edge4" class="edge">
<title>Node2&#45;&gt;Node2</title>
<path fill="none" stroke="midnightblue" d="M204.7,-19.76C197.51,-28.57 202.44,-38 219.5,-38 230.16,-38 236.09,-34.31 237.28,-29.4"/>
<polygon fill="midnightblue" stroke="midnightblue" points="240.59,-28.28 234.3,-19.76 233.91,-30.34 240.59,-28.28"/>
</g>
<!-- Node3 -->
<g id="node3" class="node">
<title>Node3</title>
<g id="a_node3"><a xlink:href="MathUtils_8cpp.html#ae2a720fd8e16772da7b293bb5e1be510" target="_top" xlink:title="Calculate the dot product of two ad vectors.">
<polygon fill="white" stroke="black" points="288,-0.5 288,-19.5 343,-19.5 343,-0.5 288,-0.5"/>
<text text-anchor="middle" x="315.5" y="-7.5" font-family="Helvetica,sans-Serif" font-size="10.00">LPT::dot</text>
</a>
</g>
</g>
<!-- Node2&#45;&gt;Node3 -->
<g id="edge2" class="edge">
<title>Node2&#45;&gt;Node3</title>
<path fill="none" stroke="midnightblue" d="M252.06,-10C260.33,-10 269.31,-10 277.82,-10"/>
<polygon fill="midnightblue" stroke="midnightblue" points="277.88,-13.5 287.88,-10 277.88,-6.5 277.88,-13.5"/>
</g>
<!-- Node3&#45;&gt;Node3 -->
<g id="edge3" class="edge">
<title>Node3&#45;&gt;Node3</title>
<path fill="none" stroke="midnightblue" d="M300.7,-19.76C293.51,-28.57 298.44,-38 315.5,-38 326.16,-38 332.09,-34.31 333.28,-29.4"/>
<polygon fill="midnightblue" stroke="midnightblue" points="336.59,-28.28 330.3,-19.76 329.91,-30.34 336.59,-28.28"/>
</g>
</g>
</svg>
