<?xml version="1.0" encoding="UTF-8" standalone="no"?>
<!DOCTYPE svg PUBLIC "-//W3C//DTD SVG 1.1//EN"
 "http://www.w3.org/Graphics/SVG/1.1/DTD/svg11.dtd">
<!-- Generated by graphviz version 8.1.0 (20230707.0739)
 -->
<!-- Title: LPT::Transmitter Pages: 1 -->
<svg width="232pt" height="213pt"
 viewBox="0.00 0.00 231.50 213.25" xmlns="http://www.w3.org/2000/svg" xmlns:xlink="http://www.w3.org/1999/xlink">

<svg id="main" version="1.1" xmlns="http://www.w3.org/2000/svg" xmlns:xlink="http://www.w3.org/1999/xlink" xml:space="preserve" onload="init(evt)">
<style type="text/css"><![CDATA[
.node, .edge {opacity: 0.7;}
.node.selected, .edge.selected {opacity: 1;}
.edge:hover path { stroke: red; }
.edge:hover polygon { stroke: red; fill: red; }
]]></style>
<script type="application/ecmascript" xlink:href="svg.min.js"/>
<svg id="graph" class="graph">
<g id="graph0" class="graph" transform="scale(1 1) rotate(0) translate(4 209.25)">
<title>LPT::Transmitter</title>
<!-- Node1 -->
<g id="Node000001" class="node">
<title>Node1</title>
<g id="a_Node000001"><a xlink:title=" ">
<polygon fill="#999999" stroke="none" points="148.5,-79 66.5,-79 66.5,0 148.5,0 148.5,-79"/>
<text text-anchor="start" x="71.5" y="-65.5" font-family="Helvetica,sans-Serif" font-size="10.00">LPT::Transmitter</text>
<text text-anchor="start" x="71" y="-50.5" font-family="Helvetica,sans-Serif" font-size="10.00">+</text>
<text text-anchor="start" x="81.5" y="-50.5" font-family="Helvetica,sans-Serif" font-size="10.00">txrx</text>
<text text-anchor="start" x="71" y="-35.5" font-family="Helvetica,sans-Serif" font-size="10.00">+</text>
<text text-anchor="start" x="81.5" y="-35.5" font-family="Helvetica,sans-Serif" font-size="10.00">~Transmitter()</text>
<text text-anchor="start" x="71" y="-20.5" font-family="Helvetica,sans-Serif" font-size="10.00">+</text>
<text text-anchor="start" x="81.5" y="-20.5" font-family="Helvetica,sans-Serif" font-size="10.00">GetAgent()</text>
<text text-anchor="start" x="71" y="-5.5" font-family="Helvetica,sans-Serif" font-size="10.00">+</text>
<text text-anchor="start" x="81.5" y="-5.5" font-family="Helvetica,sans-Serif" font-size="10.00">SetAgent()</text>
<polygon fill="#666666" stroke="#666666" points="66.5,-62 66.5,-62 148.5,-62 148.5,-62 66.5,-62"/>
<polygon fill="#666666" stroke="#666666" points="66.5,-47 66.5,-47 79.5,-47 79.5,-47 66.5,-47"/>
<polygon fill="#666666" stroke="#666666" points="79.5,-47 79.5,-47 148.5,-47 148.5,-47 79.5,-47"/>
<polygon fill="none" stroke="#666666" points="66.5,0 66.5,-79 148.5,-79 148.5,0 66.5,0"/>
</a>
</g>
</g>
<!-- Node2 -->
<g id="Node000002" class="node">
<title>Node2</title>
<g id="a_Node000002"><a xlink:href="class_l_p_t_1_1_i_comm_device.html" target="_top" xlink:title=" ">
<polygon fill="white" stroke="none" points="95,-205.25 0,-205.25 0,-126.25 95,-126.25 95,-205.25"/>
<text text-anchor="start" x="4.75" y="-191.75" font-family="Helvetica,sans-Serif" font-size="10.00">LPT::ICommDevice</text>
<text text-anchor="start" x="4.5" y="-176.75" font-family="Helvetica,sans-Serif" font-size="10.00">+</text>
<text text-anchor="start" x="15" y="-176.75" font-family="Helvetica,sans-Serif" font-size="10.00">txrx</text>
<text text-anchor="start" x="4.5" y="-161.75" font-family="Helvetica,sans-Serif" font-size="10.00">+</text>
<text text-anchor="start" x="15" y="-161.75" font-family="Helvetica,sans-Serif" font-size="10.00">~ICommDevice()</text>
<text text-anchor="start" x="4.5" y="-146.75" font-family="Helvetica,sans-Serif" font-size="10.00">+</text>
<text text-anchor="start" x="15" y="-146.75" font-family="Helvetica,sans-Serif" font-size="10.00">GetAgent()</text>
<text text-anchor="start" x="4.5" y="-131.75" font-family="Helvetica,sans-Serif" font-size="10.00">+</text>
<text text-anchor="start" x="15" y="-131.75" font-family="Helvetica,sans-Serif" font-size="10.00">SetAgent()</text>
<polygon fill="#bfbfbf" stroke="#bfbfbf" points="0,-188.25 0,-188.25 95,-188.25 95,-188.25 0,-188.25"/>
<polygon fill="#bfbfbf" stroke="#bfbfbf" points="0,-173.25 0,-173.25 13,-173.25 13,-173.25 0,-173.25"/>
<polygon fill="#bfbfbf" stroke="#bfbfbf" points="13,-173.25 13,-173.25 95,-173.25 95,-173.25 13,-173.25"/>
<polygon fill="none" stroke="#bfbfbf" points="0,-126.25 0,-205.25 95,-205.25 95,-126.25 0,-126.25"/>
</a>
</g>
</g>
<!-- Node2&#45;&gt;Node1 -->
<g id="edge1_Node000001_Node000002" class="edge">
<title>Node2&#45;&gt;Node1</title>
<g id="a_edge1_Node000001_Node000002"><a xlink:title=" ">
<path fill="none" stroke="#63b8ff" d="M70.73,-116.64C76.78,-104.13 83.2,-90.81 88.97,-78.88"/>
<polygon fill="none" stroke="#63b8ff" points="67.19,-114.93 65.99,-125.46 73.49,-117.97 67.19,-114.93"/>
</a>
</g>
</g>
<!-- Node3 -->
<g id="Node000003" class="node">
<title>Node3</title>
<g id="a_Node000003"><a xlink:href="struct_l_p_t_1_1_transmitter_param.html" target="_top" xlink:title=" ">
<polygon fill="white" stroke="none" points="223.5,-190.25 113.5,-190.25 113.5,-141.25 223.5,-141.25 223.5,-190.25"/>
<text text-anchor="start" x="118.25" y="-176.75" font-family="Helvetica,sans-Serif" font-size="10.00">LPT::TransmitterParam</text>
<text text-anchor="start" x="135.5" y="-161.75" font-family="Helvetica,sans-Serif" font-size="10.00">+</text>
<text text-anchor="start" x="163.5" y="-161.75" font-family="Helvetica,sans-Serif" font-size="10.00">P_tx</text>
<text text-anchor="start" x="167" y="-146.75" font-family="Helvetica,sans-Serif" font-size="10.00"> </text>
<polygon fill="#bfbfbf" stroke="#bfbfbf" points="113.5,-173.25 113.5,-173.25 223.5,-173.25 223.5,-173.25 113.5,-173.25"/>
<polygon fill="#bfbfbf" stroke="#bfbfbf" points="113.5,-158.25 113.5,-158.25 161.5,-158.25 161.5,-158.25 113.5,-158.25"/>
<polygon fill="#bfbfbf" stroke="#bfbfbf" points="161.5,-158.25 161.5,-158.25 223.5,-158.25 223.5,-158.25 161.5,-158.25"/>
<polygon fill="none" stroke="#bfbfbf" points="113.5,-141.25 113.5,-190.25 223.5,-190.25 223.5,-141.25 113.5,-141.25"/>
</a>
</g>
</g>
<!-- Node3&#45;&gt;Node1 -->
<g id="edge2_Node000001_Node000003" class="edge">
<title>Node3&#45;&gt;Node1</title>
<g id="a_edge2_Node000001_Node000003"><a xlink:title=" ">
<path fill="none" stroke="#63b8ff" d="M157.03,-141.38C149.98,-127.03 140.68,-108.09 132.05,-90.5"/>
<polygon fill="none" stroke="#63b8ff" points="132.04,-90.49 125.81,-86.86 126.75,-79.72 132.99,-83.34 132.04,-90.49"/>
</a>
</g>
<text text-anchor="middle" x="166.88" y="-98.75" font-family="Helvetica,sans-Serif" font-size="10.00" fill="grey"> +tx_param_</text>
</g>
</g>
</svg>
</svg>

<style type='text/css'>
<![CDATA[
[data-mouse-over-selected='false'] { opacity: 0.7; }
[data-mouse-over-selected='true']  { opacity: 1.0; }
]]>
</style>
<script type="application/ecmascript"><![CDATA[
document.addEventListener('DOMContentLoaded', (event) => {
  highlightEdges();
  highlightAdjacentNodes();
});
]]></script>
</svg>
