<?xml version="1.0" encoding="UTF-8" standalone="no"?>
<!DOCTYPE svg PUBLIC "-//W3C//DTD SVG 1.1//EN"
 "http://www.w3.org/Graphics/SVG/1.1/DTD/svg11.dtd">
<!-- Generated by graphviz version 8.1.0 (20230707.0739)
 -->
<!-- Title: LPT::Tranceiver Pages: 1 -->
<svg width="350pt" height="258pt"
 viewBox="0.00 0.00 349.50 258.25" xmlns="http://www.w3.org/2000/svg" xmlns:xlink="http://www.w3.org/1999/xlink">
<g id="graph0" class="graph" transform="scale(1 1) rotate(0) translate(4 254.25)">
<title>LPT::Tranceiver</title>
<!-- Node1 -->
<g id="Node000001" class="node">
<title>Node1</title>
<g id="a_Node000001"><a xlink:title=" ">
<polygon fill="#999999" stroke="none" points="207.5,-79 129.5,-79 129.5,0 207.5,0 207.5,-79"/>
<text text-anchor="start" x="134.38" y="-65.5" font-family="Helvetica,sans-Serif" font-size="10.00">LPT::Tranceiver</text>
<text text-anchor="start" x="134" y="-50.5" font-family="Helvetica,sans-Serif" font-size="10.00">+</text>
<text text-anchor="start" x="144.5" y="-50.5" font-family="Helvetica,sans-Serif" font-size="10.00">txrx</text>
<text text-anchor="start" x="134" y="-35.5" font-family="Helvetica,sans-Serif" font-size="10.00">+</text>
<text text-anchor="start" x="144.5" y="-35.5" font-family="Helvetica,sans-Serif" font-size="10.00">~Tranceiver()</text>
<text text-anchor="start" x="134" y="-20.5" font-family="Helvetica,sans-Serif" font-size="10.00">+</text>
<text text-anchor="start" x="144.5" y="-20.5" font-family="Helvetica,sans-Serif" font-size="10.00">GetAgent()</text>
<text text-anchor="start" x="134" y="-5.5" font-family="Helvetica,sans-Serif" font-size="10.00">+</text>
<text text-anchor="start" x="144.5" y="-5.5" font-family="Helvetica,sans-Serif" font-size="10.00">SetAgent()</text>
<polygon fill="#666666" stroke="#666666" points="129.5,-62 129.5,-62 207.5,-62 207.5,-62 129.5,-62"/>
<polygon fill="#666666" stroke="#666666" points="129.5,-47 129.5,-47 142.5,-47 142.5,-47 129.5,-47"/>
<polygon fill="#666666" stroke="#666666" points="142.5,-47 142.5,-47 207.5,-47 207.5,-47 142.5,-47"/>
<polygon fill="none" stroke="#666666" points="129.5,0 129.5,-79 207.5,-79 207.5,0 129.5,0"/>
</a>
</g>
</g>
<!-- Node2 -->
<g id="Node000002" class="node">
<title>Node2</title>
<g id="a_Node000002"><a xlink:href="class_l_p_t_1_1_i_comm_device.html" target="_top" xlink:title=" ">
<polygon fill="white" stroke="none" points="95,-227.75 0,-227.75 0,-148.75 95,-148.75 95,-227.75"/>
<text text-anchor="start" x="4.75" y="-214.25" font-family="Helvetica,sans-Serif" font-size="10.00">LPT::ICommDevice</text>
<text text-anchor="start" x="4.5" y="-199.25" font-family="Helvetica,sans-Serif" font-size="10.00">+</text>
<text text-anchor="start" x="15" y="-199.25" font-family="Helvetica,sans-Serif" font-size="10.00">txrx</text>
<text text-anchor="start" x="4.5" y="-184.25" font-family="Helvetica,sans-Serif" font-size="10.00">+</text>
<text text-anchor="start" x="15" y="-184.25" font-family="Helvetica,sans-Serif" font-size="10.00">~ICommDevice()</text>
<text text-anchor="start" x="4.5" y="-169.25" font-family="Helvetica,sans-Serif" font-size="10.00">+</text>
<text text-anchor="start" x="15" y="-169.25" font-family="Helvetica,sans-Serif" font-size="10.00">GetAgent()</text>
<text text-anchor="start" x="4.5" y="-154.25" font-family="Helvetica,sans-Serif" font-size="10.00">+</text>
<text text-anchor="start" x="15" y="-154.25" font-family="Helvetica,sans-Serif" font-size="10.00">SetAgent()</text>
<polygon fill="#bfbfbf" stroke="#bfbfbf" points="0,-210.75 0,-210.75 95,-210.75 95,-210.75 0,-210.75"/>
<polygon fill="#bfbfbf" stroke="#bfbfbf" points="0,-195.75 0,-195.75 13,-195.75 13,-195.75 0,-195.75"/>
<polygon fill="#bfbfbf" stroke="#bfbfbf" points="13,-195.75 13,-195.75 95,-195.75 95,-195.75 13,-195.75"/>
<polygon fill="none" stroke="#bfbfbf" points="0,-148.75 0,-227.75 95,-227.75 95,-148.75 0,-148.75"/>
</a>
</g>
</g>
<!-- Node2&#45;&gt;Node1 -->
<g id="edge1_Node000001_Node000002" class="edge">
<title>Node2&#45;&gt;Node1</title>
<g id="a_edge1_Node000001_Node000002"><a xlink:title=" ">
<path fill="none" stroke="#63b8ff" d="M85.83,-140.76C102.24,-120.87 121.16,-97.91 136.76,-78.99"/>
<polygon fill="none" stroke="#63b8ff" points="82.64,-138.13 78.98,-148.08 88.04,-142.59 82.64,-138.13"/>
</a>
</g>
</g>
<!-- Node3 -->
<g id="Node000003" class="node">
<title>Node3</title>
<g id="a_Node000003"><a xlink:href="struct_l_p_t_1_1_transmitter_param.html" target="_top" xlink:title=" ">
<polygon fill="white" stroke="none" points="223.5,-212.75 113.5,-212.75 113.5,-163.75 223.5,-163.75 223.5,-212.75"/>
<text text-anchor="start" x="118.25" y="-199.25" font-family="Helvetica,sans-Serif" font-size="10.00">LPT::TransmitterParam</text>
<text text-anchor="start" x="135.5" y="-184.25" font-family="Helvetica,sans-Serif" font-size="10.00">+</text>
<text text-anchor="start" x="163.5" y="-184.25" font-family="Helvetica,sans-Serif" font-size="10.00">P_tx</text>
<text text-anchor="start" x="167" y="-169.25" font-family="Helvetica,sans-Serif" font-size="10.00"> </text>
<polygon fill="#bfbfbf" stroke="#bfbfbf" points="113.5,-195.75 113.5,-195.75 223.5,-195.75 223.5,-195.75 113.5,-195.75"/>
<polygon fill="#bfbfbf" stroke="#bfbfbf" points="113.5,-180.75 113.5,-180.75 161.5,-180.75 161.5,-180.75 113.5,-180.75"/>
<polygon fill="#bfbfbf" stroke="#bfbfbf" points="161.5,-180.75 161.5,-180.75 223.5,-180.75 223.5,-180.75 161.5,-180.75"/>
<polygon fill="none" stroke="#bfbfbf" points="113.5,-163.75 113.5,-212.75 223.5,-212.75 223.5,-163.75 113.5,-163.75"/>
</a>
</g>
</g>
<!-- Node3&#45;&gt;Node1 -->
<g id="edge2_Node000001_Node000003" class="edge">
<title>Node3&#45;&gt;Node1</title>
<g id="a_edge2_Node000001_Node000003"><a xlink:title=" ">
<path fill="none" stroke="#63b8ff" d="M168.5,-164C168.5,-144.61 168.5,-116.28 168.5,-91.64"/>
<polygon fill="none" stroke="#63b8ff" points="168.5,-91.69 164.5,-85.69 168.5,-79.69 172.5,-85.69 168.5,-91.69"/>
</a>
</g>
<text text-anchor="middle" x="195.88" y="-98.75" font-family="Helvetica,sans-Serif" font-size="10.00" fill="grey"> +tx_param_</text>
</g>
<!-- Node4 -->
<g id="Node000004" class="node">
<title>Node4</title>
<g id="a_Node000004"><a xlink:href="struct_l_p_t_1_1_receiver_param.html" target="_top" xlink:title=" ">
<polygon fill="white" stroke="none" points="341.5,-250.25 241.5,-250.25 241.5,-126.25 341.5,-126.25 341.5,-250.25"/>
<text text-anchor="start" x="246.5" y="-236.75" font-family="Helvetica,sans-Serif" font-size="10.00">LPT::ReceiverParam</text>
<text text-anchor="start" x="251" y="-221.75" font-family="Helvetica,sans-Serif" font-size="10.00">+</text>
<text text-anchor="start" x="266.5" y="-221.75" font-family="Helvetica,sans-Serif" font-size="10.00">Ts</text>
<text text-anchor="start" x="251" y="-206.75" font-family="Helvetica,sans-Serif" font-size="10.00">+</text>
<text text-anchor="start" x="266.5" y="-206.75" font-family="Helvetica,sans-Serif" font-size="10.00">Ae</text>
<text text-anchor="start" x="251" y="-191.75" font-family="Helvetica,sans-Serif" font-size="10.00">+</text>
<text text-anchor="start" x="266.5" y="-191.75" font-family="Helvetica,sans-Serif" font-size="10.00">Nf</text>
<text text-anchor="start" x="251" y="-176.75" font-family="Helvetica,sans-Serif" font-size="10.00">+</text>
<text text-anchor="start" x="266.5" y="-176.75" font-family="Helvetica,sans-Serif" font-size="10.00">L</text>
<text text-anchor="start" x="251" y="-161.75" font-family="Helvetica,sans-Serif" font-size="10.00">+</text>
<text text-anchor="start" x="266.5" y="-161.75" font-family="Helvetica,sans-Serif" font-size="10.00">As</text>
<text text-anchor="start" x="251" y="-146.75" font-family="Helvetica,sans-Serif" font-size="10.00">+</text>
<text text-anchor="start" x="266.5" y="-146.75" font-family="Helvetica,sans-Serif" font-size="10.00">CN0threshold</text>
<text text-anchor="start" x="290" y="-131.75" font-family="Helvetica,sans-Serif" font-size="10.00"> </text>
<polygon fill="#bfbfbf" stroke="#bfbfbf" points="241.5,-233.25 241.5,-233.25 341.5,-233.25 341.5,-233.25 241.5,-233.25"/>
<polygon fill="#bfbfbf" stroke="#bfbfbf" points="241.5,-143.25 241.5,-143.25 264.5,-143.25 264.5,-143.25 241.5,-143.25"/>
<polygon fill="#bfbfbf" stroke="#bfbfbf" points="264.5,-143.25 264.5,-143.25 341.5,-143.25 341.5,-143.25 264.5,-143.25"/>
<polygon fill="none" stroke="#bfbfbf" points="241.5,-126.25 241.5,-250.25 341.5,-250.25 341.5,-126.25 241.5,-126.25"/>
</a>
</g>
</g>
<!-- Node4&#45;&gt;Node1 -->
<g id="edge3_Node000001_Node000004" class="edge">
<title>Node4&#45;&gt;Node1</title>
<g id="a_edge3_Node000001_Node000004"><a xlink:title=" ">
<path fill="none" stroke="#63b8ff" d="M250.7,-126.33C243.3,-116.28 235.41,-106.16 227.5,-97 224.01,-92.95 220.27,-88.87 216.42,-84.86"/>
<polygon fill="none" stroke="#63b8ff" points="216.4,-84.84 209.34,-83.37 207.97,-76.29 215.03,-77.76 216.4,-84.84"/>
</a>
</g>
<text text-anchor="middle" x="261.88" y="-98.75" font-family="Helvetica,sans-Serif" font-size="10.00" fill="grey"> +rx_param_</text>
</g>
</g>
</svg>
