<?xml version="1.0" encoding="UTF-8" standalone="no"?>
<!DOCTYPE svg PUBLIC "-//W3C//DTD SVG 1.1//EN"
 "http://www.w3.org/Graphics/SVG/1.1/DTD/svg11.dtd">
<!-- Generated by graphviz version 8.1.0 (20230707.0739)
 -->
<!-- Title: LPT::Application Pages: 1 -->
<svg width="294pt" height="292pt"
 viewBox="0.00 0.00 294.00 292.00" xmlns="http://www.w3.org/2000/svg" xmlns:xlink="http://www.w3.org/1999/xlink">
<g id="graph0" class="graph" transform="scale(1 1) rotate(0) translate(4 288)">
<title>LPT::Application</title>
<!-- Node1 -->
<g id="Node000001" class="node">
<title>Node1</title>
<g id="a_Node000001"><a xlink:title=" ">
<polygon fill="#999999" stroke="none" points="192.5,-284 107.5,-284 107.5,-190 192.5,-190 192.5,-284"/>
<text text-anchor="start" x="114.75" y="-270.5" font-family="Helvetica,sans-Serif" font-size="10.00">LPT::Application</text>
<text text-anchor="start" x="148.5" y="-255.5" font-family="Helvetica,sans-Serif" font-size="10.00"> </text>
<text text-anchor="start" x="111.5" y="-240.5" font-family="Helvetica,sans-Serif" font-size="10.00">+</text>
<text text-anchor="start" x="121.5" y="-240.5" font-family="Helvetica,sans-Serif" font-size="10.00">~Application()</text>
<text text-anchor="start" x="111.5" y="-225.5" font-family="Helvetica,sans-Serif" font-size="10.00">+</text>
<text text-anchor="start" x="121.5" y="-225.5" font-family="Helvetica,sans-Serif" font-size="10.00">Setup()</text>
<text text-anchor="start" x="111.5" y="-210.5" font-family="Helvetica,sans-Serif" font-size="10.00">+</text>
<text text-anchor="start" x="121.5" y="-210.5" font-family="Helvetica,sans-Serif" font-size="10.00">Step()</text>
<text text-anchor="start" x="111.5" y="-195.5" font-family="Helvetica,sans-Serif" font-size="10.00">+</text>
<text text-anchor="start" x="121.5" y="-195.5" font-family="Helvetica,sans-Serif" font-size="10.00">GetFrequency()</text>
<polygon fill="#666666" stroke="#666666" points="107.5,-267 107.5,-267 192.5,-267 192.5,-267 107.5,-267"/>
<polygon fill="#666666" stroke="#666666" points="107.5,-252 107.5,-252 192.5,-252 192.5,-252 107.5,-252"/>
<polygon fill="none" stroke="#666666" points="107.5,-190 107.5,-284 192.5,-284 192.5,-190 107.5,-190"/>
</a>
</g>
</g>
<!-- Node2 -->
<g id="Node000002" class="node">
<title>Node2</title>
<g id="a_Node000002"><a xlink:href="class_l_p_t_1_1_g_n_s_s_state_estimation_app.html" target="_top" xlink:title=" ">
<polygon fill="white" stroke="none" points="148,-154 0,-154 0,0 148,0 148,-154"/>
<text text-anchor="start" x="5" y="-140.5" font-family="Helvetica,sans-Serif" font-size="10.00">LPT::GNSSStateEstimationApp</text>
<text text-anchor="start" x="72.5" y="-125.5" font-family="Helvetica,sans-Serif" font-size="10.00"> </text>
<text text-anchor="start" x="18" y="-110.5" font-family="Helvetica,sans-Serif" font-size="10.00">+</text>
<text text-anchor="start" x="42" y="-110.5" font-family="Helvetica,sans-Serif" font-size="10.00">SetAgent()</text>
<text text-anchor="start" x="18" y="-95.5" font-family="Helvetica,sans-Serif" font-size="10.00">+</text>
<text text-anchor="start" x="42" y="-95.5" font-family="Helvetica,sans-Serif" font-size="10.00">SetDynamics()</text>
<text text-anchor="start" x="18" y="-80.5" font-family="Helvetica,sans-Serif" font-size="10.00">+</text>
<text text-anchor="start" x="42" y="-80.5" font-family="Helvetica,sans-Serif" font-size="10.00">SetReceiver()</text>
<text text-anchor="start" x="18" y="-65.5" font-family="Helvetica,sans-Serif" font-size="10.00">+</text>
<text text-anchor="start" x="42" y="-65.5" font-family="Helvetica,sans-Serif" font-size="10.00">SetDataHistory()</text>
<text text-anchor="start" x="18" y="-50.5" font-family="Helvetica,sans-Serif" font-size="10.00">+</text>
<text text-anchor="start" x="42" y="-50.5" font-family="Helvetica,sans-Serif" font-size="10.00">SetFrequency()</text>
<text text-anchor="start" x="18" y="-35.5" font-family="Helvetica,sans-Serif" font-size="10.00">+</text>
<text text-anchor="start" x="42" y="-35.5" font-family="Helvetica,sans-Serif" font-size="10.00">GetFrequency()</text>
<text text-anchor="start" x="18" y="-20.5" font-family="Helvetica,sans-Serif" font-size="10.00">+</text>
<text text-anchor="start" x="42" y="-20.5" font-family="Helvetica,sans-Serif" font-size="10.00">Setup()</text>
<text text-anchor="start" x="18" y="-5.5" font-family="Helvetica,sans-Serif" font-size="10.00">+</text>
<text text-anchor="start" x="42" y="-5.5" font-family="Helvetica,sans-Serif" font-size="10.00">Step()</text>
<polygon fill="#bfbfbf" stroke="#bfbfbf" points="0,-137 0,-137 148,-137 148,-137 0,-137"/>
<polygon fill="#bfbfbf" stroke="#bfbfbf" points="0,-122 0,-122 148,-122 148,-122 0,-122"/>
<polygon fill="none" stroke="#bfbfbf" points="0,0 0,-154 148,-154 148,0 0,0"/>
</a>
</g>
</g>
<!-- Node1&#45;&gt;Node2 -->
<g id="edge1_Node000001_Node000002" class="edge">
<title>Node1&#45;&gt;Node2</title>
<g id="a_edge1_Node000001_Node000002"><a xlink:title=" ">
<path fill="none" stroke="#63b8ff" d="M123.28,-180.45C119.15,-171.87 114.83,-162.89 110.54,-153.96"/>
<polygon fill="none" stroke="#63b8ff" points="120.53,-181.81 128.02,-189.3 126.84,-178.77 120.53,-181.81"/>
</a>
</g>
</g>
<!-- Node3 -->
<g id="Node000003" class="node">
<title>Node3</title>
<g id="a_Node000003"><a xlink:href="class_l_p_t_1_1_state_estimation_app.html" target="_top" xlink:title=" ">
<polygon fill="white" stroke="none" points="286,-154 166,-154 166,0 286,0 286,-154"/>
<text text-anchor="start" x="171.25" y="-140.5" font-family="Helvetica,sans-Serif" font-size="10.00">LPT::StateEstimationApp</text>
<text text-anchor="start" x="224.5" y="-125.5" font-family="Helvetica,sans-Serif" font-size="10.00"> </text>
<text text-anchor="start" x="170" y="-110.5" font-family="Helvetica,sans-Serif" font-size="10.00">+</text>
<text text-anchor="start" x="180" y="-110.5" font-family="Helvetica,sans-Serif" font-size="10.00">SetAgent()</text>
<text text-anchor="start" x="170" y="-95.5" font-family="Helvetica,sans-Serif" font-size="10.00">+</text>
<text text-anchor="start" x="180" y="-95.5" font-family="Helvetica,sans-Serif" font-size="10.00">SetDataHistory()</text>
<text text-anchor="start" x="170" y="-80.5" font-family="Helvetica,sans-Serif" font-size="10.00">+</text>
<text text-anchor="start" x="180" y="-80.5" font-family="Helvetica,sans-Serif" font-size="10.00">GetInitialEpoch()</text>
<text text-anchor="start" x="170" y="-65.5" font-family="Helvetica,sans-Serif" font-size="10.00">+</text>
<text text-anchor="start" x="180" y="-65.5" font-family="Helvetica,sans-Serif" font-size="10.00">GetCurrentEpoch()</text>
<text text-anchor="start" x="170" y="-50.5" font-family="Helvetica,sans-Serif" font-size="10.00">+</text>
<text text-anchor="start" x="180" y="-50.5" font-family="Helvetica,sans-Serif" font-size="10.00">GetCurrrentTime()</text>
<text text-anchor="start" x="170" y="-35.5" font-family="Helvetica,sans-Serif" font-size="10.00">+</text>
<text text-anchor="start" x="180" y="-35.5" font-family="Helvetica,sans-Serif" font-size="10.00">SetDynamicsFunction()</text>
<text text-anchor="start" x="170" y="-20.5" font-family="Helvetica,sans-Serif" font-size="10.00">+</text>
<text text-anchor="start" x="180" y="-20.5" font-family="Helvetica,sans-Serif" font-size="10.00">Setup()</text>
<text text-anchor="start" x="170" y="-5.5" font-family="Helvetica,sans-Serif" font-size="10.00">+</text>
<text text-anchor="start" x="180" y="-5.5" font-family="Helvetica,sans-Serif" font-size="10.00">Step()</text>
<polygon fill="#bfbfbf" stroke="#bfbfbf" points="166,-137 166,-137 286,-137 286,-137 166,-137"/>
<polygon fill="#bfbfbf" stroke="#bfbfbf" points="166,-122 166,-122 286,-122 286,-122 166,-122"/>
<polygon fill="none" stroke="#bfbfbf" points="166,0 166,-154 286,-154 286,0 166,0"/>
</a>
</g>
</g>
<!-- Node1&#45;&gt;Node3 -->
<g id="edge2_Node000001_Node000003" class="edge">
<title>Node1&#45;&gt;Node3</title>
<g id="a_edge2_Node000001_Node000003"><a xlink:title=" ">
<path fill="none" stroke="#63b8ff" d="M176.72,-180.45C180.85,-171.87 185.17,-162.89 189.46,-153.96"/>
<polygon fill="none" stroke="#63b8ff" points="173.16,-178.77 171.98,-189.3 179.47,-181.81 173.16,-178.77"/>
</a>
</g>
</g>
</g>
</svg>
