<?xml version="1.0" encoding="UTF-8" standalone="no"?>
<!DOCTYPE svg PUBLIC "-//W3C//DTD SVG 1.1//EN"
 "http://www.w3.org/Graphics/SVG/1.1/DTD/svg11.dtd">
<!-- Generated by graphviz version 8.1.0 (20230707.0739)
 -->
<!-- Title: LPT::DelaunayOE Pages: 1 -->
<svg width="123pt" height="602pt"
 viewBox="0.00 0.00 123.00 602.00" xmlns="http://www.w3.org/2000/svg" xmlns:xlink="http://www.w3.org/1999/xlink">
<g id="graph0" class="graph" transform="scale(1 1) rotate(0) translate(4 598)">
<title>LPT::DelaunayOE</title>
<!-- Node1 -->
<g id="Node000001" class="node">
<title>Node1</title>
<g id="a_Node000001"><a xlink:title=" ">
<polygon fill="#999999" stroke="none" points="105.5,-184 9.5,-184 9.5,0 105.5,0 105.5,-184"/>
<text text-anchor="start" x="18.5" y="-170.5" font-family="Helvetica,sans-Serif" font-size="10.00">LPT::DelaunayOE</text>
<text text-anchor="start" x="56" y="-155.5" font-family="Helvetica,sans-Serif" font-size="10.00"> </text>
<text text-anchor="start" x="13.5" y="-140.5" font-family="Helvetica,sans-Serif" font-size="10.00">+</text>
<text text-anchor="start" x="23.5" y="-140.5" font-family="Helvetica,sans-Serif" font-size="10.00">DelaunayOE()</text>
<text text-anchor="start" x="13.5" y="-125.5" font-family="Helvetica,sans-Serif" font-size="10.00">+</text>
<text text-anchor="start" x="23.5" y="-125.5" font-family="Helvetica,sans-Serif" font-size="10.00">DelaunayOE()</text>
<text text-anchor="start" x="13.5" y="-110.5" font-family="Helvetica,sans-Serif" font-size="10.00">+</text>
<text text-anchor="start" x="23.5" y="-110.5" font-family="Helvetica,sans-Serif" font-size="10.00">Print()</text>
<text text-anchor="start" x="13.5" y="-95.5" font-family="Helvetica,sans-Serif" font-size="10.00">+</text>
<text text-anchor="start" x="23.5" y="-95.5" font-family="Helvetica,sans-Serif" font-size="10.00">Clone()</text>
<text text-anchor="start" x="13.5" y="-80.5" font-family="Helvetica,sans-Serif" font-size="10.00">+</text>
<text text-anchor="start" x="23.5" y="-80.5" font-family="Helvetica,sans-Serif" font-size="10.00">GETSET_ELEM()</text>
<text text-anchor="start" x="13.5" y="-65.5" font-family="Helvetica,sans-Serif" font-size="10.00">+</text>
<text text-anchor="start" x="23.5" y="-65.5" font-family="Helvetica,sans-Serif" font-size="10.00">GETSET_ELEM()</text>
<text text-anchor="start" x="13.5" y="-50.5" font-family="Helvetica,sans-Serif" font-size="10.00">+</text>
<text text-anchor="start" x="23.5" y="-50.5" font-family="Helvetica,sans-Serif" font-size="10.00">GETSET_ELEM()</text>
<text text-anchor="start" x="13.5" y="-35.5" font-family="Helvetica,sans-Serif" font-size="10.00">+</text>
<text text-anchor="start" x="23.5" y="-35.5" font-family="Helvetica,sans-Serif" font-size="10.00">GETSET_ELEM()</text>
<text text-anchor="start" x="13.5" y="-20.5" font-family="Helvetica,sans-Serif" font-size="10.00">+</text>
<text text-anchor="start" x="23.5" y="-20.5" font-family="Helvetica,sans-Serif" font-size="10.00">GETSET_ELEM()</text>
<text text-anchor="start" x="13.5" y="-5.5" font-family="Helvetica,sans-Serif" font-size="10.00">+</text>
<text text-anchor="start" x="23.5" y="-5.5" font-family="Helvetica,sans-Serif" font-size="10.00">GETSET_ELEM()</text>
<polygon fill="#666666" stroke="#666666" points="9.5,-167 9.5,-167 105.5,-167 105.5,-167 9.5,-167"/>
<polygon fill="#666666" stroke="#666666" points="9.5,-152 9.5,-152 105.5,-152 105.5,-152 9.5,-152"/>
<polygon fill="none" stroke="#666666" points="9.5,0 9.5,-184 105.5,-184 105.5,0 9.5,0"/>
</a>
</g>
</g>
<!-- Node2 -->
<g id="Node000002" class="node">
<title>Node2</title>
<g id="a_Node000002"><a xlink:href="class_l_p_t_1_1_orbit_state.html" target="_top" xlink:title=" ">
<polygon fill="white" stroke="none" points="115,-479 0,-479 0,-220 115,-220 115,-479"/>
<text text-anchor="start" x="24.12" y="-465.5" font-family="Helvetica,sans-Serif" font-size="10.00">LPT::OrbitState</text>
<text text-anchor="start" x="4" y="-450.5" font-family="Helvetica,sans-Serif" font-size="10.00">+</text>
<text text-anchor="start" x="14" y="-450.5" font-family="Helvetica,sans-Serif" font-size="10.00">state_size</text>
<text text-anchor="start" x="4" y="-435.5" font-family="Helvetica,sans-Serif" font-size="10.00">+</text>
<text text-anchor="start" x="14" y="-435.5" font-family="Helvetica,sans-Serif" font-size="10.00">OrbitState()</text>
<text text-anchor="start" x="4" y="-420.5" font-family="Helvetica,sans-Serif" font-size="10.00">+</text>
<text text-anchor="start" x="14" y="-420.5" font-family="Helvetica,sans-Serif" font-size="10.00">OrbitState()</text>
<text text-anchor="start" x="4" y="-405.5" font-family="Helvetica,sans-Serif" font-size="10.00">+</text>
<text text-anchor="start" x="14" y="-405.5" font-family="Helvetica,sans-Serif" font-size="10.00">~OrbitState()</text>
<text text-anchor="start" x="4" y="-390.5" font-family="Helvetica,sans-Serif" font-size="10.00">+</text>
<text text-anchor="start" x="14" y="-390.5" font-family="Helvetica,sans-Serif" font-size="10.00">GetVector()</text>
<text text-anchor="start" x="4" y="-375.5" font-family="Helvetica,sans-Serif" font-size="10.00">+</text>
<text text-anchor="start" x="14" y="-375.5" font-family="Helvetica,sans-Serif" font-size="10.00">GetStateSize()</text>
<text text-anchor="start" x="4" y="-360.5" font-family="Helvetica,sans-Serif" font-size="10.00">+</text>
<text text-anchor="start" x="14" y="-360.5" font-family="Helvetica,sans-Serif" font-size="10.00">GetValue()</text>
<text text-anchor="start" x="4" y="-345.5" font-family="Helvetica,sans-Serif" font-size="10.00">+</text>
<text text-anchor="start" x="14" y="-345.5" font-family="Helvetica,sans-Serif" font-size="10.00">GetOrbitStateRepres()</text>
<text text-anchor="start" x="4" y="-330.5" font-family="Helvetica,sans-Serif" font-size="10.00">+</text>
<text text-anchor="start" x="14" y="-330.5" font-family="Helvetica,sans-Serif" font-size="10.00">GetCoordSystem()</text>
<text text-anchor="start" x="4" y="-315.5" font-family="Helvetica,sans-Serif" font-size="10.00">+</text>
<text text-anchor="start" x="14" y="-315.5" font-family="Helvetica,sans-Serif" font-size="10.00">SetValue()</text>
<text text-anchor="start" x="4" y="-300.5" font-family="Helvetica,sans-Serif" font-size="10.00">+</text>
<text text-anchor="start" x="14" y="-300.5" font-family="Helvetica,sans-Serif" font-size="10.00">SetVector()</text>
<text text-anchor="start" x="4" y="-285.5" font-family="Helvetica,sans-Serif" font-size="10.00">+</text>
<text text-anchor="start" x="14" y="-285.5" font-family="Helvetica,sans-Serif" font-size="10.00">SetOrbitStateRepres()</text>
<text text-anchor="start" x="4" y="-270.5" font-family="Helvetica,sans-Serif" font-size="10.00">+</text>
<text text-anchor="start" x="14" y="-270.5" font-family="Helvetica,sans-Serif" font-size="10.00">SetCoordSystem()</text>
<text text-anchor="start" x="4" y="-255.5" font-family="Helvetica,sans-Serif" font-size="10.00">+</text>
<text text-anchor="start" x="14" y="-255.5" font-family="Helvetica,sans-Serif" font-size="10.00">operator()()</text>
<text text-anchor="start" x="4" y="-240.5" font-family="Helvetica,sans-Serif" font-size="10.00">+</text>
<text text-anchor="start" x="14" y="-240.5" font-family="Helvetica,sans-Serif" font-size="10.00">Print()</text>
<text text-anchor="start" x="4" y="-225.5" font-family="Helvetica,sans-Serif" font-size="10.00">+</text>
<text text-anchor="start" x="14" y="-225.5" font-family="Helvetica,sans-Serif" font-size="10.00">Clone()</text>
<polygon fill="#bfbfbf" stroke="#bfbfbf" points="0,-462 0,-462 115,-462 115,-462 0,-462"/>
<polygon fill="#bfbfbf" stroke="#bfbfbf" points="0,-447 0,-447 12,-447 12,-447 0,-447"/>
<polygon fill="#bfbfbf" stroke="#bfbfbf" points="12,-447 12,-447 115,-447 115,-447 12,-447"/>
<polygon fill="none" stroke="#bfbfbf" points="0,-220 0,-479 115,-479 115,-220 0,-220"/>
</a>
</g>
</g>
<!-- Node2&#45;&gt;Node1 -->
<g id="edge1_Node000001_Node000002" class="edge">
<title>Node2&#45;&gt;Node1</title>
<g id="a_edge1_Node000001_Node000002"><a xlink:title=" ">
<path fill="none" stroke="#63b8ff" d="M57.5,-209.17C57.5,-200.64 57.5,-192.18 57.5,-183.94"/>
<polygon fill="none" stroke="#63b8ff" points="54,-209 57.5,-219 61,-209 54,-209"/>
</a>
</g>
</g>
<!-- Node3 -->
<g id="Node000003" class="node">
<title>Node3</title>
<g id="a_Node000003"><a xlink:href="class_l_p_t_1_1_i_state.html" target="_top" xlink:title="Interface for States.">
<polygon fill="white" stroke="none" points="98.5,-594 16.5,-594 16.5,-515 98.5,-515 98.5,-594"/>
<text text-anchor="start" x="33.12" y="-580.5" font-family="Helvetica,sans-Serif" font-size="10.00">LPT::IState</text>
<text text-anchor="start" x="56" y="-565.5" font-family="Helvetica,sans-Serif" font-size="10.00"> </text>
<text text-anchor="start" x="20.5" y="-550.5" font-family="Helvetica,sans-Serif" font-size="10.00">+</text>
<text text-anchor="start" x="30.5" y="-550.5" font-family="Helvetica,sans-Serif" font-size="10.00">~IState()</text>
<text text-anchor="start" x="20.5" y="-535.5" font-family="Helvetica,sans-Serif" font-size="10.00">+</text>
<text text-anchor="start" x="30.5" y="-535.5" font-family="Helvetica,sans-Serif" font-size="10.00">GetStateSize()</text>
<text text-anchor="start" x="20.5" y="-520.5" font-family="Helvetica,sans-Serif" font-size="10.00">+</text>
<text text-anchor="start" x="30.5" y="-520.5" font-family="Helvetica,sans-Serif" font-size="10.00">GetValue()</text>
<polygon fill="#666666" stroke="#666666" points="16.5,-577 16.5,-577 98.5,-577 98.5,-577 16.5,-577"/>
<polygon fill="#666666" stroke="#666666" points="16.5,-562 16.5,-562 98.5,-562 98.5,-562 16.5,-562"/>
<polygon fill="none" stroke="#666666" points="16.5,-515 16.5,-594 98.5,-594 98.5,-515 16.5,-515"/>
</a>
</g>
</g>
<!-- Node3&#45;&gt;Node2 -->
<g id="edge2_Node000002_Node000003" class="edge">
<title>Node3&#45;&gt;Node2</title>
<g id="a_edge2_Node000002_Node000003"><a xlink:title=" ">
<path fill="none" stroke="#63b8ff" d="M57.5,-504.36C57.5,-496.31 57.5,-487.65 57.5,-478.69"/>
<polygon fill="none" stroke="#63b8ff" points="54,-504.32 57.5,-514.32 61,-504.32 54,-504.32"/>
</a>
</g>
</g>
</g>
</svg>
