<?xml version="1.0" encoding="UTF-8" standalone="no"?>
<!DOCTYPE svg PUBLIC "-//W3C//DTD SVG 1.1//EN"
 "http://www.w3.org/Graphics/SVG/1.1/DTD/svg11.dtd">
<!-- Generated by graphviz version 2.43.0 (0)
 -->
<!-- Title: PyOrbitState Pages: 1 -->
<svg width="144pt" height="463pt"
 viewBox="0.00 0.00 144.00 463.00" xmlns="http://www.w3.org/2000/svg" xmlns:xlink="http://www.w3.org/1999/xlink">
<g id="graph0" class="graph" transform="scale(1 1) rotate(0) translate(4 459)">
<title>PyOrbitState</title>
<polygon fill="white" stroke="transparent" points="-4,4 -4,-459 140,-459 140,4 -4,4"/>
<!-- Node1 -->
<g id="node1" class="node">
<title>Node1</title>
<g id="a_node1"><a xlink:title=" ">
<polygon fill="#bfbfbf" stroke="black" points="19.5,-0.5 19.5,-90.5 116.5,-90.5 116.5,-0.5 19.5,-0.5"/>
<text text-anchor="middle" x="68" y="-78.5" font-family="Helvetica,sans-Serif" font-size="10.00">PyOrbitState</text>
<polyline fill="none" stroke="black" points="19.5,-71.5 116.5,-71.5 "/>
<text text-anchor="middle" x="68" y="-59.5" font-family="Helvetica,sans-Serif" font-size="10.00"> </text>
<polyline fill="none" stroke="black" points="19.5,-52.5 116.5,-52.5 "/>
<text text-anchor="start" x="27.5" y="-40.5" font-family="Helvetica,sans-Serif" font-size="10.00">+ PyOrbitState()</text>
<text text-anchor="start" x="27.5" y="-29.5" font-family="Helvetica,sans-Serif" font-size="10.00">+ PyOrbitState()</text>
<text text-anchor="start" x="27.5" y="-18.5" font-family="Helvetica,sans-Serif" font-size="10.00">+ Print()</text>
<text text-anchor="start" x="27.5" y="-7.5" font-family="Helvetica,sans-Serif" font-size="10.00">+ Clone()</text>
</a>
</g>
</g>
<!-- Node2 -->
<g id="node2" class="node">
<title>Node2</title>
<g id="a_node2"><a xlink:href="classLPT_1_1OrbitState.html" target="_top" xlink:title=" ">
<polygon fill="white" stroke="black" points="0,-127.5 0,-338.5 136,-338.5 136,-127.5 0,-127.5"/>
<text text-anchor="middle" x="68" y="-326.5" font-family="Helvetica,sans-Serif" font-size="10.00">LPT::OrbitState</text>
<polyline fill="none" stroke="black" points="0,-319.5 136,-319.5 "/>
<text text-anchor="start" x="8" y="-307.5" font-family="Helvetica,sans-Serif" font-size="10.00">+ state_size</text>
<polyline fill="none" stroke="black" points="0,-300.5 136,-300.5 "/>
<text text-anchor="start" x="8" y="-288.5" font-family="Helvetica,sans-Serif" font-size="10.00">+ OrbitState()</text>
<text text-anchor="start" x="8" y="-277.5" font-family="Helvetica,sans-Serif" font-size="10.00">+ OrbitState()</text>
<text text-anchor="start" x="8" y="-266.5" font-family="Helvetica,sans-Serif" font-size="10.00">+ ~OrbitState()</text>
<text text-anchor="start" x="8" y="-255.5" font-family="Helvetica,sans-Serif" font-size="10.00">+ GetVector()</text>
<text text-anchor="start" x="8" y="-244.5" font-family="Helvetica,sans-Serif" font-size="10.00">+ GetStateSize()</text>
<text text-anchor="start" x="8" y="-233.5" font-family="Helvetica,sans-Serif" font-size="10.00">+ GetValue()</text>
<text text-anchor="start" x="8" y="-222.5" font-family="Helvetica,sans-Serif" font-size="10.00">+ GetOrbitStateRepres()</text>
<text text-anchor="start" x="8" y="-211.5" font-family="Helvetica,sans-Serif" font-size="10.00">+ GetCoordSystem()</text>
<text text-anchor="start" x="8" y="-200.5" font-family="Helvetica,sans-Serif" font-size="10.00">+ SetValue()</text>
<text text-anchor="start" x="8" y="-189.5" font-family="Helvetica,sans-Serif" font-size="10.00">+ SetVector()</text>
<text text-anchor="start" x="8" y="-178.5" font-family="Helvetica,sans-Serif" font-size="10.00">+ SetOrbitStateRepres()</text>
<text text-anchor="start" x="8" y="-167.5" font-family="Helvetica,sans-Serif" font-size="10.00">+ SetCoordSystem()</text>
<text text-anchor="start" x="8" y="-156.5" font-family="Helvetica,sans-Serif" font-size="10.00">+ operator()()</text>
<text text-anchor="start" x="8" y="-145.5" font-family="Helvetica,sans-Serif" font-size="10.00">+ Print()</text>
<text text-anchor="start" x="8" y="-134.5" font-family="Helvetica,sans-Serif" font-size="10.00">+ Clone()</text>
</a>
</g>
</g>
<!-- Node2&#45;&gt;Node1 -->
<g id="edge1" class="edge">
<title>Node2&#45;&gt;Node1</title>
<path fill="none" stroke="midnightblue" d="M68,-117.19C68,-107.95 68,-99.02 68,-90.79"/>
<polygon fill="none" stroke="midnightblue" points="64.5,-117.32 68,-127.32 71.5,-117.32 64.5,-117.32"/>
</g>
<!-- Node3 -->
<g id="node3" class="node">
<title>Node3</title>
<g id="a_node3"><a xlink:href="classLPT_1_1IState.html" target="_top" xlink:title="Interface for States.">
<polygon fill="white" stroke="black" points="19,-375.5 19,-454.5 117,-454.5 117,-375.5 19,-375.5"/>
<text text-anchor="middle" x="68" y="-442.5" font-family="Helvetica,sans-Serif" font-size="10.00">LPT::IState</text>
<polyline fill="none" stroke="black" points="19,-435.5 117,-435.5 "/>
<text text-anchor="middle" x="68" y="-423.5" font-family="Helvetica,sans-Serif" font-size="10.00"> </text>
<polyline fill="none" stroke="black" points="19,-416.5 117,-416.5 "/>
<text text-anchor="start" x="27" y="-404.5" font-family="Helvetica,sans-Serif" font-size="10.00">+ ~IState()</text>
<text text-anchor="start" x="27" y="-393.5" font-family="Helvetica,sans-Serif" font-size="10.00">+ GetStateSize()</text>
<text text-anchor="start" x="27" y="-382.5" font-family="Helvetica,sans-Serif" font-size="10.00">+ GetValue()</text>
</a>
</g>
</g>
<!-- Node3&#45;&gt;Node2 -->
<g id="edge2" class="edge">
<title>Node3&#45;&gt;Node2</title>
<path fill="none" stroke="midnightblue" d="M68,-365.16C68,-356.81 68,-347.86 68,-338.69"/>
<polygon fill="none" stroke="midnightblue" points="64.5,-365.39 68,-375.39 71.5,-365.39 64.5,-365.39"/>
</g>
</g>
</svg>
