<?xml version="1.0" encoding="UTF-8" standalone="no"?>
<!DOCTYPE svg PUBLIC "-//W3C//DTD SVG 1.1//EN"
 "http://www.w3.org/Graphics/SVG/1.1/DTD/svg11.dtd">
<!-- Generated by graphviz version 2.43.0 (0)
 -->
<!-- Title: LPT::Application Pages: 1 -->
<svg width="330pt" height="270pt"
 viewBox="0.00 0.00 330.00 270.00" xmlns="http://www.w3.org/2000/svg" xmlns:xlink="http://www.w3.org/1999/xlink">
<g id="graph0" class="graph" transform="scale(1 1) rotate(0) translate(4 266)">
<title>LPT::Application</title>
<polygon fill="white" stroke="transparent" points="-4,4 -4,-266 326,-266 326,4 -4,4"/>
<!-- Node1 -->
<g id="node1" class="node">
<title>Node1</title>
<g id="a_node1"><a xlink:title=" ">
<polygon fill="#bfbfbf" stroke="black" points="115,-171.5 115,-261.5 218,-261.5 218,-171.5 115,-171.5"/>
<text text-anchor="middle" x="166.5" y="-249.5" font-family="Helvetica,sans-Serif" font-size="10.00">LPT::Application</text>
<polyline fill="none" stroke="black" points="115,-242.5 218,-242.5 "/>
<text text-anchor="middle" x="166.5" y="-230.5" font-family="Helvetica,sans-Serif" font-size="10.00"> </text>
<polyline fill="none" stroke="black" points="115,-223.5 218,-223.5 "/>
<text text-anchor="start" x="123" y="-211.5" font-family="Helvetica,sans-Serif" font-size="10.00">+ ~Application()</text>
<text text-anchor="start" x="123" y="-200.5" font-family="Helvetica,sans-Serif" font-size="10.00">+ Setup()</text>
<text text-anchor="start" x="123" y="-189.5" font-family="Helvetica,sans-Serif" font-size="10.00">+ Step()</text>
<text text-anchor="start" x="123" y="-178.5" font-family="Helvetica,sans-Serif" font-size="10.00">+ GetFrequency()</text>
</a>
</g>
</g>
<!-- Node2 -->
<g id="node2" class="node">
<title>Node2</title>
<g id="a_node2"><a xlink:href="classLPT_1_1GNSSStateEstimationApp.html" target="_top" xlink:title=" ">
<polygon fill="white" stroke="black" points="0,-0.5 0,-134.5 163,-134.5 163,-0.5 0,-0.5"/>
<text text-anchor="middle" x="81.5" y="-122.5" font-family="Helvetica,sans-Serif" font-size="10.00">LPT::GNSSStateEstimationApp</text>
<polyline fill="none" stroke="black" points="0,-115.5 163,-115.5 "/>
<text text-anchor="middle" x="81.5" y="-103.5" font-family="Helvetica,sans-Serif" font-size="10.00"> </text>
<polyline fill="none" stroke="black" points="0,-96.5 163,-96.5 "/>
<text text-anchor="start" x="8" y="-84.5" font-family="Helvetica,sans-Serif" font-size="10.00">+ SetAgent()</text>
<text text-anchor="start" x="8" y="-73.5" font-family="Helvetica,sans-Serif" font-size="10.00">+ SetDynamics()</text>
<text text-anchor="start" x="8" y="-62.5" font-family="Helvetica,sans-Serif" font-size="10.00">+ SetReceiver()</text>
<text text-anchor="start" x="8" y="-51.5" font-family="Helvetica,sans-Serif" font-size="10.00">+ SetDataHistory()</text>
<text text-anchor="start" x="8" y="-40.5" font-family="Helvetica,sans-Serif" font-size="10.00">+ SetFrequency()</text>
<text text-anchor="start" x="8" y="-29.5" font-family="Helvetica,sans-Serif" font-size="10.00">+ GetFrequency()</text>
<text text-anchor="start" x="8" y="-18.5" font-family="Helvetica,sans-Serif" font-size="10.00">+ Setup()</text>
<text text-anchor="start" x="8" y="-7.5" font-family="Helvetica,sans-Serif" font-size="10.00">+ Step()</text>
</a>
</g>
</g>
<!-- Node1&#45;&gt;Node2 -->
<g id="edge1" class="edge">
<title>Node1&#45;&gt;Node2</title>
<path fill="none" stroke="midnightblue" d="M135.86,-162.51C130.62,-153.45 125.12,-143.94 119.72,-134.59"/>
<polygon fill="none" stroke="midnightblue" points="132.96,-164.49 141,-171.4 139.02,-160.99 132.96,-164.49"/>
</g>
<!-- Node3 -->
<g id="node3" class="node">
<title>Node3</title>
<g id="a_node3"><a xlink:href="classLPT_1_1StateEstimationApp.html" target="_top" xlink:title=" ">
<polygon fill="white" stroke="black" points="181,-0.5 181,-134.5 322,-134.5 322,-0.5 181,-0.5"/>
<text text-anchor="middle" x="251.5" y="-122.5" font-family="Helvetica,sans-Serif" font-size="10.00">LPT::StateEstimationApp</text>
<polyline fill="none" stroke="black" points="181,-115.5 322,-115.5 "/>
<text text-anchor="middle" x="251.5" y="-103.5" font-family="Helvetica,sans-Serif" font-size="10.00"> </text>
<polyline fill="none" stroke="black" points="181,-96.5 322,-96.5 "/>
<text text-anchor="start" x="189" y="-84.5" font-family="Helvetica,sans-Serif" font-size="10.00">+ SetAgent()</text>
<text text-anchor="start" x="189" y="-73.5" font-family="Helvetica,sans-Serif" font-size="10.00">+ SetDataHistory()</text>
<text text-anchor="start" x="189" y="-62.5" font-family="Helvetica,sans-Serif" font-size="10.00">+ GetInitialEpoch()</text>
<text text-anchor="start" x="189" y="-51.5" font-family="Helvetica,sans-Serif" font-size="10.00">+ GetCurrentEpoch()</text>
<text text-anchor="start" x="189" y="-40.5" font-family="Helvetica,sans-Serif" font-size="10.00">+ GetCurrrentTime()</text>
<text text-anchor="start" x="189" y="-29.5" font-family="Helvetica,sans-Serif" font-size="10.00">+ SetDynamicsFunction()</text>
<text text-anchor="start" x="189" y="-18.5" font-family="Helvetica,sans-Serif" font-size="10.00">+ Setup()</text>
<text text-anchor="start" x="189" y="-7.5" font-family="Helvetica,sans-Serif" font-size="10.00">+ Step()</text>
</a>
</g>
</g>
<!-- Node1&#45;&gt;Node3 -->
<g id="edge2" class="edge">
<title>Node1&#45;&gt;Node3</title>
<path fill="none" stroke="midnightblue" d="M197.14,-162.51C202.38,-153.45 207.88,-143.94 213.28,-134.59"/>
<polygon fill="none" stroke="midnightblue" points="193.98,-160.99 192,-171.4 200.04,-164.49 193.98,-160.99"/>
</g>
</g>
</svg>
