<?xml version="1.0" encoding="UTF-8" standalone="no"?>
<!DOCTYPE svg PUBLIC "-//W3C//DTD SVG 1.1//EN"
 "http://www.w3.org/Graphics/SVG/1.1/DTD/svg11.dtd">
<!-- Generated by graphviz version 2.43.0 (0)
 -->
<!-- Title: Clock.h Pages: 1 -->
<svg width="345pt" height="151pt"
 viewBox="0.00 0.00 345.00 151.00" xmlns="http://www.w3.org/2000/svg" xmlns:xlink="http://www.w3.org/1999/xlink">
<g id="graph0" class="graph" transform="scale(1 1) rotate(0) translate(4 147)">
<title>Clock.h</title>
<polygon fill="white" stroke="transparent" points="-4,4 -4,-147 341,-147 341,4 -4,4"/>
<!-- Node1 -->
<g id="node1" class="node">
<title>Node1</title>
<g id="a_node1"><a xlink:title="Clock class.">
<polygon fill="#bfbfbf" stroke="black" points="123,-123.5 123,-142.5 176,-142.5 176,-123.5 123,-123.5"/>
<text text-anchor="middle" x="149.5" y="-130.5" font-family="Helvetica,sans-Serif" font-size="10.00">Clock.h</text>
</a>
</g>
</g>
<!-- Node2 -->
<g id="node2" class="node">
<title>Node2</title>
<g id="a_node2"><a xlink:title=" ">
<polygon fill="white" stroke="#bfbfbf" points="34,-67.5 34,-86.5 111,-86.5 111,-67.5 34,-67.5"/>
<text text-anchor="middle" x="72.5" y="-74.5" font-family="Helvetica,sans-Serif" font-size="10.00">Eigen/Dense</text>
</a>
</g>
</g>
<!-- Node1&#45;&gt;Node2 -->
<g id="edge1" class="edge">
<title>Node1&#45;&gt;Node2</title>
<path fill="none" stroke="midnightblue" d="M137.13,-123.32C125.34,-115.06 107.37,-102.45 93.36,-92.63"/>
<polygon fill="midnightblue" stroke="midnightblue" points="95.04,-89.53 84.84,-86.65 91.02,-95.26 95.04,-89.53"/>
</g>
<!-- Node3 -->
<g id="node3" class="node">
<title>Node3</title>
<g id="a_node3"><a xlink:title=" ">
<polygon fill="white" stroke="#bfbfbf" points="129,-67.5 129,-86.5 170,-86.5 170,-67.5 129,-67.5"/>
<text text-anchor="middle" x="149.5" y="-74.5" font-family="Helvetica,sans-Serif" font-size="10.00">tuple</text>
</a>
</g>
</g>
<!-- Node1&#45;&gt;Node3 -->
<g id="edge2" class="edge">
<title>Node1&#45;&gt;Node3</title>
<path fill="none" stroke="midnightblue" d="M149.5,-123.08C149.5,-116.01 149.5,-105.86 149.5,-96.99"/>
<polygon fill="midnightblue" stroke="midnightblue" points="153,-96.75 149.5,-86.75 146,-96.75 153,-96.75"/>
</g>
<!-- Node4 -->
<g id="node4" class="node">
<title>Node4</title>
<g id="a_node4"><a xlink:href="State_8h.html" target="_top" xlink:title="SPICE Interface functions.">
<polygon fill="white" stroke="black" points="188,-67.5 188,-86.5 239,-86.5 239,-67.5 188,-67.5"/>
<text text-anchor="middle" x="213.5" y="-74.5" font-family="Helvetica,sans-Serif" font-size="10.00">State.h</text>
</a>
</g>
</g>
<!-- Node1&#45;&gt;Node4 -->
<g id="edge3" class="edge">
<title>Node1&#45;&gt;Node4</title>
<path fill="none" stroke="midnightblue" d="M159.78,-123.32C169.34,-115.26 183.78,-103.08 195.28,-93.37"/>
<polygon fill="midnightblue" stroke="midnightblue" points="197.64,-95.96 203.03,-86.83 193.13,-90.61 197.64,-95.96"/>
</g>
<!-- Node5 -->
<g id="node5" class="node">
<title>Node5</title>
<g id="a_node5"><a xlink:title=" ">
<polygon fill="white" stroke="#bfbfbf" points="0,-6 0,-25 137,-25 137,-6 0,-6"/>
<text text-anchor="middle" x="68.5" y="-13" font-family="Helvetica,sans-Serif" font-size="10.00">autodiff/forward/real.hpp</text>
</a>
</g>
</g>
<!-- Node4&#45;&gt;Node5 -->
<g id="edge4" class="edge">
<title>Node4&#45;&gt;Node5</title>
<path fill="none" stroke="midnightblue" d="M192.73,-67.48C168.07,-57.36 126.75,-40.4 98.6,-28.85"/>
<polygon fill="midnightblue" stroke="midnightblue" points="99.82,-25.57 89.24,-25.01 97.16,-32.04 99.82,-25.57"/>
</g>
<!-- Node6 -->
<g id="node6" class="node">
<title>Node6</title>
<g id="a_node6"><a xlink:title=" ">
<polygon fill="white" stroke="#bfbfbf" points="155.5,-0.5 155.5,-30.5 271.5,-30.5 271.5,-0.5 155.5,-0.5"/>
<text text-anchor="start" x="163.5" y="-18.5" font-family="Helvetica,sans-Serif" font-size="10.00">autodiff/forward/real</text>
<text text-anchor="middle" x="213.5" y="-7.5" font-family="Helvetica,sans-Serif" font-size="10.00">/eigen.hpp</text>
</a>
</g>
</g>
<!-- Node4&#45;&gt;Node6 -->
<g id="edge5" class="edge">
<title>Node4&#45;&gt;Node6</title>
<path fill="none" stroke="midnightblue" d="M213.5,-67.48C213.5,-60.47 213.5,-50.19 213.5,-40.7"/>
<polygon fill="midnightblue" stroke="midnightblue" points="217,-40.52 213.5,-30.52 210,-40.52 217,-40.52"/>
</g>
<!-- Node7 -->
<g id="node7" class="node">
<title>Node7</title>
<g id="a_node7"><a xlink:title=" ">
<polygon fill="white" stroke="#bfbfbf" points="290,-6 290,-25 337,-25 337,-6 290,-6"/>
<text text-anchor="middle" x="313.5" y="-13" font-family="Helvetica,sans-Serif" font-size="10.00">vector</text>
</a>
</g>
</g>
<!-- Node4&#45;&gt;Node7 -->
<g id="edge6" class="edge">
<title>Node4&#45;&gt;Node7</title>
<path fill="none" stroke="midnightblue" d="M227.83,-67.48C244.16,-57.75 271.1,-41.73 290.41,-30.24"/>
<polygon fill="midnightblue" stroke="midnightblue" points="292.39,-33.13 299.2,-25.01 288.82,-27.11 292.39,-33.13"/>
</g>
</g>
</svg>
