<?xml version="1.0" encoding="UTF-8" standalone="no"?>
<!DOCTYPE svg PUBLIC "-//W3C//DTD SVG 1.1//EN"
 "http://www.w3.org/Graphics/SVG/1.1/DTD/svg11.dtd">
<!-- Generated by graphviz version 2.43.0 (0)
 -->
<!-- Title: Clock.h Pages: 1 -->
<svg width="1267pt" height="196pt"
 viewBox="0.00 0.00 1266.50 196.00" xmlns="http://www.w3.org/2000/svg" xmlns:xlink="http://www.w3.org/1999/xlink">
<g id="graph0" class="graph" transform="scale(1 1) rotate(0) translate(4 192)">
<title>Clock.h</title>
<polygon fill="white" stroke="transparent" points="-4,4 -4,-192 1262.5,-192 1262.5,4 -4,4"/>
<!-- Node1 -->
<g id="node1" class="node">
<title>Node1</title>
<g id="a_node1"><a xlink:title="Clock class.">
<polygon fill="#bfbfbf" stroke="black" points="528,-168.5 528,-187.5 581,-187.5 581,-168.5 528,-168.5"/>
<text text-anchor="middle" x="554.5" y="-175.5" font-family="Helvetica,sans-Serif" font-size="10.00">Clock.h</text>
</a>
</g>
</g>
<!-- Node2 -->
<g id="node2" class="node">
<title>Node2</title>
<g id="a_node2"><a xlink:href="Agent_8h.html" target="_top" xlink:title="List of agents.">
<polygon fill="white" stroke="black" points="527.5,-112.5 527.5,-131.5 581.5,-131.5 581.5,-112.5 527.5,-112.5"/>
<text text-anchor="middle" x="554.5" y="-119.5" font-family="Helvetica,sans-Serif" font-size="10.00">Agent.h</text>
</a>
</g>
</g>
<!-- Node1&#45;&gt;Node2 -->
<g id="edge1" class="edge">
<title>Node1&#45;&gt;Node2</title>
<path fill="none" stroke="midnightblue" d="M554.5,-157.8C554.5,-148.91 554.5,-138.78 554.5,-131.75"/>
<polygon fill="midnightblue" stroke="midnightblue" points="551,-158.08 554.5,-168.08 558,-158.08 551,-158.08"/>
</g>
<!-- Node7 -->
<g id="node7" class="node">
<title>Node7</title>
<g id="a_node7"><a xlink:href="ExampleEKF_8cpp.html" target="_top" xlink:title="Example of Extended Kalman Filter for orbit determination.">
<polygon fill="white" stroke="black" points="0,-0.5 0,-19.5 97,-19.5 97,-0.5 0,-0.5"/>
<text text-anchor="middle" x="48.5" y="-7.5" font-family="Helvetica,sans-Serif" font-size="10.00">ExampleEKF.cpp</text>
</a>
</g>
</g>
<!-- Node1&#45;&gt;Node7 -->
<g id="edge21" class="edge">
<title>Node1&#45;&gt;Node7</title>
<path fill="none" stroke="midnightblue" d="M517.81,-175.34C412.19,-169.74 111.08,-147.65 50.5,-76 37.09,-60.14 41.92,-33.5 45.7,-19.77"/>
<polygon fill="midnightblue" stroke="midnightblue" points="517.82,-178.85 527.98,-175.86 518.17,-171.86 517.82,-178.85"/>
</g>
<!-- Node8 -->
<g id="node8" class="node">
<title>Node8</title>
<g id="a_node8"><a xlink:href="ExampleEKFApp_8cpp.html" target="_top" xlink:title="Example of EKF application.">
<polygon fill="white" stroke="black" points="810.5,-0.5 810.5,-19.5 926.5,-19.5 926.5,-0.5 810.5,-0.5"/>
<text text-anchor="middle" x="868.5" y="-7.5" font-family="Helvetica,sans-Serif" font-size="10.00">ExampleEKFApp.cpp</text>
</a>
</g>
</g>
<!-- Node1&#45;&gt;Node8 -->
<g id="edge22" class="edge">
<title>Node1&#45;&gt;Node8</title>
<path fill="none" stroke="midnightblue" d="M591.15,-175.94C701.7,-171.9 1028.2,-153.49 1092.5,-76 1098.18,-69.16 1098.13,-62.88 1092.5,-56 1081.97,-43.15 989.33,-27.85 926.53,-18.81"/>
<polygon fill="midnightblue" stroke="midnightblue" points="591.01,-172.44 581.14,-176.29 591.26,-179.44 591.01,-172.44"/>
</g>
<!-- Node3 -->
<g id="node3" class="node">
<title>Node3</title>
<g id="a_node3"><a xlink:href="Agent_8cpp.html" target="_top" xlink:title="Base class fo.">
<polygon fill="white" stroke="black" points="461,-56.5 461,-75.5 526,-75.5 526,-56.5 461,-56.5"/>
<text text-anchor="middle" x="493.5" y="-63.5" font-family="Helvetica,sans-Serif" font-size="10.00">Agent.cpp</text>
</a>
</g>
</g>
<!-- Node2&#45;&gt;Node3 -->
<g id="edge2" class="edge">
<title>Node2&#45;&gt;Node3</title>
<path fill="none" stroke="midnightblue" d="M537.03,-105.54C526.16,-95.91 512.56,-83.87 503.48,-75.83"/>
<polygon fill="midnightblue" stroke="midnightblue" points="534.89,-108.32 544.7,-112.32 539.53,-103.07 534.89,-108.32"/>
</g>
<!-- Node4 -->
<g id="node4" class="node">
<title>Node4</title>
<g id="a_node4"><a xlink:href="GNSSConstellation_8h.html" target="_top" xlink:title=" ">
<polygon fill="white" stroke="black" points="583,-56.5 583,-75.5 700,-75.5 700,-56.5 583,-56.5"/>
<text text-anchor="middle" x="641.5" y="-63.5" font-family="Helvetica,sans-Serif" font-size="10.00">GNSSConstellation.h</text>
</a>
</g>
</g>
<!-- Node2&#45;&gt;Node4 -->
<g id="edge3" class="edge">
<title>Node2&#45;&gt;Node4</title>
<path fill="none" stroke="midnightblue" d="M577.22,-106.9C593.17,-97 614,-84.07 627.56,-75.65"/>
<polygon fill="midnightblue" stroke="midnightblue" points="575.13,-104.08 568.48,-112.32 578.82,-110.02 575.13,-104.08"/>
</g>
<!-- Node6 -->
<g id="node6" class="node">
<title>Node6</title>
<g id="a_node6"><a xlink:href="ExampleConstellations_8cpp.html" target="_top" xlink:title="Setup GNSS Constellation.">
<polygon fill="white" stroke="black" points="644,-0.5 644,-19.5 793,-19.5 793,-0.5 644,-0.5"/>
<text text-anchor="middle" x="718.5" y="-7.5" font-family="Helvetica,sans-Serif" font-size="10.00">ExampleConstellations.cpp</text>
</a>
</g>
</g>
<!-- Node2&#45;&gt;Node6 -->
<g id="edge17" class="edge">
<title>Node2&#45;&gt;Node6</title>
<path fill="none" stroke="midnightblue" d="M591.66,-121.04C627.44,-118.93 680.31,-109.76 709.5,-76 723.21,-60.14 721.86,-33.5 720.02,-19.77"/>
<polygon fill="midnightblue" stroke="midnightblue" points="591.44,-117.55 581.6,-121.48 591.74,-124.54 591.44,-117.55"/>
</g>
<!-- Node2&#45;&gt;Node7 -->
<g id="edge18" class="edge">
<title>Node2&#45;&gt;Node7</title>
<path fill="none" stroke="midnightblue" d="M517.07,-119.93C409,-116.53 101.98,-104.42 67.5,-76 50.62,-62.09 48.24,-34.08 48.2,-19.8"/>
<polygon fill="midnightblue" stroke="midnightblue" points="517.08,-123.44 527.19,-120.25 517.3,-116.44 517.08,-123.44"/>
</g>
<!-- Node2&#45;&gt;Node8 -->
<g id="edge19" class="edge">
<title>Node2&#45;&gt;Node8</title>
<path fill="none" stroke="midnightblue" d="M591.52,-113.37C626.94,-105.61 681.62,-92.4 727.5,-76 774.2,-59.31 826.61,-33.03 852.4,-19.57"/>
<polygon fill="midnightblue" stroke="midnightblue" points="590.66,-109.98 581.62,-115.51 592.13,-116.82 590.66,-109.98"/>
</g>
<!-- Node9 -->
<g id="node9" class="node">
<title>Node9</title>
<g id="a_node9"><a xlink:href="ExamplePropagation_8cpp.html" target="_top" xlink:title="Example propagating both GPS constellation and Lunar Satellite.">
<polygon fill="white" stroke="black" points="341.5,-0.5 341.5,-19.5 479.5,-19.5 479.5,-0.5 341.5,-0.5"/>
<text text-anchor="middle" x="410.5" y="-7.5" font-family="Helvetica,sans-Serif" font-size="10.00">ExamplePropagation.cpp</text>
</a>
</g>
</g>
<!-- Node2&#45;&gt;Node9 -->
<g id="edge20" class="edge">
<title>Node2&#45;&gt;Node9</title>
<path fill="none" stroke="midnightblue" d="M553.48,-102C551.74,-87.67 547.2,-68.43 535.5,-56 517.56,-36.93 490.96,-25.93 466.9,-19.58"/>
<polygon fill="midnightblue" stroke="midnightblue" points="550.01,-102.54 554.35,-112.21 556.98,-101.94 550.01,-102.54"/>
</g>
<!-- Node10 -->
<g id="node10" class="node">
<title>Node10</title>
<g id="a_node10"><a xlink:href="GNSSStateEstimationApp_8h.html" target="_top" xlink:title="State Estimation Application Using GNSS Measurement.">
<polygon fill="white" stroke="black" points="794,-56.5 794,-75.5 943,-75.5 943,-56.5 794,-56.5"/>
<text text-anchor="middle" x="868.5" y="-63.5" font-family="Helvetica,sans-Serif" font-size="10.00">GNSSStateEstimationApp.h</text>
</a>
</g>
</g>
<!-- Node2&#45;&gt;Node10 -->
<g id="edge9" class="edge">
<title>Node2&#45;&gt;Node10</title>
<path fill="none" stroke="midnightblue" d="M591.47,-114.64C647.95,-104.93 755.82,-86.38 819,-75.51"/>
<polygon fill="midnightblue" stroke="midnightblue" points="590.81,-111.2 581.54,-116.35 591.99,-118.1 590.81,-111.2"/>
</g>
<!-- Node12 -->
<g id="node12" class="node">
<title>Node12</title>
<g id="a_node12"><a xlink:href="StateEstimationApp_8h.html" target="_top" xlink:title="Base class for State Estimation Application.">
<polygon fill="white" stroke="black" points="961.5,-56.5 961.5,-75.5 1083.5,-75.5 1083.5,-56.5 961.5,-56.5"/>
<text text-anchor="middle" x="1022.5" y="-63.5" font-family="Helvetica,sans-Serif" font-size="10.00">StateEstimationApp.h</text>
</a>
</g>
</g>
<!-- Node2&#45;&gt;Node12 -->
<g id="edge12" class="edge">
<title>Node2&#45;&gt;Node12</title>
<path fill="none" stroke="midnightblue" d="M591.68,-116.99C662.13,-109.34 819.86,-92.02 952.5,-76 955.42,-75.65 958.41,-75.28 961.42,-74.91"/>
<polygon fill="midnightblue" stroke="midnightblue" points="591.11,-113.53 581.54,-118.09 591.86,-120.49 591.11,-113.53"/>
</g>
<!-- Node14 -->
<g id="node14" class="node">
<title>Node14</title>
<g id="a_node14"><a xlink:href="GNSSChannel_8cpp.html" target="_top" xlink:title="GNSS Channel.">
<polygon fill="white" stroke="black" points="76.5,-56.5 76.5,-75.5 180.5,-75.5 180.5,-56.5 76.5,-56.5"/>
<text text-anchor="middle" x="128.5" y="-63.5" font-family="Helvetica,sans-Serif" font-size="10.00">GNSSChannel.cpp</text>
</a>
</g>
</g>
<!-- Node2&#45;&gt;Node14 -->
<g id="edge14" class="edge">
<title>Node2&#45;&gt;Node14</title>
<path fill="none" stroke="midnightblue" d="M517.13,-116.69C451.01,-109 309.07,-92.19 189.5,-76 186.64,-75.61 183.7,-75.21 180.73,-74.79"/>
<polygon fill="midnightblue" stroke="midnightblue" points="517.12,-120.21 527.46,-117.89 517.93,-113.26 517.12,-120.21"/>
</g>
<!-- Node15 -->
<g id="node15" class="node">
<title>Node15</title>
<g id="a_node15"><a xlink:href="GNSSTransmitter_8cpp.html" target="_top" xlink:title="Handles GNSS transmit.">
<polygon fill="white" stroke="black" points="199,-56.5 199,-75.5 318,-75.5 318,-56.5 199,-56.5"/>
<text text-anchor="middle" x="258.5" y="-63.5" font-family="Helvetica,sans-Serif" font-size="10.00">GNSSTransmitter.cpp</text>
</a>
</g>
</g>
<!-- Node2&#45;&gt;Node15 -->
<g id="edge15" class="edge">
<title>Node2&#45;&gt;Node15</title>
<path fill="none" stroke="midnightblue" d="M517.31,-114.22C463.45,-104.39 363.78,-86.21 305.09,-75.5"/>
<polygon fill="midnightblue" stroke="midnightblue" points="516.98,-117.71 527.45,-116.06 518.24,-110.83 516.98,-117.71"/>
</g>
<!-- Node16 -->
<g id="node16" class="node">
<title>Node16</title>
<g id="a_node16"><a xlink:href="SpaceChannel_8cpp.html" target="_top" xlink:title="Base spacechannel class (Under devlopment )">
<polygon fill="white" stroke="black" points="336.5,-56.5 336.5,-75.5 442.5,-75.5 442.5,-56.5 336.5,-56.5"/>
<text text-anchor="middle" x="389.5" y="-63.5" font-family="Helvetica,sans-Serif" font-size="10.00">SpaceChannel.cpp</text>
</a>
</g>
</g>
<!-- Node2&#45;&gt;Node16 -->
<g id="edge16" class="edge">
<title>Node2&#45;&gt;Node16</title>
<path fill="none" stroke="midnightblue" d="M518.76,-109.3C487.67,-99.13 443.35,-84.62 415.52,-75.52"/>
<polygon fill="midnightblue" stroke="midnightblue" points="517.76,-112.66 528.36,-112.44 519.94,-106.01 517.76,-112.66"/>
</g>
<!-- Node5 -->
<g id="node5" class="node">
<title>Node5</title>
<g id="a_node5"><a xlink:href="GNSSConstellation_8cpp.html" target="_top" xlink:title="GNSS Constellation.">
<polygon fill="white" stroke="black" points="497.5,-0.5 497.5,-19.5 625.5,-19.5 625.5,-0.5 497.5,-0.5"/>
<text text-anchor="middle" x="561.5" y="-7.5" font-family="Helvetica,sans-Serif" font-size="10.00">GNSSConstellation.cpp</text>
</a>
</g>
</g>
<!-- Node4&#45;&gt;Node5 -->
<g id="edge4" class="edge">
<title>Node4&#45;&gt;Node5</title>
<path fill="none" stroke="midnightblue" d="M620.2,-50.62C605.58,-40.76 586.67,-27.99 574.32,-19.65"/>
<polygon fill="midnightblue" stroke="midnightblue" points="618.4,-53.63 628.65,-56.32 622.32,-47.83 618.4,-53.63"/>
</g>
<!-- Node4&#45;&gt;Node6 -->
<g id="edge5" class="edge">
<title>Node4&#45;&gt;Node6</title>
<path fill="none" stroke="midnightblue" d="M662.4,-50.34C676.41,-40.52 694.38,-27.91 706.16,-19.65"/>
<polygon fill="midnightblue" stroke="midnightblue" points="660.05,-47.72 653.87,-56.32 664.07,-53.45 660.05,-47.72"/>
</g>
<!-- Node4&#45;&gt;Node7 -->
<g id="edge6" class="edge">
<title>Node4&#45;&gt;Node7</title>
<path fill="none" stroke="midnightblue" d="M572.46,-58.71C451.1,-47.66 202.4,-25.01 97.21,-15.44"/>
<polygon fill="midnightblue" stroke="midnightblue" points="572.47,-62.23 582.75,-59.65 573.1,-55.26 572.47,-62.23"/>
</g>
<!-- Node4&#45;&gt;Node8 -->
<g id="edge7" class="edge">
<title>Node4&#45;&gt;Node8</title>
<path fill="none" stroke="midnightblue" d="M687.37,-54.09C730.25,-43.89 793.42,-28.86 832.7,-19.52"/>
<polygon fill="midnightblue" stroke="midnightblue" points="686.39,-50.72 677.47,-56.44 688.01,-57.53 686.39,-50.72"/>
</g>
<!-- Node4&#45;&gt;Node9 -->
<g id="edge8" class="edge">
<title>Node4&#45;&gt;Node9</title>
<path fill="none" stroke="midnightblue" d="M595.1,-54.15C551.45,-43.95 486.99,-28.88 446.93,-19.52"/>
<polygon fill="midnightblue" stroke="midnightblue" points="594.36,-57.58 604.9,-56.44 595.96,-50.76 594.36,-57.58"/>
</g>
<!-- Node10&#45;&gt;Node8 -->
<g id="edge11" class="edge">
<title>Node10&#45;&gt;Node8</title>
<path fill="none" stroke="midnightblue" d="M868.5,-45.8C868.5,-36.91 868.5,-26.78 868.5,-19.75"/>
<polygon fill="midnightblue" stroke="midnightblue" points="865,-46.08 868.5,-56.08 872,-46.08 865,-46.08"/>
</g>
<!-- Node11 -->
<g id="node11" class="node">
<title>Node11</title>
<g id="a_node11"><a xlink:href="GNSSStateEstimationApp_8cpp.html" target="_top" xlink:title="State Estimation Application Using GNSS Measurement.">
<polygon fill="white" stroke="black" points="945,-0.5 945,-19.5 1106,-19.5 1106,-0.5 945,-0.5"/>
<text text-anchor="middle" x="1025.5" y="-7.5" font-family="Helvetica,sans-Serif" font-size="10.00">GNSSStateEstimationApp.cpp</text>
</a>
</g>
</g>
<!-- Node10&#45;&gt;Node11 -->
<g id="edge10" class="edge">
<title>Node10&#45;&gt;Node11</title>
<path fill="none" stroke="midnightblue" d="M902.89,-53.17C932.45,-43 974.37,-28.59 1000.74,-19.52"/>
<polygon fill="midnightblue" stroke="midnightblue" points="901.7,-49.88 893.38,-56.44 903.97,-56.5 901.7,-49.88"/>
</g>
<!-- Node13 -->
<g id="node13" class="node">
<title>Node13</title>
<g id="a_node13"><a xlink:href="StateEstimationApp_8cpp.html" target="_top" xlink:title="Base class for State Estimation Application.">
<polygon fill="white" stroke="black" points="1124.5,-0.5 1124.5,-19.5 1258.5,-19.5 1258.5,-0.5 1124.5,-0.5"/>
<text text-anchor="middle" x="1191.5" y="-7.5" font-family="Helvetica,sans-Serif" font-size="10.00">StateEstimationApp.cpp</text>
</a>
</g>
</g>
<!-- Node12&#45;&gt;Node13 -->
<g id="edge13" class="edge">
<title>Node12&#45;&gt;Node13</title>
<path fill="none" stroke="midnightblue" d="M1059.1,-53.3C1090.95,-43.13 1136.34,-28.62 1164.85,-19.52"/>
<polygon fill="midnightblue" stroke="midnightblue" points="1057.74,-50.07 1049.28,-56.44 1059.87,-56.73 1057.74,-50.07"/>
</g>
</g>
</svg>
