<?xml version="1.0" encoding="UTF-8" standalone="no"?>
<!DOCTYPE svg PUBLIC "-//W3C//DTD SVG 1.1//EN"
 "http://www.w3.org/Graphics/SVG/1.1/DTD/svg11.dtd">
<!-- Generated by graphviz version 2.43.0 (0)
 -->
<!-- Title: CommDevice.h Pages: 1 -->
<!--zoomable 196 -->
<svg id="main" version="1.1" xmlns="http://www.w3.org/2000/svg" xmlns:xlink="http://www.w3.org/1999/xlink" xml:space="preserve" onload="init(evt)">
<style type="text/css"><![CDATA[
.edge:hover path { stroke: red; }
.edge:hover polygon { stroke: red; fill: red; }
]]></style>
<script type="text/javascript"><![CDATA[
var edges = document.getElementsByTagName('g');
if (edges && edges.length) {
  for (var i=0;i<edges.length;i++) {
    if (edges[i].id.substr(0,4)=='edge') {
      edges[i].setAttribute('class','edge');
    }
  }
}
]]></script>
        <defs>
                <circle id="rim" cx="0" cy="0" r="7"/>
                <circle id="rim2" cx="0" cy="0" r="3.5"/>
                <g id="zoomPlus">
                        <use xlink:href="#rim" fill="#404040">
                                <set attributeName="fill" to="#808080" begin="zoomplus.mouseover" end="zoomplus.mouseout"/>
                        </use>
                        <path d="M-4,0h8M0,-4v8" fill="none" stroke="white" stroke-width="1.5" pointer-events="none"/>
                </g>
                <g id="zoomMin">
                        <use xlink:href="#rim" fill="#404040">
                                <set attributeName="fill" to="#808080" begin="zoomminus.mouseover" end="zoomminus.mouseout"/>
                        </use>
                        <path d="M-4,0h8" fill="none" stroke="white" stroke-width="1.5" pointer-events="none"/>
                </g>
                <g id="dirArrow">
                        <path fill="none" stroke="white" stroke-width="1.5" d="M0,-3.0v7 M-2.5,-0.5L0,-3.0L2.5,-0.5"/>
                </g>
               <g id="resetDef">
                       <use xlink:href="#rim2" fill="#404040">
                               <set attributeName="fill" to="#808080" begin="reset.mouseover" end="reset.mouseout"/>
                       </use>
               </g>
        </defs>

<script type="text/javascript">
var viewWidth = 1340;
var viewHeight = 196;
var sectionId = 'dynsection-1';
</script>
<script xlink:href="svgpan.js"/>
<svg id="graph" class="graph">
<g id="viewport">
<title>CommDevice.h</title>
<polygon fill="white" stroke="transparent" points="-4,4 -4,-192 1335.5,-192 1335.5,4 -4,4"/>
<!-- Node1 -->
<g id="node1" class="node">
<title>Node1</title>
<g id="a_node1"><a xlink:title="Communication devices.">
<polygon fill="#bfbfbf" stroke="black" points="754.5,-168.5 754.5,-187.5 846.5,-187.5 846.5,-168.5 754.5,-168.5"/>
<text text-anchor="middle" x="800.5" y="-175.5" font-family="Helvetica,sans-Serif" font-size="10.00">CommDevice.h</text>
</a>
</g>
</g>
<!-- Node2 -->
<g id="node2" class="node">
<title>Node2</title>
<g id="a_node2"><a xlink:href="Agent_8h.html" target="_top" xlink:title="List of agents.">
<polygon fill="white" stroke="black" points="434.5,-112.5 434.5,-131.5 488.5,-131.5 488.5,-112.5 434.5,-112.5"/>
<text text-anchor="middle" x="461.5" y="-119.5" font-family="Helvetica,sans-Serif" font-size="10.00">Agent.h</text>
</a>
</g>
</g>
<!-- Node1&#45;&gt;Node2 -->
<g id="edge1" class="edge">
<title>Node1&#45;&gt;Node2</title>
<path fill="none" stroke="midnightblue" d="M744.39,-168.06C670.68,-156.32 544.11,-136.16 488.76,-127.34"/>
<polygon fill="midnightblue" stroke="midnightblue" points="744,-171.54 754.43,-169.66 745.1,-164.63 744,-171.54"/>
</g>
<!-- Node10 -->
<g id="node10" class="node">
<title>Node10</title>
<g id="a_node10"><a xlink:href="GNSSStateEstimationApp_8h.html" target="_top" xlink:title="State Estimation Application Using GNSS Measurement.">
<polygon fill="white" stroke="black" points="1030,-56.5 1030,-75.5 1179,-75.5 1179,-56.5 1030,-56.5"/>
<text text-anchor="middle" x="1104.5" y="-63.5" font-family="Helvetica,sans-Serif" font-size="10.00">GNSSStateEstimationApp.h</text>
</a>
</g>
</g>
<!-- Node1&#45;&gt;Node10 -->
<g id="edge21" class="edge">
<title>Node1&#45;&gt;Node10</title>
<path fill="none" stroke="midnightblue" d="M833.76,-164.97C895.6,-142.59 1026.87,-95.09 1080.7,-75.61"/>
<polygon fill="midnightblue" stroke="midnightblue" points="832.31,-161.77 824.1,-168.46 834.7,-168.35 832.31,-161.77"/>
</g>
<!-- Node12 -->
<g id="node12" class="node">
<title>Node12</title>
<g id="a_node12"><a xlink:href="StateEstimationApp_8h.html" target="_top" xlink:title="Base class for State Estimation Application.">
<polygon fill="white" stroke="black" points="1197.5,-56.5 1197.5,-75.5 1319.5,-75.5 1319.5,-56.5 1197.5,-56.5"/>
<text text-anchor="middle" x="1258.5" y="-63.5" font-family="Helvetica,sans-Serif" font-size="10.00">StateEstimationApp.h</text>
</a>
</g>
</g>
<!-- Node1&#45;&gt;Node12 -->
<g id="edge22" class="edge">
<title>Node1&#45;&gt;Node12</title>
<path fill="none" stroke="midnightblue" d="M845.82,-166.12C936.94,-144.23 1140.64,-95.31 1222.97,-75.53"/>
<polygon fill="midnightblue" stroke="midnightblue" points="844.96,-162.72 836.06,-168.46 846.6,-169.53 844.96,-162.72"/>
</g>
<!-- Node16 -->
<g id="node16" class="node">
<title>Node16</title>
<g id="a_node16"><a xlink:href="SpaceChannel_8cpp.html" target="_top" xlink:title="Base spacechannel class (Under devlopment )">
<polygon fill="white" stroke="black" points="630.5,-56.5 630.5,-75.5 736.5,-75.5 736.5,-56.5 630.5,-56.5"/>
<text text-anchor="middle" x="683.5" y="-63.5" font-family="Helvetica,sans-Serif" font-size="10.00">SpaceChannel.cpp</text>
</a>
</g>
</g>
<!-- Node1&#45;&gt;Node16 -->
<g id="edge36" class="edge">
<title>Node1&#45;&gt;Node16</title>
<path fill="none" stroke="midnightblue" d="M784.03,-161.51C759.03,-138.01 712.33,-94.11 692.64,-75.59"/>
<polygon fill="midnightblue" stroke="midnightblue" points="781.64,-164.07 791.32,-168.37 786.43,-158.97 781.64,-164.07"/>
</g>
<!-- Node17 -->
<g id="node17" class="node">
<title>Node17</title>
<g id="a_node17"><a xlink:href="GNSSReceiver_8h.html" target="_top" xlink:title="GNSS receiver class.">
<polygon fill="white" stroke="black" points="793,-112.5 793,-131.5 888,-131.5 888,-112.5 793,-112.5"/>
<text text-anchor="middle" x="840.5" y="-119.5" font-family="Helvetica,sans-Serif" font-size="10.00">GNSSReceiver.h</text>
</a>
</g>
</g>
<!-- Node1&#45;&gt;Node17 -->
<g id="edge23" class="edge">
<title>Node1&#45;&gt;Node17</title>
<path fill="none" stroke="midnightblue" d="M813.2,-159.86C820.13,-150.5 828.41,-139.33 834.02,-131.75"/>
<polygon fill="midnightblue" stroke="midnightblue" points="810.25,-157.96 807.11,-168.08 815.87,-162.13 810.25,-157.96"/>
</g>
<!-- Node19 -->
<g id="node19" class="node">
<title>Node19</title>
<g id="a_node19"><a xlink:href="GNSSTransmitter_8h.html" target="_top" xlink:title="Handles GNSS transmit.">
<polygon fill="white" stroke="black" points="236,-112.5 236,-131.5 343,-131.5 343,-112.5 236,-112.5"/>
<text text-anchor="middle" x="289.5" y="-119.5" font-family="Helvetica,sans-Serif" font-size="10.00">GNSSTransmitter.h</text>
</a>
</g>
</g>
<!-- Node1&#45;&gt;Node19 -->
<g id="edge32" class="edge">
<title>Node1&#45;&gt;Node19</title>
<path fill="none" stroke="midnightblue" d="M744.13,-171.04C644.94,-160.56 440.54,-138.96 343.25,-128.68"/>
<polygon fill="midnightblue" stroke="midnightblue" points="743.94,-174.54 754.25,-172.11 744.67,-167.58 743.94,-174.54"/>
</g>
<!-- Node3 -->
<g id="node3" class="node">
<title>Node3</title>
<g id="a_node3"><a xlink:href="Agent_8cpp.html" target="_top" xlink:title="Base class fo.">
<polygon fill="white" stroke="black" points="311,-56.5 311,-75.5 376,-75.5 376,-56.5 311,-56.5"/>
<text text-anchor="middle" x="343.5" y="-63.5" font-family="Helvetica,sans-Serif" font-size="10.00">Agent.cpp</text>
</a>
</g>
</g>
<!-- Node2&#45;&gt;Node3 -->
<g id="edge2" class="edge">
<title>Node2&#45;&gt;Node3</title>
<path fill="none" stroke="midnightblue" d="M433.6,-108.23C411.53,-98.13 381.32,-84.31 362.11,-75.52"/>
<polygon fill="midnightblue" stroke="midnightblue" points="432.25,-111.46 442.8,-112.44 435.17,-105.1 432.25,-111.46"/>
</g>
<!-- Node4 -->
<g id="node4" class="node">
<title>Node4</title>
<g id="a_node4"><a xlink:href="GNSSConstellation_8h.html" target="_top" xlink:title=" ">
<polygon fill="white" stroke="black" points="176,-56.5 176,-75.5 293,-75.5 293,-56.5 176,-56.5"/>
<text text-anchor="middle" x="234.5" y="-63.5" font-family="Helvetica,sans-Serif" font-size="10.00">GNSSConstellation.h</text>
</a>
</g>
</g>
<!-- Node2&#45;&gt;Node4 -->
<g id="edge3" class="edge">
<title>Node2&#45;&gt;Node4</title>
<path fill="none" stroke="midnightblue" d="M424.17,-112.12C381.63,-102 312.59,-85.58 270.58,-75.58"/>
<polygon fill="midnightblue" stroke="midnightblue" points="423.58,-115.58 434.12,-114.49 425.2,-108.77 423.58,-115.58"/>
</g>
<!-- Node6 -->
<g id="node6" class="node">
<title>Node6</title>
<g id="a_node6"><a xlink:href="ExampleConstellations_8cpp.html" target="_top" xlink:title="Setup GNSS Constellation.">
<polygon fill="white" stroke="black" points="504,-0.5 504,-19.5 653,-19.5 653,-0.5 504,-0.5"/>
<text text-anchor="middle" x="578.5" y="-7.5" font-family="Helvetica,sans-Serif" font-size="10.00">ExampleConstellations.cpp</text>
</a>
</g>
</g>
<!-- Node2&#45;&gt;Node6 -->
<g id="edge17" class="edge">
<title>Node2&#45;&gt;Node6</title>
<path fill="none" stroke="midnightblue" d="M458.04,-102.46C456.48,-88.38 456.78,-69.25 466.5,-56 480.5,-36.9 503.97,-25.9 525.81,-19.56"/>
<polygon fill="midnightblue" stroke="midnightblue" points="454.59,-103.08 459.54,-112.45 461.51,-102.04 454.59,-103.08"/>
</g>
<!-- Node7 -->
<g id="node7" class="node">
<title>Node7</title>
<g id="a_node7"><a xlink:href="ExampleEKF_8cpp.html" target="_top" xlink:title="Example of Extended Kalman Filter for orbit determination.">
<polygon fill="white" stroke="black" points="86,-0.5 86,-19.5 183,-19.5 183,-0.5 86,-0.5"/>
<text text-anchor="middle" x="134.5" y="-7.5" font-family="Helvetica,sans-Serif" font-size="10.00">ExampleEKF.cpp</text>
</a>
</g>
</g>
<!-- Node2&#45;&gt;Node7 -->
<g id="edge18" class="edge">
<title>Node2&#45;&gt;Node7</title>
<path fill="none" stroke="midnightblue" d="M423.98,-117.23C349.2,-109.43 186.99,-91.01 166.5,-76 147.63,-62.17 139.29,-34.12 136.14,-19.82"/>
<polygon fill="midnightblue" stroke="midnightblue" points="424.04,-120.75 434.35,-118.3 424.76,-113.79 424.04,-120.75"/>
</g>
<!-- Node8 -->
<g id="node8" class="node">
<title>Node8</title>
<g id="a_node8"><a xlink:href="ExampleEKFApp_8cpp.html" target="_top" xlink:title="Example of EKF application.">
<polygon fill="white" stroke="black" points="774.5,-0.5 774.5,-19.5 890.5,-19.5 890.5,-0.5 774.5,-0.5"/>
<text text-anchor="middle" x="832.5" y="-7.5" font-family="Helvetica,sans-Serif" font-size="10.00">ExampleEKFApp.cpp</text>
</a>
</g>
</g>
<!-- Node2&#45;&gt;Node8 -->
<g id="edge19" class="edge">
<title>Node2&#45;&gt;Node8</title>
<path fill="none" stroke="midnightblue" d="M467.3,-102.29C472.99,-87.23 483.22,-66.85 499.5,-56 543.37,-26.75 691.29,-16.37 774.47,-12.8"/>
<polygon fill="midnightblue" stroke="midnightblue" points="463.86,-101.51 463.93,-112.1 470.49,-103.78 463.86,-101.51"/>
</g>
<!-- Node9 -->
<g id="node9" class="node">
<title>Node9</title>
<g id="a_node9"><a xlink:href="ExamplePropagation_8cpp.html" target="_top" xlink:title="Example propagating both GPS constellation and Lunar Satellite.">
<polygon fill="white" stroke="black" points="347.5,-0.5 347.5,-19.5 485.5,-19.5 485.5,-0.5 347.5,-0.5"/>
<text text-anchor="middle" x="416.5" y="-7.5" font-family="Helvetica,sans-Serif" font-size="10.00">ExamplePropagation.cpp</text>
</a>
</g>
</g>
<!-- Node2&#45;&gt;Node9 -->
<g id="edge20" class="edge">
<title>Node2&#45;&gt;Node9</title>
<path fill="none" stroke="midnightblue" d="M446.69,-104.61C440.15,-96.53 432.96,-86.32 428.5,-76 420.31,-57.04 417.71,-32.61 416.88,-19.77"/>
<polygon fill="midnightblue" stroke="midnightblue" points="444.21,-107.1 453.36,-112.44 449.54,-102.56 444.21,-107.1"/>
</g>
<!-- Node2&#45;&gt;Node10 -->
<g id="edge9" class="edge">
<title>Node2&#45;&gt;Node10</title>
<path fill="none" stroke="midnightblue" d="M498.96,-117.85C602.18,-109.19 892.15,-84.83 1029.96,-73.26"/>
<polygon fill="midnightblue" stroke="midnightblue" points="498.39,-114.39 488.72,-118.71 498.98,-121.36 498.39,-114.39"/>
</g>
<!-- Node2&#45;&gt;Node12 -->
<g id="edge12" class="edge">
<title>Node2&#45;&gt;Node12</title>
<path fill="none" stroke="midnightblue" d="M498.93,-119.56C606.38,-115.23 925,-101.07 1188.5,-76 1191.43,-75.72 1194.42,-75.42 1197.44,-75.09"/>
<polygon fill="midnightblue" stroke="midnightblue" points="498.47,-116.07 488.62,-119.97 498.75,-123.07 498.47,-116.07"/>
</g>
<!-- Node14 -->
<g id="node14" class="node">
<title>Node14</title>
<g id="a_node14"><a xlink:href="GNSSChannel_8cpp.html" target="_top" xlink:title="GNSS Channel.">
<polygon fill="white" stroke="black" points="508.5,-56.5 508.5,-75.5 612.5,-75.5 612.5,-56.5 508.5,-56.5"/>
<text text-anchor="middle" x="560.5" y="-63.5" font-family="Helvetica,sans-Serif" font-size="10.00">GNSSChannel.cpp</text>
</a>
</g>
</g>
<!-- Node2&#45;&gt;Node14 -->
<g id="edge14" class="edge">
<title>Node2&#45;&gt;Node14</title>
<path fill="none" stroke="midnightblue" d="M486.34,-107.45C504.61,-97.48 528.92,-84.23 544.63,-75.65"/>
<polygon fill="midnightblue" stroke="midnightblue" points="484.51,-104.46 477.41,-112.32 487.86,-110.61 484.51,-104.46"/>
</g>
<!-- Node15 -->
<g id="node15" class="node">
<title>Node15</title>
<g id="a_node15"><a xlink:href="GNSSTransmitter_8cpp.html" target="_top" xlink:title="Handles GNSS transmit.">
<polygon fill="white" stroke="black" points="0,-56.5 0,-75.5 119,-75.5 119,-56.5 0,-56.5"/>
<text text-anchor="middle" x="59.5" y="-63.5" font-family="Helvetica,sans-Serif" font-size="10.00">GNSSTransmitter.cpp</text>
</a>
</g>
</g>
<!-- Node2&#45;&gt;Node15 -->
<g id="edge15" class="edge">
<title>Node2&#45;&gt;Node15</title>
<path fill="none" stroke="midnightblue" d="M424.43,-116.02C354.73,-106.66 203.59,-86.36 119.32,-75.04"/>
<polygon fill="midnightblue" stroke="midnightblue" points="424.12,-119.51 434.5,-117.37 425.05,-112.57 424.12,-119.51"/>
</g>
<!-- Node2&#45;&gt;Node16 -->
<g id="edge16" class="edge">
<title>Node2&#45;&gt;Node16</title>
<path fill="none" stroke="midnightblue" d="M498.48,-112C540.17,-101.86 607.46,-85.5 648.37,-75.55"/>
<polygon fill="midnightblue" stroke="midnightblue" points="497.61,-108.61 488.72,-114.38 499.27,-115.42 497.61,-108.61"/>
</g>
<!-- Node5 -->
<g id="node5" class="node">
<title>Node5</title>
<g id="a_node5"><a xlink:href="GNSSConstellation_8cpp.html" target="_top" xlink:title="GNSS Constellation.">
<polygon fill="white" stroke="black" points="201.5,-0.5 201.5,-19.5 329.5,-19.5 329.5,-0.5 201.5,-0.5"/>
<text text-anchor="middle" x="265.5" y="-7.5" font-family="Helvetica,sans-Serif" font-size="10.00">GNSSConstellation.cpp</text>
</a>
</g>
</g>
<!-- Node4&#45;&gt;Node5 -->
<g id="edge4" class="edge">
<title>Node4&#45;&gt;Node5</title>
<path fill="none" stroke="midnightblue" d="M244.68,-47.27C249.97,-38.05 256.22,-27.17 260.48,-19.75"/>
<polygon fill="midnightblue" stroke="midnightblue" points="241.56,-45.67 239.62,-56.08 247.63,-49.15 241.56,-45.67"/>
</g>
<!-- Node4&#45;&gt;Node6 -->
<g id="edge5" class="edge">
<title>Node4&#45;&gt;Node6</title>
<path fill="none" stroke="midnightblue" d="M299.14,-54.85C364.13,-44.65 463.21,-29.1 524.25,-19.52"/>
<polygon fill="midnightblue" stroke="midnightblue" points="298.34,-51.44 289.01,-56.44 299.43,-58.35 298.34,-51.44"/>
</g>
<!-- Node4&#45;&gt;Node7 -->
<g id="edge6" class="edge">
<title>Node4&#45;&gt;Node7</title>
<path fill="none" stroke="midnightblue" d="M209.41,-51.45C190.95,-41.48 166.4,-28.23 150.53,-19.65"/>
<polygon fill="midnightblue" stroke="midnightblue" points="207.97,-54.65 218.43,-56.32 211.3,-48.49 207.97,-54.65"/>
</g>
<!-- Node4&#45;&gt;Node8 -->
<g id="edge7" class="edge">
<title>Node4&#45;&gt;Node8</title>
<path fill="none" stroke="midnightblue" d="M303.33,-55.84C480.53,-36.66 678.27,-21.79 774.27,-15"/>
<polygon fill="midnightblue" stroke="midnightblue" points="302.87,-52.37 293.31,-56.93 303.63,-59.33 302.87,-52.37"/>
</g>
<!-- Node4&#45;&gt;Node9 -->
<g id="edge8" class="edge">
<title>Node4&#45;&gt;Node9</title>
<path fill="none" stroke="midnightblue" d="M273.03,-53.57C307.36,-43.38 356.83,-28.7 387.8,-19.52"/>
<polygon fill="midnightblue" stroke="midnightblue" points="271.93,-50.24 263.34,-56.44 273.92,-56.95 271.93,-50.24"/>
</g>
<!-- Node10&#45;&gt;Node8 -->
<g id="edge11" class="edge">
<title>Node10&#45;&gt;Node8</title>
<path fill="none" stroke="midnightblue" d="M1051.48,-54.47C1000.07,-44.27 923.06,-28.98 875.4,-19.52"/>
<polygon fill="midnightblue" stroke="midnightblue" points="1050.91,-57.93 1061.4,-56.44 1052.27,-51.06 1050.91,-57.93"/>
</g>
<!-- Node11 -->
<g id="node11" class="node">
<title>Node11</title>
<g id="a_node11"><a xlink:href="GNSSStateEstimationApp_8cpp.html" target="_top" xlink:title="State Estimation Application Using GNSS Measurement.">
<polygon fill="white" stroke="black" points="1018,-0.5 1018,-19.5 1179,-19.5 1179,-0.5 1018,-0.5"/>
<text text-anchor="middle" x="1098.5" y="-7.5" font-family="Helvetica,sans-Serif" font-size="10.00">GNSSStateEstimationApp.cpp</text>
</a>
</g>
</g>
<!-- Node10&#45;&gt;Node11 -->
<g id="edge10" class="edge">
<title>Node10&#45;&gt;Node11</title>
<path fill="none" stroke="midnightblue" d="M1102.4,-46.1C1101.4,-37.14 1100.26,-26.86 1099.47,-19.75"/>
<polygon fill="midnightblue" stroke="midnightblue" points="1098.93,-46.53 1103.51,-56.08 1105.88,-45.76 1098.93,-46.53"/>
</g>
<!-- Node13 -->
<g id="node13" class="node">
<title>Node13</title>
<g id="a_node13"><a xlink:href="StateEstimationApp_8cpp.html" target="_top" xlink:title="Base class for State Estimation Application.">
<polygon fill="white" stroke="black" points="1197.5,-0.5 1197.5,-19.5 1331.5,-19.5 1331.5,-0.5 1197.5,-0.5"/>
<text text-anchor="middle" x="1264.5" y="-7.5" font-family="Helvetica,sans-Serif" font-size="10.00">StateEstimationApp.cpp</text>
</a>
</g>
</g>
<!-- Node12&#45;&gt;Node13 -->
<g id="edge13" class="edge">
<title>Node12&#45;&gt;Node13</title>
<path fill="none" stroke="midnightblue" d="M1260.6,-46.1C1261.6,-37.14 1262.74,-26.86 1263.53,-19.75"/>
<polygon fill="midnightblue" stroke="midnightblue" points="1257.12,-45.76 1259.49,-56.08 1264.07,-46.53 1257.12,-45.76"/>
</g>
<!-- Node17&#45;&gt;Node6 -->
<g id="edge28" class="edge">
<title>Node17&#45;&gt;Node6</title>
<path fill="none" stroke="midnightblue" d="M838.56,-102.26C836.01,-87.48 830.11,-67.51 816.5,-56 792.22,-35.46 713.55,-23.49 653.24,-17.12"/>
<polygon fill="midnightblue" stroke="midnightblue" points="835.11,-102.88 839.93,-112.32 842.05,-101.94 835.11,-102.88"/>
</g>
<!-- Node17&#45;&gt;Node7 -->
<g id="edge29" class="edge">
<title>Node17&#45;&gt;Node7</title>
<path fill="none" stroke="midnightblue" d="M820.61,-106.56C795.28,-88.29 753.78,-58.86 745.5,-56 629.1,-15.8 314.91,-33.45 192.5,-20 189.46,-19.67 186.34,-19.29 183.19,-18.88"/>
<polygon fill="midnightblue" stroke="midnightblue" points="818.66,-109.47 828.82,-112.49 822.76,-103.79 818.66,-109.47"/>
</g>
<!-- Node17&#45;&gt;Node8 -->
<g id="edge30" class="edge">
<title>Node17&#45;&gt;Node8</title>
<path fill="none" stroke="midnightblue" d="M898.54,-114.92C948.66,-107.23 1009.27,-90.57 983.5,-56 962.25,-27.49 923.64,-16.33 890.78,-12.25"/>
<polygon fill="midnightblue" stroke="midnightblue" points="897.76,-111.5 888.37,-116.38 898.76,-118.42 897.76,-111.5"/>
</g>
<!-- Node17&#45;&gt;Node9 -->
<g id="edge31" class="edge">
<title>Node17&#45;&gt;Node9</title>
<path fill="none" stroke="midnightblue" d="M829.39,-103.91C818.43,-88.6 800.19,-66.92 778.5,-56 772.01,-52.73 588.83,-31.03 485.6,-19"/>
<polygon fill="midnightblue" stroke="midnightblue" points="826.71,-106.19 835.24,-112.47 832.49,-102.24 826.71,-106.19"/>
</g>
<!-- Node17&#45;&gt;Node10 -->
<g id="edge24" class="edge">
<title>Node17&#45;&gt;Node10</title>
<path fill="none" stroke="midnightblue" d="M892.28,-110.41C942.17,-100.2 1016.7,-84.96 1062.86,-75.52"/>
<polygon fill="midnightblue" stroke="midnightblue" points="891.43,-107.01 882.33,-112.44 892.83,-113.87 891.43,-107.01"/>
</g>
<!-- Node17&#45;&gt;Node12 -->
<g id="edge25" class="edge">
<title>Node17&#45;&gt;Node12</title>
<path fill="none" stroke="midnightblue" d="M898.26,-113.54C976.93,-103.37 1117.17,-85.26 1197.5,-74.88"/>
<polygon fill="midnightblue" stroke="midnightblue" points="897.51,-110.11 888.04,-114.86 898.41,-117.05 897.51,-110.11"/>
</g>
<!-- Node17&#45;&gt;Node14 -->
<g id="edge26" class="edge">
<title>Node17&#45;&gt;Node14</title>
<path fill="none" stroke="midnightblue" d="M786.25,-110.54C733.33,-100.33 653.83,-85 604.66,-75.52"/>
<polygon fill="midnightblue" stroke="midnightblue" points="785.65,-113.99 796.13,-112.44 786.98,-107.11 785.65,-113.99"/>
</g>
<!-- Node18 -->
<g id="node18" class="node">
<title>Node18</title>
<g id="a_node18"><a xlink:href="GNSSReceiver_8cpp.html" target="_top" xlink:title="GNSS Receiver class.">
<polygon fill="white" stroke="black" points="868.5,-56.5 868.5,-75.5 974.5,-75.5 974.5,-56.5 868.5,-56.5"/>
<text text-anchor="middle" x="921.5" y="-63.5" font-family="Helvetica,sans-Serif" font-size="10.00">GNSSReceiver.cpp</text>
</a>
</g>
</g>
<!-- Node17&#45;&gt;Node18 -->
<g id="edge27" class="edge">
<title>Node17&#45;&gt;Node18</title>
<path fill="none" stroke="midnightblue" d="M862.07,-106.62C876.86,-96.76 896.01,-83.99 908.52,-75.65"/>
<polygon fill="midnightblue" stroke="midnightblue" points="859.89,-103.86 853.51,-112.32 863.78,-109.69 859.89,-103.86"/>
</g>
<!-- Node19&#45;&gt;Node4 -->
<g id="edge33" class="edge">
<title>Node19&#45;&gt;Node4</title>
<path fill="none" stroke="midnightblue" d="M273.21,-105C263.46,-95.43 251.45,-83.64 243.41,-75.75"/>
<polygon fill="midnightblue" stroke="midnightblue" points="270.83,-107.57 280.42,-112.08 275.73,-102.58 270.83,-107.57"/>
</g>
<!-- Node19&#45;&gt;Node14 -->
<g id="edge34" class="edge">
<title>Node19&#45;&gt;Node14</title>
<path fill="none" stroke="midnightblue" d="M342.33,-110.47C393.54,-100.27 470.27,-84.98 517.76,-75.52"/>
<polygon fill="midnightblue" stroke="midnightblue" points="341.56,-107.06 332.44,-112.44 342.93,-113.92 341.56,-107.06"/>
</g>
<!-- Node19&#45;&gt;Node15 -->
<g id="edge35" class="edge">
<title>Node19&#45;&gt;Node15</title>
<path fill="none" stroke="midnightblue" d="M243.3,-110.15C199.84,-99.95 135.66,-84.88 95.77,-75.52"/>
<polygon fill="midnightblue" stroke="midnightblue" points="242.52,-113.57 253.06,-112.44 244.12,-106.75 242.52,-113.57"/>
</g>
</g>
</svg>
        <g id="navigator" transform="translate(0 0)" fill="#404254">
                <rect fill="#f2f5e9" fill-opacity="0.5" stroke="#606060" stroke-width=".5" x="0" y="0" width="60" height="60"/>
                <use id="zoomplus" xlink:href="#zoomPlus" x="17" y="9" onmousedown="handleZoom(evt,'in')"/>
                <use id="zoomminus" xlink:href="#zoomMin" x="42" y="9" onmousedown="handleZoom(evt,'out')"/>
                <use id="reset" xlink:href="#resetDef" x="30" y="36" onmousedown="handleReset()"/>
                <g id="arrowUp" xlink:href="#dirArrow" transform="translate(30 24)" onmousedown="handlePan(0,-1)">
                  <use xlink:href="#rim" fill="#404040">
                        <set attributeName="fill" to="#808080" begin="arrowUp.mouseover" end="arrowUp.mouseout"/>
                  </use>
                  <path fill="none" stroke="white" stroke-width="1.5" d="M0,-3.0v7 M-2.5,-0.5L0,-3.0L2.5,-0.5"/>
                </g>
                <g id="arrowRight" xlink:href="#dirArrow" transform="rotate(90) translate(36 -43)" onmousedown="handlePan(1,0)">
                  <use xlink:href="#rim" fill="#404040">
                        <set attributeName="fill" to="#808080" begin="arrowRight.mouseover" end="arrowRight.mouseout"/>
                  </use>
                  <path fill="none" stroke="white" stroke-width="1.5" d="M0,-3.0v7 M-2.5,-0.5L0,-3.0L2.5,-0.5"/>
                </g>
                <g id="arrowDown" xlink:href="#dirArrow" transform="rotate(180) translate(-30 -48)" onmousedown="handlePan(0,1)">
                  <use xlink:href="#rim" fill="#404040">
                        <set attributeName="fill" to="#808080" begin="arrowDown.mouseover" end="arrowDown.mouseout"/>
                  </use>
                  <path fill="none" stroke="white" stroke-width="1.5" d="M0,-3.0v7 M-2.5,-0.5L0,-3.0L2.5,-0.5"/>
                </g>
                <g id="arrowLeft" xlink:href="#dirArrow" transform="rotate(270) translate(-36 17)" onmousedown="handlePan(-1,0)">
                  <use xlink:href="#rim" fill="#404040">
                        <set attributeName="fill" to="#808080" begin="arrowLeft.mouseover" end="arrowLeft.mouseout"/>
                  </use>
                  <path fill="none" stroke="white" stroke-width="1.5" d="M0,-3.0v7 M-2.5,-0.5L0,-3.0L2.5,-0.5"/>
                </g>
        </g>
        <svg viewBox="0 0 15 15" width="100%" height="30px" preserveAspectRatio="xMaxYMin meet">
         <g id="arrow_out" transform="scale(0.3 0.3)">
          <a xlink:href="CommDevice_8h__dep__incl_org.svg" target="_base">
           <rect id="button" ry="5" rx="5" y="6" x="6" height="38" width="38"
                fill="#f2f5e9" fill-opacity="0.5" stroke="#606060" stroke-width="1.0"/>
           <path id="arrow"
             d="M 11.500037,31.436501 C 11.940474,20.09759 22.043105,11.32322 32.158766,21.979434 L 37.068811,17.246167 C 37.068811,17.246167 37.088388,32 37.088388,32 L 22.160133,31.978069 C 22.160133,31.978069 26.997745,27.140456 26.997745,27.140456 C 18.528582,18.264221 13.291696,25.230495 11.500037,31.436501 z"
             style="fill:#404040;"/>
          </a>
         </g>
        </svg>
</svg>
