<?xml version="1.0" encoding="UTF-8" standalone="no"?>
<!DOCTYPE svg PUBLIC "-//W3C//DTD SVG 1.1//EN"
 "http://www.w3.org/Graphics/SVG/1.1/DTD/svg11.dtd">
<!-- Generated by graphviz version 2.43.0 (0)
 -->
<!-- Title: CommDevice.h Pages: 1 -->
<!--zoomable 285 -->
<svg id="main" version="1.1" xmlns="http://www.w3.org/2000/svg" xmlns:xlink="http://www.w3.org/1999/xlink" xml:space="preserve" onload="init(evt)">
<style type="text/css"><![CDATA[
.edge:hover path { stroke: red; }
.edge:hover polygon { stroke: red; fill: red; }
]]></style>
<script type="text/javascript"><![CDATA[
var edges = document.getElementsByTagName('g');
if (edges && edges.length) {
  for (var i=0;i<edges.length;i++) {
    if (edges[i].id.substr(0,4)=='edge') {
      edges[i].setAttribute('class','edge');
    }
  }
}
]]></script>
        <defs>
                <circle id="rim" cx="0" cy="0" r="7"/>
                <circle id="rim2" cx="0" cy="0" r="3.5"/>
                <g id="zoomPlus">
                        <use xlink:href="#rim" fill="#404040">
                                <set attributeName="fill" to="#808080" begin="zoomplus.mouseover" end="zoomplus.mouseout"/>
                        </use>
                        <path d="M-4,0h8M0,-4v8" fill="none" stroke="white" stroke-width="1.5" pointer-events="none"/>
                </g>
                <g id="zoomMin">
                        <use xlink:href="#rim" fill="#404040">
                                <set attributeName="fill" to="#808080" begin="zoomminus.mouseover" end="zoomminus.mouseout"/>
                        </use>
                        <path d="M-4,0h8" fill="none" stroke="white" stroke-width="1.5" pointer-events="none"/>
                </g>
                <g id="dirArrow">
                        <path fill="none" stroke="white" stroke-width="1.5" d="M0,-3.0v7 M-2.5,-0.5L0,-3.0L2.5,-0.5"/>
                </g>
               <g id="resetDef">
                       <use xlink:href="#rim2" fill="#404040">
                               <set attributeName="fill" to="#808080" begin="reset.mouseover" end="reset.mouseout"/>
                       </use>
               </g>
        </defs>

<script type="text/javascript">
var viewWidth = 1364;
var viewHeight = 285;
var sectionId = 'dynsection-0';
</script>
<script xlink:href="svgpan.js"/>
<svg id="graph" class="graph">
<g id="viewport">
<title>CommDevice.h</title>
<polygon fill="white" stroke="transparent" points="-4,4 -4,-281 1360,-281 1360,4 -4,4"/>
<!-- Node1 -->
<g id="node1" class="node">
<title>Node1</title>
<g id="a_node1"><a xlink:title="Communication devices.">
<polygon fill="#bfbfbf" stroke="black" points="809,-257.5 809,-276.5 901,-276.5 901,-257.5 809,-257.5"/>
<text text-anchor="middle" x="855" y="-264.5" font-family="Helvetica,sans-Serif" font-size="10.00">CommDevice.h</text>
</a>
</g>
</g>
<!-- Node2 -->
<g id="node2" class="node">
<title>Node2</title>
<g id="a_node2"><a xlink:title=" ">
<polygon fill="white" stroke="#bfbfbf" points="423.5,-62 423.5,-81 560.5,-81 560.5,-62 423.5,-62"/>
<text text-anchor="middle" x="492" y="-69" font-family="Helvetica,sans-Serif" font-size="10.00">autodiff/forward/real.hpp</text>
</a>
</g>
</g>
<!-- Node1&#45;&gt;Node2 -->
<g id="edge1" class="edge">
<title>Node1&#45;&gt;Node2</title>
<path fill="none" stroke="midnightblue" d="M808.94,-259.81C714.87,-246.11 506.05,-209.94 465,-154 450.66,-134.45 465.44,-106.85 478.13,-89.31"/>
<polygon fill="midnightblue" stroke="midnightblue" points="481.08,-91.21 484.4,-81.16 475.53,-86.94 481.08,-91.21"/>
</g>
<!-- Node3 -->
<g id="node3" class="node">
<title>Node3</title>
<g id="a_node3"><a xlink:title=" ">
<polygon fill="white" stroke="#bfbfbf" points="693,-56.5 693,-86.5 809,-86.5 809,-56.5 693,-56.5"/>
<text text-anchor="start" x="701" y="-74.5" font-family="Helvetica,sans-Serif" font-size="10.00">autodiff/forward/real</text>
<text text-anchor="middle" x="751" y="-63.5" font-family="Helvetica,sans-Serif" font-size="10.00">/eigen.hpp</text>
</a>
</g>
</g>
<!-- Node1&#45;&gt;Node3 -->
<g id="edge2" class="edge">
<title>Node1&#45;&gt;Node3</title>
<path fill="none" stroke="midnightblue" d="M901.24,-261.09C1003.75,-248.51 1235.05,-209.83 1157,-123 1106.65,-66.99 894.39,-98.76 820,-87 819.78,-86.97 819.56,-86.93 819.34,-86.9"/>
<polygon fill="midnightblue" stroke="midnightblue" points="819.72,-83.41 809.27,-85.18 818.54,-90.31 819.72,-83.41"/>
</g>
<!-- Node4 -->
<g id="node4" class="node">
<title>Node4</title>
<g id="a_node4"><a xlink:title=" ">
<polygon fill="white" stroke="#bfbfbf" points="1242,-196 1242,-215 1280,-215 1280,-196 1242,-196"/>
<text text-anchor="middle" x="1261" y="-203" font-family="Helvetica,sans-Serif" font-size="10.00">map</text>
</a>
</g>
</g>
<!-- Node1&#45;&gt;Node4 -->
<g id="edge3" class="edge">
<title>Node1&#45;&gt;Node4</title>
<path fill="none" stroke="midnightblue" d="M901.19,-264.77C972.51,-261.91 1113.18,-252.41 1228,-221 1230.29,-220.37 1232.63,-219.61 1234.95,-218.77"/>
<polygon fill="midnightblue" stroke="midnightblue" points="1236.27,-222.01 1244.22,-215.01 1233.64,-215.53 1236.27,-222.01"/>
</g>
<!-- Node5 -->
<g id="node5" class="node">
<title>Node5</title>
<g id="a_node5"><a xlink:title=" ">
<polygon fill="white" stroke="#bfbfbf" points="1298,-196 1298,-215 1356,-215 1356,-196 1298,-196"/>
<text text-anchor="middle" x="1327" y="-203" font-family="Helvetica,sans-Serif" font-size="10.00">memory</text>
</a>
</g>
</g>
<!-- Node1&#45;&gt;Node5 -->
<g id="edge4" class="edge">
<title>Node1&#45;&gt;Node5</title>
<path fill="none" stroke="midnightblue" d="M901.27,-265.15C981.34,-262.81 1150.47,-254.01 1289,-221 1291.99,-220.29 1295.07,-219.4 1298.11,-218.41"/>
<polygon fill="midnightblue" stroke="midnightblue" points="1299.35,-221.69 1307.59,-215.03 1296.99,-215.09 1299.35,-221.69"/>
</g>
<!-- Node6 -->
<g id="node6" class="node">
<title>Node6</title>
<g id="a_node6"><a xlink:href="Antenna_8h.html" target="_top" xlink:title="Antenna class.">
<polygon fill="white" stroke="black" points="274,-190.5 274,-220.5 392,-220.5 392,-190.5 274,-190.5"/>
<text text-anchor="start" x="282" y="-208.5" font-family="Helvetica,sans-Serif" font-size="10.00">lupnt/measurements</text>
<text text-anchor="middle" x="333" y="-197.5" font-family="Helvetica,sans-Serif" font-size="10.00">/Antenna.h</text>
</a>
</g>
</g>
<!-- Node1&#45;&gt;Node6 -->
<g id="edge5" class="edge">
<title>Node1&#45;&gt;Node6</title>
<path fill="none" stroke="midnightblue" d="M808.93,-262.85C727.39,-256.96 552.45,-242.83 406,-221 404.74,-220.81 403.47,-220.62 402.2,-220.42"/>
<polygon fill="midnightblue" stroke="midnightblue" points="402.72,-216.96 392.28,-218.77 401.57,-223.86 402.72,-216.96"/>
</g>
<!-- Node14 -->
<g id="node14" class="node">
<title>Node14</title>
<g id="a_node14"><a xlink:href="Transmission_8h.html" target="_top" xlink:title="Signal transmission data.">
<polygon fill="white" stroke="black" points="690,-123.5 690,-153.5 808,-153.5 808,-123.5 690,-123.5"/>
<text text-anchor="start" x="698" y="-141.5" font-family="Helvetica,sans-Serif" font-size="10.00">lupnt/measurements</text>
<text text-anchor="middle" x="749" y="-130.5" font-family="Helvetica,sans-Serif" font-size="10.00">/Transmission.h</text>
</a>
</g>
</g>
<!-- Node1&#45;&gt;Node14 -->
<g id="edge18" class="edge">
<title>Node1&#45;&gt;Node14</title>
<path fill="none" stroke="midnightblue" d="M847.71,-257.31C831.37,-237.8 791.34,-190.03 767.58,-161.67"/>
<polygon fill="midnightblue" stroke="midnightblue" points="770.16,-159.3 761.06,-153.89 764.8,-163.8 770.16,-159.3"/>
</g>
<!-- Node16 -->
<g id="node16" class="node">
<title>Node16</title>
<g id="a_node16"><a xlink:href="MathUtils_8h.html" target="_top" xlink:title=" ">
<polygon fill="white" stroke="black" points="485.5,-129 485.5,-148 634.5,-148 634.5,-129 485.5,-129"/>
<text text-anchor="middle" x="560" y="-136" font-family="Helvetica,sans-Serif" font-size="10.00">lupnt/numerics/MathUtils.h</text>
</a>
</g>
</g>
<!-- Node1&#45;&gt;Node16 -->
<g id="edge23" class="edge">
<title>Node1&#45;&gt;Node16</title>
<path fill="none" stroke="midnightblue" d="M834.72,-257.31C783.55,-235.36 649,-177.67 589.28,-152.06"/>
<polygon fill="midnightblue" stroke="midnightblue" points="590.6,-148.81 580.03,-148.09 587.84,-155.25 590.6,-148.81"/>
</g>
<!-- Node18 -->
<g id="node18" class="node">
<title>Node18</title>
<g id="a_node18"><a xlink:href="OrbitState_8h.html" target="_top" xlink:title="Orbit states.">
<polygon fill="white" stroke="black" points="834.5,-196 834.5,-215 977.5,-215 977.5,-196 834.5,-196"/>
<text text-anchor="middle" x="906" y="-203" font-family="Helvetica,sans-Serif" font-size="10.00">lupnt/physics/OrbitState.h</text>
</a>
</g>
</g>
<!-- Node1&#45;&gt;Node18 -->
<g id="edge27" class="edge">
<title>Node1&#45;&gt;Node18</title>
<path fill="none" stroke="midnightblue" d="M862.31,-257.48C870.03,-248.46 882.41,-234.02 892.02,-222.81"/>
<polygon fill="midnightblue" stroke="midnightblue" points="894.86,-224.88 898.71,-215.01 889.54,-220.32 894.86,-224.88"/>
</g>
<!-- Node6&#45;&gt;Node2 -->
<g id="edge6" class="edge">
<title>Node6&#45;&gt;Node2</title>
<path fill="none" stroke="midnightblue" d="M343.48,-190.31C356.73,-173.02 380.86,-143.57 406,-123 424.09,-108.2 447.02,-94.97 464.65,-85.76"/>
<polygon fill="midnightblue" stroke="midnightblue" points="466.52,-88.74 473.83,-81.08 463.34,-82.5 466.52,-88.74"/>
</g>
<!-- Node6&#45;&gt;Node3 -->
<g id="edge7" class="edge">
<title>Node6&#45;&gt;Node3</title>
<path fill="none" stroke="midnightblue" d="M392.15,-203.87C456.53,-201.17 561.2,-190.81 643,-154 662.88,-145.06 663.71,-136.27 681,-123 694.43,-112.7 709.63,-101.65 722.43,-92.53"/>
<polygon fill="midnightblue" stroke="midnightblue" points="724.72,-95.2 730.85,-86.56 720.67,-89.49 724.72,-95.2"/>
</g>
<!-- Node7 -->
<g id="node7" class="node">
<title>Node7</title>
<g id="a_node7"><a xlink:title=" ">
<polygon fill="white" stroke="#bfbfbf" points="305,-0.5 305,-19.5 349,-19.5 349,-0.5 305,-0.5"/>
<text text-anchor="middle" x="327" y="-7.5" font-family="Helvetica,sans-Serif" font-size="10.00">string</text>
</a>
</g>
</g>
<!-- Node6&#45;&gt;Node7 -->
<g id="edge8" class="edge">
<title>Node6&#45;&gt;Node7</title>
<path fill="none" stroke="midnightblue" d="M273.81,-190.41C253.65,-182.79 232.76,-171.27 219,-154 200.1,-130.28 208.9,-117.19 206,-87 204.68,-73.29 198.14,-67.31 206,-56 225.82,-27.48 265.99,-17 294.6,-13.17"/>
<polygon fill="midnightblue" stroke="midnightblue" points="295.02,-16.64 304.56,-12.04 294.23,-9.69 295.02,-16.64"/>
</g>
<!-- Node8 -->
<g id="node8" class="node">
<title>Node8</title>
<g id="a_node8"><a xlink:href="Constants_8h.html" target="_top" xlink:title="List of constants.">
<polygon fill="white" stroke="black" points="228,-129 228,-148 354,-148 354,-129 228,-129"/>
<text text-anchor="middle" x="291" y="-136" font-family="Helvetica,sans-Serif" font-size="10.00">lupnt/core/Constants.h</text>
</a>
</g>
</g>
<!-- Node6&#45;&gt;Node8 -->
<g id="edge9" class="edge">
<title>Node6&#45;&gt;Node8</title>
<path fill="none" stroke="midnightblue" d="M323.89,-190.4C317.53,-180.56 309.01,-167.38 302.24,-156.89"/>
<polygon fill="midnightblue" stroke="midnightblue" points="304.98,-154.69 296.62,-148.19 299.11,-158.49 304.98,-154.69"/>
</g>
<!-- Node8&#45;&gt;Node2 -->
<g id="edge11" class="edge">
<title>Node8&#45;&gt;Node2</title>
<path fill="none" stroke="midnightblue" d="M317.69,-128.87C353.23,-117.38 416.21,-97.01 455.95,-84.16"/>
<polygon fill="midnightblue" stroke="midnightblue" points="457.08,-87.47 465.52,-81.06 454.93,-80.81 457.08,-87.47"/>
</g>
<!-- Node8&#45;&gt;Node7 -->
<g id="edge12" class="edge">
<title>Node8&#45;&gt;Node7</title>
<path fill="none" stroke="midnightblue" d="M319.06,-128.89C338.56,-121.27 363.1,-108.03 375,-87 381.78,-75.01 380.48,-68.64 375,-56 369.73,-43.84 359.38,-33.46 349.64,-25.74"/>
<polygon fill="midnightblue" stroke="midnightblue" points="351.5,-22.77 341.37,-19.67 347.36,-28.41 351.5,-22.77"/>
</g>
<!-- Node9 -->
<g id="node9" class="node">
<title>Node9</title>
<g id="a_node9"><a xlink:title=" ">
<polygon fill="white" stroke="#bfbfbf" points="215.5,-62 215.5,-81 366.5,-81 366.5,-62 215.5,-62"/>
<text text-anchor="middle" x="291" y="-69" font-family="Helvetica,sans-Serif" font-size="10.00">autodiff/common/eigen.hpp</text>
</a>
</g>
</g>
<!-- Node8&#45;&gt;Node9 -->
<g id="edge10" class="edge">
<title>Node8&#45;&gt;Node9</title>
<path fill="none" stroke="midnightblue" d="M291,-128.73C291,-119.18 291,-103.62 291,-91.28"/>
<polygon fill="midnightblue" stroke="midnightblue" points="294.5,-91.13 291,-81.13 287.5,-91.13 294.5,-91.13"/>
</g>
<!-- Node10 -->
<g id="node10" class="node">
<title>Node10</title>
<g id="a_node10"><a xlink:href="UserFilePath_8h.html" target="_top" xlink:title="File access utils.">
<polygon fill="white" stroke="black" points="73,-62 73,-81 159,-81 159,-62 73,-62"/>
<text text-anchor="middle" x="116" y="-69" font-family="Helvetica,sans-Serif" font-size="10.00">UserFilePath.h</text>
</a>
</g>
</g>
<!-- Node8&#45;&gt;Node10 -->
<g id="edge13" class="edge">
<title>Node8&#45;&gt;Node10</title>
<path fill="none" stroke="midnightblue" d="M267.76,-128.87C237.21,-117.52 183.37,-97.52 148.72,-84.65"/>
<polygon fill="midnightblue" stroke="midnightblue" points="149.65,-81.26 139.06,-81.06 147.21,-87.83 149.65,-81.26"/>
</g>
<!-- Node10&#45;&gt;Node7 -->
<g id="edge17" class="edge">
<title>Node10&#45;&gt;Node7</title>
<path fill="none" stroke="midnightblue" d="M146.23,-61.98C185.75,-50.83 254.67,-31.4 295.03,-20.01"/>
<polygon fill="midnightblue" stroke="midnightblue" points="296.21,-23.32 304.88,-17.24 294.31,-16.58 296.21,-23.32"/>
</g>
<!-- Node11 -->
<g id="node11" class="node">
<title>Node11</title>
<g id="a_node11"><a xlink:title=" ">
<polygon fill="white" stroke="#bfbfbf" points="0,-0.5 0,-19.5 68,-19.5 68,-0.5 0,-0.5"/>
<text text-anchor="middle" x="34" y="-7.5" font-family="Helvetica,sans-Serif" font-size="10.00">filesystem</text>
</a>
</g>
</g>
<!-- Node10&#45;&gt;Node11 -->
<g id="edge14" class="edge">
<title>Node10&#45;&gt;Node11</title>
<path fill="none" stroke="midnightblue" d="M104.25,-61.98C91.22,-52.52 69.96,-37.1 54.24,-25.69"/>
<polygon fill="midnightblue" stroke="midnightblue" points="55.88,-22.55 45.73,-19.51 51.77,-28.21 55.88,-22.55"/>
</g>
<!-- Node12 -->
<g id="node12" class="node">
<title>Node12</title>
<g id="a_node12"><a xlink:title=" ">
<polygon fill="white" stroke="#bfbfbf" points="86,-0.5 86,-19.5 146,-19.5 146,-0.5 86,-0.5"/>
<text text-anchor="middle" x="116" y="-7.5" font-family="Helvetica,sans-Serif" font-size="10.00">iostream</text>
</a>
</g>
</g>
<!-- Node10&#45;&gt;Node12 -->
<g id="edge15" class="edge">
<title>Node10&#45;&gt;Node12</title>
<path fill="none" stroke="midnightblue" d="M116,-61.98C116,-53.58 116,-40.48 116,-29.66"/>
<polygon fill="midnightblue" stroke="midnightblue" points="119.5,-29.51 116,-19.51 112.5,-29.51 119.5,-29.51"/>
</g>
<!-- Node13 -->
<g id="node13" class="node">
<title>Node13</title>
<g id="a_node13"><a xlink:title=" ">
<polygon fill="white" stroke="#bfbfbf" points="164,-0.5 164,-19.5 220,-19.5 220,-0.5 164,-0.5"/>
<text text-anchor="middle" x="192" y="-7.5" font-family="Helvetica,sans-Serif" font-size="10.00">optional</text>
</a>
</g>
</g>
<!-- Node10&#45;&gt;Node13 -->
<g id="edge16" class="edge">
<title>Node10&#45;&gt;Node13</title>
<path fill="none" stroke="midnightblue" d="M126.89,-61.98C138.97,-52.52 158.67,-37.1 173.24,-25.69"/>
<polygon fill="midnightblue" stroke="midnightblue" points="175.41,-28.43 181.13,-19.51 171.1,-22.92 175.41,-28.43"/>
</g>
<!-- Node14&#45;&gt;Node2 -->
<g id="edge20" class="edge">
<title>Node14&#45;&gt;Node2</title>
<path fill="none" stroke="midnightblue" d="M693.55,-123.48C646.18,-111.5 578.99,-94.5 535.45,-83.49"/>
<polygon fill="midnightblue" stroke="midnightblue" points="536.27,-80.09 525.72,-81.03 534.56,-86.87 536.27,-80.09"/>
</g>
<!-- Node14&#45;&gt;Node3 -->
<g id="edge21" class="edge">
<title>Node14&#45;&gt;Node3</title>
<path fill="none" stroke="midnightblue" d="M749.43,-123.4C749.67,-115.64 749.98,-105.81 750.25,-96.86"/>
<polygon fill="midnightblue" stroke="midnightblue" points="753.76,-96.68 750.57,-86.58 746.76,-96.46 753.76,-96.68"/>
</g>
<!-- Node14&#45;&gt;Node7 -->
<g id="edge22" class="edge">
<title>Node14&#45;&gt;Node7</title>
<path fill="none" stroke="midnightblue" d="M730.97,-123.39C701.81,-100.62 647.04,-58.11 642,-56 544.86,-15.34 417.71,-10.28 359.12,-10.35"/>
<polygon fill="midnightblue" stroke="midnightblue" points="358.98,-6.85 349,-10.42 359.02,-13.85 358.98,-6.85"/>
</g>
<!-- Node15 -->
<g id="node15" class="node">
<title>Node15</title>
<g id="a_node15"><a xlink:title=" ">
<polygon fill="white" stroke="#bfbfbf" points="1015.5,-62 1015.5,-81 1092.5,-81 1092.5,-62 1015.5,-62"/>
<text text-anchor="middle" x="1054" y="-69" font-family="Helvetica,sans-Serif" font-size="10.00">Eigen/Dense</text>
</a>
</g>
</g>
<!-- Node14&#45;&gt;Node15 -->
<g id="edge19" class="edge">
<title>Node14&#45;&gt;Node15</title>
<path fill="none" stroke="midnightblue" d="M808.17,-124.89C865.62,-112.65 951.78,-94.28 1005.36,-82.87"/>
<polygon fill="midnightblue" stroke="midnightblue" points="1006.24,-86.26 1015.29,-80.75 1004.78,-79.41 1006.24,-86.26"/>
</g>
<!-- Node16&#45;&gt;Node2 -->
<g id="edge24" class="edge">
<title>Node16&#45;&gt;Node2</title>
<path fill="none" stroke="midnightblue" d="M550.83,-128.73C540.02,-118.4 521.85,-101.04 508.56,-88.33"/>
<polygon fill="midnightblue" stroke="midnightblue" points="510.67,-85.51 501.03,-81.13 505.84,-90.57 510.67,-85.51"/>
</g>
<!-- Node16&#45;&gt;Node3 -->
<g id="edge25" class="edge">
<title>Node16&#45;&gt;Node3</title>
<path fill="none" stroke="midnightblue" d="M585.36,-128.87C614.52,-118.95 663.12,-102.41 700.15,-89.81"/>
<polygon fill="midnightblue" stroke="midnightblue" points="701.44,-93.06 709.78,-86.53 699.18,-86.44 701.44,-93.06"/>
</g>
<!-- Node17 -->
<g id="node17" class="node">
<title>Node17</title>
<g id="a_node17"><a xlink:title=" ">
<polygon fill="white" stroke="#bfbfbf" points="579,-62 579,-81 633,-81 633,-62 579,-62"/>
<text text-anchor="middle" x="606" y="-69" font-family="Helvetica,sans-Serif" font-size="10.00">random</text>
</a>
</g>
</g>
<!-- Node16&#45;&gt;Node17 -->
<g id="edge26" class="edge">
<title>Node16&#45;&gt;Node17</title>
<path fill="none" stroke="midnightblue" d="M566.2,-128.73C573.31,-118.7 585.11,-102.01 594.02,-89.42"/>
<polygon fill="midnightblue" stroke="midnightblue" points="596.97,-91.31 599.89,-81.13 591.26,-87.27 596.97,-91.31"/>
</g>
<!-- Node18&#45;&gt;Node2 -->
<g id="edge29" class="edge">
<title>Node18&#45;&gt;Node2</title>
<path fill="none" stroke="midnightblue" d="M834.21,-201.19C718.03,-195.1 499.35,-180.26 476,-154 460.48,-136.55 471.01,-108.55 480.83,-90.34"/>
<polygon fill="midnightblue" stroke="midnightblue" points="484.05,-91.76 486.05,-81.36 478,-88.24 484.05,-91.76"/>
</g>
<!-- Node18&#45;&gt;Node3 -->
<g id="edge30" class="edge">
<title>Node18&#45;&gt;Node3</title>
<path fill="none" stroke="midnightblue" d="M906.49,-195.69C906.91,-179.31 905.44,-143.93 887,-123 876.67,-111.28 844.41,-99.05 813.9,-89.57"/>
<polygon fill="midnightblue" stroke="midnightblue" points="814.67,-86.15 804.09,-86.59 812.64,-92.85 814.67,-86.15"/>
</g>
<!-- Node18&#45;&gt;Node15 -->
<g id="edge28" class="edge">
<title>Node18&#45;&gt;Node15</title>
<path fill="none" stroke="midnightblue" d="M977.78,-199.96C1043.78,-194.12 1134.68,-181.25 1157,-154 1181.17,-124.48 1129.75,-98.73 1091.22,-84.44"/>
<polygon fill="midnightblue" stroke="midnightblue" points="1092.35,-81.12 1081.75,-81.05 1089.99,-87.72 1092.35,-81.12"/>
</g>
<!-- Node19 -->
<g id="node19" class="node">
<title>Node19</title>
<g id="a_node19"><a xlink:title=" ">
<polygon fill="white" stroke="#bfbfbf" points="934,-129 934,-148 1064,-148 1064,-129 934,-129"/>
<text text-anchor="middle" x="999" y="-136" font-family="Helvetica,sans-Serif" font-size="10.00">boost/preprocessor.hpp</text>
</a>
</g>
</g>
<!-- Node18&#45;&gt;Node19 -->
<g id="edge31" class="edge">
<title>Node18&#45;&gt;Node19</title>
<path fill="none" stroke="midnightblue" d="M918.54,-195.73C933.88,-185.01 960.06,-166.72 978.38,-153.91"/>
<polygon fill="midnightblue" stroke="midnightblue" points="980.46,-156.72 986.66,-148.13 976.45,-150.99 980.46,-156.72"/>
</g>
<!-- Node20 -->
<g id="node20" class="node">
<title>Node20</title>
<g id="a_node20"><a xlink:title=" ">
<polygon fill="white" stroke="#bfbfbf" points="1082.5,-129 1082.5,-148 1147.5,-148 1147.5,-129 1082.5,-129"/>
<text text-anchor="middle" x="1115" y="-136" font-family="Helvetica,sans-Serif" font-size="10.00">stdexcept</text>
</a>
</g>
</g>
<!-- Node18&#45;&gt;Node20 -->
<g id="edge32" class="edge">
<title>Node18&#45;&gt;Node20</title>
<path fill="none" stroke="midnightblue" d="M935.37,-195.99C968.81,-186.22 1025.02,-169.53 1073,-154 1075.59,-153.16 1078.27,-152.28 1080.96,-151.38"/>
<polygon fill="midnightblue" stroke="midnightblue" points="1082.28,-154.62 1090.62,-148.09 1080.03,-148 1082.28,-154.62"/>
</g>
<!-- Node21 -->
<g id="node21" class="node">
<title>Node21</title>
<g id="a_node21"><a xlink:href="State_8h.html" target="_top" xlink:title="SPICE Interface functions.">
<polygon fill="white" stroke="black" points="826.5,-129 826.5,-148 877.5,-148 877.5,-129 826.5,-129"/>
<text text-anchor="middle" x="852" y="-136" font-family="Helvetica,sans-Serif" font-size="10.00">State.h</text>
</a>
</g>
</g>
<!-- Node18&#45;&gt;Node21 -->
<g id="edge33" class="edge">
<title>Node18&#45;&gt;Node21</title>
<path fill="none" stroke="midnightblue" d="M898.72,-195.73C890.3,-185.6 876.25,-168.69 865.75,-156.06"/>
<polygon fill="midnightblue" stroke="midnightblue" points="868.25,-153.58 859.17,-148.13 862.87,-158.06 868.25,-153.58"/>
</g>
<!-- Node21&#45;&gt;Node2 -->
<g id="edge34" class="edge">
<title>Node21&#45;&gt;Node2</title>
<path fill="none" stroke="midnightblue" d="M833.77,-128.95C828.46,-126.73 822.58,-124.54 817,-123 710.04,-93.54 679.44,-105.14 570,-87 562.26,-85.72 554.1,-84.29 546.1,-82.84"/>
<polygon fill="midnightblue" stroke="midnightblue" points="546.55,-79.36 536.09,-81.01 545.29,-86.25 546.55,-79.36"/>
</g>
<!-- Node21&#45;&gt;Node3 -->
<g id="edge35" class="edge">
<title>Node21&#45;&gt;Node3</title>
<path fill="none" stroke="midnightblue" d="M838.38,-128.73C823.88,-119.4 800.45,-104.32 781.5,-92.13"/>
<polygon fill="midnightblue" stroke="midnightblue" points="783.2,-89.06 772.89,-86.59 779.41,-94.94 783.2,-89.06"/>
</g>
<!-- Node22 -->
<g id="node22" class="node">
<title>Node22</title>
<g id="a_node22"><a xlink:title=" ">
<polygon fill="white" stroke="#bfbfbf" points="828.5,-62 828.5,-81 875.5,-81 875.5,-62 828.5,-62"/>
<text text-anchor="middle" x="852" y="-69" font-family="Helvetica,sans-Serif" font-size="10.00">vector</text>
</a>
</g>
</g>
<!-- Node21&#45;&gt;Node22 -->
<g id="edge36" class="edge">
<title>Node21&#45;&gt;Node22</title>
<path fill="none" stroke="midnightblue" d="M852,-128.73C852,-119.18 852,-103.62 852,-91.28"/>
<polygon fill="midnightblue" stroke="midnightblue" points="855.5,-91.13 852,-81.13 848.5,-91.13 855.5,-91.13"/>
</g>
</g>
</svg>
        <g id="navigator" transform="translate(0 0)" fill="#404254">
                <rect fill="#f2f5e9" fill-opacity="0.5" stroke="#606060" stroke-width=".5" x="0" y="0" width="60" height="60"/>
                <use id="zoomplus" xlink:href="#zoomPlus" x="17" y="9" onmousedown="handleZoom(evt,'in')"/>
                <use id="zoomminus" xlink:href="#zoomMin" x="42" y="9" onmousedown="handleZoom(evt,'out')"/>
                <use id="reset" xlink:href="#resetDef" x="30" y="36" onmousedown="handleReset()"/>
                <g id="arrowUp" xlink:href="#dirArrow" transform="translate(30 24)" onmousedown="handlePan(0,-1)">
                  <use xlink:href="#rim" fill="#404040">
                        <set attributeName="fill" to="#808080" begin="arrowUp.mouseover" end="arrowUp.mouseout"/>
                  </use>
                  <path fill="none" stroke="white" stroke-width="1.5" d="M0,-3.0v7 M-2.5,-0.5L0,-3.0L2.5,-0.5"/>
                </g>
                <g id="arrowRight" xlink:href="#dirArrow" transform="rotate(90) translate(36 -43)" onmousedown="handlePan(1,0)">
                  <use xlink:href="#rim" fill="#404040">
                        <set attributeName="fill" to="#808080" begin="arrowRight.mouseover" end="arrowRight.mouseout"/>
                  </use>
                  <path fill="none" stroke="white" stroke-width="1.5" d="M0,-3.0v7 M-2.5,-0.5L0,-3.0L2.5,-0.5"/>
                </g>
                <g id="arrowDown" xlink:href="#dirArrow" transform="rotate(180) translate(-30 -48)" onmousedown="handlePan(0,1)">
                  <use xlink:href="#rim" fill="#404040">
                        <set attributeName="fill" to="#808080" begin="arrowDown.mouseover" end="arrowDown.mouseout"/>
                  </use>
                  <path fill="none" stroke="white" stroke-width="1.5" d="M0,-3.0v7 M-2.5,-0.5L0,-3.0L2.5,-0.5"/>
                </g>
                <g id="arrowLeft" xlink:href="#dirArrow" transform="rotate(270) translate(-36 17)" onmousedown="handlePan(-1,0)">
                  <use xlink:href="#rim" fill="#404040">
                        <set attributeName="fill" to="#808080" begin="arrowLeft.mouseover" end="arrowLeft.mouseout"/>
                  </use>
                  <path fill="none" stroke="white" stroke-width="1.5" d="M0,-3.0v7 M-2.5,-0.5L0,-3.0L2.5,-0.5"/>
                </g>
        </g>
        <svg viewBox="0 0 15 15" width="100%" height="30px" preserveAspectRatio="xMaxYMin meet">
         <g id="arrow_out" transform="scale(0.3 0.3)">
          <a xlink:href="CommDevice_8h__incl_org.svg" target="_base">
           <rect id="button" ry="5" rx="5" y="6" x="6" height="38" width="38"
                fill="#f2f5e9" fill-opacity="0.5" stroke="#606060" stroke-width="1.0"/>
           <path id="arrow"
             d="M 11.500037,31.436501 C 11.940474,20.09759 22.043105,11.32322 32.158766,21.979434 L 37.068811,17.246167 C 37.068811,17.246167 37.088388,32 37.088388,32 L 22.160133,31.978069 C 22.160133,31.978069 26.997745,27.140456 26.997745,27.140456 C 18.528582,18.264221 13.291696,25.230495 11.500037,31.436501 z"
             style="fill:#404040;"/>
          </a>
         </g>
        </svg>
</svg>
