<?xml version="1.0" encoding="UTF-8" standalone="no"?>
<!DOCTYPE svg PUBLIC "-//W3C//DTD SVG 1.1//EN"
 "http://www.w3.org/Graphics/SVG/1.1/DTD/svg11.dtd">
<!-- Generated by graphviz version 2.43.0 (0)
 -->
<!-- Title: Constants.h Pages: 1 -->
<svg width="601pt" height="140pt"
 viewBox="0.00 0.00 600.50 140.00" xmlns="http://www.w3.org/2000/svg" xmlns:xlink="http://www.w3.org/1999/xlink">
<g id="graph0" class="graph" transform="scale(1 1) rotate(0) translate(4 136)">
<title>Constants.h</title>
<polygon fill="white" stroke="transparent" points="-4,4 -4,-136 596.5,-136 596.5,4 -4,4"/>
<!-- Node1 -->
<g id="node1" class="node">
<title>Node1</title>
<g id="a_node1"><a xlink:title="List of constants.">
<polygon fill="#bfbfbf" stroke="black" points="248.5,-112.5 248.5,-131.5 322.5,-131.5 322.5,-112.5 248.5,-112.5"/>
<text text-anchor="middle" x="285.5" y="-119.5" font-family="Helvetica,sans-Serif" font-size="10.00">Constants.h</text>
</a>
</g>
</g>
<!-- Node2 -->
<g id="node2" class="node">
<title>Node2</title>
<g id="a_node2"><a xlink:title=" ">
<polygon fill="white" stroke="#bfbfbf" points="0,-56.5 0,-75.5 151,-75.5 151,-56.5 0,-56.5"/>
<text text-anchor="middle" x="75.5" y="-63.5" font-family="Helvetica,sans-Serif" font-size="10.00">autodiff/common/eigen.hpp</text>
</a>
</g>
</g>
<!-- Node1&#45;&gt;Node2 -->
<g id="edge1" class="edge">
<title>Node1&#45;&gt;Node2</title>
<path fill="none" stroke="midnightblue" d="M252.22,-112.44C216.05,-103.14 158.12,-88.25 118.52,-78.06"/>
<polygon fill="midnightblue" stroke="midnightblue" points="119.18,-74.62 108.62,-75.52 117.43,-81.4 119.18,-74.62"/>
</g>
<!-- Node3 -->
<g id="node3" class="node">
<title>Node3</title>
<g id="a_node3"><a xlink:title=" ">
<polygon fill="white" stroke="#bfbfbf" points="169,-56.5 169,-75.5 306,-75.5 306,-56.5 169,-56.5"/>
<text text-anchor="middle" x="237.5" y="-63.5" font-family="Helvetica,sans-Serif" font-size="10.00">autodiff/forward/real.hpp</text>
</a>
</g>
</g>
<!-- Node1&#45;&gt;Node3 -->
<g id="edge2" class="edge">
<title>Node1&#45;&gt;Node3</title>
<path fill="none" stroke="midnightblue" d="M277.57,-112.08C270.65,-104.3 260.43,-92.8 252.05,-83.37"/>
<polygon fill="midnightblue" stroke="midnightblue" points="254.54,-80.9 245.28,-75.75 249.31,-85.55 254.54,-80.9"/>
</g>
<!-- Node4 -->
<g id="node4" class="node">
<title>Node4</title>
<g id="a_node4"><a xlink:title=" ">
<polygon fill="white" stroke="#bfbfbf" points="310.5,-0.5 310.5,-19.5 354.5,-19.5 354.5,-0.5 310.5,-0.5"/>
<text text-anchor="middle" x="332.5" y="-7.5" font-family="Helvetica,sans-Serif" font-size="10.00">string</text>
</a>
</g>
</g>
<!-- Node1&#45;&gt;Node4 -->
<g id="edge3" class="edge">
<title>Node1&#45;&gt;Node4</title>
<path fill="none" stroke="midnightblue" d="M292.11,-112.49C298.61,-103.76 308.42,-89.57 314.5,-76 321.23,-60.97 326,-42.84 328.93,-29.55"/>
<polygon fill="midnightblue" stroke="midnightblue" points="332.37,-30.2 330.96,-19.7 325.51,-28.79 332.37,-30.2"/>
</g>
<!-- Node5 -->
<g id="node5" class="node">
<title>Node5</title>
<g id="a_node5"><a xlink:href="UserFilePath_8h.html" target="_top" xlink:title="File access utils.">
<polygon fill="white" stroke="black" points="363.5,-56.5 363.5,-75.5 449.5,-75.5 449.5,-56.5 363.5,-56.5"/>
<text text-anchor="middle" x="406.5" y="-63.5" font-family="Helvetica,sans-Serif" font-size="10.00">UserFilePath.h</text>
</a>
</g>
</g>
<!-- Node1&#45;&gt;Node5 -->
<g id="edge4" class="edge">
<title>Node1&#45;&gt;Node5</title>
<path fill="none" stroke="midnightblue" d="M304.67,-112.44C324.41,-103.64 355.39,-89.81 377.99,-79.72"/>
<polygon fill="midnightblue" stroke="midnightblue" points="379.71,-82.79 387.42,-75.52 376.86,-76.4 379.71,-82.79"/>
</g>
<!-- Node5&#45;&gt;Node4 -->
<g id="edge8" class="edge">
<title>Node5&#45;&gt;Node4</title>
<path fill="none" stroke="midnightblue" d="M394.61,-56.32C383.35,-48.11 366.21,-35.6 352.79,-25.81"/>
<polygon fill="midnightblue" stroke="midnightblue" points="354.75,-22.9 344.61,-19.83 350.62,-28.56 354.75,-22.9"/>
</g>
<!-- Node6 -->
<g id="node6" class="node">
<title>Node6</title>
<g id="a_node6"><a xlink:title=" ">
<polygon fill="white" stroke="#bfbfbf" points="372.5,-0.5 372.5,-19.5 440.5,-19.5 440.5,-0.5 372.5,-0.5"/>
<text text-anchor="middle" x="406.5" y="-7.5" font-family="Helvetica,sans-Serif" font-size="10.00">filesystem</text>
</a>
</g>
</g>
<!-- Node5&#45;&gt;Node6 -->
<g id="edge5" class="edge">
<title>Node5&#45;&gt;Node6</title>
<path fill="none" stroke="midnightblue" d="M406.5,-56.08C406.5,-49.01 406.5,-38.86 406.5,-29.99"/>
<polygon fill="midnightblue" stroke="midnightblue" points="410,-29.75 406.5,-19.75 403,-29.75 410,-29.75"/>
</g>
<!-- Node7 -->
<g id="node7" class="node">
<title>Node7</title>
<g id="a_node7"><a xlink:title=" ">
<polygon fill="white" stroke="#bfbfbf" points="458.5,-0.5 458.5,-19.5 518.5,-19.5 518.5,-0.5 458.5,-0.5"/>
<text text-anchor="middle" x="488.5" y="-7.5" font-family="Helvetica,sans-Serif" font-size="10.00">iostream</text>
</a>
</g>
</g>
<!-- Node5&#45;&gt;Node7 -->
<g id="edge6" class="edge">
<title>Node5&#45;&gt;Node7</title>
<path fill="none" stroke="midnightblue" d="M419.67,-56.32C432.35,-47.98 451.73,-35.21 466.71,-25.35"/>
<polygon fill="midnightblue" stroke="midnightblue" points="468.93,-28.08 475.36,-19.65 465.08,-22.23 468.93,-28.08"/>
</g>
<!-- Node8 -->
<g id="node8" class="node">
<title>Node8</title>
<g id="a_node8"><a xlink:title=" ">
<polygon fill="white" stroke="#bfbfbf" points="536.5,-0.5 536.5,-19.5 592.5,-19.5 592.5,-0.5 536.5,-0.5"/>
<text text-anchor="middle" x="564.5" y="-7.5" font-family="Helvetica,sans-Serif" font-size="10.00">optional</text>
</a>
</g>
</g>
<!-- Node5&#45;&gt;Node8 -->
<g id="edge7" class="edge">
<title>Node5&#45;&gt;Node8</title>
<path fill="none" stroke="midnightblue" d="M431.54,-56.44C458.12,-47.36 500.31,-32.94 530.02,-22.78"/>
<polygon fill="midnightblue" stroke="midnightblue" points="531.25,-26.06 539.58,-19.52 528.99,-19.44 531.25,-26.06"/>
</g>
</g>
</svg>
