<?xml version="1.0" encoding="UTF-8" standalone="no"?>
<!DOCTYPE svg PUBLIC "-//W3C//DTD SVG 1.1//EN"
 "http://www.w3.org/Graphics/SVG/1.1/DTD/svg11.dtd">
<!-- Generated by graphviz version 2.43.0 (0)
 -->
<!-- Title: CoordConverter.cpp Pages: 1 -->
<!--zoomable 263 -->
<svg id="main" version="1.1" xmlns="http://www.w3.org/2000/svg" xmlns:xlink="http://www.w3.org/1999/xlink" xml:space="preserve" onload="init(evt)">
<style type="text/css"><![CDATA[
.edge:hover path { stroke: red; }
.edge:hover polygon { stroke: red; fill: red; }
]]></style>
<script type="text/javascript"><![CDATA[
var edges = document.getElementsByTagName('g');
if (edges && edges.length) {
  for (var i=0;i<edges.length;i++) {
    if (edges[i].id.substr(0,4)=='edge') {
      edges[i].setAttribute('class','edge');
    }
  }
}
]]></script>
        <defs>
                <circle id="rim" cx="0" cy="0" r="7"/>
                <circle id="rim2" cx="0" cy="0" r="3.5"/>
                <g id="zoomPlus">
                        <use xlink:href="#rim" fill="#404040">
                                <set attributeName="fill" to="#808080" begin="zoomplus.mouseover" end="zoomplus.mouseout"/>
                        </use>
                        <path d="M-4,0h8M0,-4v8" fill="none" stroke="white" stroke-width="1.5" pointer-events="none"/>
                </g>
                <g id="zoomMin">
                        <use xlink:href="#rim" fill="#404040">
                                <set attributeName="fill" to="#808080" begin="zoomminus.mouseover" end="zoomminus.mouseout"/>
                        </use>
                        <path d="M-4,0h8" fill="none" stroke="white" stroke-width="1.5" pointer-events="none"/>
                </g>
                <g id="dirArrow">
                        <path fill="none" stroke="white" stroke-width="1.5" d="M0,-3.0v7 M-2.5,-0.5L0,-3.0L2.5,-0.5"/>
                </g>
               <g id="resetDef">
                       <use xlink:href="#rim2" fill="#404040">
                               <set attributeName="fill" to="#808080" begin="reset.mouseover" end="reset.mouseout"/>
                       </use>
               </g>
        </defs>

<script type="text/javascript">
var viewWidth = 613;
var viewHeight = 263;
var sectionId = 'dynsection-0';
</script>
<script xlink:href="svgpan.js"/>
<svg id="graph" class="graph">
<g id="viewport">
<title>CoordConverter.cpp</title>
<polygon fill="white" stroke="transparent" points="-4,4 -4,-259 608.74,-259 608.74,4 -4,4"/>
<!-- Node1 -->
<g id="node1" class="node">
<title>Node1</title>
<g id="a_node1"><a xlink:title="Coordinate conversion functions.">
<polygon fill="#bfbfbf" stroke="black" points="358,-235.5 358,-254.5 471,-254.5 471,-235.5 358,-235.5"/>
<text text-anchor="middle" x="414.5" y="-242.5" font-family="Helvetica,sans-Serif" font-size="10.00">CoordConverter.cpp</text>
</a>
</g>
</g>
<!-- Node2 -->
<g id="node2" class="node">
<title>Node2</title>
<g id="a_node2"><a xlink:title=" ">
<polygon fill="white" stroke="#bfbfbf" points="360.5,-112.5 360.5,-142.5 476.5,-142.5 476.5,-112.5 360.5,-112.5"/>
<text text-anchor="start" x="368.5" y="-130.5" font-family="Helvetica,sans-Serif" font-size="10.00">autodiff/forward/real</text>
<text text-anchor="middle" x="418.5" y="-119.5" font-family="Helvetica,sans-Serif" font-size="10.00">/eigen.hpp</text>
</a>
</g>
</g>
<!-- Node1&#45;&gt;Node2 -->
<g id="edge1" class="edge">
<title>Node1&#45;&gt;Node2</title>
<path fill="none" stroke="midnightblue" d="M414.8,-235.32C415.4,-217.97 416.77,-178.46 417.66,-152.66"/>
<polygon fill="midnightblue" stroke="midnightblue" points="421.17,-152.66 418.01,-142.55 414.17,-152.42 421.17,-152.66"/>
</g>
<!-- Node3 -->
<g id="node3" class="node">
<title>Node3</title>
<g id="a_node3"><a xlink:title=" ">
<polygon fill="white" stroke="#bfbfbf" points="475.5,-0.5 475.5,-19.5 543.5,-19.5 543.5,-0.5 475.5,-0.5"/>
<text text-anchor="middle" x="509.5" y="-7.5" font-family="Helvetica,sans-Serif" font-size="10.00">filesystem</text>
</a>
</g>
</g>
<!-- Node1&#45;&gt;Node3 -->
<g id="edge2" class="edge">
<title>Node1&#45;&gt;Node3</title>
<path fill="none" stroke="midnightblue" d="M471.32,-242.81C507.54,-239.02 552.89,-228.14 581.5,-199 608.94,-171.06 609.03,-148.75 595.5,-112 582.29,-76.1 550.01,-44.26 528.97,-26.33"/>
<polygon fill="midnightblue" stroke="midnightblue" points="530.94,-23.41 521,-19.74 526.48,-28.81 530.94,-23.41"/>
</g>
<!-- Node4 -->
<g id="node4" class="node">
<title>Node4</title>
<g id="a_node4"><a xlink:href="Constants_8h.html" target="_top" xlink:title="List of constants.">
<polygon fill="white" stroke="black" points="126,-118 126,-137 233,-137 233,-118 126,-118"/>
<text text-anchor="middle" x="179.5" y="-125" font-family="Helvetica,sans-Serif" font-size="10.00">../core/Constants.h</text>
</a>
</g>
</g>
<!-- Node1&#45;&gt;Node4 -->
<g id="edge3" class="edge">
<title>Node1&#45;&gt;Node4</title>
<path fill="none" stroke="midnightblue" d="M357.99,-239.69C320.18,-234.59 270.73,-223.42 233.5,-199 213.43,-185.84 197.8,-162.61 188.63,-146.43"/>
<polygon fill="midnightblue" stroke="midnightblue" points="191.6,-144.56 183.78,-137.42 185.44,-147.88 191.6,-144.56"/>
</g>
<!-- Node11 -->
<g id="node11" class="node">
<title>Node11</title>
<g id="a_node11"><a xlink:href="MathUtils_8h.html" target="_top" xlink:title=" ">
<polygon fill="white" stroke="black" points="442.5,-179.5 442.5,-198.5 572.5,-198.5 572.5,-179.5 442.5,-179.5"/>
<text text-anchor="middle" x="507.5" y="-186.5" font-family="Helvetica,sans-Serif" font-size="10.00">../numerics/MathUtils.h</text>
</a>
</g>
</g>
<!-- Node1&#45;&gt;Node11 -->
<g id="edge12" class="edge">
<title>Node1&#45;&gt;Node11</title>
<path fill="none" stroke="midnightblue" d="M429.44,-235.32C444.09,-226.82 466.63,-213.73 483.74,-203.8"/>
<polygon fill="midnightblue" stroke="midnightblue" points="485.7,-206.7 492.6,-198.65 482.19,-200.65 485.7,-206.7"/>
</g>
<!-- Node13 -->
<g id="node13" class="node">
<title>Node13</title>
<g id="a_node13"><a xlink:href="SpiceInterface_8h.html" target="_top" xlink:title="SPICE Interface functions.">
<polygon fill="white" stroke="black" points="242.5,-179.5 242.5,-198.5 386.5,-198.5 386.5,-179.5 242.5,-179.5"/>
<text text-anchor="middle" x="314.5" y="-186.5" font-family="Helvetica,sans-Serif" font-size="10.00">../physics/SpiceInterface.h</text>
</a>
</g>
</g>
<!-- Node1&#45;&gt;Node13 -->
<g id="edge16" class="edge">
<title>Node1&#45;&gt;Node13</title>
<path fill="none" stroke="midnightblue" d="M398.43,-235.32C382.54,-226.74 357.99,-213.49 339.54,-203.52"/>
<polygon fill="midnightblue" stroke="midnightblue" points="340.99,-200.33 330.53,-198.65 337.66,-206.49 340.99,-200.33"/>
</g>
<!-- Node5 -->
<g id="node5" class="node">
<title>Node5</title>
<g id="a_node5"><a xlink:title=" ">
<polygon fill="white" stroke="#bfbfbf" points="0,-56.5 0,-75.5 151,-75.5 151,-56.5 0,-56.5"/>
<text text-anchor="middle" x="75.5" y="-63.5" font-family="Helvetica,sans-Serif" font-size="10.00">autodiff/common/eigen.hpp</text>
</a>
</g>
</g>
<!-- Node4&#45;&gt;Node5 -->
<g id="edge4" class="edge">
<title>Node4&#45;&gt;Node5</title>
<path fill="none" stroke="midnightblue" d="M164.6,-117.98C147.53,-108.21 119.34,-92.08 99.24,-80.58"/>
<polygon fill="midnightblue" stroke="midnightblue" points="100.79,-77.44 90.37,-75.51 97.31,-83.51 100.79,-77.44"/>
</g>
<!-- Node6 -->
<g id="node6" class="node">
<title>Node6</title>
<g id="a_node6"><a xlink:title=" ">
<polygon fill="white" stroke="#bfbfbf" points="312,-56.5 312,-75.5 449,-75.5 449,-56.5 312,-56.5"/>
<text text-anchor="middle" x="380.5" y="-63.5" font-family="Helvetica,sans-Serif" font-size="10.00">autodiff/forward/real.hpp</text>
</a>
</g>
</g>
<!-- Node4&#45;&gt;Node6 -->
<g id="edge5" class="edge">
<title>Node4&#45;&gt;Node6</title>
<path fill="none" stroke="midnightblue" d="M208.3,-117.98C243.37,-107.59 302.76,-90.01 341.81,-78.45"/>
<polygon fill="midnightblue" stroke="midnightblue" points="343.16,-81.7 351.76,-75.51 341.17,-74.99 343.16,-81.7"/>
</g>
<!-- Node7 -->
<g id="node7" class="node">
<title>Node7</title>
<g id="a_node7"><a xlink:title=" ">
<polygon fill="white" stroke="#bfbfbf" points="157.5,-0.5 157.5,-19.5 201.5,-19.5 201.5,-0.5 157.5,-0.5"/>
<text text-anchor="middle" x="179.5" y="-7.5" font-family="Helvetica,sans-Serif" font-size="10.00">string</text>
</a>
</g>
</g>
<!-- Node4&#45;&gt;Node7 -->
<g id="edge6" class="edge">
<title>Node4&#45;&gt;Node7</title>
<path fill="none" stroke="midnightblue" d="M179.5,-117.82C179.5,-99.26 179.5,-55.34 179.5,-29.97"/>
<polygon fill="midnightblue" stroke="midnightblue" points="183,-29.78 179.5,-19.78 176,-29.78 183,-29.78"/>
</g>
<!-- Node8 -->
<g id="node8" class="node">
<title>Node8</title>
<g id="a_node8"><a xlink:href="UserFilePath_8h.html" target="_top" xlink:title="File access utils.">
<polygon fill="white" stroke="black" points="207.5,-56.5 207.5,-75.5 293.5,-75.5 293.5,-56.5 207.5,-56.5"/>
<text text-anchor="middle" x="250.5" y="-63.5" font-family="Helvetica,sans-Serif" font-size="10.00">UserFilePath.h</text>
</a>
</g>
</g>
<!-- Node4&#45;&gt;Node8 -->
<g id="edge7" class="edge">
<title>Node4&#45;&gt;Node8</title>
<path fill="none" stroke="midnightblue" d="M189.67,-117.98C200.85,-108.61 219.02,-93.38 232.59,-82.01"/>
<polygon fill="midnightblue" stroke="midnightblue" points="234.93,-84.61 240.35,-75.51 230.43,-79.25 234.93,-84.61"/>
</g>
<!-- Node8&#45;&gt;Node3 -->
<g id="edge8" class="edge">
<title>Node8&#45;&gt;Node3</title>
<path fill="none" stroke="midnightblue" d="M291.54,-56.44C338.95,-46.56 416.65,-30.36 465.34,-20.21"/>
<polygon fill="midnightblue" stroke="midnightblue" points="466.19,-23.6 475.27,-18.14 464.77,-16.75 466.19,-23.6"/>
</g>
<!-- Node8&#45;&gt;Node7 -->
<g id="edge11" class="edge">
<title>Node8&#45;&gt;Node7</title>
<path fill="none" stroke="midnightblue" d="M239.09,-56.32C228.39,-48.18 212.16,-35.84 199.34,-26.09"/>
<polygon fill="midnightblue" stroke="midnightblue" points="201.19,-23.1 191.11,-19.83 196.96,-28.67 201.19,-23.1"/>
</g>
<!-- Node9 -->
<g id="node9" class="node">
<title>Node9</title>
<g id="a_node9"><a xlink:title=" ">
<polygon fill="white" stroke="#bfbfbf" points="219.5,-0.5 219.5,-19.5 279.5,-19.5 279.5,-0.5 219.5,-0.5"/>
<text text-anchor="middle" x="249.5" y="-7.5" font-family="Helvetica,sans-Serif" font-size="10.00">iostream</text>
</a>
</g>
</g>
<!-- Node8&#45;&gt;Node9 -->
<g id="edge9" class="edge">
<title>Node8&#45;&gt;Node9</title>
<path fill="none" stroke="midnightblue" d="M250.33,-56.08C250.2,-49.01 250.02,-38.86 249.85,-29.99"/>
<polygon fill="midnightblue" stroke="midnightblue" points="253.35,-29.68 249.66,-19.75 246.35,-29.81 253.35,-29.68"/>
</g>
<!-- Node10 -->
<g id="node10" class="node">
<title>Node10</title>
<g id="a_node10"><a xlink:title=" ">
<polygon fill="white" stroke="#bfbfbf" points="297.5,-0.5 297.5,-19.5 353.5,-19.5 353.5,-0.5 297.5,-0.5"/>
<text text-anchor="middle" x="325.5" y="-7.5" font-family="Helvetica,sans-Serif" font-size="10.00">optional</text>
</a>
</g>
</g>
<!-- Node8&#45;&gt;Node10 -->
<g id="edge10" class="edge">
<title>Node8&#45;&gt;Node10</title>
<path fill="none" stroke="midnightblue" d="M262.55,-56.32C273.96,-48.11 291.33,-35.6 304.93,-25.81"/>
<polygon fill="midnightblue" stroke="midnightblue" points="307.16,-28.52 313.23,-19.83 303.07,-22.84 307.16,-28.52"/>
</g>
<!-- Node11&#45;&gt;Node2 -->
<g id="edge14" class="edge">
<title>Node11&#45;&gt;Node2</title>
<path fill="none" stroke="midnightblue" d="M494.75,-179.48C482.58,-171.34 463.81,-158.79 447.94,-148.18"/>
<polygon fill="midnightblue" stroke="midnightblue" points="449.73,-145.17 439.48,-142.52 445.84,-150.99 449.73,-145.17"/>
</g>
<!-- Node11&#45;&gt;Node6 -->
<g id="edge13" class="edge">
<title>Node11&#45;&gt;Node6</title>
<path fill="none" stroke="midnightblue" d="M507.31,-179.35C506.53,-163.95 502.78,-131.55 485.5,-112 471.34,-95.98 450.49,-85.48 431.1,-78.68"/>
<polygon fill="midnightblue" stroke="midnightblue" points="432.02,-75.3 421.43,-75.54 429.86,-81.96 432.02,-75.3"/>
</g>
<!-- Node12 -->
<g id="node12" class="node">
<title>Node12</title>
<g id="a_node12"><a xlink:title=" ">
<polygon fill="white" stroke="#bfbfbf" points="532.5,-118 532.5,-137 586.5,-137 586.5,-118 532.5,-118"/>
<text text-anchor="middle" x="559.5" y="-125" font-family="Helvetica,sans-Serif" font-size="10.00">random</text>
</a>
</g>
</g>
<!-- Node11&#45;&gt;Node12 -->
<g id="edge15" class="edge">
<title>Node11&#45;&gt;Node12</title>
<path fill="none" stroke="midnightblue" d="M514.95,-179.48C522.83,-170.46 535.44,-156.02 545.24,-144.81"/>
<polygon fill="midnightblue" stroke="midnightblue" points="548.12,-146.84 552.06,-137.01 542.85,-142.24 548.12,-146.84"/>
</g>
<!-- Node13&#45;&gt;Node2 -->
<g id="edge19" class="edge">
<title>Node13&#45;&gt;Node2</title>
<path fill="none" stroke="midnightblue" d="M329.4,-179.48C343.88,-171.19 366.37,-158.32 385.13,-147.59"/>
<polygon fill="midnightblue" stroke="midnightblue" points="387.05,-150.53 393.99,-142.52 383.57,-144.45 387.05,-150.53"/>
</g>
<!-- Node13&#45;&gt;Node4 -->
<g id="edge20" class="edge">
<title>Node13&#45;&gt;Node4</title>
<path fill="none" stroke="midnightblue" d="M295.16,-179.48C272.4,-169.45 234.41,-152.7 208.21,-141.15"/>
<polygon fill="midnightblue" stroke="midnightblue" points="209.37,-137.84 198.81,-137.01 206.55,-144.24 209.37,-137.84"/>
</g>
<!-- Node13&#45;&gt;Node6 -->
<g id="edge18" class="edge">
<title>Node13&#45;&gt;Node6</title>
<path fill="none" stroke="midnightblue" d="M318.28,-179.4C324.64,-165.13 338.11,-135.79 351.5,-112 356.8,-102.58 363.27,-92.44 368.75,-84.17"/>
<polygon fill="midnightblue" stroke="midnightblue" points="371.72,-86.02 374.4,-75.77 365.91,-82.11 371.72,-86.02"/>
</g>
<!-- Node14 -->
<g id="node14" class="node">
<title>Node14</title>
<g id="a_node14"><a xlink:title=" ">
<polygon fill="white" stroke="#bfbfbf" points="251,-118 251,-137 304,-137 304,-118 251,-118"/>
<text text-anchor="middle" x="277.5" y="-125" font-family="Helvetica,sans-Serif" font-size="10.00">string.h</text>
</a>
</g>
</g>
<!-- Node13&#45;&gt;Node14 -->
<g id="edge17" class="edge">
<title>Node13&#45;&gt;Node14</title>
<path fill="none" stroke="midnightblue" d="M309.2,-179.48C303.76,-170.73 295.14,-156.87 288.26,-145.81"/>
<polygon fill="midnightblue" stroke="midnightblue" points="291.04,-143.65 282.79,-137.01 285.1,-147.35 291.04,-143.65"/>
</g>
</g>
</svg>
        <g id="navigator" transform="translate(0 0)" fill="#404254">
                <rect fill="#f2f5e9" fill-opacity="0.5" stroke="#606060" stroke-width=".5" x="0" y="0" width="60" height="60"/>
                <use id="zoomplus" xlink:href="#zoomPlus" x="17" y="9" onmousedown="handleZoom(evt,'in')"/>
                <use id="zoomminus" xlink:href="#zoomMin" x="42" y="9" onmousedown="handleZoom(evt,'out')"/>
                <use id="reset" xlink:href="#resetDef" x="30" y="36" onmousedown="handleReset()"/>
                <g id="arrowUp" xlink:href="#dirArrow" transform="translate(30 24)" onmousedown="handlePan(0,-1)">
                  <use xlink:href="#rim" fill="#404040">
                        <set attributeName="fill" to="#808080" begin="arrowUp.mouseover" end="arrowUp.mouseout"/>
                  </use>
                  <path fill="none" stroke="white" stroke-width="1.5" d="M0,-3.0v7 M-2.5,-0.5L0,-3.0L2.5,-0.5"/>
                </g>
                <g id="arrowRight" xlink:href="#dirArrow" transform="rotate(90) translate(36 -43)" onmousedown="handlePan(1,0)">
                  <use xlink:href="#rim" fill="#404040">
                        <set attributeName="fill" to="#808080" begin="arrowRight.mouseover" end="arrowRight.mouseout"/>
                  </use>
                  <path fill="none" stroke="white" stroke-width="1.5" d="M0,-3.0v7 M-2.5,-0.5L0,-3.0L2.5,-0.5"/>
                </g>
                <g id="arrowDown" xlink:href="#dirArrow" transform="rotate(180) translate(-30 -48)" onmousedown="handlePan(0,1)">
                  <use xlink:href="#rim" fill="#404040">
                        <set attributeName="fill" to="#808080" begin="arrowDown.mouseover" end="arrowDown.mouseout"/>
                  </use>
                  <path fill="none" stroke="white" stroke-width="1.5" d="M0,-3.0v7 M-2.5,-0.5L0,-3.0L2.5,-0.5"/>
                </g>
                <g id="arrowLeft" xlink:href="#dirArrow" transform="rotate(270) translate(-36 17)" onmousedown="handlePan(-1,0)">
                  <use xlink:href="#rim" fill="#404040">
                        <set attributeName="fill" to="#808080" begin="arrowLeft.mouseover" end="arrowLeft.mouseout"/>
                  </use>
                  <path fill="none" stroke="white" stroke-width="1.5" d="M0,-3.0v7 M-2.5,-0.5L0,-3.0L2.5,-0.5"/>
                </g>
        </g>
        <svg viewBox="0 0 15 15" width="100%" height="30px" preserveAspectRatio="xMaxYMin meet">
         <g id="arrow_out" transform="scale(0.3 0.3)">
          <a xlink:href="CoordConverter_8cpp__incl_org.svg" target="_base">
           <rect id="button" ry="5" rx="5" y="6" x="6" height="38" width="38"
                fill="#f2f5e9" fill-opacity="0.5" stroke="#606060" stroke-width="1.0"/>
           <path id="arrow"
             d="M 11.500037,31.436501 C 11.940474,20.09759 22.043105,11.32322 32.158766,21.979434 L 37.068811,17.246167 C 37.068811,17.246167 37.088388,32 37.088388,32 L 22.160133,31.978069 C 22.160133,31.978069 26.997745,27.140456 26.997745,27.140456 C 18.528582,18.264221 13.291696,25.230495 11.500037,31.436501 z"
             style="fill:#404040;"/>
          </a>
         </g>
        </svg>
</svg>
