<?xml version="1.0" encoding="UTF-8" standalone="no"?>
<!DOCTYPE svg PUBLIC "-//W3C//DTD SVG 1.1//EN"
 "http://www.w3.org/Graphics/SVG/1.1/DTD/svg11.dtd">
<!-- Generated by graphviz version 2.43.0 (0)
 -->
<!-- Title: test Pages: 1 -->
<svg width="238pt" height="132pt"
 viewBox="0.00 0.00 238.00 132.00" xmlns="http://www.w3.org/2000/svg" xmlns:xlink="http://www.w3.org/1999/xlink">
<g id="graph0" class="graph" transform="scale(1 1) rotate(0) translate(4 128)">
<title>test</title>
<polygon fill="white" stroke="transparent" points="-4,4 -4,-128 234,-128 234,4 -4,4"/>
<g id="clust1" class="cluster">
<title>clusterdir_13e138d54eb8818da29c3992edef070a</title>
<g id="a_clust1"><a xlink:href="dir_13e138d54eb8818da29c3992edef070a.html" target="_top">
<polygon fill="#eeeeff" stroke="black" points="8,-64 8,-116 222,-116 222,-64 8,-64"/>
</a>
</g>
</g>
<!-- dir_13e138d54eb8818da29c3992edef070a -->
<g id="node1" class="node">
<title>dir_13e138d54eb8818da29c3992edef070a</title>
<text text-anchor="middle" x="187" y="-87.5" font-family="Helvetica,sans-Serif" font-size="10.00">test</text>
</g>
<!-- dir_397f70d4556818ac16abc7ec4d1b6970 -->
<g id="node2" class="node">
<title>dir_397f70d4556818ac16abc7ec4d1b6970</title>
<g id="a_node2"><a xlink:href="dir_397f70d4556818ac16abc7ec4d1b6970.html" target="_top" xlink:title="cpp">
<polygon fill="white" stroke="black" points="142,-108 88,-108 88,-72 142,-72 142,-108"/>
<text text-anchor="middle" x="115" y="-87.5" font-family="Helvetica,sans-Serif" font-size="10.00">cpp</text>
</a>
</g>
</g>
<!-- dir_0cac02388ded90a743b690659ebac3b7 -->
<g id="node4" class="node">
<title>dir_0cac02388ded90a743b690659ebac3b7</title>
<g id="a_node4"><a xlink:href="dir_0cac02388ded90a743b690659ebac3b7.html" target="_top" xlink:title="lupnt">
<polygon fill="white" stroke="red" points="142,-36 88,-36 88,0 142,0 142,-36"/>
<text text-anchor="middle" x="115" y="-15.5" font-family="Helvetica,sans-Serif" font-size="10.00">lupnt</text>
</a>
</g>
</g>
<!-- dir_397f70d4556818ac16abc7ec4d1b6970&#45;&gt;dir_0cac02388ded90a743b690659ebac3b7 -->
<g id="edge1" class="edge">
<title>dir_397f70d4556818ac16abc7ec4d1b6970&#45;&gt;dir_0cac02388ded90a743b690659ebac3b7</title>
<path fill="none" stroke="black" d="M115,-71.7C115,-63.98 115,-54.71 115,-46.11"/>
<polygon fill="black" stroke="black" points="118.5,-46.1 115,-36.1 111.5,-46.1 118.5,-46.1"/>
<g id="a_edge1&#45;headlabel"><a xlink:href="dir_000014_000005.html" target="_top" xlink:title="9">
<text text-anchor="middle" x="121.34" y="-47.2" font-family="Helvetica,sans-Serif" font-size="10.00">9</text>
</a>
</g>
</g>
<!-- dir_3c34d3a20fc71ae07568e320f1aefdfc -->
<g id="node3" class="node">
<title>dir_3c34d3a20fc71ae07568e320f1aefdfc</title>
<g id="a_node3"><a xlink:href="dir_3c34d3a20fc71ae07568e320f1aefdfc.html" target="_top" xlink:title="python">
<polygon fill="white" stroke="black" points="70,-108 16,-108 16,-72 70,-72 70,-108"/>
<text text-anchor="middle" x="43" y="-87.5" font-family="Helvetica,sans-Serif" font-size="10.00">python</text>
</a>
</g>
</g>
</g>
</svg>
