<?xml version="1.0" encoding="UTF-8" standalone="no"?>
<!DOCTYPE svg PUBLIC "-//W3C//DTD SVG 1.1//EN"
 "http://www.w3.org/Graphics/SVG/1.1/DTD/svg11.dtd">
<!-- Generated by graphviz version 2.43.0 (0)
 -->
<!-- Title: lupnt Pages: 1 -->
<svg width="272pt" height="364pt"
 viewBox="0.00 0.00 272.00 364.00" xmlns="http://www.w3.org/2000/svg" xmlns:xlink="http://www.w3.org/1999/xlink">
<g id="graph0" class="graph" transform="scale(1 1) rotate(0) translate(4 360)">
<title>lupnt</title>
<polygon fill="white" stroke="transparent" points="-4,4 -4,-360 268,-360 268,4 -4,4"/>
<g id="clust1" class="cluster">
<title>clusterdir_0cac02388ded90a743b690659ebac3b7</title>
<g id="a_clust1"><a xlink:href="dir_0cac02388ded90a743b690659ebac3b7.html" target="_top">
<polygon fill="#eeeeff" stroke="black" points="8,-8 8,-348 256,-348 256,-8 8,-8"/>
</a>
</g>
</g>
<!-- dir_0cac02388ded90a743b690659ebac3b7 -->
<g id="node1" class="node">
<title>dir_0cac02388ded90a743b690659ebac3b7</title>
<text text-anchor="middle" x="206" y="-319.5" font-family="Helvetica,sans-Serif" font-size="10.00">lupnt</text>
</g>
<!-- dir_bfb67d1bf2055d55254a135fbe634cf0 -->
<g id="node2" class="node">
<title>dir_bfb67d1bf2055d55254a135fbe634cf0</title>
<g id="a_node2"><a xlink:href="dir_bfb67d1bf2055d55254a135fbe634cf0.html" target="_top" xlink:title="agents">
<polygon fill="white" stroke="black" points="146,-340 92,-340 92,-304 146,-304 146,-340"/>
<text text-anchor="middle" x="119" y="-319.5" font-family="Helvetica,sans-Serif" font-size="10.00">agents</text>
</a>
</g>
</g>
<!-- dir_689da0fbbc4c0c811ae068fee20340f5 -->
<g id="node3" class="node">
<title>dir_689da0fbbc4c0c811ae068fee20340f5</title>
<g id="a_node3"><a xlink:href="dir_689da0fbbc4c0c811ae068fee20340f5.html" target="_top" xlink:title="core">
<polygon fill="white" stroke="black" points="125,-124 71,-124 71,-88 125,-88 125,-124"/>
<text text-anchor="middle" x="98" y="-103.5" font-family="Helvetica,sans-Serif" font-size="10.00">core</text>
</a>
</g>
</g>
<!-- dir_bfb67d1bf2055d55254a135fbe634cf0&#45;&gt;dir_689da0fbbc4c0c811ae068fee20340f5 -->
<g id="edge14" class="edge">
<title>dir_bfb67d1bf2055d55254a135fbe634cf0&#45;&gt;dir_689da0fbbc4c0c811ae068fee20340f5</title>
<path fill="none" stroke="black" d="M91.57,-315.65C67.04,-308.74 33.22,-294.33 18,-268 -8.75,-221.72 34.24,-163.49 67,-131.27"/>
<polygon fill="black" stroke="black" points="69.78,-133.45 74.64,-124.04 64.97,-128.37 69.78,-133.45"/>
<g id="a_edge14&#45;headlabel"><a xlink:href="dir_000006_000009.html" target="_top" xlink:title="3">
<text text-anchor="middle" x="69.12" y="-135.49" font-family="Helvetica,sans-Serif" font-size="10.00">3</text>
</a>
</g>
</g>
<!-- dir_6f06eedd4381d05154931903bd792f62 -->
<g id="node4" class="node">
<title>dir_6f06eedd4381d05154931903bd792f62</title>
<g id="a_node4"><a xlink:href="dir_6f06eedd4381d05154931903bd792f62.html" target="_top" xlink:title="dynamics">
<polygon fill="white" stroke="black" points="100,-268 36,-268 36,-232 100,-232 100,-268"/>
<text text-anchor="middle" x="68" y="-247.5" font-family="Helvetica,sans-Serif" font-size="10.00">dynamics</text>
</a>
</g>
</g>
<!-- dir_bfb67d1bf2055d55254a135fbe634cf0&#45;&gt;dir_6f06eedd4381d05154931903bd792f62 -->
<g id="edge15" class="edge">
<title>dir_bfb67d1bf2055d55254a135fbe634cf0&#45;&gt;dir_6f06eedd4381d05154931903bd792f62</title>
<path fill="none" stroke="black" d="M106.39,-303.7C100.4,-295.47 93.12,-285.48 86.52,-276.42"/>
<polygon fill="black" stroke="black" points="89.18,-274.13 80.46,-268.1 83.52,-278.25 89.18,-274.13"/>
<g id="a_edge15&#45;headlabel"><a xlink:href="dir_000006_000010.html" target="_top" xlink:title="2">
<text text-anchor="middle" x="93.59" y="-272.86" font-family="Helvetica,sans-Serif" font-size="10.00">2</text>
</a>
</g>
</g>
<!-- dir_41860b115bc8f1d6a1d8d9c85a569409 -->
<g id="node5" class="node">
<title>dir_41860b115bc8f1d6a1d8d9c85a569409</title>
<g id="a_node5"><a xlink:href="dir_41860b115bc8f1d6a1d8d9c85a569409.html" target="_top" xlink:title="measurements">
<polygon fill="white" stroke="black" points="228,-268 138,-268 138,-232 228,-232 228,-268"/>
<text text-anchor="middle" x="183" y="-247.5" font-family="Helvetica,sans-Serif" font-size="10.00">measurements</text>
</a>
</g>
</g>
<!-- dir_bfb67d1bf2055d55254a135fbe634cf0&#45;&gt;dir_41860b115bc8f1d6a1d8d9c85a569409 -->
<g id="edge12" class="edge">
<title>dir_bfb67d1bf2055d55254a135fbe634cf0&#45;&gt;dir_41860b115bc8f1d6a1d8d9c85a569409</title>
<path fill="none" stroke="black" d="M128.9,-303.7C135.85,-295.14 145.25,-284.66 154.32,-275.3"/>
<polygon fill="black" stroke="black" points="156.9,-277.67 161.47,-268.1 151.94,-272.73 156.9,-277.67"/>
<g id="a_edge12&#45;headlabel"><a xlink:href="dir_000006_000007.html" target="_top" xlink:title="8">
<text text-anchor="middle" x="156.39" y="-279.72" font-family="Helvetica,sans-Serif" font-size="10.00">8</text>
</a>
</g>
</g>
<!-- dir_bcc1ce19567e81766b626745e6abe58c -->
<g id="node6" class="node">
<title>dir_bcc1ce19567e81766b626745e6abe58c</title>
<g id="a_node6"><a xlink:href="dir_bcc1ce19567e81766b626745e6abe58c.html" target="_top" xlink:title="numerics">
<polygon fill="white" stroke="black" points="175,-52 113,-52 113,-16 175,-16 175,-52"/>
<text text-anchor="middle" x="144" y="-31.5" font-family="Helvetica,sans-Serif" font-size="10.00">numerics</text>
</a>
</g>
</g>
<!-- dir_bfb67d1bf2055d55254a135fbe634cf0&#45;&gt;dir_bcc1ce19567e81766b626745e6abe58c -->
<g id="edge16" class="edge">
<title>dir_bfb67d1bf2055d55254a135fbe634cf0&#45;&gt;dir_bcc1ce19567e81766b626745e6abe58c</title>
<path fill="none" stroke="black" d="M146.22,-310.58C179.39,-297.62 231.71,-276.18 237,-268 281.98,-198.49 208.89,-103.74 168.27,-59.56"/>
<polygon fill="black" stroke="black" points="170.73,-57.07 161.33,-52.17 165.62,-61.85 170.73,-57.07"/>
<g id="a_edge16&#45;headlabel"><a xlink:href="dir_000006_000013.html" target="_top" xlink:title="3">
<text text-anchor="middle" x="175.26" y="-55.25" font-family="Helvetica,sans-Serif" font-size="10.00">3</text>
</a>
</g>
</g>
<!-- dir_520a86cecb0e205b0267bf504e30a434 -->
<g id="node7" class="node">
<title>dir_520a86cecb0e205b0267bf504e30a434</title>
<g id="a_node7"><a xlink:href="dir_520a86cecb0e205b0267bf504e30a434.html" target="_top" xlink:title="physics">
<polygon fill="white" stroke="black" points="145,-196 91,-196 91,-160 145,-160 145,-196"/>
<text text-anchor="middle" x="118" y="-175.5" font-family="Helvetica,sans-Serif" font-size="10.00">physics</text>
</a>
</g>
</g>
<!-- dir_bfb67d1bf2055d55254a135fbe634cf0&#45;&gt;dir_520a86cecb0e205b0267bf504e30a434 -->
<g id="edge13" class="edge">
<title>dir_bfb67d1bf2055d55254a135fbe634cf0&#45;&gt;dir_520a86cecb0e205b0267bf504e30a434</title>
<path fill="none" stroke="black" d="M118.88,-303.87C118.71,-279.67 118.4,-235.21 118.19,-206.39"/>
<polygon fill="black" stroke="black" points="121.69,-206.16 118.12,-196.19 114.69,-206.21 121.69,-206.16"/>
<g id="a_edge13&#45;headlabel"><a xlink:href="dir_000006_000008.html" target="_top" xlink:title="6">
<text text-anchor="middle" x="124.56" y="-207.24" font-family="Helvetica,sans-Serif" font-size="10.00">6</text>
</a>
</g>
</g>
<!-- dir_689da0fbbc4c0c811ae068fee20340f5&#45;&gt;dir_bfb67d1bf2055d55254a135fbe634cf0 -->
<g id="edge11" class="edge">
<title>dir_689da0fbbc4c0c811ae068fee20340f5&#45;&gt;dir_bfb67d1bf2055d55254a135fbe634cf0</title>
<path fill="none" stroke="black" d="M85.4,-124.04C59.58,-154.08 7.11,-218.01 36,-268 46.35,-285.91 65.31,-298.3 82.57,-306.57"/>
<polygon fill="black" stroke="black" points="81.37,-309.87 91.93,-310.75 84.23,-303.48 81.37,-309.87"/>
<g id="a_edge11&#45;headlabel"><a xlink:href="dir_000009_000006.html" target="_top" xlink:title="1">
<text text-anchor="middle" x="76.93" y="-308.49" font-family="Helvetica,sans-Serif" font-size="10.00">1</text>
</a>
</g>
</g>
<!-- dir_689da0fbbc4c0c811ae068fee20340f5&#45;&gt;dir_bcc1ce19567e81766b626745e6abe58c -->
<g id="edge10" class="edge">
<title>dir_689da0fbbc4c0c811ae068fee20340f5&#45;&gt;dir_bcc1ce19567e81766b626745e6abe58c</title>
<path fill="none" stroke="black" d="M109.37,-87.7C114.72,-79.56 121.2,-69.69 127.11,-60.7"/>
<polygon fill="black" stroke="black" points="130.19,-62.38 132.76,-52.1 124.34,-58.54 130.19,-62.38"/>
<g id="a_edge10&#45;headlabel"><a xlink:href="dir_000009_000013.html" target="_top" xlink:title="1">
<text text-anchor="middle" x="130.59" y="-64.45" font-family="Helvetica,sans-Serif" font-size="10.00">1</text>
</a>
</g>
</g>
<!-- dir_6f06eedd4381d05154931903bd792f62&#45;&gt;dir_689da0fbbc4c0c811ae068fee20340f5 -->
<g id="edge8" class="edge">
<title>dir_6f06eedd4381d05154931903bd792f62&#45;&gt;dir_689da0fbbc4c0c811ae068fee20340f5</title>
<path fill="none" stroke="black" d="M69.99,-231.81C72.25,-213.78 76.36,-184.7 82,-160 83.98,-151.34 86.61,-142.02 89.17,-133.66"/>
<polygon fill="black" stroke="black" points="92.54,-134.62 92.21,-124.03 85.87,-132.51 92.54,-134.62"/>
<g id="a_edge8&#45;headlabel"><a xlink:href="dir_000010_000009.html" target="_top" xlink:title="3">
<text text-anchor="middle" x="94.17" y="-136.4" font-family="Helvetica,sans-Serif" font-size="10.00">3</text>
</a>
</g>
</g>
<!-- dir_6f06eedd4381d05154931903bd792f62&#45;&gt;dir_bcc1ce19567e81766b626745e6abe58c -->
<g id="edge9" class="edge">
<title>dir_6f06eedd4381d05154931903bd792f62&#45;&gt;dir_bcc1ce19567e81766b626745e6abe58c</title>
<path fill="none" stroke="black" d="M61.94,-231.72C52.2,-200.75 36.59,-134.68 62,-88 71.01,-71.45 87.66,-59.28 103.62,-50.8"/>
<polygon fill="black" stroke="black" points="105.45,-53.8 112.87,-46.23 102.35,-47.52 105.45,-53.8"/>
<g id="a_edge9&#45;headlabel"><a xlink:href="dir_000010_000013.html" target="_top" xlink:title="3">
<text text-anchor="middle" x="103.48" y="-55.44" font-family="Helvetica,sans-Serif" font-size="10.00">3</text>
</a>
</g>
</g>
<!-- dir_6f06eedd4381d05154931903bd792f62&#45;&gt;dir_520a86cecb0e205b0267bf504e30a434 -->
<g id="edge7" class="edge">
<title>dir_6f06eedd4381d05154931903bd792f62&#45;&gt;dir_520a86cecb0e205b0267bf504e30a434</title>
<path fill="none" stroke="black" d="M80.36,-231.7C86.23,-223.47 93.37,-213.48 99.84,-204.42"/>
<polygon fill="black" stroke="black" points="102.82,-206.28 105.78,-196.1 97.12,-202.21 102.82,-206.28"/>
<g id="a_edge7&#45;headlabel"><a xlink:href="dir_000010_000008.html" target="_top" xlink:title="4">
<text text-anchor="middle" x="103.04" y="-208.35" font-family="Helvetica,sans-Serif" font-size="10.00">4</text>
</a>
</g>
</g>
<!-- dir_41860b115bc8f1d6a1d8d9c85a569409&#45;&gt;dir_bfb67d1bf2055d55254a135fbe634cf0 -->
<g id="edge4" class="edge">
<title>dir_41860b115bc8f1d6a1d8d9c85a569409&#45;&gt;dir_bfb67d1bf2055d55254a135fbe634cf0</title>
<path fill="none" stroke="black" d="M173.26,-268.1C166.35,-276.64 156.97,-287.11 147.89,-296.48"/>
<polygon fill="black" stroke="black" points="145.29,-294.13 140.74,-303.7 150.26,-299.06 145.29,-294.13"/>
<g id="a_edge4&#45;headlabel"><a xlink:href="dir_000007_000006.html" target="_top" xlink:title="6">
<text text-anchor="middle" x="145.81" y="-287.08" font-family="Helvetica,sans-Serif" font-size="10.00">6</text>
</a>
</g>
</g>
<!-- dir_41860b115bc8f1d6a1d8d9c85a569409&#45;&gt;dir_689da0fbbc4c0c811ae068fee20340f5 -->
<g id="edge2" class="edge">
<title>dir_41860b115bc8f1d6a1d8d9c85a569409&#45;&gt;dir_689da0fbbc4c0c811ae068fee20340f5</title>
<path fill="none" stroke="black" d="M180.05,-231.85C176.24,-213.08 168.33,-182.66 154,-160 147.18,-149.22 137.68,-139.12 128.43,-130.69"/>
<polygon fill="black" stroke="black" points="130.63,-127.96 120.79,-124.02 126.02,-133.23 130.63,-127.96"/>
<g id="a_edge2&#45;headlabel"><a xlink:href="dir_000007_000009.html" target="_top" xlink:title="6">
<text text-anchor="middle" x="135.2" y="-125.68" font-family="Helvetica,sans-Serif" font-size="10.00">6</text>
</a>
</g>
</g>
<!-- dir_41860b115bc8f1d6a1d8d9c85a569409&#45;&gt;dir_bcc1ce19567e81766b626745e6abe58c -->
<g id="edge3" class="edge">
<title>dir_41860b115bc8f1d6a1d8d9c85a569409&#45;&gt;dir_bcc1ce19567e81766b626745e6abe58c</title>
<path fill="none" stroke="black" d="M179.95,-231.93C176.75,-214.02 171.55,-185.02 167,-160 160.88,-126.38 153.75,-87.69 149.07,-62.37"/>
<polygon fill="black" stroke="black" points="152.48,-61.58 147.22,-52.39 145.6,-62.86 152.48,-61.58"/>
<g id="a_edge3&#45;headlabel"><a xlink:href="dir_000007_000013.html" target="_top" xlink:title="4">
<text text-anchor="middle" x="155.93" y="-62.1" font-family="Helvetica,sans-Serif" font-size="10.00">4</text>
</a>
</g>
</g>
<!-- dir_41860b115bc8f1d6a1d8d9c85a569409&#45;&gt;dir_520a86cecb0e205b0267bf504e30a434 -->
<g id="edge1" class="edge">
<title>dir_41860b115bc8f1d6a1d8d9c85a569409&#45;&gt;dir_520a86cecb0e205b0267bf504e30a434</title>
<path fill="none" stroke="black" d="M166.93,-231.7C159.06,-223.22 149.44,-212.86 140.83,-203.58"/>
<polygon fill="black" stroke="black" points="143.25,-201.05 133.88,-196.1 138.12,-205.81 143.25,-201.05"/>
<g id="a_edge1&#45;headlabel"><a xlink:href="dir_000007_000008.html" target="_top" xlink:title="4">
<text text-anchor="middle" x="147.78" y="-199.25" font-family="Helvetica,sans-Serif" font-size="10.00">4</text>
</a>
</g>
</g>
<!-- dir_520a86cecb0e205b0267bf504e30a434&#45;&gt;dir_689da0fbbc4c0c811ae068fee20340f5 -->
<g id="edge5" class="edge">
<title>dir_520a86cecb0e205b0267bf504e30a434&#45;&gt;dir_689da0fbbc4c0c811ae068fee20340f5</title>
<path fill="none" stroke="black" d="M113.06,-159.7C110.83,-151.9 108.15,-142.51 105.67,-133.83"/>
<polygon fill="black" stroke="black" points="109,-132.76 102.89,-124.1 102.27,-134.68 109,-132.76"/>
<g id="a_edge5&#45;headlabel"><a xlink:href="dir_000008_000009.html" target="_top" xlink:title="8">
<text text-anchor="middle" x="112.72" y="-132.93" font-family="Helvetica,sans-Serif" font-size="10.00">8</text>
</a>
</g>
</g>
<!-- dir_520a86cecb0e205b0267bf504e30a434&#45;&gt;dir_bcc1ce19567e81766b626745e6abe58c -->
<g id="edge6" class="edge">
<title>dir_520a86cecb0e205b0267bf504e30a434&#45;&gt;dir_bcc1ce19567e81766b626745e6abe58c</title>
<path fill="none" stroke="black" d="M124.14,-159.54C127.53,-149.3 131.53,-136.05 134,-124 138.2,-103.57 140.74,-80.11 142.21,-62.41"/>
<polygon fill="black" stroke="black" points="145.72,-62.44 142.99,-52.21 138.74,-61.91 145.72,-62.44"/>
<g id="a_edge6&#45;headlabel"><a xlink:href="dir_000008_000013.html" target="_top" xlink:title="6">
<text text-anchor="middle" x="148.28" y="-63.75" font-family="Helvetica,sans-Serif" font-size="10.00">6</text>
</a>
</g>
</g>
</g>
</svg>
