<?xml version="1.0" encoding="UTF-8" standalone="no"?>
<!DOCTYPE svg PUBLIC "-//W3C//DTD SVG 1.1//EN"
 "http://www.w3.org/Graphics/SVG/1.1/DTD/svg11.dtd">
<!-- Generated by graphviz version 2.43.0 (0)
 -->
<!-- Title: agents Pages: 1 -->
<svg width="194pt" height="455pt"
 viewBox="0.00 0.00 194.00 455.00" xmlns="http://www.w3.org/2000/svg" xmlns:xlink="http://www.w3.org/1999/xlink">
<g id="graph0" class="graph" transform="scale(1 1) rotate(0) translate(4 451)">
<title>agents</title>
<polygon fill="white" stroke="transparent" points="-4,4 -4,-451 190,-451 190,4 -4,4"/>
<g id="clust1" class="cluster">
<title>clusterdir_0cac02388ded90a743b690659ebac3b7</title>
<g id="a_clust1"><a xlink:href="dir_0cac02388ded90a743b690659ebac3b7.html" target="_top" xlink:title="lupnt">
<polygon fill="#ddddee" stroke="black" points="8,-8 8,-439 178,-439 178,-8 8,-8"/>
<text text-anchor="middle" x="93" y="-427" font-family="Helvetica,sans-Serif" font-size="10.00">lupnt</text>
</a>
</g>
</g>
<!-- dir_41860b115bc8f1d6a1d8d9c85a569409 -->
<g id="node1" class="node">
<title>dir_41860b115bc8f1d6a1d8d9c85a569409</title>
<g id="a_node1"><a xlink:href="dir_41860b115bc8f1d6a1d8d9c85a569409.html" target="_top" xlink:title="measurements">
<polygon fill="none" stroke="black" points="134,-412 44,-412 44,-376 134,-376 134,-412"/>
<text text-anchor="middle" x="89" y="-391.5" font-family="Helvetica,sans-Serif" font-size="10.00">measurements</text>
</a>
</g>
</g>
<!-- dir_520a86cecb0e205b0267bf504e30a434 -->
<g id="node2" class="node">
<title>dir_520a86cecb0e205b0267bf504e30a434</title>
<g id="a_node2"><a xlink:href="dir_520a86cecb0e205b0267bf504e30a434.html" target="_top" xlink:title="physics">
<polygon fill="none" stroke="black" points="70,-340 16,-340 16,-304 70,-304 70,-340"/>
<text text-anchor="middle" x="43" y="-319.5" font-family="Helvetica,sans-Serif" font-size="10.00">physics</text>
</a>
</g>
</g>
<!-- dir_41860b115bc8f1d6a1d8d9c85a569409&#45;&gt;dir_520a86cecb0e205b0267bf504e30a434 -->
<g id="edge1" class="edge">
<title>dir_41860b115bc8f1d6a1d8d9c85a569409&#45;&gt;dir_520a86cecb0e205b0267bf504e30a434</title>
<path fill="none" stroke="black" d="M77.63,-375.7C72.28,-367.56 65.8,-357.69 59.89,-348.7"/>
<polygon fill="black" stroke="black" points="62.66,-346.54 54.24,-340.1 56.81,-350.38 62.66,-346.54"/>
<g id="a_edge1&#45;headlabel"><a xlink:href="dir_000007_000008.html" target="_top" xlink:title="4">
<text text-anchor="middle" x="67" y="-345.48" font-family="Helvetica,sans-Serif" font-size="10.00">4</text>
</a>
</g>
</g>
<!-- dir_689da0fbbc4c0c811ae068fee20340f5 -->
<g id="node3" class="node">
<title>dir_689da0fbbc4c0c811ae068fee20340f5</title>
<g id="a_node3"><a xlink:href="dir_689da0fbbc4c0c811ae068fee20340f5.html" target="_top" xlink:title="core">
<polygon fill="none" stroke="black" points="150,-268 96,-268 96,-232 150,-232 150,-268"/>
<text text-anchor="middle" x="123" y="-247.5" font-family="Helvetica,sans-Serif" font-size="10.00">core</text>
</a>
</g>
</g>
<!-- dir_41860b115bc8f1d6a1d8d9c85a569409&#45;&gt;dir_689da0fbbc4c0c811ae068fee20340f5 -->
<g id="edge2" class="edge">
<title>dir_41860b115bc8f1d6a1d8d9c85a569409&#45;&gt;dir_689da0fbbc4c0c811ae068fee20340f5</title>
<path fill="none" stroke="black" d="M93.1,-375.87C98.92,-351.56 109.63,-306.82 116.53,-278.01"/>
<polygon fill="black" stroke="black" points="119.96,-278.73 118.88,-268.19 113.15,-277.1 119.96,-278.73"/>
<g id="a_edge2&#45;headlabel"><a xlink:href="dir_000007_000009.html" target="_top" xlink:title="6">
<text text-anchor="middle" x="121.88" y="-280.39" font-family="Helvetica,sans-Serif" font-size="10.00">6</text>
</a>
</g>
</g>
<!-- dir_bcc1ce19567e81766b626745e6abe58c -->
<g id="node5" class="node">
<title>dir_bcc1ce19567e81766b626745e6abe58c</title>
<g id="a_node5"><a xlink:href="dir_bcc1ce19567e81766b626745e6abe58c.html" target="_top" xlink:title="numerics">
<polygon fill="none" stroke="black" points="129,-52 67,-52 67,-16 129,-16 129,-52"/>
<text text-anchor="middle" x="98" y="-31.5" font-family="Helvetica,sans-Serif" font-size="10.00">numerics</text>
</a>
</g>
</g>
<!-- dir_41860b115bc8f1d6a1d8d9c85a569409&#45;&gt;dir_bcc1ce19567e81766b626745e6abe58c -->
<g id="edge3" class="edge">
<title>dir_41860b115bc8f1d6a1d8d9c85a569409&#45;&gt;dir_bcc1ce19567e81766b626745e6abe58c</title>
<path fill="none" stroke="black" d="M106.36,-375.93C129.89,-350.89 169,-301.65 169,-251 169,-251 169,-251 169,-177 169,-136.25 166.33,-123.87 147,-88 141.45,-77.7 133.42,-67.86 125.47,-59.51"/>
<polygon fill="black" stroke="black" points="127.81,-56.9 118.26,-52.3 122.86,-61.85 127.81,-56.9"/>
<g id="a_edge3&#45;headlabel"><a xlink:href="dir_000007_000013.html" target="_top" xlink:title="4">
<text text-anchor="middle" x="132.35" y="-54.93" font-family="Helvetica,sans-Serif" font-size="10.00">4</text>
</a>
</g>
</g>
<!-- dir_bfb67d1bf2055d55254a135fbe634cf0 -->
<g id="node6" class="node">
<title>dir_bfb67d1bf2055d55254a135fbe634cf0</title>
<g id="a_node6"><a xlink:href="dir_bfb67d1bf2055d55254a135fbe634cf0.html" target="_top" xlink:title="agents">
<polygon fill="#eeeeff" stroke="black" points="110,-196 56,-196 56,-160 110,-160 110,-196"/>
<text text-anchor="middle" x="83" y="-175.5" font-family="Helvetica,sans-Serif" font-size="10.00">agents</text>
</a>
</g>
</g>
<!-- dir_41860b115bc8f1d6a1d8d9c85a569409&#45;&gt;dir_bfb67d1bf2055d55254a135fbe634cf0 -->
<g id="edge4" class="edge">
<title>dir_41860b115bc8f1d6a1d8d9c85a569409&#45;&gt;dir_bfb67d1bf2055d55254a135fbe634cf0</title>
<path fill="none" stroke="black" d="M84.64,-375.85C80.07,-338.83 77.34,-251.18 79.08,-206.39"/>
<polygon fill="black" stroke="black" points="82.58,-206.4 79.6,-196.23 75.59,-206.04 82.58,-206.4"/>
<g id="a_edge4&#45;headlabel"><a xlink:href="dir_000007_000006.html" target="_top" xlink:title="6">
<text text-anchor="middle" x="85.23" y="-207.63" font-family="Helvetica,sans-Serif" font-size="10.00">6</text>
</a>
</g>
</g>
<!-- dir_520a86cecb0e205b0267bf504e30a434&#45;&gt;dir_689da0fbbc4c0c811ae068fee20340f5 -->
<g id="edge5" class="edge">
<title>dir_520a86cecb0e205b0267bf504e30a434&#45;&gt;dir_689da0fbbc4c0c811ae068fee20340f5</title>
<path fill="none" stroke="black" d="M62.78,-303.7C72.75,-294.97 85.01,-284.24 95.86,-274.75"/>
<polygon fill="black" stroke="black" points="98.23,-277.32 103.45,-268.1 93.62,-272.06 98.23,-277.32"/>
<g id="a_edge5&#45;headlabel"><a xlink:href="dir_000008_000009.html" target="_top" xlink:title="8">
<text text-anchor="middle" x="97.4" y="-279.33" font-family="Helvetica,sans-Serif" font-size="10.00">8</text>
</a>
</g>
</g>
<!-- dir_520a86cecb0e205b0267bf504e30a434&#45;&gt;dir_bcc1ce19567e81766b626745e6abe58c -->
<g id="edge6" class="edge">
<title>dir_520a86cecb0e205b0267bf504e30a434&#45;&gt;dir_bcc1ce19567e81766b626745e6abe58c</title>
<path fill="none" stroke="black" d="M37.59,-303.53C34.7,-293.29 31.45,-280.04 30,-268 20.34,-188.04 13.43,-159.25 51,-88 56.36,-77.84 64.06,-68.04 71.69,-59.68"/>
<polygon fill="black" stroke="black" points="74.22,-62.1 78.6,-52.45 69.16,-57.26 74.22,-62.1"/>
<g id="a_edge6&#45;headlabel"><a xlink:href="dir_000008_000013.html" target="_top" xlink:title="6">
<text text-anchor="middle" x="73.79" y="-64.16" font-family="Helvetica,sans-Serif" font-size="10.00">6</text>
</a>
</g>
</g>
<!-- dir_689da0fbbc4c0c811ae068fee20340f5&#45;&gt;dir_bcc1ce19567e81766b626745e6abe58c -->
<g id="edge10" class="edge">
<title>dir_689da0fbbc4c0c811ae068fee20340f5&#45;&gt;dir_bcc1ce19567e81766b626745e6abe58c</title>
<path fill="none" stroke="black" d="M129.4,-231.53C139.44,-201.38 156.07,-137.97 139,-88 135.56,-77.93 129.34,-68.28 122.77,-60.05"/>
<polygon fill="black" stroke="black" points="125.32,-57.65 116.17,-52.32 120,-62.2 125.32,-57.65"/>
<g id="a_edge10&#45;headlabel"><a xlink:href="dir_000009_000013.html" target="_top" xlink:title="1">
<text text-anchor="middle" x="129.82" y="-56.04" font-family="Helvetica,sans-Serif" font-size="10.00">1</text>
</a>
</g>
</g>
<!-- dir_689da0fbbc4c0c811ae068fee20340f5&#45;&gt;dir_bfb67d1bf2055d55254a135fbe634cf0 -->
<g id="edge11" class="edge">
<title>dir_689da0fbbc4c0c811ae068fee20340f5&#45;&gt;dir_bfb67d1bf2055d55254a135fbe634cf0</title>
<path fill="none" stroke="black" d="M107.2,-231.7C101.82,-223.73 96.1,-214.1 91.45,-205.26"/>
<polygon fill="black" stroke="black" points="94.47,-203.49 86.88,-196.1 88.21,-206.62 94.47,-203.49"/>
<g id="a_edge11&#45;headlabel"><a xlink:href="dir_000009_000006.html" target="_top" xlink:title="1">
<text text-anchor="middle" x="98.62" y="-202.94" font-family="Helvetica,sans-Serif" font-size="10.00">1</text>
</a>
</g>
</g>
<!-- dir_6f06eedd4381d05154931903bd792f62 -->
<g id="node4" class="node">
<title>dir_6f06eedd4381d05154931903bd792f62</title>
<g id="a_node4"><a xlink:href="dir_6f06eedd4381d05154931903bd792f62.html" target="_top" xlink:title="dynamics">
<polygon fill="none" stroke="black" points="130,-124 66,-124 66,-88 130,-88 130,-124"/>
<text text-anchor="middle" x="98" y="-103.5" font-family="Helvetica,sans-Serif" font-size="10.00">dynamics</text>
</a>
</g>
</g>
<!-- dir_6f06eedd4381d05154931903bd792f62&#45;&gt;dir_520a86cecb0e205b0267bf504e30a434 -->
<g id="edge7" class="edge">
<title>dir_6f06eedd4381d05154931903bd792f62&#45;&gt;dir_520a86cecb0e205b0267bf504e30a434</title>
<path fill="none" stroke="black" d="M75.11,-124.01C64.48,-133.33 52.9,-145.86 47,-160 28.71,-203.81 32.92,-260.34 37.83,-293.44"/>
<polygon fill="black" stroke="black" points="34.44,-294.4 39.49,-303.71 41.35,-293.28 34.44,-294.4"/>
<g id="a_edge7&#45;headlabel"><a xlink:href="dir_000010_000008.html" target="_top" xlink:title="4">
<text text-anchor="middle" x="31.07" y="-288.8" font-family="Helvetica,sans-Serif" font-size="10.00">4</text>
</a>
</g>
</g>
<!-- dir_6f06eedd4381d05154931903bd792f62&#45;&gt;dir_689da0fbbc4c0c811ae068fee20340f5 -->
<g id="edge8" class="edge">
<title>dir_6f06eedd4381d05154931903bd792f62&#45;&gt;dir_689da0fbbc4c0c811ae068fee20340f5</title>
<path fill="none" stroke="black" d="M106.51,-124.21C111.1,-134.36 116.35,-147.61 119,-160 123.35,-180.29 124.24,-203.76 124.1,-221.5"/>
<polygon fill="black" stroke="black" points="120.6,-221.66 123.9,-231.72 127.59,-221.79 120.6,-221.66"/>
<g id="a_edge8&#45;headlabel"><a xlink:href="dir_000010_000009.html" target="_top" xlink:title="3">
<text text-anchor="middle" x="117.83" y="-215.51" font-family="Helvetica,sans-Serif" font-size="10.00">3</text>
</a>
</g>
</g>
<!-- dir_6f06eedd4381d05154931903bd792f62&#45;&gt;dir_bcc1ce19567e81766b626745e6abe58c -->
<g id="edge9" class="edge">
<title>dir_6f06eedd4381d05154931903bd792f62&#45;&gt;dir_bcc1ce19567e81766b626745e6abe58c</title>
<path fill="none" stroke="black" d="M98,-87.7C98,-79.98 98,-70.71 98,-62.11"/>
<polygon fill="black" stroke="black" points="101.5,-62.1 98,-52.1 94.5,-62.1 101.5,-62.1"/>
<g id="a_edge9&#45;headlabel"><a xlink:href="dir_000010_000013.html" target="_top" xlink:title="3">
<text text-anchor="middle" x="104.34" y="-63.2" font-family="Helvetica,sans-Serif" font-size="10.00">3</text>
</a>
</g>
</g>
<!-- dir_bfb67d1bf2055d55254a135fbe634cf0&#45;&gt;dir_41860b115bc8f1d6a1d8d9c85a569409 -->
<g id="edge12" class="edge">
<title>dir_bfb67d1bf2055d55254a135fbe634cf0&#45;&gt;dir_41860b115bc8f1d6a1d8d9c85a569409</title>
<path fill="none" stroke="black" d="M87.37,-196.23C91.94,-233.32 94.66,-320.98 92.92,-365.71"/>
<polygon fill="black" stroke="black" points="89.42,-365.68 92.4,-375.85 96.41,-366.04 89.42,-365.68"/>
<g id="a_edge12&#45;headlabel"><a xlink:href="dir_000006_000007.html" target="_top" xlink:title="8">
<text text-anchor="middle" x="86.77" y="-359.45" font-family="Helvetica,sans-Serif" font-size="10.00">8</text>
</a>
</g>
</g>
<!-- dir_bfb67d1bf2055d55254a135fbe634cf0&#45;&gt;dir_520a86cecb0e205b0267bf504e30a434 -->
<g id="edge13" class="edge">
<title>dir_bfb67d1bf2055d55254a135fbe634cf0&#45;&gt;dir_520a86cecb0e205b0267bf504e30a434</title>
<path fill="none" stroke="black" d="M78.16,-196.19C71.3,-220.53 58.7,-265.28 50.59,-294.06"/>
<polygon fill="black" stroke="black" points="47.17,-293.3 47.82,-303.87 53.91,-295.2 47.17,-293.3"/>
<g id="a_edge13&#45;headlabel"><a xlink:href="dir_000006_000008.html" target="_top" xlink:title="6">
<text text-anchor="middle" x="45.41" y="-286.57" font-family="Helvetica,sans-Serif" font-size="10.00">6</text>
</a>
</g>
</g>
<!-- dir_bfb67d1bf2055d55254a135fbe634cf0&#45;&gt;dir_689da0fbbc4c0c811ae068fee20340f5 -->
<g id="edge14" class="edge">
<title>dir_bfb67d1bf2055d55254a135fbe634cf0&#45;&gt;dir_689da0fbbc4c0c811ae068fee20340f5</title>
<path fill="none" stroke="black" d="M98.67,-196.1C104.04,-204.04 109.76,-213.67 114.43,-222.51"/>
<polygon fill="black" stroke="black" points="111.42,-224.32 119.03,-231.7 117.68,-221.19 111.42,-224.32"/>
<g id="a_edge14&#45;headlabel"><a xlink:href="dir_000006_000009.html" target="_top" xlink:title="3">
<text text-anchor="middle" x="107.28" y="-219.87" font-family="Helvetica,sans-Serif" font-size="10.00">3</text>
</a>
</g>
</g>
<!-- dir_bfb67d1bf2055d55254a135fbe634cf0&#45;&gt;dir_6f06eedd4381d05154931903bd792f62 -->
<g id="edge15" class="edge">
<title>dir_bfb67d1bf2055d55254a135fbe634cf0&#45;&gt;dir_6f06eedd4381d05154931903bd792f62</title>
<path fill="none" stroke="black" d="M86.71,-159.7C88.36,-151.98 90.35,-142.71 92.19,-134.11"/>
<polygon fill="black" stroke="black" points="95.66,-134.62 94.33,-124.1 88.82,-133.15 95.66,-134.62"/>
<g id="a_edge15&#45;headlabel"><a xlink:href="dir_000006_000010.html" target="_top" xlink:title="2">
<text text-anchor="middle" x="97.68" y="-136.23" font-family="Helvetica,sans-Serif" font-size="10.00">2</text>
</a>
</g>
</g>
<!-- dir_bfb67d1bf2055d55254a135fbe634cf0&#45;&gt;dir_bcc1ce19567e81766b626745e6abe58c -->
<g id="edge16" class="edge">
<title>dir_bfb67d1bf2055d55254a135fbe634cf0&#45;&gt;dir_bcc1ce19567e81766b626745e6abe58c</title>
<path fill="none" stroke="black" d="M71.65,-159.79C61.22,-141.76 48.57,-112.68 57,-88 60.44,-77.93 66.66,-68.28 73.23,-60.05"/>
<polygon fill="black" stroke="black" points="76,-62.2 79.83,-52.32 70.68,-57.65 76,-62.2"/>
<g id="a_edge16&#45;headlabel"><a xlink:href="dir_000006_000013.html" target="_top" xlink:title="3">
<text text-anchor="middle" x="75.82" y="-64.28" font-family="Helvetica,sans-Serif" font-size="10.00">3</text>
</a>
</g>
</g>
</g>
</svg>
