<?xml version="1.0" encoding="UTF-8" standalone="no"?>
<!DOCTYPE svg PUBLIC "-//W3C//DTD SVG 1.1//EN"
 "http://www.w3.org/Graphics/SVG/1.1/DTD/svg11.dtd">
<!-- Generated by graphviz version 2.43.0 (0)
 -->
<!-- Title: examples Pages: 1 -->
<svg width="336pt" height="132pt"
 viewBox="0.00 0.00 336.00 132.00" xmlns="http://www.w3.org/2000/svg" xmlns:xlink="http://www.w3.org/1999/xlink">
<g id="graph0" class="graph" transform="scale(1 1) rotate(0) translate(4 128)">
<title>examples</title>
<polygon fill="white" stroke="transparent" points="-4,4 -4,-128 332,-128 332,4 -4,4"/>
<g id="clust1" class="cluster">
<title>clusterdir_d28a4824dc47e487b107a5db32ef43c4</title>
<g id="a_clust1"><a xlink:href="dir_d28a4824dc47e487b107a5db32ef43c4.html" target="_top">
<polygon fill="#eeeeff" stroke="black" points="8,-64 8,-116 320,-116 320,-64 8,-64"/>
</a>
</g>
</g>
<!-- dir_d28a4824dc47e487b107a5db32ef43c4 -->
<g id="node1" class="node">
<title>dir_d28a4824dc47e487b107a5db32ef43c4</title>
<text text-anchor="middle" x="279" y="-87.5" font-family="Helvetica,sans-Serif" font-size="10.00">examples</text>
</g>
<!-- dir_8976e5d03119516083eaca3ddca61311 -->
<g id="node2" class="node">
<title>dir_8976e5d03119516083eaca3ddca61311</title>
<g id="a_node2"><a xlink:href="dir_8976e5d03119516083eaca3ddca61311.html" target="_top" xlink:title="cpp">
<polygon fill="white" stroke="black" points="228,-108 174,-108 174,-72 228,-72 228,-108"/>
<text text-anchor="middle" x="201" y="-87.5" font-family="Helvetica,sans-Serif" font-size="10.00">cpp</text>
</a>
</g>
</g>
<!-- dir_0cac02388ded90a743b690659ebac3b7 -->
<g id="node5" class="node">
<title>dir_0cac02388ded90a743b690659ebac3b7</title>
<g id="a_node5"><a xlink:href="dir_0cac02388ded90a743b690659ebac3b7.html" target="_top" xlink:title="lupnt">
<polygon fill="white" stroke="red" points="228,-36 174,-36 174,0 228,0 228,-36"/>
<text text-anchor="middle" x="201" y="-15.5" font-family="Helvetica,sans-Serif" font-size="10.00">lupnt</text>
</a>
</g>
</g>
<!-- dir_8976e5d03119516083eaca3ddca61311&#45;&gt;dir_0cac02388ded90a743b690659ebac3b7 -->
<g id="edge1" class="edge">
<title>dir_8976e5d03119516083eaca3ddca61311&#45;&gt;dir_0cac02388ded90a743b690659ebac3b7</title>
<path fill="none" stroke="black" d="M201,-71.7C201,-63.98 201,-54.71 201,-46.11"/>
<polygon fill="black" stroke="black" points="204.5,-46.1 201,-36.1 197.5,-46.1 204.5,-46.1"/>
<g id="a_edge1&#45;headlabel"><a xlink:href="dir_000012_000005.html" target="_top" xlink:title="65">
<text text-anchor="middle" x="207.34" y="-47.2" font-family="Helvetica,sans-Serif" font-size="10.00">65</text>
</a>
</g>
</g>
<!-- dir_5b7385050fda83468a2ab27e9e75f65f -->
<g id="node3" class="node">
<title>dir_5b7385050fda83468a2ab27e9e75f65f</title>
<g id="a_node3"><a xlink:href="dir_5b7385050fda83468a2ab27e9e75f65f.html" target="_top" xlink:title="notebooks">
<polygon fill="white" stroke="black" points="156,-108 88,-108 88,-72 156,-72 156,-108"/>
<text text-anchor="middle" x="122" y="-87.5" font-family="Helvetica,sans-Serif" font-size="10.00">notebooks</text>
</a>
</g>
</g>
<!-- dir_d050070cc3e4bbd91d897ff8856046e0 -->
<g id="node4" class="node">
<title>dir_d050070cc3e4bbd91d897ff8856046e0</title>
<g id="a_node4"><a xlink:href="dir_d050070cc3e4bbd91d897ff8856046e0.html" target="_top" xlink:title="python">
<polygon fill="white" stroke="black" points="70,-108 16,-108 16,-72 70,-72 70,-108"/>
<text text-anchor="middle" x="43" y="-87.5" font-family="Helvetica,sans-Serif" font-size="10.00">python</text>
</a>
</g>
</g>
</g>
</svg>
