<?xml version="1.0" encoding="UTF-8" standalone="no"?>
<!DOCTYPE svg PUBLIC "-//W3C//DTD SVG 1.1//EN"
 "http://www.w3.org/Graphics/SVG/1.1/DTD/svg11.dtd">
<!-- Generated by graphviz version 2.43.0 (0)
 -->
<!-- Title: dynamics Pages: 1 -->
<svg width="134pt" height="311pt"
 viewBox="0.00 0.00 134.00 311.00" xmlns="http://www.w3.org/2000/svg" xmlns:xlink="http://www.w3.org/1999/xlink">
<g id="graph0" class="graph" transform="scale(1 1) rotate(0) translate(4 307)">
<title>dynamics</title>
<polygon fill="white" stroke="transparent" points="-4,4 -4,-307 130,-307 130,4 -4,4"/>
<g id="clust1" class="cluster">
<title>clusterdir_0cac02388ded90a743b690659ebac3b7</title>
<g id="a_clust1"><a xlink:href="dir_0cac02388ded90a743b690659ebac3b7.html" target="_top" xlink:title="lupnt">
<polygon fill="#ddddee" stroke="black" points="8,-8 8,-295 118,-295 118,-8 8,-8"/>
<text text-anchor="middle" x="63" y="-283" font-family="Helvetica,sans-Serif" font-size="10.00">lupnt</text>
</a>
</g>
</g>
<!-- dir_520a86cecb0e205b0267bf504e30a434 -->
<g id="node1" class="node">
<title>dir_520a86cecb0e205b0267bf504e30a434</title>
<g id="a_node1"><a xlink:href="dir_520a86cecb0e205b0267bf504e30a434.html" target="_top" xlink:title="physics">
<polygon fill="none" stroke="black" points="70,-196 16,-196 16,-160 70,-160 70,-196"/>
<text text-anchor="middle" x="43" y="-175.5" font-family="Helvetica,sans-Serif" font-size="10.00">physics</text>
</a>
</g>
</g>
<!-- dir_689da0fbbc4c0c811ae068fee20340f5 -->
<g id="node2" class="node">
<title>dir_689da0fbbc4c0c811ae068fee20340f5</title>
<g id="a_node2"><a xlink:href="dir_689da0fbbc4c0c811ae068fee20340f5.html" target="_top" xlink:title="core">
<polygon fill="none" stroke="black" points="90,-124 36,-124 36,-88 90,-88 90,-124"/>
<text text-anchor="middle" x="63" y="-103.5" font-family="Helvetica,sans-Serif" font-size="10.00">core</text>
</a>
</g>
</g>
<!-- dir_520a86cecb0e205b0267bf504e30a434&#45;&gt;dir_689da0fbbc4c0c811ae068fee20340f5 -->
<g id="edge1" class="edge">
<title>dir_520a86cecb0e205b0267bf504e30a434&#45;&gt;dir_689da0fbbc4c0c811ae068fee20340f5</title>
<path fill="none" stroke="black" d="M47.94,-159.7C50.17,-151.9 52.85,-142.51 55.33,-133.83"/>
<polygon fill="black" stroke="black" points="58.73,-134.68 58.11,-124.1 52,-132.76 58.73,-134.68"/>
<g id="a_edge1&#45;headlabel"><a xlink:href="dir_000008_000009.html" target="_top" xlink:title="8">
<text text-anchor="middle" x="60.47" y="-136.42" font-family="Helvetica,sans-Serif" font-size="10.00">8</text>
</a>
</g>
</g>
<!-- dir_bcc1ce19567e81766b626745e6abe58c -->
<g id="node3" class="node">
<title>dir_bcc1ce19567e81766b626745e6abe58c</title>
<g id="a_node3"><a xlink:href="dir_bcc1ce19567e81766b626745e6abe58c.html" target="_top" xlink:title="numerics">
<polygon fill="none" stroke="black" points="94,-52 32,-52 32,-16 94,-16 94,-52"/>
<text text-anchor="middle" x="63" y="-31.5" font-family="Helvetica,sans-Serif" font-size="10.00">numerics</text>
</a>
</g>
</g>
<!-- dir_520a86cecb0e205b0267bf504e30a434&#45;&gt;dir_bcc1ce19567e81766b626745e6abe58c -->
<g id="edge2" class="edge">
<title>dir_520a86cecb0e205b0267bf504e30a434&#45;&gt;dir_bcc1ce19567e81766b626745e6abe58c</title>
<path fill="none" stroke="black" d="M35.22,-159.98C28.02,-141.85 19.48,-112.46 27,-88 30.01,-78.22 35.51,-68.62 41.32,-60.33"/>
<polygon fill="black" stroke="black" points="44.19,-62.33 47.39,-52.23 38.59,-58.13 44.19,-62.33"/>
<g id="a_edge2&#45;headlabel"><a xlink:href="dir_000008_000013.html" target="_top" xlink:title="6">
<text text-anchor="middle" x="44.31" y="-64.41" font-family="Helvetica,sans-Serif" font-size="10.00">6</text>
</a>
</g>
</g>
<!-- dir_689da0fbbc4c0c811ae068fee20340f5&#45;&gt;dir_bcc1ce19567e81766b626745e6abe58c -->
<g id="edge6" class="edge">
<title>dir_689da0fbbc4c0c811ae068fee20340f5&#45;&gt;dir_bcc1ce19567e81766b626745e6abe58c</title>
<path fill="none" stroke="black" d="M63,-87.7C63,-79.98 63,-70.71 63,-62.11"/>
<polygon fill="black" stroke="black" points="66.5,-62.1 63,-52.1 59.5,-62.1 66.5,-62.1"/>
<g id="a_edge6&#45;headlabel"><a xlink:href="dir_000009_000013.html" target="_top" xlink:title="1">
<text text-anchor="middle" x="69.34" y="-63.2" font-family="Helvetica,sans-Serif" font-size="10.00">1</text>
</a>
</g>
</g>
<!-- dir_6f06eedd4381d05154931903bd792f62 -->
<g id="node4" class="node">
<title>dir_6f06eedd4381d05154931903bd792f62</title>
<g id="a_node4"><a xlink:href="dir_6f06eedd4381d05154931903bd792f62.html" target="_top" xlink:title="dynamics">
<polygon fill="#eeeeff" stroke="black" points="110,-268 46,-268 46,-232 110,-232 110,-268"/>
<text text-anchor="middle" x="78" y="-247.5" font-family="Helvetica,sans-Serif" font-size="10.00">dynamics</text>
</a>
</g>
</g>
<!-- dir_6f06eedd4381d05154931903bd792f62&#45;&gt;dir_520a86cecb0e205b0267bf504e30a434 -->
<g id="edge3" class="edge">
<title>dir_6f06eedd4381d05154931903bd792f62&#45;&gt;dir_520a86cecb0e205b0267bf504e30a434</title>
<path fill="none" stroke="black" d="M69.35,-231.7C65.36,-223.73 60.55,-214.1 56.13,-205.26"/>
<polygon fill="black" stroke="black" points="59.15,-203.48 51.55,-196.1 52.89,-206.61 59.15,-203.48"/>
<g id="a_edge3&#45;headlabel"><a xlink:href="dir_000010_000008.html" target="_top" xlink:title="4">
<text text-anchor="middle" x="63.3" y="-202.93" font-family="Helvetica,sans-Serif" font-size="10.00">4</text>
</a>
</g>
</g>
<!-- dir_6f06eedd4381d05154931903bd792f62&#45;&gt;dir_689da0fbbc4c0c811ae068fee20340f5 -->
<g id="edge4" class="edge">
<title>dir_6f06eedd4381d05154931903bd792f62&#45;&gt;dir_689da0fbbc4c0c811ae068fee20340f5</title>
<path fill="none" stroke="black" d="M79.78,-231.83C81.28,-213.83 82.66,-184.76 79,-160 77.72,-151.35 75.33,-142.15 72.78,-133.89"/>
<polygon fill="black" stroke="black" points="76.1,-132.78 69.65,-124.37 69.45,-134.96 76.1,-132.78"/>
<g id="a_edge4&#45;headlabel"><a xlink:href="dir_000010_000009.html" target="_top" xlink:title="3">
<text text-anchor="middle" x="79.92" y="-132.81" font-family="Helvetica,sans-Serif" font-size="10.00">3</text>
</a>
</g>
</g>
<!-- dir_6f06eedd4381d05154931903bd792f62&#45;&gt;dir_bcc1ce19567e81766b626745e6abe58c -->
<g id="edge5" class="edge">
<title>dir_6f06eedd4381d05154931903bd792f62&#45;&gt;dir_bcc1ce19567e81766b626745e6abe58c</title>
<path fill="none" stroke="black" d="M84.95,-231.68C95.95,-201.74 114.58,-138.65 99,-88 95.99,-78.22 90.49,-68.62 84.68,-60.33"/>
<polygon fill="black" stroke="black" points="87.41,-58.13 78.61,-52.23 81.81,-62.33 87.41,-58.13"/>
<g id="a_edge5&#45;headlabel"><a xlink:href="dir_000010_000013.html" target="_top" xlink:title="3">
<text text-anchor="middle" x="91.83" y="-56.8" font-family="Helvetica,sans-Serif" font-size="10.00">3</text>
</a>
</g>
</g>
</g>
</svg>
