<?xml version="1.0" encoding="UTF-8" standalone="no"?>
<!DOCTYPE svg PUBLIC "-//W3C//DTD SVG 1.1//EN"
 "http://www.w3.org/Graphics/SVG/1.1/DTD/svg11.dtd">
<!-- Generated by graphviz version 2.43.0 (0)
 -->
<!-- Title: measurements Pages: 1 -->
<svg width="190pt" height="383pt"
 viewBox="0.00 0.00 190.00 383.00" xmlns="http://www.w3.org/2000/svg" xmlns:xlink="http://www.w3.org/1999/xlink">
<g id="graph0" class="graph" transform="scale(1 1) rotate(0) translate(4 379)">
<title>measurements</title>
<polygon fill="white" stroke="transparent" points="-4,4 -4,-379 186,-379 186,4 -4,4"/>
<g id="clust1" class="cluster">
<title>clusterdir_0cac02388ded90a743b690659ebac3b7</title>
<g id="a_clust1"><a xlink:href="dir_0cac02388ded90a743b690659ebac3b7.html" target="_top" xlink:title="lupnt">
<polygon fill="#ddddee" stroke="black" points="8,-8 8,-367 174,-367 174,-8 8,-8"/>
<text text-anchor="middle" x="91" y="-355" font-family="Helvetica,sans-Serif" font-size="10.00">lupnt</text>
</a>
</g>
</g>
<!-- dir_520a86cecb0e205b0267bf504e30a434 -->
<g id="node1" class="node">
<title>dir_520a86cecb0e205b0267bf504e30a434</title>
<g id="a_node1"><a xlink:href="dir_520a86cecb0e205b0267bf504e30a434.html" target="_top" xlink:title="physics">
<polygon fill="none" stroke="black" points="90,-340 36,-340 36,-304 90,-304 90,-340"/>
<text text-anchor="middle" x="63" y="-319.5" font-family="Helvetica,sans-Serif" font-size="10.00">physics</text>
</a>
</g>
</g>
<!-- dir_689da0fbbc4c0c811ae068fee20340f5 -->
<g id="node2" class="node">
<title>dir_689da0fbbc4c0c811ae068fee20340f5</title>
<g id="a_node2"><a xlink:href="dir_689da0fbbc4c0c811ae068fee20340f5.html" target="_top" xlink:title="core">
<polygon fill="none" stroke="black" points="110,-268 56,-268 56,-232 110,-232 110,-268"/>
<text text-anchor="middle" x="83" y="-247.5" font-family="Helvetica,sans-Serif" font-size="10.00">core</text>
</a>
</g>
</g>
<!-- dir_520a86cecb0e205b0267bf504e30a434&#45;&gt;dir_689da0fbbc4c0c811ae068fee20340f5 -->
<g id="edge5" class="edge">
<title>dir_520a86cecb0e205b0267bf504e30a434&#45;&gt;dir_689da0fbbc4c0c811ae068fee20340f5</title>
<path fill="none" stroke="black" d="M67.94,-303.7C70.17,-295.9 72.85,-286.51 75.33,-277.83"/>
<polygon fill="black" stroke="black" points="78.73,-278.68 78.11,-268.1 72,-276.76 78.73,-278.68"/>
<g id="a_edge5&#45;headlabel"><a xlink:href="dir_000008_000009.html" target="_top" xlink:title="8">
<text text-anchor="middle" x="80.47" y="-280.42" font-family="Helvetica,sans-Serif" font-size="10.00">8</text>
</a>
</g>
</g>
<!-- dir_bcc1ce19567e81766b626745e6abe58c -->
<g id="node3" class="node">
<title>dir_bcc1ce19567e81766b626745e6abe58c</title>
<g id="a_node3"><a xlink:href="dir_bcc1ce19567e81766b626745e6abe58c.html" target="_top" xlink:title="numerics">
<polygon fill="none" stroke="black" points="105,-52 43,-52 43,-16 105,-16 105,-52"/>
<text text-anchor="middle" x="74" y="-31.5" font-family="Helvetica,sans-Serif" font-size="10.00">numerics</text>
</a>
</g>
</g>
<!-- dir_520a86cecb0e205b0267bf504e30a434&#45;&gt;dir_bcc1ce19567e81766b626745e6abe58c -->
<g id="edge6" class="edge">
<title>dir_520a86cecb0e205b0267bf504e30a434&#45;&gt;dir_bcc1ce19567e81766b626745e6abe58c</title>
<path fill="none" stroke="black" d="M54.76,-303.66C50.18,-293.46 44.68,-280.21 41,-268 27.03,-221.66 22.68,-208.21 27,-160 29.9,-127.61 28.1,-118.26 40,-88 43.74,-78.49 49.28,-68.85 54.82,-60.45"/>
<polygon fill="black" stroke="black" points="57.71,-62.42 60.5,-52.2 51.94,-58.45 57.71,-62.42"/>
<g id="a_edge6&#45;headlabel"><a xlink:href="dir_000008_000013.html" target="_top" xlink:title="6">
<text text-anchor="middle" x="58.01" y="-64.49" font-family="Helvetica,sans-Serif" font-size="10.00">6</text>
</a>
</g>
</g>
<!-- dir_689da0fbbc4c0c811ae068fee20340f5&#45;&gt;dir_bcc1ce19567e81766b626745e6abe58c -->
<g id="edge7" class="edge">
<title>dir_689da0fbbc4c0c811ae068fee20340f5&#45;&gt;dir_bcc1ce19567e81766b626745e6abe58c</title>
<path fill="none" stroke="black" d="M101.34,-231.67C130.72,-201.73 182.38,-138.64 155,-88 146.18,-71.69 129.91,-59.59 114.26,-51.11"/>
<polygon fill="black" stroke="black" points="115.68,-47.9 105.18,-46.52 112.53,-54.15 115.68,-47.9"/>
<g id="a_edge7&#45;headlabel"><a xlink:href="dir_000009_000013.html" target="_top" xlink:title="1">
<text text-anchor="middle" x="120.17" y="-44.49" font-family="Helvetica,sans-Serif" font-size="10.00">1</text>
</a>
</g>
</g>
<!-- dir_bfb67d1bf2055d55254a135fbe634cf0 -->
<g id="node4" class="node">
<title>dir_bfb67d1bf2055d55254a135fbe634cf0</title>
<g id="a_node4"><a xlink:href="dir_bfb67d1bf2055d55254a135fbe634cf0.html" target="_top" xlink:title="agents">
<polygon fill="none" stroke="black" points="90,-196 36,-196 36,-160 90,-160 90,-196"/>
<text text-anchor="middle" x="63" y="-175.5" font-family="Helvetica,sans-Serif" font-size="10.00">agents</text>
</a>
</g>
</g>
<!-- dir_689da0fbbc4c0c811ae068fee20340f5&#45;&gt;dir_bfb67d1bf2055d55254a135fbe634cf0 -->
<g id="edge8" class="edge">
<title>dir_689da0fbbc4c0c811ae068fee20340f5&#45;&gt;dir_bfb67d1bf2055d55254a135fbe634cf0</title>
<path fill="none" stroke="black" d="M72.14,-231.7C69.14,-223.98 66.27,-214.71 64.15,-206.11"/>
<polygon fill="black" stroke="black" points="67.52,-205.14 61.99,-196.1 60.68,-206.62 67.52,-205.14"/>
<g id="a_edge8&#45;headlabel"><a xlink:href="dir_000009_000006.html" target="_top" xlink:title="1">
<text text-anchor="middle" x="71.06" y="-205.56" font-family="Helvetica,sans-Serif" font-size="10.00">1</text>
</a>
</g>
</g>
<!-- dir_bfb67d1bf2055d55254a135fbe634cf0&#45;&gt;dir_520a86cecb0e205b0267bf504e30a434 -->
<g id="edge10" class="edge">
<title>dir_bfb67d1bf2055d55254a135fbe634cf0&#45;&gt;dir_520a86cecb0e205b0267bf504e30a434</title>
<path fill="none" stroke="black" d="M56.35,-196.37C52.8,-206.58 48.8,-219.83 47,-232 44.66,-247.83 44.66,-252.17 47,-268 48.28,-276.65 50.67,-285.85 53.22,-294.11"/>
<polygon fill="black" stroke="black" points="49.9,-295.22 56.35,-303.63 56.55,-293.04 49.9,-295.22"/>
<g id="a_edge10&#45;headlabel"><a xlink:href="dir_000006_000008.html" target="_top" xlink:title="6">
<text text-anchor="middle" x="46.08" y="-290.19" font-family="Helvetica,sans-Serif" font-size="10.00">6</text>
</a>
</g>
</g>
<!-- dir_bfb67d1bf2055d55254a135fbe634cf0&#45;&gt;dir_689da0fbbc4c0c811ae068fee20340f5 -->
<g id="edge11" class="edge">
<title>dir_bfb67d1bf2055d55254a135fbe634cf0&#45;&gt;dir_689da0fbbc4c0c811ae068fee20340f5</title>
<path fill="none" stroke="black" d="M73.78,-196.1C76.78,-203.79 79.67,-213.05 81.79,-221.67"/>
<polygon fill="black" stroke="black" points="78.43,-222.67 83.97,-231.7 85.27,-221.18 78.43,-222.67"/>
<g id="a_edge11&#45;headlabel"><a xlink:href="dir_000006_000009.html" target="_top" xlink:title="3">
<text text-anchor="middle" x="74.89" y="-217.26" font-family="Helvetica,sans-Serif" font-size="10.00">3</text>
</a>
</g>
</g>
<!-- dir_bfb67d1bf2055d55254a135fbe634cf0&#45;&gt;dir_bcc1ce19567e81766b626745e6abe58c -->
<g id="edge12" class="edge">
<title>dir_bfb67d1bf2055d55254a135fbe634cf0&#45;&gt;dir_bcc1ce19567e81766b626745e6abe58c</title>
<path fill="none" stroke="black" d="M55.71,-159.82C49.05,-141.8 41.06,-112.73 47,-88 49.21,-78.81 53.29,-69.41 57.62,-61.13"/>
<polygon fill="black" stroke="black" points="60.72,-62.77 62.53,-52.33 54.6,-59.36 60.72,-62.77"/>
<g id="a_edge12&#45;headlabel"><a xlink:href="dir_000006_000013.html" target="_top" xlink:title="3">
<text text-anchor="middle" x="61.44" y="-64.79" font-family="Helvetica,sans-Serif" font-size="10.00">3</text>
</a>
</g>
</g>
<!-- dir_41860b115bc8f1d6a1d8d9c85a569409 -->
<g id="node5" class="node">
<title>dir_41860b115bc8f1d6a1d8d9c85a569409</title>
<g id="a_node5"><a xlink:href="dir_41860b115bc8f1d6a1d8d9c85a569409.html" target="_top" xlink:title="measurements">
<polygon fill="#eeeeff" stroke="black" points="146,-124 56,-124 56,-88 146,-88 146,-124"/>
<text text-anchor="middle" x="101" y="-103.5" font-family="Helvetica,sans-Serif" font-size="10.00">measurements</text>
</a>
</g>
</g>
<!-- dir_bfb67d1bf2055d55254a135fbe634cf0&#45;&gt;dir_41860b115bc8f1d6a1d8d9c85a569409 -->
<g id="edge9" class="edge">
<title>dir_bfb67d1bf2055d55254a135fbe634cf0&#45;&gt;dir_41860b115bc8f1d6a1d8d9c85a569409</title>
<path fill="none" stroke="black" d="M66.48,-159.7C70.06,-151.56 75.21,-141.69 80.51,-132.7"/>
<polygon fill="black" stroke="black" points="83.55,-134.45 85.82,-124.1 77.59,-130.78 83.55,-134.45"/>
<g id="a_edge9&#45;headlabel"><a xlink:href="dir_000006_000007.html" target="_top" xlink:title="8">
<text text-anchor="middle" x="84.07" y="-136.5" font-family="Helvetica,sans-Serif" font-size="10.00">8</text>
</a>
</g>
</g>
<!-- dir_41860b115bc8f1d6a1d8d9c85a569409&#45;&gt;dir_520a86cecb0e205b0267bf504e30a434 -->
<g id="edge1" class="edge">
<title>dir_41860b115bc8f1d6a1d8d9c85a569409&#45;&gt;dir_520a86cecb0e205b0267bf504e30a434</title>
<path fill="none" stroke="black" d="M108.37,-124.28C120.19,-154.69 140.02,-219.17 119,-268 114.21,-279.13 105.81,-289.01 96.95,-297.14"/>
<polygon fill="black" stroke="black" points="94.46,-294.66 89.12,-303.82 99,-299.99 94.46,-294.66"/>
<g id="a_edge1&#45;headlabel"><a xlink:href="dir_000007_000008.html" target="_top" xlink:title="4">
<text text-anchor="middle" x="95.35" y="-287.67" font-family="Helvetica,sans-Serif" font-size="10.00">4</text>
</a>
</g>
</g>
<!-- dir_41860b115bc8f1d6a1d8d9c85a569409&#45;&gt;dir_689da0fbbc4c0c811ae068fee20340f5 -->
<g id="edge2" class="edge">
<title>dir_41860b115bc8f1d6a1d8d9c85a569409&#45;&gt;dir_689da0fbbc4c0c811ae068fee20340f5</title>
<path fill="none" stroke="black" d="M101.98,-124.19C102.69,-142.2 102.94,-171.27 99,-196 97.63,-204.64 95.21,-213.83 92.66,-222.09"/>
<polygon fill="black" stroke="black" points="89.33,-221.02 89.55,-231.61 95.98,-223.19 89.33,-221.02"/>
<g id="a_edge2&#45;headlabel"><a xlink:href="dir_000007_000009.html" target="_top" xlink:title="6">
<text text-anchor="middle" x="87.75" y="-214.22" font-family="Helvetica,sans-Serif" font-size="10.00">6</text>
</a>
</g>
</g>
<!-- dir_41860b115bc8f1d6a1d8d9c85a569409&#45;&gt;dir_bcc1ce19567e81766b626745e6abe58c -->
<g id="edge3" class="edge">
<title>dir_41860b115bc8f1d6a1d8d9c85a569409&#45;&gt;dir_bcc1ce19567e81766b626745e6abe58c</title>
<path fill="none" stroke="black" d="M94.33,-87.7C91.29,-79.81 87.62,-70.3 84.24,-61.55"/>
<polygon fill="black" stroke="black" points="87.46,-60.17 80.6,-52.1 80.93,-62.69 87.46,-60.17"/>
<g id="a_edge3&#45;headlabel"><a xlink:href="dir_000007_000013.html" target="_top" xlink:title="4">
<text text-anchor="middle" x="91.4" y="-60.01" font-family="Helvetica,sans-Serif" font-size="10.00">4</text>
</a>
</g>
</g>
<!-- dir_41860b115bc8f1d6a1d8d9c85a569409&#45;&gt;dir_bfb67d1bf2055d55254a135fbe634cf0 -->
<g id="edge4" class="edge">
<title>dir_41860b115bc8f1d6a1d8d9c85a569409&#45;&gt;dir_bfb67d1bf2055d55254a135fbe634cf0</title>
<path fill="none" stroke="black" d="M97.61,-124.1C94.06,-132.21 88.92,-142.08 83.62,-151.08"/>
<polygon fill="black" stroke="black" points="80.57,-149.35 78.31,-159.7 86.53,-153.02 80.57,-149.35"/>
<g id="a_edge4&#45;headlabel"><a xlink:href="dir_000007_000006.html" target="_top" xlink:title="6">
<text text-anchor="middle" x="80.04" y="-142.3" font-family="Helvetica,sans-Serif" font-size="10.00">6</text>
</a>
</g>
</g>
</g>
</svg>
