<?xml version="1.0" encoding="UTF-8" standalone="no"?>
<!DOCTYPE svg PUBLIC "-//W3C//DTD SVG 1.1//EN"
 "http://www.w3.org/Graphics/SVG/1.1/DTD/svg11.dtd">
<!-- Generated by graphviz version 2.43.0 (0)
 -->
<!-- Title: DynamicsAnalytical.cpp Pages: 1 -->
<!--zoomable 274 -->
<svg id="main" version="1.1" xmlns="http://www.w3.org/2000/svg" xmlns:xlink="http://www.w3.org/1999/xlink" xml:space="preserve" onload="init(evt)">
<style type="text/css"><![CDATA[
.edge:hover path { stroke: red; }
.edge:hover polygon { stroke: red; fill: red; }
]]></style>
<script type="text/javascript"><![CDATA[
var edges = document.getElementsByTagName('g');
if (edges && edges.length) {
  for (var i=0;i<edges.length;i++) {
    if (edges[i].id.substr(0,4)=='edge') {
      edges[i].setAttribute('class','edge');
    }
  }
}
]]></script>
        <defs>
                <circle id="rim" cx="0" cy="0" r="7"/>
                <circle id="rim2" cx="0" cy="0" r="3.5"/>
                <g id="zoomPlus">
                        <use xlink:href="#rim" fill="#404040">
                                <set attributeName="fill" to="#808080" begin="zoomplus.mouseover" end="zoomplus.mouseout"/>
                        </use>
                        <path d="M-4,0h8M0,-4v8" fill="none" stroke="white" stroke-width="1.5" pointer-events="none"/>
                </g>
                <g id="zoomMin">
                        <use xlink:href="#rim" fill="#404040">
                                <set attributeName="fill" to="#808080" begin="zoomminus.mouseover" end="zoomminus.mouseout"/>
                        </use>
                        <path d="M-4,0h8" fill="none" stroke="white" stroke-width="1.5" pointer-events="none"/>
                </g>
                <g id="dirArrow">
                        <path fill="none" stroke="white" stroke-width="1.5" d="M0,-3.0v7 M-2.5,-0.5L0,-3.0L2.5,-0.5"/>
                </g>
               <g id="resetDef">
                       <use xlink:href="#rim2" fill="#404040">
                               <set attributeName="fill" to="#808080" begin="reset.mouseover" end="reset.mouseout"/>
                       </use>
               </g>
        </defs>

<script type="text/javascript">
var viewWidth = 1838;
var viewHeight = 274;
var sectionId = 'dynsection-0';
</script>
<script xlink:href="svgpan.js"/>
<svg id="graph" class="graph">
<g id="viewport">
<title>DynamicsAnalytical.cpp</title>
<polygon fill="white" stroke="transparent" points="-4,4 -4,-270 1833.88,-270 1833.88,4 -4,4"/>
<!-- Node1 -->
<g id="node1" class="node">
<title>Node1</title>
<g id="a_node1"><a xlink:title="Analytical orbit dynamics implementation.">
<polygon fill="#bfbfbf" stroke="black" points="799.45,-246.5 799.45,-265.5 933.45,-265.5 933.45,-246.5 799.45,-246.5"/>
<text text-anchor="middle" x="866.45" y="-253.5" font-family="Helvetica,sans-Serif" font-size="10.00">DynamicsAnalytical.cpp</text>
</a>
</g>
</g>
<!-- Node2 -->
<g id="node2" class="node">
<title>Node2</title>
<g id="a_node2"><a xlink:title=" ">
<polygon fill="white" stroke="#bfbfbf" points="749.95,-185 749.95,-204 810.95,-204 810.95,-185 749.95,-185"/>
<text text-anchor="middle" x="780.45" y="-192" font-family="Helvetica,sans-Serif" font-size="10.00">Eigen/QR</text>
</a>
</g>
</g>
<!-- Node1&#45;&gt;Node2 -->
<g id="edge1" class="edge">
<title>Node1&#45;&gt;Node2</title>
<path fill="none" stroke="midnightblue" d="M854.13,-246.48C840.34,-236.93 817.75,-221.31 801.22,-209.87"/>
<polygon fill="midnightblue" stroke="midnightblue" points="802.97,-206.82 792.75,-204.01 798.98,-212.58 802.97,-206.82"/>
</g>
<!-- Node3 -->
<g id="node3" class="node">
<title>Node3</title>
<g id="a_node3"><a xlink:href="Dynamics_8h.html" target="_top" xlink:title="Interface for Dynamics.">
<polygon fill="white" stroke="black" points="829.45,-185 829.45,-204 903.45,-204 903.45,-185 829.45,-185"/>
<text text-anchor="middle" x="866.45" y="-192" font-family="Helvetica,sans-Serif" font-size="10.00">Dynamics.h</text>
</a>
</g>
</g>
<!-- Node1&#45;&gt;Node3 -->
<g id="edge2" class="edge">
<title>Node1&#45;&gt;Node3</title>
<path fill="none" stroke="midnightblue" d="M866.45,-246.48C866.45,-238.08 866.45,-224.98 866.45,-214.16"/>
<polygon fill="midnightblue" stroke="midnightblue" points="869.95,-214.01 866.45,-204.01 862.95,-214.01 869.95,-214.01"/>
</g>
<!-- Node26 -->
<g id="node26" class="node">
<title>Node26</title>
<g id="a_node26"><a xlink:href="OrbitStateUtils_8h.html" target="_top" xlink:title="Util functions for state conversions.">
<polygon fill="white" stroke="black" points="1244.45,-179.5 1244.45,-209.5 1378.45,-209.5 1378.45,-179.5 1244.45,-179.5"/>
<text text-anchor="start" x="1252.45" y="-197.5" font-family="Helvetica,sans-Serif" font-size="10.00">lupnt/physics/OrbitState</text>
<text text-anchor="middle" x="1311.45" y="-186.5" font-family="Helvetica,sans-Serif" font-size="10.00">Utils.h</text>
</a>
</g>
</g>
<!-- Node1&#45;&gt;Node26 -->
<g id="edge42" class="edge">
<title>Node1&#45;&gt;Node26</title>
<path fill="none" stroke="midnightblue" d="M930.21,-246.48C1010.43,-235.75 1148.08,-217.34 1234.19,-205.83"/>
<polygon fill="midnightblue" stroke="midnightblue" points="1234.72,-209.29 1244.17,-204.5 1233.8,-202.35 1234.72,-209.29"/>
</g>
<!-- Node4 -->
<g id="node4" class="node">
<title>Node4</title>
<g id="a_node4"><a xlink:title=" ">
<polygon fill="white" stroke="#bfbfbf" points="818.95,-6 818.95,-25 955.95,-25 955.95,-6 818.95,-6"/>
<text text-anchor="middle" x="887.45" y="-13" font-family="Helvetica,sans-Serif" font-size="10.00">autodiff/forward/real.hpp</text>
</a>
</g>
</g>
<!-- Node3&#45;&gt;Node4 -->
<g id="edge3" class="edge">
<title>Node3&#45;&gt;Node4</title>
<path fill="none" stroke="midnightblue" d="M868.78,-184.75C873.46,-166.66 883.86,-123.76 887.45,-87 889.16,-69.51 888.95,-49.45 888.44,-35.22"/>
<polygon fill="midnightblue" stroke="midnightblue" points="891.94,-35.04 888,-25.21 884.94,-35.35 891.94,-35.04"/>
</g>
<!-- Node5 -->
<g id="node5" class="node">
<title>Node5</title>
<g id="a_node5"><a xlink:href="GravityField_8h.html" target="_top" xlink:title="Gravity field model and acceleration calculation.">
<polygon fill="white" stroke="black" points="157.95,-123.5 157.95,-142.5 320.95,-142.5 320.95,-123.5 157.95,-123.5"/>
<text text-anchor="middle" x="239.45" y="-130.5" font-family="Helvetica,sans-Serif" font-size="10.00">lupnt/dynamics/GravityField.h</text>
</a>
</g>
</g>
<!-- Node3&#45;&gt;Node5 -->
<g id="edge4" class="edge">
<title>Node3&#45;&gt;Node5</title>
<path fill="none" stroke="midnightblue" d="M842.84,-184.92C835.73,-182.65 827.85,-180.43 820.45,-179 649.8,-145.94 446.51,-136.99 331.26,-134.67"/>
<polygon fill="midnightblue" stroke="midnightblue" points="331.13,-131.17 321.07,-134.48 331,-138.17 331.13,-131.17"/>
</g>
<!-- Node18 -->
<g id="node18" class="node">
<title>Node18</title>
<g id="a_node18"><a xlink:href="Propagator_8h.html" target="_top" xlink:title="Numerical Propagator.">
<polygon fill="white" stroke="black" points="682.45,-123.5 682.45,-142.5 838.45,-142.5 838.45,-123.5 682.45,-123.5"/>
<text text-anchor="middle" x="760.45" y="-130.5" font-family="Helvetica,sans-Serif" font-size="10.00">lupnt/dynamics/Propagator.h</text>
</a>
</g>
</g>
<!-- Node3&#45;&gt;Node18 -->
<g id="edge22" class="edge">
<title>Node3&#45;&gt;Node18</title>
<path fill="none" stroke="midnightblue" d="M851.27,-184.98C833.79,-175.17 804.87,-158.93 784.37,-147.42"/>
<polygon fill="midnightblue" stroke="midnightblue" points="786.05,-144.35 775.61,-142.51 782.62,-150.46 786.05,-144.35"/>
</g>
<!-- Node20 -->
<g id="node20" class="node">
<title>Node20</title>
<g id="a_node20"><a xlink:href="Integrator_8h.html" target="_top" xlink:title="Integrator interfaces.">
<polygon fill="white" stroke="black" points="526.95,-67.5 526.95,-86.5 675.95,-86.5 675.95,-67.5 526.95,-67.5"/>
<text text-anchor="middle" x="601.45" y="-74.5" font-family="Helvetica,sans-Serif" font-size="10.00">lupnt/numerics/Integrator.h</text>
</a>
</g>
</g>
<!-- Node3&#45;&gt;Node20 -->
<g id="edge30" class="edge">
<title>Node3&#45;&gt;Node20</title>
<path fill="none" stroke="midnightblue" d="M840.27,-184.92C833.82,-182.9 826.9,-180.8 820.45,-179 755.68,-160.88 732.89,-174.49 673.45,-143 650.32,-130.74 628.72,-109.4 615.34,-94.52"/>
<polygon fill="midnightblue" stroke="midnightblue" points="617.66,-91.87 608.45,-86.63 612.39,-96.47 617.66,-91.87"/>
</g>
<!-- Node21 -->
<g id="node21" class="node">
<title>Node21</title>
<g id="a_node21"><a xlink:href="OrbitState_8h.html" target="_top" xlink:title="Orbit states.">
<polygon fill="white" stroke="black" points="998.95,-123.5 998.95,-142.5 1141.95,-142.5 1141.95,-123.5 998.95,-123.5"/>
<text text-anchor="middle" x="1070.45" y="-130.5" font-family="Helvetica,sans-Serif" font-size="10.00">lupnt/physics/OrbitState.h</text>
</a>
</g>
</g>
<!-- Node3&#45;&gt;Node21 -->
<g id="edge31" class="edge">
<title>Node3&#45;&gt;Node21</title>
<path fill="none" stroke="midnightblue" d="M895.68,-184.98C931.36,-174.57 991.81,-156.94 1031.44,-145.38"/>
<polygon fill="midnightblue" stroke="midnightblue" points="1032.66,-148.67 1041.28,-142.51 1030.7,-141.95 1032.66,-148.67"/>
</g>
<!-- Node25 -->
<g id="node25" class="node">
<title>Node25</title>
<g id="a_node25"><a xlink:href="State_8h.html" target="_top" xlink:title="SPICE Interface functions.">
<polygon fill="white" stroke="black" points="807.95,-67.5 807.95,-86.5 858.95,-86.5 858.95,-67.5 807.95,-67.5"/>
<text text-anchor="middle" x="833.45" y="-74.5" font-family="Helvetica,sans-Serif" font-size="10.00">State.h</text>
</a>
</g>
</g>
<!-- Node3&#45;&gt;Node25 -->
<g id="edge41" class="edge">
<title>Node3&#45;&gt;Node25</title>
<path fill="none" stroke="midnightblue" d="M864.22,-184.79C860.77,-171.44 853.88,-145.16 847.45,-123 844.88,-114.15 841.87,-104.37 839.29,-96.2"/>
<polygon fill="midnightblue" stroke="midnightblue" points="842.6,-95.07 836.24,-86.6 835.93,-97.19 842.6,-95.07"/>
</g>
<!-- Node5&#45;&gt;Node4 -->
<g id="edge11" class="edge">
<title>Node5&#45;&gt;Node4</title>
<path fill="none" stroke="midnightblue" d="M318.94,-123.48C366.72,-116.82 428.19,-105.49 480.45,-87 498.08,-80.76 499.68,-72.8 517.45,-67 569.95,-49.86 716.44,-33.17 808.57,-23.92"/>
<polygon fill="midnightblue" stroke="midnightblue" points="809.09,-27.38 818.69,-22.91 808.39,-20.42 809.09,-27.38"/>
</g>
<!-- Node6 -->
<g id="node6" class="node">
<title>Node6</title>
<g id="a_node6"><a xlink:title=" ">
<polygon fill="white" stroke="#bfbfbf" points="129.45,-67.5 129.45,-86.5 193.45,-86.5 193.45,-67.5 129.45,-67.5"/>
<text text-anchor="middle" x="161.45" y="-74.5" font-family="Helvetica,sans-Serif" font-size="10.00">algorithm</text>
</a>
</g>
</g>
<!-- Node5&#45;&gt;Node6 -->
<g id="edge5" class="edge">
<title>Node5&#45;&gt;Node6</title>
<path fill="none" stroke="midnightblue" d="M226.92,-123.32C214.87,-114.98 196.43,-102.21 182.18,-92.35"/>
<polygon fill="midnightblue" stroke="midnightblue" points="184.17,-89.47 173.95,-86.65 180.18,-95.22 184.17,-89.47"/>
</g>
<!-- Node7 -->
<g id="node7" class="node">
<title>Node7</title>
<g id="a_node7"><a xlink:title=" ">
<polygon fill="white" stroke="#bfbfbf" points="211.95,-67.5 211.95,-86.5 266.95,-86.5 266.95,-67.5 211.95,-67.5"/>
<text text-anchor="middle" x="239.45" y="-74.5" font-family="Helvetica,sans-Serif" font-size="10.00">fstream</text>
</a>
</g>
</g>
<!-- Node5&#45;&gt;Node7 -->
<g id="edge6" class="edge">
<title>Node5&#45;&gt;Node7</title>
<path fill="none" stroke="midnightblue" d="M239.45,-123.08C239.45,-116.01 239.45,-105.86 239.45,-96.99"/>
<polygon fill="midnightblue" stroke="midnightblue" points="242.95,-96.75 239.45,-86.75 235.95,-96.75 242.95,-96.75"/>
</g>
<!-- Node8 -->
<g id="node8" class="node">
<title>Node8</title>
<g id="a_node8"><a xlink:title=" ">
<polygon fill="white" stroke="#bfbfbf" points="265.45,-6 265.45,-25 325.45,-25 325.45,-6 265.45,-6"/>
<text text-anchor="middle" x="295.45" y="-13" font-family="Helvetica,sans-Serif" font-size="10.00">iostream</text>
</a>
</g>
</g>
<!-- Node5&#45;&gt;Node8 -->
<g id="edge7" class="edge">
<title>Node5&#45;&gt;Node8</title>
<path fill="none" stroke="midnightblue" d="M157.72,-126.45C100.71,-120.68 31.69,-109.23 13.45,-87 7.81,-80.13 7.75,-73.82 13.45,-67 28.82,-48.64 180.58,-29.33 254.88,-20.89"/>
<polygon fill="midnightblue" stroke="midnightblue" points="255.71,-24.32 265.26,-19.72 254.93,-17.36 255.71,-24.32"/>
</g>
<!-- Node9 -->
<g id="node9" class="node">
<title>Node9</title>
<g id="a_node9"><a xlink:title=" ">
<polygon fill="white" stroke="#bfbfbf" points="55.45,-67.5 55.45,-86.5 111.45,-86.5 111.45,-67.5 55.45,-67.5"/>
<text text-anchor="middle" x="83.45" y="-74.5" font-family="Helvetica,sans-Serif" font-size="10.00">sstream</text>
</a>
</g>
</g>
<!-- Node5&#45;&gt;Node9 -->
<g id="edge8" class="edge">
<title>Node5&#45;&gt;Node9</title>
<path fill="none" stroke="midnightblue" d="M214.73,-123.44C188.6,-114.4 147.19,-100.06 117.88,-89.92"/>
<polygon fill="midnightblue" stroke="midnightblue" points="118.65,-86.48 108.06,-86.52 116.36,-93.1 118.65,-86.48"/>
</g>
<!-- Node10 -->
<g id="node10" class="node">
<title>Node10</title>
<g id="a_node10"><a xlink:title=" ">
<polygon fill="white" stroke="#bfbfbf" points="1228.45,-6 1228.45,-25 1272.45,-25 1272.45,-6 1228.45,-6"/>
<text text-anchor="middle" x="1250.45" y="-13" font-family="Helvetica,sans-Serif" font-size="10.00">string</text>
</a>
</g>
</g>
<!-- Node5&#45;&gt;Node10 -->
<g id="edge9" class="edge">
<title>Node5&#45;&gt;Node10</title>
<path fill="none" stroke="midnightblue" d="M321.17,-127.48C430.58,-120.79 618.56,-106.85 684.45,-87 702.73,-81.49 704.16,-72.46 722.45,-67 816.32,-39 1118.83,-22.66 1218.37,-17.94"/>
<polygon fill="midnightblue" stroke="midnightblue" points="1218.6,-21.43 1228.42,-17.47 1218.27,-14.44 1218.6,-21.43"/>
</g>
<!-- Node11 -->
<g id="node11" class="node">
<title>Node11</title>
<g id="a_node11"><a xlink:title=" ">
<polygon fill="white" stroke="#bfbfbf" points="63.95,-6 63.95,-25 110.95,-25 110.95,-6 63.95,-6"/>
<text text-anchor="middle" x="87.45" y="-13" font-family="Helvetica,sans-Serif" font-size="10.00">vector</text>
</a>
</g>
</g>
<!-- Node5&#45;&gt;Node11 -->
<g id="edge10" class="edge">
<title>Node5&#45;&gt;Node11</title>
<path fill="none" stroke="midnightblue" d="M157.93,-127.14C98.34,-121.68 24.72,-110.32 5.45,-87 -13.86,-63.62 23.84,-41.68 54.3,-28.67"/>
<polygon fill="midnightblue" stroke="midnightblue" points="55.92,-31.79 63.85,-24.77 53.27,-25.31 55.92,-31.79"/>
</g>
<!-- Node12 -->
<g id="node12" class="node">
<title>Node12</title>
<g id="a_node12"><a xlink:title=" ">
<polygon fill="white" stroke="#bfbfbf" points="613.45,-0.5 613.45,-30.5 729.45,-30.5 729.45,-0.5 613.45,-0.5"/>
<text text-anchor="start" x="621.45" y="-18.5" font-family="Helvetica,sans-Serif" font-size="10.00">autodiff/forward/real</text>
<text text-anchor="middle" x="671.45" y="-7.5" font-family="Helvetica,sans-Serif" font-size="10.00">/eigen.hpp</text>
</a>
</g>
</g>
<!-- Node5&#45;&gt;Node12 -->
<g id="edge12" class="edge">
<title>Node5&#45;&gt;Node12</title>
<path fill="none" stroke="midnightblue" d="M157.65,-128.61C89.42,-122.91 8.94,-107.67 46.45,-67 55.81,-56.85 443.02,-31.06 603.19,-20.8"/>
<polygon fill="midnightblue" stroke="midnightblue" points="603.65,-24.28 613.41,-20.15 603.21,-17.3 603.65,-24.28"/>
</g>
<!-- Node13 -->
<g id="node13" class="node">
<title>Node13</title>
<g id="a_node13"><a xlink:href="UserFilePath_8h.html" target="_top" xlink:title="File access utils.">
<polygon fill="white" stroke="black" points="1508.45,-67.5 1508.45,-86.5 1646.45,-86.5 1646.45,-67.5 1508.45,-67.5"/>
<text text-anchor="middle" x="1577.45" y="-74.5" font-family="Helvetica,sans-Serif" font-size="10.00">lupnt/core/UserFilePath.h</text>
</a>
</g>
</g>
<!-- Node5&#45;&gt;Node13 -->
<g id="edge13" class="edge">
<title>Node5&#45;&gt;Node13</title>
<path fill="none" stroke="midnightblue" d="M321.1,-129.01C508.95,-122.07 986.36,-104.19 1385.45,-87 1422.47,-85.41 1463.5,-83.5 1498.09,-81.86"/>
<polygon fill="midnightblue" stroke="midnightblue" points="1498.32,-85.35 1508.14,-81.38 1497.98,-78.36 1498.32,-85.35"/>
</g>
<!-- Node16 -->
<g id="node16" class="node">
<title>Node16</title>
<g id="a_node16"><a xlink:href="MathUtils_8h.html" target="_top" xlink:title=" ">
<polygon fill="white" stroke="black" points="322.95,-67.5 322.95,-86.5 471.95,-86.5 471.95,-67.5 322.95,-67.5"/>
<text text-anchor="middle" x="397.45" y="-74.5" font-family="Helvetica,sans-Serif" font-size="10.00">lupnt/numerics/MathUtils.h</text>
</a>
</g>
</g>
<!-- Node5&#45;&gt;Node16 -->
<g id="edge18" class="edge">
<title>Node5&#45;&gt;Node16</title>
<path fill="none" stroke="midnightblue" d="M264.49,-123.44C291.07,-114.36 333.26,-99.94 362.98,-89.78"/>
<polygon fill="midnightblue" stroke="midnightblue" points="364.2,-93.06 372.53,-86.52 361.94,-86.44 364.2,-93.06"/>
</g>
<!-- Node13&#45;&gt;Node8 -->
<g id="edge15" class="edge">
<title>Node13&#45;&gt;Node8</title>
<path fill="none" stroke="midnightblue" d="M1508.14,-72.56C1471.64,-70.79 1426.13,-68.67 1385.45,-67 930.44,-48.34 813.25,-88.09 361.45,-31 352.92,-29.92 343.86,-28.27 335.28,-26.47"/>
<polygon fill="midnightblue" stroke="midnightblue" points="336,-23.04 325.48,-24.3 334.49,-29.88 336,-23.04"/>
</g>
<!-- Node13&#45;&gt;Node10 -->
<g id="edge17" class="edge">
<title>Node13&#45;&gt;Node10</title>
<path fill="none" stroke="midnightblue" d="M1530.6,-67.48C1463.27,-55.22 1340.87,-32.95 1282.75,-22.38"/>
<polygon fill="midnightblue" stroke="midnightblue" points="1283.14,-18.89 1272.67,-20.54 1281.89,-25.78 1283.14,-18.89"/>
</g>
<!-- Node14 -->
<g id="node14" class="node">
<title>Node14</title>
<g id="a_node14"><a xlink:title=" ">
<polygon fill="white" stroke="#bfbfbf" points="1503.45,-6 1503.45,-25 1571.45,-25 1571.45,-6 1503.45,-6"/>
<text text-anchor="middle" x="1537.45" y="-13" font-family="Helvetica,sans-Serif" font-size="10.00">filesystem</text>
</a>
</g>
</g>
<!-- Node13&#45;&gt;Node14 -->
<g id="edge14" class="edge">
<title>Node13&#45;&gt;Node14</title>
<path fill="none" stroke="midnightblue" d="M1571.72,-67.48C1565.78,-58.64 1556.34,-44.59 1548.86,-33.48"/>
<polygon fill="midnightblue" stroke="midnightblue" points="1551.66,-31.36 1543.17,-25.01 1545.85,-35.26 1551.66,-31.36"/>
</g>
<!-- Node15 -->
<g id="node15" class="node">
<title>Node15</title>
<g id="a_node15"><a xlink:title=" ">
<polygon fill="white" stroke="#bfbfbf" points="1589.45,-6 1589.45,-25 1645.45,-25 1645.45,-6 1589.45,-6"/>
<text text-anchor="middle" x="1617.45" y="-13" font-family="Helvetica,sans-Serif" font-size="10.00">optional</text>
</a>
</g>
</g>
<!-- Node13&#45;&gt;Node15 -->
<g id="edge16" class="edge">
<title>Node13&#45;&gt;Node15</title>
<path fill="none" stroke="midnightblue" d="M1583.18,-67.48C1589.12,-58.64 1598.57,-44.59 1606.04,-33.48"/>
<polygon fill="midnightblue" stroke="midnightblue" points="1609.06,-35.26 1611.73,-25.01 1603.25,-31.36 1609.06,-35.26"/>
</g>
<!-- Node16&#45;&gt;Node4 -->
<g id="edge19" class="edge">
<title>Node16&#45;&gt;Node4</title>
<path fill="none" stroke="midnightblue" d="M467.66,-67.48C557.92,-56.52 714.21,-37.54 808.51,-26.09"/>
<polygon fill="midnightblue" stroke="midnightblue" points="809.06,-29.55 818.56,-24.87 808.22,-22.6 809.06,-29.55"/>
</g>
<!-- Node16&#45;&gt;Node12 -->
<g id="edge20" class="edge">
<title>Node16&#45;&gt;Node12</title>
<path fill="none" stroke="midnightblue" d="M436.71,-67.48C480.15,-58.04 550.96,-42.67 603.46,-31.27"/>
<polygon fill="midnightblue" stroke="midnightblue" points="604.34,-34.66 613.37,-29.11 602.85,-27.81 604.34,-34.66"/>
</g>
<!-- Node17 -->
<g id="node17" class="node">
<title>Node17</title>
<g id="a_node17"><a xlink:title=" ">
<polygon fill="white" stroke="#bfbfbf" points="370.45,-6 370.45,-25 424.45,-25 424.45,-6 370.45,-6"/>
<text text-anchor="middle" x="397.45" y="-13" font-family="Helvetica,sans-Serif" font-size="10.00">random</text>
</a>
</g>
</g>
<!-- Node16&#45;&gt;Node17 -->
<g id="edge21" class="edge">
<title>Node16&#45;&gt;Node17</title>
<path fill="none" stroke="midnightblue" d="M397.45,-67.48C397.45,-59.08 397.45,-45.98 397.45,-35.16"/>
<polygon fill="midnightblue" stroke="midnightblue" points="400.95,-35.01 397.45,-25.01 393.95,-35.01 400.95,-35.01"/>
</g>
<!-- Node18&#45;&gt;Node4 -->
<g id="edge23" class="edge">
<title>Node18&#45;&gt;Node4</title>
<path fill="none" stroke="midnightblue" d="M804.01,-123.48C826.2,-117 851.92,-105.87 868.45,-87 880.96,-72.73 885.34,-51.05 886.81,-35.5"/>
<polygon fill="midnightblue" stroke="midnightblue" points="890.31,-35.66 887.45,-25.45 883.33,-35.21 890.31,-35.66"/>
</g>
<!-- Node18&#45;&gt;Node8 -->
<g id="edge24" class="edge">
<title>Node18&#45;&gt;Node8</title>
<path fill="none" stroke="midnightblue" d="M682.2,-128.94C561.46,-123.52 340.76,-110.5 313.45,-87 298.81,-74.4 295.24,-51.71 294.74,-35.47"/>
<polygon fill="midnightblue" stroke="midnightblue" points="298.24,-35.04 294.8,-25.02 291.24,-35 298.24,-35.04"/>
</g>
<!-- Node18&#45;&gt;Node10 -->
<g id="edge26" class="edge">
<title>Node18&#45;&gt;Node10</title>
<path fill="none" stroke="midnightblue" d="M796.88,-123.41C889.17,-101.66 1131.01,-44.65 1218.38,-24.06"/>
<polygon fill="midnightblue" stroke="midnightblue" points="1219.32,-27.43 1228.25,-21.73 1217.71,-20.62 1219.32,-27.43"/>
</g>
<!-- Node19 -->
<g id="node19" class="node">
<title>Node19</title>
<g id="a_node19"><a xlink:title=" ">
<polygon fill="white" stroke="#bfbfbf" points="731.45,-67.5 731.45,-86.5 789.45,-86.5 789.45,-67.5 731.45,-67.5"/>
<text text-anchor="middle" x="760.45" y="-74.5" font-family="Helvetica,sans-Serif" font-size="10.00">memory</text>
</a>
</g>
</g>
<!-- Node18&#45;&gt;Node19 -->
<g id="edge25" class="edge">
<title>Node18&#45;&gt;Node19</title>
<path fill="none" stroke="midnightblue" d="M760.45,-123.08C760.45,-116.01 760.45,-105.86 760.45,-96.99"/>
<polygon fill="midnightblue" stroke="midnightblue" points="763.95,-96.75 760.45,-86.75 756.95,-96.75 763.95,-96.75"/>
</g>
<!-- Node18&#45;&gt;Node20 -->
<g id="edge27" class="edge">
<title>Node18&#45;&gt;Node20</title>
<path fill="none" stroke="midnightblue" d="M735.26,-123.44C708.51,-114.36 666.05,-99.94 636.15,-89.78"/>
<polygon fill="midnightblue" stroke="midnightblue" points="637.12,-86.42 626.53,-86.52 634.87,-93.05 637.12,-86.42"/>
</g>
<!-- Node20&#45;&gt;Node4 -->
<g id="edge28" class="edge">
<title>Node20&#45;&gt;Node4</title>
<path fill="none" stroke="midnightblue" d="M642.43,-67.48C693.61,-56.83 781.18,-38.61 836.6,-27.08"/>
<polygon fill="midnightblue" stroke="midnightblue" points="837.47,-30.47 846.55,-25.01 836.05,-23.62 837.47,-30.47"/>
</g>
<!-- Node20&#45;&gt;Node12 -->
<g id="edge29" class="edge">
<title>Node20&#45;&gt;Node12</title>
<path fill="none" stroke="midnightblue" d="M611.48,-67.48C620.79,-59.57 635,-47.48 647.26,-37.07"/>
<polygon fill="midnightblue" stroke="midnightblue" points="649.6,-39.67 654.96,-30.52 645.07,-34.33 649.6,-39.67"/>
</g>
<!-- Node21&#45;&gt;Node4 -->
<g id="edge33" class="edge">
<title>Node21&#45;&gt;Node4</title>
<path fill="none" stroke="midnightblue" d="M1065.09,-123.23C1056.3,-109.5 1037.56,-82.85 1015.45,-67 990.15,-48.85 957.43,-36.09 931.4,-27.94"/>
<polygon fill="midnightblue" stroke="midnightblue" points="932.37,-24.58 921.79,-25.04 930.35,-31.28 932.37,-24.58"/>
</g>
<!-- Node21&#45;&gt;Node12 -->
<g id="edge34" class="edge">
<title>Node21&#45;&gt;Node12</title>
<path fill="none" stroke="midnightblue" d="M1045.41,-123.4C1007.38,-110.47 932.69,-85.55 868.45,-67 825.79,-54.68 777.5,-42.28 739.41,-32.85"/>
<polygon fill="midnightblue" stroke="midnightblue" points="740,-29.39 729.46,-30.39 738.33,-36.18 740,-29.39"/>
</g>
<!-- Node22 -->
<g id="node22" class="node">
<title>Node22</title>
<g id="a_node22"><a xlink:title=" ">
<polygon fill="white" stroke="#bfbfbf" points="1150.95,-67.5 1150.95,-86.5 1227.95,-86.5 1227.95,-67.5 1150.95,-67.5"/>
<text text-anchor="middle" x="1189.45" y="-74.5" font-family="Helvetica,sans-Serif" font-size="10.00">Eigen/Dense</text>
</a>
</g>
</g>
<!-- Node21&#45;&gt;Node22 -->
<g id="edge32" class="edge">
<title>Node21&#45;&gt;Node22</title>
<path fill="none" stroke="midnightblue" d="M1089.31,-123.44C1108.72,-114.64 1139.18,-100.81 1161.42,-90.72"/>
<polygon fill="midnightblue" stroke="midnightblue" points="1163.03,-93.84 1170.69,-86.52 1160.13,-87.46 1163.03,-93.84"/>
</g>
<!-- Node23 -->
<g id="node23" class="node">
<title>Node23</title>
<g id="a_node23"><a xlink:title=" ">
<polygon fill="white" stroke="#bfbfbf" points="1246.45,-67.5 1246.45,-86.5 1376.45,-86.5 1376.45,-67.5 1246.45,-67.5"/>
<text text-anchor="middle" x="1311.45" y="-74.5" font-family="Helvetica,sans-Serif" font-size="10.00">boost/preprocessor.hpp</text>
</a>
</g>
</g>
<!-- Node21&#45;&gt;Node23 -->
<g id="edge35" class="edge">
<title>Node21&#45;&gt;Node23</title>
<path fill="none" stroke="midnightblue" d="M1108.64,-123.44C1150.59,-114.04 1218.05,-98.93 1263.52,-88.74"/>
<polygon fill="midnightblue" stroke="midnightblue" points="1264.45,-92.12 1273.44,-86.52 1262.92,-85.29 1264.45,-92.12"/>
</g>
<!-- Node24 -->
<g id="node24" class="node">
<title>Node24</title>
<g id="a_node24"><a xlink:title=" ">
<polygon fill="white" stroke="#bfbfbf" points="1067.95,-67.5 1067.95,-86.5 1132.95,-86.5 1132.95,-67.5 1067.95,-67.5"/>
<text text-anchor="middle" x="1100.45" y="-74.5" font-family="Helvetica,sans-Serif" font-size="10.00">stdexcept</text>
</a>
</g>
</g>
<!-- Node21&#45;&gt;Node24 -->
<g id="edge36" class="edge">
<title>Node21&#45;&gt;Node24</title>
<path fill="none" stroke="midnightblue" d="M1075.41,-123.08C1079.56,-115.61 1085.61,-104.72 1090.72,-95.52"/>
<polygon fill="midnightblue" stroke="midnightblue" points="1093.79,-97.19 1095.59,-86.75 1087.68,-93.79 1093.79,-97.19"/>
</g>
<!-- Node21&#45;&gt;Node25 -->
<g id="edge37" class="edge">
<title>Node21&#45;&gt;Node25</title>
<path fill="none" stroke="midnightblue" d="M1032.9,-123.44C987.95,-113.2 913.23,-96.18 869.13,-86.13"/>
<polygon fill="midnightblue" stroke="midnightblue" points="869.67,-82.66 859.14,-83.85 868.12,-89.49 869.67,-82.66"/>
</g>
<!-- Node25&#45;&gt;Node4 -->
<g id="edge38" class="edge">
<title>Node25&#45;&gt;Node4</title>
<path fill="none" stroke="midnightblue" d="M841.19,-67.48C849.45,-58.37 862.73,-43.74 872.95,-32.48"/>
<polygon fill="midnightblue" stroke="midnightblue" points="875.6,-34.77 879.73,-25.01 870.42,-30.06 875.6,-34.77"/>
</g>
<!-- Node25&#45;&gt;Node11 -->
<g id="edge40" class="edge">
<title>Node25&#45;&gt;Node11</title>
<path fill="none" stroke="midnightblue" d="M807.57,-68.77C804.52,-68.09 801.43,-67.48 798.45,-67 560.08,-28.77 497.18,-49.32 256.45,-31 209.56,-27.43 155.39,-22.67 121.29,-19.6"/>
<polygon fill="midnightblue" stroke="midnightblue" points="121.23,-16.08 110.95,-18.66 120.6,-23.05 121.23,-16.08"/>
</g>
<!-- Node25&#45;&gt;Node12 -->
<g id="edge39" class="edge">
<title>Node25&#45;&gt;Node12</title>
<path fill="none" stroke="midnightblue" d="M810.24,-67.48C786.56,-58.78 749.12,-45.03 719.09,-34"/>
<polygon fill="midnightblue" stroke="midnightblue" points="720.23,-30.69 709.63,-30.52 717.81,-37.26 720.23,-30.69"/>
</g>
<!-- Node26&#45;&gt;Node4 -->
<g id="edge50" class="edge">
<title>Node26&#45;&gt;Node4</title>
<path fill="none" stroke="midnightblue" d="M1369.98,-179.43C1388.72,-171.85 1407.46,-160.35 1418.45,-143 1436.54,-114.47 1441.18,-91.99 1418.45,-67 1403.45,-50.5 1110.38,-30.24 966.21,-21.22"/>
<polygon fill="midnightblue" stroke="midnightblue" points="966.29,-17.72 956.09,-20.59 965.85,-24.7 966.29,-17.72"/>
</g>
<!-- Node26&#45;&gt;Node12 -->
<g id="edge51" class="edge">
<title>Node26&#45;&gt;Node12</title>
<path fill="none" stroke="midnightblue" d="M1330.77,-179.24C1362.35,-154.3 1418.38,-102.05 1385.45,-67 1341.55,-20.26 873.35,-36.35 809.45,-31 786.66,-29.09 761.79,-26.6 739.51,-24.23"/>
<polygon fill="midnightblue" stroke="midnightblue" points="739.8,-20.74 729.48,-23.15 739.05,-27.7 739.8,-20.74"/>
</g>
<!-- Node26&#45;&gt;Node21 -->
<g id="edge48" class="edge">
<title>Node26&#45;&gt;Node21</title>
<path fill="none" stroke="midnightblue" d="M1254.64,-179.47C1211.89,-168.92 1154.12,-154.66 1114.75,-144.94"/>
<polygon fill="midnightblue" stroke="midnightblue" points="1115.45,-141.51 1104.91,-142.51 1113.78,-148.3 1115.45,-141.51"/>
</g>
<!-- Node26&#45;&gt;Node22 -->
<g id="edge49" class="edge">
<title>Node26&#45;&gt;Node22</title>
<path fill="none" stroke="midnightblue" d="M1296.49,-179.34C1273.61,-157.68 1230.07,-116.45 1206.18,-93.83"/>
<polygon fill="midnightblue" stroke="midnightblue" points="1208.28,-91 1198.61,-86.67 1203.47,-96.09 1208.28,-91"/>
</g>
<!-- Node26&#45;&gt;Node23 -->
<g id="edge52" class="edge">
<title>Node26&#45;&gt;Node23</title>
<path fill="none" stroke="midnightblue" d="M1311.45,-179.34C1311.45,-158.62 1311.45,-120.02 1311.45,-96.9"/>
<polygon fill="midnightblue" stroke="midnightblue" points="1314.95,-96.67 1311.45,-86.67 1307.95,-96.67 1314.95,-96.67"/>
</g>
<!-- Node27 -->
<g id="node27" class="node">
<title>Node27</title>
<g id="a_node27"><a xlink:href="Constants_8h.html" target="_top" xlink:title="List of constants.">
<polygon fill="white" stroke="black" points="1514.45,-123.5 1514.45,-142.5 1640.45,-142.5 1640.45,-123.5 1514.45,-123.5"/>
<text text-anchor="middle" x="1577.45" y="-130.5" font-family="Helvetica,sans-Serif" font-size="10.00">lupnt/core/Constants.h</text>
</a>
</g>
</g>
<!-- Node26&#45;&gt;Node27 -->
<g id="edge43" class="edge">
<title>Node26&#45;&gt;Node27</title>
<path fill="none" stroke="midnightblue" d="M1374.15,-179.47C1421.65,-168.85 1485.92,-154.47 1529.39,-144.75"/>
<polygon fill="midnightblue" stroke="midnightblue" points="1530.43,-148.1 1539.42,-142.51 1528.9,-141.27 1530.43,-148.1"/>
</g>
<!-- Node27&#45;&gt;Node4 -->
<g id="edge45" class="edge">
<title>Node27&#45;&gt;Node4</title>
<path fill="none" stroke="midnightblue" d="M1563.08,-123.33C1536.08,-107.19 1478.5,-73.6 1456.45,-67 1366.86,-40.19 1100.48,-25.48 966.41,-19.58"/>
<polygon fill="midnightblue" stroke="midnightblue" points="966.34,-16.08 956.2,-19.14 966.04,-23.07 966.34,-16.08"/>
</g>
<!-- Node27&#45;&gt;Node10 -->
<g id="edge46" class="edge">
<title>Node27&#45;&gt;Node10</title>
<path fill="none" stroke="midnightblue" d="M1640.71,-129.47C1706.27,-125.36 1802.35,-114.67 1825.45,-87 1831.15,-80.18 1831.46,-73.55 1825.45,-67 1816.19,-56.89 1402.38,-27.15 1282.61,-18.74"/>
<polygon fill="midnightblue" stroke="midnightblue" points="1282.81,-15.24 1272.59,-18.04 1282.32,-22.23 1282.81,-15.24"/>
</g>
<!-- Node27&#45;&gt;Node13 -->
<g id="edge47" class="edge">
<title>Node27&#45;&gt;Node13</title>
<path fill="none" stroke="midnightblue" d="M1577.45,-123.08C1577.45,-116.01 1577.45,-105.86 1577.45,-96.99"/>
<polygon fill="midnightblue" stroke="midnightblue" points="1580.95,-96.75 1577.45,-86.75 1573.95,-96.75 1580.95,-96.75"/>
</g>
<!-- Node28 -->
<g id="node28" class="node">
<title>Node28</title>
<g id="a_node28"><a xlink:title=" ">
<polygon fill="white" stroke="#bfbfbf" points="1664.95,-67.5 1664.95,-86.5 1815.95,-86.5 1815.95,-67.5 1664.95,-67.5"/>
<text text-anchor="middle" x="1740.45" y="-74.5" font-family="Helvetica,sans-Serif" font-size="10.00">autodiff/common/eigen.hpp</text>
</a>
</g>
</g>
<!-- Node27&#45;&gt;Node28 -->
<g id="edge44" class="edge">
<title>Node27&#45;&gt;Node28</title>
<path fill="none" stroke="midnightblue" d="M1603.28,-123.44C1630.7,-114.36 1674.23,-99.94 1704.89,-89.78"/>
<polygon fill="midnightblue" stroke="midnightblue" points="1706.35,-92.98 1714.75,-86.52 1704.15,-86.34 1706.35,-92.98"/>
</g>
</g>
</svg>
        <g id="navigator" transform="translate(0 0)" fill="#404254">
                <rect fill="#f2f5e9" fill-opacity="0.5" stroke="#606060" stroke-width=".5" x="0" y="0" width="60" height="60"/>
                <use id="zoomplus" xlink:href="#zoomPlus" x="17" y="9" onmousedown="handleZoom(evt,'in')"/>
                <use id="zoomminus" xlink:href="#zoomMin" x="42" y="9" onmousedown="handleZoom(evt,'out')"/>
                <use id="reset" xlink:href="#resetDef" x="30" y="36" onmousedown="handleReset()"/>
                <g id="arrowUp" xlink:href="#dirArrow" transform="translate(30 24)" onmousedown="handlePan(0,-1)">
                  <use xlink:href="#rim" fill="#404040">
                        <set attributeName="fill" to="#808080" begin="arrowUp.mouseover" end="arrowUp.mouseout"/>
                  </use>
                  <path fill="none" stroke="white" stroke-width="1.5" d="M0,-3.0v7 M-2.5,-0.5L0,-3.0L2.5,-0.5"/>
                </g>
                <g id="arrowRight" xlink:href="#dirArrow" transform="rotate(90) translate(36 -43)" onmousedown="handlePan(1,0)">
                  <use xlink:href="#rim" fill="#404040">
                        <set attributeName="fill" to="#808080" begin="arrowRight.mouseover" end="arrowRight.mouseout"/>
                  </use>
                  <path fill="none" stroke="white" stroke-width="1.5" d="M0,-3.0v7 M-2.5,-0.5L0,-3.0L2.5,-0.5"/>
                </g>
                <g id="arrowDown" xlink:href="#dirArrow" transform="rotate(180) translate(-30 -48)" onmousedown="handlePan(0,1)">
                  <use xlink:href="#rim" fill="#404040">
                        <set attributeName="fill" to="#808080" begin="arrowDown.mouseover" end="arrowDown.mouseout"/>
                  </use>
                  <path fill="none" stroke="white" stroke-width="1.5" d="M0,-3.0v7 M-2.5,-0.5L0,-3.0L2.5,-0.5"/>
                </g>
                <g id="arrowLeft" xlink:href="#dirArrow" transform="rotate(270) translate(-36 17)" onmousedown="handlePan(-1,0)">
                  <use xlink:href="#rim" fill="#404040">
                        <set attributeName="fill" to="#808080" begin="arrowLeft.mouseover" end="arrowLeft.mouseout"/>
                  </use>
                  <path fill="none" stroke="white" stroke-width="1.5" d="M0,-3.0v7 M-2.5,-0.5L0,-3.0L2.5,-0.5"/>
                </g>
        </g>
        <svg viewBox="0 0 15 15" width="100%" height="30px" preserveAspectRatio="xMaxYMin meet">
         <g id="arrow_out" transform="scale(0.3 0.3)">
          <a xlink:href="DynamicsAnalytical_8cpp__incl_org.svg" target="_base">
           <rect id="button" ry="5" rx="5" y="6" x="6" height="38" width="38"
                fill="#f2f5e9" fill-opacity="0.5" stroke="#606060" stroke-width="1.0"/>
           <path id="arrow"
             d="M 11.500037,31.436501 C 11.940474,20.09759 22.043105,11.32322 32.158766,21.979434 L 37.068811,17.246167 C 37.068811,17.246167 37.088388,32 37.088388,32 L 22.160133,31.978069 C 22.160133,31.978069 26.997745,27.140456 26.997745,27.140456 C 18.528582,18.264221 13.291696,25.230495 11.500037,31.436501 z"
             style="fill:#404040;"/>
          </a>
         </g>
        </svg>
</svg>
