<?xml version="1.0" encoding="UTF-8" standalone="no"?>
<!DOCTYPE svg PUBLIC "-//W3C//DTD SVG 1.1//EN"
 "http://www.w3.org/Graphics/SVG/1.1/DTD/svg11.dtd">
<!-- Generated by graphviz version 2.43.0 (0)
 -->
<!-- Title: DynamicsNumerical.cpp Pages: 1 -->
<svg width="1844pt" height="263pt"
 viewBox="0.00 0.00 1844.00 263.00" xmlns="http://www.w3.org/2000/svg" xmlns:xlink="http://www.w3.org/1999/xlink">
<g id="graph0" class="graph" transform="scale(1 1) rotate(0) translate(4 259)">
<title>DynamicsNumerical.cpp</title>
<polygon fill="white" stroke="transparent" points="-4,4 -4,-259 1840,-259 1840,4 -4,4"/>
<!-- Node1 -->
<g id="node1" class="node">
<title>Node1</title>
<g id="a_node1"><a xlink:title="List of Numerical Dynamics.">
<polygon fill="#bfbfbf" stroke="black" points="612.5,-235.5 612.5,-254.5 748.5,-254.5 748.5,-235.5 612.5,-235.5"/>
<text text-anchor="middle" x="680.5" y="-242.5" font-family="Helvetica,sans-Serif" font-size="10.00">DynamicsNumerical.cpp</text>
</a>
</g>
</g>
<!-- Node2 -->
<g id="node2" class="node">
<title>Node2</title>
<g id="a_node2"><a xlink:href="Dynamics_8h.html" target="_top" xlink:title="Interface for Dynamics.">
<polygon fill="white" stroke="black" points="611.5,-179.5 611.5,-198.5 685.5,-198.5 685.5,-179.5 611.5,-179.5"/>
<text text-anchor="middle" x="648.5" y="-186.5" font-family="Helvetica,sans-Serif" font-size="10.00">Dynamics.h</text>
</a>
</g>
</g>
<!-- Node1&#45;&gt;Node2 -->
<g id="edge1" class="edge">
<title>Node1&#45;&gt;Node2</title>
<path fill="none" stroke="midnightblue" d="M675.22,-235.08C670.79,-227.61 664.34,-216.72 658.88,-207.52"/>
<polygon fill="midnightblue" stroke="midnightblue" points="661.79,-205.57 653.69,-198.75 655.77,-209.14 661.79,-205.57"/>
</g>
<!-- Node25 -->
<g id="node25" class="node">
<title>Node25</title>
<g id="a_node25"><a xlink:href="Constants_8h.html" target="_top" xlink:title="List of constants.">
<polygon fill="white" stroke="black" points="1496.5,-123.5 1496.5,-142.5 1622.5,-142.5 1622.5,-123.5 1496.5,-123.5"/>
<text text-anchor="middle" x="1559.5" y="-130.5" font-family="Helvetica,sans-Serif" font-size="10.00">lupnt/core/Constants.h</text>
</a>
</g>
</g>
<!-- Node1&#45;&gt;Node25 -->
<g id="edge41" class="edge">
<title>Node1&#45;&gt;Node25</title>
<path fill="none" stroke="midnightblue" d="M748.74,-235.46C911.11,-215.14 1319.29,-164.06 1486.42,-143.14"/>
<polygon fill="midnightblue" stroke="midnightblue" points="1486.87,-146.62 1496.36,-141.9 1486,-139.67 1486.87,-146.62"/>
</g>
<!-- Node3 -->
<g id="node3" class="node">
<title>Node3</title>
<g id="a_node3"><a xlink:title=" ">
<polygon fill="white" stroke="#bfbfbf" points="691,-6 691,-25 828,-25 828,-6 691,-6"/>
<text text-anchor="middle" x="759.5" y="-13" font-family="Helvetica,sans-Serif" font-size="10.00">autodiff/forward/real.hpp</text>
</a>
</g>
</g>
<!-- Node2&#45;&gt;Node3 -->
<g id="edge2" class="edge">
<title>Node2&#45;&gt;Node3</title>
<path fill="none" stroke="midnightblue" d="M647.45,-179.44C645.31,-158.26 642.57,-102.5 667.5,-67 680.22,-48.89 701.58,-36.59 720.52,-28.67"/>
<polygon fill="midnightblue" stroke="midnightblue" points="721.82,-31.93 729.86,-25.03 719.27,-25.4 721.82,-31.93"/>
</g>
<!-- Node4 -->
<g id="node4" class="node">
<title>Node4</title>
<g id="a_node4"><a xlink:href="GravityField_8h.html" target="_top" xlink:title="Gravity field model and acceleration calculation.">
<polygon fill="white" stroke="black" points="1075,-123.5 1075,-142.5 1238,-142.5 1238,-123.5 1075,-123.5"/>
<text text-anchor="middle" x="1156.5" y="-130.5" font-family="Helvetica,sans-Serif" font-size="10.00">lupnt/dynamics/GravityField.h</text>
</a>
</g>
</g>
<!-- Node2&#45;&gt;Node4 -->
<g id="edge3" class="edge">
<title>Node2&#45;&gt;Node4</title>
<path fill="none" stroke="midnightblue" d="M685.85,-184.03C765.37,-175.58 953.31,-155.6 1066.17,-143.6"/>
<polygon fill="midnightblue" stroke="midnightblue" points="1066.6,-147.08 1076.17,-142.54 1065.86,-140.12 1066.6,-147.08"/>
</g>
<!-- Node17 -->
<g id="node17" class="node">
<title>Node17</title>
<g id="a_node17"><a xlink:href="Propagator_8h.html" target="_top" xlink:title="Numerical Propagator.">
<polygon fill="white" stroke="black" points="718.5,-123.5 718.5,-142.5 874.5,-142.5 874.5,-123.5 718.5,-123.5"/>
<text text-anchor="middle" x="796.5" y="-130.5" font-family="Helvetica,sans-Serif" font-size="10.00">lupnt/dynamics/Propagator.h</text>
</a>
</g>
</g>
<!-- Node2&#45;&gt;Node17 -->
<g id="edge21" class="edge">
<title>Node2&#45;&gt;Node17</title>
<path fill="none" stroke="midnightblue" d="M671.95,-179.44C696.63,-170.44 735.69,-156.19 763.48,-146.05"/>
<polygon fill="midnightblue" stroke="midnightblue" points="764.96,-149.23 773.16,-142.52 762.56,-142.66 764.96,-149.23"/>
</g>
<!-- Node19 -->
<g id="node19" class="node">
<title>Node19</title>
<g id="a_node19"><a xlink:href="Integrator_8h.html" target="_top" xlink:title="Integrator interfaces.">
<polygon fill="white" stroke="black" points="472,-67.5 472,-86.5 621,-86.5 621,-67.5 472,-67.5"/>
<text text-anchor="middle" x="546.5" y="-74.5" font-family="Helvetica,sans-Serif" font-size="10.00">lupnt/numerics/Integrator.h</text>
</a>
</g>
</g>
<!-- Node2&#45;&gt;Node19 -->
<g id="edge29" class="edge">
<title>Node2&#45;&gt;Node19</title>
<path fill="none" stroke="midnightblue" d="M640.5,-179.37C623.44,-160.97 583.29,-117.67 561.38,-94.05"/>
<polygon fill="midnightblue" stroke="midnightblue" points="563.83,-91.54 554.47,-86.59 558.7,-96.3 563.83,-91.54"/>
</g>
<!-- Node20 -->
<g id="node20" class="node">
<title>Node20</title>
<g id="a_node20"><a xlink:href="OrbitState_8h.html" target="_top" xlink:title="Orbit states.">
<polygon fill="white" stroke="black" points="274,-123.5 274,-142.5 417,-142.5 417,-123.5 274,-123.5"/>
<text text-anchor="middle" x="345.5" y="-130.5" font-family="Helvetica,sans-Serif" font-size="10.00">lupnt/physics/OrbitState.h</text>
</a>
</g>
</g>
<!-- Node2&#45;&gt;Node20 -->
<g id="edge30" class="edge">
<title>Node2&#45;&gt;Node20</title>
<path fill="none" stroke="midnightblue" d="M611.35,-181.38C559.4,-172.12 464.58,-155.22 403.35,-144.31"/>
<polygon fill="midnightblue" stroke="midnightblue" points="403.91,-140.85 393.45,-142.55 402.68,-147.75 403.91,-140.85"/>
</g>
<!-- Node24 -->
<g id="node24" class="node">
<title>Node24</title>
<g id="a_node24"><a xlink:href="State_8h.html" target="_top" xlink:title="SPICE Interface functions.">
<polygon fill="white" stroke="black" points="0,-67.5 0,-86.5 51,-86.5 51,-67.5 0,-67.5"/>
<text text-anchor="middle" x="25.5" y="-74.5" font-family="Helvetica,sans-Serif" font-size="10.00">State.h</text>
</a>
</g>
</g>
<!-- Node2&#45;&gt;Node24 -->
<g id="edge40" class="edge">
<title>Node2&#45;&gt;Node24</title>
<path fill="none" stroke="midnightblue" d="M611.42,-185.5C542.57,-180.45 390.54,-167.38 264.5,-143 190.95,-128.77 106.82,-103.81 60.57,-89.31"/>
<polygon fill="midnightblue" stroke="midnightblue" points="61.61,-85.96 51.02,-86.29 59.51,-92.64 61.61,-85.96"/>
</g>
<!-- Node4&#45;&gt;Node3 -->
<g id="edge10" class="edge">
<title>Node4&#45;&gt;Node3</title>
<path fill="none" stroke="midnightblue" d="M1142.28,-123.47C1118.51,-109.58 1068.85,-82.12 1023.5,-67 962.78,-46.76 891.34,-33.71 838.1,-25.96"/>
<polygon fill="midnightblue" stroke="midnightblue" points="838.43,-22.47 828.04,-24.52 837.45,-29.4 838.43,-22.47"/>
</g>
<!-- Node5 -->
<g id="node5" class="node">
<title>Node5</title>
<g id="a_node5"><a xlink:title=" ">
<polygon fill="white" stroke="#bfbfbf" points="1258.5,-67.5 1258.5,-86.5 1322.5,-86.5 1322.5,-67.5 1258.5,-67.5"/>
<text text-anchor="middle" x="1290.5" y="-74.5" font-family="Helvetica,sans-Serif" font-size="10.00">algorithm</text>
</a>
</g>
</g>
<!-- Node4&#45;&gt;Node5 -->
<g id="edge4" class="edge">
<title>Node4&#45;&gt;Node5</title>
<path fill="none" stroke="midnightblue" d="M1177.73,-123.44C1199.88,-114.52 1234.82,-100.44 1259.94,-90.32"/>
<polygon fill="midnightblue" stroke="midnightblue" points="1261.4,-93.5 1269.37,-86.52 1258.78,-87.01 1261.4,-93.5"/>
</g>
<!-- Node6 -->
<g id="node6" class="node">
<title>Node6</title>
<g id="a_node6"><a xlink:title=" ">
<polygon fill="white" stroke="#bfbfbf" points="1341,-67.5 1341,-86.5 1396,-86.5 1396,-67.5 1341,-67.5"/>
<text text-anchor="middle" x="1368.5" y="-74.5" font-family="Helvetica,sans-Serif" font-size="10.00">fstream</text>
</a>
</g>
</g>
<!-- Node4&#45;&gt;Node6 -->
<g id="edge5" class="edge">
<title>Node4&#45;&gt;Node6</title>
<path fill="none" stroke="midnightblue" d="M1190.09,-123.44C1228.44,-113.68 1290.99,-97.74 1330.92,-87.57"/>
<polygon fill="midnightblue" stroke="midnightblue" points="1331.98,-90.91 1340.81,-85.05 1330.25,-84.13 1331.98,-90.91"/>
</g>
<!-- Node7 -->
<g id="node7" class="node">
<title>Node7</title>
<g id="a_node7"><a xlink:title=" ">
<polygon fill="white" stroke="#bfbfbf" points="1126.5,-6 1126.5,-25 1186.5,-25 1186.5,-6 1126.5,-6"/>
<text text-anchor="middle" x="1156.5" y="-13" font-family="Helvetica,sans-Serif" font-size="10.00">iostream</text>
</a>
</g>
</g>
<!-- Node4&#45;&gt;Node7 -->
<g id="edge6" class="edge">
<title>Node4&#45;&gt;Node7</title>
<path fill="none" stroke="midnightblue" d="M1156.5,-123.32C1156.5,-104.76 1156.5,-60.84 1156.5,-35.47"/>
<polygon fill="midnightblue" stroke="midnightblue" points="1160,-35.28 1156.5,-25.28 1153,-35.28 1160,-35.28"/>
</g>
<!-- Node8 -->
<g id="node8" class="node">
<title>Node8</title>
<g id="a_node8"><a xlink:title=" ">
<polygon fill="white" stroke="#bfbfbf" points="1184.5,-67.5 1184.5,-86.5 1240.5,-86.5 1240.5,-67.5 1184.5,-67.5"/>
<text text-anchor="middle" x="1212.5" y="-74.5" font-family="Helvetica,sans-Serif" font-size="10.00">sstream</text>
</a>
</g>
</g>
<!-- Node4&#45;&gt;Node8 -->
<g id="edge7" class="edge">
<title>Node4&#45;&gt;Node8</title>
<path fill="none" stroke="midnightblue" d="M1165.5,-123.32C1173.69,-115.42 1186.01,-103.55 1195.97,-93.94"/>
<polygon fill="midnightblue" stroke="midnightblue" points="1198.57,-96.29 1203.34,-86.83 1193.71,-91.26 1198.57,-96.29"/>
</g>
<!-- Node9 -->
<g id="node9" class="node">
<title>Node9</title>
<g id="a_node9"><a xlink:title=" ">
<polygon fill="white" stroke="#bfbfbf" points="1417.5,-6 1417.5,-25 1461.5,-25 1461.5,-6 1417.5,-6"/>
<text text-anchor="middle" x="1439.5" y="-13" font-family="Helvetica,sans-Serif" font-size="10.00">string</text>
</a>
</g>
</g>
<!-- Node4&#45;&gt;Node9 -->
<g id="edge8" class="edge">
<title>Node4&#45;&gt;Node9</title>
<path fill="none" stroke="midnightblue" d="M1238.24,-125.24C1300.44,-118.64 1379.62,-106.68 1405.5,-87 1422.2,-74.3 1431.12,-51.28 1435.57,-35.01"/>
<polygon fill="midnightblue" stroke="midnightblue" points="1439.04,-35.57 1437.98,-25.03 1432.23,-33.93 1439.04,-35.57"/>
</g>
<!-- Node10 -->
<g id="node10" class="node">
<title>Node10</title>
<g id="a_node10"><a xlink:title=" ">
<polygon fill="white" stroke="#bfbfbf" points="213,-6 213,-25 260,-25 260,-6 213,-6"/>
<text text-anchor="middle" x="236.5" y="-13" font-family="Helvetica,sans-Serif" font-size="10.00">vector</text>
</a>
</g>
</g>
<!-- Node4&#45;&gt;Node10 -->
<g id="edge9" class="edge">
<title>Node4&#45;&gt;Node10</title>
<path fill="none" stroke="midnightblue" d="M1074.96,-132.26C996.47,-130.23 875.44,-121.04 776.5,-87 760.28,-81.42 759.77,-72.43 743.5,-67 698.73,-52.06 376.24,-26.93 270.2,-18.99"/>
<polygon fill="midnightblue" stroke="midnightblue" points="270.29,-15.48 260.06,-18.23 269.77,-22.46 270.29,-15.48"/>
</g>
<!-- Node11 -->
<g id="node11" class="node">
<title>Node11</title>
<g id="a_node11"><a xlink:title=" ">
<polygon fill="white" stroke="#bfbfbf" points="488.5,-0.5 488.5,-30.5 604.5,-30.5 604.5,-0.5 488.5,-0.5"/>
<text text-anchor="start" x="496.5" y="-18.5" font-family="Helvetica,sans-Serif" font-size="10.00">autodiff/forward/real</text>
<text text-anchor="middle" x="546.5" y="-7.5" font-family="Helvetica,sans-Serif" font-size="10.00">/eigen.hpp</text>
</a>
</g>
</g>
<!-- Node4&#45;&gt;Node11 -->
<g id="edge11" class="edge">
<title>Node4&#45;&gt;Node11</title>
<path fill="none" stroke="midnightblue" d="M1086.76,-123.47C1025.75,-115.55 934.88,-102.64 856.5,-87 820.56,-79.83 812.18,-75.38 776.5,-67 722.18,-54.25 660.4,-40.74 614.56,-30.91"/>
<polygon fill="midnightblue" stroke="midnightblue" points="615.25,-27.47 604.74,-28.8 613.78,-34.32 615.25,-27.47"/>
</g>
<!-- Node12 -->
<g id="node12" class="node">
<title>Node12</title>
<g id="a_node12"><a xlink:href="UserFilePath_8h.html" target="_top" xlink:title="File access utils.">
<polygon fill="white" stroke="black" points="1490.5,-67.5 1490.5,-86.5 1628.5,-86.5 1628.5,-67.5 1490.5,-67.5"/>
<text text-anchor="middle" x="1559.5" y="-74.5" font-family="Helvetica,sans-Serif" font-size="10.00">lupnt/core/UserFilePath.h</text>
</a>
</g>
</g>
<!-- Node4&#45;&gt;Node12 -->
<g id="edge12" class="edge">
<title>Node4&#45;&gt;Node12</title>
<path fill="none" stroke="midnightblue" d="M1220.36,-123.44C1292.57,-113.77 1409.98,-98.04 1485.97,-87.85"/>
<polygon fill="midnightblue" stroke="midnightblue" points="1486.5,-91.31 1495.94,-86.52 1485.57,-84.38 1486.5,-91.31"/>
</g>
<!-- Node15 -->
<g id="node15" class="node">
<title>Node15</title>
<g id="a_node15"><a xlink:href="MathUtils_8h.html" target="_top" xlink:title=" ">
<polygon fill="white" stroke="black" points="866,-67.5 866,-86.5 1015,-86.5 1015,-67.5 866,-67.5"/>
<text text-anchor="middle" x="940.5" y="-74.5" font-family="Helvetica,sans-Serif" font-size="10.00">lupnt/numerics/MathUtils.h</text>
</a>
</g>
</g>
<!-- Node4&#45;&gt;Node15 -->
<g id="edge17" class="edge">
<title>Node4&#45;&gt;Node15</title>
<path fill="none" stroke="midnightblue" d="M1122.27,-123.44C1084.99,-114.12 1025.23,-99.18 984.49,-89"/>
<polygon fill="midnightblue" stroke="midnightblue" points="985.12,-85.55 974.57,-86.52 983.42,-92.34 985.12,-85.55"/>
</g>
<!-- Node12&#45;&gt;Node7 -->
<g id="edge14" class="edge">
<title>Node12&#45;&gt;Node7</title>
<path fill="none" stroke="midnightblue" d="M1501.76,-67.48C1418.89,-55.24 1268.32,-33.01 1196.58,-22.42"/>
<polygon fill="midnightblue" stroke="midnightblue" points="1196.99,-18.94 1186.59,-20.94 1195.97,-25.87 1196.99,-18.94"/>
</g>
<!-- Node12&#45;&gt;Node9 -->
<g id="edge16" class="edge">
<title>Node12&#45;&gt;Node9</title>
<path fill="none" stroke="midnightblue" d="M1542.31,-67.48C1522.26,-57.53 1488.9,-40.99 1465.64,-29.46"/>
<polygon fill="midnightblue" stroke="midnightblue" points="1467.18,-26.32 1456.66,-25.01 1464.07,-32.59 1467.18,-26.32"/>
</g>
<!-- Node13 -->
<g id="node13" class="node">
<title>Node13</title>
<g id="a_node13"><a xlink:title=" ">
<polygon fill="white" stroke="#bfbfbf" points="1509.5,-6 1509.5,-25 1577.5,-25 1577.5,-6 1509.5,-6"/>
<text text-anchor="middle" x="1543.5" y="-13" font-family="Helvetica,sans-Serif" font-size="10.00">filesystem</text>
</a>
</g>
</g>
<!-- Node12&#45;&gt;Node13 -->
<g id="edge13" class="edge">
<title>Node12&#45;&gt;Node13</title>
<path fill="none" stroke="midnightblue" d="M1557.21,-67.48C1554.93,-58.99 1551.35,-45.7 1548.43,-34.82"/>
<polygon fill="midnightblue" stroke="midnightblue" points="1551.76,-33.76 1545.79,-25.01 1545.01,-35.57 1551.76,-33.76"/>
</g>
<!-- Node14 -->
<g id="node14" class="node">
<title>Node14</title>
<g id="a_node14"><a xlink:title=" ">
<polygon fill="white" stroke="#bfbfbf" points="1595.5,-6 1595.5,-25 1651.5,-25 1651.5,-6 1595.5,-6"/>
<text text-anchor="middle" x="1623.5" y="-13" font-family="Helvetica,sans-Serif" font-size="10.00">optional</text>
</a>
</g>
</g>
<!-- Node12&#45;&gt;Node14 -->
<g id="edge15" class="edge">
<title>Node12&#45;&gt;Node14</title>
<path fill="none" stroke="midnightblue" d="M1568.67,-67.48C1578.65,-58.2 1594.81,-43.17 1607.01,-31.83"/>
<polygon fill="midnightblue" stroke="midnightblue" points="1609.41,-34.38 1614.35,-25.01 1604.64,-29.25 1609.41,-34.38"/>
</g>
<!-- Node15&#45;&gt;Node3 -->
<g id="edge18" class="edge">
<title>Node15&#45;&gt;Node3</title>
<path fill="none" stroke="midnightblue" d="M914.57,-67.48C883.25,-57.18 830.41,-39.81 795.24,-28.25"/>
<polygon fill="midnightblue" stroke="midnightblue" points="795.98,-24.81 785.38,-25.01 793.79,-31.46 795.98,-24.81"/>
</g>
<!-- Node15&#45;&gt;Node11 -->
<g id="edge19" class="edge">
<title>Node15&#45;&gt;Node11</title>
<path fill="none" stroke="midnightblue" d="M884.05,-67.48C812.98,-56.74 690.99,-38.32 614.75,-26.81"/>
<polygon fill="midnightblue" stroke="midnightblue" points="615.18,-23.33 604.77,-25.3 614.14,-30.25 615.18,-23.33"/>
</g>
<!-- Node16 -->
<g id="node16" class="node">
<title>Node16</title>
<g id="a_node16"><a xlink:title=" ">
<polygon fill="white" stroke="#bfbfbf" points="913.5,-6 913.5,-25 967.5,-25 967.5,-6 913.5,-6"/>
<text text-anchor="middle" x="940.5" y="-13" font-family="Helvetica,sans-Serif" font-size="10.00">random</text>
</a>
</g>
</g>
<!-- Node15&#45;&gt;Node16 -->
<g id="edge20" class="edge">
<title>Node15&#45;&gt;Node16</title>
<path fill="none" stroke="midnightblue" d="M940.5,-67.48C940.5,-59.08 940.5,-45.98 940.5,-35.16"/>
<polygon fill="midnightblue" stroke="midnightblue" points="944,-35.01 940.5,-25.01 937,-35.01 944,-35.01"/>
</g>
<!-- Node17&#45;&gt;Node3 -->
<g id="edge22" class="edge">
<title>Node17&#45;&gt;Node3</title>
<path fill="none" stroke="midnightblue" d="M793.72,-123.32C787.75,-104.67 773.58,-60.44 765.47,-35.13"/>
<polygon fill="midnightblue" stroke="midnightblue" points="768.7,-33.74 762.31,-25.28 762.03,-35.87 768.7,-33.74"/>
</g>
<!-- Node17&#45;&gt;Node7 -->
<g id="edge23" class="edge">
<title>Node17&#45;&gt;Node7</title>
<path fill="none" stroke="midnightblue" d="M866.7,-123.48C912.29,-116.65 972.49,-105.13 1023.5,-87 1064.95,-72.27 1109.39,-46.43 1134.97,-30.46"/>
<polygon fill="midnightblue" stroke="midnightblue" points="1136.92,-33.36 1143.5,-25.06 1133.18,-27.45 1136.92,-33.36"/>
</g>
<!-- Node17&#45;&gt;Node9 -->
<g id="edge25" class="edge">
<title>Node17&#45;&gt;Node9</title>
<path fill="none" stroke="midnightblue" d="M848.14,-123.43C901.39,-114.55 986.81,-100.13 1060.5,-87 1189.07,-64.08 1341.85,-35.14 1407.22,-22.67"/>
<polygon fill="midnightblue" stroke="midnightblue" points="1408.14,-26.06 1417.31,-20.75 1406.83,-19.19 1408.14,-26.06"/>
</g>
<!-- Node18 -->
<g id="node18" class="node">
<title>Node18</title>
<g id="a_node18"><a xlink:title=" ">
<polygon fill="white" stroke="#bfbfbf" points="676.5,-67.5 676.5,-86.5 734.5,-86.5 734.5,-67.5 676.5,-67.5"/>
<text text-anchor="middle" x="705.5" y="-74.5" font-family="Helvetica,sans-Serif" font-size="10.00">memory</text>
</a>
</g>
</g>
<!-- Node17&#45;&gt;Node18 -->
<g id="edge24" class="edge">
<title>Node17&#45;&gt;Node18</title>
<path fill="none" stroke="midnightblue" d="M781.88,-123.32C767.55,-114.82 745.49,-101.73 728.75,-91.8"/>
<polygon fill="midnightblue" stroke="midnightblue" points="730.47,-88.75 720.08,-86.65 726.9,-94.77 730.47,-88.75"/>
</g>
<!-- Node17&#45;&gt;Node19 -->
<g id="edge26" class="edge">
<title>Node17&#45;&gt;Node19</title>
<path fill="none" stroke="midnightblue" d="M756.89,-123.44C713.27,-114.02 643.1,-98.87 595.92,-88.68"/>
<polygon fill="midnightblue" stroke="midnightblue" points="596.44,-85.21 585.93,-86.52 594.96,-92.05 596.44,-85.21"/>
</g>
<!-- Node19&#45;&gt;Node3 -->
<g id="edge27" class="edge">
<title>Node19&#45;&gt;Node3</title>
<path fill="none" stroke="midnightblue" d="M577.02,-67.48C614.42,-57.03 677.93,-39.29 719.29,-27.73"/>
<polygon fill="midnightblue" stroke="midnightblue" points="720.35,-31.07 729.04,-25.01 718.47,-24.33 720.35,-31.07"/>
</g>
<!-- Node19&#45;&gt;Node11 -->
<g id="edge28" class="edge">
<title>Node19&#45;&gt;Node11</title>
<path fill="none" stroke="midnightblue" d="M546.5,-67.48C546.5,-60.47 546.5,-50.19 546.5,-40.7"/>
<polygon fill="midnightblue" stroke="midnightblue" points="550,-40.52 546.5,-30.52 543,-40.52 550,-40.52"/>
</g>
<!-- Node20&#45;&gt;Node3 -->
<g id="edge32" class="edge">
<title>Node20&#45;&gt;Node3</title>
<path fill="none" stroke="midnightblue" d="M362.63,-123.39C379.94,-114.58 407.35,-100.34 430.5,-87 445.03,-78.63 446.82,-72.96 462.5,-67 501.37,-52.21 606.55,-36.31 680.66,-26.38"/>
<polygon fill="midnightblue" stroke="midnightblue" points="681.45,-29.81 690.9,-25.02 680.53,-22.87 681.45,-29.81"/>
</g>
<!-- Node20&#45;&gt;Node11 -->
<g id="edge33" class="edge">
<title>Node20&#45;&gt;Node11</title>
<path fill="none" stroke="midnightblue" d="M355.15,-123.36C370.35,-110.05 401.2,-84.24 430.5,-67 451.92,-54.4 477.08,-43.07 498.47,-34.35"/>
<polygon fill="midnightblue" stroke="midnightblue" points="500.03,-37.5 508.01,-30.53 497.43,-31 500.03,-37.5"/>
</g>
<!-- Node21 -->
<g id="node21" class="node">
<title>Node21</title>
<g id="a_node21"><a xlink:title=" ">
<polygon fill="white" stroke="#bfbfbf" points="69,-67.5 69,-86.5 146,-86.5 146,-67.5 69,-67.5"/>
<text text-anchor="middle" x="107.5" y="-74.5" font-family="Helvetica,sans-Serif" font-size="10.00">Eigen/Dense</text>
</a>
</g>
</g>
<!-- Node20&#45;&gt;Node21 -->
<g id="edge31" class="edge">
<title>Node20&#45;&gt;Node21</title>
<path fill="none" stroke="midnightblue" d="M307.79,-123.44C266.36,-114.04 199.74,-98.93 154.83,-88.74"/>
<polygon fill="midnightblue" stroke="midnightblue" points="155.56,-85.32 145.04,-86.52 154.01,-92.14 155.56,-85.32"/>
</g>
<!-- Node22 -->
<g id="node22" class="node">
<title>Node22</title>
<g id="a_node22"><a xlink:title=" ">
<polygon fill="white" stroke="#bfbfbf" points="164.5,-67.5 164.5,-86.5 294.5,-86.5 294.5,-67.5 164.5,-67.5"/>
<text text-anchor="middle" x="229.5" y="-74.5" font-family="Helvetica,sans-Serif" font-size="10.00">boost/preprocessor.hpp</text>
</a>
</g>
</g>
<!-- Node20&#45;&gt;Node22 -->
<g id="edge34" class="edge">
<title>Node20&#45;&gt;Node22</title>
<path fill="none" stroke="midnightblue" d="M327.12,-123.44C308.28,-114.68 278.77,-100.94 257.12,-90.86"/>
<polygon fill="midnightblue" stroke="midnightblue" points="258.34,-87.56 247.79,-86.52 255.38,-93.91 258.34,-87.56"/>
</g>
<!-- Node23 -->
<g id="node23" class="node">
<title>Node23</title>
<g id="a_node23"><a xlink:title=" ">
<polygon fill="white" stroke="#bfbfbf" points="313,-67.5 313,-86.5 378,-86.5 378,-67.5 313,-67.5"/>
<text text-anchor="middle" x="345.5" y="-74.5" font-family="Helvetica,sans-Serif" font-size="10.00">stdexcept</text>
</a>
</g>
</g>
<!-- Node20&#45;&gt;Node23 -->
<g id="edge35" class="edge">
<title>Node20&#45;&gt;Node23</title>
<path fill="none" stroke="midnightblue" d="M345.5,-123.08C345.5,-116.01 345.5,-105.86 345.5,-96.99"/>
<polygon fill="midnightblue" stroke="midnightblue" points="349,-96.75 345.5,-86.75 342,-96.75 349,-96.75"/>
</g>
<!-- Node20&#45;&gt;Node24 -->
<g id="edge36" class="edge">
<title>Node20&#45;&gt;Node24</title>
<path fill="none" stroke="midnightblue" d="M278.69,-123.47C222.89,-115.89 141.06,-103.73 61.28,-87.21"/>
<polygon fill="midnightblue" stroke="midnightblue" points="61.56,-83.69 51.05,-85.06 60.12,-90.54 61.56,-83.69"/>
</g>
<!-- Node24&#45;&gt;Node3 -->
<g id="edge37" class="edge">
<title>Node24&#45;&gt;Node3</title>
<path fill="none" stroke="midnightblue" d="M51.01,-68.68C53.85,-68.03 56.73,-67.45 59.5,-67 303.02,-27.24 367.59,-51.2 613.5,-31 635.31,-29.21 658.92,-26.99 680.66,-24.83"/>
<polygon fill="midnightblue" stroke="midnightblue" points="681.24,-28.29 690.84,-23.81 680.54,-21.32 681.24,-28.29"/>
</g>
<!-- Node24&#45;&gt;Node10 -->
<g id="edge39" class="edge">
<title>Node24&#45;&gt;Node10</title>
<path fill="none" stroke="midnightblue" d="M51.37,-68.7C89.5,-57.95 160.79,-37.85 202.9,-25.97"/>
<polygon fill="midnightblue" stroke="midnightblue" points="204.02,-29.3 212.69,-23.21 202.12,-22.56 204.02,-29.3"/>
</g>
<!-- Node24&#45;&gt;Node11 -->
<g id="edge38" class="edge">
<title>Node24&#45;&gt;Node11</title>
<path fill="none" stroke="midnightblue" d="M51.02,-68.79C53.87,-68.12 56.74,-67.51 59.5,-67 207.54,-39.9 383.74,-26.13 478.35,-20.21"/>
<polygon fill="midnightblue" stroke="midnightblue" points="478.6,-23.71 488.36,-19.6 478.17,-16.72 478.6,-23.71"/>
</g>
<!-- Node25&#45;&gt;Node3 -->
<g id="edge43" class="edge">
<title>Node25&#45;&gt;Node3</title>
<path fill="none" stroke="midnightblue" d="M1543.9,-123.37C1516.74,-108.82 1458.55,-79.73 1405.5,-67 1188.42,-14.9 1126.92,-50.11 904.5,-31 882.96,-29.15 859.64,-26.92 838.13,-24.77"/>
<polygon fill="midnightblue" stroke="midnightblue" points="838.36,-21.27 828.06,-23.75 837.66,-28.24 838.36,-21.27"/>
</g>
<!-- Node25&#45;&gt;Node9 -->
<g id="edge44" class="edge">
<title>Node25&#45;&gt;Node9</title>
<path fill="none" stroke="midnightblue" d="M1584.94,-123.43C1614.25,-112.18 1656.16,-91.01 1637.5,-67 1634.92,-63.68 1527.36,-37.53 1471.88,-24.22"/>
<polygon fill="midnightblue" stroke="midnightblue" points="1472.39,-20.75 1461.85,-21.82 1470.76,-27.55 1472.39,-20.75"/>
</g>
<!-- Node25&#45;&gt;Node12 -->
<g id="edge45" class="edge">
<title>Node25&#45;&gt;Node12</title>
<path fill="none" stroke="midnightblue" d="M1559.5,-123.08C1559.5,-116.01 1559.5,-105.86 1559.5,-96.99"/>
<polygon fill="midnightblue" stroke="midnightblue" points="1563,-96.75 1559.5,-86.75 1556,-96.75 1563,-96.75"/>
</g>
<!-- Node26 -->
<g id="node26" class="node">
<title>Node26</title>
<g id="a_node26"><a xlink:title=" ">
<polygon fill="white" stroke="#bfbfbf" points="1685,-67.5 1685,-86.5 1836,-86.5 1836,-67.5 1685,-67.5"/>
<text text-anchor="middle" x="1760.5" y="-74.5" font-family="Helvetica,sans-Serif" font-size="10.00">autodiff/common/eigen.hpp</text>
</a>
</g>
</g>
<!-- Node25&#45;&gt;Node26 -->
<g id="edge42" class="edge">
<title>Node25&#45;&gt;Node26</title>
<path fill="none" stroke="midnightblue" d="M1591.35,-123.44C1625.9,-114.16 1681.18,-99.31 1719.08,-89.13"/>
<polygon fill="midnightblue" stroke="midnightblue" points="1720.05,-92.49 1728.8,-86.52 1718.23,-85.73 1720.05,-92.49"/>
</g>
</g>
</svg>
