<?xml version="1.0" encoding="UTF-8" standalone="no"?>
<!DOCTYPE svg PUBLIC "-//W3C//DTD SVG 1.1//EN"
 "http://www.w3.org/Graphics/SVG/1.1/DTD/svg11.dtd">
<!-- Generated by graphviz version 2.43.0 (0)
 -->
<!-- Title: Dynamics.h Pages: 1 -->
<svg width="1576pt" height="207pt"
 viewBox="0.00 0.00 1576.35 207.00" xmlns="http://www.w3.org/2000/svg" xmlns:xlink="http://www.w3.org/1999/xlink">
<g id="graph0" class="graph" transform="scale(1 1) rotate(0) translate(4 203)">
<title>Dynamics.h</title>
<polygon fill="white" stroke="transparent" points="-4,4 -4,-203 1572.35,-203 1572.35,4 -4,4"/>
<!-- Node1 -->
<g id="node1" class="node">
<title>Node1</title>
<g id="a_node1"><a xlink:title="Interface for Dynamics.">
<polygon fill="#bfbfbf" stroke="black" points="856.85,-179.5 856.85,-198.5 930.85,-198.5 930.85,-179.5 856.85,-179.5"/>
<text text-anchor="middle" x="893.85" y="-186.5" font-family="Helvetica,sans-Serif" font-size="10.00">Dynamics.h</text>
</a>
</g>
</g>
<!-- Node2 -->
<g id="node2" class="node">
<title>Node2</title>
<g id="a_node2"><a xlink:title=" ">
<polygon fill="white" stroke="#bfbfbf" points="780.35,-6 780.35,-25 917.35,-25 917.35,-6 780.35,-6"/>
<text text-anchor="middle" x="848.85" y="-13" font-family="Helvetica,sans-Serif" font-size="10.00">autodiff/forward/real.hpp</text>
</a>
</g>
</g>
<!-- Node1&#45;&gt;Node2 -->
<g id="edge1" class="edge">
<title>Node1&#45;&gt;Node2</title>
<path fill="none" stroke="midnightblue" d="M890.75,-179.46C884.56,-162.19 870.54,-121.8 861.85,-87 857.52,-69.66 853.96,-49.59 851.67,-35.31"/>
<polygon fill="midnightblue" stroke="midnightblue" points="855.1,-34.6 850.11,-25.26 848.18,-35.68 855.1,-34.6"/>
</g>
<!-- Node3 -->
<g id="node3" class="node">
<title>Node3</title>
<g id="a_node3"><a xlink:href="GravityField_8h.html" target="_top" xlink:title="Gravity field model and acceleration calculation.">
<polygon fill="white" stroke="black" points="501.35,-123.5 501.35,-142.5 664.35,-142.5 664.35,-123.5 501.35,-123.5"/>
<text text-anchor="middle" x="582.85" y="-130.5" font-family="Helvetica,sans-Serif" font-size="10.00">lupnt/dynamics/GravityField.h</text>
</a>
</g>
</g>
<!-- Node1&#45;&gt;Node3 -->
<g id="edge2" class="edge">
<title>Node1&#45;&gt;Node3</title>
<path fill="none" stroke="midnightblue" d="M856.65,-181.54C803.5,-172.31 705.29,-155.26 642.08,-144.28"/>
<polygon fill="midnightblue" stroke="midnightblue" points="642.31,-140.77 631.86,-142.51 641.11,-147.67 642.31,-140.77"/>
</g>
<!-- Node16 -->
<g id="node16" class="node">
<title>Node16</title>
<g id="a_node16"><a xlink:href="Propagator_8h.html" target="_top" xlink:title="Numerical Propagator.">
<polygon fill="white" stroke="black" points="176.85,-123.5 176.85,-142.5 332.85,-142.5 332.85,-123.5 176.85,-123.5"/>
<text text-anchor="middle" x="254.85" y="-130.5" font-family="Helvetica,sans-Serif" font-size="10.00">lupnt/dynamics/Propagator.h</text>
</a>
</g>
</g>
<!-- Node1&#45;&gt;Node16 -->
<g id="edge20" class="edge">
<title>Node1&#45;&gt;Node16</title>
<path fill="none" stroke="midnightblue" d="M856.73,-184.86C757.63,-176.49 484.71,-153.42 342.94,-141.44"/>
<polygon fill="midnightblue" stroke="midnightblue" points="343.22,-137.96 332.96,-140.6 342.63,-144.93 343.22,-137.96"/>
</g>
<!-- Node18 -->
<g id="node18" class="node">
<title>Node18</title>
<g id="a_node18"><a xlink:href="Integrator_8h.html" target="_top" xlink:title="Integrator interfaces.">
<polygon fill="white" stroke="black" points="870.35,-67.5 870.35,-86.5 1019.35,-86.5 1019.35,-67.5 870.35,-67.5"/>
<text text-anchor="middle" x="944.85" y="-74.5" font-family="Helvetica,sans-Serif" font-size="10.00">lupnt/numerics/Integrator.h</text>
</a>
</g>
</g>
<!-- Node1&#45;&gt;Node18 -->
<g id="edge28" class="edge">
<title>Node1&#45;&gt;Node18</title>
<path fill="none" stroke="midnightblue" d="M897.85,-179.37C906.16,-161.46 925.41,-119.92 936.53,-95.95"/>
<polygon fill="midnightblue" stroke="midnightblue" points="939.84,-97.14 940.87,-86.59 933.49,-94.19 939.84,-97.14"/>
</g>
<!-- Node19 -->
<g id="node19" class="node">
<title>Node19</title>
<g id="a_node19"><a xlink:href="OrbitState_8h.html" target="_top" xlink:title="Orbit states.">
<polygon fill="white" stroke="black" points="1159.35,-123.5 1159.35,-142.5 1302.35,-142.5 1302.35,-123.5 1159.35,-123.5"/>
<text text-anchor="middle" x="1230.85" y="-130.5" font-family="Helvetica,sans-Serif" font-size="10.00">lupnt/physics/OrbitState.h</text>
</a>
</g>
</g>
<!-- Node1&#45;&gt;Node19 -->
<g id="edge29" class="edge">
<title>Node1&#45;&gt;Node19</title>
<path fill="none" stroke="midnightblue" d="M930.88,-182.07C987.92,-172.93 1097.97,-155.29 1167.74,-144.11"/>
<polygon fill="midnightblue" stroke="midnightblue" points="1168.42,-147.55 1177.74,-142.51 1167.31,-140.64 1168.42,-147.55"/>
</g>
<!-- Node23 -->
<g id="node23" class="node">
<title>Node23</title>
<g id="a_node23"><a xlink:href="State_8h.html" target="_top" xlink:title="SPICE Interface functions.">
<polygon fill="white" stroke="black" points="1113.35,-67.5 1113.35,-86.5 1164.35,-86.5 1164.35,-67.5 1113.35,-67.5"/>
<text text-anchor="middle" x="1138.85" y="-74.5" font-family="Helvetica,sans-Serif" font-size="10.00">State.h</text>
</a>
</g>
</g>
<!-- Node1&#45;&gt;Node23 -->
<g id="edge39" class="edge">
<title>Node1&#45;&gt;Node23</title>
<path fill="none" stroke="midnightblue" d="M913.08,-179.37C956.01,-160.09 1059.89,-113.45 1110.37,-90.79"/>
<polygon fill="midnightblue" stroke="midnightblue" points="1112.03,-93.88 1119.72,-86.59 1109.16,-87.49 1112.03,-93.88"/>
</g>
<!-- Node3&#45;&gt;Node2 -->
<g id="edge9" class="edge">
<title>Node3&#45;&gt;Node2</title>
<path fill="none" stroke="midnightblue" d="M590.13,-123.43C602.43,-109.48 628.77,-81.94 656.85,-67 681.07,-54.11 749.4,-37.73 797.62,-27.18"/>
<polygon fill="midnightblue" stroke="midnightblue" points="798.56,-30.56 807.59,-25.02 797.07,-23.72 798.56,-30.56"/>
</g>
<!-- Node4 -->
<g id="node4" class="node">
<title>Node4</title>
<g id="a_node4"><a xlink:title=" ">
<polygon fill="white" stroke="#bfbfbf" points="472.85,-67.5 472.85,-86.5 536.85,-86.5 536.85,-67.5 472.85,-67.5"/>
<text text-anchor="middle" x="504.85" y="-74.5" font-family="Helvetica,sans-Serif" font-size="10.00">algorithm</text>
</a>
</g>
</g>
<!-- Node3&#45;&gt;Node4 -->
<g id="edge3" class="edge">
<title>Node3&#45;&gt;Node4</title>
<path fill="none" stroke="midnightblue" d="M570.32,-123.32C558.27,-114.98 539.82,-102.21 525.58,-92.35"/>
<polygon fill="midnightblue" stroke="midnightblue" points="527.57,-89.47 517.35,-86.65 523.58,-95.22 527.57,-89.47"/>
</g>
<!-- Node5 -->
<g id="node5" class="node">
<title>Node5</title>
<g id="a_node5"><a xlink:title=" ">
<polygon fill="white" stroke="#bfbfbf" points="555.35,-67.5 555.35,-86.5 610.35,-86.5 610.35,-67.5 555.35,-67.5"/>
<text text-anchor="middle" x="582.85" y="-74.5" font-family="Helvetica,sans-Serif" font-size="10.00">fstream</text>
</a>
</g>
</g>
<!-- Node3&#45;&gt;Node5 -->
<g id="edge4" class="edge">
<title>Node3&#45;&gt;Node5</title>
<path fill="none" stroke="midnightblue" d="M582.85,-123.08C582.85,-116.01 582.85,-105.86 582.85,-96.99"/>
<polygon fill="midnightblue" stroke="midnightblue" points="586.35,-96.75 582.85,-86.75 579.35,-96.75 586.35,-96.75"/>
</g>
<!-- Node6 -->
<g id="node6" class="node">
<title>Node6</title>
<g id="a_node6"><a xlink:title=" ">
<polygon fill="white" stroke="#bfbfbf" points="70.85,-6 70.85,-25 130.85,-25 130.85,-6 70.85,-6"/>
<text text-anchor="middle" x="100.85" y="-13" font-family="Helvetica,sans-Serif" font-size="10.00">iostream</text>
</a>
</g>
</g>
<!-- Node3&#45;&gt;Node6 -->
<g id="edge5" class="edge">
<title>Node3&#45;&gt;Node6</title>
<path fill="none" stroke="midnightblue" d="M501.21,-128.73C400.43,-123.68 235.54,-111.86 179.85,-87 152.69,-74.87 128.31,-49.92 114.04,-33.19"/>
<polygon fill="midnightblue" stroke="midnightblue" points="116.6,-30.79 107.54,-25.3 111.2,-35.24 116.6,-30.79"/>
</g>
<!-- Node7 -->
<g id="node7" class="node">
<title>Node7</title>
<g id="a_node7"><a xlink:title=" ">
<polygon fill="white" stroke="#bfbfbf" points="398.85,-67.5 398.85,-86.5 454.85,-86.5 454.85,-67.5 398.85,-67.5"/>
<text text-anchor="middle" x="426.85" y="-74.5" font-family="Helvetica,sans-Serif" font-size="10.00">sstream</text>
</a>
</g>
</g>
<!-- Node3&#45;&gt;Node7 -->
<g id="edge6" class="edge">
<title>Node3&#45;&gt;Node7</title>
<path fill="none" stroke="midnightblue" d="M558.13,-123.44C532,-114.4 490.59,-100.06 461.27,-89.92"/>
<polygon fill="midnightblue" stroke="midnightblue" points="462.05,-86.48 451.45,-86.52 459.76,-93.1 462.05,-86.48"/>
</g>
<!-- Node8 -->
<g id="node8" class="node">
<title>Node8</title>
<g id="a_node8"><a xlink:title=" ">
<polygon fill="white" stroke="#bfbfbf" points="154.85,-6 154.85,-25 198.85,-25 198.85,-6 154.85,-6"/>
<text text-anchor="middle" x="176.85" y="-13" font-family="Helvetica,sans-Serif" font-size="10.00">string</text>
</a>
</g>
</g>
<!-- Node3&#45;&gt;Node8 -->
<g id="edge7" class="edge">
<title>Node3&#45;&gt;Node8</title>
<path fill="none" stroke="midnightblue" d="M501.06,-127.34C394.34,-120.54 218.49,-106.52 195.85,-87 181.17,-74.34 177.25,-51.66 176.47,-35.44"/>
<polygon fill="midnightblue" stroke="midnightblue" points="179.97,-34.96 176.35,-25.01 172.97,-35.04 179.97,-34.96"/>
</g>
<!-- Node9 -->
<g id="node9" class="node">
<title>Node9</title>
<g id="a_node9"><a xlink:title=" ">
<polygon fill="white" stroke="#bfbfbf" points="1165.35,-6 1165.35,-25 1212.35,-25 1212.35,-6 1165.35,-6"/>
<text text-anchor="middle" x="1188.85" y="-13" font-family="Helvetica,sans-Serif" font-size="10.00">vector</text>
</a>
</g>
</g>
<!-- Node3&#45;&gt;Node9 -->
<g id="edge8" class="edge">
<title>Node3&#45;&gt;Node9</title>
<path fill="none" stroke="midnightblue" d="M664.63,-131.12C817.9,-128.71 1136.38,-119.77 1173.85,-87 1188.25,-74.41 1190.8,-51.71 1190.52,-35.47"/>
<polygon fill="midnightblue" stroke="midnightblue" points="1193.99,-34.81 1189.94,-25.02 1187,-35.2 1193.99,-34.81"/>
</g>
<!-- Node10 -->
<g id="node10" class="node">
<title>Node10</title>
<g id="a_node10"><a xlink:title=" ">
<polygon fill="white" stroke="#bfbfbf" points="1026.85,-0.5 1026.85,-30.5 1142.85,-30.5 1142.85,-0.5 1026.85,-0.5"/>
<text text-anchor="start" x="1034.85" y="-18.5" font-family="Helvetica,sans-Serif" font-size="10.00">autodiff/forward/real</text>
<text text-anchor="middle" x="1084.85" y="-7.5" font-family="Helvetica,sans-Serif" font-size="10.00">/eigen.hpp</text>
</a>
</g>
</g>
<!-- Node3&#45;&gt;Node10 -->
<g id="edge10" class="edge">
<title>Node3&#45;&gt;Node10</title>
<path fill="none" stroke="midnightblue" d="M664.68,-131.17C775.67,-128.79 967.06,-119.88 1027.85,-87 1047.52,-76.36 1062.92,-55.81 1072.73,-39.63"/>
<polygon fill="midnightblue" stroke="midnightblue" points="1075.9,-41.13 1077.84,-30.71 1069.83,-37.64 1075.9,-41.13"/>
</g>
<!-- Node11 -->
<g id="node11" class="node">
<title>Node11</title>
<g id="a_node11"><a xlink:href="UserFilePath_8h.html" target="_top" xlink:title="File access utils.">
<polygon fill="white" stroke="black" points="204.85,-67.5 204.85,-86.5 342.85,-86.5 342.85,-67.5 204.85,-67.5"/>
<text text-anchor="middle" x="273.85" y="-74.5" font-family="Helvetica,sans-Serif" font-size="10.00">lupnt/core/UserFilePath.h</text>
</a>
</g>
</g>
<!-- Node3&#45;&gt;Node11 -->
<g id="edge11" class="edge">
<title>Node3&#45;&gt;Node11</title>
<path fill="none" stroke="midnightblue" d="M533.89,-123.44C479.31,-113.9 391.06,-98.48 332.75,-88.29"/>
<polygon fill="midnightblue" stroke="midnightblue" points="333.04,-84.79 322.58,-86.52 331.83,-91.69 333.04,-84.79"/>
</g>
<!-- Node14 -->
<g id="node14" class="node">
<title>Node14</title>
<g id="a_node14"><a xlink:href="MathUtils_8h.html" target="_top" xlink:title=" ">
<polygon fill="white" stroke="black" points="666.35,-67.5 666.35,-86.5 815.35,-86.5 815.35,-67.5 666.35,-67.5"/>
<text text-anchor="middle" x="740.85" y="-74.5" font-family="Helvetica,sans-Serif" font-size="10.00">lupnt/numerics/MathUtils.h</text>
</a>
</g>
</g>
<!-- Node3&#45;&gt;Node14 -->
<g id="edge16" class="edge">
<title>Node3&#45;&gt;Node14</title>
<path fill="none" stroke="midnightblue" d="M607.89,-123.44C634.47,-114.36 676.66,-99.94 706.37,-89.78"/>
<polygon fill="midnightblue" stroke="midnightblue" points="707.6,-93.06 715.93,-86.52 705.34,-86.44 707.6,-93.06"/>
</g>
<!-- Node11&#45;&gt;Node6 -->
<g id="edge13" class="edge">
<title>Node11&#45;&gt;Node6</title>
<path fill="none" stroke="midnightblue" d="M249.06,-67.48C219.26,-57.22 169.06,-39.96 135.45,-28.4"/>
<polygon fill="midnightblue" stroke="midnightblue" points="136.19,-24.95 125.59,-25.01 133.91,-31.57 136.19,-24.95"/>
</g>
<!-- Node11&#45;&gt;Node8 -->
<g id="edge15" class="edge">
<title>Node11&#45;&gt;Node8</title>
<path fill="none" stroke="midnightblue" d="M259.95,-67.48C244.18,-57.8 218.21,-41.87 199.5,-30.39"/>
<polygon fill="midnightblue" stroke="midnightblue" points="201.08,-27.25 190.72,-25.01 197.42,-33.22 201.08,-27.25"/>
</g>
<!-- Node12 -->
<g id="node12" class="node">
<title>Node12</title>
<g id="a_node12"><a xlink:title=" ">
<polygon fill="white" stroke="#bfbfbf" points="305.85,-6 305.85,-25 373.85,-25 373.85,-6 305.85,-6"/>
<text text-anchor="middle" x="339.85" y="-13" font-family="Helvetica,sans-Serif" font-size="10.00">filesystem</text>
</a>
</g>
</g>
<!-- Node11&#45;&gt;Node12 -->
<g id="edge12" class="edge">
<title>Node11&#45;&gt;Node12</title>
<path fill="none" stroke="midnightblue" d="M283.31,-67.48C293.6,-58.2 310.27,-43.17 322.85,-31.83"/>
<polygon fill="midnightblue" stroke="midnightblue" points="325.33,-34.3 330.41,-25.01 320.64,-29.11 325.33,-34.3"/>
</g>
<!-- Node13 -->
<g id="node13" class="node">
<title>Node13</title>
<g id="a_node13"><a xlink:title=" ">
<polygon fill="white" stroke="#bfbfbf" points="231.85,-6 231.85,-25 287.85,-25 287.85,-6 231.85,-6"/>
<text text-anchor="middle" x="259.85" y="-13" font-family="Helvetica,sans-Serif" font-size="10.00">optional</text>
</a>
</g>
</g>
<!-- Node11&#45;&gt;Node13 -->
<g id="edge14" class="edge">
<title>Node11&#45;&gt;Node13</title>
<path fill="none" stroke="midnightblue" d="M271.85,-67.48C269.85,-58.99 266.72,-45.7 264.16,-34.82"/>
<polygon fill="midnightblue" stroke="midnightblue" points="267.55,-33.94 261.85,-25.01 260.74,-35.54 267.55,-33.94"/>
</g>
<!-- Node14&#45;&gt;Node2 -->
<g id="edge17" class="edge">
<title>Node14&#45;&gt;Node2</title>
<path fill="none" stroke="midnightblue" d="M756.32,-67.48C774.13,-57.67 803.59,-41.43 824.48,-29.92"/>
<polygon fill="midnightblue" stroke="midnightblue" points="826.34,-32.9 833.41,-25.01 822.96,-26.77 826.34,-32.9"/>
</g>
<!-- Node14&#45;&gt;Node10 -->
<g id="edge18" class="edge">
<title>Node14&#45;&gt;Node10</title>
<path fill="none" stroke="midnightblue" d="M790.14,-67.48C849.6,-57.19 949.89,-39.84 1016.73,-28.28"/>
<polygon fill="midnightblue" stroke="midnightblue" points="1017.49,-31.7 1026.74,-26.55 1016.29,-24.81 1017.49,-31.7"/>
</g>
<!-- Node15 -->
<g id="node15" class="node">
<title>Node15</title>
<g id="a_node15"><a xlink:title=" ">
<polygon fill="white" stroke="#bfbfbf" points="707.85,-6 707.85,-25 761.85,-25 761.85,-6 707.85,-6"/>
<text text-anchor="middle" x="734.85" y="-13" font-family="Helvetica,sans-Serif" font-size="10.00">random</text>
</a>
</g>
</g>
<!-- Node14&#45;&gt;Node15 -->
<g id="edge19" class="edge">
<title>Node14&#45;&gt;Node15</title>
<path fill="none" stroke="midnightblue" d="M739.99,-67.48C739.14,-59.08 737.82,-45.98 736.73,-35.16"/>
<polygon fill="midnightblue" stroke="midnightblue" points="740.19,-34.61 735.71,-25.01 733.23,-35.31 740.19,-34.61"/>
</g>
<!-- Node16&#45;&gt;Node2 -->
<g id="edge21" class="edge">
<title>Node16&#45;&gt;Node2</title>
<path fill="none" stroke="midnightblue" d="M273.94,-123.48C293.6,-114.64 325.06,-100.25 351.85,-87 368.96,-78.54 371.56,-72.45 389.85,-67 552.87,-18.47 602.4,-54.57 770.85,-31 779.28,-29.82 788.19,-28.37 796.85,-26.84"/>
<polygon fill="midnightblue" stroke="midnightblue" points="797.65,-30.25 806.86,-25.02 796.4,-23.36 797.65,-30.25"/>
</g>
<!-- Node16&#45;&gt;Node6 -->
<g id="edge22" class="edge">
<title>Node16&#45;&gt;Node6</title>
<path fill="none" stroke="midnightblue" d="M176.83,-128.53C112.13,-123.83 27.4,-112.79 5.85,-87 -15.15,-61.86 26.9,-40.68 61.58,-28.28"/>
<polygon fill="midnightblue" stroke="midnightblue" points="62.78,-31.57 71.11,-25.02 60.51,-24.95 62.78,-31.57"/>
</g>
<!-- Node16&#45;&gt;Node8 -->
<g id="edge24" class="edge">
<title>Node16&#45;&gt;Node8</title>
<path fill="none" stroke="midnightblue" d="M216.01,-123.36C196.47,-116.85 174.52,-105.7 162.85,-87 152.87,-71 159.55,-49.32 166.7,-34.25"/>
<polygon fill="midnightblue" stroke="midnightblue" points="170,-35.5 171.53,-25.01 163.79,-32.25 170,-35.5"/>
</g>
<!-- Node17 -->
<g id="node17" class="node">
<title>Node17</title>
<g id="a_node17"><a xlink:title=" ">
<polygon fill="white" stroke="#bfbfbf" points="14.85,-67.5 14.85,-86.5 72.85,-86.5 72.85,-67.5 14.85,-67.5"/>
<text text-anchor="middle" x="43.85" y="-74.5" font-family="Helvetica,sans-Serif" font-size="10.00">memory</text>
</a>
</g>
</g>
<!-- Node16&#45;&gt;Node17 -->
<g id="edge23" class="edge">
<title>Node16&#45;&gt;Node17</title>
<path fill="none" stroke="midnightblue" d="M221.42,-123.44C183.79,-113.81 122.73,-98.19 82.93,-88"/>
<polygon fill="midnightblue" stroke="midnightblue" points="83.61,-84.56 73.05,-85.47 81.87,-91.34 83.61,-84.56"/>
</g>
<!-- Node16&#45;&gt;Node18 -->
<g id="edge25" class="edge">
<title>Node16&#45;&gt;Node18</title>
<path fill="none" stroke="midnightblue" d="M333,-125.88C463.58,-115.66 725.09,-95.2 860.01,-84.64"/>
<polygon fill="midnightblue" stroke="midnightblue" points="860.59,-88.1 870.29,-83.84 860.05,-81.13 860.59,-88.1"/>
</g>
<!-- Node18&#45;&gt;Node2 -->
<g id="edge26" class="edge">
<title>Node18&#45;&gt;Node2</title>
<path fill="none" stroke="midnightblue" d="M931.1,-67.48C915.48,-57.8 889.79,-41.87 871.27,-30.39"/>
<polygon fill="midnightblue" stroke="midnightblue" points="872.92,-27.3 862.58,-25.01 869.24,-33.25 872.92,-27.3"/>
</g>
<!-- Node18&#45;&gt;Node10 -->
<g id="edge27" class="edge">
<title>Node18&#45;&gt;Node10</title>
<path fill="none" stroke="midnightblue" d="M964.91,-67.48C985.02,-58.93 1016.61,-45.5 1042.33,-34.57"/>
<polygon fill="midnightblue" stroke="midnightblue" points="1044.02,-37.66 1051.86,-30.52 1041.28,-31.21 1044.02,-37.66"/>
</g>
<!-- Node19&#45;&gt;Node2 -->
<g id="edge31" class="edge">
<title>Node19&#45;&gt;Node2</title>
<path fill="none" stroke="midnightblue" d="M1204.98,-123.4C1166.5,-110.67 1091.81,-86.26 1027.85,-67 980.8,-52.83 926.43,-37.66 890.07,-27.69"/>
<polygon fill="midnightblue" stroke="midnightblue" points="890.88,-24.28 880.31,-25.02 889.03,-31.03 890.88,-24.28"/>
</g>
<!-- Node19&#45;&gt;Node10 -->
<g id="edge32" class="edge">
<title>Node19&#45;&gt;Node10</title>
<path fill="none" stroke="midnightblue" d="M1224.63,-123.17C1214.91,-109.83 1195.03,-84.25 1173.85,-67 1158.88,-54.81 1140.58,-43.87 1124.48,-35.31"/>
<polygon fill="midnightblue" stroke="midnightblue" points="1125.78,-32.05 1115.29,-30.56 1122.57,-38.26 1125.78,-32.05"/>
</g>
<!-- Node20 -->
<g id="node20" class="node">
<title>Node20</title>
<g id="a_node20"><a xlink:title=" ">
<polygon fill="white" stroke="#bfbfbf" points="1259.35,-67.5 1259.35,-86.5 1336.35,-86.5 1336.35,-67.5 1259.35,-67.5"/>
<text text-anchor="middle" x="1297.85" y="-74.5" font-family="Helvetica,sans-Serif" font-size="10.00">Eigen/Dense</text>
</a>
</g>
</g>
<!-- Node19&#45;&gt;Node20 -->
<g id="edge30" class="edge">
<title>Node19&#45;&gt;Node20</title>
<path fill="none" stroke="midnightblue" d="M1241.62,-123.32C1251.62,-115.26 1266.74,-103.08 1278.78,-93.37"/>
<polygon fill="midnightblue" stroke="midnightblue" points="1281.3,-95.83 1286.89,-86.83 1276.91,-90.38 1281.3,-95.83"/>
</g>
<!-- Node21 -->
<g id="node21" class="node">
<title>Node21</title>
<g id="a_node21"><a xlink:title=" ">
<polygon fill="white" stroke="#bfbfbf" points="1354.85,-67.5 1354.85,-86.5 1484.85,-86.5 1484.85,-67.5 1354.85,-67.5"/>
<text text-anchor="middle" x="1419.85" y="-74.5" font-family="Helvetica,sans-Serif" font-size="10.00">boost/preprocessor.hpp</text>
</a>
</g>
</g>
<!-- Node19&#45;&gt;Node21 -->
<g id="edge33" class="edge">
<title>Node19&#45;&gt;Node21</title>
<path fill="none" stroke="midnightblue" d="M1260.8,-123.44C1293.01,-114.24 1344.39,-99.56 1379.99,-89.39"/>
<polygon fill="midnightblue" stroke="midnightblue" points="1381.39,-92.63 1390.04,-86.52 1379.47,-85.9 1381.39,-92.63"/>
</g>
<!-- Node22 -->
<g id="node22" class="node">
<title>Node22</title>
<g id="a_node22"><a xlink:title=" ">
<polygon fill="white" stroke="#bfbfbf" points="1503.35,-67.5 1503.35,-86.5 1568.35,-86.5 1568.35,-67.5 1503.35,-67.5"/>
<text text-anchor="middle" x="1535.85" y="-74.5" font-family="Helvetica,sans-Serif" font-size="10.00">stdexcept</text>
</a>
</g>
</g>
<!-- Node19&#45;&gt;Node22 -->
<g id="edge34" class="edge">
<title>Node19&#45;&gt;Node22</title>
<path fill="none" stroke="midnightblue" d="M1284.61,-123.47C1335.67,-115.22 1414.82,-102.04 1493.26,-87.05"/>
<polygon fill="midnightblue" stroke="midnightblue" points="1494.16,-90.44 1503.32,-85.11 1492.84,-83.56 1494.16,-90.44"/>
</g>
<!-- Node19&#45;&gt;Node23 -->
<g id="edge35" class="edge">
<title>Node19&#45;&gt;Node23</title>
<path fill="none" stroke="midnightblue" d="M1216.07,-123.32C1201.58,-114.82 1179.28,-101.73 1162.36,-91.8"/>
<polygon fill="midnightblue" stroke="midnightblue" points="1163.99,-88.7 1153.6,-86.65 1160.45,-94.74 1163.99,-88.7"/>
</g>
<!-- Node23&#45;&gt;Node2 -->
<g id="edge36" class="edge">
<title>Node23&#45;&gt;Node2</title>
<path fill="none" stroke="midnightblue" d="M1113.12,-70.72C1065.52,-60.95 962.9,-39.9 900.47,-27.09"/>
<polygon fill="midnightblue" stroke="midnightblue" points="900.93,-23.61 890.43,-25.03 899.53,-30.47 900.93,-23.61"/>
</g>
<!-- Node23&#45;&gt;Node9 -->
<g id="edge38" class="edge">
<title>Node23&#45;&gt;Node9</title>
<path fill="none" stroke="midnightblue" d="M1146.01,-67.48C1153.59,-58.46 1165.72,-44.02 1175.14,-32.81"/>
<polygon fill="midnightblue" stroke="midnightblue" points="1177.95,-34.92 1181.7,-25.01 1172.59,-30.41 1177.95,-34.92"/>
</g>
<!-- Node23&#45;&gt;Node10 -->
<g id="edge37" class="edge">
<title>Node23&#45;&gt;Node10</title>
<path fill="none" stroke="midnightblue" d="M1131.11,-67.48C1124.14,-59.79 1113.6,-48.17 1104.33,-37.96"/>
<polygon fill="midnightblue" stroke="midnightblue" points="1106.89,-35.58 1097.58,-30.52 1101.71,-40.28 1106.89,-35.58"/>
</g>
</g>
</svg>
