<?xml version="1.0" encoding="UTF-8" standalone="no"?>
<!DOCTYPE svg PUBLIC "-//W3C//DTD SVG 1.1//EN"
 "http://www.w3.org/Graphics/SVG/1.1/DTD/svg11.dtd">
<!-- Generated by graphviz version 2.43.0 (0)
 -->
<!-- Title: Event.h Pages: 1 -->
<svg width="270pt" height="140pt"
 viewBox="0.00 0.00 269.50 140.00" xmlns="http://www.w3.org/2000/svg" xmlns:xlink="http://www.w3.org/1999/xlink">
<g id="graph0" class="graph" transform="scale(1 1) rotate(0) translate(4 136)">
<title>Event.h</title>
<polygon fill="white" stroke="transparent" points="-4,4 -4,-136 265.5,-136 265.5,4 -4,4"/>
<!-- Node1 -->
<g id="node1" class="node">
<title>Node1</title>
<g id="a_node1"><a xlink:title="Event class.">
<polygon fill="#bfbfbf" stroke="black" points="138.5,-112.5 138.5,-131.5 191.5,-131.5 191.5,-112.5 138.5,-112.5"/>
<text text-anchor="middle" x="165" y="-119.5" font-family="Helvetica,sans-Serif" font-size="10.00">Event.h</text>
</a>
</g>
</g>
<!-- Node2 -->
<g id="node2" class="node">
<title>Node2</title>
<g id="a_node2"><a xlink:href="Scheduler_8h.html" target="_top" xlink:title="Event scheduler class.">
<polygon fill="white" stroke="black" points="96.5,-56.5 96.5,-75.5 169.5,-75.5 169.5,-56.5 96.5,-56.5"/>
<text text-anchor="middle" x="133" y="-63.5" font-family="Helvetica,sans-Serif" font-size="10.00">Scheduler.h</text>
</a>
</g>
</g>
<!-- Node1&#45;&gt;Node2 -->
<g id="edge1" class="edge">
<title>Node1&#45;&gt;Node2</title>
<path fill="none" stroke="midnightblue" d="M154.5,-103.27C149.03,-94.05 142.58,-83.17 138.19,-75.75"/>
<polygon fill="midnightblue" stroke="midnightblue" points="151.61,-105.26 159.72,-112.08 157.63,-101.7 151.61,-105.26"/>
</g>
<!-- Node4 -->
<g id="node4" class="node">
<title>Node4</title>
<g id="a_node4"><a xlink:href="ExampleScheduler_8cpp.html" target="_top" xlink:title="Example of using the Scheduler class.">
<polygon fill="white" stroke="black" points="134.5,-0.5 134.5,-19.5 261.5,-19.5 261.5,-0.5 134.5,-0.5"/>
<text text-anchor="middle" x="198" y="-7.5" font-family="Helvetica,sans-Serif" font-size="10.00">ExampleScheduler.cpp</text>
</a>
</g>
</g>
<!-- Node1&#45;&gt;Node4 -->
<g id="edge4" class="edge">
<title>Node1&#45;&gt;Node4</title>
<path fill="none" stroke="midnightblue" d="M170.75,-102.77C173.31,-94.59 176.34,-84.82 179,-76 185.04,-55.96 191.87,-32.37 195.47,-19.85"/>
<polygon fill="midnightblue" stroke="midnightblue" points="167.39,-101.8 167.73,-112.39 174.06,-103.9 167.39,-101.8"/>
</g>
<!-- Node3 -->
<g id="node3" class="node">
<title>Node3</title>
<g id="a_node3"><a xlink:href="ExampleEKFApp_8cpp.html" target="_top" xlink:title="Example of EKF application.">
<polygon fill="white" stroke="black" points="0,-0.5 0,-19.5 116,-19.5 116,-0.5 0,-0.5"/>
<text text-anchor="middle" x="58" y="-7.5" font-family="Helvetica,sans-Serif" font-size="10.00">ExampleEKFApp.cpp</text>
</a>
</g>
</g>
<!-- Node2&#45;&gt;Node3 -->
<g id="edge2" class="edge">
<title>Node2&#45;&gt;Node3</title>
<path fill="none" stroke="midnightblue" d="M112.69,-50.38C99.14,-40.62 81.76,-28.11 70.27,-19.83"/>
<polygon fill="midnightblue" stroke="midnightblue" points="110.79,-53.32 120.95,-56.32 114.88,-47.64 110.79,-53.32"/>
</g>
<!-- Node2&#45;&gt;Node4 -->
<g id="edge3" class="edge">
<title>Node2&#45;&gt;Node4</title>
<path fill="none" stroke="midnightblue" d="M151.27,-49.82C162.92,-40.15 177.6,-27.95 187.37,-19.83"/>
<polygon fill="midnightblue" stroke="midnightblue" points="148.9,-47.24 143.44,-56.32 153.37,-52.63 148.9,-47.24"/>
</g>
</g>
</svg>
