<?xml version="1.0" encoding="UTF-8" standalone="no"?>
<!DOCTYPE svg PUBLIC "-//W3C//DTD SVG 1.1//EN"
 "http://www.w3.org/Graphics/SVG/1.1/DTD/svg11.dtd">
<!-- Generated by graphviz version 2.43.0 (0)
 -->
<!-- Title: ExamplePerformance.cpp Pages: 1 -->
<svg width="2502pt" height="263pt"
 viewBox="0.00 0.00 2502.07 263.00" xmlns="http://www.w3.org/2000/svg" xmlns:xlink="http://www.w3.org/1999/xlink">
<g id="graph0" class="graph" transform="scale(1 1) rotate(0) translate(4 259)">
<title>ExamplePerformance.cpp</title>
<polygon fill="white" stroke="transparent" points="-4,4 -4,-259 2498.07,-259 2498.07,4 -4,4"/>
<!-- Node1 -->
<g id="node1" class="node">
<title>Node1</title>
<g id="a_node1"><a xlink:title="Example for performance testing of spherical harmonics computation.">
<polygon fill="#bfbfbf" stroke="black" points="1131.07,-235.5 1131.07,-254.5 1273.07,-254.5 1273.07,-235.5 1131.07,-235.5"/>
<text text-anchor="middle" x="1202.07" y="-242.5" font-family="Helvetica,sans-Serif" font-size="10.00">ExamplePerformance.cpp</text>
</a>
</g>
</g>
<!-- Node2 -->
<g id="node2" class="node">
<title>Node2</title>
<g id="a_node2"><a xlink:href="File_8h.html" target="_top" xlink:title="File access utils.">
<polygon fill="white" stroke="black" points="207.57,-123.5 207.57,-142.5 302.57,-142.5 302.57,-123.5 207.57,-123.5"/>
<text text-anchor="middle" x="255.07" y="-130.5" font-family="Helvetica,sans-Serif" font-size="10.00">lupnt/core/File.h</text>
</a>
</g>
</g>
<!-- Node1&#45;&gt;Node2 -->
<g id="edge1" class="edge">
<title>Node1&#45;&gt;Node2</title>
<path fill="none" stroke="midnightblue" d="M1130.81,-242.95C936.03,-239.7 404.37,-228.24 331.07,-199 305.49,-188.8 282.43,-166.28 268.58,-150.63"/>
<polygon fill="midnightblue" stroke="midnightblue" points="271.03,-148.11 261.89,-142.76 265.7,-152.65 271.03,-148.11"/>
</g>
<!-- Node3 -->
<g id="node3" class="node">
<title>Node3</title>
<g id="a_node3"><a xlink:href="MathUtils_8h.html" target="_top" xlink:title=" ">
<polygon fill="white" stroke="black" points="930.57,-67.5 930.57,-86.5 1079.57,-86.5 1079.57,-67.5 930.57,-67.5"/>
<text text-anchor="middle" x="1005.07" y="-74.5" font-family="Helvetica,sans-Serif" font-size="10.00">lupnt/numerics/MathUtils.h</text>
</a>
</g>
</g>
<!-- Node1&#45;&gt;Node3 -->
<g id="edge52" class="edge">
<title>Node1&#45;&gt;Node3</title>
<path fill="none" stroke="midnightblue" d="M1191.75,-235.31C1159.97,-208.53 1063.26,-127.03 1022.97,-93.09"/>
<polygon fill="midnightblue" stroke="midnightblue" points="1025.18,-90.37 1015.28,-86.61 1020.67,-95.73 1025.18,-90.37"/>
</g>
<!-- Node4 -->
<g id="node4" class="node">
<title>Node4</title>
<g id="a_node4"><a xlink:title=" ">
<polygon fill="white" stroke="#bfbfbf" points="1675.57,-6 1675.57,-25 1812.57,-25 1812.57,-6 1675.57,-6"/>
<text text-anchor="middle" x="1744.07" y="-13" font-family="Helvetica,sans-Serif" font-size="10.00">autodiff/forward/real.hpp</text>
</a>
</g>
</g>
<!-- Node1&#45;&gt;Node4 -->
<g id="edge63" class="edge">
<title>Node1&#45;&gt;Node4</title>
<path fill="none" stroke="midnightblue" d="M1273.33,-243.1C1499.19,-239.98 2186.58,-228.1 2224.07,-199 2271.59,-162.11 2247.09,-95.43 2194.07,-67 2131.66,-33.54 1934.29,-22.17 1822.78,-18.36"/>
<polygon fill="midnightblue" stroke="midnightblue" points="1822.7,-14.86 1812.59,-18.03 1822.47,-21.85 1822.7,-14.86"/>
</g>
<!-- Node5 -->
<g id="node5" class="node">
<title>Node5</title>
<g id="a_node5"><a xlink:title=" ">
<polygon fill="white" stroke="#bfbfbf" points="1233.07,-0.5 1233.07,-30.5 1349.07,-30.5 1349.07,-0.5 1233.07,-0.5"/>
<text text-anchor="start" x="1241.07" y="-18.5" font-family="Helvetica,sans-Serif" font-size="10.00">autodiff/forward/real</text>
<text text-anchor="middle" x="1291.07" y="-7.5" font-family="Helvetica,sans-Serif" font-size="10.00">/eigen.hpp</text>
</a>
</g>
</g>
<!-- Node1&#45;&gt;Node5 -->
<g id="edge64" class="edge">
<title>Node1&#45;&gt;Node5</title>
<path fill="none" stroke="midnightblue" d="M1199.28,-235.48C1191,-208.53 1169.13,-123.56 1202.07,-67 1210.13,-53.15 1223.57,-42.79 1237.59,-35.18"/>
<polygon fill="midnightblue" stroke="midnightblue" points="1239.45,-38.16 1246.84,-30.56 1236.33,-31.9 1239.45,-38.16"/>
</g>
<!-- Node7 -->
<g id="node7" class="node">
<title>Node7</title>
<g id="a_node7"><a xlink:title=" ">
<polygon fill="white" stroke="#bfbfbf" points="295.57,-67.5 295.57,-86.5 372.57,-86.5 372.57,-67.5 295.57,-67.5"/>
<text text-anchor="middle" x="334.07" y="-74.5" font-family="Helvetica,sans-Serif" font-size="10.00">Eigen/Dense</text>
</a>
</g>
</g>
<!-- Node1&#45;&gt;Node7 -->
<g id="edge65" class="edge">
<title>Node1&#45;&gt;Node7</title>
<path fill="none" stroke="midnightblue" d="M1130.91,-237.6C1057.27,-230.41 939.1,-217.31 838.07,-199 663.64,-167.38 459.22,-112.78 374.25,-89.28"/>
<polygon fill="midnightblue" stroke="midnightblue" points="375.06,-85.88 364.49,-86.58 373.19,-92.62 375.06,-85.88"/>
</g>
<!-- Node9 -->
<g id="node9" class="node">
<title>Node9</title>
<g id="a_node9"><a xlink:title=" ">
<polygon fill="white" stroke="#bfbfbf" points="13.57,-67.5 13.57,-86.5 68.57,-86.5 68.57,-67.5 13.57,-67.5"/>
<text text-anchor="middle" x="41.07" y="-74.5" font-family="Helvetica,sans-Serif" font-size="10.00">fstream</text>
</a>
</g>
</g>
<!-- Node1&#45;&gt;Node9 -->
<g id="edge68" class="edge">
<title>Node1&#45;&gt;Node9</title>
<path fill="none" stroke="midnightblue" d="M1130.81,-244.07C945.66,-243.67 452.81,-238.79 295.07,-199 203.48,-175.9 105.33,-118.66 62.79,-92.03"/>
<polygon fill="midnightblue" stroke="midnightblue" points="64.44,-88.94 54.12,-86.55 60.69,-94.85 64.44,-88.94"/>
</g>
<!-- Node10 -->
<g id="node10" class="node">
<title>Node10</title>
<g id="a_node10"><a xlink:title=" ">
<polygon fill="white" stroke="#bfbfbf" points="311.07,-6 311.07,-25 371.07,-25 371.07,-6 311.07,-6"/>
<text text-anchor="middle" x="341.07" y="-13" font-family="Helvetica,sans-Serif" font-size="10.00">iostream</text>
</a>
</g>
</g>
<!-- Node1&#45;&gt;Node10 -->
<g id="edge70" class="edge">
<title>Node1&#45;&gt;Node10</title>
<path fill="none" stroke="midnightblue" d="M1130.99,-244.29C937.42,-244.51 403.99,-241.15 234.07,-199 123.71,-171.63 63.67,-183.82 4.07,-87 -0.59,-79.43 -1.74,-73.74 4.07,-67 41.94,-23.03 219.69,-16.79 300.68,-16.28"/>
<polygon fill="midnightblue" stroke="midnightblue" points="300.99,-19.78 310.98,-16.24 300.97,-12.78 300.99,-19.78"/>
</g>
<!-- Node12 -->
<g id="node12" class="node">
<title>Node12</title>
<g id="a_node12"><a xlink:title=" ">
<polygon fill="white" stroke="#bfbfbf" points="843.07,-6 843.07,-25 887.07,-25 887.07,-6 843.07,-6"/>
<text text-anchor="middle" x="865.07" y="-13" font-family="Helvetica,sans-Serif" font-size="10.00">string</text>
</a>
</g>
</g>
<!-- Node1&#45;&gt;Node12 -->
<g id="edge72" class="edge">
<title>Node1&#45;&gt;Node12</title>
<path fill="none" stroke="midnightblue" d="M1180.58,-235.45C1131.07,-215.05 1006.65,-159.75 921.07,-87 902.72,-71.41 886.18,-49.05 875.91,-33.72"/>
<polygon fill="midnightblue" stroke="midnightblue" points="878.76,-31.68 870.37,-25.21 872.89,-35.5 878.76,-31.68"/>
</g>
<!-- Node14 -->
<g id="node14" class="node">
<title>Node14</title>
<g id="a_node14"><a xlink:href="Dynamics_8h.html" target="_top" xlink:title="Interface for Dynamics.">
<polygon fill="white" stroke="black" points="1357.07,-179.5 1357.07,-198.5 1509.07,-198.5 1509.07,-179.5 1357.07,-179.5"/>
<text text-anchor="middle" x="1433.07" y="-186.5" font-family="Helvetica,sans-Serif" font-size="10.00">lupnt/dynamics/Dynamics.h</text>
</a>
</g>
</g>
<!-- Node1&#45;&gt;Node14 -->
<g id="edge14" class="edge">
<title>Node1&#45;&gt;Node14</title>
<path fill="none" stroke="midnightblue" d="M1238.67,-235.44C1278.8,-226.06 1343.26,-210.99 1386.85,-200.8"/>
<polygon fill="midnightblue" stroke="midnightblue" points="1387.69,-204.2 1396.63,-198.52 1386.1,-197.38 1387.69,-204.2"/>
</g>
<!-- Node15 -->
<g id="node15" class="node">
<title>Node15</title>
<g id="a_node15"><a xlink:href="GravityField_8h.html" target="_top" xlink:title="Gravity field model and acceleration calculation.">
<polygon fill="white" stroke="black" points="680.57,-123.5 680.57,-142.5 843.57,-142.5 843.57,-123.5 680.57,-123.5"/>
<text text-anchor="middle" x="762.07" y="-130.5" font-family="Helvetica,sans-Serif" font-size="10.00">lupnt/dynamics/GravityField.h</text>
</a>
</g>
</g>
<!-- Node1&#45;&gt;Node15 -->
<g id="edge51" class="edge">
<title>Node1&#45;&gt;Node15</title>
<path fill="none" stroke="midnightblue" d="M1130.96,-240.46C1066.54,-235.7 969.63,-224.62 889.07,-199 849.93,-186.55 808.21,-162.96 783.67,-147.88"/>
<polygon fill="midnightblue" stroke="midnightblue" points="785.49,-144.89 775.15,-142.56 781.78,-150.83 785.49,-144.89"/>
</g>
<!-- Node21 -->
<g id="node21" class="node">
<title>Node21</title>
<g id="a_node21"><a xlink:title=" ">
<polygon fill="white" stroke="#bfbfbf" points="1211.07,-67.5 1211.07,-86.5 1269.07,-86.5 1269.07,-67.5 1211.07,-67.5"/>
<text text-anchor="middle" x="1240.07" y="-74.5" font-family="Helvetica,sans-Serif" font-size="10.00">memory</text>
</a>
</g>
</g>
<!-- Node1&#45;&gt;Node21 -->
<g id="edge71" class="edge">
<title>Node1&#45;&gt;Node21</title>
<path fill="none" stroke="midnightblue" d="M1204.11,-235.08C1210.09,-208.95 1227.66,-132.21 1235.81,-96.58"/>
<polygon fill="midnightblue" stroke="midnightblue" points="1239.28,-97.1 1238.1,-86.57 1232.46,-95.53 1239.28,-97.1"/>
</g>
<!-- Node23 -->
<g id="node23" class="node">
<title>Node23</title>
<g id="a_node23"><a xlink:href="OrbitState_8h.html" target="_top" xlink:title="Orbit states.">
<polygon fill="white" stroke="black" points="1519.57,-123.5 1519.57,-142.5 1662.57,-142.5 1662.57,-123.5 1519.57,-123.5"/>
<text text-anchor="middle" x="1591.07" y="-130.5" font-family="Helvetica,sans-Serif" font-size="10.00">lupnt/physics/OrbitState.h</text>
</a>
</g>
</g>
<!-- Node1&#45;&gt;Node23 -->
<g id="edge53" class="edge">
<title>Node1&#45;&gt;Node23</title>
<path fill="none" stroke="midnightblue" d="M1273.09,-238.68C1352.58,-231.89 1475.78,-218.62 1518.07,-199 1542.22,-187.79 1564.2,-165.9 1577.58,-150.63"/>
<polygon fill="midnightblue" stroke="midnightblue" points="1580.3,-152.83 1584.1,-142.94 1574.96,-148.31 1580.3,-152.83"/>
</g>
<!-- Node27 -->
<g id="node27" class="node">
<title>Node27</title>
<g id="a_node27"><a xlink:href="SpiceInterface_8h.html" target="_top" xlink:title="SPICE Interface functions.">
<polygon fill="white" stroke="black" points="2051.57,-179.5 2051.57,-198.5 2214.57,-198.5 2214.57,-179.5 2051.57,-179.5"/>
<text text-anchor="middle" x="2133.07" y="-186.5" font-family="Helvetica,sans-Serif" font-size="10.00">lupnt/physics/SpiceInterface.h</text>
</a>
</g>
</g>
<!-- Node1&#45;&gt;Node27 -->
<g id="edge54" class="edge">
<title>Node1&#45;&gt;Node27</title>
<path fill="none" stroke="midnightblue" d="M1273.19,-239.87C1439.94,-230.2 1855.94,-206.07 2041.36,-195.32"/>
<polygon fill="midnightblue" stroke="midnightblue" points="2041.58,-198.81 2051.36,-194.74 2041.18,-191.82 2041.58,-198.81"/>
</g>
<!-- Node31 -->
<g id="node31" class="node">
<title>Node31</title>
<g id="a_node31"><a xlink:title=" ">
<polygon fill="white" stroke="#bfbfbf" points="2290.57,-179.5 2290.57,-198.5 2351.57,-198.5 2351.57,-179.5 2290.57,-179.5"/>
<text text-anchor="middle" x="2321.07" y="-186.5" font-family="Helvetica,sans-Serif" font-size="10.00">Eigen/QR</text>
</a>
</g>
</g>
<!-- Node1&#45;&gt;Node31 -->
<g id="edge66" class="edge">
<title>Node1&#45;&gt;Node31</title>
<path fill="none" stroke="midnightblue" d="M1273.31,-242.46C1480.59,-237.76 2081.05,-222.44 2276.07,-199 2277.36,-198.84 2278.66,-198.67 2279.98,-198.49"/>
<polygon fill="midnightblue" stroke="midnightblue" points="2280.87,-201.89 2290.18,-196.83 2279.75,-194.98 2280.87,-201.89"/>
</g>
<!-- Node32 -->
<g id="node32" class="node">
<title>Node32</title>
<g id="a_node32"><a xlink:title=" ">
<polygon fill="white" stroke="#bfbfbf" points="2370.07,-179.5 2370.07,-198.5 2420.07,-198.5 2420.07,-179.5 2370.07,-179.5"/>
<text text-anchor="middle" x="2395.07" y="-186.5" font-family="Helvetica,sans-Serif" font-size="10.00">chrono</text>
</a>
</g>
</g>
<!-- Node1&#45;&gt;Node32 -->
<g id="edge67" class="edge">
<title>Node1&#45;&gt;Node32</title>
<path fill="none" stroke="midnightblue" d="M1273.14,-243.29C1488.15,-240.81 2130.41,-230.99 2359.98,-198.76"/>
<polygon fill="midnightblue" stroke="midnightblue" points="2360.55,-202.22 2369.94,-197.31 2359.54,-195.29 2360.55,-202.22"/>
</g>
<!-- Node33 -->
<g id="node33" class="node">
<title>Node33</title>
<g id="a_node33"><a xlink:title=" ">
<polygon fill="white" stroke="#bfbfbf" points="2438.07,-179.5 2438.07,-198.5 2494.07,-198.5 2494.07,-179.5 2438.07,-179.5"/>
<text text-anchor="middle" x="2466.07" y="-186.5" font-family="Helvetica,sans-Serif" font-size="10.00">iomanip</text>
</a>
</g>
</g>
<!-- Node1&#45;&gt;Node33 -->
<g id="edge69" class="edge">
<title>Node1&#45;&gt;Node33</title>
<path fill="none" stroke="midnightblue" d="M1273.25,-243.28C1496.78,-240.71 2183.7,-230.53 2427.66,-198.85"/>
<polygon fill="midnightblue" stroke="midnightblue" points="2428.45,-202.28 2437.9,-197.47 2427.52,-195.34 2428.45,-202.28"/>
</g>
<!-- Node2&#45;&gt;Node3 -->
<g id="edge2" class="edge">
<title>Node2&#45;&gt;Node3</title>
<path fill="none" stroke="midnightblue" d="M302.84,-128.56C427.15,-119.61 762.03,-95.5 920.17,-84.11"/>
<polygon fill="midnightblue" stroke="midnightblue" points="920.6,-87.59 930.32,-83.38 920.1,-80.61 920.6,-87.59"/>
</g>
<!-- Node2&#45;&gt;Node5 -->
<g id="edge7" class="edge">
<title>Node2&#45;&gt;Node5</title>
<path fill="none" stroke="midnightblue" d="M302.93,-129.62C399,-124.52 622.01,-110.98 808.07,-87 858.65,-80.48 870.68,-74.89 921.07,-67 1026.13,-50.54 1148.46,-34.44 1222.8,-25"/>
<polygon fill="midnightblue" stroke="midnightblue" points="1223.48,-28.44 1232.96,-23.71 1222.6,-21.49 1223.48,-28.44"/>
</g>
<!-- Node2&#45;&gt;Node7 -->
<g id="edge6" class="edge">
<title>Node2&#45;&gt;Node7</title>
<path fill="none" stroke="midnightblue" d="M267.76,-123.32C279.97,-114.98 298.64,-102.21 313.07,-92.35"/>
<polygon fill="midnightblue" stroke="midnightblue" points="315.12,-95.19 321.4,-86.65 311.17,-89.41 315.12,-95.19"/>
</g>
<!-- Node8 -->
<g id="node8" class="node">
<title>Node8</title>
<g id="a_node8"><a xlink:title=" ">
<polygon fill="white" stroke="#bfbfbf" points="389.07,-6 389.07,-25 457.07,-25 457.07,-6 389.07,-6"/>
<text text-anchor="middle" x="423.07" y="-13" font-family="Helvetica,sans-Serif" font-size="10.00">filesystem</text>
</a>
</g>
</g>
<!-- Node2&#45;&gt;Node8 -->
<g id="edge8" class="edge">
<title>Node2&#45;&gt;Node8</title>
<path fill="none" stroke="midnightblue" d="M242.9,-123.34C226.25,-110.44 200.02,-85.68 215.07,-67 262.14,-8.54 307.73,-51.02 380.07,-31 383.08,-30.17 386.2,-29.24 389.31,-28.27"/>
<polygon fill="midnightblue" stroke="midnightblue" points="390.67,-31.51 399.1,-25.1 388.51,-24.85 390.67,-31.51"/>
</g>
<!-- Node2&#45;&gt;Node9 -->
<g id="edge9" class="edge">
<title>Node2&#45;&gt;Node9</title>
<path fill="none" stroke="midnightblue" d="M221.16,-123.44C182.26,-113.63 118.68,-97.59 78.4,-87.42"/>
<polygon fill="midnightblue" stroke="midnightblue" points="79.24,-84.02 68.69,-84.97 77.53,-90.81 79.24,-84.02"/>
</g>
<!-- Node2&#45;&gt;Node10 -->
<g id="edge10" class="edge">
<title>Node2&#45;&gt;Node10</title>
<path fill="none" stroke="midnightblue" d="M207.17,-126.62C156.7,-119.01 88.1,-101.94 116.07,-67 138.78,-38.62 242.49,-25.09 300.85,-19.63"/>
<polygon fill="midnightblue" stroke="midnightblue" points="301.2,-23.11 310.85,-18.73 300.57,-16.14 301.2,-23.11"/>
</g>
<!-- Node11 -->
<g id="node11" class="node">
<title>Node11</title>
<g id="a_node11"><a xlink:title=" ">
<polygon fill="white" stroke="#bfbfbf" points="125.07,-67.5 125.07,-86.5 163.07,-86.5 163.07,-67.5 125.07,-67.5"/>
<text text-anchor="middle" x="144.07" y="-74.5" font-family="Helvetica,sans-Serif" font-size="10.00">map</text>
</a>
</g>
</g>
<!-- Node2&#45;&gt;Node11 -->
<g id="edge11" class="edge">
<title>Node2&#45;&gt;Node11</title>
<path fill="none" stroke="midnightblue" d="M237.23,-123.32C219.35,-114.62 191.59,-101.12 171.02,-91.11"/>
<polygon fill="midnightblue" stroke="midnightblue" points="172.38,-87.88 161.86,-86.65 169.32,-94.18 172.38,-87.88"/>
</g>
<!-- Node2&#45;&gt;Node12 -->
<g id="edge12" class="edge">
<title>Node2&#45;&gt;Node12</title>
<path fill="none" stroke="midnightblue" d="M256.36,-123.49C259.04,-109.11 266.67,-80.28 286.07,-67 330.29,-36.73 713.8,-36.93 767.07,-31 789.13,-28.54 813.86,-24.88 832.96,-21.85"/>
<polygon fill="midnightblue" stroke="midnightblue" points="833.62,-25.29 842.94,-20.24 832.51,-18.37 833.62,-25.29"/>
</g>
<!-- Node13 -->
<g id="node13" class="node">
<title>Node13</title>
<g id="a_node13"><a xlink:title=" ">
<polygon fill="white" stroke="#bfbfbf" points="475.57,-6 475.57,-25 522.57,-25 522.57,-6 475.57,-6"/>
<text text-anchor="middle" x="499.07" y="-13" font-family="Helvetica,sans-Serif" font-size="10.00">vector</text>
</a>
</g>
</g>
<!-- Node2&#45;&gt;Node13 -->
<g id="edge13" class="edge">
<title>Node2&#45;&gt;Node13</title>
<path fill="none" stroke="midnightblue" d="M251.5,-123.23C246.56,-109.5 239.66,-82.87 253.07,-67 284.05,-30.34 420.08,-44.76 466.07,-31 468,-30.42 469.97,-29.76 471.94,-29.04"/>
<polygon fill="midnightblue" stroke="midnightblue" points="473.6,-32.14 481.56,-25.15 470.97,-25.66 473.6,-32.14"/>
</g>
<!-- Node3&#45;&gt;Node4 -->
<g id="edge3" class="edge">
<title>Node3&#45;&gt;Node4</title>
<path fill="none" stroke="midnightblue" d="M1079.65,-69.99C1219.94,-58.7 1521.87,-34.39 1665.31,-22.84"/>
<polygon fill="midnightblue" stroke="midnightblue" points="1665.67,-26.32 1675.36,-22.03 1665.11,-19.35 1665.67,-26.32"/>
</g>
<!-- Node3&#45;&gt;Node5 -->
<g id="edge4" class="edge">
<title>Node3&#45;&gt;Node5</title>
<path fill="none" stroke="midnightblue" d="M1046.04,-67.48C1092.14,-57.89 1167.74,-42.16 1222.79,-30.7"/>
<polygon fill="midnightblue" stroke="midnightblue" points="1223.74,-34.08 1232.82,-28.62 1222.32,-27.23 1223.74,-34.08"/>
</g>
<!-- Node6 -->
<g id="node6" class="node">
<title>Node6</title>
<g id="a_node6"><a xlink:title=" ">
<polygon fill="white" stroke="#bfbfbf" points="978.07,-6 978.07,-25 1032.07,-25 1032.07,-6 978.07,-6"/>
<text text-anchor="middle" x="1005.07" y="-13" font-family="Helvetica,sans-Serif" font-size="10.00">random</text>
</a>
</g>
</g>
<!-- Node3&#45;&gt;Node6 -->
<g id="edge5" class="edge">
<title>Node3&#45;&gt;Node6</title>
<path fill="none" stroke="midnightblue" d="M1005.07,-67.48C1005.07,-59.08 1005.07,-45.98 1005.07,-35.16"/>
<polygon fill="midnightblue" stroke="midnightblue" points="1008.57,-35.01 1005.07,-25.01 1001.57,-35.01 1008.57,-35.01"/>
</g>
<!-- Node14&#45;&gt;Node4 -->
<g id="edge15" class="edge">
<title>Node14&#45;&gt;Node4</title>
<path fill="none" stroke="midnightblue" d="M1509.14,-182.16C1624.01,-171.55 1833.05,-144.65 1877.07,-87 1900.43,-56.39 1852.83,-37.66 1808.22,-27.28"/>
<polygon fill="midnightblue" stroke="midnightblue" points="1808.7,-23.8 1798.18,-25.06 1807.2,-30.63 1808.7,-23.8"/>
</g>
<!-- Node14&#45;&gt;Node15 -->
<g id="edge16" class="edge">
<title>Node14&#45;&gt;Node15</title>
<path fill="none" stroke="midnightblue" d="M1356.75,-181.86C1232.63,-171.87 987.51,-152.14 854,-141.4"/>
<polygon fill="midnightblue" stroke="midnightblue" points="854.05,-137.89 843.8,-140.58 853.48,-144.87 854.05,-137.89"/>
</g>
<!-- Node20 -->
<g id="node20" class="node">
<title>Node20</title>
<g id="a_node20"><a xlink:href="Propagator_8h.html" target="_top" xlink:title="Numerical Propagator.">
<polygon fill="white" stroke="black" points="1249.07,-123.5 1249.07,-142.5 1405.07,-142.5 1405.07,-123.5 1249.07,-123.5"/>
<text text-anchor="middle" x="1327.07" y="-130.5" font-family="Helvetica,sans-Serif" font-size="10.00">lupnt/dynamics/Propagator.h</text>
</a>
</g>
</g>
<!-- Node14&#45;&gt;Node20 -->
<g id="edge31" class="edge">
<title>Node14&#45;&gt;Node20</title>
<path fill="none" stroke="midnightblue" d="M1416.03,-179.32C1399.04,-170.66 1372.69,-157.24 1353.07,-147.25"/>
<polygon fill="midnightblue" stroke="midnightblue" points="1354.55,-144.08 1344.05,-142.65 1351.38,-150.31 1354.55,-144.08"/>
</g>
<!-- Node22 -->
<g id="node22" class="node">
<title>Node22</title>
<g id="a_node22"><a xlink:href="Integrator_8h.html" target="_top" xlink:title="Integrator interfaces.">
<polygon fill="white" stroke="black" points="1324.57,-67.5 1324.57,-86.5 1473.57,-86.5 1473.57,-67.5 1324.57,-67.5"/>
<text text-anchor="middle" x="1399.07" y="-74.5" font-family="Helvetica,sans-Serif" font-size="10.00">lupnt/numerics/Integrator.h</text>
</a>
</g>
</g>
<!-- Node14&#45;&gt;Node22 -->
<g id="edge39" class="edge">
<title>Node14&#45;&gt;Node22</title>
<path fill="none" stroke="midnightblue" d="M1430.59,-179.14C1427.06,-166.6 1420.31,-142.97 1414.07,-123 1411.3,-114.15 1408.06,-104.37 1405.3,-96.2"/>
<polygon fill="midnightblue" stroke="midnightblue" points="1408.57,-94.94 1402.04,-86.6 1401.94,-97.19 1408.57,-94.94"/>
</g>
<!-- Node14&#45;&gt;Node23 -->
<g id="edge40" class="edge">
<title>Node14&#45;&gt;Node23</title>
<path fill="none" stroke="midnightblue" d="M1458.1,-179.44C1484.68,-170.36 1526.87,-155.94 1556.59,-145.78"/>
<polygon fill="midnightblue" stroke="midnightblue" points="1557.82,-149.06 1566.15,-142.52 1555.55,-142.44 1557.82,-149.06"/>
</g>
<!-- Node26 -->
<g id="node26" class="node">
<title>Node26</title>
<g id="a_node26"><a xlink:href="State_8h.html" target="_top" xlink:title="SPICE Interface functions.">
<polygon fill="white" stroke="black" points="1491.57,-67.5 1491.57,-86.5 1542.57,-86.5 1542.57,-67.5 1491.57,-67.5"/>
<text text-anchor="middle" x="1517.07" y="-74.5" font-family="Helvetica,sans-Serif" font-size="10.00">State.h</text>
</a>
</g>
</g>
<!-- Node14&#45;&gt;Node26 -->
<g id="edge50" class="edge">
<title>Node14&#45;&gt;Node26</title>
<path fill="none" stroke="midnightblue" d="M1439.66,-179.37C1453.58,-161.14 1486.19,-118.43 1504.33,-94.68"/>
<polygon fill="midnightblue" stroke="midnightblue" points="1507.22,-96.66 1510.5,-86.59 1501.65,-92.41 1507.22,-96.66"/>
</g>
<!-- Node15&#45;&gt;Node3 -->
<g id="edge30" class="edge">
<title>Node15&#45;&gt;Node3</title>
<path fill="none" stroke="midnightblue" d="M800.57,-123.44C842.87,-114.04 910.88,-98.93 956.74,-88.74"/>
<polygon fill="midnightblue" stroke="midnightblue" points="957.74,-92.1 966.74,-86.52 956.22,-85.27 957.74,-92.1"/>
</g>
<!-- Node15&#45;&gt;Node4 -->
<g id="edge23" class="edge">
<title>Node15&#45;&gt;Node4</title>
<path fill="none" stroke="midnightblue" d="M843.76,-124.84C917.43,-117.68 1028.55,-105.11 1124.07,-87 1159.23,-80.33 1166.81,-73.12 1202.07,-67 1365.17,-38.67 1558.82,-25.47 1664.86,-19.95"/>
<polygon fill="midnightblue" stroke="midnightblue" points="1665.35,-23.43 1675.16,-19.43 1664.99,-16.44 1665.35,-23.43"/>
</g>
<!-- Node15&#45;&gt;Node5 -->
<g id="edge24" class="edge">
<title>Node15&#45;&gt;Node5</title>
<path fill="none" stroke="midnightblue" d="M843.86,-127.48C910.66,-122.19 1006.95,-110.88 1088.07,-87 1108.28,-81.05 1111.42,-74.63 1131.07,-67 1163.65,-54.34 1200.85,-42.45 1231.17,-33.39"/>
<polygon fill="midnightblue" stroke="midnightblue" points="1232.16,-36.75 1240.76,-30.56 1230.18,-30.04 1232.16,-36.75"/>
</g>
<!-- Node15&#45;&gt;Node9 -->
<g id="edge18" class="edge">
<title>Node15&#45;&gt;Node9</title>
<path fill="none" stroke="midnightblue" d="M680.38,-127.62C557.7,-120.74 318.65,-106.2 116.07,-87 103.95,-85.85 90.76,-84.35 78.87,-82.91"/>
<polygon fill="midnightblue" stroke="midnightblue" points="79.17,-79.42 68.81,-81.66 78.31,-86.37 79.17,-79.42"/>
</g>
<!-- Node15&#45;&gt;Node10 -->
<g id="edge19" class="edge">
<title>Node15&#45;&gt;Node10</title>
<path fill="none" stroke="midnightblue" d="M680.56,-129.92C615.95,-126.01 524.32,-115.37 449.07,-87 414.23,-73.87 379.09,-48.06 358.74,-31.58"/>
<polygon fill="midnightblue" stroke="midnightblue" points="360.9,-28.82 350.96,-25.15 356.44,-34.22 360.9,-28.82"/>
</g>
<!-- Node15&#45;&gt;Node12 -->
<g id="edge21" class="edge">
<title>Node15&#45;&gt;Node12</title>
<path fill="none" stroke="midnightblue" d="M771.55,-123.34C781.08,-114.5 796.04,-100.22 808.07,-87 824.2,-69.26 841.32,-47.66 852.54,-33.08"/>
<polygon fill="midnightblue" stroke="midnightblue" points="855.42,-35.08 858.7,-25.01 849.85,-30.84 855.42,-35.08"/>
</g>
<!-- Node15&#45;&gt;Node13 -->
<g id="edge22" class="edge">
<title>Node15&#45;&gt;Node13</title>
<path fill="none" stroke="midnightblue" d="M680.25,-131.48C600.18,-129.02 486.25,-119.67 458.07,-87 443.36,-69.96 462.73,-46.89 479.53,-31.86"/>
<polygon fill="midnightblue" stroke="midnightblue" points="482.04,-34.32 487.4,-25.18 477.51,-28.98 482.04,-34.32"/>
</g>
<!-- Node16 -->
<g id="node16" class="node">
<title>Node16</title>
<g id="a_node16"><a xlink:title=" ">
<polygon fill="white" stroke="#bfbfbf" points="467.07,-67.5 467.07,-86.5 531.07,-86.5 531.07,-67.5 467.07,-67.5"/>
<text text-anchor="middle" x="499.07" y="-74.5" font-family="Helvetica,sans-Serif" font-size="10.00">algorithm</text>
</a>
</g>
</g>
<!-- Node15&#45;&gt;Node16 -->
<g id="edge17" class="edge">
<title>Node15&#45;&gt;Node16</title>
<path fill="none" stroke="midnightblue" d="M719.05,-123.49C676.39,-115.01 608.9,-101.46 541.26,-87.23"/>
<polygon fill="midnightblue" stroke="midnightblue" points="541.79,-83.76 531.28,-85.12 540.35,-90.61 541.79,-83.76"/>
</g>
<!-- Node17 -->
<g id="node17" class="node">
<title>Node17</title>
<g id="a_node17"><a xlink:title=" ">
<polygon fill="white" stroke="#bfbfbf" points="549.07,-67.5 549.07,-86.5 605.07,-86.5 605.07,-67.5 549.07,-67.5"/>
<text text-anchor="middle" x="577.07" y="-74.5" font-family="Helvetica,sans-Serif" font-size="10.00">sstream</text>
</a>
</g>
</g>
<!-- Node15&#45;&gt;Node17 -->
<g id="edge20" class="edge">
<title>Node15&#45;&gt;Node17</title>
<path fill="none" stroke="midnightblue" d="M732.75,-123.44C700.94,-114.16 650.05,-99.3 615.16,-89.12"/>
<polygon fill="midnightblue" stroke="midnightblue" points="615.91,-85.69 605.33,-86.25 613.95,-92.41 615.91,-85.69"/>
</g>
<!-- Node18 -->
<g id="node18" class="node">
<title>Node18</title>
<g id="a_node18"><a xlink:href="UserFilePath_8h.html" target="_top" xlink:title="File access utils.">
<polygon fill="white" stroke="black" points="661.07,-67.5 661.07,-86.5 799.07,-86.5 799.07,-67.5 661.07,-67.5"/>
<text text-anchor="middle" x="730.07" y="-74.5" font-family="Helvetica,sans-Serif" font-size="10.00">lupnt/core/UserFilePath.h</text>
</a>
</g>
</g>
<!-- Node15&#45;&gt;Node18 -->
<g id="edge25" class="edge">
<title>Node15&#45;&gt;Node18</title>
<path fill="none" stroke="midnightblue" d="M756.78,-123.08C752.35,-115.61 745.9,-104.72 740.45,-95.52"/>
<polygon fill="midnightblue" stroke="midnightblue" points="743.36,-93.57 735.25,-86.75 737.34,-97.14 743.36,-93.57"/>
</g>
<!-- Node18&#45;&gt;Node8 -->
<g id="edge26" class="edge">
<title>Node18&#45;&gt;Node8</title>
<path fill="none" stroke="midnightblue" d="M662.73,-67.49C609.02,-59.99 532.11,-47.66 466.07,-31 462.86,-30.19 459.54,-29.26 456.25,-28.26"/>
<polygon fill="midnightblue" stroke="midnightblue" points="457.12,-24.86 446.52,-25.15 454.98,-31.53 457.12,-24.86"/>
</g>
<!-- Node18&#45;&gt;Node10 -->
<g id="edge27" class="edge">
<title>Node18&#45;&gt;Node10</title>
<path fill="none" stroke="midnightblue" d="M660.95,-67.97C566.75,-56.9 406.65,-37.56 380.07,-31 377.08,-30.26 374,-29.37 370.95,-28.39"/>
<polygon fill="midnightblue" stroke="midnightblue" points="372.03,-25.06 361.43,-25.07 369.72,-31.67 372.03,-25.06"/>
</g>
<!-- Node18&#45;&gt;Node12 -->
<g id="edge29" class="edge">
<title>Node18&#45;&gt;Node12</title>
<path fill="none" stroke="midnightblue" d="M749.41,-67.48C772.16,-57.45 810.16,-40.7 836.35,-29.15"/>
<polygon fill="midnightblue" stroke="midnightblue" points="838.02,-32.24 845.76,-25.01 835.2,-25.84 838.02,-32.24"/>
</g>
<!-- Node19 -->
<g id="node19" class="node">
<title>Node19</title>
<g id="a_node19"><a xlink:title=" ">
<polygon fill="white" stroke="#bfbfbf" points="702.07,-6 702.07,-25 758.07,-25 758.07,-6 702.07,-6"/>
<text text-anchor="middle" x="730.07" y="-13" font-family="Helvetica,sans-Serif" font-size="10.00">optional</text>
</a>
</g>
</g>
<!-- Node18&#45;&gt;Node19 -->
<g id="edge28" class="edge">
<title>Node18&#45;&gt;Node19</title>
<path fill="none" stroke="midnightblue" d="M730.07,-67.48C730.07,-59.08 730.07,-45.98 730.07,-35.16"/>
<polygon fill="midnightblue" stroke="midnightblue" points="733.57,-35.01 730.07,-25.01 726.57,-35.01 733.57,-35.01"/>
</g>
<!-- Node20&#45;&gt;Node4 -->
<g id="edge32" class="edge">
<title>Node20&#45;&gt;Node4</title>
<path fill="none" stroke="midnightblue" d="M1382.19,-123.42C1428.09,-115.7 1494.93,-103.1 1552.07,-87 1610.89,-70.42 1677.41,-44.27 1714.68,-28.91"/>
<polygon fill="midnightblue" stroke="midnightblue" points="1716.05,-32.13 1723.95,-25.06 1713.37,-25.66 1716.05,-32.13"/>
</g>
<!-- Node20&#45;&gt;Node10 -->
<g id="edge33" class="edge">
<title>Node20&#45;&gt;Node10</title>
<path fill="none" stroke="midnightblue" d="M1248.83,-130.85C1095.8,-127.94 762.19,-118.13 652.07,-87 633.7,-81.81 632.19,-72.98 614.07,-67 514.14,-34.04 481.9,-57.47 380.07,-31 377.25,-30.27 374.35,-29.41 371.47,-28.47"/>
<polygon fill="midnightblue" stroke="midnightblue" points="372.46,-25.11 361.86,-25.12 370.15,-31.72 372.46,-25.11"/>
</g>
<!-- Node20&#45;&gt;Node12 -->
<g id="edge35" class="edge">
<title>Node20&#45;&gt;Node12</title>
<path fill="none" stroke="midnightblue" d="M1323.41,-123.47C1316.74,-109.07 1301.12,-80.21 1278.07,-67 1218.09,-32.63 1037.64,-39.77 969.07,-31 945.04,-27.93 917.95,-24.14 897.44,-21.2"/>
<polygon fill="midnightblue" stroke="midnightblue" points="897.76,-17.72 887.36,-19.76 896.76,-24.64 897.76,-17.72"/>
</g>
<!-- Node20&#45;&gt;Node21 -->
<g id="edge34" class="edge">
<title>Node20&#45;&gt;Node21</title>
<path fill="none" stroke="midnightblue" d="M1313.09,-123.32C1299.52,-114.9 1278.69,-101.97 1262.74,-92.07"/>
<polygon fill="midnightblue" stroke="midnightblue" points="1264.35,-88.95 1254.01,-86.65 1260.66,-94.9 1264.35,-88.95"/>
</g>
<!-- Node20&#45;&gt;Node22 -->
<g id="edge36" class="edge">
<title>Node20&#45;&gt;Node22</title>
<path fill="none" stroke="midnightblue" d="M1338.63,-123.32C1349.49,-115.18 1365.95,-102.84 1378.95,-93.09"/>
<polygon fill="midnightblue" stroke="midnightblue" points="1381.39,-95.63 1387.29,-86.83 1377.19,-90.03 1381.39,-95.63"/>
</g>
<!-- Node22&#45;&gt;Node4 -->
<g id="edge37" class="edge">
<title>Node22&#45;&gt;Node4</title>
<path fill="none" stroke="midnightblue" d="M1448.5,-67.48C1510.88,-56.72 1618.07,-38.23 1684.78,-26.72"/>
<polygon fill="midnightblue" stroke="midnightblue" points="1685.47,-30.16 1694.73,-25.01 1684.28,-23.26 1685.47,-30.16"/>
</g>
<!-- Node22&#45;&gt;Node5 -->
<g id="edge38" class="edge">
<title>Node22&#45;&gt;Node5</title>
<path fill="none" stroke="midnightblue" d="M1383.59,-67.48C1368.49,-59.15 1344.99,-46.21 1325.45,-35.45"/>
<polygon fill="midnightblue" stroke="midnightblue" points="1326.97,-32.28 1316.52,-30.52 1323.59,-38.41 1326.97,-32.28"/>
</g>
<!-- Node23&#45;&gt;Node4 -->
<g id="edge42" class="edge">
<title>Node23&#45;&gt;Node4</title>
<path fill="none" stroke="midnightblue" d="M1662.88,-130.11C1733.83,-126.55 1835.25,-116.32 1860.07,-87 1883.75,-59.03 1835.84,-39.02 1794.58,-27.63"/>
<polygon fill="midnightblue" stroke="midnightblue" points="1795.39,-24.22 1784.83,-25.05 1793.61,-30.99 1795.39,-24.22"/>
</g>
<!-- Node23&#45;&gt;Node5 -->
<g id="edge43" class="edge">
<title>Node23&#45;&gt;Node5</title>
<path fill="none" stroke="midnightblue" d="M1588.41,-123.23C1583.62,-108.99 1572.12,-81.04 1552.07,-67 1521.59,-45.66 1425.98,-31.17 1359.37,-23.37"/>
<polygon fill="midnightblue" stroke="midnightblue" points="1359.68,-19.88 1349.35,-22.22 1358.88,-26.83 1359.68,-19.88"/>
</g>
<!-- Node23&#45;&gt;Node7 -->
<g id="edge41" class="edge">
<title>Node23&#45;&gt;Node7</title>
<path fill="none" stroke="midnightblue" d="M1519.17,-128.13C1487.02,-126.45 1448.65,-124.53 1414.07,-123 989.29,-104.2 882.61,-110.39 458.07,-87 433.21,-85.63 405.58,-83.67 382.72,-81.93"/>
<polygon fill="midnightblue" stroke="midnightblue" points="382.82,-78.42 372.58,-81.14 382.28,-85.4 382.82,-78.42"/>
</g>
<!-- Node24 -->
<g id="node24" class="node">
<title>Node24</title>
<g id="a_node24"><a xlink:title=" ">
<polygon fill="white" stroke="#bfbfbf" points="1721.07,-67.5 1721.07,-86.5 1851.07,-86.5 1851.07,-67.5 1721.07,-67.5"/>
<text text-anchor="middle" x="1786.07" y="-74.5" font-family="Helvetica,sans-Serif" font-size="10.00">boost/preprocessor.hpp</text>
</a>
</g>
</g>
<!-- Node23&#45;&gt;Node24 -->
<g id="edge44" class="edge">
<title>Node23&#45;&gt;Node24</title>
<path fill="none" stroke="midnightblue" d="M1621.96,-123.44C1655.34,-114.2 1708.66,-99.44 1745.41,-89.26"/>
<polygon fill="midnightblue" stroke="midnightblue" points="1746.61,-92.56 1755.31,-86.52 1744.74,-85.81 1746.61,-92.56"/>
</g>
<!-- Node25 -->
<g id="node25" class="node">
<title>Node25</title>
<g id="a_node25"><a xlink:title=" ">
<polygon fill="white" stroke="#bfbfbf" points="1637.57,-67.5 1637.57,-86.5 1702.57,-86.5 1702.57,-67.5 1637.57,-67.5"/>
<text text-anchor="middle" x="1670.07" y="-74.5" font-family="Helvetica,sans-Serif" font-size="10.00">stdexcept</text>
</a>
</g>
</g>
<!-- Node23&#45;&gt;Node25 -->
<g id="edge45" class="edge">
<title>Node23&#45;&gt;Node25</title>
<path fill="none" stroke="midnightblue" d="M1603.76,-123.32C1615.97,-114.98 1634.64,-102.21 1649.07,-92.35"/>
<polygon fill="midnightblue" stroke="midnightblue" points="1651.12,-95.19 1657.4,-86.65 1647.17,-89.41 1651.12,-95.19"/>
</g>
<!-- Node23&#45;&gt;Node26 -->
<g id="edge46" class="edge">
<title>Node23&#45;&gt;Node26</title>
<path fill="none" stroke="midnightblue" d="M1579.18,-123.32C1567.92,-115.11 1550.78,-102.6 1537.36,-92.81"/>
<polygon fill="midnightblue" stroke="midnightblue" points="1539.31,-89.9 1529.17,-86.83 1535.19,-95.56 1539.31,-89.9"/>
</g>
<!-- Node26&#45;&gt;Node4 -->
<g id="edge47" class="edge">
<title>Node26&#45;&gt;Node4</title>
<path fill="none" stroke="midnightblue" d="M1542.66,-69.29C1581.34,-59.15 1655.09,-39.82 1701.81,-27.58"/>
<polygon fill="midnightblue" stroke="midnightblue" points="1702.84,-30.92 1711.63,-25 1701.07,-24.15 1702.84,-30.92"/>
</g>
<!-- Node26&#45;&gt;Node5 -->
<g id="edge48" class="edge">
<title>Node26&#45;&gt;Node5</title>
<path fill="none" stroke="midnightblue" d="M1491.45,-69.21C1488.62,-68.47 1485.78,-67.72 1483.07,-67 1440.08,-55.66 1391.68,-42.93 1354.22,-33.08"/>
<polygon fill="midnightblue" stroke="midnightblue" points="1355.02,-29.67 1344.45,-30.52 1353.24,-36.44 1355.02,-29.67"/>
</g>
<!-- Node26&#45;&gt;Node13 -->
<g id="edge49" class="edge">
<title>Node26&#45;&gt;Node13</title>
<path fill="none" stroke="midnightblue" d="M1491.2,-68.54C1488.47,-67.94 1485.72,-67.41 1483.07,-67 1135.65,-13.73 1043.91,-52.1 693.07,-31 636.83,-27.62 571.5,-22.49 532.82,-19.32"/>
<polygon fill="midnightblue" stroke="midnightblue" points="532.9,-15.82 522.64,-18.48 532.32,-22.79 532.9,-15.82"/>
</g>
<!-- Node27&#45;&gt;Node4 -->
<g id="edge56" class="edge">
<title>Node27&#45;&gt;Node4</title>
<path fill="none" stroke="midnightblue" d="M2171.03,-179.41C2190.47,-172.88 2212.44,-161.72 2224.07,-143 2250.9,-99.79 2182.15,-76.86 2160.07,-67 2101.48,-40.85 1926.15,-26.76 1822.76,-20.53"/>
<polygon fill="midnightblue" stroke="midnightblue" points="1822.87,-17.03 1812.68,-19.93 1822.45,-24.02 1822.87,-17.03"/>
</g>
<!-- Node27&#45;&gt;Node5 -->
<g id="edge57" class="edge">
<title>Node27&#45;&gt;Node5</title>
<path fill="none" stroke="midnightblue" d="M2135.47,-179.24C2142.12,-154.21 2159.26,-83.12 2144.07,-67 2130.64,-52.76 1559.44,-27.67 1359.4,-19.3"/>
<polygon fill="midnightblue" stroke="midnightblue" points="1359.44,-15.8 1349.31,-18.88 1359.15,-22.8 1359.44,-15.8"/>
</g>
<!-- Node28 -->
<g id="node28" class="node">
<title>Node28</title>
<g id="a_node28"><a xlink:title=" ">
<polygon fill="white" stroke="#bfbfbf" points="2161.57,-123.5 2161.57,-142.5 2214.57,-142.5 2214.57,-123.5 2161.57,-123.5"/>
<text text-anchor="middle" x="2188.07" y="-130.5" font-family="Helvetica,sans-Serif" font-size="10.00">string.h</text>
</a>
</g>
</g>
<!-- Node27&#45;&gt;Node28 -->
<g id="edge55" class="edge">
<title>Node27&#45;&gt;Node28</title>
<path fill="none" stroke="midnightblue" d="M2142.15,-179.08C2150.24,-171.14 2162.26,-159.34 2171.98,-149.8"/>
<polygon fill="midnightblue" stroke="midnightblue" points="2174.47,-152.25 2179.15,-142.75 2169.56,-147.26 2174.47,-152.25"/>
</g>
<!-- Node29 -->
<g id="node29" class="node">
<title>Node29</title>
<g id="a_node29"><a xlink:href="Constants_8h.html" target="_top" xlink:title="List of constants.">
<polygon fill="white" stroke="black" points="1979.07,-123.5 1979.07,-142.5 2105.07,-142.5 2105.07,-123.5 1979.07,-123.5"/>
<text text-anchor="middle" x="2042.07" y="-130.5" font-family="Helvetica,sans-Serif" font-size="10.00">lupnt/core/Constants.h</text>
</a>
</g>
</g>
<!-- Node27&#45;&gt;Node29 -->
<g id="edge58" class="edge">
<title>Node27&#45;&gt;Node29</title>
<path fill="none" stroke="midnightblue" d="M2118.44,-179.32C2104.12,-170.82 2082.05,-157.73 2065.32,-147.8"/>
<polygon fill="midnightblue" stroke="midnightblue" points="2067.04,-144.75 2056.65,-142.65 2063.46,-150.77 2067.04,-144.75"/>
</g>
<!-- Node29&#45;&gt;Node4 -->
<g id="edge60" class="edge">
<title>Node29&#45;&gt;Node4</title>
<path fill="none" stroke="midnightblue" d="M2078.89,-123.43C2116.78,-112.95 2167.26,-93.3 2144.07,-67 2123.19,-43.33 1933.17,-27.94 1822.71,-20.92"/>
<polygon fill="midnightblue" stroke="midnightblue" points="1822.8,-17.42 1812.6,-20.29 1822.36,-24.41 1822.8,-17.42"/>
</g>
<!-- Node29&#45;&gt;Node12 -->
<g id="edge61" class="edge">
<title>Node29&#45;&gt;Node12</title>
<path fill="none" stroke="midnightblue" d="M2023.98,-123.46C1991.85,-108.75 1922.32,-79.08 1860.07,-67 1471,8.51 1363.8,-66.41 969.07,-31 944.94,-28.84 917.85,-25.01 897.37,-21.84"/>
<polygon fill="midnightblue" stroke="midnightblue" points="897.73,-18.35 887.31,-20.25 896.64,-25.26 897.73,-18.35"/>
</g>
<!-- Node29&#45;&gt;Node18 -->
<g id="edge62" class="edge">
<title>Node29&#45;&gt;Node18</title>
<path fill="none" stroke="midnightblue" d="M1978.85,-129.62C1808.2,-123.15 1323.87,-104.57 921.07,-87 884.55,-85.41 844.11,-83.52 809.88,-81.88"/>
<polygon fill="midnightblue" stroke="midnightblue" points="809.62,-78.37 799.46,-81.39 809.29,-85.36 809.62,-78.37"/>
</g>
<!-- Node30 -->
<g id="node30" class="node">
<title>Node30</title>
<g id="a_node30"><a xlink:title=" ">
<polygon fill="white" stroke="#bfbfbf" points="1983.57,-67.5 1983.57,-86.5 2134.57,-86.5 2134.57,-67.5 1983.57,-67.5"/>
<text text-anchor="middle" x="2059.07" y="-74.5" font-family="Helvetica,sans-Serif" font-size="10.00">autodiff/common/eigen.hpp</text>
</a>
</g>
</g>
<!-- Node29&#45;&gt;Node30 -->
<g id="edge59" class="edge">
<title>Node29&#45;&gt;Node30</title>
<path fill="none" stroke="midnightblue" d="M2044.87,-123.08C2047.15,-115.85 2050.44,-105.41 2053.27,-96.4"/>
<polygon fill="midnightblue" stroke="midnightblue" points="2056.65,-97.34 2056.31,-86.75 2049.97,-95.24 2056.65,-97.34"/>
</g>
</g>
</svg>
