<?xml version="1.0" encoding="UTF-8" standalone="no"?>
<!DOCTYPE svg PUBLIC "-//W3C//DTD SVG 1.1//EN"
 "http://www.w3.org/Graphics/SVG/1.1/DTD/svg11.dtd">
<!-- Generated by graphviz version 2.43.0 (0)
 -->
<!-- Title: ExampleFrozenOrbits.cpp Pages: 1 -->
<svg width="1965pt" height="330pt"
 viewBox="0.00 0.00 1964.59 330.00" xmlns="http://www.w3.org/2000/svg" xmlns:xlink="http://www.w3.org/1999/xlink">
<g id="graph0" class="graph" transform="scale(1 1) rotate(0) translate(4 326)">
<title>ExampleFrozenOrbits.cpp</title>
<polygon fill="white" stroke="transparent" points="-4,4 -4,-326 1960.59,-326 1960.59,4 -4,4"/>
<!-- Node1 -->
<g id="node1" class="node">
<title>Node1</title>
<g id="a_node1"><a xlink:title="Example of frozen orbits.">
<polygon fill="#bfbfbf" stroke="black" points="375.5,-302.5 375.5,-321.5 516.5,-321.5 516.5,-302.5 375.5,-302.5"/>
<text text-anchor="middle" x="446" y="-309.5" font-family="Helvetica,sans-Serif" font-size="10.00">ExampleFrozenOrbits.cpp</text>
</a>
</g>
</g>
<!-- Node2 -->
<g id="node2" class="node">
<title>Node2</title>
<g id="a_node2"><a xlink:href="Constants_8h.html" target="_top" xlink:title="List of constants.">
<polygon fill="white" stroke="black" points="802,-123.5 802,-142.5 928,-142.5 928,-123.5 802,-123.5"/>
<text text-anchor="middle" x="865" y="-130.5" font-family="Helvetica,sans-Serif" font-size="10.00">lupnt/core/Constants.h</text>
</a>
</g>
</g>
<!-- Node1&#45;&gt;Node2 -->
<g id="edge1" class="edge">
<title>Node1&#45;&gt;Node2</title>
<path fill="none" stroke="midnightblue" d="M488.25,-302.42C522.74,-294.78 572.38,-282.28 614,-266 702.24,-231.48 799.65,-174.26 842.59,-147.98"/>
<polygon fill="midnightblue" stroke="midnightblue" points="844.69,-150.8 851.36,-142.58 841.01,-144.84 844.69,-150.8"/>
</g>
<!-- Node4 -->
<g id="node4" class="node">
<title>Node4</title>
<g id="a_node4"><a xlink:title=" ">
<polygon fill="white" stroke="#bfbfbf" points="1056.5,-6 1056.5,-25 1193.5,-25 1193.5,-6 1056.5,-6"/>
<text text-anchor="middle" x="1125" y="-13" font-family="Helvetica,sans-Serif" font-size="10.00">autodiff/forward/real.hpp</text>
</a>
</g>
</g>
<!-- Node1&#45;&gt;Node4 -->
<g id="edge47" class="edge">
<title>Node1&#45;&gt;Node4</title>
<path fill="none" stroke="midnightblue" d="M478.66,-302.41C523.86,-288.32 600,-255.66 600,-195.5 600,-195.5 600,-195.5 600,-132 600,-93.58 622.9,-84.72 657,-67 722.82,-32.8 930.6,-21.71 1045.93,-18.15"/>
<polygon fill="midnightblue" stroke="midnightblue" points="1046.22,-21.65 1056.11,-17.85 1046.01,-14.65 1046.22,-21.65"/>
</g>
<!-- Node5 -->
<g id="node5" class="node">
<title>Node5</title>
<g id="a_node5"><a xlink:title=" ">
<polygon fill="white" stroke="#bfbfbf" points="320,-6 320,-25 364,-25 364,-6 320,-6"/>
<text text-anchor="middle" x="342" y="-13" font-family="Helvetica,sans-Serif" font-size="10.00">string</text>
</a>
</g>
</g>
<!-- Node1&#45;&gt;Node5 -->
<g id="edge62" class="edge">
<title>Node1&#45;&gt;Node5</title>
<path fill="none" stroke="midnightblue" d="M413.34,-302.41C368.14,-288.32 292,-255.66 292,-195.5 292,-195.5 292,-195.5 292,-132 292,-94.5 314.47,-55.38 329.28,-33.66"/>
<polygon fill="midnightblue" stroke="midnightblue" points="332.33,-35.4 335.26,-25.22 326.62,-31.36 332.33,-35.4"/>
</g>
<!-- Node6 -->
<g id="node6" class="node">
<title>Node6</title>
<g id="a_node6"><a xlink:href="UserFilePath_8h.html" target="_top" xlink:title="File access utils.">
<polygon fill="white" stroke="black" points="178,-67.5 178,-86.5 264,-86.5 264,-67.5 178,-67.5"/>
<text text-anchor="middle" x="221" y="-74.5" font-family="Helvetica,sans-Serif" font-size="10.00">UserFilePath.h</text>
</a>
</g>
</g>
<!-- Node1&#45;&gt;Node6 -->
<g id="edge10" class="edge">
<title>Node1&#45;&gt;Node6</title>
<path fill="none" stroke="midnightblue" d="M375.34,-307.6C341.94,-302.47 303.82,-290.99 278,-266 230.03,-219.57 222.09,-134.22 221.01,-96.62"/>
<polygon fill="midnightblue" stroke="midnightblue" points="224.51,-96.53 220.86,-86.58 217.51,-96.63 224.51,-96.53"/>
</g>
<!-- Node8 -->
<g id="node8" class="node">
<title>Node8</title>
<g id="a_node8"><a xlink:title=" ">
<polygon fill="white" stroke="#bfbfbf" points="82,-6 82,-25 142,-25 142,-6 82,-6"/>
<text text-anchor="middle" x="112" y="-13" font-family="Helvetica,sans-Serif" font-size="10.00">iostream</text>
</a>
</g>
</g>
<!-- Node1&#45;&gt;Node8 -->
<g id="edge49" class="edge">
<title>Node1&#45;&gt;Node8</title>
<path fill="none" stroke="midnightblue" d="M375.33,-307.28C249.57,-298.72 0,-272.09 0,-195.5 0,-195.5 0,-195.5 0,-132 0,-101.9 0.1,-90.42 19,-67 33.31,-49.26 55.59,-36.86 74.75,-28.78"/>
<polygon fill="midnightblue" stroke="midnightblue" points="76.14,-32 84.14,-25.06 73.56,-25.49 76.14,-32"/>
</g>
<!-- Node10 -->
<g id="node10" class="node">
<title>Node10</title>
<g id="a_node10"><a xlink:href="Dynamics_8h.html" target="_top" xlink:title="Interface for Dynamics.">
<polygon fill="white" stroke="black" points="998,-185 998,-204 1150,-204 1150,-185 998,-185"/>
<text text-anchor="middle" x="1074" y="-192" font-family="Helvetica,sans-Serif" font-size="10.00">lupnt/dynamics/Dynamics.h</text>
</a>
</g>
</g>
<!-- Node1&#45;&gt;Node10 -->
<g id="edge11" class="edge">
<title>Node1&#45;&gt;Node10</title>
<path fill="none" stroke="midnightblue" d="M516.6,-302.77C581.42,-294.81 680.02,-281.66 765,-266 860.66,-248.37 971.55,-221.47 1031.02,-206.51"/>
<polygon fill="midnightblue" stroke="midnightblue" points="1031.97,-209.88 1040.81,-204.04 1030.26,-203.09 1031.97,-209.88"/>
</g>
<!-- Node13 -->
<g id="node13" class="node">
<title>Node13</title>
<g id="a_node13"><a xlink:title=" ">
<polygon fill="white" stroke="#bfbfbf" points="28.5,-67.5 28.5,-86.5 83.5,-86.5 83.5,-67.5 28.5,-67.5"/>
<text text-anchor="middle" x="56" y="-74.5" font-family="Helvetica,sans-Serif" font-size="10.00">fstream</text>
</a>
</g>
</g>
<!-- Node1&#45;&gt;Node13 -->
<g id="edge48" class="edge">
<title>Node1&#45;&gt;Node13</title>
<path fill="none" stroke="midnightblue" d="M375.45,-302.73C339.07,-296.35 294.91,-285.23 259,-266 174.68,-220.85 98.71,-132.19 69.12,-95.03"/>
<polygon fill="midnightblue" stroke="midnightblue" points="71.55,-92.45 62.62,-86.75 66.04,-96.78 71.55,-92.45"/>
</g>
<!-- Node27 -->
<g id="node27" class="node">
<title>Node27</title>
<g id="a_node27"><a xlink:href="LunarMeanOsc_8cpp.html" target="_top" xlink:title="Lunar Mean and Osculating Elements.">
<polygon fill="white" stroke="black" points="1431,-246.5 1431,-265.5 1607,-265.5 1607,-246.5 1431,-246.5"/>
<text text-anchor="middle" x="1519" y="-253.5" font-family="Helvetica,sans-Serif" font-size="10.00">lupnt/physics/LunarMeanOsc.cpp</text>
</a>
</g>
</g>
<!-- Node1&#45;&gt;Node27 -->
<g id="edge50" class="edge">
<title>Node1&#45;&gt;Node27</title>
<path fill="none" stroke="midnightblue" d="M516.82,-307.44C702.97,-298.07 1206.39,-272.73 1420.49,-261.96"/>
<polygon fill="midnightblue" stroke="midnightblue" points="1420.96,-265.44 1430.77,-261.44 1420.61,-258.45 1420.96,-265.44"/>
</g>
<!-- Node3 -->
<g id="node3" class="node">
<title>Node3</title>
<g id="a_node3"><a xlink:title=" ">
<polygon fill="white" stroke="#bfbfbf" points="894.5,-67.5 894.5,-86.5 1045.5,-86.5 1045.5,-67.5 894.5,-67.5"/>
<text text-anchor="middle" x="970" y="-74.5" font-family="Helvetica,sans-Serif" font-size="10.00">autodiff/common/eigen.hpp</text>
</a>
</g>
</g>
<!-- Node2&#45;&gt;Node3 -->
<g id="edge2" class="edge">
<title>Node2&#45;&gt;Node3</title>
<path fill="none" stroke="midnightblue" d="M881.87,-123.32C898.71,-114.66 924.81,-101.24 944.24,-91.25"/>
<polygon fill="midnightblue" stroke="midnightblue" points="945.88,-94.34 953.17,-86.65 942.68,-88.12 945.88,-94.34"/>
</g>
<!-- Node2&#45;&gt;Node4 -->
<g id="edge3" class="edge">
<title>Node2&#45;&gt;Node4</title>
<path fill="none" stroke="midnightblue" d="M865.18,-123.39C865.95,-109.39 869.61,-81.76 886,-67 909.35,-45.97 985.74,-32.37 1045.95,-24.64"/>
<polygon fill="midnightblue" stroke="midnightblue" points="1046.73,-28.07 1056.22,-23.35 1045.86,-21.12 1046.73,-28.07"/>
</g>
<!-- Node2&#45;&gt;Node5 -->
<g id="edge4" class="edge">
<title>Node2&#45;&gt;Node5</title>
<path fill="none" stroke="midnightblue" d="M851.37,-123.39C828.09,-109.12 778.73,-80.8 733,-67 603.93,-28.06 442.02,-19.15 374.2,-17.11"/>
<polygon fill="midnightblue" stroke="midnightblue" points="374.23,-13.61 364.14,-16.83 374.04,-20.6 374.23,-13.61"/>
</g>
<!-- Node2&#45;&gt;Node6 -->
<g id="edge5" class="edge">
<title>Node2&#45;&gt;Node6</title>
<path fill="none" stroke="midnightblue" d="M801.8,-123.93C798.83,-123.61 795.88,-123.29 793,-123 693.22,-112.84 396.46,-90.82 274.38,-81.88"/>
<polygon fill="midnightblue" stroke="midnightblue" points="274.38,-78.38 264.16,-81.14 273.87,-85.36 274.38,-78.38"/>
</g>
<!-- Node6&#45;&gt;Node5 -->
<g id="edge9" class="edge">
<title>Node6&#45;&gt;Node5</title>
<path fill="none" stroke="midnightblue" d="M238.34,-67.48C258.55,-57.53 292.19,-40.99 315.64,-29.46"/>
<polygon fill="midnightblue" stroke="midnightblue" points="317.27,-32.56 324.7,-25.01 314.18,-26.28 317.27,-32.56"/>
</g>
<!-- Node7 -->
<g id="node7" class="node">
<title>Node7</title>
<g id="a_node7"><a xlink:title=" ">
<polygon fill="white" stroke="#bfbfbf" points="234,-6 234,-25 302,-25 302,-6 234,-6"/>
<text text-anchor="middle" x="268" y="-13" font-family="Helvetica,sans-Serif" font-size="10.00">filesystem</text>
</a>
</g>
</g>
<!-- Node6&#45;&gt;Node7 -->
<g id="edge6" class="edge">
<title>Node6&#45;&gt;Node7</title>
<path fill="none" stroke="midnightblue" d="M227.73,-67.48C234.78,-58.55 246.03,-44.31 254.85,-33.14"/>
<polygon fill="midnightblue" stroke="midnightblue" points="257.83,-35.03 261.28,-25.01 252.33,-30.69 257.83,-35.03"/>
</g>
<!-- Node6&#45;&gt;Node8 -->
<g id="edge7" class="edge">
<title>Node6&#45;&gt;Node8</title>
<path fill="none" stroke="midnightblue" d="M205.38,-67.48C187.41,-57.67 157.68,-41.43 136.59,-29.92"/>
<polygon fill="midnightblue" stroke="midnightblue" points="138.04,-26.73 127.59,-25.01 134.69,-32.87 138.04,-26.73"/>
</g>
<!-- Node9 -->
<g id="node9" class="node">
<title>Node9</title>
<g id="a_node9"><a xlink:title=" ">
<polygon fill="white" stroke="#bfbfbf" points="160,-6 160,-25 216,-25 216,-6 160,-6"/>
<text text-anchor="middle" x="188" y="-13" font-family="Helvetica,sans-Serif" font-size="10.00">optional</text>
</a>
</g>
</g>
<!-- Node6&#45;&gt;Node9 -->
<g id="edge8" class="edge">
<title>Node6&#45;&gt;Node9</title>
<path fill="none" stroke="midnightblue" d="M216.27,-67.48C211.42,-58.73 203.73,-44.87 197.6,-33.81"/>
<polygon fill="midnightblue" stroke="midnightblue" points="200.63,-32.06 192.72,-25.01 194.51,-35.45 200.63,-32.06"/>
</g>
<!-- Node10&#45;&gt;Node4 -->
<g id="edge12" class="edge">
<title>Node10&#45;&gt;Node4</title>
<path fill="none" stroke="midnightblue" d="M1074.08,-184.91C1074.53,-164.03 1077.25,-109.24 1093,-67 1097.51,-54.91 1105.18,-42.66 1111.88,-33.25"/>
<polygon fill="midnightblue" stroke="midnightblue" points="1114.71,-35.31 1117.88,-25.2 1109.1,-31.13 1114.71,-35.31"/>
</g>
<!-- Node11 -->
<g id="node11" class="node">
<title>Node11</title>
<g id="a_node11"><a xlink:href="GravityField_8h.html" target="_top" xlink:title="Gravity field model and acceleration calculation.">
<polygon fill="white" stroke="black" points="386.5,-123.5 386.5,-142.5 549.5,-142.5 549.5,-123.5 386.5,-123.5"/>
<text text-anchor="middle" x="468" y="-130.5" font-family="Helvetica,sans-Serif" font-size="10.00">lupnt/dynamics/GravityField.h</text>
</a>
</g>
</g>
<!-- Node10&#45;&gt;Node11 -->
<g id="edge13" class="edge">
<title>Node10&#45;&gt;Node11</title>
<path fill="none" stroke="midnightblue" d="M997.86,-186.02C886.51,-175.09 679.51,-154.77 559.86,-143.02"/>
<polygon fill="midnightblue" stroke="midnightblue" points="559.92,-139.51 549.62,-142.01 559.23,-146.47 559.92,-139.51"/>
</g>
<!-- Node19 -->
<g id="node19" class="node">
<title>Node19</title>
<g id="a_node19"><a xlink:href="Propagator_8h.html" target="_top" xlink:title="Numerical Propagator.">
<polygon fill="white" stroke="black" points="628,-123.5 628,-142.5 784,-142.5 784,-123.5 628,-123.5"/>
<text text-anchor="middle" x="706" y="-130.5" font-family="Helvetica,sans-Serif" font-size="10.00">lupnt/dynamics/Propagator.h</text>
</a>
</g>
</g>
<!-- Node10&#45;&gt;Node19 -->
<g id="edge27" class="edge">
<title>Node10&#45;&gt;Node19</title>
<path fill="none" stroke="midnightblue" d="M1021.27,-184.98C954.6,-174.19 839.93,-155.65 768.8,-144.15"/>
<polygon fill="midnightblue" stroke="midnightblue" points="769.06,-140.65 758.63,-142.51 767.94,-147.56 769.06,-140.65"/>
</g>
<!-- Node21 -->
<g id="node21" class="node">
<title>Node21</title>
<g id="a_node21"><a xlink:href="Integrator_8h.html" target="_top" xlink:title="Integrator interfaces.">
<polygon fill="white" stroke="black" points="1101.5,-67.5 1101.5,-86.5 1250.5,-86.5 1250.5,-67.5 1101.5,-67.5"/>
<text text-anchor="middle" x="1176" y="-74.5" font-family="Helvetica,sans-Serif" font-size="10.00">lupnt/numerics/Integrator.h</text>
</a>
</g>
</g>
<!-- Node10&#45;&gt;Node21 -->
<g id="edge35" class="edge">
<title>Node10&#45;&gt;Node21</title>
<path fill="none" stroke="midnightblue" d="M1081.67,-184.82C1098.65,-165.59 1139.67,-119.14 1161.6,-94.31"/>
<polygon fill="midnightblue" stroke="midnightblue" points="1164.25,-96.59 1168.24,-86.78 1159,-91.96 1164.25,-96.59"/>
</g>
<!-- Node22 -->
<g id="node22" class="node">
<title>Node22</title>
<g id="a_node22"><a xlink:href="OrbitState_8h.html" target="_top" xlink:title="Orbit states.">
<polygon fill="white" stroke="black" points="1395.5,-123.5 1395.5,-142.5 1538.5,-142.5 1538.5,-123.5 1395.5,-123.5"/>
<text text-anchor="middle" x="1467" y="-130.5" font-family="Helvetica,sans-Serif" font-size="10.00">lupnt/physics/OrbitState.h</text>
</a>
</g>
</g>
<!-- Node10&#45;&gt;Node22 -->
<g id="edge36" class="edge">
<title>Node10&#45;&gt;Node22</title>
<path fill="none" stroke="midnightblue" d="M1130.31,-184.98C1201.81,-174.15 1324.98,-155.5 1400.87,-144.01"/>
<polygon fill="midnightblue" stroke="midnightblue" points="1401.43,-147.47 1410.8,-142.51 1400.39,-140.55 1401.43,-147.47"/>
</g>
<!-- Node26 -->
<g id="node26" class="node">
<title>Node26</title>
<g id="a_node26"><a xlink:href="State_8h.html" target="_top" xlink:title="SPICE Interface functions.">
<polygon fill="white" stroke="black" points="1268.5,-67.5 1268.5,-86.5 1319.5,-86.5 1319.5,-67.5 1268.5,-67.5"/>
<text text-anchor="middle" x="1294" y="-74.5" font-family="Helvetica,sans-Serif" font-size="10.00">State.h</text>
</a>
</g>
</g>
<!-- Node10&#45;&gt;Node26 -->
<g id="edge46" class="edge">
<title>Node10&#45;&gt;Node26</title>
<path fill="none" stroke="midnightblue" d="M1090.54,-184.82C1128.69,-164.79 1223.1,-115.22 1268.64,-91.32"/>
<polygon fill="midnightblue" stroke="midnightblue" points="1270.35,-94.37 1277.57,-86.62 1267.09,-88.17 1270.35,-94.37"/>
</g>
<!-- Node11&#45;&gt;Node4 -->
<g id="edge20" class="edge">
<title>Node11&#45;&gt;Node4</title>
<path fill="none" stroke="midnightblue" d="M483.5,-123.24C514.26,-105.89 580.52,-68.68 586,-67 669.85,-41.2 918.07,-26.17 1046.31,-19.93"/>
<polygon fill="midnightblue" stroke="midnightblue" points="1046.64,-23.42 1056.46,-19.44 1046.31,-16.42 1046.64,-23.42"/>
</g>
<!-- Node11&#45;&gt;Node5 -->
<g id="edge18" class="edge">
<title>Node11&#45;&gt;Node5</title>
<path fill="none" stroke="midnightblue" d="M409.84,-123.43C387.4,-117.1 363.65,-106.11 349,-87 337.8,-72.39 337.3,-50.77 338.82,-35.32"/>
<polygon fill="midnightblue" stroke="midnightblue" points="342.3,-35.74 340.16,-25.36 335.36,-34.8 342.3,-35.74"/>
</g>
<!-- Node11&#45;&gt;Node6 -->
<g id="edge22" class="edge">
<title>Node11&#45;&gt;Node6</title>
<path fill="none" stroke="midnightblue" d="M428.86,-123.44C385.77,-114.02 316.44,-98.87 269.83,-88.68"/>
<polygon fill="midnightblue" stroke="midnightblue" points="270.47,-85.23 259.95,-86.52 268.98,-92.07 270.47,-85.23"/>
</g>
<!-- Node11&#45;&gt;Node8 -->
<g id="edge16" class="edge">
<title>Node11&#45;&gt;Node8</title>
<path fill="none" stroke="midnightblue" d="M386.41,-130.56C300.65,-127.41 173.11,-117.54 136,-87 120.59,-74.31 115.04,-51.29 113.06,-35.01"/>
<polygon fill="midnightblue" stroke="midnightblue" points="116.54,-34.68 112.18,-25.03 109.57,-35.3 116.54,-34.68"/>
</g>
<!-- Node12 -->
<g id="node12" class="node">
<title>Node12</title>
<g id="a_node12"><a xlink:title=" ">
<polygon fill="white" stroke="#bfbfbf" points="358,-67.5 358,-86.5 422,-86.5 422,-67.5 358,-67.5"/>
<text text-anchor="middle" x="390" y="-74.5" font-family="Helvetica,sans-Serif" font-size="10.00">algorithm</text>
</a>
</g>
</g>
<!-- Node11&#45;&gt;Node12 -->
<g id="edge14" class="edge">
<title>Node11&#45;&gt;Node12</title>
<path fill="none" stroke="midnightblue" d="M455.47,-123.32C443.41,-114.98 424.97,-102.21 410.73,-92.35"/>
<polygon fill="midnightblue" stroke="midnightblue" points="412.72,-89.47 402.5,-86.65 408.73,-95.22 412.72,-89.47"/>
</g>
<!-- Node11&#45;&gt;Node13 -->
<g id="edge15" class="edge">
<title>Node11&#45;&gt;Node13</title>
<path fill="none" stroke="midnightblue" d="M386.5,-124.22C311.32,-116.54 196.76,-103.55 98,-87 96.72,-86.79 95.41,-86.56 94.1,-86.32"/>
<polygon fill="midnightblue" stroke="midnightblue" points="94.43,-82.82 83.95,-84.36 93.1,-89.69 94.43,-82.82"/>
</g>
<!-- Node14 -->
<g id="node14" class="node">
<title>Node14</title>
<g id="a_node14"><a xlink:title=" ">
<polygon fill="white" stroke="#bfbfbf" points="440,-67.5 440,-86.5 496,-86.5 496,-67.5 440,-67.5"/>
<text text-anchor="middle" x="468" y="-74.5" font-family="Helvetica,sans-Serif" font-size="10.00">sstream</text>
</a>
</g>
</g>
<!-- Node11&#45;&gt;Node14 -->
<g id="edge17" class="edge">
<title>Node11&#45;&gt;Node14</title>
<path fill="none" stroke="midnightblue" d="M468,-123.08C468,-116.01 468,-105.86 468,-96.99"/>
<polygon fill="midnightblue" stroke="midnightblue" points="471.5,-96.75 468,-86.75 464.5,-96.75 471.5,-96.75"/>
</g>
<!-- Node15 -->
<g id="node15" class="node">
<title>Node15</title>
<g id="a_node15"><a xlink:title=" ">
<polygon fill="white" stroke="#bfbfbf" points="745.5,-6 745.5,-25 792.5,-25 792.5,-6 745.5,-6"/>
<text text-anchor="middle" x="769" y="-13" font-family="Helvetica,sans-Serif" font-size="10.00">vector</text>
</a>
</g>
</g>
<!-- Node11&#45;&gt;Node15 -->
<g id="edge19" class="edge">
<title>Node11&#45;&gt;Node15</title>
<path fill="none" stroke="midnightblue" d="M475.96,-123.35C489.41,-109.29 518.08,-81.58 548,-67 609.9,-36.83 690.43,-24.31 735.2,-19.41"/>
<polygon fill="midnightblue" stroke="midnightblue" points="735.66,-22.88 745.25,-18.37 734.94,-15.92 735.66,-22.88"/>
</g>
<!-- Node16 -->
<g id="node16" class="node">
<title>Node16</title>
<g id="a_node16"><a xlink:title=" ">
<polygon fill="white" stroke="#bfbfbf" points="1324,-0.5 1324,-30.5 1440,-30.5 1440,-0.5 1324,-0.5"/>
<text text-anchor="start" x="1332" y="-18.5" font-family="Helvetica,sans-Serif" font-size="10.00">autodiff/forward/real</text>
<text text-anchor="middle" x="1382" y="-7.5" font-family="Helvetica,sans-Serif" font-size="10.00">/eigen.hpp</text>
</a>
</g>
</g>
<!-- Node11&#45;&gt;Node16 -->
<g id="edge21" class="edge">
<title>Node11&#45;&gt;Node16</title>
<path fill="none" stroke="midnightblue" d="M517.43,-123.45C595.52,-110.13 752.33,-84.18 886,-67 1038.41,-47.41 1217.97,-30.7 1313.72,-22.3"/>
<polygon fill="midnightblue" stroke="midnightblue" points="1314.19,-25.77 1323.85,-21.42 1313.58,-18.8 1314.19,-25.77"/>
</g>
<!-- Node17 -->
<g id="node17" class="node">
<title>Node17</title>
<g id="a_node17"><a xlink:href="MathUtils_8h.html" target="_top" xlink:title=" ">
<polygon fill="white" stroke="black" points="1779.5,-67.5 1779.5,-86.5 1928.5,-86.5 1928.5,-67.5 1779.5,-67.5"/>
<text text-anchor="middle" x="1854" y="-74.5" font-family="Helvetica,sans-Serif" font-size="10.00">lupnt/numerics/MathUtils.h</text>
</a>
</g>
</g>
<!-- Node11&#45;&gt;Node17 -->
<g id="edge23" class="edge">
<title>Node11&#45;&gt;Node17</title>
<path fill="none" stroke="midnightblue" d="M549.87,-126.71C572.28,-125.38 596.57,-124.03 619,-123 1113.85,-100.26 1238.33,-113.38 1733,-87 1744.75,-86.37 1757.13,-85.59 1769.31,-84.75"/>
<polygon fill="midnightblue" stroke="midnightblue" points="1769.75,-88.23 1779.48,-84.04 1769.26,-81.25 1769.75,-88.23"/>
</g>
<!-- Node17&#45;&gt;Node4 -->
<g id="edge24" class="edge">
<title>Node17&#45;&gt;Node4</title>
<path fill="none" stroke="midnightblue" d="M1779.12,-68.22C1774.68,-67.8 1770.28,-67.39 1766,-67 1711.37,-62.06 1362.74,-34.93 1203.79,-22.6"/>
<polygon fill="midnightblue" stroke="midnightblue" points="1203.84,-19.1 1193.6,-21.81 1203.3,-26.08 1203.84,-19.1"/>
</g>
<!-- Node17&#45;&gt;Node16 -->
<g id="edge25" class="edge">
<title>Node17&#45;&gt;Node16</title>
<path fill="none" stroke="midnightblue" d="M1786.37,-67.48C1696.91,-56.2 1540.08,-36.43 1450.29,-25.11"/>
<polygon fill="midnightblue" stroke="midnightblue" points="1450.57,-21.62 1440.21,-23.84 1449.69,-28.56 1450.57,-21.62"/>
</g>
<!-- Node18 -->
<g id="node18" class="node">
<title>Node18</title>
<g id="a_node18"><a xlink:title=" ">
<polygon fill="white" stroke="#bfbfbf" points="1827,-6 1827,-25 1881,-25 1881,-6 1827,-6"/>
<text text-anchor="middle" x="1854" y="-13" font-family="Helvetica,sans-Serif" font-size="10.00">random</text>
</a>
</g>
</g>
<!-- Node17&#45;&gt;Node18 -->
<g id="edge26" class="edge">
<title>Node17&#45;&gt;Node18</title>
<path fill="none" stroke="midnightblue" d="M1854,-67.48C1854,-59.08 1854,-45.98 1854,-35.16"/>
<polygon fill="midnightblue" stroke="midnightblue" points="1857.5,-35.01 1854,-25.01 1850.5,-35.01 1857.5,-35.01"/>
</g>
<!-- Node19&#45;&gt;Node4 -->
<g id="edge28" class="edge">
<title>Node19&#45;&gt;Node4</title>
<path fill="none" stroke="midnightblue" d="M724.07,-123.45C753.58,-109.77 814.24,-82.91 868,-67 930.13,-48.61 1002.72,-35.04 1054.88,-26.63"/>
<polygon fill="midnightblue" stroke="midnightblue" points="1055.7,-30.05 1065.03,-25.02 1054.6,-23.13 1055.7,-30.05"/>
</g>
<!-- Node19&#45;&gt;Node5 -->
<g id="edge31" class="edge">
<title>Node19&#45;&gt;Node5</title>
<path fill="none" stroke="midnightblue" d="M680.01,-123.48C641.74,-110.97 567.94,-86.92 505,-67 459.64,-52.64 407.03,-36.42 374.13,-26.33"/>
<polygon fill="midnightblue" stroke="midnightblue" points="374.76,-22.86 364.17,-23.27 372.71,-29.55 374.76,-22.86"/>
</g>
<!-- Node19&#45;&gt;Node8 -->
<g id="edge29" class="edge">
<title>Node19&#45;&gt;Node8</title>
<path fill="none" stroke="midnightblue" d="M627.78,-127.07C483.65,-117.75 188.93,-97.56 169,-87 146.91,-75.3 130.29,-50.98 120.85,-34.2"/>
<polygon fill="midnightblue" stroke="midnightblue" points="123.93,-32.53 116.14,-25.35 117.75,-35.82 123.93,-32.53"/>
</g>
<!-- Node20 -->
<g id="node20" class="node">
<title>Node20</title>
<g id="a_node20"><a xlink:title=" ">
<polygon fill="white" stroke="#bfbfbf" points="666,-67.5 666,-86.5 724,-86.5 724,-67.5 666,-67.5"/>
<text text-anchor="middle" x="695" y="-74.5" font-family="Helvetica,sans-Serif" font-size="10.00">memory</text>
</a>
</g>
</g>
<!-- Node19&#45;&gt;Node20 -->
<g id="edge30" class="edge">
<title>Node19&#45;&gt;Node20</title>
<path fill="none" stroke="midnightblue" d="M704.18,-123.08C702.73,-115.93 700.63,-105.64 698.81,-96.69"/>
<polygon fill="midnightblue" stroke="midnightblue" points="702.21,-95.85 696.78,-86.75 695.35,-97.25 702.21,-95.85"/>
</g>
<!-- Node19&#45;&gt;Node21 -->
<g id="edge32" class="edge">
<title>Node19&#45;&gt;Node21</title>
<path fill="none" stroke="midnightblue" d="M780.21,-123.47C864.9,-113.74 1003.11,-97.86 1091.76,-87.68"/>
<polygon fill="midnightblue" stroke="midnightblue" points="1092.25,-91.15 1101.79,-86.53 1091.45,-84.19 1092.25,-91.15"/>
</g>
<!-- Node21&#45;&gt;Node4 -->
<g id="edge33" class="edge">
<title>Node21&#45;&gt;Node4</title>
<path fill="none" stroke="midnightblue" d="M1168.69,-67.48C1160.97,-58.46 1148.59,-44.02 1138.98,-32.81"/>
<polygon fill="midnightblue" stroke="midnightblue" points="1141.46,-30.32 1132.29,-25.01 1136.14,-34.88 1141.46,-30.32"/>
</g>
<!-- Node21&#45;&gt;Node16 -->
<g id="edge34" class="edge">
<title>Node21&#45;&gt;Node16</title>
<path fill="none" stroke="midnightblue" d="M1205.51,-67.48C1236.15,-58.63 1284.89,-44.55 1323.39,-33.43"/>
<polygon fill="midnightblue" stroke="midnightblue" points="1324.81,-36.66 1333.45,-30.52 1322.87,-29.94 1324.81,-36.66"/>
</g>
<!-- Node22&#45;&gt;Node4 -->
<g id="edge38" class="edge">
<title>Node22&#45;&gt;Node4</title>
<path fill="none" stroke="midnightblue" d="M1447.52,-123.47C1427.47,-114.62 1395.37,-100.23 1368,-87 1350.46,-78.52 1347.24,-73.83 1329,-67 1280.86,-48.98 1223.92,-35.5 1182.45,-27.02"/>
<polygon fill="midnightblue" stroke="midnightblue" points="1183.01,-23.56 1172.52,-25.02 1181.64,-30.42 1183.01,-23.56"/>
</g>
<!-- Node22&#45;&gt;Node16 -->
<g id="edge39" class="edge">
<title>Node22&#45;&gt;Node16</title>
<path fill="none" stroke="midnightblue" d="M1466.71,-123.25C1465.89,-110.01 1462.77,-84.57 1451,-67 1442.69,-54.59 1430.26,-44.14 1418.23,-36.02"/>
<polygon fill="midnightblue" stroke="midnightblue" points="1419.92,-32.95 1409.6,-30.53 1416.15,-38.85 1419.92,-32.95"/>
</g>
<!-- Node23 -->
<g id="node23" class="node">
<title>Node23</title>
<g id="a_node23"><a xlink:title=" ">
<polygon fill="white" stroke="#bfbfbf" points="1646.5,-67.5 1646.5,-86.5 1723.5,-86.5 1723.5,-67.5 1646.5,-67.5"/>
<text text-anchor="middle" x="1685" y="-74.5" font-family="Helvetica,sans-Serif" font-size="10.00">Eigen/Dense</text>
</a>
</g>
</g>
<!-- Node22&#45;&gt;Node23 -->
<g id="edge37" class="edge">
<title>Node22&#45;&gt;Node23</title>
<path fill="none" stroke="midnightblue" d="M1501.54,-123.44C1539.25,-114.1 1599.74,-99.12 1640.86,-88.93"/>
<polygon fill="midnightblue" stroke="midnightblue" points="1641.75,-92.32 1650.62,-86.52 1640.07,-85.52 1641.75,-92.32"/>
</g>
<!-- Node24 -->
<g id="node24" class="node">
<title>Node24</title>
<g id="a_node24"><a xlink:title=" ">
<polygon fill="white" stroke="#bfbfbf" points="1498,-67.5 1498,-86.5 1628,-86.5 1628,-67.5 1498,-67.5"/>
<text text-anchor="middle" x="1563" y="-74.5" font-family="Helvetica,sans-Serif" font-size="10.00">boost/preprocessor.hpp</text>
</a>
</g>
</g>
<!-- Node22&#45;&gt;Node24 -->
<g id="edge40" class="edge">
<title>Node22&#45;&gt;Node24</title>
<path fill="none" stroke="midnightblue" d="M1482.42,-123.32C1497.54,-114.82 1520.82,-101.73 1538.47,-91.8"/>
<polygon fill="midnightblue" stroke="midnightblue" points="1540.61,-94.61 1547.61,-86.65 1537.18,-88.51 1540.61,-94.61"/>
</g>
<!-- Node25 -->
<g id="node25" class="node">
<title>Node25</title>
<g id="a_node25"><a xlink:title=" ">
<polygon fill="white" stroke="#bfbfbf" points="1376.5,-67.5 1376.5,-86.5 1441.5,-86.5 1441.5,-67.5 1376.5,-67.5"/>
<text text-anchor="middle" x="1409" y="-74.5" font-family="Helvetica,sans-Serif" font-size="10.00">stdexcept</text>
</a>
</g>
</g>
<!-- Node22&#45;&gt;Node25 -->
<g id="edge41" class="edge">
<title>Node22&#45;&gt;Node25</title>
<path fill="none" stroke="midnightblue" d="M1457.68,-123.32C1449.11,-115.34 1436.19,-103.31 1425.81,-93.65"/>
<polygon fill="midnightblue" stroke="midnightblue" points="1428.19,-91.09 1418.49,-86.83 1423.42,-96.21 1428.19,-91.09"/>
</g>
<!-- Node22&#45;&gt;Node26 -->
<g id="edge42" class="edge">
<title>Node22&#45;&gt;Node26</title>
<path fill="none" stroke="midnightblue" d="M1439.59,-123.44C1409.71,-114.12 1361.83,-99.17 1329.19,-88.99"/>
<polygon fill="midnightblue" stroke="midnightblue" points="1330.18,-85.63 1319.59,-85.99 1328.1,-92.31 1330.18,-85.63"/>
</g>
<!-- Node26&#45;&gt;Node4 -->
<g id="edge43" class="edge">
<title>Node26&#45;&gt;Node4</title>
<path fill="none" stroke="midnightblue" d="M1269.79,-67.48C1240.67,-57.22 1191.63,-39.96 1158.8,-28.4"/>
<polygon fill="midnightblue" stroke="midnightblue" points="1159.76,-25.03 1149.17,-25.01 1157.44,-31.63 1159.76,-25.03"/>
</g>
<!-- Node26&#45;&gt;Node15 -->
<g id="edge45" class="edge">
<title>Node26&#45;&gt;Node15</title>
<path fill="none" stroke="midnightblue" d="M1268.48,-68.79C1265.63,-68.12 1262.76,-67.5 1260,-67 1090.12,-35.98 883.44,-22.5 803.16,-18.17"/>
<polygon fill="midnightblue" stroke="midnightblue" points="802.86,-14.65 792.69,-17.62 802.49,-21.64 802.86,-14.65"/>
</g>
<!-- Node26&#45;&gt;Node16 -->
<g id="edge44" class="edge">
<title>Node26&#45;&gt;Node16</title>
<path fill="none" stroke="midnightblue" d="M1306.61,-67.48C1318.64,-59.34 1337.2,-46.79 1352.9,-36.18"/>
<polygon fill="midnightblue" stroke="midnightblue" points="1354.94,-39.02 1361.26,-30.52 1351.02,-33.22 1354.94,-39.02"/>
</g>
<!-- Node27&#45;&gt;Node2 -->
<g id="edge52" class="edge">
<title>Node27&#45;&gt;Node2</title>
<path fill="none" stroke="midnightblue" d="M1430.96,-252.44C1302.07,-247.85 1068.68,-236.16 989,-210 947.73,-196.45 905.94,-166.79 882.95,-148.79"/>
<polygon fill="midnightblue" stroke="midnightblue" points="885.1,-146.03 875.11,-142.52 880.73,-151.5 885.1,-146.03"/>
</g>
<!-- Node27&#45;&gt;Node17 -->
<g id="edge53" class="edge">
<title>Node27&#45;&gt;Node17</title>
<path fill="none" stroke="midnightblue" d="M1546.07,-246.49C1571.51,-238.18 1610.43,-224.68 1643,-210 1699.75,-184.42 1713.51,-176.46 1766,-143 1790.69,-127.26 1817.55,-106.91 1835.01,-93.21"/>
<polygon fill="midnightblue" stroke="midnightblue" points="1837.56,-95.66 1843.23,-86.71 1833.22,-90.17 1837.56,-95.66"/>
</g>
<!-- Node27&#45;&gt;Node22 -->
<g id="edge54" class="edge">
<title>Node27&#45;&gt;Node22</title>
<path fill="none" stroke="midnightblue" d="M1512.74,-246.4C1506.55,-237.61 1497.15,-223.37 1491,-210 1482.34,-191.19 1475.61,-168.39 1471.5,-152.7"/>
<polygon fill="midnightblue" stroke="midnightblue" points="1474.82,-151.54 1468.99,-142.7 1468.03,-153.25 1474.82,-151.54"/>
</g>
<!-- Node28 -->
<g id="node28" class="node">
<title>Node28</title>
<g id="a_node28"><a xlink:title=" ">
<polygon fill="white" stroke="#bfbfbf" points="1818,-185 1818,-204 1860,-204 1860,-185 1818,-185"/>
<text text-anchor="middle" x="1839" y="-192" font-family="Helvetica,sans-Serif" font-size="10.00">array</text>
</a>
</g>
</g>
<!-- Node27&#45;&gt;Node28 -->
<g id="edge51" class="edge">
<title>Node27&#45;&gt;Node28</title>
<path fill="none" stroke="midnightblue" d="M1607.15,-246.52C1664.05,-239.73 1739.27,-228.24 1804,-210 1806.44,-209.31 1808.93,-208.5 1811.41,-207.63"/>
<polygon fill="midnightblue" stroke="midnightblue" points="1812.7,-210.88 1820.76,-204.01 1810.17,-204.36 1812.7,-210.88"/>
</g>
<!-- Node29 -->
<g id="node29" class="node">
<title>Node29</title>
<g id="a_node29"><a xlink:href="OrbitStateUtils_8h.html" target="_top" xlink:title="Util functions for state conversions.">
<polygon fill="white" stroke="black" points="1500,-179.5 1500,-209.5 1634,-209.5 1634,-179.5 1500,-179.5"/>
<text text-anchor="start" x="1508" y="-197.5" font-family="Helvetica,sans-Serif" font-size="10.00">lupnt/physics/OrbitState</text>
<text text-anchor="middle" x="1567" y="-186.5" font-family="Helvetica,sans-Serif" font-size="10.00">Utils.h</text>
</a>
</g>
</g>
<!-- Node27&#45;&gt;Node29 -->
<g id="edge55" class="edge">
<title>Node27&#45;&gt;Node29</title>
<path fill="none" stroke="midnightblue" d="M1525.88,-246.48C1531.95,-238.94 1541.08,-227.63 1549.2,-217.57"/>
<polygon fill="midnightblue" stroke="midnightblue" points="1552.13,-219.5 1555.69,-209.52 1546.68,-215.11 1552.13,-219.5"/>
</g>
<!-- Node29&#45;&gt;Node2 -->
<g id="edge56" class="edge">
<title>Node29&#45;&gt;Node2</title>
<path fill="none" stroke="midnightblue" d="M1499.69,-187.79C1367.45,-176.59 1074.73,-151.78 938.01,-140.19"/>
<polygon fill="midnightblue" stroke="midnightblue" points="938.31,-136.7 928.05,-139.34 937.71,-143.68 938.31,-136.7"/>
</g>
<!-- Node29&#45;&gt;Node4 -->
<g id="edge59" class="edge">
<title>Node29&#45;&gt;Node4</title>
<path fill="none" stroke="midnightblue" d="M1613.62,-179.45C1676.88,-158.15 1777.23,-115.06 1733,-67 1730.78,-64.59 1367.46,-35.63 1203.59,-22.69"/>
<polygon fill="midnightblue" stroke="midnightblue" points="1203.8,-19.19 1193.56,-21.89 1203.25,-26.17 1203.8,-19.19"/>
</g>
<!-- Node29&#45;&gt;Node16 -->
<g id="edge60" class="edge">
<title>Node29&#45;&gt;Node16</title>
<path fill="none" stroke="midnightblue" d="M1634.4,-192.1C1764.04,-187.21 2027.72,-165.24 1938,-67 1905.7,-31.63 1591.76,-20.77 1450.39,-17.66"/>
<polygon fill="midnightblue" stroke="midnightblue" points="1450.18,-14.16 1440.11,-17.44 1450.04,-21.15 1450.18,-14.16"/>
</g>
<!-- Node29&#45;&gt;Node22 -->
<g id="edge57" class="edge">
<title>Node29&#45;&gt;Node22</title>
<path fill="none" stroke="midnightblue" d="M1543.3,-179.4C1527.27,-169.86 1506.2,-157.32 1490.26,-147.84"/>
<polygon fill="midnightblue" stroke="midnightblue" points="1491.93,-144.76 1481.55,-142.66 1488.36,-150.78 1491.93,-144.76"/>
</g>
<!-- Node29&#45;&gt;Node23 -->
<g id="edge58" class="edge">
<title>Node29&#45;&gt;Node23</title>
<path fill="none" stroke="midnightblue" d="M1581.47,-179.34C1603.6,-157.68 1645.71,-116.45 1668.82,-93.83"/>
<polygon fill="midnightblue" stroke="midnightblue" points="1671.44,-96.17 1676.14,-86.67 1666.55,-91.16 1671.44,-96.17"/>
</g>
<!-- Node29&#45;&gt;Node24 -->
<g id="edge61" class="edge">
<title>Node29&#45;&gt;Node24</title>
<path fill="none" stroke="midnightblue" d="M1566.51,-179.34C1565.79,-158.62 1564.46,-120.02 1563.65,-96.9"/>
<polygon fill="midnightblue" stroke="midnightblue" points="1567.14,-96.54 1563.3,-86.67 1560.15,-96.78 1567.14,-96.54"/>
</g>
</g>
</svg>
