<?xml version="1.0" encoding="UTF-8" standalone="no"?>
<!DOCTYPE svg PUBLIC "-//W3C//DTD SVG 1.1//EN"
 "http://www.w3.org/Graphics/SVG/1.1/DTD/svg11.dtd">
<!-- Generated by graphviz version 2.43.0 (0)
 -->
<!-- Title: ExampleScheduler.cpp Pages: 1 -->
<svg width="566pt" height="196pt"
 viewBox="0.00 0.00 566.00 196.00" xmlns="http://www.w3.org/2000/svg" xmlns:xlink="http://www.w3.org/1999/xlink">
<g id="graph0" class="graph" transform="scale(1 1) rotate(0) translate(4 192)">
<title>ExampleScheduler.cpp</title>
<polygon fill="white" stroke="transparent" points="-4,4 -4,-192 562,-192 562,4 -4,4"/>
<!-- Node1 -->
<g id="node1" class="node">
<title>Node1</title>
<g id="a_node1"><a xlink:title="Example of using the Scheduler class.">
<polygon fill="#bfbfbf" stroke="black" points="204,-168.5 204,-187.5 331,-187.5 331,-168.5 204,-168.5"/>
<text text-anchor="middle" x="267.5" y="-175.5" font-family="Helvetica,sans-Serif" font-size="10.00">ExampleScheduler.cpp</text>
</a>
</g>
</g>
<!-- Node2 -->
<g id="node2" class="node">
<title>Node2</title>
<g id="a_node2"><a xlink:href="Event_8h.html" target="_top" xlink:title="Event class.">
<polygon fill="white" stroke="black" points="19,-56.5 19,-75.5 124,-75.5 124,-56.5 19,-56.5"/>
<text text-anchor="middle" x="71.5" y="-63.5" font-family="Helvetica,sans-Serif" font-size="10.00">lupnt/core/Event.h</text>
</a>
</g>
</g>
<!-- Node1&#45;&gt;Node2 -->
<g id="edge1" class="edge">
<title>Node1&#45;&gt;Node2</title>
<path fill="none" stroke="midnightblue" d="M252.12,-168.37C218.13,-149.29 136.4,-103.42 95.56,-80.51"/>
<polygon fill="midnightblue" stroke="midnightblue" points="97.24,-77.43 86.81,-75.59 93.82,-83.54 97.24,-77.43"/>
</g>
<!-- Node3 -->
<g id="node3" class="node">
<title>Node3</title>
<g id="a_node3"><a xlink:title=" ">
<polygon fill="white" stroke="#bfbfbf" points="0,-0.5 0,-19.5 65,-19.5 65,-0.5 0,-0.5"/>
<text text-anchor="middle" x="32.5" y="-7.5" font-family="Helvetica,sans-Serif" font-size="10.00">functional</text>
</a>
</g>
</g>
<!-- Node1&#45;&gt;Node3 -->
<g id="edge14" class="edge">
<title>Node1&#45;&gt;Node3</title>
<path fill="none" stroke="midnightblue" d="M203.75,-171.91C142.3,-163.22 52.5,-139.68 9.5,-76 -0.5,-61.19 8.99,-41.55 18.63,-27.74"/>
<polygon fill="midnightblue" stroke="midnightblue" points="21.53,-29.71 24.79,-19.63 15.96,-25.48 21.53,-29.71"/>
</g>
<!-- Node6 -->
<g id="node6" class="node">
<title>Node6</title>
<g id="a_node6"><a xlink:href="Scheduler_8h.html" target="_top" xlink:title="Event scheduler class.">
<polygon fill="white" stroke="black" points="205,-112.5 205,-131.5 330,-131.5 330,-112.5 205,-112.5"/>
<text text-anchor="middle" x="267.5" y="-119.5" font-family="Helvetica,sans-Serif" font-size="10.00">lupnt/core/Scheduler.h</text>
</a>
</g>
</g>
<!-- Node1&#45;&gt;Node6 -->
<g id="edge5" class="edge">
<title>Node1&#45;&gt;Node6</title>
<path fill="none" stroke="midnightblue" d="M267.5,-168.08C267.5,-161.01 267.5,-150.86 267.5,-141.99"/>
<polygon fill="midnightblue" stroke="midnightblue" points="271,-141.75 267.5,-131.75 264,-141.75 271,-141.75"/>
</g>
<!-- Node8 -->
<g id="node8" class="node">
<title>Node8</title>
<g id="a_node8"><a xlink:title=" ">
<polygon fill="white" stroke="#bfbfbf" points="511,-56.5 511,-75.5 558,-75.5 558,-56.5 511,-56.5"/>
<text text-anchor="middle" x="534.5" y="-63.5" font-family="Helvetica,sans-Serif" font-size="10.00">queue</text>
</a>
</g>
</g>
<!-- Node1&#45;&gt;Node8 -->
<g id="edge16" class="edge">
<title>Node1&#45;&gt;Node8</title>
<path fill="none" stroke="midnightblue" d="M281.02,-168.42C305.84,-152.77 357.94,-120.42 377.5,-112 380.41,-110.75 455.98,-89.25 501.2,-76.43"/>
<polygon fill="midnightblue" stroke="midnightblue" points="502.22,-79.78 510.89,-73.68 500.32,-73.04 502.22,-79.78"/>
</g>
<!-- Node11 -->
<g id="node11" class="node">
<title>Node11</title>
<g id="a_node11"><a xlink:title=" ">
<polygon fill="white" stroke="#bfbfbf" points="386.5,-112.5 386.5,-131.5 446.5,-131.5 446.5,-112.5 386.5,-112.5"/>
<text text-anchor="middle" x="416.5" y="-119.5" font-family="Helvetica,sans-Serif" font-size="10.00">iostream</text>
</a>
</g>
</g>
<!-- Node1&#45;&gt;Node11 -->
<g id="edge15" class="edge">
<title>Node1&#45;&gt;Node11</title>
<path fill="none" stroke="midnightblue" d="M291.11,-168.44C315.96,-159.44 355.27,-145.19 383.25,-135.05"/>
<polygon fill="midnightblue" stroke="midnightblue" points="384.79,-138.21 393,-131.52 382.41,-131.63 384.79,-138.21"/>
</g>
<!-- Node2&#45;&gt;Node3 -->
<g id="edge2" class="edge">
<title>Node2&#45;&gt;Node3</title>
<path fill="none" stroke="midnightblue" d="M65.06,-56.08C59.55,-48.46 51.47,-37.26 44.74,-27.94"/>
<polygon fill="midnightblue" stroke="midnightblue" points="47.51,-25.81 38.82,-19.75 41.84,-29.91 47.51,-25.81"/>
</g>
<!-- Node4 -->
<g id="node4" class="node">
<title>Node4</title>
<g id="a_node4"><a xlink:title=" ">
<polygon fill="white" stroke="#bfbfbf" points="87.5,-0.5 87.5,-19.5 131.5,-19.5 131.5,-0.5 87.5,-0.5"/>
<text text-anchor="middle" x="109.5" y="-7.5" font-family="Helvetica,sans-Serif" font-size="10.00">limits</text>
</a>
</g>
</g>
<!-- Node2&#45;&gt;Node4 -->
<g id="edge3" class="edge">
<title>Node2&#45;&gt;Node4</title>
<path fill="none" stroke="midnightblue" d="M77.77,-56.08C83.14,-48.46 91.02,-37.26 97.58,-27.94"/>
<polygon fill="midnightblue" stroke="midnightblue" points="100.45,-29.94 103.34,-19.75 94.72,-25.91 100.45,-29.94"/>
</g>
<!-- Node5 -->
<g id="node5" class="node">
<title>Node5</title>
<g id="a_node5"><a xlink:title=" ">
<polygon fill="white" stroke="#bfbfbf" points="288.5,-0.5 288.5,-19.5 346.5,-19.5 346.5,-0.5 288.5,-0.5"/>
<text text-anchor="middle" x="317.5" y="-7.5" font-family="Helvetica,sans-Serif" font-size="10.00">memory</text>
</a>
</g>
</g>
<!-- Node2&#45;&gt;Node5 -->
<g id="edge4" class="edge">
<title>Node2&#45;&gt;Node5</title>
<path fill="none" stroke="midnightblue" d="M110.48,-56.44C156.45,-46.35 232.42,-29.68 278.43,-19.58"/>
<polygon fill="midnightblue" stroke="midnightblue" points="279.32,-22.97 288.33,-17.4 277.81,-16.13 279.32,-22.97"/>
</g>
<!-- Node6&#45;&gt;Node2 -->
<g id="edge13" class="edge">
<title>Node6&#45;&gt;Node2</title>
<path fill="none" stroke="midnightblue" d="M236.44,-112.44C202.9,-103.2 149.3,-88.44 112.36,-78.26"/>
<polygon fill="midnightblue" stroke="midnightblue" points="112.98,-74.8 102.41,-75.52 111.12,-81.55 112.98,-74.8"/>
</g>
<!-- Node6&#45;&gt;Node4 -->
<g id="edge7" class="edge">
<title>Node6&#45;&gt;Node4</title>
<path fill="none" stroke="midnightblue" d="M259.53,-112.18C247.18,-98.86 222.23,-73.3 197.5,-56 179.23,-43.22 156.84,-31.82 139.21,-23.69"/>
<polygon fill="midnightblue" stroke="midnightblue" points="140.52,-20.44 129.97,-19.52 137.65,-26.82 140.52,-20.44"/>
</g>
<!-- Node6&#45;&gt;Node5 -->
<g id="edge8" class="edge">
<title>Node6&#45;&gt;Node5</title>
<path fill="none" stroke="midnightblue" d="M330.02,-115.19C355.58,-109.38 382.78,-98.02 398.5,-76 414.55,-53.52 382.39,-34.67 353.97,-23.15"/>
<polygon fill="midnightblue" stroke="midnightblue" points="355.14,-19.85 344.55,-19.54 352.63,-26.39 355.14,-19.85"/>
</g>
<!-- Node7 -->
<g id="node7" class="node">
<title>Node7</title>
<g id="a_node7"><a xlink:title=" ">
<polygon fill="white" stroke="#bfbfbf" points="446,-56.5 446,-75.5 493,-75.5 493,-56.5 446,-56.5"/>
<text text-anchor="middle" x="469.5" y="-63.5" font-family="Helvetica,sans-Serif" font-size="10.00">cmath</text>
</a>
</g>
</g>
<!-- Node6&#45;&gt;Node7 -->
<g id="edge6" class="edge">
<title>Node6&#45;&gt;Node7</title>
<path fill="none" stroke="midnightblue" d="M299.51,-112.44C336.72,-102.49 397.88,-86.15 435.81,-76.01"/>
<polygon fill="midnightblue" stroke="midnightblue" points="437.09,-79.29 445.85,-73.32 435.28,-72.52 437.09,-79.29"/>
</g>
<!-- Node6&#45;&gt;Node8 -->
<g id="edge9" class="edge">
<title>Node6&#45;&gt;Node8</title>
<path fill="none" stroke="midnightblue" d="M318.65,-112.5C364.19,-104.64 432.82,-92.08 500.78,-76.27"/>
<polygon fill="midnightblue" stroke="midnightblue" points="501.86,-79.61 510.79,-73.91 500.26,-72.79 501.86,-79.61"/>
</g>
<!-- Node9 -->
<g id="node9" class="node">
<title>Node9</title>
<g id="a_node9"><a xlink:title=" ">
<polygon fill="white" stroke="#bfbfbf" points="142,-56.5 142,-75.5 189,-75.5 189,-56.5 142,-56.5"/>
<text text-anchor="middle" x="165.5" y="-63.5" font-family="Helvetica,sans-Serif" font-size="10.00">vector</text>
</a>
</g>
</g>
<!-- Node6&#45;&gt;Node9 -->
<g id="edge10" class="edge">
<title>Node6&#45;&gt;Node9</title>
<path fill="none" stroke="midnightblue" d="M251.11,-112.32C234.83,-103.7 209.63,-90.36 190.78,-80.39"/>
<polygon fill="midnightblue" stroke="midnightblue" points="192.32,-77.24 181.85,-75.65 189.05,-83.43 192.32,-77.24"/>
</g>
<!-- Node10 -->
<g id="node10" class="node">
<title>Node10</title>
<g id="a_node10"><a xlink:href="Application_8h.html" target="_top" xlink:title="Base class for Application.">
<polygon fill="white" stroke="black" points="245.5,-56.5 245.5,-75.5 389.5,-75.5 389.5,-56.5 245.5,-56.5"/>
<text text-anchor="middle" x="317.5" y="-63.5" font-family="Helvetica,sans-Serif" font-size="10.00">lupnt/agents/Application.h</text>
</a>
</g>
</g>
<!-- Node6&#45;&gt;Node10 -->
<g id="edge11" class="edge">
<title>Node6&#45;&gt;Node10</title>
<path fill="none" stroke="midnightblue" d="M275.76,-112.08C282.96,-104.3 293.61,-92.8 302.35,-83.37"/>
<polygon fill="midnightblue" stroke="midnightblue" points="305.17,-85.47 309.4,-75.75 300.03,-80.71 305.17,-85.47"/>
</g>
<!-- Node10&#45;&gt;Node5 -->
<g id="edge12" class="edge">
<title>Node10&#45;&gt;Node5</title>
<path fill="none" stroke="midnightblue" d="M317.5,-56.08C317.5,-49.01 317.5,-38.86 317.5,-29.99"/>
<polygon fill="midnightblue" stroke="midnightblue" points="321,-29.75 317.5,-19.75 314,-29.75 321,-29.75"/>
</g>
</g>
</svg>
