<?xml version="1.0" encoding="UTF-8" standalone="no"?>
<!DOCTYPE svg PUBLIC "-//W3C//DTD SVG 1.1//EN"
 "http://www.w3.org/Graphics/SVG/1.1/DTD/svg11.dtd">
<!-- Generated by graphviz version 2.43.0 (0)
 -->
<!-- Title: ExampleSpice.cpp Pages: 1 -->
<svg width="621pt" height="263pt"
 viewBox="0.00 0.00 621.21 263.00" xmlns="http://www.w3.org/2000/svg" xmlns:xlink="http://www.w3.org/1999/xlink">
<g id="graph0" class="graph" transform="scale(1 1) rotate(0) translate(4 259)">
<title>ExampleSpice.cpp</title>
<polygon fill="white" stroke="transparent" points="-4,4 -4,-259 617.21,-259 617.21,4 -4,4"/>
<!-- Node1 -->
<g id="node1" class="node">
<title>Node1</title>
<g id="a_node1"><a xlink:title="Example of using the SpiceInterface class.">
<polygon fill="#bfbfbf" stroke="black" points="278.71,-235.5 278.71,-254.5 384.71,-254.5 384.71,-235.5 278.71,-235.5"/>
<text text-anchor="middle" x="331.71" y="-242.5" font-family="Helvetica,sans-Serif" font-size="10.00">ExampleSpice.cpp</text>
</a>
</g>
</g>
<!-- Node2 -->
<g id="node2" class="node">
<title>Node2</title>
<g id="a_node2"><a xlink:href="Constants_8h.html" target="_top" xlink:title="List of constants.">
<polygon fill="white" stroke="black" points="131.71,-118 131.71,-137 257.71,-137 257.71,-118 131.71,-118"/>
<text text-anchor="middle" x="194.71" y="-125" font-family="Helvetica,sans-Serif" font-size="10.00">lupnt/core/Constants.h</text>
</a>
</g>
</g>
<!-- Node1&#45;&gt;Node2 -->
<g id="edge1" class="edge">
<title>Node1&#45;&gt;Node2</title>
<path fill="none" stroke="midnightblue" d="M305.59,-235.37C286.11,-227.98 259.69,-215.85 240.71,-199 224.03,-184.2 210.89,-162 203,-146.47"/>
<polygon fill="midnightblue" stroke="midnightblue" points="206.1,-144.85 198.58,-137.38 199.8,-147.91 206.1,-144.85"/>
</g>
<!-- Node5 -->
<g id="node5" class="node">
<title>Node5</title>
<g id="a_node5"><a xlink:title=" ">
<polygon fill="white" stroke="#bfbfbf" points="169.71,-0.5 169.71,-19.5 213.71,-19.5 213.71,-0.5 169.71,-0.5"/>
<text text-anchor="middle" x="191.71" y="-7.5" font-family="Helvetica,sans-Serif" font-size="10.00">string</text>
</a>
</g>
</g>
<!-- Node1&#45;&gt;Node5 -->
<g id="edge17" class="edge">
<title>Node1&#45;&gt;Node5</title>
<path fill="none" stroke="midnightblue" d="M281.87,-235.46C206.01,-219.45 64.22,-176.94 5.71,-76 -27.78,-18.23 97.95,-10.77 159.56,-10.48"/>
<polygon fill="midnightblue" stroke="midnightblue" points="159.56,-13.98 169.56,-10.5 159.57,-6.98 159.56,-13.98"/>
</g>
<!-- Node8 -->
<g id="node8" class="node">
<title>Node8</title>
<g id="a_node8"><a xlink:title=" ">
<polygon fill="white" stroke="#bfbfbf" points="445.71,-0.5 445.71,-19.5 505.71,-19.5 505.71,-0.5 445.71,-0.5"/>
<text text-anchor="middle" x="475.71" y="-7.5" font-family="Helvetica,sans-Serif" font-size="10.00">iostream</text>
</a>
</g>
</g>
<!-- Node1&#45;&gt;Node8 -->
<g id="edge16" class="edge">
<title>Node1&#45;&gt;Node8</title>
<path fill="none" stroke="midnightblue" d="M368.81,-235.44C412.07,-223.22 481.38,-196.1 510.71,-143 531.63,-105.11 504.91,-54.12 487.86,-27.99"/>
<polygon fill="midnightblue" stroke="midnightblue" points="490.64,-25.86 482.12,-19.56 484.85,-29.8 490.64,-25.86"/>
</g>
<!-- Node10 -->
<g id="node10" class="node">
<title>Node10</title>
<g id="a_node10"><a xlink:href="SpiceInterface_8h.html" target="_top" xlink:title="SPICE Interface functions.">
<polygon fill="white" stroke="black" points="250.21,-179.5 250.21,-198.5 413.21,-198.5 413.21,-179.5 250.21,-179.5"/>
<text text-anchor="middle" x="331.71" y="-186.5" font-family="Helvetica,sans-Serif" font-size="10.00">lupnt/physics/SpiceInterface.h</text>
</a>
</g>
</g>
<!-- Node1&#45;&gt;Node10 -->
<g id="edge10" class="edge">
<title>Node1&#45;&gt;Node10</title>
<path fill="none" stroke="midnightblue" d="M331.71,-235.08C331.71,-228.01 331.71,-217.86 331.71,-208.99"/>
<polygon fill="midnightblue" stroke="midnightblue" points="335.21,-208.75 331.71,-198.75 328.21,-208.75 335.21,-208.75"/>
</g>
<!-- Node13 -->
<g id="node13" class="node">
<title>Node13</title>
<g id="a_node13"><a xlink:title=" ">
<polygon fill="white" stroke="#bfbfbf" points="558.21,-179.5 558.21,-198.5 613.21,-198.5 613.21,-179.5 558.21,-179.5"/>
<text text-anchor="middle" x="585.71" y="-186.5" font-family="Helvetica,sans-Serif" font-size="10.00">fstream</text>
</a>
</g>
</g>
<!-- Node1&#45;&gt;Node13 -->
<g id="edge15" class="edge">
<title>Node1&#45;&gt;Node13</title>
<path fill="none" stroke="midnightblue" d="M371.96,-235.48C414.61,-226.45 483.91,-211.75 543.71,-199 545.17,-198.69 546.65,-198.37 548.16,-198.05"/>
<polygon fill="midnightblue" stroke="midnightblue" points="549.1,-201.43 558.15,-195.91 547.64,-194.58 549.1,-201.43"/>
</g>
<!-- Node3 -->
<g id="node3" class="node">
<title>Node3</title>
<g id="a_node3"><a xlink:title=" ">
<polygon fill="white" stroke="#bfbfbf" points="15.21,-56.5 15.21,-75.5 166.21,-75.5 166.21,-56.5 15.21,-56.5"/>
<text text-anchor="middle" x="90.71" y="-63.5" font-family="Helvetica,sans-Serif" font-size="10.00">autodiff/common/eigen.hpp</text>
</a>
</g>
</g>
<!-- Node2&#45;&gt;Node3 -->
<g id="edge2" class="edge">
<title>Node2&#45;&gt;Node3</title>
<path fill="none" stroke="midnightblue" d="M179.81,-117.98C162.74,-108.21 134.55,-92.08 114.45,-80.58"/>
<polygon fill="midnightblue" stroke="midnightblue" points="116,-77.44 105.58,-75.51 112.52,-83.51 116,-77.44"/>
</g>
<!-- Node4 -->
<g id="node4" class="node">
<title>Node4</title>
<g id="a_node4"><a xlink:title=" ">
<polygon fill="white" stroke="#bfbfbf" points="327.21,-56.5 327.21,-75.5 464.21,-75.5 464.21,-56.5 327.21,-56.5"/>
<text text-anchor="middle" x="395.71" y="-63.5" font-family="Helvetica,sans-Serif" font-size="10.00">autodiff/forward/real.hpp</text>
</a>
</g>
</g>
<!-- Node2&#45;&gt;Node4 -->
<g id="edge3" class="edge">
<title>Node2&#45;&gt;Node4</title>
<path fill="none" stroke="midnightblue" d="M223.51,-117.98C258.58,-107.59 317.97,-90.01 357.01,-78.45"/>
<polygon fill="midnightblue" stroke="midnightblue" points="358.37,-81.7 366.96,-75.51 356.38,-74.99 358.37,-81.7"/>
</g>
<!-- Node2&#45;&gt;Node5 -->
<g id="edge4" class="edge">
<title>Node2&#45;&gt;Node5</title>
<path fill="none" stroke="midnightblue" d="M194.48,-117.82C194,-99.26 192.86,-55.34 192.2,-29.97"/>
<polygon fill="midnightblue" stroke="midnightblue" points="195.69,-29.69 191.94,-19.78 188.7,-29.87 195.69,-29.69"/>
</g>
<!-- Node6 -->
<g id="node6" class="node">
<title>Node6</title>
<g id="a_node6"><a xlink:href="UserFilePath_8h.html" target="_top" xlink:title="File access utils.">
<polygon fill="white" stroke="black" points="222.71,-56.5 222.71,-75.5 308.71,-75.5 308.71,-56.5 222.71,-56.5"/>
<text text-anchor="middle" x="265.71" y="-63.5" font-family="Helvetica,sans-Serif" font-size="10.00">UserFilePath.h</text>
</a>
</g>
</g>
<!-- Node2&#45;&gt;Node6 -->
<g id="edge5" class="edge">
<title>Node2&#45;&gt;Node6</title>
<path fill="none" stroke="midnightblue" d="M204.88,-117.98C216.06,-108.61 234.22,-93.38 247.8,-82.01"/>
<polygon fill="midnightblue" stroke="midnightblue" points="250.14,-84.61 255.55,-75.51 245.64,-79.25 250.14,-84.61"/>
</g>
<!-- Node6&#45;&gt;Node5 -->
<g id="edge9" class="edge">
<title>Node6&#45;&gt;Node5</title>
<path fill="none" stroke="midnightblue" d="M253.82,-56.32C242.56,-48.11 225.42,-35.6 212,-25.81"/>
<polygon fill="midnightblue" stroke="midnightblue" points="213.95,-22.9 203.81,-19.83 209.83,-28.56 213.95,-22.9"/>
</g>
<!-- Node7 -->
<g id="node7" class="node">
<title>Node7</title>
<g id="a_node7"><a xlink:title=" ">
<polygon fill="white" stroke="#bfbfbf" points="231.71,-0.5 231.71,-19.5 299.71,-19.5 299.71,-0.5 231.71,-0.5"/>
<text text-anchor="middle" x="265.71" y="-7.5" font-family="Helvetica,sans-Serif" font-size="10.00">filesystem</text>
</a>
</g>
</g>
<!-- Node6&#45;&gt;Node7 -->
<g id="edge6" class="edge">
<title>Node6&#45;&gt;Node7</title>
<path fill="none" stroke="midnightblue" d="M265.71,-56.08C265.71,-49.01 265.71,-38.86 265.71,-29.99"/>
<polygon fill="midnightblue" stroke="midnightblue" points="269.21,-29.75 265.71,-19.75 262.21,-29.75 269.21,-29.75"/>
</g>
<!-- Node6&#45;&gt;Node8 -->
<g id="edge7" class="edge">
<title>Node6&#45;&gt;Node8</title>
<path fill="none" stroke="midnightblue" d="M298.98,-56.44C336.11,-46.9 396.17,-31.45 435.79,-21.26"/>
<polygon fill="midnightblue" stroke="midnightblue" points="436.84,-24.61 445.65,-18.73 435.09,-17.83 436.84,-24.61"/>
</g>
<!-- Node9 -->
<g id="node9" class="node">
<title>Node9</title>
<g id="a_node9"><a xlink:title=" ">
<polygon fill="white" stroke="#bfbfbf" points="317.71,-0.5 317.71,-19.5 373.71,-19.5 373.71,-0.5 317.71,-0.5"/>
<text text-anchor="middle" x="345.71" y="-7.5" font-family="Helvetica,sans-Serif" font-size="10.00">optional</text>
</a>
</g>
</g>
<!-- Node6&#45;&gt;Node9 -->
<g id="edge8" class="edge">
<title>Node6&#45;&gt;Node9</title>
<path fill="none" stroke="midnightblue" d="M278.56,-56.32C290.92,-47.98 309.84,-35.21 324.44,-25.35"/>
<polygon fill="midnightblue" stroke="midnightblue" points="326.56,-28.15 332.89,-19.65 322.64,-22.35 326.56,-28.15"/>
</g>
<!-- Node10&#45;&gt;Node2 -->
<g id="edge14" class="edge">
<title>Node10&#45;&gt;Node2</title>
<path fill="none" stroke="midnightblue" d="M312.08,-179.48C288.88,-169.4 250.09,-152.55 223.49,-141"/>
<polygon fill="midnightblue" stroke="midnightblue" points="224.87,-137.78 214.3,-137.01 222.08,-144.2 224.87,-137.78"/>
</g>
<!-- Node10&#45;&gt;Node4 -->
<g id="edge12" class="edge">
<title>Node10&#45;&gt;Node4</title>
<path fill="none" stroke="midnightblue" d="M324.06,-179.5C311.89,-164.87 290.82,-134.36 304.71,-112 314.42,-96.36 331.37,-85.98 348.02,-79.19"/>
<polygon fill="midnightblue" stroke="midnightblue" points="349.58,-82.35 357.74,-75.59 347.15,-75.78 349.58,-82.35"/>
</g>
<!-- Node11 -->
<g id="node11" class="node">
<title>Node11</title>
<g id="a_node11"><a xlink:title=" ">
<polygon fill="white" stroke="#bfbfbf" points="314.21,-118 314.21,-137 367.21,-137 367.21,-118 314.21,-118"/>
<text text-anchor="middle" x="340.71" y="-125" font-family="Helvetica,sans-Serif" font-size="10.00">string.h</text>
</a>
</g>
</g>
<!-- Node10&#45;&gt;Node11 -->
<g id="edge11" class="edge">
<title>Node10&#45;&gt;Node11</title>
<path fill="none" stroke="midnightblue" d="M333,-179.48C334.27,-171.08 336.25,-157.98 337.88,-147.16"/>
<polygon fill="midnightblue" stroke="midnightblue" points="341.39,-147.42 339.42,-137.01 334.46,-146.37 341.39,-147.42"/>
</g>
<!-- Node12 -->
<g id="node12" class="node">
<title>Node12</title>
<g id="a_node12"><a xlink:title=" ">
<polygon fill="white" stroke="#bfbfbf" points="385.71,-112.5 385.71,-142.5 501.71,-142.5 501.71,-112.5 385.71,-112.5"/>
<text text-anchor="start" x="393.71" y="-130.5" font-family="Helvetica,sans-Serif" font-size="10.00">autodiff/forward/real</text>
<text text-anchor="middle" x="443.71" y="-119.5" font-family="Helvetica,sans-Serif" font-size="10.00">/eigen.hpp</text>
</a>
</g>
</g>
<!-- Node10&#45;&gt;Node12 -->
<g id="edge13" class="edge">
<title>Node10&#45;&gt;Node12</title>
<path fill="none" stroke="midnightblue" d="M347.75,-179.48C363.49,-171.12 388.01,-158.09 408.32,-147.3"/>
<polygon fill="midnightblue" stroke="midnightblue" points="410.12,-150.31 417.31,-142.52 406.84,-144.12 410.12,-150.31"/>
</g>
</g>
</svg>
