<?xml version="1.0" encoding="UTF-8" standalone="no"?>
<!DOCTYPE svg PUBLIC "-//W3C//DTD SVG 1.1//EN"
 "http://www.w3.org/Graphics/SVG/1.1/DTD/svg11.dtd">
<!-- Generated by graphviz version 2.43.0 (0)
 -->
<!-- Title: File.h Pages: 1 -->
<svg width="1117pt" height="140pt"
 viewBox="0.00 0.00 1116.50 140.00" xmlns="http://www.w3.org/2000/svg" xmlns:xlink="http://www.w3.org/1999/xlink">
<g id="graph0" class="graph" transform="scale(1 1) rotate(0) translate(4 136)">
<title>File.h</title>
<polygon fill="white" stroke="transparent" points="-4,4 -4,-136 1112.5,-136 1112.5,4 -4,4"/>
<!-- Node1 -->
<g id="node1" class="node">
<title>Node1</title>
<g id="a_node1"><a xlink:title="File access utils.">
<polygon fill="#bfbfbf" stroke="black" points="515,-112.5 515,-131.5 558,-131.5 558,-112.5 515,-112.5"/>
<text text-anchor="middle" x="536.5" y="-119.5" font-family="Helvetica,sans-Serif" font-size="10.00">File.h</text>
</a>
</g>
</g>
<!-- Node2 -->
<g id="node2" class="node">
<title>Node2</title>
<g id="a_node2"><a xlink:href="GNSSStateEstimationApp_8h.html" target="_top" xlink:title="State Estimation Application Using GNSS Measurement.">
<polygon fill="white" stroke="black" points="88,-56.5 88,-75.5 237,-75.5 237,-56.5 88,-56.5"/>
<text text-anchor="middle" x="162.5" y="-63.5" font-family="Helvetica,sans-Serif" font-size="10.00">GNSSStateEstimationApp.h</text>
</a>
</g>
</g>
<!-- Node1&#45;&gt;Node2 -->
<g id="edge1" class="edge">
<title>Node1&#45;&gt;Node2</title>
<path fill="none" stroke="midnightblue" d="M504.71,-116.41C442.07,-107.37 301.81,-87.11 221.66,-75.54"/>
<polygon fill="midnightblue" stroke="midnightblue" points="504.38,-119.9 514.78,-117.86 505.38,-112.97 504.38,-119.9"/>
</g>
<!-- Node4 -->
<g id="node4" class="node">
<title>Node4</title>
<g id="a_node4"><a xlink:href="ExampleEKFApp_8cpp.html" target="_top" xlink:title="Example of EKF application.">
<polygon fill="white" stroke="black" points="179.5,-0.5 179.5,-19.5 295.5,-19.5 295.5,-0.5 179.5,-0.5"/>
<text text-anchor="middle" x="237.5" y="-7.5" font-family="Helvetica,sans-Serif" font-size="10.00">ExampleEKFApp.cpp</text>
</a>
</g>
</g>
<!-- Node1&#45;&gt;Node4 -->
<g id="edge9" class="edge">
<title>Node1&#45;&gt;Node4</title>
<path fill="none" stroke="midnightblue" d="M504.67,-118.36C445.17,-112.93 319.85,-99.07 283.5,-76 261.79,-62.22 247.34,-34.15 241.07,-19.83"/>
<polygon fill="midnightblue" stroke="midnightblue" points="504.7,-121.87 514.97,-119.27 505.32,-114.9 504.7,-121.87"/>
</g>
<!-- Node5 -->
<g id="node5" class="node">
<title>Node5</title>
<g id="a_node5"><a xlink:href="StateEstimationApp_8h.html" target="_top" xlink:title="Base class for State Estimation Application.">
<polygon fill="white" stroke="black" points="292.5,-56.5 292.5,-75.5 414.5,-75.5 414.5,-56.5 292.5,-56.5"/>
<text text-anchor="middle" x="353.5" y="-63.5" font-family="Helvetica,sans-Serif" font-size="10.00">StateEstimationApp.h</text>
</a>
</g>
</g>
<!-- Node1&#45;&gt;Node5 -->
<g id="edge4" class="edge">
<title>Node1&#45;&gt;Node5</title>
<path fill="none" stroke="midnightblue" d="M504.78,-111.64C470.32,-101.47 415.72,-85.36 382.4,-75.53"/>
<polygon fill="midnightblue" stroke="midnightblue" points="504.21,-115.12 514.79,-114.59 506.19,-108.41 504.21,-115.12"/>
</g>
<!-- Node7 -->
<g id="node7" class="node">
<title>Node7</title>
<g id="a_node7"><a xlink:href="Antenna_8cpp.html" target="_top" xlink:title="Antenna class.">
<polygon fill="white" stroke="black" points="433,-56.5 433,-75.5 510,-75.5 510,-56.5 433,-56.5"/>
<text text-anchor="middle" x="471.5" y="-63.5" font-family="Helvetica,sans-Serif" font-size="10.00">Antenna.cpp</text>
</a>
</g>
</g>
<!-- Node1&#45;&gt;Node7 -->
<g id="edge6" class="edge">
<title>Node1&#45;&gt;Node7</title>
<path fill="none" stroke="midnightblue" d="M518.23,-105.82C506.58,-96.15 491.9,-83.95 482.13,-75.83"/>
<polygon fill="midnightblue" stroke="midnightblue" points="516.13,-108.63 526.06,-112.32 520.6,-103.24 516.13,-108.63"/>
</g>
<!-- Node8 -->
<g id="node8" class="node">
<title>Node8</title>
<g id="a_node8"><a xlink:href="ExampleConstellations_8cpp.html" target="_top" xlink:title="Setup GNSS Constellation.">
<polygon fill="white" stroke="black" points="528,-56.5 528,-75.5 677,-75.5 677,-56.5 528,-56.5"/>
<text text-anchor="middle" x="602.5" y="-63.5" font-family="Helvetica,sans-Serif" font-size="10.00">ExampleConstellations.cpp</text>
</a>
</g>
</g>
<!-- Node1&#45;&gt;Node8 -->
<g id="edge7" class="edge">
<title>Node1&#45;&gt;Node8</title>
<path fill="none" stroke="midnightblue" d="M555.05,-105.82C566.88,-96.15 581.79,-83.95 591.7,-75.83"/>
<polygon fill="midnightblue" stroke="midnightblue" points="552.63,-103.28 547.1,-112.32 557.06,-108.7 552.63,-103.28"/>
</g>
<!-- Node9 -->
<g id="node9" class="node">
<title>Node9</title>
<g id="a_node9"><a xlink:href="ExampleEKF_8cpp.html" target="_top" xlink:title="Example of Extended Kalman Filter for orbit determination.">
<polygon fill="white" stroke="black" points="695,-56.5 695,-75.5 792,-75.5 792,-56.5 695,-56.5"/>
<text text-anchor="middle" x="743.5" y="-63.5" font-family="Helvetica,sans-Serif" font-size="10.00">ExampleEKF.cpp</text>
</a>
</g>
</g>
<!-- Node1&#45;&gt;Node9 -->
<g id="edge8" class="edge">
<title>Node1&#45;&gt;Node9</title>
<path fill="none" stroke="midnightblue" d="M567.94,-112.8C606.55,-102.73 671.73,-85.72 710.88,-75.51"/>
<polygon fill="midnightblue" stroke="midnightblue" points="567.05,-109.41 558.26,-115.32 568.82,-116.19 567.05,-109.41"/>
</g>
<!-- Node10 -->
<g id="node10" class="node">
<title>Node10</title>
<g id="a_node10"><a xlink:href="ExamplePerformance_8cpp.html" target="_top" xlink:title="Example for performance testing of spherical harmonics computation.">
<polygon fill="white" stroke="black" points="810.5,-56.5 810.5,-75.5 952.5,-75.5 952.5,-56.5 810.5,-56.5"/>
<text text-anchor="middle" x="881.5" y="-63.5" font-family="Helvetica,sans-Serif" font-size="10.00">ExamplePerformance.cpp</text>
</a>
</g>
</g>
<!-- Node1&#45;&gt;Node10 -->
<g id="edge10" class="edge">
<title>Node1&#45;&gt;Node10</title>
<path fill="none" stroke="midnightblue" d="M568.26,-116.03C627.19,-106.81 754.04,-86.95 826.95,-75.54"/>
<polygon fill="midnightblue" stroke="midnightblue" points="567.42,-112.62 558.08,-117.62 568.5,-119.53 567.42,-112.62"/>
</g>
<!-- Node11 -->
<g id="node11" class="node">
<title>Node11</title>
<g id="a_node11"><a xlink:href="ExamplePropagation_8cpp.html" target="_top" xlink:title="Example propagating both GPS constellation and Lunar Satellite.">
<polygon fill="white" stroke="black" points="970.5,-56.5 970.5,-75.5 1108.5,-75.5 1108.5,-56.5 970.5,-56.5"/>
<text text-anchor="middle" x="1039.5" y="-63.5" font-family="Helvetica,sans-Serif" font-size="10.00">ExamplePropagation.cpp</text>
</a>
</g>
</g>
<!-- Node1&#45;&gt;Node11 -->
<g id="edge11" class="edge">
<title>Node1&#45;&gt;Node11</title>
<path fill="none" stroke="midnightblue" d="M568.21,-117.75C638.86,-110.47 814.54,-92.26 961.5,-76 964.35,-75.69 967.25,-75.36 970.18,-75.03"/>
<polygon fill="midnightblue" stroke="midnightblue" points="567.77,-114.27 558.18,-118.78 568.49,-121.24 567.77,-114.27"/>
</g>
<!-- Node3 -->
<g id="node3" class="node">
<title>Node3</title>
<g id="a_node3"><a xlink:href="GNSSStateEstimationApp_8cpp.html" target="_top" xlink:title="State Estimation Application Using GNSS Measurement.">
<polygon fill="white" stroke="black" points="0,-0.5 0,-19.5 161,-19.5 161,-0.5 0,-0.5"/>
<text text-anchor="middle" x="80.5" y="-7.5" font-family="Helvetica,sans-Serif" font-size="10.00">GNSSStateEstimationApp.cpp</text>
</a>
</g>
</g>
<!-- Node2&#45;&gt;Node3 -->
<g id="edge2" class="edge">
<title>Node2&#45;&gt;Node3</title>
<path fill="none" stroke="midnightblue" d="M140.67,-50.62C125.69,-40.76 106.3,-27.99 93.64,-19.65"/>
<polygon fill="midnightblue" stroke="midnightblue" points="139.05,-53.75 149.33,-56.32 142.9,-47.9 139.05,-53.75"/>
</g>
<!-- Node2&#45;&gt;Node4 -->
<g id="edge3" class="edge">
<title>Node2&#45;&gt;Node4</title>
<path fill="none" stroke="midnightblue" d="M182.81,-50.38C196.36,-40.62 213.74,-28.11 225.23,-19.83"/>
<polygon fill="midnightblue" stroke="midnightblue" points="180.62,-47.64 174.55,-56.32 184.71,-53.32 180.62,-47.64"/>
</g>
<!-- Node6 -->
<g id="node6" class="node">
<title>Node6</title>
<g id="a_node6"><a xlink:href="StateEstimationApp_8cpp.html" target="_top" xlink:title="Base class for State Estimation Application.">
<polygon fill="white" stroke="black" points="313.5,-0.5 313.5,-19.5 447.5,-19.5 447.5,-0.5 313.5,-0.5"/>
<text text-anchor="middle" x="380.5" y="-7.5" font-family="Helvetica,sans-Serif" font-size="10.00">StateEstimationApp.cpp</text>
</a>
</g>
</g>
<!-- Node5&#45;&gt;Node6 -->
<g id="edge5" class="edge">
<title>Node5&#45;&gt;Node6</title>
<path fill="none" stroke="midnightblue" d="M362.51,-46.98C367.09,-37.82 372.45,-27.09 376.12,-19.75"/>
<polygon fill="midnightblue" stroke="midnightblue" points="359.3,-45.57 357.96,-56.08 365.56,-48.7 359.3,-45.57"/>
</g>
</g>
</svg>
