<?xml version="1.0" encoding="UTF-8" standalone="no"?>
<!DOCTYPE svg PUBLIC "-//W3C//DTD SVG 1.1//EN"
 "http://www.w3.org/Graphics/SVG/1.1/DTD/svg11.dtd">
<!-- Generated by graphviz version 2.43.0 (0)
 -->
<!-- Title: File.h Pages: 1 -->
<svg width="820pt" height="151pt"
 viewBox="0.00 0.00 820.00 151.00" xmlns="http://www.w3.org/2000/svg" xmlns:xlink="http://www.w3.org/1999/xlink">
<g id="graph0" class="graph" transform="scale(1 1) rotate(0) translate(4 147)">
<title>File.h</title>
<polygon fill="white" stroke="transparent" points="-4,4 -4,-147 816,-147 816,4 -4,4"/>
<!-- Node1 -->
<g id="node1" class="node">
<title>Node1</title>
<g id="a_node1"><a xlink:title="File access utils.">
<polygon fill="#bfbfbf" stroke="black" points="501,-123.5 501,-142.5 544,-142.5 544,-123.5 501,-123.5"/>
<text text-anchor="middle" x="522.5" y="-130.5" font-family="Helvetica,sans-Serif" font-size="10.00">File.h</text>
</a>
</g>
</g>
<!-- Node2 -->
<g id="node2" class="node">
<title>Node2</title>
<g id="a_node2"><a xlink:href="MathUtils_8h.html" target="_top" xlink:title=" ">
<polygon fill="white" stroke="black" points="108,-67.5 108,-86.5 257,-86.5 257,-67.5 108,-67.5"/>
<text text-anchor="middle" x="182.5" y="-74.5" font-family="Helvetica,sans-Serif" font-size="10.00">lupnt/numerics/MathUtils.h</text>
</a>
</g>
</g>
<!-- Node1&#45;&gt;Node2 -->
<g id="edge1" class="edge">
<title>Node1&#45;&gt;Node2</title>
<path fill="none" stroke="midnightblue" d="M500.97,-128.58C450.68,-120.59 323.86,-100.45 246.29,-88.13"/>
<polygon fill="midnightblue" stroke="midnightblue" points="246.57,-84.63 236.15,-86.52 245.47,-91.55 246.57,-84.63"/>
</g>
<!-- Node4 -->
<g id="node4" class="node">
<title>Node4</title>
<g id="a_node4"><a xlink:title=" ">
<polygon fill="white" stroke="#bfbfbf" points="227.5,-0.5 227.5,-30.5 343.5,-30.5 343.5,-0.5 227.5,-0.5"/>
<text text-anchor="start" x="235.5" y="-18.5" font-family="Helvetica,sans-Serif" font-size="10.00">autodiff/forward/real</text>
<text text-anchor="middle" x="285.5" y="-7.5" font-family="Helvetica,sans-Serif" font-size="10.00">/eigen.hpp</text>
</a>
</g>
</g>
<!-- Node1&#45;&gt;Node4 -->
<g id="edge6" class="edge">
<title>Node1&#45;&gt;Node4</title>
<path fill="none" stroke="midnightblue" d="M500.92,-130.38C451.63,-126.25 332.84,-113.7 304.5,-87 292.03,-75.25 287.43,-56.25 285.87,-40.93"/>
<polygon fill="midnightblue" stroke="midnightblue" points="289.34,-40.34 285.2,-30.59 282.35,-40.79 289.34,-40.34"/>
</g>
<!-- Node6 -->
<g id="node6" class="node">
<title>Node6</title>
<g id="a_node6"><a xlink:title=" ">
<polygon fill="white" stroke="#bfbfbf" points="313,-67.5 313,-86.5 390,-86.5 390,-67.5 313,-67.5"/>
<text text-anchor="middle" x="351.5" y="-74.5" font-family="Helvetica,sans-Serif" font-size="10.00">Eigen/Dense</text>
</a>
</g>
</g>
<!-- Node1&#45;&gt;Node6 -->
<g id="edge5" class="edge">
<title>Node1&#45;&gt;Node6</title>
<path fill="none" stroke="midnightblue" d="M500.84,-125.16C472.54,-116.22 422.56,-100.44 388.27,-89.61"/>
<polygon fill="midnightblue" stroke="midnightblue" points="389.2,-86.23 378.61,-86.56 387.09,-92.91 389.2,-86.23"/>
</g>
<!-- Node7 -->
<g id="node7" class="node">
<title>Node7</title>
<g id="a_node7"><a xlink:title=" ">
<polygon fill="white" stroke="#bfbfbf" points="408.5,-67.5 408.5,-86.5 476.5,-86.5 476.5,-67.5 408.5,-67.5"/>
<text text-anchor="middle" x="442.5" y="-74.5" font-family="Helvetica,sans-Serif" font-size="10.00">filesystem</text>
</a>
</g>
</g>
<!-- Node1&#45;&gt;Node7 -->
<g id="edge7" class="edge">
<title>Node1&#45;&gt;Node7</title>
<path fill="none" stroke="midnightblue" d="M509.65,-123.32C497.28,-114.98 478.37,-102.21 463.76,-92.35"/>
<polygon fill="midnightblue" stroke="midnightblue" points="465.57,-89.35 455.32,-86.65 461.65,-95.15 465.57,-89.35"/>
</g>
<!-- Node8 -->
<g id="node8" class="node">
<title>Node8</title>
<g id="a_node8"><a xlink:title=" ">
<polygon fill="white" stroke="#bfbfbf" points="495,-67.5 495,-86.5 550,-86.5 550,-67.5 495,-67.5"/>
<text text-anchor="middle" x="522.5" y="-74.5" font-family="Helvetica,sans-Serif" font-size="10.00">fstream</text>
</a>
</g>
</g>
<!-- Node1&#45;&gt;Node8 -->
<g id="edge8" class="edge">
<title>Node1&#45;&gt;Node8</title>
<path fill="none" stroke="midnightblue" d="M522.5,-123.08C522.5,-116.01 522.5,-105.86 522.5,-96.99"/>
<polygon fill="midnightblue" stroke="midnightblue" points="526,-96.75 522.5,-86.75 519,-96.75 526,-96.75"/>
</g>
<!-- Node9 -->
<g id="node9" class="node">
<title>Node9</title>
<g id="a_node9"><a xlink:title=" ">
<polygon fill="white" stroke="#bfbfbf" points="568.5,-67.5 568.5,-86.5 628.5,-86.5 628.5,-67.5 568.5,-67.5"/>
<text text-anchor="middle" x="598.5" y="-74.5" font-family="Helvetica,sans-Serif" font-size="10.00">iostream</text>
</a>
</g>
</g>
<!-- Node1&#45;&gt;Node9 -->
<g id="edge9" class="edge">
<title>Node1&#45;&gt;Node9</title>
<path fill="none" stroke="midnightblue" d="M534.71,-123.32C546.28,-115.11 563.88,-102.6 577.66,-92.81"/>
<polygon fill="midnightblue" stroke="midnightblue" points="579.94,-95.48 586.07,-86.83 575.89,-89.77 579.94,-95.48"/>
</g>
<!-- Node10 -->
<g id="node10" class="node">
<title>Node10</title>
<g id="a_node10"><a xlink:title=" ">
<polygon fill="white" stroke="#bfbfbf" points="646.5,-67.5 646.5,-86.5 684.5,-86.5 684.5,-67.5 646.5,-67.5"/>
<text text-anchor="middle" x="665.5" y="-74.5" font-family="Helvetica,sans-Serif" font-size="10.00">map</text>
</a>
</g>
</g>
<!-- Node1&#45;&gt;Node10 -->
<g id="edge10" class="edge">
<title>Node1&#45;&gt;Node10</title>
<path fill="none" stroke="midnightblue" d="M544.22,-123.8C568.99,-114.44 609.59,-99.11 636.92,-88.79"/>
<polygon fill="midnightblue" stroke="midnightblue" points="638.21,-92.05 646.33,-85.24 635.74,-85.5 638.21,-92.05"/>
</g>
<!-- Node11 -->
<g id="node11" class="node">
<title>Node11</title>
<g id="a_node11"><a xlink:title=" ">
<polygon fill="white" stroke="#bfbfbf" points="702.5,-67.5 702.5,-86.5 746.5,-86.5 746.5,-67.5 702.5,-67.5"/>
<text text-anchor="middle" x="724.5" y="-74.5" font-family="Helvetica,sans-Serif" font-size="10.00">string</text>
</a>
</g>
</g>
<!-- Node1&#45;&gt;Node11 -->
<g id="edge11" class="edge">
<title>Node1&#45;&gt;Node11</title>
<path fill="none" stroke="midnightblue" d="M544.14,-126.49C574.93,-118.62 633.36,-103.52 692.32,-87.28"/>
<polygon fill="midnightblue" stroke="midnightblue" points="693.46,-90.59 702.17,-84.56 691.6,-83.85 693.46,-90.59"/>
</g>
<!-- Node12 -->
<g id="node12" class="node">
<title>Node12</title>
<g id="a_node12"><a xlink:title=" ">
<polygon fill="white" stroke="#bfbfbf" points="765,-67.5 765,-86.5 812,-86.5 812,-67.5 765,-67.5"/>
<text text-anchor="middle" x="788.5" y="-74.5" font-family="Helvetica,sans-Serif" font-size="10.00">vector</text>
</a>
</g>
</g>
<!-- Node1&#45;&gt;Node12 -->
<g id="edge12" class="edge">
<title>Node1&#45;&gt;Node12</title>
<path fill="none" stroke="midnightblue" d="M544.14,-128.38C583.86,-121.62 671.26,-106.2 754.85,-87"/>
<polygon fill="midnightblue" stroke="midnightblue" points="755.81,-90.37 764.76,-84.7 754.23,-83.55 755.81,-90.37"/>
</g>
<!-- Node3 -->
<g id="node3" class="node">
<title>Node3</title>
<g id="a_node3"><a xlink:title=" ">
<polygon fill="white" stroke="#bfbfbf" points="0,-6 0,-25 137,-25 137,-6 0,-6"/>
<text text-anchor="middle" x="68.5" y="-13" font-family="Helvetica,sans-Serif" font-size="10.00">autodiff/forward/real.hpp</text>
</a>
</g>
</g>
<!-- Node2&#45;&gt;Node3 -->
<g id="edge2" class="edge">
<title>Node2&#45;&gt;Node3</title>
<path fill="none" stroke="midnightblue" d="M166.17,-67.48C147.29,-57.62 115.99,-41.29 93.92,-29.77"/>
<polygon fill="midnightblue" stroke="midnightblue" points="95.29,-26.53 84.8,-25.01 92.05,-32.74 95.29,-26.53"/>
</g>
<!-- Node2&#45;&gt;Node4 -->
<g id="edge3" class="edge">
<title>Node2&#45;&gt;Node4</title>
<path fill="none" stroke="midnightblue" d="M197.26,-67.48C211.6,-59.19 233.87,-46.32 252.45,-35.59"/>
<polygon fill="midnightblue" stroke="midnightblue" points="254.32,-38.56 261.22,-30.52 250.82,-32.49 254.32,-38.56"/>
</g>
<!-- Node5 -->
<g id="node5" class="node">
<title>Node5</title>
<g id="a_node5"><a xlink:title=" ">
<polygon fill="white" stroke="#bfbfbf" points="155.5,-6 155.5,-25 209.5,-25 209.5,-6 155.5,-6"/>
<text text-anchor="middle" x="182.5" y="-13" font-family="Helvetica,sans-Serif" font-size="10.00">random</text>
</a>
</g>
</g>
<!-- Node2&#45;&gt;Node5 -->
<g id="edge4" class="edge">
<title>Node2&#45;&gt;Node5</title>
<path fill="none" stroke="midnightblue" d="M182.5,-67.48C182.5,-59.08 182.5,-45.98 182.5,-35.16"/>
<polygon fill="midnightblue" stroke="midnightblue" points="186,-35.01 182.5,-25.01 179,-35.01 186,-35.01"/>
</g>
</g>
</svg>
