<?xml version="1.0" encoding="UTF-8" standalone="no"?>
<!DOCTYPE svg PUBLIC "-//W3C//DTD SVG 1.1//EN"
 "http://www.w3.org/Graphics/SVG/1.1/DTD/svg11.dtd">
<!-- Generated by graphviz version 2.43.0 (0)
 -->
<!-- Title: Filters.h Pages: 1 -->
<svg width="822pt" height="140pt"
 viewBox="0.00 0.00 822.00 140.00" xmlns="http://www.w3.org/2000/svg" xmlns:xlink="http://www.w3.org/1999/xlink">
<g id="graph0" class="graph" transform="scale(1 1) rotate(0) translate(4 136)">
<title>Filters.h</title>
<polygon fill="white" stroke="transparent" points="-4,4 -4,-136 818,-136 818,4 -4,4"/>
<!-- Node1 -->
<g id="node1" class="node">
<title>Node1</title>
<g id="a_node1"><a xlink:title="List of Filters.">
<polygon fill="#bfbfbf" stroke="black" points="470.5,-112.5 470.5,-131.5 526.5,-131.5 526.5,-112.5 470.5,-112.5"/>
<text text-anchor="middle" x="498.5" y="-119.5" font-family="Helvetica,sans-Serif" font-size="10.00">Filters.h</text>
</a>
</g>
</g>
<!-- Node2 -->
<g id="node2" class="node">
<title>Node2</title>
<g id="a_node2"><a xlink:href="GNSSStateEstimationApp_8h.html" target="_top" xlink:title="State Estimation Application Using GNSS Measurement.">
<polygon fill="white" stroke="black" points="157,-56.5 157,-75.5 306,-75.5 306,-56.5 157,-56.5"/>
<text text-anchor="middle" x="231.5" y="-63.5" font-family="Helvetica,sans-Serif" font-size="10.00">GNSSStateEstimationApp.h</text>
</a>
</g>
</g>
<!-- Node1&#45;&gt;Node2 -->
<g id="edge1" class="edge">
<title>Node1&#45;&gt;Node2</title>
<path fill="none" stroke="midnightblue" d="M460.46,-113.31C411.01,-103.31 324.93,-85.9 273.58,-75.51"/>
<polygon fill="midnightblue" stroke="midnightblue" points="459.94,-116.77 470.43,-115.32 461.32,-109.91 459.94,-116.77"/>
</g>
<!-- Node5 -->
<g id="node5" class="node">
<title>Node5</title>
<g id="a_node5"><a xlink:href="StateEstimationApp_8h.html" target="_top" xlink:title="Base class for State Estimation Application.">
<polygon fill="white" stroke="black" points="324.5,-56.5 324.5,-75.5 446.5,-75.5 446.5,-56.5 324.5,-56.5"/>
<text text-anchor="middle" x="385.5" y="-63.5" font-family="Helvetica,sans-Serif" font-size="10.00">StateEstimationApp.h</text>
</a>
</g>
</g>
<!-- Node1&#45;&gt;Node5 -->
<g id="edge4" class="edge">
<title>Node1&#45;&gt;Node5</title>
<path fill="none" stroke="midnightblue" d="M471.5,-108.1C450.39,-98.01 421.64,-84.27 403.32,-75.52"/>
<polygon fill="midnightblue" stroke="midnightblue" points="470.06,-111.29 480.59,-112.44 473.08,-104.97 470.06,-111.29"/>
</g>
<!-- Node7 -->
<g id="node7" class="node">
<title>Node7</title>
<g id="a_node7"><a xlink:href="Filters_8cpp.html" target="_top" xlink:title="Implementation of Filters.">
<polygon fill="white" stroke="black" points="465,-56.5 465,-75.5 532,-75.5 532,-56.5 465,-56.5"/>
<text text-anchor="middle" x="498.5" y="-63.5" font-family="Helvetica,sans-Serif" font-size="10.00">Filters.cpp</text>
</a>
</g>
</g>
<!-- Node1&#45;&gt;Node7 -->
<g id="edge6" class="edge">
<title>Node1&#45;&gt;Node7</title>
<path fill="none" stroke="midnightblue" d="M498.5,-101.8C498.5,-92.91 498.5,-82.78 498.5,-75.75"/>
<polygon fill="midnightblue" stroke="midnightblue" points="495,-102.08 498.5,-112.08 502,-102.08 495,-102.08"/>
</g>
<!-- Node8 -->
<g id="node8" class="node">
<title>Node8</title>
<g id="a_node8"><a xlink:href="ExampleConstellations_8cpp.html" target="_top" xlink:title="Setup GNSS Constellation.">
<polygon fill="white" stroke="black" points="550,-56.5 550,-75.5 699,-75.5 699,-56.5 550,-56.5"/>
<text text-anchor="middle" x="624.5" y="-63.5" font-family="Helvetica,sans-Serif" font-size="10.00">ExampleConstellations.cpp</text>
</a>
</g>
</g>
<!-- Node1&#45;&gt;Node8 -->
<g id="edge7" class="edge">
<title>Node1&#45;&gt;Node8</title>
<path fill="none" stroke="midnightblue" d="M527.66,-108.5C551.28,-98.38 583.93,-84.39 604.63,-75.52"/>
<polygon fill="midnightblue" stroke="midnightblue" points="526.28,-105.29 518.47,-112.44 529.04,-111.72 526.28,-105.29"/>
</g>
<!-- Node9 -->
<g id="node9" class="node">
<title>Node9</title>
<g id="a_node9"><a xlink:href="ExampleEKF_8cpp.html" target="_top" xlink:title="Example of Extended Kalman Filter for orbit determination.">
<polygon fill="white" stroke="black" points="717,-56.5 717,-75.5 814,-75.5 814,-56.5 717,-56.5"/>
<text text-anchor="middle" x="765.5" y="-63.5" font-family="Helvetica,sans-Serif" font-size="10.00">ExampleEKF.cpp</text>
</a>
</g>
</g>
<!-- Node1&#45;&gt;Node9 -->
<g id="edge8" class="edge">
<title>Node1&#45;&gt;Node9</title>
<path fill="none" stroke="midnightblue" d="M536.54,-113.31C585.99,-103.31 672.07,-85.9 723.42,-75.51"/>
<polygon fill="midnightblue" stroke="midnightblue" points="535.68,-109.91 526.57,-115.32 537.06,-116.77 535.68,-109.91"/>
</g>
<!-- Node3 -->
<g id="node3" class="node">
<title>Node3</title>
<g id="a_node3"><a xlink:href="GNSSStateEstimationApp_8cpp.html" target="_top" xlink:title="State Estimation Application Using GNSS Measurement.">
<polygon fill="white" stroke="black" points="0,-0.5 0,-19.5 161,-19.5 161,-0.5 0,-0.5"/>
<text text-anchor="middle" x="80.5" y="-7.5" font-family="Helvetica,sans-Serif" font-size="10.00">GNSSStateEstimationApp.cpp</text>
</a>
</g>
</g>
<!-- Node2&#45;&gt;Node3 -->
<g id="edge2" class="edge">
<title>Node2&#45;&gt;Node3</title>
<path fill="none" stroke="midnightblue" d="M198.05,-53.04C169.64,-42.88 129.56,-28.55 104.31,-19.52"/>
<polygon fill="midnightblue" stroke="midnightblue" points="196.98,-56.37 207.57,-56.44 199.34,-49.78 196.98,-56.37"/>
</g>
<!-- Node4 -->
<g id="node4" class="node">
<title>Node4</title>
<g id="a_node4"><a xlink:href="ExampleEKFApp_8cpp.html" target="_top" xlink:title="Example of EKF application.">
<polygon fill="white" stroke="black" points="179.5,-0.5 179.5,-19.5 295.5,-19.5 295.5,-0.5 179.5,-0.5"/>
<text text-anchor="middle" x="237.5" y="-7.5" font-family="Helvetica,sans-Serif" font-size="10.00">ExampleEKFApp.cpp</text>
</a>
</g>
</g>
<!-- Node2&#45;&gt;Node4 -->
<g id="edge3" class="edge">
<title>Node2&#45;&gt;Node4</title>
<path fill="none" stroke="midnightblue" d="M233.6,-46.1C234.6,-37.14 235.74,-26.86 236.53,-19.75"/>
<polygon fill="midnightblue" stroke="midnightblue" points="230.12,-45.76 232.49,-56.08 237.07,-46.53 230.12,-45.76"/>
</g>
<!-- Node6 -->
<g id="node6" class="node">
<title>Node6</title>
<g id="a_node6"><a xlink:href="StateEstimationApp_8cpp.html" target="_top" xlink:title="Base class for State Estimation Application.">
<polygon fill="white" stroke="black" points="318.5,-0.5 318.5,-19.5 452.5,-19.5 452.5,-0.5 318.5,-0.5"/>
<text text-anchor="middle" x="385.5" y="-7.5" font-family="Helvetica,sans-Serif" font-size="10.00">StateEstimationApp.cpp</text>
</a>
</g>
</g>
<!-- Node5&#45;&gt;Node6 -->
<g id="edge5" class="edge">
<title>Node5&#45;&gt;Node6</title>
<path fill="none" stroke="midnightblue" d="M385.5,-45.8C385.5,-36.91 385.5,-26.78 385.5,-19.75"/>
<polygon fill="midnightblue" stroke="midnightblue" points="382,-46.08 385.5,-56.08 389,-46.08 382,-46.08"/>
</g>
</g>
</svg>
