<?xml version="1.0" encoding="UTF-8" standalone="no"?>
<!DOCTYPE svg PUBLIC "-//W3C//DTD SVG 1.1//EN"
 "http://www.w3.org/Graphics/SVG/1.1/DTD/svg11.dtd">
<!-- Generated by graphviz version 2.43.0 (0)
 -->
<!-- Title: Filters.h Pages: 1 -->
<!--zoomable 140 -->
<svg id="main" version="1.1" xmlns="http://www.w3.org/2000/svg" xmlns:xlink="http://www.w3.org/1999/xlink" xml:space="preserve" onload="init(evt)">
<style type="text/css"><![CDATA[
.edge:hover path { stroke: red; }
.edge:hover polygon { stroke: red; fill: red; }
]]></style>
<script type="text/javascript"><![CDATA[
var edges = document.getElementsByTagName('g');
if (edges && edges.length) {
  for (var i=0;i<edges.length;i++) {
    if (edges[i].id.substr(0,4)=='edge') {
      edges[i].setAttribute('class','edge');
    }
  }
}
]]></script>
        <defs>
                <circle id="rim" cx="0" cy="0" r="7"/>
                <circle id="rim2" cx="0" cy="0" r="3.5"/>
                <g id="zoomPlus">
                        <use xlink:href="#rim" fill="#404040">
                                <set attributeName="fill" to="#808080" begin="zoomplus.mouseover" end="zoomplus.mouseout"/>
                        </use>
                        <path d="M-4,0h8M0,-4v8" fill="none" stroke="white" stroke-width="1.5" pointer-events="none"/>
                </g>
                <g id="zoomMin">
                        <use xlink:href="#rim" fill="#404040">
                                <set attributeName="fill" to="#808080" begin="zoomminus.mouseover" end="zoomminus.mouseout"/>
                        </use>
                        <path d="M-4,0h8" fill="none" stroke="white" stroke-width="1.5" pointer-events="none"/>
                </g>
                <g id="dirArrow">
                        <path fill="none" stroke="white" stroke-width="1.5" d="M0,-3.0v7 M-2.5,-0.5L0,-3.0L2.5,-0.5"/>
                </g>
               <g id="resetDef">
                       <use xlink:href="#rim2" fill="#404040">
                               <set attributeName="fill" to="#808080" begin="reset.mouseover" end="reset.mouseout"/>
                       </use>
               </g>
        </defs>

<script type="text/javascript">
var viewWidth = 822;
var viewHeight = 140;
var sectionId = 'dynsection-1';
</script>
<script xlink:href="svgpan.js"/>
<svg id="graph" class="graph">
<g id="viewport">
<title>Filters.h</title>
<polygon fill="white" stroke="transparent" points="-4,4 -4,-136 818,-136 818,4 -4,4"/>
<!-- Node1 -->
<g id="node1" class="node">
<title>Node1</title>
<g id="a_node1"><a xlink:title="List of Filters.">
<polygon fill="#bfbfbf" stroke="black" points="470.5,-112.5 470.5,-131.5 526.5,-131.5 526.5,-112.5 470.5,-112.5"/>
<text text-anchor="middle" x="498.5" y="-119.5" font-family="Helvetica,sans-Serif" font-size="10.00">Filters.h</text>
</a>
</g>
</g>
<!-- Node2 -->
<g id="node2" class="node">
<title>Node2</title>
<g id="a_node2"><a xlink:href="GNSSStateEstimationApp_8h.html" target="_top" xlink:title="State Estimation Application Using GNSS Measurement.">
<polygon fill="white" stroke="black" points="157,-56.5 157,-75.5 306,-75.5 306,-56.5 157,-56.5"/>
<text text-anchor="middle" x="231.5" y="-63.5" font-family="Helvetica,sans-Serif" font-size="10.00">GNSSStateEstimationApp.h</text>
</a>
</g>
</g>
<!-- Node1&#45;&gt;Node2 -->
<g id="edge1" class="edge">
<title>Node1&#45;&gt;Node2</title>
<path fill="none" stroke="midnightblue" d="M460.46,-113.31C411.01,-103.31 324.93,-85.9 273.58,-75.51"/>
<polygon fill="midnightblue" stroke="midnightblue" points="459.94,-116.77 470.43,-115.32 461.32,-109.91 459.94,-116.77"/>
</g>
<!-- Node5 -->
<g id="node5" class="node">
<title>Node5</title>
<g id="a_node5"><a xlink:href="StateEstimationApp_8h.html" target="_top" xlink:title="Base class for State Estimation Application.">
<polygon fill="white" stroke="black" points="324.5,-56.5 324.5,-75.5 446.5,-75.5 446.5,-56.5 324.5,-56.5"/>
<text text-anchor="middle" x="385.5" y="-63.5" font-family="Helvetica,sans-Serif" font-size="10.00">StateEstimationApp.h</text>
</a>
</g>
</g>
<!-- Node1&#45;&gt;Node5 -->
<g id="edge4" class="edge">
<title>Node1&#45;&gt;Node5</title>
<path fill="none" stroke="midnightblue" d="M471.5,-108.1C450.39,-98.01 421.64,-84.27 403.32,-75.52"/>
<polygon fill="midnightblue" stroke="midnightblue" points="470.06,-111.29 480.59,-112.44 473.08,-104.97 470.06,-111.29"/>
</g>
<!-- Node7 -->
<g id="node7" class="node">
<title>Node7</title>
<g id="a_node7"><a xlink:href="Filters_8cpp.html" target="_top" xlink:title="Implementation of Filters.">
<polygon fill="white" stroke="black" points="465,-56.5 465,-75.5 532,-75.5 532,-56.5 465,-56.5"/>
<text text-anchor="middle" x="498.5" y="-63.5" font-family="Helvetica,sans-Serif" font-size="10.00">Filters.cpp</text>
</a>
</g>
</g>
<!-- Node1&#45;&gt;Node7 -->
<g id="edge6" class="edge">
<title>Node1&#45;&gt;Node7</title>
<path fill="none" stroke="midnightblue" d="M498.5,-101.8C498.5,-92.91 498.5,-82.78 498.5,-75.75"/>
<polygon fill="midnightblue" stroke="midnightblue" points="495,-102.08 498.5,-112.08 502,-102.08 495,-102.08"/>
</g>
<!-- Node8 -->
<g id="node8" class="node">
<title>Node8</title>
<g id="a_node8"><a xlink:href="ExampleConstellations_8cpp.html" target="_top" xlink:title="Setup GNSS Constellation.">
<polygon fill="white" stroke="black" points="550,-56.5 550,-75.5 699,-75.5 699,-56.5 550,-56.5"/>
<text text-anchor="middle" x="624.5" y="-63.5" font-family="Helvetica,sans-Serif" font-size="10.00">ExampleConstellations.cpp</text>
</a>
</g>
</g>
<!-- Node1&#45;&gt;Node8 -->
<g id="edge7" class="edge">
<title>Node1&#45;&gt;Node8</title>
<path fill="none" stroke="midnightblue" d="M527.66,-108.5C551.28,-98.38 583.93,-84.39 604.63,-75.52"/>
<polygon fill="midnightblue" stroke="midnightblue" points="526.28,-105.29 518.47,-112.44 529.04,-111.72 526.28,-105.29"/>
</g>
<!-- Node9 -->
<g id="node9" class="node">
<title>Node9</title>
<g id="a_node9"><a xlink:href="ExampleEKF_8cpp.html" target="_top" xlink:title="Example of Extended Kalman Filter for orbit determination.">
<polygon fill="white" stroke="black" points="717,-56.5 717,-75.5 814,-75.5 814,-56.5 717,-56.5"/>
<text text-anchor="middle" x="765.5" y="-63.5" font-family="Helvetica,sans-Serif" font-size="10.00">ExampleEKF.cpp</text>
</a>
</g>
</g>
<!-- Node1&#45;&gt;Node9 -->
<g id="edge8" class="edge">
<title>Node1&#45;&gt;Node9</title>
<path fill="none" stroke="midnightblue" d="M536.54,-113.31C585.99,-103.31 672.07,-85.9 723.42,-75.51"/>
<polygon fill="midnightblue" stroke="midnightblue" points="535.68,-109.91 526.57,-115.32 537.06,-116.77 535.68,-109.91"/>
</g>
<!-- Node3 -->
<g id="node3" class="node">
<title>Node3</title>
<g id="a_node3"><a xlink:href="GNSSStateEstimationApp_8cpp.html" target="_top" xlink:title="State Estimation Application Using GNSS Measurement.">
<polygon fill="white" stroke="black" points="0,-0.5 0,-19.5 161,-19.5 161,-0.5 0,-0.5"/>
<text text-anchor="middle" x="80.5" y="-7.5" font-family="Helvetica,sans-Serif" font-size="10.00">GNSSStateEstimationApp.cpp</text>
</a>
</g>
</g>
<!-- Node2&#45;&gt;Node3 -->
<g id="edge2" class="edge">
<title>Node2&#45;&gt;Node3</title>
<path fill="none" stroke="midnightblue" d="M198.05,-53.04C169.64,-42.88 129.56,-28.55 104.31,-19.52"/>
<polygon fill="midnightblue" stroke="midnightblue" points="196.98,-56.37 207.57,-56.44 199.34,-49.78 196.98,-56.37"/>
</g>
<!-- Node4 -->
<g id="node4" class="node">
<title>Node4</title>
<g id="a_node4"><a xlink:href="ExampleEKFApp_8cpp.html" target="_top" xlink:title="Example of EKF application.">
<polygon fill="white" stroke="black" points="179.5,-0.5 179.5,-19.5 295.5,-19.5 295.5,-0.5 179.5,-0.5"/>
<text text-anchor="middle" x="237.5" y="-7.5" font-family="Helvetica,sans-Serif" font-size="10.00">ExampleEKFApp.cpp</text>
</a>
</g>
</g>
<!-- Node2&#45;&gt;Node4 -->
<g id="edge3" class="edge">
<title>Node2&#45;&gt;Node4</title>
<path fill="none" stroke="midnightblue" d="M233.6,-46.1C234.6,-37.14 235.74,-26.86 236.53,-19.75"/>
<polygon fill="midnightblue" stroke="midnightblue" points="230.12,-45.76 232.49,-56.08 237.07,-46.53 230.12,-45.76"/>
</g>
<!-- Node6 -->
<g id="node6" class="node">
<title>Node6</title>
<g id="a_node6"><a xlink:href="StateEstimationApp_8cpp.html" target="_top" xlink:title="Base class for State Estimation Application.">
<polygon fill="white" stroke="black" points="318.5,-0.5 318.5,-19.5 452.5,-19.5 452.5,-0.5 318.5,-0.5"/>
<text text-anchor="middle" x="385.5" y="-7.5" font-family="Helvetica,sans-Serif" font-size="10.00">StateEstimationApp.cpp</text>
</a>
</g>
</g>
<!-- Node5&#45;&gt;Node6 -->
<g id="edge5" class="edge">
<title>Node5&#45;&gt;Node6</title>
<path fill="none" stroke="midnightblue" d="M385.5,-45.8C385.5,-36.91 385.5,-26.78 385.5,-19.75"/>
<polygon fill="midnightblue" stroke="midnightblue" points="382,-46.08 385.5,-56.08 389,-46.08 382,-46.08"/>
</g>
</g>
</svg>
        <g id="navigator" transform="translate(0 0)" fill="#404254">
                <rect fill="#f2f5e9" fill-opacity="0.5" stroke="#606060" stroke-width=".5" x="0" y="0" width="60" height="60"/>
                <use id="zoomplus" xlink:href="#zoomPlus" x="17" y="9" onmousedown="handleZoom(evt,'in')"/>
                <use id="zoomminus" xlink:href="#zoomMin" x="42" y="9" onmousedown="handleZoom(evt,'out')"/>
                <use id="reset" xlink:href="#resetDef" x="30" y="36" onmousedown="handleReset()"/>
                <g id="arrowUp" xlink:href="#dirArrow" transform="translate(30 24)" onmousedown="handlePan(0,-1)">
                  <use xlink:href="#rim" fill="#404040">
                        <set attributeName="fill" to="#808080" begin="arrowUp.mouseover" end="arrowUp.mouseout"/>
                  </use>
                  <path fill="none" stroke="white" stroke-width="1.5" d="M0,-3.0v7 M-2.5,-0.5L0,-3.0L2.5,-0.5"/>
                </g>
                <g id="arrowRight" xlink:href="#dirArrow" transform="rotate(90) translate(36 -43)" onmousedown="handlePan(1,0)">
                  <use xlink:href="#rim" fill="#404040">
                        <set attributeName="fill" to="#808080" begin="arrowRight.mouseover" end="arrowRight.mouseout"/>
                  </use>
                  <path fill="none" stroke="white" stroke-width="1.5" d="M0,-3.0v7 M-2.5,-0.5L0,-3.0L2.5,-0.5"/>
                </g>
                <g id="arrowDown" xlink:href="#dirArrow" transform="rotate(180) translate(-30 -48)" onmousedown="handlePan(0,1)">
                  <use xlink:href="#rim" fill="#404040">
                        <set attributeName="fill" to="#808080" begin="arrowDown.mouseover" end="arrowDown.mouseout"/>
                  </use>
                  <path fill="none" stroke="white" stroke-width="1.5" d="M0,-3.0v7 M-2.5,-0.5L0,-3.0L2.5,-0.5"/>
                </g>
                <g id="arrowLeft" xlink:href="#dirArrow" transform="rotate(270) translate(-36 17)" onmousedown="handlePan(-1,0)">
                  <use xlink:href="#rim" fill="#404040">
                        <set attributeName="fill" to="#808080" begin="arrowLeft.mouseover" end="arrowLeft.mouseout"/>
                  </use>
                  <path fill="none" stroke="white" stroke-width="1.5" d="M0,-3.0v7 M-2.5,-0.5L0,-3.0L2.5,-0.5"/>
                </g>
        </g>
        <svg viewBox="0 0 15 15" width="100%" height="30px" preserveAspectRatio="xMaxYMin meet">
         <g id="arrow_out" transform="scale(0.3 0.3)">
          <a xlink:href="Filters_8h__dep__incl_org.svg" target="_base">
           <rect id="button" ry="5" rx="5" y="6" x="6" height="38" width="38"
                fill="#f2f5e9" fill-opacity="0.5" stroke="#606060" stroke-width="1.0"/>
           <path id="arrow"
             d="M 11.500037,31.436501 C 11.940474,20.09759 22.043105,11.32322 32.158766,21.979434 L 37.068811,17.246167 C 37.068811,17.246167 37.088388,32 37.088388,32 L 22.160133,31.978069 C 22.160133,31.978069 26.997745,27.140456 26.997745,27.140456 C 18.528582,18.264221 13.291696,25.230495 11.500037,31.436501 z"
             style="fill:#404040;"/>
          </a>
         </g>
        </svg>
</svg>
