<?xml version="1.0" encoding="UTF-8" standalone="no"?>
<!DOCTYPE svg PUBLIC "-//W3C//DTD SVG 1.1//EN"
 "http://www.w3.org/Graphics/SVG/1.1/DTD/svg11.dtd">
<!-- Generated by graphviz version 2.43.0 (0)
 -->
<!-- Title: Filters.h Pages: 1 -->
<svg width="454pt" height="95pt"
 viewBox="0.00 0.00 454.00 95.00" xmlns="http://www.w3.org/2000/svg" xmlns:xlink="http://www.w3.org/1999/xlink">
<g id="graph0" class="graph" transform="scale(1 1) rotate(0) translate(4 91)">
<title>Filters.h</title>
<polygon fill="white" stroke="transparent" points="-4,4 -4,-91 450,-91 450,4 -4,4"/>
<!-- Node1 -->
<g id="node1" class="node">
<title>Node1</title>
<g id="a_node1"><a xlink:title="List of Filters.">
<polygon fill="#bfbfbf" stroke="black" points="242.5,-67.5 242.5,-86.5 298.5,-86.5 298.5,-67.5 242.5,-67.5"/>
<text text-anchor="middle" x="270.5" y="-74.5" font-family="Helvetica,sans-Serif" font-size="10.00">Filters.h</text>
</a>
</g>
</g>
<!-- Node2 -->
<g id="node2" class="node">
<title>Node2</title>
<g id="a_node2"><a xlink:title=" ">
<polygon fill="white" stroke="#bfbfbf" points="0,-6 0,-25 137,-25 137,-6 0,-6"/>
<text text-anchor="middle" x="68.5" y="-13" font-family="Helvetica,sans-Serif" font-size="10.00">autodiff/forward/real.hpp</text>
</a>
</g>
</g>
<!-- Node1&#45;&gt;Node2 -->
<g id="edge1" class="edge">
<title>Node1&#45;&gt;Node2</title>
<path fill="none" stroke="midnightblue" d="M242.41,-67.73C207.31,-57.39 147.04,-39.64 107.49,-27.98"/>
<polygon fill="midnightblue" stroke="midnightblue" points="108.24,-24.56 97.66,-25.09 106.26,-31.27 108.24,-24.56"/>
</g>
<!-- Node3 -->
<g id="node3" class="node">
<title>Node3</title>
<g id="a_node3"><a xlink:title=" ">
<polygon fill="white" stroke="#bfbfbf" points="155.5,-0.5 155.5,-30.5 271.5,-30.5 271.5,-0.5 155.5,-0.5"/>
<text text-anchor="start" x="163.5" y="-18.5" font-family="Helvetica,sans-Serif" font-size="10.00">autodiff/forward/real</text>
<text text-anchor="middle" x="213.5" y="-7.5" font-family="Helvetica,sans-Serif" font-size="10.00">/eigen.hpp</text>
</a>
</g>
</g>
<!-- Node1&#45;&gt;Node3 -->
<g id="edge2" class="edge">
<title>Node1&#45;&gt;Node3</title>
<path fill="none" stroke="midnightblue" d="M262.33,-67.48C254.97,-59.79 243.84,-48.17 234.06,-37.96"/>
<polygon fill="midnightblue" stroke="midnightblue" points="236.38,-35.32 226.93,-30.52 231.32,-40.17 236.38,-35.32"/>
</g>
<!-- Node4 -->
<g id="node4" class="node">
<title>Node4</title>
<g id="a_node4"><a xlink:title=" ">
<polygon fill="white" stroke="#bfbfbf" points="290,-6 290,-25 367,-25 367,-6 290,-6"/>
<text text-anchor="middle" x="328.5" y="-13" font-family="Helvetica,sans-Serif" font-size="10.00">Eigen/Dense</text>
</a>
</g>
</g>
<!-- Node1&#45;&gt;Node4 -->
<g id="edge3" class="edge">
<title>Node1&#45;&gt;Node4</title>
<path fill="none" stroke="midnightblue" d="M278.81,-67.48C287.68,-58.37 301.95,-43.74 312.92,-32.48"/>
<polygon fill="midnightblue" stroke="midnightblue" points="315.73,-34.61 320.21,-25.01 310.72,-29.73 315.73,-34.61"/>
</g>
<!-- Node5 -->
<g id="node5" class="node">
<title>Node5</title>
<g id="a_node5"><a xlink:title=" ">
<polygon fill="white" stroke="#bfbfbf" points="385,-6 385,-25 446,-25 446,-6 385,-6"/>
<text text-anchor="middle" x="415.5" y="-13" font-family="Helvetica,sans-Serif" font-size="10.00">Eigen/QR</text>
</a>
</g>
</g>
<!-- Node1&#45;&gt;Node5 -->
<g id="edge4" class="edge">
<title>Node1&#45;&gt;Node5</title>
<path fill="none" stroke="midnightblue" d="M291.27,-67.48C315.93,-57.36 357.25,-40.4 385.4,-28.85"/>
<polygon fill="midnightblue" stroke="midnightblue" points="386.84,-32.04 394.76,-25.01 384.18,-25.57 386.84,-32.04"/>
</g>
</g>
</svg>
