<?xml version="1.0" encoding="UTF-8" standalone="no"?>
<!DOCTYPE svg PUBLIC "-//W3C//DTD SVG 1.1//EN"
 "http://www.w3.org/Graphics/SVG/1.1/DTD/svg11.dtd">
<!-- Generated by graphviz version 2.43.0 (0)
 -->
<!-- Title: GNSSReceiver.h Pages: 1 -->
<!--zoomable 397 -->
<svg id="main" version="1.1" xmlns="http://www.w3.org/2000/svg" xmlns:xlink="http://www.w3.org/1999/xlink" xml:space="preserve" onload="init(evt)">
<style type="text/css"><![CDATA[
.edge:hover path { stroke: red; }
.edge:hover polygon { stroke: red; fill: red; }
]]></style>
<script type="text/javascript"><![CDATA[
var edges = document.getElementsByTagName('g');
if (edges && edges.length) {
  for (var i=0;i<edges.length;i++) {
    if (edges[i].id.substr(0,4)=='edge') {
      edges[i].setAttribute('class','edge');
    }
  }
}
]]></script>
        <defs>
                <circle id="rim" cx="0" cy="0" r="7"/>
                <circle id="rim2" cx="0" cy="0" r="3.5"/>
                <g id="zoomPlus">
                        <use xlink:href="#rim" fill="#404040">
                                <set attributeName="fill" to="#808080" begin="zoomplus.mouseover" end="zoomplus.mouseout"/>
                        </use>
                        <path d="M-4,0h8M0,-4v8" fill="none" stroke="white" stroke-width="1.5" pointer-events="none"/>
                </g>
                <g id="zoomMin">
                        <use xlink:href="#rim" fill="#404040">
                                <set attributeName="fill" to="#808080" begin="zoomminus.mouseover" end="zoomminus.mouseout"/>
                        </use>
                        <path d="M-4,0h8" fill="none" stroke="white" stroke-width="1.5" pointer-events="none"/>
                </g>
                <g id="dirArrow">
                        <path fill="none" stroke="white" stroke-width="1.5" d="M0,-3.0v7 M-2.5,-0.5L0,-3.0L2.5,-0.5"/>
                </g>
               <g id="resetDef">
                       <use xlink:href="#rim2" fill="#404040">
                               <set attributeName="fill" to="#808080" begin="reset.mouseover" end="reset.mouseout"/>
                       </use>
               </g>
        </defs>

<script type="text/javascript">
var viewWidth = 1579;
var viewHeight = 397;
var sectionId = 'dynsection-0';
</script>
<script xlink:href="svgpan.js"/>
<svg id="graph" class="graph">
<g id="viewport">
<title>GNSSReceiver.h</title>
<polygon fill="white" stroke="transparent" points="-4,4 -4,-393 1575.33,-393 1575.33,4 -4,4"/>
<!-- Node1 -->
<g id="node1" class="node">
<title>Node1</title>
<g id="a_node1"><a xlink:title="GNSS receiver class.">
<polygon fill="#bfbfbf" stroke="black" points="1111.83,-369.5 1111.83,-388.5 1206.83,-388.5 1206.83,-369.5 1111.83,-369.5"/>
<text text-anchor="middle" x="1159.33" y="-376.5" font-family="Helvetica,sans-Serif" font-size="10.00">GNSSReceiver.h</text>
</a>
</g>
</g>
<!-- Node2 -->
<g id="node2" class="node">
<title>Node2</title>
<g id="a_node2"><a xlink:href="CommDevice_8h.html" target="_top" xlink:title="Communication devices.">
<polygon fill="white" stroke="black" points="625.83,-252 625.83,-271 780.83,-271 780.83,-252 625.83,-252"/>
<text text-anchor="middle" x="703.33" y="-259" font-family="Helvetica,sans-Serif" font-size="10.00">lupnt/agents/CommDevice.h</text>
</a>
</g>
</g>
<!-- Node1&#45;&gt;Node2 -->
<g id="edge1" class="edge">
<title>Node1&#45;&gt;Node2</title>
<path fill="none" stroke="midnightblue" d="M1111.63,-377.04C1046.31,-374.5 926.12,-365.38 829.33,-333 789.28,-319.6 747.38,-293.3 723.4,-276.89"/>
<polygon fill="midnightblue" stroke="midnightblue" points="725.34,-273.97 715.13,-271.13 721.34,-279.72 725.34,-273.97"/>
</g>
<!-- Node8 -->
<g id="node8" class="node">
<title>Node8</title>
<g id="a_node8"><a xlink:title=" ">
<polygon fill="white" stroke="#bfbfbf" points="1011.33,-0.5 1011.33,-19.5 1055.33,-19.5 1055.33,-0.5 1011.33,-0.5"/>
<text text-anchor="middle" x="1033.33" y="-7.5" font-family="Helvetica,sans-Serif" font-size="10.00">string</text>
</a>
</g>
</g>
<!-- Node1&#45;&gt;Node8 -->
<g id="edge39" class="edge">
<title>Node1&#45;&gt;Node8</title>
<path fill="none" stroke="midnightblue" d="M1206.92,-374.61C1273.48,-367 1386.33,-342.31 1386.33,-262.5 1386.33,-262.5 1386.33,-262.5 1386.33,-132 1386.33,-93.19 1375.36,-77.91 1343.33,-56 1298.61,-25.4 1135.68,-15.17 1065.67,-12.14"/>
<polygon fill="midnightblue" stroke="midnightblue" points="1065.78,-8.64 1055.65,-11.73 1065.5,-15.64 1065.78,-8.64"/>
</g>
<!-- Node15 -->
<g id="node15" class="node">
<title>Node15</title>
<g id="a_node15"><a xlink:href="Transmission_8h.html" target="_top" xlink:title="Signal transmission data.">
<polygon fill="white" stroke="black" points="644.33,-179.5 644.33,-209.5 762.33,-209.5 762.33,-179.5 644.33,-179.5"/>
<text text-anchor="start" x="652.33" y="-197.5" font-family="Helvetica,sans-Serif" font-size="10.00">lupnt/measurements</text>
<text text-anchor="middle" x="703.33" y="-186.5" font-family="Helvetica,sans-Serif" font-size="10.00">/Transmission.h</text>
</a>
</g>
</g>
<!-- Node1&#45;&gt;Node15 -->
<g id="edge38" class="edge">
<title>Node1&#45;&gt;Node15</title>
<path fill="none" stroke="midnightblue" d="M1136.27,-369.5C1090.26,-352.46 983.85,-312.71 895.33,-277 843.17,-255.96 783.62,-230.44 744.85,-213.63"/>
<polygon fill="midnightblue" stroke="midnightblue" points="746.03,-210.33 735.46,-209.56 743.24,-216.75 746.03,-210.33"/>
</g>
<!-- Node23 -->
<g id="node23" class="node">
<title>Node23</title>
<g id="a_node23"><a xlink:title=" ">
<polygon fill="white" stroke="#bfbfbf" points="1286.83,-62 1286.83,-81 1333.83,-81 1333.83,-62 1286.83,-62"/>
<text text-anchor="middle" x="1310.33" y="-69" font-family="Helvetica,sans-Serif" font-size="10.00">vector</text>
</a>
</g>
</g>
<!-- Node1&#45;&gt;Node23 -->
<g id="edge41" class="edge">
<title>Node1&#45;&gt;Node23</title>
<path fill="none" stroke="midnightblue" d="M1207.03,-370.22C1263.02,-358.04 1348.33,-328.64 1348.33,-262.5 1348.33,-262.5 1348.33,-262.5 1348.33,-193.5 1348.33,-155.31 1330.89,-113.33 1319.64,-90.22"/>
<polygon fill="midnightblue" stroke="midnightblue" points="1322.62,-88.36 1314.99,-81.02 1316.38,-91.52 1322.62,-88.36"/>
</g>
<!-- Node24 -->
<g id="node24" class="node">
<title>Node24</title>
<g id="a_node24"><a xlink:title=" ">
<polygon fill="white" stroke="#bfbfbf" points="1223.83,-313.5 1223.83,-332.5 1264.83,-332.5 1264.83,-313.5 1223.83,-313.5"/>
<text text-anchor="middle" x="1244.33" y="-320.5" font-family="Helvetica,sans-Serif" font-size="10.00">tuple</text>
</a>
</g>
</g>
<!-- Node1&#45;&gt;Node24 -->
<g id="edge40" class="edge">
<title>Node1&#45;&gt;Node24</title>
<path fill="none" stroke="midnightblue" d="M1172.99,-369.32C1186.25,-360.9 1206.6,-347.97 1222.18,-338.07"/>
<polygon fill="midnightblue" stroke="midnightblue" points="1224.15,-340.97 1230.71,-332.65 1220.39,-335.06 1224.15,-340.97"/>
</g>
<!-- Node25 -->
<g id="node25" class="node">
<title>Node25</title>
<g id="a_node25"><a xlink:href="GNSSChannel_8h.html" target="_top" xlink:title="GNSS Channel class.">
<polygon fill="white" stroke="black" points="1113.33,-313.5 1113.33,-332.5 1205.33,-332.5 1205.33,-313.5 1113.33,-313.5"/>
<text text-anchor="middle" x="1159.33" y="-320.5" font-family="Helvetica,sans-Serif" font-size="10.00">GNSSChannel.h</text>
</a>
</g>
</g>
<!-- Node1&#45;&gt;Node25 -->
<g id="edge42" class="edge">
<title>Node1&#45;&gt;Node25</title>
<path fill="none" stroke="midnightblue" d="M1159.33,-369.08C1159.33,-362.01 1159.33,-351.86 1159.33,-342.99"/>
<polygon fill="midnightblue" stroke="midnightblue" points="1162.83,-342.75 1159.33,-332.75 1155.83,-342.75 1162.83,-342.75"/>
</g>
<!-- Node29 -->
<g id="node29" class="node">
<title>Node29</title>
<g id="a_node29"><a xlink:href="GNSSMeasurement_8h.html" target="_top" xlink:title="Class that constructs GPS measurement data from channel observables.">
<polygon fill="white" stroke="black" points="904.33,-252 904.33,-271 1024.33,-271 1024.33,-252 904.33,-252"/>
<text text-anchor="middle" x="964.33" y="-259" font-family="Helvetica,sans-Serif" font-size="10.00">GNSSMeasurement.h</text>
</a>
</g>
</g>
<!-- Node1&#45;&gt;Node29 -->
<g id="edge52" class="edge">
<title>Node1&#45;&gt;Node29</title>
<path fill="none" stroke="midnightblue" d="M1144.68,-369.32C1111.07,-349.41 1028.22,-300.34 987.58,-276.27"/>
<polygon fill="midnightblue" stroke="midnightblue" points="989.28,-273.21 978.89,-271.12 985.72,-279.23 989.28,-273.21"/>
</g>
<!-- Node3 -->
<g id="node3" class="node">
<title>Node3</title>
<g id="a_node3"><a xlink:title=" ">
<polygon fill="white" stroke="#bfbfbf" points="410.83,-62 410.83,-81 547.83,-81 547.83,-62 410.83,-62"/>
<text text-anchor="middle" x="479.33" y="-69" font-family="Helvetica,sans-Serif" font-size="10.00">autodiff/forward/real.hpp</text>
</a>
</g>
</g>
<!-- Node2&#45;&gt;Node3 -->
<g id="edge2" class="edge">
<title>Node2&#45;&gt;Node3</title>
<path fill="none" stroke="midnightblue" d="M625.65,-260C459.66,-257.06 79.33,-239.69 4.33,-143 -1.11,-135.98 -1.61,-129.61 4.33,-123 30.28,-94.15 272.23,-80.49 400.44,-75.23"/>
<polygon fill="midnightblue" stroke="midnightblue" points="400.74,-78.72 410.59,-74.82 400.46,-71.73 400.74,-78.72"/>
</g>
<!-- Node4 -->
<g id="node4" class="node">
<title>Node4</title>
<g id="a_node4"><a xlink:title=" ">
<polygon fill="white" stroke="#bfbfbf" points="643.33,-56.5 643.33,-86.5 759.33,-86.5 759.33,-56.5 643.33,-56.5"/>
<text text-anchor="start" x="651.33" y="-74.5" font-family="Helvetica,sans-Serif" font-size="10.00">autodiff/forward/real</text>
<text text-anchor="middle" x="701.33" y="-63.5" font-family="Helvetica,sans-Serif" font-size="10.00">/eigen.hpp</text>
</a>
</g>
</g>
<!-- Node2&#45;&gt;Node4 -->
<g id="edge3" class="edge">
<title>Node2&#45;&gt;Node4</title>
<path fill="none" stroke="midnightblue" d="M683.43,-251.99C667.18,-243.84 645.31,-229.84 635.33,-210 629.14,-197.69 630.86,-192.03 635.33,-179 641.91,-159.83 652.26,-159.98 663.33,-143 673.27,-127.76 682.97,-109.69 690.09,-95.66"/>
<polygon fill="midnightblue" stroke="midnightblue" points="693.24,-97.18 694.57,-86.67 686.97,-94.06 693.24,-97.18"/>
</g>
<!-- Node5 -->
<g id="node5" class="node">
<title>Node5</title>
<g id="a_node5"><a xlink:title=" ">
<polygon fill="white" stroke="#bfbfbf" points="1140.33,-123.5 1140.33,-142.5 1178.33,-142.5 1178.33,-123.5 1140.33,-123.5"/>
<text text-anchor="middle" x="1159.33" y="-130.5" font-family="Helvetica,sans-Serif" font-size="10.00">map</text>
</a>
</g>
</g>
<!-- Node2&#45;&gt;Node5 -->
<g id="edge4" class="edge">
<title>Node2&#45;&gt;Node5</title>
<path fill="none" stroke="midnightblue" d="M754.34,-251.93C803.65,-243.16 880.25,-228.26 945.33,-210 1012.87,-191.05 1089.9,-161.73 1130.61,-145.61"/>
<polygon fill="midnightblue" stroke="midnightblue" points="1132.15,-148.76 1140.14,-141.81 1129.56,-142.26 1132.15,-148.76"/>
</g>
<!-- Node6 -->
<g id="node6" class="node">
<title>Node6</title>
<g id="a_node6"><a xlink:title=" ">
<polygon fill="white" stroke="#bfbfbf" points="1068.33,-185 1068.33,-204 1126.33,-204 1126.33,-185 1068.33,-185"/>
<text text-anchor="middle" x="1097.33" y="-192" font-family="Helvetica,sans-Serif" font-size="10.00">memory</text>
</a>
</g>
</g>
<!-- Node2&#45;&gt;Node6 -->
<g id="edge5" class="edge">
<title>Node2&#45;&gt;Node6</title>
<path fill="none" stroke="midnightblue" d="M757.94,-251.98C820.44,-242.16 925.85,-225.4 1016.33,-210 1029.89,-207.69 1044.71,-205.07 1057.92,-202.7"/>
<polygon fill="midnightblue" stroke="midnightblue" points="1058.89,-206.08 1068.11,-200.86 1057.65,-199.19 1058.89,-206.08"/>
</g>
<!-- Node7 -->
<g id="node7" class="node">
<title>Node7</title>
<g id="a_node7"><a xlink:href="Antenna_8h.html" target="_top" xlink:title="Antenna class.">
<polygon fill="white" stroke="black" points="818.33,-179.5 818.33,-209.5 936.33,-209.5 936.33,-179.5 818.33,-179.5"/>
<text text-anchor="start" x="826.33" y="-197.5" font-family="Helvetica,sans-Serif" font-size="10.00">lupnt/measurements</text>
<text text-anchor="middle" x="877.33" y="-186.5" font-family="Helvetica,sans-Serif" font-size="10.00">/Antenna.h</text>
</a>
</g>
</g>
<!-- Node2&#45;&gt;Node7 -->
<g id="edge6" class="edge">
<title>Node2&#45;&gt;Node7</title>
<path fill="none" stroke="midnightblue" d="M726.44,-251.87C752.78,-242.03 796.52,-225.69 830.15,-213.13"/>
<polygon fill="midnightblue" stroke="midnightblue" points="831.64,-216.31 839.78,-209.53 829.19,-209.75 831.64,-216.31"/>
</g>
<!-- Node2&#45;&gt;Node15 -->
<g id="edge19" class="edge">
<title>Node2&#45;&gt;Node15</title>
<path fill="none" stroke="midnightblue" d="M703.33,-251.73C703.33,-243.54 703.33,-230.92 703.33,-219.71"/>
<polygon fill="midnightblue" stroke="midnightblue" points="706.83,-219.59 703.33,-209.59 699.83,-219.59 706.83,-219.59"/>
</g>
<!-- Node17 -->
<g id="node17" class="node">
<title>Node17</title>
<g id="a_node17"><a xlink:href="MathUtils_8h.html" target="_top" xlink:title=" ">
<polygon fill="white" stroke="black" points="12.83,-123.5 12.83,-142.5 161.83,-142.5 161.83,-123.5 12.83,-123.5"/>
<text text-anchor="middle" x="87.33" y="-130.5" font-family="Helvetica,sans-Serif" font-size="10.00">lupnt/numerics/MathUtils.h</text>
</a>
</g>
</g>
<!-- Node2&#45;&gt;Node17 -->
<g id="edge24" class="edge">
<title>Node2&#45;&gt;Node17</title>
<path fill="none" stroke="midnightblue" d="M643.76,-252C582.11,-242.88 483.12,-227.35 398.33,-210 301.05,-190.09 188.07,-160.95 128.7,-145.17"/>
<polygon fill="midnightblue" stroke="midnightblue" points="129.51,-141.76 118.94,-142.56 127.7,-148.52 129.51,-141.76"/>
</g>
<!-- Node19 -->
<g id="node19" class="node">
<title>Node19</title>
<g id="a_node19"><a xlink:href="OrbitState_8h.html" target="_top" xlink:title="Orbit states.">
<polygon fill="white" stroke="black" points="406.83,-185 406.83,-204 549.83,-204 549.83,-185 406.83,-185"/>
<text text-anchor="middle" x="478.33" y="-192" font-family="Helvetica,sans-Serif" font-size="10.00">lupnt/physics/OrbitState.h</text>
</a>
</g>
</g>
<!-- Node2&#45;&gt;Node19 -->
<g id="edge28" class="edge">
<title>Node2&#45;&gt;Node19</title>
<path fill="none" stroke="midnightblue" d="M673.46,-251.87C633.42,-240.3 562.27,-219.75 517.85,-206.91"/>
<polygon fill="midnightblue" stroke="midnightblue" points="518.56,-203.48 507.98,-204.06 516.61,-210.2 518.56,-203.48"/>
</g>
<!-- Node7&#45;&gt;Node3 -->
<g id="edge7" class="edge">
<title>Node7&#45;&gt;Node3</title>
<path fill="none" stroke="midnightblue" d="M818.26,-185.6C747.75,-175.7 634.34,-158.21 594.33,-143 589.38,-141.12 533.87,-106.61 501.82,-86.58"/>
<polygon fill="midnightblue" stroke="midnightblue" points="503.42,-83.46 493.09,-81.12 499.71,-89.39 503.42,-83.46"/>
</g>
<!-- Node7&#45;&gt;Node4 -->
<g id="edge8" class="edge">
<title>Node7&#45;&gt;Node4</title>
<path fill="none" stroke="midnightblue" d="M872.25,-179.4C865.89,-163.62 853.58,-138.27 835.33,-123 816.4,-107.15 791.99,-96 769.2,-88.29"/>
<polygon fill="midnightblue" stroke="midnightblue" points="770.15,-84.91 759.56,-85.19 768.01,-91.58 770.15,-84.91"/>
</g>
<!-- Node7&#45;&gt;Node8 -->
<g id="edge9" class="edge">
<title>Node7&#45;&gt;Node8</title>
<path fill="none" stroke="midnightblue" d="M889.32,-179.48C917.6,-146.4 988.42,-63.55 1018.95,-27.83"/>
<polygon fill="midnightblue" stroke="midnightblue" points="1021.96,-29.69 1025.8,-19.82 1016.64,-25.15 1021.96,-29.69"/>
</g>
<!-- Node9 -->
<g id="node9" class="node">
<title>Node9</title>
<g id="a_node9"><a xlink:href="Constants_8h.html" target="_top" xlink:title="List of constants.">
<polygon fill="white" stroke="black" points="996.33,-123.5 996.33,-142.5 1122.33,-142.5 1122.33,-123.5 996.33,-123.5"/>
<text text-anchor="middle" x="1059.33" y="-130.5" font-family="Helvetica,sans-Serif" font-size="10.00">lupnt/core/Constants.h</text>
</a>
</g>
</g>
<!-- Node7&#45;&gt;Node9 -->
<g id="edge10" class="edge">
<title>Node7&#45;&gt;Node9</title>
<path fill="none" stroke="midnightblue" d="M920.47,-179.4C951.91,-169.12 994.03,-155.35 1023.6,-145.68"/>
<polygon fill="midnightblue" stroke="midnightblue" points="1024.7,-149.01 1033.12,-142.57 1022.52,-142.35 1024.7,-149.01"/>
</g>
<!-- Node9&#45;&gt;Node3 -->
<g id="edge12" class="edge">
<title>Node9&#45;&gt;Node3</title>
<path fill="none" stroke="midnightblue" d="M996.16,-125.52C889.71,-114.6 674.87,-92.56 558.52,-80.62"/>
<polygon fill="midnightblue" stroke="midnightblue" points="558.56,-77.11 548.26,-79.57 557.85,-84.07 558.56,-77.11"/>
</g>
<!-- Node9&#45;&gt;Node8 -->
<g id="edge13" class="edge">
<title>Node9&#45;&gt;Node8</title>
<path fill="none" stroke="midnightblue" d="M1057.46,-123.3C1053.27,-103.76 1043.02,-56.06 1037.32,-29.55"/>
<polygon fill="midnightblue" stroke="midnightblue" points="1040.71,-28.66 1035.19,-19.62 1033.87,-30.14 1040.71,-28.66"/>
</g>
<!-- Node10 -->
<g id="node10" class="node">
<title>Node10</title>
<g id="a_node10"><a xlink:title=" ">
<polygon fill="white" stroke="#bfbfbf" points="1061.83,-62 1061.83,-81 1212.83,-81 1212.83,-62 1061.83,-62"/>
<text text-anchor="middle" x="1137.33" y="-69" font-family="Helvetica,sans-Serif" font-size="10.00">autodiff/common/eigen.hpp</text>
</a>
</g>
</g>
<!-- Node9&#45;&gt;Node10 -->
<g id="edge11" class="edge">
<title>Node9&#45;&gt;Node10</title>
<path fill="none" stroke="midnightblue" d="M1070.51,-123.48C1082.9,-114.02 1103.12,-98.6 1118.08,-87.19"/>
<polygon fill="midnightblue" stroke="midnightblue" points="1120.35,-89.86 1126.18,-81.01 1116.11,-84.29 1120.35,-89.86"/>
</g>
<!-- Node11 -->
<g id="node11" class="node">
<title>Node11</title>
<g id="a_node11"><a xlink:href="UserFilePath_8h.html" target="_top" xlink:title="File access utils.">
<polygon fill="white" stroke="black" points="1414.33,-62 1414.33,-81 1500.33,-81 1500.33,-62 1414.33,-62"/>
<text text-anchor="middle" x="1457.33" y="-69" font-family="Helvetica,sans-Serif" font-size="10.00">UserFilePath.h</text>
</a>
</g>
</g>
<!-- Node9&#45;&gt;Node11 -->
<g id="edge14" class="edge">
<title>Node9&#45;&gt;Node11</title>
<path fill="none" stroke="midnightblue" d="M1116.36,-123.48C1193.24,-111.98 1329.11,-91.67 1404.03,-80.47"/>
<polygon fill="midnightblue" stroke="midnightblue" points="1404.81,-83.89 1414.18,-78.95 1403.78,-76.97 1404.81,-83.89"/>
</g>
<!-- Node11&#45;&gt;Node8 -->
<g id="edge18" class="edge">
<title>Node11&#45;&gt;Node8</title>
<path fill="none" stroke="midnightblue" d="M1426.73,-61.95C1418.23,-59.79 1408.96,-57.62 1400.33,-56 1277.77,-32.99 1129.89,-18.99 1065.69,-13.58"/>
<polygon fill="midnightblue" stroke="midnightblue" points="1065.66,-10.06 1055.41,-12.72 1065.08,-17.04 1065.66,-10.06"/>
</g>
<!-- Node12 -->
<g id="node12" class="node">
<title>Node12</title>
<g id="a_node12"><a xlink:title=" ">
<polygon fill="white" stroke="#bfbfbf" points="1503.33,-0.5 1503.33,-19.5 1571.33,-19.5 1571.33,-0.5 1503.33,-0.5"/>
<text text-anchor="middle" x="1537.33" y="-7.5" font-family="Helvetica,sans-Serif" font-size="10.00">filesystem</text>
</a>
</g>
</g>
<!-- Node11&#45;&gt;Node12 -->
<g id="edge15" class="edge">
<title>Node11&#45;&gt;Node12</title>
<path fill="none" stroke="midnightblue" d="M1468.8,-61.98C1481.51,-52.52 1502.25,-37.1 1517.59,-25.69"/>
<polygon fill="midnightblue" stroke="midnightblue" points="1519.96,-28.29 1525.89,-19.51 1515.78,-22.67 1519.96,-28.29"/>
</g>
<!-- Node13 -->
<g id="node13" class="node">
<title>Node13</title>
<g id="a_node13"><a xlink:title=" ">
<polygon fill="white" stroke="#bfbfbf" points="1351.33,-0.5 1351.33,-19.5 1411.33,-19.5 1411.33,-0.5 1351.33,-0.5"/>
<text text-anchor="middle" x="1381.33" y="-7.5" font-family="Helvetica,sans-Serif" font-size="10.00">iostream</text>
</a>
</g>
</g>
<!-- Node11&#45;&gt;Node13 -->
<g id="edge16" class="edge">
<title>Node11&#45;&gt;Node13</title>
<path fill="none" stroke="midnightblue" d="M1446.45,-61.98C1434.37,-52.52 1414.67,-37.1 1400.09,-25.69"/>
<polygon fill="midnightblue" stroke="midnightblue" points="1402.23,-22.92 1392.2,-19.51 1397.92,-28.43 1402.23,-22.92"/>
</g>
<!-- Node14 -->
<g id="node14" class="node">
<title>Node14</title>
<g id="a_node14"><a xlink:title=" ">
<polygon fill="white" stroke="#bfbfbf" points="1429.33,-0.5 1429.33,-19.5 1485.33,-19.5 1485.33,-0.5 1429.33,-0.5"/>
<text text-anchor="middle" x="1457.33" y="-7.5" font-family="Helvetica,sans-Serif" font-size="10.00">optional</text>
</a>
</g>
</g>
<!-- Node11&#45;&gt;Node14 -->
<g id="edge17" class="edge">
<title>Node11&#45;&gt;Node14</title>
<path fill="none" stroke="midnightblue" d="M1457.33,-61.98C1457.33,-53.58 1457.33,-40.48 1457.33,-29.66"/>
<polygon fill="midnightblue" stroke="midnightblue" points="1460.83,-29.51 1457.33,-19.51 1453.83,-29.51 1460.83,-29.51"/>
</g>
<!-- Node15&#45;&gt;Node3 -->
<g id="edge21" class="edge">
<title>Node15&#45;&gt;Node3</title>
<path fill="none" stroke="midnightblue" d="M648.59,-179.46C621.03,-171.1 587.74,-158.98 560.33,-143 534.55,-127.97 509.34,-104.17 494.06,-88.44"/>
<polygon fill="midnightblue" stroke="midnightblue" points="496.46,-85.88 487.03,-81.04 491.39,-90.7 496.46,-85.88"/>
</g>
<!-- Node15&#45;&gt;Node4 -->
<g id="edge22" class="edge">
<title>Node15&#45;&gt;Node4</title>
<path fill="none" stroke="midnightblue" d="M703.1,-179.14C702.76,-158.86 702.14,-121.53 701.74,-96.86"/>
<polygon fill="midnightblue" stroke="midnightblue" points="705.24,-96.78 701.57,-86.84 698.24,-96.89 705.24,-96.78"/>
</g>
<!-- Node15&#45;&gt;Node8 -->
<g id="edge23" class="edge">
<title>Node15&#45;&gt;Node8</title>
<path fill="none" stroke="midnightblue" d="M747.52,-179.43C773.69,-170.41 807.14,-157.66 835.33,-143 896.69,-111.1 906.7,-94.22 964.33,-56 980.02,-45.6 997.82,-33.99 1011.41,-25.18"/>
<polygon fill="midnightblue" stroke="midnightblue" points="1013.58,-27.94 1020.07,-19.57 1009.77,-22.07 1013.58,-27.94"/>
</g>
<!-- Node16 -->
<g id="node16" class="node">
<title>Node16</title>
<g id="a_node16"><a xlink:title=" ">
<polygon fill="white" stroke="#bfbfbf" points="748.83,-123.5 748.83,-142.5 825.83,-142.5 825.83,-123.5 748.83,-123.5"/>
<text text-anchor="middle" x="787.33" y="-130.5" font-family="Helvetica,sans-Serif" font-size="10.00">Eigen/Dense</text>
</a>
</g>
</g>
<!-- Node15&#45;&gt;Node16 -->
<g id="edge20" class="edge">
<title>Node15&#45;&gt;Node16</title>
<path fill="none" stroke="midnightblue" d="M723.24,-179.4C736.33,-170.13 753.42,-158.03 766.66,-148.65"/>
<polygon fill="midnightblue" stroke="midnightblue" points="768.97,-151.29 775.11,-142.66 764.93,-145.58 768.97,-151.29"/>
</g>
<!-- Node17&#45;&gt;Node3 -->
<g id="edge25" class="edge">
<title>Node17&#45;&gt;Node3</title>
<path fill="none" stroke="midnightblue" d="M143.5,-123.48C214.82,-112.65 337.67,-94 413.37,-82.51"/>
<polygon fill="midnightblue" stroke="midnightblue" points="413.91,-85.97 423.27,-81.01 412.86,-79.05 413.91,-85.97"/>
</g>
<!-- Node17&#45;&gt;Node4 -->
<g id="edge26" class="edge">
<title>Node17&#45;&gt;Node4</title>
<path fill="none" stroke="midnightblue" d="M161.98,-123.95C165.14,-123.62 168.27,-123.31 171.33,-123 342.78,-105.82 385.84,-103.63 557.33,-87 582.06,-84.6 609.17,-81.89 633.13,-79.47"/>
<polygon fill="midnightblue" stroke="midnightblue" points="633.59,-82.94 643.19,-78.45 632.89,-75.98 633.59,-82.94"/>
</g>
<!-- Node18 -->
<g id="node18" class="node">
<title>Node18</title>
<g id="a_node18"><a xlink:title=" ">
<polygon fill="white" stroke="#bfbfbf" points="60.33,-62 60.33,-81 114.33,-81 114.33,-62 60.33,-62"/>
<text text-anchor="middle" x="87.33" y="-69" font-family="Helvetica,sans-Serif" font-size="10.00">random</text>
</a>
</g>
</g>
<!-- Node17&#45;&gt;Node18 -->
<g id="edge27" class="edge">
<title>Node17&#45;&gt;Node18</title>
<path fill="none" stroke="midnightblue" d="M87.33,-123.48C87.33,-115.08 87.33,-101.98 87.33,-91.16"/>
<polygon fill="midnightblue" stroke="midnightblue" points="90.83,-91.01 87.33,-81.01 83.83,-91.01 90.83,-91.01"/>
</g>
<!-- Node19&#45;&gt;Node3 -->
<g id="edge30" class="edge">
<title>Node19&#45;&gt;Node3</title>
<path fill="none" stroke="midnightblue" d="M469.72,-184.68C458.05,-171.62 439.43,-146.19 446.33,-123 450.05,-110.52 457.93,-98.26 465.07,-88.94"/>
<polygon fill="midnightblue" stroke="midnightblue" points="467.93,-90.97 471.51,-81 462.49,-86.56 467.93,-90.97"/>
</g>
<!-- Node19&#45;&gt;Node4 -->
<g id="edge31" class="edge">
<title>Node19&#45;&gt;Node4</title>
<path fill="none" stroke="midnightblue" d="M491.64,-184.78C512.93,-170.98 556.15,-143.54 594.33,-123 615.57,-111.57 639.84,-100.01 659.88,-90.83"/>
<polygon fill="midnightblue" stroke="midnightblue" points="661.4,-93.98 669.06,-86.66 658.51,-87.61 661.4,-93.98"/>
</g>
<!-- Node19&#45;&gt;Node16 -->
<g id="edge29" class="edge">
<title>Node19&#45;&gt;Node16</title>
<path fill="none" stroke="midnightblue" d="M522.61,-184.98C579.87,-173.95 679.29,-154.81 738.63,-143.38"/>
<polygon fill="midnightblue" stroke="midnightblue" points="739.36,-146.8 748.51,-141.47 738.03,-139.93 739.36,-146.8"/>
</g>
<!-- Node20 -->
<g id="node20" class="node">
<title>Node20</title>
<g id="a_node20"><a xlink:title=" ">
<polygon fill="white" stroke="#bfbfbf" points="180.33,-123.5 180.33,-142.5 310.33,-142.5 310.33,-123.5 180.33,-123.5"/>
<text text-anchor="middle" x="245.33" y="-130.5" font-family="Helvetica,sans-Serif" font-size="10.00">boost/preprocessor.hpp</text>
</a>
</g>
</g>
<!-- Node19&#45;&gt;Node20 -->
<g id="edge32" class="edge">
<title>Node19&#45;&gt;Node20</title>
<path fill="none" stroke="midnightblue" d="M444.95,-184.98C403.77,-174.46 333.68,-156.56 288.47,-145.01"/>
<polygon fill="midnightblue" stroke="midnightblue" points="289.21,-141.59 278.66,-142.51 287.48,-148.37 289.21,-141.59"/>
</g>
<!-- Node21 -->
<g id="node21" class="node">
<title>Node21</title>
<g id="a_node21"><a xlink:title=" ">
<polygon fill="white" stroke="#bfbfbf" points="328.83,-123.5 328.83,-142.5 393.83,-142.5 393.83,-123.5 328.83,-123.5"/>
<text text-anchor="middle" x="361.33" y="-130.5" font-family="Helvetica,sans-Serif" font-size="10.00">stdexcept</text>
</a>
</g>
</g>
<!-- Node19&#45;&gt;Node21 -->
<g id="edge33" class="edge">
<title>Node19&#45;&gt;Node21</title>
<path fill="none" stroke="midnightblue" d="M461.57,-184.98C442.11,-175.08 409.79,-158.64 387.12,-147.12"/>
<polygon fill="midnightblue" stroke="midnightblue" points="388.57,-143.92 378.07,-142.51 385.39,-150.16 388.57,-143.92"/>
</g>
<!-- Node22 -->
<g id="node22" class="node">
<title>Node22</title>
<g id="a_node22"><a xlink:href="State_8h.html" target="_top" xlink:title="SPICE Interface functions.">
<polygon fill="white" stroke="black" points="602.83,-123.5 602.83,-142.5 653.83,-142.5 653.83,-123.5 602.83,-123.5"/>
<text text-anchor="middle" x="628.33" y="-130.5" font-family="Helvetica,sans-Serif" font-size="10.00">State.h</text>
</a>
</g>
</g>
<!-- Node19&#45;&gt;Node22 -->
<g id="edge34" class="edge">
<title>Node19&#45;&gt;Node22</title>
<path fill="none" stroke="midnightblue" d="M499.83,-184.98C525.44,-174.81 568.44,-157.76 597.58,-146.2"/>
<polygon fill="midnightblue" stroke="midnightblue" points="598.88,-149.45 606.88,-142.51 596.3,-142.94 598.88,-149.45"/>
</g>
<!-- Node22&#45;&gt;Node3 -->
<g id="edge35" class="edge">
<title>Node22&#45;&gt;Node3</title>
<path fill="none" stroke="midnightblue" d="M606.99,-123.48C581.65,-113.36 539.2,-96.4 510.26,-84.85"/>
<polygon fill="midnightblue" stroke="midnightblue" points="511.23,-81.47 500.64,-81.01 508.63,-87.97 511.23,-81.47"/>
</g>
<!-- Node22&#45;&gt;Node4 -->
<g id="edge36" class="edge">
<title>Node22&#45;&gt;Node4</title>
<path fill="none" stroke="midnightblue" d="M638.79,-123.48C648.5,-115.57 663.32,-103.48 676.1,-93.07"/>
<polygon fill="midnightblue" stroke="midnightblue" points="678.59,-95.55 684.13,-86.52 674.17,-90.13 678.59,-95.55"/>
</g>
<!-- Node22&#45;&gt;Node23 -->
<g id="edge37" class="edge">
<title>Node22&#45;&gt;Node23</title>
<path fill="none" stroke="midnightblue" d="M654.13,-129.89C676.83,-128.03 710.77,-125.29 740.33,-123 954.51,-106.4 1009.03,-112.49 1222.33,-87 1240.24,-84.86 1260.07,-81.67 1276.37,-78.82"/>
<polygon fill="midnightblue" stroke="midnightblue" points="1277.28,-82.21 1286.51,-77.01 1276.05,-75.32 1277.28,-82.21"/>
</g>
<!-- Node25&#45;&gt;Node23 -->
<g id="edge51" class="edge">
<title>Node25&#45;&gt;Node23</title>
<path fill="none" stroke="midnightblue" d="M1171.41,-313.27C1194.3,-296.09 1244.15,-255.58 1271.33,-210 1294.24,-171.59 1304.23,-119.1 1308.13,-91.4"/>
<polygon fill="midnightblue" stroke="midnightblue" points="1311.64,-91.53 1309.45,-81.16 1304.7,-90.63 1311.64,-91.53"/>
</g>
<!-- Node26 -->
<g id="node26" class="node">
<title>Node26</title>
<g id="a_node26"><a xlink:href="Occultation_8h.html" target="_top" xlink:title="Signal blockage model.">
<polygon fill="white" stroke="black" points="1144.33,-179.5 1144.33,-209.5 1262.33,-209.5 1262.33,-179.5 1144.33,-179.5"/>
<text text-anchor="start" x="1152.33" y="-197.5" font-family="Helvetica,sans-Serif" font-size="10.00">lupnt/measurements</text>
<text text-anchor="middle" x="1203.33" y="-186.5" font-family="Helvetica,sans-Serif" font-size="10.00">/Occultation.h</text>
</a>
</g>
</g>
<!-- Node25&#45;&gt;Node26 -->
<g id="edge43" class="edge">
<title>Node25&#45;&gt;Node26</title>
<path fill="none" stroke="midnightblue" d="M1165.07,-313.39C1170.71,-304.58 1179.19,-290.34 1184.33,-277 1191.54,-258.32 1196.49,-236.13 1199.53,-219.63"/>
<polygon fill="midnightblue" stroke="midnightblue" points="1202.99,-220.15 1201.26,-209.7 1196.1,-218.95 1202.99,-220.15"/>
</g>
<!-- Node28 -->
<g id="node28" class="node">
<title>Node28</title>
<g id="a_node28"><a xlink:href="SpaceChannel_8h.html" target="_top" xlink:title="Base spacechannel class (Under devlopment )">
<polygon fill="white" stroke="black" points="1057.33,-246.5 1057.33,-276.5 1175.33,-276.5 1175.33,-246.5 1057.33,-246.5"/>
<text text-anchor="start" x="1065.33" y="-264.5" font-family="Helvetica,sans-Serif" font-size="10.00">lupnt/measurements</text>
<text text-anchor="middle" x="1116.33" y="-253.5" font-family="Helvetica,sans-Serif" font-size="10.00">/SpaceChannel.h</text>
</a>
</g>
</g>
<!-- Node25&#45;&gt;Node28 -->
<g id="edge48" class="edge">
<title>Node25&#45;&gt;Node28</title>
<path fill="none" stroke="midnightblue" d="M1153.17,-313.48C1147.78,-306.02 1139.71,-294.85 1132.5,-284.87"/>
<polygon fill="midnightblue" stroke="midnightblue" points="1135.16,-282.58 1126.47,-276.52 1129.49,-286.68 1135.16,-282.58"/>
</g>
<!-- Node26&#45;&gt;Node4 -->
<g id="edge45" class="edge">
<title>Node26&#45;&gt;Node4</title>
<path fill="none" stroke="midnightblue" d="M1204.54,-179.48C1205.09,-163.29 1203.2,-137.07 1187.33,-123 1156.74,-95.86 896.49,-80.96 769.92,-75.25"/>
<polygon fill="midnightblue" stroke="midnightblue" points="769.72,-71.74 759.57,-74.79 769.4,-78.73 769.72,-71.74"/>
</g>
<!-- Node26&#45;&gt;Node5 -->
<g id="edge47" class="edge">
<title>Node26&#45;&gt;Node5</title>
<path fill="none" stroke="midnightblue" d="M1192.91,-179.4C1186.58,-170.84 1178.47,-159.87 1171.8,-150.86"/>
<polygon fill="midnightblue" stroke="midnightblue" points="1174.5,-148.62 1165.74,-142.66 1168.87,-152.78 1174.5,-148.62"/>
</g>
<!-- Node26&#45;&gt;Node9 -->
<g id="edge44" class="edge">
<title>Node26&#45;&gt;Node9</title>
<path fill="none" stroke="midnightblue" d="M1169.21,-179.4C1145.05,-169.42 1112.93,-156.15 1089.67,-146.53"/>
<polygon fill="midnightblue" stroke="midnightblue" points="1090.87,-143.24 1080.29,-142.66 1088.19,-149.71 1090.87,-143.24"/>
</g>
<!-- Node27 -->
<g id="node27" class="node">
<title>Node27</title>
<g id="a_node27"><a xlink:title=" ">
<polygon fill="white" stroke="#bfbfbf" points="1234.83,-123.5 1234.83,-142.5 1281.83,-142.5 1281.83,-123.5 1234.83,-123.5"/>
<text text-anchor="middle" x="1258.33" y="-130.5" font-family="Helvetica,sans-Serif" font-size="10.00">cmath</text>
</a>
</g>
</g>
<!-- Node26&#45;&gt;Node27 -->
<g id="edge46" class="edge">
<title>Node26&#45;&gt;Node27</title>
<path fill="none" stroke="midnightblue" d="M1216.37,-179.4C1224.53,-170.58 1235.06,-159.18 1243.53,-150.02"/>
<polygon fill="midnightblue" stroke="midnightblue" points="1246.11,-152.38 1250.33,-142.66 1240.97,-147.63 1246.11,-152.38"/>
</g>
<!-- Node28&#45;&gt;Node6 -->
<g id="edge50" class="edge">
<title>Node28&#45;&gt;Node6</title>
<path fill="none" stroke="midnightblue" d="M1112.21,-246.4C1109.42,-236.86 1105.72,-224.18 1102.7,-213.86"/>
<polygon fill="midnightblue" stroke="midnightblue" points="1106.04,-212.81 1099.88,-204.19 1099.32,-214.77 1106.04,-212.81"/>
</g>
<!-- Node28&#45;&gt;Node26 -->
<g id="edge49" class="edge">
<title>Node28&#45;&gt;Node26</title>
<path fill="none" stroke="midnightblue" d="M1135.21,-246.4C1147.18,-237.45 1162.86,-225.74 1176.16,-215.8"/>
<polygon fill="midnightblue" stroke="midnightblue" points="1178.58,-218.37 1184.49,-209.58 1174.39,-212.76 1178.58,-218.37"/>
</g>
<!-- Node29&#45;&gt;Node3 -->
<g id="edge56" class="edge">
<title>Node29&#45;&gt;Node3</title>
<path fill="none" stroke="midnightblue" d="M904.05,-254.24C822.96,-245.3 683.37,-227.97 635.33,-210 583.13,-190.47 569.78,-181.35 529.33,-143 512.72,-127.25 498.15,-105.23 489.09,-90.01"/>
<polygon fill="midnightblue" stroke="midnightblue" points="491.99,-88.04 483.96,-81.12 485.93,-91.53 491.99,-88.04"/>
</g>
<!-- Node29&#45;&gt;Node4 -->
<g id="edge57" class="edge">
<title>Node29&#45;&gt;Node4</title>
<path fill="none" stroke="midnightblue" d="M964.38,-251.78C964.06,-235.86 961.38,-201.64 945.33,-179 904.74,-121.73 826.43,-94.92 769.44,-82.6"/>
<polygon fill="midnightblue" stroke="midnightblue" points="769.92,-79.12 759.42,-80.53 768.51,-85.98 769.92,-79.12"/>
</g>
<!-- Node29&#45;&gt;Node6 -->
<g id="edge58" class="edge">
<title>Node29&#45;&gt;Node6</title>
<path fill="none" stroke="midnightblue" d="M982,-251.87C1004.65,-240.8 1044.16,-221.49 1070.53,-208.6"/>
<polygon fill="midnightblue" stroke="midnightblue" points="1072.15,-211.7 1079.6,-204.17 1069.08,-205.41 1072.15,-211.7"/>
</g>
<!-- Node29&#45;&gt;Node9 -->
<g id="edge53" class="edge">
<title>Node29&#45;&gt;Node9</title>
<path fill="none" stroke="midnightblue" d="M970.86,-251.81C986.46,-231.04 1026.08,-178.27 1046.6,-150.96"/>
<polygon fill="midnightblue" stroke="midnightblue" points="1049.55,-152.85 1052.76,-142.76 1043.95,-148.65 1049.55,-152.85"/>
</g>
<!-- Node29&#45;&gt;Node15 -->
<g id="edge54" class="edge">
<title>Node29&#45;&gt;Node15</title>
<path fill="none" stroke="midnightblue" d="M929.94,-251.94C889.33,-241.82 820.83,-224.76 769.76,-212.04"/>
<polygon fill="midnightblue" stroke="midnightblue" points="770.34,-208.58 759.79,-209.56 768.64,-215.37 770.34,-208.58"/>
</g>
<!-- Node29&#45;&gt;Node16 -->
<g id="edge55" class="edge">
<title>Node29&#45;&gt;Node16</title>
<path fill="none" stroke="midnightblue" d="M904.2,-254.49C872.06,-248.26 834.13,-235.63 809.33,-210 794.51,-194.68 789.58,-170 787.99,-152.95"/>
<polygon fill="midnightblue" stroke="midnightblue" points="791.46,-152.33 787.34,-142.56 784.47,-152.76 791.46,-152.33"/>
</g>
</g>
</svg>
        <g id="navigator" transform="translate(0 0)" fill="#404254">
                <rect fill="#f2f5e9" fill-opacity="0.5" stroke="#606060" stroke-width=".5" x="0" y="0" width="60" height="60"/>
                <use id="zoomplus" xlink:href="#zoomPlus" x="17" y="9" onmousedown="handleZoom(evt,'in')"/>
                <use id="zoomminus" xlink:href="#zoomMin" x="42" y="9" onmousedown="handleZoom(evt,'out')"/>
                <use id="reset" xlink:href="#resetDef" x="30" y="36" onmousedown="handleReset()"/>
                <g id="arrowUp" xlink:href="#dirArrow" transform="translate(30 24)" onmousedown="handlePan(0,-1)">
                  <use xlink:href="#rim" fill="#404040">
                        <set attributeName="fill" to="#808080" begin="arrowUp.mouseover" end="arrowUp.mouseout"/>
                  </use>
                  <path fill="none" stroke="white" stroke-width="1.5" d="M0,-3.0v7 M-2.5,-0.5L0,-3.0L2.5,-0.5"/>
                </g>
                <g id="arrowRight" xlink:href="#dirArrow" transform="rotate(90) translate(36 -43)" onmousedown="handlePan(1,0)">
                  <use xlink:href="#rim" fill="#404040">
                        <set attributeName="fill" to="#808080" begin="arrowRight.mouseover" end="arrowRight.mouseout"/>
                  </use>
                  <path fill="none" stroke="white" stroke-width="1.5" d="M0,-3.0v7 M-2.5,-0.5L0,-3.0L2.5,-0.5"/>
                </g>
                <g id="arrowDown" xlink:href="#dirArrow" transform="rotate(180) translate(-30 -48)" onmousedown="handlePan(0,1)">
                  <use xlink:href="#rim" fill="#404040">
                        <set attributeName="fill" to="#808080" begin="arrowDown.mouseover" end="arrowDown.mouseout"/>
                  </use>
                  <path fill="none" stroke="white" stroke-width="1.5" d="M0,-3.0v7 M-2.5,-0.5L0,-3.0L2.5,-0.5"/>
                </g>
                <g id="arrowLeft" xlink:href="#dirArrow" transform="rotate(270) translate(-36 17)" onmousedown="handlePan(-1,0)">
                  <use xlink:href="#rim" fill="#404040">
                        <set attributeName="fill" to="#808080" begin="arrowLeft.mouseover" end="arrowLeft.mouseout"/>
                  </use>
                  <path fill="none" stroke="white" stroke-width="1.5" d="M0,-3.0v7 M-2.5,-0.5L0,-3.0L2.5,-0.5"/>
                </g>
        </g>
        <svg viewBox="0 0 15 15" width="100%" height="30px" preserveAspectRatio="xMaxYMin meet">
         <g id="arrow_out" transform="scale(0.3 0.3)">
          <a xlink:href="GNSSReceiver_8h__incl_org.svg" target="_base">
           <rect id="button" ry="5" rx="5" y="6" x="6" height="38" width="38"
                fill="#f2f5e9" fill-opacity="0.5" stroke="#606060" stroke-width="1.0"/>
           <path id="arrow"
             d="M 11.500037,31.436501 C 11.940474,20.09759 22.043105,11.32322 32.158766,21.979434 L 37.068811,17.246167 C 37.068811,17.246167 37.088388,32 37.088388,32 L 22.160133,31.978069 C 22.160133,31.978069 26.997745,27.140456 26.997745,27.140456 C 18.528582,18.264221 13.291696,25.230495 11.500037,31.436501 z"
             style="fill:#404040;"/>
          </a>
         </g>
        </svg>
</svg>
