<?xml version="1.0" encoding="UTF-8" standalone="no"?>
<!DOCTYPE svg PUBLIC "-//W3C//DTD SVG 1.1//EN"
 "http://www.w3.org/Graphics/SVG/1.1/DTD/svg11.dtd">
<!-- Generated by graphviz version 2.43.0 (0)
 -->
<!-- Title: GNSSReceiver.h Pages: 1 -->
<!--zoomable 140 -->
<svg id="main" version="1.1" xmlns="http://www.w3.org/2000/svg" xmlns:xlink="http://www.w3.org/1999/xlink" xml:space="preserve" onload="init(evt)">
<style type="text/css"><![CDATA[
.edge:hover path { stroke: red; }
.edge:hover polygon { stroke: red; fill: red; }
]]></style>
<script type="text/javascript"><![CDATA[
var edges = document.getElementsByTagName('g');
if (edges && edges.length) {
  for (var i=0;i<edges.length;i++) {
    if (edges[i].id.substr(0,4)=='edge') {
      edges[i].setAttribute('class','edge');
    }
  }
}
]]></script>
        <defs>
                <circle id="rim" cx="0" cy="0" r="7"/>
                <circle id="rim2" cx="0" cy="0" r="3.5"/>
                <g id="zoomPlus">
                        <use xlink:href="#rim" fill="#404040">
                                <set attributeName="fill" to="#808080" begin="zoomplus.mouseover" end="zoomplus.mouseout"/>
                        </use>
                        <path d="M-4,0h8M0,-4v8" fill="none" stroke="white" stroke-width="1.5" pointer-events="none"/>
                </g>
                <g id="zoomMin">
                        <use xlink:href="#rim" fill="#404040">
                                <set attributeName="fill" to="#808080" begin="zoomminus.mouseover" end="zoomminus.mouseout"/>
                        </use>
                        <path d="M-4,0h8" fill="none" stroke="white" stroke-width="1.5" pointer-events="none"/>
                </g>
                <g id="dirArrow">
                        <path fill="none" stroke="white" stroke-width="1.5" d="M0,-3.0v7 M-2.5,-0.5L0,-3.0L2.5,-0.5"/>
                </g>
               <g id="resetDef">
                       <use xlink:href="#rim2" fill="#404040">
                               <set attributeName="fill" to="#808080" begin="reset.mouseover" end="reset.mouseout"/>
                       </use>
               </g>
        </defs>

<script type="text/javascript">
var viewWidth = 1108;
var viewHeight = 140;
var sectionId = 'dynsection-1';
</script>
<script xlink:href="svgpan.js"/>
<svg id="graph" class="graph">
<g id="viewport">
<title>GNSSReceiver.h</title>
<polygon fill="white" stroke="transparent" points="-4,4 -4,-136 1103.5,-136 1103.5,4 -4,4"/>
<!-- Node1 -->
<g id="node1" class="node">
<title>Node1</title>
<g id="a_node1"><a xlink:title="GNSS receiver class.">
<polygon fill="#bfbfbf" stroke="black" points="498,-112.5 498,-131.5 593,-131.5 593,-112.5 498,-112.5"/>
<text text-anchor="middle" x="545.5" y="-119.5" font-family="Helvetica,sans-Serif" font-size="10.00">GNSSReceiver.h</text>
</a>
</g>
</g>
<!-- Node2 -->
<g id="node2" class="node">
<title>Node2</title>
<g id="a_node2"><a xlink:href="GNSSStateEstimationApp_8h.html" target="_top" xlink:title="State Estimation Application Using GNSS Measurement.">
<polygon fill="white" stroke="black" points="88,-56.5 88,-75.5 237,-75.5 237,-56.5 88,-56.5"/>
<text text-anchor="middle" x="162.5" y="-63.5" font-family="Helvetica,sans-Serif" font-size="10.00">GNSSStateEstimationApp.h</text>
</a>
</g>
</g>
<!-- Node1&#45;&gt;Node2 -->
<g id="edge1" class="edge">
<title>Node1&#45;&gt;Node2</title>
<path fill="none" stroke="midnightblue" d="M487.6,-112.84C416.18,-102.77 295.36,-85.73 222.84,-75.51"/>
<polygon fill="midnightblue" stroke="midnightblue" points="487.38,-116.34 497.77,-114.27 488.35,-109.41 487.38,-116.34"/>
</g>
<!-- Node4 -->
<g id="node4" class="node">
<title>Node4</title>
<g id="a_node4"><a xlink:href="ExampleEKFApp_8cpp.html" target="_top" xlink:title="Example of EKF application.">
<polygon fill="white" stroke="black" points="179.5,-0.5 179.5,-19.5 295.5,-19.5 295.5,-0.5 179.5,-0.5"/>
<text text-anchor="middle" x="237.5" y="-7.5" font-family="Helvetica,sans-Serif" font-size="10.00">ExampleEKFApp.cpp</text>
</a>
</g>
</g>
<!-- Node1&#45;&gt;Node4 -->
<g id="edge10" class="edge">
<title>Node1&#45;&gt;Node4</title>
<path fill="none" stroke="midnightblue" d="M487.51,-116.22C420.93,-109.85 316.62,-96.88 283.5,-76 261.75,-62.29 247.32,-34.19 241.06,-19.85"/>
<polygon fill="midnightblue" stroke="midnightblue" points="487.58,-119.74 497.86,-117.19 488.23,-112.77 487.58,-119.74"/>
</g>
<!-- Node5 -->
<g id="node5" class="node">
<title>Node5</title>
<g id="a_node5"><a xlink:href="StateEstimationApp_8h.html" target="_top" xlink:title="Base class for State Estimation Application.">
<polygon fill="white" stroke="black" points="292.5,-56.5 292.5,-75.5 414.5,-75.5 414.5,-56.5 292.5,-56.5"/>
<text text-anchor="middle" x="353.5" y="-63.5" font-family="Helvetica,sans-Serif" font-size="10.00">StateEstimationApp.h</text>
</a>
</g>
</g>
<!-- Node1&#45;&gt;Node5 -->
<g id="edge4" class="edge">
<title>Node1&#45;&gt;Node5</title>
<path fill="none" stroke="midnightblue" d="M505.32,-109.7C469.08,-99.51 416.59,-84.74 383.78,-75.52"/>
<polygon fill="midnightblue" stroke="midnightblue" points="504.5,-113.11 515.08,-112.44 506.4,-106.37 504.5,-113.11"/>
</g>
<!-- Node7 -->
<g id="node7" class="node">
<title>Node7</title>
<g id="a_node7"><a xlink:href="GNSSChannel_8cpp.html" target="_top" xlink:title="GNSS Channel.">
<polygon fill="white" stroke="black" points="432.5,-56.5 432.5,-75.5 536.5,-75.5 536.5,-56.5 432.5,-56.5"/>
<text text-anchor="middle" x="484.5" y="-63.5" font-family="Helvetica,sans-Serif" font-size="10.00">GNSSChannel.cpp</text>
</a>
</g>
</g>
<!-- Node1&#45;&gt;Node7 -->
<g id="edge6" class="edge">
<title>Node1&#45;&gt;Node7</title>
<path fill="none" stroke="midnightblue" d="M528.03,-105.54C517.16,-95.91 503.56,-83.87 494.48,-75.83"/>
<polygon fill="midnightblue" stroke="midnightblue" points="525.89,-108.32 535.7,-112.32 530.53,-103.07 525.89,-108.32"/>
</g>
<!-- Node8 -->
<g id="node8" class="node">
<title>Node8</title>
<g id="a_node8"><a xlink:href="GNSSReceiver_8cpp.html" target="_top" xlink:title="GNSS Receiver class.">
<polygon fill="white" stroke="black" points="554.5,-56.5 554.5,-75.5 660.5,-75.5 660.5,-56.5 554.5,-56.5"/>
<text text-anchor="middle" x="607.5" y="-63.5" font-family="Helvetica,sans-Serif" font-size="10.00">GNSSReceiver.cpp</text>
</a>
</g>
</g>
<!-- Node1&#45;&gt;Node8 -->
<g id="edge7" class="edge">
<title>Node1&#45;&gt;Node8</title>
<path fill="none" stroke="midnightblue" d="M563.25,-105.54C574.31,-95.91 588.13,-83.87 597.36,-75.83"/>
<polygon fill="midnightblue" stroke="midnightblue" points="560.7,-103.12 555.46,-112.32 565.3,-108.4 560.7,-103.12"/>
</g>
<!-- Node9 -->
<g id="node9" class="node">
<title>Node9</title>
<g id="a_node9"><a xlink:href="ExampleConstellations_8cpp.html" target="_top" xlink:title="Setup GNSS Constellation.">
<polygon fill="white" stroke="black" points="679,-56.5 679,-75.5 828,-75.5 828,-56.5 679,-56.5"/>
<text text-anchor="middle" x="753.5" y="-63.5" font-family="Helvetica,sans-Serif" font-size="10.00">ExampleConstellations.cpp</text>
</a>
</g>
</g>
<!-- Node1&#45;&gt;Node9 -->
<g id="edge8" class="edge">
<title>Node1&#45;&gt;Node9</title>
<path fill="none" stroke="midnightblue" d="M588.28,-109.89C627.56,-99.7 684.93,-84.8 720.7,-75.52"/>
<polygon fill="midnightblue" stroke="midnightblue" points="587.26,-106.54 578.46,-112.44 589.02,-113.32 587.26,-106.54"/>
</g>
<!-- Node10 -->
<g id="node10" class="node">
<title>Node10</title>
<g id="a_node10"><a xlink:href="ExampleEKF_8cpp.html" target="_top" xlink:title="Example of Extended Kalman Filter for orbit determination.">
<polygon fill="white" stroke="black" points="846,-56.5 846,-75.5 943,-75.5 943,-56.5 846,-56.5"/>
<text text-anchor="middle" x="894.5" y="-63.5" font-family="Helvetica,sans-Serif" font-size="10.00">ExampleEKF.cpp</text>
</a>
</g>
</g>
<!-- Node1&#45;&gt;Node10 -->
<g id="edge9" class="edge">
<title>Node1&#45;&gt;Node10</title>
<path fill="none" stroke="midnightblue" d="M603.27,-112.16C662.19,-103.13 756.22,-88.68 837.5,-76 840.27,-75.57 843.12,-75.12 845.99,-74.67"/>
<polygon fill="midnightblue" stroke="midnightblue" points="602.41,-108.75 593.05,-113.73 603.47,-115.67 602.41,-108.75"/>
</g>
<!-- Node11 -->
<g id="node11" class="node">
<title>Node11</title>
<g id="a_node11"><a xlink:href="ExamplePropagation_8cpp.html" target="_top" xlink:title="Example propagating both GPS constellation and Lunar Satellite.">
<polygon fill="white" stroke="black" points="961.5,-56.5 961.5,-75.5 1099.5,-75.5 1099.5,-56.5 961.5,-56.5"/>
<text text-anchor="middle" x="1030.5" y="-63.5" font-family="Helvetica,sans-Serif" font-size="10.00">ExamplePropagation.cpp</text>
</a>
</g>
</g>
<!-- Node1&#45;&gt;Node11 -->
<g id="edge11" class="edge">
<title>Node1&#45;&gt;Node11</title>
<path fill="none" stroke="midnightblue" d="M603.35,-114.69C682.27,-106.07 828.11,-90.05 952.5,-76 955.34,-75.68 958.25,-75.35 961.18,-75.02"/>
<polygon fill="midnightblue" stroke="midnightblue" points="602.69,-111.24 593.13,-115.81 603.45,-118.2 602.69,-111.24"/>
</g>
<!-- Node3 -->
<g id="node3" class="node">
<title>Node3</title>
<g id="a_node3"><a xlink:href="GNSSStateEstimationApp_8cpp.html" target="_top" xlink:title="State Estimation Application Using GNSS Measurement.">
<polygon fill="white" stroke="black" points="0,-0.5 0,-19.5 161,-19.5 161,-0.5 0,-0.5"/>
<text text-anchor="middle" x="80.5" y="-7.5" font-family="Helvetica,sans-Serif" font-size="10.00">GNSSStateEstimationApp.cpp</text>
</a>
</g>
</g>
<!-- Node2&#45;&gt;Node3 -->
<g id="edge2" class="edge">
<title>Node2&#45;&gt;Node3</title>
<path fill="none" stroke="midnightblue" d="M140.67,-50.62C125.69,-40.76 106.3,-27.99 93.64,-19.65"/>
<polygon fill="midnightblue" stroke="midnightblue" points="139.05,-53.75 149.33,-56.32 142.9,-47.9 139.05,-53.75"/>
</g>
<!-- Node2&#45;&gt;Node4 -->
<g id="edge3" class="edge">
<title>Node2&#45;&gt;Node4</title>
<path fill="none" stroke="midnightblue" d="M182.81,-50.38C196.36,-40.62 213.74,-28.11 225.23,-19.83"/>
<polygon fill="midnightblue" stroke="midnightblue" points="180.62,-47.64 174.55,-56.32 184.71,-53.32 180.62,-47.64"/>
</g>
<!-- Node6 -->
<g id="node6" class="node">
<title>Node6</title>
<g id="a_node6"><a xlink:href="StateEstimationApp_8cpp.html" target="_top" xlink:title="Base class for State Estimation Application.">
<polygon fill="white" stroke="black" points="313.5,-0.5 313.5,-19.5 447.5,-19.5 447.5,-0.5 313.5,-0.5"/>
<text text-anchor="middle" x="380.5" y="-7.5" font-family="Helvetica,sans-Serif" font-size="10.00">StateEstimationApp.cpp</text>
</a>
</g>
</g>
<!-- Node5&#45;&gt;Node6 -->
<g id="edge5" class="edge">
<title>Node5&#45;&gt;Node6</title>
<path fill="none" stroke="midnightblue" d="M362.51,-46.98C367.09,-37.82 372.45,-27.09 376.12,-19.75"/>
<polygon fill="midnightblue" stroke="midnightblue" points="359.3,-45.57 357.96,-56.08 365.56,-48.7 359.3,-45.57"/>
</g>
</g>
</svg>
        <g id="navigator" transform="translate(0 0)" fill="#404254">
                <rect fill="#f2f5e9" fill-opacity="0.5" stroke="#606060" stroke-width=".5" x="0" y="0" width="60" height="60"/>
                <use id="zoomplus" xlink:href="#zoomPlus" x="17" y="9" onmousedown="handleZoom(evt,'in')"/>
                <use id="zoomminus" xlink:href="#zoomMin" x="42" y="9" onmousedown="handleZoom(evt,'out')"/>
                <use id="reset" xlink:href="#resetDef" x="30" y="36" onmousedown="handleReset()"/>
                <g id="arrowUp" xlink:href="#dirArrow" transform="translate(30 24)" onmousedown="handlePan(0,-1)">
                  <use xlink:href="#rim" fill="#404040">
                        <set attributeName="fill" to="#808080" begin="arrowUp.mouseover" end="arrowUp.mouseout"/>
                  </use>
                  <path fill="none" stroke="white" stroke-width="1.5" d="M0,-3.0v7 M-2.5,-0.5L0,-3.0L2.5,-0.5"/>
                </g>
                <g id="arrowRight" xlink:href="#dirArrow" transform="rotate(90) translate(36 -43)" onmousedown="handlePan(1,0)">
                  <use xlink:href="#rim" fill="#404040">
                        <set attributeName="fill" to="#808080" begin="arrowRight.mouseover" end="arrowRight.mouseout"/>
                  </use>
                  <path fill="none" stroke="white" stroke-width="1.5" d="M0,-3.0v7 M-2.5,-0.5L0,-3.0L2.5,-0.5"/>
                </g>
                <g id="arrowDown" xlink:href="#dirArrow" transform="rotate(180) translate(-30 -48)" onmousedown="handlePan(0,1)">
                  <use xlink:href="#rim" fill="#404040">
                        <set attributeName="fill" to="#808080" begin="arrowDown.mouseover" end="arrowDown.mouseout"/>
                  </use>
                  <path fill="none" stroke="white" stroke-width="1.5" d="M0,-3.0v7 M-2.5,-0.5L0,-3.0L2.5,-0.5"/>
                </g>
                <g id="arrowLeft" xlink:href="#dirArrow" transform="rotate(270) translate(-36 17)" onmousedown="handlePan(-1,0)">
                  <use xlink:href="#rim" fill="#404040">
                        <set attributeName="fill" to="#808080" begin="arrowLeft.mouseover" end="arrowLeft.mouseout"/>
                  </use>
                  <path fill="none" stroke="white" stroke-width="1.5" d="M0,-3.0v7 M-2.5,-0.5L0,-3.0L2.5,-0.5"/>
                </g>
        </g>
        <svg viewBox="0 0 15 15" width="100%" height="30px" preserveAspectRatio="xMaxYMin meet">
         <g id="arrow_out" transform="scale(0.3 0.3)">
          <a xlink:href="GNSSReceiver_8h__dep__incl_org.svg" target="_base">
           <rect id="button" ry="5" rx="5" y="6" x="6" height="38" width="38"
                fill="#f2f5e9" fill-opacity="0.5" stroke="#606060" stroke-width="1.0"/>
           <path id="arrow"
             d="M 11.500037,31.436501 C 11.940474,20.09759 22.043105,11.32322 32.158766,21.979434 L 37.068811,17.246167 C 37.068811,17.246167 37.088388,32 37.088388,32 L 22.160133,31.978069 C 22.160133,31.978069 26.997745,27.140456 26.997745,27.140456 C 18.528582,18.264221 13.291696,25.230495 11.500037,31.436501 z"
             style="fill:#404040;"/>
          </a>
         </g>
        </svg>
</svg>
