<?xml version="1.0" encoding="UTF-8" standalone="no"?>
<!DOCTYPE svg PUBLIC "-//W3C//DTD SVG 1.1//EN"
 "http://www.w3.org/Graphics/SVG/1.1/DTD/svg11.dtd">
<!-- Generated by graphviz version 2.43.0 (0)
 -->
<!-- Title: GNSSTransmitter.h Pages: 1 -->
<svg width="1436pt" height="341pt"
 viewBox="0.00 0.00 1435.50 341.00" xmlns="http://www.w3.org/2000/svg" xmlns:xlink="http://www.w3.org/1999/xlink">
<g id="graph0" class="graph" transform="scale(1 1) rotate(0) translate(4 337)">
<title>GNSSTransmitter.h</title>
<polygon fill="white" stroke="transparent" points="-4,4 -4,-337 1431.5,-337 1431.5,4 -4,4"/>
<!-- Node1 -->
<g id="node1" class="node">
<title>Node1</title>
<g id="a_node1"><a xlink:title="Handles GNSS transmit.">
<polygon fill="#bfbfbf" stroke="black" points="940,-313.5 940,-332.5 1047,-332.5 1047,-313.5 940,-313.5"/>
<text text-anchor="middle" x="993.5" y="-320.5" font-family="Helvetica,sans-Serif" font-size="10.00">GNSSTransmitter.h</text>
</a>
</g>
</g>
<!-- Node2 -->
<g id="node2" class="node">
<title>Node2</title>
<g id="a_node2"><a xlink:href="CommDevice_8h.html" target="_top" xlink:title="Communication devices.">
<polygon fill="white" stroke="black" points="667,-257.5 667,-276.5 822,-276.5 822,-257.5 667,-257.5"/>
<text text-anchor="middle" x="744.5" y="-264.5" font-family="Helvetica,sans-Serif" font-size="10.00">lupnt/agents/CommDevice.h</text>
</a>
</g>
</g>
<!-- Node1&#45;&gt;Node2 -->
<g id="edge1" class="edge">
<title>Node1&#45;&gt;Node2</title>
<path fill="none" stroke="midnightblue" d="M954.05,-313.44C910.61,-304.02 840.71,-288.87 793.72,-278.68"/>
<polygon fill="midnightblue" stroke="midnightblue" points="794.28,-275.22 783.77,-276.52 792.8,-282.06 794.28,-275.22"/>
</g>
<!-- Node7 -->
<g id="node7" class="node">
<title>Node7</title>
<g id="a_node7"><a xlink:href="Antenna_8h.html" target="_top" xlink:title="Antenna class.">
<polygon fill="white" stroke="black" points="828.5,-190.5 828.5,-220.5 946.5,-220.5 946.5,-190.5 828.5,-190.5"/>
<text text-anchor="start" x="836.5" y="-208.5" font-family="Helvetica,sans-Serif" font-size="10.00">lupnt/measurements</text>
<text text-anchor="middle" x="887.5" y="-197.5" font-family="Helvetica,sans-Serif" font-size="10.00">/Antenna.h</text>
</a>
</g>
</g>
<!-- Node1&#45;&gt;Node7 -->
<g id="edge41" class="edge">
<title>Node1&#45;&gt;Node7</title>
<path fill="none" stroke="midnightblue" d="M985.53,-313.32C969.04,-295.35 930.73,-253.61 907.18,-227.95"/>
<polygon fill="midnightblue" stroke="midnightblue" points="909.73,-225.55 900.39,-220.55 904.57,-230.28 909.73,-225.55"/>
</g>
<!-- Node8 -->
<g id="node8" class="node">
<title>Node8</title>
<g id="a_node8"><a xlink:title=" ">
<polygon fill="white" stroke="#bfbfbf" points="1016.5,-0.5 1016.5,-19.5 1060.5,-19.5 1060.5,-0.5 1016.5,-0.5"/>
<text text-anchor="middle" x="1038.5" y="-7.5" font-family="Helvetica,sans-Serif" font-size="10.00">string</text>
</a>
</g>
</g>
<!-- Node1&#45;&gt;Node8 -->
<g id="edge39" class="edge">
<title>Node1&#45;&gt;Node8</title>
<path fill="none" stroke="midnightblue" d="M1047.16,-321.01C1123.03,-316.45 1252.5,-295.61 1252.5,-206.5 1252.5,-206.5 1252.5,-206.5 1252.5,-137.5 1252.5,-99.61 1255.13,-81.92 1227.5,-56 1205.09,-34.98 1118.82,-21.08 1070.96,-14.82"/>
<polygon fill="midnightblue" stroke="midnightblue" points="1071.17,-11.32 1060.81,-13.53 1070.29,-18.26 1071.17,-11.32"/>
</g>
<!-- Node15 -->
<g id="node15" class="node">
<title>Node15</title>
<g id="a_node15"><a xlink:href="Transmission_8h.html" target="_top" xlink:title="Signal transmission data.">
<polygon fill="white" stroke="black" points="772.5,-123.5 772.5,-153.5 890.5,-153.5 890.5,-123.5 772.5,-123.5"/>
<text text-anchor="start" x="780.5" y="-141.5" font-family="Helvetica,sans-Serif" font-size="10.00">lupnt/measurements</text>
<text text-anchor="middle" x="831.5" y="-130.5" font-family="Helvetica,sans-Serif" font-size="10.00">/Transmission.h</text>
</a>
</g>
</g>
<!-- Node1&#45;&gt;Node15 -->
<g id="edge38" class="edge">
<title>Node1&#45;&gt;Node15</title>
<path fill="none" stroke="midnightblue" d="M993.48,-313.38C992.98,-290.36 988.5,-226.71 955.5,-190 945.66,-179.05 915.19,-166.57 886.92,-156.76"/>
<polygon fill="midnightblue" stroke="midnightblue" points="888.05,-153.44 877.46,-153.54 885.8,-160.07 888.05,-153.44"/>
</g>
<!-- Node24 -->
<g id="node24" class="node">
<title>Node24</title>
<g id="a_node24"><a xlink:title=" ">
<polygon fill="white" stroke="#bfbfbf" points="1041,-257.5 1041,-276.5 1082,-276.5 1082,-257.5 1041,-257.5"/>
<text text-anchor="middle" x="1061.5" y="-264.5" font-family="Helvetica,sans-Serif" font-size="10.00">tuple</text>
</a>
</g>
</g>
<!-- Node1&#45;&gt;Node24 -->
<g id="edge40" class="edge">
<title>Node1&#45;&gt;Node24</title>
<path fill="none" stroke="midnightblue" d="M1004.43,-313.32C1014.67,-305.18 1030.22,-292.84 1042.5,-283.09"/>
<polygon fill="midnightblue" stroke="midnightblue" points="1044.72,-285.79 1050.38,-276.83 1040.37,-280.31 1044.72,-285.79"/>
</g>
<!-- Node25 -->
<g id="node25" class="node">
<title>Node25</title>
<g id="a_node25"><a xlink:href="GNSSMeasurement_8h.html" target="_top" xlink:title="Class that constructs GPS measurement data from channel observables.">
<polygon fill="white" stroke="black" points="1002.5,-196 1002.5,-215 1122.5,-215 1122.5,-196 1002.5,-196"/>
<text text-anchor="middle" x="1062.5" y="-203" font-family="Helvetica,sans-Serif" font-size="10.00">GNSSMeasurement.h</text>
</a>
</g>
</g>
<!-- Node1&#45;&gt;Node25 -->
<g id="edge42" class="edge">
<title>Node1&#45;&gt;Node25</title>
<path fill="none" stroke="midnightblue" d="M998.69,-313.32C1009.97,-294.42 1036.96,-249.25 1051.97,-224.12"/>
<polygon fill="midnightblue" stroke="midnightblue" points="1055.13,-225.66 1057.25,-215.28 1049.12,-222.07 1055.13,-225.66"/>
</g>
<!-- Node3 -->
<g id="node3" class="node">
<title>Node3</title>
<g id="a_node3"><a xlink:title=" ">
<polygon fill="white" stroke="#bfbfbf" points="638,-62 638,-81 775,-81 775,-62 638,-62"/>
<text text-anchor="middle" x="706.5" y="-69" font-family="Helvetica,sans-Serif" font-size="10.00">autodiff/forward/real.hpp</text>
</a>
</g>
</g>
<!-- Node2&#45;&gt;Node3 -->
<g id="edge2" class="edge">
<title>Node2&#45;&gt;Node3</title>
<path fill="none" stroke="midnightblue" d="M742.82,-257.44C737.09,-228.29 718.28,-132.47 710.22,-91.43"/>
<polygon fill="midnightblue" stroke="midnightblue" points="713.61,-90.54 708.25,-81.41 706.74,-91.89 713.61,-90.54"/>
</g>
<!-- Node4 -->
<g id="node4" class="node">
<title>Node4</title>
<g id="a_node4"><a xlink:title=" ">
<polygon fill="white" stroke="#bfbfbf" points="249.5,-56.5 249.5,-86.5 365.5,-86.5 365.5,-56.5 249.5,-56.5"/>
<text text-anchor="start" x="257.5" y="-74.5" font-family="Helvetica,sans-Serif" font-size="10.00">autodiff/forward/real</text>
<text text-anchor="middle" x="307.5" y="-63.5" font-family="Helvetica,sans-Serif" font-size="10.00">/eigen.hpp</text>
</a>
</g>
</g>
<!-- Node2&#45;&gt;Node4 -->
<g id="edge3" class="edge">
<title>Node2&#45;&gt;Node4</title>
<path fill="none" stroke="midnightblue" d="M666.96,-262.46C529.11,-254.31 250.65,-228.75 195.5,-154 175.19,-126.47 212.05,-104.36 248.81,-90.16"/>
<polygon fill="midnightblue" stroke="midnightblue" points="250.45,-93.28 258.62,-86.54 248.03,-86.72 250.45,-93.28"/>
</g>
<!-- Node5 -->
<g id="node5" class="node">
<title>Node5</title>
<g id="a_node5"><a xlink:title=" ">
<polygon fill="white" stroke="#bfbfbf" points="772.5,-196 772.5,-215 810.5,-215 810.5,-196 772.5,-196"/>
<text text-anchor="middle" x="791.5" y="-203" font-family="Helvetica,sans-Serif" font-size="10.00">map</text>
</a>
</g>
</g>
<!-- Node2&#45;&gt;Node5 -->
<g id="edge4" class="edge">
<title>Node2&#45;&gt;Node5</title>
<path fill="none" stroke="midnightblue" d="M751.23,-257.48C758.28,-248.55 769.53,-234.31 778.35,-223.14"/>
<polygon fill="midnightblue" stroke="midnightblue" points="781.33,-225.03 784.78,-215.01 775.83,-220.69 781.33,-225.03"/>
</g>
<!-- Node6 -->
<g id="node6" class="node">
<title>Node6</title>
<g id="a_node6"><a xlink:title=" ">
<polygon fill="white" stroke="#bfbfbf" points="1166.5,-129 1166.5,-148 1224.5,-148 1224.5,-129 1166.5,-129"/>
<text text-anchor="middle" x="1195.5" y="-136" font-family="Helvetica,sans-Serif" font-size="10.00">memory</text>
</a>
</g>
</g>
<!-- Node2&#45;&gt;Node6 -->
<g id="edge5" class="edge">
<title>Node2&#45;&gt;Node6</title>
<path fill="none" stroke="midnightblue" d="M822.38,-263.96C919.82,-260.21 1080.15,-249.75 1131.5,-221 1157.57,-206.4 1176.74,-176.45 1187,-157.21"/>
<polygon fill="midnightblue" stroke="midnightblue" points="1190.14,-158.76 1191.54,-148.26 1183.9,-155.59 1190.14,-158.76"/>
</g>
<!-- Node2&#45;&gt;Node7 -->
<g id="edge6" class="edge">
<title>Node2&#45;&gt;Node7</title>
<path fill="none" stroke="midnightblue" d="M764.99,-257.48C785.62,-248.89 818.08,-235.38 844.41,-224.43"/>
<polygon fill="midnightblue" stroke="midnightblue" points="845.91,-227.6 853.8,-220.52 843.22,-221.13 845.91,-227.6"/>
</g>
<!-- Node2&#45;&gt;Node15 -->
<g id="edge19" class="edge">
<title>Node2&#45;&gt;Node15</title>
<path fill="none" stroke="midnightblue" d="M744.81,-257.26C745.71,-242.29 749.31,-211.27 763.5,-190 771.71,-177.7 783.97,-167.27 795.82,-159.13"/>
<polygon fill="midnightblue" stroke="midnightblue" points="797.83,-162 804.32,-153.63 794.03,-156.13 797.83,-162"/>
</g>
<!-- Node17 -->
<g id="node17" class="node">
<title>Node17</title>
<g id="a_node17"><a xlink:href="MathUtils_8h.html" target="_top" xlink:title=" ">
<polygon fill="white" stroke="black" points="0,-129 0,-148 149,-148 149,-129 0,-129"/>
<text text-anchor="middle" x="74.5" y="-136" font-family="Helvetica,sans-Serif" font-size="10.00">lupnt/numerics/MathUtils.h</text>
</a>
</g>
</g>
<!-- Node2&#45;&gt;Node17 -->
<g id="edge24" class="edge">
<title>Node2&#45;&gt;Node17</title>
<path fill="none" stroke="midnightblue" d="M666.8,-266.26C529.67,-265.7 250.89,-259.64 162.5,-221 130.07,-206.82 101.91,-175.54 86.65,-156.12"/>
<polygon fill="midnightblue" stroke="midnightblue" points="89.41,-153.98 80.57,-148.14 83.84,-158.22 89.41,-153.98"/>
</g>
<!-- Node19 -->
<g id="node19" class="node">
<title>Node19</title>
<g id="a_node19"><a xlink:href="OrbitState_8h.html" target="_top" xlink:title="Orbit states.">
<polygon fill="white" stroke="black" points="422,-196 422,-215 565,-215 565,-196 422,-196"/>
<text text-anchor="middle" x="493.5" y="-203" font-family="Helvetica,sans-Serif" font-size="10.00">lupnt/physics/OrbitState.h</text>
</a>
</g>
</g>
<!-- Node2&#45;&gt;Node19 -->
<g id="edge28" class="edge">
<title>Node2&#45;&gt;Node19</title>
<path fill="none" stroke="midnightblue" d="M708.54,-257.48C663.99,-246.92 588.04,-228.91 539.35,-217.37"/>
<polygon fill="midnightblue" stroke="midnightblue" points="539.93,-213.91 529.4,-215.01 538.32,-220.72 539.93,-213.91"/>
</g>
<!-- Node7&#45;&gt;Node3 -->
<g id="edge7" class="edge">
<title>Node7&#45;&gt;Node3</title>
<path fill="none" stroke="midnightblue" d="M834.79,-190.49C811.3,-182.46 784.3,-170.6 763.5,-154 741.64,-136.55 724.62,-108.55 715.07,-90.34"/>
<polygon fill="midnightblue" stroke="midnightblue" points="718.17,-88.72 710.55,-81.36 711.92,-91.86 718.17,-88.72"/>
</g>
<!-- Node7&#45;&gt;Node4 -->
<g id="edge8" class="edge">
<title>Node7&#45;&gt;Node4</title>
<path fill="none" stroke="midnightblue" d="M828.2,-191.63C825.26,-191.06 822.35,-190.52 819.5,-190 712.93,-170.7 679.03,-194.27 578.5,-154 556.29,-145.1 556.38,-132.67 534.5,-123 483.76,-100.56 422.09,-87.66 375.84,-80.53"/>
<polygon fill="midnightblue" stroke="midnightblue" points="376.32,-77.06 365.91,-79.05 375.29,-83.98 376.32,-77.06"/>
</g>
<!-- Node7&#45;&gt;Node8 -->
<g id="edge9" class="edge">
<title>Node7&#45;&gt;Node8</title>
<path fill="none" stroke="midnightblue" d="M898.6,-190.27C925.97,-155.2 996.54,-64.77 1025.65,-27.47"/>
<polygon fill="midnightblue" stroke="midnightblue" points="1028.41,-29.61 1031.81,-19.58 1022.9,-25.31 1028.41,-29.61"/>
</g>
<!-- Node9 -->
<g id="node9" class="node">
<title>Node9</title>
<g id="a_node9"><a xlink:href="Constants_8h.html" target="_top" xlink:title="List of constants.">
<polygon fill="white" stroke="black" points="1022.5,-129 1022.5,-148 1148.5,-148 1148.5,-129 1022.5,-129"/>
<text text-anchor="middle" x="1085.5" y="-136" font-family="Helvetica,sans-Serif" font-size="10.00">lupnt/core/Constants.h</text>
</a>
</g>
</g>
<!-- Node7&#45;&gt;Node9 -->
<g id="edge10" class="edge">
<title>Node7&#45;&gt;Node9</title>
<path fill="none" stroke="midnightblue" d="M930.46,-190.4C966.13,-178.69 1016.26,-162.23 1049.76,-151.23"/>
<polygon fill="midnightblue" stroke="midnightblue" points="1051.18,-154.45 1059.59,-148.01 1048.99,-147.8 1051.18,-154.45"/>
</g>
<!-- Node9&#45;&gt;Node3 -->
<g id="edge12" class="edge">
<title>Node9&#45;&gt;Node3</title>
<path fill="none" stroke="midnightblue" d="M1032.98,-128.98C972.87,-119.15 871.51,-102.38 784.5,-87 777.14,-85.7 769.4,-84.3 761.77,-82.9"/>
<polygon fill="midnightblue" stroke="midnightblue" points="762.31,-79.44 751.85,-81.07 761.04,-86.32 762.31,-79.44"/>
</g>
<!-- Node9&#45;&gt;Node8 -->
<g id="edge13" class="edge">
<title>Node9&#45;&gt;Node8</title>
<path fill="none" stroke="midnightblue" d="M1080.07,-128.86C1074.09,-119.03 1064.53,-102.36 1058.5,-87 1051.04,-67.99 1045.46,-45.23 1042.12,-29.6"/>
<polygon fill="midnightblue" stroke="midnightblue" points="1045.52,-28.74 1040.09,-19.64 1038.66,-30.14 1045.52,-28.74"/>
</g>
<!-- Node10 -->
<g id="node10" class="node">
<title>Node10</title>
<g id="a_node10"><a xlink:title=" ">
<polygon fill="white" stroke="#bfbfbf" points="1067,-62 1067,-81 1218,-81 1218,-62 1067,-62"/>
<text text-anchor="middle" x="1142.5" y="-69" font-family="Helvetica,sans-Serif" font-size="10.00">autodiff/common/eigen.hpp</text>
</a>
</g>
</g>
<!-- Node9&#45;&gt;Node10 -->
<g id="edge11" class="edge">
<title>Node9&#45;&gt;Node10</title>
<path fill="none" stroke="midnightblue" d="M1093.19,-128.73C1102.16,-118.5 1117.19,-101.36 1128.3,-88.69"/>
<polygon fill="midnightblue" stroke="midnightblue" points="1130.97,-90.95 1134.93,-81.13 1125.71,-86.34 1130.97,-90.95"/>
</g>
<!-- Node11 -->
<g id="node11" class="node">
<title>Node11</title>
<g id="a_node11"><a xlink:href="UserFilePath_8h.html" target="_top" xlink:title="File access utils.">
<polygon fill="white" stroke="black" points="1280.5,-62 1280.5,-81 1366.5,-81 1366.5,-62 1280.5,-62"/>
<text text-anchor="middle" x="1323.5" y="-69" font-family="Helvetica,sans-Serif" font-size="10.00">UserFilePath.h</text>
</a>
</g>
</g>
<!-- Node9&#45;&gt;Node11 -->
<g id="edge14" class="edge">
<title>Node9&#45;&gt;Node11</title>
<path fill="none" stroke="midnightblue" d="M1117.1,-128.87C1159.63,-117.25 1235.35,-96.58 1282.3,-83.75"/>
<polygon fill="midnightblue" stroke="midnightblue" points="1283.42,-87.07 1292.14,-81.06 1281.57,-80.32 1283.42,-87.07"/>
</g>
<!-- Node11&#45;&gt;Node8 -->
<g id="edge18" class="edge">
<title>Node11&#45;&gt;Node8</title>
<path fill="none" stroke="midnightblue" d="M1291.32,-61.99C1283.24,-59.94 1274.57,-57.82 1266.5,-56 1196.91,-40.29 1114.68,-24.81 1070.47,-16.74"/>
<polygon fill="midnightblue" stroke="midnightblue" points="1071.06,-13.29 1060.59,-14.95 1069.81,-20.18 1071.06,-13.29"/>
</g>
<!-- Node12 -->
<g id="node12" class="node">
<title>Node12</title>
<g id="a_node12"><a xlink:title=" ">
<polygon fill="white" stroke="#bfbfbf" points="1207.5,-0.5 1207.5,-19.5 1275.5,-19.5 1275.5,-0.5 1207.5,-0.5"/>
<text text-anchor="middle" x="1241.5" y="-7.5" font-family="Helvetica,sans-Serif" font-size="10.00">filesystem</text>
</a>
</g>
</g>
<!-- Node11&#45;&gt;Node12 -->
<g id="edge15" class="edge">
<title>Node11&#45;&gt;Node12</title>
<path fill="none" stroke="midnightblue" d="M1311.75,-61.98C1298.72,-52.52 1277.46,-37.1 1261.74,-25.69"/>
<polygon fill="midnightblue" stroke="midnightblue" points="1263.38,-22.55 1253.23,-19.51 1259.27,-28.21 1263.38,-22.55"/>
</g>
<!-- Node13 -->
<g id="node13" class="node">
<title>Node13</title>
<g id="a_node13"><a xlink:title=" ">
<polygon fill="white" stroke="#bfbfbf" points="1293.5,-0.5 1293.5,-19.5 1353.5,-19.5 1353.5,-0.5 1293.5,-0.5"/>
<text text-anchor="middle" x="1323.5" y="-7.5" font-family="Helvetica,sans-Serif" font-size="10.00">iostream</text>
</a>
</g>
</g>
<!-- Node11&#45;&gt;Node13 -->
<g id="edge16" class="edge">
<title>Node11&#45;&gt;Node13</title>
<path fill="none" stroke="midnightblue" d="M1323.5,-61.98C1323.5,-53.58 1323.5,-40.48 1323.5,-29.66"/>
<polygon fill="midnightblue" stroke="midnightblue" points="1327,-29.51 1323.5,-19.51 1320,-29.51 1327,-29.51"/>
</g>
<!-- Node14 -->
<g id="node14" class="node">
<title>Node14</title>
<g id="a_node14"><a xlink:title=" ">
<polygon fill="white" stroke="#bfbfbf" points="1371.5,-0.5 1371.5,-19.5 1427.5,-19.5 1427.5,-0.5 1371.5,-0.5"/>
<text text-anchor="middle" x="1399.5" y="-7.5" font-family="Helvetica,sans-Serif" font-size="10.00">optional</text>
</a>
</g>
</g>
<!-- Node11&#45;&gt;Node14 -->
<g id="edge17" class="edge">
<title>Node11&#45;&gt;Node14</title>
<path fill="none" stroke="midnightblue" d="M1334.39,-61.98C1346.47,-52.52 1366.17,-37.1 1380.74,-25.69"/>
<polygon fill="midnightblue" stroke="midnightblue" points="1382.91,-28.43 1388.63,-19.51 1378.6,-22.92 1382.91,-28.43"/>
</g>
<!-- Node15&#45;&gt;Node3 -->
<g id="edge21" class="edge">
<title>Node15&#45;&gt;Node3</title>
<path fill="none" stroke="midnightblue" d="M804.38,-123.4C782.83,-112.19 752.93,-96.64 731.86,-85.69"/>
<polygon fill="midnightblue" stroke="midnightblue" points="733.35,-82.52 722.86,-81.01 730.12,-88.73 733.35,-82.52"/>
</g>
<!-- Node15&#45;&gt;Node4 -->
<g id="edge22" class="edge">
<title>Node15&#45;&gt;Node4</title>
<path fill="none" stroke="midnightblue" d="M772.41,-130.17C674.5,-118.02 479.17,-93.79 375.61,-80.95"/>
<polygon fill="midnightblue" stroke="midnightblue" points="375.93,-77.46 365.58,-79.7 375.07,-84.41 375.93,-77.46"/>
</g>
<!-- Node15&#45;&gt;Node8 -->
<g id="edge23" class="edge">
<title>Node15&#45;&gt;Node8</title>
<path fill="none" stroke="midnightblue" d="M854.44,-123.48C894.3,-99.12 975.87,-49.27 1015.66,-24.96"/>
<polygon fill="midnightblue" stroke="midnightblue" points="1017.67,-27.83 1024.38,-19.63 1014.02,-21.86 1017.67,-27.83"/>
</g>
<!-- Node16 -->
<g id="node16" class="node">
<title>Node16</title>
<g id="a_node16"><a xlink:title=" ">
<polygon fill="white" stroke="#bfbfbf" points="793,-62 793,-81 870,-81 870,-62 793,-62"/>
<text text-anchor="middle" x="831.5" y="-69" font-family="Helvetica,sans-Serif" font-size="10.00">Eigen/Dense</text>
</a>
</g>
</g>
<!-- Node15&#45;&gt;Node16 -->
<g id="edge20" class="edge">
<title>Node15&#45;&gt;Node16</title>
<path fill="none" stroke="midnightblue" d="M831.5,-123.4C831.5,-114.06 831.5,-101.71 831.5,-91.52"/>
<polygon fill="midnightblue" stroke="midnightblue" points="835,-91.19 831.5,-81.19 828,-91.19 835,-91.19"/>
</g>
<!-- Node17&#45;&gt;Node3 -->
<g id="edge25" class="edge">
<title>Node17&#45;&gt;Node3</title>
<path fill="none" stroke="midnightblue" d="M143.58,-128.97C160.55,-126.95 178.67,-124.84 195.5,-123 348.43,-106.28 527.39,-89.15 627.79,-79.77"/>
<polygon fill="midnightblue" stroke="midnightblue" points="628.22,-83.24 637.85,-78.83 627.57,-76.27 628.22,-83.24"/>
</g>
<!-- Node17&#45;&gt;Node4 -->
<g id="edge26" class="edge">
<title>Node17&#45;&gt;Node4</title>
<path fill="none" stroke="midnightblue" d="M105.44,-128.87C141.54,-118.8 202.06,-101.91 247.48,-89.24"/>
<polygon fill="midnightblue" stroke="midnightblue" points="248.52,-92.59 257.21,-86.53 246.64,-85.84 248.52,-92.59"/>
</g>
<!-- Node18 -->
<g id="node18" class="node">
<title>Node18</title>
<g id="a_node18"><a xlink:title=" ">
<polygon fill="white" stroke="#bfbfbf" points="47.5,-62 47.5,-81 101.5,-81 101.5,-62 47.5,-62"/>
<text text-anchor="middle" x="74.5" y="-69" font-family="Helvetica,sans-Serif" font-size="10.00">random</text>
</a>
</g>
</g>
<!-- Node17&#45;&gt;Node18 -->
<g id="edge27" class="edge">
<title>Node17&#45;&gt;Node18</title>
<path fill="none" stroke="midnightblue" d="M74.5,-128.73C74.5,-119.18 74.5,-103.62 74.5,-91.28"/>
<polygon fill="midnightblue" stroke="midnightblue" points="78,-91.13 74.5,-81.13 71,-91.13 78,-91.13"/>
</g>
<!-- Node19&#45;&gt;Node3 -->
<g id="edge30" class="edge">
<title>Node19&#45;&gt;Node3</title>
<path fill="none" stroke="midnightblue" d="M507.48,-195.84C543.59,-173.46 640.27,-113.54 684.21,-86.31"/>
<polygon fill="midnightblue" stroke="midnightblue" points="686.09,-89.26 692.75,-81.02 682.41,-83.31 686.09,-89.26"/>
</g>
<!-- Node19&#45;&gt;Node4 -->
<g id="edge31" class="edge">
<title>Node19&#45;&gt;Node4</title>
<path fill="none" stroke="midnightblue" d="M429.79,-195.97C380.82,-187.96 319,-174.16 303.5,-154 291.01,-137.76 293.91,-113.86 298.8,-96.14"/>
<polygon fill="midnightblue" stroke="midnightblue" points="302.16,-97.11 301.8,-86.52 295.48,-95.02 302.16,-97.11"/>
</g>
<!-- Node19&#45;&gt;Node16 -->
<g id="edge29" class="edge">
<title>Node19&#45;&gt;Node16</title>
<path fill="none" stroke="midnightblue" d="M515.42,-195.94C573.58,-173.23 732.01,-111.35 799.92,-84.83"/>
<polygon fill="midnightblue" stroke="midnightblue" points="801.59,-87.94 809.63,-81.04 799.04,-81.42 801.59,-87.94"/>
</g>
<!-- Node20 -->
<g id="node20" class="node">
<title>Node20</title>
<g id="a_node20"><a xlink:title=" ">
<polygon fill="white" stroke="#bfbfbf" points="312.5,-129 312.5,-148 442.5,-148 442.5,-129 312.5,-129"/>
<text text-anchor="middle" x="377.5" y="-136" font-family="Helvetica,sans-Serif" font-size="10.00">boost/preprocessor.hpp</text>
</a>
</g>
</g>
<!-- Node19&#45;&gt;Node20 -->
<g id="edge32" class="edge">
<title>Node19&#45;&gt;Node20</title>
<path fill="none" stroke="midnightblue" d="M477.86,-195.73C458.29,-184.77 424.58,-165.88 401.68,-153.05"/>
<polygon fill="midnightblue" stroke="midnightblue" points="403.33,-149.96 392.9,-148.13 399.91,-156.07 403.33,-149.96"/>
</g>
<!-- Node21 -->
<g id="node21" class="node">
<title>Node21</title>
<g id="a_node21"><a xlink:title=" ">
<polygon fill="white" stroke="#bfbfbf" points="461,-129 461,-148 526,-148 526,-129 461,-129"/>
<text text-anchor="middle" x="493.5" y="-136" font-family="Helvetica,sans-Serif" font-size="10.00">stdexcept</text>
</a>
</g>
</g>
<!-- Node19&#45;&gt;Node21 -->
<g id="edge33" class="edge">
<title>Node19&#45;&gt;Node21</title>
<path fill="none" stroke="midnightblue" d="M493.5,-195.73C493.5,-186.18 493.5,-170.62 493.5,-158.28"/>
<polygon fill="midnightblue" stroke="midnightblue" points="497,-158.13 493.5,-148.13 490,-158.13 497,-158.13"/>
</g>
<!-- Node22 -->
<g id="node22" class="node">
<title>Node22</title>
<g id="a_node22"><a xlink:href="State_8h.html" target="_top" xlink:title="SPICE Interface functions.">
<polygon fill="white" stroke="black" points="205,-129 205,-148 256,-148 256,-129 205,-129"/>
<text text-anchor="middle" x="230.5" y="-136" font-family="Helvetica,sans-Serif" font-size="10.00">State.h</text>
</a>
</g>
</g>
<!-- Node19&#45;&gt;Node22 -->
<g id="edge34" class="edge">
<title>Node19&#45;&gt;Node22</title>
<path fill="none" stroke="midnightblue" d="M448.23,-195.98C402.87,-187.03 331.26,-171.82 270.5,-154 267.87,-153.23 265.15,-152.37 262.44,-151.48"/>
<polygon fill="midnightblue" stroke="midnightblue" points="263.36,-148.09 252.76,-148.13 261.07,-154.71 263.36,-148.09"/>
</g>
<!-- Node22&#45;&gt;Node3 -->
<g id="edge35" class="edge">
<title>Node22&#45;&gt;Node3</title>
<path fill="none" stroke="midnightblue" d="M256.09,-131.95C270.06,-129.04 287.68,-125.56 303.5,-123 415.64,-104.86 546.25,-89.55 627.66,-80.69"/>
<polygon fill="midnightblue" stroke="midnightblue" points="628.27,-84.15 637.83,-79.59 627.51,-77.19 628.27,-84.15"/>
</g>
<!-- Node22&#45;&gt;Node4 -->
<g id="edge36" class="edge">
<title>Node22&#45;&gt;Node4</title>
<path fill="none" stroke="midnightblue" d="M240.88,-128.73C251.59,-119.7 268.68,-105.27 282.86,-93.3"/>
<polygon fill="midnightblue" stroke="midnightblue" points="285.43,-95.71 290.81,-86.59 280.91,-90.37 285.43,-95.71"/>
</g>
<!-- Node23 -->
<g id="node23" class="node">
<title>Node23</title>
<g id="a_node23"><a xlink:title=" ">
<polygon fill="white" stroke="#bfbfbf" points="184,-62 184,-81 231,-81 231,-62 184,-62"/>
<text text-anchor="middle" x="207.5" y="-69" font-family="Helvetica,sans-Serif" font-size="10.00">vector</text>
</a>
</g>
</g>
<!-- Node22&#45;&gt;Node23 -->
<g id="edge37" class="edge">
<title>Node22&#45;&gt;Node23</title>
<path fill="none" stroke="midnightblue" d="M227.4,-128.73C223.98,-119.09 218.4,-103.3 214.01,-90.91"/>
<polygon fill="midnightblue" stroke="midnightblue" points="217.19,-89.39 210.55,-81.13 210.59,-91.72 217.19,-89.39"/>
</g>
<!-- Node25&#45;&gt;Node3 -->
<g id="edge46" class="edge">
<title>Node25&#45;&gt;Node3</title>
<path fill="none" stroke="midnightblue" d="M1030.98,-195.98C1003.63,-187.75 963.64,-173.62 932.5,-154 915.48,-143.27 917.11,-132.74 899.5,-123 875.52,-109.74 807.44,-93.58 758.94,-83.17"/>
<polygon fill="midnightblue" stroke="midnightblue" points="759.42,-79.69 748.92,-81.04 757.97,-86.54 759.42,-79.69"/>
</g>
<!-- Node25&#45;&gt;Node4 -->
<g id="edge47" class="edge">
<title>Node25&#45;&gt;Node4</title>
<path fill="none" stroke="midnightblue" d="M1011.15,-195.98C951.57,-186.06 850.38,-169.1 763.5,-154 625.79,-130.07 464.89,-101.06 375.75,-84.91"/>
<polygon fill="midnightblue" stroke="midnightblue" points="376.24,-81.44 365.77,-83.1 374.99,-88.33 376.24,-81.44"/>
</g>
<!-- Node25&#45;&gt;Node6 -->
<g id="edge48" class="edge">
<title>Node25&#45;&gt;Node6</title>
<path fill="none" stroke="midnightblue" d="M1080.16,-195.87C1102.82,-184.8 1142.33,-165.49 1168.7,-152.6"/>
<polygon fill="midnightblue" stroke="midnightblue" points="1170.32,-155.7 1177.77,-148.17 1167.24,-149.41 1170.32,-155.7"/>
</g>
<!-- Node25&#45;&gt;Node9 -->
<g id="edge43" class="edge">
<title>Node25&#45;&gt;Node9</title>
<path fill="none" stroke="midnightblue" d="M1065.6,-195.73C1069.02,-186.09 1074.6,-170.3 1078.99,-157.91"/>
<polygon fill="midnightblue" stroke="midnightblue" points="1082.41,-158.72 1082.45,-148.13 1075.81,-156.39 1082.41,-158.72"/>
</g>
<!-- Node25&#45;&gt;Node15 -->
<g id="edge44" class="edge">
<title>Node25&#45;&gt;Node15</title>
<path fill="none" stroke="midnightblue" d="M1031.82,-195.87C996.04,-185.8 936.03,-168.91 891.01,-156.24"/>
<polygon fill="midnightblue" stroke="midnightblue" points="891.93,-152.87 881.35,-153.53 890.03,-159.61 891.93,-152.87"/>
</g>
<!-- Node25&#45;&gt;Node16 -->
<g id="edge45" class="edge">
<title>Node25&#45;&gt;Node16</title>
<path fill="none" stroke="midnightblue" d="M1049.83,-195.98C1026.86,-180.67 976.63,-147.79 932.5,-123 908.15,-109.32 879.63,-95.23 859.12,-85.42"/>
<polygon fill="midnightblue" stroke="midnightblue" points="860.56,-82.23 850.02,-81.1 857.55,-88.55 860.56,-82.23"/>
</g>
</g>
</svg>
