<?xml version="1.0" encoding="UTF-8" standalone="no"?>
<!DOCTYPE svg PUBLIC "-//W3C//DTD SVG 1.1//EN"
 "http://www.w3.org/Graphics/SVG/1.1/DTD/svg11.dtd">
<!-- Generated by graphviz version 2.43.0 (0)
 -->
<!-- Title: GNSSMeasurement.h Pages: 1 -->
<svg width="1251pt" height="196pt"
 viewBox="0.00 0.00 1250.50 196.00" xmlns="http://www.w3.org/2000/svg" xmlns:xlink="http://www.w3.org/1999/xlink">
<g id="graph0" class="graph" transform="scale(1 1) rotate(0) translate(4 192)">
<title>GNSSMeasurement.h</title>
<polygon fill="white" stroke="transparent" points="-4,4 -4,-192 1246.5,-192 1246.5,4 -4,4"/>
<!-- Node1 -->
<g id="node1" class="node">
<title>Node1</title>
<g id="a_node1"><a xlink:title="Class that constructs GPS measurement data from channel observables.">
<polygon fill="#bfbfbf" stroke="black" points="475,-168.5 475,-187.5 595,-187.5 595,-168.5 475,-168.5"/>
<text text-anchor="middle" x="535" y="-175.5" font-family="Helvetica,sans-Serif" font-size="10.00">GNSSMeasurement.h</text>
</a>
</g>
</g>
<!-- Node2 -->
<g id="node2" class="node">
<title>Node2</title>
<g id="a_node2"><a xlink:href="GNSSStateEstimationApp_8h.html" target="_top" xlink:title="State Estimation Application Using GNSS Measurement.">
<polygon fill="white" stroke="black" points="158.5,-56.5 158.5,-75.5 307.5,-75.5 307.5,-56.5 158.5,-56.5"/>
<text text-anchor="middle" x="233" y="-63.5" font-family="Helvetica,sans-Serif" font-size="10.00">GNSSStateEstimationApp.h</text>
</a>
</g>
</g>
<!-- Node1&#45;&gt;Node2 -->
<g id="edge1" class="edge">
<title>Node1&#45;&gt;Node2</title>
<path fill="none" stroke="midnightblue" d="M493.53,-165.78C463.42,-157.32 421.84,-144.98 386,-132 336.61,-114.11 280.12,-88.81 251.58,-75.67"/>
<polygon fill="midnightblue" stroke="midnightblue" points="492.71,-169.18 503.28,-168.5 494.59,-162.44 492.71,-169.18"/>
</g>
<!-- Node5 -->
<g id="node5" class="node">
<title>Node5</title>
<g id="a_node5"><a xlink:href="StateEstimationApp_8h.html" target="_top" xlink:title="Base class for State Estimation Application.">
<polygon fill="white" stroke="black" points="18,-56.5 18,-75.5 140,-75.5 140,-56.5 18,-56.5"/>
<text text-anchor="middle" x="79" y="-63.5" font-family="Helvetica,sans-Serif" font-size="10.00">StateEstimationApp.h</text>
</a>
</g>
</g>
<!-- Node1&#45;&gt;Node5 -->
<g id="edge4" class="edge">
<title>Node1&#45;&gt;Node5</title>
<path fill="none" stroke="midnightblue" d="M484.43,-166.36C443.08,-157.54 383.14,-144.47 331,-132 251.46,-112.98 158.42,-88.36 110.73,-75.57"/>
<polygon fill="midnightblue" stroke="midnightblue" points="483.75,-169.8 494.26,-168.46 485.21,-162.95 483.75,-169.8"/>
</g>
<!-- Node7 -->
<g id="node7" class="node">
<title>Node7</title>
<g id="a_node7"><a xlink:href="GNSSMeasurement_8cpp.html" target="_top" xlink:title="Class that constructs GPS measurement data from channel observables.">
<polygon fill="white" stroke="black" points="1111.5,-112.5 1111.5,-131.5 1242.5,-131.5 1242.5,-112.5 1111.5,-112.5"/>
<text text-anchor="middle" x="1177" y="-119.5" font-family="Helvetica,sans-Serif" font-size="10.00">GNSSMeasurement.cpp</text>
</a>
</g>
</g>
<!-- Node1&#45;&gt;Node7 -->
<g id="edge6" class="edge">
<title>Node1&#45;&gt;Node7</title>
<path fill="none" stroke="midnightblue" d="M605.33,-172.1C711.81,-164.51 920.26,-149.01 1097,-132 1101.59,-131.56 1106.33,-131.08 1111.1,-130.58"/>
<polygon fill="midnightblue" stroke="midnightblue" points="605.08,-168.61 595.35,-172.81 605.58,-175.59 605.08,-168.61"/>
</g>
<!-- Node8 -->
<g id="node8" class="node">
<title>Node8</title>
<g id="a_node8"><a xlink:href="GNSSReceiver_8cpp.html" target="_top" xlink:title="GNSS Receiver class.">
<polygon fill="white" stroke="black" points="325,-56.5 325,-75.5 431,-75.5 431,-56.5 325,-56.5"/>
<text text-anchor="middle" x="378" y="-63.5" font-family="Helvetica,sans-Serif" font-size="10.00">GNSSReceiver.cpp</text>
</a>
</g>
</g>
<!-- Node1&#45;&gt;Node8 -->
<g id="edge7" class="edge">
<title>Node1&#45;&gt;Node8</title>
<path fill="none" stroke="midnightblue" d="M466.65,-165.8C444.07,-159.18 420.33,-148.67 403,-132 386.97,-116.58 381.07,-89.74 379.02,-75.87"/>
<polygon fill="midnightblue" stroke="midnightblue" points="466.01,-169.25 476.57,-168.49 467.84,-162.49 466.01,-169.25"/>
</g>
<!-- Node9 -->
<g id="node9" class="node">
<title>Node9</title>
<g id="a_node9"><a xlink:href="GNSSReceiver_8h.html" target="_top" xlink:title="GNSS receiver class.">
<polygon fill="white" stroke="black" points="411.5,-112.5 411.5,-131.5 506.5,-131.5 506.5,-112.5 411.5,-112.5"/>
<text text-anchor="middle" x="459" y="-119.5" font-family="Helvetica,sans-Serif" font-size="10.00">GNSSReceiver.h</text>
</a>
</g>
</g>
<!-- Node1&#45;&gt;Node9 -->
<g id="edge8" class="edge">
<title>Node1&#45;&gt;Node9</title>
<path fill="none" stroke="midnightblue" d="M514.42,-162.38C500.69,-152.62 483.07,-140.11 471.43,-131.83"/>
<polygon fill="midnightblue" stroke="midnightblue" points="512.61,-165.38 522.79,-168.32 516.66,-159.68 512.61,-165.38"/>
</g>
<!-- Node11 -->
<g id="node11" class="node">
<title>Node11</title>
<g id="a_node11"><a xlink:href="ExampleConstellations_8cpp.html" target="_top" xlink:title="Setup GNSS Constellation.">
<polygon fill="white" stroke="black" points="466.5,-0.5 466.5,-19.5 615.5,-19.5 615.5,-0.5 466.5,-0.5"/>
<text text-anchor="middle" x="541" y="-7.5" font-family="Helvetica,sans-Serif" font-size="10.00">ExampleConstellations.cpp</text>
</a>
</g>
</g>
<!-- Node1&#45;&gt;Node11 -->
<g id="edge26" class="edge">
<title>Node1&#45;&gt;Node11</title>
<path fill="none" stroke="midnightblue" d="M535.69,-157.93C536.99,-121.92 539.76,-45.23 540.69,-19.57"/>
<polygon fill="midnightblue" stroke="midnightblue" points="532.19,-157.96 535.32,-168.08 539.18,-158.21 532.19,-157.96"/>
</g>
<!-- Node12 -->
<g id="node12" class="node">
<title>Node12</title>
<g id="a_node12"><a xlink:href="ExampleEKF_8cpp.html" target="_top" xlink:title="Example of Extended Kalman Filter for orbit determination.">
<polygon fill="white" stroke="black" points="936.5,-0.5 936.5,-19.5 1033.5,-19.5 1033.5,-0.5 936.5,-0.5"/>
<text text-anchor="middle" x="985" y="-7.5" font-family="Helvetica,sans-Serif" font-size="10.00">ExampleEKF.cpp</text>
</a>
</g>
</g>
<!-- Node1&#45;&gt;Node12 -->
<g id="edge27" class="edge">
<title>Node1&#45;&gt;Node12</title>
<path fill="none" stroke="midnightblue" d="M605.55,-174.84C736.85,-169.11 1010.33,-148.54 1064,-76 1082.12,-51.51 1040.5,-30.66 1011.06,-19.57"/>
<polygon fill="midnightblue" stroke="midnightblue" points="605.04,-171.36 595.2,-175.27 605.34,-178.35 605.04,-171.36"/>
</g>
<!-- Node13 -->
<g id="node13" class="node">
<title>Node13</title>
<g id="a_node13"><a xlink:href="ExamplePropagation_8cpp.html" target="_top" xlink:title="Example propagating both GPS constellation and Lunar Satellite.">
<polygon fill="white" stroke="black" points="634,-0.5 634,-19.5 772,-19.5 772,-0.5 634,-0.5"/>
<text text-anchor="middle" x="703" y="-7.5" font-family="Helvetica,sans-Serif" font-size="10.00">ExamplePropagation.cpp</text>
</a>
</g>
</g>
<!-- Node1&#45;&gt;Node13 -->
<g id="edge28" class="edge">
<title>Node1&#45;&gt;Node13</title>
<path fill="none" stroke="midnightblue" d="M580.59,-165.5C623.55,-151.97 685.45,-124.88 714,-76 724.5,-58.01 714.51,-32.75 707.86,-19.64"/>
<polygon fill="midnightblue" stroke="midnightblue" points="579.48,-162.18 570.92,-168.42 581.51,-168.88 579.48,-162.18"/>
</g>
<!-- Node14 -->
<g id="node14" class="node">
<title>Node14</title>
<g id="a_node14"><a xlink:href="GNSSTransmitter_8h.html" target="_top" xlink:title="Handles GNSS transmit.">
<polygon fill="white" stroke="black" points="764.5,-112.5 764.5,-131.5 871.5,-131.5 871.5,-112.5 764.5,-112.5"/>
<text text-anchor="middle" x="818" y="-119.5" font-family="Helvetica,sans-Serif" font-size="10.00">GNSSTransmitter.h</text>
</a>
</g>
</g>
<!-- Node1&#45;&gt;Node14 -->
<g id="edge17" class="edge">
<title>Node1&#45;&gt;Node14</title>
<path fill="none" stroke="midnightblue" d="M589.83,-166.54C643.32,-156.33 723.67,-141 773.37,-131.52"/>
<polygon fill="midnightblue" stroke="midnightblue" points="589.01,-163.13 579.84,-168.44 590.32,-170.01 589.01,-163.13"/>
</g>
<!-- Node3 -->
<g id="node3" class="node">
<title>Node3</title>
<g id="a_node3"><a xlink:href="GNSSStateEstimationApp_8cpp.html" target="_top" xlink:title="State Estimation Application Using GNSS Measurement.">
<polygon fill="white" stroke="black" points="152.5,-0.5 152.5,-19.5 313.5,-19.5 313.5,-0.5 152.5,-0.5"/>
<text text-anchor="middle" x="233" y="-7.5" font-family="Helvetica,sans-Serif" font-size="10.00">GNSSStateEstimationApp.cpp</text>
</a>
</g>
</g>
<!-- Node2&#45;&gt;Node3 -->
<g id="edge2" class="edge">
<title>Node2&#45;&gt;Node3</title>
<path fill="none" stroke="midnightblue" d="M233,-45.8C233,-36.91 233,-26.78 233,-19.75"/>
<polygon fill="midnightblue" stroke="midnightblue" points="229.5,-46.08 233,-56.08 236.5,-46.08 229.5,-46.08"/>
</g>
<!-- Node4 -->
<g id="node4" class="node">
<title>Node4</title>
<g id="a_node4"><a xlink:href="ExampleEKFApp_8cpp.html" target="_top" xlink:title="Example of EKF application.">
<polygon fill="white" stroke="black" points="332,-0.5 332,-19.5 448,-19.5 448,-0.5 332,-0.5"/>
<text text-anchor="middle" x="390" y="-7.5" font-family="Helvetica,sans-Serif" font-size="10.00">ExampleEKFApp.cpp</text>
</a>
</g>
</g>
<!-- Node2&#45;&gt;Node4 -->
<g id="edge3" class="edge">
<title>Node2&#45;&gt;Node4</title>
<path fill="none" stroke="midnightblue" d="M267.39,-53.17C296.95,-43 338.87,-28.59 365.24,-19.52"/>
<polygon fill="midnightblue" stroke="midnightblue" points="266.2,-49.88 257.88,-56.44 268.47,-56.5 266.2,-49.88"/>
</g>
<!-- Node6 -->
<g id="node6" class="node">
<title>Node6</title>
<g id="a_node6"><a xlink:href="StateEstimationApp_8cpp.html" target="_top" xlink:title="Base class for State Estimation Application.">
<polygon fill="white" stroke="black" points="0,-0.5 0,-19.5 134,-19.5 134,-0.5 0,-0.5"/>
<text text-anchor="middle" x="67" y="-7.5" font-family="Helvetica,sans-Serif" font-size="10.00">StateEstimationApp.cpp</text>
</a>
</g>
</g>
<!-- Node5&#45;&gt;Node6 -->
<g id="edge5" class="edge">
<title>Node5&#45;&gt;Node6</title>
<path fill="none" stroke="midnightblue" d="M74.8,-46.1C72.81,-37.14 70.52,-26.86 68.94,-19.75"/>
<polygon fill="midnightblue" stroke="midnightblue" points="71.43,-47.08 77.02,-56.08 78.27,-45.56 71.43,-47.08"/>
</g>
<!-- Node9&#45;&gt;Node2 -->
<g id="edge9" class="edge">
<title>Node9&#45;&gt;Node2</title>
<path fill="none" stroke="midnightblue" d="M413.33,-110.09C370.64,-99.89 307.75,-84.86 268.64,-75.52"/>
<polygon fill="midnightblue" stroke="midnightblue" points="412.65,-113.52 423.19,-112.44 414.28,-106.72 412.65,-113.52"/>
</g>
<!-- Node9&#45;&gt;Node4 -->
<g id="edge15" class="edge">
<title>Node9&#45;&gt;Node4</title>
<path fill="none" stroke="midnightblue" d="M456.35,-102.27C453.77,-88.64 448.9,-70.15 440,-56 430.55,-40.97 414.7,-27.92 403.37,-19.81"/>
<polygon fill="midnightblue" stroke="midnightblue" points="452.93,-103.09 458.01,-112.39 459.84,-101.95 452.93,-103.09"/>
</g>
<!-- Node9&#45;&gt;Node5 -->
<g id="edge10" class="edge">
<title>Node9&#45;&gt;Node5</title>
<path fill="none" stroke="midnightblue" d="M401.17,-112.78C330.33,-102.71 210.9,-85.74 139.05,-75.53"/>
<polygon fill="midnightblue" stroke="midnightblue" points="400.86,-116.27 411.26,-114.22 401.85,-109.34 400.86,-116.27"/>
</g>
<!-- Node9&#45;&gt;Node8 -->
<g id="edge12" class="edge">
<title>Node9&#45;&gt;Node8</title>
<path fill="none" stroke="midnightblue" d="M437.43,-106.62C422.64,-96.76 403.49,-83.99 390.98,-75.65"/>
<polygon fill="midnightblue" stroke="midnightblue" points="435.72,-109.69 445.99,-112.32 439.61,-103.86 435.72,-109.69"/>
</g>
<!-- Node10 -->
<g id="node10" class="node">
<title>Node10</title>
<g id="a_node10"><a xlink:href="GNSSChannel_8cpp.html" target="_top" xlink:title="GNSS Channel.">
<polygon fill="white" stroke="black" points="601,-56.5 601,-75.5 705,-75.5 705,-56.5 601,-56.5"/>
<text text-anchor="middle" x="653" y="-63.5" font-family="Helvetica,sans-Serif" font-size="10.00">GNSSChannel.cpp</text>
</a>
</g>
</g>
<!-- Node9&#45;&gt;Node10 -->
<g id="edge11" class="edge">
<title>Node9&#45;&gt;Node10</title>
<path fill="none" stroke="midnightblue" d="M499.6,-109.7C536.22,-99.51 589.26,-84.74 622.4,-75.52"/>
<polygon fill="midnightblue" stroke="midnightblue" points="498.44,-106.39 489.74,-112.44 500.31,-113.13 498.44,-106.39"/>
</g>
<!-- Node9&#45;&gt;Node11 -->
<g id="edge13" class="edge">
<title>Node9&#45;&gt;Node11</title>
<path fill="none" stroke="midnightblue" d="M471.47,-104.27C489.2,-80.49 521.03,-37.79 534.6,-19.59"/>
<polygon fill="midnightblue" stroke="midnightblue" points="468.6,-102.26 465.43,-112.37 474.22,-106.44 468.6,-102.26"/>
</g>
<!-- Node9&#45;&gt;Node12 -->
<g id="edge14" class="edge">
<title>Node9&#45;&gt;Node12</title>
<path fill="none" stroke="midnightblue" d="M516.54,-118.4C617.25,-113.28 821.12,-100.22 888,-76 906.39,-69.34 952.19,-35.78 973.61,-19.66"/>
<polygon fill="midnightblue" stroke="midnightblue" points="516.35,-114.9 506.54,-118.9 516.7,-121.89 516.35,-114.9"/>
</g>
<!-- Node9&#45;&gt;Node13 -->
<g id="edge16" class="edge">
<title>Node9&#45;&gt;Node13</title>
<path fill="none" stroke="midnightblue" d="M484.64,-107.81C511.24,-94.28 554.17,-72.89 592,-56 622.38,-42.44 658.15,-28.25 680.7,-19.52"/>
<polygon fill="midnightblue" stroke="midnightblue" points="482.94,-104.75 475.62,-112.41 486.12,-110.99 482.94,-104.75"/>
</g>
<!-- Node14&#45;&gt;Node10 -->
<g id="edge24" class="edge">
<title>Node14&#45;&gt;Node10</title>
<path fill="none" stroke="midnightblue" d="M782.26,-109.3C751.17,-99.13 706.85,-84.62 679.02,-75.52"/>
<polygon fill="midnightblue" stroke="midnightblue" points="781.26,-112.66 791.86,-112.44 783.44,-106.01 781.26,-112.66"/>
</g>
<!-- Node15 -->
<g id="node15" class="node">
<title>Node15</title>
<g id="a_node15"><a xlink:href="GNSSConstellation_8h.html" target="_top" xlink:title=" ">
<polygon fill="white" stroke="black" points="761.5,-56.5 761.5,-75.5 878.5,-75.5 878.5,-56.5 761.5,-56.5"/>
<text text-anchor="middle" x="820" y="-63.5" font-family="Helvetica,sans-Serif" font-size="10.00">GNSSConstellation.h</text>
</a>
</g>
</g>
<!-- Node14&#45;&gt;Node15 -->
<g id="edge18" class="edge">
<title>Node14&#45;&gt;Node15</title>
<path fill="none" stroke="midnightblue" d="M818.71,-101.8C819.04,-92.91 819.42,-82.78 819.68,-75.75"/>
<polygon fill="midnightblue" stroke="midnightblue" points="815.2,-101.96 818.33,-112.08 822.2,-102.22 815.2,-101.96"/>
</g>
<!-- Node17 -->
<g id="node17" class="node">
<title>Node17</title>
<g id="a_node17"><a xlink:href="GNSSTransmitter_8cpp.html" target="_top" xlink:title="Handles GNSS transmit.">
<polygon fill="white" stroke="black" points="935.5,-56.5 935.5,-75.5 1054.5,-75.5 1054.5,-56.5 935.5,-56.5"/>
<text text-anchor="middle" x="995" y="-63.5" font-family="Helvetica,sans-Serif" font-size="10.00">GNSSTransmitter.cpp</text>
</a>
</g>
</g>
<!-- Node14&#45;&gt;Node17 -->
<g id="edge25" class="edge">
<title>Node14&#45;&gt;Node17</title>
<path fill="none" stroke="midnightblue" d="M855.9,-109.44C889.28,-99.26 937.1,-84.66 967.09,-75.52"/>
<polygon fill="midnightblue" stroke="midnightblue" points="854.59,-106.18 846.05,-112.44 856.63,-112.87 854.59,-106.18"/>
</g>
<!-- Node15&#45;&gt;Node4 -->
<g id="edge22" class="edge">
<title>Node15&#45;&gt;Node4</title>
<path fill="none" stroke="midnightblue" d="M751.39,-56.64C678.57,-47.72 560.14,-33.11 458,-20 454.81,-19.59 451.54,-19.17 448.23,-18.74"/>
<polygon fill="midnightblue" stroke="midnightblue" points="751.01,-60.11 761.36,-57.86 751.86,-53.17 751.01,-60.11"/>
</g>
<!-- Node15&#45;&gt;Node11 -->
<g id="edge20" class="edge">
<title>Node15&#45;&gt;Node11</title>
<path fill="none" stroke="midnightblue" d="M765.94,-54.54C713.21,-44.33 634,-29 585,-19.52"/>
<polygon fill="midnightblue" stroke="midnightblue" points="765.31,-57.98 775.79,-56.44 766.64,-51.11 765.31,-57.98"/>
</g>
<!-- Node15&#45;&gt;Node12 -->
<g id="edge21" class="edge">
<title>Node15&#45;&gt;Node12</title>
<path fill="none" stroke="midnightblue" d="M855.74,-53.3C886.83,-43.13 931.15,-28.62 958.98,-19.52"/>
<polygon fill="midnightblue" stroke="midnightblue" points="854.56,-50.01 846.14,-56.44 856.74,-56.66 854.56,-50.01"/>
</g>
<!-- Node15&#45;&gt;Node13 -->
<g id="edge23" class="edge">
<title>Node15&#45;&gt;Node13</title>
<path fill="none" stroke="midnightblue" d="M792.34,-52.23C770.45,-42.13 740.5,-28.31 721.45,-19.52"/>
<polygon fill="midnightblue" stroke="midnightblue" points="790.91,-55.43 801.46,-56.44 793.85,-49.08 790.91,-55.43"/>
</g>
<!-- Node16 -->
<g id="node16" class="node">
<title>Node16</title>
<g id="a_node16"><a xlink:href="GNSSConstellation_8cpp.html" target="_top" xlink:title="GNSS Constellation.">
<polygon fill="white" stroke="black" points="790,-0.5 790,-19.5 918,-19.5 918,-0.5 790,-0.5"/>
<text text-anchor="middle" x="854" y="-7.5" font-family="Helvetica,sans-Serif" font-size="10.00">GNSSConstellation.cpp</text>
</a>
</g>
</g>
<!-- Node15&#45;&gt;Node16 -->
<g id="edge19" class="edge">
<title>Node15&#45;&gt;Node16</title>
<path fill="none" stroke="midnightblue" d="M830.98,-47.57C836.83,-38.27 843.77,-27.25 848.49,-19.75"/>
<polygon fill="midnightblue" stroke="midnightblue" points="827.98,-45.76 825.61,-56.08 833.9,-49.49 827.98,-45.76"/>
</g>
</g>
</svg>
