<?xml version="1.0" encoding="UTF-8" standalone="no"?>
<!DOCTYPE svg PUBLIC "-//W3C//DTD SVG 1.1//EN"
 "http://www.w3.org/Graphics/SVG/1.1/DTD/svg11.dtd">
<!-- Generated by graphviz version 2.43.0 (0)
 -->
<!-- Title: GNSSReceiver.cpp Pages: 1 -->
<svg width="1685pt" height="453pt"
 viewBox="0.00 0.00 1685.00 453.00" xmlns="http://www.w3.org/2000/svg" xmlns:xlink="http://www.w3.org/1999/xlink">
<g id="graph0" class="graph" transform="scale(1 1) rotate(0) translate(4 449)">
<title>GNSSReceiver.cpp</title>
<polygon fill="white" stroke="transparent" points="-4,4 -4,-449 1681,-449 1681,4 -4,4"/>
<!-- Node1 -->
<g id="node1" class="node">
<title>Node1</title>
<g id="a_node1"><a xlink:title="GNSS Receiver class.">
<polygon fill="#bfbfbf" stroke="black" points="990,-425.5 990,-444.5 1096,-444.5 1096,-425.5 990,-425.5"/>
<text text-anchor="middle" x="1043" y="-432.5" font-family="Helvetica,sans-Serif" font-size="10.00">GNSSReceiver.cpp</text>
</a>
</g>
</g>
<!-- Node2 -->
<g id="node2" class="node">
<title>Node2</title>
<g id="a_node2"><a xlink:href="GNSSReceiver_8h.html" target="_top" xlink:title="GNSS receiver class.">
<polygon fill="white" stroke="black" points="310.5,-369.5 310.5,-388.5 405.5,-388.5 405.5,-369.5 310.5,-369.5"/>
<text text-anchor="middle" x="358" y="-376.5" font-family="Helvetica,sans-Serif" font-size="10.00">GNSSReceiver.h</text>
</a>
</g>
</g>
<!-- Node1&#45;&gt;Node2 -->
<g id="edge1" class="edge">
<title>Node1&#45;&gt;Node2</title>
<path fill="none" stroke="midnightblue" d="M989.82,-429.81C863.57,-419.86 546.62,-394.87 415.83,-384.56"/>
<polygon fill="midnightblue" stroke="midnightblue" points="415.86,-381.05 405.62,-383.75 415.31,-388.03 415.86,-381.05"/>
</g>
<!-- Node30 -->
<g id="node30" class="node">
<title>Node30</title>
<g id="a_node30"><a xlink:href="GNSSMeasurement_8h.html" target="_top" xlink:title="Class that constructs GPS measurement data from channel observables.">
<polygon fill="white" stroke="black" points="983,-252 983,-271 1103,-271 1103,-252 983,-252"/>
<text text-anchor="middle" x="1043" y="-259" font-family="Helvetica,sans-Serif" font-size="10.00">GNSSMeasurement.h</text>
</a>
</g>
</g>
<!-- Node1&#45;&gt;Node30 -->
<g id="edge60" class="edge">
<title>Node1&#45;&gt;Node30</title>
<path fill="none" stroke="midnightblue" d="M1043,-425.26C1043,-398.65 1043,-318.21 1043,-281.34"/>
<polygon fill="midnightblue" stroke="midnightblue" points="1046.5,-281.02 1043,-271.02 1039.5,-281.02 1046.5,-281.02"/>
</g>
<!-- Node31 -->
<g id="node31" class="node">
<title>Node31</title>
<g id="a_node31"><a xlink:href="SpiceInterface_8h.html" target="_top" xlink:title="SPICE Interface functions.">
<polygon fill="white" stroke="black" points="1303.5,-185 1303.5,-204 1466.5,-204 1466.5,-185 1303.5,-185"/>
<text text-anchor="middle" x="1385" y="-192" font-family="Helvetica,sans-Serif" font-size="10.00">lupnt/physics/SpiceInterface.h</text>
</a>
</g>
</g>
<!-- Node1&#45;&gt;Node31 -->
<g id="edge61" class="edge">
<title>Node1&#45;&gt;Node31</title>
<path fill="none" stroke="midnightblue" d="M1055.58,-425.23C1106.81,-389.5 1300.05,-254.74 1364.18,-210.02"/>
<polygon fill="midnightblue" stroke="midnightblue" points="1366.47,-212.69 1372.67,-204.1 1362.46,-206.95 1366.47,-212.69"/>
</g>
<!-- Node3 -->
<g id="node3" class="node">
<title>Node3</title>
<g id="a_node3"><a xlink:href="CommDevice_8h.html" target="_top" xlink:title="Communication devices.">
<polygon fill="white" stroke="black" points="377.5,-252 377.5,-271 532.5,-271 532.5,-252 377.5,-252"/>
<text text-anchor="middle" x="455" y="-259" font-family="Helvetica,sans-Serif" font-size="10.00">lupnt/agents/CommDevice.h</text>
</a>
</g>
</g>
<!-- Node2&#45;&gt;Node3 -->
<g id="edge2" class="edge">
<title>Node2&#45;&gt;Node3</title>
<path fill="none" stroke="midnightblue" d="M365.29,-369.32C381.37,-350.17 420.11,-304.04 441.03,-279.13"/>
<polygon fill="midnightblue" stroke="midnightblue" points="443.87,-281.19 447.62,-271.28 438.51,-276.69 443.87,-281.19"/>
</g>
<!-- Node9 -->
<g id="node9" class="node">
<title>Node9</title>
<g id="a_node9"><a xlink:title=" ">
<polygon fill="white" stroke="#bfbfbf" points="1272,-0.5 1272,-19.5 1316,-19.5 1316,-0.5 1272,-0.5"/>
<text text-anchor="middle" x="1294" y="-7.5" font-family="Helvetica,sans-Serif" font-size="10.00">string</text>
</a>
</g>
</g>
<!-- Node2&#45;&gt;Node9 -->
<g id="edge40" class="edge">
<title>Node2&#45;&gt;Node9</title>
<path fill="none" stroke="midnightblue" d="M310.06,-377.25C254.39,-374.78 160.89,-365.58 88,-333 42.25,-312.55 0,-312.61 0,-262.5 0,-262.5 0,-262.5 0,-132 0,-93.19 9.83,-76.15 43,-56 96.58,-23.45 1070.13,-13.02 1261.5,-11.28"/>
<polygon fill="midnightblue" stroke="midnightblue" points="1261.78,-14.77 1271.75,-11.18 1261.72,-7.77 1261.78,-14.77"/>
</g>
<!-- Node16 -->
<g id="node16" class="node">
<title>Node16</title>
<g id="a_node16"><a xlink:href="Transmission_8h.html" target="_top" xlink:title="Signal transmission data.">
<polygon fill="white" stroke="black" points="1072,-179.5 1072,-209.5 1190,-209.5 1190,-179.5 1072,-179.5"/>
<text text-anchor="start" x="1080" y="-197.5" font-family="Helvetica,sans-Serif" font-size="10.00">lupnt/measurements</text>
<text text-anchor="middle" x="1131" y="-186.5" font-family="Helvetica,sans-Serif" font-size="10.00">/Transmission.h</text>
</a>
</g>
</g>
<!-- Node2&#45;&gt;Node16 -->
<g id="edge39" class="edge">
<title>Node2&#45;&gt;Node16</title>
<path fill="none" stroke="midnightblue" d="M405.61,-378.43C554.57,-378.76 1007.98,-371.8 1112,-277 1127.71,-262.68 1131.67,-238.12 1132.18,-219.69"/>
<polygon fill="midnightblue" stroke="midnightblue" points="1135.68,-219.66 1132.14,-209.67 1128.68,-219.68 1135.68,-219.66"/>
</g>
<!-- Node24 -->
<g id="node24" class="node">
<title>Node24</title>
<g id="a_node24"><a xlink:title=" ">
<polygon fill="white" stroke="#bfbfbf" points="52.5,-62 52.5,-81 99.5,-81 99.5,-62 52.5,-62"/>
<text text-anchor="middle" x="76" y="-69" font-family="Helvetica,sans-Serif" font-size="10.00">vector</text>
</a>
</g>
</g>
<!-- Node2&#45;&gt;Node24 -->
<g id="edge42" class="edge">
<title>Node2&#45;&gt;Node24</title>
<path fill="none" stroke="midnightblue" d="M310.44,-370.98C221.3,-356.49 38,-319.72 38,-262.5 38,-262.5 38,-262.5 38,-193.5 38,-155.31 55.44,-113.33 66.69,-90.22"/>
<polygon fill="midnightblue" stroke="midnightblue" points="69.96,-91.52 71.34,-81.02 63.71,-88.36 69.96,-91.52"/>
</g>
<!-- Node25 -->
<g id="node25" class="node">
<title>Node25</title>
<g id="a_node25"><a xlink:title=" ">
<polygon fill="white" stroke="#bfbfbf" points="194.5,-313.5 194.5,-332.5 235.5,-332.5 235.5,-313.5 194.5,-313.5"/>
<text text-anchor="middle" x="215" y="-320.5" font-family="Helvetica,sans-Serif" font-size="10.00">tuple</text>
</a>
</g>
</g>
<!-- Node2&#45;&gt;Node25 -->
<g id="edge41" class="edge">
<title>Node2&#45;&gt;Node25</title>
<path fill="none" stroke="midnightblue" d="M335.34,-369.44C311.04,-360.27 272.32,-345.64 245.39,-335.47"/>
<polygon fill="midnightblue" stroke="midnightblue" points="246.29,-332.07 235.7,-331.82 243.81,-338.62 246.29,-332.07"/>
</g>
<!-- Node26 -->
<g id="node26" class="node">
<title>Node26</title>
<g id="a_node26"><a xlink:href="GNSSChannel_8h.html" target="_top" xlink:title="GNSS Channel class.">
<polygon fill="white" stroke="black" points="254,-313.5 254,-332.5 346,-332.5 346,-313.5 254,-313.5"/>
<text text-anchor="middle" x="300" y="-320.5" font-family="Helvetica,sans-Serif" font-size="10.00">GNSSChannel.h</text>
</a>
</g>
</g>
<!-- Node2&#45;&gt;Node26 -->
<g id="edge43" class="edge">
<title>Node2&#45;&gt;Node26</title>
<path fill="none" stroke="midnightblue" d="M348.68,-369.32C340.11,-361.34 327.19,-349.31 316.81,-339.65"/>
<polygon fill="midnightblue" stroke="midnightblue" points="319.19,-337.09 309.49,-332.83 314.42,-342.21 319.19,-337.09"/>
</g>
<!-- Node2&#45;&gt;Node30 -->
<g id="edge53" class="edge">
<title>Node2&#45;&gt;Node30</title>
<path fill="none" stroke="midnightblue" d="M405.62,-369.97C527.01,-349.5 847.87,-295.4 982.35,-272.73"/>
<polygon fill="midnightblue" stroke="midnightblue" points="983.19,-276.13 992.47,-271.02 982.03,-269.23 983.19,-276.13"/>
</g>
<!-- Node4 -->
<g id="node4" class="node">
<title>Node4</title>
<g id="a_node4"><a xlink:title=" ">
<polygon fill="white" stroke="#bfbfbf" points="960.5,-62 960.5,-81 1097.5,-81 1097.5,-62 960.5,-62"/>
<text text-anchor="middle" x="1029" y="-69" font-family="Helvetica,sans-Serif" font-size="10.00">autodiff/forward/real.hpp</text>
</a>
</g>
</g>
<!-- Node3&#45;&gt;Node4 -->
<g id="edge3" class="edge">
<title>Node3&#45;&gt;Node4</title>
<path fill="none" stroke="midnightblue" d="M532.74,-257.85C671.97,-252.41 952.59,-238.08 987,-210 1023.01,-180.61 1028.85,-121.23 1029.37,-91.03"/>
<polygon fill="midnightblue" stroke="midnightblue" points="1032.87,-91.01 1029.35,-81.01 1025.87,-91.02 1032.87,-91.01"/>
</g>
<!-- Node5 -->
<g id="node5" class="node">
<title>Node5</title>
<g id="a_node5"><a xlink:title=" ">
<polygon fill="white" stroke="#bfbfbf" points="474,-56.5 474,-86.5 590,-86.5 590,-56.5 474,-56.5"/>
<text text-anchor="start" x="482" y="-74.5" font-family="Helvetica,sans-Serif" font-size="10.00">autodiff/forward/real</text>
<text text-anchor="middle" x="532" y="-63.5" font-family="Helvetica,sans-Serif" font-size="10.00">/eigen.hpp</text>
</a>
</g>
</g>
<!-- Node3&#45;&gt;Node5 -->
<g id="edge4" class="edge">
<title>Node3&#45;&gt;Node5</title>
<path fill="none" stroke="midnightblue" d="M455.74,-251.97C457.95,-229.64 465.88,-168.07 489,-123 494.34,-112.6 502.2,-102.5 509.76,-94.1"/>
<polygon fill="midnightblue" stroke="midnightblue" points="512.5,-96.3 516.81,-86.62 507.4,-91.5 512.5,-96.3"/>
</g>
<!-- Node6 -->
<g id="node6" class="node">
<title>Node6</title>
<g id="a_node6"><a xlink:title=" ">
<polygon fill="white" stroke="#bfbfbf" points="208,-123.5 208,-142.5 246,-142.5 246,-123.5 208,-123.5"/>
<text text-anchor="middle" x="227" y="-130.5" font-family="Helvetica,sans-Serif" font-size="10.00">map</text>
</a>
</g>
</g>
<!-- Node3&#45;&gt;Node6 -->
<g id="edge5" class="edge">
<title>Node3&#45;&gt;Node6</title>
<path fill="none" stroke="midnightblue" d="M431.51,-251.9C407.43,-242.74 369.19,-227.2 338,-210 304.03,-191.27 267.41,-164.85 245.88,-148.6"/>
<polygon fill="midnightblue" stroke="midnightblue" points="247.96,-145.79 237.89,-142.51 243.72,-151.36 247.96,-145.79"/>
</g>
<!-- Node7 -->
<g id="node7" class="node">
<title>Node7</title>
<g id="a_node7"><a xlink:title=" ">
<polygon fill="white" stroke="#bfbfbf" points="366,-185 366,-204 424,-204 424,-185 366,-185"/>
<text text-anchor="middle" x="395" y="-192" font-family="Helvetica,sans-Serif" font-size="10.00">memory</text>
</a>
</g>
</g>
<!-- Node3&#45;&gt;Node7 -->
<g id="edge6" class="edge">
<title>Node3&#45;&gt;Node7</title>
<path fill="none" stroke="midnightblue" d="M446.91,-251.73C437.46,-241.5 421.64,-224.36 409.95,-211.69"/>
<polygon fill="midnightblue" stroke="midnightblue" points="412.32,-209.1 402.96,-204.13 407.17,-213.85 412.32,-209.1"/>
</g>
<!-- Node8 -->
<g id="node8" class="node">
<title>Node8</title>
<g id="a_node8"><a xlink:href="Antenna_8h.html" target="_top" xlink:title="Antenna class.">
<polygon fill="white" stroke="black" points="860,-179.5 860,-209.5 978,-209.5 978,-179.5 860,-179.5"/>
<text text-anchor="start" x="868" y="-197.5" font-family="Helvetica,sans-Serif" font-size="10.00">lupnt/measurements</text>
<text text-anchor="middle" x="919" y="-186.5" font-family="Helvetica,sans-Serif" font-size="10.00">/Antenna.h</text>
</a>
</g>
</g>
<!-- Node3&#45;&gt;Node8 -->
<g id="edge7" class="edge">
<title>Node3&#45;&gt;Node8</title>
<path fill="none" stroke="midnightblue" d="M516.14,-251.94C602.39,-239.85 759.34,-217.87 849.78,-205.2"/>
<polygon fill="midnightblue" stroke="midnightblue" points="850.51,-208.63 859.93,-203.78 849.54,-201.7 850.51,-208.63"/>
</g>
<!-- Node3&#45;&gt;Node16 -->
<g id="edge20" class="edge">
<title>Node3&#45;&gt;Node16</title>
<path fill="none" stroke="midnightblue" d="M532.78,-254.56C641.82,-246 846.24,-229.11 1020,-210 1033.52,-208.51 1047.95,-206.75 1061.78,-204.99"/>
<polygon fill="midnightblue" stroke="midnightblue" points="1062.25,-208.45 1071.72,-203.7 1061.35,-201.51 1062.25,-208.45"/>
</g>
<!-- Node18 -->
<g id="node18" class="node">
<title>Node18</title>
<g id="a_node18"><a xlink:href="MathUtils_8h.html" target="_top" xlink:title=" ">
<polygon fill="white" stroke="black" points="263.5,-123.5 263.5,-142.5 412.5,-142.5 412.5,-123.5 263.5,-123.5"/>
<text text-anchor="middle" x="338" y="-130.5" font-family="Helvetica,sans-Serif" font-size="10.00">lupnt/numerics/MathUtils.h</text>
</a>
</g>
</g>
<!-- Node3&#45;&gt;Node18 -->
<g id="edge25" class="edge">
<title>Node3&#45;&gt;Node18</title>
<path fill="none" stroke="midnightblue" d="M423.58,-251.89C401.79,-244.32 373.76,-231.15 357,-210 343.96,-193.54 339.74,-169.3 338.44,-152.64"/>
<polygon fill="midnightblue" stroke="midnightblue" points="341.93,-152.32 337.94,-142.51 334.94,-152.67 341.93,-152.32"/>
</g>
<!-- Node20 -->
<g id="node20" class="node">
<title>Node20</title>
<g id="a_node20"><a xlink:href="OrbitState_8h.html" target="_top" xlink:title="Orbit states.">
<polygon fill="white" stroke="black" points="569.5,-185 569.5,-204 712.5,-204 712.5,-185 569.5,-185"/>
<text text-anchor="middle" x="641" y="-192" font-family="Helvetica,sans-Serif" font-size="10.00">lupnt/physics/OrbitState.h</text>
</a>
</g>
</g>
<!-- Node3&#45;&gt;Node20 -->
<g id="edge29" class="edge">
<title>Node3&#45;&gt;Node20</title>
<path fill="none" stroke="midnightblue" d="M479.7,-251.87C512.31,-240.47 569.88,-220.35 606.7,-207.49"/>
<polygon fill="midnightblue" stroke="midnightblue" points="608.21,-210.67 616.49,-204.06 605.9,-204.06 608.21,-210.67"/>
</g>
<!-- Node8&#45;&gt;Node4 -->
<g id="edge8" class="edge">
<title>Node8&#45;&gt;Node4</title>
<path fill="none" stroke="midnightblue" d="M932.05,-179.14C952.72,-156.41 992.85,-112.27 1014.43,-88.53"/>
<polygon fill="midnightblue" stroke="midnightblue" points="1017.09,-90.81 1021.23,-81.05 1011.91,-86.1 1017.09,-90.81"/>
</g>
<!-- Node8&#45;&gt;Node5 -->
<g id="edge9" class="edge">
<title>Node8&#45;&gt;Node5</title>
<path fill="none" stroke="midnightblue" d="M906.06,-179.29C890.27,-162.91 861.95,-136.51 832,-123 757.33,-89.3 663,-77.9 600.26,-74.15"/>
<polygon fill="midnightblue" stroke="midnightblue" points="600.26,-70.64 590.08,-73.59 599.88,-77.63 600.26,-70.64"/>
</g>
<!-- Node8&#45;&gt;Node9 -->
<g id="edge10" class="edge">
<title>Node8&#45;&gt;Node9</title>
<path fill="none" stroke="midnightblue" d="M917.67,-179.26C915.9,-151.04 916.42,-88.03 952,-56 997.07,-15.42 1184.9,-10.88 1261.38,-10.76"/>
<polygon fill="midnightblue" stroke="midnightblue" points="1261.82,-14.26 1271.83,-10.77 1261.83,-7.26 1261.82,-14.26"/>
</g>
<!-- Node10 -->
<g id="node10" class="node">
<title>Node10</title>
<g id="a_node10"><a xlink:href="Constants_8h.html" target="_top" xlink:title="List of constants.">
<polygon fill="white" stroke="black" points="1322,-123.5 1322,-142.5 1448,-142.5 1448,-123.5 1322,-123.5"/>
<text text-anchor="middle" x="1385" y="-130.5" font-family="Helvetica,sans-Serif" font-size="10.00">lupnt/core/Constants.h</text>
</a>
</g>
</g>
<!-- Node8&#45;&gt;Node10 -->
<g id="edge11" class="edge">
<title>Node8&#45;&gt;Node10</title>
<path fill="none" stroke="midnightblue" d="M978.02,-185.96C1062.88,-175.13 1219.29,-155.16 1311.53,-143.38"/>
<polygon fill="midnightblue" stroke="midnightblue" points="1312.15,-146.83 1321.62,-142.09 1311.26,-139.89 1312.15,-146.83"/>
</g>
<!-- Node10&#45;&gt;Node4 -->
<g id="edge13" class="edge">
<title>Node10&#45;&gt;Node4</title>
<path fill="none" stroke="midnightblue" d="M1333.99,-123.48C1269.62,-112.72 1159.02,-94.23 1090.17,-82.72"/>
<polygon fill="midnightblue" stroke="midnightblue" points="1090.35,-79.21 1079.91,-81.01 1089.2,-86.11 1090.35,-79.21"/>
</g>
<!-- Node10&#45;&gt;Node9 -->
<g id="edge14" class="edge">
<title>Node10&#45;&gt;Node9</title>
<path fill="none" stroke="midnightblue" d="M1378.46,-123.3C1363.44,-103.33 1326.28,-53.92 1306.64,-27.8"/>
<polygon fill="midnightblue" stroke="midnightblue" points="1309.29,-25.51 1300.49,-19.62 1303.7,-29.72 1309.29,-25.51"/>
</g>
<!-- Node11 -->
<g id="node11" class="node">
<title>Node11</title>
<g id="a_node11"><a xlink:title=" ">
<polygon fill="white" stroke="#bfbfbf" points="1360.5,-62 1360.5,-81 1511.5,-81 1511.5,-62 1360.5,-62"/>
<text text-anchor="middle" x="1436" y="-69" font-family="Helvetica,sans-Serif" font-size="10.00">autodiff/common/eigen.hpp</text>
</a>
</g>
</g>
<!-- Node10&#45;&gt;Node11 -->
<g id="edge12" class="edge">
<title>Node10&#45;&gt;Node11</title>
<path fill="none" stroke="midnightblue" d="M1392.31,-123.48C1400.03,-114.46 1412.41,-100.02 1422.02,-88.81"/>
<polygon fill="midnightblue" stroke="midnightblue" points="1424.86,-90.88 1428.71,-81.01 1419.54,-86.32 1424.86,-90.88"/>
</g>
<!-- Node12 -->
<g id="node12" class="node">
<title>Node12</title>
<g id="a_node12"><a xlink:href="UserFilePath_8h.html" target="_top" xlink:title="File access utils.">
<polygon fill="white" stroke="black" points="1530,-62 1530,-81 1616,-81 1616,-62 1530,-62"/>
<text text-anchor="middle" x="1573" y="-69" font-family="Helvetica,sans-Serif" font-size="10.00">UserFilePath.h</text>
</a>
</g>
</g>
<!-- Node10&#45;&gt;Node12 -->
<g id="edge15" class="edge">
<title>Node10&#45;&gt;Node12</title>
<path fill="none" stroke="midnightblue" d="M1411.94,-123.48C1444.6,-113.14 1499.82,-95.66 1536.34,-84.1"/>
<polygon fill="midnightblue" stroke="midnightblue" points="1537.64,-87.36 1546.11,-81.01 1535.52,-80.69 1537.64,-87.36"/>
</g>
<!-- Node12&#45;&gt;Node9 -->
<g id="edge19" class="edge">
<title>Node12&#45;&gt;Node9</title>
<path fill="none" stroke="midnightblue" d="M1543.95,-61.98C1536.5,-59.91 1528.48,-57.78 1521,-56 1452.04,-39.57 1370.3,-24.41 1326.16,-16.58"/>
<polygon fill="midnightblue" stroke="midnightblue" points="1326.49,-13.08 1316.03,-14.79 1325.27,-19.98 1326.49,-13.08"/>
</g>
<!-- Node13 -->
<g id="node13" class="node">
<title>Node13</title>
<g id="a_node13"><a xlink:title=" ">
<polygon fill="white" stroke="#bfbfbf" points="1457,-0.5 1457,-19.5 1525,-19.5 1525,-0.5 1457,-0.5"/>
<text text-anchor="middle" x="1491" y="-7.5" font-family="Helvetica,sans-Serif" font-size="10.00">filesystem</text>
</a>
</g>
</g>
<!-- Node12&#45;&gt;Node13 -->
<g id="edge16" class="edge">
<title>Node12&#45;&gt;Node13</title>
<path fill="none" stroke="midnightblue" d="M1561.25,-61.98C1548.22,-52.52 1526.96,-37.1 1511.24,-25.69"/>
<polygon fill="midnightblue" stroke="midnightblue" points="1512.88,-22.55 1502.73,-19.51 1508.77,-28.21 1512.88,-22.55"/>
</g>
<!-- Node14 -->
<g id="node14" class="node">
<title>Node14</title>
<g id="a_node14"><a xlink:title=" ">
<polygon fill="white" stroke="#bfbfbf" points="1543,-0.5 1543,-19.5 1603,-19.5 1603,-0.5 1543,-0.5"/>
<text text-anchor="middle" x="1573" y="-7.5" font-family="Helvetica,sans-Serif" font-size="10.00">iostream</text>
</a>
</g>
</g>
<!-- Node12&#45;&gt;Node14 -->
<g id="edge17" class="edge">
<title>Node12&#45;&gt;Node14</title>
<path fill="none" stroke="midnightblue" d="M1573,-61.98C1573,-53.58 1573,-40.48 1573,-29.66"/>
<polygon fill="midnightblue" stroke="midnightblue" points="1576.5,-29.51 1573,-19.51 1569.5,-29.51 1576.5,-29.51"/>
</g>
<!-- Node15 -->
<g id="node15" class="node">
<title>Node15</title>
<g id="a_node15"><a xlink:title=" ">
<polygon fill="white" stroke="#bfbfbf" points="1621,-0.5 1621,-19.5 1677,-19.5 1677,-0.5 1621,-0.5"/>
<text text-anchor="middle" x="1649" y="-7.5" font-family="Helvetica,sans-Serif" font-size="10.00">optional</text>
</a>
</g>
</g>
<!-- Node12&#45;&gt;Node15 -->
<g id="edge18" class="edge">
<title>Node12&#45;&gt;Node15</title>
<path fill="none" stroke="midnightblue" d="M1583.89,-61.98C1595.97,-52.52 1615.67,-37.1 1630.24,-25.69"/>
<polygon fill="midnightblue" stroke="midnightblue" points="1632.41,-28.43 1638.13,-19.51 1628.1,-22.92 1632.41,-28.43"/>
</g>
<!-- Node16&#45;&gt;Node4 -->
<g id="edge22" class="edge">
<title>Node16&#45;&gt;Node4</title>
<path fill="none" stroke="midnightblue" d="M1143.21,-179.28C1154.5,-164.31 1167.89,-140.52 1156,-123 1142.65,-103.33 1120.31,-91.32 1098.04,-83.99"/>
<polygon fill="midnightblue" stroke="midnightblue" points="1098.78,-80.56 1088.2,-81.03 1096.77,-87.26 1098.78,-80.56"/>
</g>
<!-- Node16&#45;&gt;Node5 -->
<g id="edge23" class="edge">
<title>Node16&#45;&gt;Node5</title>
<path fill="none" stroke="midnightblue" d="M1134.07,-179.35C1136.64,-163.28 1137.83,-137.43 1123,-123 1086.19,-87.2 747.96,-76.53 600.36,-73.56"/>
<polygon fill="midnightblue" stroke="midnightblue" points="600.13,-70.06 590.07,-73.36 600,-77.06 600.13,-70.06"/>
</g>
<!-- Node16&#45;&gt;Node9 -->
<g id="edge24" class="edge">
<title>Node16&#45;&gt;Node9</title>
<path fill="none" stroke="midnightblue" d="M1143.52,-179.48C1173.2,-146.26 1247.69,-62.85 1279.37,-27.37"/>
<polygon fill="midnightblue" stroke="midnightblue" points="1282.07,-29.61 1286.12,-19.82 1276.85,-24.95 1282.07,-29.61"/>
</g>
<!-- Node17 -->
<g id="node17" class="node">
<title>Node17</title>
<g id="a_node17"><a xlink:title=" ">
<polygon fill="white" stroke="#bfbfbf" points="1036.5,-123.5 1036.5,-142.5 1113.5,-142.5 1113.5,-123.5 1036.5,-123.5"/>
<text text-anchor="middle" x="1075" y="-130.5" font-family="Helvetica,sans-Serif" font-size="10.00">Eigen/Dense</text>
</a>
</g>
</g>
<!-- Node16&#45;&gt;Node17 -->
<g id="edge21" class="edge">
<title>Node16&#45;&gt;Node17</title>
<path fill="none" stroke="midnightblue" d="M1117.73,-179.4C1109.42,-170.58 1098.7,-159.18 1090.08,-150.02"/>
<polygon fill="midnightblue" stroke="midnightblue" points="1092.55,-147.54 1083.15,-142.66 1087.45,-152.34 1092.55,-147.54"/>
</g>
<!-- Node18&#45;&gt;Node4 -->
<g id="edge26" class="edge">
<title>Node18&#45;&gt;Node4</title>
<path fill="none" stroke="midnightblue" d="M412.61,-125.58C544.06,-114.26 815.73,-90.86 950.14,-79.29"/>
<polygon fill="midnightblue" stroke="midnightblue" points="950.7,-82.76 960.36,-78.41 950.1,-75.78 950.7,-82.76"/>
</g>
<!-- Node18&#45;&gt;Node5 -->
<g id="edge27" class="edge">
<title>Node18&#45;&gt;Node5</title>
<path fill="none" stroke="midnightblue" d="M365.8,-123.48C394.53,-114.66 440.16,-100.67 476.34,-89.57"/>
<polygon fill="midnightblue" stroke="midnightblue" points="477.74,-92.8 486.28,-86.52 475.69,-86.11 477.74,-92.8"/>
</g>
<!-- Node19 -->
<g id="node19" class="node">
<title>Node19</title>
<g id="a_node19"><a xlink:title=" ">
<polygon fill="white" stroke="#bfbfbf" points="311,-62 311,-81 365,-81 365,-62 311,-62"/>
<text text-anchor="middle" x="338" y="-69" font-family="Helvetica,sans-Serif" font-size="10.00">random</text>
</a>
</g>
</g>
<!-- Node18&#45;&gt;Node19 -->
<g id="edge28" class="edge">
<title>Node18&#45;&gt;Node19</title>
<path fill="none" stroke="midnightblue" d="M338,-123.48C338,-115.08 338,-101.98 338,-91.16"/>
<polygon fill="midnightblue" stroke="midnightblue" points="341.5,-91.01 338,-81.01 334.5,-91.01 341.5,-91.01"/>
</g>
<!-- Node20&#45;&gt;Node4 -->
<g id="edge31" class="edge">
<title>Node20&#45;&gt;Node4</title>
<path fill="none" stroke="midnightblue" d="M668.28,-184.99C736.38,-163.76 913.92,-108.39 991.64,-84.15"/>
<polygon fill="midnightblue" stroke="midnightblue" points="992.98,-87.4 1001.49,-81.08 990.9,-80.72 992.98,-87.4"/>
</g>
<!-- Node20&#45;&gt;Node5 -->
<g id="edge32" class="edge">
<title>Node20&#45;&gt;Node5</title>
<path fill="none" stroke="midnightblue" d="M569.34,-185.66C542.44,-178.83 514.42,-166.21 498,-143 487.27,-127.84 497.69,-108.77 509.74,-94.29"/>
<polygon fill="midnightblue" stroke="midnightblue" points="512.41,-96.55 516.47,-86.77 507.19,-91.88 512.41,-96.55"/>
</g>
<!-- Node20&#45;&gt;Node17 -->
<g id="edge30" class="edge">
<title>Node20&#45;&gt;Node17</title>
<path fill="none" stroke="midnightblue" d="M703.18,-184.98C790.33,-173.03 946.98,-151.55 1026.24,-140.69"/>
<polygon fill="midnightblue" stroke="midnightblue" points="1027,-144.11 1036.43,-139.29 1026.05,-137.18 1027,-144.11"/>
</g>
<!-- Node21 -->
<g id="node21" class="node">
<title>Node21</title>
<g id="a_node21"><a xlink:title=" ">
<polygon fill="white" stroke="#bfbfbf" points="576,-123.5 576,-142.5 706,-142.5 706,-123.5 576,-123.5"/>
<text text-anchor="middle" x="641" y="-130.5" font-family="Helvetica,sans-Serif" font-size="10.00">boost/preprocessor.hpp</text>
</a>
</g>
</g>
<!-- Node20&#45;&gt;Node21 -->
<g id="edge33" class="edge">
<title>Node20&#45;&gt;Node21</title>
<path fill="none" stroke="midnightblue" d="M641,-184.98C641,-176.58 641,-163.48 641,-152.66"/>
<polygon fill="midnightblue" stroke="midnightblue" points="644.5,-152.51 641,-142.51 637.5,-152.51 644.5,-152.51"/>
</g>
<!-- Node22 -->
<g id="node22" class="node">
<title>Node22</title>
<g id="a_node22"><a xlink:title=" ">
<polygon fill="white" stroke="#bfbfbf" points="724.5,-123.5 724.5,-142.5 789.5,-142.5 789.5,-123.5 724.5,-123.5"/>
<text text-anchor="middle" x="757" y="-130.5" font-family="Helvetica,sans-Serif" font-size="10.00">stdexcept</text>
</a>
</g>
</g>
<!-- Node20&#45;&gt;Node22 -->
<g id="edge34" class="edge">
<title>Node20&#45;&gt;Node22</title>
<path fill="none" stroke="midnightblue" d="M657.62,-184.98C676.92,-175.08 708.96,-158.64 731.43,-147.12"/>
<polygon fill="midnightblue" stroke="midnightblue" points="733.11,-150.19 740.41,-142.51 729.92,-143.96 733.11,-150.19"/>
</g>
<!-- Node23 -->
<g id="node23" class="node">
<title>Node23</title>
<g id="a_node23"><a xlink:href="State_8h.html" target="_top" xlink:title="SPICE Interface functions.">
<polygon fill="white" stroke="black" points="506.5,-123.5 506.5,-142.5 557.5,-142.5 557.5,-123.5 506.5,-123.5"/>
<text text-anchor="middle" x="532" y="-130.5" font-family="Helvetica,sans-Serif" font-size="10.00">State.h</text>
</a>
</g>
</g>
<!-- Node20&#45;&gt;Node23 -->
<g id="edge35" class="edge">
<title>Node20&#45;&gt;Node23</title>
<path fill="none" stroke="midnightblue" d="M625.38,-184.98C607.41,-175.17 577.68,-158.93 556.59,-147.42"/>
<polygon fill="midnightblue" stroke="midnightblue" points="558.04,-144.23 547.59,-142.51 554.69,-150.37 558.04,-144.23"/>
</g>
<!-- Node23&#45;&gt;Node4 -->
<g id="edge36" class="edge">
<title>Node23&#45;&gt;Node4</title>
<path fill="none" stroke="midnightblue" d="M557.52,-124.99C560.7,-124.25 563.91,-123.56 567,-123 700.51,-98.67 858.01,-84.51 950.35,-77.66"/>
<polygon fill="midnightblue" stroke="midnightblue" points="950.74,-81.14 960.46,-76.92 950.23,-74.16 950.74,-81.14"/>
</g>
<!-- Node23&#45;&gt;Node5 -->
<g id="edge37" class="edge">
<title>Node23&#45;&gt;Node5</title>
<path fill="none" stroke="midnightblue" d="M532,-123.48C532,-116.47 532,-106.19 532,-96.7"/>
<polygon fill="midnightblue" stroke="midnightblue" points="535.5,-96.52 532,-86.52 528.5,-96.52 535.5,-96.52"/>
</g>
<!-- Node23&#45;&gt;Node24 -->
<g id="edge38" class="edge">
<title>Node23&#45;&gt;Node24</title>
<path fill="none" stroke="midnightblue" d="M506.18,-128.63C428.5,-118.49 196.97,-88.28 109.74,-76.9"/>
<polygon fill="midnightblue" stroke="midnightblue" points="109.97,-73.4 99.6,-75.58 109.07,-80.34 109.97,-73.4"/>
</g>
<!-- Node26&#45;&gt;Node24 -->
<g id="edge52" class="edge">
<title>Node26&#45;&gt;Node24</title>
<path fill="none" stroke="midnightblue" d="M280.2,-313.43C262.37,-305.28 235.85,-292.05 215,-277 150.18,-230.21 129.93,-214.91 95,-143 86.96,-126.45 81.93,-105.99 79.08,-91.39"/>
<polygon fill="midnightblue" stroke="midnightblue" points="82.45,-90.34 77.25,-81.11 75.56,-91.57 82.45,-90.34"/>
</g>
<!-- Node27 -->
<g id="node27" class="node">
<title>Node27</title>
<g id="a_node27"><a xlink:href="Occultation_8h.html" target="_top" xlink:title="Signal blockage model.">
<polygon fill="white" stroke="black" points="154,-179.5 154,-209.5 272,-209.5 272,-179.5 154,-179.5"/>
<text text-anchor="start" x="162" y="-197.5" font-family="Helvetica,sans-Serif" font-size="10.00">lupnt/measurements</text>
<text text-anchor="middle" x="213" y="-186.5" font-family="Helvetica,sans-Serif" font-size="10.00">/Occultation.h</text>
</a>
</g>
</g>
<!-- Node26&#45;&gt;Node27 -->
<g id="edge44" class="edge">
<title>Node26&#45;&gt;Node27</title>
<path fill="none" stroke="midnightblue" d="M279.34,-313.46C263.98,-306.05 243.72,-293.85 232,-277 220.36,-260.27 215.78,-237.4 214,-220.15"/>
<polygon fill="midnightblue" stroke="midnightblue" points="217.46,-219.44 213.2,-209.74 210.48,-219.98 217.46,-219.44"/>
</g>
<!-- Node29 -->
<g id="node29" class="node">
<title>Node29</title>
<g id="a_node29"><a xlink:href="SpaceChannel_8h.html" target="_top" xlink:title="Base spacechannel class (Under devlopment )">
<polygon fill="white" stroke="black" points="241,-246.5 241,-276.5 359,-276.5 359,-246.5 241,-246.5"/>
<text text-anchor="start" x="249" y="-264.5" font-family="Helvetica,sans-Serif" font-size="10.00">lupnt/measurements</text>
<text text-anchor="middle" x="300" y="-253.5" font-family="Helvetica,sans-Serif" font-size="10.00">/SpaceChannel.h</text>
</a>
</g>
</g>
<!-- Node26&#45;&gt;Node29 -->
<g id="edge49" class="edge">
<title>Node26&#45;&gt;Node29</title>
<path fill="none" stroke="midnightblue" d="M300,-313.48C300,-306.47 300,-296.19 300,-286.7"/>
<polygon fill="midnightblue" stroke="midnightblue" points="303.5,-286.52 300,-276.52 296.5,-286.52 303.5,-286.52"/>
</g>
<!-- Node27&#45;&gt;Node5 -->
<g id="edge46" class="edge">
<title>Node27&#45;&gt;Node5</title>
<path fill="none" stroke="midnightblue" d="M204.02,-179.31C195.39,-163.69 185.5,-138.71 199,-123 216.02,-103.21 371.3,-86.46 463.69,-78.13"/>
<polygon fill="midnightblue" stroke="midnightblue" points="464.15,-81.61 473.8,-77.23 463.53,-74.63 464.15,-81.61"/>
</g>
<!-- Node27&#45;&gt;Node6 -->
<g id="edge48" class="edge">
<title>Node27&#45;&gt;Node6</title>
<path fill="none" stroke="midnightblue" d="M216.32,-179.4C218.21,-171.38 220.59,-161.23 222.63,-152.57"/>
<polygon fill="midnightblue" stroke="midnightblue" points="226.08,-153.19 224.96,-142.66 219.27,-151.59 226.08,-153.19"/>
</g>
<!-- Node27&#45;&gt;Node10 -->
<g id="edge45" class="edge">
<title>Node27&#45;&gt;Node10</title>
<path fill="none" stroke="midnightblue" d="M272.14,-186.78C298.14,-184.03 329.06,-181.02 357,-179 542.86,-165.59 1108.5,-144.15 1311.5,-136.67"/>
<polygon fill="midnightblue" stroke="midnightblue" points="1311.89,-140.16 1321.76,-136.3 1311.64,-133.17 1311.89,-140.16"/>
</g>
<!-- Node28 -->
<g id="node28" class="node">
<title>Node28</title>
<g id="a_node28"><a xlink:title=" ">
<polygon fill="white" stroke="#bfbfbf" points="104.5,-123.5 104.5,-142.5 151.5,-142.5 151.5,-123.5 104.5,-123.5"/>
<text text-anchor="middle" x="128" y="-130.5" font-family="Helvetica,sans-Serif" font-size="10.00">cmath</text>
</a>
</g>
</g>
<!-- Node27&#45;&gt;Node28 -->
<g id="edge47" class="edge">
<title>Node27&#45;&gt;Node28</title>
<path fill="none" stroke="midnightblue" d="M192.86,-179.4C179.61,-170.13 162.32,-158.03 148.92,-148.65"/>
<polygon fill="midnightblue" stroke="midnightblue" points="150.57,-145.53 140.37,-142.66 146.55,-151.26 150.57,-145.53"/>
</g>
<!-- Node29&#45;&gt;Node7 -->
<g id="edge51" class="edge">
<title>Node29&#45;&gt;Node7</title>
<path fill="none" stroke="midnightblue" d="M320.61,-246.4C336.4,-235.6 358.09,-220.76 373.97,-209.89"/>
<polygon fill="midnightblue" stroke="midnightblue" points="376.29,-212.54 382.57,-204.01 372.34,-206.77 376.29,-212.54"/>
</g>
<!-- Node29&#45;&gt;Node27 -->
<g id="edge50" class="edge">
<title>Node29&#45;&gt;Node27</title>
<path fill="none" stroke="midnightblue" d="M281.12,-246.4C269.15,-237.45 253.47,-225.74 240.17,-215.8"/>
<polygon fill="midnightblue" stroke="midnightblue" points="241.95,-212.76 231.84,-209.58 237.76,-218.37 241.95,-212.76"/>
</g>
<!-- Node30&#45;&gt;Node4 -->
<g id="edge57" class="edge">
<title>Node30&#45;&gt;Node4</title>
<path fill="none" stroke="midnightblue" d="M1103.35,-257.59C1137.34,-252.48 1177.23,-239.93 1199,-210 1207.1,-198.86 1202.07,-192.43 1199,-179 1192.85,-152.06 1192.58,-141.44 1172,-123 1149.82,-103.13 1119.32,-90.96 1092.19,-83.56"/>
<polygon fill="midnightblue" stroke="midnightblue" points="1092.92,-80.14 1082.37,-81.05 1091.19,-86.92 1092.92,-80.14"/>
</g>
<!-- Node30&#45;&gt;Node5 -->
<g id="edge58" class="edge">
<title>Node30&#45;&gt;Node5</title>
<path fill="none" stroke="midnightblue" d="M982.9,-256.48C942.22,-251.11 889.16,-238.69 851,-210 814.99,-182.93 835.94,-148.79 799,-123 767.59,-101.07 668.57,-86.64 600.37,-79.02"/>
<polygon fill="midnightblue" stroke="midnightblue" points="600.44,-75.51 590.12,-77.9 599.68,-82.47 600.44,-75.51"/>
</g>
<!-- Node30&#45;&gt;Node7 -->
<g id="edge59" class="edge">
<title>Node30&#45;&gt;Node7</title>
<path fill="none" stroke="midnightblue" d="M982.91,-254.47C852.04,-241.34 544.21,-210.47 434.61,-199.47"/>
<polygon fill="midnightblue" stroke="midnightblue" points="434.63,-195.96 424.33,-198.44 433.93,-202.92 434.63,-195.96"/>
</g>
<!-- Node30&#45;&gt;Node10 -->
<g id="edge54" class="edge">
<title>Node30&#45;&gt;Node10</title>
<path fill="none" stroke="midnightblue" d="M1084.3,-251.97C1123.09,-243.38 1182.43,-228.72 1232,-210 1235.26,-208.77 1316.07,-168.45 1358.9,-147.05"/>
<polygon fill="midnightblue" stroke="midnightblue" points="1360.54,-150.14 1367.92,-142.54 1357.41,-143.88 1360.54,-150.14"/>
</g>
<!-- Node30&#45;&gt;Node16 -->
<g id="edge55" class="edge">
<title>Node30&#45;&gt;Node16</title>
<path fill="none" stroke="midnightblue" d="M1054.87,-251.73C1067.33,-242.53 1087.36,-227.73 1103.75,-215.63"/>
<polygon fill="midnightblue" stroke="midnightblue" points="1105.96,-218.35 1111.93,-209.59 1101.8,-212.72 1105.96,-218.35"/>
</g>
<!-- Node30&#45;&gt;Node17 -->
<g id="edge56" class="edge">
<title>Node30&#45;&gt;Node17</title>
<path fill="none" stroke="midnightblue" d="M1045.05,-251.92C1048.61,-237.05 1056.21,-205.53 1063,-179 1065.23,-170.28 1067.79,-160.63 1069.98,-152.51"/>
<polygon fill="midnightblue" stroke="midnightblue" points="1073.42,-153.18 1072.65,-142.61 1066.66,-151.35 1073.42,-153.18"/>
</g>
<!-- Node31&#45;&gt;Node4 -->
<g id="edge63" class="edge">
<title>Node31&#45;&gt;Node4</title>
<path fill="none" stroke="midnightblue" d="M1405.34,-184.99C1433.33,-172.11 1478.04,-146.67 1457,-123 1434.24,-97.39 1224.95,-82.58 1107.7,-76.22"/>
<polygon fill="midnightblue" stroke="midnightblue" points="1107.86,-72.72 1097.69,-75.68 1107.49,-79.71 1107.86,-72.72"/>
</g>
<!-- Node31&#45;&gt;Node5 -->
<g id="edge64" class="edge">
<title>Node31&#45;&gt;Node5</title>
<path fill="none" stroke="midnightblue" d="M1361.58,-185C1318.67,-169.81 1224.29,-138.19 1142,-123 947.69,-87.14 713.83,-76.73 600.39,-73.72"/>
<polygon fill="midnightblue" stroke="midnightblue" points="600.2,-70.21 590.12,-73.46 600.03,-77.21 600.2,-70.21"/>
</g>
<!-- Node31&#45;&gt;Node10 -->
<g id="edge65" class="edge">
<title>Node31&#45;&gt;Node10</title>
<path fill="none" stroke="midnightblue" d="M1385,-184.98C1385,-176.58 1385,-163.48 1385,-152.66"/>
<polygon fill="midnightblue" stroke="midnightblue" points="1388.5,-152.51 1385,-142.51 1381.5,-152.51 1388.5,-152.51"/>
</g>
<!-- Node32 -->
<g id="node32" class="node">
<title>Node32</title>
<g id="a_node32"><a xlink:title=" ">
<polygon fill="white" stroke="#bfbfbf" points="1504.5,-123.5 1504.5,-142.5 1557.5,-142.5 1557.5,-123.5 1504.5,-123.5"/>
<text text-anchor="middle" x="1531" y="-130.5" font-family="Helvetica,sans-Serif" font-size="10.00">string.h</text>
</a>
</g>
</g>
<!-- Node31&#45;&gt;Node32 -->
<g id="edge62" class="edge">
<title>Node31&#45;&gt;Node32</title>
<path fill="none" stroke="midnightblue" d="M1405.92,-184.98C1430.75,-174.86 1472.34,-157.9 1500.69,-146.35"/>
<polygon fill="midnightblue" stroke="midnightblue" points="1502.18,-149.52 1510.12,-142.51 1499.54,-143.04 1502.18,-149.52"/>
</g>
</g>
</svg>
