<?xml version="1.0" encoding="UTF-8" standalone="no"?>
<!DOCTYPE svg PUBLIC "-//W3C//DTD SVG 1.1//EN"
 "http://www.w3.org/Graphics/SVG/1.1/DTD/svg11.dtd">
<!-- Generated by graphviz version 2.43.0 (0)
 -->
<!-- Title: GravityField.h Pages: 1 -->
<svg width="1525pt" height="252pt"
 viewBox="0.00 0.00 1525.00 252.00" xmlns="http://www.w3.org/2000/svg" xmlns:xlink="http://www.w3.org/1999/xlink">
<g id="graph0" class="graph" transform="scale(1 1) rotate(0) translate(4 248)">
<title>GravityField.h</title>
<polygon fill="white" stroke="transparent" points="-4,4 -4,-248 1521,-248 1521,4 -4,4"/>
<!-- Node1 -->
<g id="node1" class="node">
<title>Node1</title>
<g id="a_node1"><a xlink:title="Gravity field model and acceleration calculation.">
<polygon fill="#bfbfbf" stroke="black" points="1274.5,-224.5 1274.5,-243.5 1359.5,-243.5 1359.5,-224.5 1274.5,-224.5"/>
<text text-anchor="middle" x="1317" y="-231.5" font-family="Helvetica,sans-Serif" font-size="10.00">GravityField.h</text>
</a>
</g>
</g>
<!-- Node2 -->
<g id="node2" class="node">
<title>Node2</title>
<g id="a_node2"><a xlink:href="Dynamics_8h.html" target="_top" xlink:title="Interface for Dynamics.">
<polygon fill="white" stroke="black" points="959,-168.5 959,-187.5 1033,-187.5 1033,-168.5 959,-168.5"/>
<text text-anchor="middle" x="996" y="-175.5" font-family="Helvetica,sans-Serif" font-size="10.00">Dynamics.h</text>
</a>
</g>
</g>
<!-- Node1&#45;&gt;Node2 -->
<g id="edge1" class="edge">
<title>Node1&#45;&gt;Node2</title>
<path fill="none" stroke="midnightblue" d="M1264.33,-224.14C1199.29,-213.2 1090.31,-194.87 1033.31,-185.28"/>
<polygon fill="midnightblue" stroke="midnightblue" points="1263.93,-227.62 1274.37,-225.83 1265.09,-220.72 1263.93,-227.62"/>
</g>
<!-- Node20 -->
<g id="node20" class="node">
<title>Node20</title>
<g id="a_node20"><a xlink:href="NBodyDynamics_8cpp.html" target="_top" xlink:title="Multiple&#45;body dynamics.">
<polygon fill="white" stroke="black" points="1239,-112.5 1239,-131.5 1357,-131.5 1357,-112.5 1239,-112.5"/>
<text text-anchor="middle" x="1298" y="-119.5" font-family="Helvetica,sans-Serif" font-size="10.00">NBodyDynamics.cpp</text>
</a>
</g>
</g>
<!-- Node1&#45;&gt;Node20 -->
<g id="edge33" class="edge">
<title>Node1&#45;&gt;Node20</title>
<path fill="none" stroke="midnightblue" d="M1313.78,-214.35C1309.62,-190.25 1302.54,-149.31 1299.48,-131.59"/>
<polygon fill="midnightblue" stroke="midnightblue" points="1310.36,-215.11 1315.51,-224.37 1317.26,-213.92 1310.36,-215.11"/>
</g>
<!-- Node22 -->
<g id="node22" class="node">
<title>Node22</title>
<g id="a_node22"><a xlink:href="ExamplePerformance_8cpp.html" target="_top" xlink:title="Example for performance testing of spherical harmonics computation.">
<polygon fill="white" stroke="black" points="1375,-112.5 1375,-131.5 1517,-131.5 1517,-112.5 1375,-112.5"/>
<text text-anchor="middle" x="1446" y="-119.5" font-family="Helvetica,sans-Serif" font-size="10.00">ExamplePerformance.cpp</text>
</a>
</g>
</g>
<!-- Node1&#45;&gt;Node22 -->
<g id="edge34" class="edge">
<title>Node1&#45;&gt;Node22</title>
<path fill="none" stroke="midnightblue" d="M1324.02,-215.12C1330.35,-200.87 1340.85,-181.2 1355,-168 1373.43,-150.81 1399.67,-138.78 1419.24,-131.52"/>
<polygon fill="midnightblue" stroke="midnightblue" points="1320.78,-213.78 1320.15,-224.36 1327.24,-216.49 1320.78,-213.78"/>
</g>
<!-- Node23 -->
<g id="node23" class="node">
<title>Node23</title>
<g id="a_node23"><a xlink:href="GravityField_8cpp.html" target="_top" xlink:title="Gravity Field Implementations.">
<polygon fill="white" stroke="black" points="1364,-168.5 1364,-187.5 1460,-187.5 1460,-168.5 1364,-168.5"/>
<text text-anchor="middle" x="1412" y="-175.5" font-family="Helvetica,sans-Serif" font-size="10.00">GravityField.cpp</text>
</a>
</g>
</g>
<!-- Node1&#45;&gt;Node23 -->
<g id="edge32" class="edge">
<title>Node1&#45;&gt;Node23</title>
<path fill="none" stroke="midnightblue" d="M1341.32,-219.18C1358.8,-209.24 1381.83,-196.15 1396.77,-187.65"/>
<polygon fill="midnightblue" stroke="midnightblue" points="1339.23,-216.34 1332.26,-224.32 1342.69,-222.43 1339.23,-216.34"/>
</g>
<!-- Node3 -->
<g id="node3" class="node">
<title>Node3</title>
<g id="a_node3"><a xlink:href="Agent_8h.html" target="_top" xlink:title="List of agents.">
<polygon fill="white" stroke="black" points="587,-112.5 587,-131.5 641,-131.5 641,-112.5 587,-112.5"/>
<text text-anchor="middle" x="614" y="-119.5" font-family="Helvetica,sans-Serif" font-size="10.00">Agent.h</text>
</a>
</g>
</g>
<!-- Node2&#45;&gt;Node3 -->
<g id="edge2" class="edge">
<title>Node2&#45;&gt;Node3</title>
<path fill="none" stroke="midnightblue" d="M948.66,-172.04C882.64,-164.83 759.26,-150.29 655,-132 650.55,-131.22 645.85,-130.29 641.28,-129.33"/>
<polygon fill="midnightblue" stroke="midnightblue" points="948.44,-175.53 958.75,-173.13 949.19,-168.58 948.44,-175.53"/>
</g>
<!-- Node5 -->
<g id="node5" class="node">
<title>Node5</title>
<g id="a_node5"><a xlink:href="GNSSConstellation_8h.html" target="_top" xlink:title=" ">
<polygon fill="white" stroke="black" points="951.5,-56.5 951.5,-75.5 1068.5,-75.5 1068.5,-56.5 951.5,-56.5"/>
<text text-anchor="middle" x="1010" y="-63.5" font-family="Helvetica,sans-Serif" font-size="10.00">GNSSConstellation.h</text>
</a>
</g>
</g>
<!-- Node2&#45;&gt;Node5 -->
<g id="edge22" class="edge">
<title>Node2&#45;&gt;Node5</title>
<path fill="none" stroke="midnightblue" d="M948.86,-177.29C871.08,-176.66 721.15,-170.34 688,-132 682.19,-125.28 682.17,-118.71 688,-112 689.08,-110.76 858.57,-87.57 951.18,-74.98"/>
<polygon fill="midnightblue" stroke="midnightblue" points="948.86,-180.79 958.88,-177.35 948.9,-173.79 948.86,-180.79"/>
</g>
<!-- Node7 -->
<g id="node7" class="node">
<title>Node7</title>
<g id="a_node7"><a xlink:href="ExampleConstellations_8cpp.html" target="_top" xlink:title="Setup GNSS Constellation.">
<polygon fill="white" stroke="black" points="1136.5,-0.5 1136.5,-19.5 1285.5,-19.5 1285.5,-0.5 1136.5,-0.5"/>
<text text-anchor="middle" x="1211" y="-7.5" font-family="Helvetica,sans-Serif" font-size="10.00">ExampleConstellations.cpp</text>
</a>
</g>
</g>
<!-- Node2&#45;&gt;Node7 -->
<g id="edge26" class="edge">
<title>Node2&#45;&gt;Node7</title>
<path fill="none" stroke="midnightblue" d="M1043.41,-176.77C1082.39,-174.07 1136.6,-164.15 1171,-132 1204.14,-101.03 1209.85,-42.07 1210.82,-19.81"/>
<polygon fill="midnightblue" stroke="midnightblue" points="1043.14,-173.28 1033.35,-177.34 1043.54,-180.27 1043.14,-173.28"/>
</g>
<!-- Node8 -->
<g id="node8" class="node">
<title>Node8</title>
<g id="a_node8"><a xlink:href="ExampleEKF_8cpp.html" target="_top" xlink:title="Example of Extended Kalman Filter for orbit determination.">
<polygon fill="white" stroke="black" points="490.5,-0.5 490.5,-19.5 587.5,-19.5 587.5,-0.5 490.5,-0.5"/>
<text text-anchor="middle" x="539" y="-7.5" font-family="Helvetica,sans-Serif" font-size="10.00">ExampleEKF.cpp</text>
</a>
</g>
</g>
<!-- Node2&#45;&gt;Node8 -->
<g id="edge27" class="edge">
<title>Node2&#45;&gt;Node8</title>
<path fill="none" stroke="midnightblue" d="M948.23,-173.78C797.21,-163.11 337.61,-126.68 296,-76 290.36,-69.13 290.32,-62.83 296,-56 308.33,-41.18 423.15,-24.98 490.45,-16.65"/>
<polygon fill="midnightblue" stroke="midnightblue" points="948.34,-177.3 958.56,-174.5 948.83,-170.31 948.34,-177.3"/>
</g>
<!-- Node9 -->
<g id="node9" class="node">
<title>Node9</title>
<g id="a_node9"><a xlink:href="ExampleEKFApp_8cpp.html" target="_top" xlink:title="Example of EKF application.">
<polygon fill="white" stroke="black" points="0,-0.5 0,-19.5 116,-19.5 116,-0.5 0,-0.5"/>
<text text-anchor="middle" x="58" y="-7.5" font-family="Helvetica,sans-Serif" font-size="10.00">ExampleEKFApp.cpp</text>
</a>
</g>
</g>
<!-- Node2&#45;&gt;Node9 -->
<g id="edge28" class="edge">
<title>Node2&#45;&gt;Node9</title>
<path fill="none" stroke="midnightblue" d="M948.71,-175C847.07,-170.37 600.36,-157.32 395,-132 249.53,-114.06 174.26,-179.02 70,-76 54.82,-61 55.36,-33.48 56.8,-19.56"/>
<polygon fill="midnightblue" stroke="midnightblue" points="948.8,-178.51 958.95,-175.46 949.12,-171.52 948.8,-178.51"/>
</g>
<!-- Node10 -->
<g id="node10" class="node">
<title>Node10</title>
<g id="a_node10"><a xlink:href="ExamplePropagation_8cpp.html" target="_top" xlink:title="Example propagating both GPS constellation and Lunar Satellite.">
<polygon fill="white" stroke="black" points="980,-0.5 980,-19.5 1118,-19.5 1118,-0.5 980,-0.5"/>
<text text-anchor="middle" x="1049" y="-7.5" font-family="Helvetica,sans-Serif" font-size="10.00">ExamplePropagation.cpp</text>
</a>
</g>
</g>
<!-- Node2&#45;&gt;Node10 -->
<g id="edge31" class="edge">
<title>Node2&#45;&gt;Node10</title>
<path fill="none" stroke="midnightblue" d="M1042.96,-169.87C1084.21,-162.53 1139.68,-149.68 1153,-132 1186.26,-87.87 1104.52,-39.04 1066.82,-19.63"/>
<polygon fill="midnightblue" stroke="midnightblue" points="1042.34,-166.42 1033.08,-171.57 1043.53,-173.32 1042.34,-166.42"/>
</g>
<!-- Node18 -->
<g id="node18" class="node">
<title>Node18</title>
<g id="a_node18"><a xlink:href="DynamicsAnalytical_8cpp.html" target="_top" xlink:title="Analytical orbit dynamics implementation.">
<polygon fill="white" stroke="black" points="697,-112.5 697,-131.5 831,-131.5 831,-112.5 697,-112.5"/>
<text text-anchor="middle" x="764" y="-119.5" font-family="Helvetica,sans-Serif" font-size="10.00">DynamicsAnalytical.cpp</text>
</a>
</g>
</g>
<!-- Node2&#45;&gt;Node18 -->
<g id="edge23" class="edge">
<title>Node2&#45;&gt;Node18</title>
<path fill="none" stroke="midnightblue" d="M949.4,-166.15C905.56,-155.95 840.82,-140.88 800.59,-131.52"/>
<polygon fill="midnightblue" stroke="midnightblue" points="948.71,-169.59 959.24,-168.44 950.29,-162.77 948.71,-169.59"/>
</g>
<!-- Node19 -->
<g id="node19" class="node">
<title>Node19</title>
<g id="a_node19"><a xlink:href="DynamicsNumerical_8cpp.html" target="_top" xlink:title="List of Numerical Dynamics.">
<polygon fill="white" stroke="black" points="849,-112.5 849,-131.5 985,-131.5 985,-112.5 849,-112.5"/>
<text text-anchor="middle" x="917" y="-119.5" font-family="Helvetica,sans-Serif" font-size="10.00">DynamicsNumerical.cpp</text>
</a>
</g>
</g>
<!-- Node2&#45;&gt;Node19 -->
<g id="edge24" class="edge">
<title>Node2&#45;&gt;Node19</title>
<path fill="none" stroke="midnightblue" d="M974.97,-162.62C960.53,-152.76 941.86,-139.99 929.66,-131.65"/>
<polygon fill="midnightblue" stroke="midnightblue" points="973.08,-165.57 983.31,-168.32 977.03,-159.79 973.08,-165.57"/>
</g>
<!-- Node2&#45;&gt;Node20 -->
<g id="edge25" class="edge">
<title>Node2&#45;&gt;Node20</title>
<path fill="none" stroke="midnightblue" d="M1043.11,-168.58C1099.53,-158.49 1193.49,-141.69 1250.21,-131.55"/>
<polygon fill="midnightblue" stroke="midnightblue" points="1042.26,-165.17 1033.03,-170.38 1043.49,-172.06 1042.26,-165.17"/>
</g>
<!-- Node21 -->
<g id="node21" class="node">
<title>Node21</title>
<g id="a_node21"><a xlink:href="ExampleFrozenOrbits_8cpp.html" target="_top" xlink:title="Example of frozen orbits.">
<polygon fill="white" stroke="black" points="1003.5,-112.5 1003.5,-131.5 1144.5,-131.5 1144.5,-112.5 1003.5,-112.5"/>
<text text-anchor="middle" x="1074" y="-119.5" font-family="Helvetica,sans-Serif" font-size="10.00">ExampleFrozenOrbits.cpp</text>
</a>
</g>
</g>
<!-- Node2&#45;&gt;Node21 -->
<g id="edge29" class="edge">
<title>Node2&#45;&gt;Node21</title>
<path fill="none" stroke="midnightblue" d="M1016.77,-162.62C1031.02,-152.76 1049.46,-139.99 1061.5,-131.65"/>
<polygon fill="midnightblue" stroke="midnightblue" points="1014.76,-159.75 1008.53,-168.32 1018.75,-165.51 1014.76,-159.75"/>
</g>
<!-- Node2&#45;&gt;Node22 -->
<g id="edge30" class="edge">
<title>Node2&#45;&gt;Node22</title>
<path fill="none" stroke="midnightblue" d="M1043.37,-171.32C1122.53,-161.82 1282.14,-142.66 1374.86,-131.54"/>
<polygon fill="midnightblue" stroke="midnightblue" points="1042.72,-167.87 1033.21,-172.54 1043.55,-174.82 1042.72,-167.87"/>
</g>
<!-- Node4 -->
<g id="node4" class="node">
<title>Node4</title>
<g id="a_node4"><a xlink:href="Agent_8cpp.html" target="_top" xlink:title="Base class fo.">
<polygon fill="white" stroke="black" points="445.5,-56.5 445.5,-75.5 510.5,-75.5 510.5,-56.5 445.5,-56.5"/>
<text text-anchor="middle" x="478" y="-63.5" font-family="Helvetica,sans-Serif" font-size="10.00">Agent.cpp</text>
</a>
</g>
</g>
<!-- Node3&#45;&gt;Node4 -->
<g id="edge3" class="edge">
<title>Node3&#45;&gt;Node4</title>
<path fill="none" stroke="midnightblue" d="M582.87,-108.64C557.34,-98.5 521.89,-84.43 499.45,-75.52"/>
<polygon fill="midnightblue" stroke="midnightblue" points="581.86,-112.01 592.45,-112.44 584.45,-105.5 581.86,-112.01"/>
</g>
<!-- Node3&#45;&gt;Node5 -->
<g id="edge4" class="edge">
<title>Node3&#45;&gt;Node5</title>
<path fill="none" stroke="midnightblue" d="M651.19,-112.68C652.48,-112.44 653.75,-112.22 655,-112 781.69,-90.2 814.5,-92.43 942,-76 945.07,-75.6 948.22,-75.2 951.4,-74.78"/>
<polygon fill="midnightblue" stroke="midnightblue" points="650.41,-109.27 641.28,-114.65 651.77,-116.13 650.41,-109.27"/>
</g>
<!-- Node3&#45;&gt;Node7 -->
<g id="edge18" class="edge">
<title>Node3&#45;&gt;Node7</title>
<path fill="none" stroke="midnightblue" d="M651.02,-116.26C662.83,-114.81 675.95,-113.27 688,-112 868.16,-93.06 920.82,-129.15 1094,-76 1135.76,-63.18 1179.29,-34.14 1199.46,-19.61"/>
<polygon fill="midnightblue" stroke="midnightblue" points="650.53,-112.79 641.04,-117.5 651.39,-119.74 650.53,-112.79"/>
</g>
<!-- Node3&#45;&gt;Node8 -->
<g id="edge19" class="edge">
<title>Node3&#45;&gt;Node8</title>
<path fill="none" stroke="midnightblue" d="M590.18,-106.76C578.96,-98.96 566.26,-88.36 558,-76 546.11,-58.21 541.52,-32.86 539.86,-19.69"/>
<polygon fill="midnightblue" stroke="midnightblue" points="588.47,-109.83 598.75,-112.4 592.32,-103.98 588.47,-109.83"/>
</g>
<!-- Node3&#45;&gt;Node9 -->
<g id="edge20" class="edge">
<title>Node3&#45;&gt;Node9</title>
<path fill="none" stroke="midnightblue" d="M576.76,-119.87C463.92,-116.16 131.07,-103.03 91,-76 71.27,-62.7 62.72,-33.88 59.57,-19.51"/>
<polygon fill="midnightblue" stroke="midnightblue" points="576.87,-123.38 586.98,-120.2 577.09,-116.38 576.87,-123.38"/>
</g>
<!-- Node3&#45;&gt;Node10 -->
<g id="edge21" class="edge">
<title>Node3&#45;&gt;Node10</title>
<path fill="none" stroke="midnightblue" d="M651.02,-116.29C662.83,-114.84 675.96,-113.29 688,-112 731.16,-107.38 1047.76,-108.08 1077,-76 1092.23,-59.29 1071.1,-33.02 1058.01,-19.57"/>
<polygon fill="midnightblue" stroke="midnightblue" points="650.54,-112.82 641.04,-117.52 651.4,-119.77 650.54,-112.82"/>
</g>
<!-- Node11 -->
<g id="node11" class="node">
<title>Node11</title>
<g id="a_node11"><a xlink:href="GNSSStateEstimationApp_8h.html" target="_top" xlink:title="State Estimation Application Using GNSS Measurement.">
<polygon fill="white" stroke="black" points="100.5,-56.5 100.5,-75.5 249.5,-75.5 249.5,-56.5 100.5,-56.5"/>
<text text-anchor="middle" x="175" y="-63.5" font-family="Helvetica,sans-Serif" font-size="10.00">GNSSStateEstimationApp.h</text>
</a>
</g>
</g>
<!-- Node3&#45;&gt;Node11 -->
<g id="edge10" class="edge">
<title>Node3&#45;&gt;Node11</title>
<path fill="none" stroke="midnightblue" d="M576.69,-116.41C503.09,-107.36 338.18,-87.07 244.14,-75.5"/>
<polygon fill="midnightblue" stroke="midnightblue" points="576.52,-119.92 586.87,-117.66 577.37,-112.97 576.52,-119.92"/>
</g>
<!-- Node13 -->
<g id="node13" class="node">
<title>Node13</title>
<g id="a_node13"><a xlink:href="StateEstimationApp_8h.html" target="_top" xlink:title="Base class for State Estimation Application.">
<polygon fill="white" stroke="black" points="305,-56.5 305,-75.5 427,-75.5 427,-56.5 305,-56.5"/>
<text text-anchor="middle" x="366" y="-63.5" font-family="Helvetica,sans-Serif" font-size="10.00">StateEstimationApp.h</text>
</a>
</g>
</g>
<!-- Node3&#45;&gt;Node13 -->
<g id="edge13" class="edge">
<title>Node3&#45;&gt;Node13</title>
<path fill="none" stroke="midnightblue" d="M577.11,-112.97C530.98,-102.92 452.35,-85.8 405.17,-75.53"/>
<polygon fill="midnightblue" stroke="midnightblue" points="576.47,-116.41 586.99,-115.12 577.96,-109.57 576.47,-116.41"/>
</g>
<!-- Node15 -->
<g id="node15" class="node">
<title>Node15</title>
<g id="a_node15"><a xlink:href="GNSSChannel_8cpp.html" target="_top" xlink:title="GNSS Channel.">
<polygon fill="white" stroke="black" points="567,-56.5 567,-75.5 671,-75.5 671,-56.5 567,-56.5"/>
<text text-anchor="middle" x="619" y="-63.5" font-family="Helvetica,sans-Serif" font-size="10.00">GNSSChannel.cpp</text>
</a>
</g>
</g>
<!-- Node3&#45;&gt;Node15 -->
<g id="edge15" class="edge">
<title>Node3&#45;&gt;Node15</title>
<path fill="none" stroke="midnightblue" d="M615.75,-102.1C616.58,-93.14 617.53,-82.86 618.19,-75.75"/>
<polygon fill="midnightblue" stroke="midnightblue" points="612.26,-101.8 614.83,-112.08 619.23,-102.45 612.26,-101.8"/>
</g>
<!-- Node16 -->
<g id="node16" class="node">
<title>Node16</title>
<g id="a_node16"><a xlink:href="GNSSTransmitter_8cpp.html" target="_top" xlink:title="Handles GNSS transmit.">
<polygon fill="white" stroke="black" points="689.5,-56.5 689.5,-75.5 808.5,-75.5 808.5,-56.5 689.5,-56.5"/>
<text text-anchor="middle" x="749" y="-63.5" font-family="Helvetica,sans-Serif" font-size="10.00">GNSSTransmitter.cpp</text>
</a>
</g>
</g>
<!-- Node3&#45;&gt;Node16 -->
<g id="edge16" class="edge">
<title>Node3&#45;&gt;Node16</title>
<path fill="none" stroke="midnightblue" d="M644.91,-108.64C670.24,-98.5 705.43,-84.43 727.71,-75.52"/>
<polygon fill="midnightblue" stroke="midnightblue" points="643.38,-105.48 635.39,-112.44 645.98,-111.98 643.38,-105.48"/>
</g>
<!-- Node17 -->
<g id="node17" class="node">
<title>Node17</title>
<g id="a_node17"><a xlink:href="SpaceChannel_8cpp.html" target="_top" xlink:title="Base spacechannel class (Under devlopment )">
<polygon fill="white" stroke="black" points="827,-56.5 827,-75.5 933,-75.5 933,-56.5 827,-56.5"/>
<text text-anchor="middle" x="880" y="-63.5" font-family="Helvetica,sans-Serif" font-size="10.00">SpaceChannel.cpp</text>
</a>
</g>
</g>
<!-- Node3&#45;&gt;Node17 -->
<g id="edge17" class="edge">
<title>Node3&#45;&gt;Node17</title>
<path fill="none" stroke="midnightblue" d="M651.22,-112.8C652.49,-112.53 653.76,-112.26 655,-112 717.77,-98.83 790.58,-84.43 835.97,-75.55"/>
<polygon fill="midnightblue" stroke="midnightblue" points="650.37,-109.4 641.33,-114.93 651.84,-116.24 650.37,-109.4"/>
</g>
<!-- Node6 -->
<g id="node6" class="node">
<title>Node6</title>
<g id="a_node6"><a xlink:href="GNSSConstellation_8cpp.html" target="_top" xlink:title="GNSS Constellation.">
<polygon fill="white" stroke="black" points="834,-0.5 834,-19.5 962,-19.5 962,-0.5 834,-0.5"/>
<text text-anchor="middle" x="898" y="-7.5" font-family="Helvetica,sans-Serif" font-size="10.00">GNSSConstellation.cpp</text>
</a>
</g>
</g>
<!-- Node5&#45;&gt;Node6 -->
<g id="edge5" class="edge">
<title>Node5&#45;&gt;Node6</title>
<path fill="none" stroke="midnightblue" d="M982.75,-51.86C961.98,-41.85 933.98,-28.35 915.95,-19.65"/>
<polygon fill="midnightblue" stroke="midnightblue" points="981.48,-55.13 992.01,-56.32 984.52,-48.83 981.48,-55.13"/>
</g>
<!-- Node5&#45;&gt;Node7 -->
<g id="edge6" class="edge">
<title>Node5&#45;&gt;Node7</title>
<path fill="none" stroke="midnightblue" d="M1051.58,-53.83C1089.53,-43.63 1144.81,-28.78 1179.3,-19.52"/>
<polygon fill="midnightblue" stroke="midnightblue" points="1050.6,-50.47 1041.85,-56.44 1052.41,-57.23 1050.6,-50.47"/>
</g>
<!-- Node5&#45;&gt;Node8 -->
<g id="edge7" class="edge">
<title>Node5&#45;&gt;Node8</title>
<path fill="none" stroke="midnightblue" d="M941.34,-55.94C806.97,-39.63 661.69,-23.96 587.73,-16.12"/>
<polygon fill="midnightblue" stroke="midnightblue" points="941.05,-59.43 951.4,-57.17 941.9,-52.48 941.05,-59.43"/>
</g>
<!-- Node5&#45;&gt;Node9 -->
<g id="edge8" class="edge">
<title>Node5&#45;&gt;Node9</title>
<path fill="none" stroke="midnightblue" d="M941.43,-56.04C578.24,-24.63 483.76,-51.94 125,-20 122.08,-19.74 119.09,-19.44 116.07,-19.12"/>
<polygon fill="midnightblue" stroke="midnightblue" points="941.16,-59.53 951.43,-56.92 941.77,-52.56 941.16,-59.53"/>
</g>
<!-- Node5&#45;&gt;Node10 -->
<g id="edge9" class="edge">
<title>Node5&#45;&gt;Node10</title>
<path fill="none" stroke="midnightblue" d="M1022.38,-47.86C1029.14,-38.5 1037.21,-27.33 1042.68,-19.75"/>
<polygon fill="midnightblue" stroke="midnightblue" points="1019.46,-45.93 1016.44,-56.08 1025.13,-50.03 1019.46,-45.93"/>
</g>
<!-- Node11&#45;&gt;Node9 -->
<g id="edge12" class="edge">
<title>Node11&#45;&gt;Node9</title>
<path fill="none" stroke="midnightblue" d="M147.34,-52.23C125.45,-42.13 95.5,-28.31 76.45,-19.52"/>
<polygon fill="midnightblue" stroke="midnightblue" points="145.91,-55.43 156.46,-56.44 148.85,-49.08 145.91,-55.43"/>
</g>
<!-- Node12 -->
<g id="node12" class="node">
<title>Node12</title>
<g id="a_node12"><a xlink:href="GNSSStateEstimationApp_8cpp.html" target="_top" xlink:title="State Estimation Application Using GNSS Measurement.">
<polygon fill="white" stroke="black" points="134.5,-0.5 134.5,-19.5 295.5,-19.5 295.5,-0.5 134.5,-0.5"/>
<text text-anchor="middle" x="215" y="-7.5" font-family="Helvetica,sans-Serif" font-size="10.00">GNSSStateEstimationApp.cpp</text>
</a>
</g>
</g>
<!-- Node11&#45;&gt;Node12 -->
<g id="edge11" class="edge">
<title>Node11&#45;&gt;Node12</title>
<path fill="none" stroke="midnightblue" d="M187.7,-47.86C194.63,-38.5 202.91,-27.33 208.52,-19.75"/>
<polygon fill="midnightblue" stroke="midnightblue" points="184.75,-45.96 181.61,-56.08 190.37,-50.13 184.75,-45.96"/>
</g>
<!-- Node14 -->
<g id="node14" class="node">
<title>Node14</title>
<g id="a_node14"><a xlink:href="StateEstimationApp_8cpp.html" target="_top" xlink:title="Base class for State Estimation Application.">
<polygon fill="white" stroke="black" points="314,-0.5 314,-19.5 448,-19.5 448,-0.5 314,-0.5"/>
<text text-anchor="middle" x="381" y="-7.5" font-family="Helvetica,sans-Serif" font-size="10.00">StateEstimationApp.cpp</text>
</a>
</g>
</g>
<!-- Node13&#45;&gt;Node14 -->
<g id="edge14" class="edge">
<title>Node13&#45;&gt;Node14</title>
<path fill="none" stroke="midnightblue" d="M371.17,-46.4C373.68,-37.36 376.57,-26.94 378.57,-19.75"/>
<polygon fill="midnightblue" stroke="midnightblue" points="367.78,-45.51 368.48,-56.08 374.53,-47.38 367.78,-45.51"/>
</g>
</g>
</svg>
