<?xml version="1.0" encoding="UTF-8" standalone="no"?>
<!DOCTYPE svg PUBLIC "-//W3C//DTD SVG 1.1//EN"
 "http://www.w3.org/Graphics/SVG/1.1/DTD/svg11.dtd">
<!-- Generated by graphviz version 2.43.0 (0)
 -->
<!-- Title: GravityField.cpp Pages: 1 -->
<svg width="809pt" height="207pt"
 viewBox="0.00 0.00 809.00 207.00" xmlns="http://www.w3.org/2000/svg" xmlns:xlink="http://www.w3.org/1999/xlink">
<g id="graph0" class="graph" transform="scale(1 1) rotate(0) translate(4 203)">
<title>GravityField.cpp</title>
<polygon fill="white" stroke="transparent" points="-4,4 -4,-203 805,-203 805,4 -4,4"/>
<!-- Node1 -->
<g id="node1" class="node">
<title>Node1</title>
<g id="a_node1"><a xlink:title="Gravity Field Implementations.">
<polygon fill="#bfbfbf" stroke="black" points="310,-179.5 310,-198.5 406,-198.5 406,-179.5 310,-179.5"/>
<text text-anchor="middle" x="358" y="-186.5" font-family="Helvetica,sans-Serif" font-size="10.00">GravityField.cpp</text>
</a>
</g>
</g>
<!-- Node2 -->
<g id="node2" class="node">
<title>Node2</title>
<g id="a_node2"><a xlink:href="GravityField_8h.html" target="_top" xlink:title="Gravity field model and acceleration calculation.">
<polygon fill="white" stroke="black" points="315.5,-123.5 315.5,-142.5 400.5,-142.5 400.5,-123.5 315.5,-123.5"/>
<text text-anchor="middle" x="358" y="-130.5" font-family="Helvetica,sans-Serif" font-size="10.00">GravityField.h</text>
</a>
</g>
</g>
<!-- Node1&#45;&gt;Node2 -->
<g id="edge1" class="edge">
<title>Node1&#45;&gt;Node2</title>
<path fill="none" stroke="midnightblue" d="M358,-179.08C358,-172.01 358,-161.86 358,-152.99"/>
<polygon fill="midnightblue" stroke="midnightblue" points="361.5,-152.75 358,-142.75 354.5,-152.75 361.5,-152.75"/>
</g>
<!-- Node3 -->
<g id="node3" class="node">
<title>Node3</title>
<g id="a_node3"><a xlink:title=" ">
<polygon fill="white" stroke="#bfbfbf" points="0,-67.5 0,-86.5 64,-86.5 64,-67.5 0,-67.5"/>
<text text-anchor="middle" x="32" y="-74.5" font-family="Helvetica,sans-Serif" font-size="10.00">algorithm</text>
</a>
</g>
</g>
<!-- Node2&#45;&gt;Node3 -->
<g id="edge2" class="edge">
<title>Node2&#45;&gt;Node3</title>
<path fill="none" stroke="midnightblue" d="M315.37,-126.08C261.5,-118.41 165.69,-104.19 74.18,-87.13"/>
<polygon fill="midnightblue" stroke="midnightblue" points="74.67,-83.66 64.19,-85.26 73.37,-90.54 74.67,-83.66"/>
</g>
<!-- Node4 -->
<g id="node4" class="node">
<title>Node4</title>
<g id="a_node4"><a xlink:title=" ">
<polygon fill="white" stroke="#bfbfbf" points="82.5,-67.5 82.5,-86.5 137.5,-86.5 137.5,-67.5 82.5,-67.5"/>
<text text-anchor="middle" x="110" y="-74.5" font-family="Helvetica,sans-Serif" font-size="10.00">fstream</text>
</a>
</g>
</g>
<!-- Node2&#45;&gt;Node4 -->
<g id="edge3" class="edge">
<title>Node2&#45;&gt;Node4</title>
<path fill="none" stroke="midnightblue" d="M318.7,-123.44C271.72,-113.21 193.67,-96.22 147.5,-86.16"/>
<polygon fill="midnightblue" stroke="midnightblue" points="148.11,-82.72 137.59,-84.01 146.62,-89.56 148.11,-82.72"/>
</g>
<!-- Node5 -->
<g id="node5" class="node">
<title>Node5</title>
<g id="a_node5"><a xlink:title=" ">
<polygon fill="white" stroke="#bfbfbf" points="135,-6 135,-25 195,-25 195,-6 135,-6"/>
<text text-anchor="middle" x="165" y="-13" font-family="Helvetica,sans-Serif" font-size="10.00">iostream</text>
</a>
</g>
</g>
<!-- Node2&#45;&gt;Node5 -->
<g id="edge4" class="edge">
<title>Node2&#45;&gt;Node5</title>
<path fill="none" stroke="midnightblue" d="M315.28,-126.21C284.72,-120.36 243.88,-108.93 214,-87 195.47,-73.4 181.48,-50.6 173.29,-34.62"/>
<polygon fill="midnightblue" stroke="midnightblue" points="176.27,-32.74 168.75,-25.27 169.97,-35.8 176.27,-32.74"/>
</g>
<!-- Node6 -->
<g id="node6" class="node">
<title>Node6</title>
<g id="a_node6"><a xlink:title=" ">
<polygon fill="white" stroke="#bfbfbf" points="388,-67.5 388,-86.5 444,-86.5 444,-67.5 388,-67.5"/>
<text text-anchor="middle" x="416" y="-74.5" font-family="Helvetica,sans-Serif" font-size="10.00">sstream</text>
</a>
</g>
</g>
<!-- Node2&#45;&gt;Node6 -->
<g id="edge5" class="edge">
<title>Node2&#45;&gt;Node6</title>
<path fill="none" stroke="midnightblue" d="M367.32,-123.32C375.89,-115.34 388.81,-103.31 399.19,-93.65"/>
<polygon fill="midnightblue" stroke="midnightblue" points="401.58,-96.21 406.51,-86.83 396.81,-91.09 401.58,-96.21"/>
</g>
<!-- Node7 -->
<g id="node7" class="node">
<title>Node7</title>
<g id="a_node7"><a xlink:title=" ">
<polygon fill="white" stroke="#bfbfbf" points="213,-6 213,-25 257,-25 257,-6 213,-6"/>
<text text-anchor="middle" x="235" y="-13" font-family="Helvetica,sans-Serif" font-size="10.00">string</text>
</a>
</g>
</g>
<!-- Node2&#45;&gt;Node7 -->
<g id="edge6" class="edge">
<title>Node2&#45;&gt;Node7</title>
<path fill="none" stroke="midnightblue" d="M315.36,-130.31C284.19,-126.56 243.87,-115.96 223,-87 211.92,-71.63 218.31,-49.54 225.28,-34.2"/>
<polygon fill="midnightblue" stroke="midnightblue" points="228.43,-35.74 229.77,-25.23 222.17,-32.61 228.43,-35.74"/>
</g>
<!-- Node8 -->
<g id="node8" class="node">
<title>Node8</title>
<g id="a_node8"><a xlink:title=" ">
<polygon fill="white" stroke="#bfbfbf" points="462.5,-67.5 462.5,-86.5 509.5,-86.5 509.5,-67.5 462.5,-67.5"/>
<text text-anchor="middle" x="486" y="-74.5" font-family="Helvetica,sans-Serif" font-size="10.00">vector</text>
</a>
</g>
</g>
<!-- Node2&#45;&gt;Node8 -->
<g id="edge7" class="edge">
<title>Node2&#45;&gt;Node8</title>
<path fill="none" stroke="midnightblue" d="M378.28,-123.44C399.35,-114.56 432.52,-100.56 456.49,-90.45"/>
<polygon fill="midnightblue" stroke="midnightblue" points="457.96,-93.63 465.81,-86.52 455.24,-87.18 457.96,-93.63"/>
</g>
<!-- Node9 -->
<g id="node9" class="node">
<title>Node9</title>
<g id="a_node9"><a xlink:title=" ">
<polygon fill="white" stroke="#bfbfbf" points="457.5,-6 457.5,-25 594.5,-25 594.5,-6 457.5,-6"/>
<text text-anchor="middle" x="526" y="-13" font-family="Helvetica,sans-Serif" font-size="10.00">autodiff/forward/real.hpp</text>
</a>
</g>
</g>
<!-- Node2&#45;&gt;Node9 -->
<g id="edge8" class="edge">
<title>Node2&#45;&gt;Node9</title>
<path fill="none" stroke="midnightblue" d="M400.61,-132.36C437.49,-130.2 489.3,-120.74 518,-87 530.07,-72.81 530.67,-50.77 529.14,-35.11"/>
<polygon fill="midnightblue" stroke="midnightblue" points="532.59,-34.49 527.78,-25.05 525.65,-35.42 532.59,-34.49"/>
</g>
<!-- Node10 -->
<g id="node10" class="node">
<title>Node10</title>
<g id="a_node10"><a xlink:title=" ">
<polygon fill="white" stroke="#bfbfbf" points="685,-0.5 685,-30.5 801,-30.5 801,-0.5 685,-0.5"/>
<text text-anchor="start" x="693" y="-18.5" font-family="Helvetica,sans-Serif" font-size="10.00">autodiff/forward/real</text>
<text text-anchor="middle" x="743" y="-7.5" font-family="Helvetica,sans-Serif" font-size="10.00">/eigen.hpp</text>
</a>
</g>
</g>
<!-- Node2&#45;&gt;Node10 -->
<g id="edge9" class="edge">
<title>Node2&#45;&gt;Node10</title>
<path fill="none" stroke="midnightblue" d="M400.59,-132.45C486.29,-132.48 675.43,-127.77 723,-87 736.27,-75.63 741.05,-56.18 742.64,-40.58"/>
<polygon fill="midnightblue" stroke="midnightblue" points="746.14,-40.75 743.3,-30.55 739.15,-40.3 746.14,-40.75"/>
</g>
<!-- Node11 -->
<g id="node11" class="node">
<title>Node11</title>
<g id="a_node11"><a xlink:href="UserFilePath_8h.html" target="_top" xlink:title="File access utils.">
<polygon fill="white" stroke="black" points="232,-67.5 232,-86.5 370,-86.5 370,-67.5 232,-67.5"/>
<text text-anchor="middle" x="301" y="-74.5" font-family="Helvetica,sans-Serif" font-size="10.00">lupnt/core/UserFilePath.h</text>
</a>
</g>
</g>
<!-- Node2&#45;&gt;Node11 -->
<g id="edge10" class="edge">
<title>Node2&#45;&gt;Node11</title>
<path fill="none" stroke="midnightblue" d="M348.84,-123.32C340.5,-115.42 327.97,-103.55 317.82,-93.94"/>
<polygon fill="midnightblue" stroke="midnightblue" points="319.99,-91.17 310.32,-86.83 315.18,-96.25 319.99,-91.17"/>
</g>
<!-- Node14 -->
<g id="node14" class="node">
<title>Node14</title>
<g id="a_node14"><a xlink:href="MathUtils_8h.html" target="_top" xlink:title=" ">
<polygon fill="white" stroke="black" points="565.5,-67.5 565.5,-86.5 714.5,-86.5 714.5,-67.5 565.5,-67.5"/>
<text text-anchor="middle" x="640" y="-74.5" font-family="Helvetica,sans-Serif" font-size="10.00">lupnt/numerics/MathUtils.h</text>
</a>
</g>
</g>
<!-- Node2&#45;&gt;Node14 -->
<g id="edge15" class="edge">
<title>Node2&#45;&gt;Node14</title>
<path fill="none" stroke="midnightblue" d="M400.52,-123.86C449.82,-114.42 531.18,-98.84 585.18,-88.5"/>
<polygon fill="midnightblue" stroke="midnightblue" points="586.1,-91.88 595.26,-86.57 584.78,-85.01 586.1,-91.88"/>
</g>
<!-- Node11&#45;&gt;Node5 -->
<g id="edge12" class="edge">
<title>Node11&#45;&gt;Node5</title>
<path fill="none" stroke="midnightblue" d="M281.51,-67.48C258.59,-57.45 220.31,-40.7 193.92,-29.15"/>
<polygon fill="midnightblue" stroke="midnightblue" points="195.01,-25.81 184.45,-25.01 192.21,-32.22 195.01,-25.81"/>
</g>
<!-- Node11&#45;&gt;Node7 -->
<g id="edge14" class="edge">
<title>Node11&#45;&gt;Node7</title>
<path fill="none" stroke="midnightblue" d="M291.54,-67.48C281.25,-58.2 264.58,-43.17 252.01,-31.83"/>
<polygon fill="midnightblue" stroke="midnightblue" points="254.21,-29.11 244.44,-25.01 249.52,-34.3 254.21,-29.11"/>
</g>
<!-- Node12 -->
<g id="node12" class="node">
<title>Node12</title>
<g id="a_node12"><a xlink:title=" ">
<polygon fill="white" stroke="#bfbfbf" points="349,-6 349,-25 417,-25 417,-6 349,-6"/>
<text text-anchor="middle" x="383" y="-13" font-family="Helvetica,sans-Serif" font-size="10.00">filesystem</text>
</a>
</g>
</g>
<!-- Node11&#45;&gt;Node12 -->
<g id="edge11" class="edge">
<title>Node11&#45;&gt;Node12</title>
<path fill="none" stroke="midnightblue" d="M312.75,-67.48C325.78,-58.02 347.04,-42.6 362.76,-31.19"/>
<polygon fill="midnightblue" stroke="midnightblue" points="365.23,-33.71 371.27,-25.01 361.12,-28.05 365.23,-33.71"/>
</g>
<!-- Node13 -->
<g id="node13" class="node">
<title>Node13</title>
<g id="a_node13"><a xlink:title=" ">
<polygon fill="white" stroke="#bfbfbf" points="275,-6 275,-25 331,-25 331,-6 275,-6"/>
<text text-anchor="middle" x="303" y="-13" font-family="Helvetica,sans-Serif" font-size="10.00">optional</text>
</a>
</g>
</g>
<!-- Node11&#45;&gt;Node13 -->
<g id="edge13" class="edge">
<title>Node11&#45;&gt;Node13</title>
<path fill="none" stroke="midnightblue" d="M301.29,-67.48C301.57,-59.08 302.01,-45.98 302.37,-35.16"/>
<polygon fill="midnightblue" stroke="midnightblue" points="305.88,-35.12 302.71,-25.01 298.88,-34.89 305.88,-35.12"/>
</g>
<!-- Node14&#45;&gt;Node9 -->
<g id="edge16" class="edge">
<title>Node14&#45;&gt;Node9</title>
<path fill="none" stroke="midnightblue" d="M623.67,-67.48C604.79,-57.62 573.49,-41.29 551.42,-29.77"/>
<polygon fill="midnightblue" stroke="midnightblue" points="552.79,-26.53 542.3,-25.01 549.55,-32.74 552.79,-26.53"/>
</g>
<!-- Node14&#45;&gt;Node10 -->
<g id="edge17" class="edge">
<title>Node14&#45;&gt;Node10</title>
<path fill="none" stroke="midnightblue" d="M654.76,-67.48C669.1,-59.19 691.37,-46.32 709.95,-35.59"/>
<polygon fill="midnightblue" stroke="midnightblue" points="711.82,-38.56 718.72,-30.52 708.32,-32.49 711.82,-38.56"/>
</g>
<!-- Node15 -->
<g id="node15" class="node">
<title>Node15</title>
<g id="a_node15"><a xlink:title=" ">
<polygon fill="white" stroke="#bfbfbf" points="613,-6 613,-25 667,-25 667,-6 613,-6"/>
<text text-anchor="middle" x="640" y="-13" font-family="Helvetica,sans-Serif" font-size="10.00">random</text>
</a>
</g>
</g>
<!-- Node14&#45;&gt;Node15 -->
<g id="edge18" class="edge">
<title>Node14&#45;&gt;Node15</title>
<path fill="none" stroke="midnightblue" d="M640,-67.48C640,-59.08 640,-45.98 640,-35.16"/>
<polygon fill="midnightblue" stroke="midnightblue" points="643.5,-35.01 640,-25.01 636.5,-35.01 643.5,-35.01"/>
</g>
</g>
</svg>
