<?xml version="1.0" encoding="UTF-8" standalone="no"?>
<!DOCTYPE svg PUBLIC "-//W3C//DTD SVG 1.1//EN"
 "http://www.w3.org/Graphics/SVG/1.1/DTD/svg11.dtd">
<!-- Generated by graphviz version 2.43.0 (0)
 -->
<!-- Title: Graphical Class Hierarchy Pages: 1 -->
<svg width="386pt" height="332pt"
 viewBox="0.00 0.00 386.00 332.00" xmlns="http://www.w3.org/2000/svg" xmlns:xlink="http://www.w3.org/1999/xlink">
<g id="graph0" class="graph" transform="scale(1 1) rotate(0) translate(4 328)">
<title>Graphical Class Hierarchy</title>
<polygon fill="white" stroke="transparent" points="-4,4 -4,-328 382,-328 382,4 -4,4"/>
<!-- Node0 -->
<g id="node1" class="node">
<title>Node0</title>
<g id="a_node1"><a xlink:href="classLPT_1_1IState.html" target="_top" xlink:title="Interface for States.">
<polygon fill="white" stroke="black" points="0,-171.5 0,-190.5 68,-190.5 68,-171.5 0,-171.5"/>
<text text-anchor="middle" x="34" y="-178.5" font-family="Helvetica,sans-Serif" font-size="10.00">LPT::IState</text>
</a>
</g>
</g>
<!-- Node1 -->
<g id="node2" class="node">
<title>Node1</title>
<g id="a_node2"><a xlink:href="classLPT_1_1ClockState.html" target="_top" xlink:title="Clock State Class.">
<polygon fill="white" stroke="black" points="104,-190.5 104,-209.5 196,-209.5 196,-190.5 104,-190.5"/>
<text text-anchor="middle" x="150" y="-197.5" font-family="Helvetica,sans-Serif" font-size="10.00">LPT::ClockState</text>
</a>
</g>
</g>
<!-- Node0&#45;&gt;Node1 -->
<g id="edge1" class="edge">
<title>Node0&#45;&gt;Node1</title>
<path fill="none" stroke="midnightblue" d="M78.17,-188.19C86.48,-189.58 95.22,-191.04 103.6,-192.43"/>
<polygon fill="midnightblue" stroke="midnightblue" points="78.72,-184.74 68.28,-186.55 77.57,-191.64 78.72,-184.74"/>
</g>
<!-- Node2 -->
<g id="node3" class="node">
<title>Node2</title>
<g id="a_node3"><a xlink:href="classLPT_1_1OrbitState.html" target="_top" xlink:title=" ">
<polygon fill="white" stroke="black" points="105.5,-152.5 105.5,-171.5 194.5,-171.5 194.5,-152.5 105.5,-152.5"/>
<text text-anchor="middle" x="150" y="-159.5" font-family="Helvetica,sans-Serif" font-size="10.00">LPT::OrbitState</text>
</a>
</g>
</g>
<!-- Node0&#45;&gt;Node2 -->
<g id="edge2" class="edge">
<title>Node0&#45;&gt;Node2</title>
<path fill="none" stroke="midnightblue" d="M78.36,-173.77C87.18,-172.3 96.45,-170.76 105.28,-169.29"/>
<polygon fill="midnightblue" stroke="midnightblue" points="77.57,-170.36 68.28,-175.45 78.72,-177.26 77.57,-170.36"/>
</g>
<!-- Node3 -->
<g id="node4" class="node">
<title>Node3</title>
<g id="a_node4"><a xlink:href="classLPT_1_1CartesianOrbitState.html" target="_top" xlink:title=" ">
<polygon fill="white" stroke="black" points="237.5,-304.5 237.5,-323.5 372.5,-323.5 372.5,-304.5 237.5,-304.5"/>
<text text-anchor="middle" x="305" y="-311.5" font-family="Helvetica,sans-Serif" font-size="10.00">LPT::CartesianOrbitState</text>
</a>
</g>
</g>
<!-- Node2&#45;&gt;Node3 -->
<g id="edge3" class="edge">
<title>Node2&#45;&gt;Node3</title>
<path fill="none" stroke="midnightblue" d="M192.18,-177.37C193.54,-178.5 194.82,-179.71 196,-181 231.77,-220.29 193.54,-258.34 232,-295 236.02,-298.84 240.73,-301.92 245.77,-304.39"/>
<polygon fill="midnightblue" stroke="midnightblue" points="193.98,-174.36 183.72,-171.74 190.11,-180.19 193.98,-174.36"/>
</g>
<!-- Node4 -->
<g id="node5" class="node">
<title>Node4</title>
<g id="a_node5"><a xlink:href="classLPT_1_1ClassicalOE.html" target="_top" xlink:title=" ">
<polygon fill="white" stroke="black" points="257,-266.5 257,-285.5 353,-285.5 353,-266.5 257,-266.5"/>
<text text-anchor="middle" x="305" y="-273.5" font-family="Helvetica,sans-Serif" font-size="10.00">LPT::ClassicalOE</text>
</a>
</g>
</g>
<!-- Node2&#45;&gt;Node4 -->
<g id="edge4" class="edge">
<title>Node2&#45;&gt;Node4</title>
<path fill="none" stroke="midnightblue" d="M191.27,-177.06C192.94,-178.28 194.53,-179.59 196,-181 222.99,-206.86 203.25,-233.12 232,-257 239.16,-262.95 247.99,-267.05 256.98,-269.88"/>
<polygon fill="midnightblue" stroke="midnightblue" points="192.73,-173.86 182.36,-171.7 189.12,-179.85 192.73,-173.86"/>
</g>
<!-- Node5 -->
<g id="node6" class="node">
<title>Node5</title>
<g id="a_node6"><a xlink:href="classLPT_1_1DelaunayOE.html" target="_top" xlink:title=" ">
<polygon fill="white" stroke="black" points="255.5,-228.5 255.5,-247.5 354.5,-247.5 354.5,-228.5 255.5,-228.5"/>
<text text-anchor="middle" x="305" y="-235.5" font-family="Helvetica,sans-Serif" font-size="10.00">LPT::DelaunayOE</text>
</a>
</g>
</g>
<!-- Node2&#45;&gt;Node5 -->
<g id="edge5" class="edge">
<title>Node2&#45;&gt;Node5</title>
<path fill="none" stroke="midnightblue" d="M187.83,-176.02C190.68,-177.56 193.43,-179.22 196,-181 215.12,-194.25 211.99,-207.13 232,-219 239.12,-223.22 247.18,-226.52 255.26,-229.09"/>
<polygon fill="midnightblue" stroke="midnightblue" points="189.12,-172.76 178.6,-171.53 186.06,-179.05 189.12,-172.76"/>
</g>
<!-- Node6 -->
<g id="node7" class="node">
<title>Node6</title>
<g id="a_node7"><a xlink:href="classLPT_1_1EquinoctialOE.html" target="_top" xlink:title=" ">
<polygon fill="white" stroke="black" points="251.5,-190.5 251.5,-209.5 358.5,-209.5 358.5,-190.5 251.5,-190.5"/>
<text text-anchor="middle" x="305" y="-197.5" font-family="Helvetica,sans-Serif" font-size="10.00">LPT::EquinoctialOE</text>
</a>
</g>
</g>
<!-- Node2&#45;&gt;Node6 -->
<g id="edge6" class="edge">
<title>Node2&#45;&gt;Node6</title>
<path fill="none" stroke="midnightblue" d="M199.48,-174.04C220.85,-179.35 245.61,-185.5 265.67,-190.48"/>
<polygon fill="midnightblue" stroke="midnightblue" points="200.16,-170.6 189.61,-171.59 198.47,-177.4 200.16,-170.6"/>
</g>
<!-- Node7 -->
<g id="node8" class="node">
<title>Node7</title>
<g id="a_node8"><a xlink:href="classLPT_1_1NonsingularOE.html" target="_top" xlink:title=" ">
<polygon fill="white" stroke="black" points="249.5,-152.5 249.5,-171.5 360.5,-171.5 360.5,-152.5 249.5,-152.5"/>
<text text-anchor="middle" x="305" y="-159.5" font-family="Helvetica,sans-Serif" font-size="10.00">LPT::NonsingularOE</text>
</a>
</g>
</g>
<!-- Node2&#45;&gt;Node7 -->
<g id="edge7" class="edge">
<title>Node2&#45;&gt;Node7</title>
<path fill="none" stroke="midnightblue" d="M205.05,-162C219.38,-162 234.88,-162 249.25,-162"/>
<polygon fill="midnightblue" stroke="midnightblue" points="204.84,-158.5 194.84,-162 204.84,-165.5 204.84,-158.5"/>
</g>
<!-- Node8 -->
<g id="node9" class="node">
<title>Node8</title>
<g id="a_node9"><a xlink:href="classLPT_1_1QuasiNonsingularOE.html" target="_top" xlink:title=" ">
<polygon fill="white" stroke="black" points="235.5,-114.5 235.5,-133.5 374.5,-133.5 374.5,-114.5 235.5,-114.5"/>
<text text-anchor="middle" x="305" y="-121.5" font-family="Helvetica,sans-Serif" font-size="10.00">LPT::QuasiNonsingularOE</text>
</a>
</g>
</g>
<!-- Node2&#45;&gt;Node8 -->
<g id="edge8" class="edge">
<title>Node2&#45;&gt;Node8</title>
<path fill="none" stroke="midnightblue" d="M199.48,-149.96C220.85,-144.65 245.61,-138.5 265.67,-133.52"/>
<polygon fill="midnightblue" stroke="midnightblue" points="198.47,-146.6 189.61,-152.41 200.16,-153.4 198.47,-146.6"/>
</g>
<!-- Node9 -->
<g id="node10" class="node">
<title>Node9</title>
<g id="a_node10"><a xlink:href="classLPT_1_1QuasiNonsingularROE.html" target="_top" xlink:title=" ">
<polygon fill="white" stroke="black" points="232,-76.5 232,-95.5 378,-95.5 378,-76.5 232,-76.5"/>
<text text-anchor="middle" x="305" y="-83.5" font-family="Helvetica,sans-Serif" font-size="10.00">LPT::QuasiNonsingularROE</text>
</a>
</g>
</g>
<!-- Node2&#45;&gt;Node9 -->
<g id="edge9" class="edge">
<title>Node2&#45;&gt;Node9</title>
<path fill="none" stroke="midnightblue" d="M169.88,-145.77C185.57,-133.03 208.98,-115.71 232,-105 240.09,-101.24 249.05,-98.12 257.82,-95.58"/>
<polygon fill="midnightblue" stroke="midnightblue" points="167.46,-143.23 162,-152.31 171.93,-148.61 167.46,-143.23"/>
</g>
<!-- Node10 -->
<g id="node11" class="node">
<title>Node10</title>
<g id="a_node11"><a xlink:href="classLPT_1_1SingularROE.html" target="_top" xlink:title=" ">
<polygon fill="white" stroke="black" points="255.5,-38.5 255.5,-57.5 354.5,-57.5 354.5,-38.5 255.5,-38.5"/>
<text text-anchor="middle" x="305" y="-45.5" font-family="Helvetica,sans-Serif" font-size="10.00">LPT::SingularROE</text>
</a>
</g>
</g>
<!-- Node2&#45;&gt;Node10 -->
<g id="edge10" class="edge">
<title>Node2&#45;&gt;Node10</title>
<path fill="none" stroke="midnightblue" d="M161.75,-143.63C175.37,-122.02 200.83,-86.6 232,-67 239.11,-62.53 247.26,-59.1 255.45,-56.48"/>
<polygon fill="midnightblue" stroke="midnightblue" points="158.73,-141.86 156.51,-152.22 164.71,-145.51 158.73,-141.86"/>
</g>
<!-- Node11 -->
<g id="node12" class="node">
<title>Node11</title>
<g id="a_node12"><a xlink:href="classPyOrbitState.html" target="_top" xlink:title=" ">
<polygon fill="white" stroke="black" points="266,-0.5 266,-19.5 344,-19.5 344,-0.5 266,-0.5"/>
<text text-anchor="middle" x="305" y="-7.5" font-family="Helvetica,sans-Serif" font-size="10.00">PyOrbitState</text>
</a>
</g>
</g>
<!-- Node2&#45;&gt;Node11 -->
<g id="edge11" class="edge">
<title>Node2&#45;&gt;Node11</title>
<path fill="none" stroke="midnightblue" d="M157.4,-142.74C168.1,-113.58 192.43,-58.51 232,-29 241.74,-21.73 254.04,-17.24 265.7,-14.47"/>
<polygon fill="midnightblue" stroke="midnightblue" points="154.09,-141.62 154.07,-152.21 160.69,-143.94 154.09,-141.62"/>
</g>
</g>
</svg>
