<?xml version="1.0" encoding="UTF-8" standalone="no"?>
<!DOCTYPE svg PUBLIC "-//W3C//DTD SVG 1.1//EN"
 "http://www.w3.org/Graphics/SVG/1.1/DTD/svg11.dtd">
<!-- Generated by graphviz version 2.43.0 (0)
 -->
<!-- Title: Graphical Class Hierarchy Pages: 1 -->
<svg width="405pt" height="104pt"
 viewBox="0.00 0.00 405.00 104.00" xmlns="http://www.w3.org/2000/svg" xmlns:xlink="http://www.w3.org/1999/xlink">
<g id="graph0" class="graph" transform="scale(1 1) rotate(0) translate(4 100)">
<title>Graphical Class Hierarchy</title>
<polygon fill="white" stroke="transparent" points="-4,4 -4,-100 401,-100 401,4 -4,4"/>
<!-- Node0 -->
<g id="node1" class="node">
<title>Node0</title>
<g id="a_node1"><a xlink:href="classLPT_1_1ICommDevice.html" target="_top" xlink:title=" ">
<polygon fill="white" stroke="black" points="0,-38.5 0,-57.5 108,-57.5 108,-38.5 0,-38.5"/>
<text text-anchor="middle" x="54" y="-45.5" font-family="Helvetica,sans-Serif" font-size="10.00">LPT::ICommDevice</text>
</a>
</g>
</g>
<!-- Node1 -->
<g id="node2" class="node">
<title>Node1</title>
<g id="a_node2"><a xlink:href="classLPT_1_1Receiver.html" target="_top" xlink:title=" ">
<polygon fill="white" stroke="black" points="150.5,-76.5 150.5,-95.5 232.5,-95.5 232.5,-76.5 150.5,-76.5"/>
<text text-anchor="middle" x="191.5" y="-83.5" font-family="Helvetica,sans-Serif" font-size="10.00">LPT::Receiver</text>
</a>
</g>
</g>
<!-- Node0&#45;&gt;Node1 -->
<g id="edge1" class="edge">
<title>Node0&#45;&gt;Node1</title>
<path fill="none" stroke="midnightblue" d="M98.92,-60.32C117.54,-65.54 138.91,-71.53 156.32,-76.41"/>
<polygon fill="midnightblue" stroke="midnightblue" points="99.77,-56.92 89.19,-57.59 97.88,-63.66 99.77,-56.92"/>
</g>
<!-- Node3 -->
<g id="node4" class="node">
<title>Node3</title>
<g id="a_node4"><a xlink:href="classLPT_1_1Tranceiver.html" target="_top" xlink:title=" ">
<polygon fill="white" stroke="black" points="147,-38.5 147,-57.5 236,-57.5 236,-38.5 147,-38.5"/>
<text text-anchor="middle" x="191.5" y="-45.5" font-family="Helvetica,sans-Serif" font-size="10.00">LPT::Tranceiver</text>
</a>
</g>
</g>
<!-- Node0&#45;&gt;Node3 -->
<g id="edge3" class="edge">
<title>Node0&#45;&gt;Node3</title>
<path fill="none" stroke="midnightblue" d="M118.44,-48C127.99,-48 137.65,-48 146.67,-48"/>
<polygon fill="midnightblue" stroke="midnightblue" points="118.16,-44.5 108.16,-48 118.16,-51.5 118.16,-44.5"/>
</g>
<!-- Node4 -->
<g id="node5" class="node">
<title>Node4</title>
<g id="a_node5"><a xlink:href="classLPT_1_1Transmitter.html" target="_top" xlink:title=" ">
<polygon fill="white" stroke="black" points="144,-0.5 144,-19.5 239,-19.5 239,-0.5 144,-0.5"/>
<text text-anchor="middle" x="191.5" y="-7.5" font-family="Helvetica,sans-Serif" font-size="10.00">LPT::Transmitter</text>
</a>
</g>
</g>
<!-- Node0&#45;&gt;Node4 -->
<g id="edge4" class="edge">
<title>Node0&#45;&gt;Node4</title>
<path fill="none" stroke="midnightblue" d="M98.92,-35.68C117.54,-30.46 138.91,-24.47 156.32,-19.59"/>
<polygon fill="midnightblue" stroke="midnightblue" points="97.88,-32.34 89.19,-38.41 99.77,-39.08 97.88,-32.34"/>
</g>
<!-- Node2 -->
<g id="node3" class="node">
<title>Node2</title>
<g id="a_node3"><a xlink:href="classLPT_1_1GNSSReceiver.html" target="_top" xlink:title=" ">
<polygon fill="white" stroke="black" points="281.5,-76.5 281.5,-95.5 390.5,-95.5 390.5,-76.5 281.5,-76.5"/>
<text text-anchor="middle" x="336" y="-83.5" font-family="Helvetica,sans-Serif" font-size="10.00">LPT::GNSSReceiver</text>
</a>
</g>
</g>
<!-- Node1&#45;&gt;Node2 -->
<g id="edge2" class="edge">
<title>Node1&#45;&gt;Node2</title>
<path fill="none" stroke="midnightblue" d="M242.81,-86C255.31,-86 268.75,-86 281.4,-86"/>
<polygon fill="midnightblue" stroke="midnightblue" points="242.57,-82.5 232.57,-86 242.57,-89.5 242.57,-82.5"/>
</g>
<!-- Node5 -->
<g id="node6" class="node">
<title>Node5</title>
<g id="a_node6"><a xlink:href="classLPT_1_1GNSSTransmitter.html" target="_top" xlink:title=" ">
<polygon fill="white" stroke="black" points="275,-0.5 275,-19.5 397,-19.5 397,-0.5 275,-0.5"/>
<text text-anchor="middle" x="336" y="-7.5" font-family="Helvetica,sans-Serif" font-size="10.00">LPT::GNSSTransmitter</text>
</a>
</g>
</g>
<!-- Node4&#45;&gt;Node5 -->
<g id="edge5" class="edge">
<title>Node4&#45;&gt;Node5</title>
<path fill="none" stroke="midnightblue" d="M249.29,-10C257.74,-10 266.48,-10 274.99,-10"/>
<polygon fill="midnightblue" stroke="midnightblue" points="249.16,-6.5 239.16,-10 249.16,-13.5 249.16,-6.5"/>
</g>
</g>
</svg>
