<?xml version="1.0" encoding="UTF-8" standalone="no"?>
<!DOCTYPE svg PUBLIC "-//W3C//DTD SVG 1.1//EN"
 "http://www.w3.org/Graphics/SVG/1.1/DTD/svg11.dtd">
<!-- Generated by graphviz version 2.43.0 (0)
 -->
<!-- Title: Graphical Class Hierarchy Pages: 1 -->
<svg width="366pt" height="116pt"
 viewBox="0.00 0.00 366.00 116.00" xmlns="http://www.w3.org/2000/svg" xmlns:xlink="http://www.w3.org/1999/xlink">
<g id="graph0" class="graph" transform="scale(1 1) rotate(0) translate(4 112)">
<title>Graphical Class Hierarchy</title>
<polygon fill="white" stroke="transparent" points="-4,4 -4,-112 362,-112 362,4 -4,4"/>
<!-- Node0 -->
<g id="node1" class="node">
<title>Node0</title>
<g id="a_node1"><a xlink:href="classLPT_1_1IAnalyticalDynamics.html" target="_top" xlink:title=" ">
<polygon fill="white" stroke="black" points="0,-44.5 0,-63.5 140,-63.5 140,-44.5 0,-44.5"/>
<text text-anchor="middle" x="70" y="-51.5" font-family="Helvetica,sans-Serif" font-size="10.00">LPT::IAnalyticalDynamics</text>
</a>
</g>
</g>
<!-- Node1 -->
<g id="node2" class="node">
<title>Node1</title>
<g id="a_node2"><a xlink:href="classLPT_1_1ClohessyWiltshireDynamics.html" target="_top" xlink:title=" ">
<polygon fill="white" stroke="black" points="179,-88.5 179,-107.5 355,-107.5 355,-88.5 179,-88.5"/>
<text text-anchor="middle" x="267" y="-95.5" font-family="Helvetica,sans-Serif" font-size="10.00">LPT::ClohessyWiltshireDynamics</text>
</a>
</g>
</g>
<!-- Node0&#45;&gt;Node1 -->
<g id="edge1" class="edge">
<title>Node0&#45;&gt;Node1</title>
<path fill="none" stroke="midnightblue" d="M120.36,-66.03C137.9,-70.23 157.81,-74.92 176,-79 190.18,-82.18 205.65,-85.51 219.7,-88.46"/>
<polygon fill="midnightblue" stroke="midnightblue" points="120.88,-62.55 110.33,-63.62 119.24,-69.36 120.88,-62.55"/>
</g>
<!-- Node2 -->
<g id="node3" class="node">
<title>Node2</title>
<g id="a_node3"><a xlink:href="classLPT_1_1RoeGeometricMappingDynamics.html" target="_top" xlink:title=" ">
<polygon fill="white" stroke="black" points="191.5,-39 191.5,-69 342.5,-69 342.5,-39 191.5,-39"/>
<text text-anchor="start" x="199.5" y="-57" font-family="Helvetica,sans-Serif" font-size="10.00">LPT::RoeGeometricMapping</text>
<text text-anchor="middle" x="267" y="-46" font-family="Helvetica,sans-Serif" font-size="10.00">Dynamics</text>
</a>
</g>
</g>
<!-- Node0&#45;&gt;Node2 -->
<g id="edge2" class="edge">
<title>Node0&#45;&gt;Node2</title>
<path fill="none" stroke="midnightblue" d="M150.3,-54C163.9,-54 177.98,-54 191.44,-54"/>
<polygon fill="midnightblue" stroke="midnightblue" points="150.02,-50.5 140.02,-54 150.02,-57.5 150.02,-50.5"/>
</g>
<!-- Node3 -->
<g id="node4" class="node">
<title>Node3</title>
<g id="a_node4"><a xlink:href="classLPT_1_1YamanakaAnkersenDynamics.html" target="_top" xlink:title=" ">
<polygon fill="white" stroke="black" points="176,-0.5 176,-19.5 358,-19.5 358,-0.5 176,-0.5"/>
<text text-anchor="middle" x="267" y="-7.5" font-family="Helvetica,sans-Serif" font-size="10.00">LPT::YamanakaAnkersenDynamics</text>
</a>
</g>
</g>
<!-- Node0&#45;&gt;Node3 -->
<g id="edge3" class="edge">
<title>Node0&#45;&gt;Node3</title>
<path fill="none" stroke="midnightblue" d="M122.18,-42.24C139.29,-38.32 158.46,-33.95 176,-30 191.3,-26.55 208.08,-22.81 222.96,-19.51"/>
<polygon fill="midnightblue" stroke="midnightblue" points="121.35,-38.84 112.38,-44.48 122.91,-45.66 121.35,-38.84"/>
</g>
</g>
</svg>
