<?xml version="1.0" encoding="UTF-8" standalone="no"?>
<!DOCTYPE svg PUBLIC "-//W3C//DTD SVG 1.1//EN"
 "http://www.w3.org/Graphics/SVG/1.1/DTD/svg11.dtd">
<!-- Generated by graphviz version 2.43.0 (0)
 -->
<!-- Title: Graphical Class Hierarchy Pages: 1 -->
<svg width="520pt" height="218pt"
 viewBox="0.00 0.00 520.00 218.00" xmlns="http://www.w3.org/2000/svg" xmlns:xlink="http://www.w3.org/1999/xlink">
<g id="graph0" class="graph" transform="scale(1 1) rotate(0) translate(4 214)">
<title>Graphical Class Hierarchy</title>
<polygon fill="white" stroke="transparent" points="-4,4 -4,-214 516,-214 516,4 -4,4"/>
<!-- Node0 -->
<g id="node1" class="node">
<title>Node0</title>
<g id="a_node1"><a xlink:href="classLPT_1_1IOrbitDynamics.html" target="_top" xlink:title="Interface for Orbit Dynamics (Todo: find a way to inherit this from IDynamics)">
<polygon fill="white" stroke="black" points="0,-95.5 0,-114.5 115,-114.5 115,-95.5 0,-95.5"/>
<text text-anchor="middle" x="57.5" y="-102.5" font-family="Helvetica,sans-Serif" font-size="10.00">LPT::IOrbitDynamics</text>
</a>
</g>
</g>
<!-- Node1 -->
<g id="node2" class="node">
<title>Node1</title>
<g id="a_node2"><a xlink:href="classLPT_1_1NumericalDynamics.html" target="_top" xlink:title=" ">
<polygon fill="white" stroke="black" points="151,-95.5 151,-114.5 289,-114.5 289,-95.5 151,-95.5"/>
<text text-anchor="middle" x="220" y="-102.5" font-family="Helvetica,sans-Serif" font-size="10.00">LPT::NumericalDynamics</text>
</a>
</g>
</g>
<!-- Node0&#45;&gt;Node1 -->
<g id="edge1" class="edge">
<title>Node0&#45;&gt;Node1</title>
<path fill="none" stroke="midnightblue" d="M125.26,-105C133.7,-105 142.35,-105 150.82,-105"/>
<polygon fill="midnightblue" stroke="midnightblue" points="125.09,-101.5 115.09,-105 125.09,-108.5 125.09,-101.5"/>
</g>
<!-- Node2 -->
<g id="node3" class="node">
<title>Node2</title>
<g id="a_node3"><a xlink:href="classLPT_1_1CartesianTwoBodyDynamics.html" target="_top" xlink:title=" ">
<polygon fill="white" stroke="black" points="329.5,-190.5 329.5,-209.5 507.5,-209.5 507.5,-190.5 329.5,-190.5"/>
<text text-anchor="middle" x="418.5" y="-197.5" font-family="Helvetica,sans-Serif" font-size="10.00">LPT::CartesianTwoBodyDynamics</text>
</a>
</g>
</g>
<!-- Node1&#45;&gt;Node2 -->
<g id="edge2" class="edge">
<title>Node1&#45;&gt;Node2</title>
<path fill="none" stroke="midnightblue" d="M238.47,-121.48C258.01,-138.97 291.36,-166.11 325,-181 333.69,-184.85 343.2,-187.93 352.7,-190.39"/>
<polygon fill="midnightblue" stroke="midnightblue" points="240.72,-118.8 230.98,-114.64 236,-123.96 240.72,-118.8"/>
</g>
<!-- Node3 -->
<g id="node4" class="node">
<title>Node3</title>
<g id="a_node4"><a xlink:href="classLPT_1_1J2CartesianTwoBodyDynamics.html" target="_top" xlink:title=" ">
<polygon fill="white" stroke="black" points="325,-152.5 325,-171.5 512,-171.5 512,-152.5 325,-152.5"/>
<text text-anchor="middle" x="418.5" y="-159.5" font-family="Helvetica,sans-Serif" font-size="10.00">LPT::J2CartesianTwoBodyDynamics</text>
</a>
</g>
</g>
<!-- Node1&#45;&gt;Node3 -->
<g id="edge3" class="edge">
<title>Node1&#45;&gt;Node3</title>
<path fill="none" stroke="midnightblue" d="M253.62,-118.33C273.91,-126.26 300.68,-136.1 325,-143 337.62,-146.58 351.38,-149.78 364.35,-152.48"/>
<polygon fill="midnightblue" stroke="midnightblue" points="254.8,-115.03 244.22,-114.61 252.23,-121.54 254.8,-115.03"/>
</g>
<!-- Node4 -->
<g id="node5" class="node">
<title>Node4</title>
<g id="a_node5"><a xlink:href="classLPT_1_1J2KeplerianDynamics.html" target="_top" xlink:title=" ">
<polygon fill="white" stroke="black" points="347,-114.5 347,-133.5 490,-133.5 490,-114.5 347,-114.5"/>
<text text-anchor="middle" x="418.5" y="-121.5" font-family="Helvetica,sans-Serif" font-size="10.00">LPT::J2KeplerianDynamics</text>
</a>
</g>
</g>
<!-- Node1&#45;&gt;Node4 -->
<g id="edge4" class="edge">
<title>Node1&#45;&gt;Node4</title>
<path fill="none" stroke="midnightblue" d="M299.35,-112.58C315.02,-114.09 331.39,-115.67 346.78,-117.16"/>
<polygon fill="midnightblue" stroke="midnightblue" points="299.47,-109.07 289.17,-111.59 298.79,-116.04 299.47,-109.07"/>
</g>
<!-- Node5 -->
<g id="node6" class="node">
<title>Node5</title>
<g id="a_node6"><a xlink:href="classLPT_1_1MoonFixedDynamics.html" target="_top" xlink:title=" ">
<polygon fill="white" stroke="black" points="348.5,-76.5 348.5,-95.5 488.5,-95.5 488.5,-76.5 348.5,-76.5"/>
<text text-anchor="middle" x="418.5" y="-83.5" font-family="Helvetica,sans-Serif" font-size="10.00">LPT::MoonFixedDynamics</text>
</a>
</g>
</g>
<!-- Node1&#45;&gt;Node5 -->
<g id="edge5" class="edge">
<title>Node1&#45;&gt;Node5</title>
<path fill="none" stroke="midnightblue" d="M299.2,-97.44C315.48,-95.86 332.52,-94.22 348.45,-92.68"/>
<polygon fill="midnightblue" stroke="midnightblue" points="298.79,-93.96 289.17,-98.41 299.47,-100.93 298.79,-93.96"/>
</g>
<!-- Node6 -->
<g id="node7" class="node">
<title>Node6</title>
<g id="a_node7"><a xlink:href="classLPT_1_1MoonMeanDynamics.html" target="_top" xlink:title=" ">
<polygon fill="white" stroke="black" points="347.5,-38.5 347.5,-57.5 489.5,-57.5 489.5,-38.5 347.5,-38.5"/>
<text text-anchor="middle" x="418.5" y="-45.5" font-family="Helvetica,sans-Serif" font-size="10.00">LPT::MoonMeanDynamics</text>
</a>
</g>
</g>
<!-- Node1&#45;&gt;Node6 -->
<g id="edge6" class="edge">
<title>Node1&#45;&gt;Node6</title>
<path fill="none" stroke="midnightblue" d="M253.62,-91.67C273.91,-83.74 300.68,-73.9 325,-67 337.62,-63.42 351.38,-60.22 364.35,-57.52"/>
<polygon fill="midnightblue" stroke="midnightblue" points="252.23,-88.46 244.22,-95.39 254.8,-94.97 252.23,-88.46"/>
</g>
<!-- Node7 -->
<g id="node8" class="node">
<title>Node7</title>
<g id="a_node8"><a xlink:href="classLPT_1_1NBodyDynamics.html" target="_top" xlink:title=" ">
<polygon fill="white" stroke="black" points="358.5,-0.5 358.5,-19.5 478.5,-19.5 478.5,-0.5 358.5,-0.5"/>
<text text-anchor="middle" x="418.5" y="-7.5" font-family="Helvetica,sans-Serif" font-size="10.00">LPT::NBodyDynamics</text>
</a>
</g>
</g>
<!-- Node1&#45;&gt;Node7 -->
<g id="edge7" class="edge">
<title>Node1&#45;&gt;Node7</title>
<path fill="none" stroke="midnightblue" d="M238.47,-88.52C258.01,-71.03 291.36,-43.89 325,-29 335.34,-24.42 346.83,-20.93 358.09,-18.27"/>
<polygon fill="midnightblue" stroke="midnightblue" points="236,-86.04 230.98,-95.36 240.72,-91.2 236,-86.04"/>
</g>
</g>
</svg>
