<?xml version="1.0" encoding="UTF-8" standalone="no"?>
<!DOCTYPE svg PUBLIC "-//W3C//DTD SVG 1.1//EN"
 "http://www.w3.org/Graphics/SVG/1.1/DTD/svg11.dtd">
<!-- Generated by graphviz version 2.43.0 (0)
 -->
<!-- Title: Graphical Class Hierarchy Pages: 1 -->
<svg width="202pt" height="66pt"
 viewBox="0.00 0.00 202.00 66.00" xmlns="http://www.w3.org/2000/svg" xmlns:xlink="http://www.w3.org/1999/xlink">
<g id="graph0" class="graph" transform="scale(1 1) rotate(0) translate(4 62)">
<title>Graphical Class Hierarchy</title>
<polygon fill="white" stroke="transparent" points="-4,4 -4,-62 198,-62 198,4 -4,4"/>
<!-- Node0 -->
<g id="node1" class="node">
<title>Node0</title>
<g id="a_node1"><a xlink:href="classLPT_1_1Agent.html" target="_top" xlink:title="Agent base class.">
<polygon fill="white" stroke="black" points="0,-19.5 0,-38.5 68,-38.5 68,-19.5 0,-19.5"/>
<text text-anchor="middle" x="34" y="-26.5" font-family="Helvetica,sans-Serif" font-size="10.00">LPT::Agent</text>
</a>
</g>
</g>
<!-- Node1 -->
<g id="node2" class="node">
<title>Node1</title>
<g id="a_node2"><a xlink:href="classLPT_1_1Rover.html" target="_top" xlink:title="Rover Agent.">
<polygon fill="white" stroke="black" points="115,-38.5 115,-57.5 183,-57.5 183,-38.5 115,-38.5"/>
<text text-anchor="middle" x="149" y="-45.5" font-family="Helvetica,sans-Serif" font-size="10.00">LPT::Rover</text>
</a>
</g>
</g>
<!-- Node0&#45;&gt;Node1 -->
<g id="edge1" class="edge">
<title>Node0&#45;&gt;Node1</title>
<path fill="none" stroke="midnightblue" d="M78.26,-36.27C90.43,-38.32 103.47,-40.51 114.95,-42.44"/>
<polygon fill="midnightblue" stroke="midnightblue" points="78.73,-32.8 68.29,-34.6 77.57,-39.71 78.73,-32.8"/>
</g>
<!-- Node2 -->
<g id="node3" class="node">
<title>Node2</title>
<g id="a_node3"><a xlink:href="classLPT_1_1Spacecraft.html" target="_top" xlink:title="Spacecraft Agent.">
<polygon fill="white" stroke="black" points="104,-0.5 104,-19.5 194,-19.5 194,-0.5 104,-0.5"/>
<text text-anchor="middle" x="149" y="-7.5" font-family="Helvetica,sans-Serif" font-size="10.00">LPT::Spacecraft</text>
</a>
</g>
</g>
<!-- Node0&#45;&gt;Node2 -->
<g id="edge2" class="edge">
<title>Node0&#45;&gt;Node2</title>
<path fill="none" stroke="midnightblue" d="M78.2,-21.74C86.53,-20.34 95.27,-18.87 103.63,-17.46"/>
<polygon fill="midnightblue" stroke="midnightblue" points="77.57,-18.29 68.29,-23.4 78.73,-25.2 77.57,-18.29"/>
</g>
</g>
</svg>
