<?xml version="1.0" encoding="UTF-8" standalone="no"?>
<!DOCTYPE svg PUBLIC "-//W3C//DTD SVG 1.1//EN"
 "http://www.w3.org/Graphics/SVG/1.1/DTD/svg11.dtd">
<!-- Generated by graphviz version 2.43.0 (0)
 -->
<!-- Title: Integrator.cpp Pages: 1 -->
<svg width="295pt" height="151pt"
 viewBox="0.00 0.00 294.50 151.00" xmlns="http://www.w3.org/2000/svg" xmlns:xlink="http://www.w3.org/1999/xlink">
<g id="graph0" class="graph" transform="scale(1 1) rotate(0) translate(4 147)">
<title>Integrator.cpp</title>
<polygon fill="white" stroke="transparent" points="-4,4 -4,-147 290.5,-147 290.5,4 -4,4"/>
<!-- Node1 -->
<g id="node1" class="node">
<title>Node1</title>
<g id="a_node1"><a xlink:title="Integrator implementations.">
<polygon fill="#bfbfbf" stroke="black" points="99.5,-123.5 99.5,-142.5 183.5,-142.5 183.5,-123.5 99.5,-123.5"/>
<text text-anchor="middle" x="141.5" y="-130.5" font-family="Helvetica,sans-Serif" font-size="10.00">Integrator.cpp</text>
</a>
</g>
</g>
<!-- Node2 -->
<g id="node2" class="node">
<title>Node2</title>
<g id="a_node2"><a xlink:href="Integrator_8h.html" target="_top" xlink:title="Integrator interfaces.">
<polygon fill="white" stroke="black" points="67,-67.5 67,-86.5 216,-86.5 216,-67.5 67,-67.5"/>
<text text-anchor="middle" x="141.5" y="-74.5" font-family="Helvetica,sans-Serif" font-size="10.00">lupnt/numerics/Integrator.h</text>
</a>
</g>
</g>
<!-- Node1&#45;&gt;Node2 -->
<g id="edge1" class="edge">
<title>Node1&#45;&gt;Node2</title>
<path fill="none" stroke="midnightblue" d="M141.5,-123.08C141.5,-116.01 141.5,-105.86 141.5,-96.99"/>
<polygon fill="midnightblue" stroke="midnightblue" points="145,-96.75 141.5,-86.75 138,-96.75 145,-96.75"/>
</g>
<!-- Node3 -->
<g id="node3" class="node">
<title>Node3</title>
<g id="a_node3"><a xlink:title=" ">
<polygon fill="white" stroke="#bfbfbf" points="0,-6 0,-25 137,-25 137,-6 0,-6"/>
<text text-anchor="middle" x="68.5" y="-13" font-family="Helvetica,sans-Serif" font-size="10.00">autodiff/forward/real.hpp</text>
</a>
</g>
</g>
<!-- Node1&#45;&gt;Node3 -->
<g id="edge4" class="edge">
<title>Node1&#45;&gt;Node3</title>
<path fill="none" stroke="midnightblue" d="M109.32,-123.49C90.96,-116.8 69.48,-105.45 58.5,-87 49.05,-71.12 54.04,-49.74 59.84,-34.71"/>
<polygon fill="midnightblue" stroke="midnightblue" points="63.08,-36.02 63.81,-25.46 56.65,-33.26 63.08,-36.02"/>
</g>
<!-- Node4 -->
<g id="node4" class="node">
<title>Node4</title>
<g id="a_node4"><a xlink:title=" ">
<polygon fill="white" stroke="#bfbfbf" points="170.5,-0.5 170.5,-30.5 286.5,-30.5 286.5,-0.5 170.5,-0.5"/>
<text text-anchor="start" x="178.5" y="-18.5" font-family="Helvetica,sans-Serif" font-size="10.00">autodiff/forward/real</text>
<text text-anchor="middle" x="228.5" y="-7.5" font-family="Helvetica,sans-Serif" font-size="10.00">/eigen.hpp</text>
</a>
</g>
</g>
<!-- Node1&#45;&gt;Node4 -->
<g id="edge5" class="edge">
<title>Node1&#45;&gt;Node4</title>
<path fill="none" stroke="midnightblue" d="M173.78,-123.42C192.25,-116.71 213.97,-105.35 225.5,-87 234.01,-73.44 234.62,-55.35 233.17,-40.89"/>
<polygon fill="midnightblue" stroke="midnightblue" points="236.59,-40.11 231.76,-30.68 229.66,-41.06 236.59,-40.11"/>
</g>
<!-- Node2&#45;&gt;Node3 -->
<g id="edge2" class="edge">
<title>Node2&#45;&gt;Node3</title>
<path fill="none" stroke="midnightblue" d="M131.04,-67.48C119.55,-58.11 100.87,-42.88 86.91,-31.51"/>
<polygon fill="midnightblue" stroke="midnightblue" points="88.9,-28.61 78.94,-25.01 84.48,-34.04 88.9,-28.61"/>
</g>
<!-- Node2&#45;&gt;Node4 -->
<g id="edge3" class="edge">
<title>Node2&#45;&gt;Node4</title>
<path fill="none" stroke="midnightblue" d="M153.96,-67.48C165.86,-59.34 184.21,-46.79 199.73,-36.18"/>
<polygon fill="midnightblue" stroke="midnightblue" points="201.72,-39.06 208,-30.52 197.77,-33.28 201.72,-39.06"/>
</g>
</g>
</svg>
