<?xml version="1.0" encoding="UTF-8" standalone="no"?>
<!DOCTYPE svg PUBLIC "-//W3C//DTD SVG 1.1//EN"
 "http://www.w3.org/Graphics/SVG/1.1/DTD/svg11.dtd">
<!-- Generated by graphviz version 2.43.0 (0)
 -->
<!-- Title: LunarMeanOsc.cpp Pages: 1 -->
<svg width="1080pt" height="274pt"
 viewBox="0.00 0.00 1080.00 274.00" xmlns="http://www.w3.org/2000/svg" xmlns:xlink="http://www.w3.org/1999/xlink">
<g id="graph0" class="graph" transform="scale(1 1) rotate(0) translate(4 270)">
<title>LunarMeanOsc.cpp</title>
<polygon fill="white" stroke="transparent" points="-4,4 -4,-270 1076,-270 1076,4 -4,4"/>
<!-- Node1 -->
<g id="node1" class="node">
<title>Node1</title>
<g id="a_node1"><a xlink:title="Lunar Mean and Osculating Elements.">
<polygon fill="#bfbfbf" stroke="black" points="416.5,-246.5 416.5,-265.5 525.5,-265.5 525.5,-246.5 416.5,-246.5"/>
<text text-anchor="middle" x="471" y="-253.5" font-family="Helvetica,sans-Serif" font-size="10.00">LunarMeanOsc.cpp</text>
</a>
</g>
</g>
<!-- Node2 -->
<g id="node2" class="node">
<title>Node2</title>
<g id="a_node2"><a xlink:title=" ">
<polygon fill="white" stroke="#bfbfbf" points="363,-185 363,-204 405,-204 405,-185 363,-185"/>
<text text-anchor="middle" x="384" y="-192" font-family="Helvetica,sans-Serif" font-size="10.00">array</text>
</a>
</g>
</g>
<!-- Node1&#45;&gt;Node2 -->
<g id="edge1" class="edge">
<title>Node1&#45;&gt;Node2</title>
<path fill="none" stroke="midnightblue" d="M458.54,-246.48C444.58,-236.93 421.74,-221.31 405.01,-209.87"/>
<polygon fill="midnightblue" stroke="midnightblue" points="406.67,-206.77 396.44,-204.01 402.72,-212.54 406.67,-206.77"/>
</g>
<!-- Node3 -->
<g id="node3" class="node">
<title>Node3</title>
<g id="a_node3"><a xlink:href="Constants_8h.html" target="_top" xlink:title="List of constants.">
<polygon fill="white" stroke="black" points="222,-123.5 222,-142.5 348,-142.5 348,-123.5 222,-123.5"/>
<text text-anchor="middle" x="285" y="-130.5" font-family="Helvetica,sans-Serif" font-size="10.00">lupnt/core/Constants.h</text>
</a>
</g>
</g>
<!-- Node1&#45;&gt;Node3 -->
<g id="edge2" class="edge">
<title>Node1&#45;&gt;Node3</title>
<path fill="none" stroke="midnightblue" d="M466.76,-246.39C458.64,-230.75 439.43,-197.6 414,-179 391.87,-162.82 363.43,-152.07 338.89,-145.16"/>
<polygon fill="midnightblue" stroke="midnightblue" points="339.56,-141.71 328.99,-142.51 337.75,-148.48 339.56,-141.71"/>
</g>
<!-- Node11 -->
<g id="node11" class="node">
<title>Node11</title>
<g id="a_node11"><a xlink:href="MathUtils_8h.html" target="_top" xlink:title=" ">
<polygon fill="white" stroke="black" points="364.5,-67.5 364.5,-86.5 513.5,-86.5 513.5,-67.5 364.5,-67.5"/>
<text text-anchor="middle" x="439" y="-74.5" font-family="Helvetica,sans-Serif" font-size="10.00">lupnt/numerics/MathUtils.h</text>
</a>
</g>
</g>
<!-- Node1&#45;&gt;Node11 -->
<g id="edge11" class="edge">
<title>Node1&#45;&gt;Node11</title>
<path fill="none" stroke="midnightblue" d="M469.46,-246.46C464.57,-219.43 449.35,-135.24 442.45,-97.11"/>
<polygon fill="midnightblue" stroke="midnightblue" points="445.83,-96.09 440.6,-86.87 438.94,-97.33 445.83,-96.09"/>
</g>
<!-- Node14 -->
<g id="node14" class="node">
<title>Node14</title>
<g id="a_node14"><a xlink:href="OrbitState_8h.html" target="_top" xlink:title="Orbit states.">
<polygon fill="white" stroke="black" points="738.5,-123.5 738.5,-142.5 881.5,-142.5 881.5,-123.5 738.5,-123.5"/>
<text text-anchor="middle" x="810" y="-130.5" font-family="Helvetica,sans-Serif" font-size="10.00">lupnt/physics/OrbitState.h</text>
</a>
</g>
</g>
<!-- Node1&#45;&gt;Node14 -->
<g id="edge15" class="edge">
<title>Node1&#45;&gt;Node14</title>
<path fill="none" stroke="midnightblue" d="M525.8,-251.88C575.67,-247.39 650.38,-236.48 710,-210 743.33,-195.2 775.79,-167.3 794.29,-149.73"/>
<polygon fill="midnightblue" stroke="midnightblue" points="796.81,-152.17 801.55,-142.69 791.94,-147.14 796.81,-152.17"/>
</g>
<!-- Node20 -->
<g id="node20" class="node">
<title>Node20</title>
<g id="a_node20"><a xlink:href="OrbitStateUtils_8h.html" target="_top" xlink:title="Util functions for state conversions.">
<polygon fill="white" stroke="black" points="567,-179.5 567,-209.5 701,-209.5 701,-179.5 567,-179.5"/>
<text text-anchor="start" x="575" y="-197.5" font-family="Helvetica,sans-Serif" font-size="10.00">lupnt/physics/OrbitState</text>
<text text-anchor="middle" x="634" y="-186.5" font-family="Helvetica,sans-Serif" font-size="10.00">Utils.h</text>
</a>
</g>
</g>
<!-- Node1&#45;&gt;Node20 -->
<g id="edge25" class="edge">
<title>Node1&#45;&gt;Node20</title>
<path fill="none" stroke="midnightblue" d="M494.35,-246.48C518.18,-237.78 555.85,-224.03 586.06,-213"/>
<polygon fill="midnightblue" stroke="midnightblue" points="587.39,-216.24 595.58,-209.52 584.99,-209.66 587.39,-216.24"/>
</g>
<!-- Node4 -->
<g id="node4" class="node">
<title>Node4</title>
<g id="a_node4"><a xlink:title=" ">
<polygon fill="white" stroke="#bfbfbf" points="157.5,-67.5 157.5,-86.5 308.5,-86.5 308.5,-67.5 157.5,-67.5"/>
<text text-anchor="middle" x="233" y="-74.5" font-family="Helvetica,sans-Serif" font-size="10.00">autodiff/common/eigen.hpp</text>
</a>
</g>
</g>
<!-- Node3&#45;&gt;Node4 -->
<g id="edge3" class="edge">
<title>Node3&#45;&gt;Node4</title>
<path fill="none" stroke="midnightblue" d="M276.41,-123.08C268.84,-115.22 257.62,-103.57 248.49,-94.08"/>
<polygon fill="midnightblue" stroke="midnightblue" points="250.88,-91.53 241.43,-86.75 245.84,-96.38 250.88,-91.53"/>
</g>
<!-- Node5 -->
<g id="node5" class="node">
<title>Node5</title>
<g id="a_node5"><a xlink:title=" ">
<polygon fill="white" stroke="#bfbfbf" points="478.5,-6 478.5,-25 615.5,-25 615.5,-6 478.5,-6"/>
<text text-anchor="middle" x="547" y="-13" font-family="Helvetica,sans-Serif" font-size="10.00">autodiff/forward/real.hpp</text>
</a>
</g>
</g>
<!-- Node3&#45;&gt;Node5 -->
<g id="edge4" class="edge">
<title>Node3&#45;&gt;Node5</title>
<path fill="none" stroke="midnightblue" d="M291.9,-123.42C303.6,-109.46 328.72,-81.9 356,-67 379.89,-53.95 447.57,-37.67 495.56,-27.18"/>
<polygon fill="midnightblue" stroke="midnightblue" points="496.45,-30.57 505.48,-25.04 494.97,-23.73 496.45,-30.57"/>
</g>
<!-- Node6 -->
<g id="node6" class="node">
<title>Node6</title>
<g id="a_node6"><a xlink:title=" ">
<polygon fill="white" stroke="#bfbfbf" points="0,-6 0,-25 44,-25 44,-6 0,-6"/>
<text text-anchor="middle" x="22" y="-13" font-family="Helvetica,sans-Serif" font-size="10.00">string</text>
</a>
</g>
</g>
<!-- Node3&#45;&gt;Node6 -->
<g id="edge5" class="edge">
<title>Node3&#45;&gt;Node6</title>
<path fill="none" stroke="midnightblue" d="M221.81,-127.52C159.44,-121.84 69.77,-109.9 44,-87 29.5,-74.12 24.45,-51.84 22.75,-35.77"/>
<polygon fill="midnightblue" stroke="midnightblue" points="26.22,-35.12 22.02,-25.39 19.23,-35.61 26.22,-35.12"/>
</g>
<!-- Node7 -->
<g id="node7" class="node">
<title>Node7</title>
<g id="a_node7"><a xlink:href="UserFilePath_8h.html" target="_top" xlink:title="File access utils.">
<polygon fill="white" stroke="black" points="53,-67.5 53,-86.5 139,-86.5 139,-67.5 53,-67.5"/>
<text text-anchor="middle" x="96" y="-74.5" font-family="Helvetica,sans-Serif" font-size="10.00">UserFilePath.h</text>
</a>
</g>
</g>
<!-- Node3&#45;&gt;Node7 -->
<g id="edge6" class="edge">
<title>Node3&#45;&gt;Node7</title>
<path fill="none" stroke="midnightblue" d="M255.05,-123.44C222.84,-114.24 171.47,-99.56 135.86,-89.39"/>
<polygon fill="midnightblue" stroke="midnightblue" points="136.38,-85.9 125.81,-86.52 134.46,-92.63 136.38,-85.9"/>
</g>
<!-- Node7&#45;&gt;Node6 -->
<g id="edge10" class="edge">
<title>Node7&#45;&gt;Node6</title>
<path fill="none" stroke="midnightblue" d="M85.4,-67.48C73.75,-58.11 54.81,-42.88 40.67,-31.51"/>
<polygon fill="midnightblue" stroke="midnightblue" points="42.57,-28.55 32.58,-25.01 38.18,-34 42.57,-28.55"/>
</g>
<!-- Node8 -->
<g id="node8" class="node">
<title>Node8</title>
<g id="a_node8"><a xlink:title=" ">
<polygon fill="white" stroke="#bfbfbf" points="62,-6 62,-25 130,-25 130,-6 62,-6"/>
<text text-anchor="middle" x="96" y="-13" font-family="Helvetica,sans-Serif" font-size="10.00">filesystem</text>
</a>
</g>
</g>
<!-- Node7&#45;&gt;Node8 -->
<g id="edge7" class="edge">
<title>Node7&#45;&gt;Node8</title>
<path fill="none" stroke="midnightblue" d="M96,-67.48C96,-59.08 96,-45.98 96,-35.16"/>
<polygon fill="midnightblue" stroke="midnightblue" points="99.5,-35.01 96,-25.01 92.5,-35.01 99.5,-35.01"/>
</g>
<!-- Node9 -->
<g id="node9" class="node">
<title>Node9</title>
<g id="a_node9"><a xlink:title=" ">
<polygon fill="white" stroke="#bfbfbf" points="148,-6 148,-25 208,-25 208,-6 148,-6"/>
<text text-anchor="middle" x="178" y="-13" font-family="Helvetica,sans-Serif" font-size="10.00">iostream</text>
</a>
</g>
</g>
<!-- Node7&#45;&gt;Node9 -->
<g id="edge8" class="edge">
<title>Node7&#45;&gt;Node9</title>
<path fill="none" stroke="midnightblue" d="M107.75,-67.48C120.78,-58.02 142.04,-42.6 157.76,-31.19"/>
<polygon fill="midnightblue" stroke="midnightblue" points="160.23,-33.71 166.27,-25.01 156.12,-28.05 160.23,-33.71"/>
</g>
<!-- Node10 -->
<g id="node10" class="node">
<title>Node10</title>
<g id="a_node10"><a xlink:title=" ">
<polygon fill="white" stroke="#bfbfbf" points="226,-6 226,-25 282,-25 282,-6 226,-6"/>
<text text-anchor="middle" x="254" y="-13" font-family="Helvetica,sans-Serif" font-size="10.00">optional</text>
</a>
</g>
</g>
<!-- Node7&#45;&gt;Node10 -->
<g id="edge9" class="edge">
<title>Node7&#45;&gt;Node10</title>
<path fill="none" stroke="midnightblue" d="M119.24,-67.49C143.64,-58.53 183.08,-43.95 217,-31 218.84,-30.3 220.72,-29.57 222.63,-28.84"/>
<polygon fill="midnightblue" stroke="midnightblue" points="224.06,-32.04 232.11,-25.15 221.52,-25.51 224.06,-32.04"/>
</g>
<!-- Node11&#45;&gt;Node5 -->
<g id="edge12" class="edge">
<title>Node11&#45;&gt;Node5</title>
<path fill="none" stroke="midnightblue" d="M454.47,-67.48C472.28,-57.67 501.74,-41.43 522.63,-29.92"/>
<polygon fill="midnightblue" stroke="midnightblue" points="524.49,-32.9 531.55,-25.01 521.11,-26.77 524.49,-32.9"/>
</g>
<!-- Node12 -->
<g id="node12" class="node">
<title>Node12</title>
<g id="a_node12"><a xlink:title=" ">
<polygon fill="white" stroke="#bfbfbf" points="956,-0.5 956,-30.5 1072,-30.5 1072,-0.5 956,-0.5"/>
<text text-anchor="start" x="964" y="-18.5" font-family="Helvetica,sans-Serif" font-size="10.00">autodiff/forward/real</text>
<text text-anchor="middle" x="1014" y="-7.5" font-family="Helvetica,sans-Serif" font-size="10.00">/eigen.hpp</text>
</a>
</g>
</g>
<!-- Node11&#45;&gt;Node12 -->
<g id="edge13" class="edge">
<title>Node11&#45;&gt;Node12</title>
<path fill="none" stroke="midnightblue" d="M513.56,-69.91C637.21,-59.75 877.16,-39.69 945.83,-30.92"/>
<polygon fill="midnightblue" stroke="midnightblue" points="946.55,-34.36 955.98,-29.52 945.59,-27.42 946.55,-34.36"/>
</g>
<!-- Node13 -->
<g id="node13" class="node">
<title>Node13</title>
<g id="a_node13"><a xlink:title=" ">
<polygon fill="white" stroke="#bfbfbf" points="406,-6 406,-25 460,-25 460,-6 406,-6"/>
<text text-anchor="middle" x="433" y="-13" font-family="Helvetica,sans-Serif" font-size="10.00">random</text>
</a>
</g>
</g>
<!-- Node11&#45;&gt;Node13 -->
<g id="edge14" class="edge">
<title>Node11&#45;&gt;Node13</title>
<path fill="none" stroke="midnightblue" d="M438.14,-67.48C437.29,-59.08 435.97,-45.98 434.88,-35.16"/>
<polygon fill="midnightblue" stroke="midnightblue" points="438.34,-34.61 433.86,-25.01 431.38,-35.31 438.34,-34.61"/>
</g>
<!-- Node14&#45;&gt;Node5 -->
<g id="edge17" class="edge">
<title>Node14&#45;&gt;Node5</title>
<path fill="none" stroke="midnightblue" d="M812.16,-123.14C814.96,-109.28 817.97,-82.48 804,-67 780.52,-41 692.2,-28 625.59,-21.77"/>
<polygon fill="midnightblue" stroke="midnightblue" points="625.79,-18.28 615.52,-20.87 625.17,-25.25 625.79,-18.28"/>
</g>
<!-- Node14&#45;&gt;Node12 -->
<g id="edge18" class="edge">
<title>Node14&#45;&gt;Node12</title>
<path fill="none" stroke="midnightblue" d="M874.03,-123.47C920.38,-116.03 977.79,-103.79 995,-87 1007.19,-75.1 1011.82,-56.27 1013.47,-41.06"/>
<polygon fill="midnightblue" stroke="midnightblue" points="1016.98,-41 1014.2,-30.78 1010,-40.5 1016.98,-41"/>
</g>
<!-- Node15 -->
<g id="node15" class="node">
<title>Node15</title>
<g id="a_node15"><a xlink:title=" ">
<polygon fill="white" stroke="#bfbfbf" points="717.5,-67.5 717.5,-86.5 794.5,-86.5 794.5,-67.5 717.5,-67.5"/>
<text text-anchor="middle" x="756" y="-74.5" font-family="Helvetica,sans-Serif" font-size="10.00">Eigen/Dense</text>
</a>
</g>
</g>
<!-- Node14&#45;&gt;Node15 -->
<g id="edge16" class="edge">
<title>Node14&#45;&gt;Node15</title>
<path fill="none" stroke="midnightblue" d="M801.08,-123.08C793.22,-115.22 781.57,-103.57 772.08,-94.08"/>
<polygon fill="midnightblue" stroke="midnightblue" points="774.3,-91.35 764.75,-86.75 769.35,-96.3 774.3,-91.35"/>
</g>
<!-- Node16 -->
<g id="node16" class="node">
<title>Node16</title>
<g id="a_node16"><a xlink:title=" ">
<polygon fill="white" stroke="#bfbfbf" points="569,-67.5 569,-86.5 699,-86.5 699,-67.5 569,-67.5"/>
<text text-anchor="middle" x="634" y="-74.5" font-family="Helvetica,sans-Serif" font-size="10.00">boost/preprocessor.hpp</text>
</a>
</g>
</g>
<!-- Node14&#45;&gt;Node16 -->
<g id="edge19" class="edge">
<title>Node14&#45;&gt;Node16</title>
<path fill="none" stroke="midnightblue" d="M782.11,-123.44C752.25,-114.28 704.69,-99.69 671.54,-89.52"/>
<polygon fill="midnightblue" stroke="midnightblue" points="672.34,-86.1 661.76,-86.52 670.29,-92.8 672.34,-86.1"/>
</g>
<!-- Node17 -->
<g id="node17" class="node">
<title>Node17</title>
<g id="a_node17"><a xlink:title=" ">
<polygon fill="white" stroke="#bfbfbf" points="851.5,-67.5 851.5,-86.5 916.5,-86.5 916.5,-67.5 851.5,-67.5"/>
<text text-anchor="middle" x="884" y="-74.5" font-family="Helvetica,sans-Serif" font-size="10.00">stdexcept</text>
</a>
</g>
</g>
<!-- Node14&#45;&gt;Node17 -->
<g id="edge20" class="edge">
<title>Node14&#45;&gt;Node17</title>
<path fill="none" stroke="midnightblue" d="M821.89,-123.32C833.15,-115.11 850.29,-102.6 863.71,-92.81"/>
<polygon fill="midnightblue" stroke="midnightblue" points="865.88,-95.56 871.89,-86.83 861.75,-89.9 865.88,-95.56"/>
</g>
<!-- Node18 -->
<g id="node18" class="node">
<title>Node18</title>
<g id="a_node18"><a xlink:href="State_8h.html" target="_top" xlink:title="SPICE Interface functions.">
<polygon fill="white" stroke="black" points="934.5,-67.5 934.5,-86.5 985.5,-86.5 985.5,-67.5 934.5,-67.5"/>
<text text-anchor="middle" x="960" y="-74.5" font-family="Helvetica,sans-Serif" font-size="10.00">State.h</text>
</a>
</g>
</g>
<!-- Node14&#45;&gt;Node18 -->
<g id="edge21" class="edge">
<title>Node14&#45;&gt;Node18</title>
<path fill="none" stroke="midnightblue" d="M833.77,-123.44C858.89,-114.4 898.71,-100.06 926.9,-89.92"/>
<polygon fill="midnightblue" stroke="midnightblue" points="928.12,-93.2 936.34,-86.52 925.75,-86.61 928.12,-93.2"/>
</g>
<!-- Node18&#45;&gt;Node5 -->
<g id="edge22" class="edge">
<title>Node18&#45;&gt;Node5</title>
<path fill="none" stroke="midnightblue" d="M934.46,-68.87C931.62,-68.19 928.76,-67.55 926,-67 823.02,-46.59 702.64,-32.13 625.65,-24.05"/>
<polygon fill="midnightblue" stroke="midnightblue" points="625.86,-20.55 615.55,-23 625.13,-27.52 625.86,-20.55"/>
</g>
<!-- Node18&#45;&gt;Node12 -->
<g id="edge23" class="edge">
<title>Node18&#45;&gt;Node12</title>
<path fill="none" stroke="midnightblue" d="M967.74,-67.48C974.71,-59.79 985.26,-48.17 994.52,-37.96"/>
<polygon fill="midnightblue" stroke="midnightblue" points="997.14,-40.28 1001.27,-30.52 991.96,-35.58 997.14,-40.28"/>
</g>
<!-- Node19 -->
<g id="node19" class="node">
<title>Node19</title>
<g id="a_node19"><a xlink:title=" ">
<polygon fill="white" stroke="#bfbfbf" points="890.5,-6 890.5,-25 937.5,-25 937.5,-6 890.5,-6"/>
<text text-anchor="middle" x="914" y="-13" font-family="Helvetica,sans-Serif" font-size="10.00">vector</text>
</a>
</g>
</g>
<!-- Node18&#45;&gt;Node19 -->
<g id="edge24" class="edge">
<title>Node18&#45;&gt;Node19</title>
<path fill="none" stroke="midnightblue" d="M953.41,-67.48C946.51,-58.55 935.5,-44.31 926.87,-33.14"/>
<polygon fill="midnightblue" stroke="midnightblue" points="929.46,-30.78 920.58,-25.01 923.93,-35.06 929.46,-30.78"/>
</g>
<!-- Node20&#45;&gt;Node3 -->
<g id="edge26" class="edge">
<title>Node20&#45;&gt;Node3</title>
<path fill="none" stroke="midnightblue" d="M566.71,-182.03C502.45,-171.07 406.51,-154.72 344.84,-144.2"/>
<polygon fill="midnightblue" stroke="midnightblue" points="345.32,-140.73 334.88,-142.5 344.15,-147.63 345.32,-140.73"/>
</g>
<!-- Node20&#45;&gt;Node5 -->
<g id="edge29" class="edge">
<title>Node20&#45;&gt;Node5</title>
<path fill="none" stroke="midnightblue" d="M621.01,-179.18C604.17,-159.78 575.15,-123.37 560,-87 553.05,-70.32 549.8,-49.88 548.29,-35.32"/>
<polygon fill="midnightblue" stroke="midnightblue" points="551.76,-34.74 547.42,-25.08 544.78,-35.34 551.76,-34.74"/>
</g>
<!-- Node20&#45;&gt;Node12 -->
<g id="edge30" class="edge">
<title>Node20&#45;&gt;Node12</title>
<path fill="none" stroke="midnightblue" d="M701.37,-185.28C801.36,-171.45 980.96,-139.72 1015,-87 1023.76,-73.43 1023.22,-55.11 1020.65,-40.55"/>
<polygon fill="midnightblue" stroke="midnightblue" points="1024.06,-39.77 1018.51,-30.74 1017.22,-41.25 1024.06,-39.77"/>
</g>
<!-- Node20&#45;&gt;Node14 -->
<g id="edge27" class="edge">
<title>Node20&#45;&gt;Node14</title>
<path fill="none" stroke="midnightblue" d="M675.71,-179.4C705.99,-169.16 746.49,-155.47 775.07,-145.81"/>
<polygon fill="midnightblue" stroke="midnightblue" points="776.3,-149.09 784.65,-142.57 774.05,-142.46 776.3,-149.09"/>
</g>
<!-- Node20&#45;&gt;Node15 -->
<g id="edge28" class="edge">
<title>Node20&#45;&gt;Node15</title>
<path fill="none" stroke="midnightblue" d="M648.96,-179.34C671.84,-157.68 715.38,-116.45 739.28,-93.83"/>
<polygon fill="midnightblue" stroke="midnightblue" points="741.99,-96.09 746.84,-86.67 737.17,-91 741.99,-96.09"/>
</g>
<!-- Node20&#45;&gt;Node16 -->
<g id="edge31" class="edge">
<title>Node20&#45;&gt;Node16</title>
<path fill="none" stroke="midnightblue" d="M634,-179.34C634,-158.62 634,-120.02 634,-96.9"/>
<polygon fill="midnightblue" stroke="midnightblue" points="637.5,-96.67 634,-86.67 630.5,-96.67 637.5,-96.67"/>
</g>
</g>
</svg>
