<?xml version="1.0" encoding="UTF-8" standalone="no"?>
<!DOCTYPE svg PUBLIC "-//W3C//DTD SVG 1.1//EN"
 "http://www.w3.org/Graphics/SVG/1.1/DTD/svg11.dtd">
<!-- Generated by graphviz version 2.43.0 (0)
 -->
<!-- Title: MathUtils.h Pages: 1 -->
<svg width="3048pt" height="308pt"
 viewBox="0.00 0.00 3047.50 308.00" xmlns="http://www.w3.org/2000/svg" xmlns:xlink="http://www.w3.org/1999/xlink">
<g id="graph0" class="graph" transform="scale(1 1) rotate(0) translate(4 304)">
<title>MathUtils.h</title>
<polygon fill="white" stroke="transparent" points="-4,4 -4,-304 3043.5,-304 3043.5,4 -4,4"/>
<!-- Node1 -->
<g id="node1" class="node">
<title>Node1</title>
<g id="a_node1"><a xlink:title=" ">
<polygon fill="#bfbfbf" stroke="black" points="2145.5,-280.5 2145.5,-299.5 2218.5,-299.5 2218.5,-280.5 2145.5,-280.5"/>
<text text-anchor="middle" x="2182" y="-287.5" font-family="Helvetica,sans-Serif" font-size="10.00">MathUtils.h</text>
</a>
</g>
</g>
<!-- Node2 -->
<g id="node2" class="node">
<title>Node2</title>
<g id="a_node2"><a xlink:href="CommDevice_8h.html" target="_top" xlink:title="Communication devices.">
<polygon fill="white" stroke="black" points="618,-168.5 618,-187.5 710,-187.5 710,-168.5 618,-168.5"/>
<text text-anchor="middle" x="664" y="-175.5" font-family="Helvetica,sans-Serif" font-size="10.00">CommDevice.h</text>
</a>
</g>
</g>
<!-- Node1&#45;&gt;Node2 -->
<g id="edge1" class="edge">
<title>Node1&#45;&gt;Node2</title>
<path fill="none" stroke="midnightblue" d="M2135.31,-287.4C2004.66,-282.74 1624.3,-268 1309,-244 1084,-226.87 815.79,-196.7 710.08,-184.43"/>
<polygon fill="midnightblue" stroke="midnightblue" points="2135.25,-290.9 2145.37,-287.75 2135.5,-283.9 2135.25,-290.9"/>
</g>
<!-- Node7 -->
<g id="node7" class="node">
<title>Node7</title>
<g id="a_node7"><a xlink:href="ExampleConstellations_8cpp.html" target="_top" xlink:title="Setup GNSS Constellation.">
<polygon fill="white" stroke="black" points="765.5,-0.5 765.5,-19.5 914.5,-19.5 914.5,-0.5 765.5,-0.5"/>
<text text-anchor="middle" x="840" y="-7.5" font-family="Helvetica,sans-Serif" font-size="10.00">ExampleConstellations.cpp</text>
</a>
</g>
</g>
<!-- Node1&#45;&gt;Node7 -->
<g id="edge71" class="edge">
<title>Node1&#45;&gt;Node7</title>
<path fill="none" stroke="midnightblue" d="M2135.12,-289.12C1821.28,-289.64 38,-287.77 38,-179 38,-179 38,-179 38,-121 38,14.67 240.06,-47.37 692,-20 715.9,-18.55 741.96,-16.97 765.47,-15.54"/>
<polygon fill="midnightblue" stroke="midnightblue" points="2135.24,-292.62 2145.24,-289.1 2135.23,-285.62 2135.24,-292.62"/>
</g>
<!-- Node8 -->
<g id="node8" class="node">
<title>Node8</title>
<g id="a_node8"><a xlink:href="ExampleEKF_8cpp.html" target="_top" xlink:title="Example of Extended Kalman Filter for orbit determination.">
<polygon fill="white" stroke="black" points="1420.5,-0.5 1420.5,-19.5 1517.5,-19.5 1517.5,-0.5 1420.5,-0.5"/>
<text text-anchor="middle" x="1469" y="-7.5" font-family="Helvetica,sans-Serif" font-size="10.00">ExampleEKF.cpp</text>
</a>
</g>
</g>
<!-- Node1&#45;&gt;Node8 -->
<g id="edge72" class="edge">
<title>Node1&#45;&gt;Node8</title>
<path fill="none" stroke="midnightblue" d="M2135.15,-286.56C1990.81,-277.9 1558.39,-242.91 1488,-132 1429.86,-40.39 1789.63,-139.22 1720,-56 1716.75,-52.11 1589.54,-30.73 1517.5,-18.89"/>
<polygon fill="midnightblue" stroke="midnightblue" points="2135.25,-290.07 2145.43,-287.16 2135.66,-283.09 2135.25,-290.07"/>
</g>
<!-- Node9 -->
<g id="node9" class="node">
<title>Node9</title>
<g id="a_node9"><a xlink:href="ExampleEKFApp_8cpp.html" target="_top" xlink:title="Example of EKF application.">
<polygon fill="white" stroke="black" points="567,-0.5 567,-19.5 683,-19.5 683,-0.5 567,-0.5"/>
<text text-anchor="middle" x="625" y="-7.5" font-family="Helvetica,sans-Serif" font-size="10.00">ExampleEKFApp.cpp</text>
</a>
</g>
</g>
<!-- Node1&#45;&gt;Node9 -->
<g id="edge73" class="edge">
<title>Node1&#45;&gt;Node9</title>
<path fill="none" stroke="midnightblue" d="M2135.17,-288.84C1852.49,-287.78 379.47,-280.5 182,-244 97.54,-228.39 0,-264.89 0,-179 0,-179 0,-179 0,-121 0,-85.35 15.84,-73.33 47,-56 146.49,-0.67 444.75,-31.58 558,-20 560.92,-19.7 563.91,-19.38 566.92,-19.03"/>
<polygon fill="midnightblue" stroke="midnightblue" points="2135.46,-292.34 2145.47,-288.88 2135.49,-285.34 2135.46,-292.34"/>
</g>
<!-- Node10 -->
<g id="node10" class="node">
<title>Node10</title>
<g id="a_node10"><a xlink:href="ExamplePropagation_8cpp.html" target="_top" xlink:title="Example propagating both GPS constellation and Lunar Satellite.">
<polygon fill="white" stroke="black" points="1536,-0.5 1536,-19.5 1674,-19.5 1674,-0.5 1536,-0.5"/>
<text text-anchor="middle" x="1605" y="-7.5" font-family="Helvetica,sans-Serif" font-size="10.00">ExamplePropagation.cpp</text>
</a>
</g>
</g>
<!-- Node1&#45;&gt;Node10 -->
<g id="edge76" class="edge">
<title>Node1&#45;&gt;Node10</title>
<path fill="none" stroke="midnightblue" d="M2198.41,-273.07C2205.79,-265.02 2213.95,-254.7 2219,-244 2233.57,-213.14 2234.73,-201.8 2230,-168 2226.41,-142.37 2229.32,-132.87 2214,-112 2187.23,-75.53 2171.74,-70.84 2129,-56 2046.84,-27.48 1796.79,-16.49 1674.22,-12.73"/>
<polygon fill="midnightblue" stroke="midnightblue" points="2195.87,-270.67 2191.44,-280.3 2200.9,-275.53 2195.87,-270.67"/>
</g>
<!-- Node21 -->
<g id="node21" class="node">
<title>Node21</title>
<g id="a_node21"><a xlink:href="File_8h.html" target="_top" xlink:title="File access utils.">
<polygon fill="white" stroke="black" points="1295.5,-112.5 1295.5,-131.5 1338.5,-131.5 1338.5,-112.5 1295.5,-112.5"/>
<text text-anchor="middle" x="1317" y="-119.5" font-family="Helvetica,sans-Serif" font-size="10.00">File.h</text>
</a>
</g>
</g>
<!-- Node1&#45;&gt;Node21 -->
<g id="edge38" class="edge">
<title>Node1&#45;&gt;Node21</title>
<path fill="none" stroke="midnightblue" d="M2135.09,-287.94C1964.28,-283.88 1383.86,-268.35 1353,-244 1317.38,-215.9 1315.83,-154.13 1316.54,-131.51"/>
<polygon fill="midnightblue" stroke="midnightblue" points="2135.19,-291.44 2145.27,-288.18 2135.36,-284.44 2135.19,-291.44"/>
</g>
<!-- Node22 -->
<g id="node22" class="node">
<title>Node22</title>
<g id="a_node22"><a xlink:href="Antenna_8cpp.html" target="_top" xlink:title="Antenna class.">
<polygon fill="white" stroke="black" points="1633.5,-56.5 1633.5,-75.5 1710.5,-75.5 1710.5,-56.5 1633.5,-56.5"/>
<text text-anchor="middle" x="1672" y="-63.5" font-family="Helvetica,sans-Serif" font-size="10.00">Antenna.cpp</text>
</a>
</g>
</g>
<!-- Node1&#45;&gt;Node22 -->
<g id="edge63" class="edge">
<title>Node1&#45;&gt;Node22</title>
<path fill="none" stroke="midnightblue" d="M2135.12,-288.09C1968.95,-284.64 1416.66,-271.17 1391,-244 1350.71,-201.35 1352.94,-156.64 1391,-112 1394.92,-107.4 1557.14,-83.52 1633.28,-72.54"/>
<polygon fill="midnightblue" stroke="midnightblue" points="2135.42,-291.6 2145.49,-288.3 2135.57,-284.6 2135.42,-291.6"/>
</g>
<!-- Node23 -->
<g id="node23" class="node">
<title>Node23</title>
<g id="a_node23"><a xlink:href="ExamplePerformance_8cpp.html" target="_top" xlink:title="Example for performance testing of spherical harmonics computation.">
<polygon fill="white" stroke="black" points="1978,-56.5 1978,-75.5 2120,-75.5 2120,-56.5 1978,-56.5"/>
<text text-anchor="middle" x="2049" y="-63.5" font-family="Helvetica,sans-Serif" font-size="10.00">ExamplePerformance.cpp</text>
</a>
</g>
</g>
<!-- Node1&#45;&gt;Node23 -->
<g id="edge75" class="edge">
<title>Node1&#45;&gt;Node23</title>
<path fill="none" stroke="midnightblue" d="M2191.04,-270.99C2207.79,-234.75 2238.15,-153.02 2194,-112 2173.44,-92.89 2144.89,-81.89 2118.56,-75.57"/>
<polygon fill="midnightblue" stroke="midnightblue" points="2187.74,-269.77 2186.56,-280.3 2194.05,-272.81 2187.74,-269.77"/>
</g>
<!-- Node24 -->
<g id="node24" class="node">
<title>Node24</title>
<g id="a_node24"><a xlink:href="GravityField_8h.html" target="_top" xlink:title="Gravity field model and acceleration calculation.">
<polygon fill="white" stroke="black" points="1950.5,-224.5 1950.5,-243.5 2035.5,-243.5 2035.5,-224.5 1950.5,-224.5"/>
<text text-anchor="middle" x="1993" y="-231.5" font-family="Helvetica,sans-Serif" font-size="10.00">GravityField.h</text>
</a>
</g>
</g>
<!-- Node1&#45;&gt;Node24 -->
<g id="edge47" class="edge">
<title>Node1&#45;&gt;Node24</title>
<path fill="none" stroke="midnightblue" d="M2141.99,-277.57C2106.33,-267.38 2054.96,-252.7 2022.81,-243.52"/>
<polygon fill="midnightblue" stroke="midnightblue" points="2141.48,-281.06 2152.05,-280.44 2143.4,-274.33 2141.48,-281.06"/>
</g>
<!-- Node31 -->
<g id="node31" class="node">
<title>Node31</title>
<g id="a_node31"><a xlink:href="GNSSMeasurement_8cpp.html" target="_top" xlink:title="Class that constructs GPS measurement data from channel observables.">
<polygon fill="white" stroke="black" points="2289.5,-224.5 2289.5,-243.5 2420.5,-243.5 2420.5,-224.5 2289.5,-224.5"/>
<text text-anchor="middle" x="2355" y="-231.5" font-family="Helvetica,sans-Serif" font-size="10.00">GNSSMeasurement.cpp</text>
</a>
</g>
</g>
<!-- Node1&#45;&gt;Node31 -->
<g id="edge64" class="edge">
<title>Node1&#45;&gt;Node31</title>
<path fill="none" stroke="midnightblue" d="M2219.05,-277.44C2251.66,-267.26 2298.41,-252.66 2327.72,-243.52"/>
<polygon fill="midnightblue" stroke="midnightblue" points="2217.92,-274.12 2209.41,-280.44 2220,-280.8 2217.92,-274.12"/>
</g>
<!-- Node32 -->
<g id="node32" class="node">
<title>Node32</title>
<g id="a_node32"><a xlink:href="MathUtils_8cpp.html" target="_top" xlink:title="Math util functions.">
<polygon fill="white" stroke="black" points="2439,-224.5 2439,-243.5 2523,-243.5 2523,-224.5 2439,-224.5"/>
<text text-anchor="middle" x="2481" y="-231.5" font-family="Helvetica,sans-Serif" font-size="10.00">MathUtils.cpp</text>
</a>
</g>
</g>
<!-- Node1&#45;&gt;Node32 -->
<g id="edge65" class="edge">
<title>Node1&#45;&gt;Node32</title>
<path fill="none" stroke="midnightblue" d="M2228.59,-280.59C2286.14,-270.19 2383.24,-252.65 2438.74,-242.63"/>
<polygon fill="midnightblue" stroke="midnightblue" points="2227.88,-277.16 2218.66,-282.38 2229.13,-284.05 2227.88,-277.16"/>
</g>
<!-- Node33 -->
<g id="node33" class="node">
<title>Node33</title>
<g id="a_node33"><a xlink:href="CoordConverter_8cpp.html" target="_top" xlink:title="Coordinate conversion functions.">
<polygon fill="white" stroke="black" points="2541.5,-224.5 2541.5,-243.5 2654.5,-243.5 2654.5,-224.5 2541.5,-224.5"/>
<text text-anchor="middle" x="2598" y="-231.5" font-family="Helvetica,sans-Serif" font-size="10.00">CoordConverter.cpp</text>
</a>
</g>
</g>
<!-- Node1&#45;&gt;Node33 -->
<g id="edge66" class="edge">
<title>Node1&#45;&gt;Node33</title>
<path fill="none" stroke="midnightblue" d="M2228.79,-283.1C2295.93,-274.61 2423.47,-258.38 2532,-244 2535.1,-243.59 2538.27,-243.17 2541.48,-242.74"/>
<polygon fill="midnightblue" stroke="midnightblue" points="2228.03,-279.67 2218.54,-284.4 2228.9,-286.61 2228.03,-279.67"/>
</g>
<!-- Node34 -->
<g id="node34" class="node">
<title>Node34</title>
<g id="a_node34"><a xlink:href="LunarMeanOsc_8cpp.html" target="_top" xlink:title="Lunar Mean and Osculating Elements.">
<polygon fill="white" stroke="black" points="2097.5,-168.5 2097.5,-187.5 2206.5,-187.5 2206.5,-168.5 2097.5,-168.5"/>
<text text-anchor="middle" x="2152" y="-175.5" font-family="Helvetica,sans-Serif" font-size="10.00">LunarMeanOsc.cpp</text>
</a>
</g>
</g>
<!-- Node1&#45;&gt;Node34 -->
<g id="edge67" class="edge">
<title>Node1&#45;&gt;Node34</title>
<path fill="none" stroke="midnightblue" d="M2177,-270.67C2170.44,-246.62 2159.2,-205.39 2154.34,-187.59"/>
<polygon fill="midnightblue" stroke="midnightblue" points="2173.64,-271.64 2179.65,-280.37 2180.39,-269.8 2173.64,-271.64"/>
</g>
<!-- Node35 -->
<g id="node35" class="node">
<title>Node35</title>
<g id="a_node35"><a xlink:href="OrbitState_8cpp.html" target="_top" xlink:title="Orbit states.">
<polygon fill="white" stroke="black" points="2673,-224.5 2673,-243.5 2759,-243.5 2759,-224.5 2673,-224.5"/>
<text text-anchor="middle" x="2716" y="-231.5" font-family="Helvetica,sans-Serif" font-size="10.00">OrbitState.cpp</text>
</a>
</g>
</g>
<!-- Node1&#45;&gt;Node35 -->
<g id="edge69" class="edge">
<title>Node1&#45;&gt;Node35</title>
<path fill="none" stroke="midnightblue" d="M2228.68,-285.86C2314.91,-279.8 2504.89,-265.16 2664,-244 2666.91,-243.61 2669.9,-243.18 2672.91,-242.73"/>
<polygon fill="midnightblue" stroke="midnightblue" points="2228.42,-282.37 2218.69,-286.56 2228.91,-289.35 2228.42,-282.37"/>
</g>
<!-- Node36 -->
<g id="node36" class="node">
<title>Node36</title>
<g id="a_node36"><a xlink:href="OrbitStateUtils_8cpp.html" target="_top" xlink:title="Util functions for state conversions.">
<polygon fill="white" stroke="black" points="2777.5,-224.5 2777.5,-243.5 2886.5,-243.5 2886.5,-224.5 2777.5,-224.5"/>
<text text-anchor="middle" x="2832" y="-231.5" font-family="Helvetica,sans-Serif" font-size="10.00">OrbitStateUtils.cpp</text>
</a>
</g>
</g>
<!-- Node1&#45;&gt;Node36 -->
<g id="edge70" class="edge">
<title>Node1&#45;&gt;Node36</title>
<path fill="none" stroke="midnightblue" d="M2228.78,-286.41C2328.22,-280.69 2567.89,-265.73 2768,-244 2771.01,-243.67 2774.1,-243.31 2777.22,-242.94"/>
<polygon fill="midnightblue" stroke="midnightblue" points="2228.54,-282.92 2218.76,-286.99 2228.94,-289.91 2228.54,-282.92"/>
</g>
<!-- Node37 -->
<g id="node37" class="node">
<title>Node37</title>
<g id="a_node37"><a xlink:href="ExampleOccultation_8cpp.html" target="_top" xlink:title="Example of occultation computation.">
<polygon fill="white" stroke="black" points="2904.5,-224.5 2904.5,-243.5 3039.5,-243.5 3039.5,-224.5 2904.5,-224.5"/>
<text text-anchor="middle" x="2972" y="-231.5" font-family="Helvetica,sans-Serif" font-size="10.00">ExampleOccultation.cpp</text>
</a>
</g>
</g>
<!-- Node1&#45;&gt;Node37 -->
<g id="edge74" class="edge">
<title>Node1&#45;&gt;Node37</title>
<path fill="none" stroke="midnightblue" d="M2228.99,-286.93C2343.32,-281.71 2645,-266.75 2896,-244 2898.78,-243.75 2901.61,-243.48 2904.48,-243.19"/>
<polygon fill="midnightblue" stroke="midnightblue" points="2228.67,-283.44 2218.84,-287.39 2228.99,-290.44 2228.67,-283.44"/>
</g>
<!-- Node3 -->
<g id="node3" class="node">
<title>Node3</title>
<g id="a_node3"><a xlink:href="Agent_8h.html" target="_top" xlink:title="List of agents.">
<polygon fill="white" stroke="black" points="870,-112.5 870,-131.5 924,-131.5 924,-112.5 870,-112.5"/>
<text text-anchor="middle" x="897" y="-119.5" font-family="Helvetica,sans-Serif" font-size="10.00">Agent.h</text>
</a>
</g>
</g>
<!-- Node2&#45;&gt;Node3 -->
<g id="edge2" class="edge">
<title>Node2&#45;&gt;Node3</title>
<path fill="none" stroke="midnightblue" d="M710.69,-166.18C758.34,-155.14 830.68,-138.37 869.72,-129.32"/>
<polygon fill="midnightblue" stroke="midnightblue" points="709.87,-162.78 700.92,-168.44 711.45,-169.6 709.87,-162.78"/>
</g>
<!-- Node11 -->
<g id="node11" class="node">
<title>Node11</title>
<g id="a_node11"><a xlink:href="GNSSStateEstimationApp_8h.html" target="_top" xlink:title="State Estimation Application Using GNSS Measurement.">
<polygon fill="white" stroke="black" points="228.5,-56.5 228.5,-75.5 377.5,-75.5 377.5,-56.5 228.5,-56.5"/>
<text text-anchor="middle" x="303" y="-63.5" font-family="Helvetica,sans-Serif" font-size="10.00">GNSSStateEstimationApp.h</text>
</a>
</g>
</g>
<!-- Node2&#45;&gt;Node11 -->
<g id="edge22" class="edge">
<title>Node2&#45;&gt;Node11</title>
<path fill="none" stroke="midnightblue" d="M607.57,-172.78C555.46,-167.53 476.6,-156.11 412,-132 373.61,-117.67 333.46,-89.85 314.38,-75.71"/>
<polygon fill="midnightblue" stroke="midnightblue" points="607.33,-176.27 617.62,-173.75 608,-169.3 607.33,-176.27"/>
</g>
<!-- Node13 -->
<g id="node13" class="node">
<title>Node13</title>
<g id="a_node13"><a xlink:href="StateEstimationApp_8h.html" target="_top" xlink:title="Base class for State Estimation Application.">
<polygon fill="white" stroke="black" points="433,-56.5 433,-75.5 555,-75.5 555,-56.5 433,-56.5"/>
<text text-anchor="middle" x="494" y="-63.5" font-family="Helvetica,sans-Serif" font-size="10.00">StateEstimationApp.h</text>
</a>
</g>
</g>
<!-- Node2&#45;&gt;Node13 -->
<g id="edge23" class="edge">
<title>Node2&#45;&gt;Node13</title>
<path fill="none" stroke="midnightblue" d="M632.18,-164.5C613.16,-156.42 588.91,-145 569,-132 542.74,-114.86 515.91,-89.24 502.59,-75.86"/>
<polygon fill="midnightblue" stroke="midnightblue" points="631.02,-167.81 641.59,-168.42 633.7,-161.35 631.02,-167.81"/>
</g>
<!-- Node17 -->
<g id="node17" class="node">
<title>Node17</title>
<g id="a_node17"><a xlink:href="SpaceChannel_8cpp.html" target="_top" xlink:title="Base spacechannel class (Under devlopment )">
<polygon fill="white" stroke="black" points="611,-56.5 611,-75.5 717,-75.5 717,-56.5 611,-56.5"/>
<text text-anchor="middle" x="664" y="-63.5" font-family="Helvetica,sans-Serif" font-size="10.00">SpaceChannel.cpp</text>
</a>
</g>
</g>
<!-- Node2&#45;&gt;Node17 -->
<g id="edge37" class="edge">
<title>Node2&#45;&gt;Node17</title>
<path fill="none" stroke="midnightblue" d="M664,-158.35C664,-134.25 664,-93.31 664,-75.59"/>
<polygon fill="midnightblue" stroke="midnightblue" points="660.5,-158.37 664,-168.37 667.5,-158.37 660.5,-158.37"/>
</g>
<!-- Node18 -->
<g id="node18" class="node">
<title>Node18</title>
<g id="a_node18"><a xlink:href="GNSSReceiver_8h.html" target="_top" xlink:title="GNSS receiver class.">
<polygon fill="white" stroke="black" points="421.5,-112.5 421.5,-131.5 516.5,-131.5 516.5,-112.5 421.5,-112.5"/>
<text text-anchor="middle" x="469" y="-119.5" font-family="Helvetica,sans-Serif" font-size="10.00">GNSSReceiver.h</text>
</a>
</g>
</g>
<!-- Node2&#45;&gt;Node18 -->
<g id="edge24" class="edge">
<title>Node2&#45;&gt;Node18</title>
<path fill="none" stroke="midnightblue" d="M623.19,-165.7C586.39,-155.51 533.07,-140.74 499.75,-131.52"/>
<polygon fill="midnightblue" stroke="midnightblue" points="622.53,-169.15 633.1,-168.44 624.4,-162.4 622.53,-169.15"/>
</g>
<!-- Node20 -->
<g id="node20" class="node">
<title>Node20</title>
<g id="a_node20"><a xlink:href="GNSSTransmitter_8h.html" target="_top" xlink:title="Handles GNSS transmit.">
<polygon fill="white" stroke="black" points="1072.5,-112.5 1072.5,-131.5 1179.5,-131.5 1179.5,-112.5 1072.5,-112.5"/>
<text text-anchor="middle" x="1126" y="-119.5" font-family="Helvetica,sans-Serif" font-size="10.00">GNSSTransmitter.h</text>
</a>
</g>
</g>
<!-- Node2&#45;&gt;Node20 -->
<g id="edge33" class="edge">
<title>Node2&#45;&gt;Node20</title>
<path fill="none" stroke="midnightblue" d="M720.4,-170.41C810.11,-159.92 984.13,-139.58 1072.19,-129.29"/>
<polygon fill="midnightblue" stroke="midnightblue" points="719.94,-166.94 710.41,-171.58 720.75,-173.89 719.94,-166.94"/>
</g>
<!-- Node4 -->
<g id="node4" class="node">
<title>Node4</title>
<g id="a_node4"><a xlink:href="Agent_8cpp.html" target="_top" xlink:title="Base class fo.">
<polygon fill="white" stroke="black" points="925.5,-56.5 925.5,-75.5 990.5,-75.5 990.5,-56.5 925.5,-56.5"/>
<text text-anchor="middle" x="958" y="-63.5" font-family="Helvetica,sans-Serif" font-size="10.00">Agent.cpp</text>
</a>
</g>
</g>
<!-- Node3&#45;&gt;Node4 -->
<g id="edge3" class="edge">
<title>Node3&#45;&gt;Node4</title>
<path fill="none" stroke="midnightblue" d="M914.47,-105.54C925.34,-95.91 938.94,-83.87 948.02,-75.83"/>
<polygon fill="midnightblue" stroke="midnightblue" points="911.97,-103.07 906.8,-112.32 916.61,-108.32 911.97,-103.07"/>
</g>
<!-- Node5 -->
<g id="node5" class="node">
<title>Node5</title>
<g id="a_node5"><a xlink:href="GNSSConstellation_8h.html" target="_top" xlink:title=" ">
<polygon fill="white" stroke="black" points="1345.5,-56.5 1345.5,-75.5 1462.5,-75.5 1462.5,-56.5 1345.5,-56.5"/>
<text text-anchor="middle" x="1404" y="-63.5" font-family="Helvetica,sans-Serif" font-size="10.00">GNSSConstellation.h</text>
</a>
</g>
</g>
<!-- Node3&#45;&gt;Node5 -->
<g id="edge4" class="edge">
<title>Node3&#45;&gt;Node5</title>
<path fill="none" stroke="midnightblue" d="M934.23,-117.03C1021.48,-107.74 1239.69,-84.5 1345.14,-73.27"/>
<polygon fill="midnightblue" stroke="midnightblue" points="933.83,-113.56 924.26,-118.1 934.57,-120.52 933.83,-113.56"/>
</g>
<!-- Node3&#45;&gt;Node7 -->
<g id="edge18" class="edge">
<title>Node3&#45;&gt;Node7</title>
<path fill="none" stroke="midnightblue" d="M887.84,-103.32C875.43,-79.37 853.76,-37.55 844.45,-19.59"/>
<polygon fill="midnightblue" stroke="midnightblue" points="884.82,-105.1 892.53,-112.37 891.03,-101.88 884.82,-105.1"/>
</g>
<!-- Node3&#45;&gt;Node8 -->
<g id="edge19" class="edge">
<title>Node3&#45;&gt;Node8</title>
<path fill="none" stroke="midnightblue" d="M897.37,-101.93C898.77,-86.97 903.31,-66.9 917,-56 960.05,-21.72 1356.32,-26.22 1411,-20 1414.04,-19.65 1417.16,-19.27 1420.3,-18.85"/>
<polygon fill="midnightblue" stroke="midnightblue" points="893.86,-101.97 896.82,-112.15 900.85,-102.35 893.86,-101.97"/>
</g>
<!-- Node3&#45;&gt;Node9 -->
<g id="edge20" class="edge">
<title>Node3&#45;&gt;Node9</title>
<path fill="none" stroke="midnightblue" d="M866.3,-108.59C810.58,-86.05 694.12,-38.95 646.24,-19.59"/>
<polygon fill="midnightblue" stroke="midnightblue" points="865.07,-111.86 875.66,-112.37 867.7,-105.37 865.07,-111.86"/>
</g>
<!-- Node3&#45;&gt;Node10 -->
<g id="edge21" class="edge">
<title>Node3&#45;&gt;Node10</title>
<path fill="none" stroke="midnightblue" d="M934.17,-118.76C1062.1,-110.99 1477.87,-85.15 1505,-76 1541.89,-63.57 1578.53,-34.34 1595.39,-19.69"/>
<polygon fill="midnightblue" stroke="midnightblue" points="933.85,-115.27 924.08,-119.37 934.27,-122.26 933.85,-115.27"/>
</g>
<!-- Node3&#45;&gt;Node11 -->
<g id="edge10" class="edge">
<title>Node3&#45;&gt;Node11</title>
<path fill="none" stroke="midnightblue" d="M859.83,-117.62C763.77,-108.89 505.87,-85.44 377.58,-73.78"/>
<polygon fill="midnightblue" stroke="midnightblue" points="859.66,-121.12 869.93,-118.54 860.29,-114.15 859.66,-121.12"/>
</g>
<!-- Node3&#45;&gt;Node13 -->
<g id="edge13" class="edge">
<title>Node3&#45;&gt;Node13</title>
<path fill="none" stroke="midnightblue" d="M859.88,-116.03C790.33,-106.71 639.78,-86.53 555.07,-75.18"/>
<polygon fill="midnightblue" stroke="midnightblue" points="859.56,-119.51 869.93,-117.37 860.49,-112.58 859.56,-119.51"/>
</g>
<!-- Node15 -->
<g id="node15" class="node">
<title>Node15</title>
<g id="a_node15"><a xlink:href="GNSSChannel_8cpp.html" target="_top" xlink:title="GNSS Channel.">
<polygon fill="white" stroke="black" points="1009,-56.5 1009,-75.5 1113,-75.5 1113,-56.5 1009,-56.5"/>
<text text-anchor="middle" x="1061" y="-63.5" font-family="Helvetica,sans-Serif" font-size="10.00">GNSSChannel.cpp</text>
</a>
</g>
</g>
<!-- Node3&#45;&gt;Node15 -->
<g id="edge15" class="edge">
<title>Node3&#45;&gt;Node15</title>
<path fill="none" stroke="midnightblue" d="M932.52,-109.3C963.42,-99.13 1007.47,-84.62 1035.14,-75.52"/>
<polygon fill="midnightblue" stroke="midnightblue" points="931.39,-105.99 922.99,-112.44 933.58,-112.64 931.39,-105.99"/>
</g>
<!-- Node16 -->
<g id="node16" class="node">
<title>Node16</title>
<g id="a_node16"><a xlink:href="GNSSTransmitter_8cpp.html" target="_top" xlink:title="Handles GNSS transmit.">
<polygon fill="white" stroke="black" points="1131.5,-56.5 1131.5,-75.5 1250.5,-75.5 1250.5,-56.5 1131.5,-56.5"/>
<text text-anchor="middle" x="1191" y="-63.5" font-family="Helvetica,sans-Serif" font-size="10.00">GNSSTransmitter.cpp</text>
</a>
</g>
</g>
<!-- Node3&#45;&gt;Node16 -->
<g id="edge16" class="edge">
<title>Node3&#45;&gt;Node16</title>
<path fill="none" stroke="midnightblue" d="M934.21,-114.17C987.71,-104.34 1086.34,-86.22 1144.56,-75.53"/>
<polygon fill="midnightblue" stroke="midnightblue" points="933.34,-110.77 924.13,-116.02 934.6,-117.65 933.34,-110.77"/>
</g>
<!-- Node3&#45;&gt;Node17 -->
<g id="edge17" class="edge">
<title>Node3&#45;&gt;Node17</title>
<path fill="none" stroke="midnightblue" d="M859.91,-112.4C816.34,-102.31 744.48,-85.65 700.96,-75.57"/>
<polygon fill="midnightblue" stroke="midnightblue" points="859.28,-115.85 869.82,-114.7 860.86,-109.03 859.28,-115.85"/>
</g>
<!-- Node6 -->
<g id="node6" class="node">
<title>Node6</title>
<g id="a_node6"><a xlink:href="GNSSConstellation_8cpp.html" target="_top" xlink:title="GNSS Constellation.">
<polygon fill="white" stroke="black" points="1274,-0.5 1274,-19.5 1402,-19.5 1402,-0.5 1274,-0.5"/>
<text text-anchor="middle" x="1338" y="-7.5" font-family="Helvetica,sans-Serif" font-size="10.00">GNSSConstellation.cpp</text>
</a>
</g>
</g>
<!-- Node5&#45;&gt;Node6 -->
<g id="edge5" class="edge">
<title>Node5&#45;&gt;Node6</title>
<path fill="none" stroke="midnightblue" d="M1385.45,-49.82C1373.62,-40.15 1358.71,-27.95 1348.8,-19.83"/>
<polygon fill="midnightblue" stroke="midnightblue" points="1383.44,-52.7 1393.4,-56.32 1387.87,-47.28 1383.44,-52.7"/>
</g>
<!-- Node5&#45;&gt;Node7 -->
<g id="edge6" class="edge">
<title>Node5&#45;&gt;Node7</title>
<path fill="none" stroke="midnightblue" d="M1335.45,-56.48C1333.95,-56.32 1332.47,-56.16 1331,-56 1183.55,-40.16 1010.79,-25.15 914.52,-17.1"/>
<polygon fill="midnightblue" stroke="midnightblue" points="1335.12,-59.97 1345.45,-57.62 1335.91,-53.01 1335.12,-59.97"/>
</g>
<!-- Node5&#45;&gt;Node8 -->
<g id="edge7" class="edge">
<title>Node5&#45;&gt;Node8</title>
<path fill="none" stroke="midnightblue" d="M1422.27,-49.82C1433.92,-40.15 1448.6,-27.95 1458.37,-19.83"/>
<polygon fill="midnightblue" stroke="midnightblue" points="1419.9,-47.24 1414.44,-56.32 1424.37,-52.63 1419.9,-47.24"/>
</g>
<!-- Node5&#45;&gt;Node9 -->
<g id="edge8" class="edge">
<title>Node5&#45;&gt;Node9</title>
<path fill="none" stroke="midnightblue" d="M1335.21,-59.27C1321.25,-58.15 1306.65,-57.01 1293,-56 1054.89,-38.35 995.21,-36.12 757,-20 732.82,-18.36 706.15,-16.55 683.15,-14.98"/>
<polygon fill="midnightblue" stroke="midnightblue" points="1335,-62.77 1345.25,-60.08 1335.57,-55.79 1335,-62.77"/>
</g>
<!-- Node5&#45;&gt;Node10 -->
<g id="edge9" class="edge">
<title>Node5&#45;&gt;Node10</title>
<path fill="none" stroke="midnightblue" d="M1445.58,-53.83C1483.53,-43.63 1538.81,-28.78 1573.3,-19.52"/>
<polygon fill="midnightblue" stroke="midnightblue" points="1444.6,-50.47 1435.85,-56.44 1446.41,-57.23 1444.6,-50.47"/>
</g>
<!-- Node11&#45;&gt;Node9 -->
<g id="edge12" class="edge">
<title>Node11&#45;&gt;Node9</title>
<path fill="none" stroke="midnightblue" d="M364.25,-54.73C425.1,-44.52 517.32,-29.06 574.22,-19.52"/>
<polygon fill="midnightblue" stroke="midnightblue" points="363.31,-51.34 354.02,-56.44 364.46,-58.24 363.31,-51.34"/>
</g>
<!-- Node12 -->
<g id="node12" class="node">
<title>Node12</title>
<g id="a_node12"><a xlink:href="GNSSStateEstimationApp_8cpp.html" target="_top" xlink:title="State Estimation Application Using GNSS Measurement.">
<polygon fill="white" stroke="black" points="222.5,-0.5 222.5,-19.5 383.5,-19.5 383.5,-0.5 222.5,-0.5"/>
<text text-anchor="middle" x="303" y="-7.5" font-family="Helvetica,sans-Serif" font-size="10.00">GNSSStateEstimationApp.cpp</text>
</a>
</g>
</g>
<!-- Node11&#45;&gt;Node12 -->
<g id="edge11" class="edge">
<title>Node11&#45;&gt;Node12</title>
<path fill="none" stroke="midnightblue" d="M303,-45.8C303,-36.91 303,-26.78 303,-19.75"/>
<polygon fill="midnightblue" stroke="midnightblue" points="299.5,-46.08 303,-56.08 306.5,-46.08 299.5,-46.08"/>
</g>
<!-- Node14 -->
<g id="node14" class="node">
<title>Node14</title>
<g id="a_node14"><a xlink:href="StateEstimationApp_8cpp.html" target="_top" xlink:title="Base class for State Estimation Application.">
<polygon fill="white" stroke="black" points="415,-0.5 415,-19.5 549,-19.5 549,-0.5 415,-0.5"/>
<text text-anchor="middle" x="482" y="-7.5" font-family="Helvetica,sans-Serif" font-size="10.00">StateEstimationApp.cpp</text>
</a>
</g>
</g>
<!-- Node13&#45;&gt;Node14 -->
<g id="edge14" class="edge">
<title>Node13&#45;&gt;Node14</title>
<path fill="none" stroke="midnightblue" d="M489.8,-46.1C487.81,-37.14 485.52,-26.86 483.94,-19.75"/>
<polygon fill="midnightblue" stroke="midnightblue" points="486.43,-47.08 492.02,-56.08 493.27,-45.56 486.43,-47.08"/>
</g>
<!-- Node18&#45;&gt;Node7 -->
<g id="edge29" class="edge">
<title>Node18&#45;&gt;Node7</title>
<path fill="none" stroke="midnightblue" d="M447.06,-106.17C429.42,-92.46 409.74,-71.89 424,-56 435.25,-43.47 648.62,-25.47 765.29,-16.51"/>
<polygon fill="midnightblue" stroke="midnightblue" points="445.27,-109.19 455.4,-112.29 449.41,-103.55 445.27,-109.19"/>
</g>
<!-- Node18&#45;&gt;Node8 -->
<g id="edge30" class="edge">
<title>Node18&#45;&gt;Node8</title>
<path fill="none" stroke="midnightblue" d="M526.46,-110.82C608.75,-96.58 765.01,-70.81 899,-56 1125.74,-30.93 1184.31,-45.51 1411,-20 1414.04,-19.66 1417.16,-19.27 1420.31,-18.86"/>
<polygon fill="midnightblue" stroke="midnightblue" points="525.81,-107.38 516.56,-112.54 527.01,-114.28 525.81,-107.38"/>
</g>
<!-- Node18&#45;&gt;Node9 -->
<g id="edge31" class="edge">
<title>Node18&#45;&gt;Node9</title>
<path fill="none" stroke="midnightblue" d="M411.2,-119.82C295.68,-116.43 50.96,-103.6 95,-56 130.04,-18.13 506.69,-25.44 558,-20 560.92,-19.69 563.9,-19.36 566.92,-19"/>
<polygon fill="midnightblue" stroke="midnightblue" points="411.2,-123.32 421.3,-120.1 411.4,-116.32 411.2,-123.32"/>
</g>
<!-- Node18&#45;&gt;Node10 -->
<g id="edge32" class="edge">
<title>Node18&#45;&gt;Node10</title>
<path fill="none" stroke="midnightblue" d="M526.59,-119.21C733.09,-112.67 1426.61,-89.78 1472,-76 1488.41,-71.02 1489.82,-63.98 1505,-56 1531.63,-42.01 1563.48,-28.15 1583.96,-19.58"/>
<polygon fill="midnightblue" stroke="midnightblue" points="526.43,-115.71 516.55,-119.52 526.65,-122.7 526.43,-115.71"/>
</g>
<!-- Node18&#45;&gt;Node11 -->
<g id="edge25" class="edge">
<title>Node18&#45;&gt;Node11</title>
<path fill="none" stroke="midnightblue" d="M433.05,-109.3C401.77,-99.13 357.18,-84.62 329.18,-75.52"/>
<polygon fill="midnightblue" stroke="midnightblue" points="432.1,-112.68 442.7,-112.44 434.27,-106.02 432.1,-112.68"/>
</g>
<!-- Node18&#45;&gt;Node13 -->
<g id="edge26" class="edge">
<title>Node18&#45;&gt;Node13</title>
<path fill="none" stroke="midnightblue" d="M477.34,-102.98C481.58,-93.82 486.55,-83.09 489.95,-75.75"/>
<polygon fill="midnightblue" stroke="midnightblue" points="474.15,-101.54 473.13,-112.08 480.51,-104.48 474.15,-101.54"/>
</g>
<!-- Node18&#45;&gt;Node15 -->
<g id="edge27" class="edge">
<title>Node18&#45;&gt;Node15</title>
<path fill="none" stroke="midnightblue" d="M526.95,-117.27C624.69,-110.71 828.42,-95.91 1000,-76 1002.87,-75.67 1005.82,-75.3 1008.78,-74.92"/>
<polygon fill="midnightblue" stroke="midnightblue" points="526.44,-113.8 516.7,-117.95 526.91,-120.78 526.44,-113.8"/>
</g>
<!-- Node19 -->
<g id="node19" class="node">
<title>Node19</title>
<g id="a_node19"><a xlink:href="GNSSReceiver_8cpp.html" target="_top" xlink:title="GNSS Receiver class.">
<polygon fill="white" stroke="black" points="104,-56.5 104,-75.5 210,-75.5 210,-56.5 104,-56.5"/>
<text text-anchor="middle" x="157" y="-63.5" font-family="Helvetica,sans-Serif" font-size="10.00">GNSSReceiver.cpp</text>
</a>
</g>
</g>
<!-- Node18&#45;&gt;Node19 -->
<g id="edge28" class="edge">
<title>Node18&#45;&gt;Node19</title>
<path fill="none" stroke="midnightblue" d="M411.38,-111.03C352.47,-100.83 261.94,-85.16 206.27,-75.53"/>
<polygon fill="midnightblue" stroke="midnightblue" points="410.82,-114.48 421.27,-112.74 412.02,-107.59 410.82,-114.48"/>
</g>
<!-- Node20&#45;&gt;Node5 -->
<g id="edge34" class="edge">
<title>Node20&#45;&gt;Node5</title>
<path fill="none" stroke="midnightblue" d="M1180.19,-110.47C1232.73,-100.27 1311.44,-84.98 1360.16,-75.52"/>
<polygon fill="midnightblue" stroke="midnightblue" points="1179.2,-107.1 1170.05,-112.44 1180.53,-113.97 1179.2,-107.1"/>
</g>
<!-- Node20&#45;&gt;Node15 -->
<g id="edge35" class="edge">
<title>Node20&#45;&gt;Node15</title>
<path fill="none" stroke="midnightblue" d="M1107.73,-105.82C1096.08,-96.15 1081.4,-83.95 1071.63,-75.83"/>
<polygon fill="midnightblue" stroke="midnightblue" points="1105.63,-108.63 1115.56,-112.32 1110.1,-103.24 1105.63,-108.63"/>
</g>
<!-- Node20&#45;&gt;Node16 -->
<g id="edge36" class="edge">
<title>Node20&#45;&gt;Node16</title>
<path fill="none" stroke="midnightblue" d="M1144.27,-105.82C1155.92,-96.15 1170.6,-83.95 1180.37,-75.83"/>
<polygon fill="midnightblue" stroke="midnightblue" points="1141.9,-103.24 1136.44,-112.32 1146.37,-108.63 1141.9,-103.24"/>
</g>
<!-- Node21&#45;&gt;Node7 -->
<g id="edge42" class="edge">
<title>Node21&#45;&gt;Node7</title>
<path fill="none" stroke="midnightblue" d="M1315.32,-101.94C1312.92,-86.97 1307.11,-66.9 1293,-56 1263.77,-33.4 1035.53,-19.81 914.62,-14.12"/>
<polygon fill="midnightblue" stroke="midnightblue" points="1311.88,-102.65 1316.57,-112.15 1318.83,-101.8 1311.88,-102.65"/>
</g>
<!-- Node21&#45;&gt;Node8 -->
<g id="edge43" class="edge">
<title>Node21&#45;&gt;Node8</title>
<path fill="none" stroke="midnightblue" d="M1348.2,-112.96C1392.36,-101.44 1468.19,-81.07 1472,-76 1484.48,-59.38 1477.47,-33.07 1472.54,-19.59"/>
<polygon fill="midnightblue" stroke="midnightblue" points="1347.31,-109.58 1338.51,-115.48 1349.07,-116.36 1347.31,-109.58"/>
</g>
<!-- Node21&#45;&gt;Node9 -->
<g id="edge44" class="edge">
<title>Node21&#45;&gt;Node9</title>
<path fill="none" stroke="midnightblue" d="M1307.24,-103.67C1297.48,-88.18 1280.93,-66.39 1260,-56 1256.78,-54.4 839.59,-25.69 683.26,-14.98"/>
<polygon fill="midnightblue" stroke="midnightblue" points="1304.29,-105.54 1312.42,-112.33 1310.3,-101.95 1304.29,-105.54"/>
</g>
<!-- Node21&#45;&gt;Node10 -->
<g id="edge46" class="edge">
<title>Node21&#45;&gt;Node10</title>
<path fill="none" stroke="midnightblue" d="M1348.55,-112.94C1350.05,-112.61 1351.54,-112.3 1353,-112 1453.53,-91.54 1501.67,-141.05 1581,-76 1598.3,-61.81 1603.13,-33.93 1604.48,-19.74"/>
<polygon fill="midnightblue" stroke="midnightblue" points="1347.57,-109.58 1338.63,-115.26 1349.17,-116.39 1347.57,-109.58"/>
</g>
<!-- Node21&#45;&gt;Node11 -->
<g id="edge39" class="edge">
<title>Node21&#45;&gt;Node11</title>
<path fill="none" stroke="midnightblue" d="M1285.27,-118.56C1259.38,-116.63 1221.84,-113.93 1189,-112 849.21,-92.06 763.75,-96.63 424,-76 408.97,-75.09 392.89,-73.98 377.53,-72.86"/>
<polygon fill="midnightblue" stroke="midnightblue" points="1285.03,-122.06 1295.27,-119.32 1285.56,-115.08 1285.03,-122.06"/>
</g>
<!-- Node21&#45;&gt;Node13 -->
<g id="edge40" class="edge">
<title>Node21&#45;&gt;Node13</title>
<path fill="none" stroke="midnightblue" d="M1285.26,-118.69C1259.36,-116.82 1221.82,-114.16 1189,-112 928.19,-94.83 862.7,-94.85 602,-76 586.8,-74.9 570.41,-73.6 555.1,-72.33"/>
<polygon fill="midnightblue" stroke="midnightblue" points="1285.04,-122.18 1295.26,-119.41 1285.54,-115.2 1285.04,-122.18"/>
</g>
<!-- Node21&#45;&gt;Node22 -->
<g id="edge41" class="edge">
<title>Node21&#45;&gt;Node22</title>
<path fill="none" stroke="midnightblue" d="M1348.54,-112.9C1350.04,-112.58 1351.54,-112.28 1353,-112 1470.16,-89.5 1501.06,-93.99 1619,-76 1623.61,-75.3 1628.45,-74.52 1633.24,-73.74"/>
<polygon fill="midnightblue" stroke="midnightblue" points="1347.58,-109.53 1338.62,-115.18 1349.15,-116.36 1347.58,-109.53"/>
</g>
<!-- Node21&#45;&gt;Node23 -->
<g id="edge45" class="edge">
<title>Node21&#45;&gt;Node23</title>
<path fill="none" stroke="midnightblue" d="M1348.57,-118.67C1457.95,-110.6 1822.47,-83.71 1977.85,-72.25"/>
<polygon fill="midnightblue" stroke="midnightblue" points="1348.23,-115.19 1338.51,-119.41 1348.74,-122.17 1348.23,-115.19"/>
</g>
<!-- Node24&#45;&gt;Node23 -->
<g id="edge62" class="edge">
<title>Node24&#45;&gt;Node23</title>
<path fill="none" stroke="midnightblue" d="M2012.1,-218.29C2030.95,-204.21 2060.94,-182.96 2089,-168 2126.65,-147.93 2154.15,-167.38 2178,-132 2198.75,-101.23 2152.39,-84.31 2109.58,-75.51"/>
<polygon fill="midnightblue" stroke="midnightblue" points="2009.9,-215.56 2004.04,-224.39 2014.13,-221.15 2009.9,-215.56"/>
</g>
<!-- Node25 -->
<g id="node25" class="node">
<title>Node25</title>
<g id="a_node25"><a xlink:href="Dynamics_8h.html" target="_top" xlink:title="Interface for Dynamics.">
<polygon fill="white" stroke="black" points="1616,-168.5 1616,-187.5 1690,-187.5 1690,-168.5 1616,-168.5"/>
<text text-anchor="middle" x="1653" y="-175.5" font-family="Helvetica,sans-Serif" font-size="10.00">Dynamics.h</text>
</a>
</g>
</g>
<!-- Node24&#45;&gt;Node25 -->
<g id="edge48" class="edge">
<title>Node24&#45;&gt;Node25</title>
<path fill="none" stroke="midnightblue" d="M1940,-224.58C1870.56,-213.55 1750.54,-194.49 1690.08,-184.89"/>
<polygon fill="midnightblue" stroke="midnightblue" points="1939.86,-228.1 1950.28,-226.22 1940.96,-221.19 1939.86,-228.1"/>
</g>
<!-- Node28 -->
<g id="node28" class="node">
<title>Node28</title>
<g id="a_node28"><a xlink:href="NBodyDynamics_8cpp.html" target="_top" xlink:title="Multiple&#45;body dynamics.">
<polygon fill="white" stroke="black" points="1891,-112.5 1891,-131.5 2009,-131.5 2009,-112.5 1891,-112.5"/>
<text text-anchor="middle" x="1950" y="-119.5" font-family="Helvetica,sans-Serif" font-size="10.00">NBodyDynamics.cpp</text>
</a>
</g>
</g>
<!-- Node24&#45;&gt;Node28 -->
<g id="edge61" class="edge">
<title>Node24&#45;&gt;Node28</title>
<path fill="none" stroke="midnightblue" d="M1966.33,-219.22C1954.75,-211.7 1942.4,-201.2 1936,-188 1926.94,-169.3 1937.54,-144.76 1944.64,-131.84"/>
<polygon fill="midnightblue" stroke="midnightblue" points="1964.55,-222.23 1974.92,-224.39 1968.16,-216.23 1964.55,-222.23"/>
</g>
<!-- Node30 -->
<g id="node30" class="node">
<title>Node30</title>
<g id="a_node30"><a xlink:href="GravityField_8cpp.html" target="_top" xlink:title="Gravity Field Implementations.">
<polygon fill="white" stroke="black" points="1945,-168.5 1945,-187.5 2041,-187.5 2041,-168.5 1945,-168.5"/>
<text text-anchor="middle" x="1993" y="-175.5" font-family="Helvetica,sans-Serif" font-size="10.00">GravityField.cpp</text>
</a>
</g>
</g>
<!-- Node24&#45;&gt;Node30 -->
<g id="edge60" class="edge">
<title>Node24&#45;&gt;Node30</title>
<path fill="none" stroke="midnightblue" d="M1993,-213.8C1993,-204.91 1993,-194.78 1993,-187.75"/>
<polygon fill="midnightblue" stroke="midnightblue" points="1989.5,-214.08 1993,-224.08 1996.5,-214.08 1989.5,-214.08"/>
</g>
<!-- Node25&#45;&gt;Node3 -->
<g id="edge49" class="edge">
<title>Node25&#45;&gt;Node3</title>
<path fill="none" stroke="midnightblue" d="M1605.54,-173.61C1462.16,-163.37 1036.39,-132.96 924.3,-124.95"/>
<polygon fill="midnightblue" stroke="midnightblue" points="1605.54,-177.12 1615.77,-174.34 1606.04,-170.14 1605.54,-177.12"/>
</g>
<!-- Node25&#45;&gt;Node5 -->
<g id="edge50" class="edge">
<title>Node25&#45;&gt;Node5</title>
<path fill="none" stroke="midnightblue" d="M1605.7,-172.92C1566.41,-167.87 1510.16,-156.67 1467,-132 1441.62,-117.5 1419.86,-89.76 1409.86,-75.67"/>
<polygon fill="midnightblue" stroke="midnightblue" points="1605.46,-176.42 1615.81,-174.14 1606.3,-169.47 1605.46,-176.42"/>
</g>
<!-- Node25&#45;&gt;Node7 -->
<g id="edge54" class="edge">
<title>Node25&#45;&gt;Node7</title>
<path fill="none" stroke="midnightblue" d="M1605.37,-175.91C1438.49,-171.9 888.89,-156.85 861,-132 828.21,-102.78 834.59,-42.24 838.34,-19.7"/>
<polygon fill="midnightblue" stroke="midnightblue" points="1605.71,-179.42 1615.79,-176.16 1605.88,-172.43 1605.71,-179.42"/>
</g>
<!-- Node25&#45;&gt;Node8 -->
<g id="edge55" class="edge">
<title>Node25&#45;&gt;Node8</title>
<path fill="none" stroke="midnightblue" d="M1605.53,-172.9C1549.3,-166.27 1467.15,-149.86 1500,-112 1575.48,-25.02 1827.79,-143.58 1753,-56 1752.52,-55.44 1598.77,-31.31 1517.72,-18.62"/>
<polygon fill="midnightblue" stroke="midnightblue" points="1605.37,-176.41 1615.69,-174.03 1606.14,-169.45 1605.37,-176.41"/>
</g>
<!-- Node25&#45;&gt;Node9 -->
<g id="edge56" class="edge">
<title>Node25&#45;&gt;Node9</title>
<path fill="none" stroke="midnightblue" d="M1605.67,-177.2C1480.6,-177.11 1131.16,-172.9 844,-132 734.71,-116.43 670.7,-162.42 602,-76 588.44,-58.95 605.79,-33.29 616.95,-19.88"/>
<polygon fill="midnightblue" stroke="midnightblue" points="1605.68,-180.7 1615.68,-177.2 1605.68,-173.7 1605.68,-180.7"/>
</g>
<!-- Node25&#45;&gt;Node10 -->
<g id="edge59" class="edge">
<title>Node25&#45;&gt;Node10</title>
<path fill="none" stroke="midnightblue" d="M1700.11,-169.45C1740.17,-161.96 1793.19,-149.12 1806,-132 1811.33,-124.88 1807.16,-120.81 1806,-112 1802.64,-86.45 1809.44,-74 1791,-56 1773.76,-39.18 1716.38,-26.97 1669.86,-19.56"/>
<polygon fill="midnightblue" stroke="midnightblue" points="1699.45,-166.01 1690.23,-171.24 1700.7,-172.9 1699.45,-166.01"/>
</g>
<!-- Node25&#45;&gt;Node23 -->
<g id="edge58" class="edge">
<title>Node25&#45;&gt;Node23</title>
<path fill="none" stroke="midnightblue" d="M1700.6,-168.19C1738.63,-160.51 1792.99,-148.09 1839,-132 1858.9,-125.04 1862.2,-119.21 1882,-112 1924.89,-96.38 1975.72,-83.44 2009.94,-75.51"/>
<polygon fill="midnightblue" stroke="midnightblue" points="1699.45,-164.85 1690.33,-170.23 1700.82,-171.72 1699.45,-164.85"/>
</g>
<!-- Node26 -->
<g id="node26" class="node">
<title>Node26</title>
<g id="a_node26"><a xlink:href="DynamicsAnalytical_8cpp.html" target="_top" xlink:title="Analytical orbit dynamics implementation.">
<polygon fill="white" stroke="black" points="1509,-112.5 1509,-131.5 1643,-131.5 1643,-112.5 1509,-112.5"/>
<text text-anchor="middle" x="1576" y="-119.5" font-family="Helvetica,sans-Serif" font-size="10.00">DynamicsAnalytical.cpp</text>
</a>
</g>
</g>
<!-- Node25&#45;&gt;Node26 -->
<g id="edge51" class="edge">
<title>Node25&#45;&gt;Node26</title>
<path fill="none" stroke="midnightblue" d="M1632.1,-162.34C1618.09,-152.52 1600.12,-139.91 1588.34,-131.65"/>
<polygon fill="midnightblue" stroke="midnightblue" points="1630.43,-165.45 1640.63,-168.32 1634.45,-159.72 1630.43,-165.45"/>
</g>
<!-- Node27 -->
<g id="node27" class="node">
<title>Node27</title>
<g id="a_node27"><a xlink:href="DynamicsNumerical_8cpp.html" target="_top" xlink:title="List of Numerical Dynamics.">
<polygon fill="white" stroke="black" points="1661,-112.5 1661,-131.5 1797,-131.5 1797,-112.5 1661,-112.5"/>
<text text-anchor="middle" x="1729" y="-119.5" font-family="Helvetica,sans-Serif" font-size="10.00">DynamicsNumerical.cpp</text>
</a>
</g>
</g>
<!-- Node25&#45;&gt;Node27 -->
<g id="edge52" class="edge">
<title>Node25&#45;&gt;Node27</title>
<path fill="none" stroke="midnightblue" d="M1673.58,-162.38C1687.31,-152.62 1704.93,-140.11 1716.57,-131.83"/>
<polygon fill="midnightblue" stroke="midnightblue" points="1671.34,-159.68 1665.21,-168.32 1675.39,-165.38 1671.34,-159.68"/>
</g>
<!-- Node25&#45;&gt;Node28 -->
<g id="edge53" class="edge">
<title>Node25&#45;&gt;Node28</title>
<path fill="none" stroke="midnightblue" d="M1699.96,-168.46C1755.58,-158.35 1847.67,-141.61 1903.21,-131.51"/>
<polygon fill="midnightblue" stroke="midnightblue" points="1699.23,-165.04 1690.01,-170.27 1700.48,-171.92 1699.23,-165.04"/>
</g>
<!-- Node29 -->
<g id="node29" class="node">
<title>Node29</title>
<g id="a_node29"><a xlink:href="ExampleFrozenOrbits_8cpp.html" target="_top" xlink:title="Example of frozen orbits.">
<polygon fill="white" stroke="black" points="2027.5,-112.5 2027.5,-131.5 2168.5,-131.5 2168.5,-112.5 2027.5,-112.5"/>
<text text-anchor="middle" x="2098" y="-119.5" font-family="Helvetica,sans-Serif" font-size="10.00">ExampleFrozenOrbits.cpp</text>
</a>
</g>
</g>
<!-- Node25&#45;&gt;Node29 -->
<g id="edge57" class="edge">
<title>Node25&#45;&gt;Node29</title>
<path fill="none" stroke="midnightblue" d="M1700.25,-171.27C1778.72,-161.74 1936.29,-142.62 2027.8,-131.52"/>
<polygon fill="midnightblue" stroke="midnightblue" points="1699.68,-167.81 1690.18,-172.49 1700.52,-174.76 1699.68,-167.81"/>
</g>
<!-- Node34&#45;&gt;Node29 -->
<g id="edge68" class="edge">
<title>Node34&#45;&gt;Node29</title>
<path fill="none" stroke="midnightblue" d="M2136,-161C2126.43,-151.43 2114.64,-139.64 2106.75,-131.75"/>
<polygon fill="midnightblue" stroke="midnightblue" points="2133.54,-163.49 2143.08,-168.08 2138.49,-158.54 2133.54,-163.49"/>
</g>
</g>
</svg>
