<?xml version="1.0" encoding="UTF-8" standalone="no"?>
<!DOCTYPE svg PUBLIC "-//W3C//DTD SVG 1.1//EN"
 "http://www.w3.org/Graphics/SVG/1.1/DTD/svg11.dtd">
<!-- Generated by graphviz version 2.43.0 (0)
 -->
<!-- Title: MathUtils.h Pages: 1 -->
<svg width="352pt" height="95pt"
 viewBox="0.00 0.00 351.50 95.00" xmlns="http://www.w3.org/2000/svg" xmlns:xlink="http://www.w3.org/1999/xlink">
<g id="graph0" class="graph" transform="scale(1 1) rotate(0) translate(4 91)">
<title>MathUtils.h</title>
<polygon fill="white" stroke="transparent" points="-4,4 -4,-91 347.5,-91 347.5,4 -4,4"/>
<!-- Node1 -->
<g id="node1" class="node">
<title>Node1</title>
<g id="a_node1"><a xlink:title=" ">
<polygon fill="#bfbfbf" stroke="black" points="177,-67.5 177,-86.5 250,-86.5 250,-67.5 177,-67.5"/>
<text text-anchor="middle" x="213.5" y="-74.5" font-family="Helvetica,sans-Serif" font-size="10.00">MathUtils.h</text>
</a>
</g>
</g>
<!-- Node2 -->
<g id="node2" class="node">
<title>Node2</title>
<g id="a_node2"><a xlink:title=" ">
<polygon fill="white" stroke="#bfbfbf" points="0,-6 0,-25 137,-25 137,-6 0,-6"/>
<text text-anchor="middle" x="68.5" y="-13" font-family="Helvetica,sans-Serif" font-size="10.00">autodiff/forward/real.hpp</text>
</a>
</g>
</g>
<!-- Node1&#45;&gt;Node2 -->
<g id="edge1" class="edge">
<title>Node1&#45;&gt;Node2</title>
<path fill="none" stroke="midnightblue" d="M192.73,-67.48C168.07,-57.36 126.75,-40.4 98.6,-28.85"/>
<polygon fill="midnightblue" stroke="midnightblue" points="99.82,-25.57 89.24,-25.01 97.16,-32.04 99.82,-25.57"/>
</g>
<!-- Node3 -->
<g id="node3" class="node">
<title>Node3</title>
<g id="a_node3"><a xlink:title=" ">
<polygon fill="white" stroke="#bfbfbf" points="155.5,-0.5 155.5,-30.5 271.5,-30.5 271.5,-0.5 155.5,-0.5"/>
<text text-anchor="start" x="163.5" y="-18.5" font-family="Helvetica,sans-Serif" font-size="10.00">autodiff/forward/real</text>
<text text-anchor="middle" x="213.5" y="-7.5" font-family="Helvetica,sans-Serif" font-size="10.00">/eigen.hpp</text>
</a>
</g>
</g>
<!-- Node1&#45;&gt;Node3 -->
<g id="edge2" class="edge">
<title>Node1&#45;&gt;Node3</title>
<path fill="none" stroke="midnightblue" d="M213.5,-67.48C213.5,-60.47 213.5,-50.19 213.5,-40.7"/>
<polygon fill="midnightblue" stroke="midnightblue" points="217,-40.52 213.5,-30.52 210,-40.52 217,-40.52"/>
</g>
<!-- Node4 -->
<g id="node4" class="node">
<title>Node4</title>
<g id="a_node4"><a xlink:title=" ">
<polygon fill="white" stroke="#bfbfbf" points="289.5,-6 289.5,-25 343.5,-25 343.5,-6 289.5,-6"/>
<text text-anchor="middle" x="316.5" y="-13" font-family="Helvetica,sans-Serif" font-size="10.00">random</text>
</a>
</g>
</g>
<!-- Node1&#45;&gt;Node4 -->
<g id="edge3" class="edge">
<title>Node1&#45;&gt;Node4</title>
<path fill="none" stroke="midnightblue" d="M228.26,-67.48C245.16,-57.71 273.08,-41.58 292.99,-30.08"/>
<polygon fill="midnightblue" stroke="midnightblue" points="294.86,-33.04 301.77,-25.01 291.36,-26.98 294.86,-33.04"/>
</g>
</g>
</svg>
