<?xml version="1.0" encoding="UTF-8" standalone="no"?>
<!DOCTYPE svg PUBLIC "-//W3C//DTD SVG 1.1//EN"
 "http://www.w3.org/Graphics/SVG/1.1/DTD/svg11.dtd">
<!-- Generated by graphviz version 2.43.0 (0)
 -->
<!-- Title: LPT::norm Pages: 1 -->
<svg width="164pt" height="46pt"
 viewBox="0.00 0.00 164.00 46.00" xmlns="http://www.w3.org/2000/svg" xmlns:xlink="http://www.w3.org/1999/xlink">
<g id="graph0" class="graph" transform="scale(1 1) rotate(0) translate(4 42)">
<title>LPT::norm</title>
<polygon fill="white" stroke="transparent" points="-4,4 -4,-42 160,-42 160,4 -4,4"/>
<!-- Node1 -->
<g id="node1" class="node">
<title>Node1</title>
<g id="a_node1"><a xlink:title="Calculate the 2&#45;norm of ad::vector.">
<polygon fill="#bfbfbf" stroke="black" points="0,-0.5 0,-19.5 65,-19.5 65,-0.5 0,-0.5"/>
<text text-anchor="middle" x="32.5" y="-7.5" font-family="Helvetica,sans-Serif" font-size="10.00">LPT::norm</text>
</a>
</g>
</g>
<!-- Node1&#45;&gt;Node1 -->
<g id="edge3" class="edge">
<title>Node1&#45;&gt;Node1</title>
<path fill="none" stroke="midnightblue" d="M17.7,-19.76C10.51,-28.57 15.44,-38 32.5,-38 43.16,-38 49.09,-34.31 50.28,-29.4"/>
<polygon fill="midnightblue" stroke="midnightblue" points="53.59,-28.28 47.3,-19.76 46.91,-30.34 53.59,-28.28"/>
</g>
<!-- Node2 -->
<g id="node2" class="node">
<title>Node2</title>
<g id="a_node2"><a xlink:href="MathUtils_8cpp.html#ae2a720fd8e16772da7b293bb5e1be510" target="_top" xlink:title="Calculate the dot product of two ad vectors.">
<polygon fill="white" stroke="black" points="101,-0.5 101,-19.5 156,-19.5 156,-0.5 101,-0.5"/>
<text text-anchor="middle" x="128.5" y="-7.5" font-family="Helvetica,sans-Serif" font-size="10.00">LPT::dot</text>
</a>
</g>
</g>
<!-- Node1&#45;&gt;Node2 -->
<g id="edge1" class="edge">
<title>Node1&#45;&gt;Node2</title>
<path fill="none" stroke="midnightblue" d="M65.06,-10C73.33,-10 82.31,-10 90.82,-10"/>
<polygon fill="midnightblue" stroke="midnightblue" points="90.88,-13.5 100.88,-10 90.88,-6.5 90.88,-13.5"/>
</g>
<!-- Node2&#45;&gt;Node2 -->
<g id="edge2" class="edge">
<title>Node2&#45;&gt;Node2</title>
<path fill="none" stroke="midnightblue" d="M113.7,-19.76C106.51,-28.57 111.44,-38 128.5,-38 139.16,-38 145.09,-34.31 146.28,-29.4"/>
<polygon fill="midnightblue" stroke="midnightblue" points="149.59,-28.28 143.3,-19.76 142.91,-30.34 149.59,-28.28"/>
</g>
</g>
</svg>
