<?xml version="1.0" encoding="UTF-8" standalone="no"?>
<!DOCTYPE svg PUBLIC "-//W3C//DTD SVG 1.1//EN"
 "http://www.w3.org/Graphics/SVG/1.1/DTD/svg11.dtd">
<!-- Generated by graphviz version 2.43.0 (0)
 -->
<!-- Title: MathUtils.cpp Pages: 1 -->
<svg width="622pt" height="151pt"
 viewBox="0.00 0.00 622.00 151.00" xmlns="http://www.w3.org/2000/svg" xmlns:xlink="http://www.w3.org/1999/xlink">
<g id="graph0" class="graph" transform="scale(1 1) rotate(0) translate(4 147)">
<title>MathUtils.cpp</title>
<polygon fill="white" stroke="transparent" points="-4,4 -4,-147 618,-147 618,4 -4,4"/>
<!-- Node1 -->
<g id="node1" class="node">
<title>Node1</title>
<g id="a_node1"><a xlink:title="Math util functions.">
<polygon fill="#bfbfbf" stroke="black" points="279.5,-123.5 279.5,-142.5 363.5,-142.5 363.5,-123.5 279.5,-123.5"/>
<text text-anchor="middle" x="321.5" y="-130.5" font-family="Helvetica,sans-Serif" font-size="10.00">MathUtils.cpp</text>
</a>
</g>
</g>
<!-- Node2 -->
<g id="node2" class="node">
<title>Node2</title>
<g id="a_node2"><a xlink:href="MathUtils_8h.html" target="_top" xlink:title=" ">
<polygon fill="white" stroke="black" points="108,-67.5 108,-86.5 257,-86.5 257,-67.5 108,-67.5"/>
<text text-anchor="middle" x="182.5" y="-74.5" font-family="Helvetica,sans-Serif" font-size="10.00">lupnt/numerics/MathUtils.h</text>
</a>
</g>
</g>
<!-- Node1&#45;&gt;Node2 -->
<g id="edge1" class="edge">
<title>Node1&#45;&gt;Node2</title>
<path fill="none" stroke="midnightblue" d="M299.48,-123.44C276.4,-114.48 239.94,-100.31 213.86,-90.18"/>
<polygon fill="midnightblue" stroke="midnightblue" points="215.01,-86.88 204.42,-86.52 212.48,-93.4 215.01,-86.88"/>
</g>
<!-- Node3 -->
<g id="node3" class="node">
<title>Node3</title>
<g id="a_node3"><a xlink:title=" ">
<polygon fill="white" stroke="#bfbfbf" points="0,-6 0,-25 137,-25 137,-6 0,-6"/>
<text text-anchor="middle" x="68.5" y="-13" font-family="Helvetica,sans-Serif" font-size="10.00">autodiff/forward/real.hpp</text>
</a>
</g>
</g>
<!-- Node1&#45;&gt;Node3 -->
<g id="edge8" class="edge">
<title>Node1&#45;&gt;Node3</title>
<path fill="none" stroke="midnightblue" d="M279.34,-128.08C222.89,-122.06 126.68,-108.9 99.5,-87 83.6,-74.19 75.64,-51.56 71.8,-35.4"/>
<polygon fill="midnightblue" stroke="midnightblue" points="75.2,-34.53 69.76,-25.44 68.34,-35.94 75.2,-34.53"/>
</g>
<!-- Node4 -->
<g id="node4" class="node">
<title>Node4</title>
<g id="a_node4"><a xlink:title=" ">
<polygon fill="white" stroke="#bfbfbf" points="227.5,-0.5 227.5,-30.5 343.5,-30.5 343.5,-0.5 227.5,-0.5"/>
<text text-anchor="start" x="235.5" y="-18.5" font-family="Helvetica,sans-Serif" font-size="10.00">autodiff/forward/real</text>
<text text-anchor="middle" x="285.5" y="-7.5" font-family="Helvetica,sans-Serif" font-size="10.00">/eigen.hpp</text>
</a>
</g>
</g>
<!-- Node1&#45;&gt;Node4 -->
<g id="edge9" class="edge">
<title>Node1&#45;&gt;Node4</title>
<path fill="none" stroke="midnightblue" d="M317.99,-123.46C314.36,-114.48 308.66,-99.88 304.5,-87 299.58,-71.77 294.9,-54.42 291.41,-40.74"/>
<polygon fill="midnightblue" stroke="midnightblue" points="294.71,-39.51 288.88,-30.66 287.92,-41.21 294.71,-39.51"/>
</g>
<!-- Node6 -->
<g id="node6" class="node">
<title>Node6</title>
<g id="a_node6"><a xlink:title=" ">
<polygon fill="white" stroke="#bfbfbf" points="313,-67.5 313,-86.5 404,-86.5 404,-67.5 313,-67.5"/>
<text text-anchor="middle" x="358.5" y="-74.5" font-family="Helvetica,sans-Serif" font-size="10.00">Eigen/Cholesky</text>
</a>
</g>
</g>
<!-- Node1&#45;&gt;Node6 -->
<g id="edge5" class="edge">
<title>Node1&#45;&gt;Node6</title>
<path fill="none" stroke="midnightblue" d="M327.61,-123.08C332.78,-115.53 340.35,-104.49 346.69,-95.23"/>
<polygon fill="midnightblue" stroke="midnightblue" points="349.74,-96.98 352.5,-86.75 343.96,-93.02 349.74,-96.98"/>
</g>
<!-- Node7 -->
<g id="node7" class="node">
<title>Node7</title>
<g id="a_node7"><a xlink:title=" ">
<polygon fill="white" stroke="#bfbfbf" points="422.5,-67.5 422.5,-86.5 528.5,-86.5 528.5,-67.5 422.5,-67.5"/>
<text text-anchor="middle" x="475.5" y="-74.5" font-family="Helvetica,sans-Serif" font-size="10.00">Eigen/Eigenvalues</text>
</a>
</g>
</g>
<!-- Node1&#45;&gt;Node7 -->
<g id="edge6" class="edge">
<title>Node1&#45;&gt;Node7</title>
<path fill="none" stroke="midnightblue" d="M345.9,-123.44C371.7,-114.4 412.58,-100.06 441.52,-89.92"/>
<polygon fill="midnightblue" stroke="midnightblue" points="442.93,-93.13 451.21,-86.52 440.62,-86.52 442.93,-93.13"/>
</g>
<!-- Node8 -->
<g id="node8" class="node">
<title>Node8</title>
<g id="a_node8"><a xlink:title=" ">
<polygon fill="white" stroke="#bfbfbf" points="547,-67.5 547,-86.5 614,-86.5 614,-67.5 547,-67.5"/>
<text text-anchor="middle" x="580.5" y="-74.5" font-family="Helvetica,sans-Serif" font-size="10.00">Eigen/SVD</text>
</a>
</g>
</g>
<!-- Node1&#45;&gt;Node8 -->
<g id="edge7" class="edge">
<title>Node1&#45;&gt;Node8</title>
<path fill="none" stroke="midnightblue" d="M362.51,-123.47C403.92,-114.85 470.01,-101.09 536.84,-87.14"/>
<polygon fill="midnightblue" stroke="midnightblue" points="537.63,-90.55 546.7,-85.08 536.2,-83.7 537.63,-90.55"/>
</g>
<!-- Node2&#45;&gt;Node3 -->
<g id="edge2" class="edge">
<title>Node2&#45;&gt;Node3</title>
<path fill="none" stroke="midnightblue" d="M166.17,-67.48C147.29,-57.62 115.99,-41.29 93.92,-29.77"/>
<polygon fill="midnightblue" stroke="midnightblue" points="95.29,-26.53 84.8,-25.01 92.05,-32.74 95.29,-26.53"/>
</g>
<!-- Node2&#45;&gt;Node4 -->
<g id="edge3" class="edge">
<title>Node2&#45;&gt;Node4</title>
<path fill="none" stroke="midnightblue" d="M197.26,-67.48C211.6,-59.19 233.87,-46.32 252.45,-35.59"/>
<polygon fill="midnightblue" stroke="midnightblue" points="254.32,-38.56 261.22,-30.52 250.82,-32.49 254.32,-38.56"/>
</g>
<!-- Node5 -->
<g id="node5" class="node">
<title>Node5</title>
<g id="a_node5"><a xlink:title=" ">
<polygon fill="white" stroke="#bfbfbf" points="155.5,-6 155.5,-25 209.5,-25 209.5,-6 155.5,-6"/>
<text text-anchor="middle" x="182.5" y="-13" font-family="Helvetica,sans-Serif" font-size="10.00">random</text>
</a>
</g>
</g>
<!-- Node2&#45;&gt;Node5 -->
<g id="edge4" class="edge">
<title>Node2&#45;&gt;Node5</title>
<path fill="none" stroke="midnightblue" d="M182.5,-67.48C182.5,-59.08 182.5,-45.98 182.5,-35.16"/>
<polygon fill="midnightblue" stroke="midnightblue" points="186,-35.01 182.5,-25.01 179,-35.01 186,-35.01"/>
</g>
</g>
</svg>
