<?xml version="1.0" encoding="UTF-8" standalone="no"?>
<!DOCTYPE svg PUBLIC "-//W3C//DTD SVG 1.1//EN"
 "http://www.w3.org/Graphics/SVG/1.1/DTD/svg11.dtd">
<!-- Generated by graphviz version 2.43.0 (0)
 -->
<!-- Title: NBodyDynamics.cpp Pages: 1 -->
<svg width="1874pt" height="263pt"
 viewBox="0.00 0.00 1874.40 263.00" xmlns="http://www.w3.org/2000/svg" xmlns:xlink="http://www.w3.org/1999/xlink">
<g id="graph0" class="graph" transform="scale(1 1) rotate(0) translate(4 259)">
<title>NBodyDynamics.cpp</title>
<polygon fill="white" stroke="transparent" points="-4,4 -4,-259 1870.4,-259 1870.4,4 -4,4"/>
<!-- Node1 -->
<g id="node1" class="node">
<title>Node1</title>
<g id="a_node1"><a xlink:title="Multiple&#45;body dynamics.">
<polygon fill="#bfbfbf" stroke="black" points="777.9,-235.5 777.9,-254.5 895.9,-254.5 895.9,-235.5 777.9,-235.5"/>
<text text-anchor="middle" x="836.9" y="-242.5" font-family="Helvetica,sans-Serif" font-size="10.00">NBodyDynamics.cpp</text>
</a>
</g>
</g>
<!-- Node2 -->
<g id="node2" class="node">
<title>Node2</title>
<g id="a_node2"><a xlink:title=" ">
<polygon fill="white" stroke="#bfbfbf" points="430.4,-6 430.4,-25 567.4,-25 567.4,-6 430.4,-6"/>
<text text-anchor="middle" x="498.9" y="-13" font-family="Helvetica,sans-Serif" font-size="10.00">autodiff/forward/real.hpp</text>
</a>
</g>
</g>
<!-- Node1&#45;&gt;Node2 -->
<g id="edge1" class="edge">
<title>Node1&#45;&gt;Node2</title>
<path fill="none" stroke="midnightblue" d="M777.88,-244.27C598.57,-243.53 68.43,-229.22 3.9,-87 0.22,-78.91 -2.06,-73.6 3.9,-67 31.23,-36.74 287.56,-23.64 420.19,-18.86"/>
<polygon fill="midnightblue" stroke="midnightblue" points="420.43,-22.35 430.3,-18.5 420.18,-15.35 420.43,-22.35"/>
</g>
<!-- Node3 -->
<g id="node3" class="node">
<title>Node3</title>
<g id="a_node3"><a xlink:href="Dynamics_8h.html" target="_top" xlink:title="Interface for Dynamics.">
<polygon fill="white" stroke="black" points="505.9,-179.5 505.9,-198.5 579.9,-198.5 579.9,-179.5 505.9,-179.5"/>
<text text-anchor="middle" x="542.9" y="-186.5" font-family="Helvetica,sans-Serif" font-size="10.00">Dynamics.h</text>
</a>
</g>
</g>
<!-- Node1&#45;&gt;Node3 -->
<g id="edge2" class="edge">
<title>Node1&#45;&gt;Node3</title>
<path fill="none" stroke="midnightblue" d="M790.31,-235.44C735.44,-225.36 644.81,-208.72 589.8,-198.61"/>
<polygon fill="midnightblue" stroke="midnightblue" points="590.42,-195.17 579.96,-196.81 589.16,-202.06 590.42,-195.17"/>
</g>
<!-- Node4 -->
<g id="node4" class="node">
<title>Node4</title>
<g id="a_node4"><a xlink:href="GravityField_8h.html" target="_top" xlink:title="Gravity field model and acceleration calculation.">
<polygon fill="white" stroke="black" points="1119.4,-123.5 1119.4,-142.5 1282.4,-142.5 1282.4,-123.5 1119.4,-123.5"/>
<text text-anchor="middle" x="1200.9" y="-130.5" font-family="Helvetica,sans-Serif" font-size="10.00">lupnt/dynamics/GravityField.h</text>
</a>
</g>
</g>
<!-- Node1&#45;&gt;Node4 -->
<g id="edge47" class="edge">
<title>Node1&#45;&gt;Node4</title>
<path fill="none" stroke="midnightblue" d="M865.16,-235.46C930.01,-215.86 1089.56,-167.65 1162.9,-145.48"/>
<polygon fill="midnightblue" stroke="midnightblue" points="1164.1,-148.78 1172.66,-142.53 1162.07,-142.08 1164.1,-148.78"/>
</g>
<!-- Node25 -->
<g id="node25" class="node">
<title>Node25</title>
<g id="a_node25"><a xlink:href="Constants_8h.html" target="_top" xlink:title="List of constants.">
<polygon fill="white" stroke="black" points="1429.9,-123.5 1429.9,-142.5 1555.9,-142.5 1555.9,-123.5 1429.9,-123.5"/>
<text text-anchor="middle" x="1492.9" y="-130.5" font-family="Helvetica,sans-Serif" font-size="10.00">lupnt/core/Constants.h</text>
</a>
</g>
</g>
<!-- Node1&#45;&gt;Node25 -->
<g id="edge42" class="edge">
<title>Node1&#45;&gt;Node25</title>
<path fill="none" stroke="midnightblue" d="M887.83,-235.46C1006.97,-215.48 1303.47,-165.76 1431.94,-144.22"/>
<polygon fill="midnightblue" stroke="midnightblue" points="1432.72,-147.64 1442,-142.53 1431.56,-140.74 1432.72,-147.64"/>
</g>
<!-- Node27 -->
<g id="node27" class="node">
<title>Node27</title>
<g id="a_node27"><a xlink:href="SpiceInterface_8h.html" target="_top" xlink:title="SPICE Interface functions.">
<polygon fill="white" stroke="black" points="755.4,-179.5 755.4,-198.5 918.4,-198.5 918.4,-179.5 755.4,-179.5"/>
<text text-anchor="middle" x="836.9" y="-186.5" font-family="Helvetica,sans-Serif" font-size="10.00">lupnt/physics/SpiceInterface.h</text>
</a>
</g>
</g>
<!-- Node1&#45;&gt;Node27 -->
<g id="edge48" class="edge">
<title>Node1&#45;&gt;Node27</title>
<path fill="none" stroke="midnightblue" d="M836.9,-235.08C836.9,-228.01 836.9,-217.86 836.9,-208.99"/>
<polygon fill="midnightblue" stroke="midnightblue" points="840.4,-208.75 836.9,-198.75 833.4,-208.75 840.4,-208.75"/>
</g>
<!-- Node3&#45;&gt;Node2 -->
<g id="edge3" class="edge">
<title>Node3&#45;&gt;Node2</title>
<path fill="none" stroke="midnightblue" d="M505.83,-187.03C395.4,-183.26 72.49,-165.59 11.9,-87 6.47,-79.96 5.94,-73.6 11.9,-67 38.64,-37.34 288.52,-24.02 419.55,-19.02"/>
<polygon fill="midnightblue" stroke="midnightblue" points="420.06,-22.51 429.92,-18.64 419.8,-15.51 420.06,-22.51"/>
</g>
<!-- Node3&#45;&gt;Node4 -->
<g id="edge4" class="edge">
<title>Node3&#45;&gt;Node4</title>
<path fill="none" stroke="midnightblue" d="M580.16,-184.94C681.11,-176.66 962.15,-153.59 1108.95,-141.55"/>
<polygon fill="midnightblue" stroke="midnightblue" points="1109.6,-145 1119.28,-140.7 1109.03,-138.03 1109.6,-145"/>
</g>
<!-- Node17 -->
<g id="node17" class="node">
<title>Node17</title>
<g id="a_node17"><a xlink:href="Propagator_8h.html" target="_top" xlink:title="Numerical Propagator.">
<polygon fill="white" stroke="black" points="570.9,-123.5 570.9,-142.5 726.9,-142.5 726.9,-123.5 570.9,-123.5"/>
<text text-anchor="middle" x="648.9" y="-130.5" font-family="Helvetica,sans-Serif" font-size="10.00">lupnt/dynamics/Propagator.h</text>
</a>
</g>
</g>
<!-- Node3&#45;&gt;Node17 -->
<g id="edge22" class="edge">
<title>Node3&#45;&gt;Node17</title>
<path fill="none" stroke="midnightblue" d="M559.93,-179.32C576.93,-170.66 603.27,-157.24 622.89,-147.25"/>
<polygon fill="midnightblue" stroke="midnightblue" points="624.59,-150.31 631.91,-142.65 621.41,-144.08 624.59,-150.31"/>
</g>
<!-- Node19 -->
<g id="node19" class="node">
<title>Node19</title>
<g id="a_node19"><a xlink:href="Integrator_8h.html" target="_top" xlink:title="Integrator interfaces.">
<polygon fill="white" stroke="black" points="502.4,-67.5 502.4,-86.5 651.4,-86.5 651.4,-67.5 502.4,-67.5"/>
<text text-anchor="middle" x="576.9" y="-74.5" font-family="Helvetica,sans-Serif" font-size="10.00">lupnt/numerics/Integrator.h</text>
</a>
</g>
</g>
<!-- Node3&#45;&gt;Node19 -->
<g id="edge30" class="edge">
<title>Node3&#45;&gt;Node19</title>
<path fill="none" stroke="midnightblue" d="M545.37,-179.14C548.91,-166.6 555.65,-142.97 561.9,-123 564.67,-114.15 567.9,-104.37 570.66,-96.2"/>
<polygon fill="midnightblue" stroke="midnightblue" points="574.02,-97.19 573.93,-86.6 567.39,-94.94 574.02,-97.19"/>
</g>
<!-- Node20 -->
<g id="node20" class="node">
<title>Node20</title>
<g id="a_node20"><a xlink:href="OrbitState_8h.html" target="_top" xlink:title="Orbit states.">
<polygon fill="white" stroke="black" points="234.4,-123.5 234.4,-142.5 377.4,-142.5 377.4,-123.5 234.4,-123.5"/>
<text text-anchor="middle" x="305.9" y="-130.5" font-family="Helvetica,sans-Serif" font-size="10.00">lupnt/physics/OrbitState.h</text>
</a>
</g>
</g>
<!-- Node3&#45;&gt;Node20 -->
<g id="edge31" class="edge">
<title>Node3&#45;&gt;Node20</title>
<path fill="none" stroke="midnightblue" d="M505.87,-179.56C464.71,-170.19 398.16,-155.02 353.25,-144.79"/>
<polygon fill="midnightblue" stroke="midnightblue" points="353.98,-141.37 343.45,-142.56 352.42,-148.19 353.98,-141.37"/>
</g>
<!-- Node24 -->
<g id="node24" class="node">
<title>Node24</title>
<g id="a_node24"><a xlink:href="State_8h.html" target="_top" xlink:title="SPICE Interface functions.">
<polygon fill="white" stroke="black" points="395.4,-67.5 395.4,-86.5 446.4,-86.5 446.4,-67.5 395.4,-67.5"/>
<text text-anchor="middle" x="420.9" y="-74.5" font-family="Helvetica,sans-Serif" font-size="10.00">State.h</text>
</a>
</g>
</g>
<!-- Node3&#45;&gt;Node24 -->
<g id="edge41" class="edge">
<title>Node3&#45;&gt;Node24</title>
<path fill="none" stroke="midnightblue" d="M533.32,-179.37C512.75,-160.81 464.06,-116.91 438.02,-93.44"/>
<polygon fill="midnightblue" stroke="midnightblue" points="440.2,-90.69 430.43,-86.59 435.51,-95.89 440.2,-90.69"/>
</g>
<!-- Node4&#45;&gt;Node2 -->
<g id="edge11" class="edge">
<title>Node4&#45;&gt;Node2</title>
<path fill="none" stroke="midnightblue" d="M1119.11,-124.75C1046.64,-117.59 938.16,-105.09 844.9,-87 810.61,-80.35 802.97,-74.66 768.9,-67 697.83,-51.03 615.45,-36.14 560.56,-26.72"/>
<polygon fill="midnightblue" stroke="midnightblue" points="561.08,-23.26 550.63,-25.03 559.9,-30.16 561.08,-23.26"/>
</g>
<!-- Node5 -->
<g id="node5" class="node">
<title>Node5</title>
<g id="a_node5"><a xlink:title=" ">
<polygon fill="white" stroke="#bfbfbf" points="1138.9,-67.5 1138.9,-86.5 1202.9,-86.5 1202.9,-67.5 1138.9,-67.5"/>
<text text-anchor="middle" x="1170.9" y="-74.5" font-family="Helvetica,sans-Serif" font-size="10.00">algorithm</text>
</a>
</g>
</g>
<!-- Node4&#45;&gt;Node5 -->
<g id="edge5" class="edge">
<title>Node4&#45;&gt;Node5</title>
<path fill="none" stroke="midnightblue" d="M1195.94,-123.08C1191.79,-115.61 1185.74,-104.72 1180.63,-95.52"/>
<polygon fill="midnightblue" stroke="midnightblue" points="1183.67,-93.79 1175.76,-86.75 1177.56,-97.19 1183.67,-93.79"/>
</g>
<!-- Node6 -->
<g id="node6" class="node">
<title>Node6</title>
<g id="a_node6"><a xlink:title=" ">
<polygon fill="white" stroke="#bfbfbf" points="1259.4,-67.5 1259.4,-86.5 1314.4,-86.5 1314.4,-67.5 1259.4,-67.5"/>
<text text-anchor="middle" x="1286.9" y="-74.5" font-family="Helvetica,sans-Serif" font-size="10.00">fstream</text>
</a>
</g>
</g>
<!-- Node4&#45;&gt;Node6 -->
<g id="edge6" class="edge">
<title>Node4&#45;&gt;Node6</title>
<path fill="none" stroke="midnightblue" d="M1214.71,-123.32C1228.13,-114.9 1248.72,-101.97 1264.48,-92.07"/>
<polygon fill="midnightblue" stroke="midnightblue" points="1266.51,-94.94 1273.11,-86.65 1262.78,-89.01 1266.51,-94.94"/>
</g>
<!-- Node7 -->
<g id="node7" class="node">
<title>Node7</title>
<g id="a_node7"><a xlink:title=" ">
<polygon fill="white" stroke="#bfbfbf" points="1386.9,-6 1386.9,-25 1446.9,-25 1446.9,-6 1386.9,-6"/>
<text text-anchor="middle" x="1416.9" y="-13" font-family="Helvetica,sans-Serif" font-size="10.00">iostream</text>
</a>
</g>
</g>
<!-- Node4&#45;&gt;Node7 -->
<g id="edge7" class="edge">
<title>Node4&#45;&gt;Node7</title>
<path fill="none" stroke="midnightblue" d="M1272.37,-123.49C1321.09,-116.27 1379.92,-104.3 1397.9,-87 1411.72,-73.7 1415.84,-51.5 1416.9,-35.56"/>
<polygon fill="midnightblue" stroke="midnightblue" points="1420.41,-35.39 1417.22,-25.28 1413.41,-35.17 1420.41,-35.39"/>
</g>
<!-- Node8 -->
<g id="node8" class="node">
<title>Node8</title>
<g id="a_node8"><a xlink:title=" ">
<polygon fill="white" stroke="#bfbfbf" points="1332.9,-67.5 1332.9,-86.5 1388.9,-86.5 1388.9,-67.5 1332.9,-67.5"/>
<text text-anchor="middle" x="1360.9" y="-74.5" font-family="Helvetica,sans-Serif" font-size="10.00">sstream</text>
</a>
</g>
</g>
<!-- Node4&#45;&gt;Node8 -->
<g id="edge8" class="edge">
<title>Node4&#45;&gt;Node8</title>
<path fill="none" stroke="midnightblue" d="M1226.25,-123.44C1253.17,-114.36 1295.89,-99.94 1325.98,-89.78"/>
<polygon fill="midnightblue" stroke="midnightblue" points="1327.31,-93.03 1335.66,-86.52 1325.07,-86.4 1327.31,-93.03"/>
</g>
<!-- Node9 -->
<g id="node9" class="node">
<title>Node9</title>
<g id="a_node9"><a xlink:title=" ">
<polygon fill="white" stroke="#bfbfbf" points="1485.9,-6 1485.9,-25 1529.9,-25 1529.9,-6 1485.9,-6"/>
<text text-anchor="middle" x="1507.9" y="-13" font-family="Helvetica,sans-Serif" font-size="10.00">string</text>
</a>
</g>
</g>
<!-- Node4&#45;&gt;Node9 -->
<g id="edge9" class="edge">
<title>Node4&#45;&gt;Node9</title>
<path fill="none" stroke="midnightblue" d="M1282.54,-124.08C1324.46,-117.81 1375.49,-106.68 1417.9,-87 1446.98,-73.5 1475.2,-48.96 1492.07,-32.69"/>
<polygon fill="midnightblue" stroke="midnightblue" points="1494.74,-34.98 1499.38,-25.46 1489.81,-30 1494.74,-34.98"/>
</g>
<!-- Node10 -->
<g id="node10" class="node">
<title>Node10</title>
<g id="a_node10"><a xlink:title=" ">
<polygon fill="white" stroke="#bfbfbf" points="606.4,-6 606.4,-25 653.4,-25 653.4,-6 606.4,-6"/>
<text text-anchor="middle" x="629.9" y="-13" font-family="Helvetica,sans-Serif" font-size="10.00">vector</text>
</a>
</g>
</g>
<!-- Node4&#45;&gt;Node10 -->
<g id="edge10" class="edge">
<title>Node4&#45;&gt;Node10</title>
<path fill="none" stroke="midnightblue" d="M1119.1,-127.07C1054.86,-121.58 963.73,-110.21 886.9,-87 867.11,-81.02 864.44,-73.74 844.9,-67 775.58,-43.09 755.1,-48.51 683.9,-31 677.18,-29.35 670.03,-27.49 663.19,-25.68"/>
<polygon fill="midnightblue" stroke="midnightblue" points="664.06,-22.29 653.5,-23.07 662.25,-29.05 664.06,-22.29"/>
</g>
<!-- Node11 -->
<g id="node11" class="node">
<title>Node11</title>
<g id="a_node11"><a xlink:title=" ">
<polygon fill="white" stroke="#bfbfbf" points="692.9,-0.5 692.9,-30.5 808.9,-30.5 808.9,-0.5 692.9,-0.5"/>
<text text-anchor="start" x="700.9" y="-18.5" font-family="Helvetica,sans-Serif" font-size="10.00">autodiff/forward/real</text>
<text text-anchor="middle" x="750.9" y="-7.5" font-family="Helvetica,sans-Serif" font-size="10.00">/eigen.hpp</text>
</a>
</g>
</g>
<!-- Node4&#45;&gt;Node11 -->
<g id="edge12" class="edge">
<title>Node4&#45;&gt;Node11</title>
<path fill="none" stroke="midnightblue" d="M1206.35,-123.19C1214.12,-109.4 1225.95,-82.68 1211.9,-67 1198.96,-52.57 944.59,-31.27 819.36,-21.6"/>
<polygon fill="midnightblue" stroke="midnightblue" points="819.36,-18.09 809.12,-20.82 818.82,-25.07 819.36,-18.09"/>
</g>
<!-- Node12 -->
<g id="node12" class="node">
<title>Node12</title>
<g id="a_node12"><a xlink:href="UserFilePath_8h.html" target="_top" xlink:title="File access utils.">
<polygon fill="white" stroke="black" points="1558.9,-67.5 1558.9,-86.5 1696.9,-86.5 1696.9,-67.5 1558.9,-67.5"/>
<text text-anchor="middle" x="1627.9" y="-74.5" font-family="Helvetica,sans-Serif" font-size="10.00">lupnt/core/UserFilePath.h</text>
</a>
</g>
</g>
<!-- Node4&#45;&gt;Node12 -->
<g id="edge13" class="edge">
<title>Node4&#45;&gt;Node12</title>
<path fill="none" stroke="midnightblue" d="M1268.56,-123.44C1345.23,-113.75 1469.98,-97.97 1550.48,-87.79"/>
<polygon fill="midnightblue" stroke="midnightblue" points="1551.07,-91.24 1560.55,-86.52 1550.19,-84.3 1551.07,-91.24"/>
</g>
<!-- Node15 -->
<g id="node15" class="node">
<title>Node15</title>
<g id="a_node15"><a xlink:href="MathUtils_8h.html" target="_top" xlink:title=" ">
<polygon fill="white" stroke="black" points="896.4,-67.5 896.4,-86.5 1045.4,-86.5 1045.4,-67.5 896.4,-67.5"/>
<text text-anchor="middle" x="970.9" y="-74.5" font-family="Helvetica,sans-Serif" font-size="10.00">lupnt/numerics/MathUtils.h</text>
</a>
</g>
</g>
<!-- Node4&#45;&gt;Node15 -->
<g id="edge18" class="edge">
<title>Node4&#45;&gt;Node15</title>
<path fill="none" stroke="midnightblue" d="M1164.45,-123.44C1124.5,-114.06 1060.31,-98.99 1016.91,-88.8"/>
<polygon fill="midnightblue" stroke="midnightblue" points="1017.71,-85.39 1007.17,-86.52 1016.11,-92.21 1017.71,-85.39"/>
</g>
<!-- Node12&#45;&gt;Node7 -->
<g id="edge15" class="edge">
<title>Node12&#45;&gt;Node7</title>
<path fill="none" stroke="midnightblue" d="M1597.67,-67.48C1560.61,-57.03 1497.7,-39.29 1456.73,-27.73"/>
<polygon fill="midnightblue" stroke="midnightblue" points="1457.65,-24.35 1447.07,-25.01 1455.75,-31.09 1457.65,-24.35"/>
</g>
<!-- Node12&#45;&gt;Node9 -->
<g id="edge17" class="edge">
<title>Node12&#45;&gt;Node9</title>
<path fill="none" stroke="midnightblue" d="M1610.7,-67.48C1590.65,-57.53 1557.3,-40.99 1534.04,-29.46"/>
<polygon fill="midnightblue" stroke="midnightblue" points="1535.57,-26.32 1525.06,-25.01 1532.46,-32.59 1535.57,-26.32"/>
</g>
<!-- Node13 -->
<g id="node13" class="node">
<title>Node13</title>
<g id="a_node13"><a xlink:title=" ">
<polygon fill="white" stroke="#bfbfbf" points="1577.9,-6 1577.9,-25 1645.9,-25 1645.9,-6 1577.9,-6"/>
<text text-anchor="middle" x="1611.9" y="-13" font-family="Helvetica,sans-Serif" font-size="10.00">filesystem</text>
</a>
</g>
</g>
<!-- Node12&#45;&gt;Node13 -->
<g id="edge14" class="edge">
<title>Node12&#45;&gt;Node13</title>
<path fill="none" stroke="midnightblue" d="M1625.6,-67.48C1623.32,-58.99 1619.75,-45.7 1616.82,-34.82"/>
<polygon fill="midnightblue" stroke="midnightblue" points="1620.16,-33.76 1614.19,-25.01 1613.4,-35.57 1620.16,-33.76"/>
</g>
<!-- Node14 -->
<g id="node14" class="node">
<title>Node14</title>
<g id="a_node14"><a xlink:title=" ">
<polygon fill="white" stroke="#bfbfbf" points="1663.9,-6 1663.9,-25 1719.9,-25 1719.9,-6 1663.9,-6"/>
<text text-anchor="middle" x="1691.9" y="-13" font-family="Helvetica,sans-Serif" font-size="10.00">optional</text>
</a>
</g>
</g>
<!-- Node12&#45;&gt;Node14 -->
<g id="edge16" class="edge">
<title>Node12&#45;&gt;Node14</title>
<path fill="none" stroke="midnightblue" d="M1637.07,-67.48C1647.05,-58.2 1663.21,-43.17 1675.41,-31.83"/>
<polygon fill="midnightblue" stroke="midnightblue" points="1677.8,-34.38 1682.74,-25.01 1673.04,-29.25 1677.8,-34.38"/>
</g>
<!-- Node15&#45;&gt;Node2 -->
<g id="edge19" class="edge">
<title>Node15&#45;&gt;Node2</title>
<path fill="none" stroke="midnightblue" d="M896.31,-67.63C820.77,-59.01 700.61,-44.91 596.9,-31 586.5,-29.61 575.49,-28.05 564.75,-26.49"/>
<polygon fill="midnightblue" stroke="midnightblue" points="564.97,-22.99 554.57,-25.01 563.96,-29.92 564.97,-22.99"/>
</g>
<!-- Node15&#45;&gt;Node11 -->
<g id="edge20" class="edge">
<title>Node15&#45;&gt;Node11</title>
<path fill="none" stroke="midnightblue" d="M939.38,-67.48C906.38,-58.55 853.72,-44.31 812.44,-33.14"/>
<polygon fill="midnightblue" stroke="midnightblue" points="813.31,-29.76 802.75,-30.52 811.49,-36.51 813.31,-29.76"/>
</g>
<!-- Node16 -->
<g id="node16" class="node">
<title>Node16</title>
<g id="a_node16"><a xlink:title=" ">
<polygon fill="white" stroke="#bfbfbf" points="943.9,-6 943.9,-25 997.9,-25 997.9,-6 943.9,-6"/>
<text text-anchor="middle" x="970.9" y="-13" font-family="Helvetica,sans-Serif" font-size="10.00">random</text>
</a>
</g>
</g>
<!-- Node15&#45;&gt;Node16 -->
<g id="edge21" class="edge">
<title>Node15&#45;&gt;Node16</title>
<path fill="none" stroke="midnightblue" d="M970.9,-67.48C970.9,-59.08 970.9,-45.98 970.9,-35.16"/>
<polygon fill="midnightblue" stroke="midnightblue" points="974.4,-35.01 970.9,-25.01 967.4,-35.01 974.4,-35.01"/>
</g>
<!-- Node17&#45;&gt;Node2 -->
<g id="edge23" class="edge">
<title>Node17&#45;&gt;Node2</title>
<path fill="none" stroke="midnightblue" d="M570.85,-129.43C502.06,-125.32 409.23,-114.66 385.9,-87 362.62,-59.4 409.77,-39.25 450.09,-27.72"/>
<polygon fill="midnightblue" stroke="midnightblue" points="451.16,-31.05 459.89,-25.04 449.32,-24.3 451.16,-31.05"/>
</g>
<!-- Node17&#45;&gt;Node7 -->
<g id="edge24" class="edge">
<title>Node17&#45;&gt;Node7</title>
<path fill="none" stroke="midnightblue" d="M726.97,-126.35C826.92,-118.59 994.29,-103.69 1053.9,-87 1074.19,-81.32 1076.74,-73.15 1096.9,-67 1194.8,-37.15 1315.21,-24.22 1376.66,-19.24"/>
<polygon fill="midnightblue" stroke="midnightblue" points="1377.02,-22.72 1386.71,-18.45 1376.47,-15.74 1377.02,-22.72"/>
</g>
<!-- Node17&#45;&gt;Node9 -->
<g id="edge26" class="edge">
<title>Node17&#45;&gt;Node9</title>
<path fill="none" stroke="midnightblue" d="M727.11,-125.5C844.21,-115.54 1055.07,-96.65 1088.9,-87 1108.39,-81.44 1110.42,-72.64 1129.9,-67 1269.91,-26.45 1312.78,-58.67 1455.9,-31 1462.42,-29.74 1469.32,-28.07 1475.88,-26.3"/>
<polygon fill="midnightblue" stroke="midnightblue" points="1477.14,-29.58 1485.82,-23.51 1475.24,-22.85 1477.14,-29.58"/>
</g>
<!-- Node18 -->
<g id="node18" class="node">
<title>Node18</title>
<g id="a_node18"><a xlink:title=" ">
<polygon fill="white" stroke="#bfbfbf" points="668.9,-67.5 668.9,-86.5 726.9,-86.5 726.9,-67.5 668.9,-67.5"/>
<text text-anchor="middle" x="697.9" y="-74.5" font-family="Helvetica,sans-Serif" font-size="10.00">memory</text>
</a>
</g>
</g>
<!-- Node17&#45;&gt;Node18 -->
<g id="edge25" class="edge">
<title>Node17&#45;&gt;Node18</title>
<path fill="none" stroke="midnightblue" d="M656.99,-123.08C664.05,-115.3 674.48,-103.8 683.05,-94.37"/>
<polygon fill="midnightblue" stroke="midnightblue" points="685.83,-96.51 689.96,-86.75 680.64,-91.8 685.83,-96.51"/>
</g>
<!-- Node17&#45;&gt;Node19 -->
<g id="edge27" class="edge">
<title>Node17&#45;&gt;Node19</title>
<path fill="none" stroke="midnightblue" d="M637.33,-123.32C626.48,-115.18 610.02,-102.84 597.01,-93.09"/>
<polygon fill="midnightblue" stroke="midnightblue" points="598.78,-90.03 588.68,-86.83 594.58,-95.63 598.78,-90.03"/>
</g>
<!-- Node19&#45;&gt;Node2 -->
<g id="edge28" class="edge">
<title>Node19&#45;&gt;Node2</title>
<path fill="none" stroke="midnightblue" d="M565.72,-67.48C553.33,-58.02 533.11,-42.6 518.15,-31.19"/>
<polygon fill="midnightblue" stroke="midnightblue" points="520.13,-28.29 510.05,-25.01 515.88,-33.86 520.13,-28.29"/>
</g>
<!-- Node19&#45;&gt;Node11 -->
<g id="edge29" class="edge">
<title>Node19&#45;&gt;Node11</title>
<path fill="none" stroke="midnightblue" d="M601.83,-67.48C627.38,-58.74 667.82,-44.91 700.14,-33.86"/>
<polygon fill="midnightblue" stroke="midnightblue" points="701.56,-37.07 709.89,-30.52 699.29,-30.45 701.56,-37.07"/>
</g>
<!-- Node20&#45;&gt;Node2 -->
<g id="edge33" class="edge">
<title>Node20&#45;&gt;Node2</title>
<path fill="none" stroke="midnightblue" d="M234.07,-130.96C158.54,-128.16 46.93,-118.61 19.9,-87 14.12,-80.24 13.95,-73.61 19.9,-67 46.11,-37.88 290.69,-24.33 419.84,-19.16"/>
<polygon fill="midnightblue" stroke="midnightblue" points="420.22,-22.65 430.07,-18.76 419.94,-15.65 420.22,-22.65"/>
</g>
<!-- Node20&#45;&gt;Node11 -->
<g id="edge34" class="edge">
<title>Node20&#45;&gt;Node11</title>
<path fill="none" stroke="midnightblue" d="M340.87,-123.46C371.49,-115.52 416.89,-102.57 454.9,-87 472.56,-79.76 474.9,-73.34 492.9,-67 527.12,-54.94 618.35,-38.38 682.58,-27.56"/>
<polygon fill="midnightblue" stroke="midnightblue" points="683.36,-30.98 692.64,-25.88 682.2,-24.08 683.36,-30.98"/>
</g>
<!-- Node21 -->
<g id="node21" class="node">
<title>Node21</title>
<g id="a_node21"><a xlink:title=" ">
<polygon fill="white" stroke="#bfbfbf" points="29.4,-67.5 29.4,-86.5 106.4,-86.5 106.4,-67.5 29.4,-67.5"/>
<text text-anchor="middle" x="67.9" y="-74.5" font-family="Helvetica,sans-Serif" font-size="10.00">Eigen/Dense</text>
</a>
</g>
</g>
<!-- Node20&#45;&gt;Node21 -->
<g id="edge32" class="edge">
<title>Node20&#45;&gt;Node21</title>
<path fill="none" stroke="midnightblue" d="M268.19,-123.44C226.75,-114.04 160.14,-98.93 115.23,-88.74"/>
<polygon fill="midnightblue" stroke="midnightblue" points="115.96,-85.32 105.43,-86.52 114.41,-92.14 115.96,-85.32"/>
</g>
<!-- Node22 -->
<g id="node22" class="node">
<title>Node22</title>
<g id="a_node22"><a xlink:title=" ">
<polygon fill="white" stroke="#bfbfbf" points="124.9,-67.5 124.9,-86.5 254.9,-86.5 254.9,-67.5 124.9,-67.5"/>
<text text-anchor="middle" x="189.9" y="-74.5" font-family="Helvetica,sans-Serif" font-size="10.00">boost/preprocessor.hpp</text>
</a>
</g>
</g>
<!-- Node20&#45;&gt;Node22 -->
<g id="edge35" class="edge">
<title>Node20&#45;&gt;Node22</title>
<path fill="none" stroke="midnightblue" d="M287.52,-123.44C268.68,-114.68 239.17,-100.94 217.52,-90.86"/>
<polygon fill="midnightblue" stroke="midnightblue" points="218.73,-87.56 208.19,-86.52 215.78,-93.91 218.73,-87.56"/>
</g>
<!-- Node23 -->
<g id="node23" class="node">
<title>Node23</title>
<g id="a_node23"><a xlink:title=" ">
<polygon fill="white" stroke="#bfbfbf" points="273.4,-67.5 273.4,-86.5 338.4,-86.5 338.4,-67.5 273.4,-67.5"/>
<text text-anchor="middle" x="305.9" y="-74.5" font-family="Helvetica,sans-Serif" font-size="10.00">stdexcept</text>
</a>
</g>
</g>
<!-- Node20&#45;&gt;Node23 -->
<g id="edge36" class="edge">
<title>Node20&#45;&gt;Node23</title>
<path fill="none" stroke="midnightblue" d="M305.9,-123.08C305.9,-116.01 305.9,-105.86 305.9,-96.99"/>
<polygon fill="midnightblue" stroke="midnightblue" points="309.4,-96.75 305.9,-86.75 302.4,-96.75 309.4,-96.75"/>
</g>
<!-- Node20&#45;&gt;Node24 -->
<g id="edge37" class="edge">
<title>Node20&#45;&gt;Node24</title>
<path fill="none" stroke="midnightblue" d="M324.12,-123.44C342.79,-114.68 372.05,-100.94 393.51,-90.86"/>
<polygon fill="midnightblue" stroke="midnightblue" points="395.2,-93.93 402.76,-86.52 392.22,-87.6 395.2,-93.93"/>
</g>
<!-- Node24&#45;&gt;Node2 -->
<g id="edge38" class="edge">
<title>Node24&#45;&gt;Node2</title>
<path fill="none" stroke="midnightblue" d="M432.07,-67.48C444.47,-58.02 464.69,-42.6 479.64,-31.19"/>
<polygon fill="midnightblue" stroke="midnightblue" points="481.91,-33.86 487.74,-25.01 477.67,-28.29 481.91,-33.86"/>
</g>
<!-- Node24&#45;&gt;Node10 -->
<g id="edge40" class="edge">
<title>Node24&#45;&gt;Node10</title>
<path fill="none" stroke="midnightblue" d="M446.52,-68.7C484.29,-57.95 554.9,-37.85 596.62,-25.97"/>
<polygon fill="midnightblue" stroke="midnightblue" points="597.66,-29.32 606.32,-23.21 595.74,-22.59 597.66,-29.32"/>
</g>
<!-- Node24&#45;&gt;Node11 -->
<g id="edge39" class="edge">
<title>Node24&#45;&gt;Node11</title>
<path fill="none" stroke="midnightblue" d="M446.68,-70C451.4,-68.96 456.29,-67.92 460.9,-67 502.3,-58.74 611.07,-40.11 682.99,-27.93"/>
<polygon fill="midnightblue" stroke="midnightblue" points="683.61,-31.38 692.88,-26.26 682.44,-24.47 683.61,-31.38"/>
</g>
<!-- Node25&#45;&gt;Node2 -->
<g id="edge44" class="edge">
<title>Node25&#45;&gt;Node2</title>
<path fill="none" stroke="midnightblue" d="M1483.89,-123.2C1468.06,-108.38 1433.53,-78.91 1397.9,-67 1228.9,-10.53 774.26,-48.06 596.9,-31 584.86,-29.84 572.04,-28.23 559.78,-26.49"/>
<polygon fill="midnightblue" stroke="midnightblue" points="560.04,-22.99 549.64,-25.01 559.03,-29.92 560.04,-22.99"/>
</g>
<!-- Node25&#45;&gt;Node9 -->
<g id="edge45" class="edge">
<title>Node25&#45;&gt;Node9</title>
<path fill="none" stroke="midnightblue" d="M1496.46,-123.22C1499.88,-114.27 1504.84,-99.93 1506.9,-87 1509.66,-69.64 1509.64,-49.57 1509.09,-35.3"/>
<polygon fill="midnightblue" stroke="midnightblue" points="1512.58,-35.06 1508.57,-25.25 1505.59,-35.42 1512.58,-35.06"/>
</g>
<!-- Node25&#45;&gt;Node12 -->
<g id="edge46" class="edge">
<title>Node25&#45;&gt;Node12</title>
<path fill="none" stroke="midnightblue" d="M1514.29,-123.44C1536.6,-114.52 1571.8,-100.44 1597.11,-90.32"/>
<polygon fill="midnightblue" stroke="midnightblue" points="1598.62,-93.48 1606.61,-86.52 1596.02,-86.98 1598.62,-93.48"/>
</g>
<!-- Node26 -->
<g id="node26" class="node">
<title>Node26</title>
<g id="a_node26"><a xlink:title=" ">
<polygon fill="white" stroke="#bfbfbf" points="1715.4,-67.5 1715.4,-86.5 1866.4,-86.5 1866.4,-67.5 1715.4,-67.5"/>
<text text-anchor="middle" x="1790.9" y="-74.5" font-family="Helvetica,sans-Serif" font-size="10.00">autodiff/common/eigen.hpp</text>
</a>
</g>
</g>
<!-- Node25&#45;&gt;Node26 -->
<g id="edge43" class="edge">
<title>Node25&#45;&gt;Node26</title>
<path fill="none" stroke="midnightblue" d="M1540.12,-123.44C1592.65,-113.92 1677.51,-98.55 1733.75,-88.36"/>
<polygon fill="midnightblue" stroke="midnightblue" points="1734.68,-91.74 1743.9,-86.52 1733.44,-84.86 1734.68,-91.74"/>
</g>
<!-- Node27&#45;&gt;Node2 -->
<g id="edge50" class="edge">
<title>Node27&#45;&gt;Node2</title>
<path fill="none" stroke="midnightblue" d="M820.72,-179.44C806.89,-171.48 787.17,-158.53 773.9,-143 749.36,-114.29 765.76,-90.11 735.9,-67 722.06,-56.29 626.13,-38.18 560.64,-26.8"/>
<polygon fill="midnightblue" stroke="midnightblue" points="560.86,-23.29 550.41,-25.04 559.67,-30.19 560.86,-23.29"/>
</g>
<!-- Node27&#45;&gt;Node11 -->
<g id="edge51" class="edge">
<title>Node27&#45;&gt;Node11</title>
<path fill="none" stroke="midnightblue" d="M840.51,-179.28C845.24,-166.5 852.14,-142.14 844.9,-123 831.53,-87.66 800.5,-56.48 777.74,-37.14"/>
<polygon fill="midnightblue" stroke="midnightblue" points="779.71,-34.23 769.77,-30.56 775.25,-39.63 779.71,-34.23"/>
</g>
<!-- Node27&#45;&gt;Node25 -->
<g id="edge52" class="edge">
<title>Node27&#45;&gt;Node25</title>
<path fill="none" stroke="midnightblue" d="M918.65,-181.27C1047.6,-170.66 1296.22,-150.19 1419.66,-140.03"/>
<polygon fill="midnightblue" stroke="midnightblue" points="1420.09,-143.51 1429.77,-139.2 1419.52,-136.53 1420.09,-143.51"/>
</g>
<!-- Node28 -->
<g id="node28" class="node">
<title>Node28</title>
<g id="a_node28"><a xlink:title=" ">
<polygon fill="white" stroke="#bfbfbf" points="783.4,-123.5 783.4,-142.5 836.4,-142.5 836.4,-123.5 783.4,-123.5"/>
<text text-anchor="middle" x="809.9" y="-130.5" font-family="Helvetica,sans-Serif" font-size="10.00">string.h</text>
</a>
</g>
</g>
<!-- Node27&#45;&gt;Node28 -->
<g id="edge49" class="edge">
<title>Node27&#45;&gt;Node28</title>
<path fill="none" stroke="midnightblue" d="M832.44,-179.08C828.74,-171.69 823.37,-160.95 818.8,-151.81"/>
<polygon fill="midnightblue" stroke="midnightblue" points="821.88,-150.13 814.27,-142.75 815.61,-153.26 821.88,-150.13"/>
</g>
</g>
</svg>
