<?xml version="1.0" encoding="UTF-8" standalone="no"?>
<!DOCTYPE svg PUBLIC "-//W3C//DTD SVG 1.1//EN"
 "http://www.w3.org/Graphics/SVG/1.1/DTD/svg11.dtd">
<!-- Generated by graphviz version 2.43.0 (0)
 -->
<!-- Title: Occultation.h Pages: 1 -->
<!--zoomable 308 -->
<svg id="main" version="1.1" xmlns="http://www.w3.org/2000/svg" xmlns:xlink="http://www.w3.org/1999/xlink" xml:space="preserve" onload="init(evt)">
<style type="text/css"><![CDATA[
.edge:hover path { stroke: red; }
.edge:hover polygon { stroke: red; fill: red; }
]]></style>
<script type="text/javascript"><![CDATA[
var edges = document.getElementsByTagName('g');
if (edges && edges.length) {
  for (var i=0;i<edges.length;i++) {
    if (edges[i].id.substr(0,4)=='edge') {
      edges[i].setAttribute('class','edge');
    }
  }
}
]]></script>
        <defs>
                <circle id="rim" cx="0" cy="0" r="7"/>
                <circle id="rim2" cx="0" cy="0" r="3.5"/>
                <g id="zoomPlus">
                        <use xlink:href="#rim" fill="#404040">
                                <set attributeName="fill" to="#808080" begin="zoomplus.mouseover" end="zoomplus.mouseout"/>
                        </use>
                        <path d="M-4,0h8M0,-4v8" fill="none" stroke="white" stroke-width="1.5" pointer-events="none"/>
                </g>
                <g id="zoomMin">
                        <use xlink:href="#rim" fill="#404040">
                                <set attributeName="fill" to="#808080" begin="zoomminus.mouseover" end="zoomminus.mouseout"/>
                        </use>
                        <path d="M-4,0h8" fill="none" stroke="white" stroke-width="1.5" pointer-events="none"/>
                </g>
                <g id="dirArrow">
                        <path fill="none" stroke="white" stroke-width="1.5" d="M0,-3.0v7 M-2.5,-0.5L0,-3.0L2.5,-0.5"/>
                </g>
               <g id="resetDef">
                       <use xlink:href="#rim2" fill="#404040">
                               <set attributeName="fill" to="#808080" begin="reset.mouseover" end="reset.mouseout"/>
                       </use>
               </g>
        </defs>

<script type="text/javascript">
var viewWidth = 1380;
var viewHeight = 308;
var sectionId = 'dynsection-1';
</script>
<script xlink:href="svgpan.js"/>
<svg id="graph" class="graph">
<g id="viewport">
<title>Occultation.h</title>
<polygon fill="white" stroke="transparent" points="-4,4 -4,-304 1375.5,-304 1375.5,4 -4,4"/>
<!-- Node1 -->
<g id="node1" class="node">
<title>Node1</title>
<g id="a_node1"><a xlink:title="Signal blockage model.">
<polygon fill="#bfbfbf" stroke="black" points="681.5,-280.5 681.5,-299.5 762.5,-299.5 762.5,-280.5 681.5,-280.5"/>
<text text-anchor="middle" x="722" y="-287.5" font-family="Helvetica,sans-Serif" font-size="10.00">Occultation.h</text>
</a>
</g>
</g>
<!-- Node2 -->
<g id="node2" class="node">
<title>Node2</title>
<g id="a_node2"><a xlink:href="GNSSChannel_8h.html" target="_top" xlink:title="GNSS Channel class.">
<polygon fill="white" stroke="black" points="600,-168.5 600,-187.5 692,-187.5 692,-168.5 600,-168.5"/>
<text text-anchor="middle" x="646" y="-175.5" font-family="Helvetica,sans-Serif" font-size="10.00">GNSSChannel.h</text>
</a>
</g>
</g>
<!-- Node1&#45;&gt;Node2 -->
<g id="edge1" class="edge">
<title>Node1&#45;&gt;Node2</title>
<path fill="none" stroke="midnightblue" d="M698.25,-274.71C687.05,-266.89 674.34,-256.3 666,-244 653.93,-226.22 648.92,-200.87 647.02,-187.7"/>
<polygon fill="midnightblue" stroke="midnightblue" points="696.53,-277.77 706.8,-280.36 700.39,-271.93 696.53,-277.77"/>
</g>
<!-- Node17 -->
<g id="node17" class="node">
<title>Node17</title>
<g id="a_node17"><a xlink:href="SpaceChannel_8h.html" target="_top" xlink:title="Base spacechannel class (Under devlopment )">
<polygon fill="white" stroke="black" points="674.5,-224.5 674.5,-243.5 769.5,-243.5 769.5,-224.5 674.5,-224.5"/>
<text text-anchor="middle" x="722" y="-231.5" font-family="Helvetica,sans-Serif" font-size="10.00">SpaceChannel.h</text>
</a>
</g>
</g>
<!-- Node1&#45;&gt;Node17 -->
<g id="edge26" class="edge">
<title>Node1&#45;&gt;Node17</title>
<path fill="none" stroke="midnightblue" d="M722,-269.8C722,-260.91 722,-250.78 722,-243.75"/>
<polygon fill="midnightblue" stroke="midnightblue" points="718.5,-270.08 722,-280.08 725.5,-270.08 718.5,-270.08"/>
</g>
<!-- Node19 -->
<g id="node19" class="node">
<title>Node19</title>
<g id="a_node19"><a xlink:href="ExampleOccultation_8cpp.html" target="_top" xlink:title="Example of occultation computation.">
<polygon fill="white" stroke="black" points="787.5,-224.5 787.5,-243.5 922.5,-243.5 922.5,-224.5 787.5,-224.5"/>
<text text-anchor="middle" x="855" y="-231.5" font-family="Helvetica,sans-Serif" font-size="10.00">ExampleOccultation.cpp</text>
</a>
</g>
</g>
<!-- Node1&#45;&gt;Node19 -->
<g id="edge29" class="edge">
<title>Node1&#45;&gt;Node19</title>
<path fill="none" stroke="midnightblue" d="M752.45,-276.64C777.41,-266.5 812.08,-252.43 834.02,-243.52"/>
<polygon fill="midnightblue" stroke="midnightblue" points="751.02,-273.44 743.07,-280.44 753.66,-279.92 751.02,-273.44"/>
</g>
<!-- Node3 -->
<g id="node3" class="node">
<title>Node3</title>
<g id="a_node3"><a xlink:href="GNSSConstellation_8h.html" target="_top" xlink:title=" ">
<polygon fill="white" stroke="black" points="302.5,-112.5 302.5,-131.5 419.5,-131.5 419.5,-112.5 302.5,-112.5"/>
<text text-anchor="middle" x="361" y="-119.5" font-family="Helvetica,sans-Serif" font-size="10.00">GNSSConstellation.h</text>
</a>
</g>
</g>
<!-- Node2&#45;&gt;Node3 -->
<g id="edge2" class="edge">
<title>Node2&#45;&gt;Node3</title>
<path fill="none" stroke="midnightblue" d="M590.78,-166.54C536.92,-156.33 456,-141 405.95,-131.52"/>
<polygon fill="midnightblue" stroke="midnightblue" points="590.36,-170.02 600.84,-168.44 591.67,-163.14 590.36,-170.02"/>
</g>
<!-- Node5 -->
<g id="node5" class="node">
<title>Node5</title>
<g id="a_node5"><a xlink:href="ExampleConstellations_8cpp.html" target="_top" xlink:title="Setup GNSS Constellation.">
<polygon fill="white" stroke="black" points="299.5,-56.5 299.5,-75.5 448.5,-75.5 448.5,-56.5 299.5,-56.5"/>
<text text-anchor="middle" x="374" y="-63.5" font-family="Helvetica,sans-Serif" font-size="10.00">ExampleConstellations.cpp</text>
</a>
</g>
</g>
<!-- Node2&#45;&gt;Node5 -->
<g id="edge22" class="edge">
<title>Node2&#45;&gt;Node5</title>
<path fill="none" stroke="midnightblue" d="M615.3,-164.59C559.58,-142.05 443.12,-94.95 395.24,-75.59"/>
<polygon fill="midnightblue" stroke="midnightblue" points="614.07,-167.86 624.66,-168.37 616.7,-161.37 614.07,-167.86"/>
</g>
<!-- Node6 -->
<g id="node6" class="node">
<title>Node6</title>
<g id="a_node6"><a xlink:href="ExampleEKF_8cpp.html" target="_top" xlink:title="Example of Extended Kalman Filter for orbit determination.">
<polygon fill="white" stroke="black" points="184.5,-56.5 184.5,-75.5 281.5,-75.5 281.5,-56.5 184.5,-56.5"/>
<text text-anchor="middle" x="233" y="-63.5" font-family="Helvetica,sans-Serif" font-size="10.00">ExampleEKF.cpp</text>
</a>
</g>
</g>
<!-- Node2&#45;&gt;Node6 -->
<g id="edge23" class="edge">
<title>Node2&#45;&gt;Node6</title>
<path fill="none" stroke="midnightblue" d="M589.62,-174.49C503.39,-169.87 343.46,-158.02 293,-132 267.34,-118.77 247.01,-89.92 238.02,-75.52"/>
<polygon fill="midnightblue" stroke="midnightblue" points="589.58,-177.99 599.75,-175.02 589.95,-171 589.58,-177.99"/>
</g>
<!-- Node7 -->
<g id="node7" class="node">
<title>Node7</title>
<g id="a_node7"><a xlink:href="ExampleEKFApp_8cpp.html" target="_top" xlink:title="Example of EKF application.">
<polygon fill="white" stroke="black" points="977,-0.5 977,-19.5 1093,-19.5 1093,-0.5 977,-0.5"/>
<text text-anchor="middle" x="1035" y="-7.5" font-family="Helvetica,sans-Serif" font-size="10.00">ExampleEKFApp.cpp</text>
</a>
</g>
</g>
<!-- Node2&#45;&gt;Node7 -->
<g id="edge24" class="edge">
<title>Node2&#45;&gt;Node7</title>
<path fill="none" stroke="midnightblue" d="M702.06,-167.7C755.33,-158.79 837.69,-144.85 909,-132 1040.77,-108.26 1119.58,-179.1 1205,-76 1238.92,-35.06 1154.82,-19.86 1093.18,-14.25"/>
<polygon fill="midnightblue" stroke="midnightblue" points="701.41,-164.26 692.13,-169.36 702.57,-171.16 701.41,-164.26"/>
</g>
<!-- Node8 -->
<g id="node8" class="node">
<title>Node8</title>
<g id="a_node8"><a xlink:href="ExamplePropagation_8cpp.html" target="_top" xlink:title="Example propagating both GPS constellation and Lunar Satellite.">
<polygon fill="white" stroke="black" points="467,-56.5 467,-75.5 605,-75.5 605,-56.5 467,-56.5"/>
<text text-anchor="middle" x="536" y="-63.5" font-family="Helvetica,sans-Serif" font-size="10.00">ExamplePropagation.cpp</text>
</a>
</g>
</g>
<!-- Node2&#45;&gt;Node8 -->
<g id="edge25" class="edge">
<title>Node2&#45;&gt;Node8</title>
<path fill="none" stroke="midnightblue" d="M630.21,-161.21C606.63,-137.63 563.03,-94.03 544.59,-75.59"/>
<polygon fill="midnightblue" stroke="midnightblue" points="627.82,-163.77 637.37,-168.37 632.77,-158.82 627.82,-163.77"/>
</g>
<!-- Node9 -->
<g id="node9" class="node">
<title>Node9</title>
<g id="a_node9"><a xlink:href="GNSSChannel_8cpp.html" target="_top" xlink:title="GNSS Channel.">
<polygon fill="white" stroke="black" points="1092,-56.5 1092,-75.5 1196,-75.5 1196,-56.5 1092,-56.5"/>
<text text-anchor="middle" x="1144" y="-63.5" font-family="Helvetica,sans-Serif" font-size="10.00">GNSSChannel.cpp</text>
</a>
</g>
</g>
<!-- Node2&#45;&gt;Node9 -->
<g id="edge8" class="edge">
<title>Node2&#45;&gt;Node9</title>
<path fill="none" stroke="midnightblue" d="M694.67,-166.25C793.45,-144.43 1015.66,-95.35 1105.36,-75.53"/>
<polygon fill="midnightblue" stroke="midnightblue" points="693.67,-162.89 684.66,-168.46 695.18,-169.72 693.67,-162.89"/>
</g>
<!-- Node10 -->
<g id="node10" class="node">
<title>Node10</title>
<g id="a_node10"><a xlink:href="GNSSReceiver_8h.html" target="_top" xlink:title="GNSS receiver class.">
<polygon fill="white" stroke="black" points="636.5,-112.5 636.5,-131.5 731.5,-131.5 731.5,-112.5 636.5,-112.5"/>
<text text-anchor="middle" x="684" y="-119.5" font-family="Helvetica,sans-Serif" font-size="10.00">GNSSReceiver.h</text>
</a>
</g>
</g>
<!-- Node2&#45;&gt;Node10 -->
<g id="edge9" class="edge">
<title>Node2&#45;&gt;Node10</title>
<path fill="none" stroke="midnightblue" d="M658.06,-159.86C664.64,-150.5 672.51,-139.33 677.84,-131.75"/>
<polygon fill="midnightblue" stroke="midnightblue" points="655.17,-157.89 652.27,-168.08 660.89,-161.92 655.17,-157.89"/>
</g>
<!-- Node16 -->
<g id="node16" class="node">
<title>Node16</title>
<g id="a_node16"><a xlink:href="GNSSTransmitter_8cpp.html" target="_top" xlink:title="Handles GNSS transmit.">
<polygon fill="white" stroke="black" points="1252.5,-112.5 1252.5,-131.5 1371.5,-131.5 1371.5,-112.5 1252.5,-112.5"/>
<text text-anchor="middle" x="1312" y="-119.5" font-family="Helvetica,sans-Serif" font-size="10.00">GNSSTransmitter.cpp</text>
</a>
</g>
</g>
<!-- Node2&#45;&gt;Node16 -->
<g id="edge21" class="edge">
<title>Node2&#45;&gt;Node16</title>
<path fill="none" stroke="midnightblue" d="M702.17,-167.97C940.34,-141.03 1003.11,-154.14 1238,-132 1242.64,-131.56 1247.44,-131.07 1252.26,-130.55"/>
<polygon fill="midnightblue" stroke="midnightblue" points="701.71,-164.5 692.17,-169.12 702.5,-171.46 701.71,-164.5"/>
</g>
<!-- Node4 -->
<g id="node4" class="node">
<title>Node4</title>
<g id="a_node4"><a xlink:href="GNSSConstellation_8cpp.html" target="_top" xlink:title="GNSS Constellation.">
<polygon fill="white" stroke="black" points="0,-56.5 0,-75.5 128,-75.5 128,-56.5 0,-56.5"/>
<text text-anchor="middle" x="64" y="-63.5" font-family="Helvetica,sans-Serif" font-size="10.00">GNSSConstellation.cpp</text>
</a>
</g>
</g>
<!-- Node3&#45;&gt;Node4 -->
<g id="edge3" class="edge">
<title>Node3&#45;&gt;Node4</title>
<path fill="none" stroke="midnightblue" d="M303.8,-110.6C247.67,-100.4 163.1,-85.02 110.84,-75.52"/>
<polygon fill="midnightblue" stroke="midnightblue" points="303.47,-114.1 313.94,-112.44 304.73,-107.21 303.47,-114.1"/>
</g>
<!-- Node3&#45;&gt;Node5 -->
<g id="edge4" class="edge">
<title>Node3&#45;&gt;Node5</title>
<path fill="none" stroke="midnightblue" d="M365.55,-102.1C367.71,-93.14 370.18,-82.86 371.89,-75.75"/>
<polygon fill="midnightblue" stroke="midnightblue" points="362.08,-101.54 363.15,-112.08 368.89,-103.18 362.08,-101.54"/>
</g>
<!-- Node3&#45;&gt;Node6 -->
<g id="edge5" class="edge">
<title>Node3&#45;&gt;Node6</title>
<path fill="none" stroke="midnightblue" d="M331.38,-108.5C307.38,-98.38 274.22,-84.39 253.19,-75.52"/>
<polygon fill="midnightblue" stroke="midnightblue" points="330.14,-111.78 340.72,-112.44 332.86,-105.33 330.14,-111.78"/>
</g>
<!-- Node3&#45;&gt;Node7 -->
<g id="edge6" class="edge">
<title>Node3&#45;&gt;Node7</title>
<path fill="none" stroke="midnightblue" d="M292.18,-117.66C224.35,-112 136.1,-96.79 175,-56 204.13,-25.45 891.88,-22.87 934,-20 947.88,-19.05 962.8,-17.83 976.82,-16.6"/>
<polygon fill="midnightblue" stroke="midnightblue" points="292.2,-121.17 302.44,-118.46 292.74,-114.19 292.2,-121.17"/>
</g>
<!-- Node3&#45;&gt;Node8 -->
<g id="edge7" class="edge">
<title>Node3&#45;&gt;Node8</title>
<path fill="none" stroke="midnightblue" d="M398.47,-109.44C431.47,-99.26 478.76,-84.66 508.4,-75.52"/>
<polygon fill="midnightblue" stroke="midnightblue" points="397.25,-106.15 388.73,-112.44 399.32,-112.84 397.25,-106.15"/>
</g>
<!-- Node10&#45;&gt;Node5 -->
<g id="edge17" class="edge">
<title>Node10&#45;&gt;Node5</title>
<path fill="none" stroke="midnightblue" d="M626.04,-110.9C567.45,-100.7 477.92,-85.1 422.84,-75.51"/>
<polygon fill="midnightblue" stroke="midnightblue" points="625.79,-114.41 636.24,-112.68 626.99,-107.52 625.79,-114.41"/>
</g>
<!-- Node10&#45;&gt;Node6 -->
<g id="edge18" class="edge">
<title>Node10&#45;&gt;Node6</title>
<path fill="none" stroke="midnightblue" d="M626.35,-115.2C549.5,-107.28 409.31,-92.23 290,-76 287.32,-75.64 284.57,-75.25 281.8,-74.85"/>
<polygon fill="midnightblue" stroke="midnightblue" points="626,-118.68 636.31,-116.22 626.72,-111.72 626,-118.68"/>
</g>
<!-- Node10&#45;&gt;Node7 -->
<g id="edge19" class="edge">
<title>Node10&#45;&gt;Node7</title>
<path fill="none" stroke="midnightblue" d="M741.75,-117.93C838.63,-112.18 1025.29,-98.32 1045,-76 1058.91,-60.25 1047.66,-33.56 1040.23,-19.8"/>
<polygon fill="midnightblue" stroke="midnightblue" points="741.31,-114.45 731.53,-118.52 741.72,-121.44 741.31,-114.45"/>
</g>
<!-- Node10&#45;&gt;Node8 -->
<g id="edge20" class="edge">
<title>Node10&#45;&gt;Node8</title>
<path fill="none" stroke="midnightblue" d="M650.85,-108.91C623.03,-98.75 583.98,-84.51 559.34,-75.52"/>
<polygon fill="midnightblue" stroke="midnightblue" points="649.96,-112.3 660.55,-112.44 652.35,-105.73 649.96,-112.3"/>
</g>
<!-- Node10&#45;&gt;Node9 -->
<g id="edge15" class="edge">
<title>Node10&#45;&gt;Node9</title>
<path fill="none" stroke="midnightblue" d="M741.6,-114.82C818.4,-106.49 958.52,-90.97 1078,-76 1082.48,-75.44 1087.12,-74.84 1091.78,-74.23"/>
<polygon fill="midnightblue" stroke="midnightblue" points="741.21,-111.34 731.65,-115.9 741.97,-118.3 741.21,-111.34"/>
</g>
<!-- Node11 -->
<g id="node11" class="node">
<title>Node11</title>
<g id="a_node11"><a xlink:href="GNSSStateEstimationApp_8h.html" target="_top" xlink:title="State Estimation Application Using GNSS Measurement.">
<polygon fill="white" stroke="black" points="763.5,-56.5 763.5,-75.5 912.5,-75.5 912.5,-56.5 763.5,-56.5"/>
<text text-anchor="middle" x="838" y="-63.5" font-family="Helvetica,sans-Serif" font-size="10.00">GNSSStateEstimationApp.h</text>
</a>
</g>
</g>
<!-- Node10&#45;&gt;Node11 -->
<g id="edge10" class="edge">
<title>Node10&#45;&gt;Node11</title>
<path fill="none" stroke="midnightblue" d="M718.11,-109.04C747.09,-98.88 787.96,-84.55 813.71,-75.52"/>
<polygon fill="midnightblue" stroke="midnightblue" points="716.68,-105.83 708.4,-112.44 719,-112.44 716.68,-105.83"/>
</g>
<!-- Node13 -->
<g id="node13" class="node">
<title>Node13</title>
<g id="a_node13"><a xlink:href="StateEstimationApp_8h.html" target="_top" xlink:title="Base class for State Estimation Application.">
<polygon fill="white" stroke="black" points="623,-56.5 623,-75.5 745,-75.5 745,-56.5 623,-56.5"/>
<text text-anchor="middle" x="684" y="-63.5" font-family="Helvetica,sans-Serif" font-size="10.00">StateEstimationApp.h</text>
</a>
</g>
</g>
<!-- Node10&#45;&gt;Node13 -->
<g id="edge13" class="edge">
<title>Node10&#45;&gt;Node13</title>
<path fill="none" stroke="midnightblue" d="M684,-101.8C684,-92.91 684,-82.78 684,-75.75"/>
<polygon fill="midnightblue" stroke="midnightblue" points="680.5,-102.08 684,-112.08 687.5,-102.08 680.5,-102.08"/>
</g>
<!-- Node15 -->
<g id="node15" class="node">
<title>Node15</title>
<g id="a_node15"><a xlink:href="GNSSReceiver_8cpp.html" target="_top" xlink:title="GNSS Receiver class.">
<polygon fill="white" stroke="black" points="930,-56.5 930,-75.5 1036,-75.5 1036,-56.5 930,-56.5"/>
<text text-anchor="middle" x="983" y="-63.5" font-family="Helvetica,sans-Serif" font-size="10.00">GNSSReceiver.cpp</text>
</a>
</g>
</g>
<!-- Node10&#45;&gt;Node15 -->
<g id="edge16" class="edge">
<title>Node10&#45;&gt;Node15</title>
<path fill="none" stroke="midnightblue" d="M741.23,-110.66C797.74,-100.46 883.12,-85.04 935.84,-75.52"/>
<polygon fill="midnightblue" stroke="midnightblue" points="740.6,-107.22 731.38,-112.44 741.84,-114.11 740.6,-107.22"/>
</g>
<!-- Node11&#45;&gt;Node7 -->
<g id="edge12" class="edge">
<title>Node11&#45;&gt;Node7</title>
<path fill="none" stroke="midnightblue" d="M879.23,-53.7C916.41,-43.51 970.27,-28.74 1003.93,-19.52"/>
<polygon fill="midnightblue" stroke="midnightblue" points="877.93,-50.42 869.22,-56.44 879.78,-57.18 877.93,-50.42"/>
</g>
<!-- Node12 -->
<g id="node12" class="node">
<title>Node12</title>
<g id="a_node12"><a xlink:href="GNSSStateEstimationApp_8cpp.html" target="_top" xlink:title="State Estimation Application Using GNSS Measurement.">
<polygon fill="white" stroke="black" points="763.5,-0.5 763.5,-19.5 924.5,-19.5 924.5,-0.5 763.5,-0.5"/>
<text text-anchor="middle" x="844" y="-7.5" font-family="Helvetica,sans-Serif" font-size="10.00">GNSSStateEstimationApp.cpp</text>
</a>
</g>
</g>
<!-- Node11&#45;&gt;Node12 -->
<g id="edge11" class="edge">
<title>Node11&#45;&gt;Node12</title>
<path fill="none" stroke="midnightblue" d="M840.1,-46.1C841.1,-37.14 842.24,-26.86 843.03,-19.75"/>
<polygon fill="midnightblue" stroke="midnightblue" points="836.62,-45.76 838.99,-56.08 843.57,-46.53 836.62,-45.76"/>
</g>
<!-- Node14 -->
<g id="node14" class="node">
<title>Node14</title>
<g id="a_node14"><a xlink:href="StateEstimationApp_8cpp.html" target="_top" xlink:title="Base class for State Estimation Application.">
<polygon fill="white" stroke="black" points="611,-0.5 611,-19.5 745,-19.5 745,-0.5 611,-0.5"/>
<text text-anchor="middle" x="678" y="-7.5" font-family="Helvetica,sans-Serif" font-size="10.00">StateEstimationApp.cpp</text>
</a>
</g>
</g>
<!-- Node13&#45;&gt;Node14 -->
<g id="edge14" class="edge">
<title>Node13&#45;&gt;Node14</title>
<path fill="none" stroke="midnightblue" d="M681.9,-46.1C680.9,-37.14 679.76,-26.86 678.97,-19.75"/>
<polygon fill="midnightblue" stroke="midnightblue" points="678.43,-46.53 683.01,-56.08 685.38,-45.76 678.43,-46.53"/>
</g>
<!-- Node17&#45;&gt;Node2 -->
<g id="edge27" class="edge">
<title>Node17&#45;&gt;Node2</title>
<path fill="none" stroke="midnightblue" d="M701.42,-218.38C687.69,-208.62 670.07,-196.11 658.43,-187.83"/>
<polygon fill="midnightblue" stroke="midnightblue" points="699.61,-221.38 709.79,-224.32 703.66,-215.68 699.61,-221.38"/>
</g>
<!-- Node18 -->
<g id="node18" class="node">
<title>Node18</title>
<g id="a_node18"><a xlink:href="SpaceChannel_8cpp.html" target="_top" xlink:title="Base spacechannel class (Under devlopment )">
<polygon fill="white" stroke="black" points="710,-168.5 710,-187.5 816,-187.5 816,-168.5 710,-168.5"/>
<text text-anchor="middle" x="763" y="-175.5" font-family="Helvetica,sans-Serif" font-size="10.00">SpaceChannel.cpp</text>
</a>
</g>
</g>
<!-- Node17&#45;&gt;Node18 -->
<g id="edge28" class="edge">
<title>Node17&#45;&gt;Node18</title>
<path fill="none" stroke="midnightblue" d="M735.02,-215.86C742.12,-206.5 750.6,-195.33 756.36,-187.75"/>
<polygon fill="midnightblue" stroke="midnightblue" points="732.03,-214 728.77,-224.08 737.61,-218.24 732.03,-214"/>
</g>
</g>
</svg>
        <g id="navigator" transform="translate(0 0)" fill="#404254">
                <rect fill="#f2f5e9" fill-opacity="0.5" stroke="#606060" stroke-width=".5" x="0" y="0" width="60" height="60"/>
                <use id="zoomplus" xlink:href="#zoomPlus" x="17" y="9" onmousedown="handleZoom(evt,'in')"/>
                <use id="zoomminus" xlink:href="#zoomMin" x="42" y="9" onmousedown="handleZoom(evt,'out')"/>
                <use id="reset" xlink:href="#resetDef" x="30" y="36" onmousedown="handleReset()"/>
                <g id="arrowUp" xlink:href="#dirArrow" transform="translate(30 24)" onmousedown="handlePan(0,-1)">
                  <use xlink:href="#rim" fill="#404040">
                        <set attributeName="fill" to="#808080" begin="arrowUp.mouseover" end="arrowUp.mouseout"/>
                  </use>
                  <path fill="none" stroke="white" stroke-width="1.5" d="M0,-3.0v7 M-2.5,-0.5L0,-3.0L2.5,-0.5"/>
                </g>
                <g id="arrowRight" xlink:href="#dirArrow" transform="rotate(90) translate(36 -43)" onmousedown="handlePan(1,0)">
                  <use xlink:href="#rim" fill="#404040">
                        <set attributeName="fill" to="#808080" begin="arrowRight.mouseover" end="arrowRight.mouseout"/>
                  </use>
                  <path fill="none" stroke="white" stroke-width="1.5" d="M0,-3.0v7 M-2.5,-0.5L0,-3.0L2.5,-0.5"/>
                </g>
                <g id="arrowDown" xlink:href="#dirArrow" transform="rotate(180) translate(-30 -48)" onmousedown="handlePan(0,1)">
                  <use xlink:href="#rim" fill="#404040">
                        <set attributeName="fill" to="#808080" begin="arrowDown.mouseover" end="arrowDown.mouseout"/>
                  </use>
                  <path fill="none" stroke="white" stroke-width="1.5" d="M0,-3.0v7 M-2.5,-0.5L0,-3.0L2.5,-0.5"/>
                </g>
                <g id="arrowLeft" xlink:href="#dirArrow" transform="rotate(270) translate(-36 17)" onmousedown="handlePan(-1,0)">
                  <use xlink:href="#rim" fill="#404040">
                        <set attributeName="fill" to="#808080" begin="arrowLeft.mouseover" end="arrowLeft.mouseout"/>
                  </use>
                  <path fill="none" stroke="white" stroke-width="1.5" d="M0,-3.0v7 M-2.5,-0.5L0,-3.0L2.5,-0.5"/>
                </g>
        </g>
        <svg viewBox="0 0 15 15" width="100%" height="30px" preserveAspectRatio="xMaxYMin meet">
         <g id="arrow_out" transform="scale(0.3 0.3)">
          <a xlink:href="Occultation_8h__dep__incl_org.svg" target="_base">
           <rect id="button" ry="5" rx="5" y="6" x="6" height="38" width="38"
                fill="#f2f5e9" fill-opacity="0.5" stroke="#606060" stroke-width="1.0"/>
           <path id="arrow"
             d="M 11.500037,31.436501 C 11.940474,20.09759 22.043105,11.32322 32.158766,21.979434 L 37.068811,17.246167 C 37.068811,17.246167 37.088388,32 37.088388,32 L 22.160133,31.978069 C 22.160133,31.978069 26.997745,27.140456 26.997745,27.140456 C 18.528582,18.264221 13.291696,25.230495 11.500037,31.436501 z"
             style="fill:#404040;"/>
          </a>
         </g>
        </svg>
</svg>
