<?xml version="1.0" encoding="UTF-8" standalone="no"?>
<!DOCTYPE svg PUBLIC "-//W3C//DTD SVG 1.1//EN"
 "http://www.w3.org/Graphics/SVG/1.1/DTD/svg11.dtd">
<!-- Generated by graphviz version 2.43.0 (0)
 -->
<!-- Title: OrbitStateUtils.cpp Pages: 1 -->
<svg width="1055pt" height="274pt"
 viewBox="0.00 0.00 1055.00 274.00" xmlns="http://www.w3.org/2000/svg" xmlns:xlink="http://www.w3.org/1999/xlink">
<g id="graph0" class="graph" transform="scale(1 1) rotate(0) translate(4 270)">
<title>OrbitStateUtils.cpp</title>
<polygon fill="white" stroke="transparent" points="-4,4 -4,-270 1051,-270 1051,4 -4,4"/>
<!-- Node1 -->
<g id="node1" class="node">
<title>Node1</title>
<g id="a_node1"><a xlink:title="Util functions for state conversions.">
<polygon fill="#bfbfbf" stroke="black" points="741,-246.5 741,-265.5 850,-265.5 850,-246.5 741,-246.5"/>
<text text-anchor="middle" x="795.5" y="-253.5" font-family="Helvetica,sans-Serif" font-size="10.00">OrbitStateUtils.cpp</text>
</a>
</g>
</g>
<!-- Node2 -->
<g id="node2" class="node">
<title>Node2</title>
<g id="a_node2"><a xlink:href="OrbitStateUtils_8h.html" target="_top" xlink:title="Util functions for state conversions.">
<polygon fill="white" stroke="black" points="577.5,-179.5 577.5,-209.5 711.5,-209.5 711.5,-179.5 577.5,-179.5"/>
<text text-anchor="start" x="585.5" y="-197.5" font-family="Helvetica,sans-Serif" font-size="10.00">lupnt/physics/OrbitState</text>
<text text-anchor="middle" x="644.5" y="-186.5" font-family="Helvetica,sans-Serif" font-size="10.00">Utils.h</text>
</a>
</g>
</g>
<!-- Node1&#45;&gt;Node2 -->
<g id="edge1" class="edge">
<title>Node1&#45;&gt;Node2</title>
<path fill="none" stroke="midnightblue" d="M773.87,-246.48C751.98,-237.85 717.5,-224.26 689.64,-213.29"/>
<polygon fill="midnightblue" stroke="midnightblue" points="690.67,-209.93 680.09,-209.52 688.11,-216.45 690.67,-209.93"/>
</g>
<!-- Node3 -->
<g id="node3" class="node">
<title>Node3</title>
<g id="a_node3"><a xlink:href="Constants_8h.html" target="_top" xlink:title="List of constants.">
<polygon fill="white" stroke="black" points="205.5,-123.5 205.5,-142.5 331.5,-142.5 331.5,-123.5 205.5,-123.5"/>
<text text-anchor="middle" x="268.5" y="-130.5" font-family="Helvetica,sans-Serif" font-size="10.00">lupnt/core/Constants.h</text>
</a>
</g>
</g>
<!-- Node1&#45;&gt;Node3 -->
<g id="edge26" class="edge">
<title>Node1&#45;&gt;Node3</title>
<path fill="none" stroke="midnightblue" d="M748.83,-246.49C702.83,-237.93 630.62,-224.02 568.5,-210 475.55,-189.03 367.4,-160.64 309.73,-145.17"/>
<polygon fill="midnightblue" stroke="midnightblue" points="310.47,-141.75 299.9,-142.53 308.65,-148.51 310.47,-141.75"/>
</g>
<!-- Node12 -->
<g id="node12" class="node">
<title>Node12</title>
<g id="a_node12"><a xlink:title=" ">
<polygon fill="white" stroke="#bfbfbf" points="765,-67.5 765,-86.5 842,-86.5 842,-67.5 765,-67.5"/>
<text text-anchor="middle" x="803.5" y="-74.5" font-family="Helvetica,sans-Serif" font-size="10.00">Eigen/Dense</text>
</a>
</g>
</g>
<!-- Node1&#45;&gt;Node12 -->
<g id="edge25" class="edge">
<title>Node1&#45;&gt;Node12</title>
<path fill="none" stroke="midnightblue" d="M795.89,-246.46C797.11,-219.43 800.91,-135.24 802.64,-97.11"/>
<polygon fill="midnightblue" stroke="midnightblue" points="806.14,-97.02 803.1,-86.87 799.15,-96.7 806.14,-97.02"/>
</g>
<!-- Node18 -->
<g id="node18" class="node">
<title>Node18</title>
<g id="a_node18"><a xlink:href="MathUtils_8h.html" target="_top" xlink:title=" ">
<polygon fill="white" stroke="black" points="898,-67.5 898,-86.5 1047,-86.5 1047,-67.5 898,-67.5"/>
<text text-anchor="middle" x="972.5" y="-74.5" font-family="Helvetica,sans-Serif" font-size="10.00">lupnt/numerics/MathUtils.h</text>
</a>
</g>
</g>
<!-- Node1&#45;&gt;Node18 -->
<g id="edge27" class="edge">
<title>Node1&#45;&gt;Node18</title>
<path fill="none" stroke="midnightblue" d="M804.04,-246.46C831.77,-218.73 919.65,-130.85 956.26,-94.24"/>
<polygon fill="midnightblue" stroke="midnightblue" points="959.04,-96.41 963.63,-86.87 954.09,-91.46 959.04,-96.41"/>
</g>
<!-- Node2&#45;&gt;Node3 -->
<g id="edge2" class="edge">
<title>Node2&#45;&gt;Node3</title>
<path fill="none" stroke="midnightblue" d="M577.28,-182.86C507.96,-171.89 400.66,-154.91 332.53,-144.13"/>
<polygon fill="midnightblue" stroke="midnightblue" points="332.79,-140.63 322.36,-142.52 331.69,-147.54 332.79,-140.63"/>
</g>
<!-- Node5 -->
<g id="node5" class="node">
<title>Node5</title>
<g id="a_node5"><a xlink:title=" ">
<polygon fill="white" stroke="#bfbfbf" points="477,-6 477,-25 614,-25 614,-6 477,-6"/>
<text text-anchor="middle" x="545.5" y="-13" font-family="Helvetica,sans-Serif" font-size="10.00">autodiff/forward/real.hpp</text>
</a>
</g>
</g>
<!-- Node2&#45;&gt;Node5 -->
<g id="edge22" class="edge">
<title>Node2&#45;&gt;Node5</title>
<path fill="none" stroke="midnightblue" d="M577.37,-187.34C514.13,-177.56 422.69,-152.3 378.5,-87 352.51,-48.6 411.75,-31.05 466.72,-23.07"/>
<polygon fill="midnightblue" stroke="midnightblue" points="467.48,-26.5 476.92,-21.69 466.54,-19.56 467.48,-26.5"/>
</g>
<!-- Node11 -->
<g id="node11" class="node">
<title>Node11</title>
<g id="a_node11"><a xlink:href="OrbitState_8h.html" target="_top" xlink:title="Orbit states.">
<polygon fill="white" stroke="black" points="573,-123.5 573,-142.5 716,-142.5 716,-123.5 573,-123.5"/>
<text text-anchor="middle" x="644.5" y="-130.5" font-family="Helvetica,sans-Serif" font-size="10.00">lupnt/physics/OrbitState.h</text>
</a>
</g>
</g>
<!-- Node2&#45;&gt;Node11 -->
<g id="edge11" class="edge">
<title>Node2&#45;&gt;Node11</title>
<path fill="none" stroke="midnightblue" d="M644.5,-179.4C644.5,-171.47 644.5,-161.46 644.5,-152.86"/>
<polygon fill="midnightblue" stroke="midnightblue" points="648,-152.66 644.5,-142.66 641,-152.66 648,-152.66"/>
</g>
<!-- Node2&#45;&gt;Node12 -->
<g id="edge21" class="edge">
<title>Node2&#45;&gt;Node12</title>
<path fill="none" stroke="midnightblue" d="M669.17,-179.32C685.52,-169.63 707.24,-156.21 725.5,-143 747.19,-127.31 770.6,-107.36 786.05,-93.73"/>
<polygon fill="midnightblue" stroke="midnightblue" points="788.61,-96.13 793.76,-86.87 783.96,-90.9 788.61,-96.13"/>
</g>
<!-- Node13 -->
<g id="node13" class="node">
<title>Node13</title>
<g id="a_node13"><a xlink:title=" ">
<polygon fill="white" stroke="#bfbfbf" points="768.5,-0.5 768.5,-30.5 884.5,-30.5 884.5,-0.5 768.5,-0.5"/>
<text text-anchor="start" x="776.5" y="-18.5" font-family="Helvetica,sans-Serif" font-size="10.00">autodiff/forward/real</text>
<text text-anchor="middle" x="826.5" y="-7.5" font-family="Helvetica,sans-Serif" font-size="10.00">/eigen.hpp</text>
</a>
</g>
</g>
<!-- Node2&#45;&gt;Node13 -->
<g id="edge23" class="edge">
<title>Node2&#45;&gt;Node13</title>
<path fill="none" stroke="midnightblue" d="M710.29,-179.46C758.96,-165.2 821.76,-137.73 851.5,-87 860.31,-71.97 853.02,-53.33 844.09,-38.99"/>
<polygon fill="midnightblue" stroke="midnightblue" points="846.96,-36.99 838.44,-30.69 841.17,-40.93 846.96,-36.99"/>
</g>
<!-- Node14 -->
<g id="node14" class="node">
<title>Node14</title>
<g id="a_node14"><a xlink:title=" ">
<polygon fill="white" stroke="#bfbfbf" points="387.5,-67.5 387.5,-86.5 517.5,-86.5 517.5,-67.5 387.5,-67.5"/>
<text text-anchor="middle" x="452.5" y="-74.5" font-family="Helvetica,sans-Serif" font-size="10.00">boost/preprocessor.hpp</text>
</a>
</g>
</g>
<!-- Node2&#45;&gt;Node14 -->
<g id="edge24" class="edge">
<title>Node2&#45;&gt;Node14</title>
<path fill="none" stroke="midnightblue" d="M620.96,-179.34C584,-157.11 512.81,-114.28 475.93,-92.09"/>
<polygon fill="midnightblue" stroke="midnightblue" points="477.28,-88.83 466.91,-86.67 473.68,-94.82 477.28,-88.83"/>
</g>
<!-- Node4 -->
<g id="node4" class="node">
<title>Node4</title>
<g id="a_node4"><a xlink:title=" ">
<polygon fill="white" stroke="#bfbfbf" points="0,-67.5 0,-86.5 151,-86.5 151,-67.5 0,-67.5"/>
<text text-anchor="middle" x="75.5" y="-74.5" font-family="Helvetica,sans-Serif" font-size="10.00">autodiff/common/eigen.hpp</text>
</a>
</g>
</g>
<!-- Node3&#45;&gt;Node4 -->
<g id="edge3" class="edge">
<title>Node3&#45;&gt;Node4</title>
<path fill="none" stroke="midnightblue" d="M237.92,-123.44C204.89,-114.2 152.11,-99.44 115.73,-89.26"/>
<polygon fill="midnightblue" stroke="midnightblue" points="116.51,-85.84 105.94,-86.52 114.63,-92.58 116.51,-85.84"/>
</g>
<!-- Node3&#45;&gt;Node5 -->
<g id="edge4" class="edge">
<title>Node3&#45;&gt;Node5</title>
<path fill="none" stroke="midnightblue" d="M276.13,-123.41C289.02,-109.44 316.55,-81.86 345.5,-67 384.69,-46.88 432.4,-34.44 471.38,-26.94"/>
<polygon fill="midnightblue" stroke="midnightblue" points="472.42,-30.31 481.61,-25.05 471.14,-23.42 472.42,-30.31"/>
</g>
<!-- Node6 -->
<g id="node6" class="node">
<title>Node6</title>
<g id="a_node6"><a xlink:title=" ">
<polygon fill="white" stroke="#bfbfbf" points="261.5,-6 261.5,-25 305.5,-25 305.5,-6 261.5,-6"/>
<text text-anchor="middle" x="283.5" y="-13" font-family="Helvetica,sans-Serif" font-size="10.00">string</text>
</a>
</g>
</g>
<!-- Node3&#45;&gt;Node6 -->
<g id="edge5" class="edge">
<title>Node3&#45;&gt;Node6</title>
<path fill="none" stroke="midnightblue" d="M269.63,-123.32C272.04,-104.76 277.74,-60.84 281.04,-35.47"/>
<polygon fill="midnightblue" stroke="midnightblue" points="284.54,-35.65 282.36,-25.28 277.6,-34.75 284.54,-35.65"/>
</g>
<!-- Node7 -->
<g id="node7" class="node">
<title>Node7</title>
<g id="a_node7"><a xlink:href="UserFilePath_8h.html" target="_top" xlink:title="File access utils.">
<polygon fill="white" stroke="black" points="169.5,-67.5 169.5,-86.5 255.5,-86.5 255.5,-67.5 169.5,-67.5"/>
<text text-anchor="middle" x="212.5" y="-74.5" font-family="Helvetica,sans-Serif" font-size="10.00">UserFilePath.h</text>
</a>
</g>
</g>
<!-- Node3&#45;&gt;Node7 -->
<g id="edge6" class="edge">
<title>Node3&#45;&gt;Node7</title>
<path fill="none" stroke="midnightblue" d="M259.5,-123.32C251.31,-115.42 238.99,-103.55 229.03,-93.94"/>
<polygon fill="midnightblue" stroke="midnightblue" points="231.29,-91.26 221.66,-86.83 226.43,-96.29 231.29,-91.26"/>
</g>
<!-- Node7&#45;&gt;Node6 -->
<g id="edge10" class="edge">
<title>Node7&#45;&gt;Node6</title>
<path fill="none" stroke="midnightblue" d="M222.67,-67.48C233.85,-58.11 252.02,-42.88 265.59,-31.51"/>
<polygon fill="midnightblue" stroke="midnightblue" points="267.93,-34.11 273.35,-25.01 263.43,-28.75 267.93,-34.11"/>
</g>
<!-- Node8 -->
<g id="node8" class="node">
<title>Node8</title>
<g id="a_node8"><a xlink:title=" ">
<polygon fill="white" stroke="#bfbfbf" points="23.5,-6 23.5,-25 91.5,-25 91.5,-6 23.5,-6"/>
<text text-anchor="middle" x="57.5" y="-13" font-family="Helvetica,sans-Serif" font-size="10.00">filesystem</text>
</a>
</g>
</g>
<!-- Node7&#45;&gt;Node8 -->
<g id="edge7" class="edge">
<title>Node7&#45;&gt;Node8</title>
<path fill="none" stroke="midnightblue" d="M190.29,-67.48C163.82,-57.31 119.39,-40.26 89.28,-28.7"/>
<polygon fill="midnightblue" stroke="midnightblue" points="90.26,-25.33 79.67,-25.01 87.75,-31.86 90.26,-25.33"/>
</g>
<!-- Node9 -->
<g id="node9" class="node">
<title>Node9</title>
<g id="a_node9"><a xlink:title=" ">
<polygon fill="white" stroke="#bfbfbf" points="109.5,-6 109.5,-25 169.5,-25 169.5,-6 109.5,-6"/>
<text text-anchor="middle" x="139.5" y="-13" font-family="Helvetica,sans-Serif" font-size="10.00">iostream</text>
</a>
</g>
</g>
<!-- Node7&#45;&gt;Node9 -->
<g id="edge8" class="edge">
<title>Node7&#45;&gt;Node9</title>
<path fill="none" stroke="midnightblue" d="M202.04,-67.48C190.55,-58.11 171.87,-42.88 157.91,-31.51"/>
<polygon fill="midnightblue" stroke="midnightblue" points="159.9,-28.61 149.94,-25.01 155.48,-34.04 159.9,-28.61"/>
</g>
<!-- Node10 -->
<g id="node10" class="node">
<title>Node10</title>
<g id="a_node10"><a xlink:title=" ">
<polygon fill="white" stroke="#bfbfbf" points="187.5,-6 187.5,-25 243.5,-25 243.5,-6 187.5,-6"/>
<text text-anchor="middle" x="215.5" y="-13" font-family="Helvetica,sans-Serif" font-size="10.00">optional</text>
</a>
</g>
</g>
<!-- Node7&#45;&gt;Node10 -->
<g id="edge9" class="edge">
<title>Node7&#45;&gt;Node10</title>
<path fill="none" stroke="midnightblue" d="M212.93,-67.48C213.35,-59.08 214.01,-45.98 214.56,-35.16"/>
<polygon fill="midnightblue" stroke="midnightblue" points="218.06,-35.17 215.07,-25.01 211.07,-34.82 218.06,-35.17"/>
</g>
<!-- Node11&#45;&gt;Node5 -->
<g id="edge13" class="edge">
<title>Node11&#45;&gt;Node5</title>
<path fill="none" stroke="midnightblue" d="M618.93,-123.37C601.48,-116.22 579.13,-104.39 565.5,-87 553.87,-72.16 549,-50.87 546.96,-35.57"/>
<polygon fill="midnightblue" stroke="midnightblue" points="550.41,-34.84 545.89,-25.25 543.44,-35.56 550.41,-34.84"/>
</g>
<!-- Node11&#45;&gt;Node12 -->
<g id="edge12" class="edge">
<title>Node11&#45;&gt;Node12</title>
<path fill="none" stroke="midnightblue" d="M669.69,-123.44C696.44,-114.36 738.9,-99.94 768.81,-89.78"/>
<polygon fill="midnightblue" stroke="midnightblue" points="770.08,-93.05 778.42,-86.52 767.83,-86.42 770.08,-93.05"/>
</g>
<!-- Node11&#45;&gt;Node13 -->
<g id="edge14" class="edge">
<title>Node11&#45;&gt;Node13</title>
<path fill="none" stroke="midnightblue" d="M658.55,-123.46C673.29,-114.48 697.11,-99.88 717.5,-87 744.3,-70.08 774.54,-50.47 796.37,-36.24"/>
<polygon fill="midnightblue" stroke="midnightblue" points="798.41,-39.08 804.87,-30.68 794.59,-33.22 798.41,-39.08"/>
</g>
<!-- Node11&#45;&gt;Node14 -->
<g id="edge15" class="edge">
<title>Node11&#45;&gt;Node14</title>
<path fill="none" stroke="midnightblue" d="M614.08,-123.44C581.22,-114.2 528.72,-99.44 492.53,-89.26"/>
<polygon fill="midnightblue" stroke="midnightblue" points="493.35,-85.85 482.78,-86.52 491.46,-92.59 493.35,-85.85"/>
</g>
<!-- Node15 -->
<g id="node15" class="node">
<title>Node15</title>
<g id="a_node15"><a xlink:title=" ">
<polygon fill="white" stroke="#bfbfbf" points="574,-67.5 574,-86.5 639,-86.5 639,-67.5 574,-67.5"/>
<text text-anchor="middle" x="606.5" y="-74.5" font-family="Helvetica,sans-Serif" font-size="10.00">stdexcept</text>
</a>
</g>
</g>
<!-- Node11&#45;&gt;Node15 -->
<g id="edge16" class="edge">
<title>Node11&#45;&gt;Node15</title>
<path fill="none" stroke="midnightblue" d="M638.23,-123.08C632.86,-115.46 624.98,-104.26 618.42,-94.94"/>
<polygon fill="midnightblue" stroke="midnightblue" points="621.28,-92.91 612.66,-86.75 615.55,-96.94 621.28,-92.91"/>
</g>
<!-- Node16 -->
<g id="node16" class="node">
<title>Node16</title>
<g id="a_node16"><a xlink:href="State_8h.html" target="_top" xlink:title="SPICE Interface functions.">
<polygon fill="white" stroke="black" points="657,-67.5 657,-86.5 708,-86.5 708,-67.5 657,-67.5"/>
<text text-anchor="middle" x="682.5" y="-74.5" font-family="Helvetica,sans-Serif" font-size="10.00">State.h</text>
</a>
</g>
</g>
<!-- Node11&#45;&gt;Node16 -->
<g id="edge17" class="edge">
<title>Node11&#45;&gt;Node16</title>
<path fill="none" stroke="midnightblue" d="M650.77,-123.08C656.14,-115.46 664.02,-104.26 670.58,-94.94"/>
<polygon fill="midnightblue" stroke="midnightblue" points="673.45,-96.94 676.34,-86.75 667.72,-92.91 673.45,-96.94"/>
</g>
<!-- Node16&#45;&gt;Node5 -->
<g id="edge18" class="edge">
<title>Node16&#45;&gt;Node5</title>
<path fill="none" stroke="midnightblue" d="M662.87,-67.48C639.68,-57.4 600.88,-40.55 574.29,-29"/>
<polygon fill="midnightblue" stroke="midnightblue" points="575.66,-25.78 565.09,-25.01 572.87,-32.2 575.66,-25.78"/>
</g>
<!-- Node16&#45;&gt;Node13 -->
<g id="edge19" class="edge">
<title>Node16&#45;&gt;Node13</title>
<path fill="none" stroke="midnightblue" d="M703.13,-67.48C723.91,-58.89 756.6,-45.38 783.11,-34.43"/>
<polygon fill="midnightblue" stroke="midnightblue" points="784.66,-37.58 792.56,-30.52 781.98,-31.11 784.66,-37.58"/>
</g>
<!-- Node17 -->
<g id="node17" class="node">
<title>Node17</title>
<g id="a_node17"><a xlink:title=" ">
<polygon fill="white" stroke="#bfbfbf" points="659,-6 659,-25 706,-25 706,-6 659,-6"/>
<text text-anchor="middle" x="682.5" y="-13" font-family="Helvetica,sans-Serif" font-size="10.00">vector</text>
</a>
</g>
</g>
<!-- Node16&#45;&gt;Node17 -->
<g id="edge20" class="edge">
<title>Node16&#45;&gt;Node17</title>
<path fill="none" stroke="midnightblue" d="M682.5,-67.48C682.5,-59.08 682.5,-45.98 682.5,-35.16"/>
<polygon fill="midnightblue" stroke="midnightblue" points="686,-35.01 682.5,-25.01 679,-35.01 686,-35.01"/>
</g>
<!-- Node18&#45;&gt;Node5 -->
<g id="edge28" class="edge">
<title>Node18&#45;&gt;Node5</title>
<path fill="none" stroke="midnightblue" d="M911.32,-67.48C833.4,-56.62 698.99,-37.89 616.6,-26.41"/>
<polygon fill="midnightblue" stroke="midnightblue" points="616.95,-22.92 606.57,-25.01 615.99,-29.86 616.95,-22.92"/>
</g>
<!-- Node18&#45;&gt;Node13 -->
<g id="edge29" class="edge">
<title>Node18&#45;&gt;Node13</title>
<path fill="none" stroke="midnightblue" d="M951.58,-67.48C930.51,-58.89 897.37,-45.38 870.49,-34.43"/>
<polygon fill="midnightblue" stroke="midnightblue" points="871.49,-31.06 860.91,-30.52 868.85,-37.54 871.49,-31.06"/>
</g>
<!-- Node19 -->
<g id="node19" class="node">
<title>Node19</title>
<g id="a_node19"><a xlink:title=" ">
<polygon fill="white" stroke="#bfbfbf" points="945.5,-6 945.5,-25 999.5,-25 999.5,-6 945.5,-6"/>
<text text-anchor="middle" x="972.5" y="-13" font-family="Helvetica,sans-Serif" font-size="10.00">random</text>
</a>
</g>
</g>
<!-- Node18&#45;&gt;Node19 -->
<g id="edge30" class="edge">
<title>Node18&#45;&gt;Node19</title>
<path fill="none" stroke="midnightblue" d="M972.5,-67.48C972.5,-59.08 972.5,-45.98 972.5,-35.16"/>
<polygon fill="midnightblue" stroke="midnightblue" points="976,-35.01 972.5,-25.01 969,-35.01 976,-35.01"/>
</g>
</g>
</svg>
