<?xml version="1.0" encoding="UTF-8" standalone="no"?>
<!DOCTYPE svg PUBLIC "-//W3C//DTD SVG 1.1//EN"
 "http://www.w3.org/Graphics/SVG/1.1/DTD/svg11.dtd">
<!-- Generated by graphviz version 2.43.0 (0)
 -->
<!-- Title: OrbitState.h Pages: 1 -->
<svg width="482pt" height="151pt"
 viewBox="0.00 0.00 482.00 151.00" xmlns="http://www.w3.org/2000/svg" xmlns:xlink="http://www.w3.org/1999/xlink">
<g id="graph0" class="graph" transform="scale(1 1) rotate(0) translate(4 147)">
<title>OrbitState.h</title>
<polygon fill="white" stroke="transparent" points="-4,4 -4,-147 478,-147 478,4 -4,4"/>
<!-- Node1 -->
<g id="node1" class="node">
<title>Node1</title>
<g id="a_node1"><a xlink:title="Orbit states.">
<polygon fill="#bfbfbf" stroke="black" points="168,-123.5 168,-142.5 243,-142.5 243,-123.5 168,-123.5"/>
<text text-anchor="middle" x="205.5" y="-130.5" font-family="Helvetica,sans-Serif" font-size="10.00">OrbitState.h</text>
</a>
</g>
</g>
<!-- Node2 -->
<g id="node2" class="node">
<title>Node2</title>
<g id="a_node2"><a xlink:title=" ">
<polygon fill="white" stroke="#bfbfbf" points="19,-67.5 19,-86.5 96,-86.5 96,-67.5 19,-67.5"/>
<text text-anchor="middle" x="57.5" y="-74.5" font-family="Helvetica,sans-Serif" font-size="10.00">Eigen/Dense</text>
</a>
</g>
</g>
<!-- Node1&#45;&gt;Node2 -->
<g id="edge1" class="edge">
<title>Node1&#45;&gt;Node2</title>
<path fill="none" stroke="midnightblue" d="M182.05,-123.44C157.37,-114.44 118.31,-100.19 90.52,-90.05"/>
<polygon fill="midnightblue" stroke="midnightblue" points="91.44,-86.66 80.84,-86.52 89.04,-93.23 91.44,-86.66"/>
</g>
<!-- Node3 -->
<g id="node3" class="node">
<title>Node3</title>
<g id="a_node3"><a xlink:title=" ">
<polygon fill="white" stroke="#bfbfbf" points="0,-6 0,-25 137,-25 137,-6 0,-6"/>
<text text-anchor="middle" x="68.5" y="-13" font-family="Helvetica,sans-Serif" font-size="10.00">autodiff/forward/real.hpp</text>
</a>
</g>
</g>
<!-- Node1&#45;&gt;Node3 -->
<g id="edge2" class="edge">
<title>Node1&#45;&gt;Node3</title>
<path fill="none" stroke="midnightblue" d="M193.04,-123.43C180.49,-114.65 160.72,-100.43 144.5,-87 122.98,-69.18 99.61,-47.04 84.55,-32.38"/>
<polygon fill="midnightblue" stroke="midnightblue" points="86.69,-29.58 77.1,-25.08 81.79,-34.58 86.69,-29.58"/>
</g>
<!-- Node4 -->
<g id="node4" class="node">
<title>Node4</title>
<g id="a_node4"><a xlink:title=" ">
<polygon fill="white" stroke="#bfbfbf" points="220.5,-0.5 220.5,-30.5 336.5,-30.5 336.5,-0.5 220.5,-0.5"/>
<text text-anchor="start" x="228.5" y="-18.5" font-family="Helvetica,sans-Serif" font-size="10.00">autodiff/forward/real</text>
<text text-anchor="middle" x="278.5" y="-7.5" font-family="Helvetica,sans-Serif" font-size="10.00">/eigen.hpp</text>
</a>
</g>
</g>
<!-- Node1&#45;&gt;Node4 -->
<g id="edge3" class="edge">
<title>Node1&#45;&gt;Node4</title>
<path fill="none" stroke="midnightblue" d="M210.99,-123.32C222.15,-105.66 247.82,-65.04 264.1,-39.29"/>
<polygon fill="midnightblue" stroke="midnightblue" points="267.24,-40.87 269.62,-30.55 261.32,-37.13 267.24,-40.87"/>
</g>
<!-- Node5 -->
<g id="node5" class="node">
<title>Node5</title>
<g id="a_node5"><a xlink:title=" ">
<polygon fill="white" stroke="#bfbfbf" points="260.5,-67.5 260.5,-86.5 390.5,-86.5 390.5,-67.5 260.5,-67.5"/>
<text text-anchor="middle" x="325.5" y="-74.5" font-family="Helvetica,sans-Serif" font-size="10.00">boost/preprocessor.hpp</text>
</a>
</g>
</g>
<!-- Node1&#45;&gt;Node5 -->
<g id="edge4" class="edge">
<title>Node1&#45;&gt;Node5</title>
<path fill="none" stroke="midnightblue" d="M224.51,-123.44C244.09,-114.64 274.81,-100.81 297.23,-90.72"/>
<polygon fill="midnightblue" stroke="midnightblue" points="298.89,-93.81 306.57,-86.52 296.02,-87.43 298.89,-93.81"/>
</g>
<!-- Node6 -->
<g id="node6" class="node">
<title>Node6</title>
<g id="a_node6"><a xlink:title=" ">
<polygon fill="white" stroke="#bfbfbf" points="409,-67.5 409,-86.5 474,-86.5 474,-67.5 409,-67.5"/>
<text text-anchor="middle" x="441.5" y="-74.5" font-family="Helvetica,sans-Serif" font-size="10.00">stdexcept</text>
</a>
</g>
</g>
<!-- Node1&#45;&gt;Node6 -->
<g id="edge5" class="edge">
<title>Node1&#45;&gt;Node6</title>
<path fill="none" stroke="midnightblue" d="M242.89,-123.44C285.34,-113.73 354.43,-97.92 398.92,-87.74"/>
<polygon fill="midnightblue" stroke="midnightblue" points="399.87,-91.12 408.84,-85.47 398.31,-84.29 399.87,-91.12"/>
</g>
<!-- Node7 -->
<g id="node7" class="node">
<title>Node7</title>
<g id="a_node7"><a xlink:href="State_8h.html" target="_top" xlink:title="SPICE Interface functions.">
<polygon fill="white" stroke="black" points="153,-67.5 153,-86.5 204,-86.5 204,-67.5 153,-67.5"/>
<text text-anchor="middle" x="178.5" y="-74.5" font-family="Helvetica,sans-Serif" font-size="10.00">State.h</text>
</a>
</g>
</g>
<!-- Node1&#45;&gt;Node7 -->
<g id="edge6" class="edge">
<title>Node1&#45;&gt;Node7</title>
<path fill="none" stroke="midnightblue" d="M201.04,-123.08C197.35,-115.69 191.98,-104.95 187.41,-95.81"/>
<polygon fill="midnightblue" stroke="midnightblue" points="190.48,-94.13 182.88,-86.75 184.22,-97.26 190.48,-94.13"/>
</g>
<!-- Node7&#45;&gt;Node3 -->
<g id="edge7" class="edge">
<title>Node7&#45;&gt;Node3</title>
<path fill="none" stroke="midnightblue" d="M162.74,-67.48C144.52,-57.62 114.33,-41.29 93.03,-29.77"/>
<polygon fill="midnightblue" stroke="midnightblue" points="94.69,-26.69 84.23,-25.01 91.36,-32.85 94.69,-26.69"/>
</g>
<!-- Node7&#45;&gt;Node4 -->
<g id="edge8" class="edge">
<title>Node7&#45;&gt;Node4</title>
<path fill="none" stroke="midnightblue" d="M192.83,-67.48C206.62,-59.27 227.98,-46.56 245.92,-35.88"/>
<polygon fill="midnightblue" stroke="midnightblue" points="248.13,-38.64 254.93,-30.52 244.55,-32.63 248.13,-38.64"/>
</g>
<!-- Node8 -->
<g id="node8" class="node">
<title>Node8</title>
<g id="a_node8"><a xlink:title=" ">
<polygon fill="white" stroke="#bfbfbf" points="155,-6 155,-25 202,-25 202,-6 155,-6"/>
<text text-anchor="middle" x="178.5" y="-13" font-family="Helvetica,sans-Serif" font-size="10.00">vector</text>
</a>
</g>
</g>
<!-- Node7&#45;&gt;Node8 -->
<g id="edge9" class="edge">
<title>Node7&#45;&gt;Node8</title>
<path fill="none" stroke="midnightblue" d="M178.5,-67.48C178.5,-59.08 178.5,-45.98 178.5,-35.16"/>
<polygon fill="midnightblue" stroke="midnightblue" points="182,-35.01 178.5,-25.01 175,-35.01 182,-35.01"/>
</g>
</g>
</svg>
