<?xml version="1.0" encoding="UTF-8" standalone="no"?>
<!DOCTYPE svg PUBLIC "-//W3C//DTD SVG 1.1//EN"
 "http://www.w3.org/Graphics/SVG/1.1/DTD/svg11.dtd">
<!-- Generated by graphviz version 2.43.0 (0)
 -->
<!-- Title: LPT::MeanAnomToEccentricAnom Pages: 1 -->
<svg width="305pt" height="46pt"
 viewBox="0.00 0.00 305.00 46.00" xmlns="http://www.w3.org/2000/svg" xmlns:xlink="http://www.w3.org/1999/xlink">
<g id="graph0" class="graph" transform="scale(1 1) rotate(0) translate(4 42)">
<title>LPT::MeanAnomToEccentricAnom</title>
<polygon fill="white" stroke="transparent" points="-4,4 -4,-42 301,-42 301,4 -4,4"/>
<!-- Node1 -->
<g id="node1" class="node">
<title>Node1</title>
<g id="a_node1"><a xlink:title="Compute mean anomaly from the Eccentric anomaly.">
<polygon fill="#bfbfbf" stroke="black" points="0,-0.5 0,-19.5 178,-19.5 178,-0.5 0,-0.5"/>
<text text-anchor="middle" x="89" y="-7.5" font-family="Helvetica,sans-Serif" font-size="10.00">LPT::MeanAnomToEccentricAnom</text>
</a>
</g>
</g>
<!-- Node1&#45;&gt;Node1 -->
<g id="edge1" class="edge">
<title>Node1&#45;&gt;Node1</title>
<path fill="none" stroke="midnightblue" d="M63.41,-19.76C50.97,-28.57 59.5,-38 89,-38 108.82,-38 119.18,-33.74 120.06,-28.27"/>
<polygon fill="midnightblue" stroke="midnightblue" points="122.94,-26.27 114.59,-19.76 117.05,-30.06 122.94,-26.27"/>
</g>
<!-- Node2 -->
<g id="node2" class="node">
<title>Node2</title>
<g id="a_node2"><a xlink:href="MathUtils_8cpp.html#a7d7ca6984da9a017ed7e3d34657fc87b" target="_top" xlink:title="Wrap the angle between &#45;pi and pi.">
<polygon fill="white" stroke="black" points="214,-0.5 214,-19.5 297,-19.5 297,-0.5 214,-0.5"/>
<text text-anchor="middle" x="255.5" y="-7.5" font-family="Helvetica,sans-Serif" font-size="10.00">LPT::wrapToPi</text>
</a>
</g>
</g>
<!-- Node1&#45;&gt;Node2 -->
<g id="edge2" class="edge">
<title>Node1&#45;&gt;Node2</title>
<path fill="none" stroke="midnightblue" d="M178.03,-10C186.84,-10 195.56,-10 203.78,-10"/>
<polygon fill="midnightblue" stroke="midnightblue" points="203.9,-13.5 213.9,-10 203.9,-6.5 203.9,-13.5"/>
</g>
<!-- Node2&#45;&gt;Node2 -->
<g id="edge3" class="edge">
<title>Node2&#45;&gt;Node2</title>
<path fill="none" stroke="midnightblue" d="M229.91,-19.76C217.47,-28.57 226,-38 255.5,-38 275.32,-38 285.68,-33.74 286.56,-28.27"/>
<polygon fill="midnightblue" stroke="midnightblue" points="289.44,-26.27 281.09,-19.76 283.55,-30.06 289.44,-26.27"/>
</g>
</g>
</svg>
