<?xml version="1.0" encoding="UTF-8" standalone="no"?>
<!DOCTYPE svg PUBLIC "-//W3C//DTD SVG 1.1//EN"
 "http://www.w3.org/Graphics/SVG/1.1/DTD/svg11.dtd">
<!-- Generated by graphviz version 2.43.0 (0)
 -->
<!-- Title: OrbitState.h Pages: 1 -->
<!--zoomable 252 -->
<svg id="main" version="1.1" xmlns="http://www.w3.org/2000/svg" xmlns:xlink="http://www.w3.org/1999/xlink" xml:space="preserve" onload="init(evt)">
<style type="text/css"><![CDATA[
.edge:hover path { stroke: red; }
.edge:hover polygon { stroke: red; fill: red; }
]]></style>
<script type="text/javascript"><![CDATA[
var edges = document.getElementsByTagName('g');
if (edges && edges.length) {
  for (var i=0;i<edges.length;i++) {
    if (edges[i].id.substr(0,4)=='edge') {
      edges[i].setAttribute('class','edge');
    }
  }
}
]]></script>
        <defs>
                <circle id="rim" cx="0" cy="0" r="7"/>
                <circle id="rim2" cx="0" cy="0" r="3.5"/>
                <g id="zoomPlus">
                        <use xlink:href="#rim" fill="#404040">
                                <set attributeName="fill" to="#808080" begin="zoomplus.mouseover" end="zoomplus.mouseout"/>
                        </use>
                        <path d="M-4,0h8M0,-4v8" fill="none" stroke="white" stroke-width="1.5" pointer-events="none"/>
                </g>
                <g id="zoomMin">
                        <use xlink:href="#rim" fill="#404040">
                                <set attributeName="fill" to="#808080" begin="zoomminus.mouseover" end="zoomminus.mouseout"/>
                        </use>
                        <path d="M-4,0h8" fill="none" stroke="white" stroke-width="1.5" pointer-events="none"/>
                </g>
                <g id="dirArrow">
                        <path fill="none" stroke="white" stroke-width="1.5" d="M0,-3.0v7 M-2.5,-0.5L0,-3.0L2.5,-0.5"/>
                </g>
               <g id="resetDef">
                       <use xlink:href="#rim2" fill="#404040">
                               <set attributeName="fill" to="#808080" begin="reset.mouseover" end="reset.mouseout"/>
                       </use>
               </g>
        </defs>

<script type="text/javascript">
var viewWidth = 2340;
var viewHeight = 252;
var sectionId = 'dynsection-1';
</script>
<script xlink:href="svgpan.js"/>
<svg id="graph" class="graph">
<g id="viewport">
<title>OrbitState.h</title>
<polygon fill="white" stroke="transparent" points="-4,4 -4,-248 2335.84,-248 2335.84,4 -4,4"/>
<!-- Node1 -->
<g id="node1" class="node">
<title>Node1</title>
<g id="a_node1"><a xlink:title="Orbit states.">
<polygon fill="#bfbfbf" stroke="black" points="1495.53,-224.5 1495.53,-243.5 1570.53,-243.5 1570.53,-224.5 1495.53,-224.5"/>
<text text-anchor="middle" x="1533.03" y="-231.5" font-family="Helvetica,sans-Serif" font-size="10.00">OrbitState.h</text>
</a>
</g>
</g>
<!-- Node2 -->
<g id="node2" class="node">
<title>Node2</title>
<g id="a_node2"><a xlink:href="Agent_8h.html" target="_top" xlink:title="List of agents.">
<polygon fill="white" stroke="black" points="922.03,-112.5 922.03,-131.5 976.03,-131.5 976.03,-112.5 922.03,-112.5"/>
<text text-anchor="middle" x="949.03" y="-119.5" font-family="Helvetica,sans-Serif" font-size="10.00">Agent.h</text>
</a>
</g>
</g>
<!-- Node1&#45;&gt;Node2 -->
<g id="edge1" class="edge">
<title>Node1&#45;&gt;Node2</title>
<path fill="none" stroke="midnightblue" d="M1485.27,-232.32C1375.84,-230.19 1110.1,-221.61 1028.03,-188 997.13,-175.35 969.01,-146.22 956.25,-131.64"/>
<polygon fill="midnightblue" stroke="midnightblue" points="1485.3,-235.82 1495.36,-232.51 1485.43,-228.82 1485.3,-235.82"/>
</g>
<!-- Node4 -->
<g id="node4" class="node">
<title>Node4</title>
<g id="a_node4"><a xlink:href="GNSSConstellation_8h.html" target="_top" xlink:title=" ">
<polygon fill="white" stroke="black" points="1186.53,-56.5 1186.53,-75.5 1303.53,-75.5 1303.53,-56.5 1186.53,-56.5"/>
<text text-anchor="middle" x="1245.03" y="-63.5" font-family="Helvetica,sans-Serif" font-size="10.00">GNSSConstellation.h</text>
</a>
</g>
</g>
<!-- Node1&#45;&gt;Node4 -->
<g id="edge39" class="edge">
<title>Node1&#45;&gt;Node4</title>
<path fill="none" stroke="midnightblue" d="M1485.18,-230.14C1376.06,-222.53 1114.12,-197.65 1061.03,-132 1024.44,-86.75 1119.77,-72.96 1186.47,-68.79"/>
<polygon fill="midnightblue" stroke="midnightblue" points="1485.04,-233.64 1495.25,-230.83 1485.51,-226.66 1485.04,-233.64"/>
</g>
<!-- Node6 -->
<g id="node6" class="node">
<title>Node6</title>
<g id="a_node6"><a xlink:href="ExampleConstellations_8cpp.html" target="_top" xlink:title="Setup GNSS Constellation.">
<polygon fill="white" stroke="black" points="1281.53,-0.5 1281.53,-19.5 1430.53,-19.5 1430.53,-0.5 1281.53,-0.5"/>
<text text-anchor="middle" x="1356.03" y="-7.5" font-family="Helvetica,sans-Serif" font-size="10.00">ExampleConstellations.cpp</text>
</a>
</g>
</g>
<!-- Node1&#45;&gt;Node6 -->
<g id="edge64" class="edge">
<title>Node1&#45;&gt;Node6</title>
<path fill="none" stroke="midnightblue" d="M1580.99,-231.47C1687.51,-226.38 1928.69,-204.58 1853.03,-112 1825.73,-78.59 1548.9,-37.14 1420.64,-19.54"/>
<polygon fill="midnightblue" stroke="midnightblue" points="1580.64,-227.98 1570.81,-231.92 1580.95,-234.97 1580.64,-227.98"/>
</g>
<!-- Node7 -->
<g id="node7" class="node">
<title>Node7</title>
<g id="a_node7"><a xlink:href="ExampleEKF_8cpp.html" target="_top" xlink:title="Example of Extended Kalman Filter for orbit determination.">
<polygon fill="white" stroke="black" points="1448.53,-0.5 1448.53,-19.5 1545.53,-19.5 1545.53,-0.5 1448.53,-0.5"/>
<text text-anchor="middle" x="1497.03" y="-7.5" font-family="Helvetica,sans-Serif" font-size="10.00">ExampleEKF.cpp</text>
</a>
</g>
</g>
<!-- Node1&#45;&gt;Node7 -->
<g id="edge65" class="edge">
<title>Node1&#45;&gt;Node7</title>
<path fill="none" stroke="midnightblue" d="M1580.9,-233.51C1765.8,-234.61 2418.34,-230.25 2322.03,-112 2272.65,-51.37 1715.47,-21.01 1545.78,-13.12"/>
<polygon fill="midnightblue" stroke="midnightblue" points="1580.7,-230 1570.67,-233.44 1580.65,-237 1580.7,-230"/>
</g>
<!-- Node8 -->
<g id="node8" class="node">
<title>Node8</title>
<g id="a_node8"><a xlink:href="ExampleEKFApp_8cpp.html" target="_top" xlink:title="Example of EKF application.">
<polygon fill="white" stroke="black" points="659.03,-0.5 659.03,-19.5 775.03,-19.5 775.03,-0.5 659.03,-0.5"/>
<text text-anchor="middle" x="717.03" y="-7.5" font-family="Helvetica,sans-Serif" font-size="10.00">ExampleEKFApp.cpp</text>
</a>
</g>
</g>
<!-- Node1&#45;&gt;Node8 -->
<g id="edge66" class="edge">
<title>Node1&#45;&gt;Node8</title>
<path fill="none" stroke="midnightblue" d="M1485.32,-233.28C1329.73,-233.74 823.11,-231.54 407.03,-188 222.14,-168.65 86.81,-242.45 4.03,-76 0.07,-68.04 -2.05,-62.48 4.03,-56 15.21,-44.1 490.64,-21.32 658.83,-13.62"/>
<polygon fill="midnightblue" stroke="midnightblue" points="1485.5,-236.78 1495.48,-233.25 1485.47,-229.78 1485.5,-236.78"/>
</g>
<!-- Node9 -->
<g id="node9" class="node">
<title>Node9</title>
<g id="a_node9"><a xlink:href="ExamplePropagation_8cpp.html" target="_top" xlink:title="Example propagating both GPS constellation and Lunar Satellite.">
<polygon fill="white" stroke="black" points="979.03,-0.5 979.03,-19.5 1117.03,-19.5 1117.03,-0.5 979.03,-0.5"/>
<text text-anchor="middle" x="1048.03" y="-7.5" font-family="Helvetica,sans-Serif" font-size="10.00">ExamplePropagation.cpp</text>
</a>
</g>
</g>
<!-- Node1&#45;&gt;Node9 -->
<g id="edge68" class="edge">
<title>Node1&#45;&gt;Node9</title>
<path fill="none" stroke="midnightblue" d="M1485.04,-231.91C1237.11,-225.8 109.22,-191.74 12.03,-76 6.32,-69.19 5.88,-62.42 12.03,-56 20.41,-47.25 747.97,-21.37 978.68,-13.38"/>
<polygon fill="midnightblue" stroke="midnightblue" points="1485.09,-235.42 1495.17,-232.16 1485.26,-228.42 1485.09,-235.42"/>
</g>
<!-- Node14 -->
<g id="node14" class="node">
<title>Node14</title>
<g id="a_node14"><a xlink:href="GNSSChannel_8cpp.html" target="_top" xlink:title="GNSS Channel.">
<polygon fill="white" stroke="black" points="604.03,-56.5 604.03,-75.5 708.03,-75.5 708.03,-56.5 604.03,-56.5"/>
<text text-anchor="middle" x="656.03" y="-63.5" font-family="Helvetica,sans-Serif" font-size="10.00">GNSSChannel.cpp</text>
</a>
</g>
</g>
<!-- Node1&#45;&gt;Node14 -->
<g id="edge52" class="edge">
<title>Node1&#45;&gt;Node14</title>
<path fill="none" stroke="midnightblue" d="M1485.17,-232.86C1322.26,-232.05 795.78,-226.46 731.03,-188 687.05,-161.87 665.16,-98.89 658.39,-75.73"/>
<polygon fill="midnightblue" stroke="midnightblue" points="1485.35,-236.37 1495.37,-232.91 1485.38,-229.37 1485.35,-236.37"/>
</g>
<!-- Node17 -->
<g id="node17" class="node">
<title>Node17</title>
<g id="a_node17"><a xlink:href="CommDevice_8h.html" target="_top" xlink:title="Communication devices.">
<polygon fill="white" stroke="black" points="740.03,-168.5 740.03,-187.5 832.03,-187.5 832.03,-168.5 740.03,-168.5"/>
<text text-anchor="middle" x="786.03" y="-175.5" font-family="Helvetica,sans-Serif" font-size="10.00">CommDevice.h</text>
</a>
</g>
</g>
<!-- Node1&#45;&gt;Node17 -->
<g id="edge21" class="edge">
<title>Node1&#45;&gt;Node17</title>
<path fill="none" stroke="midnightblue" d="M1485.44,-229.56C1350.43,-219.8 966.15,-192.02 832.52,-182.36"/>
<polygon fill="midnightblue" stroke="midnightblue" points="1485.25,-233.05 1495.48,-230.29 1485.75,-226.07 1485.25,-233.05"/>
</g>
<!-- Node21 -->
<g id="node21" class="node">
<title>Node21</title>
<g id="a_node21"><a xlink:href="Dynamics_8h.html" target="_top" xlink:title="Interface for Dynamics.">
<polygon fill="white" stroke="black" points="1390.03,-168.5 1390.03,-187.5 1464.03,-187.5 1464.03,-168.5 1390.03,-168.5"/>
<text text-anchor="middle" x="1427.03" y="-175.5" font-family="Helvetica,sans-Serif" font-size="10.00">Dynamics.h</text>
</a>
</g>
</g>
<!-- Node1&#45;&gt;Node21 -->
<g id="edge40" class="edge">
<title>Node1&#45;&gt;Node21</title>
<path fill="none" stroke="midnightblue" d="M1506.98,-219.73C1487.35,-209.73 1461,-196.31 1444.02,-187.65"/>
<polygon fill="midnightblue" stroke="midnightblue" points="1505.5,-222.9 1516,-224.32 1508.68,-216.67 1505.5,-222.9"/>
</g>
<!-- Node26 -->
<g id="node26" class="node">
<title>Node26</title>
<g id="a_node26"><a xlink:href="ExamplePerformance_8cpp.html" target="_top" xlink:title="Example for performance testing of spherical harmonics computation.">
<polygon fill="white" stroke="black" points="1550.03,-112.5 1550.03,-131.5 1692.03,-131.5 1692.03,-112.5 1550.03,-112.5"/>
<text text-anchor="middle" x="1621.03" y="-119.5" font-family="Helvetica,sans-Serif" font-size="10.00">ExamplePerformance.cpp</text>
</a>
</g>
</g>
<!-- Node1&#45;&gt;Node26 -->
<g id="edge67" class="edge">
<title>Node1&#45;&gt;Node26</title>
<path fill="none" stroke="midnightblue" d="M1546.41,-216.27C1565.44,-192.49 1599.6,-149.79 1614.16,-131.59"/>
<polygon fill="midnightblue" stroke="midnightblue" points="1543.45,-214.37 1539.94,-224.37 1548.92,-218.75 1543.45,-214.37"/>
</g>
<!-- Node27 -->
<g id="node27" class="node">
<title>Node27</title>
<g id="a_node27"><a xlink:href="LunarMeanOsc_8cpp.html" target="_top" xlink:title="Lunar Mean and Osculating Elements.">
<polygon fill="white" stroke="black" points="1900.53,-112.5 1900.53,-131.5 2009.53,-131.5 2009.53,-112.5 1900.53,-112.5"/>
<text text-anchor="middle" x="1955.03" y="-119.5" font-family="Helvetica,sans-Serif" font-size="10.00">LunarMeanOsc.cpp</text>
</a>
</g>
</g>
<!-- Node1&#45;&gt;Node27 -->
<g id="edge53" class="edge">
<title>Node1&#45;&gt;Node27</title>
<path fill="none" stroke="midnightblue" d="M1580.9,-230.56C1664.43,-225.69 1832.99,-213.05 1886.03,-188 1914.01,-174.79 1938.11,-145.93 1948.93,-131.53"/>
<polygon fill="midnightblue" stroke="midnightblue" points="1580.45,-227.08 1570.66,-231.14 1580.85,-234.07 1580.45,-227.08"/>
</g>
<!-- Node28 -->
<g id="node28" class="node">
<title>Node28</title>
<g id="a_node28"><a xlink:href="OrbitState_8cpp.html" target="_top" xlink:title="Orbit states.">
<polygon fill="white" stroke="black" points="2155.03,-112.5 2155.03,-131.5 2241.03,-131.5 2241.03,-112.5 2155.03,-112.5"/>
<text text-anchor="middle" x="2198.03" y="-119.5" font-family="Helvetica,sans-Serif" font-size="10.00">OrbitState.cpp</text>
</a>
</g>
</g>
<!-- Node1&#45;&gt;Node28 -->
<g id="edge55" class="edge">
<title>Node1&#45;&gt;Node28</title>
<path fill="none" stroke="midnightblue" d="M1580.69,-233.75C1672.17,-234.1 1878.1,-229.68 2045.03,-188 2097.67,-174.86 2155.51,-145.96 2182.52,-131.54"/>
<polygon fill="midnightblue" stroke="midnightblue" points="1580.66,-230.25 1570.64,-233.69 1580.61,-237.25 1580.66,-230.25"/>
</g>
<!-- Node29 -->
<g id="node29" class="node">
<title>Node29</title>
<g id="a_node29"><a xlink:href="OrbitStateUtils_8h.html" target="_top" xlink:title="Util functions for state conversions.">
<polygon fill="white" stroke="black" points="1938.03,-168.5 1938.03,-187.5 2036.03,-187.5 2036.03,-168.5 1938.03,-168.5"/>
<text text-anchor="middle" x="1987.03" y="-175.5" font-family="Helvetica,sans-Serif" font-size="10.00">OrbitStateUtils.h</text>
</a>
</g>
</g>
<!-- Node1&#45;&gt;Node29 -->
<g id="edge56" class="edge">
<title>Node1&#45;&gt;Node29</title>
<path fill="none" stroke="midnightblue" d="M1580.89,-227.92C1654.65,-219.99 1800.5,-203.93 1924.03,-188 1928.52,-187.42 1933.19,-186.8 1937.87,-186.16"/>
<polygon fill="midnightblue" stroke="midnightblue" points="1580.11,-224.48 1570.54,-229.03 1580.86,-231.44 1580.11,-224.48"/>
</g>
<!-- Node31 -->
<g id="node31" class="node">
<title>Node31</title>
<g id="a_node31"><a xlink:href="TLE_8cpp.html" target="_top" xlink:title="Routines to process TLE files.">
<polygon fill="white" stroke="black" points="2259.03,-112.5 2259.03,-131.5 2313.03,-131.5 2313.03,-112.5 2259.03,-112.5"/>
<text text-anchor="middle" x="2286.03" y="-119.5" font-family="Helvetica,sans-Serif" font-size="10.00">TLE.cpp</text>
</a>
</g>
</g>
<!-- Node1&#45;&gt;Node31 -->
<g id="edge63" class="edge">
<title>Node1&#45;&gt;Node31</title>
<path fill="none" stroke="midnightblue" d="M1580.78,-232.87C1677.35,-231.79 1902.42,-225.11 2087.03,-188 2153.84,-174.57 2229.54,-145.94 2265.26,-131.59"/>
<polygon fill="midnightblue" stroke="midnightblue" points="1580.7,-229.37 1570.74,-232.97 1580.77,-236.37 1580.7,-229.37"/>
</g>
<!-- Node3 -->
<g id="node3" class="node">
<title>Node3</title>
<g id="a_node3"><a xlink:href="Agent_8cpp.html" target="_top" xlink:title="Base class fo.">
<polygon fill="white" stroke="black" points="1026.53,-56.5 1026.53,-75.5 1091.53,-75.5 1091.53,-56.5 1026.53,-56.5"/>
<text text-anchor="middle" x="1059.03" y="-63.5" font-family="Helvetica,sans-Serif" font-size="10.00">Agent.cpp</text>
</a>
</g>
</g>
<!-- Node2&#45;&gt;Node3 -->
<g id="edge2" class="edge">
<title>Node2&#45;&gt;Node3</title>
<path fill="none" stroke="midnightblue" d="M975.79,-107.86C996.19,-97.85 1023.7,-84.35 1041.4,-75.65"/>
<polygon fill="midnightblue" stroke="midnightblue" points="974.14,-104.78 966.71,-112.32 977.22,-111.06 974.14,-104.78"/>
</g>
<!-- Node2&#45;&gt;Node4 -->
<g id="edge3" class="edge">
<title>Node2&#45;&gt;Node4</title>
<path fill="none" stroke="midnightblue" d="M986.22,-114.22C1040.08,-104.39 1139.75,-86.21 1198.44,-75.5"/>
<polygon fill="midnightblue" stroke="midnightblue" points="985.29,-110.83 976.08,-116.06 986.55,-117.71 985.29,-110.83"/>
</g>
<!-- Node2&#45;&gt;Node6 -->
<g id="edge17" class="edge">
<title>Node2&#45;&gt;Node6</title>
<path fill="none" stroke="midnightblue" d="M986.31,-118.13C1073.33,-111.18 1284.61,-92.8 1312.03,-76 1333.65,-62.76 1347.08,-34.45 1352.81,-19.95"/>
<polygon fill="midnightblue" stroke="midnightblue" points="985.78,-114.66 976.09,-118.94 986.33,-121.64 985.78,-114.66"/>
</g>
<!-- Node2&#45;&gt;Node7 -->
<g id="edge18" class="edge">
<title>Node2&#45;&gt;Node7</title>
<path fill="none" stroke="midnightblue" d="M986.34,-117.97C1070.14,-110.95 1271.12,-92.88 1337.03,-76 1391.35,-62.09 1451.68,-33.82 1480.26,-19.59"/>
<polygon fill="midnightblue" stroke="midnightblue" points="985.92,-114.49 976.25,-118.81 986.5,-121.47 985.92,-114.49"/>
</g>
<!-- Node2&#45;&gt;Node8 -->
<g id="edge19" class="edge">
<title>Node2&#45;&gt;Node8</title>
<path fill="none" stroke="midnightblue" d="M965.86,-104.72C978.32,-90.69 991.22,-70.46 979.03,-56 953.49,-25.7 844.29,-15.8 775.18,-12.57"/>
<polygon fill="midnightblue" stroke="midnightblue" points="963.12,-102.53 958.76,-112.18 968.19,-107.35 963.12,-102.53"/>
</g>
<!-- Node2&#45;&gt;Node9 -->
<g id="edge20" class="edge">
<title>Node2&#45;&gt;Node9</title>
<path fill="none" stroke="midnightblue" d="M986.17,-115.1C1026.31,-107.88 1086.38,-94.31 1100.03,-76 1115.41,-55.38 1084.26,-32.01 1063.85,-19.68"/>
<polygon fill="midnightblue" stroke="midnightblue" points="985.43,-111.68 976.18,-116.84 986.64,-118.57 985.43,-111.68"/>
</g>
<!-- Node10 -->
<g id="node10" class="node">
<title>Node10</title>
<g id="a_node10"><a xlink:href="GNSSStateEstimationApp_8h.html" target="_top" xlink:title="State Estimation Application Using GNSS Measurement.">
<polygon fill="white" stroke="black" points="285.53,-56.5 285.53,-75.5 434.53,-75.5 434.53,-56.5 285.53,-56.5"/>
<text text-anchor="middle" x="360.03" y="-63.5" font-family="Helvetica,sans-Serif" font-size="10.00">GNSSStateEstimationApp.h</text>
</a>
</g>
</g>
<!-- Node2&#45;&gt;Node10 -->
<g id="edge9" class="edge">
<title>Node2&#45;&gt;Node10</title>
<path fill="none" stroke="midnightblue" d="M911.76,-117.58C816.34,-108.84 561.85,-85.5 434.61,-73.84"/>
<polygon fill="midnightblue" stroke="midnightblue" points="911.53,-121.08 921.8,-118.5 912.17,-114.11 911.53,-121.08"/>
</g>
<!-- Node12 -->
<g id="node12" class="node">
<title>Node12</title>
<g id="a_node12"><a xlink:href="StateEstimationApp_8h.html" target="_top" xlink:title="Base class for State Estimation Application.">
<polygon fill="white" stroke="black" points="145.03,-56.5 145.03,-75.5 267.03,-75.5 267.03,-56.5 145.03,-56.5"/>
<text text-anchor="middle" x="206.03" y="-63.5" font-family="Helvetica,sans-Serif" font-size="10.00">StateEstimationApp.h</text>
</a>
</g>
</g>
<!-- Node2&#45;&gt;Node12 -->
<g id="edge12" class="edge">
<title>Node2&#45;&gt;Node12</title>
<path fill="none" stroke="midnightblue" d="M911.55,-117.43C892.53,-115.67 869.06,-113.6 848.03,-112 594.04,-92.69 529.6,-100.25 276.03,-76 273.1,-75.72 270.11,-75.41 267.09,-75.09"/>
<polygon fill="midnightblue" stroke="midnightblue" points="911.33,-120.92 921.61,-118.36 911.98,-113.95 911.33,-120.92"/>
</g>
<!-- Node2&#45;&gt;Node14 -->
<g id="edge14" class="edge">
<title>Node2&#45;&gt;Node14</title>
<path fill="none" stroke="midnightblue" d="M911.95,-114.17C858.63,-104.34 760.34,-86.22 702.32,-75.53"/>
<polygon fill="midnightblue" stroke="midnightblue" points="911.52,-117.65 921.99,-116.02 912.79,-110.76 911.52,-117.65"/>
</g>
<!-- Node15 -->
<g id="node15" class="node">
<title>Node15</title>
<g id="a_node15"><a xlink:href="GNSSTransmitter_8cpp.html" target="_top" xlink:title="Handles GNSS transmit.">
<polygon fill="white" stroke="black" points="726.53,-56.5 726.53,-75.5 845.53,-75.5 845.53,-56.5 726.53,-56.5"/>
<text text-anchor="middle" x="786.03" y="-63.5" font-family="Helvetica,sans-Serif" font-size="10.00">GNSSTransmitter.cpp</text>
</a>
</g>
</g>
<!-- Node2&#45;&gt;Node15 -->
<g id="edge15" class="edge">
<title>Node2&#45;&gt;Node15</title>
<path fill="none" stroke="midnightblue" d="M913.33,-109.17C882.64,-99 839.11,-84.59 811.74,-75.52"/>
<polygon fill="midnightblue" stroke="midnightblue" points="912.61,-112.62 923.2,-112.44 914.81,-105.98 912.61,-112.62"/>
</g>
<!-- Node16 -->
<g id="node16" class="node">
<title>Node16</title>
<g id="a_node16"><a xlink:href="SpaceChannel_8cpp.html" target="_top" xlink:title="Base spacechannel class (Under devlopment )">
<polygon fill="white" stroke="black" points="864.03,-56.5 864.03,-75.5 970.03,-75.5 970.03,-56.5 864.03,-56.5"/>
<text text-anchor="middle" x="917.03" y="-63.5" font-family="Helvetica,sans-Serif" font-size="10.00">SpaceChannel.cpp</text>
</a>
</g>
</g>
<!-- Node2&#45;&gt;Node16 -->
<g id="edge16" class="edge">
<title>Node2&#45;&gt;Node16</title>
<path fill="none" stroke="midnightblue" d="M938.53,-103.27C933.06,-94.05 926.61,-83.17 922.22,-75.75"/>
<polygon fill="midnightblue" stroke="midnightblue" points="935.64,-105.26 943.75,-112.08 941.66,-101.7 935.64,-105.26"/>
</g>
<!-- Node5 -->
<g id="node5" class="node">
<title>Node5</title>
<g id="a_node5"><a xlink:href="GNSSConstellation_8cpp.html" target="_top" xlink:title="GNSS Constellation.">
<polygon fill="white" stroke="black" points="1135.03,-0.5 1135.03,-19.5 1263.03,-19.5 1263.03,-0.5 1135.03,-0.5"/>
<text text-anchor="middle" x="1199.03" y="-7.5" font-family="Helvetica,sans-Serif" font-size="10.00">GNSSConstellation.cpp</text>
</a>
</g>
</g>
<!-- Node4&#45;&gt;Node5 -->
<g id="edge4" class="edge">
<title>Node4&#45;&gt;Node5</title>
<path fill="none" stroke="midnightblue" d="M1230.92,-48.43C1222.86,-38.97 1213.07,-27.48 1206.49,-19.75"/>
<polygon fill="midnightblue" stroke="midnightblue" points="1228.29,-50.74 1237.44,-56.08 1233.62,-46.2 1228.29,-50.74"/>
</g>
<!-- Node4&#45;&gt;Node6 -->
<g id="edge5" class="edge">
<title>Node4&#45;&gt;Node6</title>
<path fill="none" stroke="midnightblue" d="M1272.04,-51.86C1292.62,-41.85 1320.38,-28.35 1338.24,-19.65"/>
<polygon fill="midnightblue" stroke="midnightblue" points="1270.33,-48.8 1262.87,-56.32 1273.39,-55.1 1270.33,-48.8"/>
</g>
<!-- Node4&#45;&gt;Node7 -->
<g id="edge6" class="edge">
<title>Node4&#45;&gt;Node7</title>
<path fill="none" stroke="midnightblue" d="M1294.75,-54.35C1342.38,-44.14 1413.31,-28.94 1457.29,-19.52"/>
<polygon fill="midnightblue" stroke="midnightblue" points="1294.01,-50.93 1284.96,-56.44 1295.47,-57.77 1294.01,-50.93"/>
</g>
<!-- Node4&#45;&gt;Node8 -->
<g id="edge7" class="edge">
<title>Node4&#45;&gt;Node8</title>
<path fill="none" stroke="midnightblue" d="M1176.48,-56.5C1174.98,-56.33 1173.5,-56.16 1172.03,-56 1029.63,-40.18 861.84,-24.3 775.26,-16.31"/>
<polygon fill="midnightblue" stroke="midnightblue" points="1176.14,-59.98 1186.48,-57.65 1176.94,-53.03 1176.14,-59.98"/>
</g>
<!-- Node4&#45;&gt;Node9 -->
<g id="edge8" class="edge">
<title>Node4&#45;&gt;Node9</title>
<path fill="none" stroke="midnightblue" d="M1203.8,-53.7C1166.62,-43.51 1112.76,-28.74 1079.1,-19.52"/>
<polygon fill="midnightblue" stroke="midnightblue" points="1203.25,-57.18 1213.82,-56.44 1205.1,-50.42 1203.25,-57.18"/>
</g>
<!-- Node10&#45;&gt;Node8 -->
<g id="edge11" class="edge">
<title>Node10&#45;&gt;Node8</title>
<path fill="none" stroke="midnightblue" d="M426.69,-54.92C494.14,-44.71 597.26,-29.12 660.73,-19.52"/>
<polygon fill="midnightblue" stroke="midnightblue" points="425.96,-51.49 416.6,-56.44 427.01,-58.41 425.96,-51.49"/>
</g>
<!-- Node11 -->
<g id="node11" class="node">
<title>Node11</title>
<g id="a_node11"><a xlink:href="GNSSStateEstimationApp_8cpp.html" target="_top" xlink:title="State Estimation Application Using GNSS Measurement.">
<polygon fill="white" stroke="black" points="285.53,-0.5 285.53,-19.5 446.53,-19.5 446.53,-0.5 285.53,-0.5"/>
<text text-anchor="middle" x="366.03" y="-7.5" font-family="Helvetica,sans-Serif" font-size="10.00">GNSSStateEstimationApp.cpp</text>
</a>
</g>
</g>
<!-- Node10&#45;&gt;Node11 -->
<g id="edge10" class="edge">
<title>Node10&#45;&gt;Node11</title>
<path fill="none" stroke="midnightblue" d="M362.13,-46.1C363.13,-37.14 364.27,-26.86 365.06,-19.75"/>
<polygon fill="midnightblue" stroke="midnightblue" points="358.65,-45.76 361.02,-56.08 365.61,-46.53 358.65,-45.76"/>
</g>
<!-- Node13 -->
<g id="node13" class="node">
<title>Node13</title>
<g id="a_node13"><a xlink:href="StateEstimationApp_8cpp.html" target="_top" xlink:title="Base class for State Estimation Application.">
<polygon fill="white" stroke="black" points="133.03,-0.5 133.03,-19.5 267.03,-19.5 267.03,-0.5 133.03,-0.5"/>
<text text-anchor="middle" x="200.03" y="-7.5" font-family="Helvetica,sans-Serif" font-size="10.00">StateEstimationApp.cpp</text>
</a>
</g>
</g>
<!-- Node12&#45;&gt;Node13 -->
<g id="edge13" class="edge">
<title>Node12&#45;&gt;Node13</title>
<path fill="none" stroke="midnightblue" d="M203.93,-46.1C202.94,-37.14 201.79,-26.86 201,-19.75"/>
<polygon fill="midnightblue" stroke="midnightblue" points="200.46,-46.53 205.04,-56.08 207.42,-45.76 200.46,-46.53"/>
</g>
<!-- Node17&#45;&gt;Node2 -->
<g id="edge22" class="edge">
<title>Node17&#45;&gt;Node2</title>
<path fill="none" stroke="midnightblue" d="M821.73,-165.17C852.43,-155 895.95,-140.59 923.32,-131.52"/>
<polygon fill="midnightblue" stroke="midnightblue" points="820.25,-161.98 811.86,-168.44 822.45,-168.62 820.25,-161.98"/>
</g>
<!-- Node17&#45;&gt;Node10 -->
<g id="edge23" class="edge">
<title>Node17&#45;&gt;Node10</title>
<path fill="none" stroke="midnightblue" d="M729.79,-173.24C646.19,-167.03 493.53,-153.2 443.03,-132 411.3,-118.68 381.41,-89.87 367.77,-75.5"/>
<polygon fill="midnightblue" stroke="midnightblue" points="729.65,-176.74 739.88,-173.97 730.16,-169.75 729.65,-176.74"/>
</g>
<!-- Node17&#45;&gt;Node12 -->
<g id="edge24" class="edge">
<title>Node17&#45;&gt;Node12</title>
<path fill="none" stroke="midnightblue" d="M729.65,-173.74C655.11,-168.65 520.01,-156.73 407.03,-132 340.21,-117.38 264.07,-89.56 227.66,-75.54"/>
<polygon fill="midnightblue" stroke="midnightblue" points="729.54,-177.24 739.75,-174.41 730.01,-170.26 729.54,-177.24"/>
</g>
<!-- Node17&#45;&gt;Node16 -->
<g id="edge38" class="edge">
<title>Node17&#45;&gt;Node16</title>
<path fill="none" stroke="midnightblue" d="M806.98,-162.79C819.24,-154.24 834.84,-142.92 848.03,-132 870.85,-113.1 895.69,-88.65 908.43,-75.79"/>
<polygon fill="midnightblue" stroke="midnightblue" points="804.98,-159.93 798.73,-168.49 808.95,-165.69 804.98,-159.93"/>
</g>
<!-- Node18 -->
<g id="node18" class="node">
<title>Node18</title>
<g id="a_node18"><a xlink:href="GNSSReceiver_8h.html" target="_top" xlink:title="GNSS receiver class.">
<polygon fill="white" stroke="black" points="452.53,-112.5 452.53,-131.5 547.53,-131.5 547.53,-112.5 452.53,-112.5"/>
<text text-anchor="middle" x="500.03" y="-119.5" font-family="Helvetica,sans-Serif" font-size="10.00">GNSSReceiver.h</text>
</a>
</g>
</g>
<!-- Node17&#45;&gt;Node18 -->
<g id="edge25" class="edge">
<title>Node17&#45;&gt;Node18</title>
<path fill="none" stroke="midnightblue" d="M730.62,-166.54C676.57,-156.33 595.36,-141 545.14,-131.52"/>
<polygon fill="midnightblue" stroke="midnightblue" points="730.24,-170.03 740.71,-168.44 731.54,-163.15 730.24,-170.03"/>
</g>
<!-- Node20 -->
<g id="node20" class="node">
<title>Node20</title>
<g id="a_node20"><a xlink:href="GNSSTransmitter_8h.html" target="_top" xlink:title="Handles GNSS transmit.">
<polygon fill="white" stroke="black" points="732.53,-112.5 732.53,-131.5 839.53,-131.5 839.53,-112.5 732.53,-112.5"/>
<text text-anchor="middle" x="786.03" y="-119.5" font-family="Helvetica,sans-Serif" font-size="10.00">GNSSTransmitter.h</text>
</a>
</g>
</g>
<!-- Node17&#45;&gt;Node20 -->
<g id="edge34" class="edge">
<title>Node17&#45;&gt;Node20</title>
<path fill="none" stroke="midnightblue" d="M786.03,-157.8C786.03,-148.91 786.03,-138.78 786.03,-131.75"/>
<polygon fill="midnightblue" stroke="midnightblue" points="782.53,-158.08 786.03,-168.08 789.53,-158.08 782.53,-158.08"/>
</g>
<!-- Node18&#45;&gt;Node6 -->
<g id="edge30" class="edge">
<title>Node18&#45;&gt;Node6</title>
<path fill="none" stroke="midnightblue" d="M510.96,-103.54C521.8,-87.97 539.96,-66.12 562.03,-56 633.84,-23.08 1193.29,-26.21 1272.03,-20 1275.1,-19.76 1278.23,-19.49 1281.4,-19.22"/>
<polygon fill="midnightblue" stroke="midnightblue" points="507.79,-101.99 505.19,-112.26 513.63,-105.86 507.79,-101.99"/>
</g>
<!-- Node18&#45;&gt;Node7 -->
<g id="edge31" class="edge">
<title>Node18&#45;&gt;Node7</title>
<path fill="none" stroke="midnightblue" d="M519.91,-106.53C545.23,-88.23 586.72,-58.77 595.03,-56 773.15,3.29 1252.21,-38.42 1439.03,-20 1442.07,-19.7 1445.2,-19.35 1448.35,-18.96"/>
<polygon fill="midnightblue" stroke="midnightblue" points="517.75,-103.77 511.71,-112.47 521.86,-109.44 517.75,-103.77"/>
</g>
<!-- Node18&#45;&gt;Node8 -->
<g id="edge32" class="edge">
<title>Node18&#45;&gt;Node8</title>
<path fill="none" stroke="midnightblue" d="M489.08,-103.53C481.68,-89.25 475.06,-69.32 486.03,-56 507.53,-29.91 597.78,-18.74 658.9,-14.11"/>
<polygon fill="midnightblue" stroke="midnightblue" points="486.13,-105.41 494.13,-112.36 492.2,-101.94 486.13,-105.41"/>
</g>
<!-- Node18&#45;&gt;Node9 -->
<g id="edge33" class="edge">
<title>Node18&#45;&gt;Node9</title>
<path fill="none" stroke="midnightblue" d="M501.67,-101.88C504.05,-86.89 509.85,-66.81 524.03,-56 559.43,-29.01 844.93,-17.03 978.98,-12.85"/>
<polygon fill="midnightblue" stroke="midnightblue" points="498.16,-101.77 500.44,-112.12 505.11,-102.61 498.16,-101.77"/>
</g>
<!-- Node18&#45;&gt;Node10 -->
<g id="edge26" class="edge">
<title>Node18&#45;&gt;Node10</title>
<path fill="none" stroke="midnightblue" d="M468.33,-108.77C442.03,-98.63 405.32,-84.47 382.11,-75.52"/>
<polygon fill="midnightblue" stroke="midnightblue" points="467.26,-112.11 477.85,-112.44 469.78,-105.58 467.26,-112.11"/>
</g>
<!-- Node18&#45;&gt;Node12 -->
<g id="edge27" class="edge">
<title>Node18&#45;&gt;Node12</title>
<path fill="none" stroke="midnightblue" d="M443.41,-110.6C387.85,-100.4 304.13,-85.02 252.4,-75.52"/>
<polygon fill="midnightblue" stroke="midnightblue" points="442.98,-114.08 453.45,-112.44 444.24,-107.19 442.98,-114.08"/>
</g>
<!-- Node18&#45;&gt;Node14 -->
<g id="edge28" class="edge">
<title>Node18&#45;&gt;Node14</title>
<path fill="none" stroke="midnightblue" d="M534.2,-109.17C563.58,-99 605.23,-84.59 631.43,-75.52"/>
<polygon fill="midnightblue" stroke="midnightblue" points="533.06,-105.86 524.75,-112.44 535.35,-112.48 533.06,-105.86"/>
</g>
<!-- Node19 -->
<g id="node19" class="node">
<title>Node19</title>
<g id="a_node19"><a xlink:href="GNSSReceiver_8cpp.html" target="_top" xlink:title="GNSS Receiver class.">
<polygon fill="white" stroke="black" points="21.03,-56.5 21.03,-75.5 127.03,-75.5 127.03,-56.5 21.03,-56.5"/>
<text text-anchor="middle" x="74.03" y="-63.5" font-family="Helvetica,sans-Serif" font-size="10.00">GNSSReceiver.cpp</text>
</a>
</g>
</g>
<!-- Node18&#45;&gt;Node19 -->
<g id="edge29" class="edge">
<title>Node18&#45;&gt;Node19</title>
<path fill="none" stroke="midnightblue" d="M442.09,-114.22C370.23,-105.72 244,-90.51 136.03,-76 133.12,-75.61 130.13,-75.2 127.12,-74.78"/>
<polygon fill="midnightblue" stroke="midnightblue" points="441.95,-117.73 452.29,-115.42 442.77,-110.78 441.95,-117.73"/>
</g>
<!-- Node20&#45;&gt;Node4 -->
<g id="edge35" class="edge">
<title>Node20&#45;&gt;Node4</title>
<path fill="none" stroke="midnightblue" d="M849.57,-113.52C938.79,-103.03 1099.93,-84.07 1186.41,-73.9"/>
<polygon fill="midnightblue" stroke="midnightblue" points="849.11,-110.06 839.58,-114.7 849.92,-117.01 849.11,-110.06"/>
</g>
<!-- Node20&#45;&gt;Node14 -->
<g id="edge36" class="edge">
<title>Node20&#45;&gt;Node14</title>
<path fill="none" stroke="midnightblue" d="M755.95,-108.5C731.57,-98.38 697.89,-84.39 676.53,-75.52"/>
<polygon fill="midnightblue" stroke="midnightblue" points="754.86,-111.84 765.43,-112.44 757.54,-105.38 754.86,-111.84"/>
</g>
<!-- Node20&#45;&gt;Node15 -->
<g id="edge37" class="edge">
<title>Node20&#45;&gt;Node15</title>
<path fill="none" stroke="midnightblue" d="M786.03,-101.8C786.03,-92.91 786.03,-82.78 786.03,-75.75"/>
<polygon fill="midnightblue" stroke="midnightblue" points="782.53,-102.08 786.03,-112.08 789.53,-102.08 782.53,-102.08"/>
</g>
<!-- Node21&#45;&gt;Node2 -->
<g id="edge41" class="edge">
<title>Node21&#45;&gt;Node2</title>
<path fill="none" stroke="midnightblue" d="M1379.72,-173.9C1299.3,-168.23 1130.92,-154.64 990.03,-132 985.57,-131.28 980.87,-130.39 976.3,-129.44"/>
<polygon fill="midnightblue" stroke="midnightblue" points="1379.79,-177.41 1390.01,-174.61 1380.28,-170.43 1379.79,-177.41"/>
</g>
<!-- Node21&#45;&gt;Node4 -->
<g id="edge42" class="edge">
<title>Node21&#45;&gt;Node4</title>
<path fill="none" stroke="midnightblue" d="M1411.63,-161.32C1397.02,-147.08 1373.95,-126.19 1351.03,-112 1325.54,-96.21 1293.53,-83.47 1271.39,-75.63"/>
<polygon fill="midnightblue" stroke="midnightblue" points="1409.26,-163.9 1418.82,-168.46 1414.19,-158.93 1409.26,-163.9"/>
</g>
<!-- Node21&#45;&gt;Node6 -->
<g id="edge46" class="edge">
<title>Node21&#45;&gt;Node6</title>
<path fill="none" stroke="midnightblue" d="M1428.03,-158.07C1428.14,-144.83 1427.1,-126.92 1422.03,-112 1409.08,-73.92 1378.43,-36.15 1363.92,-19.64"/>
<polygon fill="midnightblue" stroke="midnightblue" points="1424.52,-158.21 1427.71,-168.31 1431.52,-158.43 1424.52,-158.21"/>
</g>
<!-- Node21&#45;&gt;Node7 -->
<g id="edge47" class="edge">
<title>Node21&#45;&gt;Node7</title>
<path fill="none" stroke="midnightblue" d="M1441.32,-160.37C1447.74,-152.23 1454.99,-142.05 1460.03,-132 1479.92,-92.33 1491.46,-39.93 1495.44,-19.59"/>
<polygon fill="midnightblue" stroke="midnightblue" points="1438.46,-158.33 1434.82,-168.28 1443.87,-162.77 1438.46,-158.33"/>
</g>
<!-- Node21&#45;&gt;Node8 -->
<g id="edge48" class="edge">
<title>Node21&#45;&gt;Node8</title>
<path fill="none" stroke="midnightblue" d="M1379.78,-174.63C1285.62,-169.41 1081.83,-155.51 1061.03,-132 1035.88,-103.56 1125.26,-84.37 1100.03,-56 1078.84,-32.17 877.1,-18.89 775.26,-13.65"/>
<polygon fill="midnightblue" stroke="midnightblue" points="1379.71,-178.13 1389.89,-175.18 1380.09,-171.14 1379.71,-178.13"/>
</g>
<!-- Node21&#45;&gt;Node9 -->
<g id="edge51" class="edge">
<title>Node21&#45;&gt;Node9</title>
<path fill="none" stroke="midnightblue" d="M1416.66,-159.54C1399.11,-131.85 1360.67,-78.67 1312.03,-56 1293.86,-47.53 1180.31,-30.04 1108.17,-19.54"/>
<polygon fill="midnightblue" stroke="midnightblue" points="1413.76,-161.5 1421.98,-168.18 1419.72,-157.83 1413.76,-161.5"/>
</g>
<!-- Node22 -->
<g id="node22" class="node">
<title>Node22</title>
<g id="a_node22"><a xlink:href="DynamicsAnalytical_8cpp.html" target="_top" xlink:title="Analytical orbit dynamics implementation.">
<polygon fill="white" stroke="black" points="1710.03,-112.5 1710.03,-131.5 1844.03,-131.5 1844.03,-112.5 1710.03,-112.5"/>
<text text-anchor="middle" x="1777.03" y="-119.5" font-family="Helvetica,sans-Serif" font-size="10.00">DynamicsAnalytical.cpp</text>
</a>
</g>
</g>
<!-- Node21&#45;&gt;Node22 -->
<g id="edge43" class="edge">
<title>Node21&#45;&gt;Node22</title>
<path fill="none" stroke="midnightblue" d="M1474.41,-169.69C1538.74,-159.77 1653.48,-142.06 1721.69,-131.54"/>
<polygon fill="midnightblue" stroke="midnightblue" points="1473.51,-166.29 1464.16,-171.27 1474.57,-173.21 1473.51,-166.29"/>
</g>
<!-- Node23 -->
<g id="node23" class="node">
<title>Node23</title>
<g id="a_node23"><a xlink:href="DynamicsNumerical_8cpp.html" target="_top" xlink:title="List of Numerical Dynamics.">
<polygon fill="white" stroke="black" points="1070.03,-112.5 1070.03,-131.5 1206.03,-131.5 1206.03,-112.5 1070.03,-112.5"/>
<text text-anchor="middle" x="1138.03" y="-119.5" font-family="Helvetica,sans-Serif" font-size="10.00">DynamicsNumerical.cpp</text>
</a>
</g>
</g>
<!-- Node21&#45;&gt;Node23 -->
<g id="edge44" class="edge">
<title>Node21&#45;&gt;Node23</title>
<path fill="none" stroke="midnightblue" d="M1379.8,-168.17C1325.56,-158.04 1237.19,-141.53 1183.64,-131.52"/>
<polygon fill="midnightblue" stroke="midnightblue" points="1379.37,-171.65 1389.84,-170.05 1380.65,-164.77 1379.37,-171.65"/>
</g>
<!-- Node24 -->
<g id="node24" class="node">
<title>Node24</title>
<g id="a_node24"><a xlink:href="NBodyDynamics_8cpp.html" target="_top" xlink:title="Multiple&#45;body dynamics.">
<polygon fill="white" stroke="black" points="1224.03,-112.5 1224.03,-131.5 1342.03,-131.5 1342.03,-112.5 1224.03,-112.5"/>
<text text-anchor="middle" x="1283.03" y="-119.5" font-family="Helvetica,sans-Serif" font-size="10.00">NBodyDynamics.cpp</text>
</a>
</g>
</g>
<!-- Node21&#45;&gt;Node24 -->
<g id="edge45" class="edge">
<title>Node21&#45;&gt;Node24</title>
<path fill="none" stroke="midnightblue" d="M1394.78,-164.91C1367.71,-154.75 1329.72,-140.51 1305.74,-131.52"/>
<polygon fill="midnightblue" stroke="midnightblue" points="1393.62,-168.21 1404.21,-168.44 1396.08,-161.66 1393.62,-168.21"/>
</g>
<!-- Node25 -->
<g id="node25" class="node">
<title>Node25</title>
<g id="a_node25"><a xlink:href="ExampleFrozenOrbits_8cpp.html" target="_top" xlink:title="Example of frozen orbits.">
<polygon fill="white" stroke="black" points="1900.53,-56.5 1900.53,-75.5 2041.53,-75.5 2041.53,-56.5 1900.53,-56.5"/>
<text text-anchor="middle" x="1971.03" y="-63.5" font-family="Helvetica,sans-Serif" font-size="10.00">ExampleFrozenOrbits.cpp</text>
</a>
</g>
</g>
<!-- Node21&#45;&gt;Node25 -->
<g id="edge49" class="edge">
<title>Node21&#45;&gt;Node25</title>
<path fill="none" stroke="midnightblue" d="M1449.11,-162.95C1476.6,-145.72 1522.23,-118.05 1541.03,-112 1606.05,-91.08 1795.96,-77.16 1900.31,-70.86"/>
<polygon fill="midnightblue" stroke="midnightblue" points="1447.14,-160.06 1440.54,-168.35 1450.87,-165.98 1447.14,-160.06"/>
</g>
<!-- Node21&#45;&gt;Node26 -->
<g id="edge50" class="edge">
<title>Node21&#45;&gt;Node26</title>
<path fill="none" stroke="midnightblue" d="M1467.63,-165.7C1504.25,-155.51 1557.29,-140.74 1590.44,-131.52"/>
<polygon fill="midnightblue" stroke="midnightblue" points="1466.47,-162.39 1457.77,-168.44 1468.34,-169.13 1466.47,-162.39"/>
</g>
<!-- Node27&#45;&gt;Node25 -->
<g id="edge54" class="edge">
<title>Node27&#45;&gt;Node25</title>
<path fill="none" stroke="midnightblue" d="M1960.54,-102.4C1963.22,-93.36 1966.31,-82.94 1968.44,-75.75"/>
<polygon fill="midnightblue" stroke="midnightblue" points="1957.16,-101.5 1957.67,-112.08 1963.87,-103.49 1957.16,-101.5"/>
</g>
<!-- Node29&#45;&gt;Node2 -->
<g id="edge57" class="edge">
<title>Node29&#45;&gt;Node2</title>
<path fill="none" stroke="midnightblue" d="M1927.66,-174.77C1780.67,-169.1 1388.08,-153.08 1061.03,-132 1032.03,-130.13 998.84,-127.39 976.17,-125.42"/>
<polygon fill="midnightblue" stroke="midnightblue" points="1927.68,-178.27 1937.81,-175.16 1927.95,-171.28 1927.68,-178.27"/>
</g>
<!-- Node29&#45;&gt;Node22 -->
<g id="edge58" class="edge">
<title>Node29&#45;&gt;Node22</title>
<path fill="none" stroke="midnightblue" d="M1943.84,-165.89C1904.18,-155.7 1846.26,-140.8 1810.15,-131.52"/>
<polygon fill="midnightblue" stroke="midnightblue" points="1943.2,-169.34 1953.76,-168.44 1944.94,-162.56 1943.2,-169.34"/>
</g>
<!-- Node29&#45;&gt;Node27 -->
<g id="edge59" class="edge">
<title>Node29&#45;&gt;Node27</title>
<path fill="none" stroke="midnightblue" d="M1976.53,-159.27C1971.06,-150.05 1964.61,-139.17 1960.22,-131.75"/>
<polygon fill="midnightblue" stroke="midnightblue" points="1973.64,-161.26 1981.75,-168.08 1979.66,-157.7 1973.64,-161.26"/>
</g>
<!-- Node29&#45;&gt;Node28 -->
<g id="edge60" class="edge">
<title>Node29&#45;&gt;Node28</title>
<path fill="none" stroke="midnightblue" d="M2030.17,-165.96C2070.03,-155.76 2128.39,-140.82 2164.75,-131.52"/>
<polygon fill="midnightblue" stroke="midnightblue" points="2029.29,-162.57 2020.47,-168.44 2031.02,-169.35 2029.29,-162.57"/>
</g>
<!-- Node30 -->
<g id="node30" class="node">
<title>Node30</title>
<g id="a_node30"><a xlink:href="OrbitStateUtils_8cpp.html" target="_top" xlink:title="Util functions for state conversions.">
<polygon fill="white" stroke="black" points="2027.53,-112.5 2027.53,-131.5 2136.53,-131.5 2136.53,-112.5 2027.53,-112.5"/>
<text text-anchor="middle" x="2082.03" y="-119.5" font-family="Helvetica,sans-Serif" font-size="10.00">OrbitStateUtils.cpp</text>
</a>
</g>
</g>
<!-- Node29&#45;&gt;Node30 -->
<g id="edge61" class="edge">
<title>Node29&#45;&gt;Node30</title>
<path fill="none" stroke="midnightblue" d="M2011.35,-163.18C2028.83,-153.24 2051.86,-140.15 2066.81,-131.65"/>
<polygon fill="midnightblue" stroke="midnightblue" points="2009.26,-160.34 2002.3,-168.32 2012.72,-166.43 2009.26,-160.34"/>
</g>
<!-- Node29&#45;&gt;Node31 -->
<g id="edge62" class="edge">
<title>Node29&#45;&gt;Node31</title>
<path fill="none" stroke="midnightblue" d="M2046.18,-168.19C2099.65,-159.91 2180.4,-146.64 2250.03,-132 2252.93,-131.39 2255.95,-130.71 2258.96,-130"/>
<polygon fill="midnightblue" stroke="midnightblue" points="2045.55,-164.74 2036.2,-169.72 2046.61,-171.66 2045.55,-164.74"/>
</g>
</g>
</svg>
        <g id="navigator" transform="translate(0 0)" fill="#404254">
                <rect fill="#f2f5e9" fill-opacity="0.5" stroke="#606060" stroke-width=".5" x="0" y="0" width="60" height="60"/>
                <use id="zoomplus" xlink:href="#zoomPlus" x="17" y="9" onmousedown="handleZoom(evt,'in')"/>
                <use id="zoomminus" xlink:href="#zoomMin" x="42" y="9" onmousedown="handleZoom(evt,'out')"/>
                <use id="reset" xlink:href="#resetDef" x="30" y="36" onmousedown="handleReset()"/>
                <g id="arrowUp" xlink:href="#dirArrow" transform="translate(30 24)" onmousedown="handlePan(0,-1)">
                  <use xlink:href="#rim" fill="#404040">
                        <set attributeName="fill" to="#808080" begin="arrowUp.mouseover" end="arrowUp.mouseout"/>
                  </use>
                  <path fill="none" stroke="white" stroke-width="1.5" d="M0,-3.0v7 M-2.5,-0.5L0,-3.0L2.5,-0.5"/>
                </g>
                <g id="arrowRight" xlink:href="#dirArrow" transform="rotate(90) translate(36 -43)" onmousedown="handlePan(1,0)">
                  <use xlink:href="#rim" fill="#404040">
                        <set attributeName="fill" to="#808080" begin="arrowRight.mouseover" end="arrowRight.mouseout"/>
                  </use>
                  <path fill="none" stroke="white" stroke-width="1.5" d="M0,-3.0v7 M-2.5,-0.5L0,-3.0L2.5,-0.5"/>
                </g>
                <g id="arrowDown" xlink:href="#dirArrow" transform="rotate(180) translate(-30 -48)" onmousedown="handlePan(0,1)">
                  <use xlink:href="#rim" fill="#404040">
                        <set attributeName="fill" to="#808080" begin="arrowDown.mouseover" end="arrowDown.mouseout"/>
                  </use>
                  <path fill="none" stroke="white" stroke-width="1.5" d="M0,-3.0v7 M-2.5,-0.5L0,-3.0L2.5,-0.5"/>
                </g>
                <g id="arrowLeft" xlink:href="#dirArrow" transform="rotate(270) translate(-36 17)" onmousedown="handlePan(-1,0)">
                  <use xlink:href="#rim" fill="#404040">
                        <set attributeName="fill" to="#808080" begin="arrowLeft.mouseover" end="arrowLeft.mouseout"/>
                  </use>
                  <path fill="none" stroke="white" stroke-width="1.5" d="M0,-3.0v7 M-2.5,-0.5L0,-3.0L2.5,-0.5"/>
                </g>
        </g>
        <svg viewBox="0 0 15 15" width="100%" height="30px" preserveAspectRatio="xMaxYMin meet">
         <g id="arrow_out" transform="scale(0.3 0.3)">
          <a xlink:href="OrbitState_8h__dep__incl_org.svg" target="_base">
           <rect id="button" ry="5" rx="5" y="6" x="6" height="38" width="38"
                fill="#f2f5e9" fill-opacity="0.5" stroke="#606060" stroke-width="1.0"/>
           <path id="arrow"
             d="M 11.500037,31.436501 C 11.940474,20.09759 22.043105,11.32322 32.158766,21.979434 L 37.068811,17.246167 C 37.068811,17.246167 37.088388,32 37.088388,32 L 22.160133,31.978069 C 22.160133,31.978069 26.997745,27.140456 26.997745,27.140456 C 18.528582,18.264221 13.291696,25.230495 11.500037,31.436501 z"
             style="fill:#404040;"/>
          </a>
         </g>
        </svg>
</svg>
