<?xml version="1.0" encoding="UTF-8" standalone="no"?>
<!DOCTYPE svg PUBLIC "-//W3C//DTD SVG 1.1//EN"
 "http://www.w3.org/Graphics/SVG/1.1/DTD/svg11.dtd">
<!-- Generated by graphviz version 2.43.0 (0)
 -->
<!-- Title: OrbitStateUtils.h Pages: 1 -->
<!--zoomable 196 -->
<svg id="main" version="1.1" xmlns="http://www.w3.org/2000/svg" xmlns:xlink="http://www.w3.org/1999/xlink" xml:space="preserve" onload="init(evt)">
<style type="text/css"><![CDATA[
.edge:hover path { stroke: red; }
.edge:hover polygon { stroke: red; fill: red; }
]]></style>
<script type="text/javascript"><![CDATA[
var edges = document.getElementsByTagName('g');
if (edges && edges.length) {
  for (var i=0;i<edges.length;i++) {
    if (edges[i].id.substr(0,4)=='edge') {
      edges[i].setAttribute('class','edge');
    }
  }
}
]]></script>
        <defs>
                <circle id="rim" cx="0" cy="0" r="7"/>
                <circle id="rim2" cx="0" cy="0" r="3.5"/>
                <g id="zoomPlus">
                        <use xlink:href="#rim" fill="#404040">
                                <set attributeName="fill" to="#808080" begin="zoomplus.mouseover" end="zoomplus.mouseout"/>
                        </use>
                        <path d="M-4,0h8M0,-4v8" fill="none" stroke="white" stroke-width="1.5" pointer-events="none"/>
                </g>
                <g id="zoomMin">
                        <use xlink:href="#rim" fill="#404040">
                                <set attributeName="fill" to="#808080" begin="zoomminus.mouseover" end="zoomminus.mouseout"/>
                        </use>
                        <path d="M-4,0h8" fill="none" stroke="white" stroke-width="1.5" pointer-events="none"/>
                </g>
                <g id="dirArrow">
                        <path fill="none" stroke="white" stroke-width="1.5" d="M0,-3.0v7 M-2.5,-0.5L0,-3.0L2.5,-0.5"/>
                </g>
               <g id="resetDef">
                       <use xlink:href="#rim2" fill="#404040">
                               <set attributeName="fill" to="#808080" begin="reset.mouseover" end="reset.mouseout"/>
                       </use>
               </g>
        </defs>

<script type="text/javascript">
var viewWidth = 1548;
var viewHeight = 196;
var sectionId = 'dynsection-1';
</script>
<script xlink:href="svgpan.js"/>
<svg id="graph" class="graph">
<g id="viewport">
<title>OrbitStateUtils.h</title>
<polygon fill="white" stroke="transparent" points="-4,4 -4,-192 1543.5,-192 1543.5,4 -4,4"/>
<!-- Node1 -->
<g id="node1" class="node">
<title>Node1</title>
<g id="a_node1"><a xlink:title="Util functions for state conversions.">
<polygon fill="#bfbfbf" stroke="black" points="1189.5,-168.5 1189.5,-187.5 1287.5,-187.5 1287.5,-168.5 1189.5,-168.5"/>
<text text-anchor="middle" x="1238.5" y="-175.5" font-family="Helvetica,sans-Serif" font-size="10.00">OrbitStateUtils.h</text>
</a>
</g>
</g>
<!-- Node2 -->
<g id="node2" class="node">
<title>Node2</title>
<g id="a_node2"><a xlink:href="Agent_8h.html" target="_top" xlink:title="List of agents.">
<polygon fill="white" stroke="black" points="677.5,-112.5 677.5,-131.5 731.5,-131.5 731.5,-112.5 677.5,-112.5"/>
<text text-anchor="middle" x="704.5" y="-119.5" font-family="Helvetica,sans-Serif" font-size="10.00">Agent.h</text>
</a>
</g>
</g>
<!-- Node1&#45;&gt;Node2 -->
<g id="edge1" class="edge">
<title>Node1&#45;&gt;Node2</title>
<path fill="none" stroke="midnightblue" d="M1179.17,-171C1064,-159.35 814.22,-134.09 731.62,-125.74"/>
<polygon fill="midnightblue" stroke="midnightblue" points="1178.92,-174.49 1189.22,-172.02 1179.62,-167.53 1178.92,-174.49"/>
</g>
<!-- Node17 -->
<g id="node17" class="node">
<title>Node17</title>
<g id="a_node17"><a xlink:href="DynamicsAnalytical_8cpp.html" target="_top" xlink:title="Analytical orbit dynamics implementation.">
<polygon fill="white" stroke="black" points="973.5,-112.5 973.5,-131.5 1107.5,-131.5 1107.5,-112.5 973.5,-112.5"/>
<text text-anchor="middle" x="1040.5" y="-119.5" font-family="Helvetica,sans-Serif" font-size="10.00">DynamicsAnalytical.cpp</text>
</a>
</g>
</g>
<!-- Node1&#45;&gt;Node17 -->
<g id="edge21" class="edge">
<title>Node1&#45;&gt;Node17</title>
<path fill="none" stroke="midnightblue" d="M1197.06,-165.7C1159.69,-155.51 1105.56,-140.74 1071.73,-131.52"/>
<polygon fill="midnightblue" stroke="midnightblue" points="1196.56,-169.19 1207.13,-168.44 1198.4,-162.44 1196.56,-169.19"/>
</g>
<!-- Node18 -->
<g id="node18" class="node">
<title>Node18</title>
<g id="a_node18"><a xlink:href="LunarMeanOsc_8cpp.html" target="_top" xlink:title="Lunar Mean and Osculating Elements.">
<polygon fill="white" stroke="black" points="1126,-112.5 1126,-131.5 1235,-131.5 1235,-112.5 1126,-112.5"/>
<text text-anchor="middle" x="1180.5" y="-119.5" font-family="Helvetica,sans-Serif" font-size="10.00">LunarMeanOsc.cpp</text>
</a>
</g>
</g>
<!-- Node1&#45;&gt;Node18 -->
<g id="edge22" class="edge">
<title>Node1&#45;&gt;Node18</title>
<path fill="none" stroke="midnightblue" d="M1221.59,-161.25C1211.3,-151.67 1198.53,-139.79 1189.99,-131.83"/>
<polygon fill="midnightblue" stroke="midnightblue" points="1219.48,-164.07 1229.18,-168.32 1224.25,-158.95 1219.48,-164.07"/>
</g>
<!-- Node20 -->
<g id="node20" class="node">
<title>Node20</title>
<g id="a_node20"><a xlink:href="OrbitState_8cpp.html" target="_top" xlink:title="Orbit states.">
<polygon fill="white" stroke="black" points="1253.5,-112.5 1253.5,-131.5 1339.5,-131.5 1339.5,-112.5 1253.5,-112.5"/>
<text text-anchor="middle" x="1296.5" y="-119.5" font-family="Helvetica,sans-Serif" font-size="10.00">OrbitState.cpp</text>
</a>
</g>
</g>
<!-- Node1&#45;&gt;Node20 -->
<g id="edge24" class="edge">
<title>Node1&#45;&gt;Node20</title>
<path fill="none" stroke="midnightblue" d="M1255.41,-161.25C1265.7,-151.67 1278.47,-139.79 1287.01,-131.83"/>
<polygon fill="midnightblue" stroke="midnightblue" points="1252.75,-158.95 1247.82,-168.32 1257.52,-164.07 1252.75,-158.95"/>
</g>
<!-- Node21 -->
<g id="node21" class="node">
<title>Node21</title>
<g id="a_node21"><a xlink:href="OrbitStateUtils_8cpp.html" target="_top" xlink:title="Util functions for state conversions.">
<polygon fill="white" stroke="black" points="1358,-112.5 1358,-131.5 1467,-131.5 1467,-112.5 1358,-112.5"/>
<text text-anchor="middle" x="1412.5" y="-119.5" font-family="Helvetica,sans-Serif" font-size="10.00">OrbitStateUtils.cpp</text>
</a>
</g>
</g>
<!-- Node1&#45;&gt;Node21 -->
<g id="edge25" class="edge">
<title>Node1&#45;&gt;Node21</title>
<path fill="none" stroke="midnightblue" d="M1275.76,-165.44C1308.57,-155.26 1355.58,-140.66 1385.06,-131.52"/>
<polygon fill="midnightblue" stroke="midnightblue" points="1274.58,-162.14 1266.07,-168.44 1276.66,-168.82 1274.58,-162.14"/>
</g>
<!-- Node22 -->
<g id="node22" class="node">
<title>Node22</title>
<g id="a_node22"><a xlink:href="TLE_8cpp.html" target="_top" xlink:title="Routines to process TLE files.">
<polygon fill="white" stroke="black" points="1485.5,-112.5 1485.5,-131.5 1539.5,-131.5 1539.5,-112.5 1485.5,-112.5"/>
<text text-anchor="middle" x="1512.5" y="-119.5" font-family="Helvetica,sans-Serif" font-size="10.00">TLE.cpp</text>
</a>
</g>
</g>
<!-- Node1&#45;&gt;Node22 -->
<g id="edge26" class="edge">
<title>Node1&#45;&gt;Node22</title>
<path fill="none" stroke="midnightblue" d="M1297.13,-166.73C1345.2,-158.1 1414.93,-145.11 1475.5,-132 1478.73,-131.3 1482.11,-130.53 1485.46,-129.75"/>
<polygon fill="midnightblue" stroke="midnightblue" points="1296.44,-163.29 1287.21,-168.5 1297.67,-170.18 1296.44,-163.29"/>
</g>
<!-- Node3 -->
<g id="node3" class="node">
<title>Node3</title>
<g id="a_node3"><a xlink:href="Agent_8cpp.html" target="_top" xlink:title="Base class fo.">
<polygon fill="white" stroke="black" points="1110,-56.5 1110,-75.5 1175,-75.5 1175,-56.5 1110,-56.5"/>
<text text-anchor="middle" x="1142.5" y="-63.5" font-family="Helvetica,sans-Serif" font-size="10.00">Agent.cpp</text>
</a>
</g>
</g>
<!-- Node2&#45;&gt;Node3 -->
<g id="edge2" class="edge">
<title>Node2&#45;&gt;Node3</title>
<path fill="none" stroke="midnightblue" d="M741.64,-118C811.97,-112.06 969.3,-97.46 1100.5,-76 1103.44,-75.52 1106.49,-74.97 1109.54,-74.38"/>
<polygon fill="midnightblue" stroke="midnightblue" points="741.19,-114.53 731.51,-118.85 741.77,-121.5 741.19,-114.53"/>
</g>
<!-- Node4 -->
<g id="node4" class="node">
<title>Node4</title>
<g id="a_node4"><a xlink:href="GNSSConstellation_8h.html" target="_top" xlink:title=" ">
<polygon fill="white" stroke="black" points="312,-56.5 312,-75.5 429,-75.5 429,-56.5 312,-56.5"/>
<text text-anchor="middle" x="370.5" y="-63.5" font-family="Helvetica,sans-Serif" font-size="10.00">GNSSConstellation.h</text>
</a>
</g>
</g>
<!-- Node2&#45;&gt;Node4 -->
<g id="edge3" class="edge">
<title>Node2&#45;&gt;Node4</title>
<path fill="none" stroke="midnightblue" d="M667.39,-115C607.97,-105.39 491.28,-86.53 423.22,-75.52"/>
<polygon fill="midnightblue" stroke="midnightblue" points="667.02,-118.49 677.45,-116.63 668.14,-111.58 667.02,-118.49"/>
</g>
<!-- Node6 -->
<g id="node6" class="node">
<title>Node6</title>
<g id="a_node6"><a xlink:href="ExampleConstellations_8cpp.html" target="_top" xlink:title="Setup GNSS Constellation.">
<polygon fill="white" stroke="black" points="418,-0.5 418,-19.5 567,-19.5 567,-0.5 418,-0.5"/>
<text text-anchor="middle" x="492.5" y="-7.5" font-family="Helvetica,sans-Serif" font-size="10.00">ExampleConstellations.cpp</text>
</a>
</g>
</g>
<!-- Node2&#45;&gt;Node6 -->
<g id="edge17" class="edge">
<title>Node2&#45;&gt;Node6</title>
<path fill="none" stroke="midnightblue" d="M666.89,-117.76C631.6,-113.18 578.67,-102.18 540.5,-76 518.98,-61.24 503.39,-33.62 496.48,-19.61"/>
<polygon fill="midnightblue" stroke="midnightblue" points="666.9,-121.29 677.24,-118.99 667.72,-114.33 666.9,-121.29"/>
</g>
<!-- Node7 -->
<g id="node7" class="node">
<title>Node7</title>
<g id="a_node7"><a xlink:href="ExampleEKF_8cpp.html" target="_top" xlink:title="Example of Extended Kalman Filter for orbit determination.">
<polygon fill="white" stroke="black" points="0,-0.5 0,-19.5 97,-19.5 97,-0.5 0,-0.5"/>
<text text-anchor="middle" x="48.5" y="-7.5" font-family="Helvetica,sans-Serif" font-size="10.00">ExampleEKF.cpp</text>
</a>
</g>
</g>
<!-- Node2&#45;&gt;Node7 -->
<g id="edge18" class="edge">
<title>Node2&#45;&gt;Node7</title>
<path fill="none" stroke="midnightblue" d="M667.09,-119.86C589.44,-116.92 405.45,-107.02 254.5,-76 185.81,-61.88 107.55,-33.71 70.36,-19.54"/>
<polygon fill="midnightblue" stroke="midnightblue" points="667.21,-123.37 677.33,-120.23 667.46,-116.37 667.21,-123.37"/>
</g>
<!-- Node8 -->
<g id="node8" class="node">
<title>Node8</title>
<g id="a_node8"><a xlink:href="ExampleEKFApp_8cpp.html" target="_top" xlink:title="Example of EKF application.">
<polygon fill="white" stroke="black" points="584.5,-0.5 584.5,-19.5 700.5,-19.5 700.5,-0.5 584.5,-0.5"/>
<text text-anchor="middle" x="642.5" y="-7.5" font-family="Helvetica,sans-Serif" font-size="10.00">ExampleEKFApp.cpp</text>
</a>
</g>
</g>
<!-- Node2&#45;&gt;Node8 -->
<g id="edge19" class="edge">
<title>Node2&#45;&gt;Node8</title>
<path fill="none" stroke="midnightblue" d="M667.44,-115.5C626,-108.5 562.79,-95 548.5,-76 528.58,-49.52 574.65,-29.93 609.09,-19.51"/>
<polygon fill="midnightblue" stroke="midnightblue" points="667.03,-118.98 677.46,-117.14 668.16,-112.07 667.03,-118.98"/>
</g>
<!-- Node9 -->
<g id="node9" class="node">
<title>Node9</title>
<g id="a_node9"><a xlink:href="ExamplePropagation_8cpp.html" target="_top" xlink:title="Example propagating both GPS constellation and Lunar Satellite.">
<polygon fill="white" stroke="black" points="115.5,-0.5 115.5,-19.5 253.5,-19.5 253.5,-0.5 115.5,-0.5"/>
<text text-anchor="middle" x="184.5" y="-7.5" font-family="Helvetica,sans-Serif" font-size="10.00">ExamplePropagation.cpp</text>
</a>
</g>
</g>
<!-- Node2&#45;&gt;Node9 -->
<g id="edge20" class="edge">
<title>Node2&#45;&gt;Node9</title>
<path fill="none" stroke="midnightblue" d="M667.01,-121.62C594.72,-121.77 431.74,-117.04 302.5,-76 260.59,-62.69 216.6,-33.88 196.18,-19.51"/>
<polygon fill="midnightblue" stroke="midnightblue" points="667.43,-125.12 677.41,-121.56 667.4,-118.12 667.43,-125.12"/>
</g>
<!-- Node10 -->
<g id="node10" class="node">
<title>Node10</title>
<g id="a_node10"><a xlink:href="GNSSStateEstimationApp_8h.html" target="_top" xlink:title="State Estimation Application Using GNSS Measurement.">
<polygon fill="white" stroke="black" points="558,-56.5 558,-75.5 707,-75.5 707,-56.5 558,-56.5"/>
<text text-anchor="middle" x="632.5" y="-63.5" font-family="Helvetica,sans-Serif" font-size="10.00">GNSSStateEstimationApp.h</text>
</a>
</g>
</g>
<!-- Node2&#45;&gt;Node10 -->
<g id="edge9" class="edge">
<title>Node2&#45;&gt;Node10</title>
<path fill="none" stroke="midnightblue" d="M684.63,-106.1C671.68,-96.38 655.2,-84.03 644.28,-75.83"/>
<polygon fill="midnightblue" stroke="midnightblue" points="682.83,-109.12 692.93,-112.32 687.03,-103.52 682.83,-109.12"/>
</g>
<!-- Node12 -->
<g id="node12" class="node">
<title>Node12</title>
<g id="a_node12"><a xlink:href="StateEstimationApp_8h.html" target="_top" xlink:title="Base class for State Estimation Application.">
<polygon fill="white" stroke="black" points="1193.5,-56.5 1193.5,-75.5 1315.5,-75.5 1315.5,-56.5 1193.5,-56.5"/>
<text text-anchor="middle" x="1254.5" y="-63.5" font-family="Helvetica,sans-Serif" font-size="10.00">StateEstimationApp.h</text>
</a>
</g>
</g>
<!-- Node2&#45;&gt;Node12 -->
<g id="edge12" class="edge">
<title>Node2&#45;&gt;Node12</title>
<path fill="none" stroke="midnightblue" d="M741.68,-117.92C822.26,-111.15 1019.03,-94.15 1183.5,-76 1186.71,-75.65 1190,-75.27 1193.32,-74.88"/>
<polygon fill="midnightblue" stroke="midnightblue" points="741.21,-114.45 731.54,-118.77 741.8,-121.42 741.21,-114.45"/>
</g>
<!-- Node14 -->
<g id="node14" class="node">
<title>Node14</title>
<g id="a_node14"><a xlink:href="GNSSChannel_8cpp.html" target="_top" xlink:title="GNSS Channel.">
<polygon fill="white" stroke="black" points="725.5,-56.5 725.5,-75.5 829.5,-75.5 829.5,-56.5 725.5,-56.5"/>
<text text-anchor="middle" x="777.5" y="-63.5" font-family="Helvetica,sans-Serif" font-size="10.00">GNSSChannel.cpp</text>
</a>
</g>
</g>
<!-- Node2&#45;&gt;Node14 -->
<g id="edge14" class="edge">
<title>Node2&#45;&gt;Node14</title>
<path fill="none" stroke="midnightblue" d="M724.64,-106.1C737.78,-96.38 754.48,-84.03 765.56,-75.83"/>
<polygon fill="midnightblue" stroke="midnightblue" points="722.19,-103.56 716.23,-112.32 726.35,-109.19 722.19,-103.56"/>
</g>
<!-- Node15 -->
<g id="node15" class="node">
<title>Node15</title>
<g id="a_node15"><a xlink:href="GNSSTransmitter_8cpp.html" target="_top" xlink:title="Handles GNSS transmit.">
<polygon fill="white" stroke="black" points="848,-56.5 848,-75.5 967,-75.5 967,-56.5 848,-56.5"/>
<text text-anchor="middle" x="907.5" y="-63.5" font-family="Helvetica,sans-Serif" font-size="10.00">GNSSTransmitter.cpp</text>
</a>
</g>
</g>
<!-- Node2&#45;&gt;Node15 -->
<g id="edge15" class="edge">
<title>Node2&#45;&gt;Node15</title>
<path fill="none" stroke="midnightblue" d="M741.6,-111.13C779.83,-100.96 838.84,-85.26 875.21,-75.59"/>
<polygon fill="midnightblue" stroke="midnightblue" points="740.64,-107.76 731.88,-113.72 742.44,-114.53 740.64,-107.76"/>
</g>
<!-- Node16 -->
<g id="node16" class="node">
<title>Node16</title>
<g id="a_node16"><a xlink:href="SpaceChannel_8cpp.html" target="_top" xlink:title="Base spacechannel class (Under devlopment )">
<polygon fill="white" stroke="black" points="985.5,-56.5 985.5,-75.5 1091.5,-75.5 1091.5,-56.5 985.5,-56.5"/>
<text text-anchor="middle" x="1038.5" y="-63.5" font-family="Helvetica,sans-Serif" font-size="10.00">SpaceChannel.cpp</text>
</a>
</g>
</g>
<!-- Node2&#45;&gt;Node16 -->
<g id="edge16" class="edge">
<title>Node2&#45;&gt;Node16</title>
<path fill="none" stroke="midnightblue" d="M741.61,-115C801.03,-105.39 917.72,-86.53 985.78,-75.52"/>
<polygon fill="midnightblue" stroke="midnightblue" points="740.86,-111.58 731.55,-116.63 741.98,-118.49 740.86,-111.58"/>
</g>
<!-- Node5 -->
<g id="node5" class="node">
<title>Node5</title>
<g id="a_node5"><a xlink:href="GNSSConstellation_8cpp.html" target="_top" xlink:title="GNSS Constellation.">
<polygon fill="white" stroke="black" points="271.5,-0.5 271.5,-19.5 399.5,-19.5 399.5,-0.5 271.5,-0.5"/>
<text text-anchor="middle" x="335.5" y="-7.5" font-family="Helvetica,sans-Serif" font-size="10.00">GNSSConstellation.cpp</text>
</a>
</g>
</g>
<!-- Node4&#45;&gt;Node5 -->
<g id="edge4" class="edge">
<title>Node4&#45;&gt;Node5</title>
<path fill="none" stroke="midnightblue" d="M359.2,-47.57C353.18,-38.27 346.03,-27.25 341.17,-19.75"/>
<polygon fill="midnightblue" stroke="midnightblue" points="356.34,-49.6 364.72,-56.08 362.22,-45.79 356.34,-49.6"/>
</g>
<!-- Node4&#45;&gt;Node6 -->
<g id="edge5" class="edge">
<title>Node4&#45;&gt;Node6</title>
<path fill="none" stroke="midnightblue" d="M399.04,-52.37C421.89,-42.26 453.31,-28.35 473.26,-19.52"/>
<polygon fill="midnightblue" stroke="midnightblue" points="397.56,-49.2 389.83,-56.44 400.39,-55.6 397.56,-49.2"/>
</g>
<!-- Node4&#45;&gt;Node7 -->
<g id="edge6" class="edge">
<title>Node4&#45;&gt;Node7</title>
<path fill="none" stroke="midnightblue" d="M309.5,-54.77C247.9,-44.44 153.96,-28.69 97.18,-19.16"/>
<polygon fill="midnightblue" stroke="midnightblue" points="309.04,-58.24 319.48,-56.44 310.19,-51.34 309.04,-58.24"/>
</g>
<!-- Node4&#45;&gt;Node8 -->
<g id="edge7" class="edge">
<title>Node4&#45;&gt;Node8</title>
<path fill="none" stroke="midnightblue" d="M423.52,-54.47C474.93,-44.27 551.94,-28.98 599.6,-19.52"/>
<polygon fill="midnightblue" stroke="midnightblue" points="422.73,-51.06 413.6,-56.44 424.09,-57.93 422.73,-51.06"/>
</g>
<!-- Node4&#45;&gt;Node9 -->
<g id="edge8" class="edge">
<title>Node4&#45;&gt;Node9</title>
<path fill="none" stroke="midnightblue" d="M331.12,-53.57C296.03,-43.38 245.48,-28.7 213.83,-19.52"/>
<polygon fill="midnightblue" stroke="midnightblue" points="330.45,-57.02 341.03,-56.44 332.4,-50.29 330.45,-57.02"/>
</g>
<!-- Node10&#45;&gt;Node8 -->
<g id="edge11" class="edge">
<title>Node10&#45;&gt;Node8</title>
<path fill="none" stroke="midnightblue" d="M636,-46.1C637.66,-37.14 639.56,-26.86 640.88,-19.75"/>
<polygon fill="midnightblue" stroke="midnightblue" points="632.53,-45.61 634.15,-56.08 639.41,-46.89 632.53,-45.61"/>
</g>
<!-- Node11 -->
<g id="node11" class="node">
<title>Node11</title>
<g id="a_node11"><a xlink:href="GNSSStateEstimationApp_8cpp.html" target="_top" xlink:title="State Estimation Application Using GNSS Measurement.">
<polygon fill="white" stroke="black" points="719,-0.5 719,-19.5 880,-19.5 880,-0.5 719,-0.5"/>
<text text-anchor="middle" x="799.5" y="-7.5" font-family="Helvetica,sans-Serif" font-size="10.00">GNSSStateEstimationApp.cpp</text>
</a>
</g>
</g>
<!-- Node10&#45;&gt;Node11 -->
<g id="edge10" class="edge">
<title>Node10&#45;&gt;Node11</title>
<path fill="none" stroke="midnightblue" d="M668.67,-53.3C700.14,-43.13 744.99,-28.62 773.16,-19.52"/>
<polygon fill="midnightblue" stroke="midnightblue" points="667.4,-50.04 658.96,-56.44 669.55,-56.7 667.4,-50.04"/>
</g>
<!-- Node13 -->
<g id="node13" class="node">
<title>Node13</title>
<g id="a_node13"><a xlink:href="StateEstimationApp_8cpp.html" target="_top" xlink:title="Base class for State Estimation Application.">
<polygon fill="white" stroke="black" points="1187.5,-0.5 1187.5,-19.5 1321.5,-19.5 1321.5,-0.5 1187.5,-0.5"/>
<text text-anchor="middle" x="1254.5" y="-7.5" font-family="Helvetica,sans-Serif" font-size="10.00">StateEstimationApp.cpp</text>
</a>
</g>
</g>
<!-- Node12&#45;&gt;Node13 -->
<g id="edge13" class="edge">
<title>Node12&#45;&gt;Node13</title>
<path fill="none" stroke="midnightblue" d="M1254.5,-45.8C1254.5,-36.91 1254.5,-26.78 1254.5,-19.75"/>
<polygon fill="midnightblue" stroke="midnightblue" points="1251,-46.08 1254.5,-56.08 1258,-46.08 1251,-46.08"/>
</g>
<!-- Node19 -->
<g id="node19" class="node">
<title>Node19</title>
<g id="a_node19"><a xlink:href="ExampleFrozenOrbits_8cpp.html" target="_top" xlink:title="Example of frozen orbits.">
<polygon fill="white" stroke="black" points="1334,-56.5 1334,-75.5 1475,-75.5 1475,-56.5 1334,-56.5"/>
<text text-anchor="middle" x="1404.5" y="-63.5" font-family="Helvetica,sans-Serif" font-size="10.00">ExampleFrozenOrbits.cpp</text>
</a>
</g>
</g>
<!-- Node18&#45;&gt;Node19 -->
<g id="edge23" class="edge">
<title>Node18&#45;&gt;Node19</title>
<path fill="none" stroke="midnightblue" d="M1225.76,-110.09C1268.08,-99.89 1330.41,-84.86 1369.17,-75.52"/>
<polygon fill="midnightblue" stroke="midnightblue" points="1224.89,-106.7 1215.99,-112.44 1226.54,-113.5 1224.89,-106.7"/>
</g>
</g>
</svg>
        <g id="navigator" transform="translate(0 0)" fill="#404254">
                <rect fill="#f2f5e9" fill-opacity="0.5" stroke="#606060" stroke-width=".5" x="0" y="0" width="60" height="60"/>
                <use id="zoomplus" xlink:href="#zoomPlus" x="17" y="9" onmousedown="handleZoom(evt,'in')"/>
                <use id="zoomminus" xlink:href="#zoomMin" x="42" y="9" onmousedown="handleZoom(evt,'out')"/>
                <use id="reset" xlink:href="#resetDef" x="30" y="36" onmousedown="handleReset()"/>
                <g id="arrowUp" xlink:href="#dirArrow" transform="translate(30 24)" onmousedown="handlePan(0,-1)">
                  <use xlink:href="#rim" fill="#404040">
                        <set attributeName="fill" to="#808080" begin="arrowUp.mouseover" end="arrowUp.mouseout"/>
                  </use>
                  <path fill="none" stroke="white" stroke-width="1.5" d="M0,-3.0v7 M-2.5,-0.5L0,-3.0L2.5,-0.5"/>
                </g>
                <g id="arrowRight" xlink:href="#dirArrow" transform="rotate(90) translate(36 -43)" onmousedown="handlePan(1,0)">
                  <use xlink:href="#rim" fill="#404040">
                        <set attributeName="fill" to="#808080" begin="arrowRight.mouseover" end="arrowRight.mouseout"/>
                  </use>
                  <path fill="none" stroke="white" stroke-width="1.5" d="M0,-3.0v7 M-2.5,-0.5L0,-3.0L2.5,-0.5"/>
                </g>
                <g id="arrowDown" xlink:href="#dirArrow" transform="rotate(180) translate(-30 -48)" onmousedown="handlePan(0,1)">
                  <use xlink:href="#rim" fill="#404040">
                        <set attributeName="fill" to="#808080" begin="arrowDown.mouseover" end="arrowDown.mouseout"/>
                  </use>
                  <path fill="none" stroke="white" stroke-width="1.5" d="M0,-3.0v7 M-2.5,-0.5L0,-3.0L2.5,-0.5"/>
                </g>
                <g id="arrowLeft" xlink:href="#dirArrow" transform="rotate(270) translate(-36 17)" onmousedown="handlePan(-1,0)">
                  <use xlink:href="#rim" fill="#404040">
                        <set attributeName="fill" to="#808080" begin="arrowLeft.mouseover" end="arrowLeft.mouseout"/>
                  </use>
                  <path fill="none" stroke="white" stroke-width="1.5" d="M0,-3.0v7 M-2.5,-0.5L0,-3.0L2.5,-0.5"/>
                </g>
        </g>
        <svg viewBox="0 0 15 15" width="100%" height="30px" preserveAspectRatio="xMaxYMin meet">
         <g id="arrow_out" transform="scale(0.3 0.3)">
          <a xlink:href="OrbitStateUtils_8h__dep__incl_org.svg" target="_base">
           <rect id="button" ry="5" rx="5" y="6" x="6" height="38" width="38"
                fill="#f2f5e9" fill-opacity="0.5" stroke="#606060" stroke-width="1.0"/>
           <path id="arrow"
             d="M 11.500037,31.436501 C 11.940474,20.09759 22.043105,11.32322 32.158766,21.979434 L 37.068811,17.246167 C 37.068811,17.246167 37.088388,32 37.088388,32 L 22.160133,31.978069 C 22.160133,31.978069 26.997745,27.140456 26.997745,27.140456 C 18.528582,18.264221 13.291696,25.230495 11.500037,31.436501 z"
             style="fill:#404040;"/>
          </a>
         </g>
        </svg>
</svg>
