<?xml version="1.0" encoding="UTF-8" standalone="no"?>
<!DOCTYPE svg PUBLIC "-//W3C//DTD SVG 1.1//EN"
 "http://www.w3.org/Graphics/SVG/1.1/DTD/svg11.dtd">
<!-- Generated by graphviz version 2.43.0 (0)
 -->
<!-- Title: OrbitState.cpp Pages: 1 -->
<svg width="1118pt" height="274pt"
 viewBox="0.00 0.00 1117.50 274.00" xmlns="http://www.w3.org/2000/svg" xmlns:xlink="http://www.w3.org/1999/xlink">
<g id="graph0" class="graph" transform="scale(1 1) rotate(0) translate(4 270)">
<title>OrbitState.cpp</title>
<polygon fill="white" stroke="transparent" points="-4,4 -4,-270 1113.5,-270 1113.5,4 -4,4"/>
<!-- Node1 -->
<g id="node1" class="node">
<title>Node1</title>
<g id="a_node1"><a xlink:title="Orbit states.">
<polygon fill="#bfbfbf" stroke="black" points="365.5,-246.5 365.5,-265.5 451.5,-265.5 451.5,-246.5 365.5,-246.5"/>
<text text-anchor="middle" x="408.5" y="-253.5" font-family="Helvetica,sans-Serif" font-size="10.00">OrbitState.cpp</text>
</a>
</g>
</g>
<!-- Node2 -->
<g id="node2" class="node">
<title>Node2</title>
<g id="a_node2"><a xlink:href="OrbitState_8h.html" target="_top" xlink:title="Orbit states.">
<polygon fill="white" stroke="black" points="335,-123.5 335,-142.5 478,-142.5 478,-123.5 335,-123.5"/>
<text text-anchor="middle" x="406.5" y="-130.5" font-family="Helvetica,sans-Serif" font-size="10.00">lupnt/physics/OrbitState.h</text>
</a>
</g>
</g>
<!-- Node1&#45;&gt;Node2 -->
<g id="edge1" class="edge">
<title>Node1&#45;&gt;Node2</title>
<path fill="none" stroke="midnightblue" d="M408.36,-246.3C408.03,-226.85 407.25,-179.49 406.81,-152.9"/>
<polygon fill="midnightblue" stroke="midnightblue" points="410.31,-152.56 406.64,-142.62 403.31,-152.68 410.31,-152.56"/>
</g>
<!-- Node10 -->
<g id="node10" class="node">
<title>Node10</title>
<g id="a_node10"><a xlink:title=" ">
<polygon fill="white" stroke="#bfbfbf" points="322.5,-185 322.5,-204 380.5,-204 380.5,-185 322.5,-185"/>
<text text-anchor="middle" x="351.5" y="-192" font-family="Helvetica,sans-Serif" font-size="10.00">memory</text>
</a>
</g>
</g>
<!-- Node1&#45;&gt;Node10 -->
<g id="edge11" class="edge">
<title>Node1&#45;&gt;Node10</title>
<path fill="none" stroke="midnightblue" d="M400.33,-246.48C391.61,-237.37 377.6,-222.74 366.81,-211.48"/>
<polygon fill="midnightblue" stroke="midnightblue" points="369.1,-208.81 359.65,-204.01 364.04,-213.65 369.1,-208.81"/>
</g>
<!-- Node11 -->
<g id="node11" class="node">
<title>Node11</title>
<g id="a_node11"><a xlink:href="Constants_8h.html" target="_top" xlink:title="List of constants.">
<polygon fill="white" stroke="black" points="716.5,-123.5 716.5,-142.5 842.5,-142.5 842.5,-123.5 716.5,-123.5"/>
<text text-anchor="middle" x="779.5" y="-130.5" font-family="Helvetica,sans-Serif" font-size="10.00">lupnt/core/Constants.h</text>
</a>
</g>
</g>
<!-- Node1&#45;&gt;Node11 -->
<g id="edge12" class="edge">
<title>Node1&#45;&gt;Node11</title>
<path fill="none" stroke="midnightblue" d="M446.53,-246.5C482.03,-238.25 536.3,-224.83 582.5,-210 643.06,-190.56 712.02,-162.56 750.17,-146.54"/>
<polygon fill="midnightblue" stroke="midnightblue" points="751.79,-149.65 759.64,-142.54 749.06,-143.21 751.79,-149.65"/>
</g>
<!-- Node18 -->
<g id="node18" class="node">
<title>Node18</title>
<g id="a_node18"><a xlink:href="MathUtils_8h.html" target="_top" xlink:title=" ">
<polygon fill="white" stroke="black" points="0,-67.5 0,-86.5 149,-86.5 149,-67.5 0,-67.5"/>
<text text-anchor="middle" x="74.5" y="-74.5" font-family="Helvetica,sans-Serif" font-size="10.00">lupnt/numerics/MathUtils.h</text>
</a>
</g>
</g>
<!-- Node1&#45;&gt;Node18 -->
<g id="edge21" class="edge">
<title>Node1&#45;&gt;Node18</title>
<path fill="none" stroke="midnightblue" d="M389.4,-246.38C370.1,-237.56 339.49,-223.31 313.5,-210 233.3,-168.91 140.4,-116.05 97.9,-91.56"/>
<polygon fill="midnightblue" stroke="midnightblue" points="99.56,-88.48 89.15,-86.51 96.06,-94.54 99.56,-88.48"/>
</g>
<!-- Node20 -->
<g id="node20" class="node">
<title>Node20</title>
<g id="a_node20"><a xlink:href="OrbitStateUtils_8h.html" target="_top" xlink:title="Util functions for state conversions.">
<polygon fill="white" stroke="black" points="439.5,-179.5 439.5,-209.5 573.5,-209.5 573.5,-179.5 439.5,-179.5"/>
<text text-anchor="start" x="447.5" y="-197.5" font-family="Helvetica,sans-Serif" font-size="10.00">lupnt/physics/OrbitState</text>
<text text-anchor="middle" x="506.5" y="-186.5" font-family="Helvetica,sans-Serif" font-size="10.00">Utils.h</text>
</a>
</g>
</g>
<!-- Node1&#45;&gt;Node20 -->
<g id="edge25" class="edge">
<title>Node1&#45;&gt;Node20</title>
<path fill="none" stroke="midnightblue" d="M422.54,-246.48C436.06,-238.27 456.99,-225.56 474.57,-214.88"/>
<polygon fill="midnightblue" stroke="midnightblue" points="476.67,-217.7 483.4,-209.52 473.04,-211.72 476.67,-217.7"/>
</g>
<!-- Node3 -->
<g id="node3" class="node">
<title>Node3</title>
<g id="a_node3"><a xlink:title=" ">
<polygon fill="white" stroke="#bfbfbf" points="435,-67.5 435,-86.5 512,-86.5 512,-67.5 435,-67.5"/>
<text text-anchor="middle" x="473.5" y="-74.5" font-family="Helvetica,sans-Serif" font-size="10.00">Eigen/Dense</text>
</a>
</g>
</g>
<!-- Node2&#45;&gt;Node3 -->
<g id="edge2" class="edge">
<title>Node2&#45;&gt;Node3</title>
<path fill="none" stroke="midnightblue" d="M417.26,-123.32C427.27,-115.26 442.39,-103.08 454.43,-93.37"/>
<polygon fill="midnightblue" stroke="midnightblue" points="456.95,-95.83 462.54,-86.83 452.56,-90.38 456.95,-95.83"/>
</g>
<!-- Node4 -->
<g id="node4" class="node">
<title>Node4</title>
<g id="a_node4"><a xlink:title=" ">
<polygon fill="white" stroke="#bfbfbf" points="366,-6 366,-25 503,-25 503,-6 366,-6"/>
<text text-anchor="middle" x="434.5" y="-13" font-family="Helvetica,sans-Serif" font-size="10.00">autodiff/forward/real.hpp</text>
</a>
</g>
</g>
<!-- Node2&#45;&gt;Node4 -->
<g id="edge3" class="edge">
<title>Node2&#45;&gt;Node4</title>
<path fill="none" stroke="midnightblue" d="M408.6,-123.32C413.12,-104.67 423.85,-60.44 429.98,-35.13"/>
<polygon fill="midnightblue" stroke="midnightblue" points="433.42,-35.83 432.37,-25.28 426.61,-34.18 433.42,-35.83"/>
</g>
<!-- Node5 -->
<g id="node5" class="node">
<title>Node5</title>
<g id="a_node5"><a xlink:title=" ">
<polygon fill="white" stroke="#bfbfbf" points="157.5,-0.5 157.5,-30.5 273.5,-30.5 273.5,-0.5 157.5,-0.5"/>
<text text-anchor="start" x="165.5" y="-18.5" font-family="Helvetica,sans-Serif" font-size="10.00">autodiff/forward/real</text>
<text text-anchor="middle" x="215.5" y="-7.5" font-family="Helvetica,sans-Serif" font-size="10.00">/eigen.hpp</text>
</a>
</g>
</g>
<!-- Node2&#45;&gt;Node5 -->
<g id="edge4" class="edge">
<title>Node2&#45;&gt;Node5</title>
<path fill="none" stroke="midnightblue" d="M387.7,-123.41C369.4,-114.85 341.01,-100.98 317.5,-87 291.11,-71.31 262.47,-51.22 242.27,-36.5"/>
<polygon fill="midnightblue" stroke="midnightblue" points="244.3,-33.65 234.16,-30.55 240.15,-39.29 244.3,-33.65"/>
</g>
<!-- Node6 -->
<g id="node6" class="node">
<title>Node6</title>
<g id="a_node6"><a xlink:title=" ">
<polygon fill="white" stroke="#bfbfbf" points="530.5,-67.5 530.5,-86.5 660.5,-86.5 660.5,-67.5 530.5,-67.5"/>
<text text-anchor="middle" x="595.5" y="-74.5" font-family="Helvetica,sans-Serif" font-size="10.00">boost/preprocessor.hpp</text>
</a>
</g>
</g>
<!-- Node2&#45;&gt;Node6 -->
<g id="edge5" class="edge">
<title>Node2&#45;&gt;Node6</title>
<path fill="none" stroke="midnightblue" d="M436.45,-123.44C468.66,-114.24 520.03,-99.56 555.64,-89.39"/>
<polygon fill="midnightblue" stroke="midnightblue" points="557.04,-92.63 565.69,-86.52 555.12,-85.9 557.04,-92.63"/>
</g>
<!-- Node7 -->
<g id="node7" class="node">
<title>Node7</title>
<g id="a_node7"><a xlink:title=" ">
<polygon fill="white" stroke="#bfbfbf" points="205,-67.5 205,-86.5 270,-86.5 270,-67.5 205,-67.5"/>
<text text-anchor="middle" x="237.5" y="-74.5" font-family="Helvetica,sans-Serif" font-size="10.00">stdexcept</text>
</a>
</g>
</g>
<!-- Node2&#45;&gt;Node7 -->
<g id="edge6" class="edge">
<title>Node2&#45;&gt;Node7</title>
<path fill="none" stroke="midnightblue" d="M379.72,-123.44C351.17,-114.32 305.77,-99.81 273.96,-89.65"/>
<polygon fill="midnightblue" stroke="midnightblue" points="274.74,-86.23 264.15,-86.52 272.61,-92.89 274.74,-86.23"/>
</g>
<!-- Node8 -->
<g id="node8" class="node">
<title>Node8</title>
<g id="a_node8"><a xlink:href="State_8h.html" target="_top" xlink:title="SPICE Interface functions.">
<polygon fill="white" stroke="black" points="327,-67.5 327,-86.5 378,-86.5 378,-67.5 327,-67.5"/>
<text text-anchor="middle" x="352.5" y="-74.5" font-family="Helvetica,sans-Serif" font-size="10.00">State.h</text>
</a>
</g>
</g>
<!-- Node2&#45;&gt;Node8 -->
<g id="edge7" class="edge">
<title>Node2&#45;&gt;Node8</title>
<path fill="none" stroke="midnightblue" d="M397.58,-123.08C389.72,-115.22 378.07,-103.57 368.58,-94.08"/>
<polygon fill="midnightblue" stroke="midnightblue" points="370.8,-91.35 361.25,-86.75 365.85,-96.3 370.8,-91.35"/>
</g>
<!-- Node8&#45;&gt;Node4 -->
<g id="edge8" class="edge">
<title>Node8&#45;&gt;Node4</title>
<path fill="none" stroke="midnightblue" d="M364.25,-67.48C377.28,-58.02 398.54,-42.6 414.26,-31.19"/>
<polygon fill="midnightblue" stroke="midnightblue" points="416.73,-33.71 422.77,-25.01 412.62,-28.05 416.73,-33.71"/>
</g>
<!-- Node8&#45;&gt;Node5 -->
<g id="edge9" class="edge">
<title>Node8&#45;&gt;Node5</title>
<path fill="none" stroke="midnightblue" d="M332.87,-67.48C313.19,-58.93 282.28,-45.5 257.11,-34.57"/>
<polygon fill="midnightblue" stroke="midnightblue" points="258.35,-31.3 247.79,-30.52 255.57,-37.72 258.35,-31.3"/>
</g>
<!-- Node9 -->
<g id="node9" class="node">
<title>Node9</title>
<g id="a_node9"><a xlink:title=" ">
<polygon fill="white" stroke="#bfbfbf" points="301,-6 301,-25 348,-25 348,-6 301,-6"/>
<text text-anchor="middle" x="324.5" y="-13" font-family="Helvetica,sans-Serif" font-size="10.00">vector</text>
</a>
</g>
</g>
<!-- Node8&#45;&gt;Node9 -->
<g id="edge10" class="edge">
<title>Node8&#45;&gt;Node9</title>
<path fill="none" stroke="midnightblue" d="M348.49,-67.48C344.41,-58.82 337.98,-45.15 332.8,-34.15"/>
<polygon fill="midnightblue" stroke="midnightblue" points="335.93,-32.57 328.5,-25.01 329.6,-35.55 335.93,-32.57"/>
</g>
<!-- Node11&#45;&gt;Node4 -->
<g id="edge14" class="edge">
<title>Node11&#45;&gt;Node4</title>
<path fill="none" stroke="midnightblue" d="M771.97,-123.21C759.22,-108.95 731.89,-80.97 702.5,-67 642.82,-38.64 568.56,-26.19 513.35,-20.73"/>
<polygon fill="midnightblue" stroke="midnightblue" points="513.56,-17.24 503.27,-19.79 512.91,-24.21 513.56,-17.24"/>
</g>
<!-- Node12 -->
<g id="node12" class="node">
<title>Node12</title>
<g id="a_node12"><a xlink:title=" ">
<polygon fill="white" stroke="#bfbfbf" points="793,-67.5 793,-86.5 944,-86.5 944,-67.5 793,-67.5"/>
<text text-anchor="middle" x="868.5" y="-74.5" font-family="Helvetica,sans-Serif" font-size="10.00">autodiff/common/eigen.hpp</text>
</a>
</g>
</g>
<!-- Node11&#45;&gt;Node12 -->
<g id="edge13" class="edge">
<title>Node11&#45;&gt;Node12</title>
<path fill="none" stroke="midnightblue" d="M793.8,-123.32C807.68,-114.9 828.99,-101.97 845.3,-92.07"/>
<polygon fill="midnightblue" stroke="midnightblue" points="847.5,-94.83 854.24,-86.65 843.87,-88.85 847.5,-94.83"/>
</g>
<!-- Node13 -->
<g id="node13" class="node">
<title>Node13</title>
<g id="a_node13"><a xlink:title=" ">
<polygon fill="white" stroke="#bfbfbf" points="784.5,-6 784.5,-25 828.5,-25 828.5,-6 784.5,-6"/>
<text text-anchor="middle" x="806.5" y="-13" font-family="Helvetica,sans-Serif" font-size="10.00">string</text>
</a>
</g>
</g>
<!-- Node11&#45;&gt;Node13 -->
<g id="edge15" class="edge">
<title>Node11&#45;&gt;Node13</title>
<path fill="none" stroke="midnightblue" d="M779.26,-123.44C779.11,-110.87 779.58,-86.77 784.5,-67 787.31,-55.69 792.44,-43.7 797.03,-34.24"/>
<polygon fill="midnightblue" stroke="midnightblue" points="800.25,-35.62 801.68,-25.12 794.02,-32.45 800.25,-35.62"/>
</g>
<!-- Node14 -->
<g id="node14" class="node">
<title>Node14</title>
<g id="a_node14"><a xlink:href="UserFilePath_8h.html" target="_top" xlink:title="File access utils.">
<polygon fill="white" stroke="black" points="962.5,-67.5 962.5,-86.5 1048.5,-86.5 1048.5,-67.5 962.5,-67.5"/>
<text text-anchor="middle" x="1005.5" y="-74.5" font-family="Helvetica,sans-Serif" font-size="10.00">UserFilePath.h</text>
</a>
</g>
</g>
<!-- Node11&#45;&gt;Node14 -->
<g id="edge16" class="edge">
<title>Node11&#45;&gt;Node14</title>
<path fill="none" stroke="midnightblue" d="M815.31,-123.44C854.49,-114.08 917.38,-99.06 960.02,-88.87"/>
<polygon fill="midnightblue" stroke="midnightblue" points="960.94,-92.24 969.86,-86.52 959.32,-85.44 960.94,-92.24"/>
</g>
<!-- Node14&#45;&gt;Node13 -->
<g id="edge20" class="edge">
<title>Node14&#45;&gt;Node13</title>
<path fill="none" stroke="midnightblue" d="M976.99,-67.48C940.19,-56.47 876.36,-37.39 838.11,-25.95"/>
<polygon fill="midnightblue" stroke="midnightblue" points="839.09,-22.59 828.51,-23.08 837.09,-29.3 839.09,-22.59"/>
</g>
<!-- Node15 -->
<g id="node15" class="node">
<title>Node15</title>
<g id="a_node15"><a xlink:title=" ">
<polygon fill="white" stroke="#bfbfbf" points="889.5,-6 889.5,-25 957.5,-25 957.5,-6 889.5,-6"/>
<text text-anchor="middle" x="923.5" y="-13" font-family="Helvetica,sans-Serif" font-size="10.00">filesystem</text>
</a>
</g>
</g>
<!-- Node14&#45;&gt;Node15 -->
<g id="edge17" class="edge">
<title>Node14&#45;&gt;Node15</title>
<path fill="none" stroke="midnightblue" d="M993.75,-67.48C980.72,-58.02 959.46,-42.6 943.74,-31.19"/>
<polygon fill="midnightblue" stroke="midnightblue" points="945.38,-28.05 935.23,-25.01 941.27,-33.71 945.38,-28.05"/>
</g>
<!-- Node16 -->
<g id="node16" class="node">
<title>Node16</title>
<g id="a_node16"><a xlink:title=" ">
<polygon fill="white" stroke="#bfbfbf" points="975.5,-6 975.5,-25 1035.5,-25 1035.5,-6 975.5,-6"/>
<text text-anchor="middle" x="1005.5" y="-13" font-family="Helvetica,sans-Serif" font-size="10.00">iostream</text>
</a>
</g>
</g>
<!-- Node14&#45;&gt;Node16 -->
<g id="edge18" class="edge">
<title>Node14&#45;&gt;Node16</title>
<path fill="none" stroke="midnightblue" d="M1005.5,-67.48C1005.5,-59.08 1005.5,-45.98 1005.5,-35.16"/>
<polygon fill="midnightblue" stroke="midnightblue" points="1009,-35.01 1005.5,-25.01 1002,-35.01 1009,-35.01"/>
</g>
<!-- Node17 -->
<g id="node17" class="node">
<title>Node17</title>
<g id="a_node17"><a xlink:title=" ">
<polygon fill="white" stroke="#bfbfbf" points="1053.5,-6 1053.5,-25 1109.5,-25 1109.5,-6 1053.5,-6"/>
<text text-anchor="middle" x="1081.5" y="-13" font-family="Helvetica,sans-Serif" font-size="10.00">optional</text>
</a>
</g>
</g>
<!-- Node14&#45;&gt;Node17 -->
<g id="edge19" class="edge">
<title>Node14&#45;&gt;Node17</title>
<path fill="none" stroke="midnightblue" d="M1016.39,-67.48C1028.47,-58.02 1048.17,-42.6 1062.74,-31.19"/>
<polygon fill="midnightblue" stroke="midnightblue" points="1064.91,-33.93 1070.63,-25.01 1060.6,-28.42 1064.91,-33.93"/>
</g>
<!-- Node18&#45;&gt;Node4 -->
<g id="edge22" class="edge">
<title>Node18&#45;&gt;Node4</title>
<path fill="none" stroke="midnightblue" d="M130.48,-67.5C187.44,-58.75 278.21,-44.52 356.5,-31 363.96,-29.71 371.8,-28.31 379.53,-26.9"/>
<polygon fill="midnightblue" stroke="midnightblue" points="380.37,-30.3 389.58,-25.05 379.11,-23.42 380.37,-30.3"/>
</g>
<!-- Node18&#45;&gt;Node5 -->
<g id="edge23" class="edge">
<title>Node18&#45;&gt;Node5</title>
<path fill="none" stroke="midnightblue" d="M94.7,-67.48C115.05,-58.89 147.06,-45.38 173.01,-34.43"/>
<polygon fill="midnightblue" stroke="midnightblue" points="174.42,-37.64 182.27,-30.52 171.7,-31.19 174.42,-37.64"/>
</g>
<!-- Node19 -->
<g id="node19" class="node">
<title>Node19</title>
<g id="a_node19"><a xlink:title=" ">
<polygon fill="white" stroke="#bfbfbf" points="47.5,-6 47.5,-25 101.5,-25 101.5,-6 47.5,-6"/>
<text text-anchor="middle" x="74.5" y="-13" font-family="Helvetica,sans-Serif" font-size="10.00">random</text>
</a>
</g>
</g>
<!-- Node18&#45;&gt;Node19 -->
<g id="edge24" class="edge">
<title>Node18&#45;&gt;Node19</title>
<path fill="none" stroke="midnightblue" d="M74.5,-67.48C74.5,-59.08 74.5,-45.98 74.5,-35.16"/>
<polygon fill="midnightblue" stroke="midnightblue" points="78,-35.01 74.5,-25.01 71,-35.01 78,-35.01"/>
</g>
<!-- Node20&#45;&gt;Node2 -->
<g id="edge27" class="edge">
<title>Node20&#45;&gt;Node2</title>
<path fill="none" stroke="midnightblue" d="M482.8,-179.4C466.77,-169.86 445.7,-157.32 429.76,-147.84"/>
<polygon fill="midnightblue" stroke="midnightblue" points="431.43,-144.76 421.05,-142.66 427.86,-150.78 431.43,-144.76"/>
</g>
<!-- Node20&#45;&gt;Node3 -->
<g id="edge28" class="edge">
<title>Node20&#45;&gt;Node3</title>
<path fill="none" stroke="midnightblue" d="M502.54,-179.45C498.51,-165.22 492.1,-142.57 486.5,-123 483.98,-114.19 481.16,-104.43 478.79,-96.25"/>
<polygon fill="midnightblue" stroke="midnightblue" points="482.15,-95.25 476,-86.62 475.43,-97.2 482.15,-95.25"/>
</g>
<!-- Node20&#45;&gt;Node4 -->
<g id="edge29" class="edge">
<title>Node20&#45;&gt;Node4</title>
<path fill="none" stroke="midnightblue" d="M553.32,-179.41C614.58,-158.62 709.68,-116.74 669.5,-67 650.01,-42.87 573.92,-29.74 513.53,-22.97"/>
<polygon fill="midnightblue" stroke="midnightblue" points="513.54,-19.45 503.22,-21.85 512.79,-26.41 513.54,-19.45"/>
</g>
<!-- Node20&#45;&gt;Node5 -->
<g id="edge30" class="edge">
<title>Node20&#45;&gt;Node5</title>
<path fill="none" stroke="midnightblue" d="M439.26,-180.41C356.28,-162.67 222.76,-128.42 195.5,-87 186.09,-72.7 192.09,-53.96 199.91,-39.4"/>
<polygon fill="midnightblue" stroke="midnightblue" points="203.08,-40.91 205.16,-30.52 197.06,-37.34 203.08,-40.91"/>
</g>
<!-- Node20&#45;&gt;Node6 -->
<g id="edge31" class="edge">
<title>Node20&#45;&gt;Node6</title>
<path fill="none" stroke="midnightblue" d="M517.41,-179.34C533.89,-157.96 565.04,-117.53 582.61,-94.73"/>
<polygon fill="midnightblue" stroke="midnightblue" points="585.49,-96.73 588.82,-86.67 579.94,-92.45 585.49,-96.73"/>
</g>
<!-- Node20&#45;&gt;Node11 -->
<g id="edge26" class="edge">
<title>Node20&#45;&gt;Node11</title>
<path fill="none" stroke="midnightblue" d="M570.85,-179.47C619.7,-168.83 685.84,-154.41 730.46,-144.69"/>
<polygon fill="midnightblue" stroke="midnightblue" points="731.45,-148.06 740.47,-142.51 729.95,-141.22 731.45,-148.06"/>
</g>
</g>
</svg>
