<?xml version="1.0" encoding="UTF-8" standalone="no"?>
<!DOCTYPE svg PUBLIC "-//W3C//DTD SVG 1.1//EN"
 "http://www.w3.org/Graphics/SVG/1.1/DTD/svg11.dtd">
<!-- Generated by graphviz version 2.43.0 (0)
 -->
<!-- Title: OrbitStateUtils.h Pages: 1 -->
<svg width="1013pt" height="207pt"
 viewBox="0.00 0.00 1013.45 207.00" xmlns="http://www.w3.org/2000/svg" xmlns:xlink="http://www.w3.org/1999/xlink">
<g id="graph0" class="graph" transform="scale(1 1) rotate(0) translate(4 203)">
<title>OrbitStateUtils.h</title>
<polygon fill="white" stroke="transparent" points="-4,4 -4,-203 1009.45,-203 1009.45,4 -4,4"/>
<!-- Node1 -->
<g id="node1" class="node">
<title>Node1</title>
<g id="a_node1"><a xlink:title="Util functions for state conversions.">
<polygon fill="#bfbfbf" stroke="black" points="594,-179.5 594,-198.5 692,-198.5 692,-179.5 594,-179.5"/>
<text text-anchor="middle" x="643" y="-186.5" font-family="Helvetica,sans-Serif" font-size="10.00">OrbitStateUtils.h</text>
</a>
</g>
</g>
<!-- Node2 -->
<g id="node2" class="node">
<title>Node2</title>
<g id="a_node2"><a xlink:href="Constants_8h.html" target="_top" xlink:title="List of constants.">
<polygon fill="white" stroke="black" points="235,-123.5 235,-142.5 361,-142.5 361,-123.5 235,-123.5"/>
<text text-anchor="middle" x="298" y="-130.5" font-family="Helvetica,sans-Serif" font-size="10.00">lupnt/core/Constants.h</text>
</a>
</g>
</g>
<!-- Node1&#45;&gt;Node2 -->
<g id="edge1" class="edge">
<title>Node1&#45;&gt;Node2</title>
<path fill="none" stroke="midnightblue" d="M593.94,-180.32C533.24,-170.82 429.74,-154.62 362.62,-144.12"/>
<polygon fill="midnightblue" stroke="midnightblue" points="363.01,-140.63 352.59,-142.54 361.93,-147.55 363.01,-140.63"/>
</g>
<!-- Node4 -->
<g id="node4" class="node">
<title>Node4</title>
<g id="a_node4"><a xlink:title=" ">
<polygon fill="white" stroke="#bfbfbf" points="476.5,-6 476.5,-25 613.5,-25 613.5,-6 476.5,-6"/>
<text text-anchor="middle" x="545" y="-13" font-family="Helvetica,sans-Serif" font-size="10.00">autodiff/forward/real.hpp</text>
</a>
</g>
</g>
<!-- Node1&#45;&gt;Node4 -->
<g id="edge21" class="edge">
<title>Node1&#45;&gt;Node4</title>
<path fill="none" stroke="midnightblue" d="M625.76,-179.42C598.56,-164.78 546.66,-132.14 526,-87 518.11,-69.77 525.92,-48.62 533.78,-34.01"/>
<polygon fill="midnightblue" stroke="midnightblue" points="536.98,-35.46 539.03,-25.06 530.95,-31.91 536.98,-35.46"/>
</g>
<!-- Node10 -->
<g id="node10" class="node">
<title>Node10</title>
<g id="a_node10"><a xlink:href="OrbitState_8h.html" target="_top" xlink:title="Orbit states.">
<polygon fill="white" stroke="black" points="622.5,-123.5 622.5,-142.5 765.5,-142.5 765.5,-123.5 622.5,-123.5"/>
<text text-anchor="middle" x="694" y="-130.5" font-family="Helvetica,sans-Serif" font-size="10.00">lupnt/physics/OrbitState.h</text>
</a>
</g>
</g>
<!-- Node1&#45;&gt;Node10 -->
<g id="edge10" class="edge">
<title>Node1&#45;&gt;Node10</title>
<path fill="none" stroke="midnightblue" d="M651.42,-179.08C658.85,-171.22 669.85,-159.57 678.81,-150.08"/>
<polygon fill="midnightblue" stroke="midnightblue" points="681.41,-152.42 685.74,-142.75 676.32,-147.62 681.41,-152.42"/>
</g>
<!-- Node11 -->
<g id="node11" class="node">
<title>Node11</title>
<g id="a_node11"><a xlink:title=" ">
<polygon fill="white" stroke="#bfbfbf" points="534.5,-67.5 534.5,-86.5 611.5,-86.5 611.5,-67.5 534.5,-67.5"/>
<text text-anchor="middle" x="573" y="-74.5" font-family="Helvetica,sans-Serif" font-size="10.00">Eigen/Dense</text>
</a>
</g>
</g>
<!-- Node1&#45;&gt;Node11 -->
<g id="edge20" class="edge">
<title>Node1&#45;&gt;Node11</title>
<path fill="none" stroke="midnightblue" d="M637.42,-179.39C631.56,-170.34 622.09,-155.7 614,-143 603.73,-126.89 592.11,-108.46 583.88,-95.35"/>
<polygon fill="midnightblue" stroke="midnightblue" points="586.82,-93.46 578.54,-86.85 580.9,-97.18 586.82,-93.46"/>
</g>
<!-- Node12 -->
<g id="node12" class="node">
<title>Node12</title>
<g id="a_node12"><a xlink:title=" ">
<polygon fill="white" stroke="#bfbfbf" points="773,-0.5 773,-30.5 889,-30.5 889,-0.5 773,-0.5"/>
<text text-anchor="start" x="781" y="-18.5" font-family="Helvetica,sans-Serif" font-size="10.00">autodiff/forward/real</text>
<text text-anchor="middle" x="831" y="-7.5" font-family="Helvetica,sans-Serif" font-size="10.00">/eigen.hpp</text>
</a>
</g>
</g>
<!-- Node1&#45;&gt;Node12 -->
<g id="edge22" class="edge">
<title>Node1&#45;&gt;Node12</title>
<path fill="none" stroke="midnightblue" d="M692.27,-181.37C780.89,-168.32 961.36,-136.22 998,-87 1027.62,-47.21 957.45,-29.69 899.14,-22.1"/>
<polygon fill="midnightblue" stroke="midnightblue" points="899.52,-18.62 889.17,-20.88 898.67,-25.57 899.52,-18.62"/>
</g>
<!-- Node13 -->
<g id="node13" class="node">
<title>Node13</title>
<g id="a_node13"><a xlink:title=" ">
<polygon fill="white" stroke="#bfbfbf" points="859,-67.5 859,-86.5 989,-86.5 989,-67.5 859,-67.5"/>
<text text-anchor="middle" x="924" y="-74.5" font-family="Helvetica,sans-Serif" font-size="10.00">boost/preprocessor.hpp</text>
</a>
</g>
</g>
<!-- Node1&#45;&gt;Node13 -->
<g id="edge23" class="edge">
<title>Node1&#45;&gt;Node13</title>
<path fill="none" stroke="midnightblue" d="M670.29,-179.43C697.15,-170.82 739.22,-156.88 775,-143 817.79,-126.41 866.34,-104.67 896.07,-91.01"/>
<polygon fill="midnightblue" stroke="midnightblue" points="897.78,-94.08 905.39,-86.71 894.84,-87.72 897.78,-94.08"/>
</g>
<!-- Node3 -->
<g id="node3" class="node">
<title>Node3</title>
<g id="a_node3"><a xlink:title=" ">
<polygon fill="white" stroke="#bfbfbf" points="326.5,-67.5 326.5,-86.5 477.5,-86.5 477.5,-67.5 326.5,-67.5"/>
<text text-anchor="middle" x="402" y="-74.5" font-family="Helvetica,sans-Serif" font-size="10.00">autodiff/common/eigen.hpp</text>
</a>
</g>
</g>
<!-- Node2&#45;&gt;Node3 -->
<g id="edge2" class="edge">
<title>Node2&#45;&gt;Node3</title>
<path fill="none" stroke="midnightblue" d="M314.71,-123.32C331.31,-114.7 357,-101.36 376.22,-91.39"/>
<polygon fill="midnightblue" stroke="midnightblue" points="378.07,-94.37 385.33,-86.65 374.84,-88.16 378.07,-94.37"/>
</g>
<!-- Node2&#45;&gt;Node4 -->
<g id="edge3" class="edge">
<title>Node2&#45;&gt;Node4</title>
<path fill="none" stroke="midnightblue" d="M298.05,-123.42C298.62,-109.46 301.87,-81.9 318,-67 339.55,-47.1 409.74,-33.53 466.43,-25.5"/>
<polygon fill="midnightblue" stroke="midnightblue" points="467.06,-28.95 476.48,-24.12 466.1,-22.02 467.06,-28.95"/>
</g>
<!-- Node5 -->
<g id="node5" class="node">
<title>Node5</title>
<g id="a_node5"><a xlink:title=" ">
<polygon fill="white" stroke="#bfbfbf" points="238,-6 238,-25 282,-25 282,-6 238,-6"/>
<text text-anchor="middle" x="260" y="-13" font-family="Helvetica,sans-Serif" font-size="10.00">string</text>
</a>
</g>
</g>
<!-- Node2&#45;&gt;Node5 -->
<g id="edge4" class="edge">
<title>Node2&#45;&gt;Node5</title>
<path fill="none" stroke="midnightblue" d="M295.14,-123.32C288.98,-104.59 274.33,-60.05 266.02,-34.79"/>
<polygon fill="midnightblue" stroke="midnightblue" points="269.34,-33.69 262.89,-25.28 262.69,-35.87 269.34,-33.69"/>
</g>
<!-- Node6 -->
<g id="node6" class="node">
<title>Node6</title>
<g id="a_node6"><a xlink:href="UserFilePath_8h.html" target="_top" xlink:title="File access utils.">
<polygon fill="white" stroke="black" points="146,-67.5 146,-86.5 232,-86.5 232,-67.5 146,-67.5"/>
<text text-anchor="middle" x="189" y="-74.5" font-family="Helvetica,sans-Serif" font-size="10.00">UserFilePath.h</text>
</a>
</g>
</g>
<!-- Node2&#45;&gt;Node6 -->
<g id="edge5" class="edge">
<title>Node2&#45;&gt;Node6</title>
<path fill="none" stroke="midnightblue" d="M280.49,-123.32C262.93,-114.62 235.67,-101.12 215.47,-91.11"/>
<polygon fill="midnightblue" stroke="midnightblue" points="216.98,-87.96 206.47,-86.65 213.88,-94.23 216.98,-87.96"/>
</g>
<!-- Node6&#45;&gt;Node5 -->
<g id="edge9" class="edge">
<title>Node6&#45;&gt;Node5</title>
<path fill="none" stroke="midnightblue" d="M199.17,-67.48C210.35,-58.11 228.52,-42.88 242.09,-31.51"/>
<polygon fill="midnightblue" stroke="midnightblue" points="244.43,-34.11 249.85,-25.01 239.93,-28.75 244.43,-34.11"/>
</g>
<!-- Node7 -->
<g id="node7" class="node">
<title>Node7</title>
<g id="a_node7"><a xlink:title=" ">
<polygon fill="white" stroke="#bfbfbf" points="74,-6 74,-25 142,-25 142,-6 74,-6"/>
<text text-anchor="middle" x="108" y="-13" font-family="Helvetica,sans-Serif" font-size="10.00">filesystem</text>
</a>
</g>
</g>
<!-- Node6&#45;&gt;Node7 -->
<g id="edge6" class="edge">
<title>Node6&#45;&gt;Node7</title>
<path fill="none" stroke="midnightblue" d="M177.39,-67.48C164.52,-58.02 143.53,-42.6 127.99,-31.19"/>
<polygon fill="midnightblue" stroke="midnightblue" points="129.72,-28.11 119.58,-25.01 125.57,-33.75 129.72,-28.11"/>
</g>
<!-- Node8 -->
<g id="node8" class="node">
<title>Node8</title>
<g id="a_node8"><a xlink:title=" ">
<polygon fill="white" stroke="#bfbfbf" points="160,-6 160,-25 220,-25 220,-6 160,-6"/>
<text text-anchor="middle" x="190" y="-13" font-family="Helvetica,sans-Serif" font-size="10.00">iostream</text>
</a>
</g>
</g>
<!-- Node6&#45;&gt;Node8 -->
<g id="edge7" class="edge">
<title>Node6&#45;&gt;Node8</title>
<path fill="none" stroke="midnightblue" d="M189.14,-67.48C189.28,-59.08 189.5,-45.98 189.69,-35.16"/>
<polygon fill="midnightblue" stroke="midnightblue" points="193.19,-35.07 189.86,-25.01 186.19,-34.95 193.19,-35.07"/>
</g>
<!-- Node9 -->
<g id="node9" class="node">
<title>Node9</title>
<g id="a_node9"><a xlink:title=" ">
<polygon fill="white" stroke="#bfbfbf" points="0,-6 0,-25 56,-25 56,-6 0,-6"/>
<text text-anchor="middle" x="28" y="-13" font-family="Helvetica,sans-Serif" font-size="10.00">optional</text>
</a>
</g>
</g>
<!-- Node6&#45;&gt;Node9 -->
<g id="edge8" class="edge">
<title>Node6&#45;&gt;Node9</title>
<path fill="none" stroke="midnightblue" d="M164.7,-67.39C139.65,-58.46 99.5,-44.02 65,-31 63.11,-30.29 61.17,-29.55 59.22,-28.8"/>
<polygon fill="midnightblue" stroke="midnightblue" points="60.07,-25.38 49.49,-25.03 57.55,-31.9 60.07,-25.38"/>
</g>
<!-- Node10&#45;&gt;Node4 -->
<g id="edge12" class="edge">
<title>Node10&#45;&gt;Node4</title>
<path fill="none" stroke="midnightblue" d="M684.91,-123.15C671.45,-110.21 645.19,-85.65 621,-67 603.86,-53.78 583.37,-40.29 567.98,-30.58"/>
<polygon fill="midnightblue" stroke="midnightblue" points="569.47,-27.38 559.14,-25.06 565.77,-33.32 569.47,-27.38"/>
</g>
<!-- Node10&#45;&gt;Node11 -->
<g id="edge11" class="edge">
<title>Node10&#45;&gt;Node11</title>
<path fill="none" stroke="midnightblue" d="M674.83,-123.44C655.09,-114.64 624.11,-100.81 601.51,-90.72"/>
<polygon fill="midnightblue" stroke="midnightblue" points="602.64,-87.4 592.08,-86.52 599.79,-93.79 602.64,-87.4"/>
</g>
<!-- Node10&#45;&gt;Node12 -->
<g id="edge13" class="edge">
<title>Node10&#45;&gt;Node12</title>
<path fill="none" stroke="midnightblue" d="M745.37,-123.44C768.67,-117.07 794.8,-106.03 812,-87 823.35,-74.44 828.03,-55.79 829.91,-40.83"/>
<polygon fill="midnightblue" stroke="midnightblue" points="833.41,-41 830.84,-30.73 826.44,-40.36 833.41,-41"/>
</g>
<!-- Node10&#45;&gt;Node13 -->
<g id="edge14" class="edge">
<title>Node10&#45;&gt;Node13</title>
<path fill="none" stroke="midnightblue" d="M730.44,-123.44C770.4,-114.06 834.59,-98.99 877.98,-88.8"/>
<polygon fill="midnightblue" stroke="midnightblue" points="878.79,-92.21 887.73,-86.52 877.19,-85.39 878.79,-92.21"/>
</g>
<!-- Node14 -->
<g id="node14" class="node">
<title>Node14</title>
<g id="a_node14"><a xlink:title=" ">
<polygon fill="white" stroke="#bfbfbf" points="737.5,-67.5 737.5,-86.5 802.5,-86.5 802.5,-67.5 737.5,-67.5"/>
<text text-anchor="middle" x="770" y="-74.5" font-family="Helvetica,sans-Serif" font-size="10.00">stdexcept</text>
</a>
</g>
</g>
<!-- Node10&#45;&gt;Node14 -->
<g id="edge15" class="edge">
<title>Node10&#45;&gt;Node14</title>
<path fill="none" stroke="midnightblue" d="M706.21,-123.32C717.78,-115.11 735.38,-102.6 749.16,-92.81"/>
<polygon fill="midnightblue" stroke="midnightblue" points="751.44,-95.48 757.57,-86.83 747.39,-89.77 751.44,-95.48"/>
</g>
<!-- Node15 -->
<g id="node15" class="node">
<title>Node15</title>
<g id="a_node15"><a xlink:href="State_8h.html" target="_top" xlink:title="SPICE Interface functions.">
<polygon fill="white" stroke="black" points="668.5,-67.5 668.5,-86.5 719.5,-86.5 719.5,-67.5 668.5,-67.5"/>
<text text-anchor="middle" x="694" y="-74.5" font-family="Helvetica,sans-Serif" font-size="10.00">State.h</text>
</a>
</g>
</g>
<!-- Node10&#45;&gt;Node15 -->
<g id="edge16" class="edge">
<title>Node10&#45;&gt;Node15</title>
<path fill="none" stroke="midnightblue" d="M694,-123.08C694,-116.01 694,-105.86 694,-96.99"/>
<polygon fill="midnightblue" stroke="midnightblue" points="697.5,-96.75 694,-86.75 690.5,-96.75 697.5,-96.75"/>
</g>
<!-- Node15&#45;&gt;Node4 -->
<g id="edge17" class="edge">
<title>Node15&#45;&gt;Node4</title>
<path fill="none" stroke="midnightblue" d="M672.65,-67.48C647.31,-57.36 604.86,-40.4 575.93,-28.85"/>
<polygon fill="midnightblue" stroke="midnightblue" points="576.89,-25.47 566.31,-25.01 574.3,-31.97 576.89,-25.47"/>
</g>
<!-- Node15&#45;&gt;Node12 -->
<g id="edge18" class="edge">
<title>Node15&#45;&gt;Node12</title>
<path fill="none" stroke="midnightblue" d="M713.63,-67.48C733.31,-58.93 764.22,-45.5 789.39,-34.57"/>
<polygon fill="midnightblue" stroke="midnightblue" points="790.93,-37.72 798.71,-30.52 788.15,-31.3 790.93,-37.72"/>
</g>
<!-- Node16 -->
<g id="node16" class="node">
<title>Node16</title>
<g id="a_node16"><a xlink:title=" ">
<polygon fill="white" stroke="#bfbfbf" points="670.5,-6 670.5,-25 717.5,-25 717.5,-6 670.5,-6"/>
<text text-anchor="middle" x="694" y="-13" font-family="Helvetica,sans-Serif" font-size="10.00">vector</text>
</a>
</g>
</g>
<!-- Node15&#45;&gt;Node16 -->
<g id="edge19" class="edge">
<title>Node15&#45;&gt;Node16</title>
<path fill="none" stroke="midnightblue" d="M694,-67.48C694,-59.08 694,-45.98 694,-35.16"/>
<polygon fill="midnightblue" stroke="midnightblue" points="697.5,-35.01 694,-25.01 690.5,-35.01 697.5,-35.01"/>
</g>
</g>
</svg>
