<?xml version="1.0" encoding="UTF-8" standalone="no"?>
<!DOCTYPE svg PUBLIC "-//W3C//DTD SVG 1.1//EN"
 "http://www.w3.org/Graphics/SVG/1.1/DTD/svg11.dtd">
<!-- Generated by graphviz version 2.43.0 (0)
 -->
<!-- Title: Propagator.cpp Pages: 1 -->
<svg width="504pt" height="207pt"
 viewBox="0.00 0.00 503.50 207.00" xmlns="http://www.w3.org/2000/svg" xmlns:xlink="http://www.w3.org/1999/xlink">
<g id="graph0" class="graph" transform="scale(1 1) rotate(0) translate(4 203)">
<title>Propagator.cpp</title>
<polygon fill="white" stroke="transparent" points="-4,4 -4,-203 499.5,-203 499.5,4 -4,4"/>
<!-- Node1 -->
<g id="node1" class="node">
<title>Node1</title>
<g id="a_node1"><a xlink:title="Propagator class.">
<polygon fill="#bfbfbf" stroke="black" points="263.5,-179.5 263.5,-198.5 352.5,-198.5 352.5,-179.5 263.5,-179.5"/>
<text text-anchor="middle" x="308" y="-186.5" font-family="Helvetica,sans-Serif" font-size="10.00">Propagator.cpp</text>
</a>
</g>
</g>
<!-- Node2 -->
<g id="node2" class="node">
<title>Node2</title>
<g id="a_node2"><a xlink:href="Propagator_8h.html" target="_top" xlink:title="Numerical Propagator.">
<polygon fill="white" stroke="black" points="269,-123.5 269,-142.5 347,-142.5 347,-123.5 269,-123.5"/>
<text text-anchor="middle" x="308" y="-130.5" font-family="Helvetica,sans-Serif" font-size="10.00">Propagator.h</text>
</a>
</g>
</g>
<!-- Node1&#45;&gt;Node2 -->
<g id="edge1" class="edge">
<title>Node1&#45;&gt;Node2</title>
<path fill="none" stroke="midnightblue" d="M308,-179.08C308,-172.01 308,-161.86 308,-152.99"/>
<polygon fill="midnightblue" stroke="midnightblue" points="311.5,-152.75 308,-142.75 304.5,-152.75 311.5,-152.75"/>
</g>
<!-- Node3 -->
<g id="node3" class="node">
<title>Node3</title>
<g id="a_node3"><a xlink:title=" ">
<polygon fill="white" stroke="#bfbfbf" points="358.5,-6 358.5,-25 495.5,-25 495.5,-6 358.5,-6"/>
<text text-anchor="middle" x="427" y="-13" font-family="Helvetica,sans-Serif" font-size="10.00">autodiff/forward/real.hpp</text>
</a>
</g>
</g>
<!-- Node1&#45;&gt;Node3 -->
<g id="edge9" class="edge">
<title>Node1&#45;&gt;Node3</title>
<path fill="none" stroke="midnightblue" d="M325.97,-179.26C353.74,-164.63 406.06,-132.25 427,-87 434.54,-70.71 433.44,-49.96 431.13,-35.19"/>
<polygon fill="midnightblue" stroke="midnightblue" points="434.54,-34.42 429.24,-25.24 427.67,-35.72 434.54,-34.42"/>
</g>
<!-- Node8 -->
<g id="node8" class="node">
<title>Node8</title>
<g id="a_node8"><a xlink:title=" ">
<polygon fill="white" stroke="#bfbfbf" points="0,-0.5 0,-30.5 116,-30.5 116,-0.5 0,-0.5"/>
<text text-anchor="start" x="8" y="-18.5" font-family="Helvetica,sans-Serif" font-size="10.00">autodiff/forward/real</text>
<text text-anchor="middle" x="58" y="-7.5" font-family="Helvetica,sans-Serif" font-size="10.00">/eigen.hpp</text>
</a>
</g>
</g>
<!-- Node1&#45;&gt;Node8 -->
<g id="edge10" class="edge">
<title>Node1&#45;&gt;Node8</title>
<path fill="none" stroke="midnightblue" d="M263.25,-186.87C198.39,-182.53 80.11,-163.86 26,-87 15.46,-72.02 25.2,-53.02 36.63,-38.51"/>
<polygon fill="midnightblue" stroke="midnightblue" points="39.58,-40.44 43.41,-30.56 34.26,-35.9 39.58,-40.44"/>
</g>
<!-- Node2&#45;&gt;Node3 -->
<g id="edge2" class="edge">
<title>Node2&#45;&gt;Node3</title>
<path fill="none" stroke="midnightblue" d="M346.15,-123.41C367.2,-116.8 392.2,-105.55 408,-87 420.3,-72.56 424.72,-50.9 426.26,-35.41"/>
<polygon fill="midnightblue" stroke="midnightblue" points="429.75,-35.62 426.94,-25.4 422.77,-35.14 429.75,-35.62"/>
</g>
<!-- Node4 -->
<g id="node4" class="node">
<title>Node4</title>
<g id="a_node4"><a xlink:title=" ">
<polygon fill="white" stroke="#bfbfbf" points="201,-67.5 201,-86.5 261,-86.5 261,-67.5 201,-67.5"/>
<text text-anchor="middle" x="231" y="-74.5" font-family="Helvetica,sans-Serif" font-size="10.00">iostream</text>
</a>
</g>
</g>
<!-- Node2&#45;&gt;Node4 -->
<g id="edge3" class="edge">
<title>Node2&#45;&gt;Node4</title>
<path fill="none" stroke="midnightblue" d="M295.63,-123.32C283.84,-115.06 265.87,-102.45 251.86,-92.63"/>
<polygon fill="midnightblue" stroke="midnightblue" points="253.54,-89.53 243.34,-86.65 249.52,-95.26 253.54,-89.53"/>
</g>
<!-- Node5 -->
<g id="node5" class="node">
<title>Node5</title>
<g id="a_node5"><a xlink:title=" ">
<polygon fill="white" stroke="#bfbfbf" points="279,-67.5 279,-86.5 337,-86.5 337,-67.5 279,-67.5"/>
<text text-anchor="middle" x="308" y="-74.5" font-family="Helvetica,sans-Serif" font-size="10.00">memory</text>
</a>
</g>
</g>
<!-- Node2&#45;&gt;Node5 -->
<g id="edge4" class="edge">
<title>Node2&#45;&gt;Node5</title>
<path fill="none" stroke="midnightblue" d="M308,-123.08C308,-116.01 308,-105.86 308,-96.99"/>
<polygon fill="midnightblue" stroke="midnightblue" points="311.5,-96.75 308,-86.75 304.5,-96.75 311.5,-96.75"/>
</g>
<!-- Node6 -->
<g id="node6" class="node">
<title>Node6</title>
<g id="a_node6"><a xlink:title=" ">
<polygon fill="white" stroke="#bfbfbf" points="355,-67.5 355,-86.5 399,-86.5 399,-67.5 355,-67.5"/>
<text text-anchor="middle" x="377" y="-74.5" font-family="Helvetica,sans-Serif" font-size="10.00">string</text>
</a>
</g>
</g>
<!-- Node2&#45;&gt;Node6 -->
<g id="edge5" class="edge">
<title>Node2&#45;&gt;Node6</title>
<path fill="none" stroke="midnightblue" d="M319.09,-123.32C329.49,-115.18 345.26,-102.84 357.72,-93.09"/>
<polygon fill="midnightblue" stroke="midnightblue" points="359.99,-95.75 365.71,-86.83 355.68,-90.24 359.99,-95.75"/>
</g>
<!-- Node7 -->
<g id="node7" class="node">
<title>Node7</title>
<g id="a_node7"><a xlink:href="Integrator_8h.html" target="_top" xlink:title="Integrator interfaces.">
<polygon fill="white" stroke="black" points="34.5,-67.5 34.5,-86.5 183.5,-86.5 183.5,-67.5 34.5,-67.5"/>
<text text-anchor="middle" x="109" y="-74.5" font-family="Helvetica,sans-Serif" font-size="10.00">lupnt/numerics/Integrator.h</text>
</a>
</g>
</g>
<!-- Node2&#45;&gt;Node7 -->
<g id="edge6" class="edge">
<title>Node2&#45;&gt;Node7</title>
<path fill="none" stroke="midnightblue" d="M276.47,-123.44C242.41,-114.2 187.99,-99.44 150.48,-89.26"/>
<polygon fill="midnightblue" stroke="midnightblue" points="150.95,-85.76 140.38,-86.52 149.12,-92.51 150.95,-85.76"/>
</g>
<!-- Node7&#45;&gt;Node3 -->
<g id="edge7" class="edge">
<title>Node7&#45;&gt;Node3</title>
<path fill="none" stroke="midnightblue" d="M154.56,-67.48C211.83,-56.76 310.05,-38.38 371.6,-26.87"/>
<polygon fill="midnightblue" stroke="midnightblue" points="372.34,-30.29 381.52,-25.01 371.05,-23.41 372.34,-30.29"/>
</g>
<!-- Node7&#45;&gt;Node8 -->
<g id="edge8" class="edge">
<title>Node7&#45;&gt;Node8</title>
<path fill="none" stroke="midnightblue" d="M101.69,-67.48C95.17,-59.87 85.34,-48.4 76.66,-38.26"/>
<polygon fill="midnightblue" stroke="midnightblue" points="79.19,-35.84 70.02,-30.52 73.87,-40.39 79.19,-35.84"/>
</g>
</g>
</svg>
