<?xml version="1.0" encoding="UTF-8" standalone="no"?>
<!DOCTYPE svg PUBLIC "-//W3C//DTD SVG 1.1//EN"
 "http://www.w3.org/Graphics/SVG/1.1/DTD/svg11.dtd">
<!-- Generated by graphviz version 2.43.0 (0)
 -->
<!-- Title: Propagator.h Pages: 1 -->
<svg width="386pt" height="151pt"
 viewBox="0.00 0.00 385.79 151.00" xmlns="http://www.w3.org/2000/svg" xmlns:xlink="http://www.w3.org/1999/xlink">
<g id="graph0" class="graph" transform="scale(1 1) rotate(0) translate(4 147)">
<title>Propagator.h</title>
<polygon fill="white" stroke="transparent" points="-4,4 -4,-147 381.79,-147 381.79,4 -4,4"/>
<!-- Node1 -->
<g id="node1" class="node">
<title>Node1</title>
<g id="a_node1"><a xlink:title="Numerical Propagator.">
<polygon fill="#bfbfbf" stroke="black" points="81.29,-123.5 81.29,-142.5 159.29,-142.5 159.29,-123.5 81.29,-123.5"/>
<text text-anchor="middle" x="120.29" y="-130.5" font-family="Helvetica,sans-Serif" font-size="10.00">Propagator.h</text>
</a>
</g>
</g>
<!-- Node2 -->
<g id="node2" class="node">
<title>Node2</title>
<g id="a_node2"><a xlink:title=" ">
<polygon fill="white" stroke="#bfbfbf" points="3.79,-6 3.79,-25 140.79,-25 140.79,-6 3.79,-6"/>
<text text-anchor="middle" x="72.29" y="-13" font-family="Helvetica,sans-Serif" font-size="10.00">autodiff/forward/real.hpp</text>
</a>
</g>
</g>
<!-- Node1&#45;&gt;Node2 -->
<g id="edge1" class="edge">
<title>Node1&#45;&gt;Node2</title>
<path fill="none" stroke="midnightblue" d="M81.23,-128.08C54.71,-123.15 21.44,-112.04 4.29,-87 -10.87,-64.85 18.51,-43.22 43.28,-29.88"/>
<polygon fill="midnightblue" stroke="midnightblue" points="45.13,-32.86 52.44,-25.19 41.94,-26.63 45.13,-32.86"/>
</g>
<!-- Node3 -->
<g id="node3" class="node">
<title>Node3</title>
<g id="a_node3"><a xlink:title=" ">
<polygon fill="white" stroke="#bfbfbf" points="13.29,-67.5 13.29,-86.5 73.29,-86.5 73.29,-67.5 13.29,-67.5"/>
<text text-anchor="middle" x="43.29" y="-74.5" font-family="Helvetica,sans-Serif" font-size="10.00">iostream</text>
</a>
</g>
</g>
<!-- Node1&#45;&gt;Node3 -->
<g id="edge2" class="edge">
<title>Node1&#45;&gt;Node3</title>
<path fill="none" stroke="midnightblue" d="M107.92,-123.32C96.14,-115.06 78.16,-102.45 64.16,-92.63"/>
<polygon fill="midnightblue" stroke="midnightblue" points="65.83,-89.53 55.63,-86.65 61.81,-95.26 65.83,-89.53"/>
</g>
<!-- Node4 -->
<g id="node4" class="node">
<title>Node4</title>
<g id="a_node4"><a xlink:title=" ">
<polygon fill="white" stroke="#bfbfbf" points="91.29,-67.5 91.29,-86.5 149.29,-86.5 149.29,-67.5 91.29,-67.5"/>
<text text-anchor="middle" x="120.29" y="-74.5" font-family="Helvetica,sans-Serif" font-size="10.00">memory</text>
</a>
</g>
</g>
<!-- Node1&#45;&gt;Node4 -->
<g id="edge3" class="edge">
<title>Node1&#45;&gt;Node4</title>
<path fill="none" stroke="midnightblue" d="M120.29,-123.08C120.29,-116.01 120.29,-105.86 120.29,-96.99"/>
<polygon fill="midnightblue" stroke="midnightblue" points="123.79,-96.75 120.29,-86.75 116.79,-96.75 123.79,-96.75"/>
</g>
<!-- Node5 -->
<g id="node5" class="node">
<title>Node5</title>
<g id="a_node5"><a xlink:title=" ">
<polygon fill="white" stroke="#bfbfbf" points="167.29,-67.5 167.29,-86.5 211.29,-86.5 211.29,-67.5 167.29,-67.5"/>
<text text-anchor="middle" x="189.29" y="-74.5" font-family="Helvetica,sans-Serif" font-size="10.00">string</text>
</a>
</g>
</g>
<!-- Node1&#45;&gt;Node5 -->
<g id="edge4" class="edge">
<title>Node1&#45;&gt;Node5</title>
<path fill="none" stroke="midnightblue" d="M131.38,-123.32C141.78,-115.18 157.55,-102.84 170.02,-93.09"/>
<polygon fill="midnightblue" stroke="midnightblue" points="172.29,-95.75 178.01,-86.83 167.97,-90.24 172.29,-95.75"/>
</g>
<!-- Node6 -->
<g id="node6" class="node">
<title>Node6</title>
<g id="a_node6"><a xlink:href="Integrator_8h.html" target="_top" xlink:title="Integrator interfaces.">
<polygon fill="white" stroke="black" points="228.79,-67.5 228.79,-86.5 377.79,-86.5 377.79,-67.5 228.79,-67.5"/>
<text text-anchor="middle" x="303.29" y="-74.5" font-family="Helvetica,sans-Serif" font-size="10.00">lupnt/numerics/Integrator.h</text>
</a>
</g>
</g>
<!-- Node1&#45;&gt;Node6 -->
<g id="edge5" class="edge">
<title>Node1&#45;&gt;Node6</title>
<path fill="none" stroke="midnightblue" d="M149.29,-123.44C180.48,-114.24 230.22,-99.56 264.7,-89.39"/>
<polygon fill="midnightblue" stroke="midnightblue" points="265.83,-92.7 274.43,-86.52 263.85,-85.99 265.83,-92.7"/>
</g>
<!-- Node6&#45;&gt;Node2 -->
<g id="edge6" class="edge">
<title>Node6&#45;&gt;Node2</title>
<path fill="none" stroke="midnightblue" d="M270.2,-67.48C229.37,-56.96 159.89,-39.06 115.05,-27.51"/>
<polygon fill="midnightblue" stroke="midnightblue" points="115.89,-24.11 105.33,-25.01 114.14,-30.89 115.89,-24.11"/>
</g>
<!-- Node7 -->
<g id="node7" class="node">
<title>Node7</title>
<g id="a_node7"><a xlink:title=" ">
<polygon fill="white" stroke="#bfbfbf" points="245.29,-0.5 245.29,-30.5 361.29,-30.5 361.29,-0.5 245.29,-0.5"/>
<text text-anchor="start" x="253.29" y="-18.5" font-family="Helvetica,sans-Serif" font-size="10.00">autodiff/forward/real</text>
<text text-anchor="middle" x="303.29" y="-7.5" font-family="Helvetica,sans-Serif" font-size="10.00">/eigen.hpp</text>
</a>
</g>
</g>
<!-- Node6&#45;&gt;Node7 -->
<g id="edge7" class="edge">
<title>Node6&#45;&gt;Node7</title>
<path fill="none" stroke="midnightblue" d="M303.29,-67.48C303.29,-60.47 303.29,-50.19 303.29,-40.7"/>
<polygon fill="midnightblue" stroke="midnightblue" points="306.79,-40.52 303.29,-30.52 299.79,-40.52 306.79,-40.52"/>
</g>
</g>
</svg>
