<?xml version="1.0" encoding="UTF-8" standalone="no"?>
<!DOCTYPE svg PUBLIC "-//W3C//DTD SVG 1.1//EN"
 "http://www.w3.org/Graphics/SVG/1.1/DTD/svg11.dtd">
<!-- Generated by graphviz version 2.43.0 (0)
 -->
<!-- Title: Propagator.h Pages: 1 -->
<!--zoomable 252 -->
<svg id="main" version="1.1" xmlns="http://www.w3.org/2000/svg" xmlns:xlink="http://www.w3.org/1999/xlink" xml:space="preserve" onload="init(evt)">
<style type="text/css"><![CDATA[
.edge:hover path { stroke: red; }
.edge:hover polygon { stroke: red; fill: red; }
]]></style>
<script type="text/javascript"><![CDATA[
var edges = document.getElementsByTagName('g');
if (edges && edges.length) {
  for (var i=0;i<edges.length;i++) {
    if (edges[i].id.substr(0,4)=='edge') {
      edges[i].setAttribute('class','edge');
    }
  }
}
]]></script>
        <defs>
                <circle id="rim" cx="0" cy="0" r="7"/>
                <circle id="rim2" cx="0" cy="0" r="3.5"/>
                <g id="zoomPlus">
                        <use xlink:href="#rim" fill="#404040">
                                <set attributeName="fill" to="#808080" begin="zoomplus.mouseover" end="zoomplus.mouseout"/>
                        </use>
                        <path d="M-4,0h8M0,-4v8" fill="none" stroke="white" stroke-width="1.5" pointer-events="none"/>
                </g>
                <g id="zoomMin">
                        <use xlink:href="#rim" fill="#404040">
                                <set attributeName="fill" to="#808080" begin="zoomminus.mouseover" end="zoomminus.mouseout"/>
                        </use>
                        <path d="M-4,0h8" fill="none" stroke="white" stroke-width="1.5" pointer-events="none"/>
                </g>
                <g id="dirArrow">
                        <path fill="none" stroke="white" stroke-width="1.5" d="M0,-3.0v7 M-2.5,-0.5L0,-3.0L2.5,-0.5"/>
                </g>
               <g id="resetDef">
                       <use xlink:href="#rim2" fill="#404040">
                               <set attributeName="fill" to="#808080" begin="reset.mouseover" end="reset.mouseout"/>
                       </use>
               </g>
        </defs>

<script type="text/javascript">
var viewWidth = 1884;
var viewHeight = 252;
var sectionId = 'dynsection-1';
</script>
<script xlink:href="svgpan.js"/>
<svg id="graph" class="graph">
<g id="viewport">
<title>Propagator.h</title>
<polygon fill="white" stroke="transparent" points="-4,4 -4,-248 1879.5,-248 1879.5,4 -4,4"/>
<!-- Node1 -->
<g id="node1" class="node">
<title>Node1</title>
<g id="a_node1"><a xlink:title="Numerical Propagator.">
<polygon fill="#bfbfbf" stroke="black" points="1114.5,-224.5 1114.5,-243.5 1192.5,-243.5 1192.5,-224.5 1114.5,-224.5"/>
<text text-anchor="middle" x="1153.5" y="-231.5" font-family="Helvetica,sans-Serif" font-size="10.00">Propagator.h</text>
</a>
</g>
</g>
<!-- Node2 -->
<g id="node2" class="node">
<title>Node2</title>
<g id="a_node2"><a xlink:href="Dynamics_8h.html" target="_top" xlink:title="Interface for Dynamics.">
<polygon fill="white" stroke="black" points="1066.5,-168.5 1066.5,-187.5 1140.5,-187.5 1140.5,-168.5 1066.5,-168.5"/>
<text text-anchor="middle" x="1103.5" y="-175.5" font-family="Helvetica,sans-Serif" font-size="10.00">Dynamics.h</text>
</a>
</g>
</g>
<!-- Node1&#45;&gt;Node2 -->
<g id="edge1" class="edge">
<title>Node1&#45;&gt;Node2</title>
<path fill="none" stroke="midnightblue" d="M1138.42,-216.72C1129.61,-207.2 1118.83,-195.56 1111.6,-187.75"/>
<polygon fill="midnightblue" stroke="midnightblue" points="1135.88,-219.12 1145.24,-224.08 1141.02,-214.37 1135.88,-219.12"/>
</g>
<!-- Node23 -->
<g id="node23" class="node">
<title>Node23</title>
<g id="a_node23"><a xlink:href="Propagator_8cpp.html" target="_top" xlink:title="Propagator class.">
<polygon fill="white" stroke="black" points="1159,-168.5 1159,-187.5 1248,-187.5 1248,-168.5 1159,-168.5"/>
<text text-anchor="middle" x="1203.5" y="-175.5" font-family="Helvetica,sans-Serif" font-size="10.00">Propagator.cpp</text>
</a>
</g>
</g>
<!-- Node1&#45;&gt;Node23 -->
<g id="edge32" class="edge">
<title>Node1&#45;&gt;Node23</title>
<path fill="none" stroke="midnightblue" d="M1168.58,-216.72C1177.39,-207.2 1188.17,-195.56 1195.4,-187.75"/>
<polygon fill="midnightblue" stroke="midnightblue" points="1165.98,-214.37 1161.76,-224.08 1171.12,-219.12 1165.98,-214.37"/>
</g>
<!-- Node3 -->
<g id="node3" class="node">
<title>Node3</title>
<g id="a_node3"><a xlink:href="Agent_8h.html" target="_top" xlink:title="List of agents.">
<polygon fill="white" stroke="black" points="583.5,-112.5 583.5,-131.5 637.5,-131.5 637.5,-112.5 583.5,-112.5"/>
<text text-anchor="middle" x="610.5" y="-119.5" font-family="Helvetica,sans-Serif" font-size="10.00">Agent.h</text>
</a>
</g>
</g>
<!-- Node2&#45;&gt;Node3 -->
<g id="edge2" class="edge">
<title>Node2&#45;&gt;Node3</title>
<path fill="none" stroke="midnightblue" d="M1056.47,-171.85C954.91,-160.72 717.78,-134.75 637.57,-125.96"/>
<polygon fill="midnightblue" stroke="midnightblue" points="1056.12,-175.33 1066.44,-172.94 1056.89,-168.37 1056.12,-175.33"/>
</g>
<!-- Node5 -->
<g id="node5" class="node">
<title>Node5</title>
<g id="a_node5"><a xlink:href="GNSSConstellation_8h.html" target="_top" xlink:title=" ">
<polygon fill="white" stroke="black" points="237,-56.5 237,-75.5 354,-75.5 354,-56.5 237,-56.5"/>
<text text-anchor="middle" x="295.5" y="-63.5" font-family="Helvetica,sans-Serif" font-size="10.00">GNSSConstellation.h</text>
</a>
</g>
</g>
<!-- Node2&#45;&gt;Node5 -->
<g id="edge22" class="edge">
<title>Node2&#45;&gt;Node5</title>
<path fill="none" stroke="midnightblue" d="M1056.21,-175.26C963.36,-171.35 750.92,-159.91 574.5,-132 482.88,-117.51 376.68,-89.63 325.77,-75.57"/>
<polygon fill="midnightblue" stroke="midnightblue" points="1056.27,-178.77 1066.4,-175.68 1056.55,-171.77 1056.27,-178.77"/>
</g>
<!-- Node7 -->
<g id="node7" class="node">
<title>Node7</title>
<g id="a_node7"><a xlink:href="ExampleConstellations_8cpp.html" target="_top" xlink:title="Setup GNSS Constellation.">
<polygon fill="white" stroke="black" points="0,-0.5 0,-19.5 149,-19.5 149,-0.5 0,-0.5"/>
<text text-anchor="middle" x="74.5" y="-7.5" font-family="Helvetica,sans-Serif" font-size="10.00">ExampleConstellations.cpp</text>
</a>
</g>
</g>
<!-- Node2&#45;&gt;Node7 -->
<g id="edge26" class="edge">
<title>Node2&#45;&gt;Node7</title>
<path fill="none" stroke="midnightblue" d="M1056.43,-176.02C888.66,-172.32 325.89,-158.06 249.5,-132 176.79,-107.19 106.71,-42.82 82.98,-19.55"/>
<polygon fill="midnightblue" stroke="midnightblue" points="1056.36,-179.52 1066.44,-176.24 1056.52,-172.52 1056.36,-179.52"/>
</g>
<!-- Node8 -->
<g id="node8" class="node">
<title>Node8</title>
<g id="a_node8"><a xlink:href="ExampleEKF_8cpp.html" target="_top" xlink:title="Example of Extended Kalman Filter for orbit determination.">
<polygon fill="white" stroke="black" points="167,-0.5 167,-19.5 264,-19.5 264,-0.5 167,-0.5"/>
<text text-anchor="middle" x="215.5" y="-7.5" font-family="Helvetica,sans-Serif" font-size="10.00">ExampleEKF.cpp</text>
</a>
</g>
</g>
<!-- Node2&#45;&gt;Node8 -->
<g id="edge27" class="edge">
<title>Node2&#45;&gt;Node8</title>
<path fill="none" stroke="midnightblue" d="M1056.49,-175.97C950.99,-173.16 687.52,-163.32 469.5,-132 353.79,-115.37 285.84,-167.04 212.5,-76 199.46,-59.81 206.71,-33.32 211.83,-19.69"/>
<polygon fill="midnightblue" stroke="midnightblue" points="1056.41,-179.47 1066.5,-176.23 1056.59,-172.47 1056.41,-179.47"/>
</g>
<!-- Node9 -->
<g id="node9" class="node">
<title>Node9</title>
<g id="a_node9"><a xlink:href="ExampleEKFApp_8cpp.html" target="_top" xlink:title="Example of EKF application.">
<polygon fill="white" stroke="black" points="996.5,-0.5 996.5,-19.5 1112.5,-19.5 1112.5,-0.5 996.5,-0.5"/>
<text text-anchor="middle" x="1054.5" y="-7.5" font-family="Helvetica,sans-Serif" font-size="10.00">ExampleEKFApp.cpp</text>
</a>
</g>
</g>
<!-- Node2&#45;&gt;Node9 -->
<g id="edge28" class="edge">
<title>Node2&#45;&gt;Node9</title>
<path fill="none" stroke="midnightblue" d="M1104.27,-157.75C1105.88,-143.29 1110.36,-124 1122.5,-112 1166.97,-68.08 1290.47,-104.87 1251.5,-56 1242.42,-44.62 1162.29,-29.07 1107.06,-19.55"/>
<polygon fill="midnightblue" stroke="midnightblue" points="1100.76,-157.84 1103.51,-168.08 1107.74,-158.36 1100.76,-157.84"/>
</g>
<!-- Node10 -->
<g id="node10" class="node">
<title>Node10</title>
<g id="a_node10"><a xlink:href="ExamplePropagation_8cpp.html" target="_top" xlink:title="Example propagating both GPS constellation and Lunar Satellite.">
<polygon fill="white" stroke="black" points="428.5,-0.5 428.5,-19.5 566.5,-19.5 566.5,-0.5 428.5,-0.5"/>
<text text-anchor="middle" x="497.5" y="-7.5" font-family="Helvetica,sans-Serif" font-size="10.00">ExamplePropagation.cpp</text>
</a>
</g>
</g>
<!-- Node2&#45;&gt;Node10 -->
<g id="edge31" class="edge">
<title>Node2&#45;&gt;Node10</title>
<path fill="none" stroke="midnightblue" d="M1095.34,-159.02C1081.73,-131.42 1051.6,-79.35 1008.5,-56 934.01,-15.64 688.02,-10.42 566.57,-10.39"/>
<polygon fill="midnightblue" stroke="midnightblue" points="1092.29,-160.76 1099.73,-168.29 1098.61,-157.76 1092.29,-160.76"/>
</g>
<!-- Node18 -->
<g id="node18" class="node">
<title>Node18</title>
<g id="a_node18"><a xlink:href="DynamicsAnalytical_8cpp.html" target="_top" xlink:title="Analytical orbit dynamics implementation.">
<polygon fill="white" stroke="black" points="1131.5,-112.5 1131.5,-131.5 1265.5,-131.5 1265.5,-112.5 1131.5,-112.5"/>
<text text-anchor="middle" x="1198.5" y="-119.5" font-family="Helvetica,sans-Serif" font-size="10.00">DynamicsAnalytical.cpp</text>
</a>
</g>
</g>
<!-- Node2&#45;&gt;Node18 -->
<g id="edge23" class="edge">
<title>Node2&#45;&gt;Node18</title>
<path fill="none" stroke="midnightblue" d="M1127.82,-163.18C1145.3,-153.24 1168.33,-140.15 1183.27,-131.65"/>
<polygon fill="midnightblue" stroke="midnightblue" points="1125.73,-160.34 1118.76,-168.32 1129.19,-166.43 1125.73,-160.34"/>
</g>
<!-- Node19 -->
<g id="node19" class="node">
<title>Node19</title>
<g id="a_node19"><a xlink:href="DynamicsNumerical_8cpp.html" target="_top" xlink:title="List of Numerical Dynamics.">
<polygon fill="white" stroke="black" points="1283.5,-112.5 1283.5,-131.5 1419.5,-131.5 1419.5,-112.5 1283.5,-112.5"/>
<text text-anchor="middle" x="1351.5" y="-119.5" font-family="Helvetica,sans-Serif" font-size="10.00">DynamicsNumerical.cpp</text>
</a>
</g>
</g>
<!-- Node2&#45;&gt;Node19 -->
<g id="edge24" class="edge">
<title>Node2&#45;&gt;Node19</title>
<path fill="none" stroke="midnightblue" d="M1150.51,-166.76C1197.26,-156.59 1268.17,-141.15 1312.07,-131.59"/>
<polygon fill="midnightblue" stroke="midnightblue" points="1149.65,-163.37 1140.63,-168.92 1151.14,-170.21 1149.65,-163.37"/>
</g>
<!-- Node20 -->
<g id="node20" class="node">
<title>Node20</title>
<g id="a_node20"><a xlink:href="NBodyDynamics_8cpp.html" target="_top" xlink:title="Multiple&#45;body dynamics.">
<polygon fill="white" stroke="black" points="1437.5,-112.5 1437.5,-131.5 1555.5,-131.5 1555.5,-112.5 1437.5,-112.5"/>
<text text-anchor="middle" x="1496.5" y="-119.5" font-family="Helvetica,sans-Serif" font-size="10.00">NBodyDynamics.cpp</text>
</a>
</g>
</g>
<!-- Node2&#45;&gt;Node20 -->
<g id="edge25" class="edge">
<title>Node2&#45;&gt;Node20</title>
<path fill="none" stroke="midnightblue" d="M1150.59,-168.08C1275.17,-148.26 1308.1,-147.76 1428.5,-132 1431.33,-131.63 1434.23,-131.25 1437.16,-130.86"/>
<polygon fill="midnightblue" stroke="midnightblue" points="1149.98,-164.63 1140.66,-169.67 1151.09,-171.54 1149.98,-164.63"/>
</g>
<!-- Node21 -->
<g id="node21" class="node">
<title>Node21</title>
<g id="a_node21"><a xlink:href="ExampleFrozenOrbits_8cpp.html" target="_top" xlink:title="Example of frozen orbits.">
<polygon fill="white" stroke="black" points="1574,-112.5 1574,-131.5 1715,-131.5 1715,-112.5 1574,-112.5"/>
<text text-anchor="middle" x="1644.5" y="-119.5" font-family="Helvetica,sans-Serif" font-size="10.00">ExampleFrozenOrbits.cpp</text>
</a>
</g>
</g>
<!-- Node2&#45;&gt;Node21 -->
<g id="edge29" class="edge">
<title>Node2&#45;&gt;Node21</title>
<path fill="none" stroke="midnightblue" d="M1150.68,-168.14C1335.14,-142.86 1383.95,-150 1564.5,-132 1567.56,-131.69 1570.68,-131.38 1573.84,-131.05"/>
<polygon fill="midnightblue" stroke="midnightblue" points="1150.07,-164.69 1140.64,-169.52 1151.03,-171.62 1150.07,-164.69"/>
</g>
<!-- Node22 -->
<g id="node22" class="node">
<title>Node22</title>
<g id="a_node22"><a xlink:href="ExamplePerformance_8cpp.html" target="_top" xlink:title="Example for performance testing of spherical harmonics computation.">
<polygon fill="white" stroke="black" points="1733.5,-112.5 1733.5,-131.5 1875.5,-131.5 1875.5,-112.5 1733.5,-112.5"/>
<text text-anchor="middle" x="1804.5" y="-119.5" font-family="Helvetica,sans-Serif" font-size="10.00">ExamplePerformance.cpp</text>
</a>
</g>
</g>
<!-- Node2&#45;&gt;Node22 -->
<g id="edge30" class="edge">
<title>Node2&#45;&gt;Node22</title>
<path fill="none" stroke="midnightblue" d="M1150.57,-168.19C1405.79,-136.36 1473.09,-154.01 1724.5,-132 1727.42,-131.74 1730.41,-131.47 1733.42,-131.18"/>
<polygon fill="midnightblue" stroke="midnightblue" points="1150.11,-164.72 1140.63,-169.44 1150.99,-171.66 1150.11,-164.72"/>
</g>
<!-- Node4 -->
<g id="node4" class="node">
<title>Node4</title>
<g id="a_node4"><a xlink:href="Agent_8cpp.html" target="_top" xlink:title="Base class fo.">
<polygon fill="white" stroke="black" points="372,-56.5 372,-75.5 437,-75.5 437,-56.5 372,-56.5"/>
<text text-anchor="middle" x="404.5" y="-63.5" font-family="Helvetica,sans-Serif" font-size="10.00">Agent.cpp</text>
</a>
</g>
</g>
<!-- Node3&#45;&gt;Node4 -->
<g id="edge3" class="edge">
<title>Node3&#45;&gt;Node4</title>
<path fill="none" stroke="midnightblue" d="M573.27,-111.24C534.42,-101.06 474.09,-85.24 437.07,-75.54"/>
<polygon fill="midnightblue" stroke="midnightblue" points="572.58,-114.68 583.14,-113.83 574.36,-107.91 572.58,-114.68"/>
</g>
<!-- Node3&#45;&gt;Node5 -->
<g id="edge4" class="edge">
<title>Node3&#45;&gt;Node5</title>
<path fill="none" stroke="midnightblue" d="M573.41,-114.64C516.75,-104.93 408.54,-86.38 345.16,-75.51"/>
<polygon fill="midnightblue" stroke="midnightblue" points="572.92,-118.11 583.37,-116.35 574.11,-111.21 572.92,-118.11"/>
</g>
<!-- Node3&#45;&gt;Node7 -->
<g id="edge18" class="edge">
<title>Node3&#45;&gt;Node7</title>
<path fill="none" stroke="midnightblue" d="M573.08,-120.81C501.62,-119.57 341.35,-112.55 212.5,-76 164.86,-62.49 113.18,-34.03 88.79,-19.68"/>
<polygon fill="midnightblue" stroke="midnightblue" points="573.32,-124.32 583.37,-120.96 573.42,-117.32 573.32,-124.32"/>
</g>
<!-- Node3&#45;&gt;Node8 -->
<g id="edge19" class="edge">
<title>Node3&#45;&gt;Node8</title>
<path fill="none" stroke="midnightblue" d="M573.14,-119.1C481.75,-114.12 252.47,-99.39 227.5,-76 211.92,-61.41 212.65,-33.71 214.21,-19.65"/>
<polygon fill="midnightblue" stroke="midnightblue" points="573.16,-122.61 583.33,-119.65 573.53,-115.62 573.16,-122.61"/>
</g>
<!-- Node3&#45;&gt;Node9 -->
<g id="edge20" class="edge">
<title>Node3&#45;&gt;Node9</title>
<path fill="none" stroke="midnightblue" d="M647.99,-120.61C735.04,-119.1 948.01,-111.75 1008.5,-76 1030.88,-62.78 1045.19,-33.92 1051.22,-19.52"/>
<polygon fill="midnightblue" stroke="midnightblue" points="647.72,-117.11 637.78,-120.77 647.83,-124.11 647.72,-117.11"/>
</g>
<!-- Node3&#45;&gt;Node10 -->
<g id="edge21" class="edge">
<title>Node3&#45;&gt;Node10</title>
<path fill="none" stroke="midnightblue" d="M573.28,-118.81C543.82,-114.88 504.43,-104.28 484.5,-76 472.43,-58.88 484.1,-33.25 491.84,-19.86"/>
<polygon fill="midnightblue" stroke="midnightblue" points="572.91,-122.29 583.24,-119.94 573.69,-115.33 572.91,-122.29"/>
</g>
<!-- Node11 -->
<g id="node11" class="node">
<title>Node11</title>
<g id="a_node11"><a xlink:href="GNSSStateEstimationApp_8h.html" target="_top" xlink:title="State Estimation Application Using GNSS Measurement.">
<polygon fill="white" stroke="black" points="1093,-56.5 1093,-75.5 1242,-75.5 1242,-56.5 1093,-56.5"/>
<text text-anchor="middle" x="1167.5" y="-63.5" font-family="Helvetica,sans-Serif" font-size="10.00">GNSSStateEstimationApp.h</text>
</a>
</g>
</g>
<!-- Node3&#45;&gt;Node11 -->
<g id="edge10" class="edge">
<title>Node3&#45;&gt;Node11</title>
<path fill="none" stroke="midnightblue" d="M647.83,-117.38C738.52,-108.59 971.85,-85.97 1092.61,-74.26"/>
<polygon fill="midnightblue" stroke="midnightblue" points="647.36,-113.91 637.74,-118.36 648.03,-120.88 647.36,-113.91"/>
</g>
<!-- Node13 -->
<g id="node13" class="node">
<title>Node13</title>
<g id="a_node13"><a xlink:href="StateEstimationApp_8h.html" target="_top" xlink:title="Base class for State Estimation Application.">
<polygon fill="white" stroke="black" points="877.5,-56.5 877.5,-75.5 999.5,-75.5 999.5,-56.5 877.5,-56.5"/>
<text text-anchor="middle" x="938.5" y="-63.5" font-family="Helvetica,sans-Serif" font-size="10.00">StateEstimationApp.h</text>
</a>
</g>
</g>
<!-- Node3&#45;&gt;Node13 -->
<g id="edge13" class="edge">
<title>Node3&#45;&gt;Node13</title>
<path fill="none" stroke="midnightblue" d="M647.54,-114.9C706.04,-105.27 820.03,-86.5 886.65,-75.54"/>
<polygon fill="midnightblue" stroke="midnightblue" points="646.92,-111.46 637.62,-116.54 648.06,-118.36 646.92,-111.46"/>
</g>
<!-- Node15 -->
<g id="node15" class="node">
<title>Node15</title>
<g id="a_node15"><a xlink:href="GNSSChannel_8cpp.html" target="_top" xlink:title="GNSS Channel.">
<polygon fill="white" stroke="black" points="493.5,-56.5 493.5,-75.5 597.5,-75.5 597.5,-56.5 493.5,-56.5"/>
<text text-anchor="middle" x="545.5" y="-63.5" font-family="Helvetica,sans-Serif" font-size="10.00">GNSSChannel.cpp</text>
</a>
</g>
</g>
<!-- Node3&#45;&gt;Node15 -->
<g id="edge15" class="edge">
<title>Node3&#45;&gt;Node15</title>
<path fill="none" stroke="midnightblue" d="M592.23,-105.82C580.58,-96.15 565.9,-83.95 556.13,-75.83"/>
<polygon fill="midnightblue" stroke="midnightblue" points="590.13,-108.63 600.06,-112.32 594.6,-103.24 590.13,-108.63"/>
</g>
<!-- Node16 -->
<g id="node16" class="node">
<title>Node16</title>
<g id="a_node16"><a xlink:href="GNSSTransmitter_8cpp.html" target="_top" xlink:title="Handles GNSS transmit.">
<polygon fill="white" stroke="black" points="616,-56.5 616,-75.5 735,-75.5 735,-56.5 616,-56.5"/>
<text text-anchor="middle" x="675.5" y="-63.5" font-family="Helvetica,sans-Serif" font-size="10.00">GNSSTransmitter.cpp</text>
</a>
</g>
</g>
<!-- Node3&#45;&gt;Node16 -->
<g id="edge16" class="edge">
<title>Node3&#45;&gt;Node16</title>
<path fill="none" stroke="midnightblue" d="M628.77,-105.82C640.42,-96.15 655.1,-83.95 664.87,-75.83"/>
<polygon fill="midnightblue" stroke="midnightblue" points="626.4,-103.24 620.94,-112.32 630.87,-108.63 626.4,-103.24"/>
</g>
<!-- Node17 -->
<g id="node17" class="node">
<title>Node17</title>
<g id="a_node17"><a xlink:href="SpaceChannel_8cpp.html" target="_top" xlink:title="Base spacechannel class (Under devlopment )">
<polygon fill="white" stroke="black" points="753.5,-56.5 753.5,-75.5 859.5,-75.5 859.5,-56.5 753.5,-56.5"/>
<text text-anchor="middle" x="806.5" y="-63.5" font-family="Helvetica,sans-Serif" font-size="10.00">SpaceChannel.cpp</text>
</a>
</g>
</g>
<!-- Node3&#45;&gt;Node17 -->
<g id="edge17" class="edge">
<title>Node3&#45;&gt;Node17</title>
<path fill="none" stroke="midnightblue" d="M647.66,-110.76C684.7,-100.56 740.93,-85.06 775.61,-75.51"/>
<polygon fill="midnightblue" stroke="midnightblue" points="646.46,-107.46 637.75,-113.49 648.32,-114.21 646.46,-107.46"/>
</g>
<!-- Node6 -->
<g id="node6" class="node">
<title>Node6</title>
<g id="a_node6"><a xlink:href="GNSSConstellation_8cpp.html" target="_top" xlink:title="GNSS Constellation.">
<polygon fill="white" stroke="black" points="282.5,-0.5 282.5,-19.5 410.5,-19.5 410.5,-0.5 282.5,-0.5"/>
<text text-anchor="middle" x="346.5" y="-7.5" font-family="Helvetica,sans-Serif" font-size="10.00">GNSSConstellation.cpp</text>
</a>
</g>
</g>
<!-- Node5&#45;&gt;Node6 -->
<g id="edge5" class="edge">
<title>Node5&#45;&gt;Node6</title>
<path fill="none" stroke="midnightblue" d="M310.88,-48.72C319.87,-39.2 330.86,-27.56 338.24,-19.75"/>
<polygon fill="midnightblue" stroke="midnightblue" points="308.24,-46.41 303.92,-56.08 313.33,-51.22 308.24,-46.41"/>
</g>
<!-- Node5&#45;&gt;Node7 -->
<g id="edge6" class="edge">
<title>Node5&#45;&gt;Node7</title>
<path fill="none" stroke="midnightblue" d="M250.58,-54.02C208.83,-43.82 147.52,-28.84 109.35,-19.52"/>
<polygon fill="midnightblue" stroke="midnightblue" points="249.94,-57.47 260.48,-56.44 251.6,-50.67 249.94,-57.47"/>
</g>
<!-- Node5&#45;&gt;Node8 -->
<g id="edge7" class="edge">
<title>Node5&#45;&gt;Node8</title>
<path fill="none" stroke="midnightblue" d="M274.2,-50.62C259.58,-40.76 240.67,-27.99 228.32,-19.65"/>
<polygon fill="midnightblue" stroke="midnightblue" points="272.4,-53.63 282.65,-56.32 276.32,-47.83 272.4,-53.63"/>
</g>
<!-- Node5&#45;&gt;Node9 -->
<g id="edge8" class="edge">
<title>Node5&#45;&gt;Node9</title>
<path fill="none" stroke="midnightblue" d="M364.65,-55.86C641.24,-29.87 713.91,-46.22 987.5,-20 990.42,-19.72 993.41,-19.41 996.43,-19.08"/>
<polygon fill="midnightblue" stroke="midnightblue" points="363.92,-52.41 354.3,-56.84 364.58,-59.38 363.92,-52.41"/>
</g>
<!-- Node5&#45;&gt;Node10 -->
<g id="edge9" class="edge">
<title>Node5&#45;&gt;Node10</title>
<path fill="none" stroke="midnightblue" d="M337.29,-53.83C375.43,-43.63 430.98,-28.78 465.64,-19.52"/>
<polygon fill="midnightblue" stroke="midnightblue" points="336.26,-50.48 327.51,-56.44 338.07,-57.24 336.26,-50.48"/>
</g>
<!-- Node11&#45;&gt;Node9 -->
<g id="edge12" class="edge">
<title>Node11&#45;&gt;Node9</title>
<path fill="none" stroke="midnightblue" d="M1140.5,-52.1C1119.39,-42.01 1090.64,-28.27 1072.32,-19.52"/>
<polygon fill="midnightblue" stroke="midnightblue" points="1139.06,-55.29 1149.59,-56.44 1142.08,-48.97 1139.06,-55.29"/>
</g>
<!-- Node12 -->
<g id="node12" class="node">
<title>Node12</title>
<g id="a_node12"><a xlink:href="GNSSStateEstimationApp_8cpp.html" target="_top" xlink:title="State Estimation Application Using GNSS Measurement.">
<polygon fill="white" stroke="black" points="1131,-0.5 1131,-19.5 1292,-19.5 1292,-0.5 1131,-0.5"/>
<text text-anchor="middle" x="1211.5" y="-7.5" font-family="Helvetica,sans-Serif" font-size="10.00">GNSSStateEstimationApp.cpp</text>
</a>
</g>
</g>
<!-- Node11&#45;&gt;Node12 -->
<g id="edge11" class="edge">
<title>Node11&#45;&gt;Node12</title>
<path fill="none" stroke="midnightblue" d="M1181.23,-48.14C1188.9,-38.74 1198.13,-27.4 1204.37,-19.75"/>
<polygon fill="midnightblue" stroke="midnightblue" points="1178.37,-46.12 1174.77,-56.08 1183.8,-50.54 1178.37,-46.12"/>
</g>
<!-- Node14 -->
<g id="node14" class="node">
<title>Node14</title>
<g id="a_node14"><a xlink:href="StateEstimationApp_8cpp.html" target="_top" xlink:title="Base class for State Estimation Application.">
<polygon fill="white" stroke="black" points="844.5,-0.5 844.5,-19.5 978.5,-19.5 978.5,-0.5 844.5,-0.5"/>
<text text-anchor="middle" x="911.5" y="-7.5" font-family="Helvetica,sans-Serif" font-size="10.00">StateEstimationApp.cpp</text>
</a>
</g>
</g>
<!-- Node13&#45;&gt;Node14 -->
<g id="edge14" class="edge">
<title>Node13&#45;&gt;Node14</title>
<path fill="none" stroke="midnightblue" d="M929.49,-46.98C924.91,-37.82 919.55,-27.09 915.88,-19.75"/>
<polygon fill="midnightblue" stroke="midnightblue" points="926.44,-48.7 934.04,-56.08 932.7,-45.57 926.44,-48.7"/>
</g>
</g>
</svg>
        <g id="navigator" transform="translate(0 0)" fill="#404254">
                <rect fill="#f2f5e9" fill-opacity="0.5" stroke="#606060" stroke-width=".5" x="0" y="0" width="60" height="60"/>
                <use id="zoomplus" xlink:href="#zoomPlus" x="17" y="9" onmousedown="handleZoom(evt,'in')"/>
                <use id="zoomminus" xlink:href="#zoomMin" x="42" y="9" onmousedown="handleZoom(evt,'out')"/>
                <use id="reset" xlink:href="#resetDef" x="30" y="36" onmousedown="handleReset()"/>
                <g id="arrowUp" xlink:href="#dirArrow" transform="translate(30 24)" onmousedown="handlePan(0,-1)">
                  <use xlink:href="#rim" fill="#404040">
                        <set attributeName="fill" to="#808080" begin="arrowUp.mouseover" end="arrowUp.mouseout"/>
                  </use>
                  <path fill="none" stroke="white" stroke-width="1.5" d="M0,-3.0v7 M-2.5,-0.5L0,-3.0L2.5,-0.5"/>
                </g>
                <g id="arrowRight" xlink:href="#dirArrow" transform="rotate(90) translate(36 -43)" onmousedown="handlePan(1,0)">
                  <use xlink:href="#rim" fill="#404040">
                        <set attributeName="fill" to="#808080" begin="arrowRight.mouseover" end="arrowRight.mouseout"/>
                  </use>
                  <path fill="none" stroke="white" stroke-width="1.5" d="M0,-3.0v7 M-2.5,-0.5L0,-3.0L2.5,-0.5"/>
                </g>
                <g id="arrowDown" xlink:href="#dirArrow" transform="rotate(180) translate(-30 -48)" onmousedown="handlePan(0,1)">
                  <use xlink:href="#rim" fill="#404040">
                        <set attributeName="fill" to="#808080" begin="arrowDown.mouseover" end="arrowDown.mouseout"/>
                  </use>
                  <path fill="none" stroke="white" stroke-width="1.5" d="M0,-3.0v7 M-2.5,-0.5L0,-3.0L2.5,-0.5"/>
                </g>
                <g id="arrowLeft" xlink:href="#dirArrow" transform="rotate(270) translate(-36 17)" onmousedown="handlePan(-1,0)">
                  <use xlink:href="#rim" fill="#404040">
                        <set attributeName="fill" to="#808080" begin="arrowLeft.mouseover" end="arrowLeft.mouseout"/>
                  </use>
                  <path fill="none" stroke="white" stroke-width="1.5" d="M0,-3.0v7 M-2.5,-0.5L0,-3.0L2.5,-0.5"/>
                </g>
        </g>
        <svg viewBox="0 0 15 15" width="100%" height="30px" preserveAspectRatio="xMaxYMin meet">
         <g id="arrow_out" transform="scale(0.3 0.3)">
          <a xlink:href="Propagator_8h__dep__incl_org.svg" target="_base">
           <rect id="button" ry="5" rx="5" y="6" x="6" height="38" width="38"
                fill="#f2f5e9" fill-opacity="0.5" stroke="#606060" stroke-width="1.0"/>
           <path id="arrow"
             d="M 11.500037,31.436501 C 11.940474,20.09759 22.043105,11.32322 32.158766,21.979434 L 37.068811,17.246167 C 37.068811,17.246167 37.088388,32 37.088388,32 L 22.160133,31.978069 C 22.160133,31.978069 26.997745,27.140456 26.997745,27.140456 C 18.528582,18.264221 13.291696,25.230495 11.500037,31.436501 z"
             style="fill:#404040;"/>
          </a>
         </g>
        </svg>
</svg>
