<?xml version="1.0" encoding="UTF-8" standalone="no"?>
<!DOCTYPE svg PUBLIC "-//W3C//DTD SVG 1.1//EN"
 "http://www.w3.org/Graphics/SVG/1.1/DTD/svg11.dtd">
<!-- Generated by graphviz version 2.43.0 (0)
 -->
<!-- Title: Scheduler.h Pages: 1 -->
<svg width="548pt" height="140pt"
 viewBox="0.00 0.00 548.00 140.00" xmlns="http://www.w3.org/2000/svg" xmlns:xlink="http://www.w3.org/1999/xlink">
<g id="graph0" class="graph" transform="scale(1 1) rotate(0) translate(4 136)">
<title>Scheduler.h</title>
<polygon fill="white" stroke="transparent" points="-4,4 -4,-136 544,-136 544,4 -4,4"/>
<!-- Node1 -->
<g id="node1" class="node">
<title>Node1</title>
<g id="a_node1"><a xlink:title="Event scheduler class.">
<polygon fill="#bfbfbf" stroke="black" points="201,-112.5 201,-131.5 274,-131.5 274,-112.5 201,-112.5"/>
<text text-anchor="middle" x="237.5" y="-119.5" font-family="Helvetica,sans-Serif" font-size="10.00">Scheduler.h</text>
</a>
</g>
</g>
<!-- Node2 -->
<g id="node2" class="node">
<title>Node2</title>
<g id="a_node2"><a xlink:title=" ">
<polygon fill="white" stroke="#bfbfbf" points="0,-56.5 0,-75.5 47,-75.5 47,-56.5 0,-56.5"/>
<text text-anchor="middle" x="23.5" y="-63.5" font-family="Helvetica,sans-Serif" font-size="10.00">cmath</text>
</a>
</g>
</g>
<!-- Node1&#45;&gt;Node2 -->
<g id="edge1" class="edge">
<title>Node1&#45;&gt;Node2</title>
<path fill="none" stroke="midnightblue" d="M203.59,-112.44C163.37,-102.29 96.75,-85.48 56.8,-75.4"/>
<polygon fill="midnightblue" stroke="midnightblue" points="57.56,-71.98 47,-72.93 55.84,-78.77 57.56,-71.98"/>
</g>
<!-- Node3 -->
<g id="node3" class="node">
<title>Node3</title>
<g id="a_node3"><a xlink:title=" ">
<polygon fill="white" stroke="#bfbfbf" points="57.5,-0.5 57.5,-19.5 101.5,-19.5 101.5,-0.5 57.5,-0.5"/>
<text text-anchor="middle" x="79.5" y="-7.5" font-family="Helvetica,sans-Serif" font-size="10.00">limits</text>
</a>
</g>
</g>
<!-- Node1&#45;&gt;Node3 -->
<g id="edge2" class="edge">
<title>Node1&#45;&gt;Node3</title>
<path fill="none" stroke="midnightblue" d="M200.76,-119.31C168.23,-115.8 121.8,-105.52 94.5,-76 83.08,-63.66 79.79,-44.41 79.08,-30.05"/>
<polygon fill="midnightblue" stroke="midnightblue" points="82.58,-29.78 78.96,-19.82 75.58,-29.86 82.58,-29.78"/>
</g>
<!-- Node4 -->
<g id="node4" class="node">
<title>Node4</title>
<g id="a_node4"><a xlink:title=" ">
<polygon fill="white" stroke="#bfbfbf" points="208.5,-0.5 208.5,-19.5 266.5,-19.5 266.5,-0.5 208.5,-0.5"/>
<text text-anchor="middle" x="237.5" y="-7.5" font-family="Helvetica,sans-Serif" font-size="10.00">memory</text>
</a>
</g>
</g>
<!-- Node1&#45;&gt;Node4 -->
<g id="edge3" class="edge">
<title>Node1&#45;&gt;Node4</title>
<path fill="none" stroke="midnightblue" d="M237.5,-112.37C237.5,-94.62 237.5,-53.67 237.5,-29.6"/>
<polygon fill="midnightblue" stroke="midnightblue" points="241,-29.59 237.5,-19.59 234,-29.59 241,-29.59"/>
</g>
<!-- Node5 -->
<g id="node5" class="node">
<title>Node5</title>
<g id="a_node5"><a xlink:title=" ">
<polygon fill="white" stroke="#bfbfbf" points="428,-56.5 428,-75.5 475,-75.5 475,-56.5 428,-56.5"/>
<text text-anchor="middle" x="451.5" y="-63.5" font-family="Helvetica,sans-Serif" font-size="10.00">queue</text>
</a>
</g>
</g>
<!-- Node1&#45;&gt;Node5 -->
<g id="edge4" class="edge">
<title>Node1&#45;&gt;Node5</title>
<path fill="none" stroke="midnightblue" d="M272.94,-112.44C307.47,-104.04 361.71,-90.71 417.95,-76.1"/>
<polygon fill="midnightblue" stroke="midnightblue" points="418.93,-79.46 427.72,-73.55 417.16,-72.69 418.93,-79.46"/>
</g>
<!-- Node6 -->
<g id="node6" class="node">
<title>Node6</title>
<g id="a_node6"><a xlink:title=" ">
<polygon fill="white" stroke="#bfbfbf" points="493,-56.5 493,-75.5 540,-75.5 540,-56.5 493,-56.5"/>
<text text-anchor="middle" x="516.5" y="-63.5" font-family="Helvetica,sans-Serif" font-size="10.00">vector</text>
</a>
</g>
</g>
<!-- Node1&#45;&gt;Node6 -->
<g id="edge5" class="edge">
<title>Node1&#45;&gt;Node6</title>
<path fill="none" stroke="midnightblue" d="M274.13,-115.43C320.56,-108.13 403.25,-94.32 482.63,-76.27"/>
<polygon fill="midnightblue" stroke="midnightblue" points="483.84,-79.59 492.8,-73.93 482.27,-72.77 483.84,-79.59"/>
</g>
<!-- Node7 -->
<g id="node7" class="node">
<title>Node7</title>
<g id="a_node7"><a xlink:href="Application_8h.html" target="_top" xlink:title="Base class for Application.">
<polygon fill="white" stroke="black" points="265.5,-56.5 265.5,-75.5 409.5,-75.5 409.5,-56.5 265.5,-56.5"/>
<text text-anchor="middle" x="337.5" y="-63.5" font-family="Helvetica,sans-Serif" font-size="10.00">lupnt/agents/Application.h</text>
</a>
</g>
</g>
<!-- Node1&#45;&gt;Node7 -->
<g id="edge6" class="edge">
<title>Node1&#45;&gt;Node7</title>
<path fill="none" stroke="midnightblue" d="M253.57,-112.32C269.46,-103.74 294.01,-90.49 312.46,-80.52"/>
<polygon fill="midnightblue" stroke="midnightblue" points="314.34,-83.49 321.47,-75.65 311.01,-77.33 314.34,-83.49"/>
</g>
<!-- Node8 -->
<g id="node8" class="node">
<title>Node8</title>
<g id="a_node8"><a xlink:href="Event_8h.html" target="_top" xlink:title="Event class.">
<polygon fill="white" stroke="black" points="104,-56.5 104,-75.5 209,-75.5 209,-56.5 104,-56.5"/>
<text text-anchor="middle" x="156.5" y="-63.5" font-family="Helvetica,sans-Serif" font-size="10.00">lupnt/core/Event.h</text>
</a>
</g>
</g>
<!-- Node1&#45;&gt;Node8 -->
<g id="edge8" class="edge">
<title>Node1&#45;&gt;Node8</title>
<path fill="none" stroke="midnightblue" d="M224.49,-112.32C211.97,-103.98 192.82,-91.21 178.03,-81.35"/>
<polygon fill="midnightblue" stroke="midnightblue" points="179.74,-78.29 169.48,-75.65 175.86,-84.11 179.74,-78.29"/>
</g>
<!-- Node7&#45;&gt;Node4 -->
<g id="edge7" class="edge">
<title>Node7&#45;&gt;Node4</title>
<path fill="none" stroke="midnightblue" d="M321.43,-56.32C305.54,-47.74 280.99,-34.49 262.54,-24.52"/>
<polygon fill="midnightblue" stroke="midnightblue" points="263.99,-21.33 253.53,-19.65 260.66,-27.49 263.99,-21.33"/>
</g>
<!-- Node8&#45;&gt;Node3 -->
<g id="edge10" class="edge">
<title>Node8&#45;&gt;Node3</title>
<path fill="none" stroke="midnightblue" d="M144.13,-56.32C132.34,-48.06 114.37,-35.45 100.36,-25.63"/>
<polygon fill="midnightblue" stroke="midnightblue" points="102.04,-22.53 91.84,-19.65 98.02,-28.26 102.04,-22.53"/>
</g>
<!-- Node8&#45;&gt;Node4 -->
<g id="edge11" class="edge">
<title>Node8&#45;&gt;Node4</title>
<path fill="none" stroke="midnightblue" d="M169.51,-56.32C182.03,-47.98 201.18,-35.21 215.97,-25.35"/>
<polygon fill="midnightblue" stroke="midnightblue" points="218.14,-28.11 224.52,-19.65 214.26,-22.29 218.14,-28.11"/>
</g>
<!-- Node9 -->
<g id="node9" class="node">
<title>Node9</title>
<g id="a_node9"><a xlink:title=" ">
<polygon fill="white" stroke="#bfbfbf" points="124,-0.5 124,-19.5 189,-19.5 189,-0.5 124,-0.5"/>
<text text-anchor="middle" x="156.5" y="-7.5" font-family="Helvetica,sans-Serif" font-size="10.00">functional</text>
</a>
</g>
</g>
<!-- Node8&#45;&gt;Node9 -->
<g id="edge9" class="edge">
<title>Node8&#45;&gt;Node9</title>
<path fill="none" stroke="midnightblue" d="M156.5,-56.08C156.5,-49.01 156.5,-38.86 156.5,-29.99"/>
<polygon fill="midnightblue" stroke="midnightblue" points="160,-29.75 156.5,-19.75 153,-29.75 160,-29.75"/>
</g>
</g>
</svg>
