<?xml version="1.0" encoding="UTF-8" standalone="no"?>
<!DOCTYPE svg PUBLIC "-//W3C//DTD SVG 1.1//EN"
 "http://www.w3.org/Graphics/SVG/1.1/DTD/svg11.dtd">
<!-- Generated by graphviz version 2.43.0 (0)
 -->
<!-- Title: Scheduler.h Pages: 1 -->
<svg width="270pt" height="84pt"
 viewBox="0.00 0.00 269.50 84.00" xmlns="http://www.w3.org/2000/svg" xmlns:xlink="http://www.w3.org/1999/xlink">
<g id="graph0" class="graph" transform="scale(1 1) rotate(0) translate(4 80)">
<title>Scheduler.h</title>
<polygon fill="white" stroke="transparent" points="-4,4 -4,-80 265.5,-80 265.5,4 -4,4"/>
<!-- Node1 -->
<g id="node1" class="node">
<title>Node1</title>
<g id="a_node1"><a xlink:title="Event scheduler class.">
<polygon fill="#bfbfbf" stroke="black" points="91.5,-56.5 91.5,-75.5 164.5,-75.5 164.5,-56.5 91.5,-56.5"/>
<text text-anchor="middle" x="128" y="-63.5" font-family="Helvetica,sans-Serif" font-size="10.00">Scheduler.h</text>
</a>
</g>
</g>
<!-- Node2 -->
<g id="node2" class="node">
<title>Node2</title>
<g id="a_node2"><a xlink:href="ExampleEKFApp_8cpp.html" target="_top" xlink:title="Example of EKF application.">
<polygon fill="white" stroke="black" points="0,-0.5 0,-19.5 116,-19.5 116,-0.5 0,-0.5"/>
<text text-anchor="middle" x="58" y="-7.5" font-family="Helvetica,sans-Serif" font-size="10.00">ExampleEKFApp.cpp</text>
</a>
</g>
</g>
<!-- Node1&#45;&gt;Node2 -->
<g id="edge1" class="edge">
<title>Node1&#45;&gt;Node2</title>
<path fill="none" stroke="midnightblue" d="M108.69,-50.1C96.09,-40.38 80.07,-28.03 69.45,-19.83"/>
<polygon fill="midnightblue" stroke="midnightblue" points="106.7,-52.99 116.75,-56.32 110.97,-47.44 106.7,-52.99"/>
</g>
<!-- Node3 -->
<g id="node3" class="node">
<title>Node3</title>
<g id="a_node3"><a xlink:href="ExampleScheduler_8cpp.html" target="_top" xlink:title="Example of using the Scheduler class.">
<polygon fill="white" stroke="black" points="134.5,-0.5 134.5,-19.5 261.5,-19.5 261.5,-0.5 134.5,-0.5"/>
<text text-anchor="middle" x="198" y="-7.5" font-family="Helvetica,sans-Serif" font-size="10.00">ExampleScheduler.cpp</text>
</a>
</g>
</g>
<!-- Node1&#45;&gt;Node3 -->
<g id="edge2" class="edge">
<title>Node1&#45;&gt;Node3</title>
<path fill="none" stroke="midnightblue" d="M147.31,-50.1C159.91,-40.38 175.93,-28.03 186.55,-19.83"/>
<polygon fill="midnightblue" stroke="midnightblue" points="145.03,-47.44 139.25,-56.32 149.3,-52.99 145.03,-47.44"/>
</g>
</g>
</svg>
