<?xml version="1.0" encoding="UTF-8" standalone="no"?>
<!DOCTYPE svg PUBLIC "-//W3C//DTD SVG 1.1//EN"
 "http://www.w3.org/Graphics/SVG/1.1/DTD/svg11.dtd">
<!-- Generated by graphviz version 2.43.0 (0)
 -->
<!-- Title: SpaceChannel.h Pages: 1 -->
<svg width="618pt" height="274pt"
 viewBox="0.00 0.00 617.50 274.00" xmlns="http://www.w3.org/2000/svg" xmlns:xlink="http://www.w3.org/1999/xlink">
<g id="graph0" class="graph" transform="scale(1 1) rotate(0) translate(4 270)">
<title>SpaceChannel.h</title>
<polygon fill="white" stroke="transparent" points="-4,4 -4,-270 613.5,-270 613.5,4 -4,4"/>
<!-- Node1 -->
<g id="node1" class="node">
<title>Node1</title>
<g id="a_node1"><a xlink:title="Base spacechannel class (Under devlopment )">
<polygon fill="#bfbfbf" stroke="black" points="480,-246.5 480,-265.5 575,-265.5 575,-246.5 480,-246.5"/>
<text text-anchor="middle" x="527.5" y="-253.5" font-family="Helvetica,sans-Serif" font-size="10.00">SpaceChannel.h</text>
</a>
</g>
</g>
<!-- Node2 -->
<g id="node2" class="node">
<title>Node2</title>
<g id="a_node2"><a xlink:href="Occultation_8h.html" target="_top" xlink:title="Signal blockage model.">
<polygon fill="white" stroke="black" points="415.5,-179.5 415.5,-209.5 533.5,-209.5 533.5,-179.5 415.5,-179.5"/>
<text text-anchor="start" x="423.5" y="-197.5" font-family="Helvetica,sans-Serif" font-size="10.00">lupnt/measurements</text>
<text text-anchor="middle" x="474.5" y="-186.5" font-family="Helvetica,sans-Serif" font-size="10.00">/Occultation.h</text>
</a>
</g>
</g>
<!-- Node1&#45;&gt;Node2 -->
<g id="edge1" class="edge">
<title>Node1&#45;&gt;Node2</title>
<path fill="none" stroke="midnightblue" d="M519.91,-246.48C513.13,-238.87 502.91,-227.4 493.89,-217.26"/>
<polygon fill="midnightblue" stroke="midnightblue" points="496.26,-214.66 486.99,-209.52 491.03,-219.32 496.26,-214.66"/>
</g>
<!-- Node14 -->
<g id="node14" class="node">
<title>Node14</title>
<g id="a_node14"><a xlink:title=" ">
<polygon fill="white" stroke="#bfbfbf" points="551.5,-185 551.5,-204 609.5,-204 609.5,-185 551.5,-185"/>
<text text-anchor="middle" x="580.5" y="-192" font-family="Helvetica,sans-Serif" font-size="10.00">memory</text>
</a>
</g>
</g>
<!-- Node1&#45;&gt;Node14 -->
<g id="edge14" class="edge">
<title>Node1&#45;&gt;Node14</title>
<path fill="none" stroke="midnightblue" d="M535.09,-246.48C543.2,-237.37 556.23,-222.74 566.26,-211.48"/>
<polygon fill="midnightblue" stroke="midnightblue" points="568.88,-213.8 572.92,-204.01 563.66,-209.15 568.88,-213.8"/>
</g>
<!-- Node3 -->
<g id="node3" class="node">
<title>Node3</title>
<g id="a_node3"><a xlink:href="Constants_8h.html" target="_top" xlink:title="List of constants.">
<polygon fill="white" stroke="black" points="222.5,-118 222.5,-137 348.5,-137 348.5,-118 222.5,-118"/>
<text text-anchor="middle" x="285.5" y="-125" font-family="Helvetica,sans-Serif" font-size="10.00">lupnt/core/Constants.h</text>
</a>
</g>
</g>
<!-- Node2&#45;&gt;Node3 -->
<g id="edge2" class="edge">
<title>Node2&#45;&gt;Node3</title>
<path fill="none" stroke="midnightblue" d="M433.49,-179.4C399.59,-167.74 352.01,-151.37 320.03,-140.38"/>
<polygon fill="midnightblue" stroke="midnightblue" points="320.83,-136.95 310.24,-137.01 318.55,-143.57 320.83,-136.95"/>
</g>
<!-- Node11 -->
<g id="node11" class="node">
<title>Node11</title>
<g id="a_node11"><a xlink:title=" ">
<polygon fill="white" stroke="#bfbfbf" points="366.5,-112.5 366.5,-142.5 482.5,-142.5 482.5,-112.5 366.5,-112.5"/>
<text text-anchor="start" x="374.5" y="-130.5" font-family="Helvetica,sans-Serif" font-size="10.00">autodiff/forward/real</text>
<text text-anchor="middle" x="424.5" y="-119.5" font-family="Helvetica,sans-Serif" font-size="10.00">/eigen.hpp</text>
</a>
</g>
</g>
<!-- Node2&#45;&gt;Node11 -->
<g id="edge11" class="edge">
<title>Node2&#45;&gt;Node11</title>
<path fill="none" stroke="midnightblue" d="M463.65,-179.4C457.16,-170.96 448.78,-160.07 441.44,-150.52"/>
<polygon fill="midnightblue" stroke="midnightblue" points="444.2,-148.37 435.33,-142.58 438.65,-152.64 444.2,-148.37"/>
</g>
<!-- Node12 -->
<g id="node12" class="node">
<title>Node12</title>
<g id="a_node12"><a xlink:title=" ">
<polygon fill="white" stroke="#bfbfbf" points="501,-118 501,-137 548,-137 548,-118 501,-118"/>
<text text-anchor="middle" x="524.5" y="-125" font-family="Helvetica,sans-Serif" font-size="10.00">cmath</text>
</a>
</g>
</g>
<!-- Node2&#45;&gt;Node12 -->
<g id="edge12" class="edge">
<title>Node2&#45;&gt;Node12</title>
<path fill="none" stroke="midnightblue" d="M485.35,-179.4C493.07,-169.36 503.47,-155.84 511.61,-145.25"/>
<polygon fill="midnightblue" stroke="midnightblue" points="514.49,-147.25 517.81,-137.19 508.94,-142.99 514.49,-147.25"/>
</g>
<!-- Node13 -->
<g id="node13" class="node">
<title>Node13</title>
<g id="a_node13"><a xlink:title=" ">
<polygon fill="white" stroke="#bfbfbf" points="566.5,-118 566.5,-137 604.5,-137 604.5,-118 566.5,-118"/>
<text text-anchor="middle" x="585.5" y="-125" font-family="Helvetica,sans-Serif" font-size="10.00">map</text>
</a>
</g>
</g>
<!-- Node2&#45;&gt;Node13 -->
<g id="edge13" class="edge">
<title>Node2&#45;&gt;Node13</title>
<path fill="none" stroke="midnightblue" d="M498.59,-179.4C517.46,-168.34 543.56,-153.06 562.22,-142.13"/>
<polygon fill="midnightblue" stroke="midnightblue" points="564.11,-145.08 570.97,-137.01 560.57,-139.04 564.11,-145.08"/>
</g>
<!-- Node4 -->
<g id="node4" class="node">
<title>Node4</title>
<g id="a_node4"><a xlink:title=" ">
<polygon fill="white" stroke="#bfbfbf" points="0,-56.5 0,-75.5 151,-75.5 151,-56.5 0,-56.5"/>
<text text-anchor="middle" x="75.5" y="-63.5" font-family="Helvetica,sans-Serif" font-size="10.00">autodiff/common/eigen.hpp</text>
</a>
</g>
</g>
<!-- Node3&#45;&gt;Node4 -->
<g id="edge3" class="edge">
<title>Node3&#45;&gt;Node4</title>
<path fill="none" stroke="midnightblue" d="M255.41,-117.98C218.61,-107.55 156.19,-89.86 115.41,-78.31"/>
<polygon fill="midnightblue" stroke="midnightblue" points="116.11,-74.87 105.53,-75.51 114.2,-81.6 116.11,-74.87"/>
</g>
<!-- Node5 -->
<g id="node5" class="node">
<title>Node5</title>
<g id="a_node5"><a xlink:title=" ">
<polygon fill="white" stroke="#bfbfbf" points="169,-56.5 169,-75.5 306,-75.5 306,-56.5 169,-56.5"/>
<text text-anchor="middle" x="237.5" y="-63.5" font-family="Helvetica,sans-Serif" font-size="10.00">autodiff/forward/real.hpp</text>
</a>
</g>
</g>
<!-- Node3&#45;&gt;Node5 -->
<g id="edge4" class="edge">
<title>Node3&#45;&gt;Node5</title>
<path fill="none" stroke="midnightblue" d="M278.62,-117.98C271.35,-108.96 259.7,-94.52 250.66,-83.31"/>
<polygon fill="midnightblue" stroke="midnightblue" points="253.37,-81.09 244.36,-75.51 247.92,-85.49 253.37,-81.09"/>
</g>
<!-- Node6 -->
<g id="node6" class="node">
<title>Node6</title>
<g id="a_node6"><a xlink:title=" ">
<polygon fill="white" stroke="#bfbfbf" points="310.5,-0.5 310.5,-19.5 354.5,-19.5 354.5,-0.5 310.5,-0.5"/>
<text text-anchor="middle" x="332.5" y="-7.5" font-family="Helvetica,sans-Serif" font-size="10.00">string</text>
</a>
</g>
</g>
<!-- Node3&#45;&gt;Node6 -->
<g id="edge5" class="edge">
<title>Node3&#45;&gt;Node6</title>
<path fill="none" stroke="midnightblue" d="M291.33,-117.91C297.76,-108.12 308.03,-91.49 314.5,-76 320.85,-60.81 325.65,-42.69 328.69,-29.45"/>
<polygon fill="midnightblue" stroke="midnightblue" points="332.12,-30.16 330.83,-19.64 325.28,-28.67 332.12,-30.16"/>
</g>
<!-- Node7 -->
<g id="node7" class="node">
<title>Node7</title>
<g id="a_node7"><a xlink:href="UserFilePath_8h.html" target="_top" xlink:title="File access utils.">
<polygon fill="white" stroke="black" points="363.5,-56.5 363.5,-75.5 449.5,-75.5 449.5,-56.5 363.5,-56.5"/>
<text text-anchor="middle" x="406.5" y="-63.5" font-family="Helvetica,sans-Serif" font-size="10.00">UserFilePath.h</text>
</a>
</g>
</g>
<!-- Node3&#45;&gt;Node7 -->
<g id="edge6" class="edge">
<title>Node3&#45;&gt;Node7</title>
<path fill="none" stroke="midnightblue" d="M302.84,-117.98C323.05,-108.03 356.69,-91.49 380.14,-79.96"/>
<polygon fill="midnightblue" stroke="midnightblue" points="381.77,-83.06 389.2,-75.51 378.68,-76.78 381.77,-83.06"/>
</g>
<!-- Node7&#45;&gt;Node6 -->
<g id="edge10" class="edge">
<title>Node7&#45;&gt;Node6</title>
<path fill="none" stroke="midnightblue" d="M394.61,-56.32C383.35,-48.11 366.21,-35.6 352.79,-25.81"/>
<polygon fill="midnightblue" stroke="midnightblue" points="354.75,-22.9 344.61,-19.83 350.62,-28.56 354.75,-22.9"/>
</g>
<!-- Node8 -->
<g id="node8" class="node">
<title>Node8</title>
<g id="a_node8"><a xlink:title=" ">
<polygon fill="white" stroke="#bfbfbf" points="372.5,-0.5 372.5,-19.5 440.5,-19.5 440.5,-0.5 372.5,-0.5"/>
<text text-anchor="middle" x="406.5" y="-7.5" font-family="Helvetica,sans-Serif" font-size="10.00">filesystem</text>
</a>
</g>
</g>
<!-- Node7&#45;&gt;Node8 -->
<g id="edge7" class="edge">
<title>Node7&#45;&gt;Node8</title>
<path fill="none" stroke="midnightblue" d="M406.5,-56.08C406.5,-49.01 406.5,-38.86 406.5,-29.99"/>
<polygon fill="midnightblue" stroke="midnightblue" points="410,-29.75 406.5,-19.75 403,-29.75 410,-29.75"/>
</g>
<!-- Node9 -->
<g id="node9" class="node">
<title>Node9</title>
<g id="a_node9"><a xlink:title=" ">
<polygon fill="white" stroke="#bfbfbf" points="458.5,-0.5 458.5,-19.5 518.5,-19.5 518.5,-0.5 458.5,-0.5"/>
<text text-anchor="middle" x="488.5" y="-7.5" font-family="Helvetica,sans-Serif" font-size="10.00">iostream</text>
</a>
</g>
</g>
<!-- Node7&#45;&gt;Node9 -->
<g id="edge8" class="edge">
<title>Node7&#45;&gt;Node9</title>
<path fill="none" stroke="midnightblue" d="M419.67,-56.32C432.35,-47.98 451.73,-35.21 466.71,-25.35"/>
<polygon fill="midnightblue" stroke="midnightblue" points="468.93,-28.08 475.36,-19.65 465.08,-22.23 468.93,-28.08"/>
</g>
<!-- Node10 -->
<g id="node10" class="node">
<title>Node10</title>
<g id="a_node10"><a xlink:title=" ">
<polygon fill="white" stroke="#bfbfbf" points="536.5,-0.5 536.5,-19.5 592.5,-19.5 592.5,-0.5 536.5,-0.5"/>
<text text-anchor="middle" x="564.5" y="-7.5" font-family="Helvetica,sans-Serif" font-size="10.00">optional</text>
</a>
</g>
</g>
<!-- Node7&#45;&gt;Node10 -->
<g id="edge9" class="edge">
<title>Node7&#45;&gt;Node10</title>
<path fill="none" stroke="midnightblue" d="M431.54,-56.44C458.12,-47.36 500.31,-32.94 530.02,-22.78"/>
<polygon fill="midnightblue" stroke="midnightblue" points="531.25,-26.06 539.58,-19.52 528.99,-19.44 531.25,-26.06"/>
</g>
</g>
</svg>
