<?xml version="1.0" encoding="UTF-8" standalone="no"?>
<!DOCTYPE svg PUBLIC "-//W3C//DTD SVG 1.1//EN"
 "http://www.w3.org/Graphics/SVG/1.1/DTD/svg11.dtd">
<!-- Generated by graphviz version 2.43.0 (0)
 -->
<!-- Title: SpiceInterface.cpp Pages: 1 -->
<!--zoomable 274 -->
<svg id="main" version="1.1" xmlns="http://www.w3.org/2000/svg" xmlns:xlink="http://www.w3.org/1999/xlink" xml:space="preserve" onload="init(evt)">
<style type="text/css"><![CDATA[
.edge:hover path { stroke: red; }
.edge:hover polygon { stroke: red; fill: red; }
]]></style>
<script type="text/javascript"><![CDATA[
var edges = document.getElementsByTagName('g');
if (edges && edges.length) {
  for (var i=0;i<edges.length;i++) {
    if (edges[i].id.substr(0,4)=='edge') {
      edges[i].setAttribute('class','edge');
    }
  }
}
]]></script>
        <defs>
                <circle id="rim" cx="0" cy="0" r="7"/>
                <circle id="rim2" cx="0" cy="0" r="3.5"/>
                <g id="zoomPlus">
                        <use xlink:href="#rim" fill="#404040">
                                <set attributeName="fill" to="#808080" begin="zoomplus.mouseover" end="zoomplus.mouseout"/>
                        </use>
                        <path d="M-4,0h8M0,-4v8" fill="none" stroke="white" stroke-width="1.5" pointer-events="none"/>
                </g>
                <g id="zoomMin">
                        <use xlink:href="#rim" fill="#404040">
                                <set attributeName="fill" to="#808080" begin="zoomminus.mouseover" end="zoomminus.mouseout"/>
                        </use>
                        <path d="M-4,0h8" fill="none" stroke="white" stroke-width="1.5" pointer-events="none"/>
                </g>
                <g id="dirArrow">
                        <path fill="none" stroke="white" stroke-width="1.5" d="M0,-3.0v7 M-2.5,-0.5L0,-3.0L2.5,-0.5"/>
                </g>
               <g id="resetDef">
                       <use xlink:href="#rim2" fill="#404040">
                               <set attributeName="fill" to="#808080" begin="reset.mouseover" end="reset.mouseout"/>
                       </use>
               </g>
        </defs>

<script type="text/javascript">
var viewWidth = 898;
var viewHeight = 274;
var sectionId = 'dynsection-0';
</script>
<script xlink:href="svgpan.js"/>
<svg id="graph" class="graph">
<g id="viewport">
<title>SpiceInterface.cpp</title>
<polygon fill="white" stroke="transparent" points="-4,4 -4,-270 894,-270 894,4 -4,4"/>
<!-- Node1 -->
<g id="node1" class="node">
<title>Node1</title>
<g id="a_node1"><a xlink:title="SPICE Interface functions.">
<polygon fill="#bfbfbf" stroke="black" points="480,-246.5 480,-265.5 587,-265.5 587,-246.5 480,-246.5"/>
<text text-anchor="middle" x="533.5" y="-253.5" font-family="Helvetica,sans-Serif" font-size="10.00">SpiceInterface.cpp</text>
</a>
</g>
</g>
<!-- Node2 -->
<g id="node2" class="node">
<title>Node2</title>
<g id="a_node2"><a xlink:href="SpiceInterface_8h.html" target="_top" xlink:title="SPICE Interface functions.">
<polygon fill="white" stroke="black" points="168,-185 168,-204 263,-204 263,-185 168,-185"/>
<text text-anchor="middle" x="215.5" y="-192" font-family="Helvetica,sans-Serif" font-size="10.00">SpiceInterface.h</text>
</a>
</g>
</g>
<!-- Node1&#45;&gt;Node2 -->
<g id="edge1" class="edge">
<title>Node1&#45;&gt;Node2</title>
<path fill="none" stroke="midnightblue" d="M487.94,-246.48C430.67,-235.76 332.45,-217.38 270.9,-205.87"/>
<polygon fill="midnightblue" stroke="midnightblue" points="271.45,-202.41 260.98,-204.01 270.16,-209.29 271.45,-202.41"/>
</g>
<!-- Node3 -->
<g id="node3" class="node">
<title>Node3</title>
<g id="a_node3"><a xlink:title=" ">
<polygon fill="white" stroke="#bfbfbf" points="0,-118 0,-137 53,-137 53,-118 0,-118"/>
<text text-anchor="middle" x="26.5" y="-125" font-family="Helvetica,sans-Serif" font-size="10.00">string.h</text>
</a>
</g>
</g>
<!-- Node1&#45;&gt;Node3 -->
<g id="edge14" class="edge">
<title>Node1&#45;&gt;Node3</title>
<path fill="none" stroke="midnightblue" d="M479.71,-255.73C405.39,-255.15 268.06,-248.3 158.5,-210 114.35,-194.57 69.35,-162.56 44.97,-143.58"/>
<polygon fill="midnightblue" stroke="midnightblue" points="46.98,-140.7 36.97,-137.23 42.63,-146.18 46.98,-140.7"/>
</g>
<!-- Node9 -->
<g id="node9" class="node">
<title>Node9</title>
<g id="a_node9"><a xlink:href="UserFilePath_8h.html" target="_top" xlink:title="File access utils.">
<polygon fill="white" stroke="black" points="400.5,-56.5 400.5,-75.5 486.5,-75.5 486.5,-56.5 400.5,-56.5"/>
<text text-anchor="middle" x="443.5" y="-63.5" font-family="Helvetica,sans-Serif" font-size="10.00">UserFilePath.h</text>
</a>
</g>
</g>
<!-- Node1&#45;&gt;Node9 -->
<g id="edge20" class="edge">
<title>Node1&#45;&gt;Node9</title>
<path fill="none" stroke="midnightblue" d="M526.23,-246.48C519.03,-237.75 508.01,-223.56 500.5,-210 476.94,-167.49 458.09,-113.21 449.15,-85.34"/>
<polygon fill="midnightblue" stroke="midnightblue" points="452.46,-84.21 446.12,-75.72 445.78,-86.31 452.46,-84.21"/>
</g>
<!-- Node10 -->
<g id="node10" class="node">
<title>Node10</title>
<g id="a_node10"><a xlink:title=" ">
<polygon fill="white" stroke="#bfbfbf" points="436.5,-0.5 436.5,-19.5 504.5,-19.5 504.5,-0.5 436.5,-0.5"/>
<text text-anchor="middle" x="470.5" y="-7.5" font-family="Helvetica,sans-Serif" font-size="10.00">filesystem</text>
</a>
</g>
</g>
<!-- Node1&#45;&gt;Node10 -->
<g id="edge15" class="edge">
<title>Node1&#45;&gt;Node10</title>
<path fill="none" stroke="midnightblue" d="M532.84,-246.4C530.47,-218.28 521.16,-126.76 495.5,-56 492,-46.34 486.6,-36.28 481.71,-28.12"/>
<polygon fill="midnightblue" stroke="midnightblue" points="484.63,-26.19 476.35,-19.57 478.69,-29.9 484.63,-26.19"/>
</g>
<!-- Node11 -->
<g id="node11" class="node">
<title>Node11</title>
<g id="a_node11"><a xlink:title=" ">
<polygon fill="white" stroke="#bfbfbf" points="522.5,-0.5 522.5,-19.5 582.5,-19.5 582.5,-0.5 522.5,-0.5"/>
<text text-anchor="middle" x="552.5" y="-7.5" font-family="Helvetica,sans-Serif" font-size="10.00">iostream</text>
</a>
</g>
</g>
<!-- Node1&#45;&gt;Node11 -->
<g id="edge17" class="edge">
<title>Node1&#45;&gt;Node11</title>
<path fill="none" stroke="midnightblue" d="M534.18,-246.32C536.91,-211.18 547.2,-79.12 551.04,-29.76"/>
<polygon fill="midnightblue" stroke="midnightblue" points="554.54,-29.82 551.83,-19.58 547.57,-29.28 554.54,-29.82"/>
</g>
<!-- Node13 -->
<g id="node13" class="node">
<title>Node13</title>
<g id="a_node13"><a xlink:title=" ">
<polygon fill="white" stroke="#bfbfbf" points="581,-185 581,-204 636,-204 636,-185 581,-185"/>
<text text-anchor="middle" x="608.5" y="-192" font-family="Helvetica,sans-Serif" font-size="10.00">fstream</text>
</a>
</g>
</g>
<!-- Node1&#45;&gt;Node13 -->
<g id="edge16" class="edge">
<title>Node1&#45;&gt;Node13</title>
<path fill="none" stroke="midnightblue" d="M544.25,-246.48C556.05,-237.11 575.24,-221.88 589.58,-210.51"/>
<polygon fill="midnightblue" stroke="midnightblue" points="592.12,-212.97 597.77,-204.01 587.76,-207.48 592.12,-212.97"/>
</g>
<!-- Node14 -->
<g id="node14" class="node">
<title>Node14</title>
<g id="a_node14"><a xlink:title=" ">
<polygon fill="white" stroke="#bfbfbf" points="654,-179.5 654,-209.5 763,-209.5 763,-179.5 654,-179.5"/>
<text text-anchor="start" x="662" y="-197.5" font-family="Helvetica,sans-Serif" font-size="10.00">../3rdparty/cspice</text>
<text text-anchor="middle" x="708.5" y="-186.5" font-family="Helvetica,sans-Serif" font-size="10.00">/include/SpiceUsr.h</text>
</a>
</g>
</g>
<!-- Node1&#45;&gt;Node14 -->
<g id="edge18" class="edge">
<title>Node1&#45;&gt;Node14</title>
<path fill="none" stroke="midnightblue" d="M558.57,-246.48C584.27,-237.74 624.95,-223.91 657.46,-212.86"/>
<polygon fill="midnightblue" stroke="midnightblue" points="658.91,-216.06 667.26,-209.52 656.66,-209.43 658.91,-216.06"/>
</g>
<!-- Node15 -->
<g id="node15" class="node">
<title>Node15</title>
<g id="a_node15"><a xlink:title=" ">
<polygon fill="white" stroke="#bfbfbf" points="781,-179.5 781,-209.5 890,-209.5 890,-179.5 781,-179.5"/>
<text text-anchor="start" x="789" y="-197.5" font-family="Helvetica,sans-Serif" font-size="10.00">../3rdparty/cspice</text>
<text text-anchor="middle" x="835.5" y="-186.5" font-family="Helvetica,sans-Serif" font-size="10.00">/include/SpiceZfc.h</text>
</a>
</g>
</g>
<!-- Node1&#45;&gt;Node15 -->
<g id="edge19" class="edge">
<title>Node1&#45;&gt;Node15</title>
<path fill="none" stroke="midnightblue" d="M582.13,-246.43C628.33,-238.16 699.99,-224.99 770.9,-210.29"/>
<polygon fill="midnightblue" stroke="midnightblue" points="771.82,-213.68 780.89,-208.21 770.39,-206.82 771.82,-213.68"/>
</g>
<!-- Node2&#45;&gt;Node3 -->
<g id="edge2" class="edge">
<title>Node2&#45;&gt;Node3</title>
<path fill="none" stroke="midnightblue" d="M187.96,-184.99C157.18,-175.36 105.97,-158.91 62.5,-143 60.6,-142.31 58.65,-141.57 56.69,-140.82"/>
<polygon fill="midnightblue" stroke="midnightblue" points="57.56,-137.4 46.97,-137.01 55,-143.92 57.56,-137.4"/>
</g>
<!-- Node4 -->
<g id="node4" class="node">
<title>Node4</title>
<g id="a_node4"><a xlink:title=" ">
<polygon fill="white" stroke="#bfbfbf" points="37,-56.5 37,-75.5 174,-75.5 174,-56.5 37,-56.5"/>
<text text-anchor="middle" x="105.5" y="-63.5" font-family="Helvetica,sans-Serif" font-size="10.00">autodiff/forward/real.hpp</text>
</a>
</g>
</g>
<!-- Node2&#45;&gt;Node4 -->
<g id="edge3" class="edge">
<title>Node2&#45;&gt;Node4</title>
<path fill="none" stroke="midnightblue" d="M215.78,-184.86C215.85,-168.77 213.83,-133.86 196.5,-112 184.31,-96.62 165.5,-86.1 148.14,-79.13"/>
<polygon fill="midnightblue" stroke="midnightblue" points="149.29,-75.82 138.7,-75.61 146.85,-82.38 149.29,-75.82"/>
</g>
<!-- Node5 -->
<g id="node5" class="node">
<title>Node5</title>
<g id="a_node5"><a xlink:title=" ">
<polygon fill="white" stroke="#bfbfbf" points="71.5,-112.5 71.5,-142.5 187.5,-142.5 187.5,-112.5 71.5,-112.5"/>
<text text-anchor="start" x="79.5" y="-130.5" font-family="Helvetica,sans-Serif" font-size="10.00">autodiff/forward/real</text>
<text text-anchor="middle" x="129.5" y="-119.5" font-family="Helvetica,sans-Serif" font-size="10.00">/eigen.hpp</text>
</a>
</g>
</g>
<!-- Node2&#45;&gt;Node5 -->
<g id="edge4" class="edge">
<title>Node2&#45;&gt;Node5</title>
<path fill="none" stroke="midnightblue" d="M203.9,-184.73C191.72,-175.53 172.15,-160.73 156.13,-148.63"/>
<polygon fill="midnightblue" stroke="midnightblue" points="158.23,-145.83 148.14,-142.59 154.01,-151.41 158.23,-145.83"/>
</g>
<!-- Node6 -->
<g id="node6" class="node">
<title>Node6</title>
<g id="a_node6"><a xlink:href="Constants_8h.html" target="_top" xlink:title="List of constants.">
<polygon fill="white" stroke="black" points="243.5,-118 243.5,-137 369.5,-137 369.5,-118 243.5,-118"/>
<text text-anchor="middle" x="306.5" y="-125" font-family="Helvetica,sans-Serif" font-size="10.00">lupnt/core/Constants.h</text>
</a>
</g>
</g>
<!-- Node2&#45;&gt;Node6 -->
<g id="edge5" class="edge">
<title>Node2&#45;&gt;Node6</title>
<path fill="none" stroke="midnightblue" d="M227.77,-184.73C242.65,-174.11 267.93,-156.05 285.83,-143.26"/>
<polygon fill="midnightblue" stroke="midnightblue" points="288.32,-145.79 294.42,-137.13 284.25,-140.09 288.32,-145.79"/>
</g>
<!-- Node6&#45;&gt;Node4 -->
<g id="edge7" class="edge">
<title>Node6&#45;&gt;Node4</title>
<path fill="none" stroke="midnightblue" d="M277.7,-117.98C242.63,-107.59 183.24,-90.01 144.19,-78.45"/>
<polygon fill="midnightblue" stroke="midnightblue" points="144.83,-74.99 134.24,-75.51 142.84,-81.7 144.83,-74.99"/>
</g>
<!-- Node7 -->
<g id="node7" class="node">
<title>Node7</title>
<g id="a_node7"><a xlink:title=" ">
<polygon fill="white" stroke="#bfbfbf" points="231,-56.5 231,-75.5 382,-75.5 382,-56.5 231,-56.5"/>
<text text-anchor="middle" x="306.5" y="-63.5" font-family="Helvetica,sans-Serif" font-size="10.00">autodiff/common/eigen.hpp</text>
</a>
</g>
</g>
<!-- Node6&#45;&gt;Node7 -->
<g id="edge6" class="edge">
<title>Node6&#45;&gt;Node7</title>
<path fill="none" stroke="midnightblue" d="M306.5,-117.98C306.5,-109.58 306.5,-96.48 306.5,-85.66"/>
<polygon fill="midnightblue" stroke="midnightblue" points="310,-85.51 306.5,-75.51 303,-85.51 310,-85.51"/>
</g>
<!-- Node8 -->
<g id="node8" class="node">
<title>Node8</title>
<g id="a_node8"><a xlink:title=" ">
<polygon fill="white" stroke="#bfbfbf" points="240.5,-0.5 240.5,-19.5 284.5,-19.5 284.5,-0.5 240.5,-0.5"/>
<text text-anchor="middle" x="262.5" y="-7.5" font-family="Helvetica,sans-Serif" font-size="10.00">string</text>
</a>
</g>
</g>
<!-- Node6&#45;&gt;Node8 -->
<g id="edge8" class="edge">
<title>Node6&#45;&gt;Node8</title>
<path fill="none" stroke="midnightblue" d="M278.12,-117.98C258.39,-110.41 233.56,-97.18 221.5,-76 211.59,-58.58 227.42,-39.23 242.2,-26.21"/>
<polygon fill="midnightblue" stroke="midnightblue" points="244.63,-28.74 250.13,-19.68 240.18,-23.33 244.63,-28.74"/>
</g>
<!-- Node6&#45;&gt;Node9 -->
<g id="edge9" class="edge">
<title>Node6&#45;&gt;Node9</title>
<path fill="none" stroke="midnightblue" d="M326.13,-117.98C349.32,-107.9 388.12,-91.05 414.71,-79.5"/>
<polygon fill="midnightblue" stroke="midnightblue" points="416.13,-82.7 423.91,-75.51 413.34,-76.28 416.13,-82.7"/>
</g>
<!-- Node9&#45;&gt;Node8 -->
<g id="edge13" class="edge">
<title>Node9&#45;&gt;Node8</title>
<path fill="none" stroke="midnightblue" d="M414.82,-56.44C382.12,-46.69 328.79,-30.78 294.69,-20.6"/>
<polygon fill="midnightblue" stroke="midnightblue" points="295.35,-17.15 284.77,-17.64 293.35,-23.86 295.35,-17.15"/>
</g>
<!-- Node9&#45;&gt;Node10 -->
<g id="edge10" class="edge">
<title>Node9&#45;&gt;Node10</title>
<path fill="none" stroke="midnightblue" d="M447.96,-56.08C451.65,-48.69 457.02,-37.95 461.59,-28.81"/>
<polygon fill="midnightblue" stroke="midnightblue" points="464.78,-30.26 466.12,-19.75 458.52,-27.13 464.78,-30.26"/>
</g>
<!-- Node9&#45;&gt;Node11 -->
<g id="edge11" class="edge">
<title>Node9&#45;&gt;Node11</title>
<path fill="none" stroke="midnightblue" d="M461.01,-56.32C478.57,-47.62 505.83,-34.12 526.03,-24.11"/>
<polygon fill="midnightblue" stroke="midnightblue" points="527.62,-27.23 535.03,-19.65 524.52,-20.96 527.62,-27.23"/>
</g>
<!-- Node12 -->
<g id="node12" class="node">
<title>Node12</title>
<g id="a_node12"><a xlink:title=" ">
<polygon fill="white" stroke="#bfbfbf" points="362.5,-0.5 362.5,-19.5 418.5,-19.5 418.5,-0.5 362.5,-0.5"/>
<text text-anchor="middle" x="390.5" y="-7.5" font-family="Helvetica,sans-Serif" font-size="10.00">optional</text>
</a>
</g>
</g>
<!-- Node9&#45;&gt;Node12 -->
<g id="edge12" class="edge">
<title>Node9&#45;&gt;Node12</title>
<path fill="none" stroke="midnightblue" d="M434.75,-56.08C427.03,-48.22 415.6,-36.57 406.28,-27.08"/>
<polygon fill="midnightblue" stroke="midnightblue" points="408.59,-24.44 399.09,-19.75 403.6,-29.34 408.59,-24.44"/>
</g>
</g>
</svg>
        <g id="navigator" transform="translate(0 0)" fill="#404254">
                <rect fill="#f2f5e9" fill-opacity="0.5" stroke="#606060" stroke-width=".5" x="0" y="0" width="60" height="60"/>
                <use id="zoomplus" xlink:href="#zoomPlus" x="17" y="9" onmousedown="handleZoom(evt,'in')"/>
                <use id="zoomminus" xlink:href="#zoomMin" x="42" y="9" onmousedown="handleZoom(evt,'out')"/>
                <use id="reset" xlink:href="#resetDef" x="30" y="36" onmousedown="handleReset()"/>
                <g id="arrowUp" xlink:href="#dirArrow" transform="translate(30 24)" onmousedown="handlePan(0,-1)">
                  <use xlink:href="#rim" fill="#404040">
                        <set attributeName="fill" to="#808080" begin="arrowUp.mouseover" end="arrowUp.mouseout"/>
                  </use>
                  <path fill="none" stroke="white" stroke-width="1.5" d="M0,-3.0v7 M-2.5,-0.5L0,-3.0L2.5,-0.5"/>
                </g>
                <g id="arrowRight" xlink:href="#dirArrow" transform="rotate(90) translate(36 -43)" onmousedown="handlePan(1,0)">
                  <use xlink:href="#rim" fill="#404040">
                        <set attributeName="fill" to="#808080" begin="arrowRight.mouseover" end="arrowRight.mouseout"/>
                  </use>
                  <path fill="none" stroke="white" stroke-width="1.5" d="M0,-3.0v7 M-2.5,-0.5L0,-3.0L2.5,-0.5"/>
                </g>
                <g id="arrowDown" xlink:href="#dirArrow" transform="rotate(180) translate(-30 -48)" onmousedown="handlePan(0,1)">
                  <use xlink:href="#rim" fill="#404040">
                        <set attributeName="fill" to="#808080" begin="arrowDown.mouseover" end="arrowDown.mouseout"/>
                  </use>
                  <path fill="none" stroke="white" stroke-width="1.5" d="M0,-3.0v7 M-2.5,-0.5L0,-3.0L2.5,-0.5"/>
                </g>
                <g id="arrowLeft" xlink:href="#dirArrow" transform="rotate(270) translate(-36 17)" onmousedown="handlePan(-1,0)">
                  <use xlink:href="#rim" fill="#404040">
                        <set attributeName="fill" to="#808080" begin="arrowLeft.mouseover" end="arrowLeft.mouseout"/>
                  </use>
                  <path fill="none" stroke="white" stroke-width="1.5" d="M0,-3.0v7 M-2.5,-0.5L0,-3.0L2.5,-0.5"/>
                </g>
        </g>
        <svg viewBox="0 0 15 15" width="100%" height="30px" preserveAspectRatio="xMaxYMin meet">
         <g id="arrow_out" transform="scale(0.3 0.3)">
          <a xlink:href="SpiceInterface_8cpp__incl_org.svg" target="_base">
           <rect id="button" ry="5" rx="5" y="6" x="6" height="38" width="38"
                fill="#f2f5e9" fill-opacity="0.5" stroke="#606060" stroke-width="1.0"/>
           <path id="arrow"
             d="M 11.500037,31.436501 C 11.940474,20.09759 22.043105,11.32322 32.158766,21.979434 L 37.068811,17.246167 C 37.068811,17.246167 37.088388,32 37.088388,32 L 22.160133,31.978069 C 22.160133,31.978069 26.997745,27.140456 26.997745,27.140456 C 18.528582,18.264221 13.291696,25.230495 11.500037,31.436501 z"
             style="fill:#404040;"/>
          </a>
         </g>
        </svg>
</svg>
