<?xml version="1.0" encoding="UTF-8" standalone="no"?>
<!DOCTYPE svg PUBLIC "-//W3C//DTD SVG 1.1//EN"
 "http://www.w3.org/Graphics/SVG/1.1/DTD/svg11.dtd">
<!-- Generated by graphviz version 2.43.0 (0)
 -->
<!-- Title: SpiceInterface.h Pages: 1 -->
<svg width="614pt" height="207pt"
 viewBox="0.00 0.00 613.50 207.00" xmlns="http://www.w3.org/2000/svg" xmlns:xlink="http://www.w3.org/1999/xlink">
<g id="graph0" class="graph" transform="scale(1 1) rotate(0) translate(4 203)">
<title>SpiceInterface.h</title>
<polygon fill="white" stroke="transparent" points="-4,4 -4,-203 609.5,-203 609.5,4 -4,4"/>
<!-- Node1 -->
<g id="node1" class="node">
<title>Node1</title>
<g id="a_node1"><a xlink:title="SPICE Interface functions.">
<polygon fill="#bfbfbf" stroke="black" points="77,-179.5 77,-198.5 172,-198.5 172,-179.5 77,-179.5"/>
<text text-anchor="middle" x="124.5" y="-186.5" font-family="Helvetica,sans-Serif" font-size="10.00">SpiceInterface.h</text>
</a>
</g>
</g>
<!-- Node2 -->
<g id="node2" class="node">
<title>Node2</title>
<g id="a_node2"><a xlink:title=" ">
<polygon fill="white" stroke="#bfbfbf" points="0,-118 0,-137 53,-137 53,-118 0,-118"/>
<text text-anchor="middle" x="26.5" y="-125" font-family="Helvetica,sans-Serif" font-size="10.00">string.h</text>
</a>
</g>
</g>
<!-- Node1&#45;&gt;Node2 -->
<g id="edge1" class="edge">
<title>Node1&#45;&gt;Node2</title>
<path fill="none" stroke="midnightblue" d="M110.46,-179.48C94.45,-169.75 68.05,-153.73 49.13,-142.24"/>
<polygon fill="midnightblue" stroke="midnightblue" points="50.88,-139.21 40.51,-137.01 47.25,-145.19 50.88,-139.21"/>
</g>
<!-- Node3 -->
<g id="node3" class="node">
<title>Node3</title>
<g id="a_node3"><a xlink:title=" ">
<polygon fill="white" stroke="#bfbfbf" points="13,-56.5 13,-75.5 150,-75.5 150,-56.5 13,-56.5"/>
<text text-anchor="middle" x="81.5" y="-63.5" font-family="Helvetica,sans-Serif" font-size="10.00">autodiff/forward/real.hpp</text>
</a>
</g>
</g>
<!-- Node1&#45;&gt;Node3 -->
<g id="edge2" class="edge">
<title>Node1&#45;&gt;Node3</title>
<path fill="none" stroke="midnightblue" d="M119.05,-179.34C113.69,-170.49 105.59,-156.22 100.5,-143 93.19,-124 87.93,-101.24 84.83,-85.61"/>
<polygon fill="midnightblue" stroke="midnightblue" points="88.24,-84.82 82.95,-75.64 81.36,-86.12 88.24,-84.82"/>
</g>
<!-- Node4 -->
<g id="node4" class="node">
<title>Node4</title>
<g id="a_node4"><a xlink:title=" ">
<polygon fill="white" stroke="#bfbfbf" points="109.5,-112.5 109.5,-142.5 225.5,-142.5 225.5,-112.5 109.5,-112.5"/>
<text text-anchor="start" x="117.5" y="-130.5" font-family="Helvetica,sans-Serif" font-size="10.00">autodiff/forward/real</text>
<text text-anchor="middle" x="167.5" y="-119.5" font-family="Helvetica,sans-Serif" font-size="10.00">/eigen.hpp</text>
</a>
</g>
</g>
<!-- Node1&#45;&gt;Node4 -->
<g id="edge3" class="edge">
<title>Node1&#45;&gt;Node4</title>
<path fill="none" stroke="midnightblue" d="M130.66,-179.48C136.05,-172.02 144.12,-160.85 151.33,-150.87"/>
<polygon fill="midnightblue" stroke="midnightblue" points="154.35,-152.68 157.37,-142.52 148.67,-148.58 154.35,-152.68"/>
</g>
<!-- Node5 -->
<g id="node5" class="node">
<title>Node5</title>
<g id="a_node5"><a xlink:href="Constants_8h.html" target="_top" xlink:title="List of constants.">
<polygon fill="white" stroke="black" points="243.5,-118 243.5,-137 369.5,-137 369.5,-118 243.5,-118"/>
<text text-anchor="middle" x="306.5" y="-125" font-family="Helvetica,sans-Serif" font-size="10.00">lupnt/core/Constants.h</text>
</a>
</g>
</g>
<!-- Node1&#45;&gt;Node5 -->
<g id="edge4" class="edge">
<title>Node1&#45;&gt;Node5</title>
<path fill="none" stroke="midnightblue" d="M150.58,-179.48C182.07,-169.18 235.2,-151.81 270.56,-140.25"/>
<polygon fill="midnightblue" stroke="midnightblue" points="272.05,-143.44 280.47,-137.01 269.88,-136.79 272.05,-143.44"/>
</g>
<!-- Node5&#45;&gt;Node3 -->
<g id="edge6" class="edge">
<title>Node5&#45;&gt;Node3</title>
<path fill="none" stroke="midnightblue" d="M274.26,-117.98C234.58,-107.48 167.1,-89.64 123.43,-78.09"/>
<polygon fill="midnightblue" stroke="midnightblue" points="124.24,-74.68 113.68,-75.51 122.45,-81.45 124.24,-74.68"/>
</g>
<!-- Node6 -->
<g id="node6" class="node">
<title>Node6</title>
<g id="a_node6"><a xlink:title=" ">
<polygon fill="white" stroke="#bfbfbf" points="168,-56.5 168,-75.5 319,-75.5 319,-56.5 168,-56.5"/>
<text text-anchor="middle" x="243.5" y="-63.5" font-family="Helvetica,sans-Serif" font-size="10.00">autodiff/common/eigen.hpp</text>
</a>
</g>
</g>
<!-- Node5&#45;&gt;Node6 -->
<g id="edge5" class="edge">
<title>Node5&#45;&gt;Node6</title>
<path fill="none" stroke="midnightblue" d="M297.47,-117.98C287.74,-108.78 272.04,-93.96 260.08,-82.66"/>
<polygon fill="midnightblue" stroke="midnightblue" points="262.18,-79.83 252.51,-75.51 257.38,-84.92 262.18,-79.83"/>
</g>
<!-- Node7 -->
<g id="node7" class="node">
<title>Node7</title>
<g id="a_node7"><a xlink:title=" ">
<polygon fill="white" stroke="#bfbfbf" points="323.5,-0.5 323.5,-19.5 367.5,-19.5 367.5,-0.5 323.5,-0.5"/>
<text text-anchor="middle" x="345.5" y="-7.5" font-family="Helvetica,sans-Serif" font-size="10.00">string</text>
</a>
</g>
</g>
<!-- Node5&#45;&gt;Node7 -->
<g id="edge7" class="edge">
<title>Node5&#45;&gt;Node7</title>
<path fill="none" stroke="midnightblue" d="M310.56,-117.69C315.06,-107.71 322.36,-90.9 327.5,-76 332.82,-60.59 337.67,-42.72 341,-29.62"/>
<polygon fill="midnightblue" stroke="midnightblue" points="344.49,-30.06 343.5,-19.52 337.7,-28.38 344.49,-30.06"/>
</g>
<!-- Node8 -->
<g id="node8" class="node">
<title>Node8</title>
<g id="a_node8"><a xlink:href="UserFilePath_8h.html" target="_top" xlink:title="File access utils.">
<polygon fill="white" stroke="black" points="376.5,-56.5 376.5,-75.5 462.5,-75.5 462.5,-56.5 376.5,-56.5"/>
<text text-anchor="middle" x="419.5" y="-63.5" font-family="Helvetica,sans-Serif" font-size="10.00">UserFilePath.h</text>
</a>
</g>
</g>
<!-- Node5&#45;&gt;Node8 -->
<g id="edge8" class="edge">
<title>Node5&#45;&gt;Node8</title>
<path fill="none" stroke="midnightblue" d="M322.69,-117.98C341.4,-108.12 372.42,-91.79 394.3,-80.27"/>
<polygon fill="midnightblue" stroke="midnightblue" points="396.12,-83.27 403.34,-75.51 392.86,-77.07 396.12,-83.27"/>
</g>
<!-- Node8&#45;&gt;Node7 -->
<g id="edge12" class="edge">
<title>Node8&#45;&gt;Node7</title>
<path fill="none" stroke="midnightblue" d="M407.61,-56.32C396.35,-48.11 379.21,-35.6 365.79,-25.81"/>
<polygon fill="midnightblue" stroke="midnightblue" points="367.75,-22.9 357.61,-19.83 363.62,-28.56 367.75,-22.9"/>
</g>
<!-- Node9 -->
<g id="node9" class="node">
<title>Node9</title>
<g id="a_node9"><a xlink:title=" ">
<polygon fill="white" stroke="#bfbfbf" points="385.5,-0.5 385.5,-19.5 453.5,-19.5 453.5,-0.5 385.5,-0.5"/>
<text text-anchor="middle" x="419.5" y="-7.5" font-family="Helvetica,sans-Serif" font-size="10.00">filesystem</text>
</a>
</g>
</g>
<!-- Node8&#45;&gt;Node9 -->
<g id="edge9" class="edge">
<title>Node8&#45;&gt;Node9</title>
<path fill="none" stroke="midnightblue" d="M419.5,-56.08C419.5,-49.01 419.5,-38.86 419.5,-29.99"/>
<polygon fill="midnightblue" stroke="midnightblue" points="423,-29.75 419.5,-19.75 416,-29.75 423,-29.75"/>
</g>
<!-- Node10 -->
<g id="node10" class="node">
<title>Node10</title>
<g id="a_node10"><a xlink:title=" ">
<polygon fill="white" stroke="#bfbfbf" points="471.5,-0.5 471.5,-19.5 531.5,-19.5 531.5,-0.5 471.5,-0.5"/>
<text text-anchor="middle" x="501.5" y="-7.5" font-family="Helvetica,sans-Serif" font-size="10.00">iostream</text>
</a>
</g>
</g>
<!-- Node8&#45;&gt;Node10 -->
<g id="edge10" class="edge">
<title>Node8&#45;&gt;Node10</title>
<path fill="none" stroke="midnightblue" d="M432.67,-56.32C445.35,-47.98 464.73,-35.21 479.71,-25.35"/>
<polygon fill="midnightblue" stroke="midnightblue" points="481.93,-28.08 488.36,-19.65 478.08,-22.23 481.93,-28.08"/>
</g>
<!-- Node11 -->
<g id="node11" class="node">
<title>Node11</title>
<g id="a_node11"><a xlink:title=" ">
<polygon fill="white" stroke="#bfbfbf" points="549.5,-0.5 549.5,-19.5 605.5,-19.5 605.5,-0.5 549.5,-0.5"/>
<text text-anchor="middle" x="577.5" y="-7.5" font-family="Helvetica,sans-Serif" font-size="10.00">optional</text>
</a>
</g>
</g>
<!-- Node8&#45;&gt;Node11 -->
<g id="edge11" class="edge">
<title>Node8&#45;&gt;Node11</title>
<path fill="none" stroke="midnightblue" d="M444.54,-56.44C471.12,-47.36 513.31,-32.94 543.02,-22.78"/>
<polygon fill="midnightblue" stroke="midnightblue" points="544.25,-26.06 552.58,-19.52 541.99,-19.44 544.25,-26.06"/>
</g>
</g>
</svg>
