<?xml version="1.0" encoding="UTF-8" standalone="no"?>
<!DOCTYPE svg PUBLIC "-//W3C//DTD SVG 1.1//EN"
 "http://www.w3.org/Graphics/SVG/1.1/DTD/svg11.dtd">
<!-- Generated by graphviz version 2.43.0 (0)
 -->
<!-- Title: LPT::SpiceInterface::GetBodyPosVel Pages: 1 -->
<svg width="407pt" height="79pt"
 viewBox="0.00 0.00 407.00 79.00" xmlns="http://www.w3.org/2000/svg" xmlns:xlink="http://www.w3.org/1999/xlink">
<g id="graph0" class="graph" transform="scale(1 1) rotate(0) translate(4 75)">
<title>LPT::SpiceInterface::GetBodyPosVel</title>
<polygon fill="white" stroke="transparent" points="-4,4 -4,-75 403,-75 403,4 -4,4"/>
<!-- Node1 -->
<g id="node1" class="node">
<title>Node1</title>
<g id="a_node1"><a xlink:title="Get the Body Position and Velocity using Chebyshev polynomials.">
<polygon fill="#bfbfbf" stroke="black" points="0,-0.5 0,-30.5 109,-30.5 109,-0.5 0,-0.5"/>
<text text-anchor="start" x="8" y="-18.5" font-family="Helvetica,sans-Serif" font-size="10.00">LPT::SpiceInterface</text>
<text text-anchor="middle" x="54.5" y="-7.5" font-family="Helvetica,sans-Serif" font-size="10.00">::GetBodyPosVel</text>
</a>
</g>
</g>
<!-- Node1&#45;&gt;Node1 -->
<g id="edge5" class="edge">
<title>Node1&#45;&gt;Node1</title>
<path fill="none" stroke="midnightblue" d="M29.41,-30.66C23.35,-40.06 31.72,-49 54.5,-49 68.38,-49 76.91,-45.68 80.09,-40.96"/>
<polygon fill="midnightblue" stroke="midnightblue" points="83.57,-40.48 79.59,-30.66 76.58,-40.81 83.57,-40.48"/>
</g>
<!-- Node2 -->
<g id="node2" class="node">
<title>Node2</title>
<g id="a_node2"><a xlink:href="SpiceInterface_8cpp.html#af325f617b7e3d6a65c37b6ca4dfd52b3" target="_top" xlink:title="Convert time from one time system to another.">
<polygon fill="white" stroke="black" points="145,-22.5 145,-52.5 254,-52.5 254,-22.5 145,-22.5"/>
<text text-anchor="start" x="153" y="-40.5" font-family="Helvetica,sans-Serif" font-size="10.00">LPT::SpiceInterface</text>
<text text-anchor="middle" x="199.5" y="-29.5" font-family="Helvetica,sans-Serif" font-size="10.00">::ConvertTime</text>
</a>
</g>
</g>
<!-- Node1&#45;&gt;Node2 -->
<g id="edge1" class="edge">
<title>Node1&#45;&gt;Node2</title>
<path fill="none" stroke="midnightblue" d="M109.15,-23.75C117.47,-25.03 126.13,-26.37 134.65,-27.68"/>
<polygon fill="midnightblue" stroke="midnightblue" points="134.13,-31.14 144.54,-29.2 135.19,-24.22 134.13,-31.14"/>
</g>
<!-- Node3 -->
<g id="node3" class="node">
<title>Node3</title>
<g id="a_node3"><a xlink:href="SpiceInterface_8cpp.html#a37ef193d9d9c280ca90a4dcfc6c42002" target="_top" xlink:title="load the Spice kernels">
<polygon fill="white" stroke="black" points="290,-0.5 290,-30.5 399,-30.5 399,-0.5 290,-0.5"/>
<text text-anchor="start" x="298" y="-18.5" font-family="Helvetica,sans-Serif" font-size="10.00">LPT::SpiceInterface</text>
<text text-anchor="middle" x="344.5" y="-7.5" font-family="Helvetica,sans-Serif" font-size="10.00">::LoadSpiceKernel</text>
</a>
</g>
</g>
<!-- Node1&#45;&gt;Node3 -->
<g id="edge6" class="edge">
<title>Node1&#45;&gt;Node3</title>
<path fill="none" stroke="midnightblue" d="M109.45,-14.1C121.17,-13.85 133.5,-13.63 145,-13.5 193.44,-12.96 205.56,-12.96 254,-13.5 262.27,-13.59 270.96,-13.73 279.55,-13.9"/>
<polygon fill="midnightblue" stroke="midnightblue" points="279.48,-17.4 289.55,-14.1 279.62,-10.4 279.48,-17.4"/>
</g>
<!-- Node2&#45;&gt;Node2 -->
<g id="edge2" class="edge">
<title>Node2&#45;&gt;Node2</title>
<path fill="none" stroke="midnightblue" d="M174.41,-52.66C168.35,-62.06 176.72,-71 199.5,-71 213.38,-71 221.91,-67.68 225.09,-62.96"/>
<polygon fill="midnightblue" stroke="midnightblue" points="228.57,-62.48 224.59,-52.66 221.58,-62.81 228.57,-62.48"/>
</g>
<!-- Node2&#45;&gt;Node3 -->
<g id="edge3" class="edge">
<title>Node2&#45;&gt;Node3</title>
<path fill="none" stroke="midnightblue" d="M254.15,-29.25C262.47,-27.97 271.13,-26.63 279.65,-25.32"/>
<polygon fill="midnightblue" stroke="midnightblue" points="280.19,-28.78 289.54,-23.8 279.13,-21.86 280.19,-28.78"/>
</g>
<!-- Node3&#45;&gt;Node3 -->
<g id="edge4" class="edge">
<title>Node3&#45;&gt;Node3</title>
<path fill="none" stroke="midnightblue" d="M319.41,-30.66C313.35,-40.06 321.72,-49 344.5,-49 358.38,-49 366.91,-45.68 370.09,-40.96"/>
<polygon fill="midnightblue" stroke="midnightblue" points="373.57,-40.48 369.59,-30.66 366.58,-40.81 373.57,-40.48"/>
</g>
</g>
</svg>
