<?xml version="1.0" encoding="UTF-8" standalone="no"?>
<!DOCTYPE svg PUBLIC "-//W3C//DTD SVG 1.1//EN"
 "http://www.w3.org/Graphics/SVG/1.1/DTD/svg11.dtd">
<!-- Generated by graphviz version 2.43.0 (0)
 -->
<!-- Title: LPT::SpiceInterface::GetFrameConversionMatrix Pages: 1 -->
<svg width="310pt" height="57pt"
 viewBox="0.00 0.00 310.00 57.00" xmlns="http://www.w3.org/2000/svg" xmlns:xlink="http://www.w3.org/1999/xlink">
<g id="graph0" class="graph" transform="scale(1 1) rotate(0) translate(4 53)">
<title>LPT::SpiceInterface::GetFrameConversionMatrix</title>
<polygon fill="white" stroke="transparent" points="-4,4 -4,-53 306,-53 306,4 -4,4"/>
<!-- Node1 -->
<g id="node1" class="node">
<title>Node1</title>
<g id="a_node1"><a xlink:title="Get the Frame Conversion Matrix object.">
<polygon fill="#bfbfbf" stroke="black" points="0,-0.5 0,-30.5 157,-30.5 157,-0.5 0,-0.5"/>
<text text-anchor="start" x="8" y="-18.5" font-family="Helvetica,sans-Serif" font-size="10.00">LPT::SpiceInterface</text>
<text text-anchor="middle" x="78.5" y="-7.5" font-family="Helvetica,sans-Serif" font-size="10.00">::GetFrameConversionMatrix</text>
</a>
</g>
</g>
<!-- Node1&#45;&gt;Node1 -->
<g id="edge1" class="edge">
<title>Node1&#45;&gt;Node1</title>
<path fill="none" stroke="midnightblue" d="M49.22,-30.66C42.16,-40.06 51.92,-49 78.5,-49 94.7,-49 104.65,-45.68 108.35,-40.96"/>
<polygon fill="midnightblue" stroke="midnightblue" points="111.83,-40.45 107.78,-30.66 104.84,-40.84 111.83,-40.45"/>
</g>
<!-- Node2 -->
<g id="node2" class="node">
<title>Node2</title>
<g id="a_node2"><a xlink:href="SpiceInterface_8cpp.html#a37ef193d9d9c280ca90a4dcfc6c42002" target="_top" xlink:title="load the Spice kernels">
<polygon fill="white" stroke="black" points="193,-0.5 193,-30.5 302,-30.5 302,-0.5 193,-0.5"/>
<text text-anchor="start" x="201" y="-18.5" font-family="Helvetica,sans-Serif" font-size="10.00">LPT::SpiceInterface</text>
<text text-anchor="middle" x="247.5" y="-7.5" font-family="Helvetica,sans-Serif" font-size="10.00">::LoadSpiceKernel</text>
</a>
</g>
</g>
<!-- Node1&#45;&gt;Node2 -->
<g id="edge2" class="edge">
<title>Node1&#45;&gt;Node2</title>
<path fill="none" stroke="midnightblue" d="M157.13,-15.5C165.73,-15.5 174.41,-15.5 182.81,-15.5"/>
<polygon fill="midnightblue" stroke="midnightblue" points="182.89,-19 192.89,-15.5 182.89,-12 182.89,-19"/>
</g>
<!-- Node2&#45;&gt;Node2 -->
<g id="edge3" class="edge">
<title>Node2&#45;&gt;Node2</title>
<path fill="none" stroke="midnightblue" d="M218.22,-30.66C211.16,-40.06 220.92,-49 247.5,-49 263.7,-49 273.65,-45.68 277.35,-40.96"/>
<polygon fill="midnightblue" stroke="midnightblue" points="280.83,-40.45 276.78,-30.66 273.84,-40.84 280.83,-40.45"/>
</g>
</g>
</svg>
