<?xml version="1.0" encoding="UTF-8" standalone="no"?>
<!DOCTYPE svg PUBLIC "-//W3C//DTD SVG 1.1//EN"
 "http://www.w3.org/Graphics/SVG/1.1/DTD/svg11.dtd">
<!-- Generated by graphviz version 2.43.0 (0)
 -->
<!-- Title: SpiceInterface.h Pages: 1 -->
<svg width="1859pt" height="84pt"
 viewBox="0.00 0.00 1859.00 84.00" xmlns="http://www.w3.org/2000/svg" xmlns:xlink="http://www.w3.org/1999/xlink">
<g id="graph0" class="graph" transform="scale(1 1) rotate(0) translate(4 80)">
<title>SpiceInterface.h</title>
<polygon fill="white" stroke="transparent" points="-4,4 -4,-80 1855,-80 1855,4 -4,4"/>
<!-- Node1 -->
<g id="node1" class="node">
<title>Node1</title>
<g id="a_node1"><a xlink:title="SPICE Interface functions.">
<polygon fill="#bfbfbf" stroke="black" points="814.5,-56.5 814.5,-75.5 909.5,-75.5 909.5,-56.5 814.5,-56.5"/>
<text text-anchor="middle" x="862" y="-63.5" font-family="Helvetica,sans-Serif" font-size="10.00">SpiceInterface.h</text>
</a>
</g>
</g>
<!-- Node2 -->
<g id="node2" class="node">
<title>Node2</title>
<g id="a_node2"><a xlink:href="NBodyDynamics_8cpp.html" target="_top" xlink:title="Multiple&#45;body dynamics.">
<polygon fill="white" stroke="black" points="0,-0.5 0,-19.5 118,-19.5 118,-0.5 0,-0.5"/>
<text text-anchor="middle" x="59" y="-7.5" font-family="Helvetica,sans-Serif" font-size="10.00">NBodyDynamics.cpp</text>
</a>
</g>
</g>
<!-- Node1&#45;&gt;Node2 -->
<g id="edge1" class="edge">
<title>Node1&#45;&gt;Node2</title>
<path fill="none" stroke="midnightblue" d="M804.13,-62.84C679.91,-57.91 378.56,-44.32 127,-20 124.16,-19.73 121.25,-19.42 118.31,-19.1"/>
<polygon fill="midnightblue" stroke="midnightblue" points="804.05,-66.34 814.18,-63.24 804.33,-59.35 804.05,-66.34"/>
</g>
<!-- Node3 -->
<g id="node3" class="node">
<title>Node3</title>
<g id="a_node3"><a xlink:href="GNSSChannel_8cpp.html" target="_top" xlink:title="GNSS Channel.">
<polygon fill="white" stroke="black" points="136,-0.5 136,-19.5 240,-19.5 240,-0.5 136,-0.5"/>
<text text-anchor="middle" x="188" y="-7.5" font-family="Helvetica,sans-Serif" font-size="10.00">GNSSChannel.cpp</text>
</a>
</g>
</g>
<!-- Node1&#45;&gt;Node3 -->
<g id="edge2" class="edge">
<title>Node1&#45;&gt;Node3</title>
<path fill="none" stroke="midnightblue" d="M804.08,-62.16C695.16,-56.52 452.45,-42.45 249,-20 246.13,-19.68 243.18,-19.33 240.21,-18.96"/>
<polygon fill="midnightblue" stroke="midnightblue" points="804.03,-65.67 814.2,-62.68 804.39,-58.68 804.03,-65.67"/>
</g>
<!-- Node4 -->
<g id="node4" class="node">
<title>Node4</title>
<g id="a_node4"><a xlink:href="GNSSReceiver_8cpp.html" target="_top" xlink:title="GNSS Receiver class.">
<polygon fill="white" stroke="black" points="258,-0.5 258,-19.5 364,-19.5 364,-0.5 258,-0.5"/>
<text text-anchor="middle" x="311" y="-7.5" font-family="Helvetica,sans-Serif" font-size="10.00">GNSSReceiver.cpp</text>
</a>
</g>
</g>
<!-- Node1&#45;&gt;Node4 -->
<g id="edge3" class="edge">
<title>Node1&#45;&gt;Node4</title>
<path fill="none" stroke="midnightblue" d="M804.19,-60.67C712.58,-53.58 528.5,-38.43 373,-20 370.08,-19.65 367.09,-19.28 364.08,-18.89"/>
<polygon fill="midnightblue" stroke="midnightblue" points="804.13,-64.17 814.36,-61.45 804.66,-57.19 804.13,-64.17"/>
</g>
<!-- Node5 -->
<g id="node5" class="node">
<title>Node5</title>
<g id="a_node5"><a xlink:href="GNSSTransmitter_8cpp.html" target="_top" xlink:title="Handles GNSS transmit.">
<polygon fill="white" stroke="black" points="382.5,-0.5 382.5,-19.5 501.5,-19.5 501.5,-0.5 382.5,-0.5"/>
<text text-anchor="middle" x="442" y="-7.5" font-family="Helvetica,sans-Serif" font-size="10.00">GNSSTransmitter.cpp</text>
</a>
</g>
</g>
<!-- Node1&#45;&gt;Node5 -->
<g id="edge4" class="edge">
<title>Node1&#45;&gt;Node5</title>
<path fill="none" stroke="midnightblue" d="M804.12,-57.68C734.36,-48.84 613.58,-33.48 510,-20 507.28,-19.65 504.51,-19.28 501.7,-18.92"/>
<polygon fill="midnightblue" stroke="midnightblue" points="804.09,-61.2 814.45,-58.99 804.97,-54.26 804.09,-61.2"/>
</g>
<!-- Node6 -->
<g id="node6" class="node">
<title>Node6</title>
<g id="a_node6"><a xlink:href="CoordConverter_8cpp.html" target="_top" xlink:title="Coordinate conversion functions.">
<polygon fill="white" stroke="black" points="519.5,-0.5 519.5,-19.5 632.5,-19.5 632.5,-0.5 519.5,-0.5"/>
<text text-anchor="middle" x="576" y="-7.5" font-family="Helvetica,sans-Serif" font-size="10.00">CoordConverter.cpp</text>
</a>
</g>
</g>
<!-- Node1&#45;&gt;Node6 -->
<g id="edge5" class="edge">
<title>Node1&#45;&gt;Node6</title>
<path fill="none" stroke="midnightblue" d="M806.59,-54.54C752.53,-44.33 671.33,-29 621.11,-19.52"/>
<polygon fill="midnightblue" stroke="midnightblue" points="806.21,-58.03 816.68,-56.44 807.51,-51.15 806.21,-58.03"/>
</g>
<!-- Node7 -->
<g id="node7" class="node">
<title>Node7</title>
<g id="a_node7"><a xlink:href="SpiceInterface_8cpp.html" target="_top" xlink:title="SPICE Interface functions.">
<polygon fill="white" stroke="black" points="650.5,-0.5 650.5,-19.5 757.5,-19.5 757.5,-0.5 650.5,-0.5"/>
<text text-anchor="middle" x="704" y="-7.5" font-family="Helvetica,sans-Serif" font-size="10.00">SpiceInterface.cpp</text>
</a>
</g>
</g>
<!-- Node1&#45;&gt;Node7 -->
<g id="edge6" class="edge">
<title>Node1&#45;&gt;Node7</title>
<path fill="none" stroke="midnightblue" d="M827.39,-53.17C797.64,-43 755.45,-28.59 728.92,-19.52"/>
<polygon fill="midnightblue" stroke="midnightblue" points="826.37,-56.52 836.96,-56.44 828.63,-49.9 826.37,-56.52"/>
</g>
<!-- Node8 -->
<g id="node8" class="node">
<title>Node8</title>
<g id="a_node8"><a xlink:href="TLE_8cpp.html" target="_top" xlink:title="Routines to process TLE files.">
<polygon fill="white" stroke="black" points="776,-0.5 776,-19.5 830,-19.5 830,-0.5 776,-0.5"/>
<text text-anchor="middle" x="803" y="-7.5" font-family="Helvetica,sans-Serif" font-size="10.00">TLE.cpp</text>
</a>
</g>
</g>
<!-- Node1&#45;&gt;Node8 -->
<g id="edge7" class="edge">
<title>Node1&#45;&gt;Node8</title>
<path fill="none" stroke="midnightblue" d="M845.11,-49.54C834.59,-39.91 821.43,-27.87 812.65,-19.83"/>
<polygon fill="midnightblue" stroke="midnightblue" points="842.78,-52.15 852.52,-56.32 847.51,-46.99 842.78,-52.15"/>
</g>
<!-- Node9 -->
<g id="node9" class="node">
<title>Node9</title>
<g id="a_node9"><a xlink:href="ExampleConstellations_8cpp.html" target="_top" xlink:title="Setup GNSS Constellation.">
<polygon fill="white" stroke="black" points="847.5,-0.5 847.5,-19.5 996.5,-19.5 996.5,-0.5 847.5,-0.5"/>
<text text-anchor="middle" x="922" y="-7.5" font-family="Helvetica,sans-Serif" font-size="10.00">ExampleConstellations.cpp</text>
</a>
</g>
</g>
<!-- Node1&#45;&gt;Node9 -->
<g id="edge8" class="edge">
<title>Node1&#45;&gt;Node9</title>
<path fill="none" stroke="midnightblue" d="M879.18,-49.54C889.88,-39.91 903.26,-27.87 912.18,-19.83"/>
<polygon fill="midnightblue" stroke="midnightblue" points="876.73,-47.03 871.64,-56.32 881.41,-52.24 876.73,-47.03"/>
</g>
<!-- Node10 -->
<g id="node10" class="node">
<title>Node10</title>
<g id="a_node10"><a xlink:href="ExampleCoordConvert_8cpp.html" target="_top" xlink:title="Example for coordinate conversion.">
<polygon fill="white" stroke="black" points="1015,-0.5 1015,-19.5 1161,-19.5 1161,-0.5 1015,-0.5"/>
<text text-anchor="middle" x="1088" y="-7.5" font-family="Helvetica,sans-Serif" font-size="10.00">ExampleCoordConvert.cpp</text>
</a>
</g>
</g>
<!-- Node1&#45;&gt;Node10 -->
<g id="edge9" class="edge">
<title>Node1&#45;&gt;Node10</title>
<path fill="none" stroke="midnightblue" d="M907.67,-54.09C950.36,-43.89 1013.25,-28.86 1052.36,-19.52"/>
<polygon fill="midnightblue" stroke="midnightblue" points="906.72,-50.72 897.81,-56.44 908.35,-57.52 906.72,-50.72"/>
</g>
<!-- Node11 -->
<g id="node11" class="node">
<title>Node11</title>
<g id="a_node11"><a xlink:href="ExampleEKF_8cpp.html" target="_top" xlink:title="Example of Extended Kalman Filter for orbit determination.">
<polygon fill="white" stroke="black" points="1179.5,-0.5 1179.5,-19.5 1276.5,-19.5 1276.5,-0.5 1179.5,-0.5"/>
<text text-anchor="middle" x="1228" y="-7.5" font-family="Helvetica,sans-Serif" font-size="10.00">ExampleEKF.cpp</text>
</a>
</g>
</g>
<!-- Node1&#45;&gt;Node11 -->
<g id="edge10" class="edge">
<title>Node1&#45;&gt;Node11</title>
<path fill="none" stroke="midnightblue" d="M919.47,-56.76C981.35,-47.85 1082.68,-33.15 1170,-20 1173.02,-19.54 1176.13,-19.07 1179.27,-18.59"/>
<polygon fill="midnightblue" stroke="midnightblue" points="918.91,-53.3 909.51,-58.19 919.9,-60.23 918.91,-53.3"/>
</g>
<!-- Node12 -->
<g id="node12" class="node">
<title>Node12</title>
<g id="a_node12"><a xlink:href="ExampleEKFApp_8cpp.html" target="_top" xlink:title="Example of EKF application.">
<polygon fill="white" stroke="black" points="1295,-0.5 1295,-19.5 1411,-19.5 1411,-0.5 1295,-0.5"/>
<text text-anchor="middle" x="1353" y="-7.5" font-family="Helvetica,sans-Serif" font-size="10.00">ExampleEKFApp.cpp</text>
</a>
</g>
</g>
<!-- Node1&#45;&gt;Node12 -->
<g id="edge11" class="edge">
<title>Node1&#45;&gt;Node12</title>
<path fill="none" stroke="midnightblue" d="M919.81,-59.38C1001.48,-51.32 1155.26,-35.72 1286,-20 1288.91,-19.65 1291.9,-19.28 1294.91,-18.9"/>
<polygon fill="midnightblue" stroke="midnightblue" points="919.35,-55.91 909.74,-60.37 920.03,-62.87 919.35,-55.91"/>
</g>
<!-- Node13 -->
<g id="node13" class="node">
<title>Node13</title>
<g id="a_node13"><a xlink:href="ExamplePerformance_8cpp.html" target="_top" xlink:title="Example for performance testing of spherical harmonics computation.">
<polygon fill="white" stroke="black" points="1429,-0.5 1429,-19.5 1571,-19.5 1571,-0.5 1429,-0.5"/>
<text text-anchor="middle" x="1500" y="-7.5" font-family="Helvetica,sans-Serif" font-size="10.00">ExamplePerformance.cpp</text>
</a>
</g>
</g>
<!-- Node1&#45;&gt;Node13 -->
<g id="edge12" class="edge">
<title>Node1&#45;&gt;Node13</title>
<path fill="none" stroke="midnightblue" d="M919.85,-60.94C1021.24,-53.69 1237.62,-37.61 1420,-20 1422.92,-19.72 1425.9,-19.42 1428.91,-19.12"/>
<polygon fill="midnightblue" stroke="midnightblue" points="919.54,-57.45 909.82,-61.65 920.04,-64.43 919.54,-57.45"/>
</g>
<!-- Node14 -->
<g id="node14" class="node">
<title>Node14</title>
<g id="a_node14"><a xlink:href="ExamplePropagation_8cpp.html" target="_top" xlink:title="Example propagating both GPS constellation and Lunar Satellite.">
<polygon fill="white" stroke="black" points="1589,-0.5 1589,-19.5 1727,-19.5 1727,-0.5 1589,-0.5"/>
<text text-anchor="middle" x="1658" y="-7.5" font-family="Helvetica,sans-Serif" font-size="10.00">ExamplePropagation.cpp</text>
</a>
</g>
</g>
<!-- Node1&#45;&gt;Node14 -->
<g id="edge13" class="edge">
<title>Node1&#45;&gt;Node14</title>
<path fill="none" stroke="midnightblue" d="M919.76,-62.41C1041.83,-56.7 1334.91,-41.81 1580,-20 1582.85,-19.75 1585.76,-19.47 1588.7,-19.19"/>
<polygon fill="midnightblue" stroke="midnightblue" points="919.36,-58.92 909.53,-62.88 919.69,-65.91 919.36,-58.92"/>
</g>
<!-- Node15 -->
<g id="node15" class="node">
<title>Node15</title>
<g id="a_node15"><a xlink:href="ExampleSpice_8cpp.html" target="_top" xlink:title="Example of using the SpiceInterface class.">
<polygon fill="white" stroke="black" points="1745,-0.5 1745,-19.5 1851,-19.5 1851,-0.5 1745,-0.5"/>
<text text-anchor="middle" x="1798" y="-7.5" font-family="Helvetica,sans-Serif" font-size="10.00">ExampleSpice.cpp</text>
</a>
</g>
</g>
<!-- Node1&#45;&gt;Node15 -->
<g id="edge14" class="edge">
<title>Node1&#45;&gt;Node15</title>
<path fill="none" stroke="midnightblue" d="M920.07,-63.87C1060.5,-60.73 1429.53,-50.07 1736,-20 1738.92,-19.71 1741.92,-19.39 1744.94,-19.03"/>
<polygon fill="midnightblue" stroke="midnightblue" points="919.88,-60.37 909.96,-64.09 920.04,-67.37 919.88,-60.37"/>
</g>
</g>
</svg>
