<?xml version="1.0" encoding="UTF-8" standalone="no"?>
<!DOCTYPE svg PUBLIC "-//W3C//DTD SVG 1.1//EN"
 "http://www.w3.org/Graphics/SVG/1.1/DTD/svg11.dtd">
<!-- Generated by graphviz version 2.43.0 (0)
 -->
<!-- Title: LPT::SpiceInterface::StringToTAI Pages: 1 -->
<svg width="407pt" height="163pt"
 viewBox="0.00 0.00 407.00 163.00" xmlns="http://www.w3.org/2000/svg" xmlns:xlink="http://www.w3.org/1999/xlink">
<g id="graph0" class="graph" transform="scale(1 1) rotate(0) translate(4 159)">
<title>LPT::SpiceInterface::StringToTAI</title>
<polygon fill="white" stroke="transparent" points="-4,4 -4,-159 403,-159 403,4 -4,4"/>
<!-- Node1 -->
<g id="node1" class="node">
<title>Node1</title>
<g id="a_node1"><a xlink:title="Convert string to TAI.">
<polygon fill="#bfbfbf" stroke="black" points="0,-62.5 0,-92.5 109,-92.5 109,-62.5 0,-62.5"/>
<text text-anchor="start" x="8" y="-80.5" font-family="Helvetica,sans-Serif" font-size="10.00">LPT::SpiceInterface</text>
<text text-anchor="middle" x="54.5" y="-69.5" font-family="Helvetica,sans-Serif" font-size="10.00">::StringToTAI</text>
</a>
</g>
</g>
<!-- Node1&#45;&gt;Node1 -->
<g id="edge6" class="edge">
<title>Node1&#45;&gt;Node1</title>
<path fill="none" stroke="midnightblue" d="M29.41,-92.66C23.35,-102.06 31.72,-111 54.5,-111 68.38,-111 76.91,-107.68 80.09,-102.96"/>
<polygon fill="midnightblue" stroke="midnightblue" points="83.57,-102.48 79.59,-92.66 76.58,-102.81 83.57,-102.48"/>
</g>
<!-- Node2 -->
<g id="node2" class="node">
<title>Node2</title>
<g id="a_node2"><a xlink:href="SpiceInterface_8cpp.html#af325f617b7e3d6a65c37b6ca4dfd52b3" target="_top" xlink:title="Convert time from one time system to another.">
<polygon fill="white" stroke="black" points="145,-106.5 145,-136.5 254,-136.5 254,-106.5 145,-106.5"/>
<text text-anchor="start" x="153" y="-124.5" font-family="Helvetica,sans-Serif" font-size="10.00">LPT::SpiceInterface</text>
<text text-anchor="middle" x="199.5" y="-113.5" font-family="Helvetica,sans-Serif" font-size="10.00">::ConvertTime</text>
</a>
</g>
</g>
<!-- Node1&#45;&gt;Node2 -->
<g id="edge1" class="edge">
<title>Node1&#45;&gt;Node2</title>
<path fill="none" stroke="midnightblue" d="M104.31,-92.52C115.69,-96.02 127.92,-99.78 139.68,-103.4"/>
<polygon fill="midnightblue" stroke="midnightblue" points="138.83,-106.8 149.42,-106.4 140.89,-100.11 138.83,-106.8"/>
</g>
<!-- Node3 -->
<g id="node3" class="node">
<title>Node3</title>
<g id="a_node3"><a xlink:href="SpiceInterface_8cpp.html#a37ef193d9d9c280ca90a4dcfc6c42002" target="_top" xlink:title="load the Spice kernels">
<polygon fill="white" stroke="black" points="290,-62.5 290,-92.5 399,-92.5 399,-62.5 290,-62.5"/>
<text text-anchor="start" x="298" y="-80.5" font-family="Helvetica,sans-Serif" font-size="10.00">LPT::SpiceInterface</text>
<text text-anchor="middle" x="344.5" y="-69.5" font-family="Helvetica,sans-Serif" font-size="10.00">::LoadSpiceKernel</text>
</a>
</g>
</g>
<!-- Node1&#45;&gt;Node3 -->
<g id="edge5" class="edge">
<title>Node1&#45;&gt;Node3</title>
<path fill="none" stroke="midnightblue" d="M109.33,-77.5C157.62,-77.5 228.53,-77.5 279.66,-77.5"/>
<polygon fill="midnightblue" stroke="midnightblue" points="279.93,-81 289.93,-77.5 279.93,-74 279.93,-81"/>
</g>
<!-- Node4 -->
<g id="node4" class="node">
<title>Node4</title>
<g id="a_node4"><a xlink:href="SpiceInterface_8cpp.html#a12cf5ce78b83bc748a865e14c13089f0" target="_top" xlink:title="Convert a string to ephemeris time.">
<polygon fill="white" stroke="black" points="145,-0.5 145,-30.5 254,-30.5 254,-0.5 145,-0.5"/>
<text text-anchor="start" x="153" y="-18.5" font-family="Helvetica,sans-Serif" font-size="10.00">LPT::SpiceInterface</text>
<text text-anchor="middle" x="199.5" y="-7.5" font-family="Helvetica,sans-Serif" font-size="10.00">::StringToTDB</text>
</a>
</g>
</g>
<!-- Node1&#45;&gt;Node4 -->
<g id="edge7" class="edge">
<title>Node1&#45;&gt;Node4</title>
<path fill="none" stroke="midnightblue" d="M90.12,-62.49C109.47,-54.1 133.79,-43.56 154.48,-34.58"/>
<polygon fill="midnightblue" stroke="midnightblue" points="155.92,-37.77 163.71,-30.59 153.14,-31.35 155.92,-37.77"/>
</g>
<!-- Node2&#45;&gt;Node2 -->
<g id="edge2" class="edge">
<title>Node2&#45;&gt;Node2</title>
<path fill="none" stroke="midnightblue" d="M174.41,-136.66C168.35,-146.06 176.72,-155 199.5,-155 213.38,-155 221.91,-151.68 225.09,-146.96"/>
<polygon fill="midnightblue" stroke="midnightblue" points="228.57,-146.48 224.59,-136.66 221.58,-146.81 228.57,-146.48"/>
</g>
<!-- Node2&#45;&gt;Node3 -->
<g id="edge3" class="edge">
<title>Node2&#45;&gt;Node3</title>
<path fill="none" stroke="midnightblue" d="M249.31,-106.48C260.69,-102.98 272.92,-99.22 284.68,-95.6"/>
<polygon fill="midnightblue" stroke="midnightblue" points="285.89,-98.89 294.42,-92.6 283.83,-92.2 285.89,-98.89"/>
</g>
<!-- Node3&#45;&gt;Node3 -->
<g id="edge4" class="edge">
<title>Node3&#45;&gt;Node3</title>
<path fill="none" stroke="midnightblue" d="M319.41,-92.66C313.35,-102.06 321.72,-111 344.5,-111 358.38,-111 366.91,-107.68 370.09,-102.96"/>
<polygon fill="midnightblue" stroke="midnightblue" points="373.57,-102.48 369.59,-92.66 366.58,-102.81 373.57,-102.48"/>
</g>
<!-- Node4&#45;&gt;Node3 -->
<g id="edge8" class="edge">
<title>Node4&#45;&gt;Node3</title>
<path fill="none" stroke="midnightblue" d="M235.12,-30.51C254.47,-38.9 278.79,-49.44 299.48,-58.42"/>
<polygon fill="midnightblue" stroke="midnightblue" points="298.14,-61.65 308.71,-62.41 300.92,-55.23 298.14,-61.65"/>
</g>
<!-- Node4&#45;&gt;Node4 -->
<g id="edge9" class="edge">
<title>Node4&#45;&gt;Node4</title>
<path fill="none" stroke="midnightblue" d="M174.41,-30.66C168.35,-40.06 176.72,-49 199.5,-49 213.38,-49 221.91,-45.68 225.09,-40.96"/>
<polygon fill="midnightblue" stroke="midnightblue" points="228.57,-40.48 224.59,-30.66 221.58,-40.81 228.57,-40.48"/>
</g>
</g>
</svg>
