<?xml version="1.0" encoding="UTF-8" standalone="no"?>
<!DOCTYPE svg PUBLIC "-//W3C//DTD SVG 1.1//EN"
 "http://www.w3.org/Graphics/SVG/1.1/DTD/svg11.dtd">
<!-- Generated by graphviz version 2.43.0 (0)
 -->
<!-- Title: State.h Pages: 1 -->
<!--zoomable 308 -->
<svg id="main" version="1.1" xmlns="http://www.w3.org/2000/svg" xmlns:xlink="http://www.w3.org/1999/xlink" xml:space="preserve" onload="init(evt)">
<style type="text/css"><![CDATA[
.edge:hover path { stroke: red; }
.edge:hover polygon { stroke: red; fill: red; }
]]></style>
<script type="text/javascript"><![CDATA[
var edges = document.getElementsByTagName('g');
if (edges && edges.length) {
  for (var i=0;i<edges.length;i++) {
    if (edges[i].id.substr(0,4)=='edge') {
      edges[i].setAttribute('class','edge');
    }
  }
}
]]></script>
        <defs>
                <circle id="rim" cx="0" cy="0" r="7"/>
                <circle id="rim2" cx="0" cy="0" r="3.5"/>
                <g id="zoomPlus">
                        <use xlink:href="#rim" fill="#404040">
                                <set attributeName="fill" to="#808080" begin="zoomplus.mouseover" end="zoomplus.mouseout"/>
                        </use>
                        <path d="M-4,0h8M0,-4v8" fill="none" stroke="white" stroke-width="1.5" pointer-events="none"/>
                </g>
                <g id="zoomMin">
                        <use xlink:href="#rim" fill="#404040">
                                <set attributeName="fill" to="#808080" begin="zoomminus.mouseover" end="zoomminus.mouseout"/>
                        </use>
                        <path d="M-4,0h8" fill="none" stroke="white" stroke-width="1.5" pointer-events="none"/>
                </g>
                <g id="dirArrow">
                        <path fill="none" stroke="white" stroke-width="1.5" d="M0,-3.0v7 M-2.5,-0.5L0,-3.0L2.5,-0.5"/>
                </g>
               <g id="resetDef">
                       <use xlink:href="#rim2" fill="#404040">
                               <set attributeName="fill" to="#808080" begin="reset.mouseover" end="reset.mouseout"/>
                       </use>
               </g>
        </defs>

<script type="text/javascript">
var viewWidth = 2093;
var viewHeight = 308;
var sectionId = 'dynsection-1';
</script>
<script xlink:href="svgpan.js"/>
<svg id="graph" class="graph">
<g id="viewport">
<title>State.h</title>
<polygon fill="white" stroke="transparent" points="-4,4 -4,-304 2088.56,-304 2088.56,4 -4,4"/>
<!-- Node1 -->
<g id="node1" class="node">
<title>Node1</title>
<g id="a_node1"><a xlink:title="SPICE Interface functions.">
<polygon fill="#bfbfbf" stroke="black" points="987.68,-280.5 987.68,-299.5 1038.68,-299.5 1038.68,-280.5 987.68,-280.5"/>
<text text-anchor="middle" x="1013.18" y="-287.5" font-family="Helvetica,sans-Serif" font-size="10.00">State.h</text>
</a>
</g>
</g>
<!-- Node2 -->
<g id="node2" class="node">
<title>Node2</title>
<g id="a_node2"><a xlink:href="StateEstimationApp_8h.html" target="_top" xlink:title="Base class for State Estimation Application.">
<polygon fill="white" stroke="black" points="1890.18,-56.5 1890.18,-75.5 2012.18,-75.5 2012.18,-56.5 1890.18,-56.5"/>
<text text-anchor="middle" x="1951.18" y="-63.5" font-family="Helvetica,sans-Serif" font-size="10.00">StateEstimationApp.h</text>
</a>
</g>
</g>
<!-- Node1&#45;&gt;Node2 -->
<g id="edge1" class="edge">
<title>Node1&#45;&gt;Node2</title>
<path fill="none" stroke="midnightblue" d="M1049.02,-289.64C1159.41,-290.5 1502.65,-284.65 1764.18,-188 1839.27,-160.25 1915.19,-98.27 1941.51,-75.55"/>
<polygon fill="midnightblue" stroke="midnightblue" points="1048.81,-286.14 1038.78,-289.54 1048.74,-293.14 1048.81,-286.14"/>
</g>
<!-- Node4 -->
<g id="node4" class="node">
<title>Node4</title>
<g id="a_node4"><a xlink:href="Dynamics_8h.html" target="_top" xlink:title="Interface for Dynamics.">
<polygon fill="white" stroke="black" points="428.18,-168.5 428.18,-187.5 502.18,-187.5 502.18,-168.5 428.18,-168.5"/>
<text text-anchor="middle" x="465.18" y="-175.5" font-family="Helvetica,sans-Serif" font-size="10.00">Dynamics.h</text>
</a>
</g>
</g>
<!-- Node1&#45;&gt;Node4 -->
<g id="edge3" class="edge">
<title>Node1&#45;&gt;Node4</title>
<path fill="none" stroke="midnightblue" d="M977.41,-281.82C878.58,-261.98 602.53,-206.57 502.22,-186.43"/>
<polygon fill="midnightblue" stroke="midnightblue" points="976.99,-285.31 987.49,-283.84 978.37,-278.44 976.99,-285.31"/>
</g>
<!-- Node23 -->
<g id="node23" class="node">
<title>Node23</title>
<g id="a_node23"><a xlink:href="Clock_8h.html" target="_top" xlink:title="Clock class.">
<polygon fill="white" stroke="black" points="934.68,-168.5 934.68,-187.5 987.68,-187.5 987.68,-168.5 934.68,-168.5"/>
<text text-anchor="middle" x="961.18" y="-175.5" font-family="Helvetica,sans-Serif" font-size="10.00">Clock.h</text>
</a>
</g>
</g>
<!-- Node1&#45;&gt;Node23 -->
<g id="edge33" class="edge">
<title>Node1&#45;&gt;Node23</title>
<path fill="none" stroke="midnightblue" d="M1004.83,-271.32C993.5,-247.37 973.73,-205.55 965.24,-187.59"/>
<polygon fill="midnightblue" stroke="midnightblue" points="1001.67,-272.82 1009.1,-280.37 1007.99,-269.83 1001.67,-272.82"/>
</g>
<!-- Node24 -->
<g id="node24" class="node">
<title>Node24</title>
<g id="a_node24"><a xlink:href="OrbitState_8h.html" target="_top" xlink:title="Orbit states.">
<polygon fill="white" stroke="black" points="1052.68,-224.5 1052.68,-243.5 1127.68,-243.5 1127.68,-224.5 1052.68,-224.5"/>
<text text-anchor="middle" x="1090.18" y="-231.5" font-family="Helvetica,sans-Serif" font-size="10.00">OrbitState.h</text>
</a>
</g>
</g>
<!-- Node1&#45;&gt;Node24 -->
<g id="edge37" class="edge">
<title>Node1&#45;&gt;Node24</title>
<path fill="none" stroke="midnightblue" d="M1034.08,-274.34C1048.09,-264.52 1066.07,-251.91 1077.84,-243.65"/>
<polygon fill="midnightblue" stroke="midnightblue" points="1031.73,-271.72 1025.55,-280.32 1035.75,-277.45 1031.73,-271.72"/>
</g>
<!-- Node3 -->
<g id="node3" class="node">
<title>Node3</title>
<g id="a_node3"><a xlink:href="StateEstimationApp_8cpp.html" target="_top" xlink:title="Base class for State Estimation Application.">
<polygon fill="white" stroke="black" points="1890.18,-0.5 1890.18,-19.5 2024.18,-19.5 2024.18,-0.5 1890.18,-0.5"/>
<text text-anchor="middle" x="1957.18" y="-7.5" font-family="Helvetica,sans-Serif" font-size="10.00">StateEstimationApp.cpp</text>
</a>
</g>
</g>
<!-- Node2&#45;&gt;Node3 -->
<g id="edge2" class="edge">
<title>Node2&#45;&gt;Node3</title>
<path fill="none" stroke="midnightblue" d="M1953.28,-46.1C1954.28,-37.14 1955.42,-26.86 1956.21,-19.75"/>
<polygon fill="midnightblue" stroke="midnightblue" points="1949.8,-45.76 1952.17,-56.08 1956.76,-46.53 1949.8,-45.76"/>
</g>
<!-- Node5 -->
<g id="node5" class="node">
<title>Node5</title>
<g id="a_node5"><a xlink:href="Agent_8h.html" target="_top" xlink:title="List of agents.">
<polygon fill="white" stroke="black" points="1085.18,-112.5 1085.18,-131.5 1139.18,-131.5 1139.18,-112.5 1085.18,-112.5"/>
<text text-anchor="middle" x="1112.18" y="-119.5" font-family="Helvetica,sans-Serif" font-size="10.00">Agent.h</text>
</a>
</g>
</g>
<!-- Node4&#45;&gt;Node5 -->
<g id="edge4" class="edge">
<title>Node4&#45;&gt;Node5</title>
<path fill="none" stroke="midnightblue" d="M512.36,-176.27C615.35,-174.09 867.79,-165.47 1076.18,-132 1079.11,-131.53 1082.15,-130.94 1085.16,-130.28"/>
<polygon fill="midnightblue" stroke="midnightblue" points="512.21,-172.78 502.29,-176.48 512.36,-179.77 512.21,-172.78"/>
</g>
<!-- Node7 -->
<g id="node7" class="node">
<title>Node7</title>
<g id="a_node7"><a xlink:href="GNSSConstellation_8h.html" target="_top" xlink:title=" ">
<polygon fill="white" stroke="black" points="691.68,-56.5 691.68,-75.5 808.68,-75.5 808.68,-56.5 691.68,-56.5"/>
<text text-anchor="middle" x="750.18" y="-63.5" font-family="Helvetica,sans-Serif" font-size="10.00">GNSSConstellation.h</text>
</a>
</g>
</g>
<!-- Node4&#45;&gt;Node7 -->
<g id="edge23" class="edge">
<title>Node4&#45;&gt;Node7</title>
<path fill="none" stroke="midnightblue" d="M467.08,-158.2C469.6,-143.39 475.48,-123.4 489.18,-112 519.18,-87.04 624.16,-75.4 691.48,-70.38"/>
<polygon fill="midnightblue" stroke="midnightblue" points="463.58,-157.91 465.73,-168.29 470.52,-158.84 463.58,-157.91"/>
</g>
<!-- Node9 -->
<g id="node9" class="node">
<title>Node9</title>
<g id="a_node9"><a xlink:href="ExampleConstellations_8cpp.html" target="_top" xlink:title="Setup GNSS Constellation.">
<polygon fill="white" stroke="black" points="1020.68,-0.5 1020.68,-19.5 1169.68,-19.5 1169.68,-0.5 1020.68,-0.5"/>
<text text-anchor="middle" x="1095.18" y="-7.5" font-family="Helvetica,sans-Serif" font-size="10.00">ExampleConstellations.cpp</text>
</a>
</g>
</g>
<!-- Node4&#45;&gt;Node9 -->
<g id="edge27" class="edge">
<title>Node4&#45;&gt;Node9</title>
<path fill="none" stroke="midnightblue" d="M475.06,-159.91C484.91,-144.59 501.52,-122.91 522.18,-112 639.37,-50.1 687.98,-100.71 818.18,-76 852.92,-69.41 860.82,-64.33 895.18,-56 950.53,-42.59 1014.82,-28.36 1055.25,-19.58"/>
<polygon fill="midnightblue" stroke="midnightblue" points="472.06,-158.11 469.83,-168.47 478.03,-161.76 472.06,-158.11"/>
</g>
<!-- Node10 -->
<g id="node10" class="node">
<title>Node10</title>
<g id="a_node10"><a xlink:href="ExampleEKF_8cpp.html" target="_top" xlink:title="Example of Extended Kalman Filter for orbit determination.">
<polygon fill="white" stroke="black" points="404.68,-0.5 404.68,-19.5 501.68,-19.5 501.68,-0.5 404.68,-0.5"/>
<text text-anchor="middle" x="453.18" y="-7.5" font-family="Helvetica,sans-Serif" font-size="10.00">ExampleEKF.cpp</text>
</a>
</g>
</g>
<!-- Node4&#45;&gt;Node10 -->
<g id="edge28" class="edge">
<title>Node4&#45;&gt;Node10</title>
<path fill="none" stroke="midnightblue" d="M418.41,-164.85C401.81,-158.04 384.86,-147.65 375.18,-132 357.43,-103.27 358.29,-85.25 375.18,-56 385.66,-37.86 406.54,-26.38 424.06,-19.56"/>
<polygon fill="midnightblue" stroke="midnightblue" points="417.49,-168.24 428.08,-168.46 419.93,-161.68 417.49,-168.24"/>
</g>
<!-- Node11 -->
<g id="node11" class="node">
<title>Node11</title>
<g id="a_node11"><a xlink:href="ExampleEKFApp_8cpp.html" target="_top" xlink:title="Example of EKF application.">
<polygon fill="white" stroke="black" points="886.18,-0.5 886.18,-19.5 1002.18,-19.5 1002.18,-0.5 886.18,-0.5"/>
<text text-anchor="middle" x="944.18" y="-7.5" font-family="Helvetica,sans-Serif" font-size="10.00">ExampleEKFApp.cpp</text>
</a>
</g>
</g>
<!-- Node4&#45;&gt;Node11 -->
<g id="edge29" class="edge">
<title>Node4&#45;&gt;Node11</title>
<path fill="none" stroke="midnightblue" d="M454.55,-159.4C440.2,-133.13 419.34,-83.81 446.18,-56 477.48,-23.57 805.31,-24.15 850.18,-20 861.77,-18.93 874.17,-17.76 886.02,-16.63"/>
<polygon fill="midnightblue" stroke="midnightblue" points="451.61,-161.31 459.62,-168.24 457.68,-157.82 451.61,-161.31"/>
</g>
<!-- Node12 -->
<g id="node12" class="node">
<title>Node12</title>
<g id="a_node12"><a xlink:href="ExamplePropagation_8cpp.html" target="_top" xlink:title="Example propagating both GPS constellation and Lunar Satellite.">
<polygon fill="white" stroke="black" points="557.18,-0.5 557.18,-19.5 695.18,-19.5 695.18,-0.5 557.18,-0.5"/>
<text text-anchor="middle" x="626.18" y="-7.5" font-family="Helvetica,sans-Serif" font-size="10.00">ExamplePropagation.cpp</text>
</a>
</g>
</g>
<!-- Node4&#45;&gt;Node12 -->
<g id="edge32" class="edge">
<title>Node4&#45;&gt;Node12</title>
<path fill="none" stroke="midnightblue" d="M417.86,-177.23C297.54,-176.97 -7.16,-170.61 42.18,-112 75.15,-72.84 409.75,-33.53 557.12,-17.97"/>
<polygon fill="midnightblue" stroke="midnightblue" points="417.89,-180.73 427.89,-177.24 417.9,-173.73 417.89,-180.73"/>
</g>
<!-- Node18 -->
<g id="node18" class="node">
<title>Node18</title>
<g id="a_node18"><a xlink:href="DynamicsAnalytical_8cpp.html" target="_top" xlink:title="Analytical orbit dynamics implementation.">
<polygon fill="white" stroke="black" points="767.18,-112.5 767.18,-131.5 901.18,-131.5 901.18,-112.5 767.18,-112.5"/>
<text text-anchor="middle" x="834.18" y="-119.5" font-family="Helvetica,sans-Serif" font-size="10.00">DynamicsAnalytical.cpp</text>
</a>
</g>
</g>
<!-- Node4&#45;&gt;Node18 -->
<g id="edge24" class="edge">
<title>Node4&#45;&gt;Node18</title>
<path fill="none" stroke="midnightblue" d="M512.15,-170.13C579.42,-160.28 703.09,-142.18 776.05,-131.51"/>
<polygon fill="midnightblue" stroke="midnightblue" points="511.64,-166.66 502.25,-171.58 512.66,-173.59 511.64,-166.66"/>
</g>
<!-- Node19 -->
<g id="node19" class="node">
<title>Node19</title>
<g id="a_node19"><a xlink:href="DynamicsNumerical_8cpp.html" target="_top" xlink:title="List of Numerical Dynamics.">
<polygon fill="white" stroke="black" points="51.18,-112.5 51.18,-131.5 187.18,-131.5 187.18,-112.5 51.18,-112.5"/>
<text text-anchor="middle" x="119.18" y="-119.5" font-family="Helvetica,sans-Serif" font-size="10.00">DynamicsNumerical.cpp</text>
</a>
</g>
</g>
<!-- Node4&#45;&gt;Node19 -->
<g id="edge25" class="edge">
<title>Node4&#45;&gt;Node19</title>
<path fill="none" stroke="midnightblue" d="M418,-169.64C354.3,-159.69 241.07,-142.02 173.78,-131.52"/>
<polygon fill="midnightblue" stroke="midnightblue" points="417.74,-173.14 428.16,-171.22 418.81,-166.22 417.74,-173.14"/>
</g>
<!-- Node20 -->
<g id="node20" class="node">
<title>Node20</title>
<g id="a_node20"><a xlink:href="NBodyDynamics_8cpp.html" target="_top" xlink:title="Multiple&#45;body dynamics.">
<polygon fill="white" stroke="black" points="205.18,-112.5 205.18,-131.5 323.18,-131.5 323.18,-112.5 205.18,-112.5"/>
<text text-anchor="middle" x="264.18" y="-119.5" font-family="Helvetica,sans-Serif" font-size="10.00">NBodyDynamics.cpp</text>
</a>
</g>
</g>
<!-- Node4&#45;&gt;Node20 -->
<g id="edge26" class="edge">
<title>Node4&#45;&gt;Node20</title>
<path fill="none" stroke="midnightblue" d="M423.6,-165.83C385.65,-155.63 330.37,-140.78 295.88,-131.52"/>
<polygon fill="midnightblue" stroke="midnightblue" points="422.77,-169.23 433.33,-168.44 424.58,-162.47 422.77,-169.23"/>
</g>
<!-- Node21 -->
<g id="node21" class="node">
<title>Node21</title>
<g id="a_node21"><a xlink:href="ExampleFrozenOrbits_8cpp.html" target="_top" xlink:title="Example of frozen orbits.">
<polygon fill="white" stroke="black" points="455.68,-56.5 455.68,-75.5 596.68,-75.5 596.68,-56.5 455.68,-56.5"/>
<text text-anchor="middle" x="526.18" y="-63.5" font-family="Helvetica,sans-Serif" font-size="10.00">ExampleFrozenOrbits.cpp</text>
</a>
</g>
</g>
<!-- Node4&#45;&gt;Node21 -->
<g id="edge30" class="edge">
<title>Node4&#45;&gt;Node21</title>
<path fill="none" stroke="midnightblue" d="M455.11,-159.56C448.64,-145.86 442.85,-126.71 451.18,-112 461.36,-94.03 481.89,-82.45 498.9,-75.55"/>
<polygon fill="midnightblue" stroke="midnightblue" points="452.02,-161.19 459.76,-168.43 458.22,-157.95 452.02,-161.19"/>
</g>
<!-- Node22 -->
<g id="node22" class="node">
<title>Node22</title>
<g id="a_node22"><a xlink:href="ExamplePerformance_8cpp.html" target="_top" xlink:title="Example for performance testing of spherical harmonics computation.">
<polygon fill="white" stroke="black" points="531.18,-112.5 531.18,-131.5 673.18,-131.5 673.18,-112.5 531.18,-112.5"/>
<text text-anchor="middle" x="602.18" y="-119.5" font-family="Helvetica,sans-Serif" font-size="10.00">ExamplePerformance.cpp</text>
</a>
</g>
</g>
<!-- Node4&#45;&gt;Node22 -->
<g id="edge31" class="edge">
<title>Node4&#45;&gt;Node22</title>
<path fill="none" stroke="midnightblue" d="M496.21,-164.77C521.94,-154.63 557.87,-140.47 580.58,-131.52"/>
<polygon fill="midnightblue" stroke="midnightblue" points="494.91,-161.52 486.89,-168.44 497.48,-168.03 494.91,-161.52"/>
</g>
<!-- Node5&#45;&gt;Node2 -->
<g id="edge15" class="edge">
<title>Node5&#45;&gt;Node2</title>
<path fill="none" stroke="midnightblue" d="M1149.68,-112.27C1473.32,-66.1 1560.06,-104.5 1881.18,-76 1884.11,-75.74 1887.11,-75.45 1890.13,-75.14"/>
<polygon fill="midnightblue" stroke="midnightblue" points="1148.95,-108.84 1139.55,-113.73 1149.95,-115.77 1148.95,-108.84"/>
</g>
<!-- Node6 -->
<g id="node6" class="node">
<title>Node6</title>
<g id="a_node6"><a xlink:href="Agent_8cpp.html" target="_top" xlink:title="Base class fo.">
<polygon fill="white" stroke="black" points="903.68,-56.5 903.68,-75.5 968.68,-75.5 968.68,-56.5 903.68,-56.5"/>
<text text-anchor="middle" x="936.18" y="-63.5" font-family="Helvetica,sans-Serif" font-size="10.00">Agent.cpp</text>
</a>
</g>
</g>
<!-- Node5&#45;&gt;Node6 -->
<g id="edge5" class="edge">
<title>Node5&#45;&gt;Node6</title>
<path fill="none" stroke="midnightblue" d="M1075.27,-109.67C1042.05,-99.48 993.96,-84.73 963.91,-75.51"/>
<polygon fill="midnightblue" stroke="midnightblue" points="1074.48,-113.09 1085.07,-112.68 1076.54,-106.4 1074.48,-113.09"/>
</g>
<!-- Node5&#45;&gt;Node7 -->
<g id="edge6" class="edge">
<title>Node5&#45;&gt;Node7</title>
<path fill="none" stroke="midnightblue" d="M1075.27,-112C976.36,-93.18 872.19,-80.26 808.8,-73.16"/>
<polygon fill="midnightblue" stroke="midnightblue" points="1074.64,-115.45 1085.13,-113.9 1075.97,-108.57 1074.64,-115.45"/>
</g>
<!-- Node5&#45;&gt;Node9 -->
<g id="edge19" class="edge">
<title>Node5&#45;&gt;Node9</title>
<path fill="none" stroke="midnightblue" d="M1085.06,-107.32C1073.28,-99.82 1060.71,-89.32 1054.18,-76 1043.8,-54.79 1067.37,-31.84 1082.91,-19.69"/>
<polygon fill="midnightblue" stroke="midnightblue" points="1083.4,-110.41 1093.79,-112.47 1086.95,-104.38 1083.4,-110.41"/>
</g>
<!-- Node5&#45;&gt;Node10 -->
<g id="edge20" class="edge">
<title>Node5&#45;&gt;Node10</title>
<path fill="none" stroke="midnightblue" d="M1075.02,-112.09C888.58,-82.44 833.81,-119.95 654.18,-76 631.73,-70.51 627.97,-63.72 606.18,-56 565.34,-41.53 517.25,-27.94 486.05,-19.55"/>
<polygon fill="midnightblue" stroke="midnightblue" points="1074.72,-115.59 1085.15,-113.75 1075.85,-108.68 1074.72,-115.59"/>
</g>
<!-- Node5&#45;&gt;Node11 -->
<g id="edge21" class="edge">
<title>Node5&#45;&gt;Node11</title>
<path fill="none" stroke="midnightblue" d="M1090.36,-106.71C1054.96,-83.53 986.08,-38.43 957.3,-19.59"/>
<polygon fill="midnightblue" stroke="midnightblue" points="1088.72,-109.82 1099,-112.37 1092.55,-103.96 1088.72,-109.82"/>
</g>
<!-- Node5&#45;&gt;Node12 -->
<g id="edge22" class="edge">
<title>Node5&#45;&gt;Node12</title>
<path fill="none" stroke="midnightblue" d="M1075.22,-112.24C974.72,-98.48 758.73,-114.48 683.18,-76 658.04,-63.19 639.09,-34.14 630.79,-19.61"/>
<polygon fill="midnightblue" stroke="midnightblue" points="1074.74,-115.71 1085.15,-113.77 1075.8,-108.79 1074.74,-115.71"/>
</g>
<!-- Node13 -->
<g id="node13" class="node">
<title>Node13</title>
<g id="a_node13"><a xlink:href="GNSSStateEstimationApp_8h.html" target="_top" xlink:title="State Estimation Application Using GNSS Measurement.">
<polygon fill="white" stroke="black" points="1722.68,-56.5 1722.68,-75.5 1871.68,-75.5 1871.68,-56.5 1722.68,-56.5"/>
<text text-anchor="middle" x="1797.18" y="-63.5" font-family="Helvetica,sans-Serif" font-size="10.00">GNSSStateEstimationApp.h</text>
</a>
</g>
</g>
<!-- Node5&#45;&gt;Node13 -->
<g id="edge12" class="edge">
<title>Node5&#45;&gt;Node13</title>
<path fill="none" stroke="midnightblue" d="M1149.52,-112.39C1235.05,-101.51 1570.88,-80.65 1722.46,-71.47"/>
<polygon fill="midnightblue" stroke="midnightblue" points="1148.97,-108.93 1139.56,-113.79 1149.95,-115.87 1148.97,-108.93"/>
</g>
<!-- Node15 -->
<g id="node15" class="node">
<title>Node15</title>
<g id="a_node15"><a xlink:href="GNSSChannel_8cpp.html" target="_top" xlink:title="GNSS Channel.">
<polygon fill="white" stroke="black" points="1325.18,-56.5 1325.18,-75.5 1429.18,-75.5 1429.18,-56.5 1325.18,-56.5"/>
<text text-anchor="middle" x="1377.18" y="-63.5" font-family="Helvetica,sans-Serif" font-size="10.00">GNSSChannel.cpp</text>
</a>
</g>
</g>
<!-- Node5&#45;&gt;Node15 -->
<g id="edge16" class="edge">
<title>Node5&#45;&gt;Node15</title>
<path fill="none" stroke="midnightblue" d="M1148.88,-112.07C1148.98,-112.04 1149.08,-112.02 1149.18,-112 1211.83,-98.2 1284.61,-84.19 1330.77,-75.54"/>
<polygon fill="midnightblue" stroke="midnightblue" points="1148.2,-108.63 1139.23,-114.28 1149.76,-115.46 1148.2,-108.63"/>
</g>
<!-- Node16 -->
<g id="node16" class="node">
<title>Node16</title>
<g id="a_node16"><a xlink:href="GNSSTransmitter_8cpp.html" target="_top" xlink:title="Handles GNSS transmit.">
<polygon fill="white" stroke="black" points="1187.68,-56.5 1187.68,-75.5 1306.68,-75.5 1306.68,-56.5 1187.68,-56.5"/>
<text text-anchor="middle" x="1247.18" y="-63.5" font-family="Helvetica,sans-Serif" font-size="10.00">GNSSTransmitter.cpp</text>
</a>
</g>
</g>
<!-- Node5&#45;&gt;Node16 -->
<g id="edge17" class="edge">
<title>Node5&#45;&gt;Node16</title>
<path fill="none" stroke="midnightblue" d="M1143.09,-108.64C1168.42,-98.5 1203.61,-84.43 1225.89,-75.52"/>
<polygon fill="midnightblue" stroke="midnightblue" points="1141.56,-105.48 1133.57,-112.44 1144.16,-111.98 1141.56,-105.48"/>
</g>
<!-- Node17 -->
<g id="node17" class="node">
<title>Node17</title>
<g id="a_node17"><a xlink:href="SpaceChannel_8cpp.html" target="_top" xlink:title="Base spacechannel class (Under devlopment )">
<polygon fill="white" stroke="black" points="1063.18,-56.5 1063.18,-75.5 1169.18,-75.5 1169.18,-56.5 1063.18,-56.5"/>
<text text-anchor="middle" x="1116.18" y="-63.5" font-family="Helvetica,sans-Serif" font-size="10.00">SpaceChannel.cpp</text>
</a>
</g>
</g>
<!-- Node5&#45;&gt;Node17 -->
<g id="edge18" class="edge">
<title>Node5&#45;&gt;Node17</title>
<path fill="none" stroke="midnightblue" d="M1113.58,-102.1C1114.25,-93.14 1115.01,-82.86 1115.54,-75.75"/>
<polygon fill="midnightblue" stroke="midnightblue" points="1110.09,-101.85 1112.84,-112.08 1117.07,-102.37 1110.09,-101.85"/>
</g>
<!-- Node8 -->
<g id="node8" class="node">
<title>Node8</title>
<g id="a_node8"><a xlink:href="GNSSConstellation_8cpp.html" target="_top" xlink:title="GNSS Constellation.">
<polygon fill="white" stroke="black" points="713.18,-0.5 713.18,-19.5 841.18,-19.5 841.18,-0.5 713.18,-0.5"/>
<text text-anchor="middle" x="777.18" y="-7.5" font-family="Helvetica,sans-Serif" font-size="10.00">GNSSConstellation.cpp</text>
</a>
</g>
</g>
<!-- Node7&#45;&gt;Node8 -->
<g id="edge7" class="edge">
<title>Node7&#45;&gt;Node8</title>
<path fill="none" stroke="midnightblue" d="M759.19,-46.98C763.78,-37.82 769.14,-27.09 772.81,-19.75"/>
<polygon fill="midnightblue" stroke="midnightblue" points="755.98,-45.57 754.64,-56.08 762.24,-48.7 755.98,-45.57"/>
</g>
<!-- Node7&#45;&gt;Node9 -->
<g id="edge8" class="edge">
<title>Node7&#45;&gt;Node9</title>
<path fill="none" stroke="midnightblue" d="M815.01,-54.85C880.19,-44.65 979.56,-29.1 1040.77,-19.52"/>
<polygon fill="midnightblue" stroke="midnightblue" points="814.19,-51.44 804.85,-56.44 815.27,-58.35 814.19,-51.44"/>
</g>
<!-- Node7&#45;&gt;Node10 -->
<g id="edge9" class="edge">
<title>Node7&#45;&gt;Node10</title>
<path fill="none" stroke="midnightblue" d="M692.99,-54.6C636.86,-44.4 552.29,-29.02 500.02,-19.52"/>
<polygon fill="midnightblue" stroke="midnightblue" points="692.66,-58.1 703.12,-56.44 693.91,-51.21 692.66,-58.1"/>
</g>
<!-- Node7&#45;&gt;Node11 -->
<g id="edge10" class="edge">
<title>Node7&#45;&gt;Node11</title>
<path fill="none" stroke="midnightblue" d="M790.78,-53.7C827.4,-43.51 880.44,-28.74 913.59,-19.52"/>
<polygon fill="midnightblue" stroke="midnightblue" points="789.62,-50.39 780.92,-56.44 791.5,-57.13 789.62,-50.39"/>
</g>
<!-- Node7&#45;&gt;Node12 -->
<g id="edge11" class="edge">
<title>Node7&#45;&gt;Node12</title>
<path fill="none" stroke="midnightblue" d="M721.18,-52.37C697.95,-42.26 666.02,-28.35 645.74,-19.52"/>
<polygon fill="midnightblue" stroke="midnightblue" points="719.97,-55.66 730.54,-56.44 722.76,-49.24 719.97,-55.66"/>
</g>
<!-- Node13&#45;&gt;Node11 -->
<g id="edge14" class="edge">
<title>Node13&#45;&gt;Node11</title>
<path fill="none" stroke="midnightblue" d="M1712.58,-58.76C1698.75,-57.8 1684.57,-56.84 1671.18,-56 1378.44,-37.55 1304.24,-47.26 1012.18,-20 1008.98,-19.7 1005.7,-19.37 1002.39,-19"/>
<polygon fill="midnightblue" stroke="midnightblue" points="1712.36,-62.25 1722.58,-59.46 1712.85,-55.27 1712.36,-62.25"/>
</g>
<!-- Node14 -->
<g id="node14" class="node">
<title>Node14</title>
<g id="a_node14"><a xlink:href="GNSSStateEstimationApp_8cpp.html" target="_top" xlink:title="State Estimation Application Using GNSS Measurement.">
<polygon fill="white" stroke="black" points="1710.68,-0.5 1710.68,-19.5 1871.68,-19.5 1871.68,-0.5 1710.68,-0.5"/>
<text text-anchor="middle" x="1791.18" y="-7.5" font-family="Helvetica,sans-Serif" font-size="10.00">GNSSStateEstimationApp.cpp</text>
</a>
</g>
</g>
<!-- Node13&#45;&gt;Node14 -->
<g id="edge13" class="edge">
<title>Node13&#45;&gt;Node14</title>
<path fill="none" stroke="midnightblue" d="M1795.08,-46.1C1794.09,-37.14 1792.95,-26.86 1792.16,-19.75"/>
<polygon fill="midnightblue" stroke="midnightblue" points="1791.61,-46.53 1796.19,-56.08 1798.57,-45.76 1791.61,-46.53"/>
</g>
<!-- Node23&#45;&gt;Node5 -->
<g id="edge34" class="edge">
<title>Node23&#45;&gt;Node5</title>
<path fill="none" stroke="midnightblue" d="M994.63,-165.04C1023.04,-154.88 1063.12,-140.55 1088.37,-131.52"/>
<polygon fill="midnightblue" stroke="midnightblue" points="993.35,-161.78 985.11,-168.44 995.7,-168.37 993.35,-161.78"/>
</g>
<!-- Node23&#45;&gt;Node10 -->
<g id="edge35" class="edge">
<title>Node23&#45;&gt;Node10</title>
<path fill="none" stroke="midnightblue" d="M924.5,-169.32C883.77,-160.69 816.12,-146.04 758.18,-132 724.24,-123.77 716.38,-119.09 682.18,-112 630.24,-101.23 480.75,-116.24 446.18,-76 432.58,-60.16 442.15,-33.51 448.6,-19.77"/>
<polygon fill="midnightblue" stroke="midnightblue" points="924,-172.79 934.51,-171.43 925.45,-165.94 924,-172.79"/>
</g>
<!-- Node23&#45;&gt;Node11 -->
<g id="edge36" class="edge">
<title>Node23&#45;&gt;Node11</title>
<path fill="none" stroke="midnightblue" d="M946.27,-160.85C930.06,-142.1 905.14,-109.43 895.18,-76 892.65,-67.48 891.61,-64.14 895.18,-56 902.15,-40.14 917.78,-27.42 929.52,-19.6"/>
<polygon fill="midnightblue" stroke="midnightblue" points="943.76,-163.3 953.02,-168.45 948.99,-158.65 943.76,-163.3"/>
</g>
<!-- Node24&#45;&gt;Node4 -->
<g id="edge58" class="edge">
<title>Node24&#45;&gt;Node4</title>
<path fill="none" stroke="midnightblue" d="M1042.51,-228.88C922.62,-218.52 610.44,-191.55 502.53,-182.23"/>
<polygon fill="midnightblue" stroke="midnightblue" points="1042.23,-232.37 1052.49,-229.74 1042.83,-225.4 1042.23,-232.37"/>
</g>
<!-- Node24&#45;&gt;Node5 -->
<g id="edge38" class="edge">
<title>Node24&#45;&gt;Node5</title>
<path fill="none" stroke="midnightblue" d="M1093.91,-214.35C1098.73,-190.25 1106.92,-149.31 1110.47,-131.59"/>
<polygon fill="midnightblue" stroke="midnightblue" points="1090.44,-213.88 1091.91,-224.37 1097.3,-215.25 1090.44,-213.88"/>
</g>
<!-- Node24&#45;&gt;Node7 -->
<g id="edge57" class="edge">
<title>Node24&#45;&gt;Node7</title>
<path fill="none" stroke="midnightblue" d="M1042.68,-225.17C959.88,-210.5 794.44,-176.31 758.18,-132 744.94,-115.81 746.6,-89.31 748.58,-75.69"/>
<polygon fill="midnightblue" stroke="midnightblue" points="1042.14,-228.63 1052.6,-226.9 1043.35,-221.73 1042.14,-228.63"/>
</g>
<!-- Node24&#45;&gt;Node9 -->
<g id="edge71" class="edge">
<title>Node24&#45;&gt;Node9</title>
<path fill="none" stroke="midnightblue" d="M1137.97,-232.58C1328.12,-230.68 2022.25,-221.46 2054.18,-188 2094.69,-145.56 2094.68,-98.44 2054.18,-56 2023.8,-24.16 1390.53,-14.22 1170.06,-11.73"/>
<polygon fill="midnightblue" stroke="midnightblue" points="1137.7,-229.08 1127.74,-232.68 1137.77,-236.08 1137.7,-229.08"/>
</g>
<!-- Node24&#45;&gt;Node10 -->
<g id="edge72" class="edge">
<title>Node24&#45;&gt;Node10</title>
<path fill="none" stroke="midnightblue" d="M1042.51,-233.36C873.07,-234.24 300.7,-233.7 124.18,-188 69.92,-173.95 40.74,-179.63 11.18,-132 -12.72,-93.48 50.39,-63.32 65.18,-56 123.76,-27.01 314.09,-16.17 404.56,-12.58"/>
<polygon fill="midnightblue" stroke="midnightblue" points="1042.63,-236.86 1052.61,-233.3 1042.59,-229.86 1042.63,-236.86"/>
</g>
<!-- Node24&#45;&gt;Node11 -->
<g id="edge73" class="edge">
<title>Node24&#45;&gt;Node11</title>
<path fill="none" stroke="midnightblue" d="M1138.25,-231.93C1271.78,-228.62 1645.2,-216.97 1764.18,-188 1888.95,-157.62 2110.35,-148.4 2021.18,-56 1982.23,-15.64 1068.08,-24.69 1012.18,-20 1008.98,-19.73 1005.69,-19.42 1002.38,-19.08"/>
<polygon fill="midnightblue" stroke="midnightblue" points="1137.86,-228.44 1127.94,-232.18 1138.03,-235.44 1137.86,-228.44"/>
</g>
<!-- Node24&#45;&gt;Node12 -->
<g id="edge75" class="edge">
<title>Node24&#45;&gt;Node12</title>
<path fill="none" stroke="midnightblue" d="M1042.49,-232.22C845.2,-228.49 100.1,-209.33 33.18,-132 -19.43,-71.21 -26.92,-105.26 143.18,-56 162.72,-50.34 428,-27.58 556.87,-16.77"/>
<polygon fill="midnightblue" stroke="midnightblue" points="1042.48,-235.72 1052.55,-232.4 1042.61,-228.72 1042.48,-235.72"/>
</g>
<!-- Node24&#45;&gt;Node15 -->
<g id="edge59" class="edge">
<title>Node24&#45;&gt;Node15</title>
<path fill="none" stroke="midnightblue" d="M1138,-231.29C1255.94,-225.96 1555.6,-205.32 1616.18,-132 1621.85,-125.15 1621.86,-118.84 1616.18,-112 1613.15,-108.34 1495.9,-87.52 1426.78,-75.53"/>
<polygon fill="midnightblue" stroke="midnightblue" points="1137.66,-227.8 1127.83,-231.73 1137.97,-234.79 1137.66,-227.8"/>
</g>
<!-- Node24&#45;&gt;Node22 -->
<g id="edge74" class="edge">
<title>Node24&#45;&gt;Node22</title>
<path fill="none" stroke="midnightblue" d="M1042.06,-232.57C971.11,-230.72 834.98,-222.49 725.18,-188 682.09,-174.46 636.33,-146.02 614.78,-131.67"/>
<polygon fill="midnightblue" stroke="midnightblue" points="1042.38,-236.08 1052.46,-232.81 1042.54,-229.08 1042.38,-236.08"/>
</g>
<!-- Node25 -->
<g id="node25" class="node">
<title>Node25</title>
<g id="a_node25"><a xlink:href="CommDevice_8h.html" target="_top" xlink:title="Communication devices.">
<polygon fill="white" stroke="black" points="1663.18,-168.5 1663.18,-187.5 1755.18,-187.5 1755.18,-168.5 1663.18,-168.5"/>
<text text-anchor="middle" x="1709.18" y="-175.5" font-family="Helvetica,sans-Serif" font-size="10.00">CommDevice.h</text>
</a>
</g>
</g>
<!-- Node24&#45;&gt;Node25 -->
<g id="edge39" class="edge">
<title>Node24&#45;&gt;Node25</title>
<path fill="none" stroke="midnightblue" d="M1137.94,-230.26C1234.63,-224.48 1460.44,-209.73 1649.18,-188 1653.68,-187.48 1658.36,-186.88 1663.04,-186.25"/>
<polygon fill="midnightblue" stroke="midnightblue" points="1137.67,-226.77 1127.89,-230.86 1138.08,-233.76 1137.67,-226.77"/>
</g>
<!-- Node29 -->
<g id="node29" class="node">
<title>Node29</title>
<g id="a_node29"><a xlink:href="LunarMeanOsc_8cpp.html" target="_top" xlink:title="Lunar Mean and Osculating Elements.">
<polygon fill="white" stroke="black" points="957.68,-112.5 957.68,-131.5 1066.68,-131.5 1066.68,-112.5 957.68,-112.5"/>
<text text-anchor="middle" x="1012.18" y="-119.5" font-family="Helvetica,sans-Serif" font-size="10.00">LunarMeanOsc.cpp</text>
</a>
</g>
</g>
<!-- Node24&#45;&gt;Node29 -->
<g id="edge60" class="edge">
<title>Node24&#45;&gt;Node29</title>
<path fill="none" stroke="midnightblue" d="M1078.1,-215.96C1061.19,-192.12 1031.12,-149.71 1018.28,-131.59"/>
<polygon fill="midnightblue" stroke="midnightblue" points="1075.42,-218.24 1084.06,-224.37 1081.13,-214.19 1075.42,-218.24"/>
</g>
<!-- Node30 -->
<g id="node30" class="node">
<title>Node30</title>
<g id="a_node30"><a xlink:href="OrbitState_8cpp.html" target="_top" xlink:title="Orbit states.">
<polygon fill="white" stroke="black" points="1285.18,-112.5 1285.18,-131.5 1371.18,-131.5 1371.18,-112.5 1285.18,-112.5"/>
<text text-anchor="middle" x="1328.18" y="-119.5" font-family="Helvetica,sans-Serif" font-size="10.00">OrbitState.cpp</text>
</a>
</g>
</g>
<!-- Node24&#45;&gt;Node30 -->
<g id="edge62" class="edge">
<title>Node24&#45;&gt;Node30</title>
<path fill="none" stroke="midnightblue" d="M1132.89,-221.64C1159.97,-213.74 1195.39,-202.11 1225.18,-188 1260.35,-171.35 1298.17,-145.05 1316.67,-131.58"/>
<polygon fill="midnightblue" stroke="midnightblue" points="1131.6,-218.37 1122.95,-224.48 1133.53,-225.1 1131.6,-218.37"/>
</g>
<!-- Node31 -->
<g id="node31" class="node">
<title>Node31</title>
<g id="a_node31"><a xlink:href="OrbitStateUtils_8h.html" target="_top" xlink:title="Util functions for state conversions.">
<polygon fill="white" stroke="black" points="1118.18,-168.5 1118.18,-187.5 1216.18,-187.5 1216.18,-168.5 1118.18,-168.5"/>
<text text-anchor="middle" x="1167.18" y="-175.5" font-family="Helvetica,sans-Serif" font-size="10.00">OrbitStateUtils.h</text>
</a>
</g>
</g>
<!-- Node24&#45;&gt;Node31 -->
<g id="edge63" class="edge">
<title>Node24&#45;&gt;Node31</title>
<path fill="none" stroke="midnightblue" d="M1111.08,-218.34C1125.09,-208.52 1143.07,-195.91 1154.84,-187.65"/>
<polygon fill="midnightblue" stroke="midnightblue" points="1108.73,-215.72 1102.55,-224.32 1112.75,-221.45 1108.73,-215.72"/>
</g>
<!-- Node33 -->
<g id="node33" class="node">
<title>Node33</title>
<g id="a_node33"><a xlink:href="TLE_8cpp.html" target="_top" xlink:title="Routines to process TLE files.">
<polygon fill="white" stroke="black" points="1389.18,-112.5 1389.18,-131.5 1443.18,-131.5 1443.18,-112.5 1389.18,-112.5"/>
<text text-anchor="middle" x="1416.18" y="-119.5" font-family="Helvetica,sans-Serif" font-size="10.00">TLE.cpp</text>
</a>
</g>
</g>
<!-- Node24&#45;&gt;Node33 -->
<g id="edge70" class="edge">
<title>Node24&#45;&gt;Node33</title>
<path fill="none" stroke="midnightblue" d="M1136.81,-221.97C1170.33,-213.65 1216.44,-201.4 1256.18,-188 1308.17,-170.46 1367.59,-144.78 1397.26,-131.56"/>
<polygon fill="midnightblue" stroke="midnightblue" points="1135.71,-218.63 1126.83,-224.42 1137.38,-225.43 1135.71,-218.63"/>
</g>
<!-- Node25&#45;&gt;Node2 -->
<g id="edge42" class="edge">
<title>Node25&#45;&gt;Node2</title>
<path fill="none" stroke="midnightblue" d="M1737.42,-164.16C1787.36,-141.47 1889.96,-94.83 1932.28,-75.59"/>
<polygon fill="midnightblue" stroke="midnightblue" points="1735.83,-161.04 1728.17,-168.37 1738.72,-167.42 1735.83,-161.04"/>
</g>
<!-- Node25&#45;&gt;Node5 -->
<g id="edge40" class="edge">
<title>Node25&#45;&gt;Node5</title>
<path fill="none" stroke="midnightblue" d="M1653.16,-175.43C1551.94,-171.95 1332.13,-161.41 1149.18,-132 1146.05,-131.5 1142.79,-130.87 1139.56,-130.17"/>
<polygon fill="midnightblue" stroke="midnightblue" points="1653.05,-178.93 1663.16,-175.77 1653.28,-171.94 1653.05,-178.93"/>
</g>
<!-- Node25&#45;&gt;Node13 -->
<g id="edge41" class="edge">
<title>Node25&#45;&gt;Node13</title>
<path fill="none" stroke="midnightblue" d="M1732.99,-162.88C1744.77,-154.97 1758.5,-144.24 1768.18,-132 1782.14,-114.36 1790.91,-88.95 1794.81,-75.73"/>
<polygon fill="midnightblue" stroke="midnightblue" points="1730.99,-160.01 1724.47,-168.36 1734.77,-165.9 1730.99,-160.01"/>
</g>
<!-- Node25&#45;&gt;Node17 -->
<g id="edge56" class="edge">
<title>Node25&#45;&gt;Node17</title>
<path fill="none" stroke="midnightblue" d="M1653.03,-169.68C1608.33,-162.84 1544.61,-150.82 1491.18,-132 1472.81,-125.53 1470.78,-117.8 1452.18,-112 1335.36,-75.54 1300.43,-92.65 1179.18,-76 1176.01,-75.56 1172.75,-75.11 1169.45,-74.65"/>
<polygon fill="midnightblue" stroke="midnightblue" points="1652.71,-173.17 1663.12,-171.18 1653.75,-166.25 1652.71,-173.17"/>
</g>
<!-- Node26 -->
<g id="node26" class="node">
<title>Node26</title>
<g id="a_node26"><a xlink:href="GNSSReceiver_8h.html" target="_top" xlink:title="GNSS receiver class.">
<polygon fill="white" stroke="black" points="1663.68,-112.5 1663.68,-131.5 1758.68,-131.5 1758.68,-112.5 1663.68,-112.5"/>
<text text-anchor="middle" x="1711.18" y="-119.5" font-family="Helvetica,sans-Serif" font-size="10.00">GNSSReceiver.h</text>
</a>
</g>
</g>
<!-- Node25&#45;&gt;Node26 -->
<g id="edge43" class="edge">
<title>Node25&#45;&gt;Node26</title>
<path fill="none" stroke="midnightblue" d="M1709.89,-157.8C1710.22,-148.91 1710.6,-138.78 1710.86,-131.75"/>
<polygon fill="midnightblue" stroke="midnightblue" points="1706.39,-157.96 1709.51,-168.08 1713.38,-158.22 1706.39,-157.96"/>
</g>
<!-- Node28 -->
<g id="node28" class="node">
<title>Node28</title>
<g id="a_node28"><a xlink:href="GNSSTransmitter_8h.html" target="_top" xlink:title="Handles GNSS transmit.">
<polygon fill="white" stroke="black" points="1499.68,-112.5 1499.68,-131.5 1606.68,-131.5 1606.68,-112.5 1499.68,-112.5"/>
<text text-anchor="middle" x="1553.18" y="-119.5" font-family="Helvetica,sans-Serif" font-size="10.00">GNSSTransmitter.h</text>
</a>
</g>
</g>
<!-- Node25&#45;&gt;Node28 -->
<g id="edge52" class="edge">
<title>Node25&#45;&gt;Node28</title>
<path fill="none" stroke="midnightblue" d="M1675.01,-165.17C1645.64,-155 1603.99,-140.59 1577.79,-131.52"/>
<polygon fill="midnightblue" stroke="midnightblue" points="1673.87,-168.48 1684.46,-168.44 1676.16,-161.86 1673.87,-168.48"/>
</g>
<!-- Node26&#45;&gt;Node2 -->
<g id="edge45" class="edge">
<title>Node26&#45;&gt;Node2</title>
<path fill="none" stroke="midnightblue" d="M1759.11,-110.22C1804.46,-100.01 1871.63,-84.9 1913.33,-75.52"/>
<polygon fill="midnightblue" stroke="midnightblue" points="1758.2,-106.83 1749.21,-112.44 1759.74,-113.66 1758.2,-106.83"/>
</g>
<!-- Node26&#45;&gt;Node9 -->
<g id="edge48" class="edge">
<title>Node26&#45;&gt;Node9</title>
<path fill="none" stroke="midnightblue" d="M1705.34,-102.96C1699.36,-87.66 1688.45,-66.55 1671.18,-56 1629.38,-30.45 1315.89,-17.69 1169.76,-13.08"/>
<polygon fill="midnightblue" stroke="midnightblue" points="1702.06,-104.18 1708.72,-112.43 1708.65,-101.83 1702.06,-104.18"/>
</g>
<!-- Node26&#45;&gt;Node10 -->
<g id="edge49" class="edge">
<title>Node26&#45;&gt;Node10</title>
<path fill="none" stroke="midnightblue" d="M1653.33,-112.59C1593.29,-103.43 1503.7,-88.43 1471.18,-76 1455.16,-69.88 1454.6,-60.95 1438.18,-56 1248.66,1.1 745.67,-33.34 548.18,-20 533.14,-18.98 516.79,-17.55 501.96,-16.13"/>
<polygon fill="midnightblue" stroke="midnightblue" points="1653.02,-116.09 1663.43,-114.12 1654.07,-109.16 1653.02,-116.09"/>
</g>
<!-- Node26&#45;&gt;Node11 -->
<g id="edge50" class="edge">
<title>Node26&#45;&gt;Node11</title>
<path fill="none" stroke="midnightblue" d="M1698.33,-104.41C1685.13,-88.79 1663.05,-66.3 1638.18,-56 1509.44,-2.71 1150.9,-33.15 1012.18,-20 1008.98,-19.7 1005.7,-19.36 1002.39,-18.99"/>
<polygon fill="midnightblue" stroke="midnightblue" points="1695.68,-106.71 1704.71,-112.26 1701.12,-102.29 1695.68,-106.71"/>
</g>
<!-- Node26&#45;&gt;Node12 -->
<g id="edge51" class="edge">
<title>Node26&#45;&gt;Node12</title>
<path fill="none" stroke="midnightblue" d="M1653.39,-111.13C1613.64,-103.54 1559.98,-91.69 1514.18,-76 1494.24,-69.17 1491.65,-61.03 1471.18,-56 1305.49,-15.25 874.26,-33.79 704.18,-20 701.33,-19.77 698.42,-19.51 695.48,-19.24"/>
<polygon fill="midnightblue" stroke="midnightblue" points="1652.96,-114.61 1663.43,-113.01 1654.25,-107.73 1652.96,-114.61"/>
</g>
<!-- Node26&#45;&gt;Node13 -->
<g id="edge44" class="edge">
<title>Node26&#45;&gt;Node13</title>
<path fill="none" stroke="midnightblue" d="M1733.64,-106.9C1749.41,-97 1770,-84.07 1783.4,-75.65"/>
<polygon fill="midnightblue" stroke="midnightblue" points="1731.61,-104.04 1725,-112.32 1735.33,-109.97 1731.61,-104.04"/>
</g>
<!-- Node26&#45;&gt;Node15 -->
<g id="edge46" class="edge">
<title>Node26&#45;&gt;Node15</title>
<path fill="none" stroke="midnightblue" d="M1653.14,-111.62C1590.03,-101.41 1490.06,-85.25 1429.35,-75.43"/>
<polygon fill="midnightblue" stroke="midnightblue" points="1652.9,-115.12 1663.33,-113.26 1654.02,-108.21 1652.9,-115.12"/>
</g>
<!-- Node27 -->
<g id="node27" class="node">
<title>Node27</title>
<g id="a_node27"><a xlink:href="GNSSReceiver_8cpp.html" target="_top" xlink:title="GNSS Receiver class.">
<polygon fill="white" stroke="black" points="1523.18,-56.5 1523.18,-75.5 1629.18,-75.5 1629.18,-56.5 1523.18,-56.5"/>
<text text-anchor="middle" x="1576.18" y="-63.5" font-family="Helvetica,sans-Serif" font-size="10.00">GNSSReceiver.cpp</text>
</a>
</g>
</g>
<!-- Node26&#45;&gt;Node27 -->
<g id="edge47" class="edge">
<title>Node26&#45;&gt;Node27</title>
<path fill="none" stroke="midnightblue" d="M1680.28,-108.64C1654.94,-98.5 1619.75,-84.43 1597.47,-75.52"/>
<polygon fill="midnightblue" stroke="midnightblue" points="1679.21,-111.98 1689.79,-112.44 1681.81,-105.48 1679.21,-111.98"/>
</g>
<!-- Node28&#45;&gt;Node7 -->
<g id="edge53" class="edge">
<title>Node28&#45;&gt;Node7</title>
<path fill="none" stroke="midnightblue" d="M1489.28,-115.06C1476.98,-113.99 1464.18,-112.92 1452.18,-112 1388.94,-107.16 966.03,-80.54 808.86,-70.68"/>
<polygon fill="midnightblue" stroke="midnightblue" points="1489.21,-118.57 1499.48,-115.96 1489.82,-111.6 1489.21,-118.57"/>
</g>
<!-- Node28&#45;&gt;Node15 -->
<g id="edge54" class="edge">
<title>Node28&#45;&gt;Node15</title>
<path fill="none" stroke="midnightblue" d="M1515.49,-109.44C1482.31,-99.26 1434.76,-84.66 1404.94,-75.52"/>
<polygon fill="midnightblue" stroke="midnightblue" points="1514.71,-112.86 1525.3,-112.44 1516.76,-106.16 1514.71,-112.86"/>
</g>
<!-- Node28&#45;&gt;Node16 -->
<g id="edge55" class="edge">
<title>Node28&#45;&gt;Node16</title>
<path fill="none" stroke="midnightblue" d="M1494.61,-110.66C1436.79,-100.46 1349.4,-85.04 1295.44,-75.52"/>
<polygon fill="midnightblue" stroke="midnightblue" points="1494.24,-114.15 1504.7,-112.44 1495.46,-107.26 1494.24,-114.15"/>
</g>
<!-- Node29&#45;&gt;Node21 -->
<g id="edge61" class="edge">
<title>Node29&#45;&gt;Node21</title>
<path fill="none" stroke="midnightblue" d="M947.18,-113.78C856.05,-103.65 690.94,-85.31 596.86,-74.85"/>
<polygon fill="midnightblue" stroke="midnightblue" points="947.05,-117.28 957.38,-114.91 947.83,-110.33 947.05,-117.28"/>
</g>
<!-- Node31&#45;&gt;Node5 -->
<g id="edge64" class="edge">
<title>Node31&#45;&gt;Node5</title>
<path fill="none" stroke="midnightblue" d="M1150.89,-161C1141.14,-151.43 1129.13,-139.64 1121.1,-131.75"/>
<polygon fill="midnightblue" stroke="midnightblue" points="1148.51,-163.57 1158.1,-168.08 1153.42,-158.58 1148.51,-163.57"/>
</g>
<!-- Node31&#45;&gt;Node18 -->
<g id="edge65" class="edge">
<title>Node31&#45;&gt;Node18</title>
<path fill="none" stroke="midnightblue" d="M1107.91,-167.39C1045.13,-157.21 946.96,-141.29 886.82,-131.54"/>
<polygon fill="midnightblue" stroke="midnightblue" points="1107.62,-170.89 1118.05,-169.03 1108.74,-163.98 1107.62,-170.89"/>
</g>
<!-- Node31&#45;&gt;Node29 -->
<g id="edge66" class="edge">
<title>Node31&#45;&gt;Node29</title>
<path fill="none" stroke="midnightblue" d="M1132.85,-165.04C1103.69,-154.88 1062.55,-140.55 1036.63,-131.52"/>
<polygon fill="midnightblue" stroke="midnightblue" points="1132.03,-168.46 1142.62,-168.44 1134.33,-161.85 1132.03,-168.46"/>
</g>
<!-- Node31&#45;&gt;Node30 -->
<g id="edge67" class="edge">
<title>Node31&#45;&gt;Node30</title>
<path fill="none" stroke="midnightblue" d="M1202.45,-165.17C1232.76,-155 1275.75,-140.59 1302.79,-131.52"/>
<polygon fill="midnightblue" stroke="midnightblue" points="1201.06,-161.95 1192.69,-168.44 1203.29,-168.58 1201.06,-161.95"/>
</g>
<!-- Node32 -->
<g id="node32" class="node">
<title>Node32</title>
<g id="a_node32"><a xlink:href="OrbitStateUtils_8cpp.html" target="_top" xlink:title="Util functions for state conversions.">
<polygon fill="white" stroke="black" points="1157.68,-112.5 1157.68,-131.5 1266.68,-131.5 1266.68,-112.5 1157.68,-112.5"/>
<text text-anchor="middle" x="1212.18" y="-119.5" font-family="Helvetica,sans-Serif" font-size="10.00">OrbitStateUtils.cpp</text>
</a>
</g>
</g>
<!-- Node31&#45;&gt;Node32 -->
<g id="edge68" class="edge">
<title>Node31&#45;&gt;Node32</title>
<path fill="none" stroke="midnightblue" d="M1181.23,-160.14C1189.07,-150.74 1198.51,-139.4 1204.89,-131.75"/>
<polygon fill="midnightblue" stroke="midnightblue" points="1178.33,-158.16 1174.61,-168.08 1183.7,-162.64 1178.33,-158.16"/>
</g>
<!-- Node31&#45;&gt;Node33 -->
<g id="edge69" class="edge">
<title>Node31&#45;&gt;Node33</title>
<path fill="none" stroke="midnightblue" d="M1219.71,-166.46C1262.9,-157.67 1325.63,-144.58 1380.18,-132 1383.07,-131.33 1386.08,-130.62 1389.08,-129.89"/>
<polygon fill="midnightblue" stroke="midnightblue" points="1218.82,-163.07 1209.72,-168.49 1220.21,-169.93 1218.82,-163.07"/>
</g>
</g>
</svg>
        <g id="navigator" transform="translate(0 0)" fill="#404254">
                <rect fill="#f2f5e9" fill-opacity="0.5" stroke="#606060" stroke-width=".5" x="0" y="0" width="60" height="60"/>
                <use id="zoomplus" xlink:href="#zoomPlus" x="17" y="9" onmousedown="handleZoom(evt,'in')"/>
                <use id="zoomminus" xlink:href="#zoomMin" x="42" y="9" onmousedown="handleZoom(evt,'out')"/>
                <use id="reset" xlink:href="#resetDef" x="30" y="36" onmousedown="handleReset()"/>
                <g id="arrowUp" xlink:href="#dirArrow" transform="translate(30 24)" onmousedown="handlePan(0,-1)">
                  <use xlink:href="#rim" fill="#404040">
                        <set attributeName="fill" to="#808080" begin="arrowUp.mouseover" end="arrowUp.mouseout"/>
                  </use>
                  <path fill="none" stroke="white" stroke-width="1.5" d="M0,-3.0v7 M-2.5,-0.5L0,-3.0L2.5,-0.5"/>
                </g>
                <g id="arrowRight" xlink:href="#dirArrow" transform="rotate(90) translate(36 -43)" onmousedown="handlePan(1,0)">
                  <use xlink:href="#rim" fill="#404040">
                        <set attributeName="fill" to="#808080" begin="arrowRight.mouseover" end="arrowRight.mouseout"/>
                  </use>
                  <path fill="none" stroke="white" stroke-width="1.5" d="M0,-3.0v7 M-2.5,-0.5L0,-3.0L2.5,-0.5"/>
                </g>
                <g id="arrowDown" xlink:href="#dirArrow" transform="rotate(180) translate(-30 -48)" onmousedown="handlePan(0,1)">
                  <use xlink:href="#rim" fill="#404040">
                        <set attributeName="fill" to="#808080" begin="arrowDown.mouseover" end="arrowDown.mouseout"/>
                  </use>
                  <path fill="none" stroke="white" stroke-width="1.5" d="M0,-3.0v7 M-2.5,-0.5L0,-3.0L2.5,-0.5"/>
                </g>
                <g id="arrowLeft" xlink:href="#dirArrow" transform="rotate(270) translate(-36 17)" onmousedown="handlePan(-1,0)">
                  <use xlink:href="#rim" fill="#404040">
                        <set attributeName="fill" to="#808080" begin="arrowLeft.mouseover" end="arrowLeft.mouseout"/>
                  </use>
                  <path fill="none" stroke="white" stroke-width="1.5" d="M0,-3.0v7 M-2.5,-0.5L0,-3.0L2.5,-0.5"/>
                </g>
        </g>
        <svg viewBox="0 0 15 15" width="100%" height="30px" preserveAspectRatio="xMaxYMin meet">
         <g id="arrow_out" transform="scale(0.3 0.3)">
          <a xlink:href="State_8h__dep__incl_org.svg" target="_base">
           <rect id="button" ry="5" rx="5" y="6" x="6" height="38" width="38"
                fill="#f2f5e9" fill-opacity="0.5" stroke="#606060" stroke-width="1.0"/>
           <path id="arrow"
             d="M 11.500037,31.436501 C 11.940474,20.09759 22.043105,11.32322 32.158766,21.979434 L 37.068811,17.246167 C 37.068811,17.246167 37.088388,32 37.088388,32 L 22.160133,31.978069 C 22.160133,31.978069 26.997745,27.140456 26.997745,27.140456 C 18.528582,18.264221 13.291696,25.230495 11.500037,31.436501 z"
             style="fill:#404040;"/>
          </a>
         </g>
        </svg>
</svg>
