<?xml version="1.0" encoding="UTF-8" standalone="no"?>
<!DOCTYPE svg PUBLIC "-//W3C//DTD SVG 1.1//EN"
 "http://www.w3.org/Graphics/SVG/1.1/DTD/svg11.dtd">
<!-- Generated by graphviz version 2.43.0 (0)
 -->
<!-- Title: StringUtils.cpp Pages: 1 -->
<svg width="326pt" height="140pt"
 viewBox="0.00 0.00 326.00 140.00" xmlns="http://www.w3.org/2000/svg" xmlns:xlink="http://www.w3.org/1999/xlink">
<g id="graph0" class="graph" transform="scale(1 1) rotate(0) translate(4 136)">
<title>StringUtils.cpp</title>
<polygon fill="white" stroke="transparent" points="-4,4 -4,-136 322,-136 322,4 -4,4"/>
<!-- Node1 -->
<g id="node1" class="node">
<title>Node1</title>
<g id="a_node1"><a xlink:title="Util functions for strings.">
<polygon fill="#bfbfbf" stroke="black" points="132,-112.5 132,-131.5 220,-131.5 220,-112.5 132,-112.5"/>
<text text-anchor="middle" x="176" y="-119.5" font-family="Helvetica,sans-Serif" font-size="10.00">StringUtils.cpp</text>
</a>
</g>
</g>
<!-- Node2 -->
<g id="node2" class="node">
<title>Node2</title>
<g id="a_node2"><a xlink:href="StringUtils_8h.html" target="_top" xlink:title="String util functions.">
<polygon fill="white" stroke="black" points="15.5,-56.5 15.5,-75.5 92.5,-75.5 92.5,-56.5 15.5,-56.5"/>
<text text-anchor="middle" x="54" y="-63.5" font-family="Helvetica,sans-Serif" font-size="10.00">StringUtils.h</text>
</a>
</g>
</g>
<!-- Node1&#45;&gt;Node2 -->
<g id="edge1" class="edge">
<title>Node1&#45;&gt;Node2</title>
<path fill="none" stroke="midnightblue" d="M156.67,-112.44C136.68,-103.6 105.26,-89.69 82.44,-79.59"/>
<polygon fill="midnightblue" stroke="midnightblue" points="83.8,-76.36 73.24,-75.52 80.97,-82.76 83.8,-76.36"/>
</g>
<!-- Node5 -->
<g id="node5" class="node">
<title>Node5</title>
<g id="a_node5"><a xlink:title=" ">
<polygon fill="white" stroke="#bfbfbf" points="110.5,-56.5 110.5,-75.5 165.5,-75.5 165.5,-56.5 110.5,-56.5"/>
<text text-anchor="middle" x="138" y="-63.5" font-family="Helvetica,sans-Serif" font-size="10.00">fstream</text>
</a>
</g>
</g>
<!-- Node1&#45;&gt;Node5 -->
<g id="edge4" class="edge">
<title>Node1&#45;&gt;Node5</title>
<path fill="none" stroke="midnightblue" d="M169.73,-112.08C164.36,-104.46 156.48,-93.26 149.92,-83.94"/>
<polygon fill="midnightblue" stroke="midnightblue" points="152.78,-81.91 144.16,-75.75 147.05,-85.94 152.78,-81.91"/>
</g>
<!-- Node6 -->
<g id="node6" class="node">
<title>Node6</title>
<g id="a_node6"><a xlink:title=" ">
<polygon fill="white" stroke="#bfbfbf" points="184,-56.5 184,-75.5 244,-75.5 244,-56.5 184,-56.5"/>
<text text-anchor="middle" x="214" y="-63.5" font-family="Helvetica,sans-Serif" font-size="10.00">iostream</text>
</a>
</g>
</g>
<!-- Node1&#45;&gt;Node6 -->
<g id="edge5" class="edge">
<title>Node1&#45;&gt;Node6</title>
<path fill="none" stroke="midnightblue" d="M182.27,-112.08C187.64,-104.46 195.52,-93.26 202.08,-83.94"/>
<polygon fill="midnightblue" stroke="midnightblue" points="204.95,-85.94 207.84,-75.75 199.22,-81.91 204.95,-85.94"/>
</g>
<!-- Node7 -->
<g id="node7" class="node">
<title>Node7</title>
<g id="a_node7"><a xlink:title=" ">
<polygon fill="white" stroke="#bfbfbf" points="262,-56.5 262,-75.5 318,-75.5 318,-56.5 262,-56.5"/>
<text text-anchor="middle" x="290" y="-63.5" font-family="Helvetica,sans-Serif" font-size="10.00">sstream</text>
</a>
</g>
</g>
<!-- Node1&#45;&gt;Node7 -->
<g id="edge6" class="edge">
<title>Node1&#45;&gt;Node7</title>
<path fill="none" stroke="midnightblue" d="M194.06,-112.44C212.57,-103.68 241.58,-89.94 262.86,-79.86"/>
<polygon fill="midnightblue" stroke="midnightblue" points="264.48,-82.96 272.02,-75.52 261.49,-76.63 264.48,-82.96"/>
</g>
<!-- Node3 -->
<g id="node3" class="node">
<title>Node3</title>
<g id="a_node3"><a xlink:title=" ">
<polygon fill="white" stroke="#bfbfbf" points="0,-0.5 0,-19.5 44,-19.5 44,-0.5 0,-0.5"/>
<text text-anchor="middle" x="22" y="-7.5" font-family="Helvetica,sans-Serif" font-size="10.00">string</text>
</a>
</g>
</g>
<!-- Node2&#45;&gt;Node3 -->
<g id="edge2" class="edge">
<title>Node2&#45;&gt;Node3</title>
<path fill="none" stroke="midnightblue" d="M48.72,-56.08C44.29,-48.61 37.84,-37.72 32.38,-28.52"/>
<polygon fill="midnightblue" stroke="midnightblue" points="35.29,-26.57 27.19,-19.75 29.27,-30.14 35.29,-26.57"/>
</g>
<!-- Node4 -->
<g id="node4" class="node">
<title>Node4</title>
<g id="a_node4"><a xlink:title=" ">
<polygon fill="white" stroke="#bfbfbf" points="62.5,-0.5 62.5,-19.5 109.5,-19.5 109.5,-0.5 62.5,-0.5"/>
<text text-anchor="middle" x="86" y="-7.5" font-family="Helvetica,sans-Serif" font-size="10.00">vector</text>
</a>
</g>
</g>
<!-- Node2&#45;&gt;Node4 -->
<g id="edge3" class="edge">
<title>Node2&#45;&gt;Node4</title>
<path fill="none" stroke="midnightblue" d="M59.28,-56.08C63.71,-48.61 70.16,-37.72 75.62,-28.52"/>
<polygon fill="midnightblue" stroke="midnightblue" points="78.73,-30.14 80.81,-19.75 72.71,-26.57 78.73,-30.14"/>
</g>
</g>
</svg>
