<?xml version="1.0" encoding="UTF-8" standalone="no"?>
<!DOCTYPE svg PUBLIC "-//W3C//DTD SVG 1.1//EN"
 "http://www.w3.org/Graphics/SVG/1.1/DTD/svg11.dtd">
<!-- Generated by graphviz version 8.1.0 (20230707.0739)
 -->
<!-- Title: LPT::Transmission Pages: 1 -->
<svg width="99pt" height="207pt"
 viewBox="0.00 0.00 99.00 207.00" xmlns="http://www.w3.org/2000/svg" xmlns:xlink="http://www.w3.org/1999/xlink">
<g id="graph0" class="graph" transform="scale(1 1) rotate(0) translate(4 203)">
<title>LPT::Transmission</title>
<!-- Node1 -->
<g id="Node000001" class="node">
<title>Node1</title>
<g id="a_Node000001"><a xlink:title=" ">
<polygon fill="#999999" stroke="none" points="91,-199 0,-199 0,0 91,0 91,-199"/>
<text text-anchor="start" x="5" y="-185.5" font-family="Helvetica,sans-Serif" font-size="10.00">LPT::Transmission</text>
<text text-anchor="start" x="6.5" y="-170.5" font-family="Helvetica,sans-Serif" font-size="10.00">+</text>
<text text-anchor="start" x="19" y="-170.5" font-family="Helvetica,sans-Serif" font-size="10.00">t_tx</text>
<text text-anchor="start" x="6.5" y="-155.5" font-family="Helvetica,sans-Serif" font-size="10.00">+</text>
<text text-anchor="start" x="19" y="-155.5" font-family="Helvetica,sans-Serif" font-size="10.00">t_rx</text>
<text text-anchor="start" x="6.5" y="-140.5" font-family="Helvetica,sans-Serif" font-size="10.00">+</text>
<text text-anchor="start" x="19" y="-140.5" font-family="Helvetica,sans-Serif" font-size="10.00">freq</text>
<text text-anchor="start" x="6.5" y="-125.5" font-family="Helvetica,sans-Serif" font-size="10.00">+</text>
<text text-anchor="start" x="19" y="-125.5" font-family="Helvetica,sans-Serif" font-size="10.00">freq_label</text>
<text text-anchor="start" x="6.5" y="-110.5" font-family="Helvetica,sans-Serif" font-size="10.00">+</text>
<text text-anchor="start" x="19" y="-110.5" font-family="Helvetica,sans-Serif" font-size="10.00">dt_tx</text>
<text text-anchor="start" x="6.5" y="-95.5" font-family="Helvetica,sans-Serif" font-size="10.00">+</text>
<text text-anchor="start" x="19" y="-95.5" font-family="Helvetica,sans-Serif" font-size="10.00">dt_rx</text>
<text text-anchor="start" x="6.5" y="-80.5" font-family="Helvetica,sans-Serif" font-size="10.00">+</text>
<text text-anchor="start" x="19" y="-80.5" font-family="Helvetica,sans-Serif" font-size="10.00">I_rx</text>
<text text-anchor="start" x="6.5" y="-65.5" font-family="Helvetica,sans-Serif" font-size="10.00">+</text>
<text text-anchor="start" x="19" y="-65.5" font-family="Helvetica,sans-Serif" font-size="10.00">T_rx</text>
<text text-anchor="start" x="6.5" y="-50.5" font-family="Helvetica,sans-Serif" font-size="10.00">+</text>
<text text-anchor="start" x="19" y="-50.5" font-family="Helvetica,sans-Serif" font-size="10.00">CN0</text>
<text text-anchor="start" x="6.5" y="-35.5" font-family="Helvetica,sans-Serif" font-size="10.00">+</text>
<text text-anchor="start" x="19" y="-35.5" font-family="Helvetica,sans-Serif" font-size="10.00">AP</text>
<text text-anchor="start" x="19" y="-20.5" font-family="Helvetica,sans-Serif" font-size="10.00">and 11 more...</text>
<text text-anchor="start" x="44" y="-5.5" font-family="Helvetica,sans-Serif" font-size="10.00"> </text>
<polygon fill="#666666" stroke="#666666" points="0,-182 0,-182 91,-182 91,-182 0,-182"/>
<polygon fill="#666666" stroke="#666666" points="0,-17 0,-17 17,-17 17,-17 0,-17"/>
<polygon fill="#666666" stroke="#666666" points="17,-17 17,-17 91,-17 91,-17 17,-17"/>
<polygon fill="none" stroke="#666666" points="0,0 0,-199 91,-199 91,0 0,0"/>
</a>
</g>
</g>
</g>
</svg>
