<?xml version="1.0" encoding="UTF-8" standalone="no"?>
<!DOCTYPE svg PUBLIC "-//W3C//DTD SVG 1.1//EN"
 "http://www.w3.org/Graphics/SVG/1.1/DTD/svg11.dtd">
<!-- Generated by graphviz version 2.43.0 (0)
 -->
<!-- Title: TLE.cpp Pages: 1 -->
<!--zoomable 263 -->
<svg id="main" version="1.1" xmlns="http://www.w3.org/2000/svg" xmlns:xlink="http://www.w3.org/1999/xlink" xml:space="preserve" onload="init(evt)">
<style type="text/css"><![CDATA[
.edge:hover path { stroke: red; }
.edge:hover polygon { stroke: red; fill: red; }
]]></style>
<script type="text/javascript"><![CDATA[
var edges = document.getElementsByTagName('g');
if (edges && edges.length) {
  for (var i=0;i<edges.length;i++) {
    if (edges[i].id.substr(0,4)=='edge') {
      edges[i].setAttribute('class','edge');
    }
  }
}
]]></script>
        <defs>
                <circle id="rim" cx="0" cy="0" r="7"/>
                <circle id="rim2" cx="0" cy="0" r="3.5"/>
                <g id="zoomPlus">
                        <use xlink:href="#rim" fill="#404040">
                                <set attributeName="fill" to="#808080" begin="zoomplus.mouseover" end="zoomplus.mouseout"/>
                        </use>
                        <path d="M-4,0h8M0,-4v8" fill="none" stroke="white" stroke-width="1.5" pointer-events="none"/>
                </g>
                <g id="zoomMin">
                        <use xlink:href="#rim" fill="#404040">
                                <set attributeName="fill" to="#808080" begin="zoomminus.mouseover" end="zoomminus.mouseout"/>
                        </use>
                        <path d="M-4,0h8" fill="none" stroke="white" stroke-width="1.5" pointer-events="none"/>
                </g>
                <g id="dirArrow">
                        <path fill="none" stroke="white" stroke-width="1.5" d="M0,-3.0v7 M-2.5,-0.5L0,-3.0L2.5,-0.5"/>
                </g>
               <g id="resetDef">
                       <use xlink:href="#rim2" fill="#404040">
                               <set attributeName="fill" to="#808080" begin="reset.mouseover" end="reset.mouseout"/>
                       </use>
               </g>
        </defs>

<script type="text/javascript">
var viewWidth = 1285;
var viewHeight = 263;
var sectionId = 'dynsection-0';
</script>
<script xlink:href="svgpan.js"/>
<svg id="graph" class="graph">
<g id="viewport">
<title>TLE.cpp</title>
<polygon fill="white" stroke="transparent" points="-4,4 -4,-259 1280.5,-259 1280.5,4 -4,4"/>
<!-- Node1 -->
<g id="node1" class="node">
<title>Node1</title>
<g id="a_node1"><a xlink:title="Routines to process TLE files.">
<polygon fill="#bfbfbf" stroke="black" points="418.5,-235.5 418.5,-254.5 472.5,-254.5 472.5,-235.5 418.5,-235.5"/>
<text text-anchor="middle" x="445.5" y="-242.5" font-family="Helvetica,sans-Serif" font-size="10.00">TLE.cpp</text>
</a>
</g>
</g>
<!-- Node2 -->
<g id="node2" class="node">
<title>Node2</title>
<g id="a_node2"><a xlink:title=" ">
<polygon fill="white" stroke="#bfbfbf" points="0,-179.5 0,-198.5 55,-198.5 55,-179.5 0,-179.5"/>
<text text-anchor="middle" x="27.5" y="-186.5" font-family="Helvetica,sans-Serif" font-size="10.00">fstream</text>
</a>
</g>
</g>
<!-- Node1&#45;&gt;Node2 -->
<g id="edge1" class="edge">
<title>Node1&#45;&gt;Node2</title>
<path fill="none" stroke="midnightblue" d="M418.48,-241.63C356.52,-236 199.52,-220.66 69.5,-199 68.22,-198.79 66.91,-198.56 65.6,-198.32"/>
<polygon fill="midnightblue" stroke="midnightblue" points="65.93,-194.82 55.45,-196.36 64.6,-201.7 65.93,-194.82"/>
</g>
<!-- Node3 -->
<g id="node3" class="node">
<title>Node3</title>
<g id="a_node3"><a xlink:title=" ">
<polygon fill="white" stroke="#bfbfbf" points="48.5,-6 48.5,-25 108.5,-25 108.5,-6 48.5,-6"/>
<text text-anchor="middle" x="78.5" y="-13" font-family="Helvetica,sans-Serif" font-size="10.00">iostream</text>
</a>
</g>
</g>
<!-- Node1&#45;&gt;Node3 -->
<g id="edge2" class="edge">
<title>Node1&#45;&gt;Node3</title>
<path fill="none" stroke="midnightblue" d="M418.1,-243.45C357.68,-240.7 212.23,-225.37 134.5,-143 104.93,-111.67 89.31,-62.14 82.6,-35.29"/>
<polygon fill="midnightblue" stroke="midnightblue" points="85.95,-34.24 80.26,-25.3 79.13,-35.83 85.95,-34.24"/>
</g>
<!-- Node4 -->
<g id="node4" class="node">
<title>Node4</title>
<g id="a_node4"><a xlink:title=" ">
<polygon fill="white" stroke="#bfbfbf" points="229.5,-179.5 229.5,-198.5 287.5,-198.5 287.5,-179.5 229.5,-179.5"/>
<text text-anchor="middle" x="258.5" y="-186.5" font-family="Helvetica,sans-Serif" font-size="10.00">memory</text>
</a>
</g>
</g>
<!-- Node1&#45;&gt;Node4 -->
<g id="edge3" class="edge">
<title>Node1&#45;&gt;Node4</title>
<path fill="none" stroke="midnightblue" d="M418.31,-236.15C386.46,-226.95 333.45,-211.64 297.29,-201.2"/>
<polygon fill="midnightblue" stroke="midnightblue" points="298.15,-197.81 287.57,-198.39 296.21,-204.53 298.15,-197.81"/>
</g>
<!-- Node5 -->
<g id="node5" class="node">
<title>Node5</title>
<g id="a_node5"><a xlink:title=" ">
<polygon fill="white" stroke="#bfbfbf" points="963.5,-6 963.5,-25 1007.5,-25 1007.5,-6 963.5,-6"/>
<text text-anchor="middle" x="985.5" y="-13" font-family="Helvetica,sans-Serif" font-size="10.00">string</text>
</a>
</g>
</g>
<!-- Node1&#45;&gt;Node5 -->
<g id="edge4" class="edge">
<title>Node1&#45;&gt;Node5</title>
<path fill="none" stroke="midnightblue" d="M472.64,-243.21C552.32,-239.97 791,-223.7 967.5,-143 1009.66,-123.72 1033.19,-127.64 1055.5,-87 1068.45,-63.4 1039.6,-42.38 1015.1,-29.56"/>
<polygon fill="midnightblue" stroke="midnightblue" points="1016.53,-26.36 1006.02,-25.06 1013.42,-32.63 1016.53,-26.36"/>
</g>
<!-- Node6 -->
<g id="node6" class="node">
<title>Node6</title>
<g id="a_node6"><a xlink:href="OrbitState_8h.html" target="_top" xlink:title="Orbit states.">
<polygon fill="white" stroke="black" points="685,-123.5 685,-142.5 760,-142.5 760,-123.5 685,-123.5"/>
<text text-anchor="middle" x="722.5" y="-130.5" font-family="Helvetica,sans-Serif" font-size="10.00">OrbitState.h</text>
</a>
</g>
</g>
<!-- Node1&#45;&gt;Node6 -->
<g id="edge5" class="edge">
<title>Node1&#45;&gt;Node6</title>
<path fill="none" stroke="midnightblue" d="M467.24,-235.37C516.08,-215.97 634.69,-168.87 691.36,-146.37"/>
<polygon fill="midnightblue" stroke="midnightblue" points="692.86,-149.54 700.87,-142.59 690.28,-143.03 692.86,-149.54"/>
</g>
<!-- Node14 -->
<g id="node14" class="node">
<title>Node14</title>
<g id="a_node14"><a xlink:href="OrbitStateUtils_8h.html" target="_top" xlink:title="Util functions for state conversions.">
<polygon fill="white" stroke="black" points="673.5,-179.5 673.5,-198.5 771.5,-198.5 771.5,-179.5 673.5,-179.5"/>
<text text-anchor="middle" x="722.5" y="-186.5" font-family="Helvetica,sans-Serif" font-size="10.00">OrbitStateUtils.h</text>
</a>
</g>
</g>
<!-- Node1&#45;&gt;Node14 -->
<g id="edge15" class="edge">
<title>Node1&#45;&gt;Node14</title>
<path fill="none" stroke="midnightblue" d="M472.56,-238.72C517.86,-229.89 609.85,-211.96 668.7,-200.49"/>
<polygon fill="midnightblue" stroke="midnightblue" points="669.42,-203.91 678.57,-198.56 668.09,-197.04 669.42,-203.91"/>
</g>
<!-- Node20 -->
<g id="node20" class="node">
<title>Node20</title>
<g id="a_node20"><a xlink:href="SpiceInterface_8h.html" target="_top" xlink:title="SPICE Interface functions.">
<polygon fill="white" stroke="black" points="306,-179.5 306,-198.5 401,-198.5 401,-179.5 306,-179.5"/>
<text text-anchor="middle" x="353.5" y="-186.5" font-family="Helvetica,sans-Serif" font-size="10.00">SpiceInterface.h</text>
</a>
</g>
</g>
<!-- Node1&#45;&gt;Node20 -->
<g id="edge30" class="edge">
<title>Node1&#45;&gt;Node20</title>
<path fill="none" stroke="midnightblue" d="M430.72,-235.32C416.23,-226.82 393.93,-213.73 377.01,-203.8"/>
<polygon fill="midnightblue" stroke="midnightblue" points="378.64,-200.7 368.24,-198.65 375.1,-206.74 378.64,-200.7"/>
</g>
<!-- Node22 -->
<g id="node22" class="node">
<title>Node22</title>
<g id="a_node22"><a xlink:href="StringUtils_8h.html" target="_top" xlink:title="String util functions.">
<polygon fill="white" stroke="black" points="1124.5,-67.5 1124.5,-86.5 1276.5,-86.5 1276.5,-67.5 1124.5,-67.5"/>
<text text-anchor="middle" x="1200.5" y="-74.5" font-family="Helvetica,sans-Serif" font-size="10.00">lupnt/numerics/StringUtils.h</text>
</a>
</g>
</g>
<!-- Node1&#45;&gt;Node22 -->
<g id="edge35" class="edge">
<title>Node1&#45;&gt;Node22</title>
<path fill="none" stroke="midnightblue" d="M472.58,-243.5C590.26,-241.14 1053.8,-229.93 1110.5,-199 1152.69,-175.99 1180.64,-123.77 1193.09,-96.06"/>
<polygon fill="midnightblue" stroke="midnightblue" points="1196.36,-97.32 1197.1,-86.75 1189.93,-94.55 1196.36,-97.32"/>
</g>
<!-- Node7 -->
<g id="node7" class="node">
<title>Node7</title>
<g id="a_node7"><a xlink:title=" ">
<polygon fill="white" stroke="#bfbfbf" points="805,-67.5 805,-86.5 882,-86.5 882,-67.5 805,-67.5"/>
<text text-anchor="middle" x="843.5" y="-74.5" font-family="Helvetica,sans-Serif" font-size="10.00">Eigen/Dense</text>
</a>
</g>
</g>
<!-- Node6&#45;&gt;Node7 -->
<g id="edge6" class="edge">
<title>Node6&#45;&gt;Node7</title>
<path fill="none" stroke="midnightblue" d="M741.67,-123.44C761.41,-114.64 792.39,-100.81 814.99,-90.72"/>
<polygon fill="midnightblue" stroke="midnightblue" points="816.71,-93.79 824.42,-86.52 813.86,-87.4 816.71,-93.79"/>
</g>
<!-- Node8 -->
<g id="node8" class="node">
<title>Node8</title>
<g id="a_node8"><a xlink:title=" ">
<polygon fill="white" stroke="#bfbfbf" points="441,-6 441,-25 578,-25 578,-6 441,-6"/>
<text text-anchor="middle" x="509.5" y="-13" font-family="Helvetica,sans-Serif" font-size="10.00">autodiff/forward/real.hpp</text>
</a>
</g>
</g>
<!-- Node6&#45;&gt;Node8 -->
<g id="edge7" class="edge">
<title>Node6&#45;&gt;Node8</title>
<path fill="none" stroke="midnightblue" d="M693.39,-123.37C668.9,-115.54 633.34,-102.81 604.5,-87 575.56,-71.14 545.52,-47.41 527.16,-31.94"/>
<polygon fill="midnightblue" stroke="midnightblue" points="529.02,-28.92 519.14,-25.08 524.47,-34.24 529.02,-28.92"/>
</g>
<!-- Node9 -->
<g id="node9" class="node">
<title>Node9</title>
<g id="a_node9"><a xlink:title=" ">
<polygon fill="white" stroke="#bfbfbf" points="691.5,-0.5 691.5,-30.5 807.5,-30.5 807.5,-0.5 691.5,-0.5"/>
<text text-anchor="start" x="699.5" y="-18.5" font-family="Helvetica,sans-Serif" font-size="10.00">autodiff/forward/real</text>
<text text-anchor="middle" x="749.5" y="-7.5" font-family="Helvetica,sans-Serif" font-size="10.00">/eigen.hpp</text>
</a>
</g>
</g>
<!-- Node6&#45;&gt;Node9 -->
<g id="edge8" class="edge">
<title>Node6&#45;&gt;Node9</title>
<path fill="none" stroke="midnightblue" d="M731.79,-123.39C740.08,-115.02 751.64,-101.48 756.5,-87 761.52,-72.04 759.75,-54.37 756.73,-40.46"/>
<polygon fill="midnightblue" stroke="midnightblue" points="760.1,-39.51 754.28,-30.66 753.31,-41.21 760.1,-39.51"/>
</g>
<!-- Node10 -->
<g id="node10" class="node">
<title>Node10</title>
<g id="a_node10"><a xlink:title=" ">
<polygon fill="white" stroke="#bfbfbf" points="900.5,-67.5 900.5,-86.5 1030.5,-86.5 1030.5,-67.5 900.5,-67.5"/>
<text text-anchor="middle" x="965.5" y="-74.5" font-family="Helvetica,sans-Serif" font-size="10.00">boost/preprocessor.hpp</text>
</a>
</g>
</g>
<!-- Node6&#45;&gt;Node10 -->
<g id="edge9" class="edge">
<title>Node6&#45;&gt;Node10</title>
<path fill="none" stroke="midnightblue" d="M760.2,-123.62C802.43,-114.24 870.98,-99 917.13,-88.75"/>
<polygon fill="midnightblue" stroke="midnightblue" points="917.9,-92.16 926.91,-86.58 916.38,-85.33 917.9,-92.16"/>
</g>
<!-- Node11 -->
<g id="node11" class="node">
<title>Node11</title>
<g id="a_node11"><a xlink:title=" ">
<polygon fill="white" stroke="#bfbfbf" points="614,-67.5 614,-86.5 679,-86.5 679,-67.5 614,-67.5"/>
<text text-anchor="middle" x="646.5" y="-74.5" font-family="Helvetica,sans-Serif" font-size="10.00">stdexcept</text>
</a>
</g>
</g>
<!-- Node6&#45;&gt;Node11 -->
<g id="edge10" class="edge">
<title>Node6&#45;&gt;Node11</title>
<path fill="none" stroke="midnightblue" d="M710.29,-123.32C698.72,-115.11 681.12,-102.6 667.34,-92.81"/>
<polygon fill="midnightblue" stroke="midnightblue" points="669.11,-89.77 658.93,-86.83 665.06,-95.48 669.11,-89.77"/>
</g>
<!-- Node12 -->
<g id="node12" class="node">
<title>Node12</title>
<g id="a_node12"><a xlink:href="State_8h.html" target="_top" xlink:title="SPICE Interface functions.">
<polygon fill="white" stroke="black" points="697,-67.5 697,-86.5 748,-86.5 748,-67.5 697,-67.5"/>
<text text-anchor="middle" x="722.5" y="-74.5" font-family="Helvetica,sans-Serif" font-size="10.00">State.h</text>
</a>
</g>
</g>
<!-- Node6&#45;&gt;Node12 -->
<g id="edge11" class="edge">
<title>Node6&#45;&gt;Node12</title>
<path fill="none" stroke="midnightblue" d="M722.5,-123.08C722.5,-116.01 722.5,-105.86 722.5,-96.99"/>
<polygon fill="midnightblue" stroke="midnightblue" points="726,-96.75 722.5,-86.75 719,-96.75 726,-96.75"/>
</g>
<!-- Node12&#45;&gt;Node8 -->
<g id="edge12" class="edge">
<title>Node12&#45;&gt;Node8</title>
<path fill="none" stroke="midnightblue" d="M696.81,-68.82C660.34,-58.64 593.21,-39.88 550,-27.81"/>
<polygon fill="midnightblue" stroke="midnightblue" points="550.67,-24.37 540.1,-25.05 548.79,-31.11 550.67,-24.37"/>
</g>
<!-- Node12&#45;&gt;Node9 -->
<g id="edge13" class="edge">
<title>Node12&#45;&gt;Node9</title>
<path fill="none" stroke="midnightblue" d="M726.37,-67.48C729.65,-60.25 734.51,-49.53 738.94,-39.78"/>
<polygon fill="midnightblue" stroke="midnightblue" points="742.19,-41.08 743.14,-30.52 735.82,-38.18 742.19,-41.08"/>
</g>
<!-- Node13 -->
<g id="node13" class="node">
<title>Node13</title>
<g id="a_node13"><a xlink:title=" ">
<polygon fill="white" stroke="#bfbfbf" points="1115,-6 1115,-25 1162,-25 1162,-6 1115,-6"/>
<text text-anchor="middle" x="1138.5" y="-13" font-family="Helvetica,sans-Serif" font-size="10.00">vector</text>
</a>
</g>
</g>
<!-- Node12&#45;&gt;Node13 -->
<g id="edge14" class="edge">
<title>Node12&#45;&gt;Node13</title>
<path fill="none" stroke="midnightblue" d="M748.21,-72.32C820.17,-62.03 1023.66,-32.92 1104.64,-21.34"/>
<polygon fill="midnightblue" stroke="midnightblue" points="1105.38,-24.77 1114.79,-19.89 1104.39,-17.84 1105.38,-24.77"/>
</g>
<!-- Node14&#45;&gt;Node6 -->
<g id="edge25" class="edge">
<title>Node14&#45;&gt;Node6</title>
<path fill="none" stroke="midnightblue" d="M722.5,-179.08C722.5,-172.01 722.5,-161.86 722.5,-152.99"/>
<polygon fill="midnightblue" stroke="midnightblue" points="726,-152.75 722.5,-142.75 719,-152.75 726,-152.75"/>
</g>
<!-- Node14&#45;&gt;Node7 -->
<g id="edge26" class="edge">
<title>Node14&#45;&gt;Node7</title>
<path fill="none" stroke="midnightblue" d="M731.99,-179.37C752.4,-160.81 800.7,-116.91 826.52,-93.44"/>
<polygon fill="midnightblue" stroke="midnightblue" points="829,-95.91 834.05,-86.59 824.3,-90.73 829,-95.91"/>
</g>
<!-- Node14&#45;&gt;Node8 -->
<g id="edge27" class="edge">
<title>Node14&#45;&gt;Node8</title>
<path fill="none" stroke="midnightblue" d="M706.41,-179.25C677.52,-163.15 615.68,-126.78 570.5,-87 551.99,-70.7 533.9,-48.83 522.3,-33.79"/>
<polygon fill="midnightblue" stroke="midnightblue" points="524.79,-31.28 515.96,-25.42 519.2,-35.51 524.79,-31.28"/>
</g>
<!-- Node14&#45;&gt;Node9 -->
<g id="edge28" class="edge">
<title>Node14&#45;&gt;Node9</title>
<path fill="none" stroke="midnightblue" d="M771.58,-179.57C852.35,-164.58 1007.55,-130.72 1039.5,-87 1044.75,-79.82 1045.22,-73.8 1039.5,-67 1011.72,-33.97 894.34,-22.54 817.7,-18.59"/>
<polygon fill="midnightblue" stroke="midnightblue" points="817.79,-15.09 807.63,-18.1 817.45,-22.08 817.79,-15.09"/>
</g>
<!-- Node14&#45;&gt;Node10 -->
<g id="edge29" class="edge">
<title>Node14&#45;&gt;Node10</title>
<path fill="none" stroke="midnightblue" d="M741.57,-179.37C784.15,-160.09 887.18,-113.45 937.25,-90.79"/>
<polygon fill="midnightblue" stroke="midnightblue" points="938.85,-93.9 946.52,-86.59 935.97,-87.53 938.85,-93.9"/>
</g>
<!-- Node15 -->
<g id="node15" class="node">
<title>Node15</title>
<g id="a_node15"><a xlink:href="Constants_8h.html" target="_top" xlink:title="List of constants.">
<polygon fill="white" stroke="black" points="336.5,-123.5 336.5,-142.5 462.5,-142.5 462.5,-123.5 336.5,-123.5"/>
<text text-anchor="middle" x="399.5" y="-130.5" font-family="Helvetica,sans-Serif" font-size="10.00">lupnt/core/Constants.h</text>
</a>
</g>
</g>
<!-- Node14&#45;&gt;Node15 -->
<g id="edge16" class="edge">
<title>Node14&#45;&gt;Node15</title>
<path fill="none" stroke="midnightblue" d="M673.44,-179.8C616.35,-170.25 522.05,-154.49 460.34,-144.17"/>
<polygon fill="midnightblue" stroke="midnightblue" points="460.79,-140.7 450.35,-142.5 459.64,-147.6 460.79,-140.7"/>
</g>
<!-- Node15&#45;&gt;Node5 -->
<g id="edge19" class="edge">
<title>Node15&#45;&gt;Node5</title>
<path fill="none" stroke="midnightblue" d="M421.9,-123.47C459.21,-109.58 536.72,-82.12 604.5,-67 731.89,-38.59 887.05,-24.11 953.16,-18.86"/>
<polygon fill="midnightblue" stroke="midnightblue" points="953.66,-22.33 963.36,-18.07 953.12,-15.36 953.66,-22.33"/>
</g>
<!-- Node15&#45;&gt;Node8 -->
<g id="edge18" class="edge">
<title>Node15&#45;&gt;Node8</title>
<path fill="none" stroke="midnightblue" d="M373.56,-123.42C343.95,-112.24 301.89,-91.23 320.5,-67 334.86,-48.3 389.22,-35.03 435.97,-26.8"/>
<polygon fill="midnightblue" stroke="midnightblue" points="436.85,-30.2 446.12,-25.07 435.68,-23.3 436.85,-30.2"/>
</g>
<!-- Node16 -->
<g id="node16" class="node">
<title>Node16</title>
<g id="a_node16"><a xlink:title=" ">
<polygon fill="white" stroke="#bfbfbf" points="330,-67.5 330,-86.5 481,-86.5 481,-67.5 330,-67.5"/>
<text text-anchor="middle" x="405.5" y="-74.5" font-family="Helvetica,sans-Serif" font-size="10.00">autodiff/common/eigen.hpp</text>
</a>
</g>
</g>
<!-- Node15&#45;&gt;Node16 -->
<g id="edge17" class="edge">
<title>Node15&#45;&gt;Node16</title>
<path fill="none" stroke="midnightblue" d="M400.49,-123.08C401.29,-115.93 402.43,-105.64 403.42,-96.69"/>
<polygon fill="midnightblue" stroke="midnightblue" points="406.9,-97.08 404.53,-86.75 399.94,-96.3 406.9,-97.08"/>
</g>
<!-- Node17 -->
<g id="node17" class="node">
<title>Node17</title>
<g id="a_node17"><a xlink:href="UserFilePath_8h.html" target="_top" xlink:title="File access utils.">
<polygon fill="white" stroke="black" points="111.5,-67.5 111.5,-86.5 197.5,-86.5 197.5,-67.5 111.5,-67.5"/>
<text text-anchor="middle" x="154.5" y="-74.5" font-family="Helvetica,sans-Serif" font-size="10.00">UserFilePath.h</text>
</a>
</g>
</g>
<!-- Node15&#45;&gt;Node17 -->
<g id="edge20" class="edge">
<title>Node15&#45;&gt;Node17</title>
<path fill="none" stroke="midnightblue" d="M360.68,-123.44C317.94,-114.02 249.17,-98.87 202.93,-88.68"/>
<polygon fill="midnightblue" stroke="midnightblue" points="203.66,-85.25 193.14,-86.52 202.15,-92.09 203.66,-85.25"/>
</g>
<!-- Node17&#45;&gt;Node3 -->
<g id="edge22" class="edge">
<title>Node17&#45;&gt;Node3</title>
<path fill="none" stroke="midnightblue" d="M143.61,-67.48C131.53,-58.02 111.83,-42.6 97.26,-31.19"/>
<polygon fill="midnightblue" stroke="midnightblue" points="99.4,-28.42 89.37,-25.01 95.09,-33.93 99.4,-28.42"/>
</g>
<!-- Node17&#45;&gt;Node5 -->
<g id="edge24" class="edge">
<title>Node17&#45;&gt;Node5</title>
<path fill="none" stroke="midnightblue" d="M197.5,-73.34C303,-66.76 583.05,-48.95 816.5,-31 864.06,-27.34 919.09,-22.51 953.1,-19.45"/>
<polygon fill="midnightblue" stroke="midnightblue" points="953.72,-22.91 963.36,-18.53 953.09,-15.94 953.72,-22.91"/>
</g>
<!-- Node18 -->
<g id="node18" class="node">
<title>Node18</title>
<g id="a_node18"><a xlink:title=" ">
<polygon fill="white" stroke="#bfbfbf" points="126.5,-6 126.5,-25 194.5,-25 194.5,-6 126.5,-6"/>
<text text-anchor="middle" x="160.5" y="-13" font-family="Helvetica,sans-Serif" font-size="10.00">filesystem</text>
</a>
</g>
</g>
<!-- Node17&#45;&gt;Node18 -->
<g id="edge21" class="edge">
<title>Node17&#45;&gt;Node18</title>
<path fill="none" stroke="midnightblue" d="M155.36,-67.48C156.21,-59.08 157.53,-45.98 158.62,-35.16"/>
<polygon fill="midnightblue" stroke="midnightblue" points="162.12,-35.31 159.64,-25.01 155.16,-34.61 162.12,-35.31"/>
</g>
<!-- Node19 -->
<g id="node19" class="node">
<title>Node19</title>
<g id="a_node19"><a xlink:title=" ">
<polygon fill="white" stroke="#bfbfbf" points="212.5,-6 212.5,-25 268.5,-25 268.5,-6 212.5,-6"/>
<text text-anchor="middle" x="240.5" y="-13" font-family="Helvetica,sans-Serif" font-size="10.00">optional</text>
</a>
</g>
</g>
<!-- Node17&#45;&gt;Node19 -->
<g id="edge23" class="edge">
<title>Node17&#45;&gt;Node19</title>
<path fill="none" stroke="midnightblue" d="M166.82,-67.48C180.62,-57.93 203.2,-42.31 219.73,-30.87"/>
<polygon fill="midnightblue" stroke="midnightblue" points="221.97,-33.58 228.2,-25.01 217.99,-27.82 221.97,-33.58"/>
</g>
<!-- Node20&#45;&gt;Node8 -->
<g id="edge32" class="edge">
<title>Node20&#45;&gt;Node8</title>
<path fill="none" stroke="midnightblue" d="M331.04,-179.38C315.73,-172.18 296.64,-160.29 287.5,-143 273.94,-117.35 307.88,-70.9 312.5,-67 345.27,-39.35 391.27,-26.57 430.58,-20.77"/>
<polygon fill="midnightblue" stroke="midnightblue" points="431.24,-24.21 440.69,-19.41 430.31,-17.28 431.24,-24.21"/>
</g>
<!-- Node20&#45;&gt;Node9 -->
<g id="edge33" class="edge">
<title>Node20&#45;&gt;Node9</title>
<path fill="none" stroke="midnightblue" d="M346.56,-179.48C329.84,-157.88 290.84,-100.36 320.5,-67 326.44,-60.32 561.57,-35.57 681.15,-23.38"/>
<polygon fill="midnightblue" stroke="midnightblue" points="681.7,-26.84 691.3,-22.35 681,-19.88 681.7,-26.84"/>
</g>
<!-- Node20&#45;&gt;Node15 -->
<g id="edge34" class="edge">
<title>Node20&#45;&gt;Node15</title>
<path fill="none" stroke="midnightblue" d="M361.1,-179.08C367.73,-171.3 377.52,-159.8 385.56,-150.37"/>
<polygon fill="midnightblue" stroke="midnightblue" points="388.23,-152.63 392.05,-142.75 382.9,-148.09 388.23,-152.63"/>
</g>
<!-- Node21 -->
<g id="node21" class="node">
<title>Node21</title>
<g id="a_node21"><a xlink:title=" ">
<polygon fill="white" stroke="#bfbfbf" points="144,-123.5 144,-142.5 197,-142.5 197,-123.5 144,-123.5"/>
<text text-anchor="middle" x="170.5" y="-130.5" font-family="Helvetica,sans-Serif" font-size="10.00">string.h</text>
</a>
</g>
</g>
<!-- Node20&#45;&gt;Node21 -->
<g id="edge31" class="edge">
<title>Node20&#45;&gt;Node21</title>
<path fill="none" stroke="midnightblue" d="M324.5,-179.44C292.67,-170.05 241.51,-154.95 206.98,-144.77"/>
<polygon fill="midnightblue" stroke="midnightblue" points="207.86,-141.37 197.28,-141.9 205.88,-148.09 207.86,-141.37"/>
</g>
<!-- Node22&#45;&gt;Node5 -->
<g id="edge36" class="edge">
<title>Node22&#45;&gt;Node5</title>
<path fill="none" stroke="midnightblue" d="M1169.7,-67.48C1129.23,-56.28 1058.53,-36.71 1017.49,-25.35"/>
<polygon fill="midnightblue" stroke="midnightblue" points="1018.3,-21.95 1007.73,-22.65 1016.43,-28.69 1018.3,-21.95"/>
</g>
<!-- Node22&#45;&gt;Node13 -->
<g id="edge37" class="edge">
<title>Node22&#45;&gt;Node13</title>
<path fill="none" stroke="midnightblue" d="M1191.62,-67.48C1182.04,-58.28 1166.59,-43.46 1154.81,-32.16"/>
<polygon fill="midnightblue" stroke="midnightblue" points="1157.01,-29.41 1147.37,-25.01 1152.16,-34.46 1157.01,-29.41"/>
</g>
</g>
</svg>
        <g id="navigator" transform="translate(0 0)" fill="#404254">
                <rect fill="#f2f5e9" fill-opacity="0.5" stroke="#606060" stroke-width=".5" x="0" y="0" width="60" height="60"/>
                <use id="zoomplus" xlink:href="#zoomPlus" x="17" y="9" onmousedown="handleZoom(evt,'in')"/>
                <use id="zoomminus" xlink:href="#zoomMin" x="42" y="9" onmousedown="handleZoom(evt,'out')"/>
                <use id="reset" xlink:href="#resetDef" x="30" y="36" onmousedown="handleReset()"/>
                <g id="arrowUp" xlink:href="#dirArrow" transform="translate(30 24)" onmousedown="handlePan(0,-1)">
                  <use xlink:href="#rim" fill="#404040">
                        <set attributeName="fill" to="#808080" begin="arrowUp.mouseover" end="arrowUp.mouseout"/>
                  </use>
                  <path fill="none" stroke="white" stroke-width="1.5" d="M0,-3.0v7 M-2.5,-0.5L0,-3.0L2.5,-0.5"/>
                </g>
                <g id="arrowRight" xlink:href="#dirArrow" transform="rotate(90) translate(36 -43)" onmousedown="handlePan(1,0)">
                  <use xlink:href="#rim" fill="#404040">
                        <set attributeName="fill" to="#808080" begin="arrowRight.mouseover" end="arrowRight.mouseout"/>
                  </use>
                  <path fill="none" stroke="white" stroke-width="1.5" d="M0,-3.0v7 M-2.5,-0.5L0,-3.0L2.5,-0.5"/>
                </g>
                <g id="arrowDown" xlink:href="#dirArrow" transform="rotate(180) translate(-30 -48)" onmousedown="handlePan(0,1)">
                  <use xlink:href="#rim" fill="#404040">
                        <set attributeName="fill" to="#808080" begin="arrowDown.mouseover" end="arrowDown.mouseout"/>
                  </use>
                  <path fill="none" stroke="white" stroke-width="1.5" d="M0,-3.0v7 M-2.5,-0.5L0,-3.0L2.5,-0.5"/>
                </g>
                <g id="arrowLeft" xlink:href="#dirArrow" transform="rotate(270) translate(-36 17)" onmousedown="handlePan(-1,0)">
                  <use xlink:href="#rim" fill="#404040">
                        <set attributeName="fill" to="#808080" begin="arrowLeft.mouseover" end="arrowLeft.mouseout"/>
                  </use>
                  <path fill="none" stroke="white" stroke-width="1.5" d="M0,-3.0v7 M-2.5,-0.5L0,-3.0L2.5,-0.5"/>
                </g>
        </g>
        <svg viewBox="0 0 15 15" width="100%" height="30px" preserveAspectRatio="xMaxYMin meet">
         <g id="arrow_out" transform="scale(0.3 0.3)">
          <a xlink:href="TLE_8cpp__incl_org.svg" target="_base">
           <rect id="button" ry="5" rx="5" y="6" x="6" height="38" width="38"
                fill="#f2f5e9" fill-opacity="0.5" stroke="#606060" stroke-width="1.0"/>
           <path id="arrow"
             d="M 11.500037,31.436501 C 11.940474,20.09759 22.043105,11.32322 32.158766,21.979434 L 37.068811,17.246167 C 37.068811,17.246167 37.088388,32 37.088388,32 L 22.160133,31.978069 C 22.160133,31.978069 26.997745,27.140456 26.997745,27.140456 C 18.528582,18.264221 13.291696,25.230495 11.500037,31.436501 z"
             style="fill:#404040;"/>
          </a>
         </g>
        </svg>
</svg>
