<?xml version="1.0" encoding="UTF-8" standalone="no"?>
<!DOCTYPE svg PUBLIC "-//W3C//DTD SVG 1.1//EN"
 "http://www.w3.org/Graphics/SVG/1.1/DTD/svg11.dtd">
<!-- Generated by graphviz version 2.43.0 (0)
 -->
<!-- Title: Transmission.h Pages: 1 -->
<svg width="437pt" height="95pt"
 viewBox="0.00 0.00 436.50 95.00" xmlns="http://www.w3.org/2000/svg" xmlns:xlink="http://www.w3.org/1999/xlink">
<g id="graph0" class="graph" transform="scale(1 1) rotate(0) translate(4 91)">
<title>Transmission.h</title>
<polygon fill="white" stroke="transparent" points="-4,4 -4,-91 432.5,-91 432.5,4 -4,4"/>
<!-- Node1 -->
<g id="node1" class="node">
<title>Node1</title>
<g id="a_node1"><a xlink:title="Signal transmission data.">
<polygon fill="#bfbfbf" stroke="black" points="191,-67.5 191,-86.5 280,-86.5 280,-67.5 191,-67.5"/>
<text text-anchor="middle" x="235.5" y="-74.5" font-family="Helvetica,sans-Serif" font-size="10.00">Transmission.h</text>
</a>
</g>
</g>
<!-- Node2 -->
<g id="node2" class="node">
<title>Node2</title>
<g id="a_node2"><a xlink:title=" ">
<polygon fill="white" stroke="#bfbfbf" points="0,-6 0,-25 77,-25 77,-6 0,-6"/>
<text text-anchor="middle" x="38.5" y="-13" font-family="Helvetica,sans-Serif" font-size="10.00">Eigen/Dense</text>
</a>
</g>
</g>
<!-- Node1&#45;&gt;Node2 -->
<g id="edge1" class="edge">
<title>Node1&#45;&gt;Node2</title>
<path fill="none" stroke="midnightblue" d="M206.72,-67.44C176.51,-58.44 127.64,-43.82 85.5,-31 82.4,-30.06 79.18,-29.07 75.95,-28.08"/>
<polygon fill="midnightblue" stroke="midnightblue" points="76.91,-24.72 66.32,-25.12 74.85,-31.41 76.91,-24.72"/>
</g>
<!-- Node3 -->
<g id="node3" class="node">
<title>Node3</title>
<g id="a_node3"><a xlink:title=" ">
<polygon fill="white" stroke="#bfbfbf" points="95,-6 95,-25 232,-25 232,-6 95,-6"/>
<text text-anchor="middle" x="163.5" y="-13" font-family="Helvetica,sans-Serif" font-size="10.00">autodiff/forward/real.hpp</text>
</a>
</g>
</g>
<!-- Node1&#45;&gt;Node3 -->
<g id="edge2" class="edge">
<title>Node1&#45;&gt;Node3</title>
<path fill="none" stroke="midnightblue" d="M225.18,-67.48C213.85,-58.11 195.43,-42.88 181.66,-31.51"/>
<polygon fill="midnightblue" stroke="midnightblue" points="183.73,-28.68 173.8,-25.01 179.28,-34.08 183.73,-28.68"/>
</g>
<!-- Node4 -->
<g id="node4" class="node">
<title>Node4</title>
<g id="a_node4"><a xlink:title=" ">
<polygon fill="white" stroke="#bfbfbf" points="250.5,-0.5 250.5,-30.5 366.5,-30.5 366.5,-0.5 250.5,-0.5"/>
<text text-anchor="start" x="258.5" y="-18.5" font-family="Helvetica,sans-Serif" font-size="10.00">autodiff/forward/real</text>
<text text-anchor="middle" x="308.5" y="-7.5" font-family="Helvetica,sans-Serif" font-size="10.00">/eigen.hpp</text>
</a>
</g>
</g>
<!-- Node1&#45;&gt;Node4 -->
<g id="edge3" class="edge">
<title>Node1&#45;&gt;Node4</title>
<path fill="none" stroke="midnightblue" d="M245.96,-67.48C255.66,-59.57 270.49,-47.48 283.27,-37.07"/>
<polygon fill="midnightblue" stroke="midnightblue" points="285.76,-39.55 291.3,-30.52 281.33,-34.13 285.76,-39.55"/>
</g>
<!-- Node5 -->
<g id="node5" class="node">
<title>Node5</title>
<g id="a_node5"><a xlink:title=" ">
<polygon fill="white" stroke="#bfbfbf" points="384.5,-6 384.5,-25 428.5,-25 428.5,-6 384.5,-6"/>
<text text-anchor="middle" x="406.5" y="-13" font-family="Helvetica,sans-Serif" font-size="10.00">string</text>
</a>
</g>
</g>
<!-- Node1&#45;&gt;Node5 -->
<g id="edge4" class="edge">
<title>Node1&#45;&gt;Node5</title>
<path fill="none" stroke="midnightblue" d="M265.93,-67.43C294.55,-59.09 338.43,-45.56 375.5,-31 376.92,-30.44 378.36,-29.85 379.81,-29.24"/>
<polygon fill="midnightblue" stroke="midnightblue" points="381.58,-32.29 389.29,-25.02 378.73,-25.89 381.58,-32.29"/>
</g>
</g>
</svg>
