<?xml version="1.0" encoding="UTF-8" standalone="no"?>
<!DOCTYPE svg PUBLIC "-//W3C//DTD SVG 1.1//EN"
 "http://www.w3.org/Graphics/SVG/1.1/DTD/svg11.dtd">
<!-- Generated by graphviz version 2.43.0 (0)
 -->
<!-- Title: Transmission.h Pages: 1 -->
<svg width="1415pt" height="252pt"
 viewBox="0.00 0.00 1415.20 252.00" xmlns="http://www.w3.org/2000/svg" xmlns:xlink="http://www.w3.org/1999/xlink">
<g id="graph0" class="graph" transform="scale(1 1) rotate(0) translate(4 248)">
<title>Transmission.h</title>
<polygon fill="white" stroke="transparent" points="-4,4 -4,-248 1411.2,-248 1411.2,4 -4,4"/>
<!-- Node1 -->
<g id="node1" class="node">
<title>Node1</title>
<g id="a_node1"><a xlink:title="Signal transmission data.">
<polygon fill="#bfbfbf" stroke="black" points="1073.5,-224.5 1073.5,-243.5 1162.5,-243.5 1162.5,-224.5 1073.5,-224.5"/>
<text text-anchor="middle" x="1118" y="-231.5" font-family="Helvetica,sans-Serif" font-size="10.00">Transmission.h</text>
</a>
</g>
</g>
<!-- Node2 -->
<g id="node2" class="node">
<title>Node2</title>
<g id="a_node2"><a xlink:href="CommDevice_8h.html" target="_top" xlink:title="Communication devices.">
<polygon fill="white" stroke="black" points="785,-168.5 785,-187.5 877,-187.5 877,-168.5 785,-168.5"/>
<text text-anchor="middle" x="831" y="-175.5" font-family="Helvetica,sans-Serif" font-size="10.00">CommDevice.h</text>
</a>
</g>
</g>
<!-- Node1&#45;&gt;Node2 -->
<g id="edge1" class="edge">
<title>Node1&#45;&gt;Node2</title>
<path fill="none" stroke="midnightblue" d="M1063.37,-222.72C1009.25,-212.54 927.31,-197.12 876.58,-187.58"/>
<polygon fill="midnightblue" stroke="midnightblue" points="1063,-226.21 1073.47,-224.62 1064.29,-219.33 1063,-226.21"/>
</g>
<!-- Node7 -->
<g id="node7" class="node">
<title>Node7</title>
<g id="a_node7"><a xlink:href="ExampleConstellations_8cpp.html" target="_top" xlink:title="Setup GNSS Constellation.">
<polygon fill="white" stroke="black" points="1073.5,-0.5 1073.5,-19.5 1222.5,-19.5 1222.5,-0.5 1073.5,-0.5"/>
<text text-anchor="middle" x="1148" y="-7.5" font-family="Helvetica,sans-Serif" font-size="10.00">ExampleConstellations.cpp</text>
</a>
</g>
</g>
<!-- Node1&#45;&gt;Node7 -->
<g id="edge50" class="edge">
<title>Node1&#45;&gt;Node7</title>
<path fill="none" stroke="midnightblue" d="M1172.91,-225.88C1230.39,-215.46 1319.08,-190.47 1369,-132 1385.59,-112.57 1379.09,-101.38 1382,-76 1383.01,-67.17 1387.66,-62.85 1382,-56 1371.33,-43.08 1280.46,-28.49 1215.16,-19.52"/>
<polygon fill="midnightblue" stroke="midnightblue" points="1172.17,-222.46 1162.91,-227.6 1173.36,-229.35 1172.17,-222.46"/>
</g>
<!-- Node8 -->
<g id="node8" class="node">
<title>Node8</title>
<g id="a_node8"><a xlink:href="ExampleEKF_8cpp.html" target="_top" xlink:title="Example of Extended Kalman Filter for orbit determination.">
<polygon fill="white" stroke="black" points="1240.5,-0.5 1240.5,-19.5 1337.5,-19.5 1337.5,-0.5 1240.5,-0.5"/>
<text text-anchor="middle" x="1289" y="-7.5" font-family="Helvetica,sans-Serif" font-size="10.00">ExampleEKF.cpp</text>
</a>
</g>
</g>
<!-- Node1&#45;&gt;Node8 -->
<g id="edge51" class="edge">
<title>Node1&#45;&gt;Node8</title>
<path fill="none" stroke="midnightblue" d="M1172.89,-231.82C1238.99,-226.97 1346.35,-207.22 1388,-132 1404.48,-102.24 1415.87,-84.3 1397,-56 1383.7,-36.06 1359.72,-24.94 1337.72,-18.75"/>
<polygon fill="midnightblue" stroke="midnightblue" points="1172.4,-228.35 1162.65,-232.48 1172.85,-235.33 1172.4,-228.35"/>
</g>
<!-- Node18 -->
<g id="node18" class="node">
<title>Node18</title>
<g id="a_node18"><a xlink:href="GNSSReceiver_8h.html" target="_top" xlink:title="GNSS receiver class.">
<polygon fill="white" stroke="black" points="1026.5,-112.5 1026.5,-131.5 1121.5,-131.5 1121.5,-112.5 1026.5,-112.5"/>
<text text-anchor="middle" x="1074" y="-119.5" font-family="Helvetica,sans-Serif" font-size="10.00">GNSSReceiver.h</text>
</a>
</g>
</g>
<!-- Node1&#45;&gt;Node18 -->
<g id="edge48" class="edge">
<title>Node1&#45;&gt;Node18</title>
<path fill="none" stroke="midnightblue" d="M1107.21,-215.71C1102.41,-207.53 1096.96,-197.48 1093,-188 1084.84,-168.47 1078.76,-144.27 1075.87,-131.62"/>
<polygon fill="midnightblue" stroke="midnightblue" points="1104.25,-217.58 1112.42,-224.33 1110.24,-213.96 1104.25,-217.58"/>
</g>
<!-- Node20 -->
<g id="node20" class="node">
<title>Node20</title>
<g id="a_node20"><a xlink:href="GNSSTransmitter_8h.html" target="_top" xlink:title="Handles GNSS transmit.">
<polygon fill="white" stroke="black" points="434.5,-112.5 434.5,-131.5 541.5,-131.5 541.5,-112.5 434.5,-112.5"/>
<text text-anchor="middle" x="488" y="-119.5" font-family="Helvetica,sans-Serif" font-size="10.00">GNSSTransmitter.h</text>
</a>
</g>
</g>
<!-- Node1&#45;&gt;Node20 -->
<g id="edge49" class="edge">
<title>Node1&#45;&gt;Node20</title>
<path fill="none" stroke="midnightblue" d="M1063.24,-227.35C995.51,-220.01 876.8,-205.97 776,-188 683.15,-171.45 574.99,-145.11 521.5,-131.61"/>
<polygon fill="midnightblue" stroke="midnightblue" points="1062.94,-230.84 1073.26,-228.43 1063.69,-223.88 1062.94,-230.84"/>
</g>
<!-- Node21 -->
<g id="node21" class="node">
<title>Node21</title>
<g id="a_node21"><a xlink:href="GNSSMeasurement_8h.html" target="_top" xlink:title="Class that constructs GPS measurement data from channel observables.">
<polygon fill="white" stroke="black" points="1102,-168.5 1102,-187.5 1222,-187.5 1222,-168.5 1102,-168.5"/>
<text text-anchor="middle" x="1162" y="-175.5" font-family="Helvetica,sans-Serif" font-size="10.00">GNSSMeasurement.h</text>
</a>
</g>
</g>
<!-- Node1&#45;&gt;Node21 -->
<g id="edge38" class="edge">
<title>Node1&#45;&gt;Node21</title>
<path fill="none" stroke="midnightblue" d="M1131.73,-216.14C1139.4,-206.74 1148.63,-195.4 1154.87,-187.75"/>
<polygon fill="midnightblue" stroke="midnightblue" points="1128.87,-214.12 1125.27,-224.08 1134.3,-218.54 1128.87,-214.12"/>
</g>
<!-- Node3 -->
<g id="node3" class="node">
<title>Node3</title>
<g id="a_node3"><a xlink:href="Agent_8h.html" target="_top" xlink:title="List of agents.">
<polygon fill="white" stroke="black" points="560,-112.5 560,-131.5 614,-131.5 614,-112.5 560,-112.5"/>
<text text-anchor="middle" x="587" y="-119.5" font-family="Helvetica,sans-Serif" font-size="10.00">Agent.h</text>
</a>
</g>
</g>
<!-- Node2&#45;&gt;Node3 -->
<g id="edge2" class="edge">
<title>Node2&#45;&gt;Node3</title>
<path fill="none" stroke="midnightblue" d="M782.3,-166.22C731.82,-155.05 654.73,-137.99 614.15,-129.01"/>
<polygon fill="midnightblue" stroke="midnightblue" points="781.82,-169.7 792.34,-168.44 783.33,-162.87 781.82,-169.7"/>
</g>
<!-- Node11 -->
<g id="node11" class="node">
<title>Node11</title>
<g id="a_node11"><a xlink:href="GNSSStateEstimationApp_8h.html" target="_top" xlink:title="State Estimation Application Using GNSS Measurement.">
<polygon fill="white" stroke="black" points="756.5,-56.5 756.5,-75.5 905.5,-75.5 905.5,-56.5 756.5,-56.5"/>
<text text-anchor="middle" x="831" y="-63.5" font-family="Helvetica,sans-Serif" font-size="10.00">GNSSStateEstimationApp.h</text>
</a>
</g>
</g>
<!-- Node2&#45;&gt;Node11 -->
<g id="edge22" class="edge">
<title>Node2&#45;&gt;Node11</title>
<path fill="none" stroke="midnightblue" d="M831,-158.35C831,-134.25 831,-93.31 831,-75.59"/>
<polygon fill="midnightblue" stroke="midnightblue" points="827.5,-158.37 831,-168.37 834.5,-158.37 827.5,-158.37"/>
</g>
<!-- Node13 -->
<g id="node13" class="node">
<title>Node13</title>
<g id="a_node13"><a xlink:href="StateEstimationApp_8h.html" target="_top" xlink:title="Base class for State Estimation Application.">
<polygon fill="white" stroke="black" points="924,-56.5 924,-75.5 1046,-75.5 1046,-56.5 924,-56.5"/>
<text text-anchor="middle" x="985" y="-63.5" font-family="Helvetica,sans-Serif" font-size="10.00">StateEstimationApp.h</text>
</a>
</g>
</g>
<!-- Node2&#45;&gt;Node13 -->
<g id="edge23" class="edge">
<title>Node2&#45;&gt;Node13</title>
<path fill="none" stroke="midnightblue" d="M851.42,-162.42C883.99,-139.15 946.71,-94.35 972.97,-75.59"/>
<polygon fill="midnightblue" stroke="midnightblue" points="849.19,-159.71 843.08,-168.37 853.26,-165.4 849.19,-159.71"/>
</g>
<!-- Node17 -->
<g id="node17" class="node">
<title>Node17</title>
<g id="a_node17"><a xlink:href="SpaceChannel_8cpp.html" target="_top" xlink:title="Base spacechannel class (Under devlopment )">
<polygon fill="white" stroke="black" points="0,-56.5 0,-75.5 106,-75.5 106,-56.5 0,-56.5"/>
<text text-anchor="middle" x="53" y="-63.5" font-family="Helvetica,sans-Serif" font-size="10.00">SpaceChannel.cpp</text>
</a>
</g>
</g>
<!-- Node2&#45;&gt;Node17 -->
<g id="edge37" class="edge">
<title>Node2&#45;&gt;Node17</title>
<path fill="none" stroke="midnightblue" d="M774.58,-171.84C696.2,-164.43 550,-149.68 426,-132 306.42,-114.95 166.34,-88.89 96.79,-75.54"/>
<polygon fill="midnightblue" stroke="midnightblue" points="774.44,-175.35 784.72,-172.8 775.09,-168.38 774.44,-175.35"/>
</g>
<!-- Node2&#45;&gt;Node18 -->
<g id="edge24" class="edge">
<title>Node2&#45;&gt;Node18</title>
<path fill="none" stroke="midnightblue" d="M879.52,-166.22C925.44,-156.01 993.45,-140.9 1035.68,-131.52"/>
<polygon fill="midnightblue" stroke="midnightblue" points="878.51,-162.86 869.5,-168.44 880.03,-169.69 878.51,-162.86"/>
</g>
<!-- Node2&#45;&gt;Node20 -->
<g id="edge33" class="edge">
<title>Node2&#45;&gt;Node20</title>
<path fill="none" stroke="midnightblue" d="M774.74,-168.14C710.2,-157.98 605.13,-141.44 541.69,-131.45"/>
<polygon fill="midnightblue" stroke="midnightblue" points="774.32,-171.62 784.74,-169.72 775.41,-164.7 774.32,-171.62"/>
</g>
<!-- Node4 -->
<g id="node4" class="node">
<title>Node4</title>
<g id="a_node4"><a xlink:href="Agent_8cpp.html" target="_top" xlink:title="Base class fo.">
<polygon fill="white" stroke="black" points="474.5,-56.5 474.5,-75.5 539.5,-75.5 539.5,-56.5 474.5,-56.5"/>
<text text-anchor="middle" x="507" y="-63.5" font-family="Helvetica,sans-Serif" font-size="10.00">Agent.cpp</text>
</a>
</g>
</g>
<!-- Node3&#45;&gt;Node4 -->
<g id="edge3" class="edge">
<title>Node3&#45;&gt;Node4</title>
<path fill="none" stroke="midnightblue" d="M565.7,-106.62C551.08,-96.76 532.17,-83.99 519.82,-75.65"/>
<polygon fill="midnightblue" stroke="midnightblue" points="563.9,-109.63 574.15,-112.32 567.82,-103.83 563.9,-109.63"/>
</g>
<!-- Node5 -->
<g id="node5" class="node">
<title>Node5</title>
<g id="a_node5"><a xlink:href="GNSSConstellation_8h.html" target="_top" xlink:title=" ">
<polygon fill="white" stroke="black" points="300.5,-56.5 300.5,-75.5 417.5,-75.5 417.5,-56.5 300.5,-56.5"/>
<text text-anchor="middle" x="359" y="-63.5" font-family="Helvetica,sans-Serif" font-size="10.00">GNSSConstellation.h</text>
</a>
</g>
</g>
<!-- Node3&#45;&gt;Node5 -->
<g id="edge4" class="edge">
<title>Node3&#45;&gt;Node5</title>
<path fill="none" stroke="midnightblue" d="M549.98,-111.78C490.75,-97.47 432.87,-84.01 396.2,-75.55"/>
<polygon fill="midnightblue" stroke="midnightblue" points="549.34,-115.22 559.88,-114.18 550.99,-108.42 549.34,-115.22"/>
</g>
<!-- Node3&#45;&gt;Node7 -->
<g id="edge18" class="edge">
<title>Node3&#45;&gt;Node7</title>
<path fill="none" stroke="midnightblue" d="M582.6,-102.44C580.33,-87.78 580.14,-67.86 592,-56 629.04,-18.97 1009.84,-24.73 1062,-20 1065.74,-19.66 1069.57,-19.3 1073.43,-18.93"/>
<polygon fill="midnightblue" stroke="midnightblue" points="579.2,-103.29 584.58,-112.42 586.07,-101.93 579.2,-103.29"/>
</g>
<!-- Node3&#45;&gt;Node8 -->
<g id="edge19" class="edge">
<title>Node3&#45;&gt;Node8</title>
<path fill="none" stroke="midnightblue" d="M592.41,-102.46C597.94,-87.16 608.15,-66.34 625,-56 682.58,-20.66 1164.83,-27.28 1232,-20 1234.69,-19.71 1237.45,-19.38 1240.22,-19.02"/>
<polygon fill="midnightblue" stroke="midnightblue" points="588.95,-101.81 589.19,-112.4 595.6,-103.97 588.95,-101.81"/>
</g>
<!-- Node9 -->
<g id="node9" class="node">
<title>Node9</title>
<g id="a_node9"><a xlink:href="ExampleEKFApp_8cpp.html" target="_top" xlink:title="Example of EKF application.">
<polygon fill="white" stroke="black" points="446,-0.5 446,-19.5 562,-19.5 562,-0.5 446,-0.5"/>
<text text-anchor="middle" x="504" y="-7.5" font-family="Helvetica,sans-Serif" font-size="10.00">ExampleEKFApp.cpp</text>
</a>
</g>
</g>
<!-- Node3&#45;&gt;Node9 -->
<g id="edge20" class="edge">
<title>Node3&#45;&gt;Node9</title>
<path fill="none" stroke="midnightblue" d="M550.04,-112.28C478.87,-102.57 328.37,-117.77 292,-76 286.16,-69.3 286.41,-62.91 292,-56 301.74,-43.98 386.5,-28.82 445.84,-19.53"/>
<polygon fill="midnightblue" stroke="midnightblue" points="549.51,-115.74 559.94,-113.91 550.64,-108.83 549.51,-115.74"/>
</g>
<!-- Node10 -->
<g id="node10" class="node">
<title>Node10</title>
<g id="a_node10"><a xlink:href="ExamplePropagation_8cpp.html" target="_top" xlink:title="Example propagating both GPS constellation and Lunar Satellite.">
<polygon fill="white" stroke="black" points="763,-0.5 763,-19.5 901,-19.5 901,-0.5 763,-0.5"/>
<text text-anchor="middle" x="832" y="-7.5" font-family="Helvetica,sans-Serif" font-size="10.00">ExamplePropagation.cpp</text>
</a>
</g>
</g>
<!-- Node3&#45;&gt;Node10 -->
<g id="edge21" class="edge">
<title>Node3&#45;&gt;Node10</title>
<path fill="none" stroke="midnightblue" d="M550.13,-109.63C516.43,-98.87 471.08,-83.31 466,-76 460.93,-68.7 460.11,-62.66 466,-56 467.22,-54.62 656.79,-31.85 762.58,-19.25"/>
<polygon fill="midnightblue" stroke="midnightblue" points="549.12,-112.98 559.71,-112.66 551.24,-106.31 549.12,-112.98"/>
</g>
<!-- Node3&#45;&gt;Node11 -->
<g id="edge10" class="edge">
<title>Node3&#45;&gt;Node11</title>
<path fill="none" stroke="midnightblue" d="M624.06,-112.8C669.46,-102.75 746.02,-85.81 792.2,-75.59"/>
<polygon fill="midnightblue" stroke="midnightblue" points="623.05,-109.44 614.04,-115.01 624.56,-116.27 623.05,-109.44"/>
</g>
<!-- Node3&#45;&gt;Node13 -->
<g id="edge13" class="edge">
<title>Node3&#45;&gt;Node13</title>
<path fill="none" stroke="midnightblue" d="M623.96,-115.99C692.51,-106.68 840.01,-86.67 923.72,-75.31"/>
<polygon fill="midnightblue" stroke="midnightblue" points="623.48,-112.52 614.04,-117.33 624.42,-119.45 623.48,-112.52"/>
</g>
<!-- Node15 -->
<g id="node15" class="node">
<title>Node15</title>
<g id="a_node15"><a xlink:href="GNSSChannel_8cpp.html" target="_top" xlink:title="GNSS Channel.">
<polygon fill="white" stroke="black" points="634,-56.5 634,-75.5 738,-75.5 738,-56.5 634,-56.5"/>
<text text-anchor="middle" x="686" y="-63.5" font-family="Helvetica,sans-Serif" font-size="10.00">GNSSChannel.cpp</text>
</a>
</g>
</g>
<!-- Node3&#45;&gt;Node15 -->
<g id="edge15" class="edge">
<title>Node3&#45;&gt;Node15</title>
<path fill="none" stroke="midnightblue" d="M611.84,-107.45C630.11,-97.48 654.42,-84.23 670.13,-75.65"/>
<polygon fill="midnightblue" stroke="midnightblue" points="610.01,-104.46 602.91,-112.32 613.36,-110.61 610.01,-104.46"/>
</g>
<!-- Node16 -->
<g id="node16" class="node">
<title>Node16</title>
<g id="a_node16"><a xlink:href="GNSSTransmitter_8cpp.html" target="_top" xlink:title="Handles GNSS transmit.">
<polygon fill="white" stroke="black" points="124.5,-56.5 124.5,-75.5 243.5,-75.5 243.5,-56.5 124.5,-56.5"/>
<text text-anchor="middle" x="184" y="-63.5" font-family="Helvetica,sans-Serif" font-size="10.00">GNSSTransmitter.cpp</text>
</a>
</g>
</g>
<!-- Node3&#45;&gt;Node16 -->
<g id="edge16" class="edge">
<title>Node3&#45;&gt;Node16</title>
<path fill="none" stroke="midnightblue" d="M550.01,-112.36C506.07,-106.28 336.04,-85.53 243.86,-74.29"/>
<polygon fill="midnightblue" stroke="midnightblue" points="549.54,-115.83 559.95,-113.86 550.58,-108.91 549.54,-115.83"/>
</g>
<!-- Node3&#45;&gt;Node17 -->
<g id="edge17" class="edge">
<title>Node3&#45;&gt;Node17</title>
<path fill="none" stroke="midnightblue" d="M550.09,-112.12C357.43,-80.89 304.98,-97.61 115,-76 112.08,-75.67 109.09,-75.31 106.07,-74.92"/>
<polygon fill="midnightblue" stroke="midnightblue" points="549.54,-115.57 559.97,-113.74 550.67,-108.67 549.54,-115.57"/>
</g>
<!-- Node6 -->
<g id="node6" class="node">
<title>Node6</title>
<g id="a_node6"><a xlink:href="GNSSConstellation_8cpp.html" target="_top" xlink:title="GNSS Constellation.">
<polygon fill="white" stroke="black" points="295,-0.5 295,-19.5 423,-19.5 423,-0.5 295,-0.5"/>
<text text-anchor="middle" x="359" y="-7.5" font-family="Helvetica,sans-Serif" font-size="10.00">GNSSConstellation.cpp</text>
</a>
</g>
</g>
<!-- Node5&#45;&gt;Node6 -->
<g id="edge5" class="edge">
<title>Node5&#45;&gt;Node6</title>
<path fill="none" stroke="midnightblue" d="M359,-45.8C359,-36.91 359,-26.78 359,-19.75"/>
<polygon fill="midnightblue" stroke="midnightblue" points="355.5,-46.08 359,-56.08 362.5,-46.08 355.5,-46.08"/>
</g>
<!-- Node5&#45;&gt;Node7 -->
<g id="edge6" class="edge">
<title>Node5&#45;&gt;Node7</title>
<path fill="none" stroke="midnightblue" d="M427.66,-58.98C440.4,-57.94 453.6,-56.9 466,-56 730.68,-36.88 797.53,-41.82 1062,-20 1065.74,-19.69 1069.57,-19.36 1073.44,-19.01"/>
<polygon fill="midnightblue" stroke="midnightblue" points="427.24,-55.51 417.57,-59.82 427.82,-62.48 427.24,-55.51"/>
</g>
<!-- Node5&#45;&gt;Node8 -->
<g id="edge7" class="edge">
<title>Node5&#45;&gt;Node8</title>
<path fill="none" stroke="midnightblue" d="M427.65,-58.85C440.4,-57.81 453.6,-56.81 466,-56 806.09,-33.71 892.94,-54.63 1232,-20 1234.69,-19.73 1237.45,-19.41 1240.23,-19.06"/>
<polygon fill="midnightblue" stroke="midnightblue" points="427.24,-55.37 417.56,-59.68 427.81,-62.35 427.24,-55.37"/>
</g>
<!-- Node5&#45;&gt;Node9 -->
<g id="edge8" class="edge">
<title>Node5&#45;&gt;Node9</title>
<path fill="none" stroke="midnightblue" d="M391.48,-52.91C418.74,-42.75 456.99,-28.51 481.13,-19.52"/>
<polygon fill="midnightblue" stroke="midnightblue" points="390.13,-49.67 381.98,-56.44 392.57,-56.23 390.13,-49.67"/>
</g>
<!-- Node5&#45;&gt;Node10 -->
<g id="edge9" class="edge">
<title>Node5&#45;&gt;Node10</title>
<path fill="none" stroke="midnightblue" d="M427.56,-56.52C429.05,-56.35 430.53,-56.17 432,-56 575.02,-39.19 610.92,-36.25 754,-20 756.84,-19.68 759.75,-19.35 762.68,-19.01"/>
<polygon fill="midnightblue" stroke="midnightblue" points="427.08,-53.06 417.56,-57.72 427.91,-60.01 427.08,-53.06"/>
</g>
<!-- Node11&#45;&gt;Node9 -->
<g id="edge12" class="edge">
<title>Node11&#45;&gt;Node9</title>
<path fill="none" stroke="midnightblue" d="M769.18,-54.79C707.39,-44.59 613.47,-29.08 555.57,-19.52"/>
<polygon fill="midnightblue" stroke="midnightblue" points="768.75,-58.27 779.19,-56.44 769.89,-51.36 768.75,-58.27"/>
</g>
<!-- Node12 -->
<g id="node12" class="node">
<title>Node12</title>
<g id="a_node12"><a xlink:href="GNSSStateEstimationApp_8cpp.html" target="_top" xlink:title="State Estimation Application Using GNSS Measurement.">
<polygon fill="white" stroke="black" points="583.5,-0.5 583.5,-19.5 744.5,-19.5 744.5,-0.5 583.5,-0.5"/>
<text text-anchor="middle" x="664" y="-7.5" font-family="Helvetica,sans-Serif" font-size="10.00">GNSSStateEstimationApp.cpp</text>
</a>
</g>
</g>
<!-- Node11&#45;&gt;Node12 -->
<g id="edge11" class="edge">
<title>Node11&#45;&gt;Node12</title>
<path fill="none" stroke="midnightblue" d="M794.83,-53.3C763.36,-43.13 718.51,-28.62 690.34,-19.52"/>
<polygon fill="midnightblue" stroke="midnightblue" points="793.95,-56.7 804.54,-56.44 796.1,-50.04 793.95,-56.7"/>
</g>
<!-- Node14 -->
<g id="node14" class="node">
<title>Node14</title>
<g id="a_node14"><a xlink:href="StateEstimationApp_8cpp.html" target="_top" xlink:title="Base class for State Estimation Application.">
<polygon fill="white" stroke="black" points="919,-0.5 919,-19.5 1053,-19.5 1053,-0.5 919,-0.5"/>
<text text-anchor="middle" x="986" y="-7.5" font-family="Helvetica,sans-Serif" font-size="10.00">StateEstimationApp.cpp</text>
</a>
</g>
</g>
<!-- Node13&#45;&gt;Node14 -->
<g id="edge14" class="edge">
<title>Node13&#45;&gt;Node14</title>
<path fill="none" stroke="midnightblue" d="M985.36,-45.8C985.52,-36.91 985.71,-26.78 985.84,-19.75"/>
<polygon fill="midnightblue" stroke="midnightblue" points="981.85,-46.02 985.17,-56.08 988.85,-46.15 981.85,-46.02"/>
</g>
<!-- Node18&#45;&gt;Node7 -->
<g id="edge29" class="edge">
<title>Node18&#45;&gt;Node7</title>
<path fill="none" stroke="midnightblue" d="M1095.99,-106.21C1106.33,-98.3 1118.09,-87.77 1126,-76 1138.1,-58.01 1144.11,-32.74 1146.58,-19.64"/>
<polygon fill="midnightblue" stroke="midnightblue" points="1093.78,-103.49 1087.76,-112.21 1097.9,-109.15 1093.78,-103.49"/>
</g>
<!-- Node18&#45;&gt;Node8 -->
<g id="edge30" class="edge">
<title>Node18&#45;&gt;Node8</title>
<path fill="none" stroke="midnightblue" d="M1099.93,-107.73C1144.59,-84.88 1234.84,-38.71 1272.21,-19.59"/>
<polygon fill="midnightblue" stroke="midnightblue" points="1098.18,-104.7 1090.87,-112.37 1101.37,-110.93 1098.18,-104.7"/>
</g>
<!-- Node18&#45;&gt;Node9 -->
<g id="edge31" class="edge">
<title>Node18&#45;&gt;Node9</title>
<path fill="none" stroke="midnightblue" d="M1073.93,-101.97C1072.77,-87.02 1068.54,-66.97 1055,-56 1013.43,-22.34 628.21,-25.36 575,-20 570.8,-19.58 566.46,-19.11 562.09,-18.61"/>
<polygon fill="midnightblue" stroke="midnightblue" points="1070.44,-102.31 1074.33,-112.16 1077.44,-102.04 1070.44,-102.31"/>
</g>
<!-- Node18&#45;&gt;Node10 -->
<g id="edge32" class="edge">
<title>Node18&#45;&gt;Node10</title>
<path fill="none" stroke="midnightblue" d="M1085.01,-103.47C1092.46,-89.16 1099.1,-69.22 1088,-56 1081.68,-48.47 965.36,-30.34 891.71,-19.53"/>
<polygon fill="midnightblue" stroke="midnightblue" points="1081.88,-101.91 1079.94,-112.33 1087.95,-105.39 1081.88,-101.91"/>
</g>
<!-- Node18&#45;&gt;Node11 -->
<g id="edge25" class="edge">
<title>Node18&#45;&gt;Node11</title>
<path fill="none" stroke="midnightblue" d="M1025.48,-110.22C979.56,-100.01 911.55,-84.9 869.32,-75.52"/>
<polygon fill="midnightblue" stroke="midnightblue" points="1024.97,-113.69 1035.5,-112.44 1026.49,-106.86 1024.97,-113.69"/>
</g>
<!-- Node18&#45;&gt;Node13 -->
<g id="edge26" class="edge">
<title>Node18&#45;&gt;Node13</title>
<path fill="none" stroke="midnightblue" d="M1050.76,-106.9C1034.44,-97 1013.13,-84.07 999.26,-75.65"/>
<polygon fill="midnightblue" stroke="midnightblue" points="1049.34,-110.13 1059.7,-112.32 1052.97,-104.14 1049.34,-110.13"/>
</g>
<!-- Node18&#45;&gt;Node15 -->
<g id="edge27" class="edge">
<title>Node18&#45;&gt;Node15</title>
<path fill="none" stroke="midnightblue" d="M1016.41,-113.17C951.25,-104.29 841.97,-89.31 748,-76 744.77,-75.54 741.44,-75.07 738.09,-74.59"/>
<polygon fill="midnightblue" stroke="midnightblue" points="1016.09,-116.66 1026.48,-114.55 1017.04,-109.73 1016.09,-116.66"/>
</g>
<!-- Node19 -->
<g id="node19" class="node">
<title>Node19</title>
<g id="a_node19"><a xlink:href="GNSSReceiver_8cpp.html" target="_top" xlink:title="GNSS Receiver class.">
<polygon fill="white" stroke="black" points="1216,-56.5 1216,-75.5 1322,-75.5 1322,-56.5 1216,-56.5"/>
<text text-anchor="middle" x="1269" y="-63.5" font-family="Helvetica,sans-Serif" font-size="10.00">GNSSReceiver.cpp</text>
</a>
</g>
</g>
<!-- Node18&#45;&gt;Node19 -->
<g id="edge28" class="edge">
<title>Node18&#45;&gt;Node19</title>
<path fill="none" stroke="midnightblue" d="M1114.81,-109.7C1151.61,-99.51 1204.93,-84.74 1238.25,-75.52"/>
<polygon fill="midnightblue" stroke="midnightblue" points="1113.6,-106.4 1104.9,-112.44 1115.47,-113.15 1113.6,-106.4"/>
</g>
<!-- Node20&#45;&gt;Node5 -->
<g id="edge34" class="edge">
<title>Node20&#45;&gt;Node5</title>
<path fill="none" stroke="midnightblue" d="M458.15,-108.5C433.96,-98.38 400.54,-84.39 379.34,-75.52"/>
<polygon fill="midnightblue" stroke="midnightblue" points="456.98,-111.81 467.56,-112.44 459.69,-105.35 456.98,-111.81"/>
</g>
<!-- Node20&#45;&gt;Node15 -->
<g id="edge35" class="edge">
<title>Node20&#45;&gt;Node15</title>
<path fill="none" stroke="midnightblue" d="M529.44,-109.7C566.81,-99.51 620.94,-84.74 654.77,-75.52"/>
<polygon fill="midnightblue" stroke="midnightblue" points="528.1,-106.44 519.37,-112.44 529.94,-113.19 528.1,-106.44"/>
</g>
<!-- Node20&#45;&gt;Node16 -->
<g id="edge36" class="edge">
<title>Node20&#45;&gt;Node16</title>
<path fill="none" stroke="midnightblue" d="M429.81,-110.66C372.36,-100.46 285.55,-85.04 231.94,-75.52"/>
<polygon fill="midnightblue" stroke="midnightblue" points="429.37,-114.14 439.83,-112.44 430.6,-107.25 429.37,-114.14"/>
</g>
<!-- Node21&#45;&gt;Node7 -->
<g id="edge45" class="edge">
<title>Node21&#45;&gt;Node7</title>
<path fill="none" stroke="midnightblue" d="M1232.16,-167.28C1277.21,-159.69 1330.31,-147.78 1347,-132 1372.15,-108.22 1385.84,-82.85 1364,-56 1354.09,-43.81 1268.23,-28.77 1207.8,-19.54"/>
<polygon fill="midnightblue" stroke="midnightblue" points="1231.39,-163.86 1222.09,-168.93 1232.53,-170.77 1231.39,-163.86"/>
</g>
<!-- Node21&#45;&gt;Node8 -->
<g id="edge46" class="edge">
<title>Node21&#45;&gt;Node8</title>
<path fill="none" stroke="midnightblue" d="M1232.46,-169.76C1284.61,-162.95 1349.79,-150.94 1369,-132 1393.4,-107.94 1400.2,-85.03 1382,-56 1370.18,-37.16 1348,-26.01 1328.25,-19.52"/>
<polygon fill="midnightblue" stroke="midnightblue" points="1231.7,-166.32 1222.22,-171.05 1232.58,-173.27 1231.7,-166.32"/>
</g>
<!-- Node21&#45;&gt;Node10 -->
<g id="edge47" class="edge">
<title>Node21&#45;&gt;Node10</title>
<path fill="none" stroke="midnightblue" d="M1162.92,-158.08C1164.65,-143.49 1169.38,-123.87 1182,-112 1233.54,-63.54 1378.85,-108.11 1331,-56 1299.25,-21.42 956.71,-24.69 910,-20 907.15,-19.71 904.25,-19.41 901.31,-19.11"/>
<polygon fill="midnightblue" stroke="midnightblue" points="1159.4,-158.2 1162.08,-168.45 1166.38,-158.77 1159.4,-158.2"/>
</g>
<!-- Node21&#45;&gt;Node11 -->
<g id="edge39" class="edge">
<title>Node21&#45;&gt;Node11</title>
<path fill="none" stroke="midnightblue" d="M1116.35,-165.95C1083.01,-157.54 1036.85,-145.19 997,-132 943.38,-114.25 881.85,-88.77 850.93,-75.61"/>
<polygon fill="midnightblue" stroke="midnightblue" points="1115.72,-169.4 1126.27,-168.43 1117.42,-162.61 1115.72,-169.4"/>
</g>
<!-- Node21&#45;&gt;Node13 -->
<g id="edge40" class="edge">
<title>Node21&#45;&gt;Node13</title>
<path fill="none" stroke="midnightblue" d="M1091.79,-166.8C1066.32,-160.26 1038.75,-149.54 1018,-132 1000.03,-116.8 990.75,-89.37 987.02,-75.51"/>
<polygon fill="midnightblue" stroke="midnightblue" points="1091.26,-170.27 1101.8,-169.19 1092.88,-163.46 1091.26,-170.27"/>
</g>
<!-- Node21&#45;&gt;Node18 -->
<g id="edge43" class="edge">
<title>Node21&#45;&gt;Node18</title>
<path fill="none" stroke="midnightblue" d="M1139.02,-162.9C1122.89,-153 1101.82,-140.07 1088.1,-131.65"/>
<polygon fill="midnightblue" stroke="midnightblue" points="1137.51,-166.08 1147.86,-168.32 1141.17,-160.11 1137.51,-166.08"/>
</g>
<!-- Node21&#45;&gt;Node19 -->
<g id="edge42" class="edge">
<title>Node21&#45;&gt;Node19</title>
<path fill="none" stroke="midnightblue" d="M1232.16,-167.06C1272.91,-159.7 1318.61,-148.12 1331,-132 1347.73,-110.24 1312.15,-87.68 1288.28,-75.7"/>
<polygon fill="midnightblue" stroke="midnightblue" points="1231.45,-163.63 1222.2,-168.8 1232.65,-170.53 1231.45,-163.63"/>
</g>
<!-- Node21&#45;&gt;Node20 -->
<g id="edge44" class="edge">
<title>Node21&#45;&gt;Node20</title>
<path fill="none" stroke="midnightblue" d="M1091.28,-173.37C977.32,-167.16 746.09,-153.09 551,-132 547.92,-131.67 544.77,-131.3 541.58,-130.91"/>
<polygon fill="midnightblue" stroke="midnightblue" points="1091.43,-176.88 1101.6,-173.92 1091.81,-169.89 1091.43,-176.88"/>
</g>
<!-- Node22 -->
<g id="node22" class="node">
<title>Node22</title>
<g id="a_node22"><a xlink:href="GNSSMeasurement_8cpp.html" target="_top" xlink:title="Class that constructs GPS measurement data from channel observables.">
<polygon fill="white" stroke="black" points="1190.5,-112.5 1190.5,-131.5 1321.5,-131.5 1321.5,-112.5 1190.5,-112.5"/>
<text text-anchor="middle" x="1256" y="-119.5" font-family="Helvetica,sans-Serif" font-size="10.00">GNSSMeasurement.cpp</text>
</a>
</g>
</g>
<!-- Node21&#45;&gt;Node22 -->
<g id="edge41" class="edge">
<title>Node21&#45;&gt;Node22</title>
<path fill="none" stroke="midnightblue" d="M1186.06,-163.18C1203.36,-153.24 1226.15,-140.15 1240.93,-131.65"/>
<polygon fill="midnightblue" stroke="midnightblue" points="1184.03,-160.31 1177.1,-168.32 1187.52,-166.38 1184.03,-160.31"/>
</g>
</g>
</svg>
